<?xml version="1.0" encoding="UTF-8" standalone="no"?>
<!DOCTYPE svg PUBLIC "-//W3C//DTD SVG 1.1//EN"
 "http://www.w3.org/Graphics/SVG/1.1/DTD/svg11.dtd">
<!-- Generated by graphviz version 2.40.1 (20161225.0304)
 -->
<!-- Title: /home/travis/build/AliceO2Group/AliceO2/Detectors/TRD/base/include/TRDBase/LocalT0.h Pages: 1 -->
<svg width="2420pt" height="609pt"
 viewBox="0.00 0.00 2419.55 609.00" xmlns="http://www.w3.org/2000/svg" xmlns:xlink="http://www.w3.org/1999/xlink">
<g id="graph0" class="graph" transform="scale(1 1) rotate(0) translate(4 605)">
<title>/home/travis/build/AliceO2Group/AliceO2/Detectors/TRD/base/include/TRDBase/LocalT0.h</title>
<!-- Node0 -->
<g id="node1" class="node">
<title>Node0</title>
<polygon fill="#bfbfbf" stroke="#000000" points="538.0463,-548.5 538.0463,-600.5 693.0463,-600.5 693.0463,-548.5 538.0463,-548.5"/>
<text text-anchor="start" x="546.0463" y="-588.5" font-family="Helvetica,sans-Serif" font-size="10.00" fill="#000000">/home/travis/build</text>
<text text-anchor="start" x="546.0463" y="-577.5" font-family="Helvetica,sans-Serif" font-size="10.00" fill="#000000">/AliceO2Group/AliceO2</text>
<text text-anchor="start" x="546.0463" y="-566.5" font-family="Helvetica,sans-Serif" font-size="10.00" fill="#000000">/Detectors/TRD/base/include</text>
<text text-anchor="middle" x="615.5463" y="-555.5" font-family="Helvetica,sans-Serif" font-size="10.00" fill="#000000">/TRDBase/LocalT0.h</text>
</g>
<!-- Node1 -->
<g id="node2" class="node">
<title>Node1</title>
<g id="a_node2"><a xlink:href="../../d2/d2a/PadParameters_8h.html" target="_top" xlink:title="TRDBase/PadParameters.h">
<polygon fill="none" stroke="#000000" points="491.5463,-436.5 491.5463,-455.5 637.5463,-455.5 637.5463,-436.5 491.5463,-436.5"/>
<text text-anchor="middle" x="564.5463" y="-443.5" font-family="Helvetica,sans-Serif" font-size="10.00" fill="#000000">TRDBase/PadParameters.h</text>
</a>
</g>
</g>
<!-- Node0&#45;&gt;Node1 -->
<g id="edge1" class="edge">
<title>Node0&#45;&gt;Node1</title>
<path fill="none" stroke="#191970" d="M600.6834,-548.2604C594.842,-537.2786 588.3899,-524.2421 583.5463,-512 577.5146,-496.7548 572.481,-478.8462 569.1134,-465.5333"/>
<polygon fill="#191970" stroke="#191970" points="572.4588,-464.478 566.6912,-455.5907 565.6577,-466.135 572.4588,-464.478"/>
</g>
<!-- Node42 -->
<g id="node43" class="node">
<title>Node42</title>
<g id="a_node43"><a xlink:href="../../d2/d7d/PadCalibrations_8h.html" target="_top" xlink:title="TRDBase/PadCalibrations.h">
<polygon fill="none" stroke="#000000" points="592.0463,-492.5 592.0463,-511.5 741.0463,-511.5 741.0463,-492.5 592.0463,-492.5"/>
<text text-anchor="middle" x="666.5463" y="-499.5" font-family="Helvetica,sans-Serif" font-size="10.00" fill="#000000">TRDBase/PadCalibrations.h</text>
</a>
</g>
</g>
<!-- Node0&#45;&gt;Node42 -->
<g id="edge58" class="edge">
<title>Node0&#45;&gt;Node42</title>
<path fill="none" stroke="#191970" d="M633.9585,-548.3258C640.5797,-538.9134 647.8934,-528.5164 653.9117,-519.961"/>
<polygon fill="#191970" stroke="#191970" points="656.9487,-521.7268 659.8397,-511.534 651.2234,-517.6993 656.9487,-521.7268"/>
</g>
<!-- Node2 -->
<g id="node3" class="node">
<title>Node2</title>
<polygon fill="none" stroke="#bfbfbf" points="503.0463,-252 503.0463,-271 550.0463,-271 550.0463,-252 503.0463,-252"/>
<text text-anchor="middle" x="526.5463" y="-259" font-family="Helvetica,sans-Serif" font-size="10.00" fill="#000000">vector</text>
</g>
<!-- Node1&#45;&gt;Node2 -->
<g id="edge2" class="edge">
<title>Node1&#45;&gt;Node2</title>
<path fill="none" stroke="#191970" d="M497.8538,-436.4923C463.4394,-429.6896 421.6424,-418.3808 387.5463,-400 354.8615,-382.3799 340.6228,-377.9333 325.5463,-344 319.9522,-331.409 317.0991,-323.8845 325.5463,-313 345.8988,-286.7754 441.1254,-271.6181 492.8687,-265.1849"/>
<polygon fill="#191970" stroke="#191970" points="493.3942,-268.6471 502.9051,-263.9788 492.5589,-261.6971 493.3942,-268.6471"/>
</g>
<!-- Node3 -->
<g id="node4" class="node">
<title>Node3</title>
<g id="a_node4"><a xlink:href="../../dd/d07/TRDGeometry_8h.html" target="_top" xlink:title="TRDBase/TRDGeometry.h">
<polygon fill="none" stroke="#000000" points="396.5463,-380.5 396.5463,-399.5 536.5463,-399.5 536.5463,-380.5 396.5463,-380.5"/>
<text text-anchor="middle" x="466.5463" y="-387.5" font-family="Helvetica,sans-Serif" font-size="10.00" fill="#000000">TRDBase/TRDGeometry.h</text>
</a>
</g>
</g>
<!-- Node1&#45;&gt;Node3 -->
<g id="edge3" class="edge">
<title>Node1&#45;&gt;Node3</title>
<path fill="none" stroke="#191970" d="M547.476,-436.2455C532.2993,-427.5731 509.8842,-414.7645 492.49,-404.825"/>
<polygon fill="#191970" stroke="#191970" points="493.84,-401.5653 483.421,-399.6427 490.367,-407.643 493.84,-401.5653"/>
</g>
<!-- Node40 -->
<g id="node41" class="node">
<title>Node40</title>
<g id="a_node41"><a xlink:href="../../d9/df4/TRDSimParam_8h.html" target="_top" xlink:title="TRDBase/TRDSimParam.h">
<polygon fill="none" stroke="#000000" points="593.0463,-380.5 593.0463,-399.5 736.0463,-399.5 736.0463,-380.5 593.0463,-380.5"/>
<text text-anchor="middle" x="664.5463" y="-387.5" font-family="Helvetica,sans-Serif" font-size="10.00" fill="#000000">TRDBase/TRDSimParam.h</text>
</a>
</g>
</g>
<!-- Node1&#45;&gt;Node40 -->
<g id="edge53" class="edge">
<title>Node1&#45;&gt;Node40</title>
<path fill="none" stroke="#191970" d="M581.965,-436.2455C597.5949,-427.4928 620.7482,-414.527 638.5649,-404.5496"/>
<polygon fill="#191970" stroke="#191970" points="640.3123,-407.5825 647.3273,-399.6427 636.8921,-401.475 640.3123,-407.5825"/>
</g>
<!-- Node41 -->
<g id="node42" class="node">
<title>Node41</title>
<g id="a_node42"><a xlink:href="../../d2/d36/FeeParam_8h.html" target="_top" xlink:title="TRDBase/FeeParam.h">
<polygon fill="none" stroke="#000000" points="510.5463,-319 510.5463,-338 630.5463,-338 630.5463,-319 510.5463,-319"/>
<text text-anchor="middle" x="570.5463" y="-326" font-family="Helvetica,sans-Serif" font-size="10.00" fill="#000000">TRDBase/FeeParam.h</text>
</a>
</g>
</g>
<!-- Node1&#45;&gt;Node41 -->
<g id="edge55" class="edge">
<title>Node1&#45;&gt;Node41</title>
<path fill="none" stroke="#191970" d="M565.0373,-436.3845C566.0174,-417.1913 568.2339,-373.786 569.537,-348.2663"/>
<polygon fill="#191970" stroke="#191970" points="573.0339,-348.4139 570.0485,-338.2484 566.043,-348.0568 573.0339,-348.4139"/>
</g>
<!-- Node3&#45;&gt;Node2 -->
<g id="edge51" class="edge">
<title>Node3&#45;&gt;Node2</title>
<path fill="none" stroke="#191970" d="M470.78,-380.4811C477.2853,-365.902 490.1804,-337.188 501.5463,-313 506.6284,-302.1847 512.4514,-290.1684 517.1983,-280.4649"/>
<polygon fill="#191970" stroke="#191970" points="520.4141,-281.8564 521.6793,-271.3374 514.1305,-278.7715 520.4141,-281.8564"/>
</g>
<!-- Node4 -->
<g id="node5" class="node">
<title>Node4</title>
<g id="a_node5"><a xlink:href="../../d8/dad/TRDGeometryBase_8h.html" target="_top" xlink:title="TRDBase/TRDGeometryBase.h">
<polygon fill="none" stroke="#000000" points="59.5463,-319 59.5463,-338 225.5463,-338 225.5463,-319 59.5463,-319"/>
<text text-anchor="middle" x="142.5463" y="-326" font-family="Helvetica,sans-Serif" font-size="10.00" fill="#000000">TRDBase/TRDGeometryBase.h</text>
</a>
</g>
</g>
<!-- Node3&#45;&gt;Node4 -->
<g id="edge4" class="edge">
<title>Node3&#45;&gt;Node4</title>
<path fill="none" stroke="#191970" d="M416.2768,-380.4581C358.6094,-369.512 264.1134,-351.5752 202.6186,-339.9026"/>
<polygon fill="#191970" stroke="#191970" points="203.1445,-336.44 192.6672,-338.0137 201.839,-343.3172 203.1445,-336.44"/>
</g>
<!-- Node12 -->
<g id="node13" class="node">
<title>Node12</title>
<g id="a_node13"><a xlink:href="../../d4/d20/DetMatrixCache_8h.html" target="_top" xlink:title="DetectorsCommonDataFormats\l/DetMatrixCache.h">
<polygon fill="none" stroke="#000000" points="694.0463,-313.5 694.0463,-343.5 865.0463,-343.5 865.0463,-313.5 694.0463,-313.5"/>
<text text-anchor="start" x="702.0463" y="-331.5" font-family="Helvetica,sans-Serif" font-size="10.00" fill="#000000">DetectorsCommonDataFormats</text>
<text text-anchor="middle" x="779.5463" y="-320.5" font-family="Helvetica,sans-Serif" font-size="10.00" fill="#000000">/DetMatrixCache.h</text>
</a>
</g>
</g>
<!-- Node3&#45;&gt;Node12 -->
<g id="edge14" class="edge">
<title>Node3&#45;&gt;Node12</title>
<path fill="none" stroke="#191970" d="M515.1092,-380.4581C562.4897,-371.1485 635.6055,-356.7823 692.9559,-345.5138"/>
<polygon fill="#191970" stroke="#191970" points="693.969,-348.8817 703.1066,-343.5193 692.6194,-342.013 693.969,-348.8817"/>
</g>
<!-- Node17 -->
<g id="node18" class="node">
<title>Node17</title>
<g id="a_node18"><a xlink:href="../../d6/d31/DetID_8h.html" target="_top" xlink:title="DetectorsCommonDataFormats\l/DetID.h">
<polygon fill="none" stroke="#000000" points="1742.0463,-246.5 1742.0463,-276.5 1913.0463,-276.5 1913.0463,-246.5 1742.0463,-246.5"/>
<text text-anchor="start" x="1750.0463" y="-264.5" font-family="Helvetica,sans-Serif" font-size="10.00" fill="#000000">DetectorsCommonDataFormats</text>
<text text-anchor="middle" x="1827.5463" y="-253.5" font-family="Helvetica,sans-Serif" font-size="10.00" fill="#000000">/DetID.h</text>
</a>
</g>
</g>
<!-- Node3&#45;&gt;Node17 -->
<g id="edge49" class="edge">
<title>Node3&#45;&gt;Node17</title>
<path fill="none" stroke="#191970" d="M536.676,-383.8824C783.1245,-362.355 1600.9393,-290.6602 1718.5463,-277 1722.9369,-276.49 1727.4237,-275.9457 1731.9535,-275.3774"/>
<polygon fill="#191970" stroke="#191970" points="1732.4448,-278.8432 1741.9181,-274.099 1731.554,-271.9001 1732.4448,-278.8432"/>
</g>
<!-- Node38 -->
<g id="node39" class="node">
<title>Node38</title>
<polygon fill="none" stroke="#bfbfbf" points="334.5463,-319 334.5463,-338 378.5463,-338 378.5463,-319 334.5463,-319"/>
<text text-anchor="middle" x="356.5463" y="-326" font-family="Helvetica,sans-Serif" font-size="10.00" fill="#000000">string</text>
</g>
<!-- Node3&#45;&gt;Node38 -->
<g id="edge50" class="edge">
<title>Node3&#45;&gt;Node38</title>
<path fill="none" stroke="#191970" d="M449.3588,-380.3906C431.4382,-370.3713 403.1369,-354.5483 382.494,-343.0071"/>
<polygon fill="#191970" stroke="#191970" points="384.0496,-339.867 373.6131,-338.0419 380.6336,-345.9769 384.0496,-339.867"/>
</g>
<!-- Node39 -->
<g id="node40" class="node">
<title>Node39</title>
<polygon fill="none" stroke="#bfbfbf" points="396.5463,-319 396.5463,-338 454.5463,-338 454.5463,-319 396.5463,-319"/>
<text text-anchor="middle" x="425.5463" y="-326" font-family="Helvetica,sans-Serif" font-size="10.00" fill="#000000">memory</text>
</g>
<!-- Node3&#45;&gt;Node39 -->
<g id="edge52" class="edge">
<title>Node3&#45;&gt;Node39</title>
<path fill="none" stroke="#191970" d="M460.1401,-380.3906C454.1577,-371.417 445.0716,-357.7879 437.7124,-346.7491"/>
<polygon fill="#191970" stroke="#191970" points="440.5021,-344.6239 432.0429,-338.2449 434.6778,-348.5068 440.5021,-344.6239"/>
</g>
<!-- Node5 -->
<g id="node6" class="node">
<title>Node5</title>
<g id="a_node6"><a xlink:href="../../df/d21/GPUCommonDef_8h.html" target="_top" xlink:title="GPUCommonDef.h">
<polygon fill="none" stroke="#000000" points="965.0463,-56.5 965.0463,-75.5 1072.0463,-75.5 1072.0463,-56.5 965.0463,-56.5"/>
<text text-anchor="middle" x="1018.5463" y="-63.5" font-family="Helvetica,sans-Serif" font-size="10.00" fill="#000000">GPUCommonDef.h</text>
</a>
</g>
</g>
<!-- Node4&#45;&gt;Node5 -->
<g id="edge5" class="edge">
<title>Node4&#45;&gt;Node5</title>
<path fill="none" stroke="#191970" d="M83.2486,-318.9697C58.6174,-311.7669 32.3675,-299.1361 17.5463,-277 -27.0678,-210.3667 20.9409,-151.8184 90.5463,-112 127.9845,-90.5832 750.7661,-72.8407 954.5624,-67.585"/>
<polygon fill="#191970" stroke="#191970" points="954.9004,-71.0776 964.8073,-67.3222 954.7208,-64.0799 954.9004,-71.0776"/>
</g>
<!-- Node8 -->
<g id="node9" class="node">
<title>Node8</title>
<g id="a_node9"><a xlink:href="../../da/d32/TRDCommonParam_8h.html" target="_top" xlink:title="TRDBase/TRDCommonParam.h">
<polygon fill="none" stroke="#000000" points="182.5463,-252 182.5463,-271 350.5463,-271 350.5463,-252 182.5463,-252"/>
<text text-anchor="middle" x="266.5463" y="-259" font-family="Helvetica,sans-Serif" font-size="10.00" fill="#000000">TRDBase/TRDCommonParam.h</text>
</a>
</g>
</g>
<!-- Node4&#45;&gt;Node8 -->
<g id="edge8" class="edge">
<title>Node4&#45;&gt;Node8</title>
<path fill="none" stroke="#191970" d="M160.3125,-318.9005C181.1225,-307.6564 215.8051,-288.9166 239.8551,-275.9219"/>
<polygon fill="#191970" stroke="#191970" points="241.679,-278.9147 248.8131,-271.0817 238.3514,-272.7561 241.679,-278.9147"/>
</g>
<!-- Node11 -->
<g id="node12" class="node">
<title>Node11</title>
<g id="a_node12"><a xlink:href="../../de/df3/TRDPadPlane_8h.html" target="_top" xlink:title="TRDBase/TRDPadPlane.h">
<polygon fill="none" stroke="#000000" points="27.0463,-252 27.0463,-271 164.0463,-271 164.0463,-252 27.0463,-252"/>
<text text-anchor="middle" x="95.5463" y="-259" font-family="Helvetica,sans-Serif" font-size="10.00" fill="#000000">TRDBase/TRDPadPlane.h</text>
</a>
</g>
</g>
<!-- Node4&#45;&gt;Node11 -->
<g id="edge11" class="edge">
<title>Node4&#45;&gt;Node11</title>
<path fill="none" stroke="#191970" d="M135.8124,-318.9005C128.6227,-308.6515 117.0644,-292.1747 108.1715,-279.4976"/>
<polygon fill="#191970" stroke="#191970" points="110.876,-277.2582 102.2678,-271.0817 105.1453,-281.2783 110.876,-277.2582"/>
</g>
<!-- Node6 -->
<g id="node7" class="node">
<title>Node6</title>
<g id="a_node7"><a xlink:href="../../d5/d93/GPUCommonDefSettings_8h.html" target="_top" xlink:title="GPUCommonDefSettings.h">
<polygon fill="none" stroke="#000000" points="867.5463,-.5 867.5463,-19.5 1015.5463,-19.5 1015.5463,-.5 867.5463,-.5"/>
<text text-anchor="middle" x="941.5463" y="-7.5" font-family="Helvetica,sans-Serif" font-size="10.00" fill="#000000">GPUCommonDefSettings.h</text>
</a>
</g>
</g>
<!-- Node5&#45;&gt;Node6 -->
<g id="edge6" class="edge">
<title>Node5&#45;&gt;Node6</title>
<path fill="none" stroke="#191970" d="M1005.134,-56.2455C993.5406,-47.814 976.5716,-35.4729 963.0785,-25.6598"/>
<polygon fill="#191970" stroke="#191970" points="964.951,-22.6938 954.805,-19.6427 960.8338,-28.355 964.951,-22.6938"/>
</g>
<!-- Node7 -->
<g id="node8" class="node">
<title>Node7</title>
<g id="a_node8"><a xlink:href="../../da/d5a/GPUCommonDefAPI_8h.html" target="_top" xlink:title="GPUCommonDefAPI.h">
<polygon fill="none" stroke="#000000" points="1033.5463,-.5 1033.5463,-19.5 1157.5463,-19.5 1157.5463,-.5 1033.5463,-.5"/>
<text text-anchor="middle" x="1095.5463" y="-7.5" font-family="Helvetica,sans-Serif" font-size="10.00" fill="#000000">GPUCommonDefAPI.h</text>
</a>
</g>
</g>
<!-- Node5&#45;&gt;Node7 -->
<g id="edge7" class="edge">
<title>Node5&#45;&gt;Node7</title>
<path fill="none" stroke="#191970" d="M1031.9587,-56.2455C1043.5521,-47.814 1060.5211,-35.4729 1074.0142,-25.6598"/>
<polygon fill="#191970" stroke="#191970" points="1076.2589,-28.355 1082.2877,-19.6427 1072.1417,-22.6938 1076.2589,-28.355"/>
</g>
<!-- Node9 -->
<g id="node10" class="node">
<title>Node9</title>
<g id="a_node10"><a xlink:href="../../d2/d45/GPUCommonRtypes_8h.html" target="_top" xlink:title="GPUCommonRtypes.h">
<polygon fill="none" stroke="#000000" points="65.0463,-185 65.0463,-204 190.0463,-204 190.0463,-185 65.0463,-185"/>
<text text-anchor="middle" x="127.5463" y="-192" font-family="Helvetica,sans-Serif" font-size="10.00" fill="#000000">GPUCommonRtypes.h</text>
</a>
</g>
</g>
<!-- Node8&#45;&gt;Node9 -->
<g id="edge9" class="edge">
<title>Node8&#45;&gt;Node9</title>
<path fill="none" stroke="#191970" d="M246.631,-251.9005C223.0972,-240.5569 183.7363,-221.5844 156.7535,-208.5783"/>
<polygon fill="#191970" stroke="#191970" points="157.9526,-205.2709 147.4247,-204.0817 154.9131,-211.5766 157.9526,-205.2709"/>
</g>
<!-- Node10 -->
<g id="node11" class="node">
<title>Node10</title>
<polygon fill="none" stroke="#bfbfbf" points="331.0463,-118 331.0463,-137 390.0463,-137 390.0463,-118 331.0463,-118"/>
<text text-anchor="middle" x="360.5463" y="-125" font-family="Helvetica,sans-Serif" font-size="10.00" fill="#000000">Rtypes.h</text>
</g>
<!-- Node9&#45;&gt;Node10 -->
<g id="edge10" class="edge">
<title>Node9&#45;&gt;Node10</title>
<path fill="none" stroke="#191970" d="M160.9296,-184.9005C203.2783,-172.723 276.2017,-151.7536 321.2077,-138.812"/>
<polygon fill="#191970" stroke="#191970" points="322.2715,-142.148 330.9148,-136.0207 320.337,-135.4206 322.2715,-142.148"/>
</g>
<!-- Node11&#45;&gt;Node5 -->
<g id="edge13" class="edge">
<title>Node11&#45;&gt;Node5</title>
<path fill="none" stroke="#191970" d="M84.4073,-251.8675C67.0262,-235.6768 37.2487,-202.4779 55.5463,-179 130.4892,-82.8398 201.1182,-130.9807 321.5463,-112 442.4784,-92.9399 806.2097,-75.3314 954.5309,-68.7407"/>
<polygon fill="#191970" stroke="#191970" points="954.9959,-72.2237 964.8315,-68.2854 954.6866,-65.2305 954.9959,-72.2237"/>
</g>
<!-- Node11&#45;&gt;Node9 -->
<g id="edge12" class="edge">
<title>Node11&#45;&gt;Node9</title>
<path fill="none" stroke="#191970" d="M100.1312,-251.9005C104.9312,-241.8505 112.5912,-225.8122 118.5957,-213.2403"/>
<polygon fill="#191970" stroke="#191970" points="121.8184,-214.6137 122.97,-204.0817 115.5019,-211.5968 121.8184,-214.6137"/>
</g>
<!-- Node12&#45;&gt;Node2 -->
<g id="edge20" class="edge">
<title>Node12&#45;&gt;Node2</title>
<path fill="none" stroke="#191970" d="M722.7682,-313.4639C672.6716,-300.1972 601.3595,-281.3122 559.9245,-270.3393"/>
<polygon fill="#191970" stroke="#191970" points="560.6278,-266.9049 550.065,-267.7283 558.8358,-273.6717 560.6278,-266.9049"/>
</g>
<!-- Node12&#45;&gt;Node9 -->
<g id="edge18" class="edge">
<title>Node12&#45;&gt;Node9</title>
<path fill="none" stroke="#191970" d="M758.9759,-313.3978C726.8675,-289.8549 668.2053,-246.9759 665.5463,-246 470.5387,-174.4247 405.1075,-239.9269 199.5463,-210 192.3262,-208.9488 184.7476,-207.5962 177.3289,-206.1287"/>
<polygon fill="#191970" stroke="#191970" points="177.8612,-202.6649 167.3604,-204.0738 176.4479,-209.5207 177.8612,-202.6649"/>
</g>
<!-- Node13 -->
<g id="node14" class="node">
<title>Node13</title>
<g id="a_node14"><a xlink:href="../../df/d5b/GPUCommonLogger_8h.html" target="_top" xlink:title="GPUCommonLogger.h">
<polygon fill="none" stroke="#000000" points="718.0463,-252 718.0463,-271 841.0463,-271 841.0463,-252 718.0463,-252"/>
<text text-anchor="middle" x="779.5463" y="-259" font-family="Helvetica,sans-Serif" font-size="10.00" fill="#000000">GPUCommonLogger.h</text>
</a>
</g>
</g>
<!-- Node12&#45;&gt;Node13 -->
<g id="edge15" class="edge">
<title>Node12&#45;&gt;Node13</title>
<path fill="none" stroke="#191970" d="M779.5463,-313.2967C779.5463,-303.7699 779.5463,-291.3954 779.5463,-281.1306"/>
<polygon fill="#191970" stroke="#191970" points="783.0464,-281.0549 779.5463,-271.055 776.0464,-281.055 783.0464,-281.0549"/>
</g>
<!-- Node16 -->
<g id="node17" class="node">
<title>Node16</title>
<polygon fill="none" stroke="#bfbfbf" points="1947.5463,-118 1947.5463,-137 1989.5463,-137 1989.5463,-118 1947.5463,-118"/>
<text text-anchor="middle" x="1968.5463" y="-125" font-family="Helvetica,sans-Serif" font-size="10.00" fill="#000000">array</text>
</g>
<!-- Node12&#45;&gt;Node16 -->
<g id="edge19" class="edge">
<title>Node12&#45;&gt;Node16</title>
<path fill="none" stroke="#191970" d="M865.3626,-319.981C1076.7889,-298.6091 1611.031,-242.1368 1685.5463,-210 1705.5603,-201.3684 1703.8801,-188.3968 1723.5463,-179 1795.1902,-144.7676 1889.3456,-133.1666 1937.4002,-129.3294"/>
<polygon fill="#191970" stroke="#191970" points="1937.7672,-132.812 1947.4825,-128.5856 1937.2521,-125.8309 1937.7672,-132.812"/>
</g>
<!-- Node12&#45;&gt;Node17 -->
<g id="edge21" class="edge">
<title>Node12&#45;&gt;Node17</title>
<path fill="none" stroke="#191970" d="M865.1851,-326.2811C1030.4973,-321.4493 1404.9559,-307.8378 1718.5463,-277 1722.9452,-276.5674 1727.4388,-276.0865 1731.9741,-275.5695"/>
<polygon fill="#191970" stroke="#191970" points="1732.4313,-279.0399 1741.9488,-274.3849 1731.6057,-272.0888 1732.4313,-279.0399"/>
</g>
<!-- Node27 -->
<g id="node28" class="node">
<title>Node27</title>
<g id="a_node28"><a xlink:href="../../dd/d76/Cartesian3D_8h.html" target="_top" xlink:title="MathUtils/Cartesian3D.h">
<polygon fill="none" stroke="#000000" points="859.0463,-252 859.0463,-271 994.0463,-271 994.0463,-252 859.0463,-252"/>
<text text-anchor="middle" x="926.5463" y="-259" font-family="Helvetica,sans-Serif" font-size="10.00" fill="#000000">MathUtils/Cartesian3D.h</text>
</a>
</g>
</g>
<!-- Node12&#45;&gt;Node27 -->
<g id="edge37" class="edge">
<title>Node12&#45;&gt;Node27</title>
<path fill="none" stroke="#191970" d="M812.536,-313.4639C837.6451,-302.0196 871.9271,-286.3945 896.3258,-275.274"/>
<polygon fill="#191970" stroke="#191970" points="897.8272,-278.4361 905.475,-271.1039 894.924,-272.0665 897.8272,-278.4361"/>
</g>
<!-- Node14 -->
<g id="node15" class="node">
<title>Node14</title>
<polygon fill="none" stroke="#bfbfbf" points="208.5463,-185 208.5463,-204 268.5463,-204 268.5463,-185 208.5463,-185"/>
<text text-anchor="middle" x="238.5463" y="-192" font-family="Helvetica,sans-Serif" font-size="10.00" fill="#000000">iostream</text>
</g>
<!-- Node13&#45;&gt;Node14 -->
<g id="edge16" class="edge">
<title>Node13&#45;&gt;Node14</title>
<path fill="none" stroke="#191970" d="M737.0918,-251.9293C726.2017,-249.7257 714.4762,-247.5709 703.5463,-246 515.4707,-218.9688 462.4944,-253.5581 277.5463,-210 274.6874,-209.3267 271.7618,-208.4811 268.8613,-207.5341"/>
<polygon fill="#191970" stroke="#191970" points="269.8249,-204.1602 259.2308,-204.0273 267.4297,-210.7377 269.8249,-204.1602"/>
</g>
<!-- Node15 -->
<g id="node16" class="node">
<title>Node15</title>
<polygon fill="none" stroke="#bfbfbf" points="286.5463,-185 286.5463,-204 332.5463,-204 332.5463,-185 286.5463,-185"/>
<text text-anchor="middle" x="309.5463" y="-192" font-family="Helvetica,sans-Serif" font-size="10.00" fill="#000000">cstdio</text>
</g>
<!-- Node13&#45;&gt;Node15 -->
<g id="edge17" class="edge">
<title>Node13&#45;&gt;Node15</title>
<path fill="none" stroke="#191970" d="M736.6749,-251.9711C725.8982,-249.7927 714.33,-247.6391 703.5463,-246 545.8859,-222.0358 501.115,-249.2382 346.5463,-210 344.0656,-209.3702 341.5346,-208.6019 339.0189,-207.7477"/>
<polygon fill="#191970" stroke="#191970" points="340.1217,-204.4226 329.5307,-204.1393 337.6334,-210.9654 340.1217,-204.4226"/>
</g>
<!-- Node17&#45;&gt;Node10 -->
<g id="edge22" class="edge">
<title>Node17&#45;&gt;Node10</title>
<path fill="none" stroke="#191970" d="M1741.761,-251.3006C1668.3994,-241.7092 1569.063,-226.4047 1532.5463,-210 1512.3487,-200.9265 1514.2806,-186.7693 1493.5463,-179 1389.5486,-140.0312 588.8892,-129.7494 400.2592,-127.8575"/>
<polygon fill="#191970" stroke="#191970" points="400.2597,-124.3574 390.2258,-127.759 400.191,-131.3571 400.2597,-124.3574"/>
</g>
<!-- Node17&#45;&gt;Node16 -->
<g id="edge23" class="edge">
<title>Node17&#45;&gt;Node16</title>
<path fill="none" stroke="#191970" d="M1893.3523,-246.4557C1913.9926,-238.7203 1935.1254,-227.1609 1949.5463,-210 1964.3461,-192.3883 1968.1512,-165.4736 1968.8735,-147.2146"/>
<polygon fill="#191970" stroke="#191970" points="1972.3742,-147.1665 1968.9956,-137.1249 1965.3748,-147.0817 1972.3742,-147.1665"/>
</g>
<!-- Node18 -->
<g id="node19" class="node">
<title>Node18</title>
<polygon fill="none" stroke="#bfbfbf" points="1996.5463,-185 1996.5463,-204 2040.5463,-204 2040.5463,-185 1996.5463,-185"/>
<text text-anchor="middle" x="2018.5463" y="-192" font-family="Helvetica,sans-Serif" font-size="10.00" fill="#000000">bitset</text>
</g>
<!-- Node17&#45;&gt;Node18 -->
<g id="edge24" class="edge">
<title>Node17&#45;&gt;Node18</title>
<path fill="none" stroke="#191970" d="M1876.4443,-246.4385C1907.1437,-236.6911 1947.4317,-223.3648 1982.5463,-210 1984.1641,-209.3843 1985.8157,-208.7379 1987.4787,-208.073"/>
<polygon fill="#191970" stroke="#191970" points="1989.065,-211.2045 1996.9674,-204.1474 1986.3889,-204.7362 1989.065,-211.2045"/>
</g>
<!-- Node19 -->
<g id="node20" class="node">
<title>Node19</title>
<polygon fill="none" stroke="#bfbfbf" points="1732.5463,-185 1732.5463,-204 1784.5463,-204 1784.5463,-185 1732.5463,-185"/>
<text text-anchor="middle" x="1758.5463" y="-192" font-family="Helvetica,sans-Serif" font-size="10.00" fill="#000000">cassert</text>
</g>
<!-- Node17&#45;&gt;Node19 -->
<g id="edge25" class="edge">
<title>Node17&#45;&gt;Node19</title>
<path fill="none" stroke="#191970" d="M1811.8892,-246.2967C1801.1386,-235.8578 1786.8669,-221.9997 1775.7908,-211.2446"/>
<polygon fill="#191970" stroke="#191970" points="1777.9991,-208.5103 1768.3865,-204.055 1773.1226,-213.5323 1777.9991,-208.5103"/>
</g>
<!-- Node20 -->
<g id="node21" class="node">
<title>Node20</title>
<polygon fill="none" stroke="#bfbfbf" points="1802.5463,-185 1802.5463,-204 1852.5463,-204 1852.5463,-185 1802.5463,-185"/>
<text text-anchor="middle" x="1827.5463" y="-192" font-family="Helvetica,sans-Serif" font-size="10.00" fill="#000000">cstdint</text>
</g>
<!-- Node17&#45;&gt;Node20 -->
<g id="edge26" class="edge">
<title>Node17&#45;&gt;Node20</title>
<path fill="none" stroke="#191970" d="M1827.5463,-246.2967C1827.5463,-236.7699 1827.5463,-224.3954 1827.5463,-214.1306"/>
<polygon fill="#191970" stroke="#191970" points="1831.0464,-214.0549 1827.5463,-204.055 1824.0464,-214.055 1831.0464,-214.0549"/>
</g>
<!-- Node21 -->
<g id="node22" class="node">
<title>Node21</title>
<polygon fill="none" stroke="#bfbfbf" points="1871.0463,-185 1871.0463,-204 1940.0463,-204 1940.0463,-185 1871.0463,-185"/>
<text text-anchor="middle" x="1905.5463" y="-192" font-family="Helvetica,sans-Serif" font-size="10.00" fill="#000000">type_traits</text>
</g>
<!-- Node17&#45;&gt;Node21 -->
<g id="edge27" class="edge">
<title>Node17&#45;&gt;Node21</title>
<path fill="none" stroke="#191970" d="M1845.2457,-246.2967C1857.6345,-235.6551 1874.1598,-221.4602 1886.7778,-210.6217"/>
<polygon fill="#191970" stroke="#191970" points="1889.1175,-213.2259 1894.4226,-204.055 1884.5563,-207.9159 1889.1175,-213.2259"/>
</g>
<!-- Node22 -->
<g id="node23" class="node">
<title>Node22</title>
<g id="a_node23"><a xlink:href="../../d9/d52/Common_2MathUtils_2include_2MathUtils_2Utils_8h.html" target="_top" xlink:title="MathUtils/Utils.h">
<polygon fill="none" stroke="#000000" points="2134.5463,-185 2134.5463,-204 2232.5463,-204 2232.5463,-185 2134.5463,-185"/>
<text text-anchor="middle" x="2183.5463" y="-192" font-family="Helvetica,sans-Serif" font-size="10.00" fill="#000000">MathUtils/Utils.h</text>
</a>
</g>
</g>
<!-- Node17&#45;&gt;Node22 -->
<g id="edge28" class="edge">
<title>Node17&#45;&gt;Node22</title>
<path fill="none" stroke="#191970" d="M1907.4397,-246.4639C1973.2315,-234.0817 2065.028,-216.8054 2124.3784,-205.6355"/>
<polygon fill="#191970" stroke="#191970" points="2125.1617,-209.0497 2134.3418,-203.7604 2123.867,-202.1704 2125.1617,-209.0497"/>
</g>
<!-- Node22&#45;&gt;Node5 -->
<g id="edge31" class="edge">
<title>Node22&#45;&gt;Node5</title>
<path fill="none" stroke="#191970" d="M2145.7927,-184.9317C2115.4192,-176.3657 2072.2357,-162.193 2037.5463,-143 2018.172,-132.2805 2019.2748,-119.7846 1998.5463,-112 1913.2768,-79.9768 1286.2915,-69.3527 1082.4061,-66.7247"/>
<polygon fill="#191970" stroke="#191970" points="1082.2036,-63.2219 1072.16,-66.5948 1082.1148,-70.2214 1082.2036,-63.2219"/>
</g>
<!-- Node22&#45;&gt;Node16 -->
<g id="edge29" class="edge">
<title>Node22&#45;&gt;Node16</title>
<path fill="none" stroke="#191970" d="M2144.4283,-184.9752C2107.6296,-175.6249 2051.2167,-160.2813 2003.5463,-143 2001.9141,-142.4083 2000.2505,-141.7759 1998.579,-141.1174"/>
<polygon fill="#191970" stroke="#191970" points="1999.6583,-137.7754 1989.0813,-137.1599 1996.9658,-144.237 1999.6583,-137.7754"/>
</g>
<!-- Node23 -->
<g id="node24" class="node">
<title>Node23</title>
<polygon fill="none" stroke="#bfbfbf" points="2160.0463,-56.5 2160.0463,-75.5 2207.0463,-75.5 2207.0463,-56.5 2160.0463,-56.5"/>
<text text-anchor="middle" x="2183.5463" y="-63.5" font-family="Helvetica,sans-Serif" font-size="10.00" fill="#000000">cmath</text>
</g>
<!-- Node22&#45;&gt;Node23 -->
<g id="edge30" class="edge">
<title>Node22&#45;&gt;Node23</title>
<path fill="none" stroke="#191970" d="M2183.5463,-184.8416C2183.5463,-163.9114 2183.5463,-114.004 2183.5463,-85.9762"/>
<polygon fill="#191970" stroke="#191970" points="2187.0464,-85.7704 2183.5463,-75.7705 2180.0464,-85.7705 2187.0464,-85.7704"/>
</g>
<!-- Node24 -->
<g id="node25" class="node">
<title>Node24</title>
<g id="a_node25"><a xlink:href="../../d6/da2/GPUCommonMath_8h.html" target="_top" xlink:title="GPUCommonMath.h">
<polygon fill="none" stroke="#000000" points="2046.0463,-118 2046.0463,-137 2161.0463,-137 2161.0463,-118 2046.0463,-118"/>
<text text-anchor="middle" x="2103.5463" y="-125" font-family="Helvetica,sans-Serif" font-size="10.00" fill="#000000">GPUCommonMath.h</text>
</a>
</g>
</g>
<!-- Node22&#45;&gt;Node24 -->
<g id="edge32" class="edge">
<title>Node22&#45;&gt;Node24</title>
<path fill="none" stroke="#191970" d="M2172.0843,-184.9005C2159.2525,-174.1539 2138.2452,-156.5603 2122.8651,-143.6794"/>
<polygon fill="#191970" stroke="#191970" points="2124.9009,-140.8191 2114.9871,-137.0817 2120.4064,-146.1856 2124.9009,-140.8191"/>
</g>
<!-- Node26 -->
<g id="node27" class="node">
<title>Node26</title>
<g id="a_node27"><a xlink:href="../../d6/d84/MathConstants_8h.html" target="_top" xlink:title="useful math constants ">
<polygon fill="none" stroke="#000000" points="2217.5463,-118 2217.5463,-137 2411.5463,-137 2411.5463,-118 2217.5463,-118"/>
<text text-anchor="middle" x="2314.5463" y="-125" font-family="Helvetica,sans-Serif" font-size="10.00" fill="#000000">CommonConstants/MathConstants.h</text>
</a>
</g>
</g>
<!-- Node22&#45;&gt;Node26 -->
<g id="edge36" class="edge">
<title>Node22&#45;&gt;Node26</title>
<path fill="none" stroke="#191970" d="M2202.3154,-184.9005C2224.3975,-173.6067 2261.2652,-154.7506 2286.6849,-141.7497"/>
<polygon fill="#191970" stroke="#191970" points="2288.5027,-144.7513 2295.812,-137.0817 2285.3152,-138.5191 2288.5027,-144.7513"/>
</g>
<!-- Node24&#45;&gt;Node5 -->
<g id="edge33" class="edge">
<title>Node24&#45;&gt;Node5</title>
<path fill="none" stroke="#191970" d="M2064.8905,-117.9397C2054.1555,-115.6238 2042.4517,-113.4114 2031.5463,-112 1846.7139,-88.078 1274.6853,-72.2603 1082.3688,-67.505"/>
<polygon fill="#191970" stroke="#191970" points="1082.227,-64.0005 1072.144,-67.2537 1082.055,-70.9984 1082.227,-64.0005"/>
</g>
<!-- Node24&#45;&gt;Node23 -->
<g id="edge34" class="edge">
<title>Node24&#45;&gt;Node23</title>
<path fill="none" stroke="#191970" d="M2116.0463,-117.8906C2128.6099,-108.2324 2148.1887,-93.1812 2163.0312,-81.771"/>
<polygon fill="#191970" stroke="#191970" points="2165.3392,-84.4115 2171.1341,-75.5419 2161.0728,-78.8618 2165.3392,-84.4115"/>
</g>
<!-- Node25 -->
<g id="node26" class="node">
<title>Node25</title>
<polygon fill="none" stroke="#bfbfbf" points="2071.5463,-56.5 2071.5463,-75.5 2135.5463,-75.5 2135.5463,-56.5 2071.5463,-56.5"/>
<text text-anchor="middle" x="2103.5463" y="-63.5" font-family="Helvetica,sans-Serif" font-size="10.00" fill="#000000">algorithm</text>
</g>
<!-- Node24&#45;&gt;Node25 -->
<g id="edge35" class="edge">
<title>Node24&#45;&gt;Node25</title>
<path fill="none" stroke="#191970" d="M2103.5463,-117.8906C2103.5463,-109.3657 2103.5463,-96.6392 2103.5463,-85.9235"/>
<polygon fill="#191970" stroke="#191970" points="2107.0464,-85.7448 2103.5463,-75.7449 2100.0464,-85.7449 2107.0464,-85.7448"/>
</g>
<!-- Node27&#45;&gt;Node10 -->
<g id="edge43" class="edge">
<title>Node27&#45;&gt;Node10</title>
<path fill="none" stroke="#191970" d="M884.4984,-251.9491C873.4963,-249.7184 861.6158,-247.5457 850.5463,-246 798.5647,-238.7416 419.3373,-244.2266 379.5463,-210 361.7553,-194.6968 358.7656,-166.3911 359.0349,-147.2546"/>
<polygon fill="#191970" stroke="#191970" points="362.5336,-147.3605 359.4828,-137.2145 355.5405,-147.0485 362.5336,-147.3605"/>
</g>
<!-- Node28 -->
<g id="node29" class="node">
<title>Node28</title>
<polygon fill="none" stroke="#bfbfbf" points="456.5463,-179.5 456.5463,-209.5 620.5463,-209.5 620.5463,-179.5 456.5463,-179.5"/>
<text text-anchor="start" x="464.5463" y="-197.5" font-family="Helvetica,sans-Serif" font-size="10.00" fill="#000000">Math/GenVector/Displacement</text>
<text text-anchor="middle" x="538.5463" y="-186.5" font-family="Helvetica,sans-Serif" font-size="10.00" fill="#000000">Vector3D.h</text>
</g>
<!-- Node27&#45;&gt;Node28 -->
<g id="edge38" class="edge">
<title>Node27&#45;&gt;Node28</title>
<path fill="none" stroke="#191970" d="M881.1913,-251.9431C871.1167,-249.9059 860.4803,-247.8214 850.5463,-246 755.8156,-228.6314 729.394,-226.4814 630.9599,-210.2237"/>
<polygon fill="#191970" stroke="#191970" points="631.3198,-206.7357 620.8817,-208.5516 630.1739,-213.6413 631.3198,-206.7357"/>
</g>
<!-- Node29 -->
<g id="node30" class="node">
<title>Node29</title>
<polygon fill="none" stroke="#bfbfbf" points="639.0463,-185 639.0463,-204 828.0463,-204 828.0463,-185 639.0463,-185"/>
<text text-anchor="middle" x="733.5463" y="-192" font-family="Helvetica,sans-Serif" font-size="10.00" fill="#000000">Math/GenVector/PositionVector3D.h</text>
</g>
<!-- Node27&#45;&gt;Node29 -->
<g id="edge39" class="edge">
<title>Node27&#45;&gt;Node29</title>
<path fill="none" stroke="#191970" d="M898.8941,-251.9005C865.2145,-240.2086 808.1889,-220.4122 770.6991,-207.3976"/>
<polygon fill="#191970" stroke="#191970" points="771.742,-204.0548 761.1472,-204.0817 769.4463,-210.6677 771.742,-204.0548"/>
</g>
<!-- Node30 -->
<g id="node31" class="node">
<title>Node30</title>
<polygon fill="none" stroke="#bfbfbf" points="846.5463,-185 846.5463,-204 1006.5463,-204 1006.5463,-185 846.5463,-185"/>
<text text-anchor="middle" x="926.5463" y="-192" font-family="Helvetica,sans-Serif" font-size="10.00" fill="#000000">Math/GenVector/Rotation3D.h</text>
</g>
<!-- Node27&#45;&gt;Node30 -->
<g id="edge40" class="edge">
<title>Node27&#45;&gt;Node30</title>
<path fill="none" stroke="#191970" d="M926.5463,-251.9005C926.5463,-242.149 926.5463,-226.7597 926.5463,-214.3695"/>
<polygon fill="#191970" stroke="#191970" points="930.0464,-214.0816 926.5463,-204.0817 923.0464,-214.0817 930.0464,-214.0816"/>
</g>
<!-- Node31 -->
<g id="node32" class="node">
<title>Node31</title>
<polygon fill="none" stroke="#bfbfbf" points="1024.5463,-185 1024.5463,-204 1192.5463,-204 1192.5463,-185 1024.5463,-185"/>
<text text-anchor="middle" x="1108.5463" y="-192" font-family="Helvetica,sans-Serif" font-size="10.00" fill="#000000">Math/GenVector/Transform3D.h</text>
</g>
<!-- Node27&#45;&gt;Node31 -->
<g id="edge41" class="edge">
<title>Node27&#45;&gt;Node31</title>
<path fill="none" stroke="#191970" d="M952.6225,-251.9005C984.2474,-240.2584 1037.7007,-220.5805 1073.0588,-207.5641"/>
<polygon fill="#191970" stroke="#191970" points="1074.3434,-210.8209 1082.5185,-204.0817 1071.9251,-204.2519 1074.3434,-210.8209"/>
</g>
<!-- Node32 -->
<g id="node33" class="node">
<title>Node32</title>
<polygon fill="none" stroke="#bfbfbf" points="1211.0463,-185 1211.0463,-204 1384.0463,-204 1384.0463,-185 1211.0463,-185"/>
<text text-anchor="middle" x="1297.5463" y="-192" font-family="Helvetica,sans-Serif" font-size="10.00" fill="#000000">Math/GenVector/Translation3D.h</text>
</g>
<!-- Node27&#45;&gt;Node32 -->
<g id="edge42" class="edge">
<title>Node27&#45;&gt;Node32</title>
<path fill="none" stroke="#191970" d="M979.3076,-251.9717C1046.5203,-239.8335 1162.5573,-218.8781 1234.3992,-205.9039"/>
<polygon fill="#191970" stroke="#191970" points="1235.4483,-209.2712 1244.6671,-204.0496 1234.2042,-202.3826 1235.4483,-209.2712"/>
</g>
<!-- Node33 -->
<g id="node34" class="node">
<title>Node33</title>
<polygon fill="none" stroke="#bfbfbf" points="1402.5463,-185 1402.5463,-204 1484.5463,-204 1484.5463,-185 1402.5463,-185"/>
<text text-anchor="middle" x="1443.5463" y="-192" font-family="Helvetica,sans-Serif" font-size="10.00" fill="#000000">TGeoMatrix.h</text>
</g>
<!-- Node27&#45;&gt;Node33 -->
<g id="edge44" class="edge">
<title>Node27&#45;&gt;Node33</title>
<path fill="none" stroke="#191970" d="M994.0729,-258.1027C1085.4512,-252.5881 1253.1989,-239.2134 1393.5463,-210 1397.7003,-209.1353 1402.0021,-208.0705 1406.2597,-206.9074"/>
<polygon fill="#191970" stroke="#191970" points="1407.4017,-210.2202 1416.0234,-204.0626 1405.4435,-203.4997 1407.4017,-210.2202"/>
</g>
<!-- Node34 -->
<g id="node35" class="node">
<title>Node34</title>
<polygon fill="none" stroke="#bfbfbf" points="389.0463,-185 389.0463,-204 438.0463,-204 438.0463,-185 389.0463,-185"/>
<text text-anchor="middle" x="413.5463" y="-192" font-family="Helvetica,sans-Serif" font-size="10.00" fill="#000000">iosfwd</text>
</g>
<!-- Node27&#45;&gt;Node34 -->
<g id="edge45" class="edge">
<title>Node27&#45;&gt;Node34</title>
<path fill="none" stroke="#191970" d="M884.0865,-251.9655C873.1966,-249.7613 861.4724,-247.597 850.5463,-246 672.6128,-219.9917 621.3999,-255.9537 447.5463,-210 445.3551,-209.4208 443.1287,-208.711 440.9176,-207.9171"/>
<polygon fill="#191970" stroke="#191970" points="442.0576,-204.6017 431.4776,-204.0414 439.399,-211.0772 442.0576,-204.6017"/>
</g>
<!-- Node35 -->
<g id="node36" class="node">
<title>Node35</title>
<g id="a_node36"><a xlink:href="../../d2/dd0/Cartesian2D_8h.html" target="_top" xlink:title="MathUtils/Cartesian2D.h">
<polygon fill="none" stroke="#000000" points="1541.0463,-185 1541.0463,-204 1676.0463,-204 1676.0463,-185 1541.0463,-185"/>
<text text-anchor="middle" x="1608.5463" y="-192" font-family="Helvetica,sans-Serif" font-size="10.00" fill="#000000">MathUtils/Cartesian2D.h</text>
</a>
</g>
</g>
<!-- Node27&#45;&gt;Node35 -->
<g id="edge46" class="edge">
<title>Node27&#45;&gt;Node35</title>
<path fill="none" stroke="#191970" d="M994.2841,-256.3034C1100.7179,-247.9229 1313.5575,-230.2941 1493.5463,-210 1505.8674,-208.6108 1518.9111,-206.9936 1531.6178,-205.3385"/>
<polygon fill="#191970" stroke="#191970" points="1532.2595,-208.7842 1541.7159,-204.0065 1531.3441,-201.8443 1532.2595,-208.7842"/>
</g>
<!-- Node36 -->
<g id="node37" class="node">
<title>Node36</title>
<polygon fill="none" stroke="#bfbfbf" points="1623.5463,-112.5 1623.5463,-142.5 1787.5463,-142.5 1787.5463,-112.5 1623.5463,-112.5"/>
<text text-anchor="start" x="1631.5463" y="-130.5" font-family="Helvetica,sans-Serif" font-size="10.00" fill="#000000">Math/GenVector/Displacement</text>
<text text-anchor="middle" x="1705.5463" y="-119.5" font-family="Helvetica,sans-Serif" font-size="10.00" fill="#000000">Vector2D.h</text>
</g>
<!-- Node35&#45;&gt;Node36 -->
<g id="edge47" class="edge">
<title>Node35&#45;&gt;Node36</title>
<path fill="none" stroke="#191970" d="M1622.4441,-184.9005C1636.2198,-175.3853 1657.7669,-160.5023 1675.4684,-148.2755"/>
<polygon fill="#191970" stroke="#191970" points="1677.5595,-151.0849 1683.7984,-142.5218 1673.5812,-145.3253 1677.5595,-151.0849"/>
</g>
<!-- Node37 -->
<g id="node38" class="node">
<title>Node37</title>
<polygon fill="none" stroke="#bfbfbf" points="1416.0463,-118 1416.0463,-137 1605.0463,-137 1605.0463,-118 1416.0463,-118"/>
<text text-anchor="middle" x="1510.5463" y="-125" font-family="Helvetica,sans-Serif" font-size="10.00" fill="#000000">Math/GenVector/PositionVector2D.h</text>
</g>
<!-- Node35&#45;&gt;Node37 -->
<g id="edge48" class="edge">
<title>Node35&#45;&gt;Node37</title>
<path fill="none" stroke="#191970" d="M1594.5053,-184.9005C1578.4226,-173.9052 1551.8557,-155.7422 1532.9147,-142.7927"/>
<polygon fill="#191970" stroke="#191970" points="1534.7918,-139.8362 1524.5613,-137.0817 1530.8411,-145.6148 1534.7918,-139.8362"/>
</g>
<!-- Node40&#45;&gt;Node9 -->
<g id="edge54" class="edge">
<title>Node40&#45;&gt;Node9</title>
<path fill="none" stroke="#191970" d="M663.1752,-380.2297C660.637,-364.8104 654.0808,-334.3904 639.5463,-313 613.289,-274.3571 601.6591,-264.0002 558.5463,-246 410.5703,-184.2177 357.955,-234.9131 199.5463,-210 192.6722,-208.9189 185.4669,-207.597 178.3819,-206.1855"/>
<polygon fill="#191970" stroke="#191970" points="178.6414,-202.6653 168.1402,-204.071 177.2259,-209.5207 178.6414,-202.6653"/>
</g>
<!-- Node41&#45;&gt;Node2 -->
<g id="edge57" class="edge">
<title>Node41&#45;&gt;Node2</title>
<path fill="none" stroke="#191970" d="M564.2422,-318.9005C557.5115,-308.6515 546.6909,-292.1747 538.3657,-279.4976"/>
<polygon fill="#191970" stroke="#191970" points="541.2536,-277.5191 532.8388,-271.0817 535.4026,-281.3616 541.2536,-277.5191"/>
</g>
<!-- Node41&#45;&gt;Node16 -->
<g id="edge56" class="edge">
<title>Node41&#45;&gt;Node16</title>
<path fill="none" stroke="#191970" d="M630.7626,-319.0979C648.0836,-316.7235 667.0286,-314.4415 684.5463,-313 821.6965,-301.7141 1789.4614,-312.0134 1922.5463,-277 1984.2638,-260.7627 2016.5892,-264.6491 2049.5463,-210 2056.6615,-198.2017 2056.1787,-191.0764 2049.5463,-179 2047.9352,-176.0665 2016.4395,-156.5288 1993.2065,-142.3848"/>
<polygon fill="#191970" stroke="#191970" points="1994.8451,-139.2852 1984.4804,-137.0888 1991.2132,-145.2693 1994.8451,-139.2852"/>
</g>
<!-- Node42&#45;&gt;Node1 -->
<g id="edge60" class="edge">
<title>Node42&#45;&gt;Node1</title>
<path fill="none" stroke="#191970" d="M648.7793,-492.2455C632.8368,-483.4928 609.2204,-470.527 591.0474,-460.5496"/>
<polygon fill="#191970" stroke="#191970" points="592.56,-457.3873 582.1098,-455.6427 589.1911,-463.5233 592.56,-457.3873"/>
</g>
<!-- Node42&#45;&gt;Node16 -->
<g id="edge59" class="edge">
<title>Node42&#45;&gt;Node16</title>
<path fill="none" stroke="#191970" d="M741.1853,-500.1433C1036.4127,-492.316 2106.5463,-459.1731 2106.5463,-390 2106.5463,-390 2106.5463,-390 2106.5463,-261.5 2106.5463,-220.555 2094.3821,-208.0687 2065.5463,-179 2040.6296,-153.882 2025.537,-160.0684 1994.5463,-143 1994.0141,-142.7069 1993.4769,-142.4086 1992.9363,-142.1062"/>
<polygon fill="#191970" stroke="#191970" points="1994.5305,-138.9853 1984.1198,-137.0187 1991.0318,-145.0483 1994.5305,-138.9853"/>
</g>
<!-- Node42&#45;&gt;Node40 -->
<g id="edge61" class="edge">
<title>Node42&#45;&gt;Node40</title>
<path fill="none" stroke="#191970" d="M666.3758,-492.4509C666.0496,-474.184 665.3312,-433.9553 664.8981,-409.6976"/>
<polygon fill="#191970" stroke="#191970" points="668.3945,-409.4608 664.7164,-399.5249 661.3956,-409.5858 668.3945,-409.4608"/>
</g>
<!-- Node43 -->
<g id="node44" class="node">
<title>Node43</title>
<polygon fill="none" stroke="#bfbfbf" points="693.5463,-436.5 693.5463,-455.5 801.5463,-455.5 801.5463,-436.5 693.5463,-436.5"/>
<text text-anchor="middle" x="747.5463" y="-443.5" font-family="Helvetica,sans-Serif" font-size="10.00" fill="#000000">fairlogger/Logger.h</text>
</g>
<!-- Node42&#45;&gt;Node43 -->
<g id="edge62" class="edge">
<title>Node42&#45;&gt;Node43</title>
<path fill="none" stroke="#191970" d="M680.6555,-492.2455C692.9672,-483.7337 711.0421,-471.2375 725.3001,-461.3801"/>
<polygon fill="#191970" stroke="#191970" points="727.3637,-464.2085 733.5989,-455.6427 723.3829,-458.4506 727.3637,-464.2085"/>
</g>
</g>
</svg>
