<?xml version="1.0" encoding="UTF-8" standalone="no"?>
<!DOCTYPE svg PUBLIC "-//W3C//DTD SVG 1.1//EN"
 "http://www.w3.org/Graphics/SVG/1.1/DTD/svg11.dtd">
<!-- Generated by graphviz version 2.40.1 (20161225.0304)
 -->
<!-- Title: o2::header::RAWDataHeaderV6 Pages: 1 -->
<!--zoomable 391 -->
<svg id="main" version="1.1" xmlns="http://www.w3.org/2000/svg" xmlns:xlink="http://www.w3.org/1999/xlink" xml:space="preserve" onload="init(evt)">
<style type="text/css"><![CDATA[
.edge:hover path { stroke: red; }
.edge:hover polygon { stroke: red; fill: red; }
]]></style>
<script type="text/javascript"><![CDATA[
var edges = document.getElementsByTagName('g');
if (edges && edges.length) {
  for (var i=0;i<edges.length;i++) {
    if (edges[i].id.substr(0,4)=='edge') {
      edges[i].setAttribute('class','edge');
    }
  }
}
]]></script>
        <defs>
                <circle id="rim" cx="0" cy="0" r="7"/>
                <circle id="rim2" cx="0" cy="0" r="3.5"/>
                <g id="zoomPlus">
                        <use xlink:href="#rim" fill="#404040">
                                <set attributeName="fill" to="#808080" begin="zoomplus.mouseover" end="zoomplus.mouseout"/>
                        </use>
                        <path d="M-4,0h8M0,-4v8" fill="none" stroke="white" stroke-width="1.5" pointer-events="none"/>
                </g>
                <g id="zoomMin">
                        <use xlink:href="#rim" fill="#404040">
                                <set attributeName="fill" to="#808080" begin="zoomminus.mouseover" end="zoomminus.mouseout"/>
                        </use>
                        <path d="M-4,0h8" fill="none" stroke="white" stroke-width="1.5" pointer-events="none"/>
                </g>
                <g id="dirArrow">
                        <path fill="none" stroke="white" stroke-width="1.5" d="M0,-3.0v7 M-2.5,-0.5L0,-3.0L2.5,-0.5"/>
                </g>
               <g id="resetDef">
                       <use xlink:href="#rim2" fill="#404040">
                               <set attributeName="fill" to="#808080" begin="reset.mouseover" end="reset.mouseout"/>
                       </use>
               </g>
        </defs>

<script type="text/javascript">
var viewWidth = 1222;
var viewHeight = 391;
var sectionId = 'dynsection-0';
</script>
<script xlink:href="../../svgpan.js"/>
<svg id="graph" class="graph">
<g id="viewport">
<title>o2::header::RAWDataHeaderV6</title>
<!-- Node1 -->
<g id="node1" class="node">
<title>Node1</title>
<polygon fill="#bfbfbf" stroke="#000000" points="501.5,-.5 501.5,-167.5 668.5,-167.5 668.5,-.5 501.5,-.5"/>
<text text-anchor="middle" x="585" y="-155.5" font-family="Helvetica,sans-Serif" font-size="10.00" fill="#000000">o2::header::RAWDataHeaderV6</text>
<polyline fill="none" stroke="#000000" points="501.5,-148.5 668.5,-148.5 "/>
<text text-anchor="start" x="509.5" y="-136.5" font-family="Helvetica,sans-Serif" font-size="10.00" fill="#000000">+ zero0</text>
<text text-anchor="start" x="509.5" y="-125.5" font-family="Helvetica,sans-Serif" font-size="10.00" fill="#000000">+ word1</text>
<text text-anchor="start" x="509.5" y="-114.5" font-family="Helvetica,sans-Serif" font-size="10.00" fill="#000000">+ word2</text>
<text text-anchor="start" x="509.5" y="-103.5" font-family="Helvetica,sans-Serif" font-size="10.00" fill="#000000">+ word3</text>
<text text-anchor="start" x="509.5" y="-92.5" font-family="Helvetica,sans-Serif" font-size="10.00" fill="#000000">+ word4</text>
<text text-anchor="start" x="509.5" y="-81.5" font-family="Helvetica,sans-Serif" font-size="10.00" fill="#000000">+ pageCnt</text>
<text text-anchor="start" x="509.5" y="-70.5" font-family="Helvetica,sans-Serif" font-size="10.00" fill="#000000">+ stop</text>
<text text-anchor="start" x="509.5" y="-59.5" font-family="Helvetica,sans-Serif" font-size="10.00" fill="#000000">+ zero4</text>
<text text-anchor="start" x="509.5" y="-48.5" font-family="Helvetica,sans-Serif" font-size="10.00" fill="#000000">+ word5</text>
<text text-anchor="start" x="509.5" y="-37.5" font-family="Helvetica,sans-Serif" font-size="10.00" fill="#000000">+ word6</text>
<text text-anchor="start" x="509.5" y="-26.5" font-family="Helvetica,sans-Serif" font-size="10.00" fill="#000000">+ detectorField</text>
<polyline fill="none" stroke="#000000" points="501.5,-19.5 668.5,-19.5 "/>
<text text-anchor="middle" x="585" y="-7.5" font-family="Helvetica,sans-Serif" font-size="10.00" fill="#000000"> </text>
</g>
<!-- Node2 -->
<g id="node2" class="node">
<title>Node2</title>
<g id="a_node2"><a xlink:href="../../d6/d30/classuint64__t.html" target="_top" xlink:title="{uint64_t\n||}">
<polygon fill="none" stroke="#000000" points="0,-325.5 0,-382.5 56,-382.5 56,-325.5 0,-325.5"/>
<text text-anchor="middle" x="28" y="-370.5" font-family="Helvetica,sans-Serif" font-size="10.00" fill="#000000">uint64_t</text>
<polyline fill="none" stroke="#000000" points="0,-363.5 56,-363.5 "/>
<text text-anchor="middle" x="28" y="-351.5" font-family="Helvetica,sans-Serif" font-size="10.00" fill="#000000"> </text>
<polyline fill="none" stroke="#000000" points="0,-344.5 56,-344.5 "/>
<text text-anchor="middle" x="28" y="-332.5" font-family="Helvetica,sans-Serif" font-size="10.00" fill="#000000"> </text>
</a>
</g>
</g>
<!-- Node2&#45;&gt;Node1 -->
<g id="edge1" class="edge">
<title>Node2&#45;&gt;Node1</title>
<path fill="none" stroke="#404040" d="M22.604,-325.4321C17.3647,-288.2011 14.6741,-223.4434 50,-186 108.7348,-123.7445 351.948,-98.5303 489.3507,-89.1017"/>
<polygon fill="none" stroke="#404040" points="489.5211,-89.0904 495.2412,-84.6994 501.4944,-88.2906 495.7744,-92.6816 489.5211,-89.0904"/>
<text text-anchor="middle" x="84" y="-299" font-family="Helvetica,sans-Serif" font-size="10.00" fill="#000000"> +word7</text>
<text text-anchor="middle" x="84" y="-288" font-family="Helvetica,sans-Serif" font-size="10.00" fill="#000000">+triggerType</text>
<text text-anchor="middle" x="84" y="-277" font-family="Helvetica,sans-Serif" font-size="10.00" fill="#000000">+sourceID</text>
<text text-anchor="middle" x="84" y="-266" font-family="Helvetica,sans-Serif" font-size="10.00" fill="#000000">+zero6</text>
<text text-anchor="middle" x="84" y="-255" font-family="Helvetica,sans-Serif" font-size="10.00" fill="#000000">+detectorPAR</text>
<text text-anchor="middle" x="84" y="-244" font-family="Helvetica,sans-Serif" font-size="10.00" fill="#000000">+feeId</text>
<text text-anchor="middle" x="84" y="-233" font-family="Helvetica,sans-Serif" font-size="10.00" fill="#000000">+priority</text>
<text text-anchor="middle" x="84" y="-222" font-family="Helvetica,sans-Serif" font-size="10.00" fill="#000000">+headerSize</text>
<text text-anchor="middle" x="84" y="-211" font-family="Helvetica,sans-Serif" font-size="10.00" fill="#000000">+version</text>
<text text-anchor="middle" x="84" y="-200" font-family="Helvetica,sans-Serif" font-size="10.00" fill="#000000">+word0</text>
<text text-anchor="middle" x="84" y="-189" font-family="Helvetica,sans-Serif" font-size="10.00" fill="#000000">...</text>
</g>
<!-- Node3 -->
<g id="node3" class="node">
<title>Node3</title>
<polygon fill="none" stroke="#bfbfbf" points="82,-325.5 82,-382.5 138,-382.5 138,-325.5 82,-325.5"/>
<text text-anchor="middle" x="110" y="-370.5" font-family="Helvetica,sans-Serif" font-size="10.00" fill="#000000">uint16_t</text>
<polyline fill="none" stroke="#bfbfbf" points="82,-363.5 138,-363.5 "/>
<text text-anchor="middle" x="110" y="-351.5" font-family="Helvetica,sans-Serif" font-size="10.00" fill="#000000"> </text>
<polyline fill="none" stroke="#bfbfbf" points="82,-344.5 138,-344.5 "/>
<text text-anchor="middle" x="110" y="-332.5" font-family="Helvetica,sans-Serif" font-size="10.00" fill="#000000"> </text>
</g>
<!-- Node3&#45;&gt;Node1 -->
<g id="edge2" class="edge">
<title>Node3&#45;&gt;Node1</title>
<path fill="none" stroke="#404040" d="M116.3251,-325.3036C126.1454,-287.6239 148.722,-222.0438 193,-186 238.0694,-149.3119 388.343,-117.4802 489.1882,-99.527"/>
<polygon fill="none" stroke="#404040" points="489.4127,-99.4876 494.6283,-94.5079 501.231,-97.407 496.0153,-102.3867 489.4127,-99.4876"/>
<text text-anchor="middle" x="211.5" y="-244" font-family="Helvetica,sans-Serif" font-size="10.00" fill="#000000"> +cruID</text>
</g>
<!-- Node4 -->
<g id="node4" class="node">
<title>Node4</title>
<polygon fill="none" stroke="#bfbfbf" points="156.5,-325.5 156.5,-382.5 263.5,-382.5 263.5,-325.5 156.5,-325.5"/>
<text text-anchor="middle" x="210" y="-370.5" font-family="Helvetica,sans-Serif" font-size="10.00" fill="#000000">anonymous:+@62</text>
<polyline fill="none" stroke="#bfbfbf" points="156.5,-363.5 263.5,-363.5 "/>
<text text-anchor="middle" x="210" y="-351.5" font-family="Helvetica,sans-Serif" font-size="10.00" fill="#000000"> </text>
<polyline fill="none" stroke="#bfbfbf" points="156.5,-344.5 263.5,-344.5 "/>
<text text-anchor="middle" x="210" y="-332.5" font-family="Helvetica,sans-Serif" font-size="10.00" fill="#000000"> </text>
</g>
<!-- Node4&#45;&gt;Node1 -->
<g id="edge3" class="edge">
<title>Node4&#45;&gt;Node1</title>
<path fill="none" stroke="#404040" d="M222.5056,-325.4139C240.0053,-288.4629 275.1121,-224.3284 323,-186 371.449,-147.2224 436.394,-121.8039 489.5014,-106.0394"/>
<polygon fill="none" stroke="#404040" points="489.8055,-105.9518 494.4622,-100.4458 501.3356,-102.6267 496.6789,-108.1326 489.8055,-105.9518"/>
<text text-anchor="middle" x="340" y="-244" font-family="Helvetica,sans-Serif" font-size="10.00" fill="#000000"> +@62</text>
</g>
<!-- Node5 -->
<g id="node5" class="node">
<title>Node5</title>
<polygon fill="none" stroke="#bfbfbf" points="281.5,-325.5 281.5,-382.5 388.5,-382.5 388.5,-325.5 281.5,-325.5"/>
<text text-anchor="middle" x="335" y="-370.5" font-family="Helvetica,sans-Serif" font-size="10.00" fill="#000000">anonymous:+@54</text>
<polyline fill="none" stroke="#bfbfbf" points="281.5,-363.5 388.5,-363.5 "/>
<text text-anchor="middle" x="335" y="-351.5" font-family="Helvetica,sans-Serif" font-size="10.00" fill="#000000"> </text>
<polyline fill="none" stroke="#bfbfbf" points="281.5,-344.5 388.5,-344.5 "/>
<text text-anchor="middle" x="335" y="-332.5" font-family="Helvetica,sans-Serif" font-size="10.00" fill="#000000"> </text>
</g>
<!-- Node5&#45;&gt;Node1 -->
<g id="edge4" class="edge">
<title>Node5&#45;&gt;Node1</title>
<path fill="none" stroke="#404040" d="M349.7858,-325.3648C368.8944,-290.0635 404.6623,-229.4228 446,-186 459.5874,-171.7272 475.3794,-158.0495 491.3432,-145.6048"/>
<polygon fill="none" stroke="#404040" points="491.7453,-145.2982 494.0905,-138.4791 501.2871,-138.0213 498.9418,-144.8404 491.7453,-145.2982"/>
<text text-anchor="middle" x="463" y="-244" font-family="Helvetica,sans-Serif" font-size="10.00" fill="#000000"> +@54</text>
</g>
<!-- Node6 -->
<g id="node6" class="node">
<title>Node6</title>
<polygon fill="none" stroke="#bfbfbf" points="406.5,-325.5 406.5,-382.5 513.5,-382.5 513.5,-325.5 406.5,-325.5"/>
<text text-anchor="middle" x="460" y="-370.5" font-family="Helvetica,sans-Serif" font-size="10.00" fill="#000000">anonymous:+@64</text>
<polyline fill="none" stroke="#bfbfbf" points="406.5,-363.5 513.5,-363.5 "/>
<text text-anchor="middle" x="460" y="-351.5" font-family="Helvetica,sans-Serif" font-size="10.00" fill="#000000"> </text>
<polyline fill="none" stroke="#bfbfbf" points="406.5,-344.5 513.5,-344.5 "/>
<text text-anchor="middle" x="460" y="-332.5" font-family="Helvetica,sans-Serif" font-size="10.00" fill="#000000"> </text>
</g>
<!-- Node6&#45;&gt;Node1 -->
<g id="edge5" class="edge">
<title>Node6&#45;&gt;Node1</title>
<path fill="none" stroke="#404040" d="M473.2588,-325.3609C489.3274,-290.6529 517.2215,-230.4015 541.1191,-178.7828"/>
<polygon fill="none" stroke="#404040" points="541.2672,-178.4627 540.1581,-171.3374 546.3088,-167.5731 547.4179,-174.6984 541.2672,-178.4627"/>
<text text-anchor="middle" x="554" y="-244" font-family="Helvetica,sans-Serif" font-size="10.00" fill="#000000"> +@64</text>
</g>
<!-- Node7 -->
<g id="node7" class="node">
<title>Node7</title>
<polygon fill="none" stroke="#bfbfbf" points="531.5,-325.5 531.5,-382.5 638.5,-382.5 638.5,-325.5 531.5,-325.5"/>
<text text-anchor="middle" x="585" y="-370.5" font-family="Helvetica,sans-Serif" font-size="10.00" fill="#000000">anonymous:+@56</text>
<polyline fill="none" stroke="#bfbfbf" points="531.5,-363.5 638.5,-363.5 "/>
<text text-anchor="middle" x="585" y="-351.5" font-family="Helvetica,sans-Serif" font-size="10.00" fill="#000000"> </text>
<polyline fill="none" stroke="#bfbfbf" points="531.5,-344.5 638.5,-344.5 "/>
<text text-anchor="middle" x="585" y="-332.5" font-family="Helvetica,sans-Serif" font-size="10.00" fill="#000000"> </text>
</g>
<!-- Node7&#45;&gt;Node1 -->
<g id="edge6" class="edge">
<title>Node7&#45;&gt;Node1</title>
<path fill="none" stroke="#404040" d="M585,-325.3609C585,-290.8712 585,-231.1584 585,-179.7577"/>
<polygon fill="none" stroke="#404040" points="585.0001,-179.5731 581,-173.5731 585,-167.5731 589,-173.573 585.0001,-179.5731"/>
<text text-anchor="middle" x="602" y="-244" font-family="Helvetica,sans-Serif" font-size="10.00" fill="#000000"> +@56</text>
</g>
<!-- Node8 -->
<g id="node8" class="node">
<title>Node8</title>
<g id="a_node8"><a xlink:href="../../d3/d87/classuint32__t.html" target="_top" xlink:title="{uint32_t\n||}">
<polygon fill="none" stroke="#000000" points="657,-325.5 657,-382.5 713,-382.5 713,-325.5 657,-325.5"/>
<text text-anchor="middle" x="685" y="-370.5" font-family="Helvetica,sans-Serif" font-size="10.00" fill="#000000">uint32_t</text>
<polyline fill="none" stroke="#000000" points="657,-363.5 713,-363.5 "/>
<text text-anchor="middle" x="685" y="-351.5" font-family="Helvetica,sans-Serif" font-size="10.00" fill="#000000"> </text>
<polyline fill="none" stroke="#000000" points="657,-344.5 713,-344.5 "/>
<text text-anchor="middle" x="685" y="-332.5" font-family="Helvetica,sans-Serif" font-size="10.00" fill="#000000"> </text>
</a>
</g>
</g>
<!-- Node8&#45;&gt;Node1 -->
<g id="edge7" class="edge">
<title>Node8&#45;&gt;Node1</title>
<path fill="none" stroke="#404040" d="M674.4954,-325.4535C662.1853,-292.0199 641.1587,-234.9721 623,-186 622.1746,-183.7741 621.3388,-181.5211 620.4955,-179.2489"/>
<polygon fill="none" stroke="#404040" points="620.4086,-179.0147 614.5697,-174.7829 616.2304,-167.7656 622.0692,-171.9974 620.4086,-179.0147"/>
<text text-anchor="middle" x="707" y="-282.5" font-family="Helvetica,sans-Serif" font-size="10.00" fill="#000000"> +linkID</text>
<text text-anchor="middle" x="707" y="-271.5" font-family="Helvetica,sans-Serif" font-size="10.00" fill="#000000">+endPointID</text>
<text text-anchor="middle" x="707" y="-260.5" font-family="Helvetica,sans-Serif" font-size="10.00" fill="#000000">+reserved2</text>
<text text-anchor="middle" x="707" y="-249.5" font-family="Helvetica,sans-Serif" font-size="10.00" fill="#000000">+memorySize</text>
<text text-anchor="middle" x="707" y="-238.5" font-family="Helvetica,sans-Serif" font-size="10.00" fill="#000000">+offsetToNext</text>
<text text-anchor="middle" x="707" y="-227.5" font-family="Helvetica,sans-Serif" font-size="10.00" fill="#000000">+orbit</text>
<text text-anchor="middle" x="707" y="-216.5" font-family="Helvetica,sans-Serif" font-size="10.00" fill="#000000">+packetCounter</text>
<text text-anchor="middle" x="707" y="-205.5" font-family="Helvetica,sans-Serif" font-size="10.00" fill="#000000">+bunchCrossing</text>
</g>
<!-- Node9 -->
<g id="node9" class="node">
<title>Node9</title>
<polygon fill="none" stroke="#bfbfbf" points="731.5,-325.5 731.5,-382.5 838.5,-382.5 838.5,-325.5 731.5,-325.5"/>
<text text-anchor="middle" x="785" y="-370.5" font-family="Helvetica,sans-Serif" font-size="10.00" fill="#000000">anonymous:+@66</text>
<polyline fill="none" stroke="#bfbfbf" points="731.5,-363.5 838.5,-363.5 "/>
<text text-anchor="middle" x="785" y="-351.5" font-family="Helvetica,sans-Serif" font-size="10.00" fill="#000000"> </text>
<polyline fill="none" stroke="#bfbfbf" points="731.5,-344.5 838.5,-344.5 "/>
<text text-anchor="middle" x="785" y="-332.5" font-family="Helvetica,sans-Serif" font-size="10.00" fill="#000000"> </text>
</g>
<!-- Node9&#45;&gt;Node1 -->
<g id="edge8" class="edge">
<title>Node9&#45;&gt;Node1</title>
<path fill="none" stroke="#404040" d="M785.8903,-325.4709C785.6139,-289.7314 780.3962,-228.082 751,-186 733.0445,-160.2959 706.3279,-139.8331 679.5488,-124.1859"/>
<polygon fill="none" stroke="#404040" points="679.3654,-124.0829 672.1753,-124.6335 668.9016,-118.2083 676.0917,-117.6577 679.3654,-124.0829"/>
<text text-anchor="middle" x="802" y="-244" font-family="Helvetica,sans-Serif" font-size="10.00" fill="#000000"> +@66</text>
</g>
<!-- Node10 -->
<g id="node10" class="node">
<title>Node10</title>
<polygon fill="none" stroke="#bfbfbf" points="856.5,-325.5 856.5,-382.5 963.5,-382.5 963.5,-325.5 856.5,-325.5"/>
<text text-anchor="middle" x="910" y="-370.5" font-family="Helvetica,sans-Serif" font-size="10.00" fill="#000000">anonymous:+@58</text>
<polyline fill="none" stroke="#bfbfbf" points="856.5,-363.5 963.5,-363.5 "/>
<text text-anchor="middle" x="910" y="-351.5" font-family="Helvetica,sans-Serif" font-size="10.00" fill="#000000"> </text>
<polyline fill="none" stroke="#bfbfbf" points="856.5,-344.5 963.5,-344.5 "/>
<text text-anchor="middle" x="910" y="-332.5" font-family="Helvetica,sans-Serif" font-size="10.00" fill="#000000"> </text>
</g>
<!-- Node10&#45;&gt;Node1 -->
<g id="edge9" class="edge">
<title>Node10&#45;&gt;Node1</title>
<path fill="none" stroke="#404040" d="M901.8238,-325.3089C890.0075,-288.5396 864.8587,-224.9117 823,-186 783.0773,-148.8879 727.5805,-124.0492 680.2189,-108.183"/>
<polygon fill="none" stroke="#404040" points="680.0969,-108.1435 673.1553,-110.0962 668.6829,-104.4396 675.6246,-102.4868 680.0969,-108.1435"/>
<text text-anchor="middle" x="911" y="-244" font-family="Helvetica,sans-Serif" font-size="10.00" fill="#000000"> +@58</text>
</g>
<!-- Node11 -->
<g id="node11" class="node">
<title>Node11</title>
<polygon fill="none" stroke="#bfbfbf" points="981.5,-325.5 981.5,-382.5 1088.5,-382.5 1088.5,-325.5 981.5,-325.5"/>
<text text-anchor="middle" x="1035" y="-370.5" font-family="Helvetica,sans-Serif" font-size="10.00" fill="#000000">anonymous:+@68</text>
<polyline fill="none" stroke="#bfbfbf" points="981.5,-363.5 1088.5,-363.5 "/>
<text text-anchor="middle" x="1035" y="-351.5" font-family="Helvetica,sans-Serif" font-size="10.00" fill="#000000"> </text>
<polyline fill="none" stroke="#bfbfbf" points="981.5,-344.5 1088.5,-344.5 "/>
<text text-anchor="middle" x="1035" y="-332.5" font-family="Helvetica,sans-Serif" font-size="10.00" fill="#000000"> </text>
</g>
<!-- Node11&#45;&gt;Node1 -->
<g id="edge10" class="edge">
<title>Node11&#45;&gt;Node1</title>
<path fill="none" stroke="#404040" d="M1024.9939,-325.4379C1010.3914,-287.9086 979.6765,-222.4965 932,-186 858.9106,-130.0498 755.7483,-104.7309 680.9186,-93.3088"/>
<polygon fill="none" stroke="#404040" points="680.5694,-93.258 674.0553,-96.3509 668.6948,-91.5275 675.2089,-88.4345 680.5694,-93.258"/>
<text text-anchor="middle" x="1034" y="-244" font-family="Helvetica,sans-Serif" font-size="10.00" fill="#000000"> +@68</text>
</g>
<!-- Node12 -->
<g id="node12" class="node">
<title>Node12</title>
<polygon fill="none" stroke="#bfbfbf" points="1106.5,-325.5 1106.5,-382.5 1213.5,-382.5 1213.5,-325.5 1106.5,-325.5"/>
<text text-anchor="middle" x="1160" y="-370.5" font-family="Helvetica,sans-Serif" font-size="10.00" fill="#000000">anonymous:+@60</text>
<polyline fill="none" stroke="#bfbfbf" points="1106.5,-363.5 1213.5,-363.5 "/>
<text text-anchor="middle" x="1160" y="-351.5" font-family="Helvetica,sans-Serif" font-size="10.00" fill="#000000"> </text>
<polyline fill="none" stroke="#bfbfbf" points="1106.5,-344.5 1213.5,-344.5 "/>
<text text-anchor="middle" x="1160" y="-332.5" font-family="Helvetica,sans-Serif" font-size="10.00" fill="#000000"> </text>
</g>
<!-- Node12&#45;&gt;Node1 -->
<g id="edge11" class="edge">
<title>Node12&#45;&gt;Node1</title>
<path fill="none" stroke="#404040" d="M1150.1532,-325.2377C1135.5755,-287.1717 1104.5146,-220.8247 1055,-186 995.6567,-144.2625 800.2981,-112.1875 680.9344,-95.8897"/>
<polygon fill="none" stroke="#404040" points="680.8059,-95.8725 674.3246,-99.0336 668.9139,-94.2667 675.3952,-91.1055 680.8059,-95.8725"/>
<text text-anchor="middle" x="1159" y="-244" font-family="Helvetica,sans-Serif" font-size="10.00" fill="#000000"> +@60</text>
</g>
</g>
</svg>
        <g id="navigator" transform="translate(0 0)" fill="#404254">
                <rect fill="#f2f5e9" fill-opacity="0.5" stroke="#606060" stroke-width=".5" x="0" y="0" width="60" height="60"/>
                <use id="zoomplus" xlink:href="#zoomPlus" x="17" y="9" onmousedown="handleZoom(evt,'in')"/>
                <use id="zoomminus" xlink:href="#zoomMin" x="42" y="9" onmousedown="handleZoom(evt,'out')"/>
                <use id="reset" xlink:href="#resetDef" x="30" y="36" onmousedown="handleReset()"/>
                <g id="arrowUp" xlink:href="#dirArrow" transform="translate(30 24)" onmousedown="handlePan(0,-1)">
                  <use xlink:href="#rim" fill="#404040">
                        <set attributeName="fill" to="#808080" begin="arrowUp.mouseover" end="arrowUp.mouseout"/>
                  </use>
                  <path fill="none" stroke="white" stroke-width="1.5" d="M0,-3.0v7 M-2.5,-0.5L0,-3.0L2.5,-0.5"/>
                </g>
                <g id="arrowRight" xlink:href="#dirArrow" transform="rotate(90) translate(36 -43)" onmousedown="handlePan(1,0)">
                  <use xlink:href="#rim" fill="#404040">
                        <set attributeName="fill" to="#808080" begin="arrowRight.mouseover" end="arrowRight.mouseout"/>
                  </use>
                  <path fill="none" stroke="white" stroke-width="1.5" d="M0,-3.0v7 M-2.5,-0.5L0,-3.0L2.5,-0.5"/>
                </g>
                <g id="arrowDown" xlink:href="#dirArrow" transform="rotate(180) translate(-30 -48)" onmousedown="handlePan(0,1)">
                  <use xlink:href="#rim" fill="#404040">
                        <set attributeName="fill" to="#808080" begin="arrowDown.mouseover" end="arrowDown.mouseout"/>
                  </use>
                  <path fill="none" stroke="white" stroke-width="1.5" d="M0,-3.0v7 M-2.5,-0.5L0,-3.0L2.5,-0.5"/>
                </g>
                <g id="arrowLeft" xlink:href="#dirArrow" transform="rotate(270) translate(-36 17)" onmousedown="handlePan(-1,0)">
                  <use xlink:href="#rim" fill="#404040">
                        <set attributeName="fill" to="#808080" begin="arrowLeft.mouseover" end="arrowLeft.mouseout"/>
                  </use>
                  <path fill="none" stroke="white" stroke-width="1.5" d="M0,-3.0v7 M-2.5,-0.5L0,-3.0L2.5,-0.5"/>
                </g>
        </g>
        <svg viewBox="0 0 15 15" width="100%" height="30px" preserveAspectRatio="xMaxYMin meet">
         <g id="arrow_out" transform="scale(0.3 0.3)">
          <a xlink:href="structo2_1_1header_1_1RAWDataHeaderV6__coll__graph_org.svg" target="_base">
           <rect id="button" ry="5" rx="5" y="6" x="6" height="38" width="38"
                fill="#f2f5e9" fill-opacity="0.5" stroke="#606060" stroke-width="1.0"/>
           <path id="arrow"
             d="M 11.500037,31.436501 C 11.940474,20.09759 22.043105,11.32322 32.158766,21.979434 L 37.068811,17.246167 C 37.068811,17.246167 37.088388,32 37.088388,32 L 22.160133,31.978069 C 22.160133,31.978069 26.997745,27.140456 26.997745,27.140456 C 18.528582,18.264221 13.291696,25.230495 11.500037,31.436501 z"
             style="fill:#404040;"/>
          </a>
         </g>
        </svg>
</svg>
