<?xml version="1.0" encoding="UTF-8" standalone="no"?>
<!DOCTYPE svg PUBLIC "-//W3C//DTD SVG 1.1//EN"
 "http://www.w3.org/Graphics/SVG/1.1/DTD/svg11.dtd">
<!-- Generated by graphviz version 2.40.1 (20161225.0304)
 -->
<!-- Title: /home/travis/build/AliceO2Group/AliceO2/Detectors/PHOS/calib/include/PHOSCalib/CalibParams.h Pages: 1 -->
<svg width="190pt" height="117pt"
 viewBox="0.00 0.00 190.00 117.00" xmlns="http://www.w3.org/2000/svg" xmlns:xlink="http://www.w3.org/1999/xlink">
<g id="graph0" class="graph" transform="scale(1 1) rotate(0) translate(4 113)">
<title>/home/travis/build/AliceO2Group/AliceO2/Detectors/PHOS/calib/include/PHOSCalib/CalibParams.h</title>
<!-- Node0 -->
<g id="node1" class="node">
<title>Node0</title>
<polygon fill="#bfbfbf" stroke="#000000" points="0,-56.5 0,-108.5 182,-108.5 182,-56.5 0,-56.5"/>
<text text-anchor="start" x="8" y="-96.5" font-family="Helvetica,sans-Serif" font-size="10.00" fill="#000000">/home/travis/build</text>
<text text-anchor="start" x="8" y="-85.5" font-family="Helvetica,sans-Serif" font-size="10.00" fill="#000000">/AliceO2Group/AliceO2</text>
<text text-anchor="start" x="8" y="-74.5" font-family="Helvetica,sans-Serif" font-size="10.00" fill="#000000">/Detectors/PHOS/calib</text>
<text text-anchor="middle" x="91" y="-63.5" font-family="Helvetica,sans-Serif" font-size="10.00" fill="#000000">/include/PHOSCalib/CalibParams.h</text>
</g>
<!-- Node1 -->
<g id="node2" class="node">
<title>Node1</title>
<polygon fill="none" stroke="#bfbfbf" points="35,-.5 35,-19.5 77,-19.5 77,-.5 35,-.5"/>
<text text-anchor="middle" x="56" y="-7.5" font-family="Helvetica,sans-Serif" font-size="10.00" fill="#000000">array</text>
</g>
<!-- Node0&#45;&gt;Node1 -->
<g id="edge1" class="edge">
<title>Node0&#45;&gt;Node1</title>
<path fill="none" stroke="#191970" d="M78.3642,-56.3258C73.9653,-47.2138 69.1209,-37.179 65.0689,-28.7857"/>
<polygon fill="#191970" stroke="#191970" points="68.1021,-27.0179 60.6026,-19.534 61.7982,-30.0612 68.1021,-27.0179"/>
</g>
<!-- Node2 -->
<g id="node3" class="node">
<title>Node2</title>
<polygon fill="none" stroke="#bfbfbf" points="95.5,-.5 95.5,-19.5 158.5,-19.5 158.5,-.5 95.5,-.5"/>
<text text-anchor="middle" x="127" y="-7.5" font-family="Helvetica,sans-Serif" font-size="10.00" fill="#000000">TObject.h</text>
</g>
<!-- Node0&#45;&gt;Node2 -->
<g id="edge2" class="edge">
<title>Node0&#45;&gt;Node2</title>
<path fill="none" stroke="#191970" d="M103.9968,-56.3258C108.5712,-47.1136 113.6138,-36.9584 117.809,-28.5096"/>
<polygon fill="#191970" stroke="#191970" points="120.9532,-30.0472 122.2659,-19.534 114.6836,-26.934 120.9532,-30.0472"/>
</g>
</g>
</svg>
