<?xml version="1.0" encoding="UTF-8" standalone="no"?>
<!DOCTYPE svg PUBLIC "-//W3C//DTD SVG 1.1//EN"
 "http://www.w3.org/Graphics/SVG/1.1/DTD/svg11.dtd">
<!-- Generated by graphviz version 2.40.1 (20161225.0304)
 -->
<!-- Title: /home/travis/build/AliceO2Group/AliceO2/GPU/TPCFastTransformation/SplineHelper2D.h Pages: 1 -->
<!--zoomable 341 -->
<svg id="main" version="1.1" xmlns="http://www.w3.org/2000/svg" xmlns:xlink="http://www.w3.org/1999/xlink" xml:space="preserve" onload="init(evt)">
<style type="text/css"><![CDATA[
.edge:hover path { stroke: red; }
.edge:hover polygon { stroke: red; fill: red; }
]]></style>
<script type="text/javascript"><![CDATA[
var edges = document.getElementsByTagName('g');
if (edges && edges.length) {
  for (var i=0;i<edges.length;i++) {
    if (edges[i].id.substr(0,4)=='edge') {
      edges[i].setAttribute('class','edge');
    }
  }
}
]]></script>
        <defs>
                <circle id="rim" cx="0" cy="0" r="7"/>
                <circle id="rim2" cx="0" cy="0" r="3.5"/>
                <g id="zoomPlus">
                        <use xlink:href="#rim" fill="#404040">
                                <set attributeName="fill" to="#808080" begin="zoomplus.mouseover" end="zoomplus.mouseout"/>
                        </use>
                        <path d="M-4,0h8M0,-4v8" fill="none" stroke="white" stroke-width="1.5" pointer-events="none"/>
                </g>
                <g id="zoomMin">
                        <use xlink:href="#rim" fill="#404040">
                                <set attributeName="fill" to="#808080" begin="zoomminus.mouseover" end="zoomminus.mouseout"/>
                        </use>
                        <path d="M-4,0h8" fill="none" stroke="white" stroke-width="1.5" pointer-events="none"/>
                </g>
                <g id="dirArrow">
                        <path fill="none" stroke="white" stroke-width="1.5" d="M0,-3.0v7 M-2.5,-0.5L0,-3.0L2.5,-0.5"/>
                </g>
               <g id="resetDef">
                       <use xlink:href="#rim2" fill="#404040">
                               <set attributeName="fill" to="#808080" begin="reset.mouseover" end="reset.mouseout"/>
                       </use>
               </g>
        </defs>

<script type="text/javascript">
var viewWidth = 848;
var viewHeight = 341;
var sectionId = 'dynsection-0';
</script>
<script xlink:href="../../svgpan.js"/>
<svg id="graph" class="graph">
<g id="viewport">
<title>/home/travis/build/AliceO2Group/AliceO2/GPU/TPCFastTransformation/SplineHelper2D.h</title>
<!-- Node0 -->
<g id="node1" class="node">
<title>Node0</title>
<polygon fill="#bfbfbf" stroke="#000000" points="81.6396,-280.5 81.6396,-332.5 236.6396,-332.5 236.6396,-280.5 81.6396,-280.5"/>
<text text-anchor="start" x="89.6396" y="-320.5" font-family="Helvetica,sans-Serif" font-size="10.00" fill="#000000">/home/travis/build</text>
<text text-anchor="start" x="89.6396" y="-309.5" font-family="Helvetica,sans-Serif" font-size="10.00" fill="#000000">/AliceO2Group/AliceO2</text>
<text text-anchor="start" x="89.6396" y="-298.5" font-family="Helvetica,sans-Serif" font-size="10.00" fill="#000000">/GPU/TPCFastTransformation</text>
<text text-anchor="middle" x="159.1396" y="-287.5" font-family="Helvetica,sans-Serif" font-size="10.00" fill="#000000">/SplineHelper2D.h</text>
</g>
<!-- Node1 -->
<g id="node2" class="node">
<title>Node1</title>
<polygon fill="none" stroke="#bfbfbf" points="32.6396,-168.5 32.6396,-187.5 79.6396,-187.5 79.6396,-168.5 32.6396,-168.5"/>
<text text-anchor="middle" x="56.1396" y="-175.5" font-family="Helvetica,sans-Serif" font-size="10.00" fill="#000000">cmath</text>
</g>
<!-- Node0&#45;&gt;Node1 -->
<g id="edge1" class="edge">
<title>Node0&#45;&gt;Node1</title>
<path fill="none" stroke="#191970" d="M138.296,-280.4961C117.9534,-255.1172 87.5773,-217.2208 70.0244,-195.3224"/>
<polygon fill="#191970" stroke="#191970" points="72.7511,-193.1279 63.7657,-187.5142 67.2891,-197.506 72.7511,-193.1279"/>
</g>
<!-- Node2 -->
<g id="node3" class="node">
<title>Node2</title>
<polygon fill="none" stroke="#bfbfbf" points="97.6396,-168.5 97.6396,-187.5 144.6396,-187.5 144.6396,-168.5 97.6396,-168.5"/>
<text text-anchor="middle" x="121.1396" y="-175.5" font-family="Helvetica,sans-Serif" font-size="10.00" fill="#000000">vector</text>
</g>
<!-- Node0&#45;&gt;Node2 -->
<g id="edge2" class="edge">
<title>Node0&#45;&gt;Node2</title>
<path fill="none" stroke="#191970" d="M151.4497,-280.4961C144.1771,-255.9033 133.4286,-219.5564 126.8772,-197.4024"/>
<polygon fill="#191970" stroke="#191970" points="130.1453,-196.1111 123.9531,-187.5142 123.4326,-198.0962 130.1453,-196.1111"/>
</g>
<!-- Node3 -->
<g id="node4" class="node">
<title>Node3</title>
<g id="a_node4"><a xlink:href="../../df/d21/GPUCommonDef_8h.html" target="_top" xlink:title="GPUCommonDef.h">
<polygon fill="none" stroke="#000000" points="162.6396,-56.5 162.6396,-75.5 269.6396,-75.5 269.6396,-56.5 162.6396,-56.5"/>
<text text-anchor="middle" x="216.1396" y="-63.5" font-family="Helvetica,sans-Serif" font-size="10.00" fill="#000000">GPUCommonDef.h</text>
</a>
</g>
</g>
<!-- Node0&#45;&gt;Node3 -->
<g id="edge3" class="edge">
<title>Node0&#45;&gt;Node3</title>
<path fill="none" stroke="#191970" d="M81.4099,-285.6494C59.3753,-276.2375 37.2876,-262.8498 22.1396,-244 .7186,-217.3444 -7.895,-197.054 10.1396,-168 41.5456,-117.4044 106.3297,-91.1365 154.91,-78.026"/>
<polygon fill="#191970" stroke="#191970" points="155.8946,-81.3867 164.7036,-75.5 154.1464,-74.6085 155.8946,-81.3867"/>
</g>
<!-- Node6 -->
<g id="node7" class="node">
<title>Node6</title>
<g id="a_node7"><a xlink:href="../../d2/d45/GPUCommonRtypes_8h.html" target="_top" xlink:title="GPUCommonRtypes.h">
<polygon fill="none" stroke="#000000" points="714.6396,-56.5 714.6396,-75.5 839.6396,-75.5 839.6396,-56.5 714.6396,-56.5"/>
<text text-anchor="middle" x="777.1396" y="-63.5" font-family="Helvetica,sans-Serif" font-size="10.00" fill="#000000">GPUCommonRtypes.h</text>
</a>
</g>
</g>
<!-- Node0&#45;&gt;Node6 -->
<g id="edge6" class="edge">
<title>Node0&#45;&gt;Node6</title>
<path fill="none" stroke="#191970" d="M236.8227,-296.8532C298.2588,-287.6697 385.4848,-271.1412 458.1396,-244 576.9892,-199.602 704.8882,-115.8972 755.1179,-81.4291"/>
<polygon fill="#191970" stroke="#191970" points="757.3359,-84.1508 763.5734,-75.5867 753.3566,-78.3918 757.3359,-84.1508"/>
</g>
<!-- Node8 -->
<g id="node9" class="node">
<title>Node8</title>
<g id="a_node9"><a xlink:href="../../de/da6/Spline1D_8h.html" target="_top" xlink:title="Definition of Spline1D class. ">
<polygon fill="none" stroke="#000000" points="301.6396,-168.5 301.6396,-187.5 370.6396,-187.5 370.6396,-168.5 301.6396,-168.5"/>
<text text-anchor="middle" x="336.1396" y="-175.5" font-family="Helvetica,sans-Serif" font-size="10.00" fill="#000000">Spline1D.h</text>
</a>
</g>
</g>
<!-- Node0&#45;&gt;Node8 -->
<g id="edge8" class="edge">
<title>Node0&#45;&gt;Node8</title>
<path fill="none" stroke="#191970" d="M236.8123,-281.2055C257.9735,-271.8084 279.8129,-259.5426 297.1396,-244 311.4897,-231.1274 322.0862,-211.6931 328.5828,-197.2431"/>
<polygon fill="#191970" stroke="#191970" points="331.9183,-198.3412 332.5838,-187.7672 325.4696,-195.6183 331.9183,-198.3412"/>
</g>
<!-- Node17 -->
<g id="node18" class="node">
<title>Node17</title>
<polygon fill="none" stroke="#bfbfbf" points="252.6396,-112.5 252.6396,-131.5 317.6396,-131.5 317.6396,-112.5 252.6396,-112.5"/>
<text text-anchor="middle" x="285.1396" y="-119.5" font-family="Helvetica,sans-Serif" font-size="10.00" fill="#000000">functional</text>
</g>
<!-- Node0&#45;&gt;Node17 -->
<g id="edge33" class="edge">
<title>Node0&#45;&gt;Node17</title>
<path fill="none" stroke="#191970" d="M101.9602,-280.3506C50.6465,-253.344 -11.6425,-209.4208 23.1396,-168 50.6248,-135.2687 175.3336,-125.8213 242.3045,-123.0989"/>
<polygon fill="#191970" stroke="#191970" points="242.671,-126.5877 252.5335,-122.7172 242.4099,-119.5926 242.671,-126.5877"/>
</g>
<!-- Node18 -->
<g id="node19" class="node">
<title>Node18</title>
<g id="a_node19"><a xlink:href="../../dd/d27/Spline2D_8h.html" target="_top" xlink:title="Definition of Spline2D class. ">
<polygon fill="none" stroke="#000000" points="379.6396,-224.5 379.6396,-243.5 448.6396,-243.5 448.6396,-224.5 379.6396,-224.5"/>
<text text-anchor="middle" x="414.1396" y="-231.5" font-family="Helvetica,sans-Serif" font-size="10.00" fill="#000000">Spline2D.h</text>
</a>
</g>
</g>
<!-- Node0&#45;&gt;Node18 -->
<g id="edge21" class="edge">
<title>Node0&#45;&gt;Node18</title>
<path fill="none" stroke="#191970" d="M236.6866,-284.4523C280.6175,-271.9621 333.9466,-256.8 370.6036,-246.3779"/>
<polygon fill="#191970" stroke="#191970" points="371.8174,-249.6716 380.479,-243.5702 369.903,-242.9384 371.8174,-249.6716"/>
</g>
<!-- Node19 -->
<g id="node20" class="node">
<title>Node19</title>
<g id="a_node20"><a xlink:href="../../d2/da7/SplineHelper1D_8h.html" target="_top" xlink:title="Definition of SplineHelper1D class. ">
<polygon fill="none" stroke="#000000" points="187.6396,-224.5 187.6396,-243.5 288.6396,-243.5 288.6396,-224.5 187.6396,-224.5"/>
<text text-anchor="middle" x="238.1396" y="-231.5" font-family="Helvetica,sans-Serif" font-size="10.00" fill="#000000">SplineHelper1D.h</text>
</a>
</g>
</g>
<!-- Node0&#45;&gt;Node19 -->
<g id="edge25" class="edge">
<title>Node0&#45;&gt;Node19</title>
<path fill="none" stroke="#191970" d="M187.6604,-280.3258C198.5714,-270.3126 210.6965,-259.1851 220.3281,-250.346"/>
<polygon fill="#191970" stroke="#191970" points="222.7496,-252.8742 227.7508,-243.534 218.0166,-247.7168 222.7496,-252.8742"/>
</g>
<!-- Node20 -->
<g id="node21" class="node">
<title>Node20</title>
<polygon fill="none" stroke="#bfbfbf" points="163.1396,-168.5 163.1396,-187.5 207.1396,-187.5 207.1396,-168.5 163.1396,-168.5"/>
<text text-anchor="middle" x="185.1396" y="-175.5" font-family="Helvetica,sans-Serif" font-size="10.00" fill="#000000">string</text>
</g>
<!-- Node0&#45;&gt;Node20 -->
<g id="edge34" class="edge">
<title>Node0&#45;&gt;Node20</title>
<path fill="none" stroke="#191970" d="M164.401,-280.4961C169.377,-255.9033 176.7313,-219.5564 181.2138,-197.4024"/>
<polygon fill="#191970" stroke="#191970" points="184.6618,-198.0097 183.2145,-187.5142 177.8008,-196.6214 184.6618,-198.0097"/>
</g>
<!-- Node4 -->
<g id="node5" class="node">
<title>Node4</title>
<g id="a_node5"><a xlink:href="../../d5/d93/GPUCommonDefSettings_8h.html" target="_top" xlink:title="GPUCommonDefSettings.h">
<polygon fill="none" stroke="#000000" points="219.1396,-.5 219.1396,-19.5 367.1396,-19.5 367.1396,-.5 219.1396,-.5"/>
<text text-anchor="middle" x="293.1396" y="-7.5" font-family="Helvetica,sans-Serif" font-size="10.00" fill="#000000">GPUCommonDefSettings.h</text>
</a>
</g>
</g>
<!-- Node3&#45;&gt;Node4 -->
<g id="edge4" class="edge">
<title>Node3&#45;&gt;Node4</title>
<path fill="none" stroke="#191970" d="M229.5519,-56.2455C241.1453,-47.814 258.1143,-35.4729 271.6074,-25.6598"/>
<polygon fill="#191970" stroke="#191970" points="273.8521,-28.355 279.8809,-19.6427 269.7349,-22.6938 273.8521,-28.355"/>
</g>
<!-- Node5 -->
<g id="node6" class="node">
<title>Node5</title>
<g id="a_node6"><a xlink:href="../../da/d5a/GPUCommonDefAPI_8h.html" target="_top" xlink:title="GPUCommonDefAPI.h">
<polygon fill="none" stroke="#000000" points="77.1396,-.5 77.1396,-19.5 201.1396,-19.5 201.1396,-.5 77.1396,-.5"/>
<text text-anchor="middle" x="139.1396" y="-7.5" font-family="Helvetica,sans-Serif" font-size="10.00" fill="#000000">GPUCommonDefAPI.h</text>
</a>
</g>
</g>
<!-- Node3&#45;&gt;Node5 -->
<g id="edge5" class="edge">
<title>Node3&#45;&gt;Node5</title>
<path fill="none" stroke="#191970" d="M202.7272,-56.2455C191.1338,-47.814 174.1648,-35.4729 160.6717,-25.6598"/>
<polygon fill="#191970" stroke="#191970" points="162.5442,-22.6938 152.3982,-19.6427 158.427,-28.355 162.5442,-22.6938"/>
</g>
<!-- Node7 -->
<g id="node8" class="node">
<title>Node7</title>
<polygon fill="none" stroke="#bfbfbf" points="747.6396,-.5 747.6396,-19.5 806.6396,-19.5 806.6396,-.5 747.6396,-.5"/>
<text text-anchor="middle" x="777.1396" y="-7.5" font-family="Helvetica,sans-Serif" font-size="10.00" fill="#000000">Rtypes.h</text>
</g>
<!-- Node6&#45;&gt;Node7 -->
<g id="edge7" class="edge">
<title>Node6&#45;&gt;Node7</title>
<path fill="none" stroke="#191970" d="M777.1396,-56.2455C777.1396,-48.9382 777.1396,-38.6944 777.1396,-29.7046"/>
<polygon fill="#191970" stroke="#191970" points="780.6397,-29.6426 777.1396,-19.6427 773.6397,-29.6427 780.6397,-29.6426"/>
</g>
<!-- Node8&#45;&gt;Node3 -->
<g id="edge9" class="edge">
<title>Node8&#45;&gt;Node3</title>
<path fill="none" stroke="#191970" d="M337.5911,-168.3621C339.1348,-154.418 339.8482,-128.4861 327.1396,-112 314.8845,-96.1023 296.1593,-85.6567 277.5595,-78.8107"/>
<polygon fill="#191970" stroke="#191970" points="278.4735,-75.4254 267.8793,-75.5489 276.2382,-82.0589 278.4735,-75.4254"/>
</g>
<!-- Node9 -->
<g id="node10" class="node">
<title>Node9</title>
<g id="a_node10"><a xlink:href="../../db/dff/FlatObject_8h.html" target="_top" xlink:title="Definition of FlatObject class. ">
<polygon fill="none" stroke="#000000" points="420.6396,-112.5 420.6396,-131.5 495.6396,-131.5 495.6396,-112.5 420.6396,-112.5"/>
<text text-anchor="middle" x="458.1396" y="-119.5" font-family="Helvetica,sans-Serif" font-size="10.00" fill="#000000">FlatObject.h</text>
</a>
</g>
</g>
<!-- Node8&#45;&gt;Node9 -->
<g id="edge10" class="edge">
<title>Node8&#45;&gt;Node9</title>
<path fill="none" stroke="#191970" d="M357.1121,-168.3733C376.6963,-159.3838 406.1357,-145.8706 428.1905,-135.7471"/>
<polygon fill="#191970" stroke="#191970" points="429.8125,-138.8538 437.4407,-131.5011 426.8923,-132.4919 429.8125,-138.8538"/>
</g>
<!-- Node8&#45;&gt;Node17 -->
<g id="edge20" class="edge">
<title>Node8&#45;&gt;Node17</title>
<path fill="none" stroke="#191970" d="M327.256,-168.2455C319.943,-160.2155 309.4004,-148.6394 300.6929,-139.0781"/>
<polygon fill="#191970" stroke="#191970" points="303.2423,-136.6795 293.9213,-131.6427 298.0669,-141.3928 303.2423,-136.6795"/>
</g>
<!-- Node9&#45;&gt;Node3 -->
<g id="edge15" class="edge">
<title>Node9&#45;&gt;Node3</title>
<path fill="none" stroke="#191970" d="M420.5926,-113.3114C379.4055,-103.7805 313.0662,-88.4293 267.1775,-77.8104"/>
<polygon fill="#191970" stroke="#191970" points="267.9562,-74.3982 257.4246,-75.5536 266.378,-81.218 267.9562,-74.3982"/>
</g>
<!-- Node9&#45;&gt;Node6 -->
<g id="edge16" class="edge">
<title>Node9&#45;&gt;Node6</title>
<path fill="none" stroke="#191970" d="M495.8971,-114.6499C500.6885,-113.7434 505.527,-112.8408 510.1396,-112 578.0659,-99.6185 655.88,-86.312 709.9096,-77.2121"/>
<polygon fill="#191970" stroke="#191970" points="710.7697,-80.6166 720.0507,-75.5064 709.6086,-73.7136 710.7697,-80.6166"/>
</g>
<!-- Node10 -->
<g id="node11" class="node">
<title>Node10</title>
<polygon fill="none" stroke="#bfbfbf" points="643.6396,-56.5 643.6396,-75.5 696.6396,-75.5 696.6396,-56.5 643.6396,-56.5"/>
<text text-anchor="middle" x="670.1396" y="-63.5" font-family="Helvetica,sans-Serif" font-size="10.00" fill="#000000">cstddef</text>
</g>
<!-- Node9&#45;&gt;Node10 -->
<g id="edge11" class="edge">
<title>Node9&#45;&gt;Node10</title>
<path fill="none" stroke="#191970" d="M495.8452,-112.4804C529.6244,-103.8899 580.7684,-90.7311 633.5369,-76.3989"/>
<polygon fill="#191970" stroke="#191970" points="634.677,-79.7159 643.4051,-73.7099 632.8366,-72.9622 634.677,-79.7159"/>
</g>
<!-- Node11 -->
<g id="node12" class="node">
<title>Node11</title>
<polygon fill="none" stroke="#bfbfbf" points="288.1396,-56.5 288.1396,-75.5 346.1396,-75.5 346.1396,-56.5 288.1396,-56.5"/>
<text text-anchor="middle" x="317.1396" y="-63.5" font-family="Helvetica,sans-Serif" font-size="10.00" fill="#000000">memory</text>
</g>
<!-- Node9&#45;&gt;Node11 -->
<g id="edge12" class="edge">
<title>Node9&#45;&gt;Node11</title>
<path fill="none" stroke="#191970" d="M433.9008,-112.3733C410.8606,-103.2226 376.0182,-89.3844 350.3895,-79.2057"/>
<polygon fill="#191970" stroke="#191970" points="351.6478,-75.9395 341.062,-75.5011 349.0639,-82.4452 351.6478,-75.9395"/>
</g>
<!-- Node12 -->
<g id="node13" class="node">
<title>Node12</title>
<polygon fill="none" stroke="#bfbfbf" points="364.1396,-56.5 364.1396,-75.5 414.1396,-75.5 414.1396,-56.5 364.1396,-56.5"/>
<text text-anchor="middle" x="389.1396" y="-63.5" font-family="Helvetica,sans-Serif" font-size="10.00" fill="#000000">cstring</text>
</g>
<!-- Node9&#45;&gt;Node12 -->
<g id="edge13" class="edge">
<title>Node9&#45;&gt;Node12</title>
<path fill="none" stroke="#191970" d="M446.1207,-112.2455C435.9297,-103.9746 421.1033,-91.9416 409.1289,-82.2232"/>
<polygon fill="#191970" stroke="#191970" points="410.9909,-79.2268 401.0207,-75.6427 406.5797,-84.662 410.9909,-79.2268"/>
</g>
<!-- Node13 -->
<g id="node14" class="node">
<title>Node13</title>
<polygon fill="none" stroke="#bfbfbf" points="432.1396,-56.5 432.1396,-75.5 484.1396,-75.5 484.1396,-56.5 432.1396,-56.5"/>
<text text-anchor="middle" x="458.1396" y="-63.5" font-family="Helvetica,sans-Serif" font-size="10.00" fill="#000000">cassert</text>
</g>
<!-- Node9&#45;&gt;Node13 -->
<g id="edge14" class="edge">
<title>Node9&#45;&gt;Node13</title>
<path fill="none" stroke="#191970" d="M458.1396,-112.2455C458.1396,-104.9382 458.1396,-94.6944 458.1396,-85.7046"/>
<polygon fill="#191970" stroke="#191970" points="461.6397,-85.6426 458.1396,-75.6427 454.6397,-85.6427 461.6397,-85.6426"/>
</g>
<!-- Node14 -->
<g id="node15" class="node">
<title>Node14</title>
<g id="a_node15"><a xlink:href="../../df/d5b/GPUCommonLogger_8h.html" target="_top" xlink:title="GPUCommonLogger.h">
<polygon fill="none" stroke="#000000" points="502.6396,-56.5 502.6396,-75.5 625.6396,-75.5 625.6396,-56.5 502.6396,-56.5"/>
<text text-anchor="middle" x="564.1396" y="-63.5" font-family="Helvetica,sans-Serif" font-size="10.00" fill="#000000">GPUCommonLogger.h</text>
</a>
</g>
</g>
<!-- Node9&#45;&gt;Node14 -->
<g id="edge17" class="edge">
<title>Node9&#45;&gt;Node14</title>
<path fill="none" stroke="#191970" d="M476.6033,-112.2455C493.247,-103.4527 517.9389,-90.4079 536.8587,-80.4125"/>
<polygon fill="#191970" stroke="#191970" points="538.6803,-83.4086 545.8874,-75.6427 535.4105,-77.2193 538.6803,-83.4086"/>
</g>
<!-- Node15 -->
<g id="node16" class="node">
<title>Node15</title>
<polygon fill="none" stroke="#bfbfbf" points="498.1396,-.5 498.1396,-19.5 558.1396,-19.5 558.1396,-.5 498.1396,-.5"/>
<text text-anchor="middle" x="528.1396" y="-7.5" font-family="Helvetica,sans-Serif" font-size="10.00" fill="#000000">iostream</text>
</g>
<!-- Node14&#45;&gt;Node15 -->
<g id="edge18" class="edge">
<title>Node14&#45;&gt;Node15</title>
<path fill="none" stroke="#191970" d="M557.8688,-56.2455C552.9132,-48.5367 545.8566,-37.5598 539.8619,-28.2348"/>
<polygon fill="#191970" stroke="#191970" points="542.6902,-26.1618 534.3384,-19.6427 536.8019,-29.9471 542.6902,-26.1618"/>
</g>
<!-- Node16 -->
<g id="node17" class="node">
<title>Node16</title>
<polygon fill="none" stroke="#bfbfbf" points="576.1396,-.5 576.1396,-19.5 622.1396,-19.5 622.1396,-.5 576.1396,-.5"/>
<text text-anchor="middle" x="599.1396" y="-7.5" font-family="Helvetica,sans-Serif" font-size="10.00" fill="#000000">cstdio</text>
</g>
<!-- Node14&#45;&gt;Node16 -->
<g id="edge19" class="edge">
<title>Node14&#45;&gt;Node16</title>
<path fill="none" stroke="#191970" d="M570.2361,-56.2455C575.0541,-48.5367 581.9147,-37.5598 587.7428,-28.2348"/>
<polygon fill="#191970" stroke="#191970" points="590.7808,-29.9777 593.1129,-19.6427 584.8448,-26.2677 590.7808,-29.9777"/>
</g>
<!-- Node18&#45;&gt;Node3 -->
<g id="edge24" class="edge">
<title>Node18&#45;&gt;Node3</title>
<path fill="none" stroke="#191970" d="M411.4412,-224.4586C404.4646,-201.5325 383.6309,-142.9591 345.1396,-112 325.199,-95.9616 299.2249,-85.2784 275.8146,-78.2822"/>
<polygon fill="#191970" stroke="#191970" points="276.5383,-74.8499 265.9637,-75.5048 274.6386,-81.5872 276.5383,-74.8499"/>
</g>
<!-- Node18&#45;&gt;Node8 -->
<g id="edge22" class="edge">
<title>Node18&#45;&gt;Node8</title>
<path fill="none" stroke="#191970" d="M400.553,-224.2455C388.8091,-215.814 371.6197,-203.4729 357.9514,-193.6598"/>
<polygon fill="#191970" stroke="#191970" points="359.7349,-190.6316 349.5704,-187.6427 355.6524,-196.3179 359.7349,-190.6316"/>
</g>
<!-- Node18&#45;&gt;Node9 -->
<g id="edge23" class="edge">
<title>Node18&#45;&gt;Node9</title>
<path fill="none" stroke="#191970" d="M424.8996,-224.1802C433.5784,-215.5606 445.2731,-202.2101 451.1396,-188 457.1855,-173.3553 458.7561,-155.4021 458.9148,-141.9193"/>
<polygon fill="#191970" stroke="#191970" points="462.4133,-141.7694 458.7832,-131.8159 455.4138,-141.8606 462.4133,-141.7694"/>
</g>
<!-- Node19&#45;&gt;Node1 -->
<g id="edge26" class="edge">
<title>Node19&#45;&gt;Node1</title>
<path fill="none" stroke="#191970" d="M206.8097,-224.4452C178.4693,-215.7905 135.333,-202.5884 89.6771,-188.4668"/>
<polygon fill="#191970" stroke="#191970" points="90.4886,-185.0543 79.9008,-185.4408 88.4187,-191.7413 90.4886,-185.0543"/>
</g>
<!-- Node19&#45;&gt;Node2 -->
<g id="edge27" class="edge">
<title>Node19&#45;&gt;Node2</title>
<path fill="none" stroke="#191970" d="M218.0265,-224.3733C199.3292,-215.4241 171.2652,-201.9917 150.1461,-191.8835"/>
<polygon fill="#191970" stroke="#191970" points="151.5212,-188.6614 140.9901,-187.5011 148.4991,-194.9755 151.5212,-188.6614"/>
</g>
<!-- Node19&#45;&gt;Node3 -->
<g id="edge28" class="edge">
<title>Node19&#45;&gt;Node3</title>
<path fill="none" stroke="#191970" d="M236.8937,-224.4862C233.416,-197.9293 223.5469,-122.5651 218.7803,-86.1655"/>
<polygon fill="#191970" stroke="#191970" points="222.1954,-85.2887 217.4265,-75.8279 215.2547,-86.1977 222.1954,-85.2887"/>
</g>
<!-- Node19&#45;&gt;Node6 -->
<g id="edge29" class="edge">
<title>Node19&#45;&gt;Node6</title>
<path fill="none" stroke="#191970" d="M268.6629,-224.4862C360.3677,-195.9029 633.4716,-110.7796 736.8662,-78.5527"/>
<polygon fill="#191970" stroke="#191970" points="738.1123,-81.8305 746.6178,-75.5133 736.0292,-75.1476 738.1123,-81.8305"/>
</g>
<!-- Node19&#45;&gt;Node8 -->
<g id="edge30" class="edge">
<title>Node19&#45;&gt;Node8</title>
<path fill="none" stroke="#191970" d="M255.2099,-224.2455C270.3866,-215.5731 292.8017,-202.7645 310.1958,-192.825"/>
<polygon fill="#191970" stroke="#191970" points="312.3189,-195.643 319.2649,-187.6427 308.8459,-189.5653 312.3189,-195.643"/>
</g>
<!-- Node19&#45;&gt;Node17 -->
<g id="edge31" class="edge">
<title>Node19&#45;&gt;Node17</title>
<path fill="none" stroke="#191970" d="M242.1467,-224.4509C249.8817,-206.0186 267.0003,-165.2254 277.1483,-141.043"/>
<polygon fill="#191970" stroke="#191970" points="280.5003,-142.1002 281.1425,-131.5249 274.0456,-139.3915 280.5003,-142.1002"/>
</g>
<!-- Node19&#45;&gt;Node20 -->
<g id="edge32" class="edge">
<title>Node19&#45;&gt;Node20</title>
<path fill="none" stroke="#191970" d="M228.9077,-224.2455C221.3078,-216.2155 210.3518,-204.6394 201.3028,-195.0781"/>
<polygon fill="#191970" stroke="#191970" points="203.6816,-192.4998 194.2657,-187.6427 198.5975,-197.3115 203.6816,-192.4998"/>
</g>
</g>
</svg>
        <g id="navigator" transform="translate(0 0)" fill="#404254">
                <rect fill="#f2f5e9" fill-opacity="0.5" stroke="#606060" stroke-width=".5" x="0" y="0" width="60" height="60"/>
                <use id="zoomplus" xlink:href="#zoomPlus" x="17" y="9" onmousedown="handleZoom(evt,'in')"/>
                <use id="zoomminus" xlink:href="#zoomMin" x="42" y="9" onmousedown="handleZoom(evt,'out')"/>
                <use id="reset" xlink:href="#resetDef" x="30" y="36" onmousedown="handleReset()"/>
                <g id="arrowUp" xlink:href="#dirArrow" transform="translate(30 24)" onmousedown="handlePan(0,-1)">
                  <use xlink:href="#rim" fill="#404040">
                        <set attributeName="fill" to="#808080" begin="arrowUp.mouseover" end="arrowUp.mouseout"/>
                  </use>
                  <path fill="none" stroke="white" stroke-width="1.5" d="M0,-3.0v7 M-2.5,-0.5L0,-3.0L2.5,-0.5"/>
                </g>
                <g id="arrowRight" xlink:href="#dirArrow" transform="rotate(90) translate(36 -43)" onmousedown="handlePan(1,0)">
                  <use xlink:href="#rim" fill="#404040">
                        <set attributeName="fill" to="#808080" begin="arrowRight.mouseover" end="arrowRight.mouseout"/>
                  </use>
                  <path fill="none" stroke="white" stroke-width="1.5" d="M0,-3.0v7 M-2.5,-0.5L0,-3.0L2.5,-0.5"/>
                </g>
                <g id="arrowDown" xlink:href="#dirArrow" transform="rotate(180) translate(-30 -48)" onmousedown="handlePan(0,1)">
                  <use xlink:href="#rim" fill="#404040">
                        <set attributeName="fill" to="#808080" begin="arrowDown.mouseover" end="arrowDown.mouseout"/>
                  </use>
                  <path fill="none" stroke="white" stroke-width="1.5" d="M0,-3.0v7 M-2.5,-0.5L0,-3.0L2.5,-0.5"/>
                </g>
                <g id="arrowLeft" xlink:href="#dirArrow" transform="rotate(270) translate(-36 17)" onmousedown="handlePan(-1,0)">
                  <use xlink:href="#rim" fill="#404040">
                        <set attributeName="fill" to="#808080" begin="arrowLeft.mouseover" end="arrowLeft.mouseout"/>
                  </use>
                  <path fill="none" stroke="white" stroke-width="1.5" d="M0,-3.0v7 M-2.5,-0.5L0,-3.0L2.5,-0.5"/>
                </g>
        </g>
        <svg viewBox="0 0 15 15" width="100%" height="30px" preserveAspectRatio="xMaxYMin meet">
         <g id="arrow_out" transform="scale(0.3 0.3)">
          <a xlink:href="SplineHelper2D_8h__incl_org.svg" target="_base">
           <rect id="button" ry="5" rx="5" y="6" x="6" height="38" width="38"
                fill="#f2f5e9" fill-opacity="0.5" stroke="#606060" stroke-width="1.0"/>
           <path id="arrow"
             d="M 11.500037,31.436501 C 11.940474,20.09759 22.043105,11.32322 32.158766,21.979434 L 37.068811,17.246167 C 37.068811,17.246167 37.088388,32 37.088388,32 L 22.160133,31.978069 C 22.160133,31.978069 26.997745,27.140456 26.997745,27.140456 C 18.528582,18.264221 13.291696,25.230495 11.500037,31.436501 z"
             style="fill:#404040;"/>
          </a>
         </g>
        </svg>
</svg>
