<?xml version="1.0" encoding="UTF-8" standalone="no"?>
<!DOCTYPE svg PUBLIC "-//W3C//DTD SVG 1.1//EN"
 "http://www.w3.org/Graphics/SVG/1.1/DTD/svg11.dtd">
<!-- Generated by graphviz version 2.40.1 (20161225.0304)
 -->
<!-- Title: /home/travis/build/AliceO2Group/AliceO2/Framework/Core/include/Framework/SourceInfoHeader.h Pages: 1 -->
<svg width="798pt" height="173pt"
 viewBox="0.00 0.00 798.00 173.00" xmlns="http://www.w3.org/2000/svg" xmlns:xlink="http://www.w3.org/1999/xlink">
<g id="graph0" class="graph" transform="scale(1 1) rotate(0) translate(4 169)">
<title>/home/travis/build/AliceO2Group/AliceO2/Framework/Core/include/Framework/SourceInfoHeader.h</title>
<!-- Node0 -->
<g id="node1" class="node">
<title>Node0</title>
<polygon fill="#bfbfbf" stroke="#000000" points="143,-112.5 143,-164.5 315,-164.5 315,-112.5 143,-112.5"/>
<text text-anchor="start" x="151" y="-152.5" font-family="Helvetica,sans-Serif" font-size="10.00" fill="#000000">/home/travis/build</text>
<text text-anchor="start" x="151" y="-141.5" font-family="Helvetica,sans-Serif" font-size="10.00" fill="#000000">/AliceO2Group/AliceO2</text>
<text text-anchor="start" x="151" y="-130.5" font-family="Helvetica,sans-Serif" font-size="10.00" fill="#000000">/Framework/Core/include</text>
<text text-anchor="middle" x="229" y="-119.5" font-family="Helvetica,sans-Serif" font-size="10.00" fill="#000000">/Framework/SourceInfoHeader.h</text>
</g>
<!-- Node1 -->
<g id="node2" class="node">
<title>Node1</title>
<g id="a_node2"><a xlink:href="../../dc/dcd/DataHeader_8h.html" target="_top" xlink:title="Headers/DataHeader.h">
<polygon fill="none" stroke="#000000" points="237.5,-56.5 237.5,-75.5 364.5,-75.5 364.5,-56.5 237.5,-56.5"/>
<text text-anchor="middle" x="301" y="-63.5" font-family="Helvetica,sans-Serif" font-size="10.00" fill="#000000">Headers/DataHeader.h</text>
</a>
</g>
</g>
<!-- Node0&#45;&gt;Node1 -->
<g id="edge1" class="edge">
<title>Node0&#45;&gt;Node1</title>
<path fill="none" stroke="#191970" d="M254.9937,-112.3258C264.739,-102.5128 275.547,-91.6298 284.2374,-82.879"/>
<polygon fill="#191970" stroke="#191970" points="286.9686,-85.0958 291.5317,-75.534 282.0017,-80.1632 286.9686,-85.0958"/>
</g>
<!-- Node2 -->
<g id="node3" class="node">
<title>Node2</title>
<polygon fill="none" stroke="#bfbfbf" points="0,-.5 0,-19.5 50,-19.5 50,-.5 0,-.5"/>
<text text-anchor="middle" x="25" y="-7.5" font-family="Helvetica,sans-Serif" font-size="10.00" fill="#000000">cstdint</text>
</g>
<!-- Node0&#45;&gt;Node2 -->
<g id="edge14" class="edge">
<title>Node0&#45;&gt;Node2</title>
<path fill="none" stroke="#191970" d="M187.7176,-112.4961C146.0012,-86.2189 82.9808,-46.5222 48.9058,-25.0583"/>
<polygon fill="#191970" stroke="#191970" points="50.4309,-21.8825 40.1042,-19.5142 46.7001,-27.8054 50.4309,-21.8825"/>
</g>
<!-- Node3 -->
<g id="node4" class="node">
<title>Node3</title>
<polygon fill="none" stroke="#bfbfbf" points="68,-.5 68,-19.5 126,-19.5 126,-.5 68,-.5"/>
<text text-anchor="middle" x="97" y="-7.5" font-family="Helvetica,sans-Serif" font-size="10.00" fill="#000000">memory</text>
</g>
<!-- Node0&#45;&gt;Node3 -->
<g id="edge16" class="edge">
<title>Node0&#45;&gt;Node3</title>
<path fill="none" stroke="#191970" d="M202.2878,-112.4961C175.987,-86.8926 136.5991,-48.5491 114.2009,-26.7448"/>
<polygon fill="#191970" stroke="#191970" points="116.3802,-23.9817 106.7733,-19.5142 111.4973,-28.9975 116.3802,-23.9817"/>
</g>
<!-- Node4 -->
<g id="node5" class="node">
<title>Node4</title>
<polygon fill="none" stroke="#bfbfbf" points="144,-.5 144,-19.5 196,-19.5 196,-.5 144,-.5"/>
<text text-anchor="middle" x="170" y="-7.5" font-family="Helvetica,sans-Serif" font-size="10.00" fill="#000000">cassert</text>
</g>
<!-- Node0&#45;&gt;Node4 -->
<g id="edge17" class="edge">
<title>Node0&#45;&gt;Node4</title>
<path fill="none" stroke="#191970" d="M217.0605,-112.4961C205.6657,-87.6787 188.7751,-50.8915 178.6315,-28.799"/>
<polygon fill="#191970" stroke="#191970" points="181.7218,-27.1416 174.3684,-19.5142 175.3603,-30.0625 181.7218,-27.1416"/>
</g>
<!-- Node12 -->
<g id="node13" class="node">
<title>Node12</title>
<g id="a_node13"><a xlink:href="../../dd/de5/ChannelInfo_8h.html" target="_top" xlink:title="Framework/ChannelInfo.h">
<polygon fill="none" stroke="#000000" points="382.5,-56.5 382.5,-75.5 523.5,-75.5 523.5,-56.5 382.5,-56.5"/>
<text text-anchor="middle" x="453" y="-63.5" font-family="Helvetica,sans-Serif" font-size="10.00" fill="#000000">Framework/ChannelInfo.h</text>
</a>
</g>
</g>
<!-- Node0&#45;&gt;Node12 -->
<g id="edge12" class="edge">
<title>Node0&#45;&gt;Node12</title>
<path fill="none" stroke="#191970" d="M309.5527,-112.4283C345.0073,-100.953 385.0372,-87.9969 413.7836,-78.6928"/>
<polygon fill="#191970" stroke="#191970" points="415.0186,-81.9719 423.4549,-75.5626 412.8631,-75.3121 415.0186,-81.9719"/>
</g>
<!-- Node13 -->
<g id="node14" class="node">
<title>Node13</title>
<polygon fill="none" stroke="#bfbfbf" points="542,-56.5 542,-75.5 588,-75.5 588,-56.5 542,-56.5"/>
<text text-anchor="middle" x="565" y="-63.5" font-family="Helvetica,sans-Serif" font-size="10.00" fill="#000000">cstdio</text>
</g>
<!-- Node0&#45;&gt;Node13 -->
<g id="edge15" class="edge">
<title>Node0&#45;&gt;Node13</title>
<path fill="none" stroke="#191970" d="M315.0278,-123.193C373.6845,-112.2019 453.25,-96.2124 531.6126,-76.1826"/>
<polygon fill="#191970" stroke="#191970" points="532.8505,-79.4779 541.6589,-73.5905 531.1016,-72.6999 532.8505,-79.4779"/>
</g>
<!-- Node1&#45;&gt;Node2 -->
<g id="edge2" class="edge">
<title>Node1&#45;&gt;Node2</title>
<path fill="none" stroke="#191970" d="M241.9731,-56.4486C195.0659,-48.4787 127.6244,-36.1781 60.1325,-20.1032"/>
<polygon fill="#191970" stroke="#191970" points="60.7184,-16.6443 50.1767,-17.7042 59.0785,-23.4495 60.7184,-16.6443"/>
</g>
<!-- Node1&#45;&gt;Node3 -->
<g id="edge3" class="edge">
<title>Node1&#45;&gt;Node3</title>
<path fill="none" stroke="#191970" d="M265.9311,-56.3733C229.7983,-46.4544 173.6028,-31.0282 136.0686,-20.7247"/>
<polygon fill="#191970" stroke="#191970" points="136.5788,-17.2354 126.009,-17.9633 134.7258,-23.9856 136.5788,-17.2354"/>
</g>
<!-- Node1&#45;&gt;Node4 -->
<g id="edge4" class="edge">
<title>Node1&#45;&gt;Node4</title>
<path fill="none" stroke="#191970" d="M278.4803,-56.3733C257.2628,-47.3032 225.2724,-33.6279 201.5231,-23.4755"/>
<polygon fill="#191970" stroke="#191970" points="202.7967,-20.2136 192.2258,-19.5011 200.0452,-26.6502 202.7967,-20.2136"/>
</g>
<!-- Node5 -->
<g id="node6" class="node">
<title>Node5</title>
<polygon fill="none" stroke="#bfbfbf" points="214,-.5 214,-19.5 264,-19.5 264,-.5 214,-.5"/>
<text text-anchor="middle" x="239" y="-7.5" font-family="Helvetica,sans-Serif" font-size="10.00" fill="#000000">cstring</text>
</g>
<!-- Node1&#45;&gt;Node5 -->
<g id="edge5" class="edge">
<title>Node1&#45;&gt;Node5</title>
<path fill="none" stroke="#191970" d="M290.2004,-56.2455C281.1322,-48.0549 267.9794,-36.1749 257.2755,-26.5069"/>
<polygon fill="#191970" stroke="#191970" points="259.4429,-23.7482 249.6758,-19.6427 254.7509,-28.9429 259.4429,-23.7482"/>
</g>
<!-- Node6 -->
<g id="node7" class="node">
<title>Node6</title>
<polygon fill="none" stroke="#bfbfbf" points="282,-.5 282,-19.5 346,-19.5 346,-.5 282,-.5"/>
<text text-anchor="middle" x="314" y="-7.5" font-family="Helvetica,sans-Serif" font-size="10.00" fill="#000000">algorithm</text>
</g>
<!-- Node1&#45;&gt;Node6 -->
<g id="edge6" class="edge">
<title>Node1&#45;&gt;Node6</title>
<path fill="none" stroke="#191970" d="M303.2644,-56.2455C304.9794,-48.8579 307.3912,-38.4689 309.4944,-29.4087"/>
<polygon fill="#191970" stroke="#191970" points="312.9095,-30.1751 311.7615,-19.6427 306.0908,-28.5922 312.9095,-30.1751"/>
</g>
<!-- Node7 -->
<g id="node8" class="node">
<title>Node7</title>
<polygon fill="none" stroke="#bfbfbf" points="364.5,-.5 364.5,-19.5 429.5,-19.5 429.5,-.5 364.5,-.5"/>
<text text-anchor="middle" x="397" y="-7.5" font-family="Helvetica,sans-Serif" font-size="10.00" fill="#000000">stdexcept</text>
</g>
<!-- Node1&#45;&gt;Node7 -->
<g id="edge7" class="edge">
<title>Node1&#45;&gt;Node7</title>
<path fill="none" stroke="#191970" d="M317.7219,-56.2455C332.5889,-47.5731 354.5466,-34.7645 371.5858,-24.825"/>
<polygon fill="#191970" stroke="#191970" points="373.5955,-27.7047 380.4697,-19.6427 370.0683,-21.6582 373.5955,-27.7047"/>
</g>
<!-- Node8 -->
<g id="node9" class="node">
<title>Node8</title>
<polygon fill="none" stroke="#bfbfbf" points="746,-.5 746,-19.5 790,-19.5 790,-.5 746,-.5"/>
<text text-anchor="middle" x="768" y="-7.5" font-family="Helvetica,sans-Serif" font-size="10.00" fill="#000000">string</text>
</g>
<!-- Node1&#45;&gt;Node8 -->
<g id="edge8" class="edge">
<title>Node1&#45;&gt;Node8</title>
<path fill="none" stroke="#191970" d="M364.6834,-57.1339C367.8323,-56.7402 370.9511,-56.3599 374,-56 531.7051,-37.3848 576.4601,-52.4294 735.6501,-19.8939"/>
<polygon fill="#191970" stroke="#191970" points="736.7216,-23.2462 745.8017,-17.787 735.2991,-16.3923 736.7216,-23.2462"/>
</g>
<!-- Node9 -->
<g id="node10" class="node">
<title>Node9</title>
<polygon fill="none" stroke="#bfbfbf" points="448,-.5 448,-19.5 498,-19.5 498,-.5 448,-.5"/>
<text text-anchor="middle" x="473" y="-7.5" font-family="Helvetica,sans-Serif" font-size="10.00" fill="#000000">climits</text>
</g>
<!-- Node1&#45;&gt;Node9 -->
<g id="edge9" class="edge">
<title>Node1&#45;&gt;Node9</title>
<path fill="none" stroke="#191970" d="M330.5679,-56.3733C360.3822,-46.6663 406.3974,-31.6846 438.0112,-21.3917"/>
<polygon fill="#191970" stroke="#191970" points="439.3054,-24.6512 447.7305,-18.2273 437.1382,-17.9951 439.3054,-24.6512"/>
</g>
<!-- Node10 -->
<g id="node11" class="node">
<title>Node10</title>
<g id="a_node11"><a xlink:href="../../d7/df8/Types_8h.html" target="_top" xlink:title="MemoryResources/Types.h">
<polygon fill="none" stroke="#000000" points="516,-.5 516,-19.5 662,-19.5 662,-.5 516,-.5"/>
<text text-anchor="middle" x="589" y="-7.5" font-family="Helvetica,sans-Serif" font-size="10.00" fill="#000000">MemoryResources/Types.h</text>
</a>
</g>
</g>
<!-- Node1&#45;&gt;Node10 -->
<g id="edge10" class="edge">
<title>Node1&#45;&gt;Node10</title>
<path fill="none" stroke="#191970" d="M350.1817,-56.4369C399.9884,-46.7522 477.0385,-31.7703 530.0788,-21.4569"/>
<polygon fill="#191970" stroke="#191970" points="530.873,-24.8681 540.0211,-19.5237 529.5369,-17.9968 530.873,-24.8681"/>
</g>
<!-- Node11 -->
<g id="node12" class="node">
<title>Node11</title>
<polygon fill="none" stroke="#bfbfbf" points="680.5,-.5 680.5,-19.5 727.5,-19.5 727.5,-.5 680.5,-.5"/>
<text text-anchor="middle" x="704" y="-7.5" font-family="Helvetica,sans-Serif" font-size="10.00" fill="#000000">cerrno</text>
</g>
<!-- Node1&#45;&gt;Node11 -->
<g id="edge11" class="edge">
<title>Node1&#45;&gt;Node11</title>
<path fill="none" stroke="#191970" d="M364.6935,-57.2156C367.8397,-56.8003 370.9552,-56.3931 374,-56 502.6524,-39.3921 539.1168,-46.9883 670.3049,-19.8148"/>
<polygon fill="#191970" stroke="#191970" points="671.2675,-23.1891 680.3347,-17.7085 669.8288,-16.3385 671.2675,-23.1891"/>
</g>
<!-- Node12&#45;&gt;Node8 -->
<g id="edge13" class="edge">
<title>Node12&#45;&gt;Node8</title>
<path fill="none" stroke="#191970" d="M518.9979,-56.4932C585.1596,-46.765 683.5007,-31.7207 735.9162,-19.9304"/>
<polygon fill="#191970" stroke="#191970" points="736.8286,-23.3115 745.7638,-17.6183 735.2285,-16.4968 736.8286,-23.3115"/>
</g>
</g>
</svg>
