<?xml version="1.0" encoding="UTF-8" standalone="no"?>
<!DOCTYPE svg PUBLIC "-//W3C//DTD SVG 1.1//EN"
 "http://www.w3.org/Graphics/SVG/1.1/DTD/svg11.dtd">
<!-- Generated by graphviz version 2.40.1 (20161225.0304)
 -->
<!-- Title: /home/travis/build/AliceO2Group/AliceO2/Detectors/ITSMFT/ITS/base/include/ITSBase/ContainerFactory.h Pages: 1 -->
<svg width="182pt" height="128pt"
 viewBox="0.00 0.00 182.00 128.00" xmlns="http://www.w3.org/2000/svg" xmlns:xlink="http://www.w3.org/1999/xlink">
<g id="graph0" class="graph" transform="scale(1 1) rotate(0) translate(4 124)">
<title>/home/travis/build/AliceO2Group/AliceO2/Detectors/ITSMFT/ITS/base/include/ITSBase/ContainerFactory.h</title>
<!-- Node0 -->
<g id="node1" class="node">
<title>Node0</title>
<polygon fill="#bfbfbf" stroke="#000000" points="1,-56.5 1,-119.5 174,-119.5 174,-56.5 1,-56.5"/>
<text text-anchor="start" x="9" y="-107.5" font-family="Helvetica,sans-Serif" font-size="10.00" fill="#000000">/home/travis/build</text>
<text text-anchor="start" x="9" y="-96.5" font-family="Helvetica,sans-Serif" font-size="10.00" fill="#000000">/AliceO2Group/AliceO2</text>
<text text-anchor="start" x="9" y="-85.5" font-family="Helvetica,sans-Serif" font-size="10.00" fill="#000000">/Detectors/ITSMFT/ITS</text>
<text text-anchor="start" x="9" y="-74.5" font-family="Helvetica,sans-Serif" font-size="10.00" fill="#000000">/base/include/ITSBase/Container</text>
<text text-anchor="middle" x="87.5" y="-63.5" font-family="Helvetica,sans-Serif" font-size="10.00" fill="#000000">Factory.h</text>
</g>
<!-- Node1 -->
<g id="node2" class="node">
<title>Node1</title>
<polygon fill="none" stroke="#bfbfbf" points="0,-.5 0,-19.5 85,-19.5 85,-.5 0,-.5"/>
<text text-anchor="middle" x="42.5" y="-7.5" font-family="Helvetica,sans-Serif" font-size="10.00" fill="#000000">FairContFact.h</text>
</g>
<!-- Node0&#45;&gt;Node1 -->
<g id="edge1" class="edge">
<title>Node0&#45;&gt;Node1</title>
<path fill="none" stroke="#191970" d="M69.1968,-56.2744C63.7401,-46.8162 57.942,-36.7661 53.1483,-28.4571"/>
<polygon fill="#191970" stroke="#191970" points="56.0919,-26.5554 48.063,-19.6426 50.0286,-30.0535 56.0919,-26.5554"/>
</g>
<!-- Node2 -->
<g id="node3" class="node">
<title>Node2</title>
<polygon fill="none" stroke="#bfbfbf" points="103,-.5 103,-19.5 162,-19.5 162,-.5 103,-.5"/>
<text text-anchor="middle" x="132.5" y="-7.5" font-family="Helvetica,sans-Serif" font-size="10.00" fill="#000000">Rtypes.h</text>
</g>
<!-- Node0&#45;&gt;Node2 -->
<g id="edge2" class="edge">
<title>Node0&#45;&gt;Node2</title>
<path fill="none" stroke="#191970" d="M105.8032,-56.2744C111.2599,-46.8162 117.058,-36.7661 121.8517,-28.4571"/>
<polygon fill="#191970" stroke="#191970" points="124.9714,-30.0535 126.937,-19.6426 118.9081,-26.5554 124.9714,-30.0535"/>
</g>
</g>
</svg>
