<?xml version="1.0" encoding="UTF-8" standalone="no"?>
<!DOCTYPE svg PUBLIC "-//W3C//DTD SVG 1.1//EN"
 "http://www.w3.org/Graphics/SVG/1.1/DTD/svg11.dtd">
<!-- Generated by graphviz version 2.40.1 (20161225.0304)
 -->
<!-- Title: /home/travis/build/AliceO2Group/AliceO2/Detectors/MUON/MCH/Simulation/src/Station345Geometry.cxx Pages: 1 -->
<!--zoomable 173 -->
<svg id="main" version="1.1" xmlns="http://www.w3.org/2000/svg" xmlns:xlink="http://www.w3.org/1999/xlink" xml:space="preserve" onload="init(evt)">
<style type="text/css"><![CDATA[
.edge:hover path { stroke: red; }
.edge:hover polygon { stroke: red; fill: red; }
]]></style>
<script type="text/javascript"><![CDATA[
var edges = document.getElementsByTagName('g');
if (edges && edges.length) {
  for (var i=0;i<edges.length;i++) {
    if (edges[i].id.substr(0,4)=='edge') {
      edges[i].setAttribute('class','edge');
    }
  }
}
]]></script>
        <defs>
                <circle id="rim" cx="0" cy="0" r="7"/>
                <circle id="rim2" cx="0" cy="0" r="3.5"/>
                <g id="zoomPlus">
                        <use xlink:href="#rim" fill="#404040">
                                <set attributeName="fill" to="#808080" begin="zoomplus.mouseover" end="zoomplus.mouseout"/>
                        </use>
                        <path d="M-4,0h8M0,-4v8" fill="none" stroke="white" stroke-width="1.5" pointer-events="none"/>
                </g>
                <g id="zoomMin">
                        <use xlink:href="#rim" fill="#404040">
                                <set attributeName="fill" to="#808080" begin="zoomminus.mouseover" end="zoomminus.mouseout"/>
                        </use>
                        <path d="M-4,0h8" fill="none" stroke="white" stroke-width="1.5" pointer-events="none"/>
                </g>
                <g id="dirArrow">
                        <path fill="none" stroke="white" stroke-width="1.5" d="M0,-3.0v7 M-2.5,-0.5L0,-3.0L2.5,-0.5"/>
                </g>
               <g id="resetDef">
                       <use xlink:href="#rim2" fill="#404040">
                               <set attributeName="fill" to="#808080" begin="reset.mouseover" end="reset.mouseout"/>
                       </use>
               </g>
        </defs>

<script type="text/javascript">
var viewWidth = 1400;
var viewHeight = 173;
var sectionId = 'dynsection-0';
</script>
<script xlink:href="../../svgpan.js"/>
<svg id="graph" class="graph">
<g id="viewport">
<title>/home/travis/build/AliceO2Group/AliceO2/Detectors/MUON/MCH/Simulation/src/Station345Geometry.cxx</title>
<!-- Node0 -->
<g id="node1" class="node">
<title>Node0</title>
<polygon fill="#bfbfbf" stroke="#000000" points="628.5,-112.5 628.5,-164.5 810.5,-164.5 810.5,-112.5 628.5,-112.5"/>
<text text-anchor="start" x="636.5" y="-152.5" font-family="Helvetica,sans-Serif" font-size="10.00" fill="#000000">/home/travis/build</text>
<text text-anchor="start" x="636.5" y="-141.5" font-family="Helvetica,sans-Serif" font-size="10.00" fill="#000000">/AliceO2Group/AliceO2</text>
<text text-anchor="start" x="636.5" y="-130.5" font-family="Helvetica,sans-Serif" font-size="10.00" fill="#000000">/Detectors/MUON/MCH/Simulation</text>
<text text-anchor="middle" x="719.5" y="-119.5" font-family="Helvetica,sans-Serif" font-size="10.00" fill="#000000">/src/Station345Geometry.cxx</text>
</g>
<!-- Node1 -->
<g id="node2" class="node">
<title>Node1</title>
<g id="a_node2"><a xlink:href="../../d4/dfa/MCH_2Simulation_2src_2Materials_8h.html" target="_top" xlink:title="Materials.h">
<polygon fill="none" stroke="#000000" points="0,-56.5 0,-75.5 71,-75.5 71,-56.5 0,-56.5"/>
<text text-anchor="middle" x="35.5" y="-63.5" font-family="Helvetica,sans-Serif" font-size="10.00" fill="#000000">Materials.h</text>
</a>
</g>
</g>
<!-- Node0&#45;&gt;Node1 -->
<g id="edge1" class="edge">
<title>Node0&#45;&gt;Node1</title>
<path fill="none" stroke="#191970" d="M628.4458,-130.6459C478.9311,-117.56 187.7859,-91.232 85.5,-76 84.0498,-75.784 82.578,-75.5542 81.0934,-75.3131"/>
<polygon fill="#191970" stroke="#191970" points="81.6567,-71.8586 71.204,-73.588 80.4538,-78.7545 81.6567,-71.8586"/>
</g>
<!-- Node2 -->
<g id="node3" class="node">
<title>Node2</title>
<polygon fill="none" stroke="#bfbfbf" points="22.5,-.5 22.5,-19.5 112.5,-19.5 112.5,-.5 22.5,-.5"/>
<text text-anchor="middle" x="67.5" y="-7.5" font-family="Helvetica,sans-Serif" font-size="10.00" fill="#000000">TGeoMedium.h</text>
</g>
<!-- Node0&#45;&gt;Node2 -->
<g id="edge7" class="edge">
<title>Node0&#45;&gt;Node2</title>
<path fill="none" stroke="#191970" d="M628.491,-132.9266C471.6573,-122.7471 163.0125,-99.9771 119.5,-76 100.216,-65.3737 85.595,-44.3345 76.8421,-28.8553"/>
<polygon fill="#191970" stroke="#191970" points="79.7331,-26.8372 71.9475,-19.6514 73.5527,-30.124 79.7331,-26.8372"/>
</g>
<!-- Node3 -->
<g id="node4" class="node">
<title>Node3</title>
<g id="a_node4"><a xlink:href="../../d9/d7e/Station345Geometry_8h.html" target="_top" xlink:title="Implementation of the slat&#45;stations geometry. ">
<polygon fill="none" stroke="#000000" points="128,-56.5 128,-75.5 253,-75.5 253,-56.5 128,-56.5"/>
<text text-anchor="middle" x="190.5" y="-63.5" font-family="Helvetica,sans-Serif" font-size="10.00" fill="#000000">Station345Geometry.h</text>
</a>
</g>
</g>
<!-- Node0&#45;&gt;Node3 -->
<g id="edge3" class="edge">
<title>Node0&#45;&gt;Node3</title>
<path fill="none" stroke="#191970" d="M628.4494,-126.1047C538.4622,-113.8412 396.5609,-94.4677 263.3139,-76.1101"/>
<polygon fill="#191970" stroke="#191970" points="263.7118,-72.6319 253.3275,-74.7339 262.7561,-79.5664 263.7118,-72.6319"/>
</g>
<!-- Node5 -->
<g id="node6" class="node">
<title>Node5</title>
<polygon fill="none" stroke="#bfbfbf" points="271.5,-56.5 271.5,-75.5 405.5,-75.5 405.5,-56.5 271.5,-56.5"/>
<text text-anchor="middle" x="338.5" y="-63.5" font-family="Helvetica,sans-Serif" font-size="10.00" fill="#000000">TGeoCompositeShape.h</text>
</g>
<!-- Node0&#45;&gt;Node5 -->
<g id="edge5" class="edge">
<title>Node0&#45;&gt;Node5</title>
<path fill="none" stroke="#191970" d="M628.241,-121.1344C557.0253,-107.5829 460.1373,-89.1462 398.4464,-77.4071"/>
<polygon fill="#191970" stroke="#191970" points="398.9591,-73.942 388.4811,-75.5108 397.6505,-80.8186 398.9591,-73.942"/>
</g>
<!-- Node6 -->
<g id="node7" class="node">
<title>Node6</title>
<polygon fill="none" stroke="#bfbfbf" points="423.5,-56.5 423.5,-75.5 515.5,-75.5 515.5,-56.5 423.5,-56.5"/>
<text text-anchor="middle" x="469.5" y="-63.5" font-family="Helvetica,sans-Serif" font-size="10.00" fill="#000000">TGeoManager.h</text>
</g>
<!-- Node0&#45;&gt;Node6 -->
<g id="edge6" class="edge">
<title>Node0&#45;&gt;Node6</title>
<path fill="none" stroke="#191970" d="M629.5975,-112.4283C589.6819,-100.8528 544.5706,-87.7705 512.4306,-78.4499"/>
<polygon fill="#191970" stroke="#191970" points="513.0536,-74.9864 502.4744,-75.5626 511.1038,-81.7094 513.0536,-74.9864"/>
</g>
<!-- Node7 -->
<g id="node8" class="node">
<title>Node7</title>
<polygon fill="none" stroke="#bfbfbf" points="534,-56.5 534,-75.5 615,-75.5 615,-56.5 534,-56.5"/>
<text text-anchor="middle" x="574.5" y="-63.5" font-family="Helvetica,sans-Serif" font-size="10.00" fill="#000000">TGeoShape.h</text>
</g>
<!-- Node0&#45;&gt;Node7 -->
<g id="edge8" class="edge">
<title>Node0&#45;&gt;Node7</title>
<path fill="none" stroke="#191970" d="M667.1517,-112.3258C645.3228,-101.4114 620.8463,-89.1731 602.535,-80.0175"/>
<polygon fill="#191970" stroke="#191970" points="604.0776,-76.8757 593.568,-75.534 600.947,-83.1367 604.0776,-76.8757"/>
</g>
<!-- Node8 -->
<g id="node9" class="node">
<title>Node8</title>
<polygon fill="none" stroke="#bfbfbf" points="633.5,-56.5 633.5,-75.5 707.5,-75.5 707.5,-56.5 633.5,-56.5"/>
<text text-anchor="middle" x="670.5" y="-63.5" font-family="Helvetica,sans-Serif" font-size="10.00" fill="#000000">TGeoTube.h</text>
</g>
<!-- Node0&#45;&gt;Node8 -->
<g id="edge9" class="edge">
<title>Node0&#45;&gt;Node8</title>
<path fill="none" stroke="#191970" d="M701.8099,-112.3258C695.4483,-102.9134 688.4214,-92.5164 682.6392,-83.961"/>
<polygon fill="#191970" stroke="#191970" points="685.4432,-81.8593 676.9437,-75.534 679.6435,-85.7791 685.4432,-81.8593"/>
</g>
<!-- Node9 -->
<g id="node10" class="node">
<title>Node9</title>
<polygon fill="none" stroke="#bfbfbf" points="725.5,-56.5 725.5,-75.5 813.5,-75.5 813.5,-56.5 725.5,-56.5"/>
<text text-anchor="middle" x="769.5" y="-63.5" font-family="Helvetica,sans-Serif" font-size="10.00" fill="#000000">TGeoVolume.h</text>
</g>
<!-- Node0&#45;&gt;Node9 -->
<g id="edge10" class="edge">
<title>Node0&#45;&gt;Node9</title>
<path fill="none" stroke="#191970" d="M737.5511,-112.3258C744.0425,-102.9134 751.2128,-92.5164 757.1131,-83.961"/>
<polygon fill="#191970" stroke="#191970" points="760.1287,-85.7532 762.9248,-75.534 754.3662,-81.7791 760.1287,-85.7532"/>
</g>
<!-- Node10 -->
<g id="node11" class="node">
<title>Node10</title>
<polygon fill="none" stroke="#bfbfbf" points="831.5,-56.5 831.5,-75.5 887.5,-75.5 887.5,-56.5 831.5,-56.5"/>
<text text-anchor="middle" x="859.5" y="-63.5" font-family="Helvetica,sans-Serif" font-size="10.00" fill="#000000">TMath.h</text>
</g>
<!-- Node0&#45;&gt;Node10 -->
<g id="edge11" class="edge">
<title>Node0&#45;&gt;Node10</title>
<path fill="none" stroke="#191970" d="M770.0432,-112.3258C790.9261,-101.5115 814.3185,-89.3976 831.9436,-80.2703"/>
<polygon fill="#191970" stroke="#191970" points="833.8191,-83.2406 841.0895,-75.534 830.6,-77.0246 833.8191,-83.2406"/>
</g>
<!-- Node11 -->
<g id="node12" class="node">
<title>Node11</title>
<polygon fill="none" stroke="#bfbfbf" points="905.5,-56.5 905.5,-75.5 1027.5,-75.5 1027.5,-56.5 905.5,-56.5"/>
<text text-anchor="middle" x="966.5" y="-63.5" font-family="Helvetica,sans-Serif" font-size="10.00" fill="#000000">rapidjson/document.h</text>
</g>
<!-- Node0&#45;&gt;Node11 -->
<g id="edge12" class="edge">
<title>Node0&#45;&gt;Node11</title>
<path fill="none" stroke="#191970" d="M808.3237,-112.4283C847.7603,-100.8528 892.3303,-87.7705 924.0845,-78.4499"/>
<polygon fill="#191970" stroke="#191970" points="925.3118,-81.7374 933.9213,-75.5626 923.3403,-75.0207 925.3118,-81.7374"/>
</g>
<!-- Node12 -->
<g id="node13" class="node">
<title>Node12</title>
<polygon fill="none" stroke="#bfbfbf" points="1046,-56.5 1046,-75.5 1191,-75.5 1191,-56.5 1046,-56.5"/>
<text text-anchor="middle" x="1118.5" y="-63.5" font-family="Helvetica,sans-Serif" font-size="10.00" fill="#000000">rapidjson/filereadstream.h</text>
</g>
<!-- Node0&#45;&gt;Node12 -->
<g id="edge13" class="edge">
<title>Node0&#45;&gt;Node12</title>
<path fill="none" stroke="#191970" d="M810.5385,-121.9579C885.5321,-108.3313 989.9038,-89.3665 1055.8221,-77.3888"/>
<polygon fill="#191970" stroke="#191970" points="1056.8478,-80.7599 1066.061,-75.5284 1055.5963,-73.8726 1056.8478,-80.7599"/>
</g>
<!-- Node13 -->
<g id="node14" class="node">
<title>Node13</title>
<polygon fill="none" stroke="#bfbfbf" points="1209.5,-56.5 1209.5,-75.5 1269.5,-75.5 1269.5,-56.5 1209.5,-56.5"/>
<text text-anchor="middle" x="1239.5" y="-63.5" font-family="Helvetica,sans-Serif" font-size="10.00" fill="#000000">iostream</text>
</g>
<!-- Node0&#45;&gt;Node13 -->
<g id="edge14" class="edge">
<title>Node0&#45;&gt;Node13</title>
<path fill="none" stroke="#191970" d="M810.898,-129.9718C905.7738,-120.3581 1058.5523,-102.7476 1199.2406,-76.0554"/>
<polygon fill="#191970" stroke="#191970" points="1200.1861,-79.438 1209.3483,-74.1179 1198.8682,-72.5631 1200.1861,-79.438"/>
</g>
<!-- Node14 -->
<g id="node15" class="node">
<title>Node14</title>
<polygon fill="none" stroke="#bfbfbf" points="1287.5,-56.5 1287.5,-75.5 1331.5,-75.5 1331.5,-56.5 1287.5,-56.5"/>
<text text-anchor="middle" x="1309.5" y="-63.5" font-family="Helvetica,sans-Serif" font-size="10.00" fill="#000000">string</text>
</g>
<!-- Node0&#45;&gt;Node14 -->
<g id="edge15" class="edge">
<title>Node0&#45;&gt;Node14</title>
<path fill="none" stroke="#191970" d="M810.929,-133.9187C920.2535,-127.1754 1108.6137,-111.543 1277.4826,-75.854"/>
<polygon fill="#191970" stroke="#191970" points="1278.2491,-79.2693 1287.2945,-73.7528 1276.7832,-72.4245 1278.2491,-79.2693"/>
</g>
<!-- Node15 -->
<g id="node16" class="node">
<title>Node15</title>
<polygon fill="none" stroke="#bfbfbf" points="1349.5,-56.5 1349.5,-75.5 1391.5,-75.5 1391.5,-56.5 1349.5,-56.5"/>
<text text-anchor="middle" x="1370.5" y="-63.5" font-family="Helvetica,sans-Serif" font-size="10.00" fill="#000000">array</text>
</g>
<!-- Node0&#45;&gt;Node15 -->
<g id="edge16" class="edge">
<title>Node0&#45;&gt;Node15</title>
<path fill="none" stroke="#191970" d="M810.7188,-135.6291C930.5702,-130.4524 1147.3805,-116.2451 1339.3651,-75.8252"/>
<polygon fill="#191970" stroke="#191970" points="1340.3068,-79.2031 1349.3561,-73.693 1338.8458,-72.3572 1340.3068,-79.2031"/>
</g>
<!-- Node1&#45;&gt;Node2 -->
<g id="edge2" class="edge">
<title>Node1&#45;&gt;Node2</title>
<path fill="none" stroke="#191970" d="M41.074,-56.2455C45.4331,-48.617 51.6211,-37.7881 56.9133,-28.5267"/>
<polygon fill="#191970" stroke="#191970" points="60.0673,-30.0616 61.9899,-19.6427 53.9896,-26.5886 60.0673,-30.0616"/>
</g>
<!-- Node4 -->
<g id="node5" class="node">
<title>Node4</title>
<polygon fill="none" stroke="#bfbfbf" points="167,-.5 167,-19.5 214,-19.5 214,-.5 167,-.5"/>
<text text-anchor="middle" x="190.5" y="-7.5" font-family="Helvetica,sans-Serif" font-size="10.00" fill="#000000">vector</text>
</g>
<!-- Node3&#45;&gt;Node4 -->
<g id="edge4" class="edge">
<title>Node3&#45;&gt;Node4</title>
<path fill="none" stroke="#191970" d="M190.5,-56.2455C190.5,-48.9382 190.5,-38.6944 190.5,-29.7046"/>
<polygon fill="#191970" stroke="#191970" points="194.0001,-29.6426 190.5,-19.6427 187.0001,-29.6427 194.0001,-29.6426"/>
</g>
</g>
</svg>
        <g id="navigator" transform="translate(0 0)" fill="#404254">
                <rect fill="#f2f5e9" fill-opacity="0.5" stroke="#606060" stroke-width=".5" x="0" y="0" width="60" height="60"/>
                <use id="zoomplus" xlink:href="#zoomPlus" x="17" y="9" onmousedown="handleZoom(evt,'in')"/>
                <use id="zoomminus" xlink:href="#zoomMin" x="42" y="9" onmousedown="handleZoom(evt,'out')"/>
                <use id="reset" xlink:href="#resetDef" x="30" y="36" onmousedown="handleReset()"/>
                <g id="arrowUp" xlink:href="#dirArrow" transform="translate(30 24)" onmousedown="handlePan(0,-1)">
                  <use xlink:href="#rim" fill="#404040">
                        <set attributeName="fill" to="#808080" begin="arrowUp.mouseover" end="arrowUp.mouseout"/>
                  </use>
                  <path fill="none" stroke="white" stroke-width="1.5" d="M0,-3.0v7 M-2.5,-0.5L0,-3.0L2.5,-0.5"/>
                </g>
                <g id="arrowRight" xlink:href="#dirArrow" transform="rotate(90) translate(36 -43)" onmousedown="handlePan(1,0)">
                  <use xlink:href="#rim" fill="#404040">
                        <set attributeName="fill" to="#808080" begin="arrowRight.mouseover" end="arrowRight.mouseout"/>
                  </use>
                  <path fill="none" stroke="white" stroke-width="1.5" d="M0,-3.0v7 M-2.5,-0.5L0,-3.0L2.5,-0.5"/>
                </g>
                <g id="arrowDown" xlink:href="#dirArrow" transform="rotate(180) translate(-30 -48)" onmousedown="handlePan(0,1)">
                  <use xlink:href="#rim" fill="#404040">
                        <set attributeName="fill" to="#808080" begin="arrowDown.mouseover" end="arrowDown.mouseout"/>
                  </use>
                  <path fill="none" stroke="white" stroke-width="1.5" d="M0,-3.0v7 M-2.5,-0.5L0,-3.0L2.5,-0.5"/>
                </g>
                <g id="arrowLeft" xlink:href="#dirArrow" transform="rotate(270) translate(-36 17)" onmousedown="handlePan(-1,0)">
                  <use xlink:href="#rim" fill="#404040">
                        <set attributeName="fill" to="#808080" begin="arrowLeft.mouseover" end="arrowLeft.mouseout"/>
                  </use>
                  <path fill="none" stroke="white" stroke-width="1.5" d="M0,-3.0v7 M-2.5,-0.5L0,-3.0L2.5,-0.5"/>
                </g>
        </g>
        <svg viewBox="0 0 15 15" width="100%" height="30px" preserveAspectRatio="xMaxYMin meet">
         <g id="arrow_out" transform="scale(0.3 0.3)">
          <a xlink:href="Station345Geometry_8cxx__incl_org.svg" target="_base">
           <rect id="button" ry="5" rx="5" y="6" x="6" height="38" width="38"
                fill="#f2f5e9" fill-opacity="0.5" stroke="#606060" stroke-width="1.0"/>
           <path id="arrow"
             d="M 11.500037,31.436501 C 11.940474,20.09759 22.043105,11.32322 32.158766,21.979434 L 37.068811,17.246167 C 37.068811,17.246167 37.088388,32 37.088388,32 L 22.160133,31.978069 C 22.160133,31.978069 26.997745,27.140456 26.997745,27.140456 C 18.528582,18.264221 13.291696,25.230495 11.500037,31.436501 z"
             style="fill:#404040;"/>
          </a>
         </g>
        </svg>
</svg>
