<?xml version="1.0" encoding="UTF-8" standalone="no"?>
<!DOCTYPE svg PUBLIC "-//W3C//DTD SVG 1.1//EN"
 "http://www.w3.org/Graphics/SVG/1.1/DTD/svg11.dtd">
<!-- Generated by graphviz version 2.40.1 (20161225.0304)
 -->
<!-- Title: o2::tpc::EncodedClusters::Metadata Pages: 1 -->
<svg width="161pt" height="204pt"
 viewBox="0.00 0.00 161.00 204.00" xmlns="http://www.w3.org/2000/svg" xmlns:xlink="http://www.w3.org/1999/xlink">
<g id="graph0" class="graph" transform="scale(1 1) rotate(0) translate(4 200)">
<title>o2::tpc::EncodedClusters::Metadata</title>
<!-- Node1 -->
<g id="node1" class="node">
<title>Node1</title>
<polygon fill="#bfbfbf" stroke="#000000" points="7.5,-.5 7.5,-68.5 144.5,-68.5 144.5,-.5 7.5,-.5"/>
<text text-anchor="start" x="15.5" y="-56.5" font-family="Helvetica,sans-Serif" font-size="10.00" fill="#000000">o2::tpc::EncodedClusters</text>
<text text-anchor="middle" x="76" y="-45.5" font-family="Helvetica,sans-Serif" font-size="10.00" fill="#000000">::Metadata</text>
<polyline fill="none" stroke="#000000" points="7.5,-38.5 144.5,-38.5 "/>
<text text-anchor="middle" x="76" y="-26.5" font-family="Helvetica,sans-Serif" font-size="10.00" fill="#000000"> </text>
<polyline fill="none" stroke="#000000" points="7.5,-19.5 144.5,-19.5 "/>
<text text-anchor="start" x="15.5" y="-7.5" font-family="Helvetica,sans-Serif" font-size="10.00" fill="#000000">+ ClassDefNV()</text>
</g>
<!-- Node2 -->
<g id="node2" class="node">
<title>Node2</title>
<polygon fill="none" stroke="#bfbfbf" points="0,-138.5 0,-195.5 50,-195.5 50,-138.5 0,-138.5"/>
<text text-anchor="middle" x="25" y="-183.5" font-family="Helvetica,sans-Serif" font-size="10.00" fill="#000000">uint8_t</text>
<polyline fill="none" stroke="#bfbfbf" points="0,-176.5 50,-176.5 "/>
<text text-anchor="middle" x="25" y="-164.5" font-family="Helvetica,sans-Serif" font-size="10.00" fill="#000000"> </text>
<polyline fill="none" stroke="#bfbfbf" points="0,-157.5 50,-157.5 "/>
<text text-anchor="middle" x="25" y="-145.5" font-family="Helvetica,sans-Serif" font-size="10.00" fill="#000000"> </text>
</g>
<!-- Node2&#45;&gt;Node1 -->
<g id="edge1" class="edge">
<title>Node2&#45;&gt;Node1</title>
<path fill="none" stroke="#404040" d="M20.373,-138.226C19.0592,-122.5304 19.4511,-103.08 26,-87 27.1632,-84.144 28.5616,-81.3538 30.1397,-78.643"/>
<polygon fill="none" stroke="#404040" points="30.2267,-78.5157 30.3108,-71.3051 36.9991,-68.6094 36.915,-75.82 30.2267,-78.5157"/>
<text text-anchor="middle" x="66" y="-112" font-family="Helvetica,sans-Serif" font-size="10.00" fill="#000000"> +coderType</text>
<text text-anchor="middle" x="66" y="-101" font-family="Helvetica,sans-Serif" font-size="10.00" fill="#000000">+streamSize</text>
<text text-anchor="middle" x="66" y="-90" font-family="Helvetica,sans-Serif" font-size="10.00" fill="#000000">+probabilityBits</text>
</g>
<!-- Node3 -->
<g id="node3" class="node">
<title>Node3</title>
<polygon fill="none" stroke="#bfbfbf" points="103,-138.5 103,-195.5 153,-195.5 153,-138.5 103,-138.5"/>
<text text-anchor="middle" x="128" y="-183.5" font-family="Helvetica,sans-Serif" font-size="10.00" fill="#000000">int32_t</text>
<polyline fill="none" stroke="#bfbfbf" points="103,-176.5 153,-176.5 "/>
<text text-anchor="middle" x="128" y="-164.5" font-family="Helvetica,sans-Serif" font-size="10.00" fill="#000000"> </text>
<polyline fill="none" stroke="#bfbfbf" points="103,-157.5 153,-157.5 "/>
<text text-anchor="middle" x="128" y="-145.5" font-family="Helvetica,sans-Serif" font-size="10.00" fill="#000000"> </text>
</g>
<!-- Node3&#45;&gt;Node1 -->
<g id="edge2" class="edge">
<title>Node3&#45;&gt;Node1</title>
<path fill="none" stroke="#404040" d="M121.9504,-138.2819C118.2285,-122.7797 112.8528,-103.4947 106,-87 104.9692,-84.5188 103.8447,-82.0091 102.6554,-79.5012"/>
<polygon fill="none" stroke="#404040" points="102.5574,-79.3084 96.2719,-75.7738 97.1171,-68.6124 103.4026,-72.147 102.5574,-79.3084"/>
<text text-anchor="middle" x="131.5" y="-106.5" font-family="Helvetica,sans-Serif" font-size="10.00" fill="#000000"> +min</text>
<text text-anchor="middle" x="131.5" y="-95.5" font-family="Helvetica,sans-Serif" font-size="10.00" fill="#000000">+max</text>
</g>
</g>
</svg>
