<?xml version="1.0" encoding="UTF-8" standalone="no"?>
<!DOCTYPE svg PUBLIC "-//W3C//DTD SVG 1.1//EN"
 "http://www.w3.org/Graphics/SVG/1.1/DTD/svg11.dtd">
<!-- Generated by graphviz version 2.40.1 (20161225.0304)
 -->
<!-- Title: /home/travis/build/AliceO2Group/AliceO2/Detectors/TRD/base/include/TRDBase/ChamberStatus.h Pages: 1 -->
<svg width="977pt" height="517pt"
 viewBox="0.00 0.00 976.50 517.00" xmlns="http://www.w3.org/2000/svg" xmlns:xlink="http://www.w3.org/1999/xlink">
<g id="graph0" class="graph" transform="scale(1 1) rotate(0) translate(4 513)">
<title>/home/travis/build/AliceO2Group/AliceO2/Detectors/TRD/base/include/TRDBase/ChamberStatus.h</title>
<!-- Node40 -->
<g id="node1" class="node">
<title>Node40</title>
<polygon fill="#bfbfbf" stroke="#000000" points="701,-456.5 701,-508.5 856,-508.5 856,-456.5 701,-456.5"/>
<text text-anchor="start" x="709" y="-496.5" font-family="Helvetica,sans-Serif" font-size="10.00" fill="#000000">/home/travis/build</text>
<text text-anchor="start" x="709" y="-485.5" font-family="Helvetica,sans-Serif" font-size="10.00" fill="#000000">/AliceO2Group/AliceO2</text>
<text text-anchor="start" x="709" y="-474.5" font-family="Helvetica,sans-Serif" font-size="10.00" fill="#000000">/Detectors/TRD/base/include</text>
<text text-anchor="middle" x="778.5" y="-463.5" font-family="Helvetica,sans-Serif" font-size="10.00" fill="#000000">/TRDBase/ChamberStatus.h</text>
</g>
<!-- Node41 -->
<g id="node2" class="node">
<title>Node41</title>
<g id="a_node2"><a xlink:href="../../d4/d17/Calibrations_8h.html" target="_top" xlink:title="/home/travis/build\l/AliceO2Group/AliceO2\l/Detectors/TRD/base/include\l/TRDBase/Calibrations.h">
<polygon fill="none" stroke="#000000" points="620,-367.5 620,-419.5 775,-419.5 775,-367.5 620,-367.5"/>
<text text-anchor="start" x="628" y="-407.5" font-family="Helvetica,sans-Serif" font-size="10.00" fill="#000000">/home/travis/build</text>
<text text-anchor="start" x="628" y="-396.5" font-family="Helvetica,sans-Serif" font-size="10.00" fill="#000000">/AliceO2Group/AliceO2</text>
<text text-anchor="start" x="628" y="-385.5" font-family="Helvetica,sans-Serif" font-size="10.00" fill="#000000">/Detectors/TRD/base/include</text>
<text text-anchor="middle" x="697.5" y="-374.5" font-family="Helvetica,sans-Serif" font-size="10.00" fill="#000000">/TRDBase/Calibrations.h</text>
</a>
</g>
</g>
<!-- Node40&#45;&gt;Node41 -->
<g id="edge1" class="edge">
<title>Node40&#45;&gt;Node41</title>
<path fill="none" stroke="#191970" d="M747.7527,-448.7159C738.953,-439.0472 729.5003,-428.6608 721.194,-419.5341"/>
<polygon fill="#191970" stroke="#191970" points="745.3161,-451.2386 754.6354,-456.2784 750.493,-446.527 745.3161,-451.2386"/>
</g>
<!-- Node54 -->
<g id="node15" class="node">
<title>Node54</title>
<g id="a_node15"><a xlink:href="../../d6/ddd/ChamberStatus_8cxx.html" target="_top" xlink:title="/home/travis/build\l/AliceO2Group/AliceO2\l/Detectors/TRD/base/src\l/ChamberStatus.cxx">
<polygon fill="none" stroke="#000000" points="793.5,-367.5 793.5,-419.5 927.5,-419.5 927.5,-367.5 793.5,-367.5"/>
<text text-anchor="start" x="801.5" y="-407.5" font-family="Helvetica,sans-Serif" font-size="10.00" fill="#000000">/home/travis/build</text>
<text text-anchor="start" x="801.5" y="-396.5" font-family="Helvetica,sans-Serif" font-size="10.00" fill="#000000">/AliceO2Group/AliceO2</text>
<text text-anchor="start" x="801.5" y="-385.5" font-family="Helvetica,sans-Serif" font-size="10.00" fill="#000000">/Detectors/TRD/base/src</text>
<text text-anchor="middle" x="860.5" y="-374.5" font-family="Helvetica,sans-Serif" font-size="10.00" fill="#000000">/ChamberStatus.cxx</text>
</a>
</g>
</g>
<!-- Node40&#45;&gt;Node54 -->
<g id="edge19" class="edge">
<title>Node40&#45;&gt;Node54</title>
<path fill="none" stroke="#191970" d="M809.6269,-448.7159C818.5352,-439.0472 828.1047,-428.6608 836.5135,-419.5341"/>
<polygon fill="#191970" stroke="#191970" points="806.8611,-446.5525 802.6592,-456.2784 812.0092,-451.2956 806.8611,-446.5525"/>
</g>
<!-- Node42 -->
<g id="node3" class="node">
<title>Node42</title>
<g id="a_node3"><a xlink:href="../../dc/db4/Calibrations_8cxx.html" target="_top" xlink:title="/home/travis/build\l/AliceO2Group/AliceO2\l/Detectors/TRD/base/src\l/Calibrations.cxx">
<polygon fill="none" stroke="#000000" points="453.5,-278.5 453.5,-330.5 587.5,-330.5 587.5,-278.5 453.5,-278.5"/>
<text text-anchor="start" x="461.5" y="-318.5" font-family="Helvetica,sans-Serif" font-size="10.00" fill="#000000">/home/travis/build</text>
<text text-anchor="start" x="461.5" y="-307.5" font-family="Helvetica,sans-Serif" font-size="10.00" fill="#000000">/AliceO2Group/AliceO2</text>
<text text-anchor="start" x="461.5" y="-296.5" font-family="Helvetica,sans-Serif" font-size="10.00" fill="#000000">/Detectors/TRD/base/src</text>
<text text-anchor="middle" x="520.5" y="-285.5" font-family="Helvetica,sans-Serif" font-size="10.00" fill="#000000">/Calibrations.cxx</text>
</a>
</g>
</g>
<!-- Node41&#45;&gt;Node42 -->
<g id="edge2" class="edge">
<title>Node41&#45;&gt;Node42</title>
<path fill="none" stroke="#191970" d="M636.2578,-362.7059C615.4044,-352.2203 592.3135,-340.6096 572.2758,-330.5341"/>
<polygon fill="#191970" stroke="#191970" points="634.845,-365.913 645.3515,-367.2784 637.9897,-359.6591 634.845,-365.913"/>
</g>
<!-- Node43 -->
<g id="node4" class="node">
<title>Node43</title>
<g id="a_node4"><a xlink:href="../../d4/dae/TRD_2simulation_2include_2TRDSimulation_2Digitizer_8h.html" target="_top" xlink:title="/home/travis/build\l/AliceO2Group/AliceO2\l/Detectors/TRD/simulation\l/include/TRDSimulation/Digitizer.h">
<polygon fill="none" stroke="#000000" points="606,-278.5 606,-330.5 789,-330.5 789,-278.5 606,-278.5"/>
<text text-anchor="start" x="614" y="-318.5" font-family="Helvetica,sans-Serif" font-size="10.00" fill="#000000">/home/travis/build</text>
<text text-anchor="start" x="614" y="-307.5" font-family="Helvetica,sans-Serif" font-size="10.00" fill="#000000">/AliceO2Group/AliceO2</text>
<text text-anchor="start" x="614" y="-296.5" font-family="Helvetica,sans-Serif" font-size="10.00" fill="#000000">/Detectors/TRD/simulation</text>
<text text-anchor="middle" x="697.5" y="-285.5" font-family="Helvetica,sans-Serif" font-size="10.00" fill="#000000">/include/TRDSimulation/Digitizer.h</text>
</a>
</g>
</g>
<!-- Node41&#45;&gt;Node43 -->
<g id="edge3" class="edge">
<title>Node41&#45;&gt;Node43</title>
<path fill="none" stroke="#191970" d="M697.5,-357.1155C697.5,-348.2061 697.5,-338.8475 697.5,-330.5341"/>
<polygon fill="#191970" stroke="#191970" points="694.0001,-357.2784 697.5,-367.2784 701.0001,-357.2785 694.0001,-357.2784"/>
</g>
<!-- Node53 -->
<g id="node14" class="node">
<title>Node53</title>
<g id="a_node14"><a xlink:href="../../d6/df2/TRDDigitizerSpec_8cxx.html" target="_top" xlink:title="/home/travis/build\l/AliceO2Group/AliceO2\l/Detectors/TRD/workflow\l/src/TRDDigitizerSpec.cxx">
<polygon fill="none" stroke="#000000" points="826.5,-189.5 826.5,-241.5 968.5,-241.5 968.5,-189.5 826.5,-189.5"/>
<text text-anchor="start" x="834.5" y="-229.5" font-family="Helvetica,sans-Serif" font-size="10.00" fill="#000000">/home/travis/build</text>
<text text-anchor="start" x="834.5" y="-218.5" font-family="Helvetica,sans-Serif" font-size="10.00" fill="#000000">/AliceO2Group/AliceO2</text>
<text text-anchor="start" x="834.5" y="-207.5" font-family="Helvetica,sans-Serif" font-size="10.00" fill="#000000">/Detectors/TRD/workflow</text>
<text text-anchor="middle" x="897.5" y="-196.5" font-family="Helvetica,sans-Serif" font-size="10.00" fill="#000000">/src/TRDDigitizerSpec.cxx</text>
</a>
</g>
</g>
<!-- Node41&#45;&gt;Node53 -->
<g id="edge18" class="edge">
<title>Node41&#45;&gt;Node53</title>
<path fill="none" stroke="#191970" d="M754.9699,-362.1692C769.789,-352.9766 785.2761,-342.3239 798.5,-331 829.9945,-304.0305 860.0943,-266.6996 878.6646,-241.8599"/>
<polygon fill="#191970" stroke="#191970" points="753.075,-359.225 746.3439,-367.4069 756.7082,-365.2084 753.075,-359.225"/>
</g>
<!-- Node44 -->
<g id="node5" class="node">
<title>Node44</title>
<g id="a_node5"><a xlink:href="../../d7/d42/TrapSimulator_8h.html" target="_top" xlink:title="/home/travis/build\l/AliceO2Group/AliceO2\l/Detectors/TRD/simulation\l/include/TRDSimulation/TrapSimulator.h">
<polygon fill="none" stroke="#000000" points="429,-189.5 429,-241.5 638,-241.5 638,-189.5 429,-189.5"/>
<text text-anchor="start" x="437" y="-229.5" font-family="Helvetica,sans-Serif" font-size="10.00" fill="#000000">/home/travis/build</text>
<text text-anchor="start" x="437" y="-218.5" font-family="Helvetica,sans-Serif" font-size="10.00" fill="#000000">/AliceO2Group/AliceO2</text>
<text text-anchor="start" x="437" y="-207.5" font-family="Helvetica,sans-Serif" font-size="10.00" fill="#000000">/Detectors/TRD/simulation</text>
<text text-anchor="middle" x="533.5" y="-196.5" font-family="Helvetica,sans-Serif" font-size="10.00" fill="#000000">/include/TRDSimulation/TrapSimulator.h</text>
</a>
</g>
</g>
<!-- Node43&#45;&gt;Node44 -->
<g id="edge4" class="edge">
<title>Node43&#45;&gt;Node44</title>
<path fill="none" stroke="#191970" d="M640.2355,-273.4235C621.0505,-263.0122 599.8725,-251.5192 581.473,-241.5341"/>
<polygon fill="#191970" stroke="#191970" points="638.723,-276.5849 649.1816,-278.2784 642.0618,-270.4324 638.723,-276.5849"/>
</g>
<!-- Node46 -->
<g id="node7" class="node">
<title>Node46</title>
<g id="a_node7"><a xlink:href="../../da/deb/TrapSimulator_8cxx.html" target="_top" xlink:title="/home/travis/build\l/AliceO2Group/AliceO2\l/Detectors/TRD/simulation\l/src/TrapSimulator.cxx">
<polygon fill="none" stroke="#000000" points="625,-95 625,-147 770,-147 770,-95 625,-95"/>
<text text-anchor="start" x="633" y="-135" font-family="Helvetica,sans-Serif" font-size="10.00" fill="#000000">/home/travis/build</text>
<text text-anchor="start" x="633" y="-124" font-family="Helvetica,sans-Serif" font-size="10.00" fill="#000000">/AliceO2Group/AliceO2</text>
<text text-anchor="start" x="633" y="-113" font-family="Helvetica,sans-Serif" font-size="10.00" fill="#000000">/Detectors/TRD/simulation</text>
<text text-anchor="middle" x="697.5" y="-102" font-family="Helvetica,sans-Serif" font-size="10.00" fill="#000000">/src/TrapSimulator.cxx</text>
</a>
</g>
</g>
<!-- Node43&#45;&gt;Node46 -->
<g id="edge14" class="edge">
<title>Node43&#45;&gt;Node46</title>
<path fill="none" stroke="#191970" d="M697.5,-268.2071C697.5,-232.5371 697.5,-178.9692 697.5,-147.2423"/>
<polygon fill="#191970" stroke="#191970" points="694.0001,-268.2089 697.5,-278.2089 701.0001,-268.209 694.0001,-268.2089"/>
</g>
<!-- Node48 -->
<g id="node9" class="node">
<title>Node48</title>
<g id="a_node9"><a xlink:href="../../dd/de7/TRDTrapSimulatorSpec_8cxx.html" target="_top" xlink:title="/home/travis/build\l/AliceO2Group/AliceO2\l/Detectors/TRD/workflow\l/src/TRDTrapSimulatorSpec.cxx">
<polygon fill="none" stroke="#000000" points="403.5,-.5 403.5,-52.5 571.5,-52.5 571.5,-.5 403.5,-.5"/>
<text text-anchor="start" x="411.5" y="-40.5" font-family="Helvetica,sans-Serif" font-size="10.00" fill="#000000">/home/travis/build</text>
<text text-anchor="start" x="411.5" y="-29.5" font-family="Helvetica,sans-Serif" font-size="10.00" fill="#000000">/AliceO2Group/AliceO2</text>
<text text-anchor="start" x="411.5" y="-18.5" font-family="Helvetica,sans-Serif" font-size="10.00" fill="#000000">/Detectors/TRD/workflow</text>
<text text-anchor="middle" x="487.5" y="-7.5" font-family="Helvetica,sans-Serif" font-size="10.00" fill="#000000">/src/TRDTrapSimulatorSpec.cxx</text>
</a>
</g>
</g>
<!-- Node43&#45;&gt;Node48 -->
<g id="edge17" class="edge">
<title>Node43&#45;&gt;Node48</title>
<path fill="none" stroke="#191970" d="M729.5388,-270.519C768.4688,-225.0386 823.7827,-143.764 779.5,-89 753.7483,-57.1531 648.5551,-40.8097 571.7904,-32.9638"/>
<polygon fill="#191970" stroke="#191970" points="726.6745,-268.4778 722.7289,-278.3106 731.9451,-273.0844 726.6745,-268.4778"/>
</g>
<!-- Node51 -->
<g id="node12" class="node">
<title>Node51</title>
<g id="a_node12"><a xlink:href="../../d7/da6/TRDDigitReaderSpec_8cxx.html" target="_top" xlink:title="/home/travis/build\l/AliceO2Group/AliceO2\l/Detectors/TRD/workflow\l/src/TRDDigitReaderSpec.cxx">
<polygon fill="none" stroke="#000000" points="14.5,-95 14.5,-147 172.5,-147 172.5,-95 14.5,-95"/>
<text text-anchor="start" x="22.5" y="-135" font-family="Helvetica,sans-Serif" font-size="10.00" fill="#000000">/home/travis/build</text>
<text text-anchor="start" x="22.5" y="-124" font-family="Helvetica,sans-Serif" font-size="10.00" fill="#000000">/AliceO2Group/AliceO2</text>
<text text-anchor="start" x="22.5" y="-113" font-family="Helvetica,sans-Serif" font-size="10.00" fill="#000000">/Detectors/TRD/workflow</text>
<text text-anchor="middle" x="93.5" y="-102" font-family="Helvetica,sans-Serif" font-size="10.00" fill="#000000">/src/TRDDigitReaderSpec.cxx</text>
</a>
</g>
</g>
<!-- Node43&#45;&gt;Node51 -->
<g id="edge16" class="edge">
<title>Node43&#45;&gt;Node51</title>
<path fill="none" stroke="#191970" d="M595.8825,-278.063C444.8808,-252.595 395.0193,-296.0506 256.5,-242 201.8339,-220.6691 149.3261,-175.9011 119.2934,-147.2056"/>
<polygon fill="#191970" stroke="#191970" points="595.5213,-281.5532 605.977,-279.8419 596.7362,-274.6594 595.5213,-281.5532"/>
</g>
<!-- Node52 -->
<g id="node13" class="node">
<title>Node52</title>
<g id="a_node13"><a xlink:href="../../d7/d40/TRD_2simulation_2src_2Digitizer_8cxx.html" target="_top" xlink:title="/home/travis/build\l/AliceO2Group/AliceO2\l/Detectors/TRD/simulation\l/src/Digitizer.cxx">
<polygon fill="none" stroke="#000000" points="266,-189.5 266,-241.5 411,-241.5 411,-189.5 266,-189.5"/>
<text text-anchor="start" x="274" y="-229.5" font-family="Helvetica,sans-Serif" font-size="10.00" fill="#000000">/home/travis/build</text>
<text text-anchor="start" x="274" y="-218.5" font-family="Helvetica,sans-Serif" font-size="10.00" fill="#000000">/AliceO2Group/AliceO2</text>
<text text-anchor="start" x="274" y="-207.5" font-family="Helvetica,sans-Serif" font-size="10.00" fill="#000000">/Detectors/TRD/simulation</text>
<text text-anchor="middle" x="338.5" y="-196.5" font-family="Helvetica,sans-Serif" font-size="10.00" fill="#000000">/src/Digitizer.cxx</text>
</a>
</g>
</g>
<!-- Node43&#45;&gt;Node52 -->
<g id="edge13" class="edge">
<title>Node43&#45;&gt;Node52</title>
<path fill="none" stroke="#191970" d="M595.9297,-277.9368C516.5692,-259.9824 494.08,-261.7137 419.5,-242 416.7821,-241.2816 414.0215,-240.5238 411.2394,-239.7365"/>
<polygon fill="#191970" stroke="#191970" points="595.3672,-281.3987 605.897,-280.2267 596.9346,-274.5764 595.3672,-281.3987"/>
</g>
<!-- Node43&#45;&gt;Node53 -->
<g id="edge15" class="edge">
<title>Node43&#45;&gt;Node53</title>
<path fill="none" stroke="#191970" d="M765.4857,-274.2464C789.3121,-263.6436 815.8493,-251.8346 838.8458,-241.6011"/>
<polygon fill="#191970" stroke="#191970" points="763.8685,-271.1351 756.1552,-278.3984 766.7145,-277.5304 763.8685,-271.1351"/>
</g>
<!-- Node45 -->
<g id="node6" class="node">
<title>Node45</title>
<g id="a_node6"><a xlink:href="../../db/dc3/TrapConfigHandler_8cxx.html" target="_top" xlink:title="/home/travis/build\l/AliceO2Group/AliceO2\l/Detectors/TRD/simulation\l/src/TrapConfigHandler.cxx">
<polygon fill="none" stroke="#000000" points="460.5,-95 460.5,-147 606.5,-147 606.5,-95 460.5,-95"/>
<text text-anchor="start" x="468.5" y="-135" font-family="Helvetica,sans-Serif" font-size="10.00" fill="#000000">/home/travis/build</text>
<text text-anchor="start" x="468.5" y="-124" font-family="Helvetica,sans-Serif" font-size="10.00" fill="#000000">/AliceO2Group/AliceO2</text>
<text text-anchor="start" x="468.5" y="-113" font-family="Helvetica,sans-Serif" font-size="10.00" fill="#000000">/Detectors/TRD/simulation</text>
<text text-anchor="middle" x="533.5" y="-102" font-family="Helvetica,sans-Serif" font-size="10.00" fill="#000000">/src/TrapConfigHandler.cxx</text>
</a>
</g>
</g>
<!-- Node44&#45;&gt;Node45 -->
<g id="edge5" class="edge">
<title>Node44&#45;&gt;Node45</title>
<path fill="none" stroke="#191970" d="M533.5,-179.1645C533.5,-168.5577 533.5,-157.1746 533.5,-147.3157"/>
<polygon fill="#191970" stroke="#191970" points="530.0001,-179.4273 533.5,-189.4273 537.0001,-179.4273 530.0001,-179.4273"/>
</g>
<!-- Node44&#45;&gt;Node46 -->
<g id="edge6" class="edge">
<title>Node44&#45;&gt;Node46</title>
<path fill="none" stroke="#191970" d="M587.5227,-184.3711C608.4349,-172.321 632.1055,-158.6816 652.1154,-147.1515"/>
<polygon fill="#191970" stroke="#191970" points="585.6649,-181.402 578.7479,-189.4273 589.1598,-187.4672 585.6649,-181.402"/>
</g>
<!-- Node47 -->
<g id="node8" class="node">
<title>Node47</title>
<g id="a_node8"><a xlink:href="../../dc/d96/TRDTrapSimulatorSpec_8h.html" target="_top" xlink:title="/home/travis/build\l/AliceO2Group/AliceO2\l/Detectors/TRD/workflow\l/include/TRDWorkflow/TRDTrapSimulator\lSpec.h">
<polygon fill="none" stroke="#000000" points="190.5,-89.5 190.5,-152.5 404.5,-152.5 404.5,-89.5 190.5,-89.5"/>
<text text-anchor="start" x="198.5" y="-140.5" font-family="Helvetica,sans-Serif" font-size="10.00" fill="#000000">/home/travis/build</text>
<text text-anchor="start" x="198.5" y="-129.5" font-family="Helvetica,sans-Serif" font-size="10.00" fill="#000000">/AliceO2Group/AliceO2</text>
<text text-anchor="start" x="198.5" y="-118.5" font-family="Helvetica,sans-Serif" font-size="10.00" fill="#000000">/Detectors/TRD/workflow</text>
<text text-anchor="start" x="198.5" y="-107.5" font-family="Helvetica,sans-Serif" font-size="10.00" fill="#000000">/include/TRDWorkflow/TRDTrapSimulator</text>
<text text-anchor="middle" x="297.5" y="-96.5" font-family="Helvetica,sans-Serif" font-size="10.00" fill="#000000">Spec.h</text>
</a>
</g>
</g>
<!-- Node44&#45;&gt;Node47 -->
<g id="edge7" class="edge">
<title>Node44&#45;&gt;Node47</title>
<path fill="none" stroke="#191970" d="M458.8561,-185.6108C432.5437,-175.0747 402.8906,-163.2009 376.2499,-152.5333"/>
<polygon fill="#191970" stroke="#191970" points="457.8027,-188.9591 468.3872,-189.4273 460.4049,-182.4607 457.8027,-188.9591"/>
</g>
<!-- Node44&#45;&gt;Node48 -->
<g id="edge12" class="edge">
<title>Node44&#45;&gt;Node48</title>
<path fill="none" stroke="#191970" d="M476.0925,-182.8818C466.1585,-174.4921 457.2034,-164.5182 451.5,-153 438.8781,-127.5094 444.152,-116.4789 451.5,-89 454.9289,-76.1772 461.6903,-63.2578 468.4367,-52.5203"/>
<polygon fill="#191970" stroke="#191970" points="474.1996,-185.8455 484.2258,-189.2697 478.5233,-180.3404 474.1996,-185.8455"/>
</g>
<!-- Node44&#45;&gt;Node51 -->
<g id="edge11" class="edge">
<title>Node44&#45;&gt;Node51</title>
<path fill="none" stroke="#191970" d="M419.0483,-188.9991C312.651,-169.459 282.1327,-178.6364 181.5,-153 174.726,-151.2743 167.7449,-149.2255 160.8174,-147.0109"/>
<polygon fill="#191970" stroke="#191970" points="418.4189,-192.442 428.8932,-190.8485 419.7114,-185.5623 418.4189,-192.442"/>
</g>
<!-- Node47&#45;&gt;Node48 -->
<g id="edge8" class="edge">
<title>Node47&#45;&gt;Node48</title>
<path fill="none" stroke="#191970" d="M370.181,-84.8507C391.7965,-74.0999 415.0459,-62.5364 435.1008,-52.5617"/>
<polygon fill="#191970" stroke="#191970" points="368.4264,-81.8144 361.0314,-89.4015 371.5438,-88.0819 368.4264,-81.8144"/>
</g>
<!-- Node49 -->
<g id="node10" class="node">
<title>Node49</title>
<g id="a_node10"><a xlink:href="../../d2/dc0/TRDTrapSimulatorWorkFlow_8cxx.html" target="_top" xlink:title="/home/travis/build\l/AliceO2Group/AliceO2\l/Detectors/TRD/workflow\l/src/TRDTrapSimulatorWorkFlow.cxx">
<polygon fill="none" stroke="#000000" points="0,-.5 0,-52.5 191,-52.5 191,-.5 0,-.5"/>
<text text-anchor="start" x="8" y="-40.5" font-family="Helvetica,sans-Serif" font-size="10.00" fill="#000000">/home/travis/build</text>
<text text-anchor="start" x="8" y="-29.5" font-family="Helvetica,sans-Serif" font-size="10.00" fill="#000000">/AliceO2Group/AliceO2</text>
<text text-anchor="start" x="8" y="-18.5" font-family="Helvetica,sans-Serif" font-size="10.00" fill="#000000">/Detectors/TRD/workflow</text>
<text text-anchor="middle" x="95.5" y="-7.5" font-family="Helvetica,sans-Serif" font-size="10.00" fill="#000000">/src/TRDTrapSimulatorWorkFlow.cxx</text>
</a>
</g>
</g>
<!-- Node47&#45;&gt;Node49 -->
<g id="edge9" class="edge">
<title>Node47&#45;&gt;Node49</title>
<path fill="none" stroke="#191970" d="M220.8437,-85.1385C197.6896,-74.3065 172.7205,-62.6254 151.2086,-52.5617"/>
<polygon fill="#191970" stroke="#191970" points="219.4151,-88.3342 229.9561,-89.4015 222.3814,-81.9937 219.4151,-88.3342"/>
</g>
<!-- Node50 -->
<g id="node11" class="node">
<title>Node50</title>
<g id="a_node11"><a xlink:href="../../d2/dd7/SimpleDigitizerWorkflow_8cxx.html" target="_top" xlink:title="/home/travis/build\l/AliceO2Group/AliceO2\l/Steer/DigitizerWorkflow\l/src/SimpleDigitizerWorkflow.cxx">
<polygon fill="none" stroke="#000000" points="209.5,-.5 209.5,-52.5 385.5,-52.5 385.5,-.5 209.5,-.5"/>
<text text-anchor="start" x="217.5" y="-40.5" font-family="Helvetica,sans-Serif" font-size="10.00" fill="#000000">/home/travis/build</text>
<text text-anchor="start" x="217.5" y="-29.5" font-family="Helvetica,sans-Serif" font-size="10.00" fill="#000000">/AliceO2Group/AliceO2</text>
<text text-anchor="start" x="217.5" y="-18.5" font-family="Helvetica,sans-Serif" font-size="10.00" fill="#000000">/Steer/DigitizerWorkflow</text>
<text text-anchor="middle" x="297.5" y="-7.5" font-family="Helvetica,sans-Serif" font-size="10.00" fill="#000000">/src/SimpleDigitizerWorkflow.cxx</text>
</a>
</g>
</g>
<!-- Node47&#45;&gt;Node50 -->
<g id="edge10" class="edge">
<title>Node47&#45;&gt;Node50</title>
<path fill="none" stroke="#191970" d="M297.5,-79.2457C297.5,-70.2008 297.5,-60.8836 297.5,-52.6442"/>
<polygon fill="#191970" stroke="#191970" points="294.0001,-79.2699 297.5,-89.27 301.0001,-79.27 294.0001,-79.2699"/>
</g>
</g>
</svg>
