<?xml version="1.0" encoding="UTF-8" standalone="no"?>
<!DOCTYPE svg PUBLIC "-//W3C//DTD SVG 1.1//EN"
 "http://www.w3.org/Graphics/SVG/1.1/DTD/svg11.dtd">
<!-- Generated by graphviz version 2.40.1 (20161225.0304)
 -->
<!-- Title: GPUCA_NAMESPACE::gpu::GPUCommonMath Pages: 1 -->
<svg width="388pt" height="688pt"
 viewBox="0.00 0.00 388.00 688.00" xmlns="http://www.w3.org/2000/svg" xmlns:xlink="http://www.w3.org/1999/xlink">
<g id="graph0" class="graph" transform="scale(1 1) rotate(0) translate(4 684)">
<title>GPUCA_NAMESPACE::gpu::GPUCommonMath</title>
<!-- Node1 -->
<g id="node1" class="node">
<title>Node1</title>
<polygon fill="#bfbfbf" stroke="#000000" points="123,-.5 123,-464.5 263,-464.5 263,-.5 123,-.5"/>
<text text-anchor="start" x="131" y="-452.5" font-family="Helvetica,sans-Serif" font-size="10.00" fill="#000000">GPUCA_NAMESPACE::gpu</text>
<text text-anchor="middle" x="193" y="-441.5" font-family="Helvetica,sans-Serif" font-size="10.00" fill="#000000">::GPUCommonMath</text>
<polyline fill="none" stroke="#000000" points="123,-434.5 263,-434.5 "/>
<text text-anchor="middle" x="193" y="-422.5" font-family="Helvetica,sans-Serif" font-size="10.00" fill="#000000"> </text>
<polyline fill="none" stroke="#000000" points="123,-415.5 263,-415.5 "/>
<text text-anchor="start" x="131" y="-403.5" font-family="Helvetica,sans-Serif" font-size="10.00" fill="#000000">+ GPUhdni()</text>
<text text-anchor="start" x="131" y="-392.5" font-family="Helvetica,sans-Serif" font-size="10.00" fill="#000000">+ GPUhd()</text>
<text text-anchor="start" x="131" y="-381.5" font-family="Helvetica,sans-Serif" font-size="10.00" fill="#000000">+ GPUhd()</text>
<text text-anchor="start" x="131" y="-370.5" font-family="Helvetica,sans-Serif" font-size="10.00" fill="#000000">+ GPUhd()</text>
<text text-anchor="start" x="131" y="-359.5" font-family="Helvetica,sans-Serif" font-size="10.00" fill="#000000">+ GPUhd()</text>
<text text-anchor="start" x="131" y="-348.5" font-family="Helvetica,sans-Serif" font-size="10.00" fill="#000000">+ GPUhd()</text>
<text text-anchor="start" x="131" y="-337.5" font-family="Helvetica,sans-Serif" font-size="10.00" fill="#000000">+ GPUhdni()</text>
<text text-anchor="start" x="131" y="-326.5" font-family="Helvetica,sans-Serif" font-size="10.00" fill="#000000">+ GPUhdni()</text>
<text text-anchor="start" x="131" y="-315.5" font-family="Helvetica,sans-Serif" font-size="10.00" fill="#000000">+ GPUhd()</text>
<text text-anchor="start" x="131" y="-304.5" font-family="Helvetica,sans-Serif" font-size="10.00" fill="#000000">+ GPUhdni()</text>
<text text-anchor="start" x="131" y="-293.5" font-family="Helvetica,sans-Serif" font-size="10.00" fill="#000000">+ GPUhdni()</text>
<text text-anchor="start" x="131" y="-282.5" font-family="Helvetica,sans-Serif" font-size="10.00" fill="#000000">+ GPUhdni()</text>
<text text-anchor="start" x="131" y="-271.5" font-family="Helvetica,sans-Serif" font-size="10.00" fill="#000000">+ GPUhdni()</text>
<text text-anchor="start" x="131" y="-260.5" font-family="Helvetica,sans-Serif" font-size="10.00" fill="#000000">+ GPUhdni()</text>
<text text-anchor="start" x="131" y="-249.5" font-family="Helvetica,sans-Serif" font-size="10.00" fill="#000000">+ GPUhdni()</text>
<text text-anchor="start" x="131" y="-238.5" font-family="Helvetica,sans-Serif" font-size="10.00" fill="#000000">+ GPUhdni()</text>
<text text-anchor="start" x="131" y="-227.5" font-family="Helvetica,sans-Serif" font-size="10.00" fill="#000000">+ GPUhdni()</text>
<text text-anchor="start" x="131" y="-216.5" font-family="Helvetica,sans-Serif" font-size="10.00" fill="#000000">+ GPUhdni()</text>
<text text-anchor="start" x="131" y="-205.5" font-family="Helvetica,sans-Serif" font-size="10.00" fill="#000000">+ GPUhdni()</text>
<text text-anchor="start" x="131" y="-194.5" font-family="Helvetica,sans-Serif" font-size="10.00" fill="#000000">+ GPUhdni()</text>
<text text-anchor="start" x="131" y="-183.5" font-family="Helvetica,sans-Serif" font-size="10.00" fill="#000000">+ GPUhdni()</text>
<text text-anchor="start" x="131" y="-172.5" font-family="Helvetica,sans-Serif" font-size="10.00" fill="#000000">+ GPUhdni()</text>
<text text-anchor="start" x="131" y="-161.5" font-family="Helvetica,sans-Serif" font-size="10.00" fill="#000000">+ GPUhdni()</text>
<text text-anchor="start" x="131" y="-150.5" font-family="Helvetica,sans-Serif" font-size="10.00" fill="#000000">+ GPUhdni()</text>
<text text-anchor="start" x="131" y="-139.5" font-family="Helvetica,sans-Serif" font-size="10.00" fill="#000000">+ GPUhdni()</text>
<text text-anchor="start" x="131" y="-128.5" font-family="Helvetica,sans-Serif" font-size="10.00" fill="#000000">+ GPUdi()</text>
<text text-anchor="start" x="131" y="-117.5" font-family="Helvetica,sans-Serif" font-size="10.00" fill="#000000">+ GPUdi()</text>
<text text-anchor="start" x="131" y="-106.5" font-family="Helvetica,sans-Serif" font-size="10.00" fill="#000000">+ GPUdi()</text>
<text text-anchor="start" x="131" y="-95.5" font-family="Helvetica,sans-Serif" font-size="10.00" fill="#000000">+ GPUdi()</text>
<text text-anchor="start" x="131" y="-84.5" font-family="Helvetica,sans-Serif" font-size="10.00" fill="#000000">+ GPUdi()</text>
<text text-anchor="start" x="131" y="-73.5" font-family="Helvetica,sans-Serif" font-size="10.00" fill="#000000">+ GPUdi()</text>
<text text-anchor="start" x="131" y="-62.5" font-family="Helvetica,sans-Serif" font-size="10.00" fill="#000000">+ GPUdi()</text>
<text text-anchor="start" x="131" y="-51.5" font-family="Helvetica,sans-Serif" font-size="10.00" fill="#000000">+ GPUdi()</text>
<text text-anchor="start" x="131" y="-40.5" font-family="Helvetica,sans-Serif" font-size="10.00" fill="#000000">+ GPUdi()</text>
<text text-anchor="start" x="131" y="-29.5" font-family="Helvetica,sans-Serif" font-size="10.00" fill="#000000">+ GPUd()</text>
<text text-anchor="start" x="131" y="-18.5" font-family="Helvetica,sans-Serif" font-size="10.00" fill="#000000">+ GPUd()</text>
<text text-anchor="start" x="131" y="-7.5" font-family="Helvetica,sans-Serif" font-size="10.00" fill="#000000">+ GPUd()</text>
</g>
<!-- Node2 -->
<g id="node2" class="node">
<title>Node2</title>
<polygon fill="none" stroke="#bfbfbf" points="0,-622.5 0,-679.5 46,-679.5 46,-622.5 0,-622.5"/>
<text text-anchor="middle" x="23" y="-667.5" font-family="Helvetica,sans-Serif" font-size="10.00" fill="#000000">return</text>
<polyline fill="none" stroke="#bfbfbf" points="0,-660.5 46,-660.5 "/>
<text text-anchor="middle" x="23" y="-648.5" font-family="Helvetica,sans-Serif" font-size="10.00" fill="#000000"> </text>
<polyline fill="none" stroke="#bfbfbf" points="0,-641.5 46,-641.5 "/>
<text text-anchor="middle" x="23" y="-629.5" font-family="Helvetica,sans-Serif" font-size="10.00" fill="#000000"> </text>
</g>
<!-- Node2&#45;&gt;Node1 -->
<g id="edge1" class="edge">
<title>Node2&#45;&gt;Node1</title>
<path fill="none" stroke="#404040" d="M26.1604,-622.3563C30.5086,-588.3424 39.8245,-530.2672 57,-483 72.7468,-439.6646 95.0467,-394.6909 117.0436,-355.012"/>
<polygon fill="none" stroke="#404040" points="117.0638,-354.9758 116.5064,-347.7863 122.9285,-344.5065 123.4859,-351.696 117.0638,-354.9758"/>
<text text-anchor="middle" x="77" y="-541" font-family="Helvetica,sans-Serif" font-size="10.00" fill="#000000"> +retVal</text>
</g>
<!-- Node3 -->
<g id="node3" class="node">
<title>Node3</title>
<polygon fill="none" stroke="#bfbfbf" points="64,-622.5 64,-679.5 114,-679.5 114,-622.5 64,-622.5"/>
<text text-anchor="middle" x="89" y="-667.5" font-family="Helvetica,sans-Serif" font-size="10.00" fill="#000000">double</text>
<polyline fill="none" stroke="#bfbfbf" points="64,-660.5 114,-660.5 "/>
<text text-anchor="middle" x="89" y="-648.5" font-family="Helvetica,sans-Serif" font-size="10.00" fill="#000000"> </text>
<polyline fill="none" stroke="#bfbfbf" points="64,-641.5 114,-641.5 "/>
<text text-anchor="middle" x="89" y="-629.5" font-family="Helvetica,sans-Serif" font-size="10.00" fill="#000000"> </text>
</g>
<!-- Node3&#45;&gt;Node1 -->
<g id="edge2" class="edge">
<title>Node3&#45;&gt;Node1</title>
<path fill="none" stroke="#404040" d="M96.1483,-622.2348C104.1077,-590.2061 117.7882,-535.1551 132.4006,-476.3545"/>
<polygon fill="none" stroke="#404040" points="132.4399,-476.1959 130.005,-469.4083 135.334,-464.5501 137.7689,-471.3377 132.4399,-476.1959"/>
<text text-anchor="middle" x="136.5" y="-546.5" font-family="Helvetica,sans-Serif" font-size="10.00" fill="#000000"> +s</text>
<text text-anchor="middle" x="136.5" y="-535.5" font-family="Helvetica,sans-Serif" font-size="10.00" fill="#000000">+c</text>
</g>
<!-- Node4 -->
<g id="node4" class="node">
<title>Node4</title>
<g id="a_node4"><a xlink:href="../../d4/dc3/classfloat.html" target="_top" xlink:title="{float\n||}">
<polygon fill="none" stroke="#000000" points="132,-622.5 132,-679.5 170,-679.5 170,-622.5 132,-622.5"/>
<text text-anchor="middle" x="151" y="-667.5" font-family="Helvetica,sans-Serif" font-size="10.00" fill="#000000">float</text>
<polyline fill="none" stroke="#000000" points="132,-660.5 170,-660.5 "/>
<text text-anchor="middle" x="151" y="-648.5" font-family="Helvetica,sans-Serif" font-size="10.00" fill="#000000"> </text>
<polyline fill="none" stroke="#000000" points="132,-641.5 170,-641.5 "/>
<text text-anchor="middle" x="151" y="-629.5" font-family="Helvetica,sans-Serif" font-size="10.00" fill="#000000"> </text>
</a>
</g>
</g>
<!-- Node4&#45;&gt;Node1 -->
<g id="edge3" class="edge">
<title>Node4&#45;&gt;Node1</title>
<path fill="none" stroke="#404040" d="M153.1335,-622.4413C155.6892,-588.9962 160.2269,-531.9376 165,-483 165.2008,-480.9414 165.4037,-478.8734 165.6086,-476.7971"/>
<polygon fill="none" stroke="#404040" points="165.612,-476.7626 162.2271,-470.3953 166.8028,-464.8218 170.1876,-471.1892 165.612,-476.7626"/>
<text text-anchor="middle" x="174" y="-563" font-family="Helvetica,sans-Serif" font-size="10.00" fill="#000000"> +b</text>
<text text-anchor="middle" x="174" y="-552" font-family="Helvetica,sans-Serif" font-size="10.00" fill="#000000">+s</text>
<text text-anchor="middle" x="174" y="-541" font-family="Helvetica,sans-Serif" font-size="10.00" fill="#000000">+c</text>
<text text-anchor="middle" x="174" y="-530" font-family="Helvetica,sans-Serif" font-size="10.00" fill="#000000">+x</text>
<text text-anchor="middle" x="174" y="-519" font-family="Helvetica,sans-Serif" font-size="10.00" fill="#000000">+y</text>
</g>
<!-- Node5 -->
<g id="node5" class="node">
<title>Node5</title>
<polygon fill="none" stroke="#bfbfbf" points="188.5,-622.5 188.5,-679.5 217.5,-679.5 217.5,-622.5 188.5,-622.5"/>
<text text-anchor="middle" x="203" y="-667.5" font-family="Helvetica,sans-Serif" font-size="10.00" fill="#000000">*</text>
<polyline fill="none" stroke="#bfbfbf" points="188.5,-660.5 217.5,-660.5 "/>
<text text-anchor="middle" x="203" y="-648.5" font-family="Helvetica,sans-Serif" font-size="10.00" fill="#000000"> </text>
<polyline fill="none" stroke="#bfbfbf" points="188.5,-641.5 217.5,-641.5 "/>
<text text-anchor="middle" x="203" y="-629.5" font-family="Helvetica,sans-Serif" font-size="10.00" fill="#000000"> </text>
</g>
<!-- Node5&#45;&gt;Node1 -->
<g id="edge4" class="edge">
<title>Node5&#45;&gt;Node1</title>
<path fill="none" stroke="#404040" d="M196.6234,-622.29C195.5357,-616.277 194.573,-609.9542 194,-604 190.0551,-563.0097 188.0157,-519.3575 187.1768,-476.9207"/>
<polygon fill="none" stroke="#404040" points="187.1729,-476.6887 183.0706,-470.7582 186.9671,-464.6905 191.0694,-470.621 187.1729,-476.6887"/>
<text text-anchor="middle" x="211" y="-541" font-family="Helvetica,sans-Serif" font-size="10.00" fill="#000000"> +addr</text>
</g>
<!-- Node6 -->
<g id="node6" class="node">
<title>Node6</title>
<polygon fill="none" stroke="#bfbfbf" points="235.5,-622.5 235.5,-679.5 264.5,-679.5 264.5,-622.5 235.5,-622.5"/>
<text text-anchor="middle" x="250" y="-667.5" font-family="Helvetica,sans-Serif" font-size="10.00" fill="#000000">int</text>
<polyline fill="none" stroke="#bfbfbf" points="235.5,-660.5 264.5,-660.5 "/>
<text text-anchor="middle" x="250" y="-648.5" font-family="Helvetica,sans-Serif" font-size="10.00" fill="#000000"> </text>
<polyline fill="none" stroke="#bfbfbf" points="235.5,-641.5 264.5,-641.5 "/>
<text text-anchor="middle" x="250" y="-629.5" font-family="Helvetica,sans-Serif" font-size="10.00" fill="#000000"> </text>
</g>
<!-- Node6&#45;&gt;Node1 -->
<g id="edge5" class="edge">
<title>Node6&#45;&gt;Node1</title>
<path fill="none" stroke="#404040" d="M246.3378,-622.4534C242.0311,-589.0198 234.6276,-531.9719 228,-483 227.7037,-480.8106 227.4055,-478.6106 227.1057,-476.4011"/>
<polygon fill="none" stroke="#404040" points="227.1046,-476.3928 222.3324,-470.9867 225.4871,-464.5023 230.2594,-469.9084 227.1046,-476.3928"/>
<text text-anchor="middle" x="252" y="-541" font-family="Helvetica,sans-Serif" font-size="10.00" fill="#000000"> +b</text>
</g>
<!-- Node7 -->
<g id="node7" class="node">
<title>Node7</title>
<polygon fill="none" stroke="#bfbfbf" points="282.5,-622.5 282.5,-679.5 325.5,-679.5 325.5,-622.5 282.5,-622.5"/>
<text text-anchor="middle" x="304" y="-667.5" font-family="Helvetica,sans-Serif" font-size="10.00" fill="#000000">const</text>
<polyline fill="none" stroke="#bfbfbf" points="282.5,-660.5 325.5,-660.5 "/>
<text text-anchor="middle" x="304" y="-648.5" font-family="Helvetica,sans-Serif" font-size="10.00" fill="#000000"> </text>
<polyline fill="none" stroke="#bfbfbf" points="282.5,-641.5 325.5,-641.5 "/>
<text text-anchor="middle" x="304" y="-629.5" font-family="Helvetica,sans-Serif" font-size="10.00" fill="#000000"> </text>
</g>
<!-- Node7&#45;&gt;Node1 -->
<g id="edge6" class="edge">
<title>Node7&#45;&gt;Node1</title>
<path fill="none" stroke="#404040" d="M297.8237,-622.3532C290.4856,-588.8253 277.6396,-531.6891 265,-483 264.4382,-480.8357 263.8712,-478.6617 263.2995,-476.479"/>
<polygon fill="none" stroke="#404040" points="263.2613,-476.3342 257.8627,-471.5535 260.1993,-464.7314 265.5979,-469.5121 263.2613,-476.3342"/>
<text text-anchor="middle" x="302" y="-541" font-family="Helvetica,sans-Serif" font-size="10.00" fill="#000000"> +y</text>
</g>
<!-- Node8 -->
<g id="node8" class="node">
<title>Node8</title>
<polygon fill="none" stroke="#bfbfbf" points="343.5,-622.5 343.5,-679.5 372.5,-679.5 372.5,-622.5 343.5,-622.5"/>
<text text-anchor="middle" x="358" y="-667.5" font-family="Helvetica,sans-Serif" font-size="10.00" fill="#000000">T</text>
<polyline fill="none" stroke="#bfbfbf" points="343.5,-660.5 372.5,-660.5 "/>
<text text-anchor="middle" x="358" y="-648.5" font-family="Helvetica,sans-Serif" font-size="10.00" fill="#000000"> </text>
<polyline fill="none" stroke="#bfbfbf" points="343.5,-641.5 372.5,-641.5 "/>
<text text-anchor="middle" x="358" y="-629.5" font-family="Helvetica,sans-Serif" font-size="10.00" fill="#000000"> </text>
</g>
<!-- Node8&#45;&gt;Node1 -->
<g id="edge7" class="edge">
<title>Node8&#45;&gt;Node1</title>
<path fill="none" stroke="#404040" d="M352.4918,-622.2269C345.5819,-588.3366 332.4855,-530.6215 315,-483 301.8358,-447.1474 285.1869,-409.5819 268.4549,-374.7706"/>
<polygon fill="none" stroke="#404040" points="268.2598,-374.3681 262.0427,-370.7147 263.0239,-363.5706 269.241,-367.2241 268.2598,-374.3681"/>
<text text-anchor="middle" x="364" y="-596" font-family="Helvetica,sans-Serif" font-size="10.00" fill="#000000"> +refY</text>
<text text-anchor="middle" x="364" y="-585" font-family="Helvetica,sans-Serif" font-size="10.00" fill="#000000">+val</text>
<text text-anchor="middle" x="364" y="-574" font-family="Helvetica,sans-Serif" font-size="10.00" fill="#000000">+refZ</text>
<text text-anchor="middle" x="364" y="-563" font-family="Helvetica,sans-Serif" font-size="10.00" fill="#000000">+r</text>
<text text-anchor="middle" x="364" y="-552" font-family="Helvetica,sans-Serif" font-size="10.00" fill="#000000">+cmp</text>
<text text-anchor="middle" x="364" y="-541" font-family="Helvetica,sans-Serif" font-size="10.00" fill="#000000">+w</text>
<text text-anchor="middle" x="364" y="-530" font-family="Helvetica,sans-Serif" font-size="10.00" fill="#000000">+y</text>
<text text-anchor="middle" x="364" y="-519" font-family="Helvetica,sans-Serif" font-size="10.00" fill="#000000">+z</text>
<text text-anchor="middle" x="364" y="-508" font-family="Helvetica,sans-Serif" font-size="10.00" fill="#000000">+refW</text>
<text text-anchor="middle" x="364" y="-497" font-family="Helvetica,sans-Serif" font-size="10.00" fill="#000000">+refX</text>
<text text-anchor="middle" x="364" y="-486" font-family="Helvetica,sans-Serif" font-size="10.00" fill="#000000">...</text>
</g>
</g>
</svg>
