<?xml version="1.0" encoding="UTF-8" standalone="no"?>
<!DOCTYPE svg PUBLIC "-//W3C//DTD SVG 1.1//EN"
 "http://www.w3.org/Graphics/SVG/1.1/DTD/svg11.dtd">
<!-- Generated by graphviz version 2.40.1 (20161225.0304)
 -->
<!-- Title: /home/travis/build/AliceO2Group/AliceO2/Detectors/MUON/MCH/Raw/ElecMap/src/CH6L.cxx Pages: 1 -->
<svg width="428pt" height="173pt"
 viewBox="0.00 0.00 427.50 173.00" xmlns="http://www.w3.org/2000/svg" xmlns:xlink="http://www.w3.org/1999/xlink">
<g id="graph0" class="graph" transform="scale(1 1) rotate(0) translate(4 169)">
<title>/home/travis/build/AliceO2Group/AliceO2/Detectors/MUON/MCH/Raw/ElecMap/src/CH6L.cxx</title>
<!-- Node0 -->
<g id="node1" class="node">
<title>Node0</title>
<polygon fill="#bfbfbf" stroke="#000000" points="43,-112.5 43,-164.5 193,-164.5 193,-112.5 43,-112.5"/>
<text text-anchor="start" x="51" y="-152.5" font-family="Helvetica,sans-Serif" font-size="10.00" fill="#000000">/home/travis/build</text>
<text text-anchor="start" x="51" y="-141.5" font-family="Helvetica,sans-Serif" font-size="10.00" fill="#000000">/AliceO2Group/AliceO2</text>
<text text-anchor="start" x="51" y="-130.5" font-family="Helvetica,sans-Serif" font-size="10.00" fill="#000000">/Detectors/MUON/MCH/Raw</text>
<text text-anchor="middle" x="118" y="-119.5" font-family="Helvetica,sans-Serif" font-size="10.00" fill="#000000">/ElecMap/src/CH6L.cxx</text>
</g>
<!-- Node1 -->
<g id="node2" class="node">
<title>Node1</title>
<polygon fill="none" stroke="#bfbfbf" points="0,-56.5 0,-75.5 38,-75.5 38,-56.5 0,-56.5"/>
<text text-anchor="middle" x="19" y="-63.5" font-family="Helvetica,sans-Serif" font-size="10.00" fill="#000000">map</text>
</g>
<!-- Node0&#45;&gt;Node1 -->
<g id="edge1" class="edge">
<title>Node0&#45;&gt;Node1</title>
<path fill="none" stroke="#191970" d="M82.2587,-112.3258C68.1752,-102.0122 52.4776,-90.5165 40.243,-81.5567"/>
<polygon fill="#191970" stroke="#191970" points="42.1547,-78.6186 32.0188,-75.534 38.0189,-84.2662 42.1547,-78.6186"/>
</g>
<!-- Node2 -->
<g id="node3" class="node">
<title>Node2</title>
<polygon fill="none" stroke="#bfbfbf" points="145,-.5 145,-19.5 195,-19.5 195,-.5 145,-.5"/>
<text text-anchor="middle" x="170" y="-7.5" font-family="Helvetica,sans-Serif" font-size="10.00" fill="#000000">cstdint</text>
</g>
<!-- Node0&#45;&gt;Node2 -->
<g id="edge2" class="edge">
<title>Node0&#45;&gt;Node2</title>
<path fill="none" stroke="#191970" d="M95.4499,-112.2472C83.9563,-95.5292 74.4188,-73.7577 85,-56 95.9209,-37.6724 116.9617,-26.203 135.3759,-19.3003"/>
<polygon fill="#191970" stroke="#191970" points="136.6521,-22.5628 144.9757,-16.0078 134.3811,-15.9414 136.6521,-22.5628"/>
</g>
<!-- Node3 -->
<g id="node4" class="node">
<title>Node3</title>
<g id="a_node4"><a xlink:href="../../d4/d09/DsElecId_8h.html" target="_top" xlink:title="MCHRawElecMap/DsElecId.h">
<polygon fill="none" stroke="#000000" points="264.5,-56.5 264.5,-75.5 419.5,-75.5 419.5,-56.5 264.5,-56.5"/>
<text text-anchor="middle" x="342" y="-63.5" font-family="Helvetica,sans-Serif" font-size="10.00" fill="#000000">MCHRawElecMap/DsElecId.h</text>
</a>
</g>
</g>
<!-- Node0&#45;&gt;Node3 -->
<g id="edge3" class="edge">
<title>Node0&#45;&gt;Node3</title>
<path fill="none" stroke="#191970" d="M193.2119,-114.1569C229.9811,-102.2561 272.7011,-88.4293 302.9081,-78.6525"/>
<polygon fill="#191970" stroke="#191970" points="304.2095,-81.9101 312.6458,-75.5008 302.0539,-75.2503 304.2095,-81.9101"/>
</g>
<!-- Node6 -->
<g id="node7" class="node">
<title>Node6</title>
<g id="a_node7"><a xlink:href="../../d5/dcd/DsDetId_8h.html" target="_top" xlink:title="MCHRawElecMap/DsDetId.h">
<polygon fill="none" stroke="#000000" points="94,-56.5 94,-75.5 246,-75.5 246,-56.5 94,-56.5"/>
<text text-anchor="middle" x="170" y="-63.5" font-family="Helvetica,sans-Serif" font-size="10.00" fill="#000000">MCHRawElecMap/DsDetId.h</text>
</a>
</g>
</g>
<!-- Node0&#45;&gt;Node6 -->
<g id="edge7" class="edge">
<title>Node0&#45;&gt;Node6</title>
<path fill="none" stroke="#191970" d="M136.7732,-112.3258C143.596,-102.8132 151.1401,-92.2951 157.313,-83.6886"/>
<polygon fill="#191970" stroke="#191970" points="160.1776,-85.6999 163.1618,-75.534 154.4894,-81.6201 160.1776,-85.6999"/>
</g>
<!-- Node3&#45;&gt;Node2 -->
<g id="edge4" class="edge">
<title>Node3&#45;&gt;Node2</title>
<path fill="none" stroke="#191970" d="M312.4321,-56.3733C282.6178,-46.6663 236.6026,-31.6846 204.9888,-21.3917"/>
<polygon fill="#191970" stroke="#191970" points="205.8618,-17.9951 195.2695,-18.2273 203.6946,-24.6512 205.8618,-17.9951"/>
</g>
<!-- Node4 -->
<g id="node5" class="node">
<title>Node4</title>
<polygon fill="none" stroke="#bfbfbf" points="230.5,-.5 230.5,-19.5 279.5,-19.5 279.5,-.5 230.5,-.5"/>
<text text-anchor="middle" x="255" y="-7.5" font-family="Helvetica,sans-Serif" font-size="10.00" fill="#000000">iosfwd</text>
</g>
<!-- Node3&#45;&gt;Node4 -->
<g id="edge5" class="edge">
<title>Node3&#45;&gt;Node4</title>
<path fill="none" stroke="#191970" d="M326.8458,-56.2455C313.4973,-47.6534 293.8414,-35.0014 278.4617,-25.1018"/>
<polygon fill="#191970" stroke="#191970" points="280.2836,-22.1121 269.9806,-19.6427 276.4949,-27.9982 280.2836,-22.1121"/>
</g>
<!-- Node5 -->
<g id="node6" class="node">
<title>Node5</title>
<polygon fill="none" stroke="#bfbfbf" points="314,-.5 314,-19.5 370,-19.5 370,-.5 314,-.5"/>
<text text-anchor="middle" x="342" y="-7.5" font-family="Helvetica,sans-Serif" font-size="10.00" fill="#000000">optional</text>
</g>
<!-- Node3&#45;&gt;Node5 -->
<g id="edge6" class="edge">
<title>Node3&#45;&gt;Node5</title>
<path fill="none" stroke="#191970" d="M342,-56.2455C342,-48.9382 342,-38.6944 342,-29.7046"/>
<polygon fill="#191970" stroke="#191970" points="345.5001,-29.6426 342,-19.6427 338.5001,-29.6427 345.5001,-29.6426"/>
</g>
<!-- Node6&#45;&gt;Node2 -->
<g id="edge8" class="edge">
<title>Node6&#45;&gt;Node2</title>
<path fill="none" stroke="#191970" d="M170,-56.2455C170,-48.9382 170,-38.6944 170,-29.7046"/>
<polygon fill="#191970" stroke="#191970" points="173.5001,-29.6426 170,-19.6427 166.5001,-29.6427 173.5001,-29.6426"/>
</g>
<!-- Node6&#45;&gt;Node4 -->
<g id="edge9" class="edge">
<title>Node6&#45;&gt;Node4</title>
<path fill="none" stroke="#191970" d="M184.8059,-56.2455C197.7256,-47.7337 216.6931,-35.2375 231.6552,-25.3801"/>
<polygon fill="#191970" stroke="#191970" points="233.9387,-28.067 240.3638,-19.6427 230.0876,-22.2216 233.9387,-28.067"/>
</g>
</g>
</svg>
