<?xml version="1.0" encoding="UTF-8" standalone="no"?>
<!DOCTYPE svg PUBLIC "-//W3C//DTD SVG 1.1//EN"
 "http://www.w3.org/Graphics/SVG/1.1/DTD/svg11.dtd">
<!-- Generated by graphviz version 2.40.1 (20161225.0304)
 -->
<!-- Title: o2::tpc::Digit Pages: 1 -->
<svg width="250pt" height="380pt"
 viewBox="0.00 0.00 250.00 380.00" xmlns="http://www.w3.org/2000/svg" xmlns:xlink="http://www.w3.org/1999/xlink">
<g id="graph0" class="graph" transform="scale(1 1) rotate(0) translate(4 376)">
<title>o2::tpc::Digit</title>
<!-- Node2 -->
<g id="node1" class="node">
<title>Node2</title>
<polygon fill="#bfbfbf" stroke="#000000" points="86,-.5 86,-156.5 184,-156.5 184,-.5 86,-.5"/>
<text text-anchor="middle" x="135" y="-144.5" font-family="Helvetica,sans-Serif" font-size="10.00" fill="#000000">o2::tpc::Digit</text>
<polyline fill="none" stroke="#000000" points="86,-137.5 184,-137.5 "/>
<text text-anchor="middle" x="135" y="-125.5" font-family="Helvetica,sans-Serif" font-size="10.00" fill="#000000"> </text>
<polyline fill="none" stroke="#000000" points="86,-118.5 184,-118.5 "/>
<text text-anchor="start" x="94" y="-106.5" font-family="Helvetica,sans-Serif" font-size="10.00" fill="#000000">+ GPUdDefault()</text>
<text text-anchor="start" x="94" y="-95.5" font-family="Helvetica,sans-Serif" font-size="10.00" fill="#000000">+ GPUdi()</text>
<text text-anchor="start" x="94" y="-84.5" font-family="Helvetica,sans-Serif" font-size="10.00" fill="#000000">+ GPUdDefault()</text>
<text text-anchor="start" x="94" y="-73.5" font-family="Helvetica,sans-Serif" font-size="10.00" fill="#000000">+ GPUdi()</text>
<text text-anchor="start" x="94" y="-62.5" font-family="Helvetica,sans-Serif" font-size="10.00" fill="#000000">+ GPUdi()</text>
<text text-anchor="start" x="94" y="-51.5" font-family="Helvetica,sans-Serif" font-size="10.00" fill="#000000">+ GPUdi()</text>
<text text-anchor="start" x="94" y="-40.5" font-family="Helvetica,sans-Serif" font-size="10.00" fill="#000000">+ GPUdi()</text>
<text text-anchor="start" x="94" y="-29.5" font-family="Helvetica,sans-Serif" font-size="10.00" fill="#000000">+ GPUdi()</text>
<text text-anchor="start" x="94" y="-18.5" font-family="Helvetica,sans-Serif" font-size="10.00" fill="#000000">+ GPUdi()</text>
<text text-anchor="start" x="94" y="-7.5" font-family="Helvetica,sans-Serif" font-size="10.00" fill="#000000"># ClassDefNV()</text>
</g>
<!-- Node3 -->
<g id="node2" class="node">
<title>Node3</title>
<g id="a_node2"><a xlink:href="../../d0/d94/classo2_1_1dataformats_1_1TimeStamp.html" target="_top" xlink:title="{DigitBase\n||+ GPUdDefault()\l+ GPUdDefault()\l+ GPUdi()\l+ GPUdi()\l+ GPUdi()\l+ GPUdi()\l+ ClassDefNV()\l}">
<polygon fill="none" stroke="#000000" points="0,-248.5 0,-371.5 98,-371.5 98,-248.5 0,-248.5"/>
<text text-anchor="middle" x="49" y="-359.5" font-family="Helvetica,sans-Serif" font-size="10.00" fill="#000000">DigitBase</text>
<polyline fill="none" stroke="#000000" points="0,-352.5 98,-352.5 "/>
<text text-anchor="middle" x="49" y="-340.5" font-family="Helvetica,sans-Serif" font-size="10.00" fill="#000000"> </text>
<polyline fill="none" stroke="#000000" points="0,-333.5 98,-333.5 "/>
<text text-anchor="start" x="8" y="-321.5" font-family="Helvetica,sans-Serif" font-size="10.00" fill="#000000">+ GPUdDefault()</text>
<text text-anchor="start" x="8" y="-310.5" font-family="Helvetica,sans-Serif" font-size="10.00" fill="#000000">+ GPUdDefault()</text>
<text text-anchor="start" x="8" y="-299.5" font-family="Helvetica,sans-Serif" font-size="10.00" fill="#000000">+ GPUdi()</text>
<text text-anchor="start" x="8" y="-288.5" font-family="Helvetica,sans-Serif" font-size="10.00" fill="#000000">+ GPUdi()</text>
<text text-anchor="start" x="8" y="-277.5" font-family="Helvetica,sans-Serif" font-size="10.00" fill="#000000">+ GPUdi()</text>
<text text-anchor="start" x="8" y="-266.5" font-family="Helvetica,sans-Serif" font-size="10.00" fill="#000000">+ GPUdi()</text>
<text text-anchor="start" x="8" y="-255.5" font-family="Helvetica,sans-Serif" font-size="10.00" fill="#000000">+ ClassDefNV()</text>
</a>
</g>
</g>
<!-- Node3&#45;&gt;Node2 -->
<g id="edge1" class="edge">
<title>Node3&#45;&gt;Node2</title>
<path fill="none" stroke="#191970" d="M75.4308,-238.8521C85.0976,-212.8303 96.0834,-183.258 105.9654,-156.6572"/>
<polygon fill="none" stroke="#191970" points="72.135,-237.6734 71.9334,-248.2664 78.6968,-240.1111 72.135,-237.6734"/>
</g>
<!-- Node4 -->
<g id="node3" class="node">
<title>Node4</title>
<g id="a_node3"><a xlink:href="../../d4/dc3/classfloat.html" target="_top" xlink:title="{float\n||}">
<polygon fill="none" stroke="#000000" points="116,-281.5 116,-338.5 154,-338.5 154,-281.5 116,-281.5"/>
<text text-anchor="middle" x="135" y="-326.5" font-family="Helvetica,sans-Serif" font-size="10.00" fill="#000000">float</text>
<polyline fill="none" stroke="#000000" points="116,-319.5 154,-319.5 "/>
<text text-anchor="middle" x="135" y="-307.5" font-family="Helvetica,sans-Serif" font-size="10.00" fill="#000000"> </text>
<polyline fill="none" stroke="#000000" points="116,-300.5 154,-300.5 "/>
<text text-anchor="middle" x="135" y="-288.5" font-family="Helvetica,sans-Serif" font-size="10.00" fill="#000000"> </text>
</a>
</g>
</g>
<!-- Node4&#45;&gt;Node2 -->
<g id="edge2" class="edge">
<title>Node4&#45;&gt;Node2</title>
<path fill="none" stroke="#404040" d="M135,-281.1484C135,-253.0286 135,-208.7841 135,-168.8016"/>
<polygon fill="none" stroke="#404040" points="135.0001,-168.5526 131,-162.5526 135,-156.5526 139,-162.5526 135.0001,-168.5526"/>
<text text-anchor="middle" x="161.5" y="-222" font-family="Helvetica,sans-Serif" font-size="10.00" fill="#000000"> +pad</text>
<text text-anchor="middle" x="161.5" y="-211" font-family="Helvetica,sans-Serif" font-size="10.00" fill="#000000">#mCharge</text>
<text text-anchor="middle" x="161.5" y="-200" font-family="Helvetica,sans-Serif" font-size="10.00" fill="#000000">+time</text>
<text text-anchor="middle" x="161.5" y="-189" font-family="Helvetica,sans-Serif" font-size="10.00" fill="#000000">+row</text>
<text text-anchor="middle" x="161.5" y="-178" font-family="Helvetica,sans-Serif" font-size="10.00" fill="#000000">+charge</text>
</g>
<!-- Node5 -->
<g id="node4" class="node">
<title>Node5</title>
<polygon fill="none" stroke="#bfbfbf" points="180.5,-281.5 180.5,-338.5 241.5,-338.5 241.5,-281.5 180.5,-281.5"/>
<text text-anchor="middle" x="211" y="-326.5" font-family="Helvetica,sans-Serif" font-size="10.00" fill="#000000">unsigned</text>
<polyline fill="none" stroke="#bfbfbf" points="180.5,-319.5 241.5,-319.5 "/>
<text text-anchor="middle" x="211" y="-307.5" font-family="Helvetica,sans-Serif" font-size="10.00" fill="#000000"> </text>
<polyline fill="none" stroke="#bfbfbf" points="180.5,-300.5 241.5,-300.5 "/>
<text text-anchor="middle" x="211" y="-288.5" font-family="Helvetica,sans-Serif" font-size="10.00" fill="#000000"> </text>
</g>
<!-- Node5&#45;&gt;Node2 -->
<g id="edge3" class="edge">
<title>Node5&#45;&gt;Node2</title>
<path fill="none" stroke="#404040" d="M209.2328,-281.3694C206.8478,-253.5453 201.3657,-210.4234 189,-175 188.172,-172.6281 187.2876,-170.2466 186.3546,-167.8625"/>
<polygon fill="none" stroke="#404040" points="186.318,-167.7754 180.3042,-163.7961 181.6643,-156.7145 187.6781,-160.6937 186.318,-167.7754"/>
<text text-anchor="middle" x="222" y="-211" font-family="Helvetica,sans-Serif" font-size="10.00" fill="#000000"> #mPad</text>
<text text-anchor="middle" x="222" y="-200" font-family="Helvetica,sans-Serif" font-size="10.00" fill="#000000">#mCRU</text>
<text text-anchor="middle" x="222" y="-189" font-family="Helvetica,sans-Serif" font-size="10.00" fill="#000000">#mRow</text>
</g>
</g>
</svg>
