<?xml version="1.0" encoding="UTF-8" standalone="no"?>
<!DOCTYPE svg PUBLIC "-//W3C//DTD SVG 1.1//EN"
 "http://www.w3.org/Graphics/SVG/1.1/DTD/svg11.dtd">
<!-- Generated by graphviz version 2.40.1 (20161225.0304)
 -->
<!-- Title: /home/travis/build/AliceO2Group/AliceO2/Detectors/ITSMFT/MFT/base/src/Support.cxx Pages: 1 -->
<svg width="1278pt" height="173pt"
 viewBox="0.00 0.00 1278.00 173.00" xmlns="http://www.w3.org/2000/svg" xmlns:xlink="http://www.w3.org/1999/xlink">
<g id="graph0" class="graph" transform="scale(1 1) rotate(0) translate(4 169)">
<title>/home/travis/build/AliceO2Group/AliceO2/Detectors/ITSMFT/MFT/base/src/Support.cxx</title>
<!-- Node0 -->
<g id="node1" class="node">
<title>Node0</title>
<polygon fill="#bfbfbf" stroke="#000000" points="598,-112.5 598,-164.5 725,-164.5 725,-112.5 598,-112.5"/>
<text text-anchor="start" x="606" y="-152.5" font-family="Helvetica,sans-Serif" font-size="10.00" fill="#000000">/home/travis/build</text>
<text text-anchor="start" x="606" y="-141.5" font-family="Helvetica,sans-Serif" font-size="10.00" fill="#000000">/AliceO2Group/AliceO2</text>
<text text-anchor="start" x="606" y="-130.5" font-family="Helvetica,sans-Serif" font-size="10.00" fill="#000000">/Detectors/ITSMFT/MFT</text>
<text text-anchor="middle" x="661.5" y="-119.5" font-family="Helvetica,sans-Serif" font-size="10.00" fill="#000000">/base/src/Support.cxx</text>
</g>
<!-- Node1 -->
<g id="node2" class="node">
<title>Node1</title>
<g id="a_node2"><a xlink:href="../../dc/de5/Detectors_2ITSMFT_2MFT_2base_2include_2MFTBase_2Constants_8h.html" target="_top" xlink:title="MFTBase/Constants.h">
<polygon fill="none" stroke="#000000" points="218,-56.5 218,-75.5 339,-75.5 339,-56.5 218,-56.5"/>
<text text-anchor="middle" x="278.5" y="-63.5" font-family="Helvetica,sans-Serif" font-size="10.00" fill="#000000">MFTBase/Constants.h</text>
</a>
</g>
</g>
<!-- Node0&#45;&gt;Node1 -->
<g id="edge1" class="edge">
<title>Node0&#45;&gt;Node1</title>
<path fill="none" stroke="#191970" d="M597.8254,-126.4467C525.8529,-112.8227 409.5475,-90.8066 338.9376,-77.4405"/>
<polygon fill="#191970" stroke="#191970" points="339.3385,-73.9543 328.862,-75.5333 338.0365,-80.8322 339.3385,-73.9543"/>
</g>
<!-- Node3 -->
<g id="node4" class="node">
<title>Node3</title>
<g id="a_node4"><a xlink:href="../../d0/d97/Support_8h.html" target="_top" xlink:title="Class describing geometry of one MFT half&#45;disk support. ">
<polygon fill="none" stroke="#000000" points="606.5,-56.5 606.5,-75.5 716.5,-75.5 716.5,-56.5 606.5,-56.5"/>
<text text-anchor="middle" x="661.5" y="-63.5" font-family="Helvetica,sans-Serif" font-size="10.00" fill="#000000">MFTBase/Support.h</text>
</a>
</g>
</g>
<!-- Node0&#45;&gt;Node3 -->
<g id="edge3" class="edge">
<title>Node0&#45;&gt;Node3</title>
<path fill="none" stroke="#191970" d="M661.5,-112.3258C661.5,-103.5142 661.5,-93.8397 661.5,-85.621"/>
<polygon fill="#191970" stroke="#191970" points="665.0001,-85.534 661.5,-75.534 658.0001,-85.534 665.0001,-85.534"/>
</g>
<!-- Node15 -->
<g id="node16" class="node">
<title>Node15</title>
<g id="a_node16"><a xlink:href="../../d6/d2e/ITSMFT_2MFT_2base_2include_2MFTBase_2Geometry_8h.html" target="_top" xlink:title="MFTBase/Geometry.h">
<polygon fill="none" stroke="#000000" points="956,-56.5 956,-75.5 1075,-75.5 1075,-56.5 956,-56.5"/>
<text text-anchor="middle" x="1015.5" y="-63.5" font-family="Helvetica,sans-Serif" font-size="10.00" fill="#000000">MFTBase/Geometry.h</text>
</a>
</g>
</g>
<!-- Node0&#45;&gt;Node15 -->
<g id="edge15" class="edge">
<title>Node0&#45;&gt;Node15</title>
<path fill="none" stroke="#191970" d="M725.197,-125.4547C791.8024,-111.8138 895.3357,-90.6099 959.085,-77.5539"/>
<polygon fill="#191970" stroke="#191970" points="959.8687,-80.9662 968.9631,-75.5309 958.4641,-74.1085 959.8687,-80.9662"/>
</g>
<!-- Node2 -->
<g id="node3" class="node">
<title>Node2</title>
<polygon fill="none" stroke="#bfbfbf" points="0,-.5 0,-19.5 59,-19.5 59,-.5 0,-.5"/>
<text text-anchor="middle" x="29.5" y="-7.5" font-family="Helvetica,sans-Serif" font-size="10.00" fill="#000000">Rtypes.h</text>
</g>
<!-- Node1&#45;&gt;Node2 -->
<g id="edge2" class="edge">
<title>Node1&#45;&gt;Node2</title>
<path fill="none" stroke="#191970" d="M232.512,-56.4154C192.0591,-47.8744 131.3377,-34.7887 69.2561,-20.1197"/>
<polygon fill="#191970" stroke="#191970" points="69.8217,-16.6568 59.2837,-17.7523 68.2048,-23.4675 69.8217,-16.6568"/>
</g>
<!-- Node4 -->
<g id="node5" class="node">
<title>Node4</title>
<polygon fill="none" stroke="#bfbfbf" points="77.5,-.5 77.5,-19.5 165.5,-19.5 165.5,-.5 77.5,-.5"/>
<text text-anchor="middle" x="121.5" y="-7.5" font-family="Helvetica,sans-Serif" font-size="10.00" fill="#000000">TGeoVolume.h</text>
</g>
<!-- Node3&#45;&gt;Node4 -->
<g id="edge4" class="edge">
<title>Node3&#45;&gt;Node4</title>
<path fill="none" stroke="#191970" d="M606.1645,-62.4439C517.475,-56.3776 337.8389,-42.586 175.8467,-20.0798"/>
<polygon fill="#191970" stroke="#191970" points="176.0854,-16.5791 165.6959,-18.6547 175.1121,-23.5111 176.0854,-16.5791"/>
</g>
<!-- Node5 -->
<g id="node6" class="node">
<title>Node5</title>
<polygon fill="none" stroke="#bfbfbf" points="183.5,-.5 183.5,-19.5 265.5,-19.5 265.5,-.5 183.5,-.5"/>
<text text-anchor="middle" x="224.5" y="-7.5" font-family="Helvetica,sans-Serif" font-size="10.00" fill="#000000">TGeoMatrix.h</text>
</g>
<!-- Node3&#45;&gt;Node5 -->
<g id="edge5" class="edge">
<title>Node3&#45;&gt;Node5</title>
<path fill="none" stroke="#191970" d="M606.1954,-60.8153C532.904,-53.6362 399.3782,-39.4907 275.6809,-20.0869"/>
<polygon fill="#191970" stroke="#191970" points="276.0787,-16.6064 265.6542,-18.499 274.9836,-23.5202 276.0787,-16.6064"/>
</g>
<!-- Node6 -->
<g id="node7" class="node">
<title>Node6</title>
<polygon fill="none" stroke="#bfbfbf" points="284,-.5 284,-19.5 361,-19.5 361,-.5 284,-.5"/>
<text text-anchor="middle" x="322.5" y="-7.5" font-family="Helvetica,sans-Serif" font-size="10.00" fill="#000000">TGeoBBox.h</text>
</g>
<!-- Node3&#45;&gt;Node6 -->
<g id="edge6" class="edge">
<title>Node3&#45;&gt;Node6</title>
<path fill="none" stroke="#191970" d="M606.3892,-58.1037C549.8838,-49.8241 459.2274,-36.0337 371.1352,-20.0466"/>
<polygon fill="#191970" stroke="#191970" points="371.707,-16.5932 361.2409,-18.2396 370.4493,-23.4793 371.707,-16.5932"/>
</g>
<!-- Node7 -->
<g id="node8" class="node">
<title>Node7</title>
<polygon fill="none" stroke="#bfbfbf" points="379.5,-.5 379.5,-19.5 513.5,-19.5 513.5,-.5 379.5,-.5"/>
<text text-anchor="middle" x="446.5" y="-7.5" font-family="Helvetica,sans-Serif" font-size="10.00" fill="#000000">TGeoCompositeShape.h</text>
</g>
<!-- Node3&#45;&gt;Node7 -->
<g id="edge7" class="edge">
<title>Node3&#45;&gt;Node7</title>
<path fill="none" stroke="#191970" d="M624.5402,-56.3733C588.0925,-46.8799 532.2754,-32.3415 492.8711,-22.0781"/>
<polygon fill="#191970" stroke="#191970" points="493.5369,-18.6348 482.9775,-19.5011 491.7724,-25.4087 493.5369,-18.6348"/>
</g>
<!-- Node8 -->
<g id="node9" class="node">
<title>Node8</title>
<polygon fill="none" stroke="#bfbfbf" points="531.5,-.5 531.5,-19.5 605.5,-19.5 605.5,-.5 531.5,-.5"/>
<text text-anchor="middle" x="568.5" y="-7.5" font-family="Helvetica,sans-Serif" font-size="10.00" fill="#000000">TGeoTube.h</text>
</g>
<!-- Node3&#45;&gt;Node8 -->
<g id="edge8" class="edge">
<title>Node3&#45;&gt;Node8</title>
<path fill="none" stroke="#191970" d="M645.3006,-56.2455C630.8982,-47.5731 609.6268,-34.7645 593.1201,-24.825"/>
<polygon fill="#191970" stroke="#191970" points="594.886,-21.8028 584.5137,-19.6427 591.275,-27.7996 594.886,-21.8028"/>
</g>
<!-- Node9 -->
<g id="node10" class="node">
<title>Node9</title>
<polygon fill="none" stroke="#bfbfbf" points="623.5,-.5 623.5,-19.5 699.5,-19.5 699.5,-.5 623.5,-.5"/>
<text text-anchor="middle" x="661.5" y="-7.5" font-family="Helvetica,sans-Serif" font-size="10.00" fill="#000000">TGeoCone.h</text>
</g>
<!-- Node3&#45;&gt;Node9 -->
<g id="edge9" class="edge">
<title>Node3&#45;&gt;Node9</title>
<path fill="none" stroke="#191970" d="M661.5,-56.2455C661.5,-48.9382 661.5,-38.6944 661.5,-29.7046"/>
<polygon fill="#191970" stroke="#191970" points="665.0001,-29.6426 661.5,-19.6427 658.0001,-29.6427 665.0001,-29.6426"/>
</g>
<!-- Node10 -->
<g id="node11" class="node">
<title>Node10</title>
<polygon fill="none" stroke="#bfbfbf" points="717.5,-.5 717.5,-19.5 791.5,-19.5 791.5,-.5 717.5,-.5"/>
<text text-anchor="middle" x="754.5" y="-7.5" font-family="Helvetica,sans-Serif" font-size="10.00" fill="#000000">TGeoArb8.h</text>
</g>
<!-- Node3&#45;&gt;Node10 -->
<g id="edge10" class="edge">
<title>Node3&#45;&gt;Node10</title>
<path fill="none" stroke="#191970" d="M677.6994,-56.2455C692.1018,-47.5731 713.3732,-34.7645 729.8799,-24.825"/>
<polygon fill="#191970" stroke="#191970" points="731.725,-27.7996 738.4863,-19.6427 728.114,-21.8028 731.725,-27.7996"/>
</g>
<!-- Node11 -->
<g id="node12" class="node">
<title>Node11</title>
<polygon fill="none" stroke="#bfbfbf" points="809.5,-.5 809.5,-19.5 907.5,-19.5 907.5,-.5 809.5,-.5"/>
<text text-anchor="middle" x="858.5" y="-7.5" font-family="Helvetica,sans-Serif" font-size="10.00" fill="#000000">TGeoBoolNode.h</text>
</g>
<!-- Node3&#45;&gt;Node11 -->
<g id="edge11" class="edge">
<title>Node3&#45;&gt;Node11</title>
<path fill="none" stroke="#191970" d="M695.3655,-56.3733C728.549,-46.9404 779.255,-32.5265 815.3194,-22.2747"/>
<polygon fill="#191970" stroke="#191970" points="816.4145,-25.6021 825.0764,-19.5011 814.5005,-18.8689 816.4145,-25.6021"/>
</g>
<!-- Node12 -->
<g id="node13" class="node">
<title>Node12</title>
<polygon fill="none" stroke="#bfbfbf" points="925.5,-.5 925.5,-19.5 981.5,-19.5 981.5,-.5 925.5,-.5"/>
<text text-anchor="middle" x="953.5" y="-7.5" font-family="Helvetica,sans-Serif" font-size="10.00" fill="#000000">TMath.h</text>
</g>
<!-- Node3&#45;&gt;Node12 -->
<g id="edge12" class="edge">
<title>Node3&#45;&gt;Node12</title>
<path fill="none" stroke="#191970" d="M716.739,-57.435C766.3471,-49.4269 841.356,-36.5405 915.3255,-20.1258"/>
<polygon fill="#191970" stroke="#191970" points="916.2883,-23.4969 925.2801,-17.8936 914.7566,-16.6665 916.2883,-23.4969"/>
</g>
<!-- Node13 -->
<g id="node14" class="node">
<title>Node13</title>
<polygon fill="none" stroke="#bfbfbf" points="999.5,-.5 999.5,-19.5 1091.5,-19.5 1091.5,-.5 999.5,-.5"/>
<text text-anchor="middle" x="1045.5" y="-7.5" font-family="Helvetica,sans-Serif" font-size="10.00" fill="#000000">TGeoManager.h</text>
</g>
<!-- Node3&#45;&gt;Node13 -->
<g id="edge13" class="edge">
<title>Node3&#45;&gt;Node13</title>
<path fill="none" stroke="#191970" d="M716.6135,-58.995C779.9357,-50.79 887.2158,-36.4109 989.1468,-20.1684"/>
<polygon fill="#191970" stroke="#191970" points="989.9898,-23.5781 999.31,-18.5398 988.8822,-16.6663 989.9898,-23.5781"/>
</g>
<!-- Node14 -->
<g id="node15" class="node">
<title>Node14</title>
<polygon fill="none" stroke="#bfbfbf" points="1110,-.5 1110,-19.5 1185,-19.5 1185,-.5 1110,-.5"/>
<text text-anchor="middle" x="1147.5" y="-7.5" font-family="Helvetica,sans-Serif" font-size="10.00" fill="#000000">FairLogger.h</text>
</g>
<!-- Node3&#45;&gt;Node14 -->
<g id="edge14" class="edge">
<title>Node3&#45;&gt;Node14</title>
<path fill="none" stroke="#191970" d="M716.8392,-62.0801C798.4496,-55.8852 956.0307,-42.3462 1099.9567,-19.933"/>
<polygon fill="#191970" stroke="#191970" points="1100.5213,-23.3873 1109.855,-18.374 1099.4321,-16.4726 1100.5213,-23.3873"/>
</g>
<!-- Node16 -->
<g id="node17" class="node">
<title>Node16</title>
<polygon fill="none" stroke="#bfbfbf" points="1203,-.5 1203,-19.5 1270,-19.5 1270,-.5 1203,-.5"/>
<text text-anchor="middle" x="1236.5" y="-7.5" font-family="Helvetica,sans-Serif" font-size="10.00" fill="#000000">TNamed.h</text>
</g>
<!-- Node15&#45;&gt;Node16 -->
<g id="edge16" class="edge">
<title>Node15&#45;&gt;Node16</title>
<path fill="none" stroke="#191970" d="M1053.2401,-56.4369C1091.9949,-46.6167 1152.2446,-31.3498 1192.9845,-21.0265"/>
<polygon fill="#191970" stroke="#191970" points="1194.0629,-24.364 1202.8968,-18.5148 1192.3435,-17.5784 1194.0629,-24.364"/>
</g>
</g>
</svg>
