<?xml version="1.0" encoding="UTF-8" standalone="no"?>
<!DOCTYPE svg PUBLIC "-//W3C//DTD SVG 1.1//EN"
 "http://www.w3.org/Graphics/SVG/1.1/DTD/svg11.dtd">
<!-- Generated by graphviz version 2.40.1 (20161225.0304)
 -->
<!-- Title: o2::framework::MakeRootTreeWriterSpec::BranchDefinition&lt; T &gt; Pages: 1 -->
<svg width="879pt" height="558pt"
 viewBox="0.00 0.00 878.50 558.00" xmlns="http://www.w3.org/2000/svg" xmlns:xlink="http://www.w3.org/1999/xlink">
<g id="graph0" class="graph" transform="scale(1 1) rotate(0) translate(4 554)">
<title>o2::framework::MakeRootTreeWriterSpec::BranchDefinition&lt; T &gt;</title>
<!-- Node3 -->
<g id="node1" class="node">
<title>Node3</title>
<polygon fill="#bfbfbf" stroke="#000000" points="599,-.5 599,-90.5 784,-90.5 784,-.5 599,-.5"/>
<text text-anchor="start" x="607" y="-78.5" font-family="Helvetica,sans-Serif" font-size="10.00" fill="#000000">o2::framework::MakeRootTree</text>
<text text-anchor="middle" x="691.5" y="-67.5" font-family="Helvetica,sans-Serif" font-size="10.00" fill="#000000">WriterSpec::BranchDefinition&lt; T &gt;</text>
<polyline fill="none" stroke="#000000" points="599,-60.5 784,-60.5 "/>
<text text-anchor="middle" x="691.5" y="-48.5" font-family="Helvetica,sans-Serif" font-size="10.00" fill="#000000"> </text>
<polyline fill="none" stroke="#000000" points="599,-41.5 784,-41.5 "/>
<text text-anchor="start" x="607" y="-29.5" font-family="Helvetica,sans-Serif" font-size="10.00" fill="#000000">+ BranchDefinition()</text>
<text text-anchor="start" x="607" y="-18.5" font-family="Helvetica,sans-Serif" font-size="10.00" fill="#000000">+ BranchDefinition()</text>
<text text-anchor="start" x="607" y="-7.5" font-family="Helvetica,sans-Serif" font-size="10.00" fill="#000000">+ BranchDefinition()</text>
</g>
<!-- Node4 -->
<g id="node2" class="node">
<title>Node4</title>
<g id="a_node2"><a xlink:href="../../d6/d72/structo2_1_1framework_1_1RootTreeWriter_1_1BranchDef.html" target="_top" xlink:title="{o2::framework::RootTreeWriter\l::BranchDef\&lt; T, InputSpec,\l KeyExtractor \&gt;\n||+ BranchDef()\l+ BranchDef()\l+ BranchDef()\l+ init()\l+ assertNoMatchingType()\l}">
<polygon fill="none" stroke="#000000" points="357,-128.5 357,-251.5 522,-251.5 522,-128.5 357,-128.5"/>
<text text-anchor="start" x="365" y="-239.5" font-family="Helvetica,sans-Serif" font-size="10.00" fill="#000000">o2::framework::RootTreeWriter</text>
<text text-anchor="start" x="365" y="-228.5" font-family="Helvetica,sans-Serif" font-size="10.00" fill="#000000">::BranchDef&lt; T, InputSpec,</text>
<text text-anchor="middle" x="439.5" y="-217.5" font-family="Helvetica,sans-Serif" font-size="10.00" fill="#000000"> KeyExtractor &gt;</text>
<polyline fill="none" stroke="#000000" points="357,-210.5 522,-210.5 "/>
<text text-anchor="middle" x="439.5" y="-198.5" font-family="Helvetica,sans-Serif" font-size="10.00" fill="#000000"> </text>
<polyline fill="none" stroke="#000000" points="357,-191.5 522,-191.5 "/>
<text text-anchor="start" x="365" y="-179.5" font-family="Helvetica,sans-Serif" font-size="10.00" fill="#000000">+ BranchDef()</text>
<text text-anchor="start" x="365" y="-168.5" font-family="Helvetica,sans-Serif" font-size="10.00" fill="#000000">+ BranchDef()</text>
<text text-anchor="start" x="365" y="-157.5" font-family="Helvetica,sans-Serif" font-size="10.00" fill="#000000">+ BranchDef()</text>
<text text-anchor="start" x="365" y="-146.5" font-family="Helvetica,sans-Serif" font-size="10.00" fill="#000000">+ init()</text>
<text text-anchor="start" x="365" y="-135.5" font-family="Helvetica,sans-Serif" font-size="10.00" fill="#000000">+ assertNoMatchingType()</text>
</a>
</g>
</g>
<!-- Node4&#45;&gt;Node3 -->
<g id="edge1" class="edge">
<title>Node4&#45;&gt;Node3</title>
<path fill="none" stroke="#191970" d="M530.9943,-137.536C557.751,-122.1934 586.757,-105.561 612.6566,-90.7098"/>
<polygon fill="none" stroke="#191970" points="528.9482,-134.6746 522.0142,-142.6853 532.4303,-140.7471 528.9482,-134.6746"/>
</g>
<!-- Node5 -->
<g id="node3" class="node">
<title>Node5</title>
<polygon fill="none" stroke="#bfbfbf" points="0,-481.5 0,-538.5 115,-538.5 115,-481.5 0,-481.5"/>
<text text-anchor="middle" x="57.5" y="-526.5" font-family="Helvetica,sans-Serif" font-size="10.00" fill="#000000">vector&lt; key_type &gt;</text>
<polyline fill="none" stroke="#bfbfbf" points="0,-519.5 115,-519.5 "/>
<text text-anchor="middle" x="57.5" y="-507.5" font-family="Helvetica,sans-Serif" font-size="10.00" fill="#000000"> </text>
<polyline fill="none" stroke="#bfbfbf" points="0,-500.5 115,-500.5 "/>
<text text-anchor="middle" x="57.5" y="-488.5" font-family="Helvetica,sans-Serif" font-size="10.00" fill="#000000"> </text>
</g>
<!-- Node5&#45;&gt;Node4 -->
<g id="edge2" class="edge">
<title>Node5&#45;&gt;Node4</title>
<path fill="none" stroke="#404040" d="M58.6108,-481.3115C61.8258,-436.8256 74.1998,-350.9314 121.5,-299 152.0587,-265.4494 262.8466,-232.436 345.1085,-211.6889"/>
<polygon fill="none" stroke="#404040" points="345.1268,-211.6845 349.9808,-206.3517 356.7703,-208.7812 351.9163,-214.114 345.1268,-211.6845"/>
<text text-anchor="middle" x="139" y="-358.5" font-family="Helvetica,sans-Serif" font-size="10.00" fill="#000000"> +keys</text>
</g>
<!-- Node11 -->
<g id="node9" class="node">
<title>Node11</title>
<g id="a_node9"><a xlink:href="../../d6/d72/structo2_1_1framework_1_1RootTreeWriter_1_1BranchDef.html" target="_top" xlink:title="BranchDef is used to define the mapping between inputs and branches. ">
<polygon fill="none" stroke="#000000" points="322,-299.5 322,-422.5 487,-422.5 487,-299.5 322,-299.5"/>
<text text-anchor="start" x="330" y="-410.5" font-family="Helvetica,sans-Serif" font-size="10.00" fill="#000000">o2::framework::RootTreeWriter</text>
<text text-anchor="start" x="330" y="-399.5" font-family="Helvetica,sans-Serif" font-size="10.00" fill="#000000">::BranchDef&lt; T, KeyType,</text>
<text text-anchor="middle" x="404.5" y="-388.5" font-family="Helvetica,sans-Serif" font-size="10.00" fill="#000000"> KeyExtractor &gt;</text>
<polyline fill="none" stroke="#000000" points="322,-381.5 487,-381.5 "/>
<text text-anchor="middle" x="404.5" y="-369.5" font-family="Helvetica,sans-Serif" font-size="10.00" fill="#000000"> </text>
<polyline fill="none" stroke="#000000" points="322,-362.5 487,-362.5 "/>
<text text-anchor="start" x="330" y="-350.5" font-family="Helvetica,sans-Serif" font-size="10.00" fill="#000000">+ BranchDef()</text>
<text text-anchor="start" x="330" y="-339.5" font-family="Helvetica,sans-Serif" font-size="10.00" fill="#000000">+ BranchDef()</text>
<text text-anchor="start" x="330" y="-328.5" font-family="Helvetica,sans-Serif" font-size="10.00" fill="#000000">+ BranchDef()</text>
<text text-anchor="start" x="330" y="-317.5" font-family="Helvetica,sans-Serif" font-size="10.00" fill="#000000">+ init()</text>
<text text-anchor="start" x="330" y="-306.5" font-family="Helvetica,sans-Serif" font-size="10.00" fill="#000000">+ assertNoMatchingType()</text>
</a>
</g>
</g>
<!-- Node5&#45;&gt;Node11 -->
<g id="edge9" class="edge">
<title>Node5&#45;&gt;Node11</title>
<path fill="none" stroke="#404040" d="M101.6405,-481.306C109.0905,-477.1504 116.8821,-473.2028 124.5,-470 171.1076,-450.4046 185.5095,-453.4969 234.5,-441 266.8793,-432.7404 276.7903,-436.174 307.5,-423 308.5447,-422.5519 309.5908,-422.093 310.6378,-421.6242"/>
<polygon fill="none" stroke="#404040" points="311.0392,-421.4321 314.7238,-415.2333 321.8628,-416.2504 318.1783,-422.4491 311.0392,-421.4321"/>
<text text-anchor="middle" x="252" y="-444" font-family="Helvetica,sans-Serif" font-size="10.00" fill="#000000"> +keys</text>
</g>
<!-- Node6 -->
<g id="node4" class="node">
<title>Node6</title>
<polygon fill="none" stroke="#bfbfbf" points="456,-481.5 456,-538.5 501,-538.5 501,-481.5 456,-481.5"/>
<text text-anchor="middle" x="478.5" y="-526.5" font-family="Helvetica,sans-Serif" font-size="10.00" fill="#000000">size_t</text>
<polyline fill="none" stroke="#bfbfbf" points="456,-519.5 501,-519.5 "/>
<text text-anchor="middle" x="478.5" y="-507.5" font-family="Helvetica,sans-Serif" font-size="10.00" fill="#000000"> </text>
<polyline fill="none" stroke="#bfbfbf" points="456,-500.5 501,-500.5 "/>
<text text-anchor="middle" x="478.5" y="-488.5" font-family="Helvetica,sans-Serif" font-size="10.00" fill="#000000"> </text>
</g>
<!-- Node6&#45;&gt;Node4 -->
<g id="edge3" class="edge">
<title>Node6&#45;&gt;Node4</title>
<path fill="none" stroke="#404040" d="M497.3874,-481.3365C502.3288,-472.3207 506.9756,-462.0786 509.5,-452 529.1535,-373.535 537.9508,-345.7203 509.5,-270 508.5507,-267.4734 507.4813,-264.9744 506.3088,-262.5081"/>
<polygon fill="none" stroke="#404040" points="506.2855,-262.465 499.9071,-259.1011 500.5591,-251.9195 506.9375,-255.2835 506.2855,-262.465"/>
<text text-anchor="middle" x="564" y="-358.5" font-family="Helvetica,sans-Serif" font-size="10.00" fill="#000000"> +nofBranches</text>
</g>
<!-- Node6&#45;&gt;Node11 -->
<g id="edge10" class="edge">
<title>Node6&#45;&gt;Node11</title>
<path fill="none" stroke="#404040" d="M455.8431,-482.1541C449.0247,-472.9224 441.9218,-462.3525 436.5,-452 433.4893,-446.2512 430.6568,-440.1578 428.0176,-433.9558"/>
<polygon fill="none" stroke="#404040" points="427.9756,-433.8517 422.0187,-429.7876 423.4791,-422.7259 429.4359,-426.79 427.9756,-433.8517"/>
<text text-anchor="middle" x="473" y="-444" font-family="Helvetica,sans-Serif" font-size="10.00" fill="#000000"> +nofBranches</text>
</g>
<!-- Node7 -->
<g id="node5" class="node">
<title>Node7</title>
<polygon fill="none" stroke="#bfbfbf" points="533,-470.5 533,-549.5 672,-549.5 672,-470.5 533,-470.5"/>
<text text-anchor="start" x="541" y="-537.5" font-family="Helvetica,sans-Serif" font-size="10.00" fill="#000000">variant&lt; std::monostate,</text>
<text text-anchor="start" x="541" y="-526.5" font-family="Helvetica,sans-Serif" font-size="10.00" fill="#000000"> Fill, FillExt, Spectator,</text>
<text text-anchor="middle" x="602.5" y="-515.5" font-family="Helvetica,sans-Serif" font-size="10.00" fill="#000000"> SpectatorExt &gt;</text>
<polyline fill="none" stroke="#bfbfbf" points="533,-508.5 672,-508.5 "/>
<text text-anchor="middle" x="602.5" y="-496.5" font-family="Helvetica,sans-Serif" font-size="10.00" fill="#000000"> </text>
<polyline fill="none" stroke="#bfbfbf" points="533,-489.5 672,-489.5 "/>
<text text-anchor="middle" x="602.5" y="-477.5" font-family="Helvetica,sans-Serif" font-size="10.00" fill="#000000"> </text>
</g>
<!-- Node7&#45;&gt;Node4 -->
<g id="edge4" class="edge">
<title>Node7&#45;&gt;Node4</title>
<path fill="none" stroke="#404040" d="M613.6573,-470.3602C623.8572,-425.8146 633.394,-352.717 604.5,-299 588.6393,-269.5133 560.9175,-246.6741 532.6734,-229.6969"/>
<polygon fill="none" stroke="#404040" points="532.6652,-229.6922 525.4696,-230.1658 522.265,-223.7059 529.4605,-223.2323 532.6652,-229.6922"/>
<text text-anchor="middle" x="649.5" y="-358.5" font-family="Helvetica,sans-Serif" font-size="10.00" fill="#000000"> +callback</text>
</g>
<!-- Node7&#45;&gt;Node11 -->
<g id="edge11" class="edge">
<title>Node7&#45;&gt;Node11</title>
<path fill="none" stroke="#404040" d="M551.8472,-470.3603C539.36,-460.6904 525.9862,-450.4197 513.5,-441 508.1711,-436.9798 502.6811,-432.8656 497.1315,-428.7279"/>
<polygon fill="none" stroke="#404040" points="496.73,-428.4295 489.5284,-428.0597 487.0998,-421.2698 494.3015,-421.6396 496.73,-428.4295"/>
<text text-anchor="middle" x="551.5" y="-444" font-family="Helvetica,sans-Serif" font-size="10.00" fill="#000000"> +callback</text>
</g>
<!-- Node8 -->
<g id="node6" class="node">
<title>Node8</title>
<polygon fill="none" stroke="#bfbfbf" points="737,-481.5 737,-538.5 766,-538.5 766,-481.5 737,-481.5"/>
<text text-anchor="middle" x="751.5" y="-526.5" font-family="Helvetica,sans-Serif" font-size="10.00" fill="#000000">int</text>
<polyline fill="none" stroke="#bfbfbf" points="737,-519.5 766,-519.5 "/>
<text text-anchor="middle" x="751.5" y="-507.5" font-family="Helvetica,sans-Serif" font-size="10.00" fill="#000000"> </text>
<polyline fill="none" stroke="#bfbfbf" points="737,-500.5 766,-500.5 "/>
<text text-anchor="middle" x="751.5" y="-488.5" font-family="Helvetica,sans-Serif" font-size="10.00" fill="#000000"> </text>
</g>
<!-- Node8&#45;&gt;Node3 -->
<g id="edge15" class="edge">
<title>Node8&#45;&gt;Node3</title>
<path fill="none" stroke="#404040" d="M766.0697,-496.2678C781.7652,-480.3754 805.7938,-452.5743 815.5,-423 832.6854,-370.6369 827.9281,-352.6915 815.5,-299 798.7221,-226.5162 758.2164,-150.8251 728.037,-101.2373"/>
<polygon fill="none" stroke="#404040" points="727.8719,-100.9694 721.3181,-97.9615 721.574,-90.7549 728.1278,-93.7629 727.8719,-100.9694"/>
<text text-anchor="middle" x="840" y="-273" font-family="Helvetica,sans-Serif" font-size="10.00" fill="#000000"> +optionKey</text>
</g>
<!-- Node8&#45;&gt;Node4 -->
<g id="edge5" class="edge">
<title>Node8&#45;&gt;Node4</title>
<path fill="none" stroke="#404040" d="M748.9279,-481.4747C743.5202,-437.2097 727.2163,-351.6096 679.5,-299 641.1469,-256.7138 583.1819,-229.7564 533.8262,-213.2298"/>
<polygon fill="none" stroke="#404040" points="533.5554,-213.1423 526.6163,-215.1043 522.1363,-209.4536 529.0754,-207.4916 533.5554,-213.1423"/>
<text text-anchor="middle" x="774.5" y="-358.5" font-family="Helvetica,sans-Serif" font-size="10.00" fill="#000000"> +branchName</text>
</g>
<!-- Node8&#45;&gt;Node11 -->
<g id="edge12" class="edge">
<title>Node8&#45;&gt;Node11</title>
<path fill="none" stroke="#404040" d="M736.7384,-500.186C722.9244,-491.3412 701.4768,-478.4626 681.5,-470 638.89,-451.9495 626.3165,-452.5288 581.5,-441 546.2047,-431.9205 535.1378,-437.0248 501.5,-423 500.4508,-422.5626 499.4004,-422.1139 498.3492,-421.6549"/>
<polygon fill="none" stroke="#404040" points="497.95,-421.4676 490.819,-422.5392 487.0871,-416.3688 494.2181,-415.2972 497.95,-421.4676"/>
<text text-anchor="middle" x="663.5" y="-444" font-family="Helvetica,sans-Serif" font-size="10.00" fill="#000000"> +branchName</text>
</g>
<!-- Node9 -->
<g id="node7" class="node">
<title>Node9</title>
<polygon fill="none" stroke="#bfbfbf" points="133.5,-476 133.5,-544 249.5,-544 249.5,-476 133.5,-476"/>
<text text-anchor="start" x="141.5" y="-532" font-family="Helvetica,sans-Serif" font-size="10.00" fill="#000000">function&lt; std::string</text>
<text text-anchor="middle" x="191.5" y="-521" font-family="Helvetica,sans-Serif" font-size="10.00" fill="#000000">(std::string, size_t)&gt;</text>
<polyline fill="none" stroke="#bfbfbf" points="133.5,-514 249.5,-514 "/>
<text text-anchor="middle" x="191.5" y="-502" font-family="Helvetica,sans-Serif" font-size="10.00" fill="#000000"> </text>
<polyline fill="none" stroke="#bfbfbf" points="133.5,-495 249.5,-495 "/>
<text text-anchor="middle" x="191.5" y="-483" font-family="Helvetica,sans-Serif" font-size="10.00" fill="#000000"> </text>
</g>
<!-- Node9&#45;&gt;Node4 -->
<g id="edge6" class="edge">
<title>Node9&#45;&gt;Node4</title>
<path fill="none" stroke="#404040" d="M178.0981,-475.6733C163.0639,-430.989 145.0887,-352.3223 180.5,-299 216.9221,-244.1557 286.9189,-216.844 344.9704,-203.2778"/>
<polygon fill="none" stroke="#404040" points="345.0667,-203.2566 350.0613,-198.0553 356.7836,-200.6652 351.789,-205.8665 345.0667,-203.2566"/>
<text text-anchor="middle" x="209" y="-358.5" font-family="Helvetica,sans-Serif" font-size="10.00" fill="#000000"> +getName</text>
</g>
<!-- Node9&#45;&gt;Node11 -->
<g id="edge13" class="edge">
<title>Node9&#45;&gt;Node11</title>
<path fill="none" stroke="#404040" d="M237.1238,-475.9263C252.405,-464.6703 269.599,-452.1737 285.5,-441 294.0093,-435.0204 302.9105,-428.862 311.8491,-422.7422"/>
<polygon fill="none" stroke="#404040" points="312.0243,-422.6227 314.7272,-415.9373 321.9379,-415.8609 319.2351,-422.5463 312.0243,-422.6227"/>
<text text-anchor="middle" x="314" y="-444" font-family="Helvetica,sans-Serif" font-size="10.00" fill="#000000"> +getName</text>
</g>
<!-- Node10 -->
<g id="node8" class="node">
<title>Node10</title>
<polygon fill="none" stroke="#bfbfbf" points="272,-470.5 272,-549.5 393,-549.5 393,-470.5 272,-470.5"/>
<text text-anchor="start" x="280" y="-537.5" font-family="Helvetica,sans-Serif" font-size="10.00" fill="#000000">function&lt; size_t(o2</text>
<text text-anchor="start" x="280" y="-526.5" font-family="Helvetica,sans-Serif" font-size="10.00" fill="#000000">::framework::DataRef</text>
<text text-anchor="middle" x="332.5" y="-515.5" font-family="Helvetica,sans-Serif" font-size="10.00" fill="#000000"> const &amp;)&gt;</text>
<polyline fill="none" stroke="#bfbfbf" points="272,-508.5 393,-508.5 "/>
<text text-anchor="middle" x="332.5" y="-496.5" font-family="Helvetica,sans-Serif" font-size="10.00" fill="#000000"> </text>
<polyline fill="none" stroke="#bfbfbf" points="272,-489.5 393,-489.5 "/>
<text text-anchor="middle" x="332.5" y="-477.5" font-family="Helvetica,sans-Serif" font-size="10.00" fill="#000000"> </text>
</g>
<!-- Node10&#45;&gt;Node4 -->
<g id="edge7" class="edge">
<title>Node10&#45;&gt;Node4</title>
<path fill="none" stroke="#404040" d="M288.4439,-470.1529C276.3716,-456.5218 264.8651,-440.3076 258.5,-423 239.4776,-371.2759 231.3858,-346.9797 258.5,-299 277.7159,-264.9966 312.2588,-240.4227 346.0548,-223.3167"/>
<polygon fill="none" stroke="#404040" points="346.1817,-223.2552 349.8371,-217.0392 356.9809,-218.0227 353.3255,-224.2387 346.1817,-223.2552"/>
<text text-anchor="middle" x="286" y="-358.5" font-family="Helvetica,sans-Serif" font-size="10.00" fill="#000000"> +getIndex</text>
</g>
<!-- Node10&#45;&gt;Node11 -->
<g id="edge14" class="edge">
<title>Node10&#45;&gt;Node11</title>
<path fill="none" stroke="#404040" d="M341.1553,-470.1949C343.9005,-460.4326 347.3328,-450.161 351.5,-441 352.621,-438.5357 353.8132,-436.0619 355.0631,-433.5897"/>
<polygon fill="none" stroke="#404040" points="355.185,-433.3631 354.5053,-426.184 360.8707,-422.7955 361.5504,-429.9745 355.185,-433.3631"/>
<text text-anchor="middle" x="379" y="-444" font-family="Helvetica,sans-Serif" font-size="10.00" fill="#000000"> +getIndex</text>
</g>
<!-- Node11&#45;&gt;Node4 -->
<g id="edge8" class="edge">
<title>Node11&#45;&gt;Node4</title>
<path fill="none" stroke="#ffa500" d="M352.5781,-289.0855C352.0025,-282.6999 352.8097,-276.2775 355.5,-270 358.2369,-263.6139 361.7617,-257.496 365.8124,-251.6902"/>
<polygon fill="#ffa500" stroke="#ffa500" points="349.1774,-289.9311 354.5487,-299.0634 356.0447,-288.5747 349.1774,-289.9311"/>
<text text-anchor="middle" x="432.5" y="-273" font-family="Helvetica,sans-Serif" font-size="10.00" fill="#000000"> &lt; T, InputSpec, KeyExtractor &gt;</text>
</g>
</g>
</svg>
