<?xml version="1.0" encoding="UTF-8" standalone="no"?>
<!DOCTYPE svg PUBLIC "-//W3C//DTD SVG 1.1//EN"
 "http://www.w3.org/Graphics/SVG/1.1/DTD/svg11.dtd">
<!-- Generated by graphviz version 2.40.1 (20161225.0304)
 -->
<!-- Title: o2::framework::is_boost_serializable_base&lt; Type, Archive, typename &gt; Pages: 1 -->
<svg width="388pt" height="827pt"
 viewBox="0.00 0.00 387.50 827.00" xmlns="http://www.w3.org/2000/svg" xmlns:xlink="http://www.w3.org/1999/xlink">
<g id="graph0" class="graph" transform="scale(1 1) rotate(0) translate(4 823)">
<title>o2::framework::is_boost_serializable_base&lt; Type, Archive, typename &gt;</title>
<!-- Node0 -->
<g id="node1" class="node">
<title>Node0</title>
<polygon fill="#bfbfbf" stroke="#000000" points="69,-644.5 69,-723.5 212,-723.5 212,-644.5 69,-644.5"/>
<text text-anchor="start" x="77" y="-711.5" font-family="Helvetica,sans-Serif" font-size="10.00" fill="#000000">o2::framework::is_boost</text>
<text text-anchor="start" x="77" y="-700.5" font-family="Helvetica,sans-Serif" font-size="10.00" fill="#000000">_serializable_base&lt; Type,</text>
<text text-anchor="middle" x="140.5" y="-689.5" font-family="Helvetica,sans-Serif" font-size="10.00" fill="#000000"> Archive, typename &gt;</text>
<polyline fill="none" stroke="#000000" points="69,-682.5 212,-682.5 "/>
<text text-anchor="middle" x="140.5" y="-670.5" font-family="Helvetica,sans-Serif" font-size="10.00" fill="#000000"> </text>
<polyline fill="none" stroke="#000000" points="69,-663.5 212,-663.5 "/>
<text text-anchor="middle" x="140.5" y="-651.5" font-family="Helvetica,sans-Serif" font-size="10.00" fill="#000000"> </text>
</g>
<!-- Node2 -->
<g id="node3" class="node">
<title>Node2</title>
<g id="a_node3"><a xlink:href="../../d5/dbf/structo2_1_1framework_1_1is__boost__serializable__base.html" target="_top" xlink:title="{o2::framework::is_boost\l_serializable_base\&lt; Type,\l boost::archive::binary\l_oarchive \&gt;\n||}">
<polygon fill="none" stroke="#000000" points="0,-397.5 0,-487.5 143,-487.5 143,-397.5 0,-397.5"/>
<text text-anchor="start" x="8" y="-475.5" font-family="Helvetica,sans-Serif" font-size="10.00" fill="#000000">o2::framework::is_boost</text>
<text text-anchor="start" x="8" y="-464.5" font-family="Helvetica,sans-Serif" font-size="10.00" fill="#000000">_serializable_base&lt; Type,</text>
<text text-anchor="start" x="8" y="-453.5" font-family="Helvetica,sans-Serif" font-size="10.00" fill="#000000"> boost::archive::binary</text>
<text text-anchor="middle" x="71.5" y="-442.5" font-family="Helvetica,sans-Serif" font-size="10.00" fill="#000000">_oarchive &gt;</text>
<polyline fill="none" stroke="#000000" points="0,-435.5 143,-435.5 "/>
<text text-anchor="middle" x="71.5" y="-423.5" font-family="Helvetica,sans-Serif" font-size="10.00" fill="#000000"> </text>
<polyline fill="none" stroke="#000000" points="0,-416.5 143,-416.5 "/>
<text text-anchor="middle" x="71.5" y="-404.5" font-family="Helvetica,sans-Serif" font-size="10.00" fill="#000000"> </text>
</a>
</g>
</g>
<!-- Node0&#45;&gt;Node2 -->
<g id="edge2" class="edge">
<title>Node0&#45;&gt;Node2</title>
<path fill="none" stroke="#ffa500" d="M79.2353,-636.063C77.0535,-632.8422 75.1156,-629.4851 73.5,-626 53.2667,-582.3539 56.2065,-526.354 62.0219,-487.7591"/>
<polygon fill="#ffa500" stroke="#ffa500" points="76.6633,-638.4606 85.5268,-644.2648 82.2174,-634.2001 76.6633,-638.4606"/>
<text text-anchor="start" x="73.5" y="-618" font-family="Helvetica,sans-Serif" font-size="10.00" fill="#000000"> &lt; Type, boost::archive</text>
<text text-anchor="middle" x="129.5" y="-607" font-family="Helvetica,sans-Serif" font-size="10.00" fill="#000000">::binary_oarchive &gt;</text>
</g>
<!-- Node5 -->
<g id="node6" class="node">
<title>Node5</title>
<g id="a_node6"><a xlink:href="../../d5/dbf/structo2_1_1framework_1_1is__boost__serializable__base.html" target="_top" xlink:title="{o2::framework::is_boost\l_serializable_base\&lt; Type,\l Archive \&gt;\n||}">
<polygon fill="none" stroke="#000000" points="143,-506.5 143,-585.5 286,-585.5 286,-506.5 143,-506.5"/>
<text text-anchor="start" x="151" y="-573.5" font-family="Helvetica,sans-Serif" font-size="10.00" fill="#000000">o2::framework::is_boost</text>
<text text-anchor="start" x="151" y="-562.5" font-family="Helvetica,sans-Serif" font-size="10.00" fill="#000000">_serializable_base&lt; Type,</text>
<text text-anchor="middle" x="214.5" y="-551.5" font-family="Helvetica,sans-Serif" font-size="10.00" fill="#000000"> Archive &gt;</text>
<polyline fill="none" stroke="#000000" points="143,-544.5 286,-544.5 "/>
<text text-anchor="middle" x="214.5" y="-532.5" font-family="Helvetica,sans-Serif" font-size="10.00" fill="#000000"> </text>
<polyline fill="none" stroke="#000000" points="143,-525.5 286,-525.5 "/>
<text text-anchor="middle" x="214.5" y="-513.5" font-family="Helvetica,sans-Serif" font-size="10.00" fill="#000000"> </text>
</a>
</g>
</g>
<!-- Node0&#45;&gt;Node5 -->
<g id="edge5" class="edge">
<title>Node0&#45;&gt;Node5</title>
<path fill="none" stroke="#ffa500" d="M183.2951,-636.1483C185.5327,-632.8089 187.6262,-629.4121 189.5,-626 196.364,-613.5004 201.6364,-598.8472 205.5299,-585.521"/>
<polygon fill="#ffa500" stroke="#ffa500" points="180.4336,-634.1329 177.4793,-644.3076 186.1337,-638.196 180.4336,-634.1329"/>
<text text-anchor="middle" x="245" y="-612.5" font-family="Helvetica,sans-Serif" font-size="10.00" fill="#000000"> &lt; Type, Archive &gt;</text>
</g>
<!-- Node1 -->
<g id="node2" class="node">
<title>Node1</title>
<polygon fill="none" stroke="#bfbfbf" points="106.5,-761.5 106.5,-818.5 174.5,-818.5 174.5,-761.5 106.5,-761.5"/>
<text text-anchor="middle" x="140.5" y="-806.5" font-family="Helvetica,sans-Serif" font-size="10.00" fill="#000000">false_type</text>
<polyline fill="none" stroke="#bfbfbf" points="106.5,-799.5 174.5,-799.5 "/>
<text text-anchor="middle" x="140.5" y="-787.5" font-family="Helvetica,sans-Serif" font-size="10.00" fill="#000000"> </text>
<polyline fill="none" stroke="#bfbfbf" points="106.5,-780.5 174.5,-780.5 "/>
<text text-anchor="middle" x="140.5" y="-768.5" font-family="Helvetica,sans-Serif" font-size="10.00" fill="#000000"> </text>
</g>
<!-- Node1&#45;&gt;Node0 -->
<g id="edge1" class="edge">
<title>Node1&#45;&gt;Node0</title>
<path fill="none" stroke="#191970" d="M140.5,-751.1908C140.5,-742.2839 140.5,-732.7999 140.5,-723.8499"/>
<polygon fill="none" stroke="#191970" points="137.0001,-751.3148 140.5,-761.3149 144.0001,-751.3149 137.0001,-751.3148"/>
</g>
<!-- Node3 -->
<g id="node4" class="node">
<title>Node3</title>
<g id="a_node4"><a xlink:href="../../d2/d70/structo2_1_1framework_1_1is__boost__serializable.html" target="_top" xlink:title="{o2::framework::is_boost\l_serializable\&lt; Type::value\l_type, boost::archive::binary\l_oarchive \&gt;\n||}">
<polygon fill="none" stroke="#000000" points="3,-139.5 3,-229.5 158,-229.5 158,-139.5 3,-139.5"/>
<text text-anchor="start" x="11" y="-217.5" font-family="Helvetica,sans-Serif" font-size="10.00" fill="#000000">o2::framework::is_boost</text>
<text text-anchor="start" x="11" y="-206.5" font-family="Helvetica,sans-Serif" font-size="10.00" fill="#000000">_serializable&lt; Type::value</text>
<text text-anchor="start" x="11" y="-195.5" font-family="Helvetica,sans-Serif" font-size="10.00" fill="#000000">_type, boost::archive::binary</text>
<text text-anchor="middle" x="80.5" y="-184.5" font-family="Helvetica,sans-Serif" font-size="10.00" fill="#000000">_oarchive &gt;</text>
<polyline fill="none" stroke="#000000" points="3,-177.5 158,-177.5 "/>
<text text-anchor="middle" x="80.5" y="-165.5" font-family="Helvetica,sans-Serif" font-size="10.00" fill="#000000"> </text>
<polyline fill="none" stroke="#000000" points="3,-158.5 158,-158.5 "/>
<text text-anchor="middle" x="80.5" y="-146.5" font-family="Helvetica,sans-Serif" font-size="10.00" fill="#000000"> </text>
</a>
</g>
</g>
<!-- Node2&#45;&gt;Node3 -->
<g id="edge3" class="edge">
<title>Node2&#45;&gt;Node3</title>
<path fill="none" stroke="#191970" d="M73.4273,-387.2514C75.0671,-340.2428 77.3933,-273.5578 78.9238,-229.6835"/>
<polygon fill="none" stroke="#191970" points="69.9288,-387.1486 73.078,-397.2646 76.9246,-387.3927 69.9288,-387.1486"/>
</g>
<!-- Node4 -->
<g id="node5" class="node">
<title>Node4</title>
<g id="a_node5"><a xlink:href="../../da/d5c/structo2_1_1framework_1_1is__boost__serializable_3_01Type_00_01boost_1_1archive_1_1binary__oarchf8a18e484fa159a1d92458bf9fe69b23.html" target="_top" xlink:title="{o2::framework::is_boost\l_serializable\&lt; Type, boost\l::archive::binary_oarchive,\l std::void_t\&lt; typename Type\l::value_type \&gt; \&gt;\n||}">
<polygon fill="none" stroke="#000000" points="2,-.5 2,-101.5 159,-101.5 159,-.5 2,-.5"/>
<text text-anchor="start" x="10" y="-89.5" font-family="Helvetica,sans-Serif" font-size="10.00" fill="#000000">o2::framework::is_boost</text>
<text text-anchor="start" x="10" y="-78.5" font-family="Helvetica,sans-Serif" font-size="10.00" fill="#000000">_serializable&lt; Type, boost</text>
<text text-anchor="start" x="10" y="-67.5" font-family="Helvetica,sans-Serif" font-size="10.00" fill="#000000">::archive::binary_oarchive,</text>
<text text-anchor="start" x="10" y="-56.5" font-family="Helvetica,sans-Serif" font-size="10.00" fill="#000000"> std::void_t&lt; typename Type</text>
<text text-anchor="middle" x="80.5" y="-45.5" font-family="Helvetica,sans-Serif" font-size="10.00" fill="#000000">::value_type &gt; &gt;</text>
<polyline fill="none" stroke="#000000" points="2,-38.5 159,-38.5 "/>
<text text-anchor="middle" x="80.5" y="-26.5" font-family="Helvetica,sans-Serif" font-size="10.00" fill="#000000"> </text>
<polyline fill="none" stroke="#000000" points="2,-19.5 159,-19.5 "/>
<text text-anchor="middle" x="80.5" y="-7.5" font-family="Helvetica,sans-Serif" font-size="10.00" fill="#000000"> </text>
</a>
</g>
</g>
<!-- Node3&#45;&gt;Node4 -->
<g id="edge4" class="edge">
<title>Node3&#45;&gt;Node4</title>
<path fill="none" stroke="#191970" d="M80.5,-129.175C80.5,-120.0608 80.5,-110.6537 80.5,-101.661"/>
<polygon fill="none" stroke="#191970" points="77.0001,-129.303 80.5,-139.303 84.0001,-129.303 77.0001,-129.303"/>
</g>
<!-- Node6 -->
<g id="node7" class="node">
<title>Node6</title>
<g id="a_node7"><a xlink:href="../../d2/d70/structo2_1_1framework_1_1is__boost__serializable.html" target="_top" xlink:title="{o2::framework::is_boost\l_serializable\&lt; Type::value\l_type, Archive \&gt;\n||}">
<polygon fill="none" stroke="#000000" points="228,-145 228,-224 373,-224 373,-145 228,-145"/>
<text text-anchor="start" x="236" y="-212" font-family="Helvetica,sans-Serif" font-size="10.00" fill="#000000">o2::framework::is_boost</text>
<text text-anchor="start" x="236" y="-201" font-family="Helvetica,sans-Serif" font-size="10.00" fill="#000000">_serializable&lt; Type::value</text>
<text text-anchor="middle" x="300.5" y="-190" font-family="Helvetica,sans-Serif" font-size="10.00" fill="#000000">_type, Archive &gt;</text>
<polyline fill="none" stroke="#000000" points="228,-183 373,-183 "/>
<text text-anchor="middle" x="300.5" y="-171" font-family="Helvetica,sans-Serif" font-size="10.00" fill="#000000"> </text>
<polyline fill="none" stroke="#000000" points="228,-164 373,-164 "/>
<text text-anchor="middle" x="300.5" y="-152" font-family="Helvetica,sans-Serif" font-size="10.00" fill="#000000"> </text>
</a>
</g>
</g>
<!-- Node5&#45;&gt;Node6 -->
<g id="edge6" class="edge">
<title>Node5&#45;&gt;Node6</title>
<path fill="none" stroke="#191970" d="M245.4902,-497.4378C275.8752,-446.0666 319.2303,-361.4663 330.5,-281 332.5343,-266.4751 333.7104,-262.311 330.5,-248 328.7118,-240.029 325.8048,-231.8808 322.487,-224.1941"/>
<polygon fill="none" stroke="#191970" points="242.3037,-495.9464 240.1671,-506.3236 248.3086,-499.5437 242.3037,-495.9464"/>
</g>
<!-- Node8 -->
<g id="node9" class="node">
<title>Node8</title>
<g id="a_node9"><a xlink:href="../../d2/d70/structo2_1_1framework_1_1is__boost__serializable.html" target="_top" xlink:title="{o2::framework::is_boost\l_serializable\&lt; Type, Archive,\l typename \&gt;\n||}">
<polygon fill="none" stroke="#000000" points="135.5,-299.5 135.5,-378.5 293.5,-378.5 293.5,-299.5 135.5,-299.5"/>
<text text-anchor="start" x="143.5" y="-366.5" font-family="Helvetica,sans-Serif" font-size="10.00" fill="#000000">o2::framework::is_boost</text>
<text text-anchor="start" x="143.5" y="-355.5" font-family="Helvetica,sans-Serif" font-size="10.00" fill="#000000">_serializable&lt; Type, Archive,</text>
<text text-anchor="middle" x="214.5" y="-344.5" font-family="Helvetica,sans-Serif" font-size="10.00" fill="#000000"> typename &gt;</text>
<polyline fill="none" stroke="#000000" points="135.5,-337.5 293.5,-337.5 "/>
<text text-anchor="middle" x="214.5" y="-325.5" font-family="Helvetica,sans-Serif" font-size="10.00" fill="#000000"> </text>
<polyline fill="none" stroke="#000000" points="135.5,-318.5 293.5,-318.5 "/>
<text text-anchor="middle" x="214.5" y="-306.5" font-family="Helvetica,sans-Serif" font-size="10.00" fill="#000000"> </text>
</a>
</g>
</g>
<!-- Node5&#45;&gt;Node8 -->
<g id="edge8" class="edge">
<title>Node5&#45;&gt;Node8</title>
<path fill="none" stroke="#191970" d="M214.5,-495.8132C214.5,-459.8657 214.5,-412.1156 214.5,-378.7892"/>
<polygon fill="none" stroke="#191970" points="211.0001,-496.0883 214.5,-506.0883 218.0001,-496.0884 211.0001,-496.0883"/>
</g>
<!-- Node7 -->
<g id="node8" class="node">
<title>Node7</title>
<g id="a_node8"><a xlink:href="../../d8/ddd/structo2_1_1framework_1_1is__boost__serializable_3_01Type_00_01Archive_00_01std_1_1void__t_3_01t52f9ef0f32611a33ca82db27a4fb33ed.html" target="_top" xlink:title="{o2::framework::is_boost\l_serializable\&lt; Type, Archive,\l std::void_t\&lt; typename Type\l::value_type \&gt; \&gt;\n||}">
<polygon fill="none" stroke="#000000" points="221.5,-6 221.5,-96 379.5,-96 379.5,-6 221.5,-6"/>
<text text-anchor="start" x="229.5" y="-84" font-family="Helvetica,sans-Serif" font-size="10.00" fill="#000000">o2::framework::is_boost</text>
<text text-anchor="start" x="229.5" y="-73" font-family="Helvetica,sans-Serif" font-size="10.00" fill="#000000">_serializable&lt; Type, Archive,</text>
<text text-anchor="start" x="229.5" y="-62" font-family="Helvetica,sans-Serif" font-size="10.00" fill="#000000"> std::void_t&lt; typename Type</text>
<text text-anchor="middle" x="300.5" y="-51" font-family="Helvetica,sans-Serif" font-size="10.00" fill="#000000">::value_type &gt; &gt;</text>
<polyline fill="none" stroke="#000000" points="221.5,-44 379.5,-44 "/>
<text text-anchor="middle" x="300.5" y="-32" font-family="Helvetica,sans-Serif" font-size="10.00" fill="#000000"> </text>
<polyline fill="none" stroke="#000000" points="221.5,-25 379.5,-25 "/>
<text text-anchor="middle" x="300.5" y="-13" font-family="Helvetica,sans-Serif" font-size="10.00" fill="#000000"> </text>
</a>
</g>
</g>
<!-- Node6&#45;&gt;Node7 -->
<g id="edge7" class="edge">
<title>Node6&#45;&gt;Node7</title>
<path fill="none" stroke="#191970" d="M300.5,-134.538C300.5,-122.0271 300.5,-108.6748 300.5,-96.3993"/>
<polygon fill="none" stroke="#191970" points="297.0001,-134.807 300.5,-144.807 304.0001,-134.8071 297.0001,-134.807"/>
</g>
<!-- Node8&#45;&gt;Node3 -->
<g id="edge9" class="edge">
<title>Node8&#45;&gt;Node3</title>
<path fill="none" stroke="#ffa500" d="M126.9796,-300.6702C119.3487,-294.8834 112.3276,-288.3471 106.5,-281 94.9628,-266.4546 88.5278,-247.2099 84.9455,-229.7352"/>
<polygon fill="#ffa500" stroke="#ffa500" points="125.2823,-303.7559 135.4718,-306.6582 129.3162,-298.0351 125.2823,-303.7559"/>
<text text-anchor="start" x="106.5" y="-273" font-family="Helvetica,sans-Serif" font-size="10.00" fill="#000000"> &lt; Type::value_type,</text>
<text text-anchor="start" x="106.5" y="-262" font-family="Helvetica,sans-Serif" font-size="10.00" fill="#000000"> boost::archive::binary</text>
<text text-anchor="middle" x="161" y="-251" font-family="Helvetica,sans-Serif" font-size="10.00" fill="#000000">_oarchive &gt;</text>
</g>
<!-- Node8&#45;&gt;Node6 -->
<g id="edge10" class="edge">
<title>Node8&#45;&gt;Node6</title>
<path fill="none" stroke="#ffa500" d="M217.2153,-289.4591C219.5412,-275.4152 223.58,-260.546 230.5,-248 235.2548,-239.3795 241.626,-231.3117 248.5947,-224.0111"/>
<polygon fill="#ffa500" stroke="#ffa500" points="213.7307,-289.1052 215.8077,-299.4945 220.6629,-290.0776 213.7307,-289.1052"/>
<text text-anchor="start" x="230.5" y="-267.5" font-family="Helvetica,sans-Serif" font-size="10.00" fill="#000000"> &lt; Type::value_type,</text>
<text text-anchor="middle" x="280.5" y="-256.5" font-family="Helvetica,sans-Serif" font-size="10.00" fill="#000000"> Archive &gt;</text>
</g>
</g>
</svg>
