<?xml version="1.0" encoding="UTF-8" standalone="no"?>
<!DOCTYPE svg PUBLIC "-//W3C//DTD SVG 1.1//EN"
 "http://www.w3.org/Graphics/SVG/1.1/DTD/svg11.dtd">
<!-- Generated by graphviz version 2.40.1 (20161225.0304)
 -->
<!-- Title: /home/travis/build/AliceO2Group/AliceO2/Detectors/ITSMFT/ITS/tracking/include/ITStracking/TrackerTraits.h Pages: 1 -->
<svg width="1750pt" height="531pt"
 viewBox="0.00 0.00 1749.50 531.00" xmlns="http://www.w3.org/2000/svg" xmlns:xlink="http://www.w3.org/1999/xlink">
<g id="graph0" class="graph" transform="scale(1 1) rotate(0) translate(4 527)">
<title>/home/travis/build/AliceO2Group/AliceO2/Detectors/ITSMFT/ITS/tracking/include/ITStracking/TrackerTraits.h</title>
<!-- Node0 -->
<g id="node1" class="node">
<title>Node0</title>
<polygon fill="#bfbfbf" stroke="#000000" points="1213.5,-459.5 1213.5,-522.5 1368.5,-522.5 1368.5,-459.5 1213.5,-459.5"/>
<text text-anchor="start" x="1221.5" y="-510.5" font-family="Helvetica,sans-Serif" font-size="10.00" fill="#000000">/home/travis/build</text>
<text text-anchor="start" x="1221.5" y="-499.5" font-family="Helvetica,sans-Serif" font-size="10.00" fill="#000000">/AliceO2Group/AliceO2</text>
<text text-anchor="start" x="1221.5" y="-488.5" font-family="Helvetica,sans-Serif" font-size="10.00" fill="#000000">/Detectors/ITSMFT/ITS</text>
<text text-anchor="start" x="1221.5" y="-477.5" font-family="Helvetica,sans-Serif" font-size="10.00" fill="#000000">/tracking/include/ITStracking</text>
<text text-anchor="middle" x="1291" y="-466.5" font-family="Helvetica,sans-Serif" font-size="10.00" fill="#000000">/TrackerTraits.h</text>
</g>
<!-- Node1 -->
<g id="node2" class="node">
<title>Node1</title>
<polygon fill="none" stroke="#bfbfbf" points="551,-56.5 551,-75.5 593,-75.5 593,-56.5 551,-56.5"/>
<text text-anchor="middle" x="572" y="-63.5" font-family="Helvetica,sans-Serif" font-size="10.00" fill="#000000">array</text>
</g>
<!-- Node0&#45;&gt;Node1 -->
<g id="edge1" class="edge">
<title>Node0&#45;&gt;Node1</title>
<path fill="none" stroke="#191970" d="M1213.1495,-490.4791C934.0339,-487.5968 0,-468.779 0,-346 0,-346 0,-346 0,-178 0,-140.6561 19.1538,-129.7678 52,-112 95.0136,-88.7322 435.1346,-72.0005 540.7957,-67.3233"/>
<polygon fill="#191970" stroke="#191970" points="540.9934,-70.8181 550.8309,-66.8843 540.6874,-63.8248 540.9934,-70.8181"/>
</g>
<!-- Node2 -->
<g id="node3" class="node">
<title>Node2</title>
<polygon fill="none" stroke="#bfbfbf" points="1384,-398 1384,-417 1434,-417 1434,-398 1384,-398"/>
<text text-anchor="middle" x="1409" y="-405" font-family="Helvetica,sans-Serif" font-size="10.00" fill="#000000">chrono</text>
</g>
<!-- Node0&#45;&gt;Node2 -->
<g id="edge2" class="edge">
<title>Node0&#45;&gt;Node2</title>
<path fill="none" stroke="#191970" d="M1335.6107,-459.4322C1353.2302,-446.9642 1372.673,-433.206 1387.1176,-422.9846"/>
<polygon fill="#191970" stroke="#191970" points="1389.2633,-425.754 1395.4045,-417.1205 1385.2198,-420.0399 1389.2633,-425.754"/>
</g>
<!-- Node3 -->
<g id="node4" class="node">
<title>Node3</title>
<polygon fill="none" stroke="#bfbfbf" points="1410.5,-56.5 1410.5,-75.5 1457.5,-75.5 1457.5,-56.5 1410.5,-56.5"/>
<text text-anchor="middle" x="1434" y="-63.5" font-family="Helvetica,sans-Serif" font-size="10.00" fill="#000000">cmath</text>
</g>
<!-- Node0&#45;&gt;Node3 -->
<g id="edge3" class="edge">
<title>Node0&#45;&gt;Node3</title>
<path fill="none" stroke="#191970" d="M1317.1527,-459.4938C1358.861,-407.0698 1438.9938,-296.8943 1471,-188 1480.5284,-155.5818 1484.6376,-143.7222 1473,-112 1468.9432,-100.9418 1460.9203,-90.7193 1453.2006,-82.7335"/>
<polygon fill="#191970" stroke="#191970" points="1455.3698,-79.9632 1445.74,-75.5451 1450.5128,-85.0041 1455.3698,-79.9632"/>
</g>
<!-- Node4 -->
<g id="node5" class="node">
<title>Node4</title>
<polygon fill="none" stroke="#bfbfbf" points="1452.5,-398 1452.5,-417 1507.5,-417 1507.5,-398 1452.5,-398"/>
<text text-anchor="middle" x="1480" y="-405" font-family="Helvetica,sans-Serif" font-size="10.00" fill="#000000">fstream</text>
</g>
<!-- Node0&#45;&gt;Node4 -->
<g id="edge4" class="edge">
<title>Node0&#45;&gt;Node4</title>
<path fill="none" stroke="#191970" d="M1362.4528,-459.4322C1392.2712,-446.2585 1425.35,-431.6443 1448.8008,-421.2838"/>
<polygon fill="#191970" stroke="#191970" points="1450.4915,-424.3632 1458.2242,-417.1205 1447.6627,-417.9603 1450.4915,-424.3632"/>
</g>
<!-- Node5 -->
<g id="node6" class="node">
<title>Node5</title>
<polygon fill="none" stroke="#bfbfbf" points="1526,-398 1526,-417 1582,-417 1582,-398 1526,-398"/>
<text text-anchor="middle" x="1554" y="-405" font-family="Helvetica,sans-Serif" font-size="10.00" fill="#000000">iomanip</text>
</g>
<!-- Node0&#45;&gt;Node5 -->
<g id="edge5" class="edge">
<title>Node0&#45;&gt;Node5</title>
<path fill="none" stroke="#191970" d="M1368.5337,-469.8401C1412.4582,-457.3134 1468.2135,-440.5044 1517,-423 1518.8683,-422.3297 1520.7791,-421.6165 1522.6999,-420.8783"/>
<polygon fill="#191970" stroke="#191970" points="1524.2524,-424.0269 1532.2359,-417.0617 1521.6513,-417.5281 1524.2524,-424.0269"/>
</g>
<!-- Node6 -->
<g id="node7" class="node">
<title>Node6</title>
<polygon fill="none" stroke="#bfbfbf" points="1156.5,-336.5 1156.5,-355.5 1205.5,-355.5 1205.5,-336.5 1156.5,-336.5"/>
<text text-anchor="middle" x="1181" y="-343.5" font-family="Helvetica,sans-Serif" font-size="10.00" fill="#000000">iosfwd</text>
</g>
<!-- Node0&#45;&gt;Node6 -->
<g id="edge6" class="edge">
<title>Node0&#45;&gt;Node6</title>
<path fill="none" stroke="#191970" d="M1253.1662,-459.2556C1241.6648,-448.4805 1229.5543,-435.8887 1220,-423 1206.5307,-404.83 1195.3869,-381.3187 1188.5087,-365.081"/>
<polygon fill="#191970" stroke="#191970" points="1191.651,-363.5184 1184.6231,-355.59 1185.1729,-366.1706 1191.651,-363.5184"/>
</g>
<!-- Node7 -->
<g id="node8" class="node">
<title>Node7</title>
<polygon fill="none" stroke="#bfbfbf" points="1600,-398 1600,-417 1658,-417 1658,-398 1600,-398"/>
<text text-anchor="middle" x="1629" y="-405" font-family="Helvetica,sans-Serif" font-size="10.00" fill="#000000">memory</text>
</g>
<!-- Node0&#45;&gt;Node7 -->
<g id="edge7" class="edge">
<title>Node0&#45;&gt;Node7</title>
<path fill="none" stroke="#191970" d="M1368.6893,-477.0365C1429.8099,-465.1806 1516.7576,-446.3811 1591,-423 1593.1534,-422.3218 1595.356,-421.574 1597.5625,-420.7843"/>
<polygon fill="#191970" stroke="#191970" points="1599.0252,-423.9724 1607.1216,-417.1388 1596.5308,-417.4319 1599.0252,-423.9724"/>
</g>
<!-- Node8 -->
<g id="node9" class="node">
<title>Node8</title>
<polygon fill="none" stroke="#bfbfbf" points="944.5,-168.5 944.5,-187.5 989.5,-187.5 989.5,-168.5 944.5,-168.5"/>
<text text-anchor="middle" x="967" y="-175.5" font-family="Helvetica,sans-Serif" font-size="10.00" fill="#000000">utility</text>
</g>
<!-- Node0&#45;&gt;Node8 -->
<g id="edge8" class="edge">
<title>Node0&#45;&gt;Node8</title>
<path fill="none" stroke="#191970" d="M1281.1981,-459.2201C1269.6076,-425.6192 1247.6671,-372.5242 1215,-336 1152.0136,-265.5766 1050.483,-214.3996 999.0576,-191.4472"/>
<polygon fill="#191970" stroke="#191970" points="1000.326,-188.1816 989.7628,-187.3636 997.5103,-194.5904 1000.326,-188.1816"/>
</g>
<!-- Node9 -->
<g id="node10" class="node">
<title>Node9</title>
<polygon fill="none" stroke="#bfbfbf" points="1676.5,-398 1676.5,-417 1741.5,-417 1741.5,-398 1676.5,-398"/>
<text text-anchor="middle" x="1709" y="-405" font-family="Helvetica,sans-Serif" font-size="10.00" fill="#000000">functional</text>
</g>
<!-- Node0&#45;&gt;Node9 -->
<g id="edge9" class="edge">
<title>Node0&#45;&gt;Node9</title>
<path fill="none" stroke="#191970" d="M1368.5714,-481.0113C1445.2192,-470.1995 1565.4006,-450.7065 1667,-423 1669.812,-422.2332 1672.7013,-421.3584 1675.5851,-420.4238"/>
<polygon fill="#191970" stroke="#191970" points="1676.9386,-423.6592 1685.2474,-417.0854 1674.6526,-417.043 1676.9386,-423.6592"/>
</g>
<!-- Node10 -->
<g id="node11" class="node">
<title>Node10</title>
<g id="a_node11"><a xlink:href="../../d3/d59/Configuration_8h.html" target="_top" xlink:title="ITStracking/Configuration.h">
<polygon fill="none" stroke="#000000" points="65.5,-224.5 65.5,-243.5 214.5,-243.5 214.5,-224.5 65.5,-224.5"/>
<text text-anchor="middle" x="140" y="-231.5" font-family="Helvetica,sans-Serif" font-size="10.00" fill="#000000">ITStracking/Configuration.h</text>
</a>
</g>
</g>
<!-- Node0&#45;&gt;Node10 -->
<g id="edge10" class="edge">
<title>Node0&#45;&gt;Node10</title>
<path fill="none" stroke="#191970" d="M1213.3759,-487.836C1006.9251,-479.0525 454.7913,-453.0271 378,-423 279.7775,-384.5928 189.8442,-290.9404 155.1359,-251.7273"/>
<polygon fill="#191970" stroke="#191970" points="157.4408,-249.0453 148.2288,-243.8118 152.1665,-253.6477 157.4408,-249.0453"/>
</g>
<!-- Node14 -->
<g id="node15" class="node">
<title>Node14</title>
<g id="a_node15"><a xlink:href="../../df/d3d/Definitions_8h.html" target="_top" xlink:title="ITStracking/Definitions.h">
<polygon fill="none" stroke="#000000" points="638,-112.5 638,-131.5 774,-131.5 774,-112.5 638,-112.5"/>
<text text-anchor="middle" x="706" y="-119.5" font-family="Helvetica,sans-Serif" font-size="10.00" fill="#000000">ITStracking/Definitions.h</text>
</a>
</g>
</g>
<!-- Node0&#45;&gt;Node14 -->
<g id="edge23" class="edge">
<title>Node0&#45;&gt;Node14</title>
<path fill="none" stroke="#191970" d="M1300.3675,-459.3503C1308.1658,-430.1847 1318,-385.5618 1318,-346 1318,-346 1318,-346 1318,-234 1318,-195.2415 1295.5459,-185.5728 1261,-168 1219.553,-146.9168 926.9668,-131.5432 784.1083,-125.2043"/>
<polygon fill="#191970" stroke="#191970" points="784.2309,-121.7064 774.0868,-124.7636 783.9233,-128.6997 784.2309,-121.7064"/>
</g>
<!-- Node18 -->
<g id="node19" class="node">
<title>Node18</title>
<g id="a_node19"><a xlink:href="../../dc/d3e/MathUtils_8h.html" target="_top" xlink:title="ITStracking/MathUtils.h">
<polygon fill="none" stroke="#000000" points="1160,-224.5 1160,-243.5 1290,-243.5 1290,-224.5 1160,-224.5"/>
<text text-anchor="middle" x="1225" y="-231.5" font-family="Helvetica,sans-Serif" font-size="10.00" fill="#000000">ITStracking/MathUtils.h</text>
</a>
</g>
</g>
<!-- Node0&#45;&gt;Node18 -->
<g id="edge24" class="edge">
<title>Node0&#45;&gt;Node18</title>
<path fill="none" stroke="#191970" d="M1282.9071,-459.4868C1269.0717,-405.6127 1241.2719,-297.3619 1229.9592,-253.311"/>
<polygon fill="#191970" stroke="#191970" points="1233.3344,-252.3821 1227.4569,-243.567 1226.5544,-254.1233 1233.3344,-252.3821"/>
</g>
<!-- Node25 -->
<g id="node26" class="node">
<title>Node25</title>
<g id="a_node26"><a xlink:href="../../d3/da9/PrimaryVertexContext_8h.html" target="_top" xlink:title="ITStracking/PrimaryVertex\lContext.h">
<polygon fill="none" stroke="#000000" points="499,-392.5 499,-422.5 643,-422.5 643,-392.5 499,-392.5"/>
<text text-anchor="start" x="507" y="-410.5" font-family="Helvetica,sans-Serif" font-size="10.00" fill="#000000">ITStracking/PrimaryVertex</text>
<text text-anchor="middle" x="571" y="-399.5" font-family="Helvetica,sans-Serif" font-size="10.00" fill="#000000">Context.h</text>
</a>
</g>
</g>
<!-- Node0&#45;&gt;Node25 -->
<g id="edge41" class="edge">
<title>Node0&#45;&gt;Node25</title>
<path fill="none" stroke="#191970" d="M1213.2633,-481.9847C1076.3307,-466.1043 793.3868,-433.2907 653.2895,-417.0433"/>
<polygon fill="#191970" stroke="#191970" points="653.3812,-413.5306 643.0446,-415.8552 652.5748,-420.484 653.3812,-413.5306"/>
</g>
<!-- Node27 -->
<g id="node28" class="node">
<title>Node27</title>
<g id="a_node28"><a xlink:href="../../d4/d5a/ITS_2tracking_2include_2ITStracking_2Road_8h.html" target="_top" xlink:title="ITStracking/Road.h">
<polygon fill="none" stroke="#000000" points="232.5,-224.5 232.5,-243.5 339.5,-243.5 339.5,-224.5 232.5,-224.5"/>
<text text-anchor="middle" x="286" y="-231.5" font-family="Helvetica,sans-Serif" font-size="10.00" fill="#000000">ITStracking/Road.h</text>
</a>
</g>
</g>
<!-- Node0&#45;&gt;Node27 -->
<g id="edge74" class="edge">
<title>Node0&#45;&gt;Node27</title>
<path fill="none" stroke="#191970" d="M1213.1997,-487.5487C1039.69,-479.3406 625.682,-456.7826 490,-423 416.3816,-404.6702 388.9648,-407.2211 333,-356 303.2588,-328.7798 292.1624,-280.5991 288.1556,-253.6492"/>
<polygon fill="#191970" stroke="#191970" points="291.5991,-252.9873 286.8388,-243.5221 284.6575,-253.89 291.5991,-252.9873"/>
</g>
<!-- Node10&#45;&gt;Node1 -->
<g id="edge11" class="edge">
<title>Node10&#45;&gt;Node1</title>
<path fill="none" stroke="#191970" d="M127.5788,-224.18C117.9984,-215.7529 105.4865,-202.6707 100,-188 88.1683,-156.3622 77.3034,-137.0161 100,-112 129.6245,-79.348 440.1073,-69.1328 540.7207,-66.6672"/>
<polygon fill="#191970" stroke="#191970" points="540.9447,-70.163 550.8592,-66.4279 540.7794,-63.1649 540.9447,-70.163"/>
</g>
<!-- Node10&#45;&gt;Node3 -->
<g id="edge14" class="edge">
<title>Node10&#45;&gt;Node3</title>
<path fill="none" stroke="#191970" d="M144.2946,-224.3718C150.9073,-210.4399 164.7531,-184.5229 183,-168 223.079,-131.7078 238.7384,-125.8629 291,-112 400.4604,-82.9646 1222.229,-69.1523 1400.1091,-66.4857"/>
<polygon fill="#191970" stroke="#191970" points="1400.2459,-69.9842 1410.1929,-66.3362 1400.1421,-62.9849 1400.2459,-69.9842"/>
</g>
<!-- Node11 -->
<g id="node12" class="node">
<title>Node11</title>
<polygon fill="none" stroke="#bfbfbf" points="300,-112.5 300,-131.5 350,-131.5 350,-112.5 300,-112.5"/>
<text text-anchor="middle" x="325" y="-119.5" font-family="Helvetica,sans-Serif" font-size="10.00" fill="#000000">climits</text>
</g>
<!-- Node10&#45;&gt;Node11 -->
<g id="edge12" class="edge">
<title>Node10&#45;&gt;Node11</title>
<path fill="none" stroke="#191970" d="M148.7546,-224.3592C161.8334,-210.4115 187.7564,-184.4751 214,-168 237.8542,-153.0249 267.4231,-141.0502 290.0431,-133.0766"/>
<polygon fill="#191970" stroke="#191970" points="291.2641,-136.3581 299.5876,-129.8029 288.9929,-129.7367 291.2641,-136.3581"/>
</g>
<!-- Node12 -->
<g id="node13" class="node">
<title>Node12</title>
<polygon fill="none" stroke="#bfbfbf" points="374.5,-112.5 374.5,-131.5 421.5,-131.5 421.5,-112.5 374.5,-112.5"/>
<text text-anchor="middle" x="398" y="-119.5" font-family="Helvetica,sans-Serif" font-size="10.00" fill="#000000">vector</text>
</g>
<!-- Node10&#45;&gt;Node12 -->
<g id="edge13" class="edge">
<title>Node10&#45;&gt;Node12</title>
<path fill="none" stroke="#191970" d="M161.5757,-224.4108C190.6864,-211.4947 244.1785,-187.8382 290,-168 315.4629,-156.9759 344.389,-144.667 365.8926,-135.5578"/>
<polygon fill="#191970" stroke="#191970" points="367.3663,-138.7348 375.2113,-131.6139 364.6379,-132.2884 367.3663,-138.7348"/>
</g>
<!-- Node13 -->
<g id="node14" class="node">
<title>Node13</title>
<g id="a_node14"><a xlink:href="../../d0/d86/Detectors_2ITSMFT_2ITS_2tracking_2include_2ITStracking_2Constants_8h.html" target="_top" xlink:title="ITStracking/Constants.h">
<polygon fill="none" stroke="#000000" points="332,-168.5 332,-187.5 464,-187.5 464,-168.5 332,-168.5"/>
<text text-anchor="middle" x="398" y="-175.5" font-family="Helvetica,sans-Serif" font-size="10.00" fill="#000000">ITStracking/Constants.h</text>
</a>
</g>
</g>
<!-- Node10&#45;&gt;Node13 -->
<g id="edge15" class="edge">
<title>Node10&#45;&gt;Node13</title>
<path fill="none" stroke="#191970" d="M184.0586,-224.4369C228.3989,-214.8127 296.8411,-199.957 344.3249,-189.6504"/>
<polygon fill="#191970" stroke="#191970" points="345.0931,-193.0653 354.1231,-187.5237 343.6082,-186.2245 345.0931,-193.0653"/>
</g>
<!-- Node13&#45;&gt;Node11 -->
<g id="edge16" class="edge">
<title>Node13&#45;&gt;Node11</title>
<path fill="none" stroke="#191970" d="M385.2844,-168.2455C374.398,-159.8943 358.5117,-147.7076 345.78,-137.9408"/>
<polygon fill="#191970" stroke="#191970" points="347.6346,-134.9523 337.5699,-131.6427 343.3739,-140.5063 347.6346,-134.9523"/>
</g>
<!-- Node13&#45;&gt;Node12 -->
<g id="edge17" class="edge">
<title>Node13&#45;&gt;Node12</title>
<path fill="none" stroke="#191970" d="M398,-168.2455C398,-160.9382 398,-150.6944 398,-141.7046"/>
<polygon fill="#191970" stroke="#191970" points="401.5001,-141.6426 398,-131.6427 394.5001,-141.6427 401.5001,-141.6426"/>
</g>
<!-- Node13&#45;&gt;Node14 -->
<g id="edge18" class="edge">
<title>Node13&#45;&gt;Node14</title>
<path fill="none" stroke="#191970" d="M450.5971,-168.4369C504.0841,-158.712 586.9492,-143.6456 643.6933,-133.3285"/>
<polygon fill="#191970" stroke="#191970" points="644.4072,-136.7562 653.6198,-131.5237 643.155,-129.8691 644.4072,-136.7562"/>
</g>
<!-- Node14&#45;&gt;Node1 -->
<g id="edge19" class="edge">
<title>Node14&#45;&gt;Node1</title>
<path fill="none" stroke="#191970" d="M682.9646,-112.3733C660.8666,-103.1383 627.3446,-89.1291 602.9284,-78.9253"/>
<polygon fill="#191970" stroke="#191970" points="603.985,-75.5736 593.4087,-74.9469 601.2858,-82.0323 603.985,-75.5736"/>
</g>
<!-- Node15 -->
<g id="node16" class="node">
<title>Node15</title>
<g id="a_node16"><a xlink:href="../../df/d21/GPUCommonDef_8h.html" target="_top" xlink:title="GPUCommonDef.h">
<polygon fill="none" stroke="#000000" points="815.5,-56.5 815.5,-75.5 922.5,-75.5 922.5,-56.5 815.5,-56.5"/>
<text text-anchor="middle" x="869" y="-63.5" font-family="Helvetica,sans-Serif" font-size="10.00" fill="#000000">GPUCommonDef.h</text>
</a>
</g>
</g>
<!-- Node14&#45;&gt;Node15 -->
<g id="edge20" class="edge">
<title>Node14&#45;&gt;Node15</title>
<path fill="none" stroke="#191970" d="M734.0207,-112.3733C761.0078,-103.1016 802.0017,-89.0178 831.7311,-78.804"/>
<polygon fill="#191970" stroke="#191970" points="833.0248,-82.0605 841.3449,-75.5011 830.7503,-75.4403 833.0248,-82.0605"/>
</g>
<!-- Node16 -->
<g id="node17" class="node">
<title>Node16</title>
<g id="a_node17"><a xlink:href="../../d5/d93/GPUCommonDefSettings_8h.html" target="_top" xlink:title="GPUCommonDefSettings.h">
<polygon fill="none" stroke="#000000" points="718,-.5 718,-19.5 866,-19.5 866,-.5 718,-.5"/>
<text text-anchor="middle" x="792" y="-7.5" font-family="Helvetica,sans-Serif" font-size="10.00" fill="#000000">GPUCommonDefSettings.h</text>
</a>
</g>
</g>
<!-- Node15&#45;&gt;Node16 -->
<g id="edge21" class="edge">
<title>Node15&#45;&gt;Node16</title>
<path fill="none" stroke="#191970" d="M855.5876,-56.2455C843.9943,-47.814 827.0252,-35.4729 813.5322,-25.6598"/>
<polygon fill="#191970" stroke="#191970" points="815.4047,-22.6938 805.2587,-19.6427 811.2874,-28.355 815.4047,-22.6938"/>
</g>
<!-- Node17 -->
<g id="node18" class="node">
<title>Node17</title>
<g id="a_node18"><a xlink:href="../../da/d5a/GPUCommonDefAPI_8h.html" target="_top" xlink:title="GPUCommonDefAPI.h">
<polygon fill="none" stroke="#000000" points="884,-.5 884,-19.5 1008,-19.5 1008,-.5 884,-.5"/>
<text text-anchor="middle" x="946" y="-7.5" font-family="Helvetica,sans-Serif" font-size="10.00" fill="#000000">GPUCommonDefAPI.h</text>
</a>
</g>
</g>
<!-- Node15&#45;&gt;Node17 -->
<g id="edge22" class="edge">
<title>Node15&#45;&gt;Node17</title>
<path fill="none" stroke="#191970" d="M882.4124,-56.2455C894.0057,-47.814 910.9748,-35.4729 924.4678,-25.6598"/>
<polygon fill="#191970" stroke="#191970" points="926.7126,-28.355 932.7413,-19.6427 922.5953,-22.6938 926.7126,-28.355"/>
</g>
<!-- Node18&#45;&gt;Node1 -->
<g id="edge25" class="edge">
<title>Node18&#45;&gt;Node1</title>
<path fill="none" stroke="#191970" d="M1208.7585,-224.3379C1193.1627,-215.0503 1168.9479,-200.6048 1148,-188 1133.3052,-179.1578 1131.0186,-174.1261 1115,-168 1019.1577,-131.3466 704.2363,-84.7138 603.3752,-70.3844"/>
<polygon fill="#191970" stroke="#191970" points="603.6151,-66.8836 593.2235,-68.9488 602.6348,-73.8146 603.6151,-66.8836"/>
</g>
<!-- Node18&#45;&gt;Node3 -->
<g id="edge26" class="edge">
<title>Node18&#45;&gt;Node3</title>
<path fill="none" stroke="#191970" d="M1290.2052,-229.8421C1350.1611,-224.4978 1432.732,-212.7655 1453,-188 1477.3172,-158.2868 1458.3046,-110.4281 1444.6916,-84.3619"/>
<polygon fill="#191970" stroke="#191970" points="1447.7197,-82.6047 1439.8402,-75.522 1441.5831,-85.9725 1447.7197,-82.6047"/>
</g>
<!-- Node18&#45;&gt;Node13 -->
<g id="edge38" class="edge">
<title>Node18&#45;&gt;Node13</title>
<path fill="none" stroke="#191970" d="M1159.9887,-230.3338C1034.471,-223.1397 750.0381,-206.2744 511,-188 499.1102,-187.091 486.5235,-186.0526 474.2348,-184.9969"/>
<polygon fill="#191970" stroke="#191970" points="474.2695,-181.4868 464.0042,-184.1085 473.6638,-188.4606 474.2695,-181.4868"/>
</g>
<!-- Node18&#45;&gt;Node15 -->
<g id="edge40" class="edge">
<title>Node18&#45;&gt;Node15</title>
<path fill="none" stroke="#191970" d="M1216.0048,-224.0555C1202.5381,-209.7296 1175.7397,-183.3266 1148,-168 1100.7511,-141.8942 1082.84,-150.1458 1032,-132 985.6165,-115.4449 932.9672,-93.5475 900.3657,-79.6138"/>
<polygon fill="#191970" stroke="#191970" points="901.4905,-76.2878 890.9207,-75.5599 898.7296,-82.7204 901.4905,-76.2878"/>
</g>
<!-- Node19 -->
<g id="node20" class="node">
<title>Node19</title>
<polygon fill="none" stroke="#bfbfbf" points="1200,-168.5 1200,-187.5 1252,-187.5 1252,-168.5 1200,-168.5"/>
<text text-anchor="middle" x="1226" y="-175.5" font-family="Helvetica,sans-Serif" font-size="10.00" fill="#000000">cassert</text>
</g>
<!-- Node18&#45;&gt;Node19 -->
<g id="edge27" class="edge">
<title>Node18&#45;&gt;Node19</title>
<path fill="none" stroke="#191970" d="M1225.1742,-224.2455C1225.3047,-216.9382 1225.4876,-206.6944 1225.6481,-197.7046"/>
<polygon fill="#191970" stroke="#191970" points="1229.1486,-197.7036 1225.8278,-187.6427 1222.1497,-197.5786 1229.1486,-197.7036"/>
</g>
<!-- Node20 -->
<g id="node21" class="node">
<title>Node20</title>
<polygon fill="none" stroke="#bfbfbf" points="1046,-168.5 1046,-187.5 1106,-187.5 1106,-168.5 1046,-168.5"/>
<text text-anchor="middle" x="1076" y="-175.5" font-family="Helvetica,sans-Serif" font-size="10.00" fill="#000000">iostream</text>
</g>
<!-- Node18&#45;&gt;Node20 -->
<g id="edge28" class="edge">
<title>Node18&#45;&gt;Node20</title>
<path fill="none" stroke="#191970" d="M1199.386,-224.3733C1174.9313,-215.1822 1137.8946,-201.2624 1110.7791,-191.0713"/>
<polygon fill="#191970" stroke="#191970" points="1111.8719,-187.7431 1101.2798,-187.5011 1109.4091,-194.2956 1111.8719,-187.7431"/>
</g>
<!-- Node21 -->
<g id="node22" class="node">
<title>Node21</title>
<g id="a_node22"><a xlink:href="../../d9/d52/Common_2MathUtils_2include_2MathUtils_2Utils_8h.html" target="_top" xlink:title="MathUtils/Utils.h">
<polygon fill="none" stroke="#000000" points="1346,-168.5 1346,-187.5 1444,-187.5 1444,-168.5 1346,-168.5"/>
<text text-anchor="middle" x="1395" y="-175.5" font-family="Helvetica,sans-Serif" font-size="10.00" fill="#000000">MathUtils/Utils.h</text>
</a>
</g>
</g>
<!-- Node18&#45;&gt;Node21 -->
<g id="edge29" class="edge">
<title>Node18&#45;&gt;Node21</title>
<path fill="none" stroke="#191970" d="M1254.224,-224.3733C1282.4925,-215.0613 1325.4965,-200.8953 1356.5344,-190.671"/>
<polygon fill="#191970" stroke="#191970" points="1357.7544,-193.9542 1366.1573,-187.5011 1355.5643,-187.3056 1357.7544,-193.9542"/>
</g>
<!-- Node22 -->
<g id="node23" class="node">
<title>Node22</title>
<g id="a_node23"><a xlink:href="../../d6/da2/GPUCommonMath_8h.html" target="_top" xlink:title="GPUCommonMath.h">
<polygon fill="none" stroke="#000000" points="1040.5,-112.5 1040.5,-131.5 1155.5,-131.5 1155.5,-112.5 1040.5,-112.5"/>
<text text-anchor="middle" x="1098" y="-119.5" font-family="Helvetica,sans-Serif" font-size="10.00" fill="#000000">GPUCommonMath.h</text>
</a>
</g>
</g>
<!-- Node18&#45;&gt;Node22 -->
<g id="edge39" class="edge">
<title>Node18&#45;&gt;Node22</title>
<path fill="none" stroke="#191970" d="M1237.152,-224.2863C1252.3952,-210.92 1274.9419,-186.421 1261,-168 1249.0991,-152.2757 1204.9209,-140.4007 1165.5563,-132.6581"/>
<polygon fill="#191970" stroke="#191970" points="1166.1525,-129.2088 1155.6747,-130.7788 1164.8447,-136.0856 1166.1525,-129.2088"/>
</g>
<!-- Node21&#45;&gt;Node1 -->
<g id="edge30" class="edge">
<title>Node21&#45;&gt;Node1</title>
<path fill="none" stroke="#191970" d="M1345.8461,-170.013C1341.1696,-169.3088 1336.4971,-168.6265 1332,-168 1198.9946,-149.4705 1164.1363,-155.9534 1032,-132 995.0888,-125.3088 986.9056,-118.722 950,-112 822.1607,-88.7154 667.793,-74.0688 602.9982,-68.5224"/>
<polygon fill="#191970" stroke="#191970" points="603.2886,-65.0345 593.0296,-67.6808 602.6997,-72.0097 603.2886,-65.0345"/>
</g>
<!-- Node21&#45;&gt;Node3 -->
<g id="edge31" class="edge">
<title>Node21&#45;&gt;Node3</title>
<path fill="none" stroke="#191970" d="M1399.6667,-168.2783C1403.9818,-159.0686 1410.4029,-144.7835 1415,-132 1420.5481,-116.5722 1425.6175,-98.6771 1429.122,-85.4159"/>
<polygon fill="#191970" stroke="#191970" points="1432.5653,-86.0794 1431.6738,-75.5222 1425.7871,-84.3312 1432.5653,-86.0794"/>
</g>
<!-- Node21&#45;&gt;Node15 -->
<g id="edge32" class="edge">
<title>Node21&#45;&gt;Node15</title>
<path fill="none" stroke="#191970" d="M1345.8669,-169.7324C1306.4673,-162.2752 1250.16,-149.7412 1203,-132 1185.1369,-125.2801 1183.1204,-117.9914 1165,-112 1087.5171,-86.381 993.8056,-74.8857 932.8744,-69.8251"/>
<polygon fill="#191970" stroke="#191970" points="932.8845,-66.3149 922.6381,-69.0099 932.3287,-73.2928 932.8845,-66.3149"/>
</g>
<!-- Node21&#45;&gt;Node22 -->
<g id="edge33" class="edge">
<title>Node21&#45;&gt;Node22</title>
<path fill="none" stroke="#191970" d="M1345.9565,-168.7527C1294.6169,-159.0725 1213.9254,-143.858 1158.6255,-133.4311"/>
<polygon fill="#191970" stroke="#191970" points="1159.0835,-129.9558 1148.6081,-131.5423 1157.7864,-136.8346 1159.0835,-129.9558"/>
</g>
<!-- Node24 -->
<g id="node25" class="node">
<title>Node24</title>
<g id="a_node25"><a xlink:href="../../d6/d84/MathConstants_8h.html" target="_top" xlink:title="useful math constants ">
<polygon fill="none" stroke="#000000" points="1212,-112.5 1212,-131.5 1406,-131.5 1406,-112.5 1212,-112.5"/>
<text text-anchor="middle" x="1309" y="-119.5" font-family="Helvetica,sans-Serif" font-size="10.00" fill="#000000">CommonConstants/MathConstants.h</text>
</a>
</g>
</g>
<!-- Node21&#45;&gt;Node24 -->
<g id="edge37" class="edge">
<title>Node21&#45;&gt;Node24</title>
<path fill="none" stroke="#191970" d="M1380.0199,-168.2455C1366.8249,-159.6534 1347.3949,-147.0014 1332.1921,-137.1018"/>
<polygon fill="#191970" stroke="#191970" points="1334.0983,-134.1665 1323.8084,-131.6427 1330.2785,-140.0325 1334.0983,-134.1665"/>
</g>
<!-- Node22&#45;&gt;Node3 -->
<g id="edge35" class="edge">
<title>Node22&#45;&gt;Node3</title>
<path fill="none" stroke="#191970" d="M1155.3787,-112.4369C1225.7824,-100.7029 1342.8445,-81.1926 1400.2118,-71.6314"/>
<polygon fill="#191970" stroke="#191970" points="1400.9157,-75.0624 1410.2042,-69.966 1399.7648,-68.1577 1400.9157,-75.0624"/>
</g>
<!-- Node22&#45;&gt;Node15 -->
<g id="edge34" class="edge">
<title>Node22&#45;&gt;Node15</title>
<path fill="none" stroke="#191970" d="M1058.8937,-112.4369C1019.8668,-102.8932 959.8035,-88.2052 917.7038,-77.9101"/>
<polygon fill="#191970" stroke="#191970" points="918.4902,-74.4993 907.945,-75.5237 916.8274,-81.299 918.4902,-74.4993"/>
</g>
<!-- Node23 -->
<g id="node24" class="node">
<title>Node23</title>
<polygon fill="none" stroke="#bfbfbf" points="1477,-56.5 1477,-75.5 1541,-75.5 1541,-56.5 1477,-56.5"/>
<text text-anchor="middle" x="1509" y="-63.5" font-family="Helvetica,sans-Serif" font-size="10.00" fill="#000000">algorithm</text>
</g>
<!-- Node22&#45;&gt;Node23 -->
<g id="edge36" class="edge">
<title>Node22&#45;&gt;Node23</title>
<path fill="none" stroke="#191970" d="M1155.6374,-115.598C1243.9465,-105.6561 1408.6335,-86.5536 1467,-76 1467.1014,-75.9817 1467.203,-75.9632 1467.3046,-75.9447"/>
<polygon fill="#191970" stroke="#191970" points="1467.8549,-79.4041 1476.9727,-74.008 1466.48,-72.5404 1467.8549,-79.4041"/>
</g>
<!-- Node25&#45;&gt;Node1 -->
<g id="edge43" class="edge">
<title>Node25&#45;&gt;Node1</title>
<path fill="none" stroke="#191970" d="M498.8401,-399.34C353.2306,-380.8609 38,-329.7933 38,-234 38,-234 38,-234 38,-178 38,-142.245 53.1151,-130.015 84,-112 123.4064,-89.0144 439.1987,-72.2606 540.7024,-67.4262"/>
<polygon fill="#191970" stroke="#191970" points="541.0962,-70.9117 550.9206,-66.9455 540.7672,-63.9194 541.0962,-70.9117"/>
</g>
<!-- Node25&#45;&gt;Node6 -->
<g id="edge44" class="edge">
<title>Node25&#45;&gt;Node6</title>
<path fill="none" stroke="#191970" d="M643.1442,-404.72C751.9449,-399.6892 964.2092,-386.6061 1142,-356 1143.4638,-355.748 1144.9533,-355.4689 1146.4542,-355.1691"/>
<polygon fill="#191970" stroke="#191970" points="1147.3756,-358.5496 1156.372,-352.9535 1145.8494,-351.718 1147.3756,-358.5496"/>
</g>
<!-- Node25&#45;&gt;Node10 -->
<g id="edge51" class="edge">
<title>Node25&#45;&gt;Node10</title>
<path fill="none" stroke="#191970" d="M498.7489,-398.5971C450.5262,-391.0446 386.4081,-377.8541 333,-356 264.6338,-328.0253 193.5334,-276.1334 159.9044,-249.9668"/>
<polygon fill="#191970" stroke="#191970" points="161.8389,-247.0355 151.8153,-243.6037 157.511,-252.5373 161.8389,-247.0355"/>
</g>
<!-- Node25&#45;&gt;Node12 -->
<g id="edge45" class="edge">
<title>Node25&#45;&gt;Node12</title>
<path fill="none" stroke="#191970" d="M552.256,-392.4213C496.615,-347.4591 335.4839,-215.7205 323,-188 312.2639,-164.1603 340.176,-145.5119 364.944,-134.207"/>
<polygon fill="#191970" stroke="#191970" points="366.3851,-137.3973 374.1954,-130.2384 363.6255,-130.9642 366.3851,-137.3973"/>
</g>
<!-- Node25&#45;&gt;Node13 -->
<g id="edge52" class="edge">
<title>Node25&#45;&gt;Node13</title>
<path fill="none" stroke="#191970" d="M559.649,-392.4419C528.9866,-351.7655 444.5826,-239.7961 411.5276,-195.9456"/>
<polygon fill="#191970" stroke="#191970" points="414.2757,-193.7767 405.4613,-187.8981 408.686,-197.9903 414.2757,-193.7767"/>
</g>
<!-- Node25&#45;&gt;Node14 -->
<g id="edge53" class="edge">
<title>Node25&#45;&gt;Node14</title>
<path fill="none" stroke="#191970" d="M590.1237,-392.2216C613.504,-371.6825 650,-332.7715 650,-290 650,-290 650,-290 650,-234 650,-197.4776 674.1172,-160.6564 690.6978,-139.6576"/>
<polygon fill="#191970" stroke="#191970" points="693.6115,-141.6242 697.25,-131.6738 688.2004,-137.1834 693.6115,-141.6242"/>
</g>
<!-- Node25&#45;&gt;Node23 -->
<g id="edge42" class="edge">
<title>Node25&#45;&gt;Node23</title>
<path fill="none" stroke="#191970" d="M643.3699,-404.1723C731.1321,-398.9589 883.0744,-386.1372 1010,-356 1222.1712,-305.6221 1320.5078,-345.8185 1471,-188 1498.0596,-159.6231 1505.868,-112.2741 1508.1093,-85.6779"/>
<polygon fill="#191970" stroke="#191970" points="1511.6039,-85.8745 1508.7689,-75.666 1504.619,-85.4142 1511.6039,-85.8745"/>
</g>
<!-- Node26 -->
<g id="node27" class="node">
<title>Node26</title>
<g id="a_node27"><a xlink:href="../../d3/d78/Detectors_2ITSMFT_2ITS_2tracking_2include_2ITStracking_2Cell_8h.html" target="_top" xlink:title="ITStracking/Cell.h">
<polygon fill="none" stroke="#000000" points="520,-168.5 520,-187.5 622,-187.5 622,-168.5 520,-168.5"/>
<text text-anchor="middle" x="571" y="-175.5" font-family="Helvetica,sans-Serif" font-size="10.00" fill="#000000">ITStracking/Cell.h</text>
</a>
</g>
</g>
<!-- Node25&#45;&gt;Node26 -->
<g id="edge46" class="edge">
<title>Node25&#45;&gt;Node26</title>
<path fill="none" stroke="#191970" d="M571,-392.4419C571,-352.3599 571,-243.0534 571,-197.9113"/>
<polygon fill="#191970" stroke="#191970" points="574.5001,-197.8981 571,-187.8981 567.5001,-197.8982 574.5001,-197.8981"/>
</g>
<!-- Node25&#45;&gt;Node27 -->
<g id="edge54" class="edge">
<title>Node25&#45;&gt;Node27</title>
<path fill="none" stroke="#191970" d="M498.8245,-396.7796C444.878,-387.6024 376.6961,-373.1701 354,-356 335.931,-342.3304 308.0068,-283.6076 294.244,-252.8916"/>
<polygon fill="#191970" stroke="#191970" points="297.403,-251.3811 290.1542,-243.6541 291.0023,-254.2149 297.403,-251.3811"/>
</g>
<!-- Node28 -->
<g id="node29" class="node">
<title>Node28</title>
<g id="a_node29"><a xlink:href="../../d8/db3/ITSMFT_2ITS_2tracking_2include_2ITStracking_2Tracklet_8h.html" target="_top" xlink:title="ITStracking/Tracklet.h">
<polygon fill="none" stroke="#000000" points="879,-336.5 879,-355.5 1001,-355.5 1001,-336.5 879,-336.5"/>
<text text-anchor="middle" x="940" y="-343.5" font-family="Helvetica,sans-Serif" font-size="10.00" fill="#000000">ITStracking/Tracklet.h</text>
</a>
</g>
</g>
<!-- Node25&#45;&gt;Node28 -->
<g id="edge58" class="edge">
<title>Node25&#45;&gt;Node28</title>
<path fill="none" stroke="#191970" d="M643.0229,-395.4962C709.6175,-384.3971 807.8266,-368.0289 872.8283,-357.1953"/>
<polygon fill="#191970" stroke="#191970" points="873.6771,-360.6022 882.9656,-355.5057 872.5263,-353.6974 873.6771,-360.6022"/>
</g>
<!-- Node26&#45;&gt;Node1 -->
<g id="edge47" class="edge">
<title>Node26&#45;&gt;Node1</title>
<path fill="none" stroke="#191970" d="M566.9325,-168.2098C562.0897,-155.3665 555.0091,-132.0993 558,-112 559.3327,-103.0439 562.0494,-93.419 564.7381,-85.3"/>
<polygon fill="#191970" stroke="#191970" points="568.1067,-86.272 568.1376,-75.6772 561.5064,-83.9402 568.1067,-86.272"/>
</g>
<!-- Node26&#45;&gt;Node12 -->
<g id="edge48" class="edge">
<title>Node26&#45;&gt;Node12</title>
<path fill="none" stroke="#191970" d="M541.2602,-168.3733C510.6623,-158.4687 463.0995,-143.0727 431.2694,-132.7693"/>
<polygon fill="#191970" stroke="#191970" points="432.1211,-129.3662 421.5292,-129.6164 429.9653,-136.026 432.1211,-129.3662"/>
</g>
<!-- Node26&#45;&gt;Node14 -->
<g id="edge49" class="edge">
<title>Node26&#45;&gt;Node14</title>
<path fill="none" stroke="#191970" d="M594.2073,-168.3733C616.1699,-159.2629 649.3332,-145.5062 673.8401,-135.3404"/>
<polygon fill="#191970" stroke="#191970" points="675.1997,-138.5657 683.0955,-131.5011 672.5176,-132.0999 675.1997,-138.5657"/>
</g>
<!-- Node26&#45;&gt;Node15 -->
<g id="edge50" class="edge">
<title>Node26&#45;&gt;Node15</title>
<path fill="none" stroke="#191970" d="M576.6964,-168.0994C585.7531,-153.3279 604.9017,-125.7849 629,-112 658.416,-95.1732 744.5841,-81.4337 805.2156,-73.4813"/>
<polygon fill="#191970" stroke="#191970" points="805.9958,-76.9097 815.4661,-72.1597 805.1007,-69.9672 805.9958,-76.9097"/>
</g>
<!-- Node27&#45;&gt;Node1 -->
<g id="edge55" class="edge">
<title>Node27&#45;&gt;Node1</title>
<path fill="none" stroke="#191970" d="M276.0638,-224.4913C267.824,-215.8654 256.7233,-202.3368 252,-188 241.4306,-155.9184 229.8799,-137.5272 252,-112 270.7809,-90.3262 463.5473,-73.9392 540.5128,-68.2125"/>
<polygon fill="#191970" stroke="#191970" points="540.8566,-71.6968 550.5743,-67.4757 540.3453,-64.7155 540.8566,-71.6968"/>
</g>
<!-- Node27&#45;&gt;Node13 -->
<g id="edge56" class="edge">
<title>Node27&#45;&gt;Node13</title>
<path fill="none" stroke="#191970" d="M305.2535,-224.3733C323.0712,-215.4644 349.7747,-202.1127 369.9594,-192.0203"/>
<polygon fill="#191970" stroke="#191970" points="371.6187,-195.1038 378.9978,-187.5011 368.4882,-188.8428 371.6187,-195.1038"/>
</g>
<!-- Node27&#45;&gt;Node15 -->
<g id="edge57" class="edge">
<title>Node27&#45;&gt;Node15</title>
<path fill="none" stroke="#191970" d="M282.7175,-224.4649C275.5012,-201.5528 261.162,-143.0081 291,-112 308.6265,-93.6823 658.4006,-75.628 805.106,-68.8293"/>
<polygon fill="#191970" stroke="#191970" points="805.4822,-72.3158 815.3105,-68.3594 805.1601,-65.3232 805.4822,-72.3158"/>
</g>
<!-- Node28&#45;&gt;Node15 -->
<g id="edge73" class="edge">
<title>Node28&#45;&gt;Node15</title>
<path fill="none" stroke="#191970" d="M939.0457,-336.405C936.8668,-315.679 930.933,-265.2643 921,-224 908.7209,-172.9894 887.6789,-114.8007 876.4973,-85.3167"/>
<polygon fill="#191970" stroke="#191970" points="879.7046,-83.9051 872.8584,-75.8193 873.168,-86.4096 879.7046,-83.9051"/>
</g>
<!-- Node28&#45;&gt;Node20 -->
<g id="edge71" class="edge">
<title>Node28&#45;&gt;Node20</title>
<path fill="none" stroke="#191970" d="M972.8218,-336.4782C992.3691,-329.2973 1016.3397,-317.6178 1032,-300 1058.1913,-270.5348 1069.1381,-224.3055 1073.4415,-198.0268"/>
<polygon fill="#191970" stroke="#191970" points="1076.9546,-198.1923 1074.9433,-187.7901 1070.0287,-197.1761 1076.9546,-198.1923"/>
</g>
<!-- Node28&#45;&gt;Node22 -->
<g id="edge72" class="edge">
<title>Node28&#45;&gt;Node22</title>
<path fill="none" stroke="#191970" d="M943.594,-336.2443C954.3782,-307.8891 988.7238,-223.9601 1037,-168 1047.2873,-156.0753 1061.1541,-145.3168 1073.067,-137.2078"/>
<polygon fill="#191970" stroke="#191970" points="1075.2584,-139.9564 1081.7043,-131.5479 1071.4218,-134.1014 1075.2584,-139.9564"/>
</g>
<!-- Node29 -->
<g id="node30" class="node">
<title>Node29</title>
<g id="a_node30"><a xlink:href="../../da/d7f/Detectors_2ITSMFT_2ITS_2tracking_2include_2ITStracking_2Cluster_8h.html" target="_top" xlink:title="ITStracking/Cluster.h">
<polygon fill="none" stroke="#000000" points="774.5,-280.5 774.5,-299.5 891.5,-299.5 891.5,-280.5 774.5,-280.5"/>
<text text-anchor="middle" x="833" y="-287.5" font-family="Helvetica,sans-Serif" font-size="10.00" fill="#000000">ITStracking/Cluster.h</text>
</a>
</g>
</g>
<!-- Node28&#45;&gt;Node29 -->
<g id="edge59" class="edge">
<title>Node28&#45;&gt;Node29</title>
<path fill="none" stroke="#191970" d="M921.362,-336.2455C904.5614,-327.4527 879.6366,-314.4079 860.5382,-304.4125"/>
<polygon fill="#191970" stroke="#191970" points="861.9073,-301.1787 851.4244,-299.6427 858.6614,-307.3807 861.9073,-301.1787"/>
</g>
<!-- Node29&#45;&gt;Node1 -->
<g id="edge60" class="edge">
<title>Node29&#45;&gt;Node1</title>
<path fill="none" stroke="#191970" d="M802.1983,-280.4993C780.2256,-272.8062 750.6758,-260.5305 728,-244 663.6852,-197.115 607.3896,-119.2802 583.7957,-84.1688"/>
<polygon fill="#191970" stroke="#191970" points="586.7129,-82.2348 578.2716,-75.832 580.8777,-86.1013 586.7129,-82.2348"/>
</g>
<!-- Node29&#45;&gt;Node14 -->
<g id="edge61" class="edge">
<title>Node29&#45;&gt;Node14</title>
<path fill="none" stroke="#191970" d="M801.7974,-280.4993C782.9337,-273.2777 759.7579,-261.5472 745,-244 719.9399,-214.2035 710.9158,-168.0961 707.7149,-141.9275"/>
<polygon fill="#191970" stroke="#191970" points="711.17,-141.3166 706.6433,-131.7375 704.2084,-142.0487 711.17,-141.3166"/>
</g>
<!-- Node29&#45;&gt;Node18 -->
<g id="edge62" class="edge">
<title>Node29&#45;&gt;Node18</title>
<path fill="none" stroke="#191970" d="M891.6864,-281.6162C960.3287,-271.8102 1074.1262,-255.5534 1149.345,-244.8079"/>
<polygon fill="#191970" stroke="#191970" points="1150.2895,-248.2086 1159.694,-243.3294 1149.2995,-241.2789 1150.2895,-248.2086"/>
</g>
<!-- Node30 -->
<g id="node31" class="node">
<title>Node30</title>
<g id="a_node31"><a xlink:href="../../dc/ddf/ITS_2tracking_2include_2ITStracking_2IndexTableUtils_8h.html" target="_top" xlink:title="ITStracking/IndexTableUtils.h">
<polygon fill="none" stroke="#000000" points="754,-224.5 754,-243.5 912,-243.5 912,-224.5 754,-224.5"/>
<text text-anchor="middle" x="833" y="-231.5" font-family="Helvetica,sans-Serif" font-size="10.00" fill="#000000">ITStracking/IndexTableUtils.h</text>
</a>
</g>
</g>
<!-- Node29&#45;&gt;Node30 -->
<g id="edge63" class="edge">
<title>Node29&#45;&gt;Node30</title>
<path fill="none" stroke="#191970" d="M833,-280.2455C833,-272.9382 833,-262.6944 833,-253.7046"/>
<polygon fill="#191970" stroke="#191970" points="836.5001,-253.6426 833,-243.6427 829.5001,-253.6427 836.5001,-253.6426"/>
</g>
<!-- Node30&#45;&gt;Node1 -->
<g id="edge64" class="edge">
<title>Node30&#45;&gt;Node1</title>
<path fill="none" stroke="#191970" d="M832.0348,-224.3189C829.1776,-201.0827 818.5927,-141.8727 783,-112 755.9986,-89.3379 654.8169,-75.1487 603.0022,-69.2126"/>
<polygon fill="#191970" stroke="#191970" points="603.3624,-65.7311 593.0365,-68.1031 602.5878,-72.6882 603.3624,-65.7311"/>
</g>
<!-- Node30&#45;&gt;Node8 -->
<g id="edge65" class="edge">
<title>Node30&#45;&gt;Node8</title>
<path fill="none" stroke="#191970" d="M856.0354,-224.3733C877.7388,-215.3032 910.4618,-201.6279 934.755,-191.4755"/>
<polygon fill="#191970" stroke="#191970" points="936.3881,-194.5865 944.2652,-187.5011 933.6889,-188.1278 936.3881,-194.5865"/>
</g>
<!-- Node30&#45;&gt;Node12 -->
<g id="edge66" class="edge">
<title>Node30&#45;&gt;Node12</title>
<path fill="none" stroke="#191970" d="M753.9665,-226.2329C673.4835,-217.6953 554.5276,-203.1656 511,-188 501.6674,-184.7484 452.8181,-155.4266 422.4816,-136.9759"/>
<polygon fill="#191970" stroke="#191970" points="424.086,-133.855 413.7254,-131.6398 420.4432,-139.8325 424.086,-133.855"/>
</g>
<!-- Node30&#45;&gt;Node13 -->
<g id="edge67" class="edge">
<title>Node30&#45;&gt;Node13</title>
<path fill="none" stroke="#191970" d="M758.7151,-224.4369C679.3624,-214.2214 554.226,-198.1119 474.1607,-187.8046"/>
<polygon fill="#191970" stroke="#191970" points="474.507,-184.3204 464.142,-186.5148 473.6132,-191.2631 474.507,-184.3204"/>
</g>
<!-- Node30&#45;&gt;Node14 -->
<g id="edge68" class="edge">
<title>Node30&#45;&gt;Node14</title>
<path fill="none" stroke="#191970" d="M822.1721,-224.4509C800.4276,-205.2747 751.2395,-161.8962 724.3683,-138.1988"/>
<polygon fill="#191970" stroke="#191970" points="726.6157,-135.5141 716.8005,-131.5249 721.9857,-140.7642 726.6157,-135.5141"/>
</g>
<!-- Node30&#45;&gt;Node15 -->
<g id="edge70" class="edge">
<title>Node30&#45;&gt;Node15</title>
<path fill="none" stroke="#191970" d="M835.0387,-224.4862C840.7541,-197.8144 857.0189,-121.9117 864.7796,-85.695"/>
<polygon fill="#191970" stroke="#191970" points="868.221,-86.3393 866.894,-75.8279 861.3763,-84.8725 868.221,-86.3393"/>
</g>
<!-- Node30&#45;&gt;Node22 -->
<g id="edge69" class="edge">
<title>Node30&#45;&gt;Node22</title>
<path fill="none" stroke="#191970" d="M845.3169,-224.3904C863.9747,-210.2445 900.9513,-183.7893 936,-168 969.5547,-152.8837 1009.2789,-141.5113 1040.9927,-133.8558"/>
<polygon fill="#191970" stroke="#191970" points="1042.0589,-137.2005 1050.99,-131.5008 1040.4539,-130.387 1042.0589,-137.2005"/>
</g>
</g>
</svg>
