<?xml version="1.0" encoding="UTF-8" standalone="no"?>
<!DOCTYPE svg PUBLIC "-//W3C//DTD SVG 1.1//EN"
 "http://www.w3.org/Graphics/SVG/1.1/DTD/svg11.dtd">
<!-- Generated by graphviz version 2.40.1 (20161225.0304)
 -->
<!-- Title: DecayVertexBuilder2Prong Pages: 1 -->
<svg width="1120pt" height="926pt"
 viewBox="0.00 0.00 1120.00 926.00" xmlns="http://www.w3.org/2000/svg" xmlns:xlink="http://www.w3.org/1999/xlink">
<g id="graph0" class="graph" transform="scale(1 1) rotate(0) translate(4 922)">
<title>DecayVertexBuilder2Prong</title>
<!-- Node1 -->
<g id="node1" class="node">
<title>Node1</title>
<polygon fill="#bfbfbf" stroke="#000000" points="599.5,-.5 599.5,-79.5 746.5,-79.5 746.5,-.5 599.5,-.5"/>
<text text-anchor="middle" x="673" y="-67.5" font-family="Helvetica,sans-Serif" font-size="10.00" fill="#000000">DecayVertexBuilder2Prong</text>
<polyline fill="none" stroke="#000000" points="599.5,-60.5 746.5,-60.5 "/>
<text text-anchor="start" x="607.5" y="-48.5" font-family="Helvetica,sans-Serif" font-size="10.00" fill="#000000">+ hvtxp_x_out</text>
<text text-anchor="start" x="607.5" y="-37.5" font-family="Helvetica,sans-Serif" font-size="10.00" fill="#000000">+ hpt_nocuts</text>
<text text-anchor="start" x="607.5" y="-26.5" font-family="Helvetica,sans-Serif" font-size="10.00" fill="#000000">+ htgl_cuts</text>
<polyline fill="none" stroke="#000000" points="599.5,-19.5 746.5,-19.5 "/>
<text text-anchor="start" x="607.5" y="-7.5" font-family="Helvetica,sans-Serif" font-size="10.00" fill="#000000">+ process()</text>
</g>
<!-- Node2 -->
<g id="node2" class="node">
<title>Node2</title>
<g id="a_node2"><a xlink:href="../../d8/d71/structo2_1_1framework_1_1Configurable.html" target="_top" xlink:title="{o2::framework::Configurable\l\&lt; int \&gt;\n||+ Configurable()\l+ operator int()\l+ operator&#45;\&gt;()\l}">
<polygon fill="none" stroke="#000000" points="53.5,-485.5 53.5,-575.5 208.5,-575.5 208.5,-485.5 53.5,-485.5"/>
<text text-anchor="start" x="61.5" y="-563.5" font-family="Helvetica,sans-Serif" font-size="10.00" fill="#000000">o2::framework::Configurable</text>
<text text-anchor="middle" x="131" y="-552.5" font-family="Helvetica,sans-Serif" font-size="10.00" fill="#000000">&lt; int &gt;</text>
<polyline fill="none" stroke="#000000" points="53.5,-545.5 208.5,-545.5 "/>
<text text-anchor="middle" x="131" y="-533.5" font-family="Helvetica,sans-Serif" font-size="10.00" fill="#000000"> </text>
<polyline fill="none" stroke="#000000" points="53.5,-526.5 208.5,-526.5 "/>
<text text-anchor="start" x="61.5" y="-514.5" font-family="Helvetica,sans-Serif" font-size="10.00" fill="#000000">+ Configurable()</text>
<text text-anchor="start" x="61.5" y="-503.5" font-family="Helvetica,sans-Serif" font-size="10.00" fill="#000000">+ operator int()</text>
<text text-anchor="start" x="61.5" y="-492.5" font-family="Helvetica,sans-Serif" font-size="10.00" fill="#000000">+ operator&#45;&gt;()</text>
</a>
</g>
</g>
<!-- Node2&#45;&gt;Node1 -->
<g id="edge1" class="edge">
<title>Node2&#45;&gt;Node1</title>
<path fill="none" stroke="#404040" d="M181.0186,-485.2341C283.2819,-392.6877 515.4457,-182.5837 620.0993,-87.8742"/>
<polygon fill="none" stroke="#404040" points="620.322,-87.6727 622.0867,-80.6808 629.2194,-79.6206 627.4547,-86.6125 620.322,-87.6727"/>
<text text-anchor="middle" x="482.5" y="-318.5" font-family="Helvetica,sans-Serif" font-size="10.00" fill="#000000"> +triggerindex</text>
</g>
<!-- Node3 -->
<g id="node3" class="node">
<title>Node3</title>
<polygon fill="none" stroke="#bfbfbf" points="478.5,-844 478.5,-901 507.5,-901 507.5,-844 478.5,-844"/>
<text text-anchor="middle" x="493" y="-889" font-family="Helvetica,sans-Serif" font-size="10.00" fill="#000000">int</text>
<polyline fill="none" stroke="#bfbfbf" points="478.5,-882 507.5,-882 "/>
<text text-anchor="middle" x="493" y="-870" font-family="Helvetica,sans-Serif" font-size="10.00" fill="#000000"> </text>
<polyline fill="none" stroke="#bfbfbf" points="478.5,-863 507.5,-863 "/>
<text text-anchor="middle" x="493" y="-851" font-family="Helvetica,sans-Serif" font-size="10.00" fill="#000000"> </text>
</g>
<!-- Node3&#45;&gt;Node2 -->
<g id="edge2" class="edge">
<title>Node3&#45;&gt;Node2</title>
<path fill="none" stroke="#404040" d="M478.3769,-871.0489C434.2684,-865.8921 301.2058,-844.4974 230,-769 193.7409,-730.5556 212.9762,-704.9249 193,-656 183.5345,-632.8174 171.6444,-607.9652 160.815,-586.5431"/>
<polygon fill="none" stroke="#404040" points="160.7253,-586.3672 154.4339,-582.8432 155.2671,-575.6804 161.5585,-579.2044 160.7253,-586.3672"/>
<text text-anchor="middle" x="249.5" y="-721" font-family="Helvetica,sans-Serif" font-size="10.00" fill="#000000"> +value</text>
<text text-anchor="middle" x="249.5" y="-710" font-family="Helvetica,sans-Serif" font-size="10.00" fill="#000000">+name</text>
<text text-anchor="middle" x="249.5" y="-699" font-family="Helvetica,sans-Serif" font-size="10.00" fill="#000000">+help</text>
</g>
<!-- Node4 -->
<g id="node4" class="node">
<title>Node4</title>
<g id="a_node4"><a xlink:href="../../d8/d71/structo2_1_1framework_1_1Configurable.html" target="_top" xlink:title="{o2::framework::Configurable\&lt; T \&gt;\n||+ Configurable()\l+ operator T()\l+ operator&#45;\&gt;()\l}">
<polygon fill="none" stroke="#000000" points="0,-673 0,-752 184,-752 184,-673 0,-673"/>
<text text-anchor="middle" x="92" y="-740" font-family="Helvetica,sans-Serif" font-size="10.00" fill="#000000">o2::framework::Configurable&lt; T &gt;</text>
<polyline fill="none" stroke="#000000" points="0,-733 184,-733 "/>
<text text-anchor="middle" x="92" y="-721" font-family="Helvetica,sans-Serif" font-size="10.00" fill="#000000"> </text>
<polyline fill="none" stroke="#000000" points="0,-714 184,-714 "/>
<text text-anchor="start" x="8" y="-702" font-family="Helvetica,sans-Serif" font-size="10.00" fill="#000000">+ Configurable()</text>
<text text-anchor="start" x="8" y="-691" font-family="Helvetica,sans-Serif" font-size="10.00" fill="#000000">+ operator T()</text>
<text text-anchor="start" x="8" y="-680" font-family="Helvetica,sans-Serif" font-size="10.00" fill="#000000">+ operator&#45;&gt;()</text>
</a>
</g>
</g>
<!-- Node3&#45;&gt;Node4 -->
<g id="edge4" class="edge">
<title>Node3&#45;&gt;Node4</title>
<path fill="none" stroke="#404040" d="M478.2446,-871.0326C421.7911,-865.2082 219.9697,-842.4021 166,-809 147.3914,-797.4831 131.72,-779.4715 119.6581,-762.1131"/>
<polygon fill="none" stroke="#404040" points="119.6022,-762.0285 112.9549,-759.2332 112.9785,-752.0221 119.6258,-754.8174 119.6022,-762.0285"/>
<text text-anchor="middle" x="186" y="-801" font-family="Helvetica,sans-Serif" font-size="10.00" fill="#000000"> +name</text>
<text text-anchor="middle" x="186" y="-790" font-family="Helvetica,sans-Serif" font-size="10.00" fill="#000000">+help</text>
</g>
<!-- Node8 -->
<g id="node8" class="node">
<title>Node8</title>
<g id="a_node8"><a xlink:href="../../d4/d79/structo2_1_1framework_1_1OutputObj.html" target="_top" xlink:title="{o2::framework::OutputObj\l\&lt; TH1F \&gt;\n||+ spec()\l+ OutputObj()\l+ OutputObj()\l+ setObject()\l+ setObject()\l+ setObject()\l+ setHash()\l+ operator&#45;\&gt;()\l+ operator*()\l+ ref()\l}">
<polygon fill="none" stroke="#000000" points="601.5,-237.5 601.5,-404.5 744.5,-404.5 744.5,-237.5 601.5,-237.5"/>
<text text-anchor="start" x="609.5" y="-392.5" font-family="Helvetica,sans-Serif" font-size="10.00" fill="#000000">o2::framework::OutputObj</text>
<text text-anchor="middle" x="673" y="-381.5" font-family="Helvetica,sans-Serif" font-size="10.00" fill="#000000">&lt; TH1F &gt;</text>
<polyline fill="none" stroke="#000000" points="601.5,-374.5 744.5,-374.5 "/>
<text text-anchor="middle" x="673" y="-362.5" font-family="Helvetica,sans-Serif" font-size="10.00" fill="#000000"> </text>
<polyline fill="none" stroke="#000000" points="601.5,-355.5 744.5,-355.5 "/>
<text text-anchor="start" x="609.5" y="-343.5" font-family="Helvetica,sans-Serif" font-size="10.00" fill="#000000">+ spec()</text>
<text text-anchor="start" x="609.5" y="-332.5" font-family="Helvetica,sans-Serif" font-size="10.00" fill="#000000">+ OutputObj()</text>
<text text-anchor="start" x="609.5" y="-321.5" font-family="Helvetica,sans-Serif" font-size="10.00" fill="#000000">+ OutputObj()</text>
<text text-anchor="start" x="609.5" y="-310.5" font-family="Helvetica,sans-Serif" font-size="10.00" fill="#000000">+ setObject()</text>
<text text-anchor="start" x="609.5" y="-299.5" font-family="Helvetica,sans-Serif" font-size="10.00" fill="#000000">+ setObject()</text>
<text text-anchor="start" x="609.5" y="-288.5" font-family="Helvetica,sans-Serif" font-size="10.00" fill="#000000">+ setObject()</text>
<text text-anchor="start" x="609.5" y="-277.5" font-family="Helvetica,sans-Serif" font-size="10.00" fill="#000000">+ setHash()</text>
<text text-anchor="start" x="609.5" y="-266.5" font-family="Helvetica,sans-Serif" font-size="10.00" fill="#000000">+ operator&#45;&gt;()</text>
<text text-anchor="start" x="609.5" y="-255.5" font-family="Helvetica,sans-Serif" font-size="10.00" fill="#000000">+ operator*()</text>
<text text-anchor="start" x="609.5" y="-244.5" font-family="Helvetica,sans-Serif" font-size="10.00" fill="#000000">+ ref()</text>
</a>
</g>
</g>
<!-- Node3&#45;&gt;Node8 -->
<g id="edge11" class="edge">
<title>Node3&#45;&gt;Node8</title>
<path fill="none" stroke="#404040" d="M507.7639,-870.4644C548.0251,-864.0495 659.9836,-840.2621 709,-769 748.9555,-710.911 734.5506,-521.3776 722,-452 719.8766,-440.262 716.7637,-428.205 713.1194,-416.3838"/>
<polygon fill="none" stroke="#404040" points="713.0194,-416.0755 707.3625,-411.6034 709.3149,-404.6616 714.9718,-409.1337 713.0194,-416.0755"/>
<text text-anchor="middle" x="754" y="-630" font-family="Helvetica,sans-Serif" font-size="10.00" fill="#000000"> +label</text>
</g>
<!-- Node12 -->
<g id="node12" class="node">
<title>Node12</title>
<g id="a_node12"><a xlink:href="../../da/d96/structo2_1_1framework_1_1InputSpec.html" target="_top" xlink:title="{o2::framework::InputSpec\n||+ InputSpec()\l+ InputSpec()\l+ InputSpec()\l+ InputSpec()\l+ InputSpec()\l+ operator==()\l}">
<polygon fill="none" stroke="#000000" points="818,-656.5 818,-768.5 960,-768.5 960,-656.5 818,-656.5"/>
<text text-anchor="middle" x="889" y="-756.5" font-family="Helvetica,sans-Serif" font-size="10.00" fill="#000000">o2::framework::InputSpec</text>
<polyline fill="none" stroke="#000000" points="818,-749.5 960,-749.5 "/>
<text text-anchor="middle" x="889" y="-737.5" font-family="Helvetica,sans-Serif" font-size="10.00" fill="#000000"> </text>
<polyline fill="none" stroke="#000000" points="818,-730.5 960,-730.5 "/>
<text text-anchor="start" x="826" y="-718.5" font-family="Helvetica,sans-Serif" font-size="10.00" fill="#000000">+ InputSpec()</text>
<text text-anchor="start" x="826" y="-707.5" font-family="Helvetica,sans-Serif" font-size="10.00" fill="#000000">+ InputSpec()</text>
<text text-anchor="start" x="826" y="-696.5" font-family="Helvetica,sans-Serif" font-size="10.00" fill="#000000">+ InputSpec()</text>
<text text-anchor="start" x="826" y="-685.5" font-family="Helvetica,sans-Serif" font-size="10.00" fill="#000000">+ InputSpec()</text>
<text text-anchor="start" x="826" y="-674.5" font-family="Helvetica,sans-Serif" font-size="10.00" fill="#000000">+ InputSpec()</text>
<text text-anchor="start" x="826" y="-663.5" font-family="Helvetica,sans-Serif" font-size="10.00" fill="#000000">+ operator==()</text>
</a>
</g>
</g>
<!-- Node3&#45;&gt;Node12 -->
<g id="edge16" class="edge">
<title>Node3&#45;&gt;Node12</title>
<path fill="none" stroke="#404040" d="M507.6501,-870.6101C547.6033,-865.09 661.2628,-846.9285 748,-809 774.6874,-797.3301 781.0265,-789.0674 807.9935,-769.814"/>
<polygon fill="none" stroke="#404040" points="808.1463,-769.7073 810.7792,-762.9941 817.9888,-762.8424 815.3559,-769.5557 808.1463,-769.7073"/>
<text text-anchor="middle" x="809" y="-795.5" font-family="Helvetica,sans-Serif" font-size="10.00" fill="#000000"> +binding</text>
</g>
<!-- Node16 -->
<g id="node16" class="node">
<title>Node16</title>
<g id="a_node16"><a xlink:href="../../d4/d79/structo2_1_1framework_1_1OutputObj.html" target="_top" xlink:title="{o2::framework::OutputObj\&lt; T \&gt;\n||+ OutputObj()\l+ OutputObj()\l+ setObject()\l+ setObject()\l+ setObject()\l+ setHash()\l+ spec()\l+ operator&#45;\&gt;()\l+ operator*()\l+ ref()\l}">
<polygon fill="none" stroke="#000000" points="331,-452.5 331,-608.5 503,-608.5 503,-452.5 331,-452.5"/>
<text text-anchor="middle" x="417" y="-596.5" font-family="Helvetica,sans-Serif" font-size="10.00" fill="#000000">o2::framework::OutputObj&lt; T &gt;</text>
<polyline fill="none" stroke="#000000" points="331,-589.5 503,-589.5 "/>
<text text-anchor="middle" x="417" y="-577.5" font-family="Helvetica,sans-Serif" font-size="10.00" fill="#000000"> </text>
<polyline fill="none" stroke="#000000" points="331,-570.5 503,-570.5 "/>
<text text-anchor="start" x="339" y="-558.5" font-family="Helvetica,sans-Serif" font-size="10.00" fill="#000000">+ OutputObj()</text>
<text text-anchor="start" x="339" y="-547.5" font-family="Helvetica,sans-Serif" font-size="10.00" fill="#000000">+ OutputObj()</text>
<text text-anchor="start" x="339" y="-536.5" font-family="Helvetica,sans-Serif" font-size="10.00" fill="#000000">+ setObject()</text>
<text text-anchor="start" x="339" y="-525.5" font-family="Helvetica,sans-Serif" font-size="10.00" fill="#000000">+ setObject()</text>
<text text-anchor="start" x="339" y="-514.5" font-family="Helvetica,sans-Serif" font-size="10.00" fill="#000000">+ setObject()</text>
<text text-anchor="start" x="339" y="-503.5" font-family="Helvetica,sans-Serif" font-size="10.00" fill="#000000">+ setHash()</text>
<text text-anchor="start" x="339" y="-492.5" font-family="Helvetica,sans-Serif" font-size="10.00" fill="#000000">+ spec()</text>
<text text-anchor="start" x="339" y="-481.5" font-family="Helvetica,sans-Serif" font-size="10.00" fill="#000000">+ operator&#45;&gt;()</text>
<text text-anchor="start" x="339" y="-470.5" font-family="Helvetica,sans-Serif" font-size="10.00" fill="#000000">+ operator*()</text>
<text text-anchor="start" x="339" y="-459.5" font-family="Helvetica,sans-Serif" font-size="10.00" fill="#000000">+ ref()</text>
</a>
</g>
</g>
<!-- Node3&#45;&gt;Node16 -->
<g id="edge21" class="edge">
<title>Node3&#45;&gt;Node16</title>
<path fill="none" stroke="#404040" d="M492.1861,-843.7736C490.1463,-797.1541 483.0018,-702.6213 458,-627 457.2188,-624.6371 456.4041,-622.2514 455.5617,-619.852"/>
<polygon fill="none" stroke="#404040" points="455.5538,-619.8303 449.739,-615.5656 451.4391,-608.5578 457.254,-612.8225 455.5538,-619.8303"/>
<text text-anchor="middle" x="505" y="-710" font-family="Helvetica,sans-Serif" font-size="10.00" fill="#000000"> +label</text>
</g>
<!-- Node4&#45;&gt;Node2 -->
<g id="edge3" class="edge">
<title>Node4&#45;&gt;Node2</title>
<path fill="none" stroke="#ffa500" d="M102.7151,-662.4964C108.5246,-635.3851 115.6494,-602.1362 121.2947,-575.7912"/>
<polygon fill="#ffa500" stroke="#ffa500" points="99.2318,-662.0479 100.5587,-672.5593 106.0764,-663.5147 99.2318,-662.0479"/>
<text text-anchor="middle" x="129.5" y="-630" font-family="Helvetica,sans-Serif" font-size="10.00" fill="#000000"> &lt; int &gt;</text>
</g>
<!-- Node5 -->
<g id="node5" class="node">
<title>Node5</title>
<polygon fill="none" stroke="#bfbfbf" points="77.5,-844 77.5,-901 106.5,-901 106.5,-844 77.5,-844"/>
<text text-anchor="middle" x="92" y="-889" font-family="Helvetica,sans-Serif" font-size="10.00" fill="#000000">T</text>
<polyline fill="none" stroke="#bfbfbf" points="77.5,-882 106.5,-882 "/>
<text text-anchor="middle" x="92" y="-870" font-family="Helvetica,sans-Serif" font-size="10.00" fill="#000000"> </text>
<polyline fill="none" stroke="#bfbfbf" points="77.5,-863 106.5,-863 "/>
<text text-anchor="middle" x="92" y="-851" font-family="Helvetica,sans-Serif" font-size="10.00" fill="#000000"> </text>
</g>
<!-- Node5&#45;&gt;Node4 -->
<g id="edge5" class="edge">
<title>Node5&#45;&gt;Node4</title>
<path fill="none" stroke="#404040" d="M92,-843.8952C92,-821.8577 92,-790.7968 92,-764.4075"/>
<polygon fill="none" stroke="#404040" points="92.0001,-764.2754 88,-758.2755 92,-752.2754 96,-758.2754 92.0001,-764.2754"/>
<text text-anchor="middle" x="111.5" y="-795.5" font-family="Helvetica,sans-Serif" font-size="10.00" fill="#000000"> +value</text>
</g>
<!-- Node6 -->
<g id="node6" class="node">
<title>Node6</title>
<g id="a_node6"><a xlink:href="../../d6/d86/structo2_1_1framework_1_1Produces.html" target="_top" xlink:title="{o2::framework::Produces\l\&lt; aod::SecVtx2Prong \&gt;\n||}">
<polygon fill="none" stroke="#000000" points="893,-287 893,-355 1031,-355 1031,-287 893,-287"/>
<text text-anchor="start" x="901" y="-343" font-family="Helvetica,sans-Serif" font-size="10.00" fill="#000000">o2::framework::Produces</text>
<text text-anchor="middle" x="962" y="-332" font-family="Helvetica,sans-Serif" font-size="10.00" fill="#000000">&lt; aod::SecVtx2Prong &gt;</text>
<polyline fill="none" stroke="#000000" points="893,-325 1031,-325 "/>
<text text-anchor="middle" x="962" y="-313" font-family="Helvetica,sans-Serif" font-size="10.00" fill="#000000"> </text>
<polyline fill="none" stroke="#000000" points="893,-306 1031,-306 "/>
<text text-anchor="middle" x="962" y="-294" font-family="Helvetica,sans-Serif" font-size="10.00" fill="#000000"> </text>
</a>
</g>
</g>
<!-- Node6&#45;&gt;Node1 -->
<g id="edge6" class="edge">
<title>Node6&#45;&gt;Node1</title>
<path fill="none" stroke="#404040" d="M936.1818,-286.6647C900.4434,-240.4922 832.4157,-157.3438 763,-98 758.6376,-94.2706 754.0184,-90.5971 749.2677,-87.0203"/>
<polygon fill="none" stroke="#404040" points="749.0786,-86.8829 741.8734,-86.5907 739.3719,-79.8273 746.5771,-80.1195 749.0786,-86.8829"/>
<text text-anchor="middle" x="916" y="-156" font-family="Helvetica,sans-Serif" font-size="10.00" fill="#000000"> +secvtx2prong</text>
</g>
<!-- Node7 -->
<g id="node7" class="node">
<title>Node7</title>
<g id="a_node7"><a xlink:href="../../d6/d86/structo2_1_1framework_1_1Produces.html" target="_top" xlink:title="{o2::framework::Produces\&lt; T \&gt;\n||}">
<polygon fill="none" stroke="#000000" points="938.5,-502 938.5,-559 1105.5,-559 1105.5,-502 938.5,-502"/>
<text text-anchor="middle" x="1022" y="-547" font-family="Helvetica,sans-Serif" font-size="10.00" fill="#000000">o2::framework::Produces&lt; T &gt;</text>
<polyline fill="none" stroke="#000000" points="938.5,-540 1105.5,-540 "/>
<text text-anchor="middle" x="1022" y="-528" font-family="Helvetica,sans-Serif" font-size="10.00" fill="#000000"> </text>
<polyline fill="none" stroke="#000000" points="938.5,-521 1105.5,-521 "/>
<text text-anchor="middle" x="1022" y="-509" font-family="Helvetica,sans-Serif" font-size="10.00" fill="#000000"> </text>
</a>
</g>
</g>
<!-- Node7&#45;&gt;Node6 -->
<g id="edge7" class="edge">
<title>Node7&#45;&gt;Node6</title>
<path fill="none" stroke="#ffa500" d="M1011.0007,-492.094C999.791,-452.9536 982.5663,-392.8108 971.8078,-355.2457"/>
<polygon fill="#ffa500" stroke="#ffa500" points="1007.665,-493.1594 1013.7831,-501.8092 1014.3944,-491.232 1007.665,-493.1594"/>
<text text-anchor="middle" x="1053" y="-426" font-family="Helvetica,sans-Serif" font-size="10.00" fill="#000000"> &lt; aod::SecVtx2Prong &gt;</text>
</g>
<!-- Node8&#45;&gt;Node1 -->
<g id="edge8" class="edge">
<title>Node8&#45;&gt;Node1</title>
<path fill="none" stroke="#404040" d="M673,-237.4515C673,-190.2422 673,-132.7066 673,-91.9509"/>
<polygon fill="none" stroke="#404040" points="673.0001,-91.8713 669,-85.8713 673,-79.8713 677,-85.8712 673.0001,-91.8713"/>
<text text-anchor="middle" x="716" y="-211" font-family="Helvetica,sans-Serif" font-size="10.00" fill="#000000"> +hitsmap_cuts</text>
<text text-anchor="middle" x="716" y="-200" font-family="Helvetica,sans-Serif" font-size="10.00" fill="#000000">+hchi2dca</text>
<text text-anchor="middle" x="716" y="-189" font-family="Helvetica,sans-Serif" font-size="10.00" fill="#000000">+hvtx_x_out</text>
<text text-anchor="middle" x="716" y="-178" font-family="Helvetica,sans-Serif" font-size="10.00" fill="#000000">+hitsmap_nocuts</text>
<text text-anchor="middle" x="716" y="-167" font-family="Helvetica,sans-Serif" font-size="10.00" fill="#000000">+hvtx_z_out</text>
<text text-anchor="middle" x="716" y="-156" font-family="Helvetica,sans-Serif" font-size="10.00" fill="#000000">+hvtx_y_out</text>
<text text-anchor="middle" x="716" y="-145" font-family="Helvetica,sans-Serif" font-size="10.00" fill="#000000">+hpt_cuts</text>
<text text-anchor="middle" x="716" y="-134" font-family="Helvetica,sans-Serif" font-size="10.00" fill="#000000">+hvtxp_z_out</text>
<text text-anchor="middle" x="716" y="-123" font-family="Helvetica,sans-Serif" font-size="10.00" fill="#000000">+htgl_nocuts</text>
<text text-anchor="middle" x="716" y="-112" font-family="Helvetica,sans-Serif" font-size="10.00" fill="#000000">+hvtxp_y_out</text>
<text text-anchor="middle" x="716" y="-101" font-family="Helvetica,sans-Serif" font-size="10.00" fill="#000000">...</text>
</g>
<!-- Node9 -->
<g id="node9" class="node">
<title>Node9</title>
<polygon fill="none" stroke="#bfbfbf" points="561.5,-684 561.5,-741 700.5,-741 700.5,-684 561.5,-684"/>
<text text-anchor="middle" x="631" y="-729" font-family="Helvetica,sans-Serif" font-size="10.00" fill="#000000">OutputObjHandlingPolicy</text>
<polyline fill="none" stroke="#bfbfbf" points="561.5,-722 700.5,-722 "/>
<text text-anchor="middle" x="631" y="-710" font-family="Helvetica,sans-Serif" font-size="10.00" fill="#000000"> </text>
<polyline fill="none" stroke="#bfbfbf" points="561.5,-703 700.5,-703 "/>
<text text-anchor="middle" x="631" y="-691" font-family="Helvetica,sans-Serif" font-size="10.00" fill="#000000"> </text>
</g>
<!-- Node9&#45;&gt;Node8 -->
<g id="edge9" class="edge">
<title>Node9&#45;&gt;Node8</title>
<path fill="none" stroke="#404040" d="M644.2267,-683.7623C649.841,-670.1824 655.8148,-653.5675 659,-638 673.9593,-564.8872 677.0068,-480.385 676.5604,-417.021"/>
<polygon fill="none" stroke="#404040" points="676.5564,-416.6389 672.4919,-410.6824 676.427,-404.6396 680.4914,-410.5962 676.5564,-416.6389"/>
<text text-anchor="middle" x="697.5" y="-528" font-family="Helvetica,sans-Serif" font-size="10.00" fill="#000000"> +policy</text>
</g>
<!-- Node9&#45;&gt;Node16 -->
<g id="edge20" class="edge">
<title>Node9&#45;&gt;Node16</title>
<path fill="none" stroke="#404040" d="M590.7463,-683.7171C572.4666,-670.2658 550.7805,-653.7676 532,-638 523.8532,-631.1602 515.5254,-623.9153 507.2599,-616.5465"/>
<polygon fill="none" stroke="#404040" points="507.2507,-616.5383 500.1145,-615.5014 498.3269,-608.5154 505.4631,-609.5522 507.2507,-616.5383"/>
<text text-anchor="middle" x="552.5" y="-630" font-family="Helvetica,sans-Serif" font-size="10.00" fill="#000000"> +policy</text>
</g>
<!-- Node10 -->
<g id="node10" class="node">
<title>Node10</title>
<g id="a_node10"><a xlink:href="../../d3/d87/classuint32__t.html" target="_top" xlink:title="{uint32_t\n||}">
<polygon fill="none" stroke="#000000" points="278,-684 278,-741 334,-741 334,-684 278,-684"/>
<text text-anchor="middle" x="306" y="-729" font-family="Helvetica,sans-Serif" font-size="10.00" fill="#000000">uint32_t</text>
<polyline fill="none" stroke="#000000" points="278,-722 334,-722 "/>
<text text-anchor="middle" x="306" y="-710" font-family="Helvetica,sans-Serif" font-size="10.00" fill="#000000"> </text>
<polyline fill="none" stroke="#000000" points="278,-703 334,-703 "/>
<text text-anchor="middle" x="306" y="-691" font-family="Helvetica,sans-Serif" font-size="10.00" fill="#000000"> </text>
</a>
</g>
</g>
<!-- Node10&#45;&gt;Node8 -->
<g id="edge10" class="edge">
<title>Node10&#45;&gt;Node8</title>
<path fill="none" stroke="#404040" d="M289.7834,-683.9623C275.8997,-658.9078 257.5952,-624.1642 254,-609 237.9028,-541.1044 212.6719,-508.2221 254,-452 293.9204,-397.6929 478.6839,-355.8957 589.0917,-335.2451"/>
<polygon fill="none" stroke="#404040" points="589.3828,-335.1914 594.5567,-330.1684 601.1833,-333.0123 596.0094,-338.0354 589.3828,-335.1914"/>
<text text-anchor="middle" x="288" y="-528" font-family="Helvetica,sans-Serif" font-size="10.00" fill="#000000"> +mTaskHash</text>
</g>
<!-- Node10&#45;&gt;Node16 -->
<g id="edge19" class="edge">
<title>Node10&#45;&gt;Node16</title>
<path fill="none" stroke="#404040" d="M315.0244,-683.804C320.9691,-666.7272 329.5738,-644.9596 340,-627 341.5536,-624.3238 343.1769,-621.6426 344.857,-618.9654"/>
<polygon fill="none" stroke="#404040" points="345.0191,-618.7178 344.9592,-611.5069 351.5923,-608.6782 351.6522,-615.8891 345.0191,-618.7178"/>
<text text-anchor="middle" x="374" y="-630" font-family="Helvetica,sans-Serif" font-size="10.00" fill="#000000"> +mTaskHash</text>
</g>
<!-- Node11 -->
<g id="node11" class="node">
<title>Node11</title>
<polygon fill="none" stroke="#bfbfbf" points="762,-684 762,-741 800,-741 800,-684 762,-684"/>
<text text-anchor="middle" x="781" y="-729" font-family="Helvetica,sans-Serif" font-size="10.00" fill="#000000">bool</text>
<polyline fill="none" stroke="#bfbfbf" points="762,-722 800,-722 "/>
<text text-anchor="middle" x="781" y="-710" font-family="Helvetica,sans-Serif" font-size="10.00" fill="#000000"> </text>
<polyline fill="none" stroke="#bfbfbf" points="762,-703 800,-703 "/>
<text text-anchor="middle" x="781" y="-691" font-family="Helvetica,sans-Serif" font-size="10.00" fill="#000000"> </text>
</g>
<!-- Node11&#45;&gt;Node8 -->
<g id="edge12" class="edge">
<title>Node11&#45;&gt;Node8</title>
<path fill="none" stroke="#404040" d="M783.9572,-683.6754C788.2958,-630.1043 792.3291,-512.5159 756,-423 754.3352,-418.898 752.4465,-414.8322 750.3772,-410.8207"/>
<polygon fill="none" stroke="#404040" points="750.3718,-410.8108 743.9499,-407.5305 744.508,-400.341 750.9298,-403.6213 750.3718,-410.8108"/>
<text text-anchor="middle" x="818" y="-528" font-family="Helvetica,sans-Serif" font-size="10.00" fill="#000000"> +isdangling</text>
</g>
<!-- Node11&#45;&gt;Node16 -->
<g id="edge23" class="edge">
<title>Node11&#45;&gt;Node16</title>
<path fill="none" stroke="#404040" d="M761.7963,-693.6302C748.126,-681.2066 728.7463,-665.5332 709,-656 671.3195,-637.8086 568.2453,-630.1717 514.4495,-609.2418"/>
<polygon fill="none" stroke="#404040" points="514.1189,-609.0961 507.0151,-610.3354 503.1389,-604.2546 510.2428,-603.0154 514.1189,-609.0961"/>
<text text-anchor="middle" x="670" y="-630" font-family="Helvetica,sans-Serif" font-size="10.00" fill="#000000"> +isdangling</text>
</g>
<!-- Node12&#45;&gt;Node8 -->
<g id="edge13" class="edge">
<title>Node12&#45;&gt;Node8</title>
<path fill="none" stroke="#404040" d="M893.4487,-656.255C895.192,-600.4939 890.4669,-514.5755 853,-452 830.0501,-413.6701 791.1279,-383.2465 755.3359,-361.4039"/>
<polygon fill="none" stroke="#404040" points="755.1696,-361.3053 747.9686,-361.6872 744.8465,-355.187 752.0475,-354.8051 755.1696,-361.3053"/>
<text text-anchor="middle" x="910" y="-528" font-family="Helvetica,sans-Serif" font-size="10.00" fill="#000000"> +spec</text>
</g>
<!-- Node12&#45;&gt;Node16 -->
<g id="edge24" class="edge">
<title>Node12&#45;&gt;Node16</title>
<path fill="none" stroke="#404040" d="M827.4433,-656.3885C811.4147,-644.6957 793.4353,-633.8533 775,-627 668.8269,-587.5302 623.8455,-648.1193 514.62,-609.4101"/>
<polygon fill="none" stroke="#404040" points="514.357,-609.3106 507.3295,-610.9275 503.1341,-605.0624 510.1616,-603.4455 514.357,-609.3106"/>
<text text-anchor="middle" x="814" y="-630" font-family="Helvetica,sans-Serif" font-size="10.00" fill="#000000"> +spec</text>
</g>
<!-- Node13 -->
<g id="node13" class="node">
<title>Node13</title>
<polygon fill="none" stroke="#bfbfbf" points="832,-844 832,-901 920,-901 920,-844 832,-844"/>
<text text-anchor="middle" x="876" y="-889" font-family="Helvetica,sans-Serif" font-size="10.00" fill="#000000">enum Lifetime</text>
<polyline fill="none" stroke="#bfbfbf" points="832,-882 920,-882 "/>
<text text-anchor="middle" x="876" y="-870" font-family="Helvetica,sans-Serif" font-size="10.00" fill="#000000"> </text>
<polyline fill="none" stroke="#bfbfbf" points="832,-863 920,-863 "/>
<text text-anchor="middle" x="876" y="-851" font-family="Helvetica,sans-Serif" font-size="10.00" fill="#000000"> </text>
</g>
<!-- Node13&#45;&gt;Node12 -->
<g id="edge14" class="edge">
<title>Node13&#45;&gt;Node12</title>
<path fill="none" stroke="#404040" d="M878.3241,-843.8952C879.7537,-826.3 881.6507,-802.9527 883.4487,-780.8235"/>
<polygon fill="none" stroke="#404040" points="883.4619,-780.6597 879.961,-774.3554 884.4338,-768.6991 887.9347,-775.0033 883.4619,-780.6597"/>
<text text-anchor="middle" x="908" y="-795.5" font-family="Helvetica,sans-Serif" font-size="10.00" fill="#000000"> +lifetime</text>
</g>
<!-- Node14 -->
<g id="node14" class="node">
<title>Node14</title>
<polygon fill="none" stroke="#bfbfbf" points="938,-827.5 938,-917.5 1102,-917.5 1102,-827.5 938,-827.5"/>
<text text-anchor="start" x="946" y="-905.5" font-family="Helvetica,sans-Serif" font-size="10.00" fill="#000000">variant&lt; o2::framework</text>
<text text-anchor="start" x="946" y="-894.5" font-family="Helvetica,sans-Serif" font-size="10.00" fill="#000000">::ConcreteDataMatcher,</text>
<text text-anchor="start" x="946" y="-883.5" font-family="Helvetica,sans-Serif" font-size="10.00" fill="#000000"> o2::framework::data_matcher</text>
<text text-anchor="middle" x="1020" y="-872.5" font-family="Helvetica,sans-Serif" font-size="10.00" fill="#000000">::DataDescriptorMatcher &gt;</text>
<polyline fill="none" stroke="#bfbfbf" points="938,-865.5 1102,-865.5 "/>
<text text-anchor="middle" x="1020" y="-853.5" font-family="Helvetica,sans-Serif" font-size="10.00" fill="#000000"> </text>
<polyline fill="none" stroke="#bfbfbf" points="938,-846.5 1102,-846.5 "/>
<text text-anchor="middle" x="1020" y="-834.5" font-family="Helvetica,sans-Serif" font-size="10.00" fill="#000000"> </text>
</g>
<!-- Node14&#45;&gt;Node12 -->
<g id="edge15" class="edge">
<title>Node14&#45;&gt;Node12</title>
<path fill="none" stroke="#404040" d="M982.8111,-827.0784C970.3542,-811.8639 956.2056,-794.5831 942.7422,-778.1393"/>
<polygon fill="none" stroke="#404040" points="942.5144,-777.861 935.6184,-775.7526 934.9123,-768.5761 941.8083,-770.6846 942.5144,-777.861"/>
<text text-anchor="middle" x="993" y="-795.5" font-family="Helvetica,sans-Serif" font-size="10.00" fill="#000000"> +matcher</text>
</g>
<!-- Node15 -->
<g id="node15" class="node">
<title>Node15</title>
<polygon fill="none" stroke="#bfbfbf" points="521,-502 521,-559 637,-559 637,-502 521,-502"/>
<text text-anchor="middle" x="579" y="-547" font-family="Helvetica,sans-Serif" font-size="10.00" fill="#000000">shared_ptr&lt; TH1F &gt;</text>
<polyline fill="none" stroke="#bfbfbf" points="521,-540 637,-540 "/>
<text text-anchor="middle" x="579" y="-528" font-family="Helvetica,sans-Serif" font-size="10.00" fill="#000000"> </text>
<polyline fill="none" stroke="#bfbfbf" points="521,-521 637,-521 "/>
<text text-anchor="middle" x="579" y="-509" font-family="Helvetica,sans-Serif" font-size="10.00" fill="#000000"> </text>
</g>
<!-- Node15&#45;&gt;Node8 -->
<g id="edge17" class="edge">
<title>Node15&#45;&gt;Node8</title>
<path fill="none" stroke="#404040" d="M587.7679,-501.7147C594.7851,-479.778 605.3526,-449.0164 617,-423 618.1066,-420.5281 619.251,-418.0354 620.426,-415.5309"/>
<polygon fill="none" stroke="#404040" points="620.534,-415.307 619.5415,-408.1645 625.7528,-404.5012 626.7453,-411.6436 620.534,-415.307"/>
<text text-anchor="middle" x="638" y="-426" font-family="Helvetica,sans-Serif" font-size="10.00" fill="#000000"> +object</text>
</g>
<!-- Node16&#45;&gt;Node8 -->
<g id="edge18" class="edge">
<title>Node16&#45;&gt;Node8</title>
<path fill="none" stroke="#ffa500" d="M511.1844,-452.6688C511.4567,-452.4455 511.7286,-452.2226 512,-452 541.1191,-428.1232 573.2926,-401.9111 601.1747,-379.2488"/>
<polygon fill="#ffa500" stroke="#ffa500" points="508.6981,-450.1816 503.19,-459.232 513.1398,-455.5919 508.6981,-450.1816"/>
<text text-anchor="middle" x="573.5" y="-426" font-family="Helvetica,sans-Serif" font-size="10.00" fill="#000000"> &lt; TH1F &gt;</text>
</g>
<!-- Node17 -->
<g id="node17" class="node">
<title>Node17</title>
<polygon fill="none" stroke="#bfbfbf" points="359.5,-684 359.5,-741 456.5,-741 456.5,-684 359.5,-684"/>
<text text-anchor="middle" x="408" y="-729" font-family="Helvetica,sans-Serif" font-size="10.00" fill="#000000">shared_ptr&lt; T &gt;</text>
<polyline fill="none" stroke="#bfbfbf" points="359.5,-722 456.5,-722 "/>
<text text-anchor="middle" x="408" y="-710" font-family="Helvetica,sans-Serif" font-size="10.00" fill="#000000"> </text>
<polyline fill="none" stroke="#bfbfbf" points="359.5,-703 456.5,-703 "/>
<text text-anchor="middle" x="408" y="-691" font-family="Helvetica,sans-Serif" font-size="10.00" fill="#000000"> </text>
</g>
<!-- Node17&#45;&gt;Node16 -->
<g id="edge22" class="edge">
<title>Node17&#45;&gt;Node16</title>
<path fill="none" stroke="#404040" d="M409.4261,-683.6616C410.2748,-666.4991 411.4029,-643.686 412.5286,-620.9212"/>
<polygon fill="none" stroke="#404040" points="412.5409,-620.6702 408.8422,-614.48 413.1337,-608.6849 416.8324,-614.8751 412.5409,-620.6702"/>
<text text-anchor="middle" x="433" y="-630" font-family="Helvetica,sans-Serif" font-size="10.00" fill="#000000"> +object</text>
</g>
</g>
</svg>
