<?xml version="1.0" encoding="UTF-8" standalone="no"?>
<!DOCTYPE svg PUBLIC "-//W3C//DTD SVG 1.1//EN"
 "http://www.w3.org/Graphics/SVG/1.1/DTD/svg11.dtd">
<!-- Generated by graphviz version 2.40.1 (20161225.0304)
 -->
<!-- Title: /home/travis/build/AliceO2Group/AliceO2/Generators/src/Pythia8Generator.cxx Pages: 1 -->
<svg width="1015pt" height="162pt"
 viewBox="0.00 0.00 1015.00 162.00" xmlns="http://www.w3.org/2000/svg" xmlns:xlink="http://www.w3.org/1999/xlink">
<g id="graph0" class="graph" transform="scale(1 1) rotate(0) translate(4 158)">
<title>/home/travis/build/AliceO2Group/AliceO2/Generators/src/Pythia8Generator.cxx</title>
<!-- Node0 -->
<g id="node1" class="node">
<title>Node0</title>
<polygon fill="#bfbfbf" stroke="#000000" points="383,-112.5 383,-153.5 582,-153.5 582,-112.5 383,-112.5"/>
<text text-anchor="start" x="391" y="-141.5" font-family="Helvetica,sans-Serif" font-size="10.00" fill="#000000">/home/travis/build</text>
<text text-anchor="start" x="391" y="-130.5" font-family="Helvetica,sans-Serif" font-size="10.00" fill="#000000">/AliceO2Group/AliceO2</text>
<text text-anchor="middle" x="482.5" y="-119.5" font-family="Helvetica,sans-Serif" font-size="10.00" fill="#000000">/Generators/src/Pythia8Generator.cxx</text>
</g>
<!-- Node1 -->
<g id="node2" class="node">
<title>Node1</title>
<polygon fill="none" stroke="#bfbfbf" points="0,-56.5 0,-75.5 47,-75.5 47,-56.5 0,-56.5"/>
<text text-anchor="middle" x="23.5" y="-63.5" font-family="Helvetica,sans-Serif" font-size="10.00" fill="#000000">cmath</text>
</g>
<!-- Node0&#45;&gt;Node1 -->
<g id="edge1" class="edge">
<title>Node0&#45;&gt;Node1</title>
<path fill="none" stroke="#191970" d="M382.7248,-124.2408C298.2628,-115.7669 173.9942,-100.8119 57.0199,-75.8055"/>
<polygon fill="#191970" stroke="#191970" points="57.6873,-72.3689 47.173,-73.6726 56.2054,-79.2103 57.6873,-72.3689"/>
</g>
<!-- Node2 -->
<g id="node3" class="node">
<title>Node2</title>
<polygon fill="none" stroke="#bfbfbf" points="65.5,-56.5 65.5,-75.5 123.5,-75.5 123.5,-56.5 65.5,-56.5"/>
<text text-anchor="middle" x="94.5" y="-63.5" font-family="Helvetica,sans-Serif" font-size="10.00" fill="#000000">TROOT.h</text>
</g>
<!-- Node0&#45;&gt;Node2 -->
<g id="edge2" class="edge">
<title>Node0&#45;&gt;Node2</title>
<path fill="none" stroke="#191970" d="M382.8345,-119.366C315.0826,-109.4882 223.2733,-94.9181 133.928,-76.1596"/>
<polygon fill="#191970" stroke="#191970" points="134.4003,-72.682 123.8918,-74.0323 132.9488,-79.5299 134.4003,-72.682"/>
</g>
<!-- Node3 -->
<g id="node4" class="node">
<title>Node3</title>
<polygon fill="none" stroke="#bfbfbf" points="142,-56.5 142,-75.5 239,-75.5 239,-56.5 142,-56.5"/>
<text text-anchor="middle" x="190.5" y="-63.5" font-family="Helvetica,sans-Serif" font-size="10.00" fill="#000000">Pythia8/Basics.h</text>
</g>
<!-- Node0&#45;&gt;Node3 -->
<g id="edge3" class="edge">
<title>Node0&#45;&gt;Node3</title>
<path fill="none" stroke="#191970" d="M392.906,-112.4425C343.3456,-101.0707 283.5383,-87.3478 241.8396,-77.78"/>
<polygon fill="#191970" stroke="#191970" points="242.4398,-74.3268 231.9103,-75.5017 240.8743,-81.1495 242.4398,-74.3268"/>
</g>
<!-- Node4 -->
<g id="node5" class="node">
<title>Node4</title>
<polygon fill="none" stroke="#bfbfbf" points="257.5,-56.5 257.5,-75.5 353.5,-75.5 353.5,-56.5 257.5,-56.5"/>
<text text-anchor="middle" x="305.5" y="-63.5" font-family="Helvetica,sans-Serif" font-size="10.00" fill="#000000">Pythia8/Pythia.h</text>
</g>
<!-- Node0&#45;&gt;Node4 -->
<g id="edge4" class="edge">
<title>Node0&#45;&gt;Node4</title>
<path fill="none" stroke="#191970" d="M427.9499,-112.3511C399.4341,-101.557 365.3755,-88.6647 340.4256,-79.2204"/>
<polygon fill="#191970" stroke="#191970" points="341.597,-75.9215 331.0055,-75.6546 339.1188,-82.4682 341.597,-75.9215"/>
</g>
<!-- Node5 -->
<g id="node6" class="node">
<title>Node5</title>
<polygon fill="none" stroke="#bfbfbf" points="372,-56.5 372,-75.5 501,-75.5 501,-56.5 372,-56.5"/>
<text text-anchor="middle" x="436.5" y="-63.5" font-family="Helvetica,sans-Serif" font-size="10.00" fill="#000000">FairPrimaryGenerator.h</text>
</g>
<!-- Node0&#45;&gt;Node5 -->
<g id="edge5" class="edge">
<title>Node0&#45;&gt;Node5</title>
<path fill="none" stroke="#191970" d="M468.1975,-112.168C462.012,-103.1587 454.8423,-92.7159 448.8879,-84.0432"/>
<polygon fill="#191970" stroke="#191970" points="451.7605,-82.0435 443.2149,-75.7805 445.9896,-86.0055 451.7605,-82.0435"/>
</g>
<!-- Node6 -->
<g id="node7" class="node">
<title>Node6</title>
<polygon fill="none" stroke="#bfbfbf" points="634,-.5 634,-19.5 725,-19.5 725,-.5 634,-.5"/>
<text text-anchor="middle" x="679.5" y="-7.5" font-family="Helvetica,sans-Serif" font-size="10.00" fill="#000000">FairGenerator.h</text>
</g>
<!-- Node0&#45;&gt;Node6 -->
<g id="edge6" class="edge">
<title>Node0&#45;&gt;Node6</title>
<path fill="none" stroke="#191970" d="M495.6266,-112.3407C507.537,-95.1026 526.5564,-71.0102 548.5,-56 571.3192,-40.3908 599.9873,-29.5347 624.6825,-22.3059"/>
<polygon fill="#191970" stroke="#191970" points="625.9502,-25.5857 634.6379,-19.5216 624.0647,-18.8444 625.9502,-25.5857"/>
</g>
<!-- Node7 -->
<g id="node8" class="node">
<title>Node7</title>
<polygon fill="none" stroke="#bfbfbf" points="557.5,-56.5 557.5,-75.5 629.5,-75.5 629.5,-56.5 557.5,-56.5"/>
<text text-anchor="middle" x="593.5" y="-63.5" font-family="Helvetica,sans-Serif" font-size="10.00" fill="#000000">TRandom.h</text>
</g>
<!-- Node0&#45;&gt;Node7 -->
<g id="edge7" class="edge">
<title>Node0&#45;&gt;Node7</title>
<path fill="none" stroke="#191970" d="M516.7094,-112.3511C533.4844,-102.2256 553.3181,-90.254 568.6262,-81.0139"/>
<polygon fill="#191970" stroke="#191970" points="570.7524,-83.8188 577.505,-75.6546 567.135,-77.8259 570.7524,-83.8188"/>
</g>
<!-- Node8 -->
<g id="node9" class="node">
<title>Node8</title>
<polygon fill="none" stroke="#bfbfbf" points="647.5,-56.5 647.5,-75.5 725.5,-75.5 725.5,-56.5 647.5,-56.5"/>
<text text-anchor="middle" x="686.5" y="-63.5" font-family="Helvetica,sans-Serif" font-size="10.00" fill="#000000">TRandom1.h</text>
</g>
<!-- Node0&#45;&gt;Node8 -->
<g id="edge8" class="edge">
<title>Node0&#45;&gt;Node8</title>
<path fill="none" stroke="#191970" d="M545.0931,-112.4425C578.6194,-101.4314 618.8577,-88.2158 647.8235,-78.7026"/>
<polygon fill="#191970" stroke="#191970" points="649.1609,-81.9473 657.5695,-75.5017 646.9766,-75.2968 649.1609,-81.9473"/>
</g>
<!-- Node9 -->
<g id="node10" class="node">
<title>Node9</title>
<polygon fill="none" stroke="#bfbfbf" points="743.5,-56.5 743.5,-75.5 821.5,-75.5 821.5,-56.5 743.5,-56.5"/>
<text text-anchor="middle" x="782.5" y="-63.5" font-family="Helvetica,sans-Serif" font-size="10.00" fill="#000000">TRandom3.h</text>
</g>
<!-- Node0&#45;&gt;Node9 -->
<g id="edge9" class="edge">
<title>Node0&#45;&gt;Node9</title>
<path fill="none" stroke="#191970" d="M574.5487,-112.4425C626.8501,-100.7618 690.2591,-86.6005 733.2037,-77.0095"/>
<polygon fill="#191970" stroke="#191970" points="734.1246,-80.3901 743.1213,-74.7946 732.5988,-73.5584 734.1246,-80.3901"/>
</g>
<!-- Node10 -->
<g id="node11" class="node">
<title>Node10</title>
<g id="a_node11"><a xlink:href="../../d6/df5/Pythia8Generator_8h.html" target="_top" xlink:title="Generators/Pythia8Generator.h">
<polygon fill="none" stroke="#000000" points="840,-56.5 840,-75.5 1007,-75.5 1007,-56.5 840,-56.5"/>
<text text-anchor="middle" x="923.5" y="-63.5" font-family="Helvetica,sans-Serif" font-size="10.00" fill="#000000">Generators/Pythia8Generator.h</text>
</a>
</g>
</g>
<!-- Node0&#45;&gt;Node10 -->
<g id="edge10" class="edge">
<title>Node0&#45;&gt;Node10</title>
<path fill="none" stroke="#191970" d="M582.0189,-117.8804C663.6632,-105.4763 777.358,-88.203 850.6982,-77.0606"/>
<polygon fill="#191970" stroke="#191970" points="851.4107,-80.4926 860.7715,-75.5302 850.3592,-73.572 851.4107,-80.4926"/>
</g>
<!-- Node10&#45;&gt;Node6 -->
<g id="edge11" class="edge">
<title>Node10&#45;&gt;Node6</title>
<path fill="none" stroke="#191970" d="M881.8321,-56.4369C840.0734,-46.8529 775.7109,-32.0812 730.8272,-21.78"/>
<polygon fill="#191970" stroke="#191970" points="731.5255,-18.3494 720.996,-19.5237 729.9596,-25.172 731.5255,-18.3494"/>
</g>
<!-- Node11 -->
<g id="node12" class="node">
<title>Node11</title>
<polygon fill="none" stroke="#bfbfbf" points="855,-.5 855,-19.5 914,-19.5 914,-.5 855,-.5"/>
<text text-anchor="middle" x="884.5" y="-7.5" font-family="Helvetica,sans-Serif" font-size="10.00" fill="#000000">Rtypes.h</text>
</g>
<!-- Node10&#45;&gt;Node11 -->
<g id="edge12" class="edge">
<title>Node10&#45;&gt;Node11</title>
<path fill="none" stroke="#191970" d="M916.7067,-56.2455C911.2822,-48.4564 903.5339,-37.3308 896.9967,-27.9439"/>
<polygon fill="#191970" stroke="#191970" points="899.8025,-25.8485 891.2154,-19.6427 894.0583,-29.849 899.8025,-25.8485"/>
</g>
<!-- Node12 -->
<g id="node13" class="node">
<title>Node12</title>
<polygon fill="none" stroke="#bfbfbf" points="932.5,-.5 932.5,-19.5 990.5,-19.5 990.5,-.5 932.5,-.5"/>
<text text-anchor="middle" x="961.5" y="-7.5" font-family="Helvetica,sans-Serif" font-size="10.00" fill="#000000">memory</text>
</g>
<!-- Node10&#45;&gt;Node12 -->
<g id="edge13" class="edge">
<title>Node10&#45;&gt;Node12</title>
<path fill="none" stroke="#191970" d="M930.1191,-56.2455C935.4046,-48.4564 942.9541,-37.3308 949.3238,-27.9439"/>
<polygon fill="#191970" stroke="#191970" points="952.2379,-29.8827 954.9568,-19.6427 946.4455,-25.9522 952.2379,-29.8827"/>
</g>
</g>
</svg>
