<?xml version="1.0" encoding="UTF-8" standalone="no"?>
<!DOCTYPE svg PUBLIC "-//W3C//DTD SVG 1.1//EN"
 "http://www.w3.org/Graphics/SVG/1.1/DTD/svg11.dtd">
<!-- Generated by graphviz version 2.40.1 (20161225.0304)
 -->
<!-- Title: /home/travis/build/AliceO2Group/AliceO2/Detectors/TRD/base/src/CalPad.cxx Pages: 1 -->
<svg width="2282pt" height="497pt"
 viewBox="0.00 0.00 2282.00 497.00" xmlns="http://www.w3.org/2000/svg" xmlns:xlink="http://www.w3.org/1999/xlink">
<g id="graph0" class="graph" transform="scale(1 1) rotate(0) translate(4 493)">
<title>/home/travis/build/AliceO2Group/AliceO2/Detectors/TRD/base/src/CalPad.cxx</title>
<!-- Node0 -->
<g id="node1" class="node">
<title>Node0</title>
<polygon fill="#bfbfbf" stroke="#000000" points="850.5,-436.5 850.5,-488.5 984.5,-488.5 984.5,-436.5 850.5,-436.5"/>
<text text-anchor="start" x="858.5" y="-476.5" font-family="Helvetica,sans-Serif" font-size="10.00" fill="#000000">/home/travis/build</text>
<text text-anchor="start" x="858.5" y="-465.5" font-family="Helvetica,sans-Serif" font-size="10.00" fill="#000000">/AliceO2Group/AliceO2</text>
<text text-anchor="start" x="858.5" y="-454.5" font-family="Helvetica,sans-Serif" font-size="10.00" fill="#000000">/Detectors/TRD/base/src</text>
<text text-anchor="middle" x="917.5" y="-443.5" font-family="Helvetica,sans-Serif" font-size="10.00" fill="#000000">/CalPad.cxx</text>
</g>
<!-- Node1 -->
<g id="node2" class="node">
<title>Node1</title>
<polygon fill="none" stroke="#bfbfbf" points="581.5,-380.5 581.5,-399.5 637.5,-399.5 637.5,-380.5 581.5,-380.5"/>
<text text-anchor="middle" x="609.5" y="-387.5" font-family="Helvetica,sans-Serif" font-size="10.00" fill="#000000">TMath.h</text>
</g>
<!-- Node0&#45;&gt;Node1 -->
<g id="edge1" class="edge">
<title>Node0&#45;&gt;Node1</title>
<path fill="none" stroke="#191970" d="M850.2333,-447.7188C797.6562,-435.9972 722.4977,-418.874 647.8087,-400.2673"/>
<polygon fill="#191970" stroke="#191970" points="648.3039,-396.7834 637.7534,-397.7524 646.6054,-403.5742 648.3039,-396.7834"/>
</g>
<!-- Node2 -->
<g id="node3" class="node">
<title>Node2</title>
<polygon fill="none" stroke="#bfbfbf" points="656,-380.5 656,-399.5 705,-399.5 705,-380.5 656,-380.5"/>
<text text-anchor="middle" x="680.5" y="-387.5" font-family="Helvetica,sans-Serif" font-size="10.00" fill="#000000">TH2F.h</text>
</g>
<!-- Node0&#45;&gt;Node2 -->
<g id="edge2" class="edge">
<title>Node0&#45;&gt;Node2</title>
<path fill="none" stroke="#191970" d="M850.2193,-441.9183C806.1266,-428.4301 750.3185,-411.358 715.0006,-400.554"/>
<polygon fill="#191970" stroke="#191970" points="715.7581,-397.1256 705.1716,-397.5472 713.7103,-403.8195 715.7581,-397.1256"/>
</g>
<!-- Node3 -->
<g id="node4" class="node">
<title>Node3</title>
<polygon fill="none" stroke="#bfbfbf" points="723,-380.5 723,-399.5 772,-399.5 772,-380.5 723,-380.5"/>
<text text-anchor="middle" x="747.5" y="-387.5" font-family="Helvetica,sans-Serif" font-size="10.00" fill="#000000">TH1F.h</text>
</g>
<!-- Node0&#45;&gt;Node3 -->
<g id="edge3" class="edge">
<title>Node0&#45;&gt;Node3</title>
<path fill="none" stroke="#191970" d="M856.1261,-436.3258C830.064,-425.2111 800.7829,-412.7236 779.1942,-403.5167"/>
<polygon fill="#191970" stroke="#191970" points="780.4271,-400.2375 769.8556,-399.534 777.681,-406.6764 780.4271,-400.2375"/>
</g>
<!-- Node4 -->
<g id="node5" class="node">
<title>Node4</title>
<polygon fill="none" stroke="#bfbfbf" points="790.5,-380.5 790.5,-399.5 846.5,-399.5 846.5,-380.5 790.5,-380.5"/>
<text text-anchor="middle" x="818.5" y="-387.5" font-family="Helvetica,sans-Serif" font-size="10.00" fill="#000000">TStyle.h</text>
</g>
<!-- Node0&#45;&gt;Node4 -->
<g id="edge4" class="edge">
<title>Node0&#45;&gt;Node4</title>
<path fill="none" stroke="#191970" d="M881.7587,-436.3258C867.6752,-426.0122 851.9776,-414.5165 839.743,-405.5567"/>
<polygon fill="#191970" stroke="#191970" points="841.6547,-402.6186 831.5188,-399.534 837.5189,-408.2662 841.6547,-402.6186"/>
</g>
<!-- Node5 -->
<g id="node6" class="node">
<title>Node5</title>
<g id="a_node6"><a xlink:href="../../d5/d76/CalPad_8h.html" target="_top" xlink:title="TRDBase/CalPad.h">
<polygon fill="none" stroke="#000000" points="864.5,-380.5 864.5,-399.5 970.5,-399.5 970.5,-380.5 864.5,-380.5"/>
<text text-anchor="middle" x="917.5" y="-387.5" font-family="Helvetica,sans-Serif" font-size="10.00" fill="#000000">TRDBase/CalPad.h</text>
</a>
</g>
</g>
<!-- Node0&#45;&gt;Node5 -->
<g id="edge5" class="edge">
<title>Node0&#45;&gt;Node5</title>
<path fill="none" stroke="#191970" d="M917.5,-436.3258C917.5,-427.5142 917.5,-417.8397 917.5,-409.621"/>
<polygon fill="#191970" stroke="#191970" points="921.0001,-409.534 917.5,-399.534 914.0001,-409.534 921.0001,-409.534"/>
</g>
<!-- Node6 -->
<g id="node7" class="node">
<title>Node6</title>
<g id="a_node7"><a xlink:href="../../dd/d07/TRDGeometry_8h.html" target="_top" xlink:title="TRDBase/TRDGeometry.h">
<polygon fill="none" stroke="#000000" points="988.5,-380.5 988.5,-399.5 1128.5,-399.5 1128.5,-380.5 988.5,-380.5"/>
<text text-anchor="middle" x="1058.5" y="-387.5" font-family="Helvetica,sans-Serif" font-size="10.00" fill="#000000">TRDBase/TRDGeometry.h</text>
</a>
</g>
</g>
<!-- Node0&#45;&gt;Node6 -->
<g id="edge6" class="edge">
<title>Node0&#45;&gt;Node6</title>
<path fill="none" stroke="#191970" d="M968.4042,-436.3258C989.4362,-425.5115 1012.9957,-413.3976 1030.7468,-404.2703"/>
<polygon fill="#191970" stroke="#191970" points="1032.6652,-407.2195 1039.958,-399.534 1029.4643,-400.9942 1032.6652,-407.2195"/>
</g>
<!-- Node14 -->
<g id="node15" class="node">
<title>Node14</title>
<g id="a_node15"><a xlink:href="../../de/df3/TRDPadPlane_8h.html" target="_top" xlink:title="TRDBase/TRDPadPlane.h">
<polygon fill="none" stroke="#000000" points="2137,-252 2137,-271 2274,-271 2274,-252 2137,-252"/>
<text text-anchor="middle" x="2205.5" y="-259" font-family="Helvetica,sans-Serif" font-size="10.00" fill="#000000">TRDBase/TRDPadPlane.h</text>
</a>
</g>
</g>
<!-- Node0&#45;&gt;Node14 -->
<g id="edge56" class="edge">
<title>Node0&#45;&gt;Node14</title>
<path fill="none" stroke="#191970" d="M984.6703,-454.511C1129.8823,-436.9646 1483.7409,-392.7223 1778.5,-344 1912.6226,-321.8302 2069.3016,-290.0361 2150.4639,-273.122"/>
<polygon fill="#191970" stroke="#191970" points="2151.3824,-276.5058 2160.4557,-271.0354 2149.9513,-269.6536 2151.3824,-276.5058"/>
</g>
<!-- Node44 -->
<g id="node45" class="node">
<title>Node44</title>
<g id="a_node45"><a xlink:href="../../da/d87/CalROC_8h.html" target="_top" xlink:title="CalROC.h">
<polygon fill="none" stroke="#000000" points="1825.5,-380.5 1825.5,-399.5 1887.5,-399.5 1887.5,-380.5 1825.5,-380.5"/>
<text text-anchor="middle" x="1856.5" y="-387.5" font-family="Helvetica,sans-Serif" font-size="10.00" fill="#000000">CalROC.h</text>
</a>
</g>
</g>
<!-- Node0&#45;&gt;Node44 -->
<g id="edge57" class="edge">
<title>Node0&#45;&gt;Node44</title>
<path fill="none" stroke="#191970" d="M984.592,-461.2167C1133.9129,-457.6168 1504.7116,-444.5584 1811.5,-400 1812.7474,-399.8188 1814.0116,-399.6221 1815.2859,-399.4124"/>
<polygon fill="#191970" stroke="#191970" points="1815.9401,-402.8509 1825.139,-397.5943 1814.6698,-395.9671 1815.9401,-402.8509"/>
</g>
<!-- Node45 -->
<g id="node46" class="node">
<title>Node45</title>
<polygon fill="none" stroke="#bfbfbf" points="1906,-380.5 1906,-399.5 1965,-399.5 1965,-380.5 1906,-380.5"/>
<text text-anchor="middle" x="1935.5" y="-387.5" font-family="Helvetica,sans-Serif" font-size="10.00" fill="#000000">CalDet.h</text>
</g>
<!-- Node0&#45;&gt;Node45 -->
<g id="edge58" class="edge">
<title>Node0&#45;&gt;Node45</title>
<path fill="none" stroke="#191970" d="M984.5428,-459.8583C1172.188,-452.2089 1701.0584,-428.8355 1895.6872,-399.7882"/>
<polygon fill="#191970" stroke="#191970" points="1896.4616,-403.2101 1905.8096,-398.2236 1895.3923,-396.2923 1896.4616,-403.2101"/>
</g>
<!-- Node7 -->
<g id="node8" class="node">
<title>Node7</title>
<g id="a_node8"><a xlink:href="../../d8/dad/TRDGeometryBase_8h.html" target="_top" xlink:title="TRDBase/TRDGeometryBase.h">
<polygon fill="none" stroke="#000000" points="1603.5,-319 1603.5,-338 1769.5,-338 1769.5,-319 1603.5,-319"/>
<text text-anchor="middle" x="1686.5" y="-326" font-family="Helvetica,sans-Serif" font-size="10.00" fill="#000000">TRDBase/TRDGeometryBase.h</text>
</a>
</g>
</g>
<!-- Node6&#45;&gt;Node7 -->
<g id="edge7" class="edge">
<title>Node6&#45;&gt;Node7</title>
<path fill="none" stroke="#191970" d="M1128.7116,-383.1242C1242.3,-372.0005 1466.4102,-350.0534 1593.2542,-337.6316"/>
<polygon fill="#191970" stroke="#191970" points="1593.7301,-341.1018 1603.3414,-336.6437 1593.0478,-334.1351 1593.7301,-341.1018"/>
</g>
<!-- Node15 -->
<g id="node16" class="node">
<title>Node15</title>
<g id="a_node16"><a xlink:href="../../d4/d20/DetMatrixCache_8h.html" target="_top" xlink:title="DetectorsCommonDataFormats\l/DetMatrixCache.h">
<polygon fill="none" stroke="#000000" points="973,-313.5 973,-343.5 1144,-343.5 1144,-313.5 973,-313.5"/>
<text text-anchor="start" x="981" y="-331.5" font-family="Helvetica,sans-Serif" font-size="10.00" fill="#000000">DetectorsCommonDataFormats</text>
<text text-anchor="middle" x="1058.5" y="-320.5" font-family="Helvetica,sans-Serif" font-size="10.00" fill="#000000">/DetMatrixCache.h</text>
</a>
</g>
</g>
<!-- Node6&#45;&gt;Node15 -->
<g id="edge17" class="edge">
<title>Node6&#45;&gt;Node15</title>
<path fill="none" stroke="#191970" d="M1058.5,-380.3906C1058.5,-373.2234 1058.5,-363.0862 1058.5,-353.671"/>
<polygon fill="#191970" stroke="#191970" points="1062.0001,-353.5446 1058.5,-343.5446 1055.0001,-353.5446 1062.0001,-353.5446"/>
</g>
<!-- Node20 -->
<g id="node21" class="node">
<title>Node20</title>
<polygon fill="none" stroke="#bfbfbf" points="461,-252 461,-271 508,-271 508,-252 461,-252"/>
<text text-anchor="middle" x="484.5" y="-259" font-family="Helvetica,sans-Serif" font-size="10.00" fill="#000000">vector</text>
</g>
<!-- Node6&#45;&gt;Node20 -->
<g id="edge54" class="edge">
<title>Node6&#45;&gt;Node20</title>
<path fill="none" stroke="#191970" d="M993.9647,-380.4514C892.2526,-364.5014 689.0889,-328.9808 522.5,-277 520.3448,-276.3275 518.1409,-275.584 515.9334,-274.7974"/>
<polygon fill="#191970" stroke="#191970" points="516.963,-271.4444 506.372,-271.1591 514.4735,-277.9868 516.963,-271.4444"/>
</g>
<!-- Node21 -->
<g id="node22" class="node">
<title>Node21</title>
<g id="a_node22"><a xlink:href="../../d6/d31/DetID_8h.html" target="_top" xlink:title="DetectorsCommonDataFormats\l/DetID.h">
<polygon fill="none" stroke="#000000" points="272,-246.5 272,-276.5 443,-276.5 443,-246.5 272,-246.5"/>
<text text-anchor="start" x="280" y="-264.5" font-family="Helvetica,sans-Serif" font-size="10.00" fill="#000000">DetectorsCommonDataFormats</text>
<text text-anchor="middle" x="357.5" y="-253.5" font-family="Helvetica,sans-Serif" font-size="10.00" fill="#000000">/DetID.h</text>
</a>
</g>
</g>
<!-- Node6&#45;&gt;Node21 -->
<g id="edge52" class="edge">
<title>Node6&#45;&gt;Node21</title>
<path fill="none" stroke="#191970" d="M988.2944,-381.0671C985.3236,-380.7036 982.3824,-380.3466 979.5,-380 839.1581,-363.1241 802.3519,-370.4723 663.5,-344 575.3111,-327.1867 475.2307,-298.2912 414.2432,-279.5454"/>
<polygon fill="#191970" stroke="#191970" points="415.0175,-276.1214 404.4299,-276.5128 412.9507,-282.8093 415.0175,-276.1214"/>
</g>
<!-- Node42 -->
<g id="node43" class="node">
<title>Node42</title>
<polygon fill="none" stroke="#bfbfbf" points="834.5,-319 834.5,-338 878.5,-338 878.5,-319 834.5,-319"/>
<text text-anchor="middle" x="856.5" y="-326" font-family="Helvetica,sans-Serif" font-size="10.00" fill="#000000">string</text>
</g>
<!-- Node6&#45;&gt;Node42 -->
<g id="edge53" class="edge">
<title>Node6&#45;&gt;Node42</title>
<path fill="none" stroke="#191970" d="M1013.4348,-380.4876C978.4943,-372.4916 929.1689,-359.8375 887.5,-344 886.129,-343.4789 884.738,-342.9165 883.3433,-342.3254"/>
<polygon fill="#191970" stroke="#191970" points="884.8042,-339.1449 874.257,-338.1416 881.8764,-345.5033 884.8042,-339.1449"/>
</g>
<!-- Node43 -->
<g id="node44" class="node">
<title>Node43</title>
<polygon fill="none" stroke="#bfbfbf" points="896.5,-319 896.5,-338 954.5,-338 954.5,-319 896.5,-319"/>
<text text-anchor="middle" x="925.5" y="-326" font-family="Helvetica,sans-Serif" font-size="10.00" fill="#000000">memory</text>
</g>
<!-- Node6&#45;&gt;Node43 -->
<g id="edge55" class="edge">
<title>Node6&#45;&gt;Node43</title>
<path fill="none" stroke="#191970" d="M1037.7188,-380.3906C1015.6606,-370.1908 980.595,-353.9763 955.5331,-342.3875"/>
<polygon fill="#191970" stroke="#191970" points="956.6809,-339.0622 946.1353,-338.0419 953.7429,-345.4158 956.6809,-339.0622"/>
</g>
<!-- Node8 -->
<g id="node9" class="node">
<title>Node8</title>
<g id="a_node9"><a xlink:href="../../df/d21/GPUCommonDef_8h.html" target="_top" xlink:title="GPUCommonDef.h">
<polygon fill="none" stroke="#000000" points="1235,-56.5 1235,-75.5 1342,-75.5 1342,-56.5 1235,-56.5"/>
<text text-anchor="middle" x="1288.5" y="-63.5" font-family="Helvetica,sans-Serif" font-size="10.00" fill="#000000">GPUCommonDef.h</text>
</a>
</g>
</g>
<!-- Node7&#45;&gt;Node8 -->
<g id="edge8" class="edge">
<title>Node7&#45;&gt;Node8</title>
<path fill="none" stroke="#191970" d="M1738.3214,-318.9967C1853.7488,-297.3044 2123.8268,-243.4405 2148.5,-210 2156.68,-198.9133 2153.3118,-191.9102 2148.5,-179 2134.745,-142.0946 2125.8387,-129.3892 2090.5,-112 2025.0191,-79.7788 1530.4717,-69.4958 1352.2623,-66.8168"/>
<polygon fill="#191970" stroke="#191970" points="1352.2974,-63.3171 1342.2469,-66.6693 1352.1942,-70.3163 1352.2974,-63.3171"/>
</g>
<!-- Node11 -->
<g id="node12" class="node">
<title>Node11</title>
<g id="a_node12"><a xlink:href="../../da/d32/TRDCommonParam_8h.html" target="_top" xlink:title="TRDBase/TRDCommonParam.h">
<polygon fill="none" stroke="#000000" points="1754.5,-252 1754.5,-271 1922.5,-271 1922.5,-252 1754.5,-252"/>
<text text-anchor="middle" x="1838.5" y="-259" font-family="Helvetica,sans-Serif" font-size="10.00" fill="#000000">TRDBase/TRDCommonParam.h</text>
</a>
</g>
</g>
<!-- Node7&#45;&gt;Node11 -->
<g id="edge11" class="edge">
<title>Node7&#45;&gt;Node11</title>
<path fill="none" stroke="#191970" d="M1708.2779,-318.9005C1734.2384,-307.4574 1777.8113,-288.2509 1807.3346,-275.2374"/>
<polygon fill="#191970" stroke="#191970" points="1809.0237,-278.3178 1816.7625,-271.0817 1806.2003,-271.9125 1809.0237,-278.3178"/>
</g>
<!-- Node7&#45;&gt;Node14 -->
<g id="edge14" class="edge">
<title>Node7&#45;&gt;Node14</title>
<path fill="none" stroke="#191970" d="M1742.8477,-318.9817C1756.1581,-316.8759 1770.3139,-314.7524 1783.5,-313 1933.6933,-293.0392 1972.5807,-298.924 2122.5,-277 2130.7359,-275.7956 2139.4015,-274.3629 2147.9012,-272.8625"/>
<polygon fill="#191970" stroke="#191970" points="2148.5489,-276.3022 2157.7671,-271.0797 2147.304,-269.4138 2148.5489,-276.3022"/>
</g>
<!-- Node9 -->
<g id="node10" class="node">
<title>Node9</title>
<g id="a_node10"><a xlink:href="../../d5/d93/GPUCommonDefSettings_8h.html" target="_top" xlink:title="GPUCommonDefSettings.h">
<polygon fill="none" stroke="#000000" points="1137.5,-.5 1137.5,-19.5 1285.5,-19.5 1285.5,-.5 1137.5,-.5"/>
<text text-anchor="middle" x="1211.5" y="-7.5" font-family="Helvetica,sans-Serif" font-size="10.00" fill="#000000">GPUCommonDefSettings.h</text>
</a>
</g>
</g>
<!-- Node8&#45;&gt;Node9 -->
<g id="edge9" class="edge">
<title>Node8&#45;&gt;Node9</title>
<path fill="none" stroke="#191970" d="M1275.0876,-56.2455C1263.4943,-47.814 1246.5252,-35.4729 1233.0322,-25.6598"/>
<polygon fill="#191970" stroke="#191970" points="1234.9047,-22.6938 1224.7587,-19.6427 1230.7874,-28.355 1234.9047,-22.6938"/>
</g>
<!-- Node10 -->
<g id="node11" class="node">
<title>Node10</title>
<g id="a_node11"><a xlink:href="../../da/d5a/GPUCommonDefAPI_8h.html" target="_top" xlink:title="GPUCommonDefAPI.h">
<polygon fill="none" stroke="#000000" points="1303.5,-.5 1303.5,-19.5 1427.5,-19.5 1427.5,-.5 1303.5,-.5"/>
<text text-anchor="middle" x="1365.5" y="-7.5" font-family="Helvetica,sans-Serif" font-size="10.00" fill="#000000">GPUCommonDefAPI.h</text>
</a>
</g>
</g>
<!-- Node8&#45;&gt;Node10 -->
<g id="edge10" class="edge">
<title>Node8&#45;&gt;Node10</title>
<path fill="none" stroke="#191970" d="M1301.9124,-56.2455C1313.5057,-47.814 1330.4748,-35.4729 1343.9678,-25.6598"/>
<polygon fill="#191970" stroke="#191970" points="1346.2126,-28.355 1352.2413,-19.6427 1342.0953,-22.6938 1346.2126,-28.355"/>
</g>
<!-- Node12 -->
<g id="node13" class="node">
<title>Node12</title>
<g id="a_node13"><a xlink:href="../../d2/d45/GPUCommonRtypes_8h.html" target="_top" xlink:title="GPUCommonRtypes.h">
<polygon fill="none" stroke="#000000" points="2014,-185 2014,-204 2139,-204 2139,-185 2014,-185"/>
<text text-anchor="middle" x="2076.5" y="-192" font-family="Helvetica,sans-Serif" font-size="10.00" fill="#000000">GPUCommonRtypes.h</text>
</a>
</g>
</g>
<!-- Node11&#45;&gt;Node12 -->
<g id="edge12" class="edge">
<title>Node11&#45;&gt;Node12</title>
<path fill="none" stroke="#191970" d="M1872.3468,-251.9717C1914.4327,-240.124 1986.359,-219.8758 2032.6344,-206.8487"/>
<polygon fill="#191970" stroke="#191970" points="2033.7072,-210.1828 2042.3846,-204.1039 2031.8103,-203.4447 2033.7072,-210.1828"/>
</g>
<!-- Node13 -->
<g id="node14" class="node">
<title>Node13</title>
<polygon fill="none" stroke="#bfbfbf" points="1248,-118 1248,-137 1307,-137 1307,-118 1248,-118"/>
<text text-anchor="middle" x="1277.5" y="-125" font-family="Helvetica,sans-Serif" font-size="10.00" fill="#000000">Rtypes.h</text>
</g>
<!-- Node12&#45;&gt;Node13 -->
<g id="edge13" class="edge">
<title>Node12&#45;&gt;Node13</title>
<path fill="none" stroke="#191970" d="M2037.6226,-184.9536C2027.2405,-182.6953 2015.9902,-180.5081 2005.5,-179 1744.85,-141.5292 1427.6033,-130.9562 1317.4415,-128.304"/>
<polygon fill="#191970" stroke="#191970" points="1317.2137,-124.7978 1307.1351,-128.0646 1317.0511,-131.7959 1317.2137,-124.7978"/>
</g>
<!-- Node14&#45;&gt;Node8 -->
<g id="edge16" class="edge">
<title>Node14&#45;&gt;Node8</title>
<path fill="none" stroke="#191970" d="M2207.5043,-251.9441C2212.5084,-225.1208 2222.3835,-148.7011 2181.5,-112 2150.7004,-84.3512 1551.3277,-70.8428 1352.1981,-67.1051"/>
<polygon fill="#191970" stroke="#191970" points="1352.2427,-63.6054 1342.1794,-66.919 1352.1126,-70.6042 1352.2427,-63.6054"/>
</g>
<!-- Node14&#45;&gt;Node12 -->
<g id="edge15" class="edge">
<title>Node14&#45;&gt;Node12</title>
<path fill="none" stroke="#191970" d="M2187.0174,-251.9005C2165.2725,-240.6067 2128.9677,-221.7506 2103.936,-208.7497"/>
<polygon fill="#191970" stroke="#191970" points="2105.4359,-205.5849 2094.9483,-204.0817 2102.2095,-211.797 2105.4359,-205.5849"/>
</g>
<!-- Node15&#45;&gt;Node12 -->
<g id="edge21" class="edge">
<title>Node15&#45;&gt;Node12</title>
<path fill="none" stroke="#191970" d="M1144.3238,-318.2115C1361.4874,-292.1139 1921.5477,-224.386 2005.5,-210 2012.1005,-208.8689 2019.0161,-207.5406 2025.8325,-206.1454"/>
<polygon fill="#191970" stroke="#191970" points="2026.6352,-209.5532 2035.6999,-204.0685 2025.1934,-202.7033 2026.6352,-209.5532"/>
</g>
<!-- Node16 -->
<g id="node17" class="node">
<title>Node16</title>
<g id="a_node17"><a xlink:href="../../df/d5b/GPUCommonLogger_8h.html" target="_top" xlink:title="GPUCommonLogger.h">
<polygon fill="none" stroke="#000000" points="600,-252 600,-271 723,-271 723,-252 600,-252"/>
<text text-anchor="middle" x="661.5" y="-259" font-family="Helvetica,sans-Serif" font-size="10.00" fill="#000000">GPUCommonLogger.h</text>
</a>
</g>
</g>
<!-- Node15&#45;&gt;Node16 -->
<g id="edge18" class="edge">
<title>Node15&#45;&gt;Node16</title>
<path fill="none" stroke="#191970" d="M972.8457,-314.0445C899.4543,-301.6585 795.2447,-284.0715 727.9998,-272.7229"/>
<polygon fill="#191970" stroke="#191970" points="728.3883,-269.239 717.9452,-271.026 727.2233,-276.1414 728.3883,-269.239"/>
</g>
<!-- Node19 -->
<g id="node20" class="node">
<title>Node19</title>
<polygon fill="none" stroke="#bfbfbf" points="442.5,-118 442.5,-137 484.5,-137 484.5,-118 442.5,-118"/>
<text text-anchor="middle" x="463.5" y="-125" font-family="Helvetica,sans-Serif" font-size="10.00" fill="#000000">array</text>
</g>
<!-- Node15&#45;&gt;Node19 -->
<g id="edge22" class="edge">
<title>Node15&#45;&gt;Node19</title>
<path fill="none" stroke="#191970" d="M972.833,-314.2578C969.6848,-313.8187 966.5659,-313.3976 963.5,-313 880.9176,-302.2895 664.3096,-315.558 590.5,-277 533.0538,-246.9902 490.8323,-178.9774 472.9471,-146.0502"/>
<polygon fill="#191970" stroke="#191970" points="475.9529,-144.2468 468.1879,-137.0387 469.7631,-147.5159 475.9529,-144.2468"/>
</g>
<!-- Node15&#45;&gt;Node20 -->
<g id="edge23" class="edge">
<title>Node15&#45;&gt;Node20</title>
<path fill="none" stroke="#191970" d="M972.8404,-314.1994C969.6901,-313.7767 966.5687,-313.375 963.5,-313 768.3,-289.1475 713.7755,-322.6691 522.5,-277 519.7063,-276.333 516.8501,-275.4917 514.0205,-274.5475"/>
<polygon fill="#191970" stroke="#191970" points="515.224,-271.2609 504.6313,-271.045 512.7774,-277.8194 515.224,-271.2609"/>
</g>
<!-- Node15&#45;&gt;Node21 -->
<g id="edge24" class="edge">
<title>Node15&#45;&gt;Node21</title>
<path fill="none" stroke="#191970" d="M972.8457,-314.1548C969.6939,-313.7447 966.5708,-313.3577 963.5,-313 740.2339,-286.9923 679.823,-303.0977 453.2266,-277.1333"/>
<polygon fill="#191970" stroke="#191970" points="453.3463,-273.6238 443.0094,-275.9472 452.539,-280.5771 453.3463,-273.6238"/>
</g>
<!-- Node31 -->
<g id="node32" class="node">
<title>Node31</title>
<g id="a_node32"><a xlink:href="../../dd/d76/Cartesian3D_8h.html" target="_top" xlink:title="MathUtils/Cartesian3D.h">
<polygon fill="none" stroke="#000000" points="1148,-252 1148,-271 1283,-271 1283,-252 1148,-252"/>
<text text-anchor="middle" x="1215.5" y="-259" font-family="Helvetica,sans-Serif" font-size="10.00" fill="#000000">MathUtils/Cartesian3D.h</text>
</a>
</g>
</g>
<!-- Node15&#45;&gt;Node31 -->
<g id="edge40" class="edge">
<title>Node15&#45;&gt;Node31</title>
<path fill="none" stroke="#191970" d="M1093.7339,-313.4639C1120.6698,-301.969 1157.4894,-286.2561 1183.5689,-275.1266"/>
<polygon fill="#191970" stroke="#191970" points="1185.1716,-278.2482 1192.9953,-271.1039 1182.424,-271.8099 1185.1716,-278.2482"/>
</g>
<!-- Node17 -->
<g id="node18" class="node">
<title>Node17</title>
<polygon fill="none" stroke="#bfbfbf" points="631.5,-185 631.5,-204 691.5,-204 691.5,-185 631.5,-185"/>
<text text-anchor="middle" x="661.5" y="-192" font-family="Helvetica,sans-Serif" font-size="10.00" fill="#000000">iostream</text>
</g>
<!-- Node16&#45;&gt;Node17 -->
<g id="edge19" class="edge">
<title>Node16&#45;&gt;Node17</title>
<path fill="none" stroke="#191970" d="M661.5,-251.9005C661.5,-242.149 661.5,-226.7597 661.5,-214.3695"/>
<polygon fill="#191970" stroke="#191970" points="665.0001,-214.0816 661.5,-204.0817 658.0001,-214.0817 665.0001,-214.0816"/>
</g>
<!-- Node18 -->
<g id="node19" class="node">
<title>Node18</title>
<polygon fill="none" stroke="#bfbfbf" points="567.5,-185 567.5,-204 613.5,-204 613.5,-185 567.5,-185"/>
<text text-anchor="middle" x="590.5" y="-192" font-family="Helvetica,sans-Serif" font-size="10.00" fill="#000000">cstdio</text>
</g>
<!-- Node16&#45;&gt;Node18 -->
<g id="edge20" class="edge">
<title>Node16&#45;&gt;Node18</title>
<path fill="none" stroke="#191970" d="M651.3274,-251.9005C640.0447,-241.2535 621.6399,-223.8856 608.0258,-211.0385"/>
<polygon fill="#191970" stroke="#191970" points="610.3288,-208.3994 600.6537,-204.0817 605.5246,-213.4905 610.3288,-208.3994"/>
</g>
<!-- Node21&#45;&gt;Node13 -->
<g id="edge25" class="edge">
<title>Node21&#45;&gt;Node13</title>
<path fill="none" stroke="#191970" d="M385.8327,-246.478C423.9044,-227.0956 494.2342,-194.0808 558.5,-179 689.283,-148.31 1106.3698,-132.8755 1237.5849,-128.693"/>
<polygon fill="#191970" stroke="#191970" points="1237.7199,-132.1906 1247.6049,-128.3779 1237.4998,-125.1941 1237.7199,-132.1906"/>
</g>
<!-- Node21&#45;&gt;Node19 -->
<g id="edge26" class="edge">
<title>Node21&#45;&gt;Node19</title>
<path fill="none" stroke="#191970" d="M396.6709,-246.2901C413.3988,-237.9378 431.7392,-225.9776 443.5,-210 457.0376,-191.6085 461.5144,-165.2557 462.9393,-147.3173"/>
<polygon fill="#191970" stroke="#191970" points="466.4441,-147.3227 463.4929,-137.1472 459.4545,-146.9422 466.4441,-147.3227"/>
</g>
<!-- Node22 -->
<g id="node23" class="node">
<title>Node22</title>
<polygon fill="none" stroke="#bfbfbf" points="165.5,-185 165.5,-204 209.5,-204 209.5,-185 165.5,-185"/>
<text text-anchor="middle" x="187.5" y="-192" font-family="Helvetica,sans-Serif" font-size="10.00" fill="#000000">bitset</text>
</g>
<!-- Node21&#45;&gt;Node22 -->
<g id="edge27" class="edge">
<title>Node21&#45;&gt;Node22</title>
<path fill="none" stroke="#191970" d="M313.1926,-246.4707C285.6471,-236.7869 249.6652,-223.517 218.5,-210 217.32,-209.4882 216.121,-208.9538 214.9143,-208.4042"/>
<polygon fill="#191970" stroke="#191970" points="216.2362,-205.1571 205.7032,-204.014 213.2244,-211.4761 216.2362,-205.1571"/>
</g>
<!-- Node23 -->
<g id="node24" class="node">
<title>Node23</title>
<polygon fill="none" stroke="#bfbfbf" points="227.5,-185 227.5,-204 279.5,-204 279.5,-185 227.5,-185"/>
<text text-anchor="middle" x="253.5" y="-192" font-family="Helvetica,sans-Serif" font-size="10.00" fill="#000000">cassert</text>
</g>
<!-- Node21&#45;&gt;Node23 -->
<g id="edge28" class="edge">
<title>Node21&#45;&gt;Node23</title>
<path fill="none" stroke="#191970" d="M334.1604,-246.4639C317.1821,-235.526 294.2758,-220.769 277.2118,-209.7759"/>
<polygon fill="#191970" stroke="#191970" points="278.7096,-206.5774 268.4076,-204.1039 274.9186,-212.462 278.7096,-206.5774"/>
</g>
<!-- Node24 -->
<g id="node25" class="node">
<title>Node24</title>
<polygon fill="none" stroke="#bfbfbf" points="297.5,-185 297.5,-204 347.5,-204 347.5,-185 297.5,-185"/>
<text text-anchor="middle" x="322.5" y="-192" font-family="Helvetica,sans-Serif" font-size="10.00" fill="#000000">cstdint</text>
</g>
<!-- Node21&#45;&gt;Node24 -->
<g id="edge29" class="edge">
<title>Node21&#45;&gt;Node24</title>
<path fill="none" stroke="#191970" d="M349.558,-246.2967C344.4225,-236.4658 337.7029,-223.6026 332.2449,-213.1545"/>
<polygon fill="#191970" stroke="#191970" points="335.2239,-211.2979 327.4914,-204.055 329.0194,-214.5391 335.2239,-211.2979"/>
</g>
<!-- Node25 -->
<g id="node26" class="node">
<title>Node25</title>
<polygon fill="none" stroke="#bfbfbf" points="366,-185 366,-204 435,-204 435,-185 366,-185"/>
<text text-anchor="middle" x="400.5" y="-192" font-family="Helvetica,sans-Serif" font-size="10.00" fill="#000000">type_traits</text>
</g>
<!-- Node21&#45;&gt;Node25 -->
<g id="edge30" class="edge">
<title>Node21&#45;&gt;Node25</title>
<path fill="none" stroke="#191970" d="M367.2574,-246.2967C373.6968,-236.2631 382.1635,-223.0709 388.9405,-212.5113"/>
<polygon fill="#191970" stroke="#191970" points="391.912,-214.3613 394.3677,-204.055 386.0209,-210.5804 391.912,-214.3613"/>
</g>
<!-- Node26 -->
<g id="node27" class="node">
<title>Node26</title>
<g id="a_node27"><a xlink:href="../../d9/d52/Common_2MathUtils_2include_2MathUtils_2Utils_8h.html" target="_top" xlink:title="MathUtils/Utils.h">
<polygon fill="none" stroke="#000000" points="49.5,-185 49.5,-204 147.5,-204 147.5,-185 49.5,-185"/>
<text text-anchor="middle" x="98.5" y="-192" font-family="Helvetica,sans-Serif" font-size="10.00" fill="#000000">MathUtils/Utils.h</text>
</a>
</g>
</g>
<!-- Node21&#45;&gt;Node26 -->
<g id="edge31" class="edge">
<title>Node21&#45;&gt;Node26</title>
<path fill="none" stroke="#191970" d="M298.0919,-246.4497C258.0558,-236.2649 204.0692,-222.4499 156.5,-210 152.4163,-208.9312 148.1731,-207.8126 143.923,-206.6868"/>
<polygon fill="#191970" stroke="#191970" points="144.6291,-203.253 134.0656,-204.0667 142.8309,-210.0181 144.6291,-203.253"/>
</g>
<!-- Node26&#45;&gt;Node8 -->
<g id="edge34" class="edge">
<title>Node26&#45;&gt;Node8</title>
<path fill="none" stroke="#191970" d="M131.7886,-184.9736C139.8396,-182.8446 148.4461,-180.7129 156.5,-179 255.9858,-157.842 287.0279,-178.0737 382.5,-143 407.3985,-133.853 408.1588,-119.8378 433.5,-112 508.3295,-88.856 1039.4862,-72.641 1224.8582,-67.6333"/>
<polygon fill="#191970" stroke="#191970" points="1225.0931,-71.1283 1234.9956,-67.3613 1224.9053,-64.1309 1225.0931,-71.1283"/>
</g>
<!-- Node26&#45;&gt;Node19 -->
<g id="edge32" class="edge">
<title>Node26&#45;&gt;Node19</title>
<path fill="none" stroke="#191970" d="M131.149,-184.9937C139.375,-182.8147 148.2214,-180.6552 156.5,-179 274.3486,-155.4378 308.233,-173.4211 424.5,-143 427.2754,-142.2738 430.1197,-141.4043 432.946,-140.4528"/>
<polygon fill="#191970" stroke="#191970" points="434.1824,-143.7274 442.3597,-136.9907 431.7662,-137.1576 434.1824,-143.7274"/>
</g>
<!-- Node27 -->
<g id="node28" class="node">
<title>Node27</title>
<polygon fill="none" stroke="#bfbfbf" points="0,-56.5 0,-75.5 47,-75.5 47,-56.5 0,-56.5"/>
<text text-anchor="middle" x="23.5" y="-63.5" font-family="Helvetica,sans-Serif" font-size="10.00" fill="#000000">cmath</text>
</g>
<!-- Node26&#45;&gt;Node27 -->
<g id="edge33" class="edge">
<title>Node26&#45;&gt;Node27</title>
<path fill="none" stroke="#191970" d="M81.0868,-184.8568C66.7199,-175.9381 47.0436,-161.3107 36.5,-143 26.3861,-125.4357 23.6515,-102.1261 23.1265,-85.7715"/>
<polygon fill="#191970" stroke="#191970" points="26.6261,-85.6904 23.0526,-75.7164 19.6263,-85.7419 26.6261,-85.6904"/>
</g>
<!-- Node28 -->
<g id="node29" class="node">
<title>Node28</title>
<g id="a_node29"><a xlink:href="../../d6/da2/GPUCommonMath_8h.html" target="_top" xlink:title="GPUCommonMath.h">
<polygon fill="none" stroke="#000000" points="46,-118 46,-137 161,-137 161,-118 46,-118"/>
<text text-anchor="middle" x="103.5" y="-125" font-family="Helvetica,sans-Serif" font-size="10.00" fill="#000000">GPUCommonMath.h</text>
</a>
</g>
</g>
<!-- Node26&#45;&gt;Node28 -->
<g id="edge35" class="edge">
<title>Node26&#45;&gt;Node28</title>
<path fill="none" stroke="#191970" d="M99.2164,-184.9005C99.9441,-175.149 101.0926,-159.7597 102.0172,-147.3695"/>
<polygon fill="#191970" stroke="#191970" points="105.531,-147.3144 102.785,-137.0817 98.5504,-146.7934 105.531,-147.3144"/>
</g>
<!-- Node30 -->
<g id="node31" class="node">
<title>Node30</title>
<g id="a_node31"><a xlink:href="../../d6/d84/MathConstants_8h.html" target="_top" xlink:title="useful math constants ">
<polygon fill="none" stroke="#000000" points="179.5,-118 179.5,-137 373.5,-137 373.5,-118 179.5,-118"/>
<text text-anchor="middle" x="276.5" y="-125" font-family="Helvetica,sans-Serif" font-size="10.00" fill="#000000">CommonConstants/MathConstants.h</text>
</a>
</g>
</g>
<!-- Node26&#45;&gt;Node30 -->
<g id="edge39" class="edge">
<title>Node26&#45;&gt;Node30</title>
<path fill="none" stroke="#191970" d="M124.0031,-184.9005C154.8007,-173.3082 206.765,-153.7486 241.3481,-140.7313"/>
<polygon fill="#191970" stroke="#191970" points="242.9183,-143.8801 251.0442,-137.0817 240.4523,-137.3288 242.9183,-143.8801"/>
</g>
<!-- Node28&#45;&gt;Node8 -->
<g id="edge36" class="edge">
<title>Node28&#45;&gt;Node8</title>
<path fill="none" stroke="#191970" d="M139.0871,-117.9712C149.1711,-115.6255 160.2064,-113.3901 170.5,-112 376.5015,-84.1806 1019.4119,-70.7263 1224.7646,-67.0613"/>
<polygon fill="#191970" stroke="#191970" points="1224.8499,-70.5604 1234.7864,-66.884 1224.7261,-63.5615 1224.8499,-70.5604"/>
</g>
<!-- Node28&#45;&gt;Node27 -->
<g id="edge37" class="edge">
<title>Node28&#45;&gt;Node27</title>
<path fill="none" stroke="#191970" d="M91,-117.8906C78.4364,-108.2324 58.8577,-93.1812 44.0151,-81.771"/>
<polygon fill="#191970" stroke="#191970" points="45.9735,-78.8618 35.9122,-75.5419 41.7072,-84.4115 45.9735,-78.8618"/>
</g>
<!-- Node29 -->
<g id="node30" class="node">
<title>Node29</title>
<polygon fill="none" stroke="#bfbfbf" points="71.5,-56.5 71.5,-75.5 135.5,-75.5 135.5,-56.5 71.5,-56.5"/>
<text text-anchor="middle" x="103.5" y="-63.5" font-family="Helvetica,sans-Serif" font-size="10.00" fill="#000000">algorithm</text>
</g>
<!-- Node28&#45;&gt;Node29 -->
<g id="edge38" class="edge">
<title>Node28&#45;&gt;Node29</title>
<path fill="none" stroke="#191970" d="M103.5,-117.8906C103.5,-109.3657 103.5,-96.6392 103.5,-85.9235"/>
<polygon fill="#191970" stroke="#191970" points="107.0001,-85.7448 103.5,-75.7449 100.0001,-85.7449 107.0001,-85.7448"/>
</g>
<!-- Node31&#45;&gt;Node13 -->
<g id="edge46" class="edge">
<title>Node31&#45;&gt;Node13</title>
<path fill="none" stroke="#191970" d="M1225.6874,-251.8145C1235.293,-242.1171 1249.3912,-226.3261 1257.5,-210 1267.5028,-189.8607 1272.6866,-164.4216 1275.2425,-147.1542"/>
<polygon fill="#191970" stroke="#191970" points="1278.7275,-147.4971 1276.5668,-137.1249 1271.7878,-146.5807 1278.7275,-147.4971"/>
</g>
<!-- Node32 -->
<g id="node33" class="node">
<title>Node32</title>
<polygon fill="none" stroke="#bfbfbf" points="877.5,-179.5 877.5,-209.5 1041.5,-209.5 1041.5,-179.5 877.5,-179.5"/>
<text text-anchor="start" x="885.5" y="-197.5" font-family="Helvetica,sans-Serif" font-size="10.00" fill="#000000">Math/GenVector/Displacement</text>
<text text-anchor="middle" x="959.5" y="-186.5" font-family="Helvetica,sans-Serif" font-size="10.00" fill="#000000">Vector3D.h</text>
</g>
<!-- Node31&#45;&gt;Node32 -->
<g id="edge41" class="edge">
<title>Node31&#45;&gt;Node32</title>
<path fill="none" stroke="#191970" d="M1179.0933,-251.9717C1139.5753,-241.6291 1075.5971,-224.8848 1026.8665,-212.1311"/>
<polygon fill="#191970" stroke="#191970" points="1027.5853,-208.7014 1017.0249,-209.5553 1025.8129,-215.4733 1027.5853,-208.7014"/>
</g>
<!-- Node33 -->
<g id="node34" class="node">
<title>Node33</title>
<polygon fill="none" stroke="#bfbfbf" points="1060,-185 1060,-204 1249,-204 1249,-185 1060,-185"/>
<text text-anchor="middle" x="1154.5" y="-192" font-family="Helvetica,sans-Serif" font-size="10.00" fill="#000000">Math/GenVector/PositionVector3D.h</text>
</g>
<!-- Node31&#45;&gt;Node33 -->
<g id="edge42" class="edge">
<title>Node31&#45;&gt;Node33</title>
<path fill="none" stroke="#191970" d="M1206.7602,-251.9005C1197.2478,-241.4525 1181.843,-224.5325 1170.2175,-211.7635"/>
<polygon fill="#191970" stroke="#191970" points="1172.5439,-209.1198 1163.2236,-204.0817 1167.3678,-213.8324 1172.5439,-209.1198"/>
</g>
<!-- Node34 -->
<g id="node35" class="node">
<title>Node34</title>
<polygon fill="none" stroke="#bfbfbf" points="1305.5,-185 1305.5,-204 1465.5,-204 1465.5,-185 1305.5,-185"/>
<text text-anchor="middle" x="1385.5" y="-192" font-family="Helvetica,sans-Serif" font-size="10.00" fill="#000000">Math/GenVector/Rotation3D.h</text>
</g>
<!-- Node31&#45;&gt;Node34 -->
<g id="edge43" class="edge">
<title>Node31&#45;&gt;Node34</title>
<path fill="none" stroke="#191970" d="M1239.8569,-251.9005C1269.1441,-240.3579 1318.4735,-220.9163 1351.5018,-207.8993"/>
<polygon fill="#191970" stroke="#191970" points="1353.1682,-211.0046 1361.1883,-204.0817 1350.6014,-204.4922 1353.1682,-211.0046"/>
</g>
<!-- Node35 -->
<g id="node36" class="node">
<title>Node35</title>
<polygon fill="none" stroke="#bfbfbf" points="1483.5,-185 1483.5,-204 1651.5,-204 1651.5,-185 1483.5,-185"/>
<text text-anchor="middle" x="1567.5" y="-192" font-family="Helvetica,sans-Serif" font-size="10.00" fill="#000000">Math/GenVector/Transform3D.h</text>
</g>
<!-- Node31&#45;&gt;Node35 -->
<g id="edge44" class="edge">
<title>Node31&#45;&gt;Node35</title>
<path fill="none" stroke="#191970" d="M1265.5592,-251.9717C1329.1991,-239.8584 1438.9732,-218.9639 1507.1673,-205.9838"/>
<polygon fill="#191970" stroke="#191970" points="1508.1597,-209.3578 1517.3288,-204.0496 1506.8507,-202.4813 1508.1597,-209.3578"/>
</g>
<!-- Node36 -->
<g id="node37" class="node">
<title>Node36</title>
<polygon fill="none" stroke="#bfbfbf" points="1670,-185 1670,-204 1843,-204 1843,-185 1670,-185"/>
<text text-anchor="middle" x="1756.5" y="-192" font-family="Helvetica,sans-Serif" font-size="10.00" fill="#000000">Math/GenVector/Translation3D.h</text>
</g>
<!-- Node31&#45;&gt;Node36 -->
<g id="edge45" class="edge">
<title>Node31&#45;&gt;Node36</title>
<path fill="none" stroke="#191970" d="M1283.0932,-254.631C1370.4054,-245.5394 1527.0334,-228.4882 1660.5,-210 1670.1574,-208.6622 1680.343,-207.1392 1690.3271,-205.5827"/>
<polygon fill="#191970" stroke="#191970" points="1690.8855,-209.038 1700.2169,-204.0205 1689.7933,-202.1237 1690.8855,-209.038"/>
</g>
<!-- Node37 -->
<g id="node38" class="node">
<title>Node37</title>
<polygon fill="none" stroke="#bfbfbf" points="709.5,-185 709.5,-204 791.5,-204 791.5,-185 709.5,-185"/>
<text text-anchor="middle" x="750.5" y="-192" font-family="Helvetica,sans-Serif" font-size="10.00" fill="#000000">TGeoMatrix.h</text>
</g>
<!-- Node31&#45;&gt;Node37 -->
<g id="edge47" class="edge">
<title>Node31&#45;&gt;Node37</title>
<path fill="none" stroke="#191970" d="M1147.6785,-256.7919C1064.9953,-250.2035 921.3355,-236.0124 800.5,-210 796.402,-209.1178 792.1576,-208.0504 787.9525,-206.893"/>
<polygon fill="#191970" stroke="#191970" points="788.8797,-203.5176 778.2995,-204.0743 786.9175,-210.237 788.8797,-203.5176"/>
</g>
<!-- Node38 -->
<g id="node39" class="node">
<title>Node38</title>
<polygon fill="none" stroke="#bfbfbf" points="810,-185 810,-204 859,-204 859,-185 810,-185"/>
<text text-anchor="middle" x="834.5" y="-192" font-family="Helvetica,sans-Serif" font-size="10.00" fill="#000000">iosfwd</text>
</g>
<!-- Node31&#45;&gt;Node38 -->
<g id="edge48" class="edge">
<title>Node31&#45;&gt;Node38</title>
<path fill="none" stroke="#191970" d="M1147.7718,-257.0858C1076.9375,-251.171 963.1122,-237.9799 868.5,-210 866.5871,-209.4343 864.6431,-208.7808 862.7033,-208.0689"/>
<polygon fill="#191970" stroke="#191970" points="863.7793,-204.7269 853.1998,-204.1571 861.1148,-211.2 863.7793,-204.7269"/>
</g>
<!-- Node39 -->
<g id="node40" class="node">
<title>Node39</title>
<g id="a_node40"><a xlink:href="../../d2/dd0/Cartesian2D_8h.html" target="_top" xlink:title="MathUtils/Cartesian2D.h">
<polygon fill="none" stroke="#000000" points="1861,-185 1861,-204 1996,-204 1996,-185 1861,-185"/>
<text text-anchor="middle" x="1928.5" y="-192" font-family="Helvetica,sans-Serif" font-size="10.00" fill="#000000">MathUtils/Cartesian2D.h</text>
</a>
</g>
</g>
<!-- Node31&#45;&gt;Node39 -->
<g id="edge49" class="edge">
<title>Node31&#45;&gt;Node39</title>
<path fill="none" stroke="#191970" d="M1283.0161,-255.5688C1316.7912,-252.6316 1358.3011,-249.0667 1395.5,-246 1598.5515,-229.2601 1650.7502,-238.4104 1852.5,-210 1860.2819,-208.9041 1868.4654,-207.5024 1876.463,-205.9912"/>
<polygon fill="#191970" stroke="#191970" points="1877.3099,-209.3919 1886.4496,-204.0333 1875.963,-202.5227 1877.3099,-209.3919"/>
</g>
<!-- Node40 -->
<g id="node41" class="node">
<title>Node40</title>
<polygon fill="none" stroke="#bfbfbf" points="1709.5,-112.5 1709.5,-142.5 1873.5,-142.5 1873.5,-112.5 1709.5,-112.5"/>
<text text-anchor="start" x="1717.5" y="-130.5" font-family="Helvetica,sans-Serif" font-size="10.00" fill="#000000">Math/GenVector/Displacement</text>
<text text-anchor="middle" x="1791.5" y="-119.5" font-family="Helvetica,sans-Serif" font-size="10.00" fill="#000000">Vector2D.h</text>
</g>
<!-- Node39&#45;&gt;Node40 -->
<g id="edge50" class="edge">
<title>Node39&#45;&gt;Node40</title>
<path fill="none" stroke="#191970" d="M1908.8712,-184.9005C1888.7073,-175.0393 1856.7546,-159.4128 1831.2762,-146.9526"/>
<polygon fill="#191970" stroke="#191970" points="1832.7371,-143.7709 1822.2161,-142.5218 1829.6618,-150.0592 1832.7371,-143.7709"/>
</g>
<!-- Node41 -->
<g id="node42" class="node">
<title>Node41</title>
<polygon fill="none" stroke="#bfbfbf" points="1892,-118 1892,-137 2081,-137 2081,-118 1892,-118"/>
<text text-anchor="middle" x="1986.5" y="-125" font-family="Helvetica,sans-Serif" font-size="10.00" fill="#000000">Math/GenVector/PositionVector2D.h</text>
</g>
<!-- Node39&#45;&gt;Node41 -->
<g id="edge51" class="edge">
<title>Node39&#45;&gt;Node41</title>
<path fill="none" stroke="#191970" d="M1936.81,-184.9005C1945.8546,-174.4525 1960.5017,-157.5325 1971.5555,-144.7635"/>
<polygon fill="#191970" stroke="#191970" points="1974.3066,-146.9331 1978.2054,-137.0817 1969.0142,-142.3515 1974.3066,-146.9331"/>
</g>
</g>
</svg>
