<?xml version="1.0" encoding="UTF-8" standalone="no"?>
<!DOCTYPE svg PUBLIC "-//W3C//DTD SVG 1.1//EN"
 "http://www.w3.org/Graphics/SVG/1.1/DTD/svg11.dtd">
<!-- Generated by graphviz version 2.40.1 (20161225.0304)
 -->
<!-- Title: /home/travis/build/AliceO2Group/AliceO2/Detectors/ITSMFT/ITS/tracking/include/ITStracking/Cell.h Pages: 1 -->
<svg width="341pt" height="240pt"
 viewBox="0.00 0.00 341.12 240.00" xmlns="http://www.w3.org/2000/svg" xmlns:xlink="http://www.w3.org/1999/xlink">
<g id="graph0" class="graph" transform="scale(1 1) rotate(0) translate(4 236)">
<title>/home/travis/build/AliceO2Group/AliceO2/Detectors/ITSMFT/ITS/tracking/include/ITStracking/Cell.h</title>
<!-- Node0 -->
<g id="node1" class="node">
<title>Node0</title>
<polygon fill="#bfbfbf" stroke="#000000" points="12.1157,-168.5 12.1157,-231.5 170.1157,-231.5 170.1157,-168.5 12.1157,-168.5"/>
<text text-anchor="start" x="20.1157" y="-219.5" font-family="Helvetica,sans-Serif" font-size="10.00" fill="#000000">/home/travis/build</text>
<text text-anchor="start" x="20.1157" y="-208.5" font-family="Helvetica,sans-Serif" font-size="10.00" fill="#000000">/AliceO2Group/AliceO2</text>
<text text-anchor="start" x="20.1157" y="-197.5" font-family="Helvetica,sans-Serif" font-size="10.00" fill="#000000">/Detectors/ITSMFT/ITS</text>
<text text-anchor="start" x="20.1157" y="-186.5" font-family="Helvetica,sans-Serif" font-size="10.00" fill="#000000">/tracking/include/ITStracking/</text>
<text text-anchor="middle" x="91.1157" y="-175.5" font-family="Helvetica,sans-Serif" font-size="10.00" fill="#000000">Cell.h</text>
</g>
<!-- Node1 -->
<g id="node2" class="node">
<title>Node1</title>
<polygon fill="none" stroke="#bfbfbf" points="46.1157,-56.5 46.1157,-75.5 88.1157,-75.5 88.1157,-56.5 46.1157,-56.5"/>
<text text-anchor="middle" x="67.1157" y="-63.5" font-family="Helvetica,sans-Serif" font-size="10.00" fill="#000000">array</text>
</g>
<!-- Node0&#45;&gt;Node1 -->
<g id="edge1" class="edge">
<title>Node0&#45;&gt;Node1</title>
<path fill="none" stroke="#191970" d="M34.0895,-168.1567C21.6307,-158.2953 10.0941,-146.2113 3.1157,-132 -7.2873,-110.8142 15.6825,-92.0819 36.9415,-80.0377"/>
<polygon fill="#191970" stroke="#191970" points="38.6631,-83.0863 45.8455,-75.2977 35.3737,-76.9073 38.6631,-83.0863"/>
</g>
<!-- Node2 -->
<g id="node3" class="node">
<title>Node2</title>
<polygon fill="none" stroke="#bfbfbf" points="12.6157,-112.5 12.6157,-131.5 59.6157,-131.5 59.6157,-112.5 12.6157,-112.5"/>
<text text-anchor="middle" x="36.1157" y="-119.5" font-family="Helvetica,sans-Serif" font-size="10.00" fill="#000000">vector</text>
</g>
<!-- Node0&#45;&gt;Node2 -->
<g id="edge2" class="edge">
<title>Node0&#45;&gt;Node2</title>
<path fill="none" stroke="#191970" d="M68.7451,-168.2744C61.9309,-158.6106 54.681,-148.3289 48.75,-139.9177"/>
<polygon fill="#191970" stroke="#191970" points="51.5381,-137.7982 42.915,-131.6426 45.8173,-141.8321 51.5381,-137.7982"/>
</g>
<!-- Node3 -->
<g id="node4" class="node">
<title>Node3</title>
<g id="a_node4"><a xlink:href="../../df/d3d/Definitions_8h.html" target="_top" xlink:title="ITStracking/Definitions.h">
<polygon fill="none" stroke="#000000" points="78.1157,-112.5 78.1157,-131.5 214.1157,-131.5 214.1157,-112.5 78.1157,-112.5"/>
<text text-anchor="middle" x="146.1157" y="-119.5" font-family="Helvetica,sans-Serif" font-size="10.00" fill="#000000">ITStracking/Definitions.h</text>
</a>
</g>
</g>
<!-- Node0&#45;&gt;Node3 -->
<g id="edge3" class="edge">
<title>Node0&#45;&gt;Node3</title>
<path fill="none" stroke="#191970" d="M113.4863,-168.2744C120.3006,-158.6106 127.5505,-148.3289 133.4814,-139.9177"/>
<polygon fill="#191970" stroke="#191970" points="136.4141,-141.8321 139.3165,-131.6426 130.6933,-137.7982 136.4141,-141.8321"/>
</g>
<!-- Node4 -->
<g id="node5" class="node">
<title>Node4</title>
<g id="a_node5"><a xlink:href="../../df/d21/GPUCommonDef_8h.html" target="_top" xlink:title="GPUCommonDef.h">
<polygon fill="none" stroke="#000000" points="140.6157,-56.5 140.6157,-75.5 247.6157,-75.5 247.6157,-56.5 140.6157,-56.5"/>
<text text-anchor="middle" x="194.1157" y="-63.5" font-family="Helvetica,sans-Serif" font-size="10.00" fill="#000000">GPUCommonDef.h</text>
</a>
</g>
</g>
<!-- Node0&#45;&gt;Node4 -->
<g id="edge8" class="edge">
<title>Node0&#45;&gt;Node4</title>
<path fill="none" stroke="#191970" d="M170.4072,-176.2915C191.137,-166.0943 211.0374,-151.809 223.1157,-132 232.6123,-116.4253 221.8952,-97.1916 210.903,-83.5138"/>
<polygon fill="#191970" stroke="#191970" points="213.4012,-81.0526 204.2014,-75.7977 208.1162,-85.6428 213.4012,-81.0526"/>
</g>
<!-- Node3&#45;&gt;Node1 -->
<g id="edge4" class="edge">
<title>Node3&#45;&gt;Node1</title>
<path fill="none" stroke="#191970" d="M132.355,-112.2455C120.4605,-103.814 103.0507,-91.4729 89.2072,-81.6598"/>
<polygon fill="#191970" stroke="#191970" points="90.9011,-78.5704 80.7188,-75.6427 86.8529,-84.2811 90.9011,-78.5704"/>
</g>
<!-- Node3&#45;&gt;Node4 -->
<g id="edge5" class="edge">
<title>Node3&#45;&gt;Node4</title>
<path fill="none" stroke="#191970" d="M154.4767,-112.2455C161.2907,-104.2958 171.0838,-92.8706 179.231,-83.3656"/>
<polygon fill="#191970" stroke="#191970" points="182,-85.513 185.8506,-75.6427 176.6852,-80.9575 182,-85.513"/>
</g>
<!-- Node5 -->
<g id="node6" class="node">
<title>Node5</title>
<g id="a_node6"><a xlink:href="../../d5/d93/GPUCommonDefSettings_8h.html" target="_top" xlink:title="GPUCommonDefSettings.h">
<polygon fill="none" stroke="#000000" points="43.1157,-.5 43.1157,-19.5 191.1157,-19.5 191.1157,-.5 43.1157,-.5"/>
<text text-anchor="middle" x="117.1157" y="-7.5" font-family="Helvetica,sans-Serif" font-size="10.00" fill="#000000">GPUCommonDefSettings.h</text>
</a>
</g>
</g>
<!-- Node4&#45;&gt;Node5 -->
<g id="edge6" class="edge">
<title>Node4&#45;&gt;Node5</title>
<path fill="none" stroke="#191970" d="M180.7034,-56.2455C169.11,-47.814 152.141,-35.4729 138.6479,-25.6598"/>
<polygon fill="#191970" stroke="#191970" points="140.5204,-22.6938 130.3744,-19.6427 136.4032,-28.355 140.5204,-22.6938"/>
</g>
<!-- Node6 -->
<g id="node7" class="node">
<title>Node6</title>
<g id="a_node7"><a xlink:href="../../da/d5a/GPUCommonDefAPI_8h.html" target="_top" xlink:title="GPUCommonDefAPI.h">
<polygon fill="none" stroke="#000000" points="209.1157,-.5 209.1157,-19.5 333.1157,-19.5 333.1157,-.5 209.1157,-.5"/>
<text text-anchor="middle" x="271.1157" y="-7.5" font-family="Helvetica,sans-Serif" font-size="10.00" fill="#000000">GPUCommonDefAPI.h</text>
</a>
</g>
</g>
<!-- Node4&#45;&gt;Node6 -->
<g id="edge7" class="edge">
<title>Node4&#45;&gt;Node6</title>
<path fill="none" stroke="#191970" d="M207.5281,-56.2455C219.1215,-47.814 236.0905,-35.4729 249.5836,-25.6598"/>
<polygon fill="#191970" stroke="#191970" points="251.8283,-28.355 257.8571,-19.6427 247.7111,-22.6938 251.8283,-28.355"/>
</g>
</g>
</svg>
