<?xml version="1.0" encoding="UTF-8" standalone="no"?>
<!DOCTYPE svg PUBLIC "-//W3C//DTD SVG 1.1//EN"
 "http://www.w3.org/Graphics/SVG/1.1/DTD/svg11.dtd">
<!-- Generated by graphviz version 2.40.1 (20161225.0304)
 -->
<!-- Title: o2::ProcessingEventInfo Pages: 1 -->
<svg width="303pt" height="182pt"
 viewBox="0.00 0.00 303.00 182.00" xmlns="http://www.w3.org/2000/svg" xmlns:xlink="http://www.w3.org/1999/xlink">
<g id="graph0" class="graph" transform="scale(1 1) rotate(0) translate(4 178)">
<title>o2::ProcessingEventInfo</title>
<!-- Node1 -->
<g id="node1" class="node">
<title>Node1</title>
<polygon fill="#bfbfbf" stroke="#000000" points="45,-.5 45,-57.5 179,-57.5 179,-.5 45,-.5"/>
<text text-anchor="middle" x="112" y="-45.5" font-family="Helvetica,sans-Serif" font-size="10.00" fill="#000000">o2::ProcessingEventInfo</text>
<polyline fill="none" stroke="#000000" points="45,-38.5 179,-38.5 "/>
<text text-anchor="middle" x="112" y="-26.5" font-family="Helvetica,sans-Serif" font-size="10.00" fill="#000000"> </text>
<polyline fill="none" stroke="#000000" points="45,-19.5 179,-19.5 "/>
<text text-anchor="middle" x="112" y="-7.5" font-family="Helvetica,sans-Serif" font-size="10.00" fill="#000000"> </text>
</g>
<!-- Node2 -->
<g id="node2" class="node">
<title>Node2</title>
<polygon fill="none" stroke="#bfbfbf" points="0,-116.5 0,-173.5 50,-173.5 50,-116.5 0,-116.5"/>
<text text-anchor="middle" x="25" y="-161.5" font-family="Helvetica,sans-Serif" font-size="10.00" fill="#000000">double</text>
<polyline fill="none" stroke="#bfbfbf" points="0,-154.5 50,-154.5 "/>
<text text-anchor="middle" x="25" y="-142.5" font-family="Helvetica,sans-Serif" font-size="10.00" fill="#000000"> </text>
<polyline fill="none" stroke="#bfbfbf" points="0,-135.5 50,-135.5 "/>
<text text-anchor="middle" x="25" y="-123.5" font-family="Helvetica,sans-Serif" font-size="10.00" fill="#000000"> </text>
</g>
<!-- Node2&#45;&gt;Node1 -->
<g id="edge1" class="edge">
<title>Node2&#45;&gt;Node1</title>
<path fill="none" stroke="#404040" d="M28.3461,-116.2072C30.9732,-103.0216 35.6565,-87.7525 44,-76 46.5598,-72.3943 49.4885,-68.9757 52.6602,-65.7514"/>
<polygon fill="none" stroke="#404040" points="52.6609,-65.7508 54.4071,-58.7543 61.537,-57.6752 59.7908,-64.6718 52.6609,-65.7508"/>
<text text-anchor="middle" x="76" y="-84.5" font-family="Helvetica,sans-Serif" font-size="10.00" fill="#000000"> +eventTime</text>
</g>
<!-- Node3 -->
<g id="node3" class="node">
<title>Node3</title>
<polygon fill="none" stroke="#bfbfbf" points="97.5,-116.5 97.5,-173.5 126.5,-173.5 126.5,-116.5 97.5,-116.5"/>
<text text-anchor="middle" x="112" y="-161.5" font-family="Helvetica,sans-Serif" font-size="10.00" fill="#000000">int</text>
<polyline fill="none" stroke="#bfbfbf" points="97.5,-154.5 126.5,-154.5 "/>
<text text-anchor="middle" x="112" y="-142.5" font-family="Helvetica,sans-Serif" font-size="10.00" fill="#000000"> </text>
<polyline fill="none" stroke="#bfbfbf" points="97.5,-135.5 126.5,-135.5 "/>
<text text-anchor="middle" x="112" y="-123.5" font-family="Helvetica,sans-Serif" font-size="10.00" fill="#000000"> </text>
</g>
<!-- Node3&#45;&gt;Node1 -->
<g id="edge2" class="edge">
<title>Node3&#45;&gt;Node1</title>
<path fill="none" stroke="#404040" d="M112,-116.3258C112,-102.3834 112,-85.3727 112,-70.0815"/>
<polygon fill="none" stroke="#404040" points="112.0001,-69.7463 108,-63.7464 112,-57.7463 116,-63.7463 112.0001,-69.7463"/>
<text text-anchor="middle" x="153.5" y="-90" font-family="Helvetica,sans-Serif" font-size="10.00" fill="#000000"> +sourceNumber</text>
<text text-anchor="middle" x="153.5" y="-79" font-family="Helvetica,sans-Serif" font-size="10.00" fill="#000000">+eventNumber</text>
</g>
<!-- Node4 -->
<g id="node4" class="node">
<title>Node4</title>
<polygon fill="none" stroke="#bfbfbf" points="199,-116.5 199,-173.5 237,-173.5 237,-116.5 199,-116.5"/>
<text text-anchor="middle" x="218" y="-161.5" font-family="Helvetica,sans-Serif" font-size="10.00" fill="#000000">bool</text>
<polyline fill="none" stroke="#bfbfbf" points="199,-154.5 237,-154.5 "/>
<text text-anchor="middle" x="218" y="-142.5" font-family="Helvetica,sans-Serif" font-size="10.00" fill="#000000"> </text>
<polyline fill="none" stroke="#bfbfbf" points="199,-135.5 237,-135.5 "/>
<text text-anchor="middle" x="218" y="-123.5" font-family="Helvetica,sans-Serif" font-size="10.00" fill="#000000"> </text>
</g>
<!-- Node4&#45;&gt;Node1 -->
<g id="edge3" class="edge">
<title>Node4&#45;&gt;Node1</title>
<path fill="none" stroke="#404040" d="M213.8931,-116.4843C210.79,-103.0507 205.3828,-87.4929 196,-76 192.7899,-72.068 189.159,-68.4074 185.2524,-65.0092"/>
<polygon fill="none" stroke="#404040" points="185.1618,-64.9384 177.971,-64.3975 175.7046,-57.5518 182.8954,-58.0927 185.1618,-64.9384"/>
<text text-anchor="middle" x="251" y="-84.5" font-family="Helvetica,sans-Serif" font-size="10.00" fill="#000000"> +numberSources</text>
</g>
</g>
</svg>
