<?xml version="1.0" encoding="UTF-8" standalone="no"?>
<!DOCTYPE svg PUBLIC "-//W3C//DTD SVG 1.1//EN"
 "http://www.w3.org/Graphics/SVG/1.1/DTD/svg11.dtd">
<!-- Generated by graphviz version 2.40.1 (20161225.0304)
 -->
<!-- Title: /home/travis/build/AliceO2Group/AliceO2/Detectors/MUON/MID/Base/src/DetectorParameters.cxx Pages: 1 -->
<svg width="373pt" height="173pt"
 viewBox="0.00 0.00 372.50 173.00" xmlns="http://www.w3.org/2000/svg" xmlns:xlink="http://www.w3.org/1999/xlink">
<g id="graph0" class="graph" transform="scale(1 1) rotate(0) translate(4 169)">
<title>/home/travis/build/AliceO2Group/AliceO2/Detectors/MUON/MID/Base/src/DetectorParameters.cxx</title>
<!-- Node0 -->
<g id="node1" class="node">
<title>Node0</title>
<polygon fill="#bfbfbf" stroke="#000000" points="149,-112.5 149,-164.5 304,-164.5 304,-112.5 149,-112.5"/>
<text text-anchor="start" x="157" y="-152.5" font-family="Helvetica,sans-Serif" font-size="10.00" fill="#000000">/home/travis/build</text>
<text text-anchor="start" x="157" y="-141.5" font-family="Helvetica,sans-Serif" font-size="10.00" fill="#000000">/AliceO2Group/AliceO2</text>
<text text-anchor="start" x="157" y="-130.5" font-family="Helvetica,sans-Serif" font-size="10.00" fill="#000000">/Detectors/MUON/MID/Base</text>
<text text-anchor="middle" x="226.5" y="-119.5" font-family="Helvetica,sans-Serif" font-size="10.00" fill="#000000">/src/DetectorParameters.cxx</text>
</g>
<!-- Node1 -->
<g id="node2" class="node">
<title>Node1</title>
<g id="a_node2"><a xlink:href="../../dc/de4/DetectorParameters_8h.html" target="_top" xlink:title="Useful detector parameters for MID. ">
<polygon fill="none" stroke="#000000" points="0,-56.5 0,-75.5 169,-75.5 169,-56.5 0,-56.5"/>
<text text-anchor="middle" x="84.5" y="-63.5" font-family="Helvetica,sans-Serif" font-size="10.00" fill="#000000">MIDBase/DetectorParameters.h</text>
</a>
</g>
</g>
<!-- Node0&#45;&gt;Node1 -->
<g id="edge1" class="edge">
<title>Node0&#45;&gt;Node1</title>
<path fill="none" stroke="#191970" d="M175.2347,-112.3258C154.0536,-101.5115 130.327,-89.3976 112.45,-80.2703"/>
<polygon fill="#191970" stroke="#191970" points="113.6714,-76.9641 103.1735,-75.534 110.4883,-83.1985 113.6714,-76.9641"/>
</g>
<!-- Node3 -->
<g id="node4" class="node">
<title>Node3</title>
<polygon fill="none" stroke="#bfbfbf" points="148.5,-.5 148.5,-19.5 192.5,-19.5 192.5,-.5 148.5,-.5"/>
<text text-anchor="middle" x="170.5" y="-7.5" font-family="Helvetica,sans-Serif" font-size="10.00" fill="#000000">string</text>
</g>
<!-- Node0&#45;&gt;Node3 -->
<g id="edge6" class="edge">
<title>Node0&#45;&gt;Node3</title>
<path fill="none" stroke="#191970" d="M215.1676,-112.4961C204.3522,-87.6787 188.3204,-50.8915 178.6926,-28.799"/>
<polygon fill="#191970" stroke="#191970" points="181.85,-27.2832 174.6462,-19.5142 175.4328,-30.0798 181.85,-27.2832"/>
</g>
<!-- Node4 -->
<g id="node5" class="node">
<title>Node4</title>
<polygon fill="none" stroke="#bfbfbf" points="225,-56.5 225,-75.5 290,-75.5 290,-56.5 225,-56.5"/>
<text text-anchor="middle" x="257.5" y="-63.5" font-family="Helvetica,sans-Serif" font-size="10.00" fill="#000000">stdexcept</text>
</g>
<!-- Node0&#45;&gt;Node4 -->
<g id="edge4" class="edge">
<title>Node0&#45;&gt;Node4</title>
<path fill="none" stroke="#191970" d="M237.6917,-112.3258C241.5879,-103.2138 245.8786,-93.179 249.4675,-84.7857"/>
<polygon fill="#191970" stroke="#191970" points="252.71,-86.1048 253.4234,-75.534 246.2736,-83.3527 252.71,-86.1048"/>
</g>
<!-- Node5 -->
<g id="node6" class="node">
<title>Node5</title>
<polygon fill="none" stroke="#bfbfbf" points="308.5,-56.5 308.5,-75.5 364.5,-75.5 364.5,-56.5 308.5,-56.5"/>
<text text-anchor="middle" x="336.5" y="-63.5" font-family="Helvetica,sans-Serif" font-size="10.00" fill="#000000">sstream</text>
</g>
<!-- Node0&#45;&gt;Node5 -->
<g id="edge5" class="edge">
<title>Node0&#45;&gt;Node5</title>
<path fill="none" stroke="#191970" d="M266.2125,-112.3258C282.1647,-101.8119 299.9806,-90.0696 313.6842,-81.0377"/>
<polygon fill="#191970" stroke="#191970" points="315.6111,-83.9595 322.0346,-75.534 311.7589,-78.1148 315.6111,-83.9595"/>
</g>
<!-- Node2 -->
<g id="node3" class="node">
<title>Node2</title>
<polygon fill="none" stroke="#bfbfbf" points="63.5,-.5 63.5,-19.5 105.5,-19.5 105.5,-.5 63.5,-.5"/>
<text text-anchor="middle" x="84.5" y="-7.5" font-family="Helvetica,sans-Serif" font-size="10.00" fill="#000000">array</text>
</g>
<!-- Node1&#45;&gt;Node2 -->
<g id="edge2" class="edge">
<title>Node1&#45;&gt;Node2</title>
<path fill="none" stroke="#191970" d="M84.5,-56.2455C84.5,-48.9382 84.5,-38.6944 84.5,-29.7046"/>
<polygon fill="#191970" stroke="#191970" points="88.0001,-29.6426 84.5,-19.6427 81.0001,-29.6427 88.0001,-29.6426"/>
</g>
<!-- Node1&#45;&gt;Node3 -->
<g id="edge3" class="edge">
<title>Node1&#45;&gt;Node3</title>
<path fill="none" stroke="#191970" d="M99.4801,-56.2455C112.6751,-47.6534 132.1051,-35.0014 147.3079,-25.1018"/>
<polygon fill="#191970" stroke="#191970" points="149.2215,-28.0325 155.6916,-19.6427 145.4017,-22.1665 149.2215,-28.0325"/>
</g>
</g>
</svg>
