<?xml version="1.0" encoding="UTF-8" standalone="no"?>
<!DOCTYPE svg PUBLIC "-//W3C//DTD SVG 1.1//EN"
 "http://www.w3.org/Graphics/SVG/1.1/DTD/svg11.dtd">
<!-- Generated by graphviz version 2.40.1 (20161225.0304)
 -->
<!-- Title: /home/travis/build/AliceO2Group/AliceO2/Detectors/ITSMFT/ITS/base/src/MisalignmentParameter.cxx Pages: 1 -->
<svg width="367pt" height="173pt"
 viewBox="0.00 0.00 367.00 173.00" xmlns="http://www.w3.org/2000/svg" xmlns:xlink="http://www.w3.org/1999/xlink">
<g id="graph0" class="graph" transform="scale(1 1) rotate(0) translate(4 169)">
<title>/home/travis/build/AliceO2Group/AliceO2/Detectors/ITSMFT/ITS/base/src/MisalignmentParameter.cxx</title>
<!-- Node0 -->
<g id="node1" class="node">
<title>Node0</title>
<polygon fill="#bfbfbf" stroke="#000000" points="136,-112.5 136,-164.5 335,-164.5 335,-112.5 136,-112.5"/>
<text text-anchor="start" x="144" y="-152.5" font-family="Helvetica,sans-Serif" font-size="10.00" fill="#000000">/home/travis/build</text>
<text text-anchor="start" x="144" y="-141.5" font-family="Helvetica,sans-Serif" font-size="10.00" fill="#000000">/AliceO2Group/AliceO2</text>
<text text-anchor="start" x="144" y="-130.5" font-family="Helvetica,sans-Serif" font-size="10.00" fill="#000000">/Detectors/ITSMFT/ITS</text>
<text text-anchor="middle" x="235.5" y="-119.5" font-family="Helvetica,sans-Serif" font-size="10.00" fill="#000000">/base/src/MisalignmentParameter.cxx</text>
</g>
<!-- Node1 -->
<g id="node2" class="node">
<title>Node1</title>
<g id="a_node2"><a xlink:href="../../d8/d2f/MisalignmentParameter_8h.html" target="_top" xlink:title="Definition of the MisalignmentParameter class. ">
<polygon fill="none" stroke="#000000" points="67,-56.5 67,-75.5 250,-75.5 250,-56.5 67,-56.5"/>
<text text-anchor="middle" x="158.5" y="-63.5" font-family="Helvetica,sans-Serif" font-size="10.00" fill="#000000">ITSBase/MisalignmentParameter.h</text>
</a>
</g>
</g>
<!-- Node0&#45;&gt;Node1 -->
<g id="edge1" class="edge">
<title>Node0&#45;&gt;Node1</title>
<path fill="none" stroke="#191970" d="M207.7012,-112.3258C197.1728,-102.4127 185.4846,-91.4075 176.1429,-82.6118"/>
<polygon fill="#191970" stroke="#191970" points="178.3057,-79.8409 168.6258,-75.534 173.5071,-84.9374 178.3057,-79.8409"/>
</g>
<!-- Node5 -->
<g id="node6" class="node">
<title>Node5</title>
<polygon fill="none" stroke="#bfbfbf" points="268,-56.5 268,-75.5 359,-75.5 359,-56.5 268,-56.5"/>
<text text-anchor="middle" x="313.5" y="-63.5" font-family="Helvetica,sans-Serif" font-size="10.00" fill="#000000">FairParamList.h</text>
</g>
<!-- Node0&#45;&gt;Node5 -->
<g id="edge5" class="edge">
<title>Node0&#45;&gt;Node5</title>
<path fill="none" stroke="#191970" d="M263.6598,-112.3258C274.4327,-102.3126 286.4043,-91.1851 295.914,-82.346"/>
<polygon fill="#191970" stroke="#191970" points="298.301,-84.9058 303.2427,-75.534 293.5353,-79.7785 298.301,-84.9058"/>
</g>
<!-- Node2 -->
<g id="node3" class="node">
<title>Node2</title>
<polygon fill="none" stroke="#bfbfbf" points="0,-.5 0,-19.5 111,-19.5 111,-.5 0,-.5"/>
<text text-anchor="middle" x="55.5" y="-7.5" font-family="Helvetica,sans-Serif" font-size="10.00" fill="#000000">FairParGenericSet.h</text>
</g>
<!-- Node1&#45;&gt;Node2 -->
<g id="edge2" class="edge">
<title>Node1&#45;&gt;Node2</title>
<path fill="none" stroke="#191970" d="M140.5588,-56.2455C124.46,-47.4928 100.6121,-34.527 82.2609,-24.5496"/>
<polygon fill="#191970" stroke="#191970" points="83.6929,-21.3444 73.2356,-19.6427 80.3493,-27.4942 83.6929,-21.3444"/>
</g>
<!-- Node3 -->
<g id="node4" class="node">
<title>Node3</title>
<polygon fill="none" stroke="#bfbfbf" points="129,-.5 129,-19.5 188,-19.5 188,-.5 129,-.5"/>
<text text-anchor="middle" x="158.5" y="-7.5" font-family="Helvetica,sans-Serif" font-size="10.00" fill="#000000">Rtypes.h</text>
</g>
<!-- Node1&#45;&gt;Node3 -->
<g id="edge3" class="edge">
<title>Node1&#45;&gt;Node3</title>
<path fill="none" stroke="#191970" d="M158.5,-56.2455C158.5,-48.9382 158.5,-38.6944 158.5,-29.7046"/>
<polygon fill="#191970" stroke="#191970" points="162.0001,-29.6426 158.5,-19.6427 155.0001,-29.6427 162.0001,-29.6426"/>
</g>
<!-- Node4 -->
<g id="node5" class="node">
<title>Node4</title>
<polygon fill="none" stroke="#bfbfbf" points="206,-.5 206,-19.5 271,-19.5 271,-.5 206,-.5"/>
<text text-anchor="middle" x="238.5" y="-7.5" font-family="Helvetica,sans-Serif" font-size="10.00" fill="#000000">TArrayD.h</text>
</g>
<!-- Node1&#45;&gt;Node4 -->
<g id="edge4" class="edge">
<title>Node1&#45;&gt;Node4</title>
<path fill="none" stroke="#191970" d="M172.4349,-56.2455C184.5947,-47.7337 202.4464,-35.2375 216.5285,-25.3801"/>
<polygon fill="#191970" stroke="#191970" points="218.5395,-28.2447 224.7248,-19.6427 214.5253,-22.51 218.5395,-28.2447"/>
</g>
</g>
</svg>
