<?xml version="1.0" encoding="UTF-8" standalone="no"?>
<!DOCTYPE svg PUBLIC "-//W3C//DTD SVG 1.1//EN"
 "http://www.w3.org/Graphics/SVG/1.1/DTD/svg11.dtd">
<!-- Generated by graphviz version 2.40.1 (20161225.0304)
 -->
<!-- Title: /home/travis/build/AliceO2Group/AliceO2/Detectors/CPV Pages: 1 -->
<!--zoomable 591 -->
<svg id="main" version="1.1" xmlns="http://www.w3.org/2000/svg" xmlns:xlink="http://www.w3.org/1999/xlink" xml:space="preserve" onload="init(evt)">
<style type="text/css"><![CDATA[
.edge:hover path { stroke: red; }
.edge:hover polygon { stroke: red; fill: red; }
]]></style>
<script type="text/javascript"><![CDATA[
var edges = document.getElementsByTagName('g');
if (edges && edges.length) {
  for (var i=0;i<edges.length;i++) {
    if (edges[i].id.substr(0,4)=='edge') {
      edges[i].setAttribute('class','edge');
    }
  }
}
]]></script>
        <defs>
                <circle id="rim" cx="0" cy="0" r="7"/>
                <circle id="rim2" cx="0" cy="0" r="3.5"/>
                <g id="zoomPlus">
                        <use xlink:href="#rim" fill="#404040">
                                <set attributeName="fill" to="#808080" begin="zoomplus.mouseover" end="zoomplus.mouseout"/>
                        </use>
                        <path d="M-4,0h8M0,-4v8" fill="none" stroke="white" stroke-width="1.5" pointer-events="none"/>
                </g>
                <g id="zoomMin">
                        <use xlink:href="#rim" fill="#404040">
                                <set attributeName="fill" to="#808080" begin="zoomminus.mouseover" end="zoomminus.mouseout"/>
                        </use>
                        <path d="M-4,0h8" fill="none" stroke="white" stroke-width="1.5" pointer-events="none"/>
                </g>
                <g id="dirArrow">
                        <path fill="none" stroke="white" stroke-width="1.5" d="M0,-3.0v7 M-2.5,-0.5L0,-3.0L2.5,-0.5"/>
                </g>
               <g id="resetDef">
                       <use xlink:href="#rim2" fill="#404040">
                               <set attributeName="fill" to="#808080" begin="reset.mouseover" end="reset.mouseout"/>
                       </use>
               </g>
        </defs>

<script type="text/javascript">
var viewWidth = 450;
var viewHeight = 591;
var sectionId = 'dynsection-0';
</script>
<script xlink:href="svgpan.js"/>
<svg id="graph" class="graph">
<g id="viewport">
<title>/home/travis/build/AliceO2Group/AliceO2/Detectors/CPV</title>
<g id="clust1" class="cluster">
<title>clusterdir_051dca18e802f8e9474f2e30d29c04e0</title>
<g id="a_clust1"><a xlink:href="dir_051dca18e802f8e9474f2e30d29c04e0.html" target="_top" xlink:title="Detectors">
<polygon fill="#ddddee" stroke="#000000" points="166,-272 166,-575 390,-575 390,-272 166,-272"/>
<text text-anchor="middle" x="278" y="-563" font-family="Helvetica,sans-Serif" font-size="10.00" fill="#000000">Detectors</text>
</a>
</g>
</g>
<g id="clust2" class="cluster">
<title>clusterdir_860de54695a0456b93a4bb1fd951d826</title>
<g id="a_clust2"><a xlink:href="dir_860de54695a0456b93a4bb1fd951d826.html" target="_top">
<polygon fill="#eeeeff" stroke="#000000" points="174,-280 174,-548 382,-548 382,-280 174,-280"/>
</a>
</g>
</g>
<!-- dir_860de54695a0456b93a4bb1fd951d826 -->
<g id="node1" class="node">
<title>dir_860de54695a0456b93a4bb1fd951d826</title>
<text text-anchor="middle" x="347" y="-519.5" font-family="Helvetica,sans-Serif" font-size="10.00" fill="#000000">CPV</text>
</g>
<!-- dir_9f065a6c27ad05d142739bd8f4136180 -->
<g id="node2" class="node">
<title>dir_9f065a6c27ad05d142739bd8f4136180</title>
<g id="a_node2"><a xlink:href="dir_9f065a6c27ad05d142739bd8f4136180.html" target="_top" xlink:title="base">
<polygon fill="#ffffff" stroke="#ff0000" points="286,-324 232,-324 232,-288 286,-288 286,-324"/>
<text text-anchor="middle" x="259" y="-303.5" font-family="Helvetica,sans-Serif" font-size="10.00" fill="#000000">base</text>
</a>
</g>
</g>
<!-- dir_4ab6b4cc6a7edbff49100e9123df213f -->
<g id="node7" class="node">
<title>dir_4ab6b4cc6a7edbff49100e9123df213f</title>
<g id="a_node7"><a xlink:href="dir_4ab6b4cc6a7edbff49100e9123df213f.html" target="_top" xlink:title="Common">
<polygon fill="none" stroke="#ff0000" points="194.5,-252 133.5,-252 133.5,-216 194.5,-216 194.5,-252"/>
<text text-anchor="middle" x="164" y="-231.5" font-family="Helvetica,sans-Serif" font-size="10.00" fill="#000000">Common</text>
</a>
</g>
</g>
<!-- dir_9f065a6c27ad05d142739bd8f4136180&#45;&gt;dir_4ab6b4cc6a7edbff49100e9123df213f -->
<g id="edge26" class="edge">
<title>dir_9f065a6c27ad05d142739bd8f4136180&#45;&gt;dir_4ab6b4cc6a7edbff49100e9123df213f</title>
<path fill="none" stroke="#000000" d="M235.0275,-287.8314C223.2139,-278.8779 208.8028,-267.9558 196.0565,-258.2955"/>
<polygon fill="#000000" stroke="#000000" points="198.0486,-255.4137 187.9648,-252.1628 193.8205,-260.9925 198.0486,-255.4137"/>
<g id="a_edge26&#45;headlabel"><a xlink:href="dir_000197_000027.html" target="_top" xlink:title="3">
<text text-anchor="middle" x="202.6284" y="-252.822" font-family="Helvetica,sans-Serif" font-size="10.00" fill="#000000">3</text>
</a>
</g>
</g>
<!-- dir_2171f7ec022c5423887b07c69b2f5b48 -->
<g id="node12" class="node">
<title>dir_2171f7ec022c5423887b07c69b2f5b48</title>
<g id="a_node12"><a xlink:href="dir_2171f7ec022c5423887b07c69b2f5b48.html" target="_top" xlink:title="DataFormats">
<polygon fill="none" stroke="#ff0000" points="265,-108 185,-108 185,-72 265,-72 265,-108"/>
<text text-anchor="middle" x="225" y="-87.5" font-family="Helvetica,sans-Serif" font-size="10.00" fill="#000000">DataFormats</text>
</a>
</g>
</g>
<!-- dir_9f065a6c27ad05d142739bd8f4136180&#45;&gt;dir_2171f7ec022c5423887b07c69b2f5b48 -->
<g id="edge27" class="edge">
<title>dir_9f065a6c27ad05d142739bd8f4136180&#45;&gt;dir_2171f7ec022c5423887b07c69b2f5b48</title>
<path fill="none" stroke="#000000" d="M263.9116,-287.9112C271.3181,-257.3356 282.7944,-193.892 266,-144 262.6203,-133.9596 256.5495,-124.3047 250.0975,-116.0052"/>
<polygon fill="#000000" stroke="#000000" points="252.6879,-113.6461 243.604,-108.1933 247.3048,-118.1208 252.6879,-113.6461"/>
<g id="a_edge27&#45;headlabel"><a xlink:href="dir_000197_000076.html" target="_top" xlink:title="1">
<text text-anchor="middle" x="257.1691" y="-112.0955" font-family="Helvetica,sans-Serif" font-size="10.00" fill="#000000">1</text>
</a>
</g>
</g>
<!-- dir_09ac740ef76ce36f9a01e5a702df673a -->
<g id="node3" class="node">
<title>dir_09ac740ef76ce36f9a01e5a702df673a</title>
<g id="a_node3"><a xlink:href="dir_09ac740ef76ce36f9a01e5a702df673a.html" target="_top" xlink:title="calib">
<polygon fill="#ffffff" stroke="#ff0000" points="240,-396 186,-396 186,-360 240,-360 240,-396"/>
<text text-anchor="middle" x="213" y="-375.5" font-family="Helvetica,sans-Serif" font-size="10.00" fill="#000000">calib</text>
</a>
</g>
</g>
<!-- dir_09ac740ef76ce36f9a01e5a702df673a&#45;&gt;dir_9f065a6c27ad05d142739bd8f4136180 -->
<g id="edge6" class="edge">
<title>dir_09ac740ef76ce36f9a01e5a702df673a&#45;&gt;dir_9f065a6c27ad05d142739bd8f4136180</title>
<path fill="none" stroke="#000000" d="M224.6077,-359.8314C229.7978,-351.7079 236.0232,-341.9637 241.7425,-333.0118"/>
<polygon fill="#000000" stroke="#000000" points="244.8015,-334.7246 247.236,-324.4133 238.9026,-330.9559 244.8015,-334.7246"/>
<g id="a_edge6&#45;headlabel"><a xlink:href="dir_000340_000197.html" target="_top" xlink:title="2">
<text text-anchor="middle" x="245.2589" y="-336.7824" font-family="Helvetica,sans-Serif" font-size="10.00" fill="#000000">2</text>
</a>
</g>
</g>
<!-- dir_6af676bf18881990e4083e191d0e63e0 -->
<g id="node8" class="node">
<title>dir_6af676bf18881990e4083e191d0e63e0</title>
<g id="a_node8"><a xlink:href="dir_6af676bf18881990e4083e191d0e63e0.html" target="_top" xlink:title="CCDB">
<polygon fill="none" stroke="#ff0000" points="158,-324 104,-324 104,-288 158,-288 158,-324"/>
<text text-anchor="middle" x="131" y="-303.5" font-family="Helvetica,sans-Serif" font-size="10.00" fill="#000000">CCDB</text>
</a>
</g>
</g>
<!-- dir_09ac740ef76ce36f9a01e5a702df673a&#45;&gt;dir_6af676bf18881990e4083e191d0e63e0 -->
<g id="edge5" class="edge">
<title>dir_09ac740ef76ce36f9a01e5a702df673a&#45;&gt;dir_6af676bf18881990e4083e191d0e63e0</title>
<path fill="none" stroke="#000000" d="M192.3079,-359.8314C182.3052,-351.0485 170.145,-340.3712 159.3001,-330.8489"/>
<polygon fill="#000000" stroke="#000000" points="161.5092,-328.1308 151.6854,-324.1628 156.8906,-333.3909 161.5092,-328.1308"/>
<g id="a_edge5&#45;headlabel"><a xlink:href="dir_000340_000019.html" target="_top" xlink:title="1">
<text text-anchor="middle" x="166.0836" y="-325.869" font-family="Helvetica,sans-Serif" font-size="10.00" fill="#000000">1</text>
</a>
</g>
</g>
<!-- dir_66222ccc5407e3593e9767260c5fdccb -->
<g id="node4" class="node">
<title>dir_66222ccc5407e3593e9767260c5fdccb</title>
<g id="a_node4"><a xlink:href="dir_66222ccc5407e3593e9767260c5fdccb.html" target="_top" xlink:title="reconstruction">
<polygon fill="#ffffff" stroke="#ff0000" points="354,-468 268,-468 268,-432 354,-432 354,-468"/>
<text text-anchor="middle" x="311" y="-447.5" font-family="Helvetica,sans-Serif" font-size="10.00" fill="#000000">reconstruction</text>
</a>
</g>
</g>
<!-- dir_66222ccc5407e3593e9767260c5fdccb&#45;&gt;dir_9f065a6c27ad05d142739bd8f4136180 -->
<g id="edge3" class="edge">
<title>dir_66222ccc5407e3593e9767260c5fdccb&#45;&gt;dir_9f065a6c27ad05d142739bd8f4136180</title>
<path fill="none" stroke="#000000" d="M304.4142,-431.7623C295.4667,-406.9846 279.3924,-362.4714 268.9645,-333.5939"/>
<polygon fill="#000000" stroke="#000000" points="272.2208,-332.3064 265.5324,-324.0896 265.6369,-334.6839 272.2208,-332.3064"/>
<g id="a_edge3&#45;headlabel"><a xlink:href="dir_000352_000197.html" target="_top" xlink:title="4">
<text text-anchor="middle" x="276.1121" y="-332.223" font-family="Helvetica,sans-Serif" font-size="10.00" fill="#000000">4</text>
</a>
</g>
</g>
<!-- dir_66222ccc5407e3593e9767260c5fdccb&#45;&gt;dir_09ac740ef76ce36f9a01e5a702df673a -->
<g id="edge1" class="edge">
<title>dir_66222ccc5407e3593e9767260c5fdccb&#45;&gt;dir_09ac740ef76ce36f9a01e5a702df673a</title>
<path fill="none" stroke="#000000" d="M286.2705,-431.8314C274.0838,-422.8779 259.2177,-411.9558 246.0688,-402.2955"/>
<polygon fill="#000000" stroke="#000000" points="247.8527,-399.263 237.7216,-396.1628 243.7082,-404.9042 247.8527,-399.263"/>
<g id="a_edge1&#45;headlabel"><a xlink:href="dir_000352_000340.html" target="_top" xlink:title="2">
<text text-anchor="middle" x="252.4306" y="-396.6032" font-family="Helvetica,sans-Serif" font-size="10.00" fill="#000000">2</text>
</a>
</g>
</g>
<!-- dir_66222ccc5407e3593e9767260c5fdccb&#45;&gt;dir_6af676bf18881990e4083e191d0e63e0 -->
<g id="edge2" class="edge">
<title>dir_66222ccc5407e3593e9767260c5fdccb&#45;&gt;dir_6af676bf18881990e4083e191d0e63e0</title>
<path fill="none" stroke="#000000" d="M267.8812,-434.348C231.4764,-420.8524 184.1497,-402.5373 177,-396 158.6937,-379.2616 146.5785,-353.5668 139.3989,-333.9105"/>
<polygon fill="#000000" stroke="#000000" points="142.6441,-332.5839 136.0877,-324.2614 136.0231,-334.856 142.6441,-332.5839"/>
<g id="a_edge2&#45;headlabel"><a xlink:href="dir_000352_000019.html" target="_top" xlink:title="1">
<text text-anchor="middle" x="146.4964" y="-332.5623" font-family="Helvetica,sans-Serif" font-size="10.00" fill="#000000">1</text>
</a>
</g>
</g>
<!-- dir_66222ccc5407e3593e9767260c5fdccb&#45;&gt;dir_2171f7ec022c5423887b07c69b2f5b48 -->
<g id="edge4" class="edge">
<title>dir_66222ccc5407e3593e9767260c5fdccb&#45;&gt;dir_2171f7ec022c5423887b07c69b2f5b48</title>
<path fill="none" stroke="#000000" d="M322.9342,-431.7554C339.1101,-405.2192 366,-353.903 366,-306 366,-306 366,-306 366,-234 366,-178.9108 312.6654,-137.115 271.6007,-113.099"/>
<polygon fill="#000000" stroke="#000000" points="273.2108,-109.9885 262.7854,-108.1014 269.7585,-116.078 273.2108,-109.9885"/>
<g id="a_edge4&#45;headlabel"><a xlink:href="dir_000352_000076.html" target="_top" xlink:title="10">
<text text-anchor="middle" x="277.7381" y="-106.7913" font-family="Helvetica,sans-Serif" font-size="10.00" fill="#000000">10</text>
</a>
</g>
</g>
<!-- dir_a740963330d1efa3e28509f70022bd98 -->
<g id="node5" class="node">
<title>dir_a740963330d1efa3e28509f70022bd98</title>
<g id="a_node5"><a xlink:href="dir_a740963330d1efa3e28509f70022bd98.html" target="_top" xlink:title="simulation">
<polygon fill="#ffffff" stroke="#ff0000" points="250,-468 182,-468 182,-432 250,-432 250,-468"/>
<text text-anchor="middle" x="216" y="-447.5" font-family="Helvetica,sans-Serif" font-size="10.00" fill="#000000">simulation</text>
</a>
</g>
</g>
<!-- dir_a740963330d1efa3e28509f70022bd98&#45;&gt;dir_9f065a6c27ad05d142739bd8f4136180 -->
<g id="edge24" class="edge">
<title>dir_a740963330d1efa3e28509f70022bd98&#45;&gt;dir_9f065a6c27ad05d142739bd8f4136180</title>
<path fill="none" stroke="#000000" d="M230.0932,-431.5275C236.9635,-421.5411 244.6615,-408.6826 249,-396 255.8163,-376.074 258.2372,-352.3584 258.9963,-334.275"/>
<polygon fill="#000000" stroke="#000000" points="262.5,-334.1814 259.2753,-324.0893 255.5027,-333.9897 262.5,-334.1814"/>
<g id="a_edge24&#45;headlabel"><a xlink:href="dir_000277_000197.html" target="_top" xlink:title="7">
<text text-anchor="middle" x="265.2399" y="-335.3524" font-family="Helvetica,sans-Serif" font-size="10.00" fill="#000000">7</text>
</a>
</g>
</g>
<!-- dir_a740963330d1efa3e28509f70022bd98&#45;&gt;dir_09ac740ef76ce36f9a01e5a702df673a -->
<g id="edge20" class="edge">
<title>dir_a740963330d1efa3e28509f70022bd98&#45;&gt;dir_09ac740ef76ce36f9a01e5a702df673a</title>
<path fill="none" stroke="#000000" d="M215.243,-431.8314C214.9221,-424.131 214.5406,-414.9743 214.184,-406.4166"/>
<polygon fill="#000000" stroke="#000000" points="217.6806,-406.2589 213.7672,-396.4133 210.6867,-406.5503 217.6806,-406.2589"/>
<g id="a_edge20&#45;headlabel"><a xlink:href="dir_000277_000340.html" target="_top" xlink:title="1">
<text text-anchor="middle" x="220.6669" y="-407.2322" font-family="Helvetica,sans-Serif" font-size="10.00" fill="#000000">1</text>
</a>
</g>
</g>
<!-- dir_a740963330d1efa3e28509f70022bd98&#45;&gt;dir_4ab6b4cc6a7edbff49100e9123df213f -->
<g id="edge21" class="edge">
<title>dir_a740963330d1efa3e28509f70022bd98&#45;&gt;dir_4ab6b4cc6a7edbff49100e9123df213f</title>
<path fill="none" stroke="#000000" d="M181.7366,-434.6333C164.2055,-425.4229 143.553,-412.3195 129,-396 105.4469,-369.5879 102.7432,-358.531 95,-324 89.9432,-301.4489 83.2429,-291.8971 95,-272 101.5875,-260.8517 112.7415,-252.7516 124.1828,-246.9701"/>
<polygon fill="#000000" stroke="#000000" points="125.6777,-250.1354 133.3384,-242.8166 122.7857,-243.7607 125.6777,-250.1354"/>
<g id="a_edge21&#45;headlabel"><a xlink:href="dir_000277_000027.html" target="_top" xlink:title="1">
<text text-anchor="middle" x="123.5772" y="-251.706" font-family="Helvetica,sans-Serif" font-size="10.00" fill="#000000">1</text>
</a>
</g>
</g>
<!-- dir_a740963330d1efa3e28509f70022bd98&#45;&gt;dir_6af676bf18881990e4083e191d0e63e0 -->
<g id="edge22" class="edge">
<title>dir_a740963330d1efa3e28509f70022bd98&#45;&gt;dir_6af676bf18881990e4083e191d0e63e0</title>
<path fill="none" stroke="#000000" d="M181.7596,-432.2509C167.8251,-423.2687 152.9278,-411.0514 144,-396 132.9745,-377.4122 130.0233,-352.9682 129.6637,-334.2464"/>
<polygon fill="#000000" stroke="#000000" points="133.1636,-334.2539 129.7028,-324.2403 126.1637,-334.2265 133.1636,-334.2539"/>
<g id="a_edge22&#45;headlabel"><a xlink:href="dir_000277_000019.html" target="_top" xlink:title="1">
<text text-anchor="middle" x="135.989" y="-335.3595" font-family="Helvetica,sans-Serif" font-size="10.00" fill="#000000">1</text>
</a>
</g>
</g>
<!-- dir_37c90836491b695b472bf98d1be8336b -->
<g id="node9" class="node">
<title>dir_37c90836491b695b472bf98d1be8336b</title>
<g id="a_node9"><a xlink:href="dir_37c90836491b695b472bf98d1be8336b.html" target="_top" xlink:title="Base">
<polygon fill="none" stroke="#ff0000" points="146,-36 92,-36 92,0 146,0 146,-36"/>
<text text-anchor="middle" x="119" y="-15.5" font-family="Helvetica,sans-Serif" font-size="10.00" fill="#000000">Base</text>
</a>
</g>
</g>
<!-- dir_a740963330d1efa3e28509f70022bd98&#45;&gt;dir_37c90836491b695b472bf98d1be8336b -->
<g id="edge23" class="edge">
<title>dir_a740963330d1efa3e28509f70022bd98&#45;&gt;dir_37c90836491b695b472bf98d1be8336b</title>
<path fill="none" stroke="#000000" d="M181.7742,-443.6193C120.868,-430.0698 0,-392.3079 0,-306 0,-306 0,-306 0,-162 0,-109.0804 48.3457,-65.1193 83.4069,-40.1961"/>
<polygon fill="#000000" stroke="#000000" points="85.7492,-42.8325 91.9971,-34.276 81.7769,-37.0687 85.7492,-42.8325"/>
<g id="a_edge23&#45;headlabel"><a xlink:href="dir_000277_000274.html" target="_top" xlink:title="2">
<text text-anchor="middle" x="84.4006" y="-44.7102" font-family="Helvetica,sans-Serif" font-size="10.00" fill="#000000">2</text>
</a>
</g>
</g>
<!-- dir_a740963330d1efa3e28509f70022bd98&#45;&gt;dir_2171f7ec022c5423887b07c69b2f5b48 -->
<g id="edge25" class="edge">
<title>dir_a740963330d1efa3e28509f70022bd98&#45;&gt;dir_2171f7ec022c5423887b07c69b2f5b48</title>
<path fill="none" stroke="#000000" d="M243.3983,-431.8942C276.5557,-407.5597 328,-360.9501 328,-306 328,-306 328,-306 328,-234 328,-184.7637 287.6723,-140.7636 257.4849,-114.7245"/>
<polygon fill="#000000" stroke="#000000" points="259.5856,-111.9185 249.6711,-108.1831 255.0922,-117.286 259.5856,-111.9185"/>
<g id="a_edge25&#45;headlabel"><a xlink:href="dir_000277_000076.html" target="_top" xlink:title="5">
<text text-anchor="middle" x="264.1644" y="-109.5488" font-family="Helvetica,sans-Serif" font-size="10.00" fill="#000000">5</text>
</a>
</g>
</g>
<!-- dir_f89b418b783926de3a6f62b046b4a9b0 -->
<g id="node6" class="node">
<title>dir_f89b418b783926de3a6f62b046b4a9b0</title>
<g id="a_node6"><a xlink:href="dir_f89b418b783926de3a6f62b046b4a9b0.html" target="_top" xlink:title="workflow">
<polygon fill="#ffffff" stroke="#ff0000" points="301.5,-540 240.5,-540 240.5,-504 301.5,-504 301.5,-540"/>
<text text-anchor="middle" x="271" y="-519.5" font-family="Helvetica,sans-Serif" font-size="10.00" fill="#000000">workflow</text>
</a>
</g>
</g>
<!-- dir_f89b418b783926de3a6f62b046b4a9b0&#45;&gt;dir_9f065a6c27ad05d142739bd8f4136180 -->
<g id="edge9" class="edge">
<title>dir_f89b418b783926de3a6f62b046b4a9b0&#45;&gt;dir_9f065a6c27ad05d142739bd8f4136180</title>
<path fill="none" stroke="#000000" d="M301.7074,-508.0924C325.6987,-496.5218 356.0981,-480.0541 363,-468 370.9502,-454.115 368.4114,-447.0571 363,-432 348.3076,-391.1187 313.9711,-354.055 288.7542,-330.8733"/>
<polygon fill="#000000" stroke="#000000" points="291.0313,-328.214 281.2528,-324.1358 286.3538,-333.4219 291.0313,-328.214"/>
<g id="a_edge9&#45;headlabel"><a xlink:href="dir_000371_000197.html" target="_top" xlink:title="1">
<text text-anchor="middle" x="295.6028" y="-326.0037" font-family="Helvetica,sans-Serif" font-size="10.00" fill="#000000">1</text>
</a>
</g>
</g>
<!-- dir_f89b418b783926de3a6f62b046b4a9b0&#45;&gt;dir_66222ccc5407e3593e9767260c5fdccb -->
<g id="edge7" class="edge">
<title>dir_f89b418b783926de3a6f62b046b4a9b0&#45;&gt;dir_66222ccc5407e3593e9767260c5fdccb</title>
<path fill="none" stroke="#000000" d="M281.0937,-503.8314C285.5597,-495.7925 290.9075,-486.1666 295.8379,-477.2918"/>
<polygon fill="#000000" stroke="#000000" points="298.9735,-478.8546 300.7704,-468.4133 292.8544,-475.4551 298.9735,-478.8546"/>
<g id="a_edge7&#45;headlabel"><a xlink:href="dir_000371_000352.html" target="_top" xlink:title="1">
<text text-anchor="middle" x="299.7098" y="-480.8757" font-family="Helvetica,sans-Serif" font-size="10.00" fill="#000000">1</text>
</a>
</g>
</g>
<!-- dir_8ba487e25de5ee77e05e9dce7582cb98 -->
<g id="node10" class="node">
<title>dir_8ba487e25de5ee77e05e9dce7582cb98</title>
<g id="a_node10"><a xlink:href="dir_8ba487e25de5ee77e05e9dce7582cb98.html" target="_top" xlink:title="Algorithm">
<polygon fill="none" stroke="#ff0000" points="257.5,-36 192.5,-36 192.5,0 257.5,0 257.5,-36"/>
<text text-anchor="middle" x="225" y="-15.5" font-family="Helvetica,sans-Serif" font-size="10.00" fill="#000000">Algorithm</text>
</a>
</g>
</g>
<!-- dir_f89b418b783926de3a6f62b046b4a9b0&#45;&gt;dir_8ba487e25de5ee77e05e9dce7582cb98 -->
<g id="edge8" class="edge">
<title>dir_f89b418b783926de3a6f62b046b4a9b0&#45;&gt;dir_8ba487e25de5ee77e05e9dce7582cb98</title>
<path fill="none" stroke="#000000" d="M301.5438,-508.1713C304.7326,-506.7527 307.9294,-505.341 311,-504 348.5976,-487.5811 365.9664,-495.949 396,-468 428.8853,-437.3972 442,-422.9219 442,-378 442,-378 442,-378 442,-162 442,-79.3388 331.3279,-41.3012 268.0566,-26.3093"/>
<polygon fill="#000000" stroke="#000000" points="268.4844,-22.8174 257.9576,-24.016 266.9343,-29.6436 268.4844,-22.8174"/>
<g id="a_edge8&#45;headlabel"><a xlink:href="dir_000371_000000.html" target="_top" xlink:title="2">
<text text-anchor="middle" x="272.6185" y="-18.3445" font-family="Helvetica,sans-Serif" font-size="10.00" fill="#000000">2</text>
</a>
</g>
</g>
<!-- dir_bcbb2cf9a3d3d83e5515c82071a07177 -->
<g id="node11" class="node">
<title>dir_bcbb2cf9a3d3d83e5515c82071a07177</title>
<g id="a_node11"><a xlink:href="dir_bcbb2cf9a3d3d83e5515c82071a07177.html" target="_top" xlink:title="Framework">
<polygon fill="none" stroke="#ff0000" points="167.5,-180 96.5,-180 96.5,-144 167.5,-144 167.5,-180"/>
<text text-anchor="middle" x="132" y="-159.5" font-family="Helvetica,sans-Serif" font-size="10.00" fill="#000000">Framework</text>
</a>
</g>
</g>
<!-- dir_f89b418b783926de3a6f62b046b4a9b0&#45;&gt;dir_bcbb2cf9a3d3d83e5515c82071a07177 -->
<g id="edge10" class="edge">
<title>dir_f89b418b783926de3a6f62b046b4a9b0&#45;&gt;dir_bcbb2cf9a3d3d83e5515c82071a07177</title>
<path fill="none" stroke="#000000" d="M240.0594,-517.5909C176.6788,-506.6304 38,-471.9177 38,-378 38,-378 38,-378 38,-306 38,-257.9707 75.1215,-213.4394 102.7088,-186.9769"/>
<polygon fill="#000000" stroke="#000000" points="105.264,-189.3801 110.1982,-180.0044 100.4942,-184.2567 105.264,-189.3801"/>
<g id="a_edge10&#45;headlabel"><a xlink:href="dir_000371_000013.html" target="_top" xlink:title="21">
<text text-anchor="middle" x="104.5677" y="-191.4076" font-family="Helvetica,sans-Serif" font-size="10.00" fill="#000000">21</text>
</a>
</g>
</g>
<!-- dir_f89b418b783926de3a6f62b046b4a9b0&#45;&gt;dir_2171f7ec022c5423887b07c69b2f5b48 -->
<g id="edge11" class="edge">
<title>dir_f89b418b783926de3a6f62b046b4a9b0&#45;&gt;dir_2171f7ec022c5423887b07c69b2f5b48</title>
<path fill="none" stroke="#000000" d="M301.904,-508.0611C327.1605,-496.1553 360.23,-479.2223 370,-468 398.0765,-435.7501 404,-420.7592 404,-378 404,-378 404,-378 404,-234 404,-167.3538 327.7352,-126.3593 274.7667,-105.9243"/>
<polygon fill="#000000" stroke="#000000" points="275.7638,-102.5607 265.1711,-102.3464 273.3181,-109.1196 275.7638,-102.5607"/>
<g id="a_edge11&#45;headlabel"><a xlink:href="dir_000371_000076.html" target="_top" xlink:title="17">
<text text-anchor="middle" x="280.1238" y="-98.6562" font-family="Helvetica,sans-Serif" font-size="10.00" fill="#000000">17</text>
</a>
</g>
</g>
<!-- dir_4ab6b4cc6a7edbff49100e9123df213f&#45;&gt;dir_bcbb2cf9a3d3d83e5515c82071a07177 -->
<g id="edge12" class="edge">
<title>dir_4ab6b4cc6a7edbff49100e9123df213f&#45;&gt;dir_bcbb2cf9a3d3d83e5515c82071a07177</title>
<path fill="none" stroke="#000000" d="M149.9727,-215.8314C145.7081,-207.9617 141.3207,-198.5712 137.7853,-189.8533"/>
<polygon fill="#000000" stroke="#000000" points="141.0244,-188.5239 134.2077,-180.4133 134.4787,-191.0046 141.0244,-188.5239"/>
<g id="a_edge12&#45;headlabel"><a xlink:href="dir_000027_000013.html" target="_top" xlink:title="2">
<text text-anchor="middle" x="144.9533" y="-188.379" font-family="Helvetica,sans-Serif" font-size="10.00" fill="#000000">2</text>
</a>
</g>
</g>
<!-- dir_4ab6b4cc6a7edbff49100e9123df213f&#45;&gt;dir_2171f7ec022c5423887b07c69b2f5b48 -->
<g id="edge13" class="edge">
<title>dir_4ab6b4cc6a7edbff49100e9123df213f&#45;&gt;dir_2171f7ec022c5423887b07c69b2f5b48</title>
<path fill="none" stroke="#000000" d="M167.0525,-215.7623C175.1021,-190.8764 193.8283,-146.0822 208.0503,-117.2165"/>
<polygon fill="#000000" stroke="#000000" points="211.2773,-118.5914 212.6787,-108.0896 205.0342,-115.4253 211.2773,-118.5914"/>
<g id="a_edge13&#45;headlabel"><a xlink:href="dir_000027_000076.html" target="_top" xlink:title="2">
<text text-anchor="middle" x="212.1838" y="-120.5814" font-family="Helvetica,sans-Serif" font-size="10.00" fill="#000000">2</text>
</a>
</g>
</g>
<!-- dir_6af676bf18881990e4083e191d0e63e0&#45;&gt;dir_4ab6b4cc6a7edbff49100e9123df213f -->
<g id="edge14" class="edge">
<title>dir_6af676bf18881990e4083e191d0e63e0&#45;&gt;dir_4ab6b4cc6a7edbff49100e9123df213f</title>
<path fill="none" stroke="#000000" d="M139.3273,-287.8314C142.973,-279.8771 147.3309,-270.369 151.3627,-261.5723"/>
<polygon fill="#000000" stroke="#000000" points="154.5757,-262.9622 155.5606,-252.4133 148.2123,-260.0456 154.5757,-262.9622"/>
<g id="a_edge14&#45;headlabel"><a xlink:href="dir_000019_000027.html" target="_top" xlink:title="4">
<text text-anchor="middle" x="155.6591" y="-264.9129" font-family="Helvetica,sans-Serif" font-size="10.00" fill="#000000">4</text>
</a>
</g>
</g>
<!-- dir_6af676bf18881990e4083e191d0e63e0&#45;&gt;dir_bcbb2cf9a3d3d83e5515c82071a07177 -->
<g id="edge15" class="edge">
<title>dir_6af676bf18881990e4083e191d0e63e0&#45;&gt;dir_bcbb2cf9a3d3d83e5515c82071a07177</title>
<path fill="none" stroke="#000000" d="M128.0115,-287.563C126.4749,-277.1537 124.7672,-263.8866 124,-252 122.9694,-236.0332 122.8244,-231.9568 124,-216 124.6169,-207.6264 125.7649,-198.5812 127.0026,-190.3322"/>
<polygon fill="#000000" stroke="#000000" points="130.4648,-190.8463 128.585,-180.4196 123.5523,-189.7428 130.4648,-190.8463"/>
<g id="a_edge15&#45;headlabel"><a xlink:href="dir_000019_000013.html" target="_top" xlink:title="2">
<text text-anchor="middle" x="132.702" y="-192.3436" font-family="Helvetica,sans-Serif" font-size="10.00" fill="#000000">2</text>
</a>
</g>
</g>
<!-- dir_37c90836491b695b472bf98d1be8336b&#45;&gt;dir_4ab6b4cc6a7edbff49100e9123df213f -->
<g id="edge16" class="edge">
<title>dir_37c90836491b695b472bf98d1be8336b&#45;&gt;dir_4ab6b4cc6a7edbff49100e9123df213f</title>
<path fill="none" stroke="#000000" d="M108.162,-36.097C91.046,-67.2301 62.1308,-132.184 87,-180 95.0484,-195.4748 109.7883,-207.4378 124.2333,-216.1252"/>
<polygon fill="#000000" stroke="#000000" points="122.6929,-219.2741 133.1269,-221.1131 126.1171,-213.1687 122.6929,-219.2741"/>
<g id="a_edge16&#45;headlabel"><a xlink:href="dir_000274_000027.html" target="_top" xlink:title="16">
<text text-anchor="middle" x="118.1688" y="-217.4921" font-family="Helvetica,sans-Serif" font-size="10.00" fill="#000000">16</text>
</a>
</g>
</g>
<!-- dir_37c90836491b695b472bf98d1be8336b&#45;&gt;dir_bcbb2cf9a3d3d83e5515c82071a07177 -->
<g id="edge17" class="edge">
<title>dir_37c90836491b695b472bf98d1be8336b&#45;&gt;dir_bcbb2cf9a3d3d83e5515c82071a07177</title>
<path fill="none" stroke="#000000" d="M120.6331,-36.0896C122.8434,-60.5727 126.8106,-104.5174 129.4245,-133.4713"/>
<polygon fill="#000000" stroke="#000000" points="125.9685,-134.1175 130.3535,-143.7623 132.9402,-133.4881 125.9685,-134.1175"/>
<g id="a_edge17&#45;headlabel"><a xlink:href="dir_000274_000013.html" target="_top" xlink:title="1">
<text text-anchor="middle" x="122.8176" y="-128.2927" font-family="Helvetica,sans-Serif" font-size="10.00" fill="#000000">1</text>
</a>
</g>
</g>
<!-- dir_37c90836491b695b472bf98d1be8336b&#45;&gt;dir_2171f7ec022c5423887b07c69b2f5b48 -->
<g id="edge18" class="edge">
<title>dir_37c90836491b695b472bf98d1be8336b&#45;&gt;dir_2171f7ec022c5423887b07c69b2f5b48</title>
<path fill="none" stroke="#000000" d="M146.3208,-32.7712C161.5804,-42.3171 180.4734,-54.961 195.9814,-65.9361"/>
<polygon fill="#000000" stroke="#000000" points="194.0376,-68.8491 204.2041,-71.8314 198.1164,-63.1601 194.0376,-68.8491"/>
<g id="a_edge18&#45;headlabel"><a xlink:href="dir_000274_000076.html" target="_top" xlink:title="10">
<text text-anchor="middle" x="189.4619" y="-66.5622" font-family="Helvetica,sans-Serif" font-size="10.00" fill="#000000">10</text>
</a>
</g>
</g>
<!-- dir_8ba487e25de5ee77e05e9dce7582cb98&#45;&gt;dir_2171f7ec022c5423887b07c69b2f5b48 -->
<g id="edge19" class="edge">
<title>dir_8ba487e25de5ee77e05e9dce7582cb98&#45;&gt;dir_2171f7ec022c5423887b07c69b2f5b48</title>
<path fill="none" stroke="#000000" d="M230.976,-36.4133C231.7071,-44.0593 231.9203,-53.1084 231.6155,-61.5726"/>
<polygon fill="#000000" stroke="#000000" points="228.1048,-61.6264 230.9524,-71.8314 235.0902,-62.078 228.1048,-61.6264"/>
<g id="a_edge19&#45;headlabel"><a xlink:href="dir_000000_000076.html" target="_top" xlink:title="8">
<text text-anchor="middle" x="225.5032" y="-55.3562" font-family="Helvetica,sans-Serif" font-size="10.00" fill="#000000">8</text>
</a>
</g>
</g>
<!-- dir_bcbb2cf9a3d3d83e5515c82071a07177&#45;&gt;dir_4ab6b4cc6a7edbff49100e9123df213f -->
<g id="edge28" class="edge">
<title>dir_bcbb2cf9a3d3d83e5515c82071a07177&#45;&gt;dir_4ab6b4cc6a7edbff49100e9123df213f</title>
<path fill="none" stroke="#000000" d="M146.1597,-180.4133C150.4267,-188.3141 154.8065,-197.7132 158.3241,-206.417"/>
<polygon fill="#000000" stroke="#000000" points="155.0717,-207.7115 161.8774,-215.8314 161.6207,-205.2396 155.0717,-207.7115"/>
<g id="a_edge28&#45;headlabel"><a xlink:href="dir_000013_000027.html" target="_top" xlink:title="8">
<text text-anchor="middle" x="151.1461" y="-202.851" font-family="Helvetica,sans-Serif" font-size="10.00" fill="#000000">8</text>
</a>
</g>
</g>
<!-- dir_bcbb2cf9a3d3d83e5515c82071a07177&#45;&gt;dir_8ba487e25de5ee77e05e9dce7582cb98 -->
<g id="edge29" class="edge">
<title>dir_bcbb2cf9a3d3d83e5515c82071a07177&#45;&gt;dir_8ba487e25de5ee77e05e9dce7582cb98</title>
<path fill="none" stroke="#000000" d="M139.0451,-143.9408C146.7686,-125.1669 160.1885,-95.3208 176,-72 182.6357,-62.2128 190.9524,-52.3787 198.84,-43.8349"/>
<polygon fill="#000000" stroke="#000000" points="201.5596,-46.0536 205.9026,-36.3897 196.4811,-41.236 201.5596,-46.0536"/>
<g id="a_edge29&#45;headlabel"><a xlink:href="dir_000013_000000.html" target="_top" xlink:title="1">
<text text-anchor="middle" x="201.1457" y="-48.1155" font-family="Helvetica,sans-Serif" font-size="10.00" fill="#000000">1</text>
</a>
</g>
</g>
<!-- dir_bcbb2cf9a3d3d83e5515c82071a07177&#45;&gt;dir_2171f7ec022c5423887b07c69b2f5b48 -->
<g id="edge30" class="edge">
<title>dir_bcbb2cf9a3d3d83e5515c82071a07177&#45;&gt;dir_2171f7ec022c5423887b07c69b2f5b48</title>
<path fill="none" stroke="#000000" d="M149.5154,-143.8314C160.2077,-134.8779 174.1588,-123.9558 187.196,-114.2955"/>
<polygon fill="#000000" stroke="#000000" points="189.5791,-116.889 195.5879,-108.1628 185.4489,-111.2373 189.5791,-116.889"/>
<g id="a_edge30&#45;headlabel"><a xlink:href="dir_000013_000076.html" target="_top" xlink:title="82">
<text text-anchor="middle" x="188.3521" y="-118.8022" font-family="Helvetica,sans-Serif" font-size="10.00" fill="#000000">82</text>
</a>
</g>
</g>
<!-- dir_2171f7ec022c5423887b07c69b2f5b48&#45;&gt;dir_9f065a6c27ad05d142739bd8f4136180 -->
<g id="edge34" class="edge">
<title>dir_2171f7ec022c5423887b07c69b2f5b48&#45;&gt;dir_9f065a6c27ad05d142739bd8f4136180</title>
<path fill="none" stroke="#000000" d="M227.8562,-108.1451C233.795,-145.8741 247.5106,-233.0083 254.5919,-277.9956"/>
<polygon fill="#000000" stroke="#000000" points="251.1472,-278.6214 256.1597,-287.9555 258.0621,-277.5329 251.1472,-278.6214"/>
<g id="a_edge34&#45;headlabel"><a xlink:href="dir_000076_000197.html" target="_top" xlink:title="3">
<text text-anchor="middle" x="247.7836" y="-273.0119" font-family="Helvetica,sans-Serif" font-size="10.00" fill="#000000">3</text>
</a>
</g>
</g>
<!-- dir_2171f7ec022c5423887b07c69b2f5b48&#45;&gt;dir_4ab6b4cc6a7edbff49100e9123df213f -->
<g id="edge31" class="edge">
<title>dir_2171f7ec022c5423887b07c69b2f5b48&#45;&gt;dir_4ab6b4cc6a7edbff49100e9123df213f</title>
<path fill="none" stroke="#000000" d="M221.9953,-108.0896C213.9882,-132.8962 195.2743,-177.6824 181.0346,-206.6113"/>
<polygon fill="#000000" stroke="#000000" points="177.7957,-205.2599 176.3989,-215.7623 184.0402,-208.4233 177.7957,-205.2599"/>
<g id="a_edge31&#45;headlabel"><a xlink:href="dir_000076_000027.html" target="_top" xlink:title="34">
<text text-anchor="middle" x="176.8872" y="-198.2703" font-family="Helvetica,sans-Serif" font-size="10.00" fill="#000000">34</text>
</a>
</g>
</g>
<!-- dir_2171f7ec022c5423887b07c69b2f5b48&#45;&gt;dir_37c90836491b695b472bf98d1be8336b -->
<g id="edge32" class="edge">
<title>dir_2171f7ec022c5423887b07c69b2f5b48&#45;&gt;dir_37c90836491b695b472bf98d1be8336b</title>
<path fill="none" stroke="#000000" d="M192.2993,-71.8314C178.1115,-62.7927 161.6995,-51.7476 147.9563,-42.0198"/>
<polygon fill="#000000" stroke="#000000" points="149.9542,-39.1456 139.7879,-36.1628 145.8752,-44.8344 149.9542,-39.1456"/>
<g id="a_edge32&#45;headlabel"><a xlink:href="dir_000076_000274.html" target="_top" xlink:title="1">
<text text-anchor="middle" x="154.5299" y="-36.4328" font-family="Helvetica,sans-Serif" font-size="10.00" fill="#000000">1</text>
</a>
</g>
</g>
<!-- dir_2171f7ec022c5423887b07c69b2f5b48&#45;&gt;dir_8ba487e25de5ee77e05e9dce7582cb98 -->
<g id="edge33" class="edge">
<title>dir_2171f7ec022c5423887b07c69b2f5b48&#45;&gt;dir_8ba487e25de5ee77e05e9dce7582cb98</title>
<path fill="none" stroke="#000000" d="M219.0476,-71.8314C218.2972,-64.131 218.0763,-54.9743 218.3849,-46.4166"/>
<polygon fill="#000000" stroke="#000000" points="221.8792,-46.6161 219.024,-36.4133 214.8935,-46.1697 221.8792,-46.6161"/>
<g id="a_edge33&#45;headlabel"><a xlink:href="dir_000076_000000.html" target="_top" xlink:title="2">
<text text-anchor="middle" x="224.4836" y="-47.8844" font-family="Helvetica,sans-Serif" font-size="10.00" fill="#000000">2</text>
</a>
</g>
</g>
<!-- dir_2171f7ec022c5423887b07c69b2f5b48&#45;&gt;dir_bcbb2cf9a3d3d83e5515c82071a07177 -->
<g id="edge35" class="edge">
<title>dir_2171f7ec022c5423887b07c69b2f5b48&#45;&gt;dir_bcbb2cf9a3d3d83e5515c82071a07177</title>
<path fill="none" stroke="#000000" d="M207.4915,-108.1628C196.8006,-117.1154 182.8501,-128.0374 169.8125,-137.6982"/>
<polygon fill="#000000" stroke="#000000" points="167.4289,-135.1051 161.4202,-143.8314 171.5591,-140.7568 167.4289,-135.1051"/>
<g id="a_edge35&#45;headlabel"><a xlink:href="dir_000076_000013.html" target="_top" xlink:title="7">
<text text-anchor="middle" x="168.6558" y="-128.1919" font-family="Helvetica,sans-Serif" font-size="10.00" fill="#000000">7</text>
</a>
</g>
</g>
</g>
</svg>
        <g id="navigator" transform="translate(0 0)" fill="#404254">
                <rect fill="#f2f5e9" fill-opacity="0.5" stroke="#606060" stroke-width=".5" x="0" y="0" width="60" height="60"/>
                <use id="zoomplus" xlink:href="#zoomPlus" x="17" y="9" onmousedown="handleZoom(evt,'in')"/>
                <use id="zoomminus" xlink:href="#zoomMin" x="42" y="9" onmousedown="handleZoom(evt,'out')"/>
                <use id="reset" xlink:href="#resetDef" x="30" y="36" onmousedown="handleReset()"/>
                <g id="arrowUp" xlink:href="#dirArrow" transform="translate(30 24)" onmousedown="handlePan(0,-1)">
                  <use xlink:href="#rim" fill="#404040">
                        <set attributeName="fill" to="#808080" begin="arrowUp.mouseover" end="arrowUp.mouseout"/>
                  </use>
                  <path fill="none" stroke="white" stroke-width="1.5" d="M0,-3.0v7 M-2.5,-0.5L0,-3.0L2.5,-0.5"/>
                </g>
                <g id="arrowRight" xlink:href="#dirArrow" transform="rotate(90) translate(36 -43)" onmousedown="handlePan(1,0)">
                  <use xlink:href="#rim" fill="#404040">
                        <set attributeName="fill" to="#808080" begin="arrowRight.mouseover" end="arrowRight.mouseout"/>
                  </use>
                  <path fill="none" stroke="white" stroke-width="1.5" d="M0,-3.0v7 M-2.5,-0.5L0,-3.0L2.5,-0.5"/>
                </g>
                <g id="arrowDown" xlink:href="#dirArrow" transform="rotate(180) translate(-30 -48)" onmousedown="handlePan(0,1)">
                  <use xlink:href="#rim" fill="#404040">
                        <set attributeName="fill" to="#808080" begin="arrowDown.mouseover" end="arrowDown.mouseout"/>
                  </use>
                  <path fill="none" stroke="white" stroke-width="1.5" d="M0,-3.0v7 M-2.5,-0.5L0,-3.0L2.5,-0.5"/>
                </g>
                <g id="arrowLeft" xlink:href="#dirArrow" transform="rotate(270) translate(-36 17)" onmousedown="handlePan(-1,0)">
                  <use xlink:href="#rim" fill="#404040">
                        <set attributeName="fill" to="#808080" begin="arrowLeft.mouseover" end="arrowLeft.mouseout"/>
                  </use>
                  <path fill="none" stroke="white" stroke-width="1.5" d="M0,-3.0v7 M-2.5,-0.5L0,-3.0L2.5,-0.5"/>
                </g>
        </g>
        <svg viewBox="0 0 15 15" width="100%" height="30px" preserveAspectRatio="xMaxYMin meet">
         <g id="arrow_out" transform="scale(0.3 0.3)">
          <a xlink:href="dir_860de54695a0456b93a4bb1fd951d826_dep_org.svg" target="_base">
           <rect id="button" ry="5" rx="5" y="6" x="6" height="38" width="38"
                fill="#f2f5e9" fill-opacity="0.5" stroke="#606060" stroke-width="1.0"/>
           <path id="arrow"
             d="M 11.500037,31.436501 C 11.940474,20.09759 22.043105,11.32322 32.158766,21.979434 L 37.068811,17.246167 C 37.068811,17.246167 37.088388,32 37.088388,32 L 22.160133,31.978069 C 22.160133,31.978069 26.997745,27.140456 26.997745,27.140456 C 18.528582,18.264221 13.291696,25.230495 11.500037,31.436501 z"
             style="fill:#404040;"/>
          </a>
         </g>
        </svg>
</svg>
