<?xml version="1.0" encoding="UTF-8" standalone="no"?>
<!DOCTYPE svg PUBLIC "-//W3C//DTD SVG 1.1//EN"
 "http://www.w3.org/Graphics/SVG/1.1/DTD/svg11.dtd">
<!-- Generated by graphviz version 2.40.1 (20161225.0304)
 -->
<!-- Title: /home/travis/build/AliceO2Group/AliceO2/DataFormats/Detectors/ZDC/include/DataFormatsZDC Pages: 1 -->
<svg width="152pt" height="295pt"
 viewBox="0.00 0.00 151.50 295.00" xmlns="http://www.w3.org/2000/svg" xmlns:xlink="http://www.w3.org/1999/xlink">
<g id="graph0" class="graph" transform="scale(1 1) rotate(0) translate(4 291)">
<title>/home/travis/build/AliceO2Group/AliceO2/DataFormats/Detectors/ZDC/include/DataFormatsZDC</title>
<g id="clust1" class="cluster">
<title>clusterdir_64d738a0161f08f47d3d8d07e1b435f8</title>
<g id="a_clust1"><a xlink:href="dir_64d738a0161f08f47d3d8d07e1b435f8.html" target="_top" xlink:title="include">
<polygon fill="#ddddee" stroke="#000000" points="8,-208 8,-279 126,-279 126,-208 8,-208"/>
<text text-anchor="middle" x="67" y="-267" font-family="Helvetica,sans-Serif" font-size="10.00" fill="#000000">include</text>
</a>
</g>
</g>
<!-- dir_a4e4bab9cf6a2c7a75d5d137e4b1b41f -->
<g id="node1" class="node">
<title>dir_a4e4bab9cf6a2c7a75d5d137e4b1b41f</title>
<g id="a_node1"><a xlink:href="dir_a4e4bab9cf6a2c7a75d5d137e4b1b41f.html" target="_top" xlink:title="DataFormatsZDC">
<polygon fill="#eeeeff" stroke="#000000" points="117.5,-252 16.5,-252 16.5,-216 117.5,-216 117.5,-252"/>
<text text-anchor="middle" x="67" y="-231.5" font-family="Helvetica,sans-Serif" font-size="10.00" fill="#000000">DataFormatsZDC</text>
</a>
</g>
</g>
<!-- dir_4ab6b4cc6a7edbff49100e9123df213f -->
<g id="node2" class="node">
<title>dir_4ab6b4cc6a7edbff49100e9123df213f</title>
<g id="a_node2"><a xlink:href="dir_4ab6b4cc6a7edbff49100e9123df213f.html" target="_top" xlink:title="Common">
<polygon fill="none" stroke="#ff0000" points="86.5,-36 25.5,-36 25.5,0 86.5,0 86.5,-36"/>
<text text-anchor="middle" x="56" y="-15.5" font-family="Helvetica,sans-Serif" font-size="10.00" fill="#000000">Common</text>
</a>
</g>
</g>
<!-- dir_a4e4bab9cf6a2c7a75d5d137e4b1b41f&#45;&gt;dir_4ab6b4cc6a7edbff49100e9123df213f -->
<g id="edge1" class="edge">
<title>dir_a4e4bab9cf6a2c7a75d5d137e4b1b41f&#45;&gt;dir_4ab6b4cc6a7edbff49100e9123df213f</title>
<path fill="none" stroke="#000000" d="M48.396,-215.8067C39.7967,-206.0891 30.5063,-193.3872 26,-180 10.6185,-134.3051 28.4994,-78.55 42.5083,-45.7941"/>
<polygon fill="#000000" stroke="#000000" points="45.8194,-46.9624 46.6905,-36.4034 39.4248,-44.1145 45.8194,-46.9624"/>
<g id="a_edge1&#45;headlabel"><a xlink:href="dir_000195_000027.html" target="_top" xlink:title="1">
<text text-anchor="middle" x="46.9507" y="-48.9012" font-family="Helvetica,sans-Serif" font-size="10.00" fill="#000000">1</text>
</a>
</g>
</g>
<!-- dir_051dca18e802f8e9474f2e30d29c04e0 -->
<g id="node3" class="node">
<title>dir_051dca18e802f8e9474f2e30d29c04e0</title>
<g id="a_node3"><a xlink:href="dir_051dca18e802f8e9474f2e30d29c04e0.html" target="_top" xlink:title="Detectors">
<polygon fill="none" stroke="#ff0000" points="99,-180 35,-180 35,-144 99,-144 99,-180"/>
<text text-anchor="middle" x="67" y="-159.5" font-family="Helvetica,sans-Serif" font-size="10.00" fill="#000000">Detectors</text>
</a>
</g>
</g>
<!-- dir_a4e4bab9cf6a2c7a75d5d137e4b1b41f&#45;&gt;dir_051dca18e802f8e9474f2e30d29c04e0 -->
<g id="edge2" class="edge">
<title>dir_a4e4bab9cf6a2c7a75d5d137e4b1b41f&#45;&gt;dir_051dca18e802f8e9474f2e30d29c04e0</title>
<path fill="none" stroke="#000000" d="M67,-215.8314C67,-208.131 67,-198.9743 67,-190.4166"/>
<polygon fill="#000000" stroke="#000000" points="70.5001,-190.4132 67,-180.4133 63.5001,-190.4133 70.5001,-190.4132"/>
<g id="a_edge2&#45;headlabel"><a xlink:href="dir_000195_000039.html" target="_top" xlink:title="5">
<text text-anchor="middle" x="73.3393" y="-191.5079" font-family="Helvetica,sans-Serif" font-size="10.00" fill="#000000">5</text>
</a>
</g>
</g>
<!-- dir_7924ba4398ae4560cd37376e44666c6d -->
<g id="node4" class="node">
<title>dir_7924ba4398ae4560cd37376e44666c6d</title>
<g id="a_node4"><a xlink:href="dir_7924ba4398ae4560cd37376e44666c6d.html" target="_top" xlink:title="common">
<polygon fill="none" stroke="#ff0000" points="143.5,-108 84.5,-108 84.5,-72 143.5,-72 143.5,-108"/>
<text text-anchor="middle" x="114" y="-87.5" font-family="Helvetica,sans-Serif" font-size="10.00" fill="#000000">common</text>
</a>
</g>
</g>
<!-- dir_a4e4bab9cf6a2c7a75d5d137e4b1b41f&#45;&gt;dir_7924ba4398ae4560cd37376e44666c6d -->
<g id="edge3" class="edge">
<title>dir_a4e4bab9cf6a2c7a75d5d137e4b1b41f&#45;&gt;dir_7924ba4398ae4560cd37376e44666c6d</title>
<path fill="none" stroke="#000000" d="M85.2289,-215.6734C93.7326,-205.9219 103.0507,-193.2298 108,-180 115.3502,-160.3526 116.651,-136.624 116.2207,-118.465"/>
<polygon fill="#000000" stroke="#000000" points="119.7071,-118.0693 115.7841,-108.2276 112.7135,-118.3677 119.7071,-118.0693"/>
<g id="a_edge3&#45;headlabel"><a xlink:href="dir_000195_000077.html" target="_top" xlink:title="5">
<text text-anchor="middle" x="122.6969" y="-119.0397" font-family="Helvetica,sans-Serif" font-size="10.00" fill="#000000">5</text>
</a>
</g>
</g>
<!-- dir_051dca18e802f8e9474f2e30d29c04e0&#45;&gt;dir_4ab6b4cc6a7edbff49100e9123df213f -->
<g id="edge4" class="edge">
<title>dir_051dca18e802f8e9474f2e30d29c04e0&#45;&gt;dir_4ab6b4cc6a7edbff49100e9123df213f</title>
<path fill="none" stroke="#000000" d="M65.6068,-143.7623C63.7306,-119.201 60.3731,-75.2474 58.1659,-46.3541"/>
<polygon fill="#000000" stroke="#000000" points="61.6334,-45.794 57.3818,-36.0896 54.6538,-46.3272 61.6334,-45.794"/>
<g id="a_edge4&#45;headlabel"><a xlink:href="dir_000039_000027.html" target="_top" xlink:title="260">
<text text-anchor="middle" x="64.7382" y="-46.6619" font-family="Helvetica,sans-Serif" font-size="10.00" fill="#000000">260</text>
</a>
</g>
</g>
<!-- dir_051dca18e802f8e9474f2e30d29c04e0&#45;&gt;dir_7924ba4398ae4560cd37376e44666c6d -->
<g id="edge5" class="edge">
<title>dir_051dca18e802f8e9474f2e30d29c04e0&#45;&gt;dir_7924ba4398ae4560cd37376e44666c6d</title>
<path fill="none" stroke="#000000" d="M78.8601,-143.8314C84.1629,-135.7079 90.5237,-125.9637 96.3673,-117.0118"/>
<polygon fill="#000000" stroke="#000000" points="99.4448,-118.7003 101.9802,-108.4133 93.5831,-114.8739 99.4448,-118.7003"/>
<g id="a_edge5&#45;headlabel"><a xlink:href="dir_000039_000077.html" target="_top" xlink:title="44">
<text text-anchor="middle" x="99.8575" y="-120.7623" font-family="Helvetica,sans-Serif" font-size="10.00" fill="#000000">44</text>
</a>
</g>
</g>
<!-- dir_7924ba4398ae4560cd37376e44666c6d&#45;&gt;dir_4ab6b4cc6a7edbff49100e9123df213f -->
<g id="edge6" class="edge">
<title>dir_7924ba4398ae4560cd37376e44666c6d&#45;&gt;dir_4ab6b4cc6a7edbff49100e9123df213f</title>
<path fill="none" stroke="#000000" d="M99.3642,-71.8314C92.6839,-63.5386 84.6432,-53.557 77.3096,-44.4533"/>
<polygon fill="#000000" stroke="#000000" points="79.8319,-42.0052 70.8329,-36.4133 74.3806,-46.3965 79.8319,-42.0052"/>
<g id="a_edge6&#45;headlabel"><a xlink:href="dir_000077_000027.html" target="_top" xlink:title="2">
<text text-anchor="middle" x="84.2979" y="-40.5233" font-family="Helvetica,sans-Serif" font-size="10.00" fill="#000000">2</text>
</a>
</g>
</g>
</g>
</svg>
