<?xml version="1.0" encoding="UTF-8" standalone="no"?>
<!DOCTYPE svg PUBLIC "-//W3C//DTD SVG 1.1//EN"
 "http://www.w3.org/Graphics/SVG/1.1/DTD/svg11.dtd">
<!-- Generated by graphviz version 2.40.1 (20161225.0304)
 -->
<!-- Title: /home/travis/build/AliceO2Group/AliceO2/Detectors/CPV/simulation/include/CPVSimulation Pages: 1 -->
<svg width="191pt" height="439pt"
 viewBox="0.00 0.00 191.27 439.00" xmlns="http://www.w3.org/2000/svg" xmlns:xlink="http://www.w3.org/1999/xlink">
<g id="graph0" class="graph" transform="scale(1 1) rotate(0) translate(4 435)">
<title>/home/travis/build/AliceO2Group/AliceO2/Detectors/CPV/simulation/include/CPVSimulation</title>
<g id="clust1" class="cluster">
<title>clusterdir_6293adb0b35b98834b78d8c1784ec891</title>
<g id="a_clust1"><a xlink:href="dir_6293adb0b35b98834b78d8c1784ec891.html" target="_top" xlink:title="include">
<polygon fill="#ddddee" stroke="#000000" points="24,-352 24,-423 128,-423 128,-352 24,-352"/>
<text text-anchor="middle" x="76" y="-411" font-family="Helvetica,sans-Serif" font-size="10.00" fill="#000000">include</text>
</a>
</g>
</g>
<!-- dir_d2bbbca0bb65e3ae1a07b25f4087480a -->
<g id="node1" class="node">
<title>dir_d2bbbca0bb65e3ae1a07b25f4087480a</title>
<g id="a_node1"><a xlink:href="dir_d2bbbca0bb65e3ae1a07b25f4087480a.html" target="_top" xlink:title="CPVSimulation">
<polygon fill="#eeeeff" stroke="#000000" points="120.5,-396 31.5,-396 31.5,-360 120.5,-360 120.5,-396"/>
<text text-anchor="middle" x="76" y="-375.5" font-family="Helvetica,sans-Serif" font-size="10.00" fill="#000000">CPVSimulation</text>
</a>
</g>
</g>
<!-- dir_09ac740ef76ce36f9a01e5a702df673a -->
<g id="node2" class="node">
<title>dir_09ac740ef76ce36f9a01e5a702df673a</title>
<g id="a_node2"><a xlink:href="dir_09ac740ef76ce36f9a01e5a702df673a.html" target="_top" xlink:title="calib">
<polygon fill="none" stroke="#ff0000" points="158,-324 104,-324 104,-288 158,-288 158,-324"/>
<text text-anchor="middle" x="131" y="-303.5" font-family="Helvetica,sans-Serif" font-size="10.00" fill="#000000">calib</text>
</a>
</g>
</g>
<!-- dir_d2bbbca0bb65e3ae1a07b25f4087480a&#45;&gt;dir_09ac740ef76ce36f9a01e5a702df673a -->
<g id="edge5" class="edge">
<title>dir_d2bbbca0bb65e3ae1a07b25f4087480a&#45;&gt;dir_09ac740ef76ce36f9a01e5a702df673a</title>
<path fill="none" stroke="#000000" d="M89.8788,-359.8314C96.2136,-351.5386 103.8384,-341.557 110.7926,-332.4533"/>
<polygon fill="#000000" stroke="#000000" points="113.6452,-334.4847 116.9343,-324.4133 108.0825,-330.2353 113.6452,-334.4847"/>
<g id="a_edge5&#45;headlabel"><a xlink:href="dir_000279_000340.html" target="_top" xlink:title="1">
<text text-anchor="middle" x="113.7195" y="-336.5647" font-family="Helvetica,sans-Serif" font-size="10.00" fill="#000000">1</text>
</a>
</g>
</g>
<!-- dir_4ab6b4cc6a7edbff49100e9123df213f -->
<g id="node3" class="node">
<title>dir_4ab6b4cc6a7edbff49100e9123df213f</title>
<g id="a_node3"><a xlink:href="dir_4ab6b4cc6a7edbff49100e9123df213f.html" target="_top" xlink:title="Common">
<polygon fill="none" stroke="#ff0000" points="89.5,-180 28.5,-180 28.5,-144 89.5,-144 89.5,-180"/>
<text text-anchor="middle" x="59" y="-159.5" font-family="Helvetica,sans-Serif" font-size="10.00" fill="#000000">Common</text>
</a>
</g>
</g>
<!-- dir_d2bbbca0bb65e3ae1a07b25f4087480a&#45;&gt;dir_4ab6b4cc6a7edbff49100e9123df213f -->
<g id="edge6" class="edge">
<title>dir_d2bbbca0bb65e3ae1a07b25f4087480a&#45;&gt;dir_4ab6b4cc6a7edbff49100e9123df213f</title>
<path fill="none" stroke="#000000" d="M74.5798,-359.9555C71.6173,-322.3144 64.7601,-235.1867 61.2135,-190.1246"/>
<polygon fill="#000000" stroke="#000000" points="64.702,-189.8396 60.4281,-180.1451 57.7236,-190.3889 64.702,-189.8396"/>
<g id="a_edge6&#45;headlabel"><a xlink:href="dir_000279_000027.html" target="_top" xlink:title="1">
<text text-anchor="middle" x="67.8145" y="-190.7004" font-family="Helvetica,sans-Serif" font-size="10.00" fill="#000000">1</text>
</a>
</g>
</g>
<!-- dir_37c90836491b695b472bf98d1be8336b -->
<g id="node4" class="node">
<title>dir_37c90836491b695b472bf98d1be8336b</title>
<g id="a_node4"><a xlink:href="dir_37c90836491b695b472bf98d1be8336b.html" target="_top" xlink:title="Base">
<polygon fill="none" stroke="#ff0000" points="120,-36 66,-36 66,0 120,0 120,-36"/>
<text text-anchor="middle" x="93" y="-15.5" font-family="Helvetica,sans-Serif" font-size="10.00" fill="#000000">Base</text>
</a>
</g>
</g>
<!-- dir_d2bbbca0bb65e3ae1a07b25f4087480a&#45;&gt;dir_37c90836491b695b472bf98d1be8336b -->
<g id="edge7" class="edge">
<title>dir_d2bbbca0bb65e3ae1a07b25f4087480a&#45;&gt;dir_37c90836491b695b472bf98d1be8336b</title>
<path fill="none" stroke="#000000" d="M58.7544,-359.6186C36.3312,-333.719 0,-284.0348 0,-234 0,-234 0,-234 0,-162 0,-114.1228 36.7266,-69.5525 64.0204,-43.04"/>
<polygon fill="#000000" stroke="#000000" points="66.5556,-45.4601 71.4302,-36.0532 61.7533,-40.3671 66.5556,-45.4601"/>
<g id="a_edge7&#45;headlabel"><a xlink:href="dir_000279_000274.html" target="_top" xlink:title="1">
<text text-anchor="middle" x="65.8881" y="-47.4918" font-family="Helvetica,sans-Serif" font-size="10.00" fill="#000000">1</text>
</a>
</g>
</g>
<!-- dir_9f065a6c27ad05d142739bd8f4136180 -->
<g id="node5" class="node">
<title>dir_9f065a6c27ad05d142739bd8f4136180</title>
<g id="a_node5"><a xlink:href="dir_9f065a6c27ad05d142739bd8f4136180.html" target="_top" xlink:title="base">
<polygon fill="none" stroke="#ff0000" points="154,-252 100,-252 100,-216 154,-216 154,-252"/>
<text text-anchor="middle" x="127" y="-231.5" font-family="Helvetica,sans-Serif" font-size="10.00" fill="#000000">base</text>
</a>
</g>
</g>
<!-- dir_d2bbbca0bb65e3ae1a07b25f4087480a&#45;&gt;dir_9f065a6c27ad05d142739bd8f4136180 -->
<g id="edge8" class="edge">
<title>dir_d2bbbca0bb65e3ae1a07b25f4087480a&#45;&gt;dir_9f065a6c27ad05d142739bd8f4136180</title>
<path fill="none" stroke="#000000" d="M78.0516,-359.9141C80.5579,-341.3775 85.6665,-311.9568 95,-288 98.6024,-278.7535 103.691,-269.2524 108.7526,-260.848"/>
<polygon fill="#000000" stroke="#000000" points="111.8142,-262.5538 114.1628,-252.2225 105.8842,-258.8342 111.8142,-262.5538"/>
<g id="a_edge8&#45;headlabel"><a xlink:href="dir_000279_000197.html" target="_top" xlink:title="3">
<text text-anchor="middle" x="112.3095" y="-264.6076" font-family="Helvetica,sans-Serif" font-size="10.00" fill="#000000">3</text>
</a>
</g>
</g>
<!-- dir_2171f7ec022c5423887b07c69b2f5b48 -->
<g id="node6" class="node">
<title>dir_2171f7ec022c5423887b07c69b2f5b48</title>
<g id="a_node6"><a xlink:href="dir_2171f7ec022c5423887b07c69b2f5b48.html" target="_top" xlink:title="DataFormats">
<polygon fill="none" stroke="#ff0000" points="167,-108 87,-108 87,-72 167,-72 167,-108"/>
<text text-anchor="middle" x="127" y="-87.5" font-family="Helvetica,sans-Serif" font-size="10.00" fill="#000000">DataFormats</text>
</a>
</g>
</g>
<!-- dir_d2bbbca0bb65e3ae1a07b25f4087480a&#45;&gt;dir_2171f7ec022c5423887b07c69b2f5b48 -->
<g id="edge9" class="edge">
<title>dir_d2bbbca0bb65e3ae1a07b25f4087480a&#45;&gt;dir_2171f7ec022c5423887b07c69b2f5b48</title>
<path fill="none" stroke="#000000" d="M120.8,-362.7076C138.4616,-354.226 156.91,-341.7203 167,-324 205.1734,-256.9592 166.1368,-162.8513 142.3919,-117.1018"/>
<polygon fill="#000000" stroke="#000000" points="145.385,-115.2765 137.5903,-108.1005 139.2088,-118.571 145.385,-115.2765"/>
<g id="a_edge9&#45;headlabel"><a xlink:href="dir_000279_000076.html" target="_top" xlink:title="3">
<text text-anchor="middle" x="149.5819" y="-114.6118" font-family="Helvetica,sans-Serif" font-size="10.00" fill="#000000">3</text>
</a>
</g>
</g>
<!-- dir_09ac740ef76ce36f9a01e5a702df673a&#45;&gt;dir_9f065a6c27ad05d142739bd8f4136180 -->
<g id="edge1" class="edge">
<title>dir_09ac740ef76ce36f9a01e5a702df673a&#45;&gt;dir_9f065a6c27ad05d142739bd8f4136180</title>
<path fill="none" stroke="#000000" d="M129.9906,-287.8314C129.5628,-280.131 129.0541,-270.9743 128.5787,-262.4166"/>
<polygon fill="#000000" stroke="#000000" points="132.0724,-262.2037 128.023,-252.4133 125.0831,-262.592 132.0724,-262.2037"/>
<g id="a_edge1&#45;headlabel"><a xlink:href="dir_000340_000197.html" target="_top" xlink:title="2">
<text text-anchor="middle" x="135.1066" y="-263.1353" font-family="Helvetica,sans-Serif" font-size="10.00" fill="#000000">2</text>
</a>
</g>
</g>
<!-- dir_4ab6b4cc6a7edbff49100e9123df213f&#45;&gt;dir_2171f7ec022c5423887b07c69b2f5b48 -->
<g id="edge2" class="edge">
<title>dir_4ab6b4cc6a7edbff49100e9123df213f&#45;&gt;dir_2171f7ec022c5423887b07c69b2f5b48</title>
<path fill="none" stroke="#000000" d="M70.2069,-143.8314C77.5015,-135.219 87.1788,-124.7851 96.5234,-115.4048"/>
<polygon fill="#000000" stroke="#000000" points="99.2141,-117.6679 103.8944,-108.1628 94.3082,-112.6746 99.2141,-117.6679"/>
<g id="a_edge2&#45;headlabel"><a xlink:href="dir_000027_000076.html" target="_top" xlink:title="2">
<text text-anchor="middle" x="98.6399" y="-119.7124" font-family="Helvetica,sans-Serif" font-size="10.00" fill="#000000">2</text>
</a>
</g>
</g>
<!-- dir_37c90836491b695b472bf98d1be8336b&#45;&gt;dir_4ab6b4cc6a7edbff49100e9123df213f -->
<g id="edge3" class="edge">
<title>dir_37c90836491b695b472bf98d1be8336b&#45;&gt;dir_4ab6b4cc6a7edbff49100e9123df213f</title>
<path fill="none" stroke="#000000" d="M87.5741,-36.4191C84.5874,-46.8227 80.9082,-60.0902 78,-72 72.9569,-92.6524 68.0208,-116.1634 64.4443,-133.975"/>
<polygon fill="#000000" stroke="#000000" points="60.9693,-133.5049 62.4547,-143.9951 67.8353,-134.8683 60.9693,-133.5049"/>
<g id="a_edge3&#45;headlabel"><a xlink:href="dir_000274_000027.html" target="_top" xlink:title="16">
<text text-anchor="middle" x="58.8844" y="-126.9262" font-family="Helvetica,sans-Serif" font-size="10.00" fill="#000000">16</text>
</a>
</g>
</g>
<!-- dir_37c90836491b695b472bf98d1be8336b&#45;&gt;dir_2171f7ec022c5423887b07c69b2f5b48 -->
<g id="edge4" class="edge">
<title>dir_37c90836491b695b472bf98d1be8336b&#45;&gt;dir_2171f7ec022c5423887b07c69b2f5b48</title>
<path fill="none" stroke="#000000" d="M107.6712,-36.4133C112.1576,-44.3141 116.7985,-53.7132 120.5579,-62.417"/>
<polygon fill="#000000" stroke="#000000" points="117.3734,-63.8778 124.3728,-71.8314 123.861,-61.2489 117.3734,-63.8778"/>
<g id="a_edge4&#45;headlabel"><a xlink:href="dir_000274_000076.html" target="_top" xlink:title="10">
<text text-anchor="middle" x="113.3921" y="-59.1125" font-family="Helvetica,sans-Serif" font-size="10.00" fill="#000000">10</text>
</a>
</g>
</g>
<!-- dir_9f065a6c27ad05d142739bd8f4136180&#45;&gt;dir_4ab6b4cc6a7edbff49100e9123df213f -->
<g id="edge10" class="edge">
<title>dir_9f065a6c27ad05d142739bd8f4136180&#45;&gt;dir_4ab6b4cc6a7edbff49100e9123df213f</title>
<path fill="none" stroke="#000000" d="M109.8407,-215.8314C101.8489,-207.3694 92.1962,-197.1489 83.4584,-187.8971"/>
<polygon fill="#000000" stroke="#000000" points="85.8011,-185.2802 76.3903,-180.4133 80.712,-190.0866 85.8011,-185.2802"/>
<g id="a_edge10&#45;headlabel"><a xlink:href="dir_000197_000027.html" target="_top" xlink:title="3">
<text text-anchor="middle" x="90.3334" y="-183.444" font-family="Helvetica,sans-Serif" font-size="10.00" fill="#000000">3</text>
</a>
</g>
</g>
<!-- dir_9f065a6c27ad05d142739bd8f4136180&#45;&gt;dir_2171f7ec022c5423887b07c69b2f5b48 -->
<g id="edge11" class="edge">
<title>dir_9f065a6c27ad05d142739bd8f4136180&#45;&gt;dir_2171f7ec022c5423887b07c69b2f5b48</title>
<path fill="none" stroke="#000000" d="M122.3268,-215.7623C119.867,-191.201 119.5923,-147.2474 121.5026,-118.3541"/>
<polygon fill="#000000" stroke="#000000" points="125.0152,-118.3416 122.3417,-108.0896 118.0385,-117.7712 125.0152,-118.3416"/>
<g id="a_edge11&#45;headlabel"><a xlink:href="dir_000197_000076.html" target="_top" xlink:title="1">
<text text-anchor="middle" x="127.5522" y="-119.6556" font-family="Helvetica,sans-Serif" font-size="10.00" fill="#000000">1</text>
</a>
</g>
</g>
<!-- dir_2171f7ec022c5423887b07c69b2f5b48&#45;&gt;dir_4ab6b4cc6a7edbff49100e9123df213f -->
<g id="edge12" class="edge">
<title>dir_2171f7ec022c5423887b07c69b2f5b48&#45;&gt;dir_4ab6b4cc6a7edbff49100e9123df213f</title>
<path fill="none" stroke="#000000" d="M115.5857,-108.4133C108.3024,-116.9938 98.6978,-127.3414 89.4257,-136.6463"/>
<polygon fill="#000000" stroke="#000000" points="86.7926,-134.3266 82.1117,-143.8314 91.6981,-139.3202 86.7926,-134.3266"/>
<g id="a_edge12&#45;headlabel"><a xlink:href="dir_000076_000027.html" target="_top" xlink:title="34">
<text text-anchor="middle" x="87.3671" y="-127.2822" font-family="Helvetica,sans-Serif" font-size="10.00" fill="#000000">34</text>
</a>
</g>
</g>
<!-- dir_2171f7ec022c5423887b07c69b2f5b48&#45;&gt;dir_37c90836491b695b472bf98d1be8336b -->
<g id="edge13" class="edge">
<title>dir_2171f7ec022c5423887b07c69b2f5b48&#45;&gt;dir_37c90836491b695b472bf98d1be8336b</title>
<path fill="none" stroke="#000000" d="M112.468,-71.8314C107.9848,-63.9617 103.3365,-54.5712 99.559,-45.8533"/>
<polygon fill="#000000" stroke="#000000" points="102.7291,-44.3575 95.7191,-36.4133 96.245,-46.9951 102.7291,-44.3575"/>
<g id="a_edge13&#45;headlabel"><a xlink:href="dir_000076_000274.html" target="_top" xlink:title="1">
<text text-anchor="middle" x="106.7134" y="-44.1175" font-family="Helvetica,sans-Serif" font-size="10.00" fill="#000000">1</text>
</a>
</g>
</g>
<!-- dir_2171f7ec022c5423887b07c69b2f5b48&#45;&gt;dir_9f065a6c27ad05d142739bd8f4136180 -->
<g id="edge14" class="edge">
<title>dir_2171f7ec022c5423887b07c69b2f5b48&#45;&gt;dir_9f065a6c27ad05d142739bd8f4136180</title>
<path fill="none" stroke="#000000" d="M131.6583,-108.0896C134.1269,-132.5727 134.4104,-176.5174 132.5089,-205.4713"/>
<polygon fill="#000000" stroke="#000000" points="128.9942,-205.5118 131.6732,-215.7623 135.9712,-206.0785 128.9942,-205.5118"/>
<g id="a_edge14&#45;headlabel"><a xlink:href="dir_000076_000197.html" target="_top" xlink:title="3">
<text text-anchor="middle" x="126.4551" y="-199.1992" font-family="Helvetica,sans-Serif" font-size="10.00" fill="#000000">3</text>
</a>
</g>
</g>
</g>
</svg>
