<?xml version="1.0" encoding="UTF-8" standalone="no"?>
<!DOCTYPE svg PUBLIC "-//W3C//DTD SVG 1.1//EN"
 "http://www.w3.org/Graphics/SVG/1.1/DTD/svg11.dtd">
<!-- Generated by graphviz version 2.40.1 (20161225.0304)
 -->
<!-- Title: /home/travis/build/AliceO2Group/AliceO2/Detectors/TRD/workflow/src Pages: 1 -->
<svg width="618pt" height="655pt"
 viewBox="0.00 0.00 618.00 655.00" xmlns="http://www.w3.org/2000/svg" xmlns:xlink="http://www.w3.org/1999/xlink">
<g id="graph0" class="graph" transform="scale(1 1) rotate(0) translate(4 651)">
<title>/home/travis/build/AliceO2Group/AliceO2/Detectors/TRD/workflow/src</title>
<g id="clust1" class="cluster">
<title>clusterdir_184e1d06e85fb151746c3bdf717cc8ad</title>
<g id="a_clust1"><a xlink:href="dir_184e1d06e85fb151746c3bdf717cc8ad.html" target="_top" xlink:title="workflow">
<polygon fill="#ddddee" stroke="#000000" points="233,-568 233,-639 303,-639 303,-568 233,-568"/>
<text text-anchor="middle" x="268" y="-627" font-family="Helvetica,sans-Serif" font-size="10.00" fill="#000000">workflow</text>
</a>
</g>
</g>
<!-- dir_19cbc61730528058d9acd8ae2ca70332 -->
<g id="node1" class="node">
<title>dir_19cbc61730528058d9acd8ae2ca70332</title>
<g id="a_node1"><a xlink:href="dir_19cbc61730528058d9acd8ae2ca70332.html" target="_top" xlink:title="src">
<polygon fill="#eeeeff" stroke="#000000" points="295,-612 241,-612 241,-576 295,-576 295,-612"/>
<text text-anchor="middle" x="268" y="-591.5" font-family="Helvetica,sans-Serif" font-size="10.00" fill="#000000">src</text>
</a>
</g>
</g>
<!-- dir_40b4a122691869ee86baf7f2711ed718 -->
<g id="node2" class="node">
<title>dir_40b4a122691869ee86baf7f2711ed718</title>
<g id="a_node2"><a xlink:href="dir_40b4a122691869ee86baf7f2711ed718.html" target="_top" xlink:title="Steer">
<polygon fill="none" stroke="#ff0000" points="409,-540 355,-540 355,-504 409,-504 409,-540"/>
<text text-anchor="middle" x="382" y="-519.5" font-family="Helvetica,sans-Serif" font-size="10.00" fill="#000000">Steer</text>
</a>
</g>
</g>
<!-- dir_19cbc61730528058d9acd8ae2ca70332&#45;&gt;dir_40b4a122691869ee86baf7f2711ed718 -->
<g id="edge16" class="edge">
<title>dir_19cbc61730528058d9acd8ae2ca70332&#45;&gt;dir_40b4a122691869ee86baf7f2711ed718</title>
<path fill="none" stroke="#000000" d="M295.0164,-576.937C310.2384,-567.3231 329.4485,-555.1904 345.9417,-544.7737"/>
<polygon fill="#000000" stroke="#000000" points="348.1965,-547.4892 354.7824,-539.19 344.4586,-541.5708 348.1965,-547.4892"/>
<g id="a_edge16&#45;headlabel"><a xlink:href="dir_000612_000708.html" target="_top" xlink:title="3">
<text text-anchor="middle" x="346.6735" y="-549.3092" font-family="Helvetica,sans-Serif" font-size="10.00" fill="#000000">3</text>
</a>
</g>
</g>
<!-- dir_4ab6b4cc6a7edbff49100e9123df213f -->
<g id="node3" class="node">
<title>dir_4ab6b4cc6a7edbff49100e9123df213f</title>
<g id="a_node3"><a xlink:href="dir_4ab6b4cc6a7edbff49100e9123df213f.html" target="_top" xlink:title="Common">
<polygon fill="none" stroke="#ff0000" points="353.5,-252 292.5,-252 292.5,-216 353.5,-216 353.5,-252"/>
<text text-anchor="middle" x="323" y="-231.5" font-family="Helvetica,sans-Serif" font-size="10.00" fill="#000000">Common</text>
</a>
</g>
</g>
<!-- dir_19cbc61730528058d9acd8ae2ca70332&#45;&gt;dir_4ab6b4cc6a7edbff49100e9123df213f -->
<g id="edge17" class="edge">
<title>dir_19cbc61730528058d9acd8ae2ca70332&#45;&gt;dir_4ab6b4cc6a7edbff49100e9123df213f</title>
<path fill="none" stroke="#000000" d="M270.0896,-575.9868C273.618,-546.0447 281.144,-484.1619 289,-432 298.1398,-371.3139 310.7779,-300.5106 317.7875,-262.1675"/>
<polygon fill="#000000" stroke="#000000" points="321.2451,-262.7164 319.6077,-252.2489 314.3601,-261.4529 321.2451,-262.7164"/>
<g id="a_edge17&#45;headlabel"><a xlink:href="dir_000612_000027.html" target="_top" xlink:title="1">
<text text-anchor="middle" x="323.389" y="-264.2645" font-family="Helvetica,sans-Serif" font-size="10.00" fill="#000000">1</text>
</a>
</g>
</g>
<!-- dir_37c90836491b695b472bf98d1be8336b -->
<g id="node4" class="node">
<title>dir_37c90836491b695b472bf98d1be8336b</title>
<g id="a_node4"><a xlink:href="dir_37c90836491b695b472bf98d1be8336b.html" target="_top" xlink:title="Base">
<polygon fill="none" stroke="#ff0000" points="179,-36 125,-36 125,0 179,0 179,-36"/>
<text text-anchor="middle" x="152" y="-15.5" font-family="Helvetica,sans-Serif" font-size="10.00" fill="#000000">Base</text>
</a>
</g>
</g>
<!-- dir_19cbc61730528058d9acd8ae2ca70332&#45;&gt;dir_37c90836491b695b472bf98d1be8336b -->
<g id="edge18" class="edge">
<title>dir_19cbc61730528058d9acd8ae2ca70332&#45;&gt;dir_37c90836491b695b472bf98d1be8336b</title>
<path fill="none" stroke="#000000" d="M240.8279,-592.0715C172.6945,-585.6146 0,-558.5428 0,-450 0,-450 0,-450 0,-162 0,-98.5382 70.6908,-54.6632 115.6556,-33.1743"/>
<polygon fill="#000000" stroke="#000000" points="117.2208,-36.3066 124.8254,-28.9296 114.2803,-29.9542 117.2208,-36.3066"/>
<g id="a_edge18&#45;headlabel"><a xlink:href="dir_000612_000274.html" target="_top" xlink:title="4">
<text text-anchor="middle" x="115.1514" y="-37.8932" font-family="Helvetica,sans-Serif" font-size="10.00" fill="#000000">4</text>
</a>
</g>
</g>
<!-- dir_8ba487e25de5ee77e05e9dce7582cb98 -->
<g id="node5" class="node">
<title>dir_8ba487e25de5ee77e05e9dce7582cb98</title>
<g id="a_node5"><a xlink:href="dir_8ba487e25de5ee77e05e9dce7582cb98.html" target="_top" xlink:title="Algorithm">
<polygon fill="none" stroke="#ff0000" points="466.5,-36 401.5,-36 401.5,0 466.5,0 466.5,-36"/>
<text text-anchor="middle" x="434" y="-15.5" font-family="Helvetica,sans-Serif" font-size="10.00" fill="#000000">Algorithm</text>
</a>
</g>
</g>
<!-- dir_19cbc61730528058d9acd8ae2ca70332&#45;&gt;dir_8ba487e25de5ee77e05e9dce7582cb98 -->
<g id="edge19" class="edge">
<title>dir_19cbc61730528058d9acd8ae2ca70332&#45;&gt;dir_8ba487e25de5ee77e05e9dce7582cb98</title>
<path fill="none" stroke="#000000" d="M295.122,-588.6939C376.0123,-572.101 610,-518.2084 610,-450 610,-450 610,-450 610,-162 610,-93.1994 528.4412,-51.339 476.3637,-31.6229"/>
<polygon fill="#000000" stroke="#000000" points="477.2856,-28.2333 466.6918,-28.0855 474.8811,-34.8074 477.2856,-28.2333"/>
<g id="a_edge19&#45;headlabel"><a xlink:href="dir_000612_000000.html" target="_top" xlink:title="1">
<text text-anchor="middle" x="481.6367" y="-24.3015" font-family="Helvetica,sans-Serif" font-size="10.00" fill="#000000">1</text>
</a>
</g>
</g>
<!-- dir_09bf7f7c4011a5ccc426492db4dd0891 -->
<g id="node6" class="node">
<title>dir_09bf7f7c4011a5ccc426492db4dd0891</title>
<g id="a_node6"><a xlink:href="dir_09bf7f7c4011a5ccc426492db4dd0891.html" target="_top" xlink:title="base">
<polygon fill="none" stroke="#ff0000" points="278,-324 224,-324 224,-288 278,-288 278,-324"/>
<text text-anchor="middle" x="251" y="-303.5" font-family="Helvetica,sans-Serif" font-size="10.00" fill="#000000">base</text>
</a>
</g>
</g>
<!-- dir_19cbc61730528058d9acd8ae2ca70332&#45;&gt;dir_09bf7f7c4011a5ccc426492db4dd0891 -->
<g id="edge20" class="edge">
<title>dir_19cbc61730528058d9acd8ae2ca70332&#45;&gt;dir_09bf7f7c4011a5ccc426492db4dd0891</title>
<path fill="none" stroke="#000000" d="M262.0902,-575.7241C259.038,-565.3653 255.6212,-552.0949 254,-540 244.1228,-466.3123 246.8334,-378.4063 249.1828,-334.2602"/>
<polygon fill="#000000" stroke="#000000" points="252.692,-334.1971 249.7645,-324.0147 245.7032,-333.8003 252.692,-334.1971"/>
<g id="a_edge20&#45;headlabel"><a xlink:href="dir_000612_000141.html" target="_top" xlink:title="10">
<text text-anchor="middle" x="255.323" y="-335.4468" font-family="Helvetica,sans-Serif" font-size="10.00" fill="#000000">10</text>
</a>
</g>
</g>
<!-- dir_bcbb2cf9a3d3d83e5515c82071a07177 -->
<g id="node7" class="node">
<title>dir_bcbb2cf9a3d3d83e5515c82071a07177</title>
<g id="a_node7"><a xlink:href="dir_bcbb2cf9a3d3d83e5515c82071a07177.html" target="_top" xlink:title="Framework">
<polygon fill="none" stroke="#ff0000" points="469.5,-180 398.5,-180 398.5,-144 469.5,-144 469.5,-180"/>
<text text-anchor="middle" x="434" y="-159.5" font-family="Helvetica,sans-Serif" font-size="10.00" fill="#000000">Framework</text>
</a>
</g>
</g>
<!-- dir_19cbc61730528058d9acd8ae2ca70332&#45;&gt;dir_bcbb2cf9a3d3d83e5515c82071a07177 -->
<g id="edge21" class="edge">
<title>dir_19cbc61730528058d9acd8ae2ca70332&#45;&gt;dir_bcbb2cf9a3d3d83e5515c82071a07177</title>
<path fill="none" stroke="#000000" d="M295.0386,-588.9899C326.8158,-582.0929 380.0219,-567.3058 418,-540 451.1378,-516.1743 461.5886,-506.5475 475,-468 511.8381,-362.1187 498.0793,-322.8012 464,-216 461.0312,-206.6961 456.3785,-197.1785 451.6156,-188.7765"/>
<polygon fill="#000000" stroke="#000000" points="454.6058,-186.9571 446.4785,-180.1602 448.5933,-190.5418 454.6058,-186.9571"/>
<g id="a_edge21&#45;headlabel"><a xlink:href="dir_000612_000013.html" target="_top" xlink:title="30">
<text text-anchor="middle" x="458.8852" y="-186.0906" font-family="Helvetica,sans-Serif" font-size="10.00" fill="#000000">30</text>
</a>
</g>
</g>
<!-- dir_5cb2a8e9fdbe67a11efb4176f60bf3d6 -->
<g id="node8" class="node">
<title>dir_5cb2a8e9fdbe67a11efb4176f60bf3d6</title>
<g id="a_node8"><a xlink:href="dir_5cb2a8e9fdbe67a11efb4176f60bf3d6.html" target="_top" xlink:title="simulation">
<polygon fill="none" stroke="#ff0000" points="202,-396 134,-396 134,-360 202,-360 202,-396"/>
<text text-anchor="middle" x="168" y="-375.5" font-family="Helvetica,sans-Serif" font-size="10.00" fill="#000000">simulation</text>
</a>
</g>
</g>
<!-- dir_19cbc61730528058d9acd8ae2ca70332&#45;&gt;dir_5cb2a8e9fdbe67a11efb4176f60bf3d6 -->
<g id="edge22" class="edge">
<title>dir_19cbc61730528058d9acd8ae2ca70332&#45;&gt;dir_5cb2a8e9fdbe67a11efb4176f60bf3d6</title>
<path fill="none" stroke="#000000" d="M246.2197,-575.8994C235.7759,-566.2055 223.859,-553.4967 216,-540 190.9601,-496.9973 178.0284,-439.85 172.1532,-406.1873"/>
<polygon fill="#000000" stroke="#000000" points="175.5745,-405.4243 170.4871,-396.1308 168.6687,-406.5684 175.5745,-405.4243"/>
<g id="a_edge22&#45;headlabel"><a xlink:href="dir_000612_000305.html" target="_top" xlink:title="8">
<text text-anchor="middle" x="178.963" y="-406.0065" font-family="Helvetica,sans-Serif" font-size="10.00" fill="#000000">8</text>
</a>
</g>
</g>
<!-- dir_2171f7ec022c5423887b07c69b2f5b48 -->
<g id="node9" class="node">
<title>dir_2171f7ec022c5423887b07c69b2f5b48</title>
<g id="a_node9"><a xlink:href="dir_2171f7ec022c5423887b07c69b2f5b48.html" target="_top" xlink:title="DataFormats">
<polygon fill="none" stroke="#ff0000" points="363,-108 283,-108 283,-72 363,-72 363,-108"/>
<text text-anchor="middle" x="323" y="-87.5" font-family="Helvetica,sans-Serif" font-size="10.00" fill="#000000">DataFormats</text>
</a>
</g>
</g>
<!-- dir_19cbc61730528058d9acd8ae2ca70332&#45;&gt;dir_2171f7ec022c5423887b07c69b2f5b48 -->
<g id="edge23" class="edge">
<title>dir_19cbc61730528058d9acd8ae2ca70332&#45;&gt;dir_2171f7ec022c5423887b07c69b2f5b48</title>
<path fill="none" stroke="#000000" d="M240.8175,-578.4148C225.8589,-568.8103 207.793,-555.4001 195,-540 140.1511,-473.9735 104.1366,-443.2624 125,-360 151.7984,-253.0519 171.378,-224.2332 247,-144 257.6437,-132.7072 270.9748,-122.299 283.4873,-113.6967"/>
<polygon fill="#000000" stroke="#000000" points="285.5945,-116.4985 291.9761,-108.0411 281.7133,-110.673 285.5945,-116.4985"/>
<g id="a_edge23&#45;headlabel"><a xlink:href="dir_000612_000076.html" target="_top" xlink:title="20">
<text text-anchor="middle" x="284.1773" y="-118.3544" font-family="Helvetica,sans-Serif" font-size="10.00" fill="#000000">20</text>
</a>
</g>
</g>
<!-- dir_11da180be91271a1ebdaa9322b1ad99a -->
<g id="node10" class="node">
<title>dir_11da180be91271a1ebdaa9322b1ad99a</title>
<g id="a_node10"><a xlink:href="dir_11da180be91271a1ebdaa9322b1ad99a.html" target="_top" xlink:title="include">
<polygon fill="none" stroke="#ff0000" points="352,-468 298,-468 298,-432 352,-432 352,-468"/>
<text text-anchor="middle" x="325" y="-447.5" font-family="Helvetica,sans-Serif" font-size="10.00" fill="#000000">include</text>
</a>
</g>
</g>
<!-- dir_19cbc61730528058d9acd8ae2ca70332&#45;&gt;dir_11da180be91271a1ebdaa9322b1ad99a -->
<g id="edge24" class="edge">
<title>dir_19cbc61730528058d9acd8ae2ca70332&#45;&gt;dir_11da180be91271a1ebdaa9322b1ad99a</title>
<path fill="none" stroke="#000000" d="M275.2191,-575.7623C285.0269,-550.9846 302.6467,-506.4714 314.0774,-477.5939"/>
<polygon fill="#000000" stroke="#000000" points="317.4133,-478.6759 317.8395,-468.0896 310.9047,-476.0995 317.4133,-478.6759"/>
<g id="a_edge24&#45;headlabel"><a xlink:href="dir_000612_000610.html" target="_top" xlink:title="8">
<text text-anchor="middle" x="318.7303" y="-480.5631" font-family="Helvetica,sans-Serif" font-size="10.00" fill="#000000">8</text>
</a>
</g>
</g>
<!-- dir_40b4a122691869ee86baf7f2711ed718&#45;&gt;dir_4ab6b4cc6a7edbff49100e9123df213f -->
<g id="edge1" class="edge">
<title>dir_40b4a122691869ee86baf7f2711ed718&#45;&gt;dir_4ab6b4cc6a7edbff49100e9123df213f</title>
<path fill="none" stroke="#000000" d="M378.3093,-503.9843C368.3345,-455.2939 340.7812,-320.7961 328.7479,-262.0573"/>
<polygon fill="#000000" stroke="#000000" points="332.1251,-261.103 326.6893,-252.0089 325.2675,-262.5079 332.1251,-261.103"/>
<g id="a_edge1&#45;headlabel"><a xlink:href="dir_000708_000027.html" target="_top" xlink:title="10">
<text text-anchor="middle" x="335.628" y="-261.5547" font-family="Helvetica,sans-Serif" font-size="10.00" fill="#000000">10</text>
</a>
</g>
</g>
<!-- dir_40b4a122691869ee86baf7f2711ed718&#45;&gt;dir_37c90836491b695b472bf98d1be8336b -->
<g id="edge2" class="edge">
<title>dir_40b4a122691869ee86baf7f2711ed718&#45;&gt;dir_37c90836491b695b472bf98d1be8336b</title>
<path fill="none" stroke="#000000" d="M354.7567,-518.1005C299.8022,-508.6008 176.5274,-478.6495 125,-396 54.4804,-282.8873 112.4906,-112.061 139.7603,-45.7156"/>
<polygon fill="#000000" stroke="#000000" points="143.0501,-46.9212 143.6954,-36.346 136.5962,-44.2106 143.0501,-46.9212"/>
<g id="a_edge2&#45;headlabel"><a xlink:href="dir_000708_000274.html" target="_top" xlink:title="17">
<text text-anchor="middle" x="144.276" y="-48.8348" font-family="Helvetica,sans-Serif" font-size="10.00" fill="#000000">17</text>
</a>
</g>
</g>
<!-- dir_40b4a122691869ee86baf7f2711ed718&#45;&gt;dir_8ba487e25de5ee77e05e9dce7582cb98 -->
<g id="edge3" class="edge">
<title>dir_40b4a122691869ee86baf7f2711ed718&#45;&gt;dir_8ba487e25de5ee77e05e9dce7582cb98</title>
<path fill="none" stroke="#000000" d="M409.3316,-506.5907C435.803,-491.5959 472.3379,-470.6846 475,-468 554.2713,-388.0586 572,-346.5814 572,-234 572,-234 572,-234 572,-162 572,-105.6641 516.2623,-62.7733 475.6327,-38.9919"/>
<polygon fill="#000000" stroke="#000000" points="477.1289,-35.8168 466.7041,-33.9265 473.6748,-41.9052 477.1289,-35.8168"/>
<g id="a_edge3&#45;headlabel"><a xlink:href="dir_000708_000000.html" target="_top" xlink:title="1">
<text text-anchor="middle" x="481.6564" y="-32.6209" font-family="Helvetica,sans-Serif" font-size="10.00" fill="#000000">1</text>
</a>
</g>
</g>
<!-- dir_40b4a122691869ee86baf7f2711ed718&#45;&gt;dir_bcbb2cf9a3d3d83e5515c82071a07177 -->
<g id="edge4" class="edge">
<title>dir_40b4a122691869ee86baf7f2711ed718&#45;&gt;dir_bcbb2cf9a3d3d83e5515c82071a07177</title>
<path fill="none" stroke="#000000" d="M399.2456,-503.6186C421.6688,-477.719 458,-428.0348 458,-378 458,-378 458,-378 458,-306 458,-265.1433 448.4835,-218.6424 441.4355,-189.8061"/>
<polygon fill="#000000" stroke="#000000" points="444.8085,-188.8675 438.9728,-180.0247 438.0204,-190.5766 444.8085,-188.8675"/>
<g id="a_edge4&#45;headlabel"><a xlink:href="dir_000708_000013.html" target="_top" xlink:title="153">
<text text-anchor="middle" x="448.4394" y="-189.1601" font-family="Helvetica,sans-Serif" font-size="10.00" fill="#000000">153</text>
</a>
</g>
</g>
<!-- dir_40b4a122691869ee86baf7f2711ed718&#45;&gt;dir_2171f7ec022c5423887b07c69b2f5b48 -->
<g id="edge5" class="edge">
<title>dir_40b4a122691869ee86baf7f2711ed718&#45;&gt;dir_2171f7ec022c5423887b07c69b2f5b48</title>
<path fill="none" stroke="#000000" d="M409.2766,-506.1097C423.2931,-496.6693 439.5731,-483.515 450,-468 530.6432,-348.005 562.8595,-261.7698 479,-144 466.3683,-126.2605 413.7596,-110.5529 373.0885,-100.7162"/>
<polygon fill="#000000" stroke="#000000" points="373.8375,-97.2969 363.3008,-98.4049 372.2287,-104.1095 373.8375,-97.2969"/>
<g id="a_edge5&#45;headlabel"><a xlink:href="dir_000708_000076.html" target="_top" xlink:title="149">
<text text-anchor="middle" x="377.9884" y="-92.8597" font-family="Helvetica,sans-Serif" font-size="10.00" fill="#000000">149</text>
</a>
</g>
</g>
<!-- dir_40b4a122691869ee86baf7f2711ed718&#45;&gt;dir_11da180be91271a1ebdaa9322b1ad99a -->
<g id="edge6" class="edge">
<title>dir_40b4a122691869ee86baf7f2711ed718&#45;&gt;dir_11da180be91271a1ebdaa9322b1ad99a</title>
<path fill="none" stroke="#000000" d="M367.6165,-503.8314C361.0514,-495.5386 353.1493,-485.557 345.9422,-476.4533"/>
<polygon fill="#000000" stroke="#000000" points="348.5284,-474.0813 339.5772,-468.4133 343.0401,-478.4262 348.5284,-474.0813"/>
<g id="a_edge6&#45;headlabel"><a xlink:href="dir_000708_000610.html" target="_top" xlink:title="4">
<text text-anchor="middle" x="352.9857" y="-472.6373" font-family="Helvetica,sans-Serif" font-size="10.00" fill="#000000">4</text>
</a>
</g>
</g>
<!-- dir_4ab6b4cc6a7edbff49100e9123df213f&#45;&gt;dir_bcbb2cf9a3d3d83e5515c82071a07177 -->
<g id="edge7" class="edge">
<title>dir_4ab6b4cc6a7edbff49100e9123df213f&#45;&gt;dir_bcbb2cf9a3d3d83e5515c82071a07177</title>
<path fill="none" stroke="#000000" d="M345.0576,-215.8314C358.3577,-206.6221 375.6261,-195.3301 391.4435,-185.4706"/>
<polygon fill="#000000" stroke="#000000" points="393.3741,-188.3921 400.0471,-180.1628 389.6987,-182.4346 393.3741,-188.3921"/>
<g id="a_edge7&#45;headlabel"><a xlink:href="dir_000027_000013.html" target="_top" xlink:title="2">
<text text-anchor="middle" x="391.8055" y="-190.1958" font-family="Helvetica,sans-Serif" font-size="10.00" fill="#000000">2</text>
</a>
</g>
</g>
<!-- dir_4ab6b4cc6a7edbff49100e9123df213f&#45;&gt;dir_2171f7ec022c5423887b07c69b2f5b48 -->
<g id="edge8" class="edge">
<title>dir_4ab6b4cc6a7edbff49100e9123df213f&#45;&gt;dir_2171f7ec022c5423887b07c69b2f5b48</title>
<path fill="none" stroke="#000000" d="M318.3268,-215.7623C315.867,-191.201 315.5923,-147.2474 317.5026,-118.3541"/>
<polygon fill="#000000" stroke="#000000" points="321.0152,-118.3416 318.3417,-108.0896 314.0385,-117.7712 321.0152,-118.3416"/>
<g id="a_edge8&#45;headlabel"><a xlink:href="dir_000027_000076.html" target="_top" xlink:title="2">
<text text-anchor="middle" x="323.5522" y="-119.6556" font-family="Helvetica,sans-Serif" font-size="10.00" fill="#000000">2</text>
</a>
</g>
</g>
<!-- dir_37c90836491b695b472bf98d1be8336b&#45;&gt;dir_4ab6b4cc6a7edbff49100e9123df213f -->
<g id="edge9" class="edge">
<title>dir_37c90836491b695b472bf98d1be8336b&#45;&gt;dir_4ab6b4cc6a7edbff49100e9123df213f</title>
<path fill="none" stroke="#000000" d="M166.3648,-36.1451C196.6748,-74.4313 267.2609,-163.5927 302.3856,-207.9608"/>
<polygon fill="#000000" stroke="#000000" points="299.7635,-210.2875 308.7148,-215.9555 305.2519,-205.9425 299.7635,-210.2875"/>
<g id="a_edge9&#45;headlabel"><a xlink:href="dir_000274_000027.html" target="_top" xlink:title="16">
<text text-anchor="middle" x="295.3063" y="-206.7315" font-family="Helvetica,sans-Serif" font-size="10.00" fill="#000000">16</text>
</a>
</g>
</g>
<!-- dir_37c90836491b695b472bf98d1be8336b&#45;&gt;dir_bcbb2cf9a3d3d83e5515c82071a07177 -->
<g id="edge10" class="edge">
<title>dir_37c90836491b695b472bf98d1be8336b&#45;&gt;dir_bcbb2cf9a3d3d83e5515c82071a07177</title>
<path fill="none" stroke="#000000" d="M179.3367,-22.2194C231.0183,-30.5947 340.685,-50.3858 372,-72 394.6471,-87.6314 411.5329,-114.4374 421.9166,-134.7396"/>
<polygon fill="#000000" stroke="#000000" points="418.822,-136.3787 426.3579,-143.8259 425.1109,-133.3047 418.822,-136.3787"/>
<g id="a_edge10&#45;headlabel"><a xlink:href="dir_000274_000013.html" target="_top" xlink:title="1">
<text text-anchor="middle" x="414.6926" y="-131.896" font-family="Helvetica,sans-Serif" font-size="10.00" fill="#000000">1</text>
</a>
</g>
</g>
<!-- dir_37c90836491b695b472bf98d1be8336b&#45;&gt;dir_2171f7ec022c5423887b07c69b2f5b48 -->
<g id="edge11" class="edge">
<title>dir_37c90836491b695b472bf98d1be8336b&#45;&gt;dir_2171f7ec022c5423887b07c69b2f5b48</title>
<path fill="none" stroke="#000000" d="M179.1756,-27.4474C205.3515,-37.6348 245.2383,-54.211 276.4268,-67.7407"/>
<polygon fill="#000000" stroke="#000000" points="275.2366,-71.0401 285.8019,-71.8314 278.0361,-64.6242 275.2366,-71.0401"/>
<g id="a_edge11&#45;headlabel"><a xlink:href="dir_000274_000076.html" target="_top" xlink:title="10">
<text text-anchor="middle" x="270.8065" y="-69.7049" font-family="Helvetica,sans-Serif" font-size="10.00" fill="#000000">10</text>
</a>
</g>
</g>
<!-- dir_8ba487e25de5ee77e05e9dce7582cb98&#45;&gt;dir_2171f7ec022c5423887b07c69b2f5b48 -->
<g id="edge12" class="edge">
<title>dir_8ba487e25de5ee77e05e9dce7582cb98&#45;&gt;dir_2171f7ec022c5423887b07c69b2f5b48</title>
<path fill="none" stroke="#000000" d="M411.9508,-36.1628C398.6524,-45.3712 381.3845,-56.6631 365.5665,-66.5232"/>
<polygon fill="#000000" stroke="#000000" points="363.6354,-63.602 356.9624,-71.8314 367.3108,-69.5595 363.6354,-63.602"/>
<g id="a_edge12&#45;headlabel"><a xlink:href="dir_000000_000076.html" target="_top" xlink:title="8">
<text text-anchor="middle" x="365.2039" y="-56.7983" font-family="Helvetica,sans-Serif" font-size="10.00" fill="#000000">8</text>
</a>
</g>
</g>
<!-- dir_09bf7f7c4011a5ccc426492db4dd0891&#45;&gt;dir_4ab6b4cc6a7edbff49100e9123df213f -->
<g id="edge13" class="edge">
<title>dir_09bf7f7c4011a5ccc426492db4dd0891&#45;&gt;dir_4ab6b4cc6a7edbff49100e9123df213f</title>
<path fill="none" stroke="#000000" d="M269.1686,-287.8314C277.7152,-279.2848 288.0557,-268.9443 297.3802,-259.6198"/>
<polygon fill="#000000" stroke="#000000" points="299.9905,-261.9592 304.5867,-252.4133 295.0408,-257.0095 299.9905,-261.9592"/>
<g id="a_edge13&#45;headlabel"><a xlink:href="dir_000141_000027.html" target="_top" xlink:title="3">
<text text-anchor="middle" x="299.4564" y="-264.0087" font-family="Helvetica,sans-Serif" font-size="10.00" fill="#000000">3</text>
</a>
</g>
</g>
<!-- dir_09bf7f7c4011a5ccc426492db4dd0891&#45;&gt;dir_37c90836491b695b472bf98d1be8336b -->
<g id="edge14" class="edge">
<title>dir_09bf7f7c4011a5ccc426492db4dd0891&#45;&gt;dir_37c90836491b695b472bf98d1be8336b</title>
<path fill="none" stroke="#000000" d="M244.8071,-287.9843C228.0351,-239.1929 181.6442,-104.2377 161.5194,-45.6927"/>
<polygon fill="#000000" stroke="#000000" points="164.7513,-44.3279 158.1906,-36.0089 158.1315,-46.6036 164.7513,-44.3279"/>
<g id="a_edge14&#45;headlabel"><a xlink:href="dir_000141_000274.html" target="_top" xlink:title="2">
<text text-anchor="middle" x="168.6049" y="-44.3044" font-family="Helvetica,sans-Serif" font-size="10.00" fill="#000000">2</text>
</a>
</g>
</g>
<!-- dir_09bf7f7c4011a5ccc426492db4dd0891&#45;&gt;dir_2171f7ec022c5423887b07c69b2f5b48 -->
<g id="edge15" class="edge">
<title>dir_09bf7f7c4011a5ccc426492db4dd0891&#45;&gt;dir_2171f7ec022c5423887b07c69b2f5b48</title>
<path fill="none" stroke="#000000" d="M257.0148,-287.9555C269.5883,-250.235 298.7271,-162.8188 313.72,-117.8399"/>
<polygon fill="#000000" stroke="#000000" points="317.1097,-118.7387 316.9516,-108.1451 310.4689,-116.5251 317.1097,-118.7387"/>
<g id="a_edge15&#45;headlabel"><a xlink:href="dir_000141_000076.html" target="_top" xlink:title="6">
<text text-anchor="middle" x="318.6666" y="-120.5467" font-family="Helvetica,sans-Serif" font-size="10.00" fill="#000000">6</text>
</a>
</g>
</g>
<!-- dir_bcbb2cf9a3d3d83e5515c82071a07177&#45;&gt;dir_4ab6b4cc6a7edbff49100e9123df213f -->
<g id="edge25" class="edge">
<title>dir_bcbb2cf9a3d3d83e5515c82071a07177&#45;&gt;dir_4ab6b4cc6a7edbff49100e9123df213f</title>
<path fill="none" stroke="#000000" d="M411.998,-180.1301C397.8653,-189.9179 379.2358,-202.0668 362.6282,-212.3486"/>
<polygon fill="#000000" stroke="#000000" points="360.354,-209.6368 353.6511,-217.8418 364.0077,-215.6077 360.354,-209.6368"/>
<g id="a_edge25&#45;headlabel"><a xlink:href="dir_000013_000027.html" target="_top" xlink:title="8">
<text text-anchor="middle" x="361.9382" y="-202.8389" font-family="Helvetica,sans-Serif" font-size="10.00" fill="#000000">8</text>
</a>
</g>
</g>
<!-- dir_bcbb2cf9a3d3d83e5515c82071a07177&#45;&gt;dir_8ba487e25de5ee77e05e9dce7582cb98 -->
<g id="edge26" class="edge">
<title>dir_bcbb2cf9a3d3d83e5515c82071a07177&#45;&gt;dir_8ba487e25de5ee77e05e9dce7582cb98</title>
<path fill="none" stroke="#000000" d="M434,-143.7623C434,-119.201 434,-75.2474 434,-46.3541"/>
<polygon fill="#000000" stroke="#000000" points="437.5001,-46.0896 434,-36.0896 430.5001,-46.0897 437.5001,-46.0896"/>
<g id="a_edge26&#45;headlabel"><a xlink:href="dir_000013_000000.html" target="_top" xlink:title="1">
<text text-anchor="middle" x="440.3393" y="-47.1842" font-family="Helvetica,sans-Serif" font-size="10.00" fill="#000000">1</text>
</a>
</g>
</g>
<!-- dir_bcbb2cf9a3d3d83e5515c82071a07177&#45;&gt;dir_2171f7ec022c5423887b07c69b2f5b48 -->
<g id="edge27" class="edge">
<title>dir_bcbb2cf9a3d3d83e5515c82071a07177&#45;&gt;dir_2171f7ec022c5423887b07c69b2f5b48</title>
<path fill="none" stroke="#000000" d="M400.0376,-143.8314C385.2221,-134.7927 368.0431,-123.7476 353.6244,-114.0198"/>
<polygon fill="#000000" stroke="#000000" points="355.2809,-110.9128 345.0492,-108.1628 351.3328,-116.6932 355.2809,-110.9128"/>
<g id="a_edge27&#45;headlabel"><a xlink:href="dir_000013_000076.html" target="_top" xlink:title="82">
<text text-anchor="middle" x="359.8506" y="-108.0956" font-family="Helvetica,sans-Serif" font-size="10.00" fill="#000000">82</text>
</a>
</g>
</g>
<!-- dir_5cb2a8e9fdbe67a11efb4176f60bf3d6&#45;&gt;dir_4ab6b4cc6a7edbff49100e9123df213f -->
<g id="edge28" class="edge">
<title>dir_5cb2a8e9fdbe67a11efb4176f60bf3d6&#45;&gt;dir_4ab6b4cc6a7edbff49100e9123df213f</title>
<path fill="none" stroke="#000000" d="M173.7298,-359.6954C180.7257,-339.8798 194.2534,-308.3843 215,-288 234.0174,-269.3147 260.7943,-255.8675 282.9274,-247.0654"/>
<polygon fill="#000000" stroke="#000000" points="284.3045,-250.2863 292.408,-243.461 281.8169,-243.7432 284.3045,-250.2863"/>
<g id="a_edge28&#45;headlabel"><a xlink:href="dir_000305_000027.html" target="_top" xlink:title="5">
<text text-anchor="middle" x="281.9535" y="-251.7176" font-family="Helvetica,sans-Serif" font-size="10.00" fill="#000000">5</text>
</a>
</g>
</g>
<!-- dir_5cb2a8e9fdbe67a11efb4176f60bf3d6&#45;&gt;dir_37c90836491b695b472bf98d1be8336b -->
<g id="edge29" class="edge">
<title>dir_5cb2a8e9fdbe67a11efb4176f60bf3d6&#45;&gt;dir_37c90836491b695b472bf98d1be8336b</title>
<path fill="none" stroke="#000000" d="M158.0307,-359.7389C135.4339,-317.1811 80.8231,-207.454 62,-108 59.0246,-92.2791 54.1168,-85.9232 62,-72 73.4958,-51.6962 96.0081,-38.1937 115.6403,-29.7685"/>
<polygon fill="#000000" stroke="#000000" points="116.9992,-32.9946 124.9856,-26.0327 114.4009,-26.4947 116.9992,-32.9946"/>
<g id="a_edge29&#45;headlabel"><a xlink:href="dir_000305_000274.html" target="_top" xlink:title="2">
<text text-anchor="middle" x="114.7153" y="-34.4652" font-family="Helvetica,sans-Serif" font-size="10.00" fill="#000000">2</text>
</a>
</g>
</g>
<!-- dir_5cb2a8e9fdbe67a11efb4176f60bf3d6&#45;&gt;dir_09bf7f7c4011a5ccc426492db4dd0891 -->
<g id="edge30" class="edge">
<title>dir_5cb2a8e9fdbe67a11efb4176f60bf3d6&#45;&gt;dir_09bf7f7c4011a5ccc426492db4dd0891</title>
<path fill="none" stroke="#000000" d="M188.9444,-359.8314C199.0691,-351.0485 211.3777,-340.3712 222.3548,-330.8489"/>
<polygon fill="#000000" stroke="#000000" points="224.8019,-333.3595 230.0623,-324.1628 220.2149,-328.0718 224.8019,-333.3595"/>
<g id="a_edge30&#45;headlabel"><a xlink:href="dir_000305_000141.html" target="_top" xlink:title="31">
<text text-anchor="middle" x="223.9471" y="-335.3597" font-family="Helvetica,sans-Serif" font-size="10.00" fill="#000000">31</text>
</a>
</g>
</g>
<!-- dir_5cb2a8e9fdbe67a11efb4176f60bf3d6&#45;&gt;dir_2171f7ec022c5423887b07c69b2f5b48 -->
<g id="edge31" class="edge">
<title>dir_5cb2a8e9fdbe67a11efb4176f60bf3d6&#45;&gt;dir_2171f7ec022c5423887b07c69b2f5b48</title>
<path fill="none" stroke="#000000" d="M169.4563,-359.7733C171.4424,-341.1245 175.9781,-311.6159 186,-288 214.845,-220.0291 269.1099,-151.5899 299.9819,-115.6898"/>
<polygon fill="#000000" stroke="#000000" points="302.6455,-117.9607 306.564,-108.1171 297.3622,-113.3686 302.6455,-117.9607"/>
<g id="a_edge31&#45;headlabel"><a xlink:href="dir_000305_000076.html" target="_top" xlink:title="6">
<text text-anchor="middle" x="302.4303" y="-120.0363" font-family="Helvetica,sans-Serif" font-size="10.00" fill="#000000">6</text>
</a>
</g>
</g>
<!-- dir_2171f7ec022c5423887b07c69b2f5b48&#45;&gt;dir_4ab6b4cc6a7edbff49100e9123df213f -->
<g id="edge32" class="edge">
<title>dir_2171f7ec022c5423887b07c69b2f5b48&#45;&gt;dir_4ab6b4cc6a7edbff49100e9123df213f</title>
<path fill="none" stroke="#000000" d="M327.6583,-108.0896C330.1269,-132.5727 330.4104,-176.5174 328.5089,-205.4713"/>
<polygon fill="#000000" stroke="#000000" points="324.9942,-205.5118 327.6732,-215.7623 331.9712,-206.0785 324.9942,-205.5118"/>
<g id="a_edge32&#45;headlabel"><a xlink:href="dir_000076_000027.html" target="_top" xlink:title="34">
<text text-anchor="middle" x="322.4551" y="-199.1992" font-family="Helvetica,sans-Serif" font-size="10.00" fill="#000000">34</text>
</a>
</g>
</g>
<!-- dir_2171f7ec022c5423887b07c69b2f5b48&#45;&gt;dir_37c90836491b695b472bf98d1be8336b -->
<g id="edge33" class="edge">
<title>dir_2171f7ec022c5423887b07c69b2f5b48&#45;&gt;dir_37c90836491b695b472bf98d1be8336b</title>
<path fill="none" stroke="#000000" d="M282.847,-75.4297C254.2304,-63.9982 216.1919,-48.0341 188.4455,-35.838"/>
<polygon fill="#000000" stroke="#000000" points="189.6535,-32.5451 179.0929,-31.6949 186.8183,-38.9453 189.6535,-32.5451"/>
<g id="a_edge33&#45;headlabel"><a xlink:href="dir_000076_000274.html" target="_top" xlink:title="1">
<text text-anchor="middle" x="194.0901" y="-28.905" font-family="Helvetica,sans-Serif" font-size="10.00" fill="#000000">1</text>
</a>
</g>
</g>
<!-- dir_2171f7ec022c5423887b07c69b2f5b48&#45;&gt;dir_8ba487e25de5ee77e05e9dce7582cb98 -->
<g id="edge34" class="edge">
<title>dir_2171f7ec022c5423887b07c69b2f5b48&#45;&gt;dir_8ba487e25de5ee77e05e9dce7582cb98</title>
<path fill="none" stroke="#000000" d="M345.0576,-71.8314C358.6623,-62.4112 376.4191,-50.8118 392.5278,-40.7955"/>
<polygon fill="#000000" stroke="#000000" points="394.5868,-43.6382 401.2706,-35.4177 390.9192,-37.6759 394.5868,-43.6382"/>
<g id="a_edge34&#45;headlabel"><a xlink:href="dir_000076_000000.html" target="_top" xlink:title="2">
<text text-anchor="middle" x="393.0126" y="-45.4399" font-family="Helvetica,sans-Serif" font-size="10.00" fill="#000000">2</text>
</a>
</g>
</g>
<!-- dir_2171f7ec022c5423887b07c69b2f5b48&#45;&gt;dir_bcbb2cf9a3d3d83e5515c82071a07177 -->
<g id="edge35" class="edge">
<title>dir_2171f7ec022c5423887b07c69b2f5b48&#45;&gt;dir_bcbb2cf9a3d3d83e5515c82071a07177</title>
<path fill="none" stroke="#000000" d="M356.9529,-108.1628C371.7673,-117.2007 388.9465,-128.2456 403.3664,-137.9739"/>
<polygon fill="#000000" stroke="#000000" points="401.7106,-141.0815 411.9424,-143.8314 405.6587,-135.3011 401.7106,-141.0815"/>
<g id="a_edge35&#45;headlabel"><a xlink:href="dir_000076_000013.html" target="_top" xlink:title="7">
<text text-anchor="middle" x="397.141" y="-138.8988" font-family="Helvetica,sans-Serif" font-size="10.00" fill="#000000">7</text>
</a>
</g>
</g>
<!-- dir_11da180be91271a1ebdaa9322b1ad99a&#45;&gt;dir_09bf7f7c4011a5ccc426492db4dd0891 -->
<g id="edge36" class="edge">
<title>dir_11da180be91271a1ebdaa9322b1ad99a&#45;&gt;dir_09bf7f7c4011a5ccc426492db4dd0891</title>
<path fill="none" stroke="#000000" d="M315.6278,-431.7623C302.8393,-406.8764 279.82,-362.0822 264.9862,-333.2165"/>
<polygon fill="#000000" stroke="#000000" points="267.9798,-331.3842 260.2961,-324.0896 261.7538,-334.5837 267.9798,-331.3842"/>
<g id="a_edge36&#45;headlabel"><a xlink:href="dir_000610_000141.html" target="_top" xlink:title="7">
<text text-anchor="middle" x="272.1481" y="-330.7836" font-family="Helvetica,sans-Serif" font-size="10.00" fill="#000000">7</text>
</a>
</g>
</g>
<!-- dir_11da180be91271a1ebdaa9322b1ad99a&#45;&gt;dir_bcbb2cf9a3d3d83e5515c82071a07177 -->
<g id="edge37" class="edge">
<title>dir_11da180be91271a1ebdaa9322b1ad99a&#45;&gt;dir_bcbb2cf9a3d3d83e5515c82071a07177</title>
<path fill="none" stroke="#000000" d="M336.5924,-431.6768C343.0553,-421.3032 351.1564,-408.0337 358,-396 375.8872,-364.5471 383.3209,-357.8891 396,-324 412.9163,-278.7857 423.9398,-223.5707 429.5556,-190.6777"/>
<polygon fill="#000000" stroke="#000000" points="433.0726,-190.8626 431.2535,-180.4251 426.1667,-189.7188 433.0726,-190.8626"/>
<g id="a_edge37&#45;headlabel"><a xlink:href="dir_000610_000013.html" target="_top" xlink:title="8">
<text text-anchor="middle" x="435.2865" y="-192.3727" font-family="Helvetica,sans-Serif" font-size="10.00" fill="#000000">8</text>
</a>
</g>
</g>
<!-- dir_11da180be91271a1ebdaa9322b1ad99a&#45;&gt;dir_5cb2a8e9fdbe67a11efb4176f60bf3d6 -->
<g id="edge38" class="edge">
<title>dir_11da180be91271a1ebdaa9322b1ad99a&#45;&gt;dir_5cb2a8e9fdbe67a11efb4176f60bf3d6</title>
<path fill="none" stroke="#000000" d="M297.6527,-437.4586C273.9189,-426.5743 239.1357,-410.6227 211.5705,-397.9814"/>
<polygon fill="#000000" stroke="#000000" points="212.7001,-394.6489 202.1513,-393.6618 209.7821,-401.0118 212.7001,-394.6489"/>
<g id="a_edge38&#45;headlabel"><a xlink:href="dir_000610_000305.html" target="_top" xlink:title="3">
<text text-anchor="middle" x="217.151" y="-391.0665" font-family="Helvetica,sans-Serif" font-size="10.00" fill="#000000">3</text>
</a>
</g>
</g>
<!-- dir_11da180be91271a1ebdaa9322b1ad99a&#45;&gt;dir_2171f7ec022c5423887b07c69b2f5b48 -->
<g id="edge39" class="edge">
<title>dir_11da180be91271a1ebdaa9322b1ad99a&#45;&gt;dir_2171f7ec022c5423887b07c69b2f5b48</title>
<path fill="none" stroke="#000000" d="M331.2055,-431.8743C343.8929,-392.6608 370.8861,-296.9506 362,-216 358.4231,-183.4151 356.0207,-175.2114 346,-144 343.179,-135.2135 339.4756,-125.8857 335.8671,-117.4992"/>
<polygon fill="#000000" stroke="#000000" points="338.986,-115.8986 331.7332,-108.1755 332.5868,-118.7358 338.986,-115.8986"/>
<g id="a_edge39&#45;headlabel"><a xlink:href="dir_000610_000076.html" target="_top" xlink:title="3">
<text text-anchor="middle" x="343.0385" y="-115.5339" font-family="Helvetica,sans-Serif" font-size="10.00" fill="#000000">3</text>
</a>
</g>
</g>
</g>
</svg>
