<?xml version="1.0" encoding="UTF-8" standalone="no"?>
<!DOCTYPE svg PUBLIC "-//W3C//DTD SVG 1.1//EN"
 "http://www.w3.org/Graphics/SVG/1.1/DTD/svg11.dtd">
<!-- Generated by graphviz version 2.40.1 (20161225.0304)
 -->
<!-- Title: /home/travis/build/AliceO2Group/AliceO2/Detectors/TOF/compression Pages: 1 -->
<svg width="348pt" height="447pt"
 viewBox="0.00 0.00 348.00 447.00" xmlns="http://www.w3.org/2000/svg" xmlns:xlink="http://www.w3.org/1999/xlink">
<g id="graph0" class="graph" transform="scale(1 1) rotate(0) translate(4 443)">
<title>/home/travis/build/AliceO2Group/AliceO2/Detectors/TOF/compression</title>
<g id="clust1" class="cluster">
<title>clusterdir_577c839d346a264df4e9e588ca2a45dd</title>
<g id="a_clust1"><a xlink:href="dir_577c839d346a264df4e9e588ca2a45dd.html" target="_top" xlink:title="TOF">
<polygon fill="#ddddee" stroke="#000000" points="8,-272 8,-431 191,-431 191,-272 8,-272"/>
<text text-anchor="middle" x="99.5" y="-419" font-family="Helvetica,sans-Serif" font-size="10.00" fill="#000000">TOF</text>
</a>
</g>
</g>
<g id="clust2" class="cluster">
<title>clusterdir_466d31775548c7bdc6c92a4c63ee3ea4</title>
<g id="a_clust2"><a xlink:href="dir_466d31775548c7bdc6c92a4c63ee3ea4.html" target="_top">
<polygon fill="#eeeeff" stroke="#000000" points="16,-280 16,-404 183,-404 183,-280 16,-280"/>
</a>
</g>
</g>
<!-- dir_466d31775548c7bdc6c92a4c63ee3ea4 -->
<g id="node1" class="node">
<title>dir_466d31775548c7bdc6c92a4c63ee3ea4</title>
<text text-anchor="middle" x="136" y="-375.5" font-family="Helvetica,sans-Serif" font-size="10.00" fill="#000000">compression</text>
</g>
<!-- dir_2e8be7ae7cffbace85eb0bac4086895b -->
<g id="node2" class="node">
<title>dir_2e8be7ae7cffbace85eb0bac4086895b</title>
<g id="a_node2"><a xlink:href="dir_2e8be7ae7cffbace85eb0bac4086895b.html" target="_top" xlink:title="include">
<polygon fill="#ffffff" stroke="#ff0000" points="78,-324 24,-324 24,-288 78,-288 78,-324"/>
<text text-anchor="middle" x="51" y="-303.5" font-family="Helvetica,sans-Serif" font-size="10.00" fill="#000000">include</text>
</a>
</g>
</g>
<!-- dir_bcbb2cf9a3d3d83e5515c82071a07177 -->
<g id="node5" class="node">
<title>dir_bcbb2cf9a3d3d83e5515c82071a07177</title>
<g id="a_node5"><a xlink:href="dir_bcbb2cf9a3d3d83e5515c82071a07177.html" target="_top" xlink:title="Framework">
<polygon fill="none" stroke="#ff0000" points="178.5,-108 107.5,-108 107.5,-72 178.5,-72 178.5,-108"/>
<text text-anchor="middle" x="143" y="-87.5" font-family="Helvetica,sans-Serif" font-size="10.00" fill="#000000">Framework</text>
</a>
</g>
</g>
<!-- dir_2e8be7ae7cffbace85eb0bac4086895b&#45;&gt;dir_bcbb2cf9a3d3d83e5515c82071a07177 -->
<g id="edge1" class="edge">
<title>dir_2e8be7ae7cffbace85eb0bac4086895b&#45;&gt;dir_bcbb2cf9a3d3d83e5515c82071a07177</title>
<path fill="none" stroke="#000000" d="M52.5828,-287.9003C55.9369,-256.7632 65.7383,-191.8034 92,-144 97.7627,-133.5103 106.0504,-123.5288 114.2748,-115.0658"/>
<polygon fill="#000000" stroke="#000000" points="116.7405,-117.5499 121.4209,-108.0449 111.8347,-112.5566 116.7405,-117.5499"/>
<g id="a_edge1&#45;headlabel"><a xlink:href="dir_000578_000013.html" target="_top" xlink:title="2">
<text text-anchor="middle" x="116.1662" y="-119.5944" font-family="Helvetica,sans-Serif" font-size="10.00" fill="#000000">2</text>
</a>
</g>
</g>
<!-- dir_2171f7ec022c5423887b07c69b2f5b48 -->
<g id="node8" class="node">
<title>dir_2171f7ec022c5423887b07c69b2f5b48</title>
<g id="a_node8"><a xlink:href="dir_2171f7ec022c5423887b07c69b2f5b48.html" target="_top" xlink:title="DataFormats">
<polygon fill="none" stroke="#ff0000" points="215,-36 135,-36 135,0 215,0 215,-36"/>
<text text-anchor="middle" x="175" y="-15.5" font-family="Helvetica,sans-Serif" font-size="10.00" fill="#000000">DataFormats</text>
</a>
</g>
</g>
<!-- dir_2e8be7ae7cffbace85eb0bac4086895b&#45;&gt;dir_2171f7ec022c5423887b07c69b2f5b48 -->
<g id="edge2" class="edge">
<title>dir_2e8be7ae7cffbace85eb0bac4086895b&#45;&gt;dir_2171f7ec022c5423887b07c69b2f5b48</title>
<path fill="none" stroke="#000000" d="M49.643,-287.7594C47.4606,-245.3445 47.6901,-138.6349 98,-72 106.8668,-60.256 119.0339,-50.0882 131.0785,-41.8424"/>
<polygon fill="#000000" stroke="#000000" points="133.3045,-44.5697 139.7783,-36.1828 129.4873,-38.7021 133.3045,-44.5697"/>
<g id="a_edge2&#45;headlabel"><a xlink:href="dir_000578_000076.html" target="_top" xlink:title="3">
<text text-anchor="middle" x="131.8397" y="-46.4098" font-family="Helvetica,sans-Serif" font-size="10.00" fill="#000000">3</text>
</a>
</g>
</g>
<!-- dir_191c63358187006b00d05d4656881989 -->
<g id="node3" class="node">
<title>dir_191c63358187006b00d05d4656881989</title>
<g id="a_node3"><a xlink:href="dir_191c63358187006b00d05d4656881989.html" target="_top" xlink:title="src">
<polygon fill="#ffffff" stroke="#000000" points="78,-396 24,-396 24,-360 78,-360 78,-396"/>
<text text-anchor="middle" x="51" y="-375.5" font-family="Helvetica,sans-Serif" font-size="10.00" fill="#000000">src</text>
</a>
</g>
</g>
<!-- dir_191c63358187006b00d05d4656881989&#45;&gt;dir_2e8be7ae7cffbace85eb0bac4086895b -->
<g id="edge3" class="edge">
<title>dir_191c63358187006b00d05d4656881989&#45;&gt;dir_2e8be7ae7cffbace85eb0bac4086895b</title>
<path fill="none" stroke="#000000" d="M51,-359.8314C51,-352.131 51,-342.9743 51,-334.4166"/>
<polygon fill="#000000" stroke="#000000" points="54.5001,-334.4132 51,-324.4133 47.5001,-334.4133 54.5001,-334.4132"/>
<g id="a_edge3&#45;headlabel"><a xlink:href="dir_000580_000578.html" target="_top" xlink:title="3">
<text text-anchor="middle" x="57.3393" y="-335.5079" font-family="Helvetica,sans-Serif" font-size="10.00" fill="#000000">3</text>
</a>
</g>
</g>
<!-- dir_0189f3ad6abecd72f822a0c3914f12b2 -->
<g id="node4" class="node">
<title>dir_0189f3ad6abecd72f822a0c3914f12b2</title>
<g id="a_node4"><a xlink:href="dir_0189f3ad6abecd72f822a0c3914f12b2.html" target="_top" xlink:title="base">
<polygon fill="none" stroke="#ff0000" points="340,-252 286,-252 286,-216 340,-216 340,-252"/>
<text text-anchor="middle" x="313" y="-231.5" font-family="Helvetica,sans-Serif" font-size="10.00" fill="#000000">base</text>
</a>
</g>
</g>
<!-- dir_191c63358187006b00d05d4656881989&#45;&gt;dir_0189f3ad6abecd72f822a0c3914f12b2 -->
<g id="edge4" class="edge">
<title>dir_191c63358187006b00d05d4656881989&#45;&gt;dir_0189f3ad6abecd72f822a0c3914f12b2</title>
<path fill="none" stroke="#000000" d="M78.1481,-363.8232C81.4173,-362.4068 84.7496,-361.0917 88,-360 166.1651,-333.7468 204.8695,-374.5671 270,-324 289.6581,-308.7375 300.7964,-282.2463 306.7853,-261.9444"/>
<polygon fill="#000000" stroke="#000000" points="310.1701,-262.8349 309.3961,-252.2684 303.4118,-261.0113 310.1701,-262.8349"/>
<g id="a_edge4&#45;headlabel"><a xlink:href="dir_000580_000137.html" target="_top" xlink:title="1">
<text text-anchor="middle" x="311.975" y="-264.545" font-family="Helvetica,sans-Serif" font-size="10.00" fill="#000000">1</text>
</a>
</g>
</g>
<!-- dir_191c63358187006b00d05d4656881989&#45;&gt;dir_bcbb2cf9a3d3d83e5515c82071a07177 -->
<g id="edge5" class="edge">
<title>dir_191c63358187006b00d05d4656881989&#45;&gt;dir_bcbb2cf9a3d3d83e5515c82071a07177</title>
<path fill="none" stroke="#000000" d="M65.3866,-359.9485C72.7913,-349.8751 81.4122,-336.8055 87,-324 117.7904,-253.4376 133.2718,-163.1919 139.5283,-118.1775"/>
<polygon fill="#000000" stroke="#000000" points="143.0326,-118.3778 140.8912,-108.0017 136.0946,-117.4486 143.0326,-118.3778"/>
<g id="a_edge5&#45;headlabel"><a xlink:href="dir_000580_000013.html" target="_top" xlink:title="12">
<text text-anchor="middle" x="145.3697" y="-119.8175" font-family="Helvetica,sans-Serif" font-size="10.00" fill="#000000">12</text>
</a>
</g>
</g>
<!-- dir_26637d1bd82229bc9ed97f7e706be743 -->
<g id="node6" class="node">
<title>dir_26637d1bd82229bc9ed97f7e706be743</title>
<g id="a_node6"><a xlink:href="dir_26637d1bd82229bc9ed97f7e706be743.html" target="_top" xlink:title="Raw">
<polygon fill="none" stroke="#ff0000" points="230,-180 176,-180 176,-144 230,-144 230,-180"/>
<text text-anchor="middle" x="203" y="-159.5" font-family="Helvetica,sans-Serif" font-size="10.00" fill="#000000">Raw</text>
</a>
</g>
</g>
<!-- dir_191c63358187006b00d05d4656881989&#45;&gt;dir_26637d1bd82229bc9ed97f7e706be743 -->
<g id="edge6" class="edge">
<title>dir_191c63358187006b00d05d4656881989&#45;&gt;dir_26637d1bd82229bc9ed97f7e706be743</title>
<path fill="none" stroke="#000000" d="M78.2129,-360.8665C91.961,-351.2464 108.1855,-338.3115 120,-324 154.4589,-282.2583 179.9622,-223.8531 193.0681,-189.7682"/>
<polygon fill="#000000" stroke="#000000" points="196.4913,-190.6083 196.7336,-180.0163 189.9389,-188.1454 196.4913,-190.6083"/>
<g id="a_edge6&#45;headlabel"><a xlink:href="dir_000580_000556.html" target="_top" xlink:title="1">
<text text-anchor="middle" x="197.8844" y="-192.472" font-family="Helvetica,sans-Serif" font-size="10.00" fill="#000000">1</text>
</a>
</g>
</g>
<!-- dir_f8afc936feb89e961bf89d3429577266 -->
<g id="node7" class="node">
<title>dir_f8afc936feb89e961bf89d3429577266</title>
<g id="a_node7"><a xlink:href="dir_f8afc936feb89e961bf89d3429577266.html" target="_top" xlink:title="workflow">
<polygon fill="none" stroke="#ff0000" points="260.5,-324 199.5,-324 199.5,-288 260.5,-288 260.5,-324"/>
<text text-anchor="middle" x="230" y="-303.5" font-family="Helvetica,sans-Serif" font-size="10.00" fill="#000000">workflow</text>
</a>
</g>
</g>
<!-- dir_191c63358187006b00d05d4656881989&#45;&gt;dir_f8afc936feb89e961bf89d3429577266 -->
<g id="edge7" class="edge">
<title>dir_191c63358187006b00d05d4656881989&#45;&gt;dir_f8afc936feb89e961bf89d3429577266</title>
<path fill="none" stroke="#000000" d="M78.3328,-364.3104C81.5689,-362.8066 84.8429,-361.3377 88,-360 131.1088,-341.7345 143.3938,-341.0441 187,-324 187.8574,-323.6649 188.7235,-323.324 189.5959,-322.9785"/>
<polygon fill="#000000" stroke="#000000" points="191.1055,-326.1436 199.0686,-319.1551 188.4855,-319.6524 191.1055,-326.1436"/>
<g id="a_edge7&#45;headlabel"><a xlink:href="dir_000580_000436.html" target="_top" xlink:title="1">
<text text-anchor="middle" x="188.8348" y="-327.6218" font-family="Helvetica,sans-Serif" font-size="10.00" fill="#000000">1</text>
</a>
</g>
</g>
<!-- dir_0189f3ad6abecd72f822a0c3914f12b2&#45;&gt;dir_26637d1bd82229bc9ed97f7e706be743 -->
<g id="edge8" class="edge">
<title>dir_0189f3ad6abecd72f822a0c3914f12b2&#45;&gt;dir_26637d1bd82229bc9ed97f7e706be743</title>
<path fill="none" stroke="#000000" d="M285.809,-216.2022C271.6622,-206.9425 254.1843,-195.5025 238.937,-185.5224"/>
<polygon fill="#000000" stroke="#000000" points="240.5433,-182.3907 230.2594,-179.8425 236.7097,-188.2476 240.5433,-182.3907"/>
<g id="a_edge8&#45;headlabel"><a xlink:href="dir_000137_000556.html" target="_top" xlink:title="2">
<text text-anchor="middle" x="245.1058" y="-179.4837" font-family="Helvetica,sans-Serif" font-size="10.00" fill="#000000">2</text>
</a>
</g>
</g>
<!-- dir_0189f3ad6abecd72f822a0c3914f12b2&#45;&gt;dir_2171f7ec022c5423887b07c69b2f5b48 -->
<g id="edge9" class="edge">
<title>dir_0189f3ad6abecd72f822a0c3914f12b2&#45;&gt;dir_2171f7ec022c5423887b07c69b2f5b48</title>
<path fill="none" stroke="#000000" d="M312.9283,-215.9634C311.9063,-183.7707 305.5937,-115.7028 272,-72 259.9087,-56.2701 241.8578,-44.4592 224.5951,-35.959"/>
<polygon fill="#000000" stroke="#000000" points="225.6734,-32.6012 215.1286,-31.5733 222.7309,-38.9528 225.6734,-32.6012"/>
<g id="a_edge9&#45;headlabel"><a xlink:href="dir_000137_000076.html" target="_top" xlink:title="1">
<text text-anchor="middle" x="230.1285" y="-29.036" font-family="Helvetica,sans-Serif" font-size="10.00" fill="#000000">1</text>
</a>
</g>
</g>
<!-- dir_bcbb2cf9a3d3d83e5515c82071a07177&#45;&gt;dir_2171f7ec022c5423887b07c69b2f5b48 -->
<g id="edge10" class="edge">
<title>dir_bcbb2cf9a3d3d83e5515c82071a07177&#45;&gt;dir_2171f7ec022c5423887b07c69b2f5b48</title>
<path fill="none" stroke="#000000" d="M145.1226,-71.8314C147.8826,-63.8771 151.8983,-54.369 156.1628,-45.5723"/>
<polygon fill="#000000" stroke="#000000" points="159.4091,-46.911 160.8403,-36.4133 153.175,-43.7272 159.4091,-46.911"/>
<g id="a_edge10&#45;headlabel"><a xlink:href="dir_000013_000076.html" target="_top" xlink:title="82">
<text text-anchor="middle" x="160.3029" y="-48.9036" font-family="Helvetica,sans-Serif" font-size="10.00" fill="#000000">82</text>
</a>
</g>
</g>
<!-- dir_26637d1bd82229bc9ed97f7e706be743&#45;&gt;dir_bcbb2cf9a3d3d83e5515c82071a07177 -->
<g id="edge11" class="edge">
<title>dir_26637d1bd82229bc9ed97f7e706be743&#45;&gt;dir_bcbb2cf9a3d3d83e5515c82071a07177</title>
<path fill="none" stroke="#000000" d="M187.8595,-143.8314C180.8783,-135.454 172.4609,-125.3531 164.8124,-116.1749"/>
<polygon fill="#000000" stroke="#000000" points="167.4351,-113.8548 158.3444,-108.4133 162.0575,-118.3362 167.4351,-113.8548"/>
<g id="a_edge11&#45;headlabel"><a xlink:href="dir_000556_000013.html" target="_top" xlink:title="25">
<text text-anchor="middle" x="171.9174" y="-112.2986" font-family="Helvetica,sans-Serif" font-size="10.00" fill="#000000">25</text>
</a>
</g>
</g>
<!-- dir_26637d1bd82229bc9ed97f7e706be743&#45;&gt;dir_2171f7ec022c5423887b07c69b2f5b48 -->
<g id="edge12" class="edge">
<title>dir_26637d1bd82229bc9ed97f7e706be743&#45;&gt;dir_2171f7ec022c5423887b07c69b2f5b48</title>
<path fill="none" stroke="#000000" d="M200.3339,-143.6583C197.5913,-125.4217 193.021,-96.6809 188,-72 186.2969,-63.6285 184.2157,-54.584 182.222,-46.3349"/>
<polygon fill="#000000" stroke="#000000" points="185.5702,-45.2937 179.7785,-36.422 178.7736,-46.969 185.5702,-45.2937"/>
<g id="a_edge12&#45;headlabel"><a xlink:href="dir_000556_000076.html" target="_top" xlink:title="15">
<text text-anchor="middle" x="189.1872" y="-45.6043" font-family="Helvetica,sans-Serif" font-size="10.00" fill="#000000">15</text>
</a>
</g>
</g>
<!-- dir_f8afc936feb89e961bf89d3429577266&#45;&gt;dir_0189f3ad6abecd72f822a0c3914f12b2 -->
<g id="edge13" class="edge">
<title>dir_f8afc936feb89e961bf89d3429577266&#45;&gt;dir_0189f3ad6abecd72f822a0c3914f12b2</title>
<path fill="none" stroke="#000000" d="M250.9444,-287.8314C261.0691,-279.0485 273.3777,-268.3712 284.3548,-258.8489"/>
<polygon fill="#000000" stroke="#000000" points="286.8019,-261.3595 292.0623,-252.1628 282.2149,-256.0718 286.8019,-261.3595"/>
<g id="a_edge13&#45;headlabel"><a xlink:href="dir_000436_000137.html" target="_top" xlink:title="4">
<text text-anchor="middle" x="285.9471" y="-263.3597" font-family="Helvetica,sans-Serif" font-size="10.00" fill="#000000">4</text>
</a>
</g>
</g>
<!-- dir_f8afc936feb89e961bf89d3429577266&#45;&gt;dir_bcbb2cf9a3d3d83e5515c82071a07177 -->
<g id="edge14" class="edge">
<title>dir_f8afc936feb89e961bf89d3429577266&#45;&gt;dir_bcbb2cf9a3d3d83e5515c82071a07177</title>
<path fill="none" stroke="#000000" d="M219.3898,-287.7479C205.7623,-263.7027 182.0757,-219.7953 167,-180 159.3378,-159.774 153.1308,-136.1157 148.95,-118.1326"/>
<polygon fill="#000000" stroke="#000000" points="152.34,-117.2547 146.7268,-108.269 145.5113,-118.7939 152.34,-117.2547"/>
<g id="a_edge14&#45;headlabel"><a xlink:href="dir_000436_000013.html" target="_top" xlink:title="38">
<text text-anchor="middle" x="155.9001" y="-117.6371" font-family="Helvetica,sans-Serif" font-size="10.00" fill="#000000">38</text>
</a>
</g>
</g>
<!-- dir_f8afc936feb89e961bf89d3429577266&#45;&gt;dir_26637d1bd82229bc9ed97f7e706be743 -->
<g id="edge15" class="edge">
<title>dir_f8afc936feb89e961bf89d3429577266&#45;&gt;dir_26637d1bd82229bc9ed97f7e706be743</title>
<path fill="none" stroke="#000000" d="M226.5804,-287.7623C221.9549,-263.0928 213.6612,-218.8598 208.245,-189.9731"/>
<polygon fill="#000000" stroke="#000000" points="211.6748,-189.2733 206.3918,-180.0896 204.7947,-190.5634 211.6748,-189.2733"/>
<g id="a_edge15&#45;headlabel"><a xlink:href="dir_000436_000556.html" target="_top" xlink:title="2">
<text text-anchor="middle" x="215.1278" y="-189.7831" font-family="Helvetica,sans-Serif" font-size="10.00" fill="#000000">2</text>
</a>
</g>
</g>
<!-- dir_f8afc936feb89e961bf89d3429577266&#45;&gt;dir_2171f7ec022c5423887b07c69b2f5b48 -->
<g id="edge16" class="edge">
<title>dir_f8afc936feb89e961bf89d3429577266&#45;&gt;dir_2171f7ec022c5423887b07c69b2f5b48</title>
<path fill="none" stroke="#000000" d="M234.2221,-287.7539C240.5183,-257.4769 250.4639,-195.1236 239,-144 230.7285,-107.1128 209.23,-68.9852 193.4227,-44.4725"/>
<polygon fill="#000000" stroke="#000000" points="196.3186,-42.5063 187.8914,-36.085 190.4749,-46.36 196.3186,-42.5063"/>
<g id="a_edge16&#45;headlabel"><a xlink:href="dir_000436_000076.html" target="_top" xlink:title="23">
<text text-anchor="middle" x="200.6678" y="-41.444" font-family="Helvetica,sans-Serif" font-size="10.00" fill="#000000">23</text>
</a>
</g>
</g>
<!-- dir_2171f7ec022c5423887b07c69b2f5b48&#45;&gt;dir_bcbb2cf9a3d3d83e5515c82071a07177 -->
<g id="edge17" class="edge">
<title>dir_2171f7ec022c5423887b07c69b2f5b48&#45;&gt;dir_bcbb2cf9a3d3d83e5515c82071a07177</title>
<path fill="none" stroke="#000000" d="M172.7923,-36.4133C170.0067,-44.3991 165.9757,-53.9155 161.7062,-62.6975"/>
<polygon fill="#000000" stroke="#000000" points="158.4715,-61.3354 157.0273,-71.8314 164.7017,-64.5269 158.4715,-61.3354"/>
<g id="a_edge17&#45;headlabel"><a xlink:href="dir_000076_000013.html" target="_top" xlink:title="7">
<text text-anchor="middle" x="157.5833" y="-54.3417" font-family="Helvetica,sans-Serif" font-size="10.00" fill="#000000">7</text>
</a>
</g>
</g>
</g>
</svg>
