<?xml version="1.0" encoding="UTF-8" standalone="no"?>
<!DOCTYPE svg PUBLIC "-//W3C//DTD SVG 1.1//EN"
 "http://www.w3.org/Graphics/SVG/1.1/DTD/svg11.dtd">
<!-- Generated by graphviz version 2.40.1 (20161225.0304)
 -->
<!-- Title: /home/travis/build/AliceO2Group/AliceO2/Framework/TestWorkflows Pages: 1 -->
<!--zoomable 519 -->
<svg id="main" version="1.1" xmlns="http://www.w3.org/2000/svg" xmlns:xlink="http://www.w3.org/1999/xlink" xml:space="preserve" onload="init(evt)">
<style type="text/css"><![CDATA[
.edge:hover path { stroke: red; }
.edge:hover polygon { stroke: red; fill: red; }
]]></style>
<script type="text/javascript"><![CDATA[
var edges = document.getElementsByTagName('g');
if (edges && edges.length) {
  for (var i=0;i<edges.length;i++) {
    if (edges[i].id.substr(0,4)=='edge') {
      edges[i].setAttribute('class','edge');
    }
  }
}
]]></script>
        <defs>
                <circle id="rim" cx="0" cy="0" r="7"/>
                <circle id="rim2" cx="0" cy="0" r="3.5"/>
                <g id="zoomPlus">
                        <use xlink:href="#rim" fill="#404040">
                                <set attributeName="fill" to="#808080" begin="zoomplus.mouseover" end="zoomplus.mouseout"/>
                        </use>
                        <path d="M-4,0h8M0,-4v8" fill="none" stroke="white" stroke-width="1.5" pointer-events="none"/>
                </g>
                <g id="zoomMin">
                        <use xlink:href="#rim" fill="#404040">
                                <set attributeName="fill" to="#808080" begin="zoomminus.mouseover" end="zoomminus.mouseout"/>
                        </use>
                        <path d="M-4,0h8" fill="none" stroke="white" stroke-width="1.5" pointer-events="none"/>
                </g>
                <g id="dirArrow">
                        <path fill="none" stroke="white" stroke-width="1.5" d="M0,-3.0v7 M-2.5,-0.5L0,-3.0L2.5,-0.5"/>
                </g>
               <g id="resetDef">
                       <use xlink:href="#rim2" fill="#404040">
                               <set attributeName="fill" to="#808080" begin="reset.mouseover" end="reset.mouseout"/>
                       </use>
               </g>
        </defs>

<script type="text/javascript">
var viewWidth = 348;
var viewHeight = 519;
var sectionId = 'dynsection-0';
</script>
<script xlink:href="svgpan.js"/>
<svg id="graph" class="graph">
<g id="viewport">
<title>/home/travis/build/AliceO2Group/AliceO2/Framework/TestWorkflows</title>
<g id="clust1" class="cluster">
<title>clusterdir_bcbb2cf9a3d3d83e5515c82071a07177</title>
<g id="a_clust1"><a xlink:href="dir_bcbb2cf9a3d3d83e5515c82071a07177.html" target="_top" xlink:title="Framework">
<polygon fill="#ddddee" stroke="#000000" points="70.0514,-416 70.0514,-503 332.0514,-503 332.0514,-416 70.0514,-416"/>
<text text-anchor="middle" x="201.0514" y="-491" font-family="Helvetica,sans-Serif" font-size="10.00" fill="#000000">Framework</text>
</a>
</g>
</g>
<g id="clust2" class="cluster">
<title>clusterdir_a8f73827fca2a0188d35dc47dc5b0ea3</title>
<g id="a_clust2"><a xlink:href="dir_a8f73827fca2a0188d35dc47dc5b0ea3.html" target="_top">
<polygon fill="#eeeeff" stroke="#000000" points="78.0514,-424 78.0514,-476 324.0514,-476 324.0514,-424 78.0514,-424"/>
</a>
</g>
</g>
<!-- dir_a8f73827fca2a0188d35dc47dc5b0ea3 -->
<g id="node1" class="node">
<title>dir_a8f73827fca2a0188d35dc47dc5b0ea3</title>
<text text-anchor="middle" x="273.0514" y="-447.5" font-family="Helvetica,sans-Serif" font-size="10.00" fill="#000000">TestWorkflows</text>
</g>
<!-- dir_80c3b7d4c168c9aa75dd1ba81b9fa387 -->
<g id="node2" class="node">
<title>dir_80c3b7d4c168c9aa75dd1ba81b9fa387</title>
<g id="a_node2"><a xlink:href="dir_80c3b7d4c168c9aa75dd1ba81b9fa387.html" target="_top" xlink:title="src">
<polygon fill="#ffffff" stroke="#000000" points="212.0514,-468 158.0514,-468 158.0514,-432 212.0514,-432 212.0514,-468"/>
<text text-anchor="middle" x="185.0514" y="-447.5" font-family="Helvetica,sans-Serif" font-size="10.00" fill="#000000">src</text>
</a>
</g>
</g>
<!-- dir_0b342c6c6b7d2278121a0bb9c4985063 -->
<g id="node4" class="node">
<title>dir_0b342c6c6b7d2278121a0bb9c4985063</title>
<g id="a_node4"><a xlink:href="dir_0b342c6c6b7d2278121a0bb9c4985063.html" target="_top" xlink:title="Generators">
<polygon fill="none" stroke="#ff0000" points="220.5514,-396 149.5514,-396 149.5514,-360 220.5514,-360 220.5514,-396"/>
<text text-anchor="middle" x="185.0514" y="-375.5" font-family="Helvetica,sans-Serif" font-size="10.00" fill="#000000">Generators</text>
</a>
</g>
</g>
<!-- dir_80c3b7d4c168c9aa75dd1ba81b9fa387&#45;&gt;dir_0b342c6c6b7d2278121a0bb9c4985063 -->
<g id="edge1" class="edge">
<title>dir_80c3b7d4c168c9aa75dd1ba81b9fa387&#45;&gt;dir_0b342c6c6b7d2278121a0bb9c4985063</title>
<path fill="none" stroke="#000000" d="M185.0514,-431.8314C185.0514,-424.131 185.0514,-414.9743 185.0514,-406.4166"/>
<polygon fill="#000000" stroke="#000000" points="188.5515,-406.4132 185.0514,-396.4133 181.5515,-406.4133 188.5515,-406.4132"/>
<g id="a_edge1&#45;headlabel"><a xlink:href="dir_000015_000666.html" target="_top" xlink:title="1">
<text text-anchor="middle" x="191.3907" y="-407.5079" font-family="Helvetica,sans-Serif" font-size="10.00" fill="#000000">1</text>
</a>
</g>
</g>
<!-- dir_4ab6b4cc6a7edbff49100e9123df213f -->
<g id="node5" class="node">
<title>dir_4ab6b4cc6a7edbff49100e9123df213f</title>
<g id="a_node5"><a xlink:href="dir_4ab6b4cc6a7edbff49100e9123df213f.html" target="_top" xlink:title="Common">
<polygon fill="none" stroke="#ff0000" points="182.5514,-324 121.5514,-324 121.5514,-288 182.5514,-288 182.5514,-324"/>
<text text-anchor="middle" x="152.0514" y="-303.5" font-family="Helvetica,sans-Serif" font-size="10.00" fill="#000000">Common</text>
</a>
</g>
</g>
<!-- dir_80c3b7d4c168c9aa75dd1ba81b9fa387&#45;&gt;dir_4ab6b4cc6a7edbff49100e9123df213f -->
<g id="edge2" class="edge">
<title>dir_80c3b7d4c168c9aa75dd1ba81b9fa387&#45;&gt;dir_4ab6b4cc6a7edbff49100e9123df213f</title>
<path fill="none" stroke="#000000" d="M164.1936,-431.6461C154.8974,-422.0709 144.9536,-409.54 140.0514,-396 132.7955,-375.9588 136.5522,-351.9805 141.7124,-333.8151"/>
<polygon fill="#000000" stroke="#000000" points="145.0986,-334.7138 144.751,-324.1246 138.4193,-332.6193 145.0986,-334.7138"/>
<g id="a_edge2&#45;headlabel"><a xlink:href="dir_000015_000027.html" target="_top" xlink:title="2">
<text text-anchor="middle" x="146.7324" y="-336.4932" font-family="Helvetica,sans-Serif" font-size="10.00" fill="#000000">2</text>
</a>
</g>
</g>
<!-- dir_9f165b2481dacfe69aa54d326bd5cd47 -->
<g id="node6" class="node">
<title>dir_9f165b2481dacfe69aa54d326bd5cd47</title>
<g id="a_node6"><a xlink:href="dir_9f165b2481dacfe69aa54d326bd5cd47.html" target="_top" xlink:title="Core">
<polygon fill="none" stroke="#ff0000" points="86.0514,-108 32.0514,-108 32.0514,-72 86.0514,-72 86.0514,-108"/>
<text text-anchor="middle" x="59.0514" y="-87.5" font-family="Helvetica,sans-Serif" font-size="10.00" fill="#000000">Core</text>
</a>
</g>
</g>
<!-- dir_80c3b7d4c168c9aa75dd1ba81b9fa387&#45;&gt;dir_9f165b2481dacfe69aa54d326bd5cd47 -->
<g id="edge3" class="edge">
<title>dir_80c3b7d4c168c9aa75dd1ba81b9fa387&#45;&gt;dir_9f165b2481dacfe69aa54d326bd5cd47</title>
<path fill="none" stroke="#000000" d="M165.8337,-431.8553C125.9876,-394.1449 38.0514,-310.421 38.0514,-306 38.0514,-306 38.0514,-306 38.0514,-234 38.0514,-193.2729 46.3784,-146.7384 52.5453,-117.8595"/>
<polygon fill="#000000" stroke="#000000" points="55.9703,-118.5806 54.7002,-108.0621 49.1337,-117.0768 55.9703,-118.5806"/>
<g id="a_edge3&#45;headlabel"><a xlink:href="dir_000015_000650.html" target="_top" xlink:title="106">
<text text-anchor="middle" x="57.9712" y="-120.2011" font-family="Helvetica,sans-Serif" font-size="10.00" fill="#000000">106</text>
</a>
</g>
</g>
<!-- dir_051dca18e802f8e9474f2e30d29c04e0 -->
<g id="node7" class="node">
<title>dir_051dca18e802f8e9474f2e30d29c04e0</title>
<g id="a_node7"><a xlink:href="dir_051dca18e802f8e9474f2e30d29c04e0.html" target="_top" xlink:title="Detectors">
<polygon fill="none" stroke="#ff0000" points="244.0514,-180 180.0514,-180 180.0514,-144 244.0514,-144 244.0514,-180"/>
<text text-anchor="middle" x="212.0514" y="-159.5" font-family="Helvetica,sans-Serif" font-size="10.00" fill="#000000">Detectors</text>
</a>
</g>
</g>
<!-- dir_80c3b7d4c168c9aa75dd1ba81b9fa387&#45;&gt;dir_051dca18e802f8e9474f2e30d29c04e0 -->
<g id="edge4" class="edge">
<title>dir_80c3b7d4c168c9aa75dd1ba81b9fa387&#45;&gt;dir_051dca18e802f8e9474f2e30d29c04e0</title>
<path fill="none" stroke="#000000" d="M203.4064,-431.9861C208.9681,-426.7144 215.1651,-421.0214 221.0514,-416 232.1429,-406.5384 239.6392,-408.554 247.0514,-396 279.9681,-340.2497 264.1484,-316.5567 269.0514,-252 270.2631,-236.0459 275.3735,-230.698 269.0514,-216 264.3023,-204.9589 256.0629,-195.1176 247.3008,-186.9593"/>
<polygon fill="#000000" stroke="#000000" points="249.3904,-184.1388 239.5409,-180.2354 244.8064,-189.4291 249.3904,-184.1388"/>
<g id="a_edge4&#45;headlabel"><a xlink:href="dir_000015_000039.html" target="_top" xlink:title="4">
<text text-anchor="middle" x="253.9663" y="-181.847" font-family="Helvetica,sans-Serif" font-size="10.00" fill="#000000">4</text>
</a>
</g>
</g>
<!-- dir_ab5a80d4bd40f73f0851d5ff6a022779 -->
<g id="node8" class="node">
<title>dir_ab5a80d4bd40f73f0851d5ff6a022779</title>
<g id="a_node8"><a xlink:href="dir_ab5a80d4bd40f73f0851d5ff6a022779.html" target="_top" xlink:title="Logger">
<polygon fill="none" stroke="#ff0000" points="239.0514,-36 185.0514,-36 185.0514,0 239.0514,0 239.0514,-36"/>
<text text-anchor="middle" x="212.0514" y="-15.5" font-family="Helvetica,sans-Serif" font-size="10.00" fill="#000000">Logger</text>
</a>
</g>
</g>
<!-- dir_80c3b7d4c168c9aa75dd1ba81b9fa387&#45;&gt;dir_ab5a80d4bd40f73f0851d5ff6a022779 -->
<g id="edge5" class="edge">
<title>dir_80c3b7d4c168c9aa75dd1ba81b9fa387&#45;&gt;dir_ab5a80d4bd40f73f0851d5ff6a022779</title>
<path fill="none" stroke="#000000" d="M201.9319,-431.7027C207.6403,-426.1854 214.2901,-420.4257 221.0514,-416 240.0456,-403.5671 250.6932,-410.6304 268.0514,-396 304.4377,-365.3318 326.0514,-353.5867 326.0514,-306 326.0514,-306 326.0514,-306 326.0514,-162 326.0514,-110.5591 280.7778,-66.7654 247.2924,-41.4096"/>
<polygon fill="#000000" stroke="#000000" points="249.1989,-38.4672 239.0678,-35.367 245.0543,-44.1084 249.1989,-38.4672"/>
<g id="a_edge5&#45;headlabel"><a xlink:href="dir_000015_000660.html" target="_top" xlink:title="12">
<text text-anchor="middle" x="253.7768" y="-35.8074" font-family="Helvetica,sans-Serif" font-size="10.00" fill="#000000">12</text>
</a>
</g>
</g>
<!-- dir_2171f7ec022c5423887b07c69b2f5b48 -->
<g id="node9" class="node">
<title>dir_2171f7ec022c5423887b07c69b2f5b48</title>
<g id="a_node9"><a xlink:href="dir_2171f7ec022c5423887b07c69b2f5b48.html" target="_top" xlink:title="DataFormats">
<polygon fill="none" stroke="#ff0000" points="260.0514,-252 180.0514,-252 180.0514,-216 260.0514,-216 260.0514,-252"/>
<text text-anchor="middle" x="220.0514" y="-231.5" font-family="Helvetica,sans-Serif" font-size="10.00" fill="#000000">DataFormats</text>
</a>
</g>
</g>
<!-- dir_80c3b7d4c168c9aa75dd1ba81b9fa387&#45;&gt;dir_2171f7ec022c5423887b07c69b2f5b48 -->
<g id="edge6" class="edge">
<title>dir_80c3b7d4c168c9aa75dd1ba81b9fa387&#45;&gt;dir_2171f7ec022c5423887b07c69b2f5b48</title>
<path fill="none" stroke="#000000" d="M205.9092,-431.6461C215.2054,-422.0709 225.1492,-409.54 230.0514,-396 246.2379,-351.292 236.7417,-295.139 228.3871,-262.0523"/>
<polygon fill="#000000" stroke="#000000" points="231.7085,-260.9237 225.7487,-252.1641 224.9452,-262.7284 231.7085,-260.9237"/>
<g id="a_edge6&#45;headlabel"><a xlink:href="dir_000015_000076.html" target="_top" xlink:title="6">
<text text-anchor="middle" x="235.3785" y="-261.1649" font-family="Helvetica,sans-Serif" font-size="10.00" fill="#000000">6</text>
</a>
</g>
</g>
<!-- dir_b6abd220a8a509af9882e60b4042c567 -->
<g id="node3" class="node">
<title>dir_b6abd220a8a509af9882e60b4042c567</title>
<g id="a_node3"><a xlink:href="dir_b6abd220a8a509af9882e60b4042c567.html" target="_top" xlink:title="test">
<polygon fill="#ffffff" stroke="#000000" points="140.0514,-468 86.0514,-468 86.0514,-432 140.0514,-432 140.0514,-468"/>
<text text-anchor="middle" x="113.0514" y="-447.5" font-family="Helvetica,sans-Serif" font-size="10.00" fill="#000000">test</text>
</a>
</g>
</g>
<!-- dir_b6abd220a8a509af9882e60b4042c567&#45;&gt;dir_9f165b2481dacfe69aa54d326bd5cd47 -->
<g id="edge18" class="edge">
<title>dir_b6abd220a8a509af9882e60b4042c567&#45;&gt;dir_9f165b2481dacfe69aa54d326bd5cd47</title>
<path fill="none" stroke="#000000" d="M85.8124,-439.9958C65.866,-431.3102 39.6565,-416.8277 24.0514,-396 -.7713,-362.8698 .0514,-347.3978 .0514,-306 .0514,-306 .0514,-306 .0514,-234 .0514,-192.6022 7.2528,-181.8363 24.0514,-144 28.2236,-134.6028 33.9193,-124.9833 39.504,-116.5158"/>
<polygon fill="#000000" stroke="#000000" points="42.4582,-118.3962 45.2151,-108.1664 36.6805,-114.4442 42.4582,-118.3962"/>
<g id="a_edge18&#45;headlabel"><a xlink:href="dir_000664_000650.html" target="_top" xlink:title="4">
<text text-anchor="middle" x="42.7723" y="-120.4661" font-family="Helvetica,sans-Serif" font-size="10.00" fill="#000000">4</text>
</a>
</g>
</g>
<!-- dir_0b342c6c6b7d2278121a0bb9c4985063&#45;&gt;dir_4ab6b4cc6a7edbff49100e9123df213f -->
<g id="edge7" class="edge">
<title>dir_0b342c6c6b7d2278121a0bb9c4985063&#45;&gt;dir_4ab6b4cc6a7edbff49100e9123df213f</title>
<path fill="none" stroke="#000000" d="M176.7241,-359.8314C173.0784,-351.8771 168.7206,-342.369 164.6887,-333.5723"/>
<polygon fill="#000000" stroke="#000000" points="167.8392,-332.0456 160.4908,-324.4133 161.4757,-334.9622 167.8392,-332.0456"/>
<g id="a_edge7&#45;headlabel"><a xlink:href="dir_000666_000027.html" target="_top" xlink:title="13">
<text text-anchor="middle" x="171.9179" y="-331.6304" font-family="Helvetica,sans-Serif" font-size="10.00" fill="#000000">13</text>
</a>
</g>
</g>
<!-- dir_0b342c6c6b7d2278121a0bb9c4985063&#45;&gt;dir_2171f7ec022c5423887b07c69b2f5b48 -->
<g id="edge8" class="edge">
<title>dir_0b342c6c6b7d2278121a0bb9c4985063&#45;&gt;dir_2171f7ec022c5423887b07c69b2f5b48</title>
<path fill="none" stroke="#000000" d="M189.4842,-359.7623C195.4802,-335.0928 206.2313,-290.8598 213.2524,-261.9731"/>
<polygon fill="#000000" stroke="#000000" points="216.6938,-262.6334 215.6546,-252.0896 209.8918,-260.9801 216.6938,-262.6334"/>
<g id="a_edge8&#45;headlabel"><a xlink:href="dir_000666_000076.html" target="_top" xlink:title="1">
<text text-anchor="middle" x="218.6038" y="-264.2968" font-family="Helvetica,sans-Serif" font-size="10.00" fill="#000000">1</text>
</a>
</g>
</g>
<!-- dir_4ab6b4cc6a7edbff49100e9123df213f&#45;&gt;dir_ab5a80d4bd40f73f0851d5ff6a022779 -->
<g id="edge9" class="edge">
<title>dir_4ab6b4cc6a7edbff49100e9123df213f&#45;&gt;dir_ab5a80d4bd40f73f0851d5ff6a022779</title>
<path fill="none" stroke="#000000" d="M152.0018,-287.9985C152.1507,-269.7785 152.9338,-240.8297 156.0514,-216 163.862,-153.7938 187.2821,-83.8232 201.2388,-45.9692"/>
<polygon fill="#000000" stroke="#000000" points="204.6763,-46.7697 204.9036,-36.1773 198.1204,-44.316 204.6763,-46.7697"/>
<g id="a_edge9&#45;headlabel"><a xlink:href="dir_000027_000660.html" target="_top" xlink:title="2">
<text text-anchor="middle" x="206.0755" y="-48.6314" font-family="Helvetica,sans-Serif" font-size="10.00" fill="#000000">2</text>
</a>
</g>
</g>
<!-- dir_4ab6b4cc6a7edbff49100e9123df213f&#45;&gt;dir_2171f7ec022c5423887b07c69b2f5b48 -->
<g id="edge10" class="edge">
<title>dir_4ab6b4cc6a7edbff49100e9123df213f&#45;&gt;dir_2171f7ec022c5423887b07c69b2f5b48</title>
<path fill="none" stroke="#000000" d="M163.2583,-287.8314C170.5529,-279.219 180.2302,-268.7851 189.5748,-259.4048"/>
<polygon fill="#000000" stroke="#000000" points="192.2655,-261.6679 196.9458,-252.1628 187.3596,-256.6746 192.2655,-261.6679"/>
<g id="a_edge10&#45;headlabel"><a xlink:href="dir_000027_000076.html" target="_top" xlink:title="2">
<text text-anchor="middle" x="191.6913" y="-263.7124" font-family="Helvetica,sans-Serif" font-size="10.00" fill="#000000">2</text>
</a>
</g>
</g>
<!-- dir_9f165b2481dacfe69aa54d326bd5cd47&#45;&gt;dir_4ab6b4cc6a7edbff49100e9123df213f -->
<g id="edge11" class="edge">
<title>dir_9f165b2481dacfe69aa54d326bd5cd47&#45;&gt;dir_4ab6b4cc6a7edbff49100e9123df213f</title>
<path fill="none" stroke="#000000" d="M60.5853,-108.1268C63.8654,-139.3047 73.5583,-204.3245 100.0514,-252 105.87,-262.4708 114.2263,-272.3926 122.5433,-280.8067"/>
<polygon fill="#000000" stroke="#000000" points="120.1514,-283.3624 129.7774,-287.7886 125.0126,-278.3256 120.1514,-283.3624"/>
<g id="a_edge11&#45;headlabel"><a xlink:href="dir_000650_000027.html" target="_top" xlink:title="6">
<text text-anchor="middle" x="115.5932" y="-280.4091" font-family="Helvetica,sans-Serif" font-size="10.00" fill="#000000">6</text>
</a>
</g>
</g>
<!-- dir_9f165b2481dacfe69aa54d326bd5cd47&#45;&gt;dir_ab5a80d4bd40f73f0851d5ff6a022779 -->
<g id="edge12" class="edge">
<title>dir_9f165b2481dacfe69aa54d326bd5cd47&#45;&gt;dir_ab5a80d4bd40f73f0851d5ff6a022779</title>
<path fill="none" stroke="#000000" d="M86.0526,-77.2936C110.9162,-65.593 148.0053,-48.1394 175.5116,-35.1952"/>
<polygon fill="#000000" stroke="#000000" points="177.2477,-38.2465 184.8056,-30.8216 174.2671,-31.9127 177.2477,-38.2465"/>
<g id="a_edge12&#45;headlabel"><a xlink:href="dir_000650_000660.html" target="_top" xlink:title="35">
<text text-anchor="middle" x="175.2041" y="-39.846" font-family="Helvetica,sans-Serif" font-size="10.00" fill="#000000">35</text>
</a>
</g>
</g>
<!-- dir_9f165b2481dacfe69aa54d326bd5cd47&#45;&gt;dir_2171f7ec022c5423887b07c69b2f5b48 -->
<g id="edge13" class="edge">
<title>dir_9f165b2481dacfe69aa54d326bd5cd47&#45;&gt;dir_2171f7ec022c5423887b07c69b2f5b48</title>
<path fill="none" stroke="#000000" d="M79.2766,-108.0896C107.7353,-133.5434 159.7129,-180.0326 191.9237,-208.8423"/>
<polygon fill="#000000" stroke="#000000" points="189.8737,-211.7045 199.6607,-215.7623 194.5403,-206.4869 189.8737,-211.7045"/>
<g id="a_edge13&#45;headlabel"><a xlink:href="dir_000650_000076.html" target="_top" xlink:title="64">
<text text-anchor="middle" x="185.3016" y="-208.9244" font-family="Helvetica,sans-Serif" font-size="10.00" fill="#000000">64</text>
</a>
</g>
</g>
<!-- dir_051dca18e802f8e9474f2e30d29c04e0&#45;&gt;dir_4ab6b4cc6a7edbff49100e9123df213f -->
<g id="edge14" class="edge">
<title>dir_051dca18e802f8e9474f2e30d29c04e0&#45;&gt;dir_4ab6b4cc6a7edbff49100e9123df213f</title>
<path fill="none" stroke="#000000" d="M195.0181,-180.1615C186.6128,-190.0628 177.0214,-202.939 171.0514,-216 162.1166,-235.5474 157.325,-259.4165 154.7896,-277.6607"/>
<polygon fill="#000000" stroke="#000000" points="151.3049,-277.3217 153.5433,-287.6774 158.2513,-278.1861 151.3049,-277.3217"/>
<g id="a_edge14&#45;headlabel"><a xlink:href="dir_000039_000027.html" target="_top" xlink:title="260">
<text text-anchor="middle" x="148.9311" y="-270.904" font-family="Helvetica,sans-Serif" font-size="10.00" fill="#000000">260</text>
</a>
</g>
</g>
<!-- dir_051dca18e802f8e9474f2e30d29c04e0&#45;&gt;dir_9f165b2481dacfe69aa54d326bd5cd47 -->
<g id="edge15" class="edge">
<title>dir_051dca18e802f8e9474f2e30d29c04e0&#45;&gt;dir_9f165b2481dacfe69aa54d326bd5cd47</title>
<path fill="none" stroke="#000000" d="M179.9776,-146.9064C155.3164,-135.3012 121.2289,-119.26 95.5294,-107.1661"/>
<polygon fill="#000000" stroke="#000000" points="97.0122,-103.9958 86.4737,-102.9046 94.0316,-110.3295 97.0122,-103.9958"/>
<g id="a_edge15&#45;headlabel"><a xlink:href="dir_000039_000650.html" target="_top" xlink:title="634">
<text text-anchor="middle" x="101.4736" y="-100.4573" font-family="Helvetica,sans-Serif" font-size="10.00" fill="#000000">634</text>
</a>
</g>
</g>
<!-- dir_051dca18e802f8e9474f2e30d29c04e0&#45;&gt;dir_ab5a80d4bd40f73f0851d5ff6a022779 -->
<g id="edge16" class="edge">
<title>dir_051dca18e802f8e9474f2e30d29c04e0&#45;&gt;dir_ab5a80d4bd40f73f0851d5ff6a022779</title>
<path fill="none" stroke="#000000" d="M212.0514,-143.7623C212.0514,-119.201 212.0514,-75.2474 212.0514,-46.3541"/>
<polygon fill="#000000" stroke="#000000" points="215.5515,-46.0896 212.0514,-36.0896 208.5515,-46.0897 215.5515,-46.0896"/>
<g id="a_edge16&#45;headlabel"><a xlink:href="dir_000039_000660.html" target="_top" xlink:title="52">
<text text-anchor="middle" x="218.3907" y="-47.1842" font-family="Helvetica,sans-Serif" font-size="10.00" fill="#000000">52</text>
</a>
</g>
</g>
<!-- dir_051dca18e802f8e9474f2e30d29c04e0&#45;&gt;dir_2171f7ec022c5423887b07c69b2f5b48 -->
<g id="edge17" class="edge">
<title>dir_051dca18e802f8e9474f2e30d29c04e0&#45;&gt;dir_2171f7ec022c5423887b07c69b2f5b48</title>
<path fill="none" stroke="#000000" d="M220.0733,-180.4133C221.654,-188.0593 222.8726,-197.1084 223.5083,-205.5726"/>
<polygon fill="#000000" stroke="#000000" points="220.0245,-206.0047 223.9851,-215.8314 227.017,-205.6796 220.0245,-206.0047"/>
<g id="a_edge17&#45;headlabel"><a xlink:href="dir_000039_000076.html" target="_top" xlink:title="1011">
<text text-anchor="middle" x="217.0215" y="-200.0457" font-family="Helvetica,sans-Serif" font-size="10.00" fill="#000000">1011</text>
</a>
</g>
</g>
<!-- dir_2171f7ec022c5423887b07c69b2f5b48&#45;&gt;dir_4ab6b4cc6a7edbff49100e9123df213f -->
<g id="edge19" class="edge">
<title>dir_2171f7ec022c5423887b07c69b2f5b48&#45;&gt;dir_4ab6b4cc6a7edbff49100e9123df213f</title>
<path fill="none" stroke="#000000" d="M208.6371,-252.4133C201.3538,-260.9938 191.7492,-271.3414 182.4771,-280.6463"/>
<polygon fill="#000000" stroke="#000000" points="179.844,-278.3266 175.1631,-287.8314 184.7496,-283.3202 179.844,-278.3266"/>
<g id="a_edge19&#45;headlabel"><a xlink:href="dir_000076_000027.html" target="_top" xlink:title="34">
<text text-anchor="middle" x="180.4185" y="-271.2822" font-family="Helvetica,sans-Serif" font-size="10.00" fill="#000000">34</text>
</a>
</g>
</g>
<!-- dir_2171f7ec022c5423887b07c69b2f5b48&#45;&gt;dir_051dca18e802f8e9474f2e30d29c04e0 -->
<g id="edge20" class="edge">
<title>dir_2171f7ec022c5423887b07c69b2f5b48&#45;&gt;dir_051dca18e802f8e9474f2e30d29c04e0</title>
<path fill="none" stroke="#000000" d="M212.0803,-215.8314C210.4743,-208.131 209.236,-198.9743 208.5937,-190.4166"/>
<polygon fill="#000000" stroke="#000000" points="212.0892,-190.237 208.1213,-180.4133 205.097,-190.5673 212.0892,-190.237"/>
<g id="a_edge20&#45;headlabel"><a xlink:href="dir_000076_000039.html" target="_top" xlink:title="14">
<text text-anchor="middle" x="215.0948" y="-191.1937" font-family="Helvetica,sans-Serif" font-size="10.00" fill="#000000">14</text>
</a>
</g>
</g>
<!-- dir_2171f7ec022c5423887b07c69b2f5b48&#45;&gt;dir_ab5a80d4bd40f73f0851d5ff6a022779 -->
<g id="edge21" class="edge">
<title>dir_2171f7ec022c5423887b07c69b2f5b48&#45;&gt;dir_ab5a80d4bd40f73f0851d5ff6a022779</title>
<path fill="none" stroke="#000000" d="M234.7266,-215.7088C241.7561,-205.772 249.4209,-192.9031 253.0514,-180 266.3538,-132.722 244.1336,-77.1302 227.5549,-44.8947"/>
<polygon fill="#000000" stroke="#000000" points="230.6403,-43.2423 222.8498,-36.0618 224.4621,-46.5333 230.6403,-43.2423"/>
<g id="a_edge21&#45;headlabel"><a xlink:href="dir_000076_000660.html" target="_top" xlink:title="7">
<text text-anchor="middle" x="234.8361" y="-42.58" font-family="Helvetica,sans-Serif" font-size="10.00" fill="#000000">7</text>
</a>
</g>
</g>
</g>
</svg>
        <g id="navigator" transform="translate(0 0)" fill="#404254">
                <rect fill="#f2f5e9" fill-opacity="0.5" stroke="#606060" stroke-width=".5" x="0" y="0" width="60" height="60"/>
                <use id="zoomplus" xlink:href="#zoomPlus" x="17" y="9" onmousedown="handleZoom(evt,'in')"/>
                <use id="zoomminus" xlink:href="#zoomMin" x="42" y="9" onmousedown="handleZoom(evt,'out')"/>
                <use id="reset" xlink:href="#resetDef" x="30" y="36" onmousedown="handleReset()"/>
                <g id="arrowUp" xlink:href="#dirArrow" transform="translate(30 24)" onmousedown="handlePan(0,-1)">
                  <use xlink:href="#rim" fill="#404040">
                        <set attributeName="fill" to="#808080" begin="arrowUp.mouseover" end="arrowUp.mouseout"/>
                  </use>
                  <path fill="none" stroke="white" stroke-width="1.5" d="M0,-3.0v7 M-2.5,-0.5L0,-3.0L2.5,-0.5"/>
                </g>
                <g id="arrowRight" xlink:href="#dirArrow" transform="rotate(90) translate(36 -43)" onmousedown="handlePan(1,0)">
                  <use xlink:href="#rim" fill="#404040">
                        <set attributeName="fill" to="#808080" begin="arrowRight.mouseover" end="arrowRight.mouseout"/>
                  </use>
                  <path fill="none" stroke="white" stroke-width="1.5" d="M0,-3.0v7 M-2.5,-0.5L0,-3.0L2.5,-0.5"/>
                </g>
                <g id="arrowDown" xlink:href="#dirArrow" transform="rotate(180) translate(-30 -48)" onmousedown="handlePan(0,1)">
                  <use xlink:href="#rim" fill="#404040">
                        <set attributeName="fill" to="#808080" begin="arrowDown.mouseover" end="arrowDown.mouseout"/>
                  </use>
                  <path fill="none" stroke="white" stroke-width="1.5" d="M0,-3.0v7 M-2.5,-0.5L0,-3.0L2.5,-0.5"/>
                </g>
                <g id="arrowLeft" xlink:href="#dirArrow" transform="rotate(270) translate(-36 17)" onmousedown="handlePan(-1,0)">
                  <use xlink:href="#rim" fill="#404040">
                        <set attributeName="fill" to="#808080" begin="arrowLeft.mouseover" end="arrowLeft.mouseout"/>
                  </use>
                  <path fill="none" stroke="white" stroke-width="1.5" d="M0,-3.0v7 M-2.5,-0.5L0,-3.0L2.5,-0.5"/>
                </g>
        </g>
        <svg viewBox="0 0 15 15" width="100%" height="30px" preserveAspectRatio="xMaxYMin meet">
         <g id="arrow_out" transform="scale(0.3 0.3)">
          <a xlink:href="dir_a8f73827fca2a0188d35dc47dc5b0ea3_dep_org.svg" target="_base">
           <rect id="button" ry="5" rx="5" y="6" x="6" height="38" width="38"
                fill="#f2f5e9" fill-opacity="0.5" stroke="#606060" stroke-width="1.0"/>
           <path id="arrow"
             d="M 11.500037,31.436501 C 11.940474,20.09759 22.043105,11.32322 32.158766,21.979434 L 37.068811,17.246167 C 37.068811,17.246167 37.088388,32 37.088388,32 L 22.160133,31.978069 C 22.160133,31.978069 26.997745,27.140456 26.997745,27.140456 C 18.528582,18.264221 13.291696,25.230495 11.500037,31.436501 z"
             style="fill:#404040;"/>
          </a>
         </g>
        </svg>
</svg>
