<?xml version="1.0" encoding="UTF-8" standalone="no"?>
<!DOCTYPE svg PUBLIC "-//W3C//DTD SVG 1.1//EN"
 "http://www.w3.org/Graphics/SVG/1.1/DTD/svg11.dtd">
<!-- Generated by graphviz version 2.40.1 (20161225.0304)
 -->
<!-- Title: /home/travis/build/AliceO2Group/AliceO2/Detectors/MUON/MID/Simulation/src Pages: 1 -->
<svg width="221pt" height="439pt"
 viewBox="0.00 0.00 221.00 439.00" xmlns="http://www.w3.org/2000/svg" xmlns:xlink="http://www.w3.org/1999/xlink">
<g id="graph0" class="graph" transform="scale(1 1) rotate(0) translate(4 435)">
<title>/home/travis/build/AliceO2Group/AliceO2/Detectors/MUON/MID/Simulation/src</title>
<g id="clust1" class="cluster">
<title>clusterdir_2810eaf0225063d73e08d8eeeb8a37b8</title>
<g id="a_clust1"><a xlink:href="dir_2810eaf0225063d73e08d8eeeb8a37b8.html" target="_top" xlink:title="Simulation">
<polygon fill="#ddddee" stroke="#000000" points="102,-352 102,-423 172,-423 172,-352 102,-352"/>
<text text-anchor="middle" x="137" y="-411" font-family="Helvetica,sans-Serif" font-size="10.00" fill="#000000">Simulation</text>
</a>
</g>
</g>
<!-- dir_d53d2501428a2ffe5f675519a4556368 -->
<g id="node1" class="node">
<title>dir_d53d2501428a2ffe5f675519a4556368</title>
<g id="a_node1"><a xlink:href="dir_d53d2501428a2ffe5f675519a4556368.html" target="_top" xlink:title="src">
<polygon fill="#eeeeff" stroke="#000000" points="164,-396 110,-396 110,-360 164,-360 164,-396"/>
<text text-anchor="middle" x="137" y="-375.5" font-family="Helvetica,sans-Serif" font-size="10.00" fill="#000000">src</text>
</a>
</g>
</g>
<!-- dir_1bad6cd644632a70bf093df362196556 -->
<g id="node2" class="node">
<title>dir_1bad6cd644632a70bf093df362196556</title>
<g id="a_node2"><a xlink:href="dir_1bad6cd644632a70bf093df362196556.html" target="_top" xlink:title="include">
<polygon fill="none" stroke="#ff0000" points="54,-324 0,-324 0,-288 54,-288 54,-324"/>
<text text-anchor="middle" x="27" y="-303.5" font-family="Helvetica,sans-Serif" font-size="10.00" fill="#000000">include</text>
</a>
</g>
</g>
<!-- dir_d53d2501428a2ffe5f675519a4556368&#45;&gt;dir_1bad6cd644632a70bf093df362196556 -->
<g id="edge8" class="edge">
<title>dir_d53d2501428a2ffe5f675519a4556368&#45;&gt;dir_1bad6cd644632a70bf093df362196556</title>
<path fill="none" stroke="#000000" d="M109.809,-360.2022C95.6622,-350.9425 78.1843,-339.5025 62.937,-329.5224"/>
<polygon fill="#000000" stroke="#000000" points="64.5433,-326.3907 54.2594,-323.8425 60.7097,-332.2476 64.5433,-326.3907"/>
<g id="a_edge8&#45;headlabel"><a xlink:href="dir_000216_000180.html" target="_top" xlink:title="16">
<text text-anchor="middle" x="69.1058" y="-323.4837" font-family="Helvetica,sans-Serif" font-size="10.00" fill="#000000">16</text>
</a>
</g>
</g>
<!-- dir_4ab6b4cc6a7edbff49100e9123df213f -->
<g id="node3" class="node">
<title>dir_4ab6b4cc6a7edbff49100e9123df213f</title>
<g id="a_node3"><a xlink:href="dir_4ab6b4cc6a7edbff49100e9123df213f.html" target="_top" xlink:title="Common">
<polygon fill="none" stroke="#ff0000" points="112.5,-180 51.5,-180 51.5,-144 112.5,-144 112.5,-180"/>
<text text-anchor="middle" x="82" y="-159.5" font-family="Helvetica,sans-Serif" font-size="10.00" fill="#000000">Common</text>
</a>
</g>
</g>
<!-- dir_d53d2501428a2ffe5f675519a4556368&#45;&gt;dir_4ab6b4cc6a7edbff49100e9123df213f -->
<g id="edge9" class="edge">
<title>dir_d53d2501428a2ffe5f675519a4556368&#45;&gt;dir_4ab6b4cc6a7edbff49100e9123df213f</title>
<path fill="none" stroke="#000000" d="M137.5863,-359.8694C137.99,-329.2324 136.2761,-265.7005 118,-216 114.4789,-206.4246 108.9449,-196.8673 103.2625,-188.5132"/>
<polygon fill="#000000" stroke="#000000" points="106.0381,-186.3778 97.3651,-180.2925 100.3503,-190.4581 106.0381,-186.3778"/>
<g id="a_edge9&#45;headlabel"><a xlink:href="dir_000216_000027.html" target="_top" xlink:title="1">
<text text-anchor="middle" x="110.4404" y="-185.1436" font-family="Helvetica,sans-Serif" font-size="10.00" fill="#000000">1</text>
</a>
</g>
</g>
<!-- dir_37c90836491b695b472bf98d1be8336b -->
<g id="node4" class="node">
<title>dir_37c90836491b695b472bf98d1be8336b</title>
<g id="a_node4"><a xlink:href="dir_37c90836491b695b472bf98d1be8336b.html" target="_top" xlink:title="Base">
<polygon fill="none" stroke="#ff0000" points="109,-36 55,-36 55,0 109,0 109,-36"/>
<text text-anchor="middle" x="82" y="-15.5" font-family="Helvetica,sans-Serif" font-size="10.00" fill="#000000">Base</text>
</a>
</g>
</g>
<!-- dir_d53d2501428a2ffe5f675519a4556368&#45;&gt;dir_37c90836491b695b472bf98d1be8336b -->
<g id="edge10" class="edge">
<title>dir_d53d2501428a2ffe5f675519a4556368&#45;&gt;dir_37c90836491b695b472bf98d1be8336b</title>
<path fill="none" stroke="#000000" d="M154.2456,-359.6186C176.6688,-333.719 213,-284.0348 213,-234 213,-234 213,-234 213,-162 213,-105.3673 156.8738,-61.1773 118.097,-37.405"/>
<polygon fill="#000000" stroke="#000000" points="119.5282,-34.1842 109.1433,-32.0854 115.9527,-40.2022 119.5282,-34.1842"/>
<g id="a_edge10&#45;headlabel"><a xlink:href="dir_000216_000274.html" target="_top" xlink:title="2">
<text text-anchor="middle" x="124.0687" y="-31.0792" font-family="Helvetica,sans-Serif" font-size="10.00" fill="#000000">2</text>
</a>
</g>
</g>
<!-- dir_b5547b1068d53f0f904ee5a2a84992af -->
<g id="node5" class="node">
<title>dir_b5547b1068d53f0f904ee5a2a84992af</title>
<g id="a_node5"><a xlink:href="dir_b5547b1068d53f0f904ee5a2a84992af.html" target="_top" xlink:title="Base">
<polygon fill="none" stroke="#ff0000" points="109,-252 55,-252 55,-216 109,-216 109,-252"/>
<text text-anchor="middle" x="82" y="-231.5" font-family="Helvetica,sans-Serif" font-size="10.00" fill="#000000">Base</text>
</a>
</g>
</g>
<!-- dir_d53d2501428a2ffe5f675519a4556368&#45;&gt;dir_b5547b1068d53f0f904ee5a2a84992af -->
<g id="edge11" class="edge">
<title>dir_d53d2501428a2ffe5f675519a4556368&#45;&gt;dir_b5547b1068d53f0f904ee5a2a84992af</title>
<path fill="none" stroke="#000000" d="M130.0342,-359.7623C120.5705,-334.9846 103.5689,-290.4714 92.5393,-261.5939"/>
<polygon fill="#000000" stroke="#000000" points="95.747,-260.1826 88.9092,-252.0896 89.2077,-262.6803 95.747,-260.1826"/>
<g id="a_edge11&#45;headlabel"><a xlink:href="dir_000216_000544.html" target="_top" xlink:title="2">
<text text-anchor="middle" x="99.6819" y="-260.0275" font-family="Helvetica,sans-Serif" font-size="10.00" fill="#000000">2</text>
</a>
</g>
</g>
<!-- dir_2171f7ec022c5423887b07c69b2f5b48 -->
<g id="node6" class="node">
<title>dir_2171f7ec022c5423887b07c69b2f5b48</title>
<g id="a_node6"><a xlink:href="dir_2171f7ec022c5423887b07c69b2f5b48.html" target="_top" xlink:title="DataFormats">
<polygon fill="none" stroke="#ff0000" points="122,-108 42,-108 42,-72 122,-72 122,-108"/>
<text text-anchor="middle" x="82" y="-87.5" font-family="Helvetica,sans-Serif" font-size="10.00" fill="#000000">DataFormats</text>
</a>
</g>
</g>
<!-- dir_d53d2501428a2ffe5f675519a4556368&#45;&gt;dir_2171f7ec022c5423887b07c69b2f5b48 -->
<g id="edge12" class="edge">
<title>dir_d53d2501428a2ffe5f675519a4556368&#45;&gt;dir_2171f7ec022c5423887b07c69b2f5b48</title>
<path fill="none" stroke="#000000" d="M142.5446,-359.7012C145.3965,-349.3353 148.5681,-336.0653 150,-324 159.5494,-243.533 154.1951,-217.9203 121,-144 116.6653,-134.3472 110.4469,-124.6961 104.2452,-116.2787"/>
<polygon fill="#000000" stroke="#000000" points="106.9918,-114.1088 98.1194,-108.3181 101.4442,-118.3778 106.9918,-114.1088"/>
<g id="a_edge12&#45;headlabel"><a xlink:href="dir_000216_000076.html" target="_top" xlink:title="3">
<text text-anchor="middle" x="111.4341" y="-112.7261" font-family="Helvetica,sans-Serif" font-size="10.00" fill="#000000">3</text>
</a>
</g>
</g>
<!-- dir_1bad6cd644632a70bf093df362196556&#45;&gt;dir_4ab6b4cc6a7edbff49100e9123df213f -->
<g id="edge1" class="edge">
<title>dir_1bad6cd644632a70bf093df362196556&#45;&gt;dir_4ab6b4cc6a7edbff49100e9123df213f</title>
<path fill="none" stroke="#000000" d="M28.7905,-287.8083C31.0888,-269.1875 36.0345,-239.7008 46,-216 49.9544,-206.5953 55.6152,-197.0879 61.2805,-188.727"/>
<polygon fill="#000000" stroke="#000000" points="64.1959,-190.6664 67.1147,-180.4815 58.4816,-186.6231 64.1959,-190.6664"/>
<g id="a_edge1&#45;headlabel"><a xlink:href="dir_000180_000027.html" target="_top" xlink:title="2">
<text text-anchor="middle" x="64.4374" y="-192.7406" font-family="Helvetica,sans-Serif" font-size="10.00" fill="#000000">2</text>
</a>
</g>
</g>
<!-- dir_1bad6cd644632a70bf093df362196556&#45;&gt;dir_37c90836491b695b472bf98d1be8336b -->
<g id="edge2" class="edge">
<title>dir_1bad6cd644632a70bf093df362196556&#45;&gt;dir_37c90836491b695b472bf98d1be8336b</title>
<path fill="none" stroke="#000000" d="M21.9975,-287.957C11.7225,-247.2795 -8.1388,-146.1881 25,-72 29.945,-60.9296 38.3346,-51.0332 47.1783,-42.8314"/>
<polygon fill="#000000" stroke="#000000" points="49.7182,-45.2621 54.9917,-36.073 45.1388,-39.9678 49.7182,-45.2621"/>
<g id="a_edge2&#45;headlabel"><a xlink:href="dir_000180_000274.html" target="_top" xlink:title="1">
<text text-anchor="middle" x="48.8569" y="-47.2611" font-family="Helvetica,sans-Serif" font-size="10.00" fill="#000000">1</text>
</a>
</g>
</g>
<!-- dir_1bad6cd644632a70bf093df362196556&#45;&gt;dir_b5547b1068d53f0f904ee5a2a84992af -->
<g id="edge3" class="edge">
<title>dir_1bad6cd644632a70bf093df362196556&#45;&gt;dir_b5547b1068d53f0f904ee5a2a84992af</title>
<path fill="none" stroke="#000000" d="M40.8788,-287.8314C47.2136,-279.5386 54.8384,-269.557 61.7926,-260.4533"/>
<polygon fill="#000000" stroke="#000000" points="64.6452,-262.4847 67.9343,-252.4133 59.0825,-258.2353 64.6452,-262.4847"/>
<g id="a_edge3&#45;headlabel"><a xlink:href="dir_000180_000544.html" target="_top" xlink:title="5">
<text text-anchor="middle" x="64.7195" y="-264.5647" font-family="Helvetica,sans-Serif" font-size="10.00" fill="#000000">5</text>
</a>
</g>
</g>
<!-- dir_1bad6cd644632a70bf093df362196556&#45;&gt;dir_2171f7ec022c5423887b07c69b2f5b48 -->
<g id="edge4" class="edge">
<title>dir_1bad6cd644632a70bf093df362196556&#45;&gt;dir_2171f7ec022c5423887b07c69b2f5b48</title>
<path fill="none" stroke="#000000" d="M25.3289,-287.6943C23.2298,-256.7993 22.0276,-192.897 42,-144 46.0366,-134.1174 52.2977,-124.4008 58.6774,-115.9941"/>
<polygon fill="#000000" stroke="#000000" points="61.5055,-118.0617 65.0187,-108.0663 56.0391,-113.6892 61.5055,-118.0617"/>
<g id="a_edge4&#45;headlabel"><a xlink:href="dir_000180_000076.html" target="_top" xlink:title="18">
<text text-anchor="middle" x="61.4774" y="-120.1423" font-family="Helvetica,sans-Serif" font-size="10.00" fill="#000000">18</text>
</a>
</g>
</g>
<!-- dir_4ab6b4cc6a7edbff49100e9123df213f&#45;&gt;dir_2171f7ec022c5423887b07c69b2f5b48 -->
<g id="edge5" class="edge">
<title>dir_4ab6b4cc6a7edbff49100e9123df213f&#45;&gt;dir_2171f7ec022c5423887b07c69b2f5b48</title>
<path fill="none" stroke="#000000" d="M76.0476,-143.8314C75.2972,-136.131 75.0763,-126.9743 75.3849,-118.4166"/>
<polygon fill="#000000" stroke="#000000" points="78.8792,-118.6161 76.024,-108.4133 71.8935,-118.1697 78.8792,-118.6161"/>
<g id="a_edge5&#45;headlabel"><a xlink:href="dir_000027_000076.html" target="_top" xlink:title="2">
<text text-anchor="middle" x="81.4836" y="-119.8844" font-family="Helvetica,sans-Serif" font-size="10.00" fill="#000000">2</text>
</a>
</g>
</g>
<!-- dir_37c90836491b695b472bf98d1be8336b&#45;&gt;dir_4ab6b4cc6a7edbff49100e9123df213f -->
<g id="edge6" class="edge">
<title>dir_37c90836491b695b472bf98d1be8336b&#45;&gt;dir_4ab6b4cc6a7edbff49100e9123df213f</title>
<path fill="none" stroke="#000000" d="M59.325,-36.0091C49.2112,-45.5028 38.3802,-58.0645 33,-72 27.2373,-86.9262 27.2373,-93.0738 33,-108 37.1192,-118.6694 44.4336,-128.5335 52.1749,-136.8319"/>
<polygon fill="#000000" stroke="#000000" points="49.7819,-139.3887 59.325,-143.9909 54.7348,-134.442 49.7819,-139.3887"/>
<g id="a_edge6&#45;headlabel"><a xlink:href="dir_000274_000027.html" target="_top" xlink:title="16">
<text text-anchor="middle" x="45.2328" y="-136.3517" font-family="Helvetica,sans-Serif" font-size="10.00" fill="#000000">16</text>
</a>
</g>
</g>
<!-- dir_37c90836491b695b472bf98d1be8336b&#45;&gt;dir_2171f7ec022c5423887b07c69b2f5b48 -->
<g id="edge7" class="edge">
<title>dir_37c90836491b695b472bf98d1be8336b&#45;&gt;dir_2171f7ec022c5423887b07c69b2f5b48</title>
<path fill="none" stroke="#000000" d="M87.976,-36.4133C88.7071,-44.0593 88.9203,-53.1084 88.6155,-61.5726"/>
<polygon fill="#000000" stroke="#000000" points="85.1048,-61.6264 87.9524,-71.8314 92.0902,-62.078 85.1048,-61.6264"/>
<g id="a_edge7&#45;headlabel"><a xlink:href="dir_000274_000076.html" target="_top" xlink:title="10">
<text text-anchor="middle" x="82.5032" y="-55.3562" font-family="Helvetica,sans-Serif" font-size="10.00" fill="#000000">10</text>
</a>
</g>
</g>
<!-- dir_b5547b1068d53f0f904ee5a2a84992af&#45;&gt;dir_4ab6b4cc6a7edbff49100e9123df213f -->
<g id="edge13" class="edge">
<title>dir_b5547b1068d53f0f904ee5a2a84992af&#45;&gt;dir_4ab6b4cc6a7edbff49100e9123df213f</title>
<path fill="none" stroke="#000000" d="M82,-215.8314C82,-208.131 82,-198.9743 82,-190.4166"/>
<polygon fill="#000000" stroke="#000000" points="85.5001,-190.4132 82,-180.4133 78.5001,-190.4133 85.5001,-190.4132"/>
<g id="a_edge13&#45;headlabel"><a xlink:href="dir_000544_000027.html" target="_top" xlink:title="1">
<text text-anchor="middle" x="88.3393" y="-191.5079" font-family="Helvetica,sans-Serif" font-size="10.00" fill="#000000">1</text>
</a>
</g>
</g>
<!-- dir_2171f7ec022c5423887b07c69b2f5b48&#45;&gt;dir_4ab6b4cc6a7edbff49100e9123df213f -->
<g id="edge14" class="edge">
<title>dir_2171f7ec022c5423887b07c69b2f5b48&#45;&gt;dir_4ab6b4cc6a7edbff49100e9123df213f</title>
<path fill="none" stroke="#000000" d="M87.976,-108.4133C88.7071,-116.0593 88.9203,-125.1084 88.6155,-133.5726"/>
<polygon fill="#000000" stroke="#000000" points="85.1048,-133.6264 87.9524,-143.8314 92.0902,-134.078 85.1048,-133.6264"/>
<g id="a_edge14&#45;headlabel"><a xlink:href="dir_000076_000027.html" target="_top" xlink:title="34">
<text text-anchor="middle" x="82.5032" y="-127.3562" font-family="Helvetica,sans-Serif" font-size="10.00" fill="#000000">34</text>
</a>
</g>
</g>
<!-- dir_2171f7ec022c5423887b07c69b2f5b48&#45;&gt;dir_37c90836491b695b472bf98d1be8336b -->
<g id="edge15" class="edge">
<title>dir_2171f7ec022c5423887b07c69b2f5b48&#45;&gt;dir_37c90836491b695b472bf98d1be8336b</title>
<path fill="none" stroke="#000000" d="M76.0476,-71.8314C75.2972,-64.131 75.0763,-54.9743 75.3849,-46.4166"/>
<polygon fill="#000000" stroke="#000000" points="78.8792,-46.6161 76.024,-36.4133 71.8935,-46.1697 78.8792,-46.6161"/>
<g id="a_edge15&#45;headlabel"><a xlink:href="dir_000076_000274.html" target="_top" xlink:title="1">
<text text-anchor="middle" x="81.4836" y="-47.8844" font-family="Helvetica,sans-Serif" font-size="10.00" fill="#000000">1</text>
</a>
</g>
</g>
</g>
</svg>
