<?xml version="1.0" encoding="UTF-8" standalone="no"?>
<!DOCTYPE svg PUBLIC "-//W3C//DTD SVG 1.1//EN"
 "http://www.w3.org/Graphics/SVG/1.1/DTD/svg11.dtd">
<!-- Generated by graphviz version 2.40.1 (20161225.0304)
 -->
<!-- Title: /home/travis/build/AliceO2Group/AliceO2/Detectors/TPC/calibration Pages: 1 -->
<svg width="628pt" height="519pt"
 viewBox="0.00 0.00 628.00 519.00" xmlns="http://www.w3.org/2000/svg" xmlns:xlink="http://www.w3.org/1999/xlink">
<g id="graph0" class="graph" transform="scale(1 1) rotate(0) translate(4 515)">
<title>/home/travis/build/AliceO2Group/AliceO2/Detectors/TPC/calibration</title>
<g id="clust1" class="cluster">
<title>clusterdir_a597e8e061b11201a1dff411feb10d0b</title>
<g id="a_clust1"><a xlink:href="dir_a597e8e061b11201a1dff411feb10d0b.html" target="_top" xlink:title="TPC">
<polygon fill="#ddddee" stroke="#000000" points="274,-344 274,-503 612,-503 612,-344 274,-344"/>
<text text-anchor="middle" x="443" y="-491" font-family="Helvetica,sans-Serif" font-size="10.00" fill="#000000">TPC</text>
</a>
</g>
</g>
<g id="clust2" class="cluster">
<title>clusterdir_4995562033b321477cfe3c34a14a5189</title>
<g id="a_clust2"><a xlink:href="dir_4995562033b321477cfe3c34a14a5189.html" target="_top">
<polygon fill="#eeeeff" stroke="#000000" points="282,-352 282,-476 604,-476 604,-352 282,-352"/>
</a>
</g>
</g>
<!-- dir_4995562033b321477cfe3c34a14a5189 -->
<g id="node1" class="node">
<title>dir_4995562033b321477cfe3c34a14a5189</title>
<text text-anchor="middle" x="562" y="-447.5" font-family="Helvetica,sans-Serif" font-size="10.00" fill="#000000">calibration</text>
</g>
<!-- dir_2168d348e8784d0b706f7ff616321664 -->
<g id="node2" class="node">
<title>dir_2168d348e8784d0b706f7ff616321664</title>
<g id="a_node2"><a xlink:href="dir_2168d348e8784d0b706f7ff616321664.html" target="_top" xlink:title="include">
<polygon fill="#ffffff" stroke="#ff0000" points="369,-396 315,-396 315,-360 369,-360 369,-396"/>
<text text-anchor="middle" x="342" y="-375.5" font-family="Helvetica,sans-Serif" font-size="10.00" fill="#000000">include</text>
</a>
</g>
</g>
<!-- dir_677b030cc750909e4cd27413873678d8 -->
<g id="node6" class="node">
<title>dir_677b030cc750909e4cd27413873678d8</title>
<g id="a_node6"><a xlink:href="dir_677b030cc750909e4cd27413873678d8.html" target="_top" xlink:title="base">
<polygon fill="none" stroke="#ff0000" points="424,-324 370,-324 370,-288 424,-288 424,-324"/>
<text text-anchor="middle" x="397" y="-303.5" font-family="Helvetica,sans-Serif" font-size="10.00" fill="#000000">base</text>
</a>
</g>
</g>
<!-- dir_2168d348e8784d0b706f7ff616321664&#45;&gt;dir_677b030cc750909e4cd27413873678d8 -->
<g id="edge26" class="edge">
<title>dir_2168d348e8784d0b706f7ff616321664&#45;&gt;dir_677b030cc750909e4cd27413873678d8</title>
<path fill="none" stroke="#000000" d="M355.8788,-359.8314C362.2136,-351.5386 369.8384,-341.557 376.7926,-332.4533"/>
<polygon fill="#000000" stroke="#000000" points="379.6452,-334.4847 382.9343,-324.4133 374.0825,-330.2353 379.6452,-334.4847"/>
<g id="a_edge26&#45;headlabel"><a xlink:href="dir_000584_000050.html" target="_top" xlink:title="14">
<text text-anchor="middle" x="379.7195" y="-336.5647" font-family="Helvetica,sans-Serif" font-size="10.00" fill="#000000">14</text>
</a>
</g>
</g>
<!-- dir_4ab6b4cc6a7edbff49100e9123df213f -->
<g id="node7" class="node">
<title>dir_4ab6b4cc6a7edbff49100e9123df213f</title>
<g id="a_node7"><a xlink:href="dir_4ab6b4cc6a7edbff49100e9123df213f.html" target="_top" xlink:title="Common">
<polygon fill="none" stroke="#ff0000" points="220.5,-252 159.5,-252 159.5,-216 220.5,-216 220.5,-252"/>
<text text-anchor="middle" x="190" y="-231.5" font-family="Helvetica,sans-Serif" font-size="10.00" fill="#000000">Common</text>
</a>
</g>
</g>
<!-- dir_2168d348e8784d0b706f7ff616321664&#45;&gt;dir_4ab6b4cc6a7edbff49100e9123df213f -->
<g id="edge27" class="edge">
<title>dir_2168d348e8784d0b706f7ff616321664&#45;&gt;dir_4ab6b4cc6a7edbff49100e9123df213f</title>
<path fill="none" stroke="#000000" d="M322.7491,-359.7623C295.7954,-334.2272 246.7167,-287.7316 216.3789,-258.9906"/>
<polygon fill="#000000" stroke="#000000" points="218.7613,-256.4263 209.0946,-252.0896 213.947,-261.5079 218.7613,-256.4263"/>
<g id="a_edge27&#45;headlabel"><a xlink:href="dir_000584_000027.html" target="_top" xlink:title="7">
<text text-anchor="middle" x="223.3234" y="-254.3372" font-family="Helvetica,sans-Serif" font-size="10.00" fill="#000000">7</text>
</a>
</g>
</g>
<!-- dir_a5de047958dd458e809773c6ffaa8478 -->
<g id="node8" class="node">
<title>dir_a5de047958dd458e809773c6ffaa8478</title>
<g id="a_node8"><a xlink:href="dir_a5de047958dd458e809773c6ffaa8478.html" target="_top" xlink:title="reconstruction">
<polygon fill="none" stroke="#ff0000" points="266,-396 180,-396 180,-360 266,-360 266,-396"/>
<text text-anchor="middle" x="223" y="-375.5" font-family="Helvetica,sans-Serif" font-size="10.00" fill="#000000">reconstruction</text>
</a>
</g>
</g>
<!-- dir_2168d348e8784d0b706f7ff616321664&#45;&gt;dir_a5de047958dd458e809773c6ffaa8478 -->
<g id="edge28" class="edge">
<title>dir_2168d348e8784d0b706f7ff616321664&#45;&gt;dir_a5de047958dd458e809773c6ffaa8478</title>
<path fill="none" stroke="#000000" d="M314.7703,-378C302.0033,-378 289.2363,-378 276.4693,-378"/>
<polygon fill="#000000" stroke="#000000" points="276.2305,-374.5001 266.2305,-378 276.2304,-381.5001 276.2305,-374.5001"/>
<g id="a_edge28&#45;headlabel"><a xlink:href="dir_000584_000364.html" target="_top" xlink:title="4">
<text text-anchor="middle" x="279.8251" y="-369.1607" font-family="Helvetica,sans-Serif" font-size="10.00" fill="#000000">4</text>
</a>
</g>
</g>
<!-- dir_bcbb2cf9a3d3d83e5515c82071a07177 -->
<g id="node10" class="node">
<title>dir_bcbb2cf9a3d3d83e5515c82071a07177</title>
<g id="a_node10"><a xlink:href="dir_bcbb2cf9a3d3d83e5515c82071a07177.html" target="_top" xlink:title="Framework">
<polygon fill="none" stroke="#ff0000" points="298.5,-180 227.5,-180 227.5,-144 298.5,-144 298.5,-180"/>
<text text-anchor="middle" x="263" y="-159.5" font-family="Helvetica,sans-Serif" font-size="10.00" fill="#000000">Framework</text>
</a>
</g>
</g>
<!-- dir_2168d348e8784d0b706f7ff616321664&#45;&gt;dir_bcbb2cf9a3d3d83e5515c82071a07177 -->
<g id="edge29" class="edge">
<title>dir_2168d348e8784d0b706f7ff616321664&#45;&gt;dir_bcbb2cf9a3d3d83e5515c82071a07177</title>
<path fill="none" stroke="#000000" d="M335.4004,-359.9555C321.5754,-322.1556 289.4981,-234.4506 273.0785,-189.5564"/>
<polygon fill="#000000" stroke="#000000" points="276.3584,-188.3344 269.6364,-180.1451 269.7843,-190.7389 276.3584,-188.3344"/>
<g id="a_edge29&#45;headlabel"><a xlink:href="dir_000584_000013.html" target="_top" xlink:title="1">
<text text-anchor="middle" x="280.2596" y="-188.2351" font-family="Helvetica,sans-Serif" font-size="10.00" fill="#000000">1</text>
</a>
</g>
</g>
<!-- dir_2171f7ec022c5423887b07c69b2f5b48 -->
<g id="node11" class="node">
<title>dir_2171f7ec022c5423887b07c69b2f5b48</title>
<g id="a_node11"><a xlink:href="dir_2171f7ec022c5423887b07c69b2f5b48.html" target="_top" xlink:title="DataFormats">
<polygon fill="none" stroke="#ff0000" points="335,-108 255,-108 255,-72 335,-72 335,-108"/>
<text text-anchor="middle" x="295" y="-87.5" font-family="Helvetica,sans-Serif" font-size="10.00" fill="#000000">DataFormats</text>
</a>
</g>
</g>
<!-- dir_2168d348e8784d0b706f7ff616321664&#45;&gt;dir_2171f7ec022c5423887b07c69b2f5b48 -->
<g id="edge30" class="edge">
<title>dir_2168d348e8784d0b706f7ff616321664&#45;&gt;dir_2171f7ec022c5423887b07c69b2f5b48</title>
<path fill="none" stroke="#000000" d="M369.3047,-370.0514C390.8506,-362.1773 419.4557,-347.7867 433,-324 440.917,-310.096 436.4564,-303.6222 433,-288 417.751,-219.0784 410.2771,-198.975 366,-144 356.9326,-132.7418 345.0381,-122.5143 333.5836,-114.0626"/>
<polygon fill="#000000" stroke="#000000" points="335.5485,-111.1652 325.3675,-108.233 331.4978,-116.8742 335.5485,-111.1652"/>
<g id="a_edge30&#45;headlabel"><a xlink:href="dir_000584_000076.html" target="_top" xlink:title="8">
<text text-anchor="middle" x="340.1231" y="-108.4297" font-family="Helvetica,sans-Serif" font-size="10.00" fill="#000000">8</text>
</a>
</g>
</g>
<!-- dir_f282d1da34b97e1c0e067a2536157d8a -->
<g id="node3" class="node">
<title>dir_f282d1da34b97e1c0e067a2536157d8a</title>
<g id="a_node3"><a xlink:href="dir_f282d1da34b97e1c0e067a2536157d8a.html" target="_top" xlink:title="run">
<polygon fill="#ffffff" stroke="#000000" points="344,-468 290,-468 290,-432 344,-432 344,-468"/>
<text text-anchor="middle" x="317" y="-447.5" font-family="Helvetica,sans-Serif" font-size="10.00" fill="#000000">run</text>
</a>
</g>
</g>
<!-- dir_f282d1da34b97e1c0e067a2536157d8a&#45;&gt;dir_2168d348e8784d0b706f7ff616321664 -->
<g id="edge20" class="edge">
<title>dir_f282d1da34b97e1c0e067a2536157d8a&#45;&gt;dir_2168d348e8784d0b706f7ff616321664</title>
<path fill="none" stroke="#000000" d="M323.3086,-431.8314C326.0117,-424.0463 329.2316,-414.7729 332.231,-406.1347"/>
<polygon fill="#000000" stroke="#000000" points="335.6327,-407.0081 335.6065,-396.4133 329.02,-404.7119 335.6327,-407.0081"/>
<g id="a_edge20&#45;headlabel"><a xlink:href="dir_000586_000584.html" target="_top" xlink:title="1">
<text text-anchor="middle" x="337.1359" y="-408.8351" font-family="Helvetica,sans-Serif" font-size="10.00" fill="#000000">1</text>
</a>
</g>
</g>
<!-- dir_f282d1da34b97e1c0e067a2536157d8a&#45;&gt;dir_4ab6b4cc6a7edbff49100e9123df213f -->
<g id="edge18" class="edge">
<title>dir_f282d1da34b97e1c0e067a2536157d8a&#45;&gt;dir_4ab6b4cc6a7edbff49100e9123df213f</title>
<path fill="none" stroke="#000000" d="M289.8798,-447.3429C237.0158,-441.5439 123.3108,-425.8225 100,-396 70.4397,-358.1822 76.3505,-329.7696 100,-288 110.8291,-268.8737 131.434,-255.7827 150.1984,-247.2858"/>
<polygon fill="#000000" stroke="#000000" points="151.6409,-250.4761 159.4954,-243.3657 148.9212,-244.026 151.6409,-250.4761"/>
<g id="a_edge18&#45;headlabel"><a xlink:href="dir_000586_000027.html" target="_top" xlink:title="1">
<text text-anchor="middle" x="149.4318" y="-251.9888" font-family="Helvetica,sans-Serif" font-size="10.00" fill="#000000">1</text>
</a>
</g>
</g>
<!-- dir_f282d1da34b97e1c0e067a2536157d8a&#45;&gt;dir_a5de047958dd458e809773c6ffaa8478 -->
<g id="edge19" class="edge">
<title>dir_f282d1da34b97e1c0e067a2536157d8a&#45;&gt;dir_a5de047958dd458e809773c6ffaa8478</title>
<path fill="none" stroke="#000000" d="M293.2798,-431.8314C281.5906,-422.8779 267.3312,-411.9558 254.7191,-402.2955"/>
<polygon fill="#000000" stroke="#000000" points="256.7797,-399.4651 246.7126,-396.1628 252.5231,-405.0222 256.7797,-399.4651"/>
<g id="a_edge19&#45;headlabel"><a xlink:href="dir_000586_000364.html" target="_top" xlink:title="1">
<text text-anchor="middle" x="261.3598" y="-396.8968" font-family="Helvetica,sans-Serif" font-size="10.00" fill="#000000">1</text>
</a>
</g>
</g>
<!-- dir_f282d1da34b97e1c0e067a2536157d8a&#45;&gt;dir_bcbb2cf9a3d3d83e5515c82071a07177 -->
<g id="edge21" class="edge">
<title>dir_f282d1da34b97e1c0e067a2536157d8a&#45;&gt;dir_bcbb2cf9a3d3d83e5515c82071a07177</title>
<path fill="none" stroke="#000000" d="M289.5792,-448.043C232.19,-443.3175 102.5324,-429.1353 76,-396 45.9774,-358.5059 60.3566,-331.8326 80,-288 105.6255,-230.8189 172.4157,-195.4719 217.81,-177.2735"/>
<polygon fill="#000000" stroke="#000000" points="219.0933,-180.5299 227.1494,-173.6488 216.5605,-174.0042 219.0933,-180.5299"/>
<g id="a_edge21&#45;headlabel"><a xlink:href="dir_000586_000013.html" target="_top" xlink:title="10">
<text text-anchor="middle" x="216.7695" y="-181.9774" font-family="Helvetica,sans-Serif" font-size="10.00" fill="#000000">10</text>
</a>
</g>
</g>
<!-- dir_f282d1da34b97e1c0e067a2536157d8a&#45;&gt;dir_2171f7ec022c5423887b07c69b2f5b48 -->
<g id="edge22" class="edge">
<title>dir_f282d1da34b97e1c0e067a2536157d8a&#45;&gt;dir_2171f7ec022c5423887b07c69b2f5b48</title>
<path fill="none" stroke="#000000" d="M344.2683,-434.8534C393.9183,-406.3378 494,-344.1286 494,-306 494,-306 494,-306 494,-234 494,-160.6304 404.1192,-120.8387 345.1679,-102.6306"/>
<polygon fill="#000000" stroke="#000000" points="345.8536,-99.183 335.2706,-99.6849 343.8567,-105.8922 345.8536,-99.183"/>
<g id="a_edge22&#45;headlabel"><a xlink:href="dir_000586_000076.html" target="_top" xlink:title="1">
<text text-anchor="middle" x="350.1087" y="-94.987" font-family="Helvetica,sans-Serif" font-size="10.00" fill="#000000">1</text>
</a>
</g>
</g>
<!-- dir_7f0118076ec35c6eba4fbf3c8c648756 -->
<g id="node4" class="node">
<title>dir_7f0118076ec35c6eba4fbf3c8c648756</title>
<g id="a_node4"><a xlink:href="dir_7f0118076ec35c6eba4fbf3c8c648756.html" target="_top" xlink:title="SpacePoints">
<polygon fill="#ffffff" stroke="#ff0000" points="438,-468 362,-468 362,-432 438,-432 438,-468"/>
<text text-anchor="middle" x="400" y="-447.5" font-family="Helvetica,sans-Serif" font-size="10.00" fill="#000000">SpacePoints</text>
</a>
</g>
</g>
<!-- dir_7f0118076ec35c6eba4fbf3c8c648756&#45;&gt;dir_677b030cc750909e4cd27413873678d8 -->
<g id="edge1" class="edge">
<title>dir_7f0118076ec35c6eba4fbf3c8c648756&#45;&gt;dir_677b030cc750909e4cd27413873678d8</title>
<path fill="none" stroke="#000000" d="M399.62,-431.7623C399.1084,-407.201 398.1927,-363.2474 397.5907,-334.3541"/>
<polygon fill="#000000" stroke="#000000" points="401.0845,-334.0145 397.3769,-324.0896 394.086,-334.1604 401.0845,-334.0145"/>
<g id="a_edge1&#45;headlabel"><a xlink:href="dir_000587_000050.html" target="_top" xlink:title="1">
<text text-anchor="middle" x="403.9979" y="-335.0492" font-family="Helvetica,sans-Serif" font-size="10.00" fill="#000000">1</text>
</a>
</g>
</g>
<!-- dir_7f0118076ec35c6eba4fbf3c8c648756&#45;&gt;dir_4ab6b4cc6a7edbff49100e9123df213f -->
<g id="edge2" class="edge">
<title>dir_7f0118076ec35c6eba4fbf3c8c648756&#45;&gt;dir_4ab6b4cc6a7edbff49100e9123df213f</title>
<path fill="none" stroke="#000000" d="M361.9926,-434.7136C358.9732,-433.7236 355.9508,-432.8034 353,-432 306.2586,-419.2738 169.2983,-432.9747 138,-396 106.9878,-359.3633 120.0503,-332.5175 138,-288 142.3225,-277.2796 149.9044,-267.4983 157.9639,-259.2948"/>
<polygon fill="#000000" stroke="#000000" points="160.573,-261.644 165.4199,-252.2228 155.7558,-256.5652 160.573,-261.644"/>
<g id="a_edge2&#45;headlabel"><a xlink:href="dir_000587_000027.html" target="_top" xlink:title="2">
<text text-anchor="middle" x="159.9189" y="-263.6777" font-family="Helvetica,sans-Serif" font-size="10.00" fill="#000000">2</text>
</a>
</g>
</g>
<!-- dir_7f0118076ec35c6eba4fbf3c8c648756&#45;&gt;dir_a5de047958dd458e809773c6ffaa8478 -->
<g id="edge3" class="edge">
<title>dir_7f0118076ec35c6eba4fbf3c8c648756&#45;&gt;dir_a5de047958dd458e809773c6ffaa8478</title>
<path fill="none" stroke="#000000" d="M361.5936,-434.3771C336.4913,-424.1659 303.3716,-410.6935 275.8035,-399.4794"/>
<polygon fill="#000000" stroke="#000000" points="276.8879,-396.1421 266.3061,-395.6161 274.2503,-402.6261 276.8879,-396.1421"/>
<g id="a_edge3&#45;headlabel"><a xlink:href="dir_000587_000364.html" target="_top" xlink:title="1">
<text text-anchor="middle" x="281.2874" y="-392.3664" font-family="Helvetica,sans-Serif" font-size="10.00" fill="#000000">1</text>
</a>
</g>
</g>
<!-- dir_37c90836491b695b472bf98d1be8336b -->
<g id="node9" class="node">
<title>dir_37c90836491b695b472bf98d1be8336b</title>
<g id="a_node9"><a xlink:href="dir_37c90836491b695b472bf98d1be8336b.html" target="_top" xlink:title="Base">
<polygon fill="none" stroke="#ff0000" points="254,-36 200,-36 200,0 254,0 254,-36"/>
<text text-anchor="middle" x="227" y="-15.5" font-family="Helvetica,sans-Serif" font-size="10.00" fill="#000000">Base</text>
</a>
</g>
</g>
<!-- dir_7f0118076ec35c6eba4fbf3c8c648756&#45;&gt;dir_37c90836491b695b472bf98d1be8336b -->
<g id="edge4" class="edge">
<title>dir_7f0118076ec35c6eba4fbf3c8c648756&#45;&gt;dir_37c90836491b695b472bf98d1be8336b</title>
<path fill="none" stroke="#000000" d="M361.7469,-434.5798C358.8107,-433.6334 355.8723,-432.7587 353,-432 191.9404,-389.4569 0,-472.5837 0,-306 0,-306 0,-306 0,-162 0,-73.3604 124.9448,-36.9844 189.441,-24.1118"/>
<polygon fill="#000000" stroke="#000000" points="190.4489,-27.483 199.6185,-22.1756 189.1405,-20.6063 190.4489,-27.483"/>
<g id="a_edge4&#45;headlabel"><a xlink:href="dir_000587_000274.html" target="_top" xlink:title="1">
<text text-anchor="middle" x="187.4482" y="-28.4439" font-family="Helvetica,sans-Serif" font-size="10.00" fill="#000000">1</text>
</a>
</g>
</g>
<!-- dir_7f0118076ec35c6eba4fbf3c8c648756&#45;&gt;dir_2171f7ec022c5423887b07c69b2f5b48 -->
<g id="edge5" class="edge">
<title>dir_7f0118076ec35c6eba4fbf3c8c648756&#45;&gt;dir_2171f7ec022c5423887b07c69b2f5b48</title>
<path fill="none" stroke="#000000" d="M434.3369,-431.8915C473.4479,-408.4995 532,-363.8237 532,-306 532,-306 532,-306 532,-234 532,-147.2706 414.6477,-111.297 345.0986,-97.5928"/>
<polygon fill="#000000" stroke="#000000" points="345.6789,-94.1407 335.2038,-95.7291 344.3831,-101.0197 345.6789,-94.1407"/>
<g id="a_edge5&#45;headlabel"><a xlink:href="dir_000587_000076.html" target="_top" xlink:title="13">
<text text-anchor="middle" x="349.7369" y="-89.5157" font-family="Helvetica,sans-Serif" font-size="10.00" fill="#000000">13</text>
</a>
</g>
</g>
<!-- dir_dd8aaa5a15077027057ed7b7af59c9da -->
<g id="node5" class="node">
<title>dir_dd8aaa5a15077027057ed7b7af59c9da</title>
<g id="a_node5"><a xlink:href="dir_dd8aaa5a15077027057ed7b7af59c9da.html" target="_top" xlink:title="src">
<polygon fill="#ffffff" stroke="#000000" points="510,-468 456,-468 456,-432 510,-432 510,-468"/>
<text text-anchor="middle" x="483" y="-447.5" font-family="Helvetica,sans-Serif" font-size="10.00" fill="#000000">src</text>
</a>
</g>
</g>
<!-- dir_dd8aaa5a15077027057ed7b7af59c9da&#45;&gt;dir_2168d348e8784d0b706f7ff616321664 -->
<g id="edge25" class="edge">
<title>dir_dd8aaa5a15077027057ed7b7af59c9da&#45;&gt;dir_2168d348e8784d0b706f7ff616321664</title>
<path fill="none" stroke="#000000" d="M455.8138,-436.1177C433.7718,-424.8622 402.5071,-408.8972 378.3217,-396.5473"/>
<polygon fill="#000000" stroke="#000000" points="379.6006,-393.2704 369.1028,-391.8397 376.4171,-399.5047 379.6006,-393.2704"/>
<g id="a_edge25&#45;headlabel"><a xlink:href="dir_000591_000584.html" target="_top" xlink:title="11">
<text text-anchor="middle" x="384.0932" y="-389.8764" font-family="Helvetica,sans-Serif" font-size="10.00" fill="#000000">11</text>
</a>
</g>
</g>
<!-- dir_dd8aaa5a15077027057ed7b7af59c9da&#45;&gt;dir_677b030cc750909e4cd27413873678d8 -->
<g id="edge23" class="edge">
<title>dir_dd8aaa5a15077027057ed7b7af59c9da&#45;&gt;dir_677b030cc750909e4cd27413873678d8</title>
<path fill="none" stroke="#000000" d="M472.108,-431.7623C457.181,-406.7682 430.2607,-361.6924 413.03,-332.8409"/>
<polygon fill="#000000" stroke="#000000" points="415.9359,-330.8805 407.8035,-324.0896 409.9261,-334.4697 415.9359,-330.8805"/>
<g id="a_edge23&#45;headlabel"><a xlink:href="dir_000591_000050.html" target="_top" xlink:title="9">
<text text-anchor="middle" x="420.2166" y="-330.0108" font-family="Helvetica,sans-Serif" font-size="10.00" fill="#000000">9</text>
</a>
</g>
</g>
<!-- dir_dd8aaa5a15077027057ed7b7af59c9da&#45;&gt;dir_4ab6b4cc6a7edbff49100e9123df213f -->
<g id="edge24" class="edge">
<title>dir_dd8aaa5a15077027057ed7b7af59c9da&#45;&gt;dir_4ab6b4cc6a7edbff49100e9123df213f</title>
<path fill="none" stroke="#000000" d="M455.8741,-435.2617C452.9333,-434.0204 449.9403,-432.8988 447,-432 387.8492,-413.9178 211.8103,-442.479 171,-396 138.3805,-358.8494 159.0892,-297.0256 175.56,-261.4601"/>
<polygon fill="#000000" stroke="#000000" points="178.8504,-262.6947 180.0454,-252.1675 172.5464,-259.6518 178.8504,-262.6947"/>
<g id="a_edge24&#45;headlabel"><a xlink:href="dir_000591_000027.html" target="_top" xlink:title="3">
<text text-anchor="middle" x="179.8449" y="-264.6661" font-family="Helvetica,sans-Serif" font-size="10.00" fill="#000000">3</text>
</a>
</g>
</g>
<!-- dir_677b030cc750909e4cd27413873678d8&#45;&gt;dir_4ab6b4cc6a7edbff49100e9123df213f -->
<g id="edge6" class="edge">
<title>dir_677b030cc750909e4cd27413873678d8&#45;&gt;dir_4ab6b4cc6a7edbff49100e9123df213f</title>
<path fill="none" stroke="#000000" d="M369.9384,-296.5873C334.3273,-284.2008 271.4391,-262.3267 230.2417,-247.9971"/>
<polygon fill="#000000" stroke="#000000" points="231.3718,-244.6846 220.7769,-244.705 229.0721,-251.296 231.3718,-244.6846"/>
<g id="a_edge6&#45;headlabel"><a xlink:href="dir_000050_000027.html" target="_top" xlink:title="13">
<text text-anchor="middle" x="235.6996" y="-240.6837" font-family="Helvetica,sans-Serif" font-size="10.00" fill="#000000">13</text>
</a>
</g>
</g>
<!-- dir_677b030cc750909e4cd27413873678d8&#45;&gt;dir_bcbb2cf9a3d3d83e5515c82071a07177 -->
<g id="edge7" class="edge">
<title>dir_677b030cc750909e4cd27413873678d8&#45;&gt;dir_bcbb2cf9a3d3d83e5515c82071a07177</title>
<path fill="none" stroke="#000000" d="M392.3515,-287.9271C386.555,-268.3144 375.0211,-236.9955 356,-216 342.7793,-201.4069 324.6669,-189.6725 307.9374,-180.9183"/>
<polygon fill="#000000" stroke="#000000" points="309.3349,-177.704 298.8254,-176.3622 306.2043,-183.965 309.3349,-177.704"/>
<g id="a_edge7&#45;headlabel"><a xlink:href="dir_000050_000013.html" target="_top" xlink:title="1">
<text text-anchor="middle" x="313.8198" y="-174.272" font-family="Helvetica,sans-Serif" font-size="10.00" fill="#000000">1</text>
</a>
</g>
</g>
<!-- dir_677b030cc750909e4cd27413873678d8&#45;&gt;dir_2171f7ec022c5423887b07c69b2f5b48 -->
<g id="edge8" class="edge">
<title>dir_677b030cc750909e4cd27413873678d8&#45;&gt;dir_2171f7ec022c5423887b07c69b2f5b48</title>
<path fill="none" stroke="#000000" d="M395.257,-287.9824C393.0883,-269.5003 388.5752,-240.1222 380,-216 367.8101,-181.7093 361.5789,-174.0159 341,-144 334.3886,-134.3568 326.3546,-124.4394 318.8623,-115.7773"/>
<polygon fill="#000000" stroke="#000000" points="321.4321,-113.3998 312.1902,-108.2192 316.1843,-118.0324 321.4321,-113.3998"/>
<g id="a_edge8&#45;headlabel"><a xlink:href="dir_000050_000076.html" target="_top" xlink:title="21">
<text text-anchor="middle" x="325.9395" y="-111.7156" font-family="Helvetica,sans-Serif" font-size="10.00" fill="#000000">21</text>
</a>
</g>
</g>
<!-- dir_4ab6b4cc6a7edbff49100e9123df213f&#45;&gt;dir_bcbb2cf9a3d3d83e5515c82071a07177 -->
<g id="edge9" class="edge">
<title>dir_4ab6b4cc6a7edbff49100e9123df213f&#45;&gt;dir_bcbb2cf9a3d3d83e5515c82071a07177</title>
<path fill="none" stroke="#000000" d="M202.4686,-215.8314C210.4394,-207.1337 220.9694,-196.5783 231.056,-187.1265"/>
<polygon fill="#000000" stroke="#000000" points="233.6386,-189.5066 238.6331,-180.1628 228.9019,-184.3526 233.6386,-189.5066"/>
<g id="a_edge9&#45;headlabel"><a xlink:href="dir_000027_000013.html" target="_top" xlink:title="2">
<text text-anchor="middle" x="232.9132" y="-191.5294" font-family="Helvetica,sans-Serif" font-size="10.00" fill="#000000">2</text>
</a>
</g>
</g>
<!-- dir_4ab6b4cc6a7edbff49100e9123df213f&#45;&gt;dir_2171f7ec022c5423887b07c69b2f5b48 -->
<g id="edge10" class="edge">
<title>dir_4ab6b4cc6a7edbff49100e9123df213f&#45;&gt;dir_2171f7ec022c5423887b07c69b2f5b48</title>
<path fill="none" stroke="#000000" d="M185.4864,-215.883C186.1386,-196.5172 193.1806,-165.6781 209,-144 218.4744,-131.0167 232.0476,-120.0339 245.6782,-111.4327"/>
<polygon fill="#000000" stroke="#000000" points="247.7945,-114.2464 254.6013,-106.1274 244.2171,-108.2296 247.7945,-114.2464"/>
<g id="a_edge10&#45;headlabel"><a xlink:href="dir_000027_000076.html" target="_top" xlink:title="2">
<text text-anchor="middle" x="246.1558" y="-116.0239" font-family="Helvetica,sans-Serif" font-size="10.00" fill="#000000">2</text>
</a>
</g>
</g>
<!-- dir_a5de047958dd458e809773c6ffaa8478&#45;&gt;dir_677b030cc750909e4cd27413873678d8 -->
<g id="edge11" class="edge">
<title>dir_a5de047958dd458e809773c6ffaa8478&#45;&gt;dir_677b030cc750909e4cd27413873678d8</title>
<path fill="none" stroke="#000000" d="M249.4042,-359.8625C258.2409,-354.291 268.3125,-348.4592 278,-344 304.5466,-331.7806 336.1171,-321.8966 360.0676,-315.275"/>
<polygon fill="#000000" stroke="#000000" points="361.0867,-318.6252 369.8287,-312.6396 359.2621,-311.8672 361.0867,-318.6252"/>
<g id="a_edge11&#45;headlabel"><a xlink:href="dir_000364_000050.html" target="_top" xlink:title="37">
<text text-anchor="middle" x="358.3564" y="-319.8032" font-family="Helvetica,sans-Serif" font-size="10.00" fill="#000000">37</text>
</a>
</g>
</g>
<!-- dir_a5de047958dd458e809773c6ffaa8478&#45;&gt;dir_4ab6b4cc6a7edbff49100e9123df213f -->
<g id="edge12" class="edge">
<title>dir_a5de047958dd458e809773c6ffaa8478&#45;&gt;dir_4ab6b4cc6a7edbff49100e9123df213f</title>
<path fill="none" stroke="#000000" d="M218.8205,-359.7623C213.1671,-335.0928 203.0304,-290.8598 196.4105,-261.9731"/>
<polygon fill="#000000" stroke="#000000" points="199.7909,-261.0551 194.1455,-252.0896 192.9678,-262.6188 199.7909,-261.0551"/>
<g id="a_edge12&#45;headlabel"><a xlink:href="dir_000364_000027.html" target="_top" xlink:title="2">
<text text-anchor="middle" x="203.3613" y="-261.4247" font-family="Helvetica,sans-Serif" font-size="10.00" fill="#000000">2</text>
</a>
</g>
</g>
<!-- dir_a5de047958dd458e809773c6ffaa8478&#45;&gt;dir_bcbb2cf9a3d3d83e5515c82071a07177 -->
<g id="edge13" class="edge">
<title>dir_a5de047958dd458e809773c6ffaa8478&#45;&gt;dir_bcbb2cf9a3d3d83e5515c82071a07177</title>
<path fill="none" stroke="#000000" d="M226.3416,-359.9555C233.3122,-322.3144 249.4469,-235.1867 257.7917,-190.1246"/>
<polygon fill="#000000" stroke="#000000" points="261.2603,-190.6152 259.6398,-180.1451 254.3773,-189.3405 261.2603,-190.6152"/>
<g id="a_edge13&#45;headlabel"><a xlink:href="dir_000364_000013.html" target="_top" xlink:title="1">
<text text-anchor="middle" x="263.3977" y="-192.1667" font-family="Helvetica,sans-Serif" font-size="10.00" fill="#000000">1</text>
</a>
</g>
</g>
<!-- dir_a5de047958dd458e809773c6ffaa8478&#45;&gt;dir_2171f7ec022c5423887b07c69b2f5b48 -->
<g id="edge14" class="edge">
<title>dir_a5de047958dd458e809773c6ffaa8478&#45;&gt;dir_2171f7ec022c5423887b07c69b2f5b48</title>
<path fill="none" stroke="#000000" d="M234.0679,-359.7621C253.8869,-325.8589 294.6144,-250.1855 308,-180 311.9558,-159.2585 308.2295,-135.6234 303.7686,-117.7799"/>
<polygon fill="#000000" stroke="#000000" points="307.1127,-116.739 301.1097,-108.0089 300.3583,-118.5771 307.1127,-116.739"/>
<g id="a_edge14&#45;headlabel"><a xlink:href="dir_000364_000076.html" target="_top" xlink:title="43">
<text text-anchor="middle" x="310.7961" y="-116.962" font-family="Helvetica,sans-Serif" font-size="10.00" fill="#000000">43</text>
</a>
</g>
</g>
<!-- dir_37c90836491b695b472bf98d1be8336b&#45;&gt;dir_4ab6b4cc6a7edbff49100e9123df213f -->
<g id="edge15" class="edge">
<title>dir_37c90836491b695b472bf98d1be8336b&#45;&gt;dir_4ab6b4cc6a7edbff49100e9123df213f</title>
<path fill="none" stroke="#000000" d="M221.9772,-36.2082C215.4492,-60.5694 204.159,-105.2037 198,-144 194.7258,-164.6245 192.6936,-188.1366 191.497,-205.9557"/>
<polygon fill="#000000" stroke="#000000" points="188.0011,-205.7823 190.8711,-215.9809 194.9875,-206.2185 188.0011,-205.7823"/>
<g id="a_edge15&#45;headlabel"><a xlink:href="dir_000274_000027.html" target="_top" xlink:title="16">
<text text-anchor="middle" x="185.3912" y="-199.5178" font-family="Helvetica,sans-Serif" font-size="10.00" fill="#000000">16</text>
</a>
</g>
</g>
<!-- dir_37c90836491b695b472bf98d1be8336b&#45;&gt;dir_bcbb2cf9a3d3d83e5515c82071a07177 -->
<g id="edge16" class="edge">
<title>dir_37c90836491b695b472bf98d1be8336b&#45;&gt;dir_bcbb2cf9a3d3d83e5515c82071a07177</title>
<path fill="none" stroke="#000000" d="M230.2768,-36.0499C233.716,-54.3075 239.5172,-83.2851 246,-108 248.2338,-116.5162 250.9858,-125.6843 253.6199,-134.0053"/>
<polygon fill="#000000" stroke="#000000" points="250.3261,-135.1951 256.7316,-143.6343 256.9869,-133.0425 250.3261,-135.1951"/>
<g id="a_edge16&#45;headlabel"><a xlink:href="dir_000274_000013.html" target="_top" xlink:title="1">
<text text-anchor="middle" x="246.5191" y="-130.1477" font-family="Helvetica,sans-Serif" font-size="10.00" fill="#000000">1</text>
</a>
</g>
</g>
<!-- dir_37c90836491b695b472bf98d1be8336b&#45;&gt;dir_2171f7ec022c5423887b07c69b2f5b48 -->
<g id="edge17" class="edge">
<title>dir_37c90836491b695b472bf98d1be8336b&#45;&gt;dir_2171f7ec022c5423887b07c69b2f5b48</title>
<path fill="none" stroke="#000000" d="M250.1056,-36.1628C258.9006,-44.6038 268.7127,-54.7956 276.9846,-64.0303"/>
<polygon fill="#000000" stroke="#000000" points="274.5806,-66.5987 283.7931,-71.8314 279.8545,-61.9958 274.5806,-66.5987"/>
<g id="a_edge17&#45;headlabel"><a xlink:href="dir_000274_000076.html" target="_top" xlink:title="10">
<text text-anchor="middle" x="270.0779" y="-63.2575" font-family="Helvetica,sans-Serif" font-size="10.00" fill="#000000">10</text>
</a>
</g>
</g>
<!-- dir_bcbb2cf9a3d3d83e5515c82071a07177&#45;&gt;dir_4ab6b4cc6a7edbff49100e9123df213f -->
<g id="edge31" class="edge">
<title>dir_bcbb2cf9a3d3d83e5515c82071a07177&#45;&gt;dir_4ab6b4cc6a7edbff49100e9123df213f</title>
<path fill="none" stroke="#000000" d="M250.307,-180.4133C242.3498,-189.0787 231.9,-199.5464 221.8919,-208.9223"/>
<polygon fill="#000000" stroke="#000000" points="219.3684,-206.4879 214.3734,-215.8314 224.1048,-211.6422 219.3684,-206.4879"/>
<g id="a_edge31&#45;headlabel"><a xlink:href="dir_000013_000027.html" target="_top" xlink:title="8">
<text text-anchor="middle" x="220.094" y="-199.4651" font-family="Helvetica,sans-Serif" font-size="10.00" fill="#000000">8</text>
</a>
</g>
</g>
<!-- dir_bcbb2cf9a3d3d83e5515c82071a07177&#45;&gt;dir_2171f7ec022c5423887b07c69b2f5b48 -->
<g id="edge32" class="edge">
<title>dir_bcbb2cf9a3d3d83e5515c82071a07177&#45;&gt;dir_2171f7ec022c5423887b07c69b2f5b48</title>
<path fill="none" stroke="#000000" d="M265.1226,-143.8314C267.8826,-135.8771 271.8983,-126.369 276.1628,-117.5723"/>
<polygon fill="#000000" stroke="#000000" points="279.4091,-118.911 280.8403,-108.4133 273.175,-115.7272 279.4091,-118.911"/>
<g id="a_edge32&#45;headlabel"><a xlink:href="dir_000013_000076.html" target="_top" xlink:title="82">
<text text-anchor="middle" x="280.3029" y="-120.9036" font-family="Helvetica,sans-Serif" font-size="10.00" fill="#000000">82</text>
</a>
</g>
</g>
<!-- dir_2171f7ec022c5423887b07c69b2f5b48&#45;&gt;dir_4ab6b4cc6a7edbff49100e9123df213f -->
<g id="edge33" class="edge">
<title>dir_2171f7ec022c5423887b07c69b2f5b48&#45;&gt;dir_4ab6b4cc6a7edbff49100e9123df213f</title>
<path fill="none" stroke="#000000" d="M267.7976,-108.0142C253.8655,-117.0455 237.7798,-129.2279 227,-144 213.6523,-162.2909 206.5535,-187.1037 201.4266,-206.0437"/>
<polygon fill="#000000" stroke="#000000" points="197.9977,-205.3152 198.754,-215.883 204.7529,-207.1501 197.9977,-205.3152"/>
<g id="a_edge33&#45;headlabel"><a xlink:href="dir_000076_000027.html" target="_top" xlink:title="34">
<text text-anchor="middle" x="196.1998" y="-198.6021" font-family="Helvetica,sans-Serif" font-size="10.00" fill="#000000">34</text>
</a>
</g>
</g>
<!-- dir_2171f7ec022c5423887b07c69b2f5b48&#45;&gt;dir_37c90836491b695b472bf98d1be8336b -->
<g id="edge34" class="edge">
<title>dir_2171f7ec022c5423887b07c69b2f5b48&#45;&gt;dir_37c90836491b695b472bf98d1be8336b</title>
<path fill="none" stroke="#000000" d="M271.8883,-71.8314C263.16,-63.454 253.4306,-53.3531 245.1994,-44.1749"/>
<polygon fill="#000000" stroke="#000000" points="247.631,-41.6386 238.4143,-36.4133 242.3608,-46.2457 247.631,-41.6386"/>
<g id="a_edge34&#45;headlabel"><a xlink:href="dir_000076_000274.html" target="_top" xlink:title="1">
<text text-anchor="middle" x="252.1344" y="-39.9762" font-family="Helvetica,sans-Serif" font-size="10.00" fill="#000000">1</text>
</a>
</g>
</g>
<!-- dir_2171f7ec022c5423887b07c69b2f5b48&#45;&gt;dir_bcbb2cf9a3d3d83e5515c82071a07177 -->
<g id="edge35" class="edge">
<title>dir_2171f7ec022c5423887b07c69b2f5b48&#45;&gt;dir_bcbb2cf9a3d3d83e5515c82071a07177</title>
<path fill="none" stroke="#000000" d="M292.7923,-108.4133C290.0067,-116.3991 285.9757,-125.9155 281.7062,-134.6975"/>
<polygon fill="#000000" stroke="#000000" points="278.4715,-133.3354 277.0273,-143.8314 284.7017,-136.5269 278.4715,-133.3354"/>
<g id="a_edge35&#45;headlabel"><a xlink:href="dir_000076_000013.html" target="_top" xlink:title="7">
<text text-anchor="middle" x="277.5833" y="-126.3417" font-family="Helvetica,sans-Serif" font-size="10.00" fill="#000000">7</text>
</a>
</g>
</g>
</g>
</svg>
