<?xml version="1.0" encoding="UTF-8" standalone="no"?>
<!DOCTYPE svg PUBLIC "-//W3C//DTD SVG 1.1//EN"
 "http://www.w3.org/Graphics/SVG/1.1/DTD/svg11.dtd">
<!-- Generated by graphviz version 2.40.1 (20161225.0304)
 -->
<!-- Title: /home/travis/build/AliceO2Group/AliceO2/Detectors/ITSMFT/ITS/reconstruction/src Pages: 1 -->
<svg width="332pt" height="511pt"
 viewBox="0.00 0.00 332.11 511.00" xmlns="http://www.w3.org/2000/svg" xmlns:xlink="http://www.w3.org/1999/xlink">
<g id="graph0" class="graph" transform="scale(1 1) rotate(0) translate(4 507)">
<title>/home/travis/build/AliceO2Group/AliceO2/Detectors/ITSMFT/ITS/reconstruction/src</title>
<g id="clust1" class="cluster">
<title>clusterdir_5125ceb2b58f632ed0a3019fe2d5cbbc</title>
<g id="a_clust1"><a xlink:href="dir_5125ceb2b58f632ed0a3019fe2d5cbbc.html" target="_top" xlink:title="reconstruction">
<polygon fill="#ddddee" stroke="#000000" points="71,-424 71,-495 157,-495 157,-424 71,-424"/>
<text text-anchor="middle" x="114" y="-483" font-family="Helvetica,sans-Serif" font-size="10.00" fill="#000000">reconstruction</text>
</a>
</g>
</g>
<!-- dir_912fdeb75838ec7e9173df897dc72438 -->
<g id="node1" class="node">
<title>dir_912fdeb75838ec7e9173df897dc72438</title>
<g id="a_node1"><a xlink:href="dir_912fdeb75838ec7e9173df897dc72438.html" target="_top" xlink:title="src">
<polygon fill="#eeeeff" stroke="#000000" points="141,-468 87,-468 87,-432 141,-432 141,-468"/>
<text text-anchor="middle" x="114" y="-447.5" font-family="Helvetica,sans-Serif" font-size="10.00" fill="#000000">src</text>
</a>
</g>
</g>
<!-- dir_eedff867f3c4e67d20b227cb6e0f96ab -->
<g id="node2" class="node">
<title>dir_eedff867f3c4e67d20b227cb6e0f96ab</title>
<g id="a_node2"><a xlink:href="dir_eedff867f3c4e67d20b227cb6e0f96ab.html" target="_top" xlink:title="base">
<polygon fill="none" stroke="#ff0000" points="306,-324 252,-324 252,-288 306,-288 306,-324"/>
<text text-anchor="middle" x="279" y="-303.5" font-family="Helvetica,sans-Serif" font-size="10.00" fill="#000000">base</text>
</a>
</g>
</g>
<!-- dir_912fdeb75838ec7e9173df897dc72438&#45;&gt;dir_eedff867f3c4e67d20b227cb6e0f96ab -->
<g id="edge8" class="edge">
<title>dir_912fdeb75838ec7e9173df897dc72438&#45;&gt;dir_eedff867f3c4e67d20b227cb6e0f96ab</title>
<path fill="none" stroke="#000000" d="M140.7553,-431.9298C155.1508,-421.8509 172.9819,-408.782 188,-396 211.9858,-375.5855 237.3094,-350.1848 255.1354,-331.5788"/>
<polygon fill="#000000" stroke="#000000" points="257.9352,-333.7135 262.2903,-324.0551 252.8627,-328.8896 257.9352,-333.7135"/>
<g id="a_edge8&#45;headlabel"><a xlink:href="dir_000488_000467.html" target="_top" xlink:title="1">
<text text-anchor="middle" x="257.5156" y="-335.7749" font-family="Helvetica,sans-Serif" font-size="10.00" fill="#000000">1</text>
</a>
</g>
</g>
<!-- dir_4ab6b4cc6a7edbff49100e9123df213f -->
<g id="node3" class="node">
<title>dir_4ab6b4cc6a7edbff49100e9123df213f</title>
<g id="a_node3"><a xlink:href="dir_4ab6b4cc6a7edbff49100e9123df213f.html" target="_top" xlink:title="Common">
<polygon fill="none" stroke="#ff0000" points="165.5,-252 104.5,-252 104.5,-216 165.5,-216 165.5,-252"/>
<text text-anchor="middle" x="135" y="-231.5" font-family="Helvetica,sans-Serif" font-size="10.00" fill="#000000">Common</text>
</a>
</g>
</g>
<!-- dir_912fdeb75838ec7e9173df897dc72438&#45;&gt;dir_4ab6b4cc6a7edbff49100e9123df213f -->
<g id="edge9" class="edge">
<title>dir_912fdeb75838ec7e9173df897dc72438&#45;&gt;dir_4ab6b4cc6a7edbff49100e9123df213f</title>
<path fill="none" stroke="#000000" d="M113.7251,-431.6916C113.612,-413.4802 113.867,-384.7582 116,-360 118.9077,-326.2502 125.1347,-287.7951 129.6699,-262.3384"/>
<polygon fill="#000000" stroke="#000000" points="133.1541,-262.74 131.4953,-252.2758 126.2665,-261.4905 133.1541,-262.74"/>
<g id="a_edge9&#45;headlabel"><a xlink:href="dir_000488_000027.html" target="_top" xlink:title="8">
<text text-anchor="middle" x="135.3062" y="-264.2837" font-family="Helvetica,sans-Serif" font-size="10.00" fill="#000000">8</text>
</a>
</g>
</g>
<!-- dir_37c90836491b695b472bf98d1be8336b -->
<g id="node4" class="node">
<title>dir_37c90836491b695b472bf98d1be8336b</title>
<g id="a_node4"><a xlink:href="dir_37c90836491b695b472bf98d1be8336b.html" target="_top" xlink:title="Base">
<polygon fill="none" stroke="#ff0000" points="159,-36 105,-36 105,0 159,0 159,-36"/>
<text text-anchor="middle" x="132" y="-15.5" font-family="Helvetica,sans-Serif" font-size="10.00" fill="#000000">Base</text>
</a>
</g>
</g>
<!-- dir_912fdeb75838ec7e9173df897dc72438&#45;&gt;dir_37c90836491b695b472bf98d1be8336b -->
<g id="edge10" class="edge">
<title>dir_912fdeb75838ec7e9173df897dc72438&#45;&gt;dir_37c90836491b695b472bf98d1be8336b</title>
<path fill="none" stroke="#000000" d="M86.9836,-432.633C53.2722,-408.6024 0,-361.8003 0,-306 0,-306 0,-306 0,-162 0,-105.0142 56.8675,-60.798 95.9509,-37.1388"/>
<polygon fill="#000000" stroke="#000000" points="98.1145,-39.9274 104.9693,-31.8489 94.5728,-33.8894 98.1145,-39.9274"/>
<g id="a_edge10&#45;headlabel"><a xlink:href="dir_000488_000274.html" target="_top" xlink:title="1">
<text text-anchor="middle" x="96.4504" y="-41.6951" font-family="Helvetica,sans-Serif" font-size="10.00" fill="#000000">1</text>
</a>
</g>
</g>
<!-- dir_85bf31a2e8d306e7598ffcb73f8df6bf -->
<g id="node5" class="node">
<title>dir_85bf31a2e8d306e7598ffcb73f8df6bf</title>
<g id="a_node5"><a xlink:href="dir_85bf31a2e8d306e7598ffcb73f8df6bf.html" target="_top" xlink:title="common">
<polygon fill="none" stroke="#ff0000" points="252.5,-108 193.5,-108 193.5,-72 252.5,-72 252.5,-108"/>
<text text-anchor="middle" x="223" y="-87.5" font-family="Helvetica,sans-Serif" font-size="10.00" fill="#000000">common</text>
</a>
</g>
</g>
<!-- dir_912fdeb75838ec7e9173df897dc72438&#45;&gt;dir_85bf31a2e8d306e7598ffcb73f8df6bf -->
<g id="edge11" class="edge">
<title>dir_912fdeb75838ec7e9173df897dc72438&#45;&gt;dir_85bf31a2e8d306e7598ffcb73f8df6bf</title>
<path fill="none" stroke="#000000" d="M141.0161,-442.9686C187.4065,-429.2124 280.542,-393.798 315,-324 338.879,-275.6308 312.0158,-212.8794 273,-144 267.2145,-133.7862 259.1417,-123.9484 251.1686,-115.5323"/>
<polygon fill="#000000" stroke="#000000" points="253.4653,-112.8774 243.9427,-108.2328 248.4905,-117.802 253.4653,-112.8774"/>
<g id="a_edge11&#45;headlabel"><a xlink:href="dir_000488_000061.html" target="_top" xlink:title="2">
<text text-anchor="middle" x="258.0119" y="-110.9345" font-family="Helvetica,sans-Serif" font-size="10.00" fill="#000000">2</text>
</a>
</g>
</g>
<!-- dir_a7418508cffd1c8afbbd736339058404 -->
<g id="node6" class="node">
<title>dir_a7418508cffd1c8afbbd736339058404</title>
<g id="a_node6"><a xlink:href="dir_a7418508cffd1c8afbbd736339058404.html" target="_top" xlink:title="include">
<polygon fill="none" stroke="#ff0000" points="179,-396 125,-396 125,-360 179,-360 179,-396"/>
<text text-anchor="middle" x="152" y="-375.5" font-family="Helvetica,sans-Serif" font-size="10.00" fill="#000000">include</text>
</a>
</g>
</g>
<!-- dir_912fdeb75838ec7e9173df897dc72438&#45;&gt;dir_a7418508cffd1c8afbbd736339058404 -->
<g id="edge12" class="edge">
<title>dir_912fdeb75838ec7e9173df897dc72438&#45;&gt;dir_a7418508cffd1c8afbbd736339058404</title>
<path fill="none" stroke="#000000" d="M123.589,-431.8314C127.8317,-423.7925 132.9121,-414.1666 137.596,-405.2918"/>
<polygon fill="#000000" stroke="#000000" points="140.7096,-406.8908 142.2819,-396.4133 134.5189,-403.6235 140.7096,-406.8908"/>
<g id="a_edge12&#45;headlabel"><a xlink:href="dir_000488_000483.html" target="_top" xlink:title="8">
<text text-anchor="middle" x="141.5428" y="-408.895" font-family="Helvetica,sans-Serif" font-size="10.00" fill="#000000">8</text>
</a>
</g>
</g>
<!-- dir_2171f7ec022c5423887b07c69b2f5b48 -->
<g id="node7" class="node">
<title>dir_2171f7ec022c5423887b07c69b2f5b48</title>
<g id="a_node7"><a xlink:href="dir_2171f7ec022c5423887b07c69b2f5b48.html" target="_top" xlink:title="DataFormats">
<polygon fill="none" stroke="#ff0000" points="128,-180 48,-180 48,-144 128,-144 128,-180"/>
<text text-anchor="middle" x="88" y="-159.5" font-family="Helvetica,sans-Serif" font-size="10.00" fill="#000000">DataFormats</text>
</a>
</g>
</g>
<!-- dir_912fdeb75838ec7e9173df897dc72438&#45;&gt;dir_2171f7ec022c5423887b07c69b2f5b48 -->
<g id="edge13" class="edge">
<title>dir_912fdeb75838ec7e9173df897dc72438&#45;&gt;dir_2171f7ec022c5423887b07c69b2f5b48</title>
<path fill="none" stroke="#000000" d="M110.5521,-431.8016C104.159,-397.0281 90.6904,-318.6655 86,-252 84.8771,-236.0395 85.7039,-231.9973 86,-216 86.1521,-207.7824 86.4344,-198.865 86.7398,-190.6892"/>
<polygon fill="#000000" stroke="#000000" points="90.2452,-190.621 87.1458,-180.4897 83.2508,-190.3425 90.2452,-190.621"/>
<g id="a_edge13&#45;headlabel"><a xlink:href="dir_000488_000076.html" target="_top" xlink:title="16">
<text text-anchor="middle" x="92.9394" y="-191.8257" font-family="Helvetica,sans-Serif" font-size="10.00" fill="#000000">16</text>
</a>
</g>
</g>
<!-- dir_eedff867f3c4e67d20b227cb6e0f96ab&#45;&gt;dir_4ab6b4cc6a7edbff49100e9123df213f -->
<g id="edge1" class="edge">
<title>dir_eedff867f3c4e67d20b227cb6e0f96ab&#45;&gt;dir_4ab6b4cc6a7edbff49100e9123df213f</title>
<path fill="none" stroke="#000000" d="M251.9147,-292.4574C230.1698,-281.5849 199.3247,-266.1623 174.7761,-253.8881"/>
<polygon fill="#000000" stroke="#000000" points="176.2176,-250.6957 165.7081,-249.354 173.0871,-256.9567 176.2176,-250.6957"/>
<g id="a_edge1&#45;headlabel"><a xlink:href="dir_000467_000027.html" target="_top" xlink:title="2">
<text text-anchor="middle" x="180.7025" y="-247.2637" font-family="Helvetica,sans-Serif" font-size="10.00" fill="#000000">2</text>
</a>
</g>
</g>
<!-- dir_eedff867f3c4e67d20b227cb6e0f96ab&#45;&gt;dir_37c90836491b695b472bf98d1be8336b -->
<g id="edge2" class="edge">
<title>dir_eedff867f3c4e67d20b227cb6e0f96ab&#45;&gt;dir_37c90836491b695b472bf98d1be8336b</title>
<path fill="none" stroke="#000000" d="M283.9167,-287.9843C294.4371,-245.1226 314.1571,-135.8982 262,-72 238.9831,-43.8017 198.7453,-30.1365 169.1156,-23.6385"/>
<polygon fill="#000000" stroke="#000000" points="169.6173,-20.1693 159.1233,-21.6269 168.2358,-27.0316 169.6173,-20.1693"/>
<g id="a_edge2&#45;headlabel"><a xlink:href="dir_000467_000274.html" target="_top" xlink:title="2">
<text text-anchor="middle" x="173.7016" y="-15.5952" font-family="Helvetica,sans-Serif" font-size="10.00" fill="#000000">2</text>
</a>
</g>
</g>
<!-- dir_eedff867f3c4e67d20b227cb6e0f96ab&#45;&gt;dir_85bf31a2e8d306e7598ffcb73f8df6bf -->
<g id="edge3" class="edge">
<title>dir_eedff867f3c4e67d20b227cb6e0f96ab&#45;&gt;dir_85bf31a2e8d306e7598ffcb73f8df6bf</title>
<path fill="none" stroke="#000000" d="M270.9587,-287.7203C263.0988,-257.395 252.8689,-194.9738 237,-144 234.2868,-135.2846 230.6562,-126.0567 227.4681,-117.7421"/>
<polygon fill="#000000" stroke="#000000" points="230.6641,-116.2954 223.8901,-108.1489 224.1054,-118.7416 230.6641,-116.2954"/>
<g id="a_edge3&#45;headlabel"><a xlink:href="dir_000467_000061.html" target="_top" xlink:title="2">
<text text-anchor="middle" x="234.5804" y="-116.1712" font-family="Helvetica,sans-Serif" font-size="10.00" fill="#000000">2</text>
</a>
</g>
</g>
<!-- dir_eedff867f3c4e67d20b227cb6e0f96ab&#45;&gt;dir_2171f7ec022c5423887b07c69b2f5b48 -->
<g id="edge4" class="edge">
<title>dir_eedff867f3c4e67d20b227cb6e0f96ab&#45;&gt;dir_2171f7ec022c5423887b07c69b2f5b48</title>
<path fill="none" stroke="#000000" d="M259.5948,-287.8357C239.0489,-268.976 205.3211,-239.0609 174,-216 159.5391,-205.3529 142.9708,-194.6295 128.2614,-185.5761"/>
<polygon fill="#000000" stroke="#000000" points="129.7405,-182.3791 119.3785,-180.1705 126.1016,-188.3589 129.7405,-182.3791"/>
<g id="a_edge4&#45;headlabel"><a xlink:href="dir_000467_000076.html" target="_top" xlink:title="1">
<text text-anchor="middle" x="134.2872" y="-179.3222" font-family="Helvetica,sans-Serif" font-size="10.00" fill="#000000">1</text>
</a>
</g>
</g>
<!-- dir_4ab6b4cc6a7edbff49100e9123df213f&#45;&gt;dir_2171f7ec022c5423887b07c69b2f5b48 -->
<g id="edge5" class="edge">
<title>dir_4ab6b4cc6a7edbff49100e9123df213f&#45;&gt;dir_2171f7ec022c5423887b07c69b2f5b48</title>
<path fill="none" stroke="#000000" d="M117.1875,-215.8314C111.1565,-207.7925 104.6666,-198.1666 99.2442,-189.2918"/>
<polygon fill="#000000" stroke="#000000" points="102.118,-187.2731 94.0438,-180.4133 96.0778,-190.811 102.118,-187.2731"/>
<g id="a_edge5&#45;headlabel"><a xlink:href="dir_000027_000076.html" target="_top" xlink:title="2">
<text text-anchor="middle" x="106.3847" y="-186.4398" font-family="Helvetica,sans-Serif" font-size="10.00" fill="#000000">2</text>
</a>
</g>
</g>
<!-- dir_37c90836491b695b472bf98d1be8336b&#45;&gt;dir_4ab6b4cc6a7edbff49100e9123df213f -->
<g id="edge6" class="edge">
<title>dir_37c90836491b695b472bf98d1be8336b&#45;&gt;dir_4ab6b4cc6a7edbff49100e9123df213f</title>
<path fill="none" stroke="#000000" d="M133.1628,-36.4606C134.9233,-66.5285 137.9635,-127.9529 137,-180 136.8479,-188.2176 136.5656,-197.135 136.2602,-205.3108"/>
<polygon fill="#000000" stroke="#000000" points="132.7548,-205.379 135.8542,-215.5103 139.7492,-205.6575 132.7548,-205.379"/>
<g id="a_edge6&#45;headlabel"><a xlink:href="dir_000274_000027.html" target="_top" xlink:title="16">
<text text-anchor="middle" x="130.0606" y="-199.1743" font-family="Helvetica,sans-Serif" font-size="10.00" fill="#000000">16</text>
</a>
</g>
</g>
<!-- dir_37c90836491b695b472bf98d1be8336b&#45;&gt;dir_2171f7ec022c5423887b07c69b2f5b48 -->
<g id="edge7" class="edge">
<title>dir_37c90836491b695b472bf98d1be8336b&#45;&gt;dir_2171f7ec022c5423887b07c69b2f5b48</title>
<path fill="none" stroke="#000000" d="M131.1309,-36.0896C126.0744,-60.7884 112.7423,-105.2933 101.9425,-134.2331"/>
<polygon fill="#000000" stroke="#000000" points="98.5995,-133.1734 98.2458,-143.7623 105.1257,-135.7051 98.5995,-133.1734"/>
<g id="a_edge7&#45;headlabel"><a xlink:href="dir_000274_000076.html" target="_top" xlink:title="10">
<text text-anchor="middle" x="97.2525" y="-126.2952" font-family="Helvetica,sans-Serif" font-size="10.00" fill="#000000">10</text>
</a>
</g>
</g>
<!-- dir_85bf31a2e8d306e7598ffcb73f8df6bf&#45;&gt;dir_eedff867f3c4e67d20b227cb6e0f96ab -->
<g id="edge14" class="edge">
<title>dir_85bf31a2e8d306e7598ffcb73f8df6bf&#45;&gt;dir_eedff867f3c4e67d20b227cb6e0f96ab</title>
<path fill="none" stroke="#000000" d="M239.744,-108.1489C245.5522,-118.468 251.1836,-131.741 255,-144 269.2572,-189.7968 278.9627,-244.8338 281.4804,-277.533"/>
<polygon fill="#000000" stroke="#000000" points="277.9973,-277.9333 282.0548,-287.7203 284.9862,-277.5391 277.9973,-277.9333"/>
<g id="a_edge14&#45;headlabel"><a xlink:href="dir_000061_000467.html" target="_top" xlink:title="1">
<text text-anchor="middle" x="274.9602" y="-272.0042" font-family="Helvetica,sans-Serif" font-size="10.00" fill="#000000">1</text>
</a>
</g>
</g>
<!-- dir_85bf31a2e8d306e7598ffcb73f8df6bf&#45;&gt;dir_4ab6b4cc6a7edbff49100e9123df213f -->
<g id="edge15" class="edge">
<title>dir_85bf31a2e8d306e7598ffcb73f8df6bf&#45;&gt;dir_4ab6b4cc6a7edbff49100e9123df213f</title>
<path fill="none" stroke="#000000" d="M212.666,-108.0652C202.1441,-126.3347 185.2546,-155.3212 170,-180 164.5068,-188.8868 158.3565,-198.4868 152.7621,-207.0931"/>
<polygon fill="#000000" stroke="#000000" points="149.7238,-205.3445 147.1843,-215.6305 155.5839,-209.1732 149.7238,-205.3445"/>
<g id="a_edge15&#45;headlabel"><a xlink:href="dir_000061_000027.html" target="_top" xlink:title="18">
<text text-anchor="middle" x="149.3129" y="-198.2823" font-family="Helvetica,sans-Serif" font-size="10.00" fill="#000000">18</text>
</a>
</g>
</g>
<!-- dir_85bf31a2e8d306e7598ffcb73f8df6bf&#45;&gt;dir_37c90836491b695b472bf98d1be8336b -->
<g id="edge16" class="edge">
<title>dir_85bf31a2e8d306e7598ffcb73f8df6bf&#45;&gt;dir_37c90836491b695b472bf98d1be8336b</title>
<path fill="none" stroke="#000000" d="M200.0369,-71.8314C188.8285,-62.9632 175.1791,-52.1637 163.0561,-42.5718"/>
<polygon fill="#000000" stroke="#000000" points="164.9697,-39.6229 154.9558,-36.1628 160.6263,-45.1125 164.9697,-39.6229"/>
<g id="a_edge16&#45;headlabel"><a xlink:href="dir_000061_000274.html" target="_top" xlink:title="3">
<text text-anchor="middle" x="169.5504" y="-37.1267" font-family="Helvetica,sans-Serif" font-size="10.00" fill="#000000">3</text>
</a>
</g>
</g>
<!-- dir_85bf31a2e8d306e7598ffcb73f8df6bf&#45;&gt;dir_2171f7ec022c5423887b07c69b2f5b48 -->
<g id="edge17" class="edge">
<title>dir_85bf31a2e8d306e7598ffcb73f8df6bf&#45;&gt;dir_2171f7ec022c5423887b07c69b2f5b48</title>
<path fill="none" stroke="#000000" d="M194.8965,-108.1628C178.1497,-117.5843 156.5206,-129.187 137.0686,-139.2055"/>
<polygon fill="#000000" stroke="#000000" points="135.3299,-136.1635 128.0186,-143.8314 138.5158,-142.3965 135.3299,-136.1635"/>
<g id="a_edge17&#45;headlabel"><a xlink:href="dir_000061_000076.html" target="_top" xlink:title="56">
<text text-anchor="middle" x="137.2384" y="-129.4994" font-family="Helvetica,sans-Serif" font-size="10.00" fill="#000000">56</text>
</a>
</g>
</g>
<!-- dir_a7418508cffd1c8afbbd736339058404&#45;&gt;dir_eedff867f3c4e67d20b227cb6e0f96ab -->
<g id="edge18" class="edge">
<title>dir_a7418508cffd1c8afbbd736339058404&#45;&gt;dir_eedff867f3c4e67d20b227cb6e0f96ab</title>
<path fill="none" stroke="#000000" d="M179.2447,-362.5542C197.8268,-352.0195 222.638,-337.9532 242.8672,-326.4848"/>
<polygon fill="#000000" stroke="#000000" points="244.8273,-329.3969 251.8004,-321.4203 241.375,-323.3074 244.8273,-329.3969"/>
<g id="a_edge18&#45;headlabel"><a xlink:href="dir_000483_000467.html" target="_top" xlink:title="3">
<text text-anchor="middle" x="243.1005" y="-331.1396" font-family="Helvetica,sans-Serif" font-size="10.00" fill="#000000">3</text>
</a>
</g>
</g>
<!-- dir_a7418508cffd1c8afbbd736339058404&#45;&gt;dir_4ab6b4cc6a7edbff49100e9123df213f -->
<g id="edge19" class="edge">
<title>dir_a7418508cffd1c8afbbd736339058404&#45;&gt;dir_4ab6b4cc6a7edbff49100e9123df213f</title>
<path fill="none" stroke="#000000" d="M149.8469,-359.7623C146.9473,-335.201 141.7584,-291.2474 138.3474,-262.3541"/>
<polygon fill="#000000" stroke="#000000" points="141.7839,-261.6103 137.1356,-252.0896 134.8322,-262.431 141.7839,-261.6103"/>
<g id="a_edge19&#45;headlabel"><a xlink:href="dir_000483_000027.html" target="_top" xlink:title="8">
<text text-anchor="middle" x="145.025" y="-262.3473" font-family="Helvetica,sans-Serif" font-size="10.00" fill="#000000">8</text>
</a>
</g>
</g>
<!-- dir_a7418508cffd1c8afbbd736339058404&#45;&gt;dir_85bf31a2e8d306e7598ffcb73f8df6bf -->
<g id="edge20" class="edge">
<title>dir_a7418508cffd1c8afbbd736339058404&#45;&gt;dir_85bf31a2e8d306e7598ffcb73f8df6bf</title>
<path fill="none" stroke="#000000" d="M156.4414,-359.9843C168.4449,-311.2939 201.6023,-176.7961 216.0831,-118.0573"/>
<polygon fill="#000000" stroke="#000000" points="219.5649,-118.556 218.5603,-108.0089 212.7684,-116.8804 219.5649,-118.556"/>
<g id="a_edge20&#45;headlabel"><a xlink:href="dir_000483_000061.html" target="_top" xlink:title="10">
<text text-anchor="middle" x="221.4613" y="-120.2257" font-family="Helvetica,sans-Serif" font-size="10.00" fill="#000000">10</text>
</a>
</g>
</g>
<!-- dir_a7418508cffd1c8afbbd736339058404&#45;&gt;dir_2171f7ec022c5423887b07c69b2f5b48 -->
<g id="edge21" class="edge">
<title>dir_a7418508cffd1c8afbbd736339058404&#45;&gt;dir_2171f7ec022c5423887b07c69b2f5b48</title>
<path fill="none" stroke="#000000" d="M141.3985,-359.9539C127.9856,-336.1315 105.3852,-292.4646 95,-252 89.8135,-231.7913 88.1282,-208.2627 87.7053,-190.3317"/>
<polygon fill="#000000" stroke="#000000" points="91.2039,-190.1875 87.5851,-180.2299 84.2044,-190.2709 91.2039,-190.1875"/>
<g id="a_edge21&#45;headlabel"><a xlink:href="dir_000483_000076.html" target="_top" xlink:title="10">
<text text-anchor="middle" x="94.0856" y="-191.2481" font-family="Helvetica,sans-Serif" font-size="10.00" fill="#000000">10</text>
</a>
</g>
</g>
<!-- dir_2171f7ec022c5423887b07c69b2f5b48&#45;&gt;dir_4ab6b4cc6a7edbff49100e9123df213f -->
<g id="edge22" class="edge">
<title>dir_2171f7ec022c5423887b07c69b2f5b48&#45;&gt;dir_4ab6b4cc6a7edbff49100e9123df213f</title>
<path fill="none" stroke="#000000" d="M105.9958,-180.4133C112.0359,-188.484 118.5195,-198.1182 123.9202,-206.9775"/>
<polygon fill="#000000" stroke="#000000" points="121.0261,-208.9621 129.0923,-215.8314 127.0703,-205.4312 121.0261,-208.9621"/>
<g id="a_edge22&#45;headlabel"><a xlink:href="dir_000076_000027.html" target="_top" xlink:title="34">
<text text-anchor="middle" x="116.7613" y="-204.7904" font-family="Helvetica,sans-Serif" font-size="10.00" fill="#000000">34</text>
</a>
</g>
</g>
<!-- dir_2171f7ec022c5423887b07c69b2f5b48&#45;&gt;dir_37c90836491b695b472bf98d1be8336b -->
<g id="edge23" class="edge">
<title>dir_2171f7ec022c5423887b07c69b2f5b48&#45;&gt;dir_37c90836491b695b472bf98d1be8336b</title>
<path fill="none" stroke="#000000" d="M88.8995,-143.7623C93.9889,-118.9846 107.3325,-74.4714 118.1221,-45.5939"/>
<polygon fill="#000000" stroke="#000000" points="121.4556,-46.6784 121.8143,-36.0896 114.9306,-44.1435 121.4556,-46.6784"/>
<g id="a_edge23&#45;headlabel"><a xlink:href="dir_000076_000274.html" target="_top" xlink:title="1">
<text text-anchor="middle" x="122.8006" y="-48.5572" font-family="Helvetica,sans-Serif" font-size="10.00" fill="#000000">1</text>
</a>
</g>
</g>
<!-- dir_2171f7ec022c5423887b07c69b2f5b48&#45;&gt;dir_85bf31a2e8d306e7598ffcb73f8df6bf -->
<g id="edge24" class="edge">
<title>dir_2171f7ec022c5423887b07c69b2f5b48&#45;&gt;dir_85bf31a2e8d306e7598ffcb73f8df6bf</title>
<path fill="none" stroke="#000000" d="M116.1138,-143.8314C135.9409,-132.6772 162.608,-118.4675 184.4037,-107.4486"/>
<polygon fill="#000000" stroke="#000000" points="186.0364,-110.5454 193.4123,-102.9397 182.9033,-104.2856 186.0364,-110.5454"/>
<g id="a_edge24&#45;headlabel"><a xlink:href="dir_000076_000061.html" target="_top" xlink:title="1">
<text text-anchor="middle" x="184.0927" y="-112.1932" font-family="Helvetica,sans-Serif" font-size="10.00" fill="#000000">1</text>
</a>
</g>
</g>
</g>
</svg>
