<?xml version="1.0" encoding="UTF-8" standalone="no"?>
<!DOCTYPE svg PUBLIC "-//W3C//DTD SVG 1.1//EN"
 "http://www.w3.org/Graphics/SVG/1.1/DTD/svg11.dtd">
<!-- Generated by graphviz version 2.40.1 (20161225.0304)
 -->
<!-- Title: /home/travis/build/AliceO2Group/AliceO2/Detectors/TPC/simulation Pages: 1 -->
<!--zoomable 591 -->
<svg id="main" version="1.1" xmlns="http://www.w3.org/2000/svg" xmlns:xlink="http://www.w3.org/1999/xlink" xml:space="preserve" onload="init(evt)">
<style type="text/css"><![CDATA[
.edge:hover path { stroke: red; }
.edge:hover polygon { stroke: red; fill: red; }
]]></style>
<script type="text/javascript"><![CDATA[
var edges = document.getElementsByTagName('g');
if (edges && edges.length) {
  for (var i=0;i<edges.length;i++) {
    if (edges[i].id.substr(0,4)=='edge') {
      edges[i].setAttribute('class','edge');
    }
  }
}
]]></script>
        <defs>
                <circle id="rim" cx="0" cy="0" r="7"/>
                <circle id="rim2" cx="0" cy="0" r="3.5"/>
                <g id="zoomPlus">
                        <use xlink:href="#rim" fill="#404040">
                                <set attributeName="fill" to="#808080" begin="zoomplus.mouseover" end="zoomplus.mouseout"/>
                        </use>
                        <path d="M-4,0h8M0,-4v8" fill="none" stroke="white" stroke-width="1.5" pointer-events="none"/>
                </g>
                <g id="zoomMin">
                        <use xlink:href="#rim" fill="#404040">
                                <set attributeName="fill" to="#808080" begin="zoomminus.mouseover" end="zoomminus.mouseout"/>
                        </use>
                        <path d="M-4,0h8" fill="none" stroke="white" stroke-width="1.5" pointer-events="none"/>
                </g>
                <g id="dirArrow">
                        <path fill="none" stroke="white" stroke-width="1.5" d="M0,-3.0v7 M-2.5,-0.5L0,-3.0L2.5,-0.5"/>
                </g>
               <g id="resetDef">
                       <use xlink:href="#rim2" fill="#404040">
                               <set attributeName="fill" to="#808080" begin="reset.mouseover" end="reset.mouseout"/>
                       </use>
               </g>
        </defs>

<script type="text/javascript">
var viewWidth = 672;
var viewHeight = 591;
var sectionId = 'dynsection-0';
</script>
<script xlink:href="svgpan.js"/>
<svg id="graph" class="graph">
<g id="viewport">
<title>/home/travis/build/AliceO2Group/AliceO2/Detectors/TPC/simulation</title>
<g id="clust1" class="cluster">
<title>clusterdir_a597e8e061b11201a1dff411feb10d0b</title>
<g id="a_clust1"><a xlink:href="dir_a597e8e061b11201a1dff411feb10d0b.html" target="_top" xlink:title="TPC">
<polygon fill="#ddddee" stroke="#000000" points="263,-416 263,-575 579,-575 579,-416 263,-416"/>
<text text-anchor="middle" x="421" y="-563" font-family="Helvetica,sans-Serif" font-size="10.00" fill="#000000">TPC</text>
</a>
</g>
</g>
<g id="clust2" class="cluster">
<title>clusterdir_7f309bec8670bb3fb666e7e061b24659</title>
<g id="a_clust2"><a xlink:href="dir_7f309bec8670bb3fb666e7e061b24659.html" target="_top">
<polygon fill="#eeeeff" stroke="#000000" points="271,-424 271,-548 571,-548 571,-424 271,-424"/>
</a>
</g>
</g>
<!-- dir_7f309bec8670bb3fb666e7e061b24659 -->
<g id="node1" class="node">
<title>dir_7f309bec8670bb3fb666e7e061b24659</title>
<text text-anchor="middle" x="529" y="-519.5" font-family="Helvetica,sans-Serif" font-size="10.00" fill="#000000">simulation</text>
</g>
<!-- dir_a3959ed40b1558172144f5e1a56e443f -->
<g id="node2" class="node">
<title>dir_a3959ed40b1558172144f5e1a56e443f</title>
<g id="a_node2"><a xlink:href="dir_a3959ed40b1558172144f5e1a56e443f.html" target="_top" xlink:title="include">
<polygon fill="#ffffff" stroke="#ff0000" points="514,-468 460,-468 460,-432 514,-432 514,-468"/>
<text text-anchor="middle" x="487" y="-447.5" font-family="Helvetica,sans-Serif" font-size="10.00" fill="#000000">include</text>
</a>
</g>
</g>
<!-- dir_677b030cc750909e4cd27413873678d8 -->
<g id="node6" class="node">
<title>dir_677b030cc750909e4cd27413873678d8</title>
<g id="a_node6"><a xlink:href="dir_677b030cc750909e4cd27413873678d8.html" target="_top" xlink:title="base">
<polygon fill="none" stroke="#ff0000" points="255,-468 201,-468 201,-432 255,-432 255,-468"/>
<text text-anchor="middle" x="228" y="-447.5" font-family="Helvetica,sans-Serif" font-size="10.00" fill="#000000">base</text>
</a>
</g>
</g>
<!-- dir_a3959ed40b1558172144f5e1a56e443f&#45;&gt;dir_677b030cc750909e4cd27413873678d8 -->
<g id="edge22" class="edge">
<title>dir_a3959ed40b1558172144f5e1a56e443f&#45;&gt;dir_677b030cc750909e4cd27413873678d8</title>
<path fill="none" stroke="#000000" d="M459.8199,-450C395.0337,-450 330.2475,-450 265.4613,-450"/>
<polygon fill="#000000" stroke="#000000" points="265.0635,-446.5001 255.0635,-450 265.0634,-453.5001 265.0635,-446.5001"/>
<g id="a_edge22&#45;headlabel"><a xlink:href="dir_000303_000050.html" target="_top" xlink:title="26">
<text text-anchor="middle" x="268.6581" y="-441.1607" font-family="Helvetica,sans-Serif" font-size="10.00" fill="#000000">26</text>
</a>
</g>
</g>
<!-- dir_4ab6b4cc6a7edbff49100e9123df213f -->
<g id="node7" class="node">
<title>dir_4ab6b4cc6a7edbff49100e9123df213f</title>
<g id="a_node7"><a xlink:href="dir_4ab6b4cc6a7edbff49100e9123df213f.html" target="_top" xlink:title="Common">
<polygon fill="none" stroke="#ff0000" points="365.5,-396 304.5,-396 304.5,-360 365.5,-360 365.5,-396"/>
<text text-anchor="middle" x="335" y="-375.5" font-family="Helvetica,sans-Serif" font-size="10.00" fill="#000000">Common</text>
</a>
</g>
</g>
<!-- dir_a3959ed40b1558172144f5e1a56e443f&#45;&gt;dir_4ab6b4cc6a7edbff49100e9123df213f -->
<g id="edge23" class="edge">
<title>dir_a3959ed40b1558172144f5e1a56e443f&#45;&gt;dir_4ab6b4cc6a7edbff49100e9123df213f</title>
<path fill="none" stroke="#000000" d="M468.0463,-431.8462C461.4442,-426.2088 453.7429,-420.3421 446,-416 424.0681,-403.7009 397.4764,-394.4271 375.8192,-388.1209"/>
<polygon fill="#000000" stroke="#000000" points="376.5127,-384.6804 365.9389,-385.3479 374.6211,-391.42 376.5127,-384.6804"/>
<g id="a_edge23&#45;headlabel"><a xlink:href="dir_000303_000027.html" target="_top" xlink:title="5">
<text text-anchor="middle" x="380.7408" y="-380.4181" font-family="Helvetica,sans-Serif" font-size="10.00" fill="#000000">5</text>
</a>
</g>
</g>
<!-- dir_37c90836491b695b472bf98d1be8336b -->
<g id="node8" class="node">
<title>dir_37c90836491b695b472bf98d1be8336b</title>
<g id="a_node8"><a xlink:href="dir_37c90836491b695b472bf98d1be8336b.html" target="_top" xlink:title="Base">
<polygon fill="none" stroke="#ff0000" points="435,-108 381,-108 381,-72 435,-72 435,-108"/>
<text text-anchor="middle" x="408" y="-87.5" font-family="Helvetica,sans-Serif" font-size="10.00" fill="#000000">Base</text>
</a>
</g>
</g>
<!-- dir_a3959ed40b1558172144f5e1a56e443f&#45;&gt;dir_37c90836491b695b472bf98d1be8336b -->
<g id="edge24" class="edge">
<title>dir_a3959ed40b1558172144f5e1a56e443f&#45;&gt;dir_37c90836491b695b472bf98d1be8336b</title>
<path fill="none" stroke="#000000" d="M514.1306,-437.2351C554.5821,-416.1013 626,-369.7607 626,-306 626,-306 626,-306 626,-234 626,-148.2813 507.2029,-110.6464 445.001,-96.8159"/>
<polygon fill="#000000" stroke="#000000" points="445.6786,-93.3818 435.1691,-94.7232 444.2213,-100.2284 445.6786,-93.3818"/>
<g id="a_edge24&#45;headlabel"><a xlink:href="dir_000303_000274.html" target="_top" xlink:title="1">
<text text-anchor="middle" x="449.7856" y="-88.853" font-family="Helvetica,sans-Serif" font-size="10.00" fill="#000000">1</text>
</a>
</g>
</g>
<!-- dir_f511f1e9c03c071966ae594f00bbc5e0 -->
<g id="node9" class="node">
<title>dir_f511f1e9c03c071966ae594f00bbc5e0</title>
<g id="a_node9"><a xlink:href="dir_f511f1e9c03c071966ae594f00bbc5e0.html" target="_top" xlink:title="GPU">
<polygon fill="none" stroke="#ff0000" points="310,-324 256,-324 256,-288 310,-288 310,-324"/>
<text text-anchor="middle" x="283" y="-303.5" font-family="Helvetica,sans-Serif" font-size="10.00" fill="#000000">GPU</text>
</a>
</g>
</g>
<!-- dir_a3959ed40b1558172144f5e1a56e443f&#45;&gt;dir_f511f1e9c03c071966ae594f00bbc5e0 -->
<g id="edge25" class="edge">
<title>dir_a3959ed40b1558172144f5e1a56e443f&#45;&gt;dir_f511f1e9c03c071966ae594f00bbc5e0</title>
<path fill="none" stroke="#000000" d="M459.7614,-445.9933C412.333,-438.4429 317.5702,-420.6254 296,-396 281.4304,-379.3668 278.912,-353.9937 279.6192,-334.4233"/>
<polygon fill="#000000" stroke="#000000" points="283.125,-334.448 280.2879,-324.2401 276.1401,-333.9893 283.125,-334.448"/>
<g id="a_edge25&#45;headlabel"><a xlink:href="dir_000303_000670.html" target="_top" xlink:title="1">
<text text-anchor="middle" x="285.7227" y="-335.7209" font-family="Helvetica,sans-Serif" font-size="10.00" fill="#000000">1</text>
</a>
</g>
</g>
<!-- dir_2171f7ec022c5423887b07c69b2f5b48 -->
<g id="node12" class="node">
<title>dir_2171f7ec022c5423887b07c69b2f5b48</title>
<g id="a_node12"><a xlink:href="dir_2171f7ec022c5423887b07c69b2f5b48.html" target="_top" xlink:title="DataFormats">
<polygon fill="none" stroke="#ff0000" points="373,-180 293,-180 293,-144 373,-144 373,-180"/>
<text text-anchor="middle" x="333" y="-159.5" font-family="Helvetica,sans-Serif" font-size="10.00" fill="#000000">DataFormats</text>
</a>
</g>
</g>
<!-- dir_a3959ed40b1558172144f5e1a56e443f&#45;&gt;dir_2171f7ec022c5423887b07c69b2f5b48 -->
<g id="edge26" class="edge">
<title>dir_a3959ed40b1558172144f5e1a56e443f&#45;&gt;dir_2171f7ec022c5423887b07c69b2f5b48</title>
<path fill="none" stroke="#000000" d="M482.8848,-431.8882C472.8883,-390.6388 444.3731,-287.7296 394,-216 386.3675,-205.1316 376.1274,-194.9711 366.2194,-186.4614"/>
<polygon fill="#000000" stroke="#000000" points="368.3413,-183.6746 358.4008,-180.0088 363.8856,-189.0734 368.3413,-183.6746"/>
<g id="a_edge26&#45;headlabel"><a xlink:href="dir_000303_000076.html" target="_top" xlink:title="10">
<text text-anchor="middle" x="372.9209" y="-181.2728" font-family="Helvetica,sans-Serif" font-size="10.00" fill="#000000">10</text>
</a>
</g>
</g>
<!-- dir_685cddb227eacf501f568a534e55085f -->
<g id="node3" class="node">
<title>dir_685cddb227eacf501f568a534e55085f</title>
<g id="a_node3"><a xlink:href="dir_685cddb227eacf501f568a534e55085f.html" target="_top" xlink:title="run">
<polygon fill="#ffffff" stroke="#000000" points="333,-540 279,-540 279,-504 333,-504 333,-540"/>
<text text-anchor="middle" x="306" y="-519.5" font-family="Helvetica,sans-Serif" font-size="10.00" fill="#000000">run</text>
</a>
</g>
</g>
<!-- dir_685cddb227eacf501f568a534e55085f&#45;&gt;dir_677b030cc750909e4cd27413873678d8 -->
<g id="edge1" class="edge">
<title>dir_685cddb227eacf501f568a534e55085f&#45;&gt;dir_677b030cc750909e4cd27413873678d8</title>
<path fill="none" stroke="#000000" d="M286.3173,-503.8314C276.8949,-495.1337 265.4599,-484.5783 255.2204,-475.1265"/>
<polygon fill="#000000" stroke="#000000" points="257.3984,-472.3738 247.6764,-468.1628 252.6505,-477.5175 257.3984,-472.3738"/>
<g id="a_edge1&#45;headlabel"><a xlink:href="dir_000605_000050.html" target="_top" xlink:title="2">
<text text-anchor="middle" x="261.9656" y="-470.2257" font-family="Helvetica,sans-Serif" font-size="10.00" fill="#000000">2</text>
</a>
</g>
</g>
<!-- dir_685cddb227eacf501f568a534e55085f&#45;&gt;dir_4ab6b4cc6a7edbff49100e9123df213f -->
<g id="edge2" class="edge">
<title>dir_685cddb227eacf501f568a534e55085f&#45;&gt;dir_4ab6b4cc6a7edbff49100e9123df213f</title>
<path fill="none" stroke="#000000" d="M309.6729,-503.7623C314.641,-479.0928 323.5491,-434.8598 329.3665,-405.9731"/>
<polygon fill="#000000" stroke="#000000" points="332.8137,-406.5838 331.357,-396.0896 325.9515,-405.2018 332.8137,-406.5838"/>
<g id="a_edge2&#45;headlabel"><a xlink:href="dir_000605_000027.html" target="_top" xlink:title="1">
<text text-anchor="middle" x="334.8875" y="-408.1682" font-family="Helvetica,sans-Serif" font-size="10.00" fill="#000000">1</text>
</a>
</g>
</g>
<!-- dir_685cddb227eacf501f568a534e55085f&#45;&gt;dir_f511f1e9c03c071966ae594f00bbc5e0 -->
<g id="edge3" class="edge">
<title>dir_685cddb227eacf501f568a534e55085f&#45;&gt;dir_f511f1e9c03c071966ae594f00bbc5e0</title>
<path fill="none" stroke="#000000" d="M278.8505,-517.6307C251.5838,-511.6402 210.9717,-497.979 192,-468 162.0904,-420.7369 214.4398,-363.1823 251.3417,-330.9576"/>
<polygon fill="#000000" stroke="#000000" points="254.0583,-333.2418 259.4071,-324.0962 249.5225,-327.9101 254.0583,-333.2418"/>
<g id="a_edge3&#45;headlabel"><a xlink:href="dir_000605_000670.html" target="_top" xlink:title="4">
<text text-anchor="middle" x="253.1602" y="-335.2335" font-family="Helvetica,sans-Serif" font-size="10.00" fill="#000000">4</text>
</a>
</g>
</g>
<!-- dir_bcbb2cf9a3d3d83e5515c82071a07177 -->
<g id="node10" class="node">
<title>dir_bcbb2cf9a3d3d83e5515c82071a07177</title>
<g id="a_node10"><a xlink:href="dir_bcbb2cf9a3d3d83e5515c82071a07177.html" target="_top" xlink:title="Framework">
<polygon fill="none" stroke="#ff0000" points="368.5,-36 297.5,-36 297.5,0 368.5,0 368.5,-36"/>
<text text-anchor="middle" x="333" y="-15.5" font-family="Helvetica,sans-Serif" font-size="10.00" fill="#000000">Framework</text>
</a>
</g>
</g>
<!-- dir_685cddb227eacf501f568a534e55085f&#45;&gt;dir_bcbb2cf9a3d3d83e5515c82071a07177 -->
<g id="edge4" class="edge">
<title>dir_685cddb227eacf501f568a534e55085f&#45;&gt;dir_bcbb2cf9a3d3d83e5515c82071a07177</title>
<path fill="none" stroke="#000000" d="M278.8185,-519.3818C219.6564,-513.2147 81.5879,-496.138 45,-468 9.5497,-440.7369 0,-422.7214 0,-378 0,-378 0,-378 0,-162 0,-105.4315 40.4117,-99.2213 90,-72 152.9099,-37.4659 236.4521,-25.0125 287.3887,-20.5247"/>
<polygon fill="#000000" stroke="#000000" points="287.752,-24.0068 297.4346,-19.7059 287.1833,-17.0299 287.752,-24.0068"/>
<g id="a_edge4&#45;headlabel"><a xlink:href="dir_000605_000013.html" target="_top" xlink:title="1">
<text text-anchor="middle" x="284.3999" y="-24.6286" font-family="Helvetica,sans-Serif" font-size="10.00" fill="#000000">1</text>
</a>
</g>
</g>
<!-- dir_26637d1bd82229bc9ed97f7e706be743 -->
<g id="node11" class="node">
<title>dir_26637d1bd82229bc9ed97f7e706be743</title>
<g id="a_node11"><a xlink:href="dir_26637d1bd82229bc9ed97f7e706be743.html" target="_top" xlink:title="Raw">
<polygon fill="none" stroke="#ff0000" points="240,-252 186,-252 186,-216 240,-216 240,-252"/>
<text text-anchor="middle" x="213" y="-231.5" font-family="Helvetica,sans-Serif" font-size="10.00" fill="#000000">Raw</text>
</a>
</g>
</g>
<!-- dir_685cddb227eacf501f568a534e55085f&#45;&gt;dir_26637d1bd82229bc9ed97f7e706be743 -->
<g id="edge5" class="edge">
<title>dir_685cddb227eacf501f568a534e55085f&#45;&gt;dir_26637d1bd82229bc9ed97f7e706be743</title>
<path fill="none" stroke="#000000" d="M278.8352,-518.9891C248.8325,-514.0507 201.8792,-501.1806 180,-468 137.6187,-403.7272 175.1012,-307.949 198.1365,-261.3881"/>
<polygon fill="#000000" stroke="#000000" points="201.3816,-262.7283 202.7988,-252.2286 195.1433,-259.5529 201.3816,-262.7283"/>
<g id="a_edge5&#45;headlabel"><a xlink:href="dir_000605_000556.html" target="_top" xlink:title="3">
<text text-anchor="middle" x="202.2814" y="-264.7197" font-family="Helvetica,sans-Serif" font-size="10.00" fill="#000000">3</text>
</a>
</g>
</g>
<!-- dir_685cddb227eacf501f568a534e55085f&#45;&gt;dir_2171f7ec022c5423887b07c69b2f5b48 -->
<g id="edge6" class="edge">
<title>dir_685cddb227eacf501f568a534e55085f&#45;&gt;dir_2171f7ec022c5423887b07c69b2f5b48</title>
<path fill="none" stroke="#000000" d="M278.8279,-520.0715C210.6945,-513.6146 38,-486.5428 38,-378 38,-378 38,-378 38,-306 38,-239.3333 98.6045,-246.2757 158,-216 198.005,-195.6082 247.1282,-181.2815 283.1352,-172.5339"/>
<polygon fill="#000000" stroke="#000000" points="284.0012,-175.9257 292.9247,-170.2141 282.3872,-169.1143 284.0012,-175.9257"/>
<g id="a_edge6&#45;headlabel"><a xlink:href="dir_000605_000076.html" target="_top" xlink:title="4">
<text text-anchor="middle" x="281.1581" y="-177.0172" font-family="Helvetica,sans-Serif" font-size="10.00" fill="#000000">4</text>
</a>
</g>
</g>
<!-- dir_72815adbd439f00f784a5a4eca496fde -->
<g id="node4" class="node">
<title>dir_72815adbd439f00f784a5a4eca496fde</title>
<g id="a_node4"><a xlink:href="dir_72815adbd439f00f784a5a4eca496fde.html" target="_top" xlink:title="src">
<polygon fill="#ffffff" stroke="#000000" points="477,-540 423,-540 423,-504 477,-504 477,-540"/>
<text text-anchor="middle" x="450" y="-519.5" font-family="Helvetica,sans-Serif" font-size="10.00" fill="#000000">src</text>
</a>
</g>
</g>
<!-- dir_72815adbd439f00f784a5a4eca496fde&#45;&gt;dir_a3959ed40b1558172144f5e1a56e443f -->
<g id="edge9" class="edge">
<title>dir_72815adbd439f00f784a5a4eca496fde&#45;&gt;dir_a3959ed40b1558172144f5e1a56e443f</title>
<path fill="none" stroke="#000000" d="M459.3367,-503.8314C463.4243,-495.8771 468.3104,-486.369 472.8309,-477.5723"/>
<polygon fill="#000000" stroke="#000000" points="476.0799,-478.9074 477.5376,-468.4133 469.8539,-475.7078 476.0799,-478.9074"/>
<g id="a_edge9&#45;headlabel"><a xlink:href="dir_000323_000303.html" target="_top" xlink:title="19">
<text text-anchor="middle" x="476.9623" y="-480.9022" font-family="Helvetica,sans-Serif" font-size="10.00" fill="#000000">19</text>
</a>
</g>
</g>
<!-- dir_72815adbd439f00f784a5a4eca496fde&#45;&gt;dir_677b030cc750909e4cd27413873678d8 -->
<g id="edge7" class="edge">
<title>dir_72815adbd439f00f784a5a4eca496fde&#45;&gt;dir_677b030cc750909e4cd27413873678d8</title>
<path fill="none" stroke="#000000" d="M422.7628,-507.5928C419.8437,-506.287 416.8862,-505.0598 414,-504 350.8582,-480.8147 330.4962,-490.1962 267,-468 266.2873,-467.7508 265.5699,-467.4932 264.8494,-467.2283"/>
<polygon fill="#000000" stroke="#000000" points="266.0103,-463.923 255.4259,-463.4531 263.4071,-470.4209 266.0103,-463.923"/>
<g id="a_edge7&#45;headlabel"><a xlink:href="dir_000323_000050.html" target="_top" xlink:title="15">
<text text-anchor="middle" x="270.4029" y="-460.124" font-family="Helvetica,sans-Serif" font-size="10.00" fill="#000000">15</text>
</a>
</g>
</g>
<!-- dir_72815adbd439f00f784a5a4eca496fde&#45;&gt;dir_4ab6b4cc6a7edbff49100e9123df213f -->
<g id="edge8" class="edge">
<title>dir_72815adbd439f00f784a5a4eca496fde&#45;&gt;dir_4ab6b4cc6a7edbff49100e9123df213f</title>
<path fill="none" stroke="#000000" d="M435.4352,-503.7623C415.3018,-478.5518 378.852,-432.9103 355.8399,-404.0952"/>
<polygon fill="#000000" stroke="#000000" points="358.4218,-401.7195 349.4466,-396.0896 352.952,-406.0877 358.4218,-401.7195"/>
<g id="a_edge8&#45;headlabel"><a xlink:href="dir_000323_000027.html" target="_top" xlink:title="3">
<text text-anchor="middle" x="362.8836" y="-400.2565" font-family="Helvetica,sans-Serif" font-size="10.00" fill="#000000">3</text>
</a>
</g>
</g>
<!-- dir_72815adbd439f00f784a5a4eca496fde&#45;&gt;dir_2171f7ec022c5423887b07c69b2f5b48 -->
<g id="edge10" class="edge">
<title>dir_72815adbd439f00f784a5a4eca496fde&#45;&gt;dir_2171f7ec022c5423887b07c69b2f5b48</title>
<path fill="none" stroke="#000000" d="M477.1475,-505.6074C495.7426,-493.7348 517.926,-478.0648 523,-468 533.4038,-447.3631 528.5323,-438.4392 523,-416 498.968,-318.5245 486.0008,-289.8573 418,-216 407.0231,-204.0777 392.8511,-193.7094 379.237,-185.3328"/>
<polygon fill="#000000" stroke="#000000" points="380.8007,-182.1915 370.4104,-180.1195 377.2408,-188.2187 380.8007,-182.1915"/>
<g id="a_edge10&#45;headlabel"><a xlink:href="dir_000323_000076.html" target="_top" xlink:title="4">
<text text-anchor="middle" x="385.3397" y="-179.0748" font-family="Helvetica,sans-Serif" font-size="10.00" fill="#000000">4</text>
</a>
</g>
</g>
<!-- dir_ac3b77a1b17a4594b18b160ef67742fa -->
<g id="node5" class="node">
<title>dir_ac3b77a1b17a4594b18b160ef67742fa</title>
<g id="a_node5"><a xlink:href="dir_ac3b77a1b17a4594b18b160ef67742fa.html" target="_top" xlink:title="test">
<polygon fill="#ffffff" stroke="#000000" points="405,-540 351,-540 351,-504 405,-504 405,-540"/>
<text text-anchor="middle" x="378" y="-519.5" font-family="Helvetica,sans-Serif" font-size="10.00" fill="#000000">test</text>
</a>
</g>
</g>
<!-- dir_ac3b77a1b17a4594b18b160ef67742fa&#45;&gt;dir_a3959ed40b1558172144f5e1a56e443f -->
<g id="edge28" class="edge">
<title>dir_ac3b77a1b17a4594b18b160ef67742fa&#45;&gt;dir_a3959ed40b1558172144f5e1a56e443f</title>
<path fill="none" stroke="#000000" d="M405.2241,-504.0171C419.14,-494.825 436.2524,-483.5213 451.2204,-473.6342"/>
<polygon fill="#000000" stroke="#000000" points="453.3302,-476.4353 459.7452,-468.0032 449.4721,-470.5945 453.3302,-476.4353"/>
<g id="a_edge28&#45;headlabel"><a xlink:href="dir_000606_000303.html" target="_top" xlink:title="8">
<text text-anchor="middle" x="451.8958" y="-478.2855" font-family="Helvetica,sans-Serif" font-size="10.00" fill="#000000">8</text>
</a>
</g>
</g>
<!-- dir_ac3b77a1b17a4594b18b160ef67742fa&#45;&gt;dir_677b030cc750909e4cd27413873678d8 -->
<g id="edge27" class="edge">
<title>dir_ac3b77a1b17a4594b18b160ef67742fa&#45;&gt;dir_677b030cc750909e4cd27413873678d8</title>
<path fill="none" stroke="#000000" d="M350.9037,-508.3747C347.904,-506.8893 344.8901,-505.4068 342,-504 316.1558,-491.4197 286.8463,-477.5449 264.4182,-467.0097"/>
<polygon fill="#000000" stroke="#000000" points="265.7975,-463.7908 255.2576,-462.7126 262.8247,-470.1282 265.7975,-463.7908"/>
<g id="a_edge27&#45;headlabel"><a xlink:href="dir_000606_000050.html" target="_top" xlink:title="8">
<text text-anchor="middle" x="270.2576" y="-460.2468" font-family="Helvetica,sans-Serif" font-size="10.00" fill="#000000">8</text>
</a>
</g>
</g>
<!-- dir_ac3b77a1b17a4594b18b160ef67742fa&#45;&gt;dir_2171f7ec022c5423887b07c69b2f5b48 -->
<g id="edge29" class="edge">
<title>dir_ac3b77a1b17a4594b18b160ef67742fa&#45;&gt;dir_2171f7ec022c5423887b07c69b2f5b48</title>
<path fill="none" stroke="#000000" d="M379.122,-503.6526C381.5502,-455.4833 384.94,-321.8345 356,-216 353.5659,-207.0985 349.9757,-197.7371 346.3518,-189.3552"/>
<polygon fill="#000000" stroke="#000000" points="349.4558,-187.7245 342.1496,-180.0517 343.0763,-190.606 349.4558,-187.7245"/>
<g id="a_edge29&#45;headlabel"><a xlink:href="dir_000606_000076.html" target="_top" xlink:title="1">
<text text-anchor="middle" x="353.523" y="-187.3317" font-family="Helvetica,sans-Serif" font-size="10.00" fill="#000000">1</text>
</a>
</g>
</g>
<!-- dir_677b030cc750909e4cd27413873678d8&#45;&gt;dir_4ab6b4cc6a7edbff49100e9123df213f -->
<g id="edge11" class="edge">
<title>dir_677b030cc750909e4cd27413873678d8&#45;&gt;dir_4ab6b4cc6a7edbff49100e9123df213f</title>
<path fill="none" stroke="#000000" d="M247.1893,-431.8734C253.3046,-426.4854 260.2421,-420.7565 267,-416 275.8836,-409.7473 285.8874,-403.6771 295.4337,-398.2906"/>
<polygon fill="#000000" stroke="#000000" points="297.3261,-401.2441 304.3947,-393.352 293.9473,-395.1135 297.3261,-401.2441"/>
<g id="a_edge11&#45;headlabel"><a xlink:href="dir_000050_000027.html" target="_top" xlink:title="13">
<text text-anchor="middle" x="295.5483" y="-402.9657" font-family="Helvetica,sans-Serif" font-size="10.00" fill="#000000">13</text>
</a>
</g>
</g>
<!-- dir_677b030cc750909e4cd27413873678d8&#45;&gt;dir_bcbb2cf9a3d3d83e5515c82071a07177 -->
<g id="edge12" class="edge">
<title>dir_677b030cc750909e4cd27413873678d8&#45;&gt;dir_bcbb2cf9a3d3d83e5515c82071a07177</title>
<path fill="none" stroke="#000000" d="M200.8254,-439.0704C157.1049,-419.4794 76,-373.9758 76,-306 76,-306 76,-306 76,-162 76,-66.2597 213.4178,-33.5393 287.285,-22.8668"/>
<polygon fill="#000000" stroke="#000000" points="287.8313,-26.3248 297.2653,-21.503 286.8834,-19.3893 287.8313,-26.3248"/>
<g id="a_edge12&#45;headlabel"><a xlink:href="dir_000050_000013.html" target="_top" xlink:title="1">
<text text-anchor="middle" x="284.6541" y="-27.1246" font-family="Helvetica,sans-Serif" font-size="10.00" fill="#000000">1</text>
</a>
</g>
</g>
<!-- dir_677b030cc750909e4cd27413873678d8&#45;&gt;dir_26637d1bd82229bc9ed97f7e706be743 -->
<g id="edge13" class="edge">
<title>dir_677b030cc750909e4cd27413873678d8&#45;&gt;dir_26637d1bd82229bc9ed97f7e706be743</title>
<path fill="none" stroke="#000000" d="M226.7469,-431.9555C224.1329,-394.3144 218.0824,-307.1867 214.9531,-262.1246"/>
<polygon fill="#000000" stroke="#000000" points="218.4445,-261.8785 214.2601,-252.1451 211.4614,-262.3635 218.4445,-261.8785"/>
<g id="a_edge13&#45;headlabel"><a xlink:href="dir_000050_000556.html" target="_top" xlink:title="2">
<text text-anchor="middle" x="221.5259" y="-262.7679" font-family="Helvetica,sans-Serif" font-size="10.00" fill="#000000">2</text>
</a>
</g>
</g>
<!-- dir_677b030cc750909e4cd27413873678d8&#45;&gt;dir_2171f7ec022c5423887b07c69b2f5b48 -->
<g id="edge14" class="edge">
<title>dir_677b030cc750909e4cd27413873678d8&#45;&gt;dir_2171f7ec022c5423887b07c69b2f5b48</title>
<path fill="none" stroke="#000000" d="M215.4423,-431.9786C187.9052,-390.031 128.4038,-284.2471 177,-216 189.6317,-198.2605 242.2404,-182.5529 282.9115,-172.7162"/>
<polygon fill="#000000" stroke="#000000" points="283.7713,-176.1095 292.6992,-170.4049 282.1625,-169.2969 283.7713,-176.1095"/>
<g id="a_edge14&#45;headlabel"><a xlink:href="dir_000050_000076.html" target="_top" xlink:title="21">
<text text-anchor="middle" x="280.9254" y="-177.1988" font-family="Helvetica,sans-Serif" font-size="10.00" fill="#000000">21</text>
</a>
</g>
</g>
<!-- dir_4ab6b4cc6a7edbff49100e9123df213f&#45;&gt;dir_f511f1e9c03c071966ae594f00bbc5e0 -->
<g id="edge15" class="edge">
<title>dir_4ab6b4cc6a7edbff49100e9123df213f&#45;&gt;dir_f511f1e9c03c071966ae594f00bbc5e0</title>
<path fill="none" stroke="#000000" d="M315.9258,-359.8314C309.2672,-351.7079 302.0274,-341.9637 295.9491,-333.0118"/>
<polygon fill="#000000" stroke="#000000" points="298.7268,-330.8645 290.3225,-324.4133 292.8694,-334.6974 298.7268,-330.8645"/>
<g id="a_edge15&#45;headlabel"><a xlink:href="dir_000027_000670.html" target="_top" xlink:title="3">
<text text-anchor="middle" x="303.0708" y="-329.8177" font-family="Helvetica,sans-Serif" font-size="10.00" fill="#000000">3</text>
</a>
</g>
</g>
<!-- dir_4ab6b4cc6a7edbff49100e9123df213f&#45;&gt;dir_bcbb2cf9a3d3d83e5515c82071a07177 -->
<g id="edge16" class="edge">
<title>dir_4ab6b4cc6a7edbff49100e9123df213f&#45;&gt;dir_bcbb2cf9a3d3d83e5515c82071a07177</title>
<path fill="none" stroke="#000000" d="M365.9198,-373.5437C429.8757,-362.9177 570,-329.4248 570,-234 570,-234 570,-234 570,-162 570,-72.6828 447.7253,-37.7308 378.7417,-24.8822"/>
<polygon fill="#000000" stroke="#000000" points="379.0211,-21.3771 368.563,-23.0739 377.7966,-28.2692 379.0211,-21.3771"/>
<g id="a_edge16&#45;headlabel"><a xlink:href="dir_000027_000013.html" target="_top" xlink:title="2">
<text text-anchor="middle" x="383.0569" y="-16.7103" font-family="Helvetica,sans-Serif" font-size="10.00" fill="#000000">2</text>
</a>
</g>
</g>
<!-- dir_4ab6b4cc6a7edbff49100e9123df213f&#45;&gt;dir_2171f7ec022c5423887b07c69b2f5b48 -->
<g id="edge17" class="edge">
<title>dir_4ab6b4cc6a7edbff49100e9123df213f&#45;&gt;dir_2171f7ec022c5423887b07c69b2f5b48</title>
<path fill="none" stroke="#000000" d="M330.887,-359.9555C327.08,-322.3144 326.014,-235.1867 328.5366,-190.1246"/>
<polygon fill="#000000" stroke="#000000" points="332.0286,-190.3589 329.2129,-180.1451 325.0446,-189.8855 332.0286,-190.3589"/>
<g id="a_edge17&#45;headlabel"><a xlink:href="dir_000027_000076.html" target="_top" xlink:title="2">
<text text-anchor="middle" x="334.6184" y="-191.6372" font-family="Helvetica,sans-Serif" font-size="10.00" fill="#000000">2</text>
</a>
</g>
</g>
<!-- dir_37c90836491b695b472bf98d1be8336b&#45;&gt;dir_4ab6b4cc6a7edbff49100e9123df213f -->
<g id="edge18" class="edge">
<title>dir_37c90836491b695b472bf98d1be8336b&#45;&gt;dir_4ab6b4cc6a7edbff49100e9123df213f</title>
<path fill="none" stroke="#000000" d="M408.0431,-108.0861C407.7954,-126.3718 406.6021,-155.3708 402,-180 389.684,-245.9114 379.6693,-260.8961 357,-324 353.9005,-332.628 350.2408,-341.9094 346.805,-350.3021"/>
<polygon fill="#000000" stroke="#000000" points="343.5244,-349.0762 342.9217,-359.6539 349.9892,-351.7608 343.5244,-349.0762"/>
<g id="a_edge18&#45;headlabel"><a xlink:href="dir_000274_000027.html" target="_top" xlink:title="16">
<text text-anchor="middle" x="342.2807" y="-342.1676" font-family="Helvetica,sans-Serif" font-size="10.00" fill="#000000">16</text>
</a>
</g>
</g>
<!-- dir_37c90836491b695b472bf98d1be8336b&#45;&gt;dir_f511f1e9c03c071966ae594f00bbc5e0 -->
<g id="edge19" class="edge">
<title>dir_37c90836491b695b472bf98d1be8336b&#45;&gt;dir_f511f1e9c03c071966ae594f00bbc5e0</title>
<path fill="none" stroke="#000000" d="M404.7841,-108.3227C401.0292,-127.0478 393.7836,-156.6163 382,-180 362.6828,-218.3336 330.686,-256.2319 308.3124,-280.2933"/>
<polygon fill="#000000" stroke="#000000" points="305.7328,-277.9272 301.4147,-287.6022 310.8237,-282.7317 305.7328,-277.9272"/>
<g id="a_edge19&#45;headlabel"><a xlink:href="dir_000274_000670.html" target="_top" xlink:title="14">
<text text-anchor="middle" x="306.135" y="-270.8643" font-family="Helvetica,sans-Serif" font-size="10.00" fill="#000000">14</text>
</a>
</g>
</g>
<!-- dir_37c90836491b695b472bf98d1be8336b&#45;&gt;dir_bcbb2cf9a3d3d83e5515c82071a07177 -->
<g id="edge20" class="edge">
<title>dir_37c90836491b695b472bf98d1be8336b&#45;&gt;dir_bcbb2cf9a3d3d83e5515c82071a07177</title>
<path fill="none" stroke="#000000" d="M389.0743,-71.8314C380.0143,-63.1337 369.0191,-52.5783 359.1735,-43.1265"/>
<polygon fill="#000000" stroke="#000000" points="361.5574,-40.5633 351.9196,-36.1628 356.7096,-45.613 361.5574,-40.5633"/>
<g id="a_edge20&#45;headlabel"><a xlink:href="dir_000274_000013.html" target="_top" xlink:title="1">
<text text-anchor="middle" x="366.1167" y="-38.5045" font-family="Helvetica,sans-Serif" font-size="10.00" fill="#000000">1</text>
</a>
</g>
</g>
<!-- dir_37c90836491b695b472bf98d1be8336b&#45;&gt;dir_2171f7ec022c5423887b07c69b2f5b48 -->
<g id="edge21" class="edge">
<title>dir_37c90836491b695b472bf98d1be8336b&#45;&gt;dir_2171f7ec022c5423887b07c69b2f5b48</title>
<path fill="none" stroke="#000000" d="M394.7955,-108.4133C386.5976,-117.0787 375.857,-127.5464 365.5885,-136.9223"/>
<polygon fill="#000000" stroke="#000000" points="362.9899,-134.5513 357.8781,-143.8314 367.6613,-139.7645 362.9899,-134.5513"/>
<g id="a_edge21&#45;headlabel"><a xlink:href="dir_000274_000076.html" target="_top" xlink:title="10">
<text text-anchor="middle" x="363.7722" y="-127.5379" font-family="Helvetica,sans-Serif" font-size="10.00" fill="#000000">10</text>
</a>
</g>
</g>
<!-- dir_f511f1e9c03c071966ae594f00bbc5e0&#45;&gt;dir_4ab6b4cc6a7edbff49100e9123df213f -->
<g id="edge30" class="edge">
<title>dir_f511f1e9c03c071966ae594f00bbc5e0&#45;&gt;dir_4ab6b4cc6a7edbff49100e9123df213f</title>
<path fill="none" stroke="#000000" d="M302.2745,-324.4133C308.9446,-332.569 316.1784,-342.3212 322.2332,-351.257"/>
<polygon fill="#000000" stroke="#000000" points="319.4334,-353.3709 327.8306,-359.8314 325.295,-349.5444 319.4334,-353.3709"/>
<g id="a_edge30&#45;headlabel"><a xlink:href="dir_000670_000027.html" target="_top" xlink:title="2">
<text text-anchor="middle" x="315.091" y="-349.4129" font-family="Helvetica,sans-Serif" font-size="10.00" fill="#000000">2</text>
</a>
</g>
</g>
<!-- dir_f511f1e9c03c071966ae594f00bbc5e0&#45;&gt;dir_26637d1bd82229bc9ed97f7e706be743 -->
<g id="edge31" class="edge">
<title>dir_f511f1e9c03c071966ae594f00bbc5e0&#45;&gt;dir_26637d1bd82229bc9ed97f7e706be743</title>
<path fill="none" stroke="#000000" d="M259.3837,-287.8314C250.3321,-279.3694 240.2103,-269.1489 231.6698,-259.8971"/>
<polygon fill="#000000" stroke="#000000" points="234.2202,-257.499 224.9258,-252.4133 229.0201,-262.185 234.2202,-257.499"/>
<g id="a_edge31&#45;headlabel"><a xlink:href="dir_000670_000556.html" target="_top" xlink:title="1">
<text text-anchor="middle" x="238.7357" y="-255.7686" font-family="Helvetica,sans-Serif" font-size="10.00" fill="#000000">1</text>
</a>
</g>
</g>
<!-- dir_f511f1e9c03c071966ae594f00bbc5e0&#45;&gt;dir_2171f7ec022c5423887b07c69b2f5b48 -->
<g id="edge32" class="edge">
<title>dir_f511f1e9c03c071966ae594f00bbc5e0&#45;&gt;dir_2171f7ec022c5423887b07c69b2f5b48</title>
<path fill="none" stroke="#000000" d="M280.995,-287.8782C283.7949,-269.5647 292.1223,-240.5446 301,-216 304.1729,-207.2276 308.0178,-197.8237 312.0599,-189.3618"/>
<polygon fill="#000000" stroke="#000000" points="315.2598,-190.7911 316.682,-180.2922 309.023,-187.6127 315.2598,-190.7911"/>
<g id="a_edge32&#45;headlabel"><a xlink:href="dir_000670_000076.html" target="_top" xlink:title="15">
<text text-anchor="middle" x="316.1573" y="-192.783" font-family="Helvetica,sans-Serif" font-size="10.00" fill="#000000">15</text>
</a>
</g>
</g>
<!-- dir_bcbb2cf9a3d3d83e5515c82071a07177&#45;&gt;dir_a3959ed40b1558172144f5e1a56e443f -->
<g id="edge34" class="edge">
<title>dir_bcbb2cf9a3d3d83e5515c82071a07177&#45;&gt;dir_a3959ed40b1558172144f5e1a56e443f</title>
<path fill="none" stroke="#000000" d="M368.5555,-20.7776C415.624,-25.6545 500.1113,-38.639 564,-72 617.0029,-99.6767 664,-102.2061 664,-162 664,-306 664,-306 664,-306 664,-377.6401 575.6707,-419.9247 523.808,-438.5777"/>
<polygon fill="#000000" stroke="#000000" points="522.5663,-435.3038 514.2683,-441.8913 524.8632,-441.9163 522.5663,-435.3038"/>
<g id="a_edge34&#45;headlabel"><a xlink:href="dir_000013_000303.html" target="_top" xlink:title="1">
<text text-anchor="middle" x="525.0303" y="-428.9424" font-family="Helvetica,sans-Serif" font-size="10.00" fill="#000000">1</text>
</a>
</g>
</g>
<!-- dir_bcbb2cf9a3d3d83e5515c82071a07177&#45;&gt;dir_4ab6b4cc6a7edbff49100e9123df213f -->
<g id="edge33" class="edge">
<title>dir_bcbb2cf9a3d3d83e5515c82071a07177&#45;&gt;dir_4ab6b4cc6a7edbff49100e9123df213f</title>
<path fill="none" stroke="#000000" d="M368.6635,-21.5552C438.9775,-31.0505 588,-63.3964 588,-162 588,-234 588,-234 588,-234 588,-329.64 447.243,-363.0684 375.6016,-373.6152"/>
<polygon fill="#000000" stroke="#000000" points="374.9816,-370.1676 365.5581,-375.0099 375.9445,-377.1011 374.9816,-370.1676"/>
<g id="a_edge33&#45;headlabel"><a xlink:href="dir_000013_000027.html" target="_top" xlink:title="8">
<text text-anchor="middle" x="378.1515" y="-364.361" font-family="Helvetica,sans-Serif" font-size="10.00" fill="#000000">8</text>
</a>
</g>
</g>
<!-- dir_bcbb2cf9a3d3d83e5515c82071a07177&#45;&gt;dir_2171f7ec022c5423887b07c69b2f5b48 -->
<g id="edge35" class="edge">
<title>dir_bcbb2cf9a3d3d83e5515c82071a07177&#45;&gt;dir_2171f7ec022c5423887b07c69b2f5b48</title>
<path fill="none" stroke="#000000" d="M337.6583,-36.0896C340.1269,-60.5727 340.4104,-104.5174 338.5089,-133.4713"/>
<polygon fill="#000000" stroke="#000000" points="334.9942,-133.5118 337.6732,-143.7623 341.9712,-134.0785 334.9942,-133.5118"/>
<g id="a_edge35&#45;headlabel"><a xlink:href="dir_000013_000076.html" target="_top" xlink:title="82">
<text text-anchor="middle" x="332.4551" y="-127.1992" font-family="Helvetica,sans-Serif" font-size="10.00" fill="#000000">82</text>
</a>
</g>
</g>
<!-- dir_26637d1bd82229bc9ed97f7e706be743&#45;&gt;dir_4ab6b4cc6a7edbff49100e9123df213f -->
<g id="edge36" class="edge">
<title>dir_26637d1bd82229bc9ed97f7e706be743&#45;&gt;dir_4ab6b4cc6a7edbff49100e9123df213f</title>
<path fill="none" stroke="#000000" d="M216.2549,-252.3362C220.5017,-271.8895 229.5466,-302.8877 247,-324 259.8165,-339.5033 278.3063,-351.7911 295.0328,-360.7034"/>
<polygon fill="#000000" stroke="#000000" points="293.5957,-363.899 304.0966,-365.3064 296.7653,-357.6577 293.5957,-363.899"/>
<g id="a_edge36&#45;headlabel"><a xlink:href="dir_000556_000027.html" target="_top" xlink:title="9">
<text text-anchor="middle" x="289.1051" y="-362.303" font-family="Helvetica,sans-Serif" font-size="10.00" fill="#000000">9</text>
</a>
</g>
</g>
<!-- dir_26637d1bd82229bc9ed97f7e706be743&#45;&gt;dir_f511f1e9c03c071966ae594f00bbc5e0 -->
<g id="edge37" class="edge">
<title>dir_26637d1bd82229bc9ed97f7e706be743&#45;&gt;dir_f511f1e9c03c071966ae594f00bbc5e0</title>
<path fill="none" stroke="#000000" d="M236.6101,-252.1628C245.7308,-260.6891 255.9389,-271.0016 264.5212,-280.3099"/>
<polygon fill="#000000" stroke="#000000" points="261.998,-282.7384 271.2884,-287.8314 267.2018,-278.0564 261.998,-282.7384"/>
<g id="a_edge37&#45;headlabel"><a xlink:href="dir_000556_000670.html" target="_top" xlink:title="2">
<text text-anchor="middle" x="257.4831" y="-279.4652" font-family="Helvetica,sans-Serif" font-size="10.00" fill="#000000">2</text>
</a>
</g>
</g>
<!-- dir_26637d1bd82229bc9ed97f7e706be743&#45;&gt;dir_bcbb2cf9a3d3d83e5515c82071a07177 -->
<g id="edge38" class="edge">
<title>dir_26637d1bd82229bc9ed97f7e706be743&#45;&gt;dir_bcbb2cf9a3d3d83e5515c82071a07177</title>
<path fill="none" stroke="#000000" d="M223.0247,-215.9555C244.1129,-177.9967 293.1596,-89.7127 318.004,-44.9928"/>
<polygon fill="#000000" stroke="#000000" points="321.1225,-46.5864 322.9194,-36.1451 315.0034,-43.1869 321.1225,-46.5864"/>
<g id="a_edge38&#45;headlabel"><a xlink:href="dir_000556_000013.html" target="_top" xlink:title="25">
<text text-anchor="middle" x="321.8588" y="-48.6075" font-family="Helvetica,sans-Serif" font-size="10.00" fill="#000000">25</text>
</a>
</g>
</g>
<!-- dir_26637d1bd82229bc9ed97f7e706be743&#45;&gt;dir_2171f7ec022c5423887b07c69b2f5b48 -->
<g id="edge39" class="edge">
<title>dir_26637d1bd82229bc9ed97f7e706be743&#45;&gt;dir_2171f7ec022c5423887b07c69b2f5b48</title>
<path fill="none" stroke="#000000" d="M240.2299,-217.6621C256.1291,-208.1226 276.4567,-195.926 294.0293,-185.3824"/>
<polygon fill="#000000" stroke="#000000" points="296.1552,-188.1886 302.9294,-180.0423 292.5537,-182.1861 296.1552,-188.1886"/>
<g id="a_edge39&#45;headlabel"><a xlink:href="dir_000556_000076.html" target="_top" xlink:title="15">
<text text-anchor="middle" x="294.5337" y="-189.9726" font-family="Helvetica,sans-Serif" font-size="10.00" fill="#000000">15</text>
</a>
</g>
</g>
<!-- dir_2171f7ec022c5423887b07c69b2f5b48&#45;&gt;dir_4ab6b4cc6a7edbff49100e9123df213f -->
<g id="edge40" class="edge">
<title>dir_2171f7ec022c5423887b07c69b2f5b48&#45;&gt;dir_4ab6b4cc6a7edbff49100e9123df213f</title>
<path fill="none" stroke="#000000" d="M337.1231,-180.1451C340.9172,-217.7945 341.9812,-304.6409 339.4727,-349.7103"/>
<polygon fill="#000000" stroke="#000000" points="335.9626,-349.7418 338.7788,-359.9555 342.9466,-350.2149 335.9626,-349.7418"/>
<g id="a_edge40&#45;headlabel"><a xlink:href="dir_000076_000027.html" target="_top" xlink:title="34">
<text text-anchor="middle" x="333.3726" y="-343.4636" font-family="Helvetica,sans-Serif" font-size="10.00" fill="#000000">34</text>
</a>
</g>
</g>
<!-- dir_2171f7ec022c5423887b07c69b2f5b48&#45;&gt;dir_37c90836491b695b472bf98d1be8336b -->
<g id="edge41" class="edge">
<title>dir_2171f7ec022c5423887b07c69b2f5b48&#45;&gt;dir_37c90836491b695b472bf98d1be8336b</title>
<path fill="none" stroke="#000000" d="M345.9733,-143.8314C354.2662,-135.0485 365.2213,-124.3712 375.6622,-114.8489"/>
<polygon fill="#000000" stroke="#000000" points="378.0138,-117.4413 383.1286,-108.1628 373.344,-112.2266 378.0138,-117.4413"/>
<g id="a_edge41&#45;headlabel"><a xlink:href="dir_000076_000274.html" target="_top" xlink:title="1">
<text text-anchor="middle" x="377.2301" y="-119.4544" font-family="Helvetica,sans-Serif" font-size="10.00" fill="#000000">1</text>
</a>
</g>
</g>
<!-- dir_2171f7ec022c5423887b07c69b2f5b48&#45;&gt;dir_f511f1e9c03c071966ae594f00bbc5e0 -->
<g id="edge42" class="edge">
<title>dir_2171f7ec022c5423887b07c69b2f5b48&#45;&gt;dir_f511f1e9c03c071966ae594f00bbc5e0</title>
<path fill="none" stroke="#000000" d="M332.5358,-180.2922C329.007,-190.6561 323.3671,-203.9262 319,-216 311.5441,-236.6136 304.4764,-260.384 298.1419,-278.3176"/>
<polygon fill="#000000" stroke="#000000" points="294.7921,-277.2851 294.6004,-287.8782 301.3562,-279.7167 294.7921,-277.2851"/>
<g id="a_edge42&#45;headlabel"><a xlink:href="dir_000076_000670.html" target="_top" xlink:title="17">
<text text-anchor="middle" x="293.3781" y="-270.4281" font-family="Helvetica,sans-Serif" font-size="10.00" fill="#000000">17</text>
</a>
</g>
</g>
<!-- dir_2171f7ec022c5423887b07c69b2f5b48&#45;&gt;dir_bcbb2cf9a3d3d83e5515c82071a07177 -->
<g id="edge43" class="edge">
<title>dir_2171f7ec022c5423887b07c69b2f5b48&#45;&gt;dir_bcbb2cf9a3d3d83e5515c82071a07177</title>
<path fill="none" stroke="#000000" d="M328.3268,-143.7623C325.867,-119.201 325.5923,-75.2474 327.5026,-46.3541"/>
<polygon fill="#000000" stroke="#000000" points="331.0152,-46.3416 328.3417,-36.0896 324.0385,-45.7712 331.0152,-46.3416"/>
<g id="a_edge43&#45;headlabel"><a xlink:href="dir_000076_000013.html" target="_top" xlink:title="7">
<text text-anchor="middle" x="333.5522" y="-47.6556" font-family="Helvetica,sans-Serif" font-size="10.00" fill="#000000">7</text>
</a>
</g>
</g>
</g>
</svg>
        <g id="navigator" transform="translate(0 0)" fill="#404254">
                <rect fill="#f2f5e9" fill-opacity="0.5" stroke="#606060" stroke-width=".5" x="0" y="0" width="60" height="60"/>
                <use id="zoomplus" xlink:href="#zoomPlus" x="17" y="9" onmousedown="handleZoom(evt,'in')"/>
                <use id="zoomminus" xlink:href="#zoomMin" x="42" y="9" onmousedown="handleZoom(evt,'out')"/>
                <use id="reset" xlink:href="#resetDef" x="30" y="36" onmousedown="handleReset()"/>
                <g id="arrowUp" xlink:href="#dirArrow" transform="translate(30 24)" onmousedown="handlePan(0,-1)">
                  <use xlink:href="#rim" fill="#404040">
                        <set attributeName="fill" to="#808080" begin="arrowUp.mouseover" end="arrowUp.mouseout"/>
                  </use>
                  <path fill="none" stroke="white" stroke-width="1.5" d="M0,-3.0v7 M-2.5,-0.5L0,-3.0L2.5,-0.5"/>
                </g>
                <g id="arrowRight" xlink:href="#dirArrow" transform="rotate(90) translate(36 -43)" onmousedown="handlePan(1,0)">
                  <use xlink:href="#rim" fill="#404040">
                        <set attributeName="fill" to="#808080" begin="arrowRight.mouseover" end="arrowRight.mouseout"/>
                  </use>
                  <path fill="none" stroke="white" stroke-width="1.5" d="M0,-3.0v7 M-2.5,-0.5L0,-3.0L2.5,-0.5"/>
                </g>
                <g id="arrowDown" xlink:href="#dirArrow" transform="rotate(180) translate(-30 -48)" onmousedown="handlePan(0,1)">
                  <use xlink:href="#rim" fill="#404040">
                        <set attributeName="fill" to="#808080" begin="arrowDown.mouseover" end="arrowDown.mouseout"/>
                  </use>
                  <path fill="none" stroke="white" stroke-width="1.5" d="M0,-3.0v7 M-2.5,-0.5L0,-3.0L2.5,-0.5"/>
                </g>
                <g id="arrowLeft" xlink:href="#dirArrow" transform="rotate(270) translate(-36 17)" onmousedown="handlePan(-1,0)">
                  <use xlink:href="#rim" fill="#404040">
                        <set attributeName="fill" to="#808080" begin="arrowLeft.mouseover" end="arrowLeft.mouseout"/>
                  </use>
                  <path fill="none" stroke="white" stroke-width="1.5" d="M0,-3.0v7 M-2.5,-0.5L0,-3.0L2.5,-0.5"/>
                </g>
        </g>
        <svg viewBox="0 0 15 15" width="100%" height="30px" preserveAspectRatio="xMaxYMin meet">
         <g id="arrow_out" transform="scale(0.3 0.3)">
          <a xlink:href="dir_7f309bec8670bb3fb666e7e061b24659_dep_org.svg" target="_base">
           <rect id="button" ry="5" rx="5" y="6" x="6" height="38" width="38"
                fill="#f2f5e9" fill-opacity="0.5" stroke="#606060" stroke-width="1.0"/>
           <path id="arrow"
             d="M 11.500037,31.436501 C 11.940474,20.09759 22.043105,11.32322 32.158766,21.979434 L 37.068811,17.246167 C 37.068811,17.246167 37.088388,32 37.088388,32 L 22.160133,31.978069 C 22.160133,31.978069 26.997745,27.140456 26.997745,27.140456 C 18.528582,18.264221 13.291696,25.230495 11.500037,31.436501 z"
             style="fill:#404040;"/>
          </a>
         </g>
        </svg>
</svg>
