<?xml version="1.0" encoding="UTF-8" standalone="no"?>
<!DOCTYPE svg PUBLIC "-//W3C//DTD SVG 1.1//EN"
 "http://www.w3.org/Graphics/SVG/1.1/DTD/svg11.dtd">
<!-- Generated by graphviz version 2.40.1 (20161225.0304)
 -->
<!-- Title: /home/travis/build/AliceO2Group/AliceO2/Steer/DigitizerWorkflow Pages: 1 -->
<svg width="365pt" height="447pt"
 viewBox="0.00 0.00 365.00 447.00" xmlns="http://www.w3.org/2000/svg" xmlns:xlink="http://www.w3.org/1999/xlink">
<g id="graph0" class="graph" transform="scale(1 1) rotate(0) translate(4 443)">
<title>/home/travis/build/AliceO2Group/AliceO2/Steer/DigitizerWorkflow</title>
<g id="clust1" class="cluster">
<title>clusterdir_40b4a122691869ee86baf7f2711ed718</title>
<g id="a_clust1"><a xlink:href="dir_40b4a122691869ee86baf7f2711ed718.html" target="_top" xlink:title="Steer">
<polygon fill="#ddddee" stroke="#000000" points="114,-344 114,-431 322,-431 322,-344 114,-344"/>
<text text-anchor="middle" x="218" y="-419" font-family="Helvetica,sans-Serif" font-size="10.00" fill="#000000">Steer</text>
</a>
</g>
</g>
<g id="clust2" class="cluster">
<title>clusterdir_a195a20aec66d1e163ba7321e47c9d6e</title>
<g id="a_clust2"><a xlink:href="dir_a195a20aec66d1e163ba7321e47c9d6e.html" target="_top">
<polygon fill="#eeeeff" stroke="#000000" points="122,-352 122,-404 314,-404 314,-352 122,-352"/>
</a>
</g>
</g>
<!-- dir_a195a20aec66d1e163ba7321e47c9d6e -->
<g id="node1" class="node">
<title>dir_a195a20aec66d1e163ba7321e47c9d6e</title>
<text text-anchor="middle" x="254" y="-375.5" font-family="Helvetica,sans-Serif" font-size="10.00" fill="#000000">DigitizerWorkflow</text>
</g>
<!-- dir_86a20ab9c6baa8064a451e42ec4f4dc0 -->
<g id="node2" class="node">
<title>dir_86a20ab9c6baa8064a451e42ec4f4dc0</title>
<g id="a_node2"><a xlink:href="dir_86a20ab9c6baa8064a451e42ec4f4dc0.html" target="_top" xlink:title="src">
<polygon fill="#ffffff" stroke="#000000" points="184,-396 130,-396 130,-360 184,-360 184,-396"/>
<text text-anchor="middle" x="157" y="-375.5" font-family="Helvetica,sans-Serif" font-size="10.00" fill="#000000">src</text>
</a>
</g>
</g>
<!-- dir_4ab6b4cc6a7edbff49100e9123df213f -->
<g id="node3" class="node">
<title>dir_4ab6b4cc6a7edbff49100e9123df213f</title>
<g id="a_node3"><a xlink:href="dir_4ab6b4cc6a7edbff49100e9123df213f.html" target="_top" xlink:title="Common">
<polygon fill="none" stroke="#ff0000" points="217.5,-324 156.5,-324 156.5,-288 217.5,-288 217.5,-324"/>
<text text-anchor="middle" x="187" y="-303.5" font-family="Helvetica,sans-Serif" font-size="10.00" fill="#000000">Common</text>
</a>
</g>
</g>
<!-- dir_86a20ab9c6baa8064a451e42ec4f4dc0&#45;&gt;dir_4ab6b4cc6a7edbff49100e9123df213f -->
<g id="edge8" class="edge">
<title>dir_86a20ab9c6baa8064a451e42ec4f4dc0&#45;&gt;dir_4ab6b4cc6a7edbff49100e9123df213f</title>
<path fill="none" stroke="#000000" d="M164.5703,-359.8314C167.8493,-351.9617 171.762,-342.5712 175.3945,-333.8533"/>
<polygon fill="#000000" stroke="#000000" points="178.7124,-334.9902 179.3278,-324.4133 172.2508,-332.2979 178.7124,-334.9902"/>
<g id="a_edge8&#45;headlabel"><a xlink:href="dir_000710_000027.html" target="_top" xlink:title="6">
<text text-anchor="middle" x="179.9507" y="-336.9003" font-family="Helvetica,sans-Serif" font-size="10.00" fill="#000000">6</text>
</a>
</g>
</g>
<!-- dir_051dca18e802f8e9474f2e30d29c04e0 -->
<g id="node4" class="node">
<title>dir_051dca18e802f8e9474f2e30d29c04e0</title>
<g id="a_node4"><a xlink:href="dir_051dca18e802f8e9474f2e30d29c04e0.html" target="_top" xlink:title="Detectors">
<polygon fill="none" stroke="#ff0000" points="197,-108 133,-108 133,-72 197,-72 197,-108"/>
<text text-anchor="middle" x="165" y="-87.5" font-family="Helvetica,sans-Serif" font-size="10.00" fill="#000000">Detectors</text>
</a>
</g>
</g>
<!-- dir_86a20ab9c6baa8064a451e42ec4f4dc0&#45;&gt;dir_051dca18e802f8e9474f2e30d29c04e0 -->
<g id="edge9" class="edge">
<title>dir_86a20ab9c6baa8064a451e42ec4f4dc0&#45;&gt;dir_051dca18e802f8e9474f2e30d29c04e0</title>
<path fill="none" stroke="#000000" d="M137.7023,-359.8087C109.1742,-330.6084 60.8669,-270.9671 78,-216 90.153,-177.0101 119.0527,-139.4387 140.2218,-115.6256"/>
<polygon fill="#000000" stroke="#000000" points="142.9311,-117.8484 147.0691,-108.0951 137.752,-113.1392 142.9311,-117.8484"/>
<g id="a_edge9&#45;headlabel"><a xlink:href="dir_000710_000039.html" target="_top" xlink:title="75">
<text text-anchor="middle" x="142.6136" y="-119.9181" font-family="Helvetica,sans-Serif" font-size="10.00" fill="#000000">75</text>
</a>
</g>
</g>
<!-- dir_8ba487e25de5ee77e05e9dce7582cb98 -->
<g id="node5" class="node">
<title>dir_8ba487e25de5ee77e05e9dce7582cb98</title>
<g id="a_node5"><a xlink:href="dir_8ba487e25de5ee77e05e9dce7582cb98.html" target="_top" xlink:title="Algorithm">
<polygon fill="none" stroke="#ff0000" points="197.5,-36 132.5,-36 132.5,0 197.5,0 197.5,-36"/>
<text text-anchor="middle" x="165" y="-15.5" font-family="Helvetica,sans-Serif" font-size="10.00" fill="#000000">Algorithm</text>
</a>
</g>
</g>
<!-- dir_86a20ab9c6baa8064a451e42ec4f4dc0&#45;&gt;dir_8ba487e25de5ee77e05e9dce7582cb98 -->
<g id="edge10" class="edge">
<title>dir_86a20ab9c6baa8064a451e42ec4f4dc0&#45;&gt;dir_8ba487e25de5ee77e05e9dce7582cb98</title>
<path fill="none" stroke="#000000" d="M129.6527,-367.6352C84.6711,-348.5996 0,-303.5331 0,-234 0,-234 0,-234 0,-162 0,-96.7705 74.1052,-54.2966 122.99,-33.3742"/>
<polygon fill="#000000" stroke="#000000" points="124.5014,-36.5366 132.4013,-29.4767 121.8231,-30.0693 124.5014,-36.5366"/>
<g id="a_edge10&#45;headlabel"><a xlink:href="dir_000710_000000.html" target="_top" xlink:title="1">
<text text-anchor="middle" x="122.2667" y="-38.0351" font-family="Helvetica,sans-Serif" font-size="10.00" fill="#000000">1</text>
</a>
</g>
</g>
<!-- dir_a1435872ec32250c24e4b9798bc29a35 -->
<g id="node6" class="node">
<title>dir_a1435872ec32250c24e4b9798bc29a35</title>
<g id="a_node6"><a xlink:href="dir_a1435872ec32250c24e4b9798bc29a35.html" target="_top" xlink:title="include">
<polygon fill="none" stroke="#ff0000" points="327,-36 273,-36 273,0 327,0 327,-36"/>
<text text-anchor="middle" x="300" y="-15.5" font-family="Helvetica,sans-Serif" font-size="10.00" fill="#000000">include</text>
</a>
</g>
</g>
<!-- dir_86a20ab9c6baa8064a451e42ec4f4dc0&#45;&gt;dir_a1435872ec32250c24e4b9798bc29a35 -->
<g id="edge11" class="edge">
<title>dir_86a20ab9c6baa8064a451e42ec4f4dc0&#45;&gt;dir_a1435872ec32250c24e4b9798bc29a35</title>
<path fill="none" stroke="#000000" d="M173.3936,-359.8604C179.174,-354.224 185.9892,-348.3542 193,-344 214.7413,-330.4971 224.7925,-336.7216 247,-324 301.8111,-292.6014 357,-297.1674 357,-234 357,-234 357,-234 357,-162 357,-118.7597 334.5055,-73.0187 317.7788,-44.9832"/>
<polygon fill="#000000" stroke="#000000" points="320.5874,-42.8688 312.3682,-36.1834 314.6244,-46.5353 320.5874,-42.8688"/>
<g id="a_edge11&#45;headlabel"><a xlink:href="dir_000710_000711.html" target="_top" xlink:title="14">
<text text-anchor="middle" x="324.8888" y="-41.9438" font-family="Helvetica,sans-Serif" font-size="10.00" fill="#000000">14</text>
</a>
</g>
</g>
<!-- dir_bcbb2cf9a3d3d83e5515c82071a07177 -->
<g id="node7" class="node">
<title>dir_bcbb2cf9a3d3d83e5515c82071a07177</title>
<g id="a_node7"><a xlink:href="dir_bcbb2cf9a3d3d83e5515c82071a07177.html" target="_top" xlink:title="Framework">
<polygon fill="none" stroke="#ff0000" points="158.5,-252 87.5,-252 87.5,-216 158.5,-216 158.5,-252"/>
<text text-anchor="middle" x="123" y="-231.5" font-family="Helvetica,sans-Serif" font-size="10.00" fill="#000000">Framework</text>
</a>
</g>
</g>
<!-- dir_86a20ab9c6baa8064a451e42ec4f4dc0&#45;&gt;dir_bcbb2cf9a3d3d83e5515c82071a07177 -->
<g id="edge12" class="edge">
<title>dir_86a20ab9c6baa8064a451e42ec4f4dc0&#45;&gt;dir_bcbb2cf9a3d3d83e5515c82071a07177</title>
<path fill="none" stroke="#000000" d="M152.6939,-359.7623C146.8691,-335.0928 136.4252,-290.8598 129.6048,-261.9731"/>
<polygon fill="#000000" stroke="#000000" points="132.9755,-261.0177 127.2712,-252.0896 126.1628,-262.6263 132.9755,-261.0177"/>
<g id="a_edge12&#45;headlabel"><a xlink:href="dir_000710_000013.html" target="_top" xlink:title="153">
<text text-anchor="middle" x="136.5647" y="-261.3637" font-family="Helvetica,sans-Serif" font-size="10.00" fill="#000000">153</text>
</a>
</g>
</g>
<!-- dir_2171f7ec022c5423887b07c69b2f5b48 -->
<g id="node8" class="node">
<title>dir_2171f7ec022c5423887b07c69b2f5b48</title>
<g id="a_node8"><a xlink:href="dir_2171f7ec022c5423887b07c69b2f5b48.html" target="_top" xlink:title="DataFormats">
<polygon fill="none" stroke="#ff0000" points="278,-180 198,-180 198,-144 278,-144 278,-180"/>
<text text-anchor="middle" x="238" y="-159.5" font-family="Helvetica,sans-Serif" font-size="10.00" fill="#000000">DataFormats</text>
</a>
</g>
</g>
<!-- dir_86a20ab9c6baa8064a451e42ec4f4dc0&#45;&gt;dir_2171f7ec022c5423887b07c69b2f5b48 -->
<g id="edge13" class="edge">
<title>dir_86a20ab9c6baa8064a451e42ec4f4dc0&#45;&gt;dir_2171f7ec022c5423887b07c69b2f5b48</title>
<path fill="none" stroke="#000000" d="M174.6465,-359.9169C180.2887,-354.5306 186.7078,-348.7918 193,-344 206.644,-333.6094 216.5731,-338.3268 226,-324 252.622,-283.5403 248.9262,-224.4606 243.6087,-189.9508"/>
<polygon fill="#000000" stroke="#000000" points="247.0575,-189.3534 241.9382,-180.0774 240.1556,-190.5212 247.0575,-189.3534"/>
<g id="a_edge13&#45;headlabel"><a xlink:href="dir_000710_000076.html" target="_top" xlink:title="134">
<text text-anchor="middle" x="250.4566" y="-189.924" font-family="Helvetica,sans-Serif" font-size="10.00" fill="#000000">134</text>
</a>
</g>
</g>
<!-- dir_4ab6b4cc6a7edbff49100e9123df213f&#45;&gt;dir_bcbb2cf9a3d3d83e5515c82071a07177 -->
<g id="edge1" class="edge">
<title>dir_4ab6b4cc6a7edbff49100e9123df213f&#45;&gt;dir_bcbb2cf9a3d3d83e5515c82071a07177</title>
<path fill="none" stroke="#000000" d="M164.8977,-287.8314C156.6348,-279.454 147.4665,-269.3531 139.7452,-260.1749"/>
<polygon fill="#000000" stroke="#000000" points="142.4341,-257.9341 133.3913,-252.4133 137.0175,-262.3683 142.4341,-257.9341"/>
<g id="a_edge1&#45;headlabel"><a xlink:href="dir_000027_000013.html" target="_top" xlink:title="2">
<text text-anchor="middle" x="146.908" y="-256.4171" font-family="Helvetica,sans-Serif" font-size="10.00" fill="#000000">2</text>
</a>
</g>
</g>
<!-- dir_4ab6b4cc6a7edbff49100e9123df213f&#45;&gt;dir_2171f7ec022c5423887b07c69b2f5b48 -->
<g id="edge2" class="edge">
<title>dir_4ab6b4cc6a7edbff49100e9123df213f&#45;&gt;dir_2171f7ec022c5423887b07c69b2f5b48</title>
<path fill="none" stroke="#000000" d="M188.786,-287.7623C195.08,-262.9846 210.5873,-218.4714 222.7807,-189.5939"/>
<polygon fill="#000000" stroke="#000000" points="226.1369,-190.6544 226.935,-180.0896 219.7228,-187.8508 226.1369,-190.6544"/>
<g id="a_edge2&#45;headlabel"><a xlink:href="dir_000027_000076.html" target="_top" xlink:title="2">
<text text-anchor="middle" x="227.2989" y="-192.5852" font-family="Helvetica,sans-Serif" font-size="10.00" fill="#000000">2</text>
</a>
</g>
</g>
<!-- dir_051dca18e802f8e9474f2e30d29c04e0&#45;&gt;dir_4ab6b4cc6a7edbff49100e9123df213f -->
<g id="edge3" class="edge">
<title>dir_051dca18e802f8e9474f2e30d29c04e0&#45;&gt;dir_4ab6b4cc6a7edbff49100e9123df213f</title>
<path fill="none" stroke="#000000" d="M166.8481,-108.1451C170.6909,-145.8741 179.5657,-233.0083 184.1477,-277.9956"/>
<polygon fill="#000000" stroke="#000000" points="180.6668,-278.3616 185.1621,-287.9555 187.6308,-277.6523 180.6668,-278.3616"/>
<g id="a_edge3&#45;headlabel"><a xlink:href="dir_000039_000027.html" target="_top" xlink:title="260">
<text text-anchor="middle" x="177.478" y="-272.5732" font-family="Helvetica,sans-Serif" font-size="10.00" fill="#000000">260</text>
</a>
</g>
</g>
<!-- dir_051dca18e802f8e9474f2e30d29c04e0&#45;&gt;dir_8ba487e25de5ee77e05e9dce7582cb98 -->
<g id="edge4" class="edge">
<title>dir_051dca18e802f8e9474f2e30d29c04e0&#45;&gt;dir_8ba487e25de5ee77e05e9dce7582cb98</title>
<path fill="none" stroke="#000000" d="M165,-71.8314C165,-64.131 165,-54.9743 165,-46.4166"/>
<polygon fill="#000000" stroke="#000000" points="168.5001,-46.4132 165,-36.4133 161.5001,-46.4133 168.5001,-46.4132"/>
<g id="a_edge4&#45;headlabel"><a xlink:href="dir_000039_000000.html" target="_top" xlink:title="15">
<text text-anchor="middle" x="171.3393" y="-47.5079" font-family="Helvetica,sans-Serif" font-size="10.00" fill="#000000">15</text>
</a>
</g>
</g>
<!-- dir_051dca18e802f8e9474f2e30d29c04e0&#45;&gt;dir_a1435872ec32250c24e4b9798bc29a35 -->
<g id="edge5" class="edge">
<title>dir_051dca18e802f8e9474f2e30d29c04e0&#45;&gt;dir_a1435872ec32250c24e4b9798bc29a35</title>
<path fill="none" stroke="#000000" d="M197.3359,-72.7542C217.449,-62.0272 243.3412,-48.218 264.0908,-37.1516"/>
<polygon fill="#000000" stroke="#000000" points="265.7528,-40.2319 272.9293,-32.4377 262.4587,-34.0554 265.7528,-40.2319"/>
<g id="a_edge5&#45;headlabel"><a xlink:href="dir_000039_000711.html" target="_top" xlink:title="5">
<text text-anchor="middle" x="263.9172" y="-41.9287" font-family="Helvetica,sans-Serif" font-size="10.00" fill="#000000">5</text>
</a>
</g>
</g>
<!-- dir_051dca18e802f8e9474f2e30d29c04e0&#45;&gt;dir_bcbb2cf9a3d3d83e5515c82071a07177 -->
<g id="edge6" class="edge">
<title>dir_051dca18e802f8e9474f2e30d29c04e0&#45;&gt;dir_bcbb2cf9a3d3d83e5515c82071a07177</title>
<path fill="none" stroke="#000000" d="M164.3822,-108.0896C159.6687,-132.7884 146.9547,-177.2933 136.5568,-206.2331"/>
<polygon fill="#000000" stroke="#000000" points="133.2178,-205.1699 132.9925,-215.7623 139.7741,-207.6223 133.2178,-205.1699"/>
<g id="a_edge6&#45;headlabel"><a xlink:href="dir_000039_000013.html" target="_top" xlink:title="717">
<text text-anchor="middle" x="131.8177" y="-198.3084" font-family="Helvetica,sans-Serif" font-size="10.00" fill="#000000">717</text>
</a>
</g>
</g>
<!-- dir_051dca18e802f8e9474f2e30d29c04e0&#45;&gt;dir_2171f7ec022c5423887b07c69b2f5b48 -->
<g id="edge7" class="edge">
<title>dir_051dca18e802f8e9474f2e30d29c04e0&#45;&gt;dir_2171f7ec022c5423887b07c69b2f5b48</title>
<path fill="none" stroke="#000000" d="M189.3669,-108.1628C198.8429,-116.6891 209.4806,-127.0016 218.4508,-136.3099"/>
<polygon fill="#000000" stroke="#000000" points="216.1285,-138.9492 225.5314,-143.8314 221.2254,-134.151 216.1285,-138.9492"/>
<g id="a_edge7&#45;headlabel"><a xlink:href="dir_000039_000076.html" target="_top" xlink:title="1011">
<text text-anchor="middle" x="211.5973" y="-135.778" font-family="Helvetica,sans-Serif" font-size="10.00" fill="#000000">1011</text>
</a>
</g>
</g>
<!-- dir_8ba487e25de5ee77e05e9dce7582cb98&#45;&gt;dir_2171f7ec022c5423887b07c69b2f5b48 -->
<g id="edge14" class="edge">
<title>dir_8ba487e25de5ee77e05e9dce7582cb98&#45;&gt;dir_2171f7ec022c5423887b07c69b2f5b48</title>
<path fill="none" stroke="#000000" d="M188.9023,-36.0235C198.2236,-46.0887 208.0599,-59.1594 215,-72 225.6121,-91.6344 233.9105,-115.4991 238.0871,-133.7194"/>
<polygon fill="#000000" stroke="#000000" points="234.6903,-134.585 240.0563,-143.7204 241.5584,-133.2326 234.6903,-134.585"/>
<g id="a_edge14&#45;headlabel"><a xlink:href="dir_000000_000076.html" target="_top" xlink:title="8">
<text text-anchor="middle" x="231.2101" y="-129.1066" font-family="Helvetica,sans-Serif" font-size="10.00" fill="#000000">8</text>
</a>
</g>
</g>
<!-- dir_a1435872ec32250c24e4b9798bc29a35&#45;&gt;dir_4ab6b4cc6a7edbff49100e9123df213f -->
<g id="edge15" class="edge">
<title>dir_a1435872ec32250c24e4b9798bc29a35&#45;&gt;dir_4ab6b4cc6a7edbff49100e9123df213f</title>
<path fill="none" stroke="#000000" d="M301.5993,-36.1532C303.641,-66.8236 305.0023,-130.4033 287,-180 272.4693,-220.0322 239.7658,-257.0814 215.6961,-280.4962"/>
<polygon fill="#000000" stroke="#000000" points="213.0541,-278.1788 208.2187,-287.6058 217.8775,-283.2517 213.0541,-278.1788"/>
<g id="a_edge15&#45;headlabel"><a xlink:href="dir_000711_000027.html" target="_top" xlink:title="2">
<text text-anchor="middle" x="213.7027" y="-271.1443" font-family="Helvetica,sans-Serif" font-size="10.00" fill="#000000">2</text>
</a>
</g>
</g>
<!-- dir_a1435872ec32250c24e4b9798bc29a35&#45;&gt;dir_2171f7ec022c5423887b07c69b2f5b48 -->
<g id="edge16" class="edge">
<title>dir_a1435872ec32250c24e4b9798bc29a35&#45;&gt;dir_2171f7ec022c5423887b07c69b2f5b48</title>
<path fill="none" stroke="#000000" d="M292.2114,-36.0896C281.5772,-60.7884 262.4154,-105.2933 249.9552,-134.2331"/>
<polygon fill="#000000" stroke="#000000" points="246.5923,-133.1933 245.8523,-143.7623 253.0217,-135.9616 246.5923,-133.1933"/>
<g id="a_edge16&#45;headlabel"><a xlink:href="dir_000711_000076.html" target="_top" xlink:title="10">
<text text-anchor="middle" x="245.4059" y="-126.2689" font-family="Helvetica,sans-Serif" font-size="10.00" fill="#000000">10</text>
</a>
</g>
</g>
<!-- dir_bcbb2cf9a3d3d83e5515c82071a07177&#45;&gt;dir_4ab6b4cc6a7edbff49100e9123df213f -->
<g id="edge17" class="edge">
<title>dir_bcbb2cf9a3d3d83e5515c82071a07177&#45;&gt;dir_4ab6b4cc6a7edbff49100e9123df213f</title>
<path fill="none" stroke="#000000" d="M145.3434,-252.4133C153.54,-260.7389 162.6014,-270.7282 170.2458,-279.8144"/>
<polygon fill="#000000" stroke="#000000" points="167.7623,-282.3063 176.8025,-287.8314 173.1809,-277.8747 167.7623,-282.3063"/>
<g id="a_edge17&#45;headlabel"><a xlink:href="dir_000013_000027.html" target="_top" xlink:title="8">
<text text-anchor="middle" x="163.2888" y="-278.8213" font-family="Helvetica,sans-Serif" font-size="10.00" fill="#000000">8</text>
</a>
</g>
</g>
<!-- dir_bcbb2cf9a3d3d83e5515c82071a07177&#45;&gt;dir_051dca18e802f8e9474f2e30d29c04e0 -->
<g id="edge18" class="edge">
<title>dir_bcbb2cf9a3d3d83e5515c82071a07177&#45;&gt;dir_051dca18e802f8e9474f2e30d29c04e0</title>
<path fill="none" stroke="#000000" d="M123.6462,-215.7623C128.3915,-190.9846 141.1168,-146.4714 151.5054,-117.5939"/>
<polygon fill="#000000" stroke="#000000" points="154.8352,-118.682 155.0656,-108.0896 148.28,-116.2264 154.8352,-118.682"/>
<g id="a_edge18&#45;headlabel"><a xlink:href="dir_000013_000039.html" target="_top" xlink:title="4">
<text text-anchor="middle" x="156.2332" y="-120.5441" font-family="Helvetica,sans-Serif" font-size="10.00" fill="#000000">4</text>
</a>
</g>
</g>
<!-- dir_bcbb2cf9a3d3d83e5515c82071a07177&#45;&gt;dir_8ba487e25de5ee77e05e9dce7582cb98 -->
<g id="edge19" class="edge">
<title>dir_bcbb2cf9a3d3d83e5515c82071a07177&#45;&gt;dir_8ba487e25de5ee77e05e9dce7582cb98</title>
<path fill="none" stroke="#000000" d="M119.4884,-215.8899C114.3386,-185.283 107.0672,-121.7945 124,-72 127.4107,-61.9701 133.4907,-52.3183 139.9416,-44.0184"/>
<polygon fill="#000000" stroke="#000000" points="142.7341,-46.1341 146.431,-36.2052 137.3492,-41.6616 142.7341,-46.1341"/>
<g id="a_edge19&#45;headlabel"><a xlink:href="dir_000013_000000.html" target="_top" xlink:title="1">
<text text-anchor="middle" x="142.6216" y="-48.2134" font-family="Helvetica,sans-Serif" font-size="10.00" fill="#000000">1</text>
</a>
</g>
</g>
<!-- dir_bcbb2cf9a3d3d83e5515c82071a07177&#45;&gt;dir_2171f7ec022c5423887b07c69b2f5b48 -->
<g id="edge20" class="edge">
<title>dir_bcbb2cf9a3d3d83e5515c82071a07177&#45;&gt;dir_2171f7ec022c5423887b07c69b2f5b48</title>
<path fill="none" stroke="#000000" d="M146.067,-215.8314C159.8787,-206.6221 177.7745,-195.3301 194.1395,-185.4706"/>
<polygon fill="#000000" stroke="#000000" points="196.2428,-188.2915 203.0381,-180.1628 192.6569,-182.2797 196.2428,-188.2915"/>
<g id="a_edge20&#45;headlabel"><a xlink:href="dir_000013_000076.html" target="_top" xlink:title="82">
<text text-anchor="middle" x="194.6101" y="-190.0713" font-family="Helvetica,sans-Serif" font-size="10.00" fill="#000000">82</text>
</a>
</g>
</g>
<!-- dir_2171f7ec022c5423887b07c69b2f5b48&#45;&gt;dir_4ab6b4cc6a7edbff49100e9123df213f -->
<g id="edge21" class="edge">
<title>dir_2171f7ec022c5423887b07c69b2f5b48&#45;&gt;dir_4ab6b4cc6a7edbff49100e9123df213f</title>
<path fill="none" stroke="#000000" d="M236.2516,-180.0896C229.9944,-204.7884 214.4989,-249.2933 202.2923,-278.2331"/>
<polygon fill="#000000" stroke="#000000" points="198.9256,-277.1972 198.1324,-287.7623 205.3409,-279.9978 198.9256,-277.1972"/>
<g id="a_edge21&#45;headlabel"><a xlink:href="dir_000076_000027.html" target="_top" xlink:title="34">
<text text-anchor="middle" x="197.7615" y="-270.2669" font-family="Helvetica,sans-Serif" font-size="10.00" fill="#000000">34</text>
</a>
</g>
</g>
<!-- dir_2171f7ec022c5423887b07c69b2f5b48&#45;&gt;dir_051dca18e802f8e9474f2e30d29c04e0 -->
<g id="edge22" class="edge">
<title>dir_2171f7ec022c5423887b07c69b2f5b48&#45;&gt;dir_051dca18e802f8e9474f2e30d29c04e0</title>
<path fill="none" stroke="#000000" d="M213.6266,-143.8314C204.2225,-135.3694 193.6749,-125.1489 184.7488,-115.8971"/>
<polygon fill="#000000" stroke="#000000" points="187.0996,-113.2884 177.693,-108.4133 182.0063,-118.0904 187.0996,-113.2884"/>
<g id="a_edge22&#45;headlabel"><a xlink:href="dir_000076_000039.html" target="_top" xlink:title="14">
<text text-anchor="middle" x="191.6313" y="-111.4561" font-family="Helvetica,sans-Serif" font-size="10.00" fill="#000000">14</text>
</a>
</g>
</g>
<!-- dir_2171f7ec022c5423887b07c69b2f5b48&#45;&gt;dir_8ba487e25de5ee77e05e9dce7582cb98 -->
<g id="edge23" class="edge">
<title>dir_2171f7ec022c5423887b07c69b2f5b48&#45;&gt;dir_8ba487e25de5ee77e05e9dce7582cb98</title>
<path fill="none" stroke="#000000" d="M226.5338,-143.7204C219.0787,-125.0295 209.6948,-95.4879 197,-72 191.8491,-62.4699 185.1029,-52.813 178.9923,-44.3522"/>
<polygon fill="#000000" stroke="#000000" points="181.6542,-42.061 172.9479,-36.0235 175.9888,-46.1725 181.6542,-42.061"/>
<g id="a_edge23&#45;headlabel"><a xlink:href="dir_000076_000000.html" target="_top" xlink:title="2">
<text text-anchor="middle" x="186.0633" y="-40.8026" font-family="Helvetica,sans-Serif" font-size="10.00" fill="#000000">2</text>
</a>
</g>
</g>
<!-- dir_2171f7ec022c5423887b07c69b2f5b48&#45;&gt;dir_bcbb2cf9a3d3d83e5515c82071a07177 -->
<g id="edge24" class="edge">
<title>dir_2171f7ec022c5423887b07c69b2f5b48&#45;&gt;dir_bcbb2cf9a3d3d83e5515c82071a07177</title>
<path fill="none" stroke="#000000" d="M214.9418,-180.1628C201.1317,-189.3712 183.2365,-200.6631 166.8708,-210.5232"/>
<polygon fill="#000000" stroke="#000000" points="164.767,-207.7027 157.9717,-215.8314 168.3529,-213.7144 164.767,-207.7027"/>
<g id="a_edge24&#45;headlabel"><a xlink:href="dir_000076_000013.html" target="_top" xlink:title="7">
<text text-anchor="middle" x="166.3996" y="-200.9228" font-family="Helvetica,sans-Serif" font-size="10.00" fill="#000000">7</text>
</a>
</g>
</g>
</g>
</svg>
