<?xml version="1.0" encoding="UTF-8" standalone="no"?>
<!DOCTYPE svg PUBLIC "-//W3C//DTD SVG 1.1//EN"
 "http://www.w3.org/Graphics/SVG/1.1/DTD/svg11.dtd">
<!-- Generated by graphviz version 2.40.1 (20161225.0304)
 -->
<!-- Title: /home/travis/build/AliceO2Group/AliceO2/Framework/Core Pages: 1 -->
<svg width="302pt" height="447pt"
 viewBox="0.00 0.00 301.67 447.00" xmlns="http://www.w3.org/2000/svg" xmlns:xlink="http://www.w3.org/1999/xlink">
<g id="graph0" class="graph" transform="scale(1 1) rotate(0) translate(4 443)">
<title>/home/travis/build/AliceO2Group/AliceO2/Framework/Core</title>
<g id="clust1" class="cluster">
<title>clusterdir_bcbb2cf9a3d3d83e5515c82071a07177</title>
<g id="a_clust1"><a xlink:href="dir_bcbb2cf9a3d3d83e5515c82071a07177.html" target="_top" xlink:title="Framework">
<polygon fill="#ddddee" stroke="#000000" points="114.6656,-200 114.6656,-431 272.6656,-431 272.6656,-200 114.6656,-200"/>
<text text-anchor="middle" x="193.6656" y="-419" font-family="Helvetica,sans-Serif" font-size="10.00" fill="#000000">Framework</text>
</a>
</g>
</g>
<g id="clust2" class="cluster">
<title>clusterdir_9f165b2481dacfe69aa54d326bd5cd47</title>
<g id="a_clust2"><a xlink:href="dir_9f165b2481dacfe69aa54d326bd5cd47.html" target="_top">
<polygon fill="#eeeeff" stroke="#000000" points="122.6656,-208 122.6656,-404 264.6656,-404 264.6656,-208 122.6656,-208"/>
</a>
</g>
</g>
<!-- dir_9f165b2481dacfe69aa54d326bd5cd47 -->
<g id="node1" class="node">
<title>dir_9f165b2481dacfe69aa54d326bd5cd47</title>
<text text-anchor="middle" x="229.6656" y="-375.5" font-family="Helvetica,sans-Serif" font-size="10.00" fill="#000000">Core</text>
</g>
<!-- dir_985a55873ec4a56b27533251576853b6 -->
<g id="node2" class="node">
<title>dir_985a55873ec4a56b27533251576853b6</title>
<g id="a_node2"><a xlink:href="dir_985a55873ec4a56b27533251576853b6.html" target="_top" xlink:title="include">
<polygon fill="#ffffff" stroke="#ff0000" points="184.6656,-324 130.6656,-324 130.6656,-288 184.6656,-288 184.6656,-324"/>
<text text-anchor="middle" x="157.6656" y="-303.5" font-family="Helvetica,sans-Serif" font-size="10.00" fill="#000000">include</text>
</a>
</g>
</g>
<!-- dir_0b60ff9a1849fb34896fe8bde9baec43 -->
<g id="node3" class="node">
<title>dir_0b60ff9a1849fb34896fe8bde9baec43</title>
<g id="a_node3"><a xlink:href="dir_0b60ff9a1849fb34896fe8bde9baec43.html" target="_top" xlink:title="src">
<polygon fill="#ffffff" stroke="#000000" points="184.6656,-252 130.6656,-252 130.6656,-216 184.6656,-216 184.6656,-252"/>
<text text-anchor="middle" x="157.6656" y="-231.5" font-family="Helvetica,sans-Serif" font-size="10.00" fill="#000000">src</text>
</a>
</g>
</g>
<!-- dir_985a55873ec4a56b27533251576853b6&#45;&gt;dir_0b60ff9a1849fb34896fe8bde9baec43 -->
<g id="edge13" class="edge">
<title>dir_985a55873ec4a56b27533251576853b6&#45;&gt;dir_0b60ff9a1849fb34896fe8bde9baec43</title>
<path fill="none" stroke="#000000" d="M151.7132,-287.8314C150.9628,-280.131 150.7419,-270.9743 151.0505,-262.4166"/>
<polygon fill="#000000" stroke="#000000" points="154.5448,-262.6161 151.6896,-252.4133 147.5591,-262.1697 154.5448,-262.6161"/>
<g id="a_edge13&#45;headlabel"><a xlink:href="dir_000651_000653.html" target="_top" xlink:title="2">
<text text-anchor="middle" x="157.1492" y="-263.8844" font-family="Helvetica,sans-Serif" font-size="10.00" fill="#000000">2</text>
</a>
</g>
</g>
<!-- dir_4ab6b4cc6a7edbff49100e9123df213f -->
<g id="node5" class="node">
<title>dir_4ab6b4cc6a7edbff49100e9123df213f</title>
<g id="a_node5"><a xlink:href="dir_4ab6b4cc6a7edbff49100e9123df213f.html" target="_top" xlink:title="Common">
<polygon fill="none" stroke="#ff0000" points="189.1656,-180 128.1656,-180 128.1656,-144 189.1656,-144 189.1656,-180"/>
<text text-anchor="middle" x="158.6656" y="-159.5" font-family="Helvetica,sans-Serif" font-size="10.00" fill="#000000">Common</text>
</a>
</g>
</g>
<!-- dir_985a55873ec4a56b27533251576853b6&#45;&gt;dir_4ab6b4cc6a7edbff49100e9123df213f -->
<g id="edge11" class="edge">
<title>dir_985a55873ec4a56b27533251576853b6&#45;&gt;dir_4ab6b4cc6a7edbff49100e9123df213f</title>
<path fill="none" stroke="#000000" d="M173.6561,-287.9169C181.3195,-278.0371 189.6822,-265.1563 193.6656,-252 200.3629,-229.8805 202.0695,-221.529 193.6656,-200 192.0064,-195.7493 189.6243,-191.6873 186.8723,-187.907"/>
<polygon fill="#000000" stroke="#000000" points="189.4789,-185.5675 180.3936,-180.1169 184.0969,-190.0435 189.4789,-185.5675"/>
<g id="a_edge11&#45;headlabel"><a xlink:href="dir_000651_000027.html" target="_top" xlink:title="5">
<text text-anchor="middle" x="193.9603" y="-184.0157" font-family="Helvetica,sans-Serif" font-size="10.00" fill="#000000">5</text>
</a>
</g>
</g>
<!-- dir_5d813cdce1e9826318f2aba62999ca51 -->
<g id="node7" class="node">
<title>dir_5d813cdce1e9826318f2aba62999ca51</title>
<g id="a_node7"><a xlink:href="dir_5d813cdce1e9826318f2aba62999ca51.html" target="_top" xlink:title="Foundation">
<polygon fill="none" stroke="#ff0000" points="106.1656,-252 35.1656,-252 35.1656,-216 106.1656,-216 106.1656,-252"/>
<text text-anchor="middle" x="70.6656" y="-231.5" font-family="Helvetica,sans-Serif" font-size="10.00" fill="#000000">Foundation</text>
</a>
</g>
</g>
<!-- dir_985a55873ec4a56b27533251576853b6&#45;&gt;dir_5d813cdce1e9826318f2aba62999ca51 -->
<g id="edge12" class="edge">
<title>dir_985a55873ec4a56b27533251576853b6&#45;&gt;dir_5d813cdce1e9826318f2aba62999ca51</title>
<path fill="none" stroke="#000000" d="M130.2443,-288.2022C118.6675,-279.3557 105.3936,-268.5191 94.2585,-258.8668"/>
<polygon fill="#000000" stroke="#000000" points="96.3968,-256.0859 86.5831,-252.0931 91.765,-261.3343 96.3968,-256.0859"/>
<g id="a_edge12&#45;headlabel"><a xlink:href="dir_000651_000655.html" target="_top" xlink:title="25">
<text text-anchor="middle" x="100.9707" y="-253.8356" font-family="Helvetica,sans-Serif" font-size="10.00" fill="#000000">25</text>
</a>
</g>
</g>
<!-- dir_ab5a80d4bd40f73f0851d5ff6a022779 -->
<g id="node8" class="node">
<title>dir_ab5a80d4bd40f73f0851d5ff6a022779</title>
<g id="a_node8"><a xlink:href="dir_ab5a80d4bd40f73f0851d5ff6a022779.html" target="_top" xlink:title="Logger">
<polygon fill="none" stroke="#ff0000" points="244.6656,-36 190.6656,-36 190.6656,0 244.6656,0 244.6656,-36"/>
<text text-anchor="middle" x="217.6656" y="-15.5" font-family="Helvetica,sans-Serif" font-size="10.00" fill="#000000">Logger</text>
</a>
</g>
</g>
<!-- dir_985a55873ec4a56b27533251576853b6&#45;&gt;dir_ab5a80d4bd40f73f0851d5ff6a022779 -->
<g id="edge14" class="edge">
<title>dir_985a55873ec4a56b27533251576853b6&#45;&gt;dir_ab5a80d4bd40f73f0851d5ff6a022779</title>
<path fill="none" stroke="#000000" d="M180.8145,-287.8647C191.3311,-278.3412 202.9072,-265.7907 209.6656,-252 245.1097,-179.6755 240.1574,-151.9814 230.6656,-72 229.6589,-63.5166 227.792,-54.4376 225.7809,-46.1913"/>
<polygon fill="#000000" stroke="#000000" points="229.1129,-45.0971 223.2102,-36.2988 222.3379,-46.8576 229.1129,-45.0971"/>
<g id="a_edge14&#45;headlabel"><a xlink:href="dir_000651_000660.html" target="_top" xlink:title="3">
<text text-anchor="middle" x="232.7649" y="-45.3621" font-family="Helvetica,sans-Serif" font-size="10.00" fill="#000000">3</text>
</a>
</g>
</g>
<!-- dir_2171f7ec022c5423887b07c69b2f5b48 -->
<g id="node9" class="node">
<title>dir_2171f7ec022c5423887b07c69b2f5b48</title>
<g id="a_node9"><a xlink:href="dir_2171f7ec022c5423887b07c69b2f5b48.html" target="_top" xlink:title="DataFormats">
<polygon fill="none" stroke="#ff0000" points="151.6656,-108 71.6656,-108 71.6656,-72 151.6656,-72 151.6656,-108"/>
<text text-anchor="middle" x="111.6656" y="-87.5" font-family="Helvetica,sans-Serif" font-size="10.00" fill="#000000">DataFormats</text>
</a>
</g>
</g>
<!-- dir_985a55873ec4a56b27533251576853b6&#45;&gt;dir_2171f7ec022c5423887b07c69b2f5b48 -->
<g id="edge15" class="edge">
<title>dir_985a55873ec4a56b27533251576853b6&#45;&gt;dir_2171f7ec022c5423887b07c69b2f5b48</title>
<path fill="none" stroke="#000000" d="M130.6509,-303.6053C99.3414,-299.2201 49.0584,-286.8443 25.6656,-252 -5.1906,-206.0386 45.5247,-147.7903 81.2503,-115.1402"/>
<polygon fill="#000000" stroke="#000000" points="83.9168,-117.4523 89.0571,-108.1879 79.2614,-112.2247 83.9168,-117.4523"/>
<g id="a_edge15&#45;headlabel"><a xlink:href="dir_000651_000076.html" target="_top" xlink:title="23">
<text text-anchor="middle" x="83.1207" y="-119.4632" font-family="Helvetica,sans-Serif" font-size="10.00" fill="#000000">23</text>
</a>
</g>
</g>
<!-- dir_0b60ff9a1849fb34896fe8bde9baec43&#45;&gt;dir_985a55873ec4a56b27533251576853b6 -->
<g id="edge8" class="edge">
<title>dir_0b60ff9a1849fb34896fe8bde9baec43&#45;&gt;dir_985a55873ec4a56b27533251576853b6</title>
<path fill="none" stroke="#000000" d="M163.6416,-252.4133C164.3727,-260.0593 164.5859,-269.1084 164.2811,-277.5726"/>
<polygon fill="#000000" stroke="#000000" points="160.7704,-277.6264 163.618,-287.8314 167.7558,-278.078 160.7704,-277.6264"/>
<g id="a_edge8&#45;headlabel"><a xlink:href="dir_000653_000651.html" target="_top" xlink:title="330">
<text text-anchor="middle" x="158.1688" y="-271.3562" font-family="Helvetica,sans-Serif" font-size="10.00" fill="#000000">330</text>
</a>
</g>
</g>
<!-- dir_0b60ff9a1849fb34896fe8bde9baec43&#45;&gt;dir_4ab6b4cc6a7edbff49100e9123df213f -->
<g id="edge5" class="edge">
<title>dir_0b60ff9a1849fb34896fe8bde9baec43&#45;&gt;dir_4ab6b4cc6a7edbff49100e9123df213f</title>
<path fill="none" stroke="#000000" d="M157.918,-215.8314C158.0249,-208.131 158.1521,-198.9743 158.2709,-190.4166"/>
<polygon fill="#000000" stroke="#000000" points="161.7706,-190.4609 158.4099,-180.4133 154.7712,-190.3637 161.7706,-190.4609"/>
<g id="a_edge5&#45;headlabel"><a xlink:href="dir_000653_000027.html" target="_top" xlink:title="1">
<text text-anchor="middle" x="164.5598" y="-191.5946" font-family="Helvetica,sans-Serif" font-size="10.00" fill="#000000">1</text>
</a>
</g>
</g>
<!-- dir_8ba487e25de5ee77e05e9dce7582cb98 -->
<g id="node6" class="node">
<title>dir_8ba487e25de5ee77e05e9dce7582cb98</title>
<g id="a_node6"><a xlink:href="dir_8ba487e25de5ee77e05e9dce7582cb98.html" target="_top" xlink:title="Algorithm">
<polygon fill="none" stroke="#ff0000" points="144.1656,-36 79.1656,-36 79.1656,0 144.1656,0 144.1656,-36"/>
<text text-anchor="middle" x="111.6656" y="-15.5" font-family="Helvetica,sans-Serif" font-size="10.00" fill="#000000">Algorithm</text>
</a>
</g>
</g>
<!-- dir_0b60ff9a1849fb34896fe8bde9baec43&#45;&gt;dir_8ba487e25de5ee77e05e9dce7582cb98 -->
<g id="edge6" class="edge">
<title>dir_0b60ff9a1849fb34896fe8bde9baec43&#45;&gt;dir_8ba487e25de5ee77e05e9dce7582cb98</title>
<path fill="none" stroke="#000000" d="M136.6298,-215.6544C112.7427,-193.1611 75.4295,-152.505 62.6656,-108 58.2547,-92.62 56.903,-86.9262 62.6656,-72 66.7848,-61.3306 74.0992,-51.4665 81.8406,-43.1681"/>
<polygon fill="#000000" stroke="#000000" points="84.4004,-45.558 88.9906,-36.0091 79.4475,-40.6113 84.4004,-45.558"/>
<g id="a_edge6&#45;headlabel"><a xlink:href="dir_000653_000000.html" target="_top" xlink:title="1">
<text text-anchor="middle" x="83.8691" y="-47.6077" font-family="Helvetica,sans-Serif" font-size="10.00" fill="#000000">1</text>
</a>
</g>
</g>
<!-- dir_0b60ff9a1849fb34896fe8bde9baec43&#45;&gt;dir_5d813cdce1e9826318f2aba62999ca51 -->
<g id="edge7" class="edge">
<title>dir_0b60ff9a1849fb34896fe8bde9baec43&#45;&gt;dir_5d813cdce1e9826318f2aba62999ca51</title>
<path fill="none" stroke="#000000" d="M130.4038,-234C125.7683,-234 121.1328,-234 116.4972,-234"/>
<polygon fill="#000000" stroke="#000000" points="116.3493,-230.5001 106.3492,-234 116.3492,-237.5001 116.3493,-230.5001"/>
<g id="a_edge7&#45;headlabel"><a xlink:href="dir_000653_000655.html" target="_top" xlink:title="11">
<text text-anchor="middle" x="119.9438" y="-225.1607" font-family="Helvetica,sans-Serif" font-size="10.00" fill="#000000">11</text>
</a>
</g>
</g>
<!-- dir_0b60ff9a1849fb34896fe8bde9baec43&#45;&gt;dir_ab5a80d4bd40f73f0851d5ff6a022779 -->
<g id="edge9" class="edge">
<title>dir_0b60ff9a1849fb34896fe8bde9baec43&#45;&gt;dir_ab5a80d4bd40f73f0851d5ff6a022779</title>
<path fill="none" stroke="#000000" d="M175.6148,-215.5648C184.0472,-205.7855 193.386,-193.1014 198.6656,-180 216.4484,-135.8723 219.0736,-79.8908 218.7773,-46.6204"/>
<polygon fill="#000000" stroke="#000000" points="222.2699,-46.1904 218.5825,-36.2579 215.2712,-46.322 222.2699,-46.1904"/>
<g id="a_edge9&#45;headlabel"><a xlink:href="dir_000653_000660.html" target="_top" xlink:title="20">
<text text-anchor="middle" x="225.1762" y="-47.231" font-family="Helvetica,sans-Serif" font-size="10.00" fill="#000000">20</text>
</a>
</g>
</g>
<!-- dir_0b60ff9a1849fb34896fe8bde9baec43&#45;&gt;dir_2171f7ec022c5423887b07c69b2f5b48 -->
<g id="edge10" class="edge">
<title>dir_0b60ff9a1849fb34896fe8bde9baec43&#45;&gt;dir_2171f7ec022c5423887b07c69b2f5b48</title>
<path fill="none" stroke="#000000" d="M141.2825,-215.8979C133.3291,-206.0129 124.4735,-193.1332 119.6656,-180 112.4418,-160.2674 110.5875,-136.5427 110.4613,-118.4069"/>
<polygon fill="#000000" stroke="#000000" points="113.9633,-118.2207 110.5662,-108.1853 106.9637,-118.1488 113.9633,-118.2207"/>
<g id="a_edge10&#45;headlabel"><a xlink:href="dir_000653_000076.html" target="_top" xlink:title="17">
<text text-anchor="middle" x="116.7656" y="-119.3442" font-family="Helvetica,sans-Serif" font-size="10.00" fill="#000000">17</text>
</a>
</g>
</g>
<!-- dir_8cb91374fcd70b92d5ee52379f113c0f -->
<g id="node4" class="node">
<title>dir_8cb91374fcd70b92d5ee52379f113c0f</title>
<g id="a_node4"><a xlink:href="dir_8cb91374fcd70b92d5ee52379f113c0f.html" target="_top" xlink:title="test">
<polygon fill="#ffffff" stroke="#000000" points="184.6656,-396 130.6656,-396 130.6656,-360 184.6656,-360 184.6656,-396"/>
<text text-anchor="middle" x="157.6656" y="-375.5" font-family="Helvetica,sans-Serif" font-size="10.00" fill="#000000">test</text>
</a>
</g>
</g>
<!-- dir_8cb91374fcd70b92d5ee52379f113c0f&#45;&gt;dir_985a55873ec4a56b27533251576853b6 -->
<g id="edge20" class="edge">
<title>dir_8cb91374fcd70b92d5ee52379f113c0f&#45;&gt;dir_985a55873ec4a56b27533251576853b6</title>
<path fill="none" stroke="#000000" d="M157.6656,-359.8314C157.6656,-352.131 157.6656,-342.9743 157.6656,-334.4166"/>
<polygon fill="#000000" stroke="#000000" points="161.1657,-334.4132 157.6656,-324.4133 154.1657,-334.4133 161.1657,-334.4132"/>
<g id="a_edge20&#45;headlabel"><a xlink:href="dir_000654_000651.html" target="_top" xlink:title="335">
<text text-anchor="middle" x="164.0049" y="-335.5079" font-family="Helvetica,sans-Serif" font-size="10.00" fill="#000000">335</text>
</a>
</g>
</g>
<!-- dir_8cb91374fcd70b92d5ee52379f113c0f&#45;&gt;dir_0b60ff9a1849fb34896fe8bde9baec43 -->
<g id="edge19" class="edge">
<title>dir_8cb91374fcd70b92d5ee52379f113c0f&#45;&gt;dir_0b60ff9a1849fb34896fe8bde9baec43</title>
<path fill="none" stroke="#000000" d="M173.6561,-359.9169C181.3195,-350.0371 189.6822,-337.1563 193.6656,-324 198.3022,-308.6865 198.3022,-303.3135 193.6656,-288 190.7092,-278.2355 185.3404,-268.6229 179.6357,-260.2762"/>
<polygon fill="#000000" stroke="#000000" points="182.3785,-258.0973 173.6561,-252.0831 176.7242,-262.2239 182.3785,-258.0973"/>
<g id="a_edge19&#45;headlabel"><a xlink:href="dir_000654_000653.html" target="_top" xlink:title="33">
<text text-anchor="middle" x="186.791" y="-256.827" font-family="Helvetica,sans-Serif" font-size="10.00" fill="#000000">33</text>
</a>
</g>
</g>
<!-- dir_8cb91374fcd70b92d5ee52379f113c0f&#45;&gt;dir_ab5a80d4bd40f73f0851d5ff6a022779 -->
<g id="edge21" class="edge">
<title>dir_8cb91374fcd70b92d5ee52379f113c0f&#45;&gt;dir_ab5a80d4bd40f73f0851d5ff6a022779</title>
<path fill="none" stroke="#000000" d="M184.8604,-364.725C224.5487,-343.2188 293.6656,-296.7568 293.6656,-234 293.6656,-234 293.6656,-234 293.6656,-162 293.6656,-116.656 263.8272,-71.5999 241.543,-44.2735"/>
<polygon fill="#000000" stroke="#000000" points="244.0241,-41.7856 234.9112,-36.3814 238.665,-46.2889 244.0241,-41.7856"/>
<g id="a_edge21&#45;headlabel"><a xlink:href="dir_000654_000660.html" target="_top" xlink:title="12">
<text text-anchor="middle" x="248.5103" y="-40.211" font-family="Helvetica,sans-Serif" font-size="10.00" fill="#000000">12</text>
</a>
</g>
</g>
<!-- dir_8cb91374fcd70b92d5ee52379f113c0f&#45;&gt;dir_2171f7ec022c5423887b07c69b2f5b48 -->
<g id="edge22" class="edge">
<title>dir_8cb91374fcd70b92d5ee52379f113c0f&#45;&gt;dir_2171f7ec022c5423887b07c69b2f5b48</title>
<path fill="none" stroke="#000000" d="M130.5731,-364.0894C95.743,-344.4857 36.8731,-305.1055 12.6656,-252 -7.3874,-208.0084 -2.3902,-183.3733 25.6656,-144 35.0651,-130.8088 48.7947,-120.1308 62.5356,-111.861"/>
<polygon fill="#000000" stroke="#000000" points="64.5448,-114.7455 71.5217,-106.7721 61.0954,-108.6544 64.5448,-114.7455"/>
<g id="a_edge22&#45;headlabel"><a xlink:href="dir_000654_000076.html" target="_top" xlink:title="24">
<text text-anchor="middle" x="62.8161" y="-116.4874" font-family="Helvetica,sans-Serif" font-size="10.00" fill="#000000">24</text>
</a>
</g>
</g>
<!-- dir_4ab6b4cc6a7edbff49100e9123df213f&#45;&gt;dir_ab5a80d4bd40f73f0851d5ff6a022779 -->
<g id="edge1" class="edge">
<title>dir_4ab6b4cc6a7edbff49100e9123df213f&#45;&gt;dir_ab5a80d4bd40f73f0851d5ff6a022779</title>
<path fill="none" stroke="#000000" d="M166.138,-143.7623C176.29,-118.9846 194.528,-74.4714 206.3598,-45.5939"/>
<polygon fill="#000000" stroke="#000000" points="209.7012,-46.67 210.2539,-36.0896 203.2238,-44.0161 209.7012,-46.67"/>
<g id="a_edge1&#45;headlabel"><a xlink:href="dir_000027_000660.html" target="_top" xlink:title="2">
<text text-anchor="middle" x="210.9657" y="-48.5727" font-family="Helvetica,sans-Serif" font-size="10.00" fill="#000000">2</text>
</a>
</g>
</g>
<!-- dir_4ab6b4cc6a7edbff49100e9123df213f&#45;&gt;dir_2171f7ec022c5423887b07c69b2f5b48 -->
<g id="edge2" class="edge">
<title>dir_4ab6b4cc6a7edbff49100e9123df213f&#45;&gt;dir_2171f7ec022c5423887b07c69b2f5b48</title>
<path fill="none" stroke="#000000" d="M140.8531,-143.8314C134.8221,-135.7925 128.3322,-126.1666 122.9098,-117.2918"/>
<polygon fill="#000000" stroke="#000000" points="125.7836,-115.2731 117.7094,-108.4133 119.7435,-118.811 125.7836,-115.2731"/>
<g id="a_edge2&#45;headlabel"><a xlink:href="dir_000027_000076.html" target="_top" xlink:title="2">
<text text-anchor="middle" x="130.0503" y="-114.4398" font-family="Helvetica,sans-Serif" font-size="10.00" fill="#000000">2</text>
</a>
</g>
</g>
<!-- dir_8ba487e25de5ee77e05e9dce7582cb98&#45;&gt;dir_2171f7ec022c5423887b07c69b2f5b48 -->
<g id="edge3" class="edge">
<title>dir_8ba487e25de5ee77e05e9dce7582cb98&#45;&gt;dir_2171f7ec022c5423887b07c69b2f5b48</title>
<path fill="none" stroke="#000000" d="M117.6416,-36.4133C118.3727,-44.0593 118.5859,-53.1084 118.2811,-61.5726"/>
<polygon fill="#000000" stroke="#000000" points="114.7704,-61.6264 117.618,-71.8314 121.7558,-62.078 114.7704,-61.6264"/>
<g id="a_edge3&#45;headlabel"><a xlink:href="dir_000000_000076.html" target="_top" xlink:title="8">
<text text-anchor="middle" x="112.1688" y="-55.3562" font-family="Helvetica,sans-Serif" font-size="10.00" fill="#000000">8</text>
</a>
</g>
</g>
<!-- dir_5d813cdce1e9826318f2aba62999ca51&#45;&gt;dir_985a55873ec4a56b27533251576853b6 -->
<g id="edge4" class="edge">
<title>dir_5d813cdce1e9826318f2aba62999ca51&#45;&gt;dir_985a55873ec4a56b27533251576853b6</title>
<path fill="none" stroke="#000000" d="M98.5642,-252.1628C110.0321,-260.9449 123.1009,-271.622 134.0862,-281.1448"/>
<polygon fill="#000000" stroke="#000000" points="131.8502,-283.8395 141.6642,-287.8314 136.4815,-278.5907 131.8502,-283.8395"/>
<g id="a_edge4&#45;headlabel"><a xlink:href="dir_000655_000651.html" target="_top" xlink:title="1">
<text text-anchor="middle" x="127.2763" y="-281.0903" font-family="Helvetica,sans-Serif" font-size="10.00" fill="#000000">1</text>
</a>
</g>
</g>
<!-- dir_2171f7ec022c5423887b07c69b2f5b48&#45;&gt;dir_4ab6b4cc6a7edbff49100e9123df213f -->
<g id="edge16" class="edge">
<title>dir_2171f7ec022c5423887b07c69b2f5b48&#45;&gt;dir_4ab6b4cc6a7edbff49100e9123df213f</title>
<path fill="none" stroke="#000000" d="M129.6614,-108.4133C135.7016,-116.484 142.1851,-126.1182 147.5858,-134.9775"/>
<polygon fill="#000000" stroke="#000000" points="144.6917,-136.9621 152.7579,-143.8314 150.736,-133.4312 144.6917,-136.9621"/>
<g id="a_edge16&#45;headlabel"><a xlink:href="dir_000076_000027.html" target="_top" xlink:title="34">
<text text-anchor="middle" x="140.427" y="-132.7904" font-family="Helvetica,sans-Serif" font-size="10.00" fill="#000000">34</text>
</a>
</g>
</g>
<!-- dir_2171f7ec022c5423887b07c69b2f5b48&#45;&gt;dir_8ba487e25de5ee77e05e9dce7582cb98 -->
<g id="edge17" class="edge">
<title>dir_2171f7ec022c5423887b07c69b2f5b48&#45;&gt;dir_8ba487e25de5ee77e05e9dce7582cb98</title>
<path fill="none" stroke="#000000" d="M105.7132,-71.8314C104.9628,-64.131 104.7419,-54.9743 105.0505,-46.4166"/>
<polygon fill="#000000" stroke="#000000" points="108.5448,-46.6161 105.6896,-36.4133 101.5591,-46.1697 108.5448,-46.6161"/>
<g id="a_edge17&#45;headlabel"><a xlink:href="dir_000076_000000.html" target="_top" xlink:title="2">
<text text-anchor="middle" x="111.1492" y="-47.8844" font-family="Helvetica,sans-Serif" font-size="10.00" fill="#000000">2</text>
</a>
</g>
</g>
<!-- dir_2171f7ec022c5423887b07c69b2f5b48&#45;&gt;dir_ab5a80d4bd40f73f0851d5ff6a022779 -->
<g id="edge18" class="edge">
<title>dir_2171f7ec022c5423887b07c69b2f5b48&#45;&gt;dir_ab5a80d4bd40f73f0851d5ff6a022779</title>
<path fill="none" stroke="#000000" d="M138.4139,-71.8314C151.7209,-62.7927 167.9816,-51.7476 182.3031,-42.0198"/>
<polygon fill="#000000" stroke="#000000" points="184.6203,-44.677 190.9259,-36.1628 180.6871,-38.8864 184.6203,-44.677"/>
<g id="a_edge18&#45;headlabel"><a xlink:href="dir_000076_000660.html" target="_top" xlink:title="7">
<text text-anchor="middle" x="183.2421" y="-46.5454" font-family="Helvetica,sans-Serif" font-size="10.00" fill="#000000">7</text>
</a>
</g>
</g>
</g>
</svg>
