<?xml version="1.0" encoding="UTF-8" standalone="no"?>
<!DOCTYPE svg PUBLIC "-//W3C//DTD SVG 1.1//EN"
 "http://www.w3.org/Graphics/SVG/1.1/DTD/svg11.dtd">
<!-- Generated by graphviz version 2.40.1 (20161225.0304)
 -->
<!-- Title: /home/travis/build/AliceO2Group/AliceO2/DataFormats/Detectors/ZDC Pages: 1 -->
<svg width="246pt" height="303pt"
 viewBox="0.00 0.00 246.00 303.00" xmlns="http://www.w3.org/2000/svg" xmlns:xlink="http://www.w3.org/1999/xlink">
<g id="graph0" class="graph" transform="scale(1 1) rotate(0) translate(4 299)">
<title>/home/travis/build/AliceO2Group/AliceO2/DataFormats/Detectors/ZDC</title>
<g id="clust1" class="cluster">
<title>clusterdir_2801adc79bf3c286b1b479858d2cade4</title>
<g id="a_clust1"><a xlink:href="dir_2801adc79bf3c286b1b479858d2cade4.html" target="_top" xlink:title="Detectors">
<polygon fill="#ddddee" stroke="#000000" points="8,-128 8,-287 166,-287 166,-128 8,-128"/>
<text text-anchor="middle" x="87" y="-275" font-family="Helvetica,sans-Serif" font-size="10.00" fill="#000000">Detectors</text>
</a>
</g>
</g>
<g id="clust2" class="cluster">
<title>clusterdir_b6eb3a833d010b8ef0c8524bb0dfb6b1</title>
<g id="a_clust2"><a xlink:href="dir_b6eb3a833d010b8ef0c8524bb0dfb6b1.html" target="_top">
<polygon fill="#eeeeff" stroke="#000000" points="16,-136 16,-260 158,-260 158,-136 16,-136"/>
</a>
</g>
</g>
<!-- dir_b6eb3a833d010b8ef0c8524bb0dfb6b1 -->
<g id="node1" class="node">
<title>dir_b6eb3a833d010b8ef0c8524bb0dfb6b1</title>
<text text-anchor="middle" x="123" y="-231.5" font-family="Helvetica,sans-Serif" font-size="10.00" fill="#000000">ZDC</text>
</g>
<!-- dir_64d738a0161f08f47d3d8d07e1b435f8 -->
<g id="node2" class="node">
<title>dir_64d738a0161f08f47d3d8d07e1b435f8</title>
<g id="a_node2"><a xlink:href="dir_64d738a0161f08f47d3d8d07e1b435f8.html" target="_top" xlink:title="include">
<polygon fill="#ffffff" stroke="#ff0000" points="134,-180 80,-180 80,-144 134,-144 134,-180"/>
<text text-anchor="middle" x="107" y="-159.5" font-family="Helvetica,sans-Serif" font-size="10.00" fill="#000000">include</text>
</a>
</g>
</g>
<!-- dir_4ab6b4cc6a7edbff49100e9123df213f -->
<g id="node4" class="node">
<title>dir_4ab6b4cc6a7edbff49100e9123df213f</title>
<g id="a_node4"><a xlink:href="dir_4ab6b4cc6a7edbff49100e9123df213f.html" target="_top" xlink:title="Common">
<polygon fill="none" stroke="#ff0000" points="186.5,-36 125.5,-36 125.5,0 186.5,0 186.5,-36"/>
<text text-anchor="middle" x="156" y="-15.5" font-family="Helvetica,sans-Serif" font-size="10.00" fill="#000000">Common</text>
</a>
</g>
</g>
<!-- dir_64d738a0161f08f47d3d8d07e1b435f8&#45;&gt;dir_4ab6b4cc6a7edbff49100e9123df213f -->
<g id="edge6" class="edge">
<title>dir_64d738a0161f08f47d3d8d07e1b435f8&#45;&gt;dir_4ab6b4cc6a7edbff49100e9123df213f</title>
<path fill="none" stroke="#000000" d="M106.6593,-143.7882C106.8928,-125.1513 108.8966,-95.652 118,-72 121.7285,-62.3128 127.5734,-52.7228 133.5711,-44.3731"/>
<polygon fill="#000000" stroke="#000000" points="136.5394,-46.2512 139.7943,-36.1687 130.9623,-42.0208 136.5394,-46.2512"/>
<g id="a_edge6&#45;headlabel"><a xlink:href="dir_000194_000027.html" target="_top" xlink:title="1">
<text text-anchor="middle" x="136.6292" y="-48.3309" font-family="Helvetica,sans-Serif" font-size="10.00" fill="#000000">1</text>
</a>
</g>
</g>
<!-- dir_051dca18e802f8e9474f2e30d29c04e0 -->
<g id="node5" class="node">
<title>dir_051dca18e802f8e9474f2e30d29c04e0</title>
<g id="a_node5"><a xlink:href="dir_051dca18e802f8e9474f2e30d29c04e0.html" target="_top" xlink:title="Detectors">
<polygon fill="none" stroke="#ff0000" points="238,-180 174,-180 174,-144 238,-144 238,-180"/>
<text text-anchor="middle" x="206" y="-159.5" font-family="Helvetica,sans-Serif" font-size="10.00" fill="#000000">Detectors</text>
</a>
</g>
</g>
<!-- dir_64d738a0161f08f47d3d8d07e1b435f8&#45;&gt;dir_051dca18e802f8e9474f2e30d29c04e0 -->
<g id="edge7" class="edge">
<title>dir_64d738a0161f08f47d3d8d07e1b435f8&#45;&gt;dir_051dca18e802f8e9474f2e30d29c04e0</title>
<path fill="none" stroke="#000000" d="M134.0703,-162C143.941,-162 153.8118,-162 163.6825,-162"/>
<polygon fill="#000000" stroke="#000000" points="163.9688,-165.5001 173.9688,-162 163.9688,-158.5001 163.9688,-165.5001"/>
<g id="a_edge7&#45;headlabel"><a xlink:href="dir_000194_000039.html" target="_top" xlink:title="5">
<text text-anchor="middle" x="160.3742" y="-165.8393" font-family="Helvetica,sans-Serif" font-size="10.00" fill="#000000">5</text>
</a>
</g>
</g>
<!-- dir_7924ba4398ae4560cd37376e44666c6d -->
<g id="node6" class="node">
<title>dir_7924ba4398ae4560cd37376e44666c6d</title>
<g id="a_node6"><a xlink:href="dir_7924ba4398ae4560cd37376e44666c6d.html" target="_top" xlink:title="common">
<polygon fill="none" stroke="#ff0000" points="185.5,-108 126.5,-108 126.5,-72 185.5,-72 185.5,-108"/>
<text text-anchor="middle" x="156" y="-87.5" font-family="Helvetica,sans-Serif" font-size="10.00" fill="#000000">common</text>
</a>
</g>
</g>
<!-- dir_64d738a0161f08f47d3d8d07e1b435f8&#45;&gt;dir_7924ba4398ae4560cd37376e44666c6d -->
<g id="edge8" class="edge">
<title>dir_64d738a0161f08f47d3d8d07e1b435f8&#45;&gt;dir_7924ba4398ae4560cd37376e44666c6d</title>
<path fill="none" stroke="#000000" d="M119.3648,-143.8314C124.9509,-135.6232 131.663,-125.7606 137.8072,-116.7323"/>
<polygon fill="#000000" stroke="#000000" points="140.736,-118.6496 143.4687,-108.4133 134.949,-114.7112 140.736,-118.6496"/>
<g id="a_edge8&#45;headlabel"><a xlink:href="dir_000194_000077.html" target="_top" xlink:title="5">
<text text-anchor="middle" x="141.0609" y="-120.7187" font-family="Helvetica,sans-Serif" font-size="10.00" fill="#000000">5</text>
</a>
</g>
</g>
<!-- dir_1483d8f0070fd38dee27d1b3d5b3b541 -->
<g id="node3" class="node">
<title>dir_1483d8f0070fd38dee27d1b3d5b3b541</title>
<g id="a_node3"><a xlink:href="dir_1483d8f0070fd38dee27d1b3d5b3b541.html" target="_top" xlink:title="src">
<polygon fill="#ffffff" stroke="#000000" points="78,-252 24,-252 24,-216 78,-216 78,-252"/>
<text text-anchor="middle" x="51" y="-231.5" font-family="Helvetica,sans-Serif" font-size="10.00" fill="#000000">src</text>
</a>
</g>
</g>
<!-- dir_1483d8f0070fd38dee27d1b3d5b3b541&#45;&gt;dir_64d738a0161f08f47d3d8d07e1b435f8 -->
<g id="edge4" class="edge">
<title>dir_1483d8f0070fd38dee27d1b3d5b3b541&#45;&gt;dir_64d738a0161f08f47d3d8d07e1b435f8</title>
<path fill="none" stroke="#000000" d="M65.1312,-215.8314C71.5811,-207.5386 79.3445,-197.557 86.4252,-188.4533"/>
<polygon fill="#000000" stroke="#000000" points="89.3019,-190.4556 92.6786,-180.4133 83.7764,-186.158 89.3019,-190.4556"/>
<g id="a_edge4&#45;headlabel"><a xlink:href="dir_000212_000194.html" target="_top" xlink:title="6">
<text text-anchor="middle" x="89.3362" y="-192.5361" font-family="Helvetica,sans-Serif" font-size="10.00" fill="#000000">6</text>
</a>
</g>
</g>
<!-- dir_051dca18e802f8e9474f2e30d29c04e0&#45;&gt;dir_64d738a0161f08f47d3d8d07e1b435f8 -->
<g id="edge3" class="edge">
<title>dir_051dca18e802f8e9474f2e30d29c04e0&#45;&gt;dir_64d738a0161f08f47d3d8d07e1b435f8</title>
<path fill="none" stroke="#000000" d="M173.9688,-162C164.0981,-162 154.2274,-162 144.3566,-162"/>
<polygon fill="#000000" stroke="#000000" points="144.0703,-158.5001 134.0703,-162 144.0703,-165.5001 144.0703,-158.5001"/>
<g id="a_edge3&#45;headlabel"><a xlink:href="dir_000039_000194.html" target="_top" xlink:title="2">
<text text-anchor="middle" x="147.6649" y="-153.1607" font-family="Helvetica,sans-Serif" font-size="10.00" fill="#000000">2</text>
</a>
</g>
</g>
<!-- dir_051dca18e802f8e9474f2e30d29c04e0&#45;&gt;dir_4ab6b4cc6a7edbff49100e9123df213f -->
<g id="edge1" class="edge">
<title>dir_051dca18e802f8e9474f2e30d29c04e0&#45;&gt;dir_4ab6b4cc6a7edbff49100e9123df213f</title>
<path fill="none" stroke="#000000" d="M206.4007,-143.7649C206.2148,-125.1095 204.2485,-95.5957 195,-72 191.1386,-62.1483 185.0552,-52.4405 178.8315,-44.0323"/>
<polygon fill="#000000" stroke="#000000" points="181.5511,-41.8282 172.6382,-36.1001 176.0337,-46.1361 181.5511,-41.8282"/>
<g id="a_edge1&#45;headlabel"><a xlink:href="dir_000039_000027.html" target="_top" xlink:title="260">
<text text-anchor="middle" x="186.0012" y="-40.4141" font-family="Helvetica,sans-Serif" font-size="10.00" fill="#000000">260</text>
</a>
</g>
</g>
<!-- dir_051dca18e802f8e9474f2e30d29c04e0&#45;&gt;dir_7924ba4398ae4560cd37376e44666c6d -->
<g id="edge2" class="edge">
<title>dir_051dca18e802f8e9474f2e30d29c04e0&#45;&gt;dir_7924ba4398ae4560cd37376e44666c6d</title>
<path fill="none" stroke="#000000" d="M193.3829,-143.8314C187.6828,-135.6232 180.8337,-125.7606 174.5641,-116.7323"/>
<polygon fill="#000000" stroke="#000000" points="177.3658,-114.6306 168.787,-108.4133 171.6162,-118.6234 177.3658,-114.6306"/>
<g id="a_edge2&#45;headlabel"><a xlink:href="dir_000039_000077.html" target="_top" xlink:title="44">
<text text-anchor="middle" x="181.7482" y="-113.4636" font-family="Helvetica,sans-Serif" font-size="10.00" fill="#000000">44</text>
</a>
</g>
</g>
<!-- dir_7924ba4398ae4560cd37376e44666c6d&#45;&gt;dir_4ab6b4cc6a7edbff49100e9123df213f -->
<g id="edge5" class="edge">
<title>dir_7924ba4398ae4560cd37376e44666c6d&#45;&gt;dir_4ab6b4cc6a7edbff49100e9123df213f</title>
<path fill="none" stroke="#000000" d="M156,-71.8314C156,-64.131 156,-54.9743 156,-46.4166"/>
<polygon fill="#000000" stroke="#000000" points="159.5001,-46.4132 156,-36.4133 152.5001,-46.4133 159.5001,-46.4132"/>
<g id="a_edge5&#45;headlabel"><a xlink:href="dir_000077_000027.html" target="_top" xlink:title="2">
<text text-anchor="middle" x="162.3393" y="-47.5079" font-family="Helvetica,sans-Serif" font-size="10.00" fill="#000000">2</text>
</a>
</g>
</g>
</g>
</svg>
