<?xml version="1.0" encoding="UTF-8" standalone="no"?>
<!DOCTYPE svg PUBLIC "-//W3C//DTD SVG 1.1//EN"
 "http://www.w3.org/Graphics/SVG/1.1/DTD/svg11.dtd">
<!-- Generated by graphviz version 2.40.1 (20161225.0304)
 -->
<!-- Title: /home/travis/build/AliceO2Group/AliceO2/Detectors/ITSMFT/ITS/QC/TestDataReaderWorkflow/include/ITSQCDataReaderWorkflow Pages: 1 -->
<svg width="310pt" height="439pt"
 viewBox="0.00 0.00 310.15 439.00" xmlns="http://www.w3.org/2000/svg" xmlns:xlink="http://www.w3.org/1999/xlink">
<g id="graph0" class="graph" transform="scale(1 1) rotate(0) translate(4 435)">
<title>/home/travis/build/AliceO2Group/AliceO2/Detectors/ITSMFT/ITS/QC/TestDataReaderWorkflow/include/ITSQCDataReaderWorkflow</title>
<g id="clust1" class="cluster">
<title>clusterdir_7a330a174ce85b780f377767a0bb81ff</title>
<g id="a_clust1"><a xlink:href="dir_7a330a174ce85b780f377767a0bb81ff.html" target="_top" xlink:title="include">
<polygon fill="#ddddee" stroke="#000000" points="50,-352 50,-423 214,-423 214,-352 50,-352"/>
<text text-anchor="middle" x="132" y="-411" font-family="Helvetica,sans-Serif" font-size="10.00" fill="#000000">include</text>
</a>
</g>
</g>
<!-- dir_37d7cffa3f5acded028d6f89e2c0d0da -->
<g id="node1" class="node">
<title>dir_37d7cffa3f5acded028d6f89e2c0d0da</title>
<g id="a_node1"><a xlink:href="dir_37d7cffa3f5acded028d6f89e2c0d0da.html" target="_top" xlink:title="ITSQCDataReaderWorkflow">
<polygon fill="#eeeeff" stroke="#000000" points="206,-396 58,-396 58,-360 206,-360 206,-396"/>
<text text-anchor="middle" x="132" y="-375.5" font-family="Helvetica,sans-Serif" font-size="10.00" fill="#000000">ITSQCDataReaderWorkflow</text>
</a>
</g>
</g>
<!-- dir_eedff867f3c4e67d20b227cb6e0f96ab -->
<g id="node2" class="node">
<title>dir_eedff867f3c4e67d20b227cb6e0f96ab</title>
<g id="a_node2"><a xlink:href="dir_eedff867f3c4e67d20b227cb6e0f96ab.html" target="_top" xlink:title="base">
<polygon fill="none" stroke="#ff0000" points="104,-324 50,-324 50,-288 104,-288 104,-324"/>
<text text-anchor="middle" x="77" y="-303.5" font-family="Helvetica,sans-Serif" font-size="10.00" fill="#000000">base</text>
</a>
</g>
</g>
<!-- dir_37d7cffa3f5acded028d6f89e2c0d0da&#45;&gt;dir_eedff867f3c4e67d20b227cb6e0f96ab -->
<g id="edge10" class="edge">
<title>dir_37d7cffa3f5acded028d6f89e2c0d0da&#45;&gt;dir_eedff867f3c4e67d20b227cb6e0f96ab</title>
<path fill="none" stroke="#000000" d="M118.1212,-359.8314C111.7864,-351.5386 104.1616,-341.557 97.2074,-332.4533"/>
<polygon fill="#000000" stroke="#000000" points="99.9175,-330.2353 91.0657,-324.4133 94.3548,-334.4847 99.9175,-330.2353"/>
<g id="a_edge10&#45;headlabel"><a xlink:href="dir_000480_000467.html" target="_top" xlink:title="1">
<text text-anchor="middle" x="104.3558" y="-328.8683" font-family="Helvetica,sans-Serif" font-size="10.00" fill="#000000">1</text>
</a>
</g>
</g>
<!-- dir_37c90836491b695b472bf98d1be8336b -->
<g id="node3" class="node">
<title>dir_37c90836491b695b472bf98d1be8336b</title>
<g id="a_node3"><a xlink:href="dir_37c90836491b695b472bf98d1be8336b.html" target="_top" xlink:title="Base">
<polygon fill="none" stroke="#ff0000" points="214,-252 160,-252 160,-216 214,-216 214,-252"/>
<text text-anchor="middle" x="187" y="-231.5" font-family="Helvetica,sans-Serif" font-size="10.00" fill="#000000">Base</text>
</a>
</g>
</g>
<!-- dir_37d7cffa3f5acded028d6f89e2c0d0da&#45;&gt;dir_37c90836491b695b472bf98d1be8336b -->
<g id="edge11" class="edge">
<title>dir_37d7cffa3f5acded028d6f89e2c0d0da&#45;&gt;dir_37c90836491b695b472bf98d1be8336b</title>
<path fill="none" stroke="#000000" d="M138.9658,-359.7623C148.4295,-334.9846 165.4311,-290.4714 176.4607,-261.5939"/>
<polygon fill="#000000" stroke="#000000" points="179.7923,-262.6803 180.0908,-252.0896 173.253,-260.1826 179.7923,-262.6803"/>
<g id="a_edge11&#45;headlabel"><a xlink:href="dir_000480_000274.html" target="_top" xlink:title="1">
<text text-anchor="middle" x="181.1622" y="-264.5513" font-family="Helvetica,sans-Serif" font-size="10.00" fill="#000000">1</text>
</a>
</g>
</g>
<!-- dir_85bf31a2e8d306e7598ffcb73f8df6bf -->
<g id="node4" class="node">
<title>dir_85bf31a2e8d306e7598ffcb73f8df6bf</title>
<g id="a_node4"><a xlink:href="dir_85bf31a2e8d306e7598ffcb73f8df6bf.html" target="_top" xlink:title="common">
<polygon fill="none" stroke="#ff0000" points="208.5,-36 149.5,-36 149.5,0 208.5,0 208.5,-36"/>
<text text-anchor="middle" x="179" y="-15.5" font-family="Helvetica,sans-Serif" font-size="10.00" fill="#000000">common</text>
</a>
</g>
</g>
<!-- dir_37d7cffa3f5acded028d6f89e2c0d0da&#45;&gt;dir_85bf31a2e8d306e7598ffcb73f8df6bf -->
<g id="edge12" class="edge">
<title>dir_37d7cffa3f5acded028d6f89e2c0d0da&#45;&gt;dir_85bf31a2e8d306e7598ffcb73f8df6bf</title>
<path fill="none" stroke="#000000" d="M89.6725,-359.7746C72.8562,-350.9053 54.3737,-338.9034 41,-324 11.6434,-291.2854 0,-277.9551 0,-234 0,-234 0,-234 0,-162 0,-90.8084 87.0223,-48.8868 139.7142,-30.0285"/>
<polygon fill="#000000" stroke="#000000" points="141.1327,-33.2415 149.4418,-26.668 138.847,-26.6252 141.1327,-33.2415"/>
<g id="a_edge12&#45;headlabel"><a xlink:href="dir_000480_000061.html" target="_top" xlink:title="7">
<text text-anchor="middle" x="138.6622" y="-34.5988" font-family="Helvetica,sans-Serif" font-size="10.00" fill="#000000">7</text>
</a>
</g>
</g>
<!-- dir_bcbb2cf9a3d3d83e5515c82071a07177 -->
<g id="node5" class="node">
<title>dir_bcbb2cf9a3d3d83e5515c82071a07177</title>
<g id="a_node5"><a xlink:href="dir_bcbb2cf9a3d3d83e5515c82071a07177.html" target="_top" xlink:title="Framework">
<polygon fill="none" stroke="#ff0000" points="287.5,-180 216.5,-180 216.5,-144 287.5,-144 287.5,-180"/>
<text text-anchor="middle" x="252" y="-159.5" font-family="Helvetica,sans-Serif" font-size="10.00" fill="#000000">Framework</text>
</a>
</g>
</g>
<!-- dir_37d7cffa3f5acded028d6f89e2c0d0da&#45;&gt;dir_bcbb2cf9a3d3d83e5515c82071a07177 -->
<g id="edge13" class="edge">
<title>dir_37d7cffa3f5acded028d6f89e2c0d0da&#45;&gt;dir_bcbb2cf9a3d3d83e5515c82071a07177</title>
<path fill="none" stroke="#000000" d="M146.6781,-359.7266C154.88,-349.3686 165.192,-336.0981 174,-324 196.7824,-292.7073 206.0021,-286.7756 223,-252 232.7475,-232.0577 240.2884,-208.0738 245.2344,-189.8812"/>
<polygon fill="#000000" stroke="#000000" points="248.629,-190.7339 247.7781,-180.1733 241.8576,-188.9596 248.629,-190.7339"/>
<g id="a_edge13&#45;headlabel"><a xlink:href="dir_000480_000013.html" target="_top" xlink:title="5">
<text text-anchor="middle" x="250.4645" y="-192.4308" font-family="Helvetica,sans-Serif" font-size="10.00" fill="#000000">5</text>
</a>
</g>
</g>
<!-- dir_2171f7ec022c5423887b07c69b2f5b48 -->
<g id="node6" class="node">
<title>dir_2171f7ec022c5423887b07c69b2f5b48</title>
<g id="a_node6"><a xlink:href="dir_2171f7ec022c5423887b07c69b2f5b48.html" target="_top" xlink:title="DataFormats">
<polygon fill="none" stroke="#ff0000" points="219,-108 139,-108 139,-72 219,-72 219,-108"/>
<text text-anchor="middle" x="179" y="-87.5" font-family="Helvetica,sans-Serif" font-size="10.00" fill="#000000">DataFormats</text>
</a>
</g>
</g>
<!-- dir_37d7cffa3f5acded028d6f89e2c0d0da&#45;&gt;dir_2171f7ec022c5423887b07c69b2f5b48 -->
<g id="edge14" class="edge">
<title>dir_37d7cffa3f5acded028d6f89e2c0d0da&#45;&gt;dir_2171f7ec022c5423887b07c69b2f5b48</title>
<path fill="none" stroke="#000000" d="M133.5128,-359.9353C136.1619,-329.919 142.2079,-267.9321 151,-216 156.7533,-182.0172 165.7007,-143.3859 171.9272,-117.9589"/>
<polygon fill="#000000" stroke="#000000" points="175.3256,-118.7957 174.3304,-108.2477 168.5306,-117.1141 175.3256,-118.7957"/>
<g id="a_edge14&#45;headlabel"><a xlink:href="dir_000480_000076.html" target="_top" xlink:title="4">
<text text-anchor="middle" x="177.2183" y="-120.4671" font-family="Helvetica,sans-Serif" font-size="10.00" fill="#000000">4</text>
</a>
</g>
</g>
<!-- dir_eedff867f3c4e67d20b227cb6e0f96ab&#45;&gt;dir_37c90836491b695b472bf98d1be8336b -->
<g id="edge1" class="edge">
<title>dir_eedff867f3c4e67d20b227cb6e0f96ab&#45;&gt;dir_37c90836491b695b472bf98d1be8336b</title>
<path fill="none" stroke="#000000" d="M104.191,-288.2022C118.3378,-278.9425 135.8157,-267.5025 151.063,-257.5224"/>
<polygon fill="#000000" stroke="#000000" points="153.2903,-260.2476 159.7406,-251.8425 149.4567,-254.3907 153.2903,-260.2476"/>
<g id="a_edge1&#45;headlabel"><a xlink:href="dir_000467_000274.html" target="_top" xlink:title="2">
<text text-anchor="middle" x="151.8377" y="-262.0918" font-family="Helvetica,sans-Serif" font-size="10.00" fill="#000000">2</text>
</a>
</g>
</g>
<!-- dir_eedff867f3c4e67d20b227cb6e0f96ab&#45;&gt;dir_85bf31a2e8d306e7598ffcb73f8df6bf -->
<g id="edge2" class="edge">
<title>dir_eedff867f3c4e67d20b227cb6e0f96ab&#45;&gt;dir_85bf31a2e8d306e7598ffcb73f8df6bf</title>
<path fill="none" stroke="#000000" d="M69.3568,-287.9695C66.5996,-269.7271 66.5078,-240.7611 70,-216 79.4819,-148.77 83.9305,-128.8826 121,-72 127.5753,-61.9102 136.0304,-51.8623 144.522,-43.2184"/>
<polygon fill="#000000" stroke="#000000" points="147.2049,-45.4921 151.9474,-36.0179 142.3319,-40.4668 147.2049,-45.4921"/>
<g id="a_edge2&#45;headlabel"><a xlink:href="dir_000467_000061.html" target="_top" xlink:title="2">
<text text-anchor="middle" x="146.601" y="-47.5328" font-family="Helvetica,sans-Serif" font-size="10.00" fill="#000000">2</text>
</a>
</g>
</g>
<!-- dir_eedff867f3c4e67d20b227cb6e0f96ab&#45;&gt;dir_2171f7ec022c5423887b07c69b2f5b48 -->
<g id="edge3" class="edge">
<title>dir_eedff867f3c4e67d20b227cb6e0f96ab&#45;&gt;dir_2171f7ec022c5423887b07c69b2f5b48</title>
<path fill="none" stroke="#000000" d="M78.1365,-287.6419C80.8166,-256.1148 89.6294,-190.5828 118,-144 124.6673,-133.0528 134.2585,-123.089 143.868,-114.7844"/>
<polygon fill="#000000" stroke="#000000" points="146.3675,-117.2611 151.8804,-108.2135 141.9286,-111.8484 146.3675,-117.2611"/>
<g id="a_edge3&#45;headlabel"><a xlink:href="dir_000467_000076.html" target="_top" xlink:title="1">
<text text-anchor="middle" x="145.3884" y="-119.2359" font-family="Helvetica,sans-Serif" font-size="10.00" fill="#000000">1</text>
</a>
</g>
</g>
<!-- dir_37c90836491b695b472bf98d1be8336b&#45;&gt;dir_bcbb2cf9a3d3d83e5515c82071a07177 -->
<g id="edge4" class="edge">
<title>dir_37c90836491b695b472bf98d1be8336b&#45;&gt;dir_bcbb2cf9a3d3d83e5515c82071a07177</title>
<path fill="none" stroke="#000000" d="M203.4022,-215.8314C211.0415,-207.3694 220.2683,-197.1489 228.6207,-187.8971"/>
<polygon fill="#000000" stroke="#000000" points="231.2738,-190.1813 235.3769,-180.4133 226.0779,-185.4906 231.2738,-190.1813"/>
<g id="a_edge4&#45;headlabel"><a xlink:href="dir_000274_000013.html" target="_top" xlink:title="1">
<text text-anchor="middle" x="230.9726" y="-192.2521" font-family="Helvetica,sans-Serif" font-size="10.00" fill="#000000">1</text>
</a>
</g>
</g>
<!-- dir_37c90836491b695b472bf98d1be8336b&#45;&gt;dir_2171f7ec022c5423887b07c69b2f5b48 -->
<g id="edge5" class="edge">
<title>dir_37c90836491b695b472bf98d1be8336b&#45;&gt;dir_2171f7ec022c5423887b07c69b2f5b48</title>
<path fill="none" stroke="#000000" d="M181.3136,-215.7623C177.4893,-191.201 174.7727,-147.2474 175.0778,-118.3541"/>
<polygon fill="#000000" stroke="#000000" points="178.5835,-118.1779 175.3467,-108.0896 171.5859,-117.9945 178.5835,-118.1779"/>
<g id="a_edge5&#45;headlabel"><a xlink:href="dir_000274_000076.html" target="_top" xlink:title="10">
<text text-anchor="middle" x="181.3278" y="-119.3456" font-family="Helvetica,sans-Serif" font-size="10.00" fill="#000000">10</text>
</a>
</g>
</g>
<!-- dir_85bf31a2e8d306e7598ffcb73f8df6bf&#45;&gt;dir_eedff867f3c4e67d20b227cb6e0f96ab -->
<g id="edge6" class="edge">
<title>dir_85bf31a2e8d306e7598ffcb73f8df6bf&#45;&gt;dir_eedff867f3c4e67d20b227cb6e0f96ab</title>
<path fill="none" stroke="#000000" d="M167.7355,-36.2615C158.9561,-46.1902 147.4323,-59.0607 139,-72 101.9305,-128.8826 97.4819,-148.77 88,-216 85.0944,-236.602 84.6699,-260.115 83.6661,-277.9402"/>
<polygon fill="#000000" stroke="#000000" points="80.171,-277.749 82.9623,-287.9695 87.1539,-278.2391 80.171,-277.749"/>
<g id="a_edge6&#45;headlabel"><a xlink:href="dir_000061_000467.html" target="_top" xlink:title="1">
<text text-anchor="middle" x="77.5903" y="-271.4645" font-family="Helvetica,sans-Serif" font-size="10.00" fill="#000000">1</text>
</a>
</g>
</g>
<!-- dir_85bf31a2e8d306e7598ffcb73f8df6bf&#45;&gt;dir_37c90836491b695b472bf98d1be8336b -->
<g id="edge7" class="edge">
<title>dir_85bf31a2e8d306e7598ffcb73f8df6bf&#45;&gt;dir_37c90836491b695b472bf98d1be8336b</title>
<path fill="none" stroke="#000000" d="M207.1529,-36.1143C237.2476,-57.5411 282.5832,-96.3846 297,-144 301.6365,-159.3135 305.4613,-166.4204 297,-180 281.1086,-205.5041 249.2656,-219.3037 223.9117,-226.5504"/>
<polygon fill="#000000" stroke="#000000" points="222.9914,-223.1733 214.2106,-229.1019 224.772,-229.9431 222.9914,-223.1733"/>
<g id="a_edge7&#45;headlabel"><a xlink:href="dir_000061_000274.html" target="_top" xlink:title="3">
<text text-anchor="middle" x="225.7456" y="-217.0132" font-family="Helvetica,sans-Serif" font-size="10.00" fill="#000000">3</text>
</a>
</g>
</g>
<!-- dir_85bf31a2e8d306e7598ffcb73f8df6bf&#45;&gt;dir_bcbb2cf9a3d3d83e5515c82071a07177 -->
<g id="edge8" class="edge">
<title>dir_85bf31a2e8d306e7598ffcb73f8df6bf&#45;&gt;dir_bcbb2cf9a3d3d83e5515c82071a07177</title>
<path fill="none" stroke="#000000" d="M199.6416,-36.2327C209.5129,-45.9603 220.7337,-58.6594 228,-72 238.4749,-91.2314 244.5835,-115.3012 248.0141,-133.7089"/>
<polygon fill="#000000" stroke="#000000" points="244.6059,-134.5441 249.7372,-143.8134 251.5063,-133.3673 244.6059,-134.5441"/>
<g id="a_edge8&#45;headlabel"><a xlink:href="dir_000061_000013.html" target="_top" xlink:title="18">
<text text-anchor="middle" x="241.2028" y="-128.9779" font-family="Helvetica,sans-Serif" font-size="10.00" fill="#000000">18</text>
</a>
</g>
</g>
<!-- dir_85bf31a2e8d306e7598ffcb73f8df6bf&#45;&gt;dir_2171f7ec022c5423887b07c69b2f5b48 -->
<g id="edge9" class="edge">
<title>dir_85bf31a2e8d306e7598ffcb73f8df6bf&#45;&gt;dir_2171f7ec022c5423887b07c69b2f5b48</title>
<path fill="none" stroke="#000000" d="M184.976,-36.4133C185.7071,-44.0593 185.9203,-53.1084 185.6155,-61.5726"/>
<polygon fill="#000000" stroke="#000000" points="182.1048,-61.6264 184.9524,-71.8314 189.0902,-62.078 182.1048,-61.6264"/>
<g id="a_edge9&#45;headlabel"><a xlink:href="dir_000061_000076.html" target="_top" xlink:title="56">
<text text-anchor="middle" x="179.5032" y="-55.3562" font-family="Helvetica,sans-Serif" font-size="10.00" fill="#000000">56</text>
</a>
</g>
</g>
<!-- dir_bcbb2cf9a3d3d83e5515c82071a07177&#45;&gt;dir_2171f7ec022c5423887b07c69b2f5b48 -->
<g id="edge15" class="edge">
<title>dir_bcbb2cf9a3d3d83e5515c82071a07177&#45;&gt;dir_2171f7ec022c5423887b07c69b2f5b48</title>
<path fill="none" stroke="#000000" d="M227.6266,-143.8314C218.2225,-135.3694 207.6749,-125.1489 198.7488,-115.8971"/>
<polygon fill="#000000" stroke="#000000" points="201.0996,-113.2884 191.693,-108.4133 196.0063,-118.0904 201.0996,-113.2884"/>
<g id="a_edge15&#45;headlabel"><a xlink:href="dir_000013_000076.html" target="_top" xlink:title="82">
<text text-anchor="middle" x="205.6313" y="-111.4561" font-family="Helvetica,sans-Serif" font-size="10.00" fill="#000000">82</text>
</a>
</g>
</g>
<!-- dir_2171f7ec022c5423887b07c69b2f5b48&#45;&gt;dir_37c90836491b695b472bf98d1be8336b -->
<g id="edge16" class="edge">
<title>dir_2171f7ec022c5423887b07c69b2f5b48&#45;&gt;dir_37c90836491b695b472bf98d1be8336b</title>
<path fill="none" stroke="#000000" d="M184.6633,-108.0896C188.492,-132.5727 191.217,-176.5174 190.924,-205.4713"/>
<polygon fill="#000000" stroke="#000000" points="187.4177,-205.6758 190.66,-215.7623 194.4154,-205.8554 187.4177,-205.6758"/>
<g id="a_edge16&#45;headlabel"><a xlink:href="dir_000076_000274.html" target="_top" xlink:title="1">
<text text-anchor="middle" x="184.6715" y="-199.5096" font-family="Helvetica,sans-Serif" font-size="10.00" fill="#000000">1</text>
</a>
</g>
</g>
<!-- dir_2171f7ec022c5423887b07c69b2f5b48&#45;&gt;dir_85bf31a2e8d306e7598ffcb73f8df6bf -->
<g id="edge17" class="edge">
<title>dir_2171f7ec022c5423887b07c69b2f5b48&#45;&gt;dir_85bf31a2e8d306e7598ffcb73f8df6bf</title>
<path fill="none" stroke="#000000" d="M173.0476,-71.8314C172.2972,-64.131 172.0763,-54.9743 172.3849,-46.4166"/>
<polygon fill="#000000" stroke="#000000" points="175.8792,-46.6161 173.024,-36.4133 168.8935,-46.1697 175.8792,-46.6161"/>
<g id="a_edge17&#45;headlabel"><a xlink:href="dir_000076_000061.html" target="_top" xlink:title="1">
<text text-anchor="middle" x="178.4836" y="-47.8844" font-family="Helvetica,sans-Serif" font-size="10.00" fill="#000000">1</text>
</a>
</g>
</g>
<!-- dir_2171f7ec022c5423887b07c69b2f5b48&#45;&gt;dir_bcbb2cf9a3d3d83e5515c82071a07177 -->
<g id="edge18" class="edge">
<title>dir_2171f7ec022c5423887b07c69b2f5b48&#45;&gt;dir_bcbb2cf9a3d3d83e5515c82071a07177</title>
<path fill="none" stroke="#000000" d="M203.3669,-108.1628C212.8429,-116.6891 223.4806,-127.0016 232.4508,-136.3099"/>
<polygon fill="#000000" stroke="#000000" points="230.1285,-138.9492 239.5314,-143.8314 235.2254,-134.151 230.1285,-138.9492"/>
<g id="a_edge18&#45;headlabel"><a xlink:href="dir_000076_000013.html" target="_top" xlink:title="7">
<text text-anchor="middle" x="225.5973" y="-135.778" font-family="Helvetica,sans-Serif" font-size="10.00" fill="#000000">7</text>
</a>
</g>
</g>
</g>
</svg>
