<?xml version="1.0" encoding="UTF-8" standalone="no"?>
<!DOCTYPE svg PUBLIC "-//W3C//DTD SVG 1.1//EN"
 "http://www.w3.org/Graphics/SVG/1.1/DTD/svg11.dtd">
<!-- Generated by graphviz version 2.40.1 (20161225.0304)
 -->
<!-- Title: /home/travis/build/AliceO2Group/AliceO2/Utilities/DataFlow/src Pages: 1 -->
<svg width="140pt" height="295pt"
 viewBox="0.00 0.00 140.00 295.00" xmlns="http://www.w3.org/2000/svg" xmlns:xlink="http://www.w3.org/1999/xlink">
<g id="graph0" class="graph" transform="scale(1 1) rotate(0) translate(4 291)">
<title>/home/travis/build/AliceO2Group/AliceO2/Utilities/DataFlow/src</title>
<g id="clust1" class="cluster">
<title>clusterdir_47364d143a6f2085f762c4e9d70a45c1</title>
<g id="a_clust1"><a xlink:href="dir_47364d143a6f2085f762c4e9d70a45c1.html" target="_top" xlink:title="DataFlow">
<polygon fill="#ddddee" stroke="#000000" points="46,-208 46,-279 116,-279 116,-208 46,-208"/>
<text text-anchor="middle" x="81" y="-267" font-family="Helvetica,sans-Serif" font-size="10.00" fill="#000000">DataFlow</text>
</a>
</g>
</g>
<!-- dir_61dd9bab78f04367c9fcaf9d1a0ef4be -->
<g id="node1" class="node">
<title>dir_61dd9bab78f04367c9fcaf9d1a0ef4be</title>
<g id="a_node1"><a xlink:href="dir_61dd9bab78f04367c9fcaf9d1a0ef4be.html" target="_top" xlink:title="src">
<polygon fill="#eeeeff" stroke="#000000" points="108,-252 54,-252 54,-216 108,-216 108,-252"/>
<text text-anchor="middle" x="81" y="-231.5" font-family="Helvetica,sans-Serif" font-size="10.00" fill="#000000">src</text>
</a>
</g>
</g>
<!-- dir_104c97f92a33e380b6a2d699e26fec12 -->
<g id="node2" class="node">
<title>dir_104c97f92a33e380b6a2d699e26fec12</title>
<g id="a_node2"><a xlink:href="dir_104c97f92a33e380b6a2d699e26fec12.html" target="_top" xlink:title="include">
<polygon fill="none" stroke="#ff0000" points="108,-180 54,-180 54,-144 108,-144 108,-180"/>
<text text-anchor="middle" x="81" y="-159.5" font-family="Helvetica,sans-Serif" font-size="10.00" fill="#000000">include</text>
</a>
</g>
</g>
<!-- dir_61dd9bab78f04367c9fcaf9d1a0ef4be&#45;&gt;dir_104c97f92a33e380b6a2d699e26fec12 -->
<g id="edge4" class="edge">
<title>dir_61dd9bab78f04367c9fcaf9d1a0ef4be&#45;&gt;dir_104c97f92a33e380b6a2d699e26fec12</title>
<path fill="none" stroke="#000000" d="M81,-215.8314C81,-208.131 81,-198.9743 81,-190.4166"/>
<polygon fill="#000000" stroke="#000000" points="84.5001,-190.4132 81,-180.4133 77.5001,-190.4133 84.5001,-190.4132"/>
<g id="a_edge4&#45;headlabel"><a xlink:href="dir_000727_000725.html" target="_top" xlink:title="24">
<text text-anchor="middle" x="87.3393" y="-191.5079" font-family="Helvetica,sans-Serif" font-size="10.00" fill="#000000">24</text>
</a>
</g>
</g>
<!-- dir_f35ccb320b67f1c85d228c773db13bda -->
<g id="node3" class="node">
<title>dir_f35ccb320b67f1c85d228c773db13bda</title>
<g id="a_node3"><a xlink:href="dir_f35ccb320b67f1c85d228c773db13bda.html" target="_top" xlink:title="O2Device">
<polygon fill="none" stroke="#ff0000" points="64,-108 0,-108 0,-72 64,-72 64,-108"/>
<text text-anchor="middle" x="32" y="-87.5" font-family="Helvetica,sans-Serif" font-size="10.00" fill="#000000">O2Device</text>
</a>
</g>
</g>
<!-- dir_61dd9bab78f04367c9fcaf9d1a0ef4be&#45;&gt;dir_f35ccb320b67f1c85d228c773db13bda -->
<g id="edge5" class="edge">
<title>dir_61dd9bab78f04367c9fcaf9d1a0ef4be&#45;&gt;dir_f35ccb320b67f1c85d228c773db13bda</title>
<path fill="none" stroke="#000000" d="M65.7761,-215.6545C58.3225,-205.7028 49.916,-192.837 45,-180 37.4369,-160.2506 34.2293,-136.5268 32.8899,-118.3954"/>
<polygon fill="#000000" stroke="#000000" points="36.37,-117.9533 32.2867,-108.177 29.3822,-118.3659 36.37,-117.9533"/>
<g id="a_edge5&#45;headlabel"><a xlink:href="dir_000727_000735.html" target="_top" xlink:title="4">
<text text-anchor="middle" x="39.4161" y="-118.8744" font-family="Helvetica,sans-Serif" font-size="10.00" fill="#000000">4</text>
</a>
</g>
</g>
<!-- dir_2171f7ec022c5423887b07c69b2f5b48 -->
<g id="node4" class="node">
<title>dir_2171f7ec022c5423887b07c69b2f5b48</title>
<g id="a_node4"><a xlink:href="dir_2171f7ec022c5423887b07c69b2f5b48.html" target="_top" xlink:title="DataFormats">
<polygon fill="none" stroke="#ff0000" points="132,-36 52,-36 52,0 132,0 132,-36"/>
<text text-anchor="middle" x="92" y="-15.5" font-family="Helvetica,sans-Serif" font-size="10.00" fill="#000000">DataFormats</text>
</a>
</g>
</g>
<!-- dir_61dd9bab78f04367c9fcaf9d1a0ef4be&#45;&gt;dir_2171f7ec022c5423887b07c69b2f5b48 -->
<g id="edge6" class="edge">
<title>dir_61dd9bab78f04367c9fcaf9d1a0ef4be&#45;&gt;dir_2171f7ec022c5423887b07c69b2f5b48</title>
<path fill="none" stroke="#000000" d="M96.9905,-215.9169C104.6538,-206.0371 113.0166,-193.1563 117,-180 130.9008,-134.0889 115.6569,-78.4023 103.622,-45.7184"/>
<polygon fill="#000000" stroke="#000000" points="106.8771,-44.4315 100.0259,-36.3499 100.342,-46.94 106.8771,-44.4315"/>
<g id="a_edge6&#45;headlabel"><a xlink:href="dir_000727_000076.html" target="_top" xlink:title="24">
<text text-anchor="middle" x="110.8159" y="-44.2699" font-family="Helvetica,sans-Serif" font-size="10.00" fill="#000000">24</text>
</a>
</g>
</g>
<!-- dir_104c97f92a33e380b6a2d699e26fec12&#45;&gt;dir_f35ccb320b67f1c85d228c773db13bda -->
<g id="edge1" class="edge">
<title>dir_104c97f92a33e380b6a2d699e26fec12&#45;&gt;dir_f35ccb320b67f1c85d228c773db13bda</title>
<path fill="none" stroke="#000000" d="M68.6352,-143.8314C63.0491,-135.6232 56.337,-125.7606 50.1928,-116.7323"/>
<polygon fill="#000000" stroke="#000000" points="53.051,-114.7112 44.5313,-108.4133 47.264,-118.6496 53.051,-114.7112"/>
<g id="a_edge1&#45;headlabel"><a xlink:href="dir_000725_000735.html" target="_top" xlink:title="6">
<text text-anchor="middle" x="57.4207" y="-113.5855" font-family="Helvetica,sans-Serif" font-size="10.00" fill="#000000">6</text>
</a>
</g>
</g>
<!-- dir_104c97f92a33e380b6a2d699e26fec12&#45;&gt;dir_2171f7ec022c5423887b07c69b2f5b48 -->
<g id="edge2" class="edge">
<title>dir_104c97f92a33e380b6a2d699e26fec12&#45;&gt;dir_2171f7ec022c5423887b07c69b2f5b48</title>
<path fill="none" stroke="#000000" d="M82.3932,-143.7623C84.2694,-119.201 87.6269,-75.2474 89.8341,-46.3541"/>
<polygon fill="#000000" stroke="#000000" points="93.3462,-46.3272 90.6182,-36.0896 86.3666,-45.794 93.3462,-46.3272"/>
<g id="a_edge2&#45;headlabel"><a xlink:href="dir_000725_000076.html" target="_top" xlink:title="6">
<text text-anchor="middle" x="95.9036" y="-47.6276" font-family="Helvetica,sans-Serif" font-size="10.00" fill="#000000">6</text>
</a>
</g>
</g>
<!-- dir_f35ccb320b67f1c85d228c773db13bda&#45;&gt;dir_2171f7ec022c5423887b07c69b2f5b48 -->
<g id="edge3" class="edge">
<title>dir_f35ccb320b67f1c85d228c773db13bda&#45;&gt;dir_2171f7ec022c5423887b07c69b2f5b48</title>
<path fill="none" stroke="#000000" d="M47.1405,-71.8314C54.1217,-63.454 62.5391,-53.3531 70.1876,-44.1749"/>
<polygon fill="#000000" stroke="#000000" points="72.9425,-46.3362 76.6556,-36.4133 67.5649,-41.8548 72.9425,-46.3362"/>
<g id="a_edge3&#45;headlabel"><a xlink:href="dir_000735_000076.html" target="_top" xlink:title="4">
<text text-anchor="middle" x="72.8225" y="-48.4152" font-family="Helvetica,sans-Serif" font-size="10.00" fill="#000000">4</text>
</a>
</g>
</g>
</g>
</svg>
