<?xml version="1.0" encoding="UTF-8" standalone="no"?>
<!DOCTYPE svg PUBLIC "-//W3C//DTD SVG 1.1//EN"
 "http://www.w3.org/Graphics/SVG/1.1/DTD/svg11.dtd">
<!-- Generated by graphviz version 2.40.1 (20161225.0304)
 -->
<!-- Title: /home/travis/build/AliceO2Group/AliceO2/Detectors/CPV/workflow/include/CPVWorkflow Pages: 1 -->
<svg width="198pt" height="367pt"
 viewBox="0.00 0.00 198.00 367.00" xmlns="http://www.w3.org/2000/svg" xmlns:xlink="http://www.w3.org/1999/xlink">
<g id="graph0" class="graph" transform="scale(1 1) rotate(0) translate(4 363)">
<title>/home/travis/build/AliceO2Group/AliceO2/Detectors/CPV/workflow/include/CPVWorkflow</title>
<g id="clust1" class="cluster">
<title>clusterdir_0a7f47e48159aa25a444a090068946d1</title>
<g id="a_clust1"><a xlink:href="dir_0a7f47e48159aa25a444a090068946d1.html" target="_top" xlink:title="include">
<polygon fill="#ddddee" stroke="#000000" points="84,-280 84,-351 182,-351 182,-280 84,-280"/>
<text text-anchor="middle" x="133" y="-339" font-family="Helvetica,sans-Serif" font-size="10.00" fill="#000000">include</text>
</a>
</g>
</g>
<!-- dir_585f888bdcbde9147abd46ab94653304 -->
<g id="node1" class="node">
<title>dir_585f888bdcbde9147abd46ab94653304</title>
<g id="a_node1"><a xlink:href="dir_585f888bdcbde9147abd46ab94653304.html" target="_top" xlink:title="CPVWorkflow">
<polygon fill="#eeeeff" stroke="#000000" points="173.5,-324 92.5,-324 92.5,-288 173.5,-288 173.5,-324"/>
<text text-anchor="middle" x="133" y="-303.5" font-family="Helvetica,sans-Serif" font-size="10.00" fill="#000000">CPVWorkflow</text>
</a>
</g>
</g>
<!-- dir_66222ccc5407e3593e9767260c5fdccb -->
<g id="node2" class="node">
<title>dir_66222ccc5407e3593e9767260c5fdccb</title>
<g id="a_node2"><a xlink:href="dir_66222ccc5407e3593e9767260c5fdccb.html" target="_top" xlink:title="reconstruction">
<polygon fill="none" stroke="#ff0000" points="86,-252 0,-252 0,-216 86,-216 86,-252"/>
<text text-anchor="middle" x="43" y="-231.5" font-family="Helvetica,sans-Serif" font-size="10.00" fill="#000000">reconstruction</text>
</a>
</g>
</g>
<!-- dir_585f888bdcbde9147abd46ab94653304&#45;&gt;dir_66222ccc5407e3593e9767260c5fdccb -->
<g id="edge1" class="edge">
<title>dir_585f888bdcbde9147abd46ab94653304&#45;&gt;dir_66222ccc5407e3593e9767260c5fdccb</title>
<path fill="none" stroke="#000000" d="M110.2892,-287.8314C99.204,-278.9632 85.7046,-268.1637 73.7148,-258.5718"/>
<polygon fill="#000000" stroke="#000000" points="75.6987,-255.6768 65.7035,-252.1628 71.3258,-261.1429 75.6987,-255.6768"/>
<g id="a_edge1&#45;headlabel"><a xlink:href="dir_000373_000352.html" target="_top" xlink:title="1">
<text text-anchor="middle" x="80.2793" y="-253.2052" font-family="Helvetica,sans-Serif" font-size="10.00" fill="#000000">1</text>
</a>
</g>
</g>
<!-- dir_9f065a6c27ad05d142739bd8f4136180 -->
<g id="node3" class="node">
<title>dir_9f065a6c27ad05d142739bd8f4136180</title>
<g id="a_node3"><a xlink:href="dir_9f065a6c27ad05d142739bd8f4136180.html" target="_top" xlink:title="base">
<polygon fill="none" stroke="#ff0000" points="124,-180 70,-180 70,-144 124,-144 124,-180"/>
<text text-anchor="middle" x="97" y="-159.5" font-family="Helvetica,sans-Serif" font-size="10.00" fill="#000000">base</text>
</a>
</g>
</g>
<!-- dir_585f888bdcbde9147abd46ab94653304&#45;&gt;dir_9f065a6c27ad05d142739bd8f4136180 -->
<g id="edge2" class="edge">
<title>dir_585f888bdcbde9147abd46ab94653304&#45;&gt;dir_9f065a6c27ad05d142739bd8f4136180</title>
<path fill="none" stroke="#000000" d="M128.4406,-287.7623C122.2732,-263.0928 111.2149,-218.8598 103.9933,-189.9731"/>
<polygon fill="#000000" stroke="#000000" points="107.3433,-188.9421 101.5224,-180.0896 100.5523,-190.6399 107.3433,-188.9421"/>
<g id="a_edge2&#45;headlabel"><a xlink:href="dir_000373_000197.html" target="_top" xlink:title="1">
<text text-anchor="middle" x="110.9696" y="-189.2408" font-family="Helvetica,sans-Serif" font-size="10.00" fill="#000000">1</text>
</a>
</g>
</g>
<!-- dir_bcbb2cf9a3d3d83e5515c82071a07177 -->
<g id="node4" class="node">
<title>dir_bcbb2cf9a3d3d83e5515c82071a07177</title>
<g id="a_node4"><a xlink:href="dir_bcbb2cf9a3d3d83e5515c82071a07177.html" target="_top" xlink:title="Framework">
<polygon fill="none" stroke="#ff0000" points="132.5,-36 61.5,-36 61.5,0 132.5,0 132.5,-36"/>
<text text-anchor="middle" x="97" y="-15.5" font-family="Helvetica,sans-Serif" font-size="10.00" fill="#000000">Framework</text>
</a>
</g>
</g>
<!-- dir_585f888bdcbde9147abd46ab94653304&#45;&gt;dir_bcbb2cf9a3d3d83e5515c82071a07177 -->
<g id="edge3" class="edge">
<title>dir_585f888bdcbde9147abd46ab94653304&#45;&gt;dir_bcbb2cf9a3d3d83e5515c82071a07177</title>
<path fill="none" stroke="#000000" d="M143.0235,-287.6094C147.9981,-277.4366 153.4733,-264.3803 156,-252 165.4877,-205.5129 169.6003,-127.339 146,-72 141.5135,-61.4798 134.091,-51.6596 126.3636,-43.3555"/>
<polygon fill="#000000" stroke="#000000" points="128.7802,-40.8217 119.2568,-36.179 123.8064,-45.7473 128.7802,-40.8217"/>
<g id="a_edge3&#45;headlabel"><a xlink:href="dir_000373_000013.html" target="_top" xlink:title="7">
<text text-anchor="middle" x="133.327" y="-38.878" font-family="Helvetica,sans-Serif" font-size="10.00" fill="#000000">7</text>
</a>
</g>
</g>
<!-- dir_2171f7ec022c5423887b07c69b2f5b48 -->
<g id="node5" class="node">
<title>dir_2171f7ec022c5423887b07c69b2f5b48</title>
<g id="a_node5"><a xlink:href="dir_2171f7ec022c5423887b07c69b2f5b48.html" target="_top" xlink:title="DataFormats">
<polygon fill="none" stroke="#ff0000" points="137,-108 57,-108 57,-72 137,-72 137,-108"/>
<text text-anchor="middle" x="97" y="-87.5" font-family="Helvetica,sans-Serif" font-size="10.00" fill="#000000">DataFormats</text>
</a>
</g>
</g>
<!-- dir_585f888bdcbde9147abd46ab94653304&#45;&gt;dir_2171f7ec022c5423887b07c69b2f5b48 -->
<g id="edge4" class="edge">
<title>dir_585f888bdcbde9147abd46ab94653304&#45;&gt;dir_2171f7ec022c5423887b07c69b2f5b48</title>
<path fill="none" stroke="#000000" d="M136.4003,-287.5171C141.2903,-256.8995 148.1593,-194.0679 133,-144 130.0436,-134.2355 124.6748,-124.6229 118.97,-116.2762"/>
<polygon fill="#000000" stroke="#000000" points="121.7129,-114.0973 112.9905,-108.0831 116.0586,-118.2239 121.7129,-114.0973"/>
<g id="a_edge4&#45;headlabel"><a xlink:href="dir_000373_000076.html" target="_top" xlink:title="4">
<text text-anchor="middle" x="126.1253" y="-112.827" font-family="Helvetica,sans-Serif" font-size="10.00" fill="#000000">4</text>
</a>
</g>
</g>
<!-- dir_66222ccc5407e3593e9767260c5fdccb&#45;&gt;dir_9f065a6c27ad05d142739bd8f4136180 -->
<g id="edge5" class="edge">
<title>dir_66222ccc5407e3593e9767260c5fdccb&#45;&gt;dir_9f065a6c27ad05d142739bd8f4136180</title>
<path fill="none" stroke="#000000" d="M56.6265,-215.8314C62.846,-207.5386 70.3322,-197.557 77.16,-188.4533"/>
<polygon fill="#000000" stroke="#000000" points="79.99,-190.5133 83.19,-180.4133 74.39,-186.3133 79.99,-190.5133"/>
<g id="a_edge5&#45;headlabel"><a xlink:href="dir_000352_000197.html" target="_top" xlink:title="4">
<text text-anchor="middle" x="80.1047" y="-192.5925" font-family="Helvetica,sans-Serif" font-size="10.00" fill="#000000">4</text>
</a>
</g>
</g>
<!-- dir_66222ccc5407e3593e9767260c5fdccb&#45;&gt;dir_2171f7ec022c5423887b07c69b2f5b48 -->
<g id="edge6" class="edge">
<title>dir_66222ccc5407e3593e9767260c5fdccb&#45;&gt;dir_2171f7ec022c5423887b07c69b2f5b48</title>
<path fill="none" stroke="#000000" d="M44.5407,-215.8087C46.5941,-197.1881 51.1825,-167.7016 61,-144 64.9042,-134.5744 70.5503,-125.0609 76.2176,-116.7008"/>
<polygon fill="#000000" stroke="#000000" points="79.1325,-118.6409 82.0592,-108.4583 73.4213,-114.5933 79.1325,-118.6409"/>
<g id="a_edge6&#45;headlabel"><a xlink:href="dir_000352_000076.html" target="_top" xlink:title="10">
<text text-anchor="middle" x="79.3705" y="-120.7154" font-family="Helvetica,sans-Serif" font-size="10.00" fill="#000000">10</text>
</a>
</g>
</g>
<!-- dir_9f065a6c27ad05d142739bd8f4136180&#45;&gt;dir_2171f7ec022c5423887b07c69b2f5b48 -->
<g id="edge7" class="edge">
<title>dir_9f065a6c27ad05d142739bd8f4136180&#45;&gt;dir_2171f7ec022c5423887b07c69b2f5b48</title>
<path fill="none" stroke="#000000" d="M91.0476,-143.8314C90.2972,-136.131 90.0763,-126.9743 90.3849,-118.4166"/>
<polygon fill="#000000" stroke="#000000" points="93.8792,-118.6161 91.024,-108.4133 86.8935,-118.1697 93.8792,-118.6161"/>
<g id="a_edge7&#45;headlabel"><a xlink:href="dir_000197_000076.html" target="_top" xlink:title="1">
<text text-anchor="middle" x="96.4836" y="-119.8844" font-family="Helvetica,sans-Serif" font-size="10.00" fill="#000000">1</text>
</a>
</g>
</g>
<!-- dir_bcbb2cf9a3d3d83e5515c82071a07177&#45;&gt;dir_2171f7ec022c5423887b07c69b2f5b48 -->
<g id="edge8" class="edge">
<title>dir_bcbb2cf9a3d3d83e5515c82071a07177&#45;&gt;dir_2171f7ec022c5423887b07c69b2f5b48</title>
<path fill="none" stroke="#000000" d="M102.976,-36.4133C103.7071,-44.0593 103.9203,-53.1084 103.6155,-61.5726"/>
<polygon fill="#000000" stroke="#000000" points="100.1048,-61.6264 102.9524,-71.8314 107.0902,-62.078 100.1048,-61.6264"/>
<g id="a_edge8&#45;headlabel"><a xlink:href="dir_000013_000076.html" target="_top" xlink:title="82">
<text text-anchor="middle" x="97.5032" y="-55.3562" font-family="Helvetica,sans-Serif" font-size="10.00" fill="#000000">82</text>
</a>
</g>
</g>
<!-- dir_2171f7ec022c5423887b07c69b2f5b48&#45;&gt;dir_9f065a6c27ad05d142739bd8f4136180 -->
<g id="edge9" class="edge">
<title>dir_2171f7ec022c5423887b07c69b2f5b48&#45;&gt;dir_9f065a6c27ad05d142739bd8f4136180</title>
<path fill="none" stroke="#000000" d="M102.976,-108.4133C103.7071,-116.0593 103.9203,-125.1084 103.6155,-133.5726"/>
<polygon fill="#000000" stroke="#000000" points="100.1048,-133.6264 102.9524,-143.8314 107.0902,-134.078 100.1048,-133.6264"/>
<g id="a_edge9&#45;headlabel"><a xlink:href="dir_000076_000197.html" target="_top" xlink:title="3">
<text text-anchor="middle" x="97.5032" y="-127.3562" font-family="Helvetica,sans-Serif" font-size="10.00" fill="#000000">3</text>
</a>
</g>
</g>
<!-- dir_2171f7ec022c5423887b07c69b2f5b48&#45;&gt;dir_bcbb2cf9a3d3d83e5515c82071a07177 -->
<g id="edge10" class="edge">
<title>dir_2171f7ec022c5423887b07c69b2f5b48&#45;&gt;dir_bcbb2cf9a3d3d83e5515c82071a07177</title>
<path fill="none" stroke="#000000" d="M91.0476,-71.8314C90.2972,-64.131 90.0763,-54.9743 90.3849,-46.4166"/>
<polygon fill="#000000" stroke="#000000" points="93.8792,-46.6161 91.024,-36.4133 86.8935,-46.1697 93.8792,-46.6161"/>
<g id="a_edge10&#45;headlabel"><a xlink:href="dir_000076_000013.html" target="_top" xlink:title="7">
<text text-anchor="middle" x="96.4836" y="-47.8844" font-family="Helvetica,sans-Serif" font-size="10.00" fill="#000000">7</text>
</a>
</g>
</g>
</g>
</svg>
