<?xml version="1.0" encoding="UTF-8" standalone="no"?>
<!DOCTYPE svg PUBLIC "-//W3C//DTD SVG 1.1//EN"
 "http://www.w3.org/Graphics/SVG/1.1/DTD/svg11.dtd">
<!-- Generated by graphviz version 2.40.1 (20161225.0304)
 -->
<!-- Title: /home/travis/build/AliceO2Group/AliceO2/Framework/Utils/include/DPLUtils Pages: 1 -->
<svg width="178pt" height="223pt"
 viewBox="0.00 0.00 177.50 223.00" xmlns="http://www.w3.org/2000/svg" xmlns:xlink="http://www.w3.org/1999/xlink">
<g id="graph0" class="graph" transform="scale(1 1) rotate(0) translate(4 219)">
<title>/home/travis/build/AliceO2Group/AliceO2/Framework/Utils/include/DPLUtils</title>
<g id="clust1" class="cluster">
<title>clusterdir_de9651cf711cd4bea71a7a8d6bfef94c</title>
<g id="a_clust1"><a xlink:href="dir_de9651cf711cd4bea71a7a8d6bfef94c.html" target="_top" xlink:title="include">
<polygon fill="#ddddee" stroke="#000000" points="37.5,-136 37.5,-207 111.5,-207 111.5,-136 37.5,-136"/>
<text text-anchor="middle" x="74.5" y="-195" font-family="Helvetica,sans-Serif" font-size="10.00" fill="#000000">include</text>
</a>
</g>
</g>
<!-- dir_7aebe22961b46cd8502bbaccf48f2fdd -->
<g id="node1" class="node">
<title>dir_7aebe22961b46cd8502bbaccf48f2fdd</title>
<g id="a_node1"><a xlink:href="dir_7aebe22961b46cd8502bbaccf48f2fdd.html" target="_top" xlink:title="DPLUtils">
<polygon fill="#eeeeff" stroke="#000000" points="103,-180 46,-180 46,-144 103,-144 103,-180"/>
<text text-anchor="middle" x="74.5" y="-159.5" font-family="Helvetica,sans-Serif" font-size="10.00" fill="#000000">DPLUtils</text>
</a>
</g>
</g>
<!-- dir_9f165b2481dacfe69aa54d326bd5cd47 -->
<g id="node2" class="node">
<title>dir_9f165b2481dacfe69aa54d326bd5cd47</title>
<g id="a_node2"><a xlink:href="dir_9f165b2481dacfe69aa54d326bd5cd47.html" target="_top" xlink:title="Core">
<polygon fill="none" stroke="#ff0000" points="101.5,-108 47.5,-108 47.5,-72 101.5,-72 101.5,-108"/>
<text text-anchor="middle" x="74.5" y="-87.5" font-family="Helvetica,sans-Serif" font-size="10.00" fill="#000000">Core</text>
</a>
</g>
</g>
<!-- dir_7aebe22961b46cd8502bbaccf48f2fdd&#45;&gt;dir_9f165b2481dacfe69aa54d326bd5cd47 -->
<g id="edge4" class="edge">
<title>dir_7aebe22961b46cd8502bbaccf48f2fdd&#45;&gt;dir_9f165b2481dacfe69aa54d326bd5cd47</title>
<path fill="none" stroke="#000000" d="M74.5,-143.8314C74.5,-136.131 74.5,-126.9743 74.5,-118.4166"/>
<polygon fill="#000000" stroke="#000000" points="78.0001,-118.4132 74.5,-108.4133 71.0001,-118.4133 78.0001,-118.4132"/>
<g id="a_edge4&#45;headlabel"><a xlink:href="dir_000055_000650.html" target="_top" xlink:title="15">
<text text-anchor="middle" x="80.8393" y="-119.5079" font-family="Helvetica,sans-Serif" font-size="10.00" fill="#000000">15</text>
</a>
</g>
</g>
<!-- dir_5d813cdce1e9826318f2aba62999ca51 -->
<g id="node3" class="node">
<title>dir_5d813cdce1e9826318f2aba62999ca51</title>
<g id="a_node3"><a xlink:href="dir_5d813cdce1e9826318f2aba62999ca51.html" target="_top" xlink:title="Foundation">
<polygon fill="none" stroke="#ff0000" points="71,-36 0,-36 0,0 71,0 71,-36"/>
<text text-anchor="middle" x="35.5" y="-15.5" font-family="Helvetica,sans-Serif" font-size="10.00" fill="#000000">Foundation</text>
</a>
</g>
</g>
<!-- dir_7aebe22961b46cd8502bbaccf48f2fdd&#45;&gt;dir_5d813cdce1e9826318f2aba62999ca51 -->
<g id="edge5" class="edge">
<title>dir_7aebe22961b46cd8502bbaccf48f2fdd&#45;&gt;dir_5d813cdce1e9826318f2aba62999ca51</title>
<path fill="none" stroke="#000000" d="M58.6892,-143.8609C51.075,-133.9657 42.702,-121.0882 38.5,-108 32.0981,-88.0601 31.5746,-64.3451 32.5305,-46.2655"/>
<polygon fill="#000000" stroke="#000000" points="36.0364,-46.3053 33.254,-36.0824 29.054,-45.8091 36.0364,-46.3053"/>
<g id="a_edge5&#45;headlabel"><a xlink:href="dir_000055_000655.html" target="_top" xlink:title="1">
<text text-anchor="middle" x="38.6138" y="-47.5921" font-family="Helvetica,sans-Serif" font-size="10.00" fill="#000000">1</text>
</a>
</g>
</g>
<!-- dir_2171f7ec022c5423887b07c69b2f5b48 -->
<g id="node4" class="node">
<title>dir_2171f7ec022c5423887b07c69b2f5b48</title>
<g id="a_node4"><a xlink:href="dir_2171f7ec022c5423887b07c69b2f5b48.html" target="_top" xlink:title="DataFormats">
<polygon fill="none" stroke="#ff0000" points="169.5,-36 89.5,-36 89.5,0 169.5,0 169.5,-36"/>
<text text-anchor="middle" x="129.5" y="-15.5" font-family="Helvetica,sans-Serif" font-size="10.00" fill="#000000">DataFormats</text>
</a>
</g>
</g>
<!-- dir_7aebe22961b46cd8502bbaccf48f2fdd&#45;&gt;dir_2171f7ec022c5423887b07c69b2f5b48 -->
<g id="edge6" class="edge">
<title>dir_7aebe22961b46cd8502bbaccf48f2fdd&#45;&gt;dir_2171f7ec022c5423887b07c69b2f5b48</title>
<path fill="none" stroke="#000000" d="M89.3853,-143.5185C96.7462,-133.5296 105.172,-120.6716 110.5,-108 118.8306,-88.1876 123.6533,-64.3321 126.3541,-46.1605"/>
<polygon fill="#000000" stroke="#000000" points="129.8302,-46.5721 127.7095,-36.1917 122.8941,-45.6289 129.8302,-46.5721"/>
<g id="a_edge6&#45;headlabel"><a xlink:href="dir_000055_000076.html" target="_top" xlink:title="4">
<text text-anchor="middle" x="132.1594" y="-48.0164" font-family="Helvetica,sans-Serif" font-size="10.00" fill="#000000">4</text>
</a>
</g>
</g>
<!-- dir_9f165b2481dacfe69aa54d326bd5cd47&#45;&gt;dir_5d813cdce1e9826318f2aba62999ca51 -->
<g id="edge1" class="edge">
<title>dir_9f165b2481dacfe69aa54d326bd5cd47&#45;&gt;dir_5d813cdce1e9826318f2aba62999ca51</title>
<path fill="none" stroke="#000000" d="M58.7063,-71.8314C53.6225,-63.8771 48.2622,-54.369 43.8522,-45.5723"/>
<polygon fill="#000000" stroke="#000000" points="46.9525,-43.9418 39.4978,-36.4133 40.6305,-46.9474 46.9525,-43.9418"/>
<g id="a_edge1&#45;headlabel"><a xlink:href="dir_000650_000655.html" target="_top" xlink:title="36">
<text text-anchor="middle" x="51.06" y="-43.4692" font-family="Helvetica,sans-Serif" font-size="10.00" fill="#000000">36</text>
</a>
</g>
</g>
<!-- dir_9f165b2481dacfe69aa54d326bd5cd47&#45;&gt;dir_2171f7ec022c5423887b07c69b2f5b48 -->
<g id="edge2" class="edge">
<title>dir_9f165b2481dacfe69aa54d326bd5cd47&#45;&gt;dir_2171f7ec022c5423887b07c69b2f5b48</title>
<path fill="none" stroke="#000000" d="M88.3788,-71.8314C94.7136,-63.5386 102.3384,-53.557 109.2926,-44.4533"/>
<polygon fill="#000000" stroke="#000000" points="112.1452,-46.4847 115.4343,-36.4133 106.5825,-42.2353 112.1452,-46.4847"/>
<g id="a_edge2&#45;headlabel"><a xlink:href="dir_000650_000076.html" target="_top" xlink:title="64">
<text text-anchor="middle" x="112.2195" y="-48.5647" font-family="Helvetica,sans-Serif" font-size="10.00" fill="#000000">64</text>
</a>
</g>
</g>
<!-- dir_5d813cdce1e9826318f2aba62999ca51&#45;&gt;dir_9f165b2481dacfe69aa54d326bd5cd47 -->
<g id="edge3" class="edge">
<title>dir_5d813cdce1e9826318f2aba62999ca51&#45;&gt;dir_9f165b2481dacfe69aa54d326bd5cd47</title>
<path fill="none" stroke="#000000" d="M51.4499,-36.4133C56.5391,-44.3991 61.8924,-53.9155 66.2829,-62.6975"/>
<polygon fill="#000000" stroke="#000000" points="63.166,-64.2933 70.611,-71.8314 69.4917,-61.2958 63.166,-64.2933"/>
<g id="a_edge3&#45;headlabel"><a xlink:href="dir_000655_000650.html" target="_top" xlink:title="1">
<text text-anchor="middle" x="59.061" y="-59.7608" font-family="Helvetica,sans-Serif" font-size="10.00" fill="#000000">1</text>
</a>
</g>
</g>
</g>
</svg>
