<?xml version="1.0" encoding="UTF-8" standalone="no"?>
<!DOCTYPE svg PUBLIC "-//W3C//DTD SVG 1.1//EN"
 "http://www.w3.org/Graphics/SVG/1.1/DTD/svg11.dtd">
<!-- Generated by graphviz version 2.40.1 (20161225.0304)
 -->
<!-- Title: /home/travis/build/AliceO2Group/AliceO2/Detectors/GlobalTrackingWorkflow/tofworkflow Pages: 1 -->
<svg width="616pt" height="663pt"
 viewBox="0.00 0.00 616.00 663.00" xmlns="http://www.w3.org/2000/svg" xmlns:xlink="http://www.w3.org/1999/xlink">
<g id="graph0" class="graph" transform="scale(1 1) rotate(0) translate(4 659)">
<title>/home/travis/build/AliceO2Group/AliceO2/Detectors/GlobalTrackingWorkflow/tofworkflow</title>
<g id="clust1" class="cluster">
<title>clusterdir_109ace25e426b841fbcad1590c555213</title>
<g id="a_clust1"><a xlink:href="dir_109ace25e426b841fbcad1590c555213.html" target="_top" xlink:title="GlobalTrackingWorkflow">
<polygon fill="#ddddee" stroke="#000000" points="33,-488 33,-647 211,-647 211,-488 33,-488"/>
<text text-anchor="middle" x="122" y="-635" font-family="Helvetica,sans-Serif" font-size="10.00" fill="#000000">GlobalTrackingWorkflow</text>
</a>
</g>
</g>
<g id="clust2" class="cluster">
<title>clusterdir_57f28544222c2e6ef6ccc73f132144c0</title>
<g id="a_clust2"><a xlink:href="dir_57f28544222c2e6ef6ccc73f132144c0.html" target="_top">
<polygon fill="#eeeeff" stroke="#000000" points="41,-496 41,-620 203,-620 203,-496 41,-496"/>
</a>
</g>
</g>
<!-- dir_57f28544222c2e6ef6ccc73f132144c0 -->
<g id="node1" class="node">
<title>dir_57f28544222c2e6ef6ccc73f132144c0</title>
<text text-anchor="middle" x="158" y="-591.5" font-family="Helvetica,sans-Serif" font-size="10.00" fill="#000000">tofworkflow</text>
</g>
<!-- dir_8feb20fbc7831f8f200feef6e6d9e0a3 -->
<g id="node2" class="node">
<title>dir_8feb20fbc7831f8f200feef6e6d9e0a3</title>
<g id="a_node2"><a xlink:href="dir_8feb20fbc7831f8f200feef6e6d9e0a3.html" target="_top" xlink:title="include">
<polygon fill="#ffffff" stroke="#ff0000" points="103,-540 49,-540 49,-504 103,-504 103,-540"/>
<text text-anchor="middle" x="76" y="-519.5" font-family="Helvetica,sans-Serif" font-size="10.00" fill="#000000">include</text>
</a>
</g>
</g>
<!-- dir_bcbb2cf9a3d3d83e5515c82071a07177 -->
<g id="node11" class="node">
<title>dir_bcbb2cf9a3d3d83e5515c82071a07177</title>
<g id="a_node11"><a xlink:href="dir_bcbb2cf9a3d3d83e5515c82071a07177.html" target="_top" xlink:title="Framework">
<polygon fill="none" stroke="#ff0000" points="199.5,-324 128.5,-324 128.5,-288 199.5,-288 199.5,-324"/>
<text text-anchor="middle" x="164" y="-303.5" font-family="Helvetica,sans-Serif" font-size="10.00" fill="#000000">Framework</text>
</a>
</g>
</g>
<!-- dir_8feb20fbc7831f8f200feef6e6d9e0a3&#45;&gt;dir_bcbb2cf9a3d3d83e5515c82071a07177 -->
<g id="edge40" class="edge">
<title>dir_8feb20fbc7831f8f200feef6e6d9e0a3&#45;&gt;dir_bcbb2cf9a3d3d83e5515c82071a07177</title>
<path fill="none" stroke="#000000" d="M82.3969,-503.8237C93.1414,-473.647 115.8208,-411.4346 138,-360 141.7718,-351.253 146.1709,-341.8564 150.2663,-333.3933"/>
<polygon fill="#000000" stroke="#000000" points="153.4552,-334.8394 154.7114,-324.3193 147.169,-331.7599 153.4552,-334.8394"/>
<g id="a_edge40&#45;headlabel"><a xlink:href="dir_000457_000013.html" target="_top" xlink:title="7">
<text text-anchor="middle" x="154.4237" y="-336.8165" font-family="Helvetica,sans-Serif" font-size="10.00" fill="#000000">7</text>
</a>
</g>
</g>
<!-- dir_2171f7ec022c5423887b07c69b2f5b48 -->
<g id="node12" class="node">
<title>dir_2171f7ec022c5423887b07c69b2f5b48</title>
<g id="a_node12"><a xlink:href="dir_2171f7ec022c5423887b07c69b2f5b48.html" target="_top" xlink:title="DataFormats">
<polygon fill="none" stroke="#ff0000" points="298,-180 218,-180 218,-144 298,-144 298,-180"/>
<text text-anchor="middle" x="258" y="-159.5" font-family="Helvetica,sans-Serif" font-size="10.00" fill="#000000">DataFormats</text>
</a>
</g>
</g>
<!-- dir_8feb20fbc7831f8f200feef6e6d9e0a3&#45;&gt;dir_2171f7ec022c5423887b07c69b2f5b48 -->
<g id="edge41" class="edge">
<title>dir_8feb20fbc7831f8f200feef6e6d9e0a3&#45;&gt;dir_2171f7ec022c5423887b07c69b2f5b48</title>
<path fill="none" stroke="#000000" d="M76,-503.8146C76,-476.4983 76,-423.25 76,-378 76,-378 76,-378 76,-306 76,-238.3438 154.3043,-197.4879 208.1887,-177.3828"/>
<polygon fill="#000000" stroke="#000000" points="209.3895,-180.6704 217.6083,-173.9844 207.0139,-174.0858 209.3895,-180.6704"/>
<g id="a_edge41&#45;headlabel"><a xlink:href="dir_000457_000076.html" target="_top" xlink:title="3">
<text text-anchor="middle" x="206.9718" y="-182.061" font-family="Helvetica,sans-Serif" font-size="10.00" fill="#000000">3</text>
</a>
</g>
</g>
<!-- dir_1f12aa5b71899e653444b1540988c8e0 -->
<g id="node3" class="node">
<title>dir_1f12aa5b71899e653444b1540988c8e0</title>
<g id="a_node3"><a xlink:href="dir_1f12aa5b71899e653444b1540988c8e0.html" target="_top" xlink:title="src">
<polygon fill="#ffffff" stroke="#000000" points="103,-612 49,-612 49,-576 103,-576 103,-612"/>
<text text-anchor="middle" x="76" y="-591.5" font-family="Helvetica,sans-Serif" font-size="10.00" fill="#000000">src</text>
</a>
</g>
</g>
<!-- dir_1f12aa5b71899e653444b1540988c8e0&#45;&gt;dir_8feb20fbc7831f8f200feef6e6d9e0a3 -->
<g id="edge19" class="edge">
<title>dir_1f12aa5b71899e653444b1540988c8e0&#45;&gt;dir_8feb20fbc7831f8f200feef6e6d9e0a3</title>
<path fill="none" stroke="#000000" d="M76,-575.8314C76,-568.131 76,-558.9743 76,-550.4166"/>
<polygon fill="#000000" stroke="#000000" points="79.5001,-550.4132 76,-540.4133 72.5001,-550.4133 79.5001,-550.4132"/>
<g id="a_edge19&#45;headlabel"><a xlink:href="dir_000459_000457.html" target="_top" xlink:title="7">
<text text-anchor="middle" x="82.3393" y="-551.5079" font-family="Helvetica,sans-Serif" font-size="10.00" fill="#000000">7</text>
</a>
</g>
</g>
<!-- dir_abf14b5a84807c7615b6f574ef2c4a02 -->
<g id="node4" class="node">
<title>dir_abf14b5a84807c7615b6f574ef2c4a02</title>
<g id="a_node4"><a xlink:href="dir_abf14b5a84807c7615b6f574ef2c4a02.html" target="_top" xlink:title="include">
<polygon fill="none" stroke="#ff0000" points="273,-540 219,-540 219,-504 273,-504 273,-540"/>
<text text-anchor="middle" x="246" y="-519.5" font-family="Helvetica,sans-Serif" font-size="10.00" fill="#000000">include</text>
</a>
</g>
</g>
<!-- dir_1f12aa5b71899e653444b1540988c8e0&#45;&gt;dir_abf14b5a84807c7615b6f574ef2c4a02 -->
<g id="edge10" class="edge">
<title>dir_1f12aa5b71899e653444b1540988c8e0&#45;&gt;dir_abf14b5a84807c7615b6f574ef2c4a02</title>
<path fill="none" stroke="#000000" d="M103.3812,-579.9509C106.2723,-578.5753 109.1838,-577.2338 112,-576 153.3569,-557.8804 165.3651,-557.4714 207,-540 207.8423,-539.6465 208.6934,-539.2857 209.5503,-538.9189"/>
<polygon fill="#000000" stroke="#000000" points="211.0898,-542.0654 218.8331,-534.834 208.2703,-535.6583 211.0898,-542.0654"/>
<g id="a_edge10&#45;headlabel"><a xlink:href="dir_000459_000453.html" target="_top" xlink:title="1">
<text text-anchor="middle" x="208.9433" y="-543.612" font-family="Helvetica,sans-Serif" font-size="10.00" fill="#000000">1</text>
</a>
</g>
</g>
<!-- dir_4ab6b4cc6a7edbff49100e9123df213f -->
<g id="node5" class="node">
<title>dir_4ab6b4cc6a7edbff49100e9123df213f</title>
<g id="a_node5"><a xlink:href="dir_4ab6b4cc6a7edbff49100e9123df213f.html" target="_top" xlink:title="Common">
<polygon fill="none" stroke="#ff0000" points="335.5,-252 274.5,-252 274.5,-216 335.5,-216 335.5,-252"/>
<text text-anchor="middle" x="305" y="-231.5" font-family="Helvetica,sans-Serif" font-size="10.00" fill="#000000">Common</text>
</a>
</g>
</g>
<!-- dir_1f12aa5b71899e653444b1540988c8e0&#45;&gt;dir_4ab6b4cc6a7edbff49100e9123df213f -->
<g id="edge11" class="edge">
<title>dir_1f12aa5b71899e653444b1540988c8e0&#45;&gt;dir_4ab6b4cc6a7edbff49100e9123df213f</title>
<path fill="none" stroke="#000000" d="M103.2036,-579.499C106.1293,-578.2115 109.0975,-577.0142 112,-576 184.9082,-550.5239 232.2719,-599.0911 282,-540 285.866,-535.4061 285.602,-437.9909 286,-432 290.0111,-371.6297 297.4314,-301.1512 301.7156,-262.6777"/>
<polygon fill="#000000" stroke="#000000" points="305.2475,-262.5887 302.8863,-252.2603 298.2913,-261.8069 305.2475,-262.5887"/>
<g id="a_edge11&#45;headlabel"><a xlink:href="dir_000459_000027.html" target="_top" xlink:title="2">
<text text-anchor="middle" x="307.6677" y="-263.9779" font-family="Helvetica,sans-Serif" font-size="10.00" fill="#000000">2</text>
</a>
</g>
</g>
<!-- dir_d14e88a79bca429480864605ee348cef -->
<g id="node6" class="node">
<title>dir_d14e88a79bca429480864605ee348cef</title>
<g id="a_node6"><a xlink:href="dir_d14e88a79bca429480864605ee348cef.html" target="_top" xlink:title="FIT">
<polygon fill="none" stroke="#ff0000" points="186,-108 132,-108 132,-72 186,-72 186,-108"/>
<text text-anchor="middle" x="159" y="-87.5" font-family="Helvetica,sans-Serif" font-size="10.00" fill="#000000">FIT</text>
</a>
</g>
</g>
<!-- dir_1f12aa5b71899e653444b1540988c8e0&#45;&gt;dir_d14e88a79bca429480864605ee348cef -->
<g id="edge12" class="edge">
<title>dir_1f12aa5b71899e653444b1540988c8e0&#45;&gt;dir_d14e88a79bca429480864605ee348cef</title>
<path fill="none" stroke="#000000" d="M58.7544,-575.6186C36.3312,-549.719 0,-500.0348 0,-450 0,-450 0,-450 0,-306 0,-222.5388 77.9433,-150.063 124.686,-114.1033"/>
<polygon fill="#000000" stroke="#000000" points="126.8674,-116.8419 132.7444,-108.0265 122.6527,-111.2529 126.8674,-116.8419"/>
<g id="a_edge12&#45;headlabel"><a xlink:href="dir_000459_000162.html" target="_top" xlink:title="1">
<text text-anchor="middle" x="125.7068" y="-118.7731" font-family="Helvetica,sans-Serif" font-size="10.00" fill="#000000">1</text>
</a>
</g>
</g>
<!-- dir_37c90836491b695b472bf98d1be8336b -->
<g id="node7" class="node">
<title>dir_37c90836491b695b472bf98d1be8336b</title>
<g id="a_node7"><a xlink:href="dir_37c90836491b695b472bf98d1be8336b.html" target="_top" xlink:title="Base">
<polygon fill="none" stroke="#ff0000" points="371,-36 317,-36 317,0 371,0 371,-36"/>
<text text-anchor="middle" x="344" y="-15.5" font-family="Helvetica,sans-Serif" font-size="10.00" fill="#000000">Base</text>
</a>
</g>
</g>
<!-- dir_1f12aa5b71899e653444b1540988c8e0&#45;&gt;dir_37c90836491b695b472bf98d1be8336b -->
<g id="edge13" class="edge">
<title>dir_1f12aa5b71899e653444b1540988c8e0&#45;&gt;dir_37c90836491b695b472bf98d1be8336b</title>
<path fill="none" stroke="#000000" d="M103.0928,-579.1496C106.04,-577.9302 109.0436,-576.8444 112,-576 278.1008,-528.5602 339.3264,-605.9116 499,-540 557.0711,-516.0289 608,-512.8241 608,-450 608,-450 608,-450 608,-162 608,-59.9901 454.2088,-29.8111 381.387,-21.239"/>
<polygon fill="#000000" stroke="#000000" points="381.581,-17.7393 371.2583,-20.1251 380.8157,-24.6974 381.581,-17.7393"/>
<g id="a_edge13&#45;headlabel"><a xlink:href="dir_000459_000274.html" target="_top" xlink:title="3">
<text text-anchor="middle" x="385.4644" y="-12.8099" font-family="Helvetica,sans-Serif" font-size="10.00" fill="#000000">3</text>
</a>
</g>
</g>
<!-- dir_8ba487e25de5ee77e05e9dce7582cb98 -->
<g id="node8" class="node">
<title>dir_8ba487e25de5ee77e05e9dce7582cb98</title>
<g id="a_node8"><a xlink:href="dir_8ba487e25de5ee77e05e9dce7582cb98.html" target="_top" xlink:title="Algorithm">
<polygon fill="none" stroke="#ff0000" points="283.5,-108 218.5,-108 218.5,-72 283.5,-72 283.5,-108"/>
<text text-anchor="middle" x="251" y="-87.5" font-family="Helvetica,sans-Serif" font-size="10.00" fill="#000000">Algorithm</text>
</a>
</g>
</g>
<!-- dir_1f12aa5b71899e653444b1540988c8e0&#45;&gt;dir_8ba487e25de5ee77e05e9dce7582cb98 -->
<g id="edge14" class="edge">
<title>dir_1f12aa5b71899e653444b1540988c8e0&#45;&gt;dir_8ba487e25de5ee77e05e9dce7582cb98</title>
<path fill="none" stroke="#000000" d="M103.1165,-579.2306C106.0591,-577.9954 109.0551,-576.8837 112,-576 240.6233,-537.4016 284.4685,-582.0653 412,-540 488.7484,-514.6851 570,-530.8156 570,-450 570,-450 570,-450 570,-306 570,-173.9499 380.264,-117.1065 293.4493,-98.0088"/>
<polygon fill="#000000" stroke="#000000" points="294.1497,-94.5796 283.6395,-95.9156 292.6889,-101.4255 294.1497,-94.5796"/>
<g id="a_edge14&#45;headlabel"><a xlink:href="dir_000459_000000.html" target="_top" xlink:title="1">
<text text-anchor="middle" x="298.2577" y="-90.0529" font-family="Helvetica,sans-Serif" font-size="10.00" fill="#000000">1</text>
</a>
</g>
</g>
<!-- dir_577c839d346a264df4e9e588ca2a45dd -->
<g id="node9" class="node">
<title>dir_577c839d346a264df4e9e588ca2a45dd</title>
<g id="a_node9"><a xlink:href="dir_577c839d346a264df4e9e588ca2a45dd.html" target="_top" xlink:title="TOF">
<polygon fill="none" stroke="#ff0000" points="439,-396 385,-396 385,-360 439,-360 439,-396"/>
<text text-anchor="middle" x="412" y="-375.5" font-family="Helvetica,sans-Serif" font-size="10.00" fill="#000000">TOF</text>
</a>
</g>
</g>
<!-- dir_1f12aa5b71899e653444b1540988c8e0&#45;&gt;dir_577c839d346a264df4e9e588ca2a45dd -->
<g id="edge15" class="edge">
<title>dir_1f12aa5b71899e653444b1540988c8e0&#45;&gt;dir_577c839d346a264df4e9e588ca2a45dd</title>
<path fill="none" stroke="#000000" d="M103.1513,-579.3429C106.0872,-578.0858 109.0721,-576.9383 112,-576 209.6948,-544.6922 252.3493,-593.3086 340,-540 386.7506,-511.5666 403.2922,-444.4942 409.036,-406.1635"/>
<polygon fill="#000000" stroke="#000000" points="412.5157,-406.549 410.3859,-396.1705 405.5787,-405.6119 412.5157,-406.549"/>
<g id="a_edge15&#45;headlabel"><a xlink:href="dir_000459_000136.html" target="_top" xlink:title="7">
<text text-anchor="middle" x="414.8483" y="-407.9913" font-family="Helvetica,sans-Serif" font-size="10.00" fill="#000000">7</text>
</a>
</g>
</g>
<!-- dir_18e0e8b4b629c3c13e7ad1457bcd5f89 -->
<g id="node10" class="node">
<title>dir_18e0e8b4b629c3c13e7ad1457bcd5f89</title>
<g id="a_node10"><a xlink:href="dir_18e0e8b4b629c3c13e7ad1457bcd5f89.html" target="_top" xlink:title="GlobalTracking">
<polygon fill="none" stroke="#ff0000" points="383.5,-468 294.5,-468 294.5,-432 383.5,-432 383.5,-468"/>
<text text-anchor="middle" x="339" y="-447.5" font-family="Helvetica,sans-Serif" font-size="10.00" fill="#000000">GlobalTracking</text>
</a>
</g>
</g>
<!-- dir_1f12aa5b71899e653444b1540988c8e0&#45;&gt;dir_18e0e8b4b629c3c13e7ad1457bcd5f89 -->
<g id="edge16" class="edge">
<title>dir_1f12aa5b71899e653444b1540988c8e0&#45;&gt;dir_18e0e8b4b629c3c13e7ad1457bcd5f89</title>
<path fill="none" stroke="#000000" d="M103.1698,-579.3997C106.1021,-578.1316 109.0811,-576.9659 112,-576 198.9905,-547.2127 247.5108,-601.9779 315,-540 331.9615,-524.4237 337.4791,-498.327 339.0361,-478.2344"/>
<polygon fill="#000000" stroke="#000000" points="342.54,-478.2386 339.5352,-468.0788 335.5484,-477.8949 342.54,-478.2386"/>
<g id="a_edge16&#45;headlabel"><a xlink:href="dir_000459_000448.html" target="_top" xlink:title="1">
<text text-anchor="middle" x="345.1995" y="-479.4683" font-family="Helvetica,sans-Serif" font-size="10.00" fill="#000000">1</text>
</a>
</g>
</g>
<!-- dir_1f12aa5b71899e653444b1540988c8e0&#45;&gt;dir_bcbb2cf9a3d3d83e5515c82071a07177 -->
<g id="edge17" class="edge">
<title>dir_1f12aa5b71899e653444b1540988c8e0&#45;&gt;dir_bcbb2cf9a3d3d83e5515c82071a07177</title>
<path fill="none" stroke="#000000" d="M90.4697,-575.9844C97.8987,-565.9214 106.5163,-552.8504 112,-540 142.1038,-469.4548 155.814,-379.2016 161.1322,-334.1815"/>
<polygon fill="#000000" stroke="#000000" points="164.6372,-334.3339 162.2811,-324.0044 157.6814,-333.5487 164.6372,-334.3339"/>
<g id="a_edge17&#45;headlabel"><a xlink:href="dir_000459_000013.html" target="_top" xlink:title="15">
<text text-anchor="middle" x="167.0554" y="-335.7243" font-family="Helvetica,sans-Serif" font-size="10.00" fill="#000000">15</text>
</a>
</g>
</g>
<!-- dir_1f12aa5b71899e653444b1540988c8e0&#45;&gt;dir_2171f7ec022c5423887b07c69b2f5b48 -->
<g id="edge18" class="edge">
<title>dir_1f12aa5b71899e653444b1540988c8e0&#45;&gt;dir_2171f7ec022c5423887b07c69b2f5b48</title>
<path fill="none" stroke="#000000" d="M103.1318,-579.2808C106.0714,-578.0358 109.0626,-576.9081 112,-576 224.715,-541.1527 278.7108,-608.1718 375,-540 433.5625,-498.5383 431.5143,-465.8345 448,-396 466.6684,-316.9193 470.5886,-276.186 416,-216 401.2469,-199.7341 348.6153,-183.8074 308.1078,-173.5157"/>
<polygon fill="#000000" stroke="#000000" points="308.9128,-170.1093 298.3632,-171.0878 307.2204,-176.9017 308.9128,-170.1093"/>
<g id="a_edge18&#45;headlabel"><a xlink:href="dir_000459_000076.html" target="_top" xlink:title="21">
<text text-anchor="middle" x="313.0871" y="-165.7232" font-family="Helvetica,sans-Serif" font-size="10.00" fill="#000000">21</text>
</a>
</g>
</g>
<!-- dir_abf14b5a84807c7615b6f574ef2c4a02&#45;&gt;dir_18e0e8b4b629c3c13e7ad1457bcd5f89 -->
<g id="edge1" class="edge">
<title>dir_abf14b5a84807c7615b6f574ef2c4a02&#45;&gt;dir_18e0e8b4b629c3c13e7ad1457bcd5f89</title>
<path fill="none" stroke="#000000" d="M269.4678,-503.8314C281.0327,-494.8779 295.1404,-483.9558 307.6183,-474.2955"/>
<polygon fill="#000000" stroke="#000000" points="309.775,-477.0521 315.5397,-468.1628 305.4898,-471.5171 309.775,-477.0521"/>
<g id="a_edge1&#45;headlabel"><a xlink:href="dir_000453_000448.html" target="_top" xlink:title="1">
<text text-anchor="middle" x="308.6708" y="-478.9977" font-family="Helvetica,sans-Serif" font-size="10.00" fill="#000000">1</text>
</a>
</g>
</g>
<!-- dir_abf14b5a84807c7615b6f574ef2c4a02&#45;&gt;dir_bcbb2cf9a3d3d83e5515c82071a07177 -->
<g id="edge2" class="edge">
<title>dir_abf14b5a84807c7615b6f574ef2c4a02&#45;&gt;dir_bcbb2cf9a3d3d83e5515c82071a07177</title>
<path fill="none" stroke="#000000" d="M233.6171,-503.5885C227.1539,-493.4095 219.475,-480.354 214,-468 193.9844,-422.8354 178.7224,-367.2601 170.5842,-334.3376"/>
<polygon fill="#000000" stroke="#000000" points="173.9535,-333.3798 168.1953,-324.4863 167.1507,-335.0295 173.9535,-333.3798"/>
<g id="a_edge2&#45;headlabel"><a xlink:href="dir_000453_000013.html" target="_top" xlink:title="6">
<text text-anchor="middle" x="177.5599" y="-333.704" font-family="Helvetica,sans-Serif" font-size="10.00" fill="#000000">6</text>
</a>
</g>
</g>
<!-- dir_abf14b5a84807c7615b6f574ef2c4a02&#45;&gt;dir_2171f7ec022c5423887b07c69b2f5b48 -->
<g id="edge3" class="edge">
<title>dir_abf14b5a84807c7615b6f574ef2c4a02&#45;&gt;dir_2171f7ec022c5423887b07c69b2f5b48</title>
<path fill="none" stroke="#000000" d="M246.3309,-503.7911C247.0763,-464.4159 249.0549,-368.41 252,-288 253.2274,-254.4884 255.1331,-215.9865 256.4666,-190.4538"/>
<polygon fill="#000000" stroke="#000000" points="259.9674,-190.5282 256.9994,-180.3576 252.9772,-190.1592 259.9674,-190.5282"/>
<g id="a_edge3&#45;headlabel"><a xlink:href="dir_000453_000076.html" target="_top" xlink:title="4">
<text text-anchor="middle" x="262.6134" y="-191.7674" font-family="Helvetica,sans-Serif" font-size="10.00" fill="#000000">4</text>
</a>
</g>
</g>
<!-- dir_4ab6b4cc6a7edbff49100e9123df213f&#45;&gt;dir_bcbb2cf9a3d3d83e5515c82071a07177 -->
<g id="edge4" class="edge">
<title>dir_4ab6b4cc6a7edbff49100e9123df213f&#45;&gt;dir_bcbb2cf9a3d3d83e5515c82071a07177</title>
<path fill="none" stroke="#000000" d="M275.599,-252.0467C256.1972,-262.478 230.5264,-275.6123 208.6516,-286.3101"/>
<polygon fill="#000000" stroke="#000000" points="207.0082,-283.2171 199.5385,-290.7307 210.0634,-289.5153 207.0082,-283.2171"/>
<g id="a_edge4&#45;headlabel"><a xlink:href="dir_000027_000013.html" target="_top" xlink:title="2">
<text text-anchor="middle" x="209.0033" y="-276.5938" font-family="Helvetica,sans-Serif" font-size="10.00" fill="#000000">2</text>
</a>
</g>
</g>
<!-- dir_4ab6b4cc6a7edbff49100e9123df213f&#45;&gt;dir_2171f7ec022c5423887b07c69b2f5b48 -->
<g id="edge5" class="edge">
<title>dir_4ab6b4cc6a7edbff49100e9123df213f&#45;&gt;dir_2171f7ec022c5423887b07c69b2f5b48</title>
<path fill="none" stroke="#000000" d="M287.1875,-215.8314C281.1565,-207.7925 274.6666,-198.1666 269.2442,-189.2918"/>
<polygon fill="#000000" stroke="#000000" points="272.118,-187.2731 264.0438,-180.4133 266.0778,-190.811 272.118,-187.2731"/>
<g id="a_edge5&#45;headlabel"><a xlink:href="dir_000027_000076.html" target="_top" xlink:title="2">
<text text-anchor="middle" x="276.3847" y="-186.4398" font-family="Helvetica,sans-Serif" font-size="10.00" fill="#000000">2</text>
</a>
</g>
</g>
<!-- dir_d14e88a79bca429480864605ee348cef&#45;&gt;dir_4ab6b4cc6a7edbff49100e9123df213f -->
<g id="edge6" class="edge">
<title>dir_d14e88a79bca429480864605ee348cef&#45;&gt;dir_4ab6b4cc6a7edbff49100e9123df213f</title>
<path fill="none" stroke="#000000" d="M165.5776,-108.1054C173.442,-127.7467 188.2008,-159.0904 209,-180 224.9206,-196.0051 246.573,-208.7323 265.2851,-217.8012"/>
<polygon fill="#000000" stroke="#000000" points="263.933,-221.0324 274.4756,-222.0826 266.889,-214.6872 263.933,-221.0324"/>
<g id="a_edge6&#45;headlabel"><a xlink:href="dir_000162_000027.html" target="_top" xlink:title="18">
<text text-anchor="middle" x="259.4756" y="-219.5883" font-family="Helvetica,sans-Serif" font-size="10.00" fill="#000000">18</text>
</a>
</g>
</g>
<!-- dir_d14e88a79bca429480864605ee348cef&#45;&gt;dir_37c90836491b695b472bf98d1be8336b -->
<g id="edge7" class="edge">
<title>dir_d14e88a79bca429480864605ee348cef&#45;&gt;dir_37c90836491b695b472bf98d1be8336b</title>
<path fill="none" stroke="#000000" d="M186.2974,-79.3762C218.3607,-66.8975 271.6903,-46.1422 307.3386,-32.2682"/>
<polygon fill="#000000" stroke="#000000" points="308.8423,-35.4388 316.892,-28.5501 306.3034,-28.9154 308.8423,-35.4388"/>
<g id="a_edge7&#45;headlabel"><a xlink:href="dir_000162_000274.html" target="_top" xlink:title="3">
<text text-anchor="middle" x="306.5222" y="-36.8884" font-family="Helvetica,sans-Serif" font-size="10.00" fill="#000000">3</text>
</a>
</g>
</g>
<!-- dir_d14e88a79bca429480864605ee348cef&#45;&gt;dir_bcbb2cf9a3d3d83e5515c82071a07177 -->
<g id="edge8" class="edge">
<title>dir_d14e88a79bca429480864605ee348cef&#45;&gt;dir_bcbb2cf9a3d3d83e5515c82071a07177</title>
<path fill="none" stroke="#000000" d="M152.5158,-108.1778C142.6676,-138.3566 126.2639,-200.5719 138,-252 140.0856,-261.1394 143.9235,-270.534 148.0219,-278.8724"/>
<polygon fill="#000000" stroke="#000000" points="144.9405,-280.5328 152.6804,-287.7678 151.1417,-277.2853 144.9405,-280.5328"/>
<g id="a_edge8&#45;headlabel"><a xlink:href="dir_000162_000013.html" target="_top" xlink:title="38">
<text text-anchor="middle" x="140.7577" y="-276.1657" font-family="Helvetica,sans-Serif" font-size="10.00" fill="#000000">38</text>
</a>
</g>
</g>
<!-- dir_d14e88a79bca429480864605ee348cef&#45;&gt;dir_2171f7ec022c5423887b07c69b2f5b48 -->
<g id="edge9" class="edge">
<title>dir_d14e88a79bca429480864605ee348cef&#45;&gt;dir_2171f7ec022c5423887b07c69b2f5b48</title>
<path fill="none" stroke="#000000" d="M186.3008,-105.7173C200.1803,-115.0164 216.8996,-126.9956 230.7605,-137.5106"/>
<polygon fill="#000000" stroke="#000000" points="228.9116,-140.5042 238.9705,-143.8314 233.1819,-134.9576 228.9116,-140.5042"/>
<g id="a_edge9&#45;headlabel"><a xlink:href="dir_000162_000076.html" target="_top" xlink:title="90">
<text text-anchor="middle" x="224.3313" y="-138.0612" font-family="Helvetica,sans-Serif" font-size="10.00" fill="#000000">90</text>
</a>
</g>
</g>
<!-- dir_37c90836491b695b472bf98d1be8336b&#45;&gt;dir_4ab6b4cc6a7edbff49100e9123df213f -->
<g id="edge20" class="edge">
<title>dir_37c90836491b695b472bf98d1be8336b&#45;&gt;dir_4ab6b4cc6a7edbff49100e9123df213f</title>
<path fill="none" stroke="#000000" d="M340.7238,-36.1451C333.9116,-73.8741 318.1791,-161.0083 310.0564,-205.9956"/>
<polygon fill="#000000" stroke="#000000" points="306.5906,-205.4927 308.258,-215.9555 313.4793,-206.7365 306.5906,-205.4927"/>
<g id="a_edge20&#45;headlabel"><a xlink:href="dir_000274_000027.html" target="_top" xlink:title="16">
<text text-anchor="middle" x="304.4352" y="-198.9508" font-family="Helvetica,sans-Serif" font-size="10.00" fill="#000000">16</text>
</a>
</g>
</g>
<!-- dir_37c90836491b695b472bf98d1be8336b&#45;&gt;dir_bcbb2cf9a3d3d83e5515c82071a07177 -->
<g id="edge21" class="edge">
<title>dir_37c90836491b695b472bf98d1be8336b&#45;&gt;dir_bcbb2cf9a3d3d83e5515c82071a07177</title>
<path fill="none" stroke="#000000" d="M316.7994,-20.5342C263.1546,-26.154 146.8409,-41.6323 123,-72 73.5717,-134.9599 104.707,-175.731 129,-252 132.0701,-261.6387 137.347,-271.2146 142.8856,-279.5663"/>
<polygon fill="#000000" stroke="#000000" points="140.05,-281.6184 148.6705,-287.7777 145.7725,-277.5869 140.05,-281.6184"/>
<g id="a_edge21&#45;headlabel"><a xlink:href="dir_000274_000013.html" target="_top" xlink:title="1">
<text text-anchor="middle" x="135.6587" y="-277.8151" font-family="Helvetica,sans-Serif" font-size="10.00" fill="#000000">1</text>
</a>
</g>
</g>
<!-- dir_37c90836491b695b472bf98d1be8336b&#45;&gt;dir_2171f7ec022c5423887b07c69b2f5b48 -->
<g id="edge22" class="edge">
<title>dir_37c90836491b695b472bf98d1be8336b&#45;&gt;dir_2171f7ec022c5423887b07c69b2f5b48</title>
<path fill="none" stroke="#000000" d="M340.9538,-36.1122C333.1001,-54.4182 316.9043,-83.4326 302,-108 296.524,-117.0263 290.3215,-126.747 284.2225,-135.4194"/>
<polygon fill="#000000" stroke="#000000" points="281.262,-133.5386 278.1886,-143.6778 286.9141,-137.6682 281.262,-133.5386"/>
<g id="a_edge22&#45;headlabel"><a xlink:href="dir_000274_000076.html" target="_top" xlink:title="10">
<text text-anchor="middle" x="281.09" y="-126.4611" font-family="Helvetica,sans-Serif" font-size="10.00" fill="#000000">10</text>
</a>
</g>
</g>
<!-- dir_8ba487e25de5ee77e05e9dce7582cb98&#45;&gt;dir_2171f7ec022c5423887b07c69b2f5b48 -->
<g id="edge23" class="edge">
<title>dir_8ba487e25de5ee77e05e9dce7582cb98&#45;&gt;dir_2171f7ec022c5423887b07c69b2f5b48</title>
<path fill="none" stroke="#000000" d="M258.7662,-108.4133C260.2407,-116.0593 261.3336,-125.1084 261.8517,-133.5726"/>
<polygon fill="#000000" stroke="#000000" points="258.3621,-133.9507 262.186,-143.8314 265.3584,-133.7226 258.3621,-133.9507"/>
<g id="a_edge23&#45;headlabel"><a xlink:href="dir_000000_000076.html" target="_top" xlink:title="8">
<text text-anchor="middle" x="255.4073" y="-127.9504" font-family="Helvetica,sans-Serif" font-size="10.00" fill="#000000">8</text>
</a>
</g>
</g>
<!-- dir_577c839d346a264df4e9e588ca2a45dd&#45;&gt;dir_4ab6b4cc6a7edbff49100e9123df213f -->
<g id="edge24" class="edge">
<title>dir_577c839d346a264df4e9e588ca2a45dd&#45;&gt;dir_4ab6b4cc6a7edbff49100e9123df213f</title>
<path fill="none" stroke="#000000" d="M398.4484,-359.7623C379.796,-334.66 346.0922,-289.3017 324.6665,-260.4671"/>
<polygon fill="#000000" stroke="#000000" points="327.2152,-258.0288 318.4416,-252.0896 321.5966,-262.2038 327.2152,-258.0288"/>
<g id="a_edge24&#45;headlabel"><a xlink:href="dir_000136_000027.html" target="_top" xlink:title="14">
<text text-anchor="middle" x="331.6381" y="-256.7207" font-family="Helvetica,sans-Serif" font-size="10.00" fill="#000000">14</text>
</a>
</g>
</g>
<!-- dir_577c839d346a264df4e9e588ca2a45dd&#45;&gt;dir_37c90836491b695b472bf98d1be8336b -->
<g id="edge25" class="edge">
<title>dir_577c839d346a264df4e9e588ca2a45dd&#45;&gt;dir_37c90836491b695b472bf98d1be8336b</title>
<path fill="none" stroke="#000000" d="M430.6071,-359.8719C454.8005,-334.2662 494,-284.9215 494,-234 494,-234 494,-234 494,-162 494,-99.1454 424.6119,-55.1778 380.2226,-33.4814"/>
<polygon fill="#000000" stroke="#000000" points="381.6996,-30.3083 371.1639,-29.1909 378.7033,-36.6346 381.6996,-30.3083"/>
<g id="a_edge25&#45;headlabel"><a xlink:href="dir_000136_000274.html" target="_top" xlink:title="4">
<text text-anchor="middle" x="386.1636" y="-26.7809" font-family="Helvetica,sans-Serif" font-size="10.00" fill="#000000">4</text>
</a>
</g>
</g>
<!-- dir_577c839d346a264df4e9e588ca2a45dd&#45;&gt;dir_bcbb2cf9a3d3d83e5515c82071a07177 -->
<g id="edge26" class="edge">
<title>dir_577c839d346a264df4e9e588ca2a45dd&#45;&gt;dir_bcbb2cf9a3d3d83e5515c82071a07177</title>
<path fill="none" stroke="#000000" d="M384.9876,-370.1577C342.8534,-357.9252 260.9995,-334.1612 209.6051,-319.2402"/>
<polygon fill="#000000" stroke="#000000" points="210.3324,-315.8069 199.7531,-316.3799 208.3807,-322.5293 210.3324,-315.8069"/>
<g id="a_edge26&#45;headlabel"><a xlink:href="dir_000136_000013.html" target="_top" xlink:title="66">
<text text-anchor="middle" x="214.5761" y="-311.5823" font-family="Helvetica,sans-Serif" font-size="10.00" fill="#000000">66</text>
</a>
</g>
</g>
<!-- dir_577c839d346a264df4e9e588ca2a45dd&#45;&gt;dir_2171f7ec022c5423887b07c69b2f5b48 -->
<g id="edge27" class="edge">
<title>dir_577c839d346a264df4e9e588ca2a45dd&#45;&gt;dir_2171f7ec022c5423887b07c69b2f5b48</title>
<path fill="none" stroke="#000000" d="M415.5308,-359.7726C420.7313,-327.2772 426.6132,-258.7458 394,-216 373.5102,-189.1442 337.6147,-175.6183 307.8451,-168.8202"/>
<polygon fill="#000000" stroke="#000000" points="308.5201,-165.3857 298.0152,-166.7631 307.0863,-172.2373 308.5201,-165.3857"/>
<g id="a_edge27&#45;headlabel"><a xlink:href="dir_000136_000076.html" target="_top" xlink:title="59">
<text text-anchor="middle" x="312.6201" y="-160.8428" font-family="Helvetica,sans-Serif" font-size="10.00" fill="#000000">59</text>
</a>
</g>
</g>
<!-- dir_18e0e8b4b629c3c13e7ad1457bcd5f89&#45;&gt;dir_4ab6b4cc6a7edbff49100e9123df213f -->
<g id="edge28" class="edge">
<title>dir_18e0e8b4b629c3c13e7ad1457bcd5f89&#45;&gt;dir_4ab6b4cc6a7edbff49100e9123df213f</title>
<path fill="none" stroke="#000000" d="M336.1597,-431.9555C330.2347,-394.3144 316.5201,-307.1867 309.427,-262.1246"/>
<polygon fill="#000000" stroke="#000000" points="312.8686,-261.4792 307.8562,-252.1451 305.9538,-262.5677 312.8686,-261.4792"/>
<g id="a_edge28&#45;headlabel"><a xlink:href="dir_000448_000027.html" target="_top" xlink:title="18">
<text text-anchor="middle" x="316.2322" y="-262.0886" font-family="Helvetica,sans-Serif" font-size="10.00" fill="#000000">18</text>
</a>
</g>
</g>
<!-- dir_18e0e8b4b629c3c13e7ad1457bcd5f89&#45;&gt;dir_37c90836491b695b472bf98d1be8336b -->
<g id="edge29" class="edge">
<title>dir_18e0e8b4b629c3c13e7ad1457bcd5f89&#45;&gt;dir_37c90836491b695b472bf98d1be8336b</title>
<path fill="none" stroke="#000000" d="M383.5612,-435.3943C405.0448,-426.6209 429.9917,-413.6803 448,-396 505.8735,-339.1807 532,-315.1035 532,-234 532,-234 532,-234 532,-162 532,-86.7202 435.823,-45.4604 381.0498,-28.0667"/>
<polygon fill="#000000" stroke="#000000" points="381.9233,-24.6739 371.3368,-25.0938 379.8746,-31.3674 381.9233,-24.6739"/>
<g id="a_edge29&#45;headlabel"><a xlink:href="dir_000448_000274.html" target="_top" xlink:title="4">
<text text-anchor="middle" x="386.1915" y="-20.5109" font-family="Helvetica,sans-Serif" font-size="10.00" fill="#000000">4</text>
</a>
</g>
</g>
<!-- dir_18e0e8b4b629c3c13e7ad1457bcd5f89&#45;&gt;dir_577c839d346a264df4e9e588ca2a45dd -->
<g id="edge30" class="edge">
<title>dir_18e0e8b4b629c3c13e7ad1457bcd5f89&#45;&gt;dir_577c839d346a264df4e9e588ca2a45dd</title>
<path fill="none" stroke="#000000" d="M357.421,-431.8314C366.1529,-423.219 376.7317,-412.7851 386.2423,-403.4048"/>
<polygon fill="#000000" stroke="#000000" points="388.923,-405.6769 393.5849,-396.1628 384.0075,-400.6931 388.923,-405.6769"/>
<g id="a_edge30&#45;headlabel"><a xlink:href="dir_000448_000136.html" target="_top" xlink:title="2">
<text text-anchor="middle" x="388.3575" y="-407.7225" font-family="Helvetica,sans-Serif" font-size="10.00" fill="#000000">2</text>
</a>
</g>
</g>
<!-- dir_18e0e8b4b629c3c13e7ad1457bcd5f89&#45;&gt;dir_2171f7ec022c5423887b07c69b2f5b48 -->
<g id="edge31" class="edge">
<title>dir_18e0e8b4b629c3c13e7ad1457bcd5f89&#45;&gt;dir_2171f7ec022c5423887b07c69b2f5b48</title>
<path fill="none" stroke="#000000" d="M345.3088,-431.8141C358.494,-390.411 384.6095,-287.2044 345,-216 336.6268,-200.9478 322.1293,-189.5542 307.3428,-181.2059"/>
<polygon fill="#000000" stroke="#000000" points="308.634,-177.9314 298.1509,-176.396 305.3884,-184.1335 308.634,-177.9314"/>
<g id="a_edge31&#45;headlabel"><a xlink:href="dir_000448_000076.html" target="_top" xlink:title="31">
<text text-anchor="middle" x="313.1352" y="-174.5823" font-family="Helvetica,sans-Serif" font-size="10.00" fill="#000000">31</text>
</a>
</g>
</g>
<!-- dir_bcbb2cf9a3d3d83e5515c82071a07177&#45;&gt;dir_4ab6b4cc6a7edbff49100e9123df213f -->
<g id="edge32" class="edge">
<title>dir_bcbb2cf9a3d3d83e5515c82071a07177&#45;&gt;dir_4ab6b4cc6a7edbff49100e9123df213f</title>
<path fill="none" stroke="#000000" d="M193.6279,-287.8314C214.4772,-276.6274 242.4845,-262.3406 265.2535,-251.3012"/>
<polygon fill="#000000" stroke="#000000" points="266.8353,-254.4243 274.334,-246.9397 263.8045,-248.1144 266.8353,-254.4243"/>
<g id="a_edge32&#45;headlabel"><a xlink:href="dir_000013_000027.html" target="_top" xlink:title="8">
<text text-anchor="middle" x="264.8243" y="-256.04" font-family="Helvetica,sans-Serif" font-size="10.00" fill="#000000">8</text>
</a>
</g>
</g>
<!-- dir_bcbb2cf9a3d3d83e5515c82071a07177&#45;&gt;dir_8ba487e25de5ee77e05e9dce7582cb98 -->
<g id="edge33" class="edge">
<title>dir_bcbb2cf9a3d3d83e5515c82071a07177&#45;&gt;dir_8ba487e25de5ee77e05e9dce7582cb98</title>
<path fill="none" stroke="#000000" d="M166.6999,-287.6656C171.7678,-256.7281 184.4742,-192.765 209,-144 213.8828,-134.2914 220.6407,-124.6244 227.3095,-116.2096"/>
<polygon fill="#000000" stroke="#000000" points="230.2077,-118.1966 233.8758,-108.257 224.8099,-113.7397 230.2077,-118.1966"/>
<g id="a_edge33&#45;headlabel"><a xlink:href="dir_000013_000000.html" target="_top" xlink:title="1">
<text text-anchor="middle" x="230.1085" y="-120.2762" font-family="Helvetica,sans-Serif" font-size="10.00" fill="#000000">1</text>
</a>
</g>
</g>
<!-- dir_bcbb2cf9a3d3d83e5515c82071a07177&#45;&gt;dir_2171f7ec022c5423887b07c69b2f5b48 -->
<g id="edge34" class="edge">
<title>dir_bcbb2cf9a3d3d83e5515c82071a07177&#45;&gt;dir_2171f7ec022c5423887b07c69b2f5b48</title>
<path fill="none" stroke="#000000" d="M171.232,-287.7623C185.1042,-262.66 214.4815,-217.3017 235.3549,-188.4671"/>
<polygon fill="#000000" stroke="#000000" points="238.4146,-190.2151 241.5332,-180.0896 232.7809,-186.0603 238.4146,-190.2151"/>
<g id="a_edge34&#45;headlabel"><a xlink:href="dir_000013_000076.html" target="_top" xlink:title="82">
<text text-anchor="middle" x="238.5661" y="-192.2932" font-family="Helvetica,sans-Serif" font-size="10.00" fill="#000000">82</text>
</a>
</g>
</g>
<!-- dir_2171f7ec022c5423887b07c69b2f5b48&#45;&gt;dir_4ab6b4cc6a7edbff49100e9123df213f -->
<g id="edge35" class="edge">
<title>dir_2171f7ec022c5423887b07c69b2f5b48&#45;&gt;dir_4ab6b4cc6a7edbff49100e9123df213f</title>
<path fill="none" stroke="#000000" d="M275.9958,-180.4133C282.0359,-188.484 288.5195,-198.1182 293.9202,-206.9775"/>
<polygon fill="#000000" stroke="#000000" points="291.0261,-208.9621 299.0923,-215.8314 297.0703,-205.4312 291.0261,-208.9621"/>
<g id="a_edge35&#45;headlabel"><a xlink:href="dir_000076_000027.html" target="_top" xlink:title="34">
<text text-anchor="middle" x="286.7613" y="-204.7904" font-family="Helvetica,sans-Serif" font-size="10.00" fill="#000000">34</text>
</a>
</g>
</g>
<!-- dir_2171f7ec022c5423887b07c69b2f5b48&#45;&gt;dir_d14e88a79bca429480864605ee348cef -->
<g id="edge36" class="edge">
<title>dir_2171f7ec022c5423887b07c69b2f5b48&#45;&gt;dir_d14e88a79bca429480864605ee348cef</title>
<path fill="none" stroke="#000000" d="M227.0657,-143.8314C213.8822,-134.8779 198.7077,-123.9558 185.9839,-114.2955"/>
<polygon fill="#000000" stroke="#000000" points="188.0802,-111.4922 178.0221,-108.1628 183.8086,-117.0379 188.0802,-111.4922"/>
<g id="a_edge36&#45;headlabel"><a xlink:href="dir_000076_000162.html" target="_top" xlink:title="1">
<text text-anchor="middle" x="192.6605" y="-108.9364" font-family="Helvetica,sans-Serif" font-size="10.00" fill="#000000">1</text>
</a>
</g>
</g>
<!-- dir_2171f7ec022c5423887b07c69b2f5b48&#45;&gt;dir_37c90836491b695b472bf98d1be8336b -->
<g id="edge37" class="edge">
<title>dir_2171f7ec022c5423887b07c69b2f5b48&#45;&gt;dir_37c90836491b695b472bf98d1be8336b</title>
<path fill="none" stroke="#000000" d="M262.3347,-143.6778C268.1059,-133.3046 276.6986,-120.0351 284,-108 296.692,-87.0794 310.3204,-62.9339 321.6502,-44.9224"/>
<polygon fill="#000000" stroke="#000000" points="324.8564,-46.4098 327.3483,-36.1122 318.9786,-42.6083 324.8564,-46.4098"/>
<g id="a_edge37&#45;headlabel"><a xlink:href="dir_000076_000274.html" target="_top" xlink:title="1">
<text text-anchor="middle" x="325.2884" y="-48.4701" font-family="Helvetica,sans-Serif" font-size="10.00" fill="#000000">1</text>
</a>
</g>
</g>
<!-- dir_2171f7ec022c5423887b07c69b2f5b48&#45;&gt;dir_8ba487e25de5ee77e05e9dce7582cb98 -->
<g id="edge38" class="edge">
<title>dir_2171f7ec022c5423887b07c69b2f5b48&#45;&gt;dir_8ba487e25de5ee77e05e9dce7582cb98</title>
<path fill="none" stroke="#000000" d="M250.2812,-143.8314C248.7821,-136.131 247.671,-126.9743 247.1476,-118.4166"/>
<polygon fill="#000000" stroke="#000000" points="250.6455,-118.2911 246.8142,-108.4133 243.6494,-118.5244 250.6455,-118.2911"/>
<g id="a_edge38&#45;headlabel"><a xlink:href="dir_000076_000000.html" target="_top" xlink:title="2">
<text text-anchor="middle" x="253.6029" y="-119.2891" font-family="Helvetica,sans-Serif" font-size="10.00" fill="#000000">2</text>
</a>
</g>
</g>
<!-- dir_2171f7ec022c5423887b07c69b2f5b48&#45;&gt;dir_bcbb2cf9a3d3d83e5515c82071a07177 -->
<g id="edge39" class="edge">
<title>dir_2171f7ec022c5423887b07c69b2f5b48&#45;&gt;dir_bcbb2cf9a3d3d83e5515c82071a07177</title>
<path fill="none" stroke="#000000" d="M250.8498,-180.0896C237.0388,-205.1119 207.6753,-250.4628 186.7686,-279.3623"/>
<polygon fill="#000000" stroke="#000000" points="183.6933,-277.6357 180.5783,-287.7623 189.3284,-281.7885 183.6933,-277.6357"/>
<g id="a_edge39&#45;headlabel"><a xlink:href="dir_000076_000013.html" target="_top" xlink:title="7">
<text text-anchor="middle" x="183.5401" y="-270.5576" font-family="Helvetica,sans-Serif" font-size="10.00" fill="#000000">7</text>
</a>
</g>
</g>
</g>
</svg>
