<?xml version="1.0" encoding="UTF-8" standalone="no"?>
<!DOCTYPE svg PUBLIC "-//W3C//DTD SVG 1.1//EN"
 "http://www.w3.org/Graphics/SVG/1.1/DTD/svg11.dtd">
<!-- Generated by graphviz version 2.40.1 (20161225.0304)
 -->
<!-- Title: /home/travis/build/AliceO2Group/AliceO2/Detectors/MUON/MID Pages: 1 -->
<!--zoomable 663 -->
<svg id="main" version="1.1" xmlns="http://www.w3.org/2000/svg" xmlns:xlink="http://www.w3.org/1999/xlink" xml:space="preserve" onload="init(evt)">
<style type="text/css"><![CDATA[
.edge:hover path { stroke: red; }
.edge:hover polygon { stroke: red; fill: red; }
]]></style>
<script type="text/javascript"><![CDATA[
var edges = document.getElementsByTagName('g');
if (edges && edges.length) {
  for (var i=0;i<edges.length;i++) {
    if (edges[i].id.substr(0,4)=='edge') {
      edges[i].setAttribute('class','edge');
    }
  }
}
]]></script>
        <defs>
                <circle id="rim" cx="0" cy="0" r="7"/>
                <circle id="rim2" cx="0" cy="0" r="3.5"/>
                <g id="zoomPlus">
                        <use xlink:href="#rim" fill="#404040">
                                <set attributeName="fill" to="#808080" begin="zoomplus.mouseover" end="zoomplus.mouseout"/>
                        </use>
                        <path d="M-4,0h8M0,-4v8" fill="none" stroke="white" stroke-width="1.5" pointer-events="none"/>
                </g>
                <g id="zoomMin">
                        <use xlink:href="#rim" fill="#404040">
                                <set attributeName="fill" to="#808080" begin="zoomminus.mouseover" end="zoomminus.mouseout"/>
                        </use>
                        <path d="M-4,0h8" fill="none" stroke="white" stroke-width="1.5" pointer-events="none"/>
                </g>
                <g id="dirArrow">
                        <path fill="none" stroke="white" stroke-width="1.5" d="M0,-3.0v7 M-2.5,-0.5L0,-3.0L2.5,-0.5"/>
                </g>
               <g id="resetDef">
                       <use xlink:href="#rim2" fill="#404040">
                               <set attributeName="fill" to="#808080" begin="reset.mouseover" end="reset.mouseout"/>
                       </use>
               </g>
        </defs>

<script type="text/javascript">
var viewWidth = 712;
var viewHeight = 663;
var sectionId = 'dynsection-0';
</script>
<script xlink:href="svgpan.js"/>
<svg id="graph" class="graph">
<g id="viewport">
<title>/home/travis/build/AliceO2Group/AliceO2/Detectors/MUON/MID</title>
<g id="clust1" class="cluster">
<title>clusterdir_1cc233fd3b1202b9dad36810b41b97af</title>
<g id="a_clust1"><a xlink:href="dir_1cc233fd3b1202b9dad36810b41b97af.html" target="_top" xlink:title="MUON">
<polygon fill="#ddddee" stroke="#000000" points="126,-272 126,-647 386,-647 386,-272 126,-272"/>
<text text-anchor="middle" x="256" y="-635" font-family="Helvetica,sans-Serif" font-size="10.00" fill="#000000">MUON</text>
</a>
</g>
</g>
<g id="clust2" class="cluster">
<title>clusterdir_9e24c537087392bd208449d0b48c466c</title>
<g id="a_clust2"><a xlink:href="dir_9e24c537087392bd208449d0b48c466c.html" target="_top">
<polygon fill="#eeeeff" stroke="#000000" points="134,-280 134,-620 378,-620 378,-280 134,-280"/>
</a>
</g>
</g>
<!-- dir_9e24c537087392bd208449d0b48c466c -->
<g id="node1" class="node">
<title>dir_9e24c537087392bd208449d0b48c466c</title>
<text text-anchor="middle" x="297" y="-591.5" font-family="Helvetica,sans-Serif" font-size="10.00" fill="#000000">MID</text>
</g>
<!-- dir_b5547b1068d53f0f904ee5a2a84992af -->
<g id="node2" class="node">
<title>dir_b5547b1068d53f0f904ee5a2a84992af</title>
<g id="a_node2"><a xlink:href="dir_b5547b1068d53f0f904ee5a2a84992af.html" target="_top" xlink:title="Base">
<polygon fill="#ffffff" stroke="#ff0000" points="290,-324 236,-324 236,-288 290,-288 290,-324"/>
<text text-anchor="middle" x="263" y="-303.5" font-family="Helvetica,sans-Serif" font-size="10.00" fill="#000000">Base</text>
</a>
</g>
</g>
<!-- dir_4ab6b4cc6a7edbff49100e9123df213f -->
<g id="node9" class="node">
<title>dir_4ab6b4cc6a7edbff49100e9123df213f</title>
<g id="a_node9"><a xlink:href="dir_4ab6b4cc6a7edbff49100e9123df213f.html" target="_top" xlink:title="Common">
<polygon fill="none" stroke="#ff0000" points="348.5,-252 287.5,-252 287.5,-216 348.5,-216 348.5,-252"/>
<text text-anchor="middle" x="318" y="-231.5" font-family="Helvetica,sans-Serif" font-size="10.00" fill="#000000">Common</text>
</a>
</g>
</g>
<!-- dir_b5547b1068d53f0f904ee5a2a84992af&#45;&gt;dir_4ab6b4cc6a7edbff49100e9123df213f -->
<g id="edge33" class="edge">
<title>dir_b5547b1068d53f0f904ee5a2a84992af&#45;&gt;dir_4ab6b4cc6a7edbff49100e9123df213f</title>
<path fill="none" stroke="#000000" d="M276.8788,-287.8314C283.2136,-279.5386 290.8384,-269.557 297.7926,-260.4533"/>
<polygon fill="#000000" stroke="#000000" points="300.6452,-262.4847 303.9343,-252.4133 295.0825,-258.2353 300.6452,-262.4847"/>
<g id="a_edge33&#45;headlabel"><a xlink:href="dir_000544_000027.html" target="_top" xlink:title="1">
<text text-anchor="middle" x="300.7195" y="-264.5647" font-family="Helvetica,sans-Serif" font-size="10.00" fill="#000000">1</text>
</a>
</g>
</g>
<!-- dir_754f2fe7806627988f6bd801b7f2fe5b -->
<g id="node3" class="node">
<title>dir_754f2fe7806627988f6bd801b7f2fe5b</title>
<g id="a_node3"><a xlink:href="dir_754f2fe7806627988f6bd801b7f2fe5b.html" target="_top" xlink:title="Clustering">
<polygon fill="#ffffff" stroke="#ff0000" points="370,-468 304,-468 304,-432 370,-432 370,-468"/>
<text text-anchor="middle" x="337" y="-447.5" font-family="Helvetica,sans-Serif" font-size="10.00" fill="#000000">Clustering</text>
</a>
</g>
</g>
<!-- dir_754f2fe7806627988f6bd801b7f2fe5b&#45;&gt;dir_b5547b1068d53f0f904ee5a2a84992af -->
<g id="edge3" class="edge">
<title>dir_754f2fe7806627988f6bd801b7f2fe5b&#45;&gt;dir_b5547b1068d53f0f904ee5a2a84992af</title>
<path fill="none" stroke="#000000" d="M348.8413,-431.9576C359.698,-412.9307 372.2364,-382.6322 359,-360 346.275,-338.2421 321.203,-324.574 299.8724,-316.4333"/>
<polygon fill="#000000" stroke="#000000" points="300.9876,-313.1153 290.3929,-313.0727 298.6486,-319.7129 300.9876,-313.1153"/>
<g id="a_edge3&#45;headlabel"><a xlink:href="dir_000415_000544.html" target="_top" xlink:title="8">
<text text-anchor="middle" x="305.3243" y="-309.1402" font-family="Helvetica,sans-Serif" font-size="10.00" fill="#000000">8</text>
</a>
</g>
</g>
<!-- dir_2171f7ec022c5423887b07c69b2f5b48 -->
<g id="node13" class="node">
<title>dir_2171f7ec022c5423887b07c69b2f5b48</title>
<g id="a_node13"><a xlink:href="dir_2171f7ec022c5423887b07c69b2f5b48.html" target="_top" xlink:title="DataFormats">
<polygon fill="none" stroke="#ff0000" points="478,-108 398,-108 398,-72 478,-72 478,-108"/>
<text text-anchor="middle" x="438" y="-87.5" font-family="Helvetica,sans-Serif" font-size="10.00" fill="#000000">DataFormats</text>
</a>
</g>
</g>
<!-- dir_754f2fe7806627988f6bd801b7f2fe5b&#45;&gt;dir_2171f7ec022c5423887b07c69b2f5b48 -->
<g id="edge4" class="edge">
<title>dir_754f2fe7806627988f6bd801b7f2fe5b&#45;&gt;dir_2171f7ec022c5423887b07c69b2f5b48</title>
<path fill="none" stroke="#000000" d="M370.1571,-446.3665C426.6885,-439.5115 538.3119,-422.8959 566,-396 595.6944,-367.1552 590,-347.3978 590,-306 590,-306 590,-306 590,-234 590,-192.6022 593.1751,-175.2296 566,-144 546.0646,-121.0903 514.7742,-107.6533 488.1215,-99.9131"/>
<polygon fill="#000000" stroke="#000000" points="488.7342,-96.453 478.167,-97.2176 486.9046,-103.2097 488.7342,-96.453"/>
<g id="a_edge4&#45;headlabel"><a xlink:href="dir_000415_000076.html" target="_top" xlink:title="5">
<text text-anchor="middle" x="492.9459" y="-92.1519" font-family="Helvetica,sans-Serif" font-size="10.00" fill="#000000">5</text>
</a>
</g>
</g>
<!-- dir_55bb03bc4479a61c5f6db133927cb48c -->
<g id="node4" class="node">
<title>dir_55bb03bc4479a61c5f6db133927cb48c</title>
<g id="a_node4"><a xlink:href="dir_55bb03bc4479a61c5f6db133927cb48c.html" target="_top" xlink:title="Raw">
<polygon fill="#ffffff" stroke="#ff0000" points="236,-396 182,-396 182,-360 236,-360 236,-396"/>
<text text-anchor="middle" x="209" y="-375.5" font-family="Helvetica,sans-Serif" font-size="10.00" fill="#000000">Raw</text>
</a>
</g>
</g>
<!-- dir_55bb03bc4479a61c5f6db133927cb48c&#45;&gt;dir_b5547b1068d53f0f904ee5a2a84992af -->
<g id="edge16" class="edge">
<title>dir_55bb03bc4479a61c5f6db133927cb48c&#45;&gt;dir_b5547b1068d53f0f904ee5a2a84992af</title>
<path fill="none" stroke="#000000" d="M222.6265,-359.8314C228.846,-351.5386 236.3322,-341.557 243.16,-332.4533"/>
<polygon fill="#000000" stroke="#000000" points="245.99,-334.5133 249.19,-324.4133 240.39,-330.3133 245.99,-334.5133"/>
<g id="a_edge16&#45;headlabel"><a xlink:href="dir_000420_000544.html" target="_top" xlink:title="9">
<text text-anchor="middle" x="246.1047" y="-336.5925" font-family="Helvetica,sans-Serif" font-size="10.00" fill="#000000">9</text>
</a>
</g>
</g>
<!-- dir_bcbb2cf9a3d3d83e5515c82071a07177 -->
<g id="node11" class="node">
<title>dir_bcbb2cf9a3d3d83e5515c82071a07177</title>
<g id="a_node11"><a xlink:href="dir_bcbb2cf9a3d3d83e5515c82071a07177.html" target="_top" xlink:title="Framework">
<polygon fill="none" stroke="#ff0000" points="353.5,-180 282.5,-180 282.5,-144 353.5,-144 353.5,-180"/>
<text text-anchor="middle" x="318" y="-159.5" font-family="Helvetica,sans-Serif" font-size="10.00" fill="#000000">Framework</text>
</a>
</g>
</g>
<!-- dir_55bb03bc4479a61c5f6db133927cb48c&#45;&gt;dir_bcbb2cf9a3d3d83e5515c82071a07177 -->
<g id="edge17" class="edge">
<title>dir_55bb03bc4479a61c5f6db133927cb48c&#45;&gt;dir_bcbb2cf9a3d3d83e5515c82071a07177</title>
<path fill="none" stroke="#000000" d="M209.2538,-359.9166C210.1808,-338.1261 213.7809,-300.8481 227,-272 242.0809,-239.089 269.5764,-207.9244 290.4108,-187.227"/>
<polygon fill="#000000" stroke="#000000" points="293.0199,-189.5718 297.7499,-180.0913 288.1402,-184.5529 293.0199,-189.5718"/>
<g id="a_edge17&#45;headlabel"><a xlink:href="dir_000420_000013.html" target="_top" xlink:title="5">
<text text-anchor="middle" x="292.4219" y="-191.6132" font-family="Helvetica,sans-Serif" font-size="10.00" fill="#000000">5</text>
</a>
</g>
</g>
<!-- dir_26637d1bd82229bc9ed97f7e706be743 -->
<g id="node12" class="node">
<title>dir_26637d1bd82229bc9ed97f7e706be743</title>
<g id="a_node12"><a xlink:href="dir_26637d1bd82229bc9ed97f7e706be743.html" target="_top" xlink:title="Raw">
<polygon fill="none" stroke="#ff0000" points="448,-324 394,-324 394,-288 448,-288 448,-324"/>
<text text-anchor="middle" x="421" y="-303.5" font-family="Helvetica,sans-Serif" font-size="10.00" fill="#000000">Raw</text>
</a>
</g>
</g>
<!-- dir_55bb03bc4479a61c5f6db133927cb48c&#45;&gt;dir_26637d1bd82229bc9ed97f7e706be743 -->
<g id="edge18" class="edge">
<title>dir_55bb03bc4479a61c5f6db133927cb48c&#45;&gt;dir_26637d1bd82229bc9ed97f7e706be743</title>
<path fill="none" stroke="#000000" d="M236.22,-364.0265C239.4763,-362.5736 242.7859,-361.1943 246,-360 304.6107,-338.2211 323.1706,-345.1808 382,-324 382.8595,-323.6905 383.726,-323.3695 384.597,-323.0387"/>
<polygon fill="#000000" stroke="#000000" points="386.0457,-326.2276 393.9766,-319.2026 383.3958,-319.7485 386.0457,-326.2276"/>
<g id="a_edge18&#45;headlabel"><a xlink:href="dir_000420_000556.html" target="_top" xlink:title="6">
<text text-anchor="middle" x="383.7934" y="-327.7163" font-family="Helvetica,sans-Serif" font-size="10.00" fill="#000000">6</text>
</a>
</g>
</g>
<!-- dir_55bb03bc4479a61c5f6db133927cb48c&#45;&gt;dir_2171f7ec022c5423887b07c69b2f5b48 -->
<g id="edge19" class="edge">
<title>dir_55bb03bc4479a61c5f6db133927cb48c&#45;&gt;dir_2171f7ec022c5423887b07c69b2f5b48</title>
<path fill="none" stroke="#000000" d="M236.1203,-363.7384C239.3944,-362.3372 242.7355,-361.0489 246,-360 336.5726,-330.8988 395.648,-396.7063 457,-324 506.7977,-264.9864 472.4863,-165.1672 451.2811,-117.2559"/>
<polygon fill="#000000" stroke="#000000" points="454.4502,-115.7698 447.1168,-108.1231 448.081,-118.6739 454.4502,-115.7698"/>
<g id="a_edge19&#45;headlabel"><a xlink:href="dir_000420_000076.html" target="_top" xlink:title="22">
<text text-anchor="middle" x="458.5248" y="-115.3625" font-family="Helvetica,sans-Serif" font-size="10.00" fill="#000000">22</text>
</a>
</g>
</g>
<!-- dir_2810eaf0225063d73e08d8eeeb8a37b8 -->
<g id="node5" class="node">
<title>dir_2810eaf0225063d73e08d8eeeb8a37b8</title>
<g id="a_node5"><a xlink:href="dir_2810eaf0225063d73e08d8eeeb8a37b8.html" target="_top" xlink:title="Simulation">
<polygon fill="#ffffff" stroke="#ff0000" points="282.5,-540 213.5,-540 213.5,-504 282.5,-504 282.5,-540"/>
<text text-anchor="middle" x="248" y="-519.5" font-family="Helvetica,sans-Serif" font-size="10.00" fill="#000000">Simulation</text>
</a>
</g>
</g>
<!-- dir_2810eaf0225063d73e08d8eeeb8a37b8&#45;&gt;dir_b5547b1068d53f0f904ee5a2a84992af -->
<g id="edge25" class="edge">
<title>dir_2810eaf0225063d73e08d8eeeb8a37b8&#45;&gt;dir_b5547b1068d53f0f904ee5a2a84992af</title>
<path fill="none" stroke="#000000" d="M225.8976,-503.9114C191.6363,-473.6011 132.6554,-410.8722 163,-360 176.6471,-337.1208 203.7159,-323.3542 226.2524,-315.4522"/>
<polygon fill="#000000" stroke="#000000" points="227.4713,-318.7364 235.9014,-312.3189 225.3093,-312.0786 227.4713,-318.7364"/>
<g id="a_edge25&#45;headlabel"><a xlink:href="dir_000179_000544.html" target="_top" xlink:title="10">
<text text-anchor="middle" x="224.9293" y="-320.047" font-family="Helvetica,sans-Serif" font-size="10.00" fill="#000000">10</text>
</a>
</g>
</g>
<!-- dir_2810eaf0225063d73e08d8eeeb8a37b8&#45;&gt;dir_754f2fe7806627988f6bd801b7f2fe5b -->
<g id="edge21" class="edge">
<title>dir_2810eaf0225063d73e08d8eeeb8a37b8&#45;&gt;dir_754f2fe7806627988f6bd801b7f2fe5b</title>
<path fill="none" stroke="#000000" d="M270.4585,-503.8314C281.4205,-494.9632 294.7699,-484.1637 306.6265,-474.5718"/>
<polygon fill="#000000" stroke="#000000" points="308.9755,-477.1734 314.5487,-468.1628 304.5729,-471.7313 308.9755,-477.1734"/>
<g id="a_edge21&#45;headlabel"><a xlink:href="dir_000179_000415.html" target="_top" xlink:title="5">
<text text-anchor="middle" x="307.9667" y="-479.1416" font-family="Helvetica,sans-Serif" font-size="10.00" fill="#000000">5</text>
</a>
</g>
</g>
<!-- dir_3ffb816f6d71c6665c34f0fe3ab9978a -->
<g id="node6" class="node">
<title>dir_3ffb816f6d71c6665c34f0fe3ab9978a</title>
<g id="a_node6"><a xlink:href="dir_3ffb816f6d71c6665c34f0fe3ab9978a.html" target="_top" xlink:title="TestingSimTools">
<polygon fill="#ffffff" stroke="#ff0000" points="349.5,-396 254.5,-396 254.5,-360 349.5,-360 349.5,-396"/>
<text text-anchor="middle" x="302" y="-375.5" font-family="Helvetica,sans-Serif" font-size="10.00" fill="#000000">TestingSimTools</text>
</a>
</g>
</g>
<!-- dir_2810eaf0225063d73e08d8eeeb8a37b8&#45;&gt;dir_3ffb816f6d71c6665c34f0fe3ab9978a -->
<g id="edge24" class="edge">
<title>dir_2810eaf0225063d73e08d8eeeb8a37b8&#45;&gt;dir_3ffb816f6d71c6665c34f0fe3ab9978a</title>
<path fill="none" stroke="#000000" d="M258.0499,-503.8647C263.5146,-493.5499 270.1314,-480.2766 275,-468 283.0433,-447.7181 290.0521,-424.0623 294.9118,-406.0943"/>
<polygon fill="#000000" stroke="#000000" points="298.3445,-406.8032 297.5163,-396.2408 291.5769,-405.0143 298.3445,-406.8032"/>
<g id="a_edge24&#45;headlabel"><a xlink:href="dir_000179_000561.html" target="_top" xlink:title="2">
<text text-anchor="middle" x="300.171" y="-408.504" font-family="Helvetica,sans-Serif" font-size="10.00" fill="#000000">2</text>
</a>
</g>
</g>
<!-- dir_c6781640d5720511e35c6e7f87460ee7 -->
<g id="node7" class="node">
<title>dir_c6781640d5720511e35c6e7f87460ee7</title>
<g id="a_node7"><a xlink:href="dir_c6781640d5720511e35c6e7f87460ee7.html" target="_top" xlink:title="Tracking">
<polygon fill="#ffffff" stroke="#ff0000" points="265.5,-468 208.5,-468 208.5,-432 265.5,-432 265.5,-468"/>
<text text-anchor="middle" x="237" y="-447.5" font-family="Helvetica,sans-Serif" font-size="10.00" fill="#000000">Tracking</text>
</a>
</g>
</g>
<!-- dir_2810eaf0225063d73e08d8eeeb8a37b8&#45;&gt;dir_c6781640d5720511e35c6e7f87460ee7 -->
<g id="edge23" class="edge">
<title>dir_2810eaf0225063d73e08d8eeeb8a37b8&#45;&gt;dir_c6781640d5720511e35c6e7f87460ee7</title>
<path fill="none" stroke="#000000" d="M245.2242,-503.8314C244.0478,-496.131 242.6489,-486.9743 241.3414,-478.4166"/>
<polygon fill="#000000" stroke="#000000" points="244.7833,-477.7699 239.8131,-468.4133 237.8636,-478.8272 244.7833,-477.7699"/>
<g id="a_edge23&#45;headlabel"><a xlink:href="dir_000179_000495.html" target="_top" xlink:title="1">
<text text-anchor="middle" x="248.1328" y="-478.3946" font-family="Helvetica,sans-Serif" font-size="10.00" fill="#000000">1</text>
</a>
</g>
</g>
<!-- dir_2810eaf0225063d73e08d8eeeb8a37b8&#45;&gt;dir_4ab6b4cc6a7edbff49100e9123df213f -->
<g id="edge20" class="edge">
<title>dir_2810eaf0225063d73e08d8eeeb8a37b8&#45;&gt;dir_4ab6b4cc6a7edbff49100e9123df213f</title>
<path fill="none" stroke="#000000" d="M213.465,-509.0367C194.9465,-500.279 173.4379,-486.8419 161,-468 134.4195,-427.7336 133.0298,-405.1654 150,-360 168.2791,-311.3511 184.8172,-302.3554 227,-272 242.2179,-261.049 261.0678,-252.5136 277.6579,-246.331"/>
<polygon fill="#000000" stroke="#000000" points="278.8734,-249.6135 287.1202,-242.9621 276.5255,-243.019 278.8734,-249.6135"/>
<g id="a_edge20&#45;headlabel"><a xlink:href="dir_000179_000027.html" target="_top" xlink:title="6">
<text text-anchor="middle" x="276.4393" y="-250.9939" font-family="Helvetica,sans-Serif" font-size="10.00" fill="#000000">6</text>
</a>
</g>
</g>
<!-- dir_37c90836491b695b472bf98d1be8336b -->
<g id="node10" class="node">
<title>dir_37c90836491b695b472bf98d1be8336b</title>
<g id="a_node10"><a xlink:href="dir_37c90836491b695b472bf98d1be8336b.html" target="_top" xlink:title="Base">
<polygon fill="none" stroke="#ff0000" points="431,-36 377,-36 377,0 431,0 431,-36"/>
<text text-anchor="middle" x="404" y="-15.5" font-family="Helvetica,sans-Serif" font-size="10.00" fill="#000000">Base</text>
</a>
</g>
</g>
<!-- dir_2810eaf0225063d73e08d8eeeb8a37b8&#45;&gt;dir_37c90836491b695b472bf98d1be8336b -->
<g id="edge22" class="edge">
<title>dir_2810eaf0225063d73e08d8eeeb8a37b8&#45;&gt;dir_37c90836491b695b472bf98d1be8336b</title>
<path fill="none" stroke="#000000" d="M282.5445,-518.0438C351.4465,-509.7966 503.4259,-489.7196 551,-468 664.0349,-416.3947 704,-358.2578 704,-234 704,-234 704,-234 704,-162 704,-104.2423 520.9893,-48.8625 440.8481,-27.3804"/>
<polygon fill="#000000" stroke="#000000" points="441.7149,-23.9893 431.1521,-24.8125 439.9228,-30.7561 441.7149,-23.9893"/>
<g id="a_edge22&#45;headlabel"><a xlink:href="dir_000179_000274.html" target="_top" xlink:title="3">
<text text-anchor="middle" x="445.9166" y="-19.6649" font-family="Helvetica,sans-Serif" font-size="10.00" fill="#000000">3</text>
</a>
</g>
</g>
<!-- dir_2810eaf0225063d73e08d8eeeb8a37b8&#45;&gt;dir_2171f7ec022c5423887b07c69b2f5b48 -->
<g id="edge26" class="edge">
<title>dir_2810eaf0225063d73e08d8eeeb8a37b8&#45;&gt;dir_2171f7ec022c5423887b07c69b2f5b48</title>
<path fill="none" stroke="#000000" d="M282.7298,-516.5065C376.5372,-500.6953 628,-451.4604 628,-378 628,-378 628,-378 628,-234 628,-190.5807 621.5818,-173.7964 590,-144 562.2455,-117.8145 520.9764,-104.2058 488.4412,-97.204"/>
<polygon fill="#000000" stroke="#000000" points="488.7055,-93.6875 478.2129,-95.1553 487.3307,-100.5512 488.7055,-93.6875"/>
<g id="a_edge26&#45;headlabel"><a xlink:href="dir_000179_000076.html" target="_top" xlink:title="25">
<text text-anchor="middle" x="492.7877" y="-89.1095" font-family="Helvetica,sans-Serif" font-size="10.00" fill="#000000">25</text>
</a>
</g>
</g>
<!-- dir_3ffb816f6d71c6665c34f0fe3ab9978a&#45;&gt;dir_b5547b1068d53f0f904ee5a2a84992af -->
<g id="edge31" class="edge">
<title>dir_3ffb816f6d71c6665c34f0fe3ab9978a&#45;&gt;dir_b5547b1068d53f0f904ee5a2a84992af</title>
<path fill="none" stroke="#000000" d="M292.1587,-359.8314C287.8043,-351.7925 282.5902,-342.1666 277.7831,-333.2918"/>
<polygon fill="#000000" stroke="#000000" points="280.8143,-331.5392 272.9739,-324.4133 274.6592,-334.8732 280.8143,-331.5392"/>
<g id="a_edge31&#45;headlabel"><a xlink:href="dir_000561_000544.html" target="_top" xlink:title="3">
<text text-anchor="middle" x="285.0228" y="-330.8476" font-family="Helvetica,sans-Serif" font-size="10.00" fill="#000000">3</text>
</a>
</g>
</g>
<!-- dir_3ffb816f6d71c6665c34f0fe3ab9978a&#45;&gt;dir_4ab6b4cc6a7edbff49100e9123df213f -->
<g id="edge30" class="edge">
<title>dir_3ffb816f6d71c6665c34f0fe3ab9978a&#45;&gt;dir_4ab6b4cc6a7edbff49100e9123df213f</title>
<path fill="none" stroke="#000000" d="M304.0264,-359.7623C306.7554,-335.201 311.6392,-291.2474 314.8495,-262.3541"/>
<polygon fill="#000000" stroke="#000000" points="318.3642,-262.415 315.99,-252.0896 311.407,-261.6419 318.3642,-262.415"/>
<g id="a_edge30&#45;headlabel"><a xlink:href="dir_000561_000027.html" target="_top" xlink:title="1">
<text text-anchor="middle" x="320.7893" y="-263.8011" font-family="Helvetica,sans-Serif" font-size="10.00" fill="#000000">1</text>
</a>
</g>
</g>
<!-- dir_3ffb816f6d71c6665c34f0fe3ab9978a&#45;&gt;dir_2171f7ec022c5423887b07c69b2f5b48 -->
<g id="edge32" class="edge">
<title>dir_3ffb816f6d71c6665c34f0fe3ab9978a&#45;&gt;dir_2171f7ec022c5423887b07c69b2f5b48</title>
<path fill="none" stroke="#000000" d="M349.5347,-370.9412C399.4735,-362.4389 473.0936,-346.4461 490,-324 538.1308,-260.0983 519.9161,-218.1959 490,-144 485.6775,-133.2796 478.0956,-123.4983 470.0361,-115.2948"/>
<polygon fill="#000000" stroke="#000000" points="472.2442,-112.5652 462.5801,-108.2228 467.427,-117.644 472.2442,-112.5652"/>
<g id="a_edge32&#45;headlabel"><a xlink:href="dir_000561_000076.html" target="_top" xlink:title="3">
<text text-anchor="middle" x="476.8061" y="-110.4788" font-family="Helvetica,sans-Serif" font-size="10.00" fill="#000000">3</text>
</a>
</g>
</g>
<!-- dir_c6781640d5720511e35c6e7f87460ee7&#45;&gt;dir_b5547b1068d53f0f904ee5a2a84992af -->
<g id="edge28" class="edge">
<title>dir_c6781640d5720511e35c6e7f87460ee7&#45;&gt;dir_b5547b1068d53f0f904ee5a2a84992af</title>
<path fill="none" stroke="#000000" d="M208.228,-433.8673C194.8731,-424.6749 180.3512,-411.8209 173,-396 166.2579,-381.4899 165.1168,-373.9232 173,-360 184.4958,-339.6962 207.0081,-326.1937 226.6403,-317.7685"/>
<polygon fill="#000000" stroke="#000000" points="227.9992,-320.9946 235.9856,-314.0327 225.4009,-314.4947 227.9992,-320.9946"/>
<g id="a_edge28&#45;headlabel"><a xlink:href="dir_000495_000544.html" target="_top" xlink:title="6">
<text text-anchor="middle" x="225.7153" y="-322.4652" font-family="Helvetica,sans-Serif" font-size="10.00" fill="#000000">6</text>
</a>
</g>
</g>
<!-- dir_c6781640d5720511e35c6e7f87460ee7&#45;&gt;dir_3ffb816f6d71c6665c34f0fe3ab9978a -->
<g id="edge27" class="edge">
<title>dir_c6781640d5720511e35c6e7f87460ee7&#45;&gt;dir_3ffb816f6d71c6665c34f0fe3ab9978a</title>
<path fill="none" stroke="#000000" d="M253.4022,-431.8314C261.0415,-423.3694 270.2683,-413.1489 278.6207,-403.8971"/>
<polygon fill="#000000" stroke="#000000" points="281.2738,-406.1813 285.3769,-396.4133 276.0779,-401.4906 281.2738,-406.1813"/>
<g id="a_edge27&#45;headlabel"><a xlink:href="dir_000495_000561.html" target="_top" xlink:title="4">
<text text-anchor="middle" x="280.9726" y="-408.2521" font-family="Helvetica,sans-Serif" font-size="10.00" fill="#000000">4</text>
</a>
</g>
</g>
<!-- dir_c6781640d5720511e35c6e7f87460ee7&#45;&gt;dir_2171f7ec022c5423887b07c69b2f5b48 -->
<g id="edge29" class="edge">
<title>dir_c6781640d5720511e35c6e7f87460ee7&#45;&gt;dir_2171f7ec022c5423887b07c69b2f5b48</title>
<path fill="none" stroke="#000000" d="M265.5097,-440.2042C343.0498,-413.1514 552,-337.3432 552,-306 552,-306 552,-306 552,-234 552,-189.8588 537.8229,-178.2685 510,-144 500.8069,-132.6771 488.7453,-122.4321 477.1295,-113.9843"/>
<polygon fill="#000000" stroke="#000000" points="478.999,-111.0208 468.7974,-108.1609 474.9889,-116.7584 478.999,-111.0208"/>
<g id="a_edge29&#45;headlabel"><a xlink:href="dir_000495_000076.html" target="_top" xlink:title="8">
<text text-anchor="middle" x="483.5718" y="-108.2528" font-family="Helvetica,sans-Serif" font-size="10.00" fill="#000000">8</text>
</a>
</g>
</g>
<!-- dir_541a9f579a56d3c8f641580c9f97913d -->
<g id="node8" class="node">
<title>dir_541a9f579a56d3c8f641580c9f97913d</title>
<g id="a_node8"><a xlink:href="dir_541a9f579a56d3c8f641580c9f97913d.html" target="_top" xlink:title="Workflow">
<polygon fill="#ffffff" stroke="#ff0000" points="206,-612 144,-612 144,-576 206,-576 206,-612"/>
<text text-anchor="middle" x="175" y="-591.5" font-family="Helvetica,sans-Serif" font-size="10.00" fill="#000000">Workflow</text>
</a>
</g>
</g>
<!-- dir_541a9f579a56d3c8f641580c9f97913d&#45;&gt;dir_754f2fe7806627988f6bd801b7f2fe5b -->
<g id="edge9" class="edge">
<title>dir_541a9f579a56d3c8f641580c9f97913d&#45;&gt;dir_754f2fe7806627988f6bd801b7f2fe5b</title>
<path fill="none" stroke="#000000" d="M206.1727,-585.905C231.8764,-577.8804 267.9036,-563.3551 292,-540 309.7322,-522.8132 321.6024,-497.1653 328.6777,-477.6408"/>
<polygon fill="#000000" stroke="#000000" points="332.0278,-478.6607 331.9462,-468.0662 325.4031,-476.3992 332.0278,-478.6607"/>
<g id="a_edge9&#45;headlabel"><a xlink:href="dir_000377_000415.html" target="_top" xlink:title="5">
<text text-anchor="middle" x="333.5536" y="-480.4798" font-family="Helvetica,sans-Serif" font-size="10.00" fill="#000000">5</text>
</a>
</g>
</g>
<!-- dir_541a9f579a56d3c8f641580c9f97913d&#45;&gt;dir_55bb03bc4479a61c5f6db133927cb48c -->
<g id="edge11" class="edge">
<title>dir_541a9f579a56d3c8f641580c9f97913d&#45;&gt;dir_55bb03bc4479a61c5f6db133927cb48c</title>
<path fill="none" stroke="#000000" d="M177.2208,-575.6976C179.4817,-557.4907 183.1875,-528.7719 187,-504 192.1723,-470.3928 199.0281,-431.9097 203.703,-406.4075"/>
<polygon fill="#000000" stroke="#000000" points="207.1907,-406.7936 205.5617,-396.3248 200.3067,-405.5245 207.1907,-406.7936"/>
<g id="a_edge11&#45;headlabel"><a xlink:href="dir_000377_000420.html" target="_top" xlink:title="8">
<text text-anchor="middle" x="209.3313" y="-408.3434" font-family="Helvetica,sans-Serif" font-size="10.00" fill="#000000">8</text>
</a>
</g>
</g>
<!-- dir_541a9f579a56d3c8f641580c9f97913d&#45;&gt;dir_2810eaf0225063d73e08d8eeeb8a37b8 -->
<g id="edge12" class="edge">
<title>dir_541a9f579a56d3c8f641580c9f97913d&#45;&gt;dir_2810eaf0225063d73e08d8eeeb8a37b8</title>
<path fill="none" stroke="#000000" d="M193.421,-575.8314C202.1529,-567.219 212.7317,-556.7851 222.2423,-547.4048"/>
<polygon fill="#000000" stroke="#000000" points="224.923,-549.6769 229.5849,-540.1628 220.0075,-544.6931 224.923,-549.6769"/>
<g id="a_edge12&#45;headlabel"><a xlink:href="dir_000377_000179.html" target="_top" xlink:title="9">
<text text-anchor="middle" x="224.3575" y="-551.7225" font-family="Helvetica,sans-Serif" font-size="10.00" fill="#000000">9</text>
</a>
</g>
</g>
<!-- dir_541a9f579a56d3c8f641580c9f97913d&#45;&gt;dir_c6781640d5720511e35c6e7f87460ee7 -->
<g id="edge13" class="edge">
<title>dir_541a9f579a56d3c8f641580c9f97913d&#45;&gt;dir_c6781640d5720511e35c6e7f87460ee7</title>
<path fill="none" stroke="#000000" d="M179.7773,-575.982C184.9595,-557.4996 193.9855,-528.1212 205,-504 209.122,-494.9731 214.3605,-485.5354 219.3996,-477.1214"/>
<polygon fill="#000000" stroke="#000000" points="222.4686,-478.8124 224.7271,-468.461 216.5064,-475.1446 222.4686,-478.8124"/>
<g id="a_edge13&#45;headlabel"><a xlink:href="dir_000377_000495.html" target="_top" xlink:title="2">
<text text-anchor="middle" x="223.0036" y="-480.8617" font-family="Helvetica,sans-Serif" font-size="10.00" fill="#000000">2</text>
</a>
</g>
</g>
<!-- dir_541a9f579a56d3c8f641580c9f97913d&#45;&gt;dir_4ab6b4cc6a7edbff49100e9123df213f -->
<g id="edge8" class="edge">
<title>dir_541a9f579a56d3c8f641580c9f97913d&#45;&gt;dir_4ab6b4cc6a7edbff49100e9123df213f</title>
<path fill="none" stroke="#000000" d="M151.5384,-575.8196C122.2627,-550.8885 76,-503.092 76,-450 76,-450 76,-450 76,-378 76,-285.4607 208.2999,-251.0423 277.2579,-239.3877"/>
<polygon fill="#000000" stroke="#000000" points="278.0315,-242.8084 287.3505,-237.768 276.9223,-235.8969 278.0315,-242.8084"/>
<g id="a_edge8&#45;headlabel"><a xlink:href="dir_000377_000027.html" target="_top" xlink:title="3">
<text text-anchor="middle" x="274.9321" y="-243.6813" font-family="Helvetica,sans-Serif" font-size="10.00" fill="#000000">3</text>
</a>
</g>
</g>
<!-- dir_541a9f579a56d3c8f641580c9f97913d&#45;&gt;dir_37c90836491b695b472bf98d1be8336b -->
<g id="edge10" class="edge">
<title>dir_541a9f579a56d3c8f641580c9f97913d&#45;&gt;dir_37c90836491b695b472bf98d1be8336b</title>
<path fill="none" stroke="#000000" d="M143.9722,-586.0988C117.371,-578.0632 79.2907,-563.4167 53,-540 18.3358,-509.1251 0,-496.4205 0,-450 0,-450 0,-450 0,-162 0,-84.5104 267.0476,-37.8374 366.9103,-23.093"/>
<polygon fill="#000000" stroke="#000000" points="367.4718,-26.5483 376.8651,-21.6477 366.4659,-19.6209 367.4718,-26.5483"/>
<g id="a_edge10&#45;headlabel"><a xlink:href="dir_000377_000274.html" target="_top" xlink:title="2">
<text text-anchor="middle" x="364.3224" y="-27.3745" font-family="Helvetica,sans-Serif" font-size="10.00" fill="#000000">2</text>
</a>
</g>
</g>
<!-- dir_541a9f579a56d3c8f641580c9f97913d&#45;&gt;dir_bcbb2cf9a3d3d83e5515c82071a07177 -->
<g id="edge14" class="edge">
<title>dir_541a9f579a56d3c8f641580c9f97913d&#45;&gt;dir_bcbb2cf9a3d3d83e5515c82071a07177</title>
<path fill="none" stroke="#000000" d="M143.9126,-578.7732C103.4918,-556.534 38,-511.0769 38,-450 38,-450 38,-450 38,-306 38,-202.0256 192.5769,-173.0621 272.0271,-165.0422"/>
<polygon fill="#000000" stroke="#000000" points="272.6237,-168.5017 282.2534,-164.0838 271.9704,-161.5323 272.6237,-168.5017"/>
<g id="a_edge14&#45;headlabel"><a xlink:href="dir_000377_000013.html" target="_top" xlink:title="69">
<text text-anchor="middle" x="269.3097" y="-169.164" font-family="Helvetica,sans-Serif" font-size="10.00" fill="#000000">69</text>
</a>
</g>
</g>
<!-- dir_541a9f579a56d3c8f641580c9f97913d&#45;&gt;dir_2171f7ec022c5423887b07c69b2f5b48 -->
<g id="edge15" class="edge">
<title>dir_541a9f579a56d3c8f641580c9f97913d&#45;&gt;dir_2171f7ec022c5423887b07c69b2f5b48</title>
<path fill="none" stroke="#000000" d="M206.0028,-587.5689C272.3242,-572.9829 431.64,-533.4815 551,-468 595.607,-443.5284 617.4497,-441.6084 640,-396 689.8291,-295.2197 698.6922,-222.284 618,-144 599.4018,-125.9569 534.5827,-109.5146 488.0621,-99.6332"/>
<polygon fill="#000000" stroke="#000000" points="488.6465,-96.1798 478.1427,-97.566 487.2183,-103.0326 488.6465,-96.1798"/>
<g id="a_edge15&#45;headlabel"><a xlink:href="dir_000377_000076.html" target="_top" xlink:title="21">
<text text-anchor="middle" x="492.7447" y="-91.6336" font-family="Helvetica,sans-Serif" font-size="10.00" fill="#000000">21</text>
</a>
</g>
</g>
<!-- dir_4ab6b4cc6a7edbff49100e9123df213f&#45;&gt;dir_bcbb2cf9a3d3d83e5515c82071a07177 -->
<g id="edge1" class="edge">
<title>dir_4ab6b4cc6a7edbff49100e9123df213f&#45;&gt;dir_bcbb2cf9a3d3d83e5515c82071a07177</title>
<path fill="none" stroke="#000000" d="M312.0476,-215.8314C311.2972,-208.131 311.0763,-198.9743 311.3849,-190.4166"/>
<polygon fill="#000000" stroke="#000000" points="314.8792,-190.6161 312.024,-180.4133 307.8935,-190.1697 314.8792,-190.6161"/>
<g id="a_edge1&#45;headlabel"><a xlink:href="dir_000027_000013.html" target="_top" xlink:title="2">
<text text-anchor="middle" x="317.4836" y="-191.8844" font-family="Helvetica,sans-Serif" font-size="10.00" fill="#000000">2</text>
</a>
</g>
</g>
<!-- dir_4ab6b4cc6a7edbff49100e9123df213f&#45;&gt;dir_2171f7ec022c5423887b07c69b2f5b48 -->
<g id="edge2" class="edge">
<title>dir_4ab6b4cc6a7edbff49100e9123df213f&#45;&gt;dir_2171f7ec022c5423887b07c69b2f5b48</title>
<path fill="none" stroke="#000000" d="M328.5249,-215.7623C347.0881,-190.4436 385.1456,-144.5182 411.248,-115.7251"/>
<polygon fill="#000000" stroke="#000000" points="414.076,-117.8203 418.267,-108.0896 408.9226,-113.0829 414.076,-117.8203"/>
<g id="a_edge2&#45;headlabel"><a xlink:href="dir_000027_000076.html" target="_top" xlink:title="2">
<text text-anchor="middle" x="413.7336" y="-119.8882" font-family="Helvetica,sans-Serif" font-size="10.00" fill="#000000">2</text>
</a>
</g>
</g>
<!-- dir_37c90836491b695b472bf98d1be8336b&#45;&gt;dir_4ab6b4cc6a7edbff49100e9123df213f -->
<g id="edge5" class="edge">
<title>dir_37c90836491b695b472bf98d1be8336b&#45;&gt;dir_4ab6b4cc6a7edbff49100e9123df213f</title>
<path fill="none" stroke="#000000" d="M376.7668,-34.3919C345.0656,-55.2695 294.4477,-94.6349 274,-144 267.8771,-158.7821 268.6362,-164.9258 274,-180 277.5878,-190.0831 283.9535,-199.6483 290.7476,-207.8485"/>
<polygon fill="#000000" stroke="#000000" points="288.3404,-210.409 297.5974,-215.5625 293.5747,-205.7611 288.3404,-210.409"/>
<g id="a_edge5&#45;headlabel"><a xlink:href="dir_000274_000027.html" target="_top" xlink:title="16">
<text text-anchor="middle" x="283.8306" y="-207.1064" font-family="Helvetica,sans-Serif" font-size="10.00" fill="#000000">16</text>
</a>
</g>
</g>
<!-- dir_37c90836491b695b472bf98d1be8336b&#45;&gt;dir_bcbb2cf9a3d3d83e5515c82071a07177 -->
<g id="edge6" class="edge">
<title>dir_37c90836491b695b472bf98d1be8336b&#45;&gt;dir_bcbb2cf9a3d3d83e5515c82071a07177</title>
<path fill="none" stroke="#000000" d="M393.1965,-36.0896C378.317,-61.0041 351.4013,-106.0722 334.1323,-134.9877"/>
<polygon fill="#000000" stroke="#000000" points="331.0145,-133.3822 328.892,-143.7623 337.0243,-136.9715 331.0145,-133.3822"/>
<g id="a_edge6&#45;headlabel"><a xlink:href="dir_000274_000013.html" target="_top" xlink:title="1">
<text text-anchor="middle" x="330.4199" y="-126.3403" font-family="Helvetica,sans-Serif" font-size="10.00" fill="#000000">1</text>
</a>
</g>
</g>
<!-- dir_37c90836491b695b472bf98d1be8336b&#45;&gt;dir_2171f7ec022c5423887b07c69b2f5b48 -->
<g id="edge7" class="edge">
<title>dir_37c90836491b695b472bf98d1be8336b&#45;&gt;dir_2171f7ec022c5423887b07c69b2f5b48</title>
<path fill="none" stroke="#000000" d="M418.6712,-36.4133C423.1576,-44.3141 427.7985,-53.7132 431.5579,-62.417"/>
<polygon fill="#000000" stroke="#000000" points="428.3734,-63.8778 435.3728,-71.8314 434.861,-61.2489 428.3734,-63.8778"/>
<g id="a_edge7&#45;headlabel"><a xlink:href="dir_000274_000076.html" target="_top" xlink:title="10">
<text text-anchor="middle" x="424.3921" y="-59.1125" font-family="Helvetica,sans-Serif" font-size="10.00" fill="#000000">10</text>
</a>
</g>
</g>
<!-- dir_bcbb2cf9a3d3d83e5515c82071a07177&#45;&gt;dir_4ab6b4cc6a7edbff49100e9123df213f -->
<g id="edge34" class="edge">
<title>dir_bcbb2cf9a3d3d83e5515c82071a07177&#45;&gt;dir_4ab6b4cc6a7edbff49100e9123df213f</title>
<path fill="none" stroke="#000000" d="M323.976,-180.4133C324.7071,-188.0593 324.9203,-197.1084 324.6155,-205.5726"/>
<polygon fill="#000000" stroke="#000000" points="321.1048,-205.6264 323.9524,-215.8314 328.0902,-206.078 321.1048,-205.6264"/>
<g id="a_edge34&#45;headlabel"><a xlink:href="dir_000013_000027.html" target="_top" xlink:title="8">
<text text-anchor="middle" x="318.5032" y="-199.3562" font-family="Helvetica,sans-Serif" font-size="10.00" fill="#000000">8</text>
</a>
</g>
</g>
<!-- dir_bcbb2cf9a3d3d83e5515c82071a07177&#45;&gt;dir_2171f7ec022c5423887b07c69b2f5b48 -->
<g id="edge35" class="edge">
<title>dir_bcbb2cf9a3d3d83e5515c82071a07177&#45;&gt;dir_2171f7ec022c5423887b07c69b2f5b48</title>
<path fill="none" stroke="#000000" d="M342.3287,-143.8314C356.9138,-134.5368 375.8062,-123.1208 392.9828,-113.1971"/>
<polygon fill="#000000" stroke="#000000" points="394.8371,-116.1686 401.7768,-108.1628 391.3594,-110.0936 394.8371,-116.1686"/>
<g id="a_edge35&#45;headlabel"><a xlink:href="dir_000013_000076.html" target="_top" xlink:title="82">
<text text-anchor="middle" x="393.1281" y="-117.9185" font-family="Helvetica,sans-Serif" font-size="10.00" fill="#000000">82</text>
</a>
</g>
</g>
<!-- dir_26637d1bd82229bc9ed97f7e706be743&#45;&gt;dir_4ab6b4cc6a7edbff49100e9123df213f -->
<g id="edge36" class="edge">
<title>dir_26637d1bd82229bc9ed97f7e706be743&#45;&gt;dir_4ab6b4cc6a7edbff49100e9123df213f</title>
<path fill="none" stroke="#000000" d="M401.7332,-287.982C395.6148,-282.5984 388.695,-276.8447 382,-272 374.3121,-266.4368 365.7683,-260.9383 357.4923,-255.9251"/>
<polygon fill="#000000" stroke="#000000" points="359.0573,-252.7841 348.6703,-250.6958 355.4879,-258.8057 359.0573,-252.7841"/>
<g id="a_edge36&#45;headlabel"><a xlink:href="dir_000556_000027.html" target="_top" xlink:title="9">
<text text-anchor="middle" x="363.5972" y="-249.6746" font-family="Helvetica,sans-Serif" font-size="10.00" fill="#000000">9</text>
</a>
</g>
</g>
<!-- dir_26637d1bd82229bc9ed97f7e706be743&#45;&gt;dir_bcbb2cf9a3d3d83e5515c82071a07177 -->
<g id="edge37" class="edge">
<title>dir_26637d1bd82229bc9ed97f7e706be743&#45;&gt;dir_bcbb2cf9a3d3d83e5515c82071a07177</title>
<path fill="none" stroke="#000000" d="M408.59,-287.9704C395.9847,-269.7285 375.8337,-240.7631 358,-216 351.5569,-207.0534 344.42,-197.3536 337.9796,-188.6758"/>
<polygon fill="#000000" stroke="#000000" points="340.6013,-186.3363 331.8227,-180.4044 334.9861,-190.516 340.6013,-186.3363"/>
<g id="a_edge37&#45;headlabel"><a xlink:href="dir_000556_000013.html" target="_top" xlink:title="25">
<text text-anchor="middle" x="345.0252" y="-185.0244" font-family="Helvetica,sans-Serif" font-size="10.00" fill="#000000">25</text>
</a>
</g>
</g>
<!-- dir_26637d1bd82229bc9ed97f7e706be743&#45;&gt;dir_2171f7ec022c5423887b07c69b2f5b48 -->
<g id="edge38" class="edge">
<title>dir_26637d1bd82229bc9ed97f7e706be743&#45;&gt;dir_2171f7ec022c5423887b07c69b2f5b48</title>
<path fill="none" stroke="#000000" d="M422.4202,-287.9555C425.3827,-250.3144 432.2399,-163.1867 435.7865,-118.1246"/>
<polygon fill="#000000" stroke="#000000" points="439.2764,-118.3889 436.5719,-108.1451 432.298,-117.8396 439.2764,-118.3889"/>
<g id="a_edge38&#45;headlabel"><a xlink:href="dir_000556_000076.html" target="_top" xlink:title="15">
<text text-anchor="middle" x="441.825" y="-119.6952" font-family="Helvetica,sans-Serif" font-size="10.00" fill="#000000">15</text>
</a>
</g>
</g>
<!-- dir_2171f7ec022c5423887b07c69b2f5b48&#45;&gt;dir_4ab6b4cc6a7edbff49100e9123df213f -->
<g id="edge39" class="edge">
<title>dir_2171f7ec022c5423887b07c69b2f5b48&#45;&gt;dir_4ab6b4cc6a7edbff49100e9123df213f</title>
<path fill="none" stroke="#000000" d="M427.5836,-108.0896C409.0966,-133.3276 371.054,-179.2462 344.9051,-208.1061"/>
<polygon fill="#000000" stroke="#000000" points="342.0592,-206.0303 337.8713,-215.7623 347.2141,-210.7661 342.0592,-206.0303"/>
<g id="a_edge39&#45;headlabel"><a xlink:href="dir_000076_000027.html" target="_top" xlink:title="34">
<text text-anchor="middle" x="342.4003" y="-198.9624" font-family="Helvetica,sans-Serif" font-size="10.00" fill="#000000">34</text>
</a>
</g>
</g>
<!-- dir_2171f7ec022c5423887b07c69b2f5b48&#45;&gt;dir_37c90836491b695b472bf98d1be8336b -->
<g id="edge40" class="edge">
<title>dir_2171f7ec022c5423887b07c69b2f5b48&#45;&gt;dir_37c90836491b695b472bf98d1be8336b</title>
<path fill="none" stroke="#000000" d="M423.468,-71.8314C418.9848,-63.9617 414.3365,-54.5712 410.559,-45.8533"/>
<polygon fill="#000000" stroke="#000000" points="413.7291,-44.3575 406.7191,-36.4133 407.245,-46.9951 413.7291,-44.3575"/>
<g id="a_edge40&#45;headlabel"><a xlink:href="dir_000076_000274.html" target="_top" xlink:title="1">
<text text-anchor="middle" x="417.7134" y="-44.1175" font-family="Helvetica,sans-Serif" font-size="10.00" fill="#000000">1</text>
</a>
</g>
</g>
<!-- dir_2171f7ec022c5423887b07c69b2f5b48&#45;&gt;dir_bcbb2cf9a3d3d83e5515c82071a07177 -->
<g id="edge41" class="edge">
<title>dir_2171f7ec022c5423887b07c69b2f5b48&#45;&gt;dir_bcbb2cf9a3d3d83e5515c82071a07177</title>
<path fill="none" stroke="#000000" d="M413.7898,-108.0931C399.0317,-117.5014 379.8324,-129.0988 362.4622,-139.1233"/>
<polygon fill="#000000" stroke="#000000" points="360.5228,-136.2004 353.5787,-144.2022 363.9972,-142.2774 360.5228,-136.2004"/>
<g id="a_edge41&#45;headlabel"><a xlink:href="dir_000076_000013.html" target="_top" xlink:title="7">
<text text-anchor="middle" x="362.2342" y="-129.4515" font-family="Helvetica,sans-Serif" font-size="10.00" fill="#000000">7</text>
</a>
</g>
</g>
</g>
</svg>
        <g id="navigator" transform="translate(0 0)" fill="#404254">
                <rect fill="#f2f5e9" fill-opacity="0.5" stroke="#606060" stroke-width=".5" x="0" y="0" width="60" height="60"/>
                <use id="zoomplus" xlink:href="#zoomPlus" x="17" y="9" onmousedown="handleZoom(evt,'in')"/>
                <use id="zoomminus" xlink:href="#zoomMin" x="42" y="9" onmousedown="handleZoom(evt,'out')"/>
                <use id="reset" xlink:href="#resetDef" x="30" y="36" onmousedown="handleReset()"/>
                <g id="arrowUp" xlink:href="#dirArrow" transform="translate(30 24)" onmousedown="handlePan(0,-1)">
                  <use xlink:href="#rim" fill="#404040">
                        <set attributeName="fill" to="#808080" begin="arrowUp.mouseover" end="arrowUp.mouseout"/>
                  </use>
                  <path fill="none" stroke="white" stroke-width="1.5" d="M0,-3.0v7 M-2.5,-0.5L0,-3.0L2.5,-0.5"/>
                </g>
                <g id="arrowRight" xlink:href="#dirArrow" transform="rotate(90) translate(36 -43)" onmousedown="handlePan(1,0)">
                  <use xlink:href="#rim" fill="#404040">
                        <set attributeName="fill" to="#808080" begin="arrowRight.mouseover" end="arrowRight.mouseout"/>
                  </use>
                  <path fill="none" stroke="white" stroke-width="1.5" d="M0,-3.0v7 M-2.5,-0.5L0,-3.0L2.5,-0.5"/>
                </g>
                <g id="arrowDown" xlink:href="#dirArrow" transform="rotate(180) translate(-30 -48)" onmousedown="handlePan(0,1)">
                  <use xlink:href="#rim" fill="#404040">
                        <set attributeName="fill" to="#808080" begin="arrowDown.mouseover" end="arrowDown.mouseout"/>
                  </use>
                  <path fill="none" stroke="white" stroke-width="1.5" d="M0,-3.0v7 M-2.5,-0.5L0,-3.0L2.5,-0.5"/>
                </g>
                <g id="arrowLeft" xlink:href="#dirArrow" transform="rotate(270) translate(-36 17)" onmousedown="handlePan(-1,0)">
                  <use xlink:href="#rim" fill="#404040">
                        <set attributeName="fill" to="#808080" begin="arrowLeft.mouseover" end="arrowLeft.mouseout"/>
                  </use>
                  <path fill="none" stroke="white" stroke-width="1.5" d="M0,-3.0v7 M-2.5,-0.5L0,-3.0L2.5,-0.5"/>
                </g>
        </g>
        <svg viewBox="0 0 15 15" width="100%" height="30px" preserveAspectRatio="xMaxYMin meet">
         <g id="arrow_out" transform="scale(0.3 0.3)">
          <a xlink:href="dir_9e24c537087392bd208449d0b48c466c_dep_org.svg" target="_base">
           <rect id="button" ry="5" rx="5" y="6" x="6" height="38" width="38"
                fill="#f2f5e9" fill-opacity="0.5" stroke="#606060" stroke-width="1.0"/>
           <path id="arrow"
             d="M 11.500037,31.436501 C 11.940474,20.09759 22.043105,11.32322 32.158766,21.979434 L 37.068811,17.246167 C 37.068811,17.246167 37.088388,32 37.088388,32 L 22.160133,31.978069 C 22.160133,31.978069 26.997745,27.140456 26.997745,27.140456 C 18.528582,18.264221 13.291696,25.230495 11.500037,31.436501 z"
             style="fill:#404040;"/>
          </a>
         </g>
        </svg>
</svg>
