<?xml version="1.0" encoding="UTF-8" standalone="no"?>
<!DOCTYPE svg PUBLIC "-//W3C//DTD SVG 1.1//EN"
 "http://www.w3.org/Graphics/SVG/1.1/DTD/svg11.dtd">
<!-- Generated by graphviz version 2.40.1 (20161225.0304)
 -->
<!-- Title: /home/travis/build/AliceO2Group/AliceO2/Detectors/ITSMFT/MFT/workflow/include Pages: 1 -->
<svg width="215pt" height="375pt"
 viewBox="0.00 0.00 215.02 375.00" xmlns="http://www.w3.org/2000/svg" xmlns:xlink="http://www.w3.org/1999/xlink">
<g id="graph0" class="graph" transform="scale(1 1) rotate(0) translate(4 371)">
<title>/home/travis/build/AliceO2Group/AliceO2/Detectors/ITSMFT/MFT/workflow/include</title>
<g id="clust1" class="cluster">
<title>clusterdir_d0619917fd3ee0979a990dc471c60823</title>
<g id="a_clust1"><a xlink:href="dir_d0619917fd3ee0979a990dc471c60823.html" target="_top" xlink:title="workflow">
<polygon fill="#ddddee" stroke="#000000" points="13.0212,-272 13.0212,-359 199.0212,-359 199.0212,-272 13.0212,-272"/>
<text text-anchor="middle" x="106.0212" y="-347" font-family="Helvetica,sans-Serif" font-size="10.00" fill="#000000">workflow</text>
</a>
</g>
</g>
<g id="clust2" class="cluster">
<title>clusterdir_d168fbf481e8f7fe2895d8d2e97998ae</title>
<g id="a_clust2"><a xlink:href="dir_d168fbf481e8f7fe2895d8d2e97998ae.html" target="_top">
<polygon fill="#eeeeff" stroke="#000000" points="21.0212,-280 21.0212,-332 191.0212,-332 191.0212,-280 21.0212,-280"/>
</a>
</g>
</g>
<!-- dir_d168fbf481e8f7fe2895d8d2e97998ae -->
<g id="node1" class="node">
<title>dir_d168fbf481e8f7fe2895d8d2e97998ae</title>
<text text-anchor="middle" x="156.0212" y="-303.5" font-family="Helvetica,sans-Serif" font-size="10.00" fill="#000000">include</text>
</g>
<!-- dir_629083cb84f2837a95e2190b2cb2ec7f -->
<g id="node2" class="node">
<title>dir_629083cb84f2837a95e2190b2cb2ec7f</title>
<g id="a_node2"><a xlink:href="dir_629083cb84f2837a95e2190b2cb2ec7f.html" target="_top" xlink:title="MFTWorkflow">
<polygon fill="#ffffff" stroke="#000000" points="110.5212,-324 29.5212,-324 29.5212,-288 110.5212,-288 110.5212,-324"/>
<text text-anchor="middle" x="70.0212" y="-303.5" font-family="Helvetica,sans-Serif" font-size="10.00" fill="#000000">MFTWorkflow</text>
</a>
</g>
</g>
<!-- dir_85bf31a2e8d306e7598ffcb73f8df6bf -->
<g id="node3" class="node">
<title>dir_85bf31a2e8d306e7598ffcb73f8df6bf</title>
<g id="a_node3"><a xlink:href="dir_85bf31a2e8d306e7598ffcb73f8df6bf.html" target="_top" xlink:title="common">
<polygon fill="none" stroke="#ff0000" points="71.5212,-180 12.5212,-180 12.5212,-144 71.5212,-144 71.5212,-180"/>
<text text-anchor="middle" x="42.0212" y="-159.5" font-family="Helvetica,sans-Serif" font-size="10.00" fill="#000000">common</text>
</a>
</g>
</g>
<!-- dir_629083cb84f2837a95e2190b2cb2ec7f&#45;&gt;dir_85bf31a2e8d306e7598ffcb73f8df6bf -->
<g id="edge6" class="edge">
<title>dir_629083cb84f2837a95e2190b2cb2ec7f&#45;&gt;dir_85bf31a2e8d306e7598ffcb73f8df6bf</title>
<path fill="none" stroke="#000000" d="M66.475,-287.7623C61.6782,-263.0928 53.0773,-218.8598 47.4605,-189.9731"/>
<polygon fill="#000000" stroke="#000000" points="50.8831,-189.2377 45.5387,-180.0896 44.0118,-190.5738 50.8831,-189.2377"/>
<g id="a_edge6&#45;headlabel"><a xlink:href="dir_000397_000061.html" target="_top" xlink:title="1">
<text text-anchor="middle" x="54.3562" y="-189.7243" font-family="Helvetica,sans-Serif" font-size="10.00" fill="#000000">1</text>
</a>
</g>
</g>
<!-- dir_0a8d7fd788ce6274650fdef0765535ce -->
<g id="node4" class="node">
<title>dir_0a8d7fd788ce6274650fdef0765535ce</title>
<g id="a_node4"><a xlink:href="dir_0a8d7fd788ce6274650fdef0765535ce.html" target="_top" xlink:title="tracking">
<polygon fill="none" stroke="#ff0000" points="127.0212,-252 71.0212,-252 71.0212,-216 127.0212,-216 127.0212,-252"/>
<text text-anchor="middle" x="99.0212" y="-231.5" font-family="Helvetica,sans-Serif" font-size="10.00" fill="#000000">tracking</text>
</a>
</g>
</g>
<!-- dir_629083cb84f2837a95e2190b2cb2ec7f&#45;&gt;dir_0a8d7fd788ce6274650fdef0765535ce -->
<g id="edge7" class="edge">
<title>dir_629083cb84f2837a95e2190b2cb2ec7f&#45;&gt;dir_0a8d7fd788ce6274650fdef0765535ce</title>
<path fill="none" stroke="#000000" d="M77.3392,-287.8314C80.5089,-279.9617 84.2912,-270.5712 87.8026,-261.8533"/>
<polygon fill="#000000" stroke="#000000" points="91.1152,-262.9968 91.6048,-252.4133 84.6221,-260.3815 91.1152,-262.9968"/>
<g id="a_edge7&#45;headlabel"><a xlink:href="dir_000397_000111.html" target="_top" xlink:title="2">
<text text-anchor="middle" x="92.4059" y="-264.8919" font-family="Helvetica,sans-Serif" font-size="10.00" fill="#000000">2</text>
</a>
</g>
</g>
<!-- dir_bcbb2cf9a3d3d83e5515c82071a07177 -->
<g id="node5" class="node">
<title>dir_bcbb2cf9a3d3d83e5515c82071a07177</title>
<g id="a_node5"><a xlink:href="dir_bcbb2cf9a3d3d83e5515c82071a07177.html" target="_top" xlink:title="Framework">
<polygon fill="none" stroke="#ff0000" points="135.5212,-108 64.5212,-108 64.5212,-72 135.5212,-72 135.5212,-108"/>
<text text-anchor="middle" x="100.0212" y="-87.5" font-family="Helvetica,sans-Serif" font-size="10.00" fill="#000000">Framework</text>
</a>
</g>
</g>
<!-- dir_629083cb84f2837a95e2190b2cb2ec7f&#45;&gt;dir_bcbb2cf9a3d3d83e5515c82071a07177 -->
<g id="edge8" class="edge">
<title>dir_629083cb84f2837a95e2190b2cb2ec7f&#45;&gt;dir_bcbb2cf9a3d3d83e5515c82071a07177</title>
<path fill="none" stroke="#000000" d="M96.7313,-287.7837C113.0819,-275.9852 131.6784,-261.1644 136.0212,-252 157.02,-207.6874 134.1847,-150.6903 116.5188,-117.4618"/>
<polygon fill="#000000" stroke="#000000" points="119.385,-115.4119 111.4856,-108.3515 113.2579,-118.7971 119.385,-115.4119"/>
<g id="a_edge8&#45;headlabel"><a xlink:href="dir_000397_000013.html" target="_top" xlink:title="15">
<text text-anchor="middle" x="123.6085" y="-114.6853" font-family="Helvetica,sans-Serif" font-size="10.00" fill="#000000">15</text>
</a>
</g>
</g>
<!-- dir_2171f7ec022c5423887b07c69b2f5b48 -->
<g id="node6" class="node">
<title>dir_2171f7ec022c5423887b07c69b2f5b48</title>
<g id="a_node6"><a xlink:href="dir_2171f7ec022c5423887b07c69b2f5b48.html" target="_top" xlink:title="DataFormats">
<polygon fill="none" stroke="#ff0000" points="103.0212,-36 23.0212,-36 23.0212,0 103.0212,0 103.0212,-36"/>
<text text-anchor="middle" x="63.0212" y="-15.5" font-family="Helvetica,sans-Serif" font-size="10.00" fill="#000000">DataFormats</text>
</a>
</g>
</g>
<!-- dir_629083cb84f2837a95e2190b2cb2ec7f&#45;&gt;dir_2171f7ec022c5423887b07c69b2f5b48 -->
<g id="edge9" class="edge">
<title>dir_629083cb84f2837a95e2190b2cb2ec7f&#45;&gt;dir_2171f7ec022c5423887b07c69b2f5b48</title>
<path fill="none" stroke="#000000" d="M56.7296,-287.9689C40.3429,-264.509 13.3909,-221.588 3.0212,-180 -9.249,-130.7897 20.8709,-75.9059 42.7329,-44.3159"/>
<polygon fill="#000000" stroke="#000000" points="45.6743,-46.2195 48.638,-36.0476 39.9779,-42.1511 45.6743,-46.2195"/>
<g id="a_edge9&#45;headlabel"><a xlink:href="dir_000397_000076.html" target="_top" xlink:title="2">
<text text-anchor="middle" x="45.8957" y="-48.2948" font-family="Helvetica,sans-Serif" font-size="10.00" fill="#000000">2</text>
</a>
</g>
</g>
<!-- dir_85bf31a2e8d306e7598ffcb73f8df6bf&#45;&gt;dir_bcbb2cf9a3d3d83e5515c82071a07177 -->
<g id="edge1" class="edge">
<title>dir_85bf31a2e8d306e7598ffcb73f8df6bf&#45;&gt;dir_bcbb2cf9a3d3d83e5515c82071a07177</title>
<path fill="none" stroke="#000000" d="M56.6571,-143.8314C63.3374,-135.5386 71.3781,-125.557 78.7116,-116.4533"/>
<polygon fill="#000000" stroke="#000000" points="81.6406,-118.3965 85.1883,-108.4133 76.1894,-114.0052 81.6406,-118.3965"/>
<g id="a_edge1&#45;headlabel"><a xlink:href="dir_000061_000013.html" target="_top" xlink:title="18">
<text text-anchor="middle" x="81.5968" y="-120.4769" font-family="Helvetica,sans-Serif" font-size="10.00" fill="#000000">18</text>
</a>
</g>
</g>
<!-- dir_85bf31a2e8d306e7598ffcb73f8df6bf&#45;&gt;dir_2171f7ec022c5423887b07c69b2f5b48 -->
<g id="edge2" class="edge">
<title>dir_85bf31a2e8d306e7598ffcb73f8df6bf&#45;&gt;dir_2171f7ec022c5423887b07c69b2f5b48</title>
<path fill="none" stroke="#000000" d="M37.7974,-143.7257C38.2528,-125.5401 42.3877,-96.8372 46.0212,-72 47.2367,-63.6921 48.5689,-54.6672 50.1647,-46.4165"/>
<polygon fill="#000000" stroke="#000000" points="53.6177,-47.0092 52.3379,-36.4919 46.7798,-45.5118 53.6177,-47.0092"/>
<g id="a_edge2&#45;headlabel"><a xlink:href="dir_000061_000076.html" target="_top" xlink:title="56">
<text text-anchor="middle" x="55.6225" y="-48.6279" font-family="Helvetica,sans-Serif" font-size="10.00" fill="#000000">56</text>
</a>
</g>
</g>
<!-- dir_0a8d7fd788ce6274650fdef0765535ce&#45;&gt;dir_85bf31a2e8d306e7598ffcb73f8df6bf -->
<g id="edge3" class="edge">
<title>dir_0a8d7fd788ce6274650fdef0765535ce&#45;&gt;dir_85bf31a2e8d306e7598ffcb73f8df6bf</title>
<path fill="none" stroke="#000000" d="M84.6377,-215.8314C78.0726,-207.5386 70.1706,-197.557 62.9635,-188.4533"/>
<polygon fill="#000000" stroke="#000000" points="65.5496,-186.0813 56.5984,-180.4133 60.0613,-190.4262 65.5496,-186.0813"/>
<g id="a_edge3&#45;headlabel"><a xlink:href="dir_000111_000061.html" target="_top" xlink:title="1">
<text text-anchor="middle" x="70.0069" y="-184.6373" font-family="Helvetica,sans-Serif" font-size="10.00" fill="#000000">1</text>
</a>
</g>
</g>
<!-- dir_0a8d7fd788ce6274650fdef0765535ce&#45;&gt;dir_bcbb2cf9a3d3d83e5515c82071a07177 -->
<g id="edge4" class="edge">
<title>dir_0a8d7fd788ce6274650fdef0765535ce&#45;&gt;dir_bcbb2cf9a3d3d83e5515c82071a07177</title>
<path fill="none" stroke="#000000" d="M99.1479,-215.7623C99.3185,-191.201 99.6237,-147.2474 99.8243,-118.3541"/>
<polygon fill="#000000" stroke="#000000" points="103.326,-118.1137 99.8956,-108.0896 96.3262,-118.065 103.326,-118.1137"/>
<g id="a_edge4&#45;headlabel"><a xlink:href="dir_000111_000013.html" target="_top" xlink:title="1">
<text text-anchor="middle" x="106.1403" y="-119.2279" font-family="Helvetica,sans-Serif" font-size="10.00" fill="#000000">1</text>
</a>
</g>
</g>
<!-- dir_0a8d7fd788ce6274650fdef0765535ce&#45;&gt;dir_2171f7ec022c5423887b07c69b2f5b48 -->
<g id="edge5" class="edge">
<title>dir_0a8d7fd788ce6274650fdef0765535ce&#45;&gt;dir_2171f7ec022c5423887b07c69b2f5b48</title>
<path fill="none" stroke="#000000" d="M112.5099,-215.7755C133.7019,-184.7275 169.8465,-120.255 144.0212,-72 136.8289,-58.561 124.6512,-47.8889 111.8933,-39.7022"/>
<polygon fill="#000000" stroke="#000000" points="113.4067,-36.5301 103.0225,-34.4281 109.8294,-42.547 113.4067,-36.5301"/>
<g id="a_edge5&#45;headlabel"><a xlink:href="dir_000111_000076.html" target="_top" xlink:title="21">
<text text-anchor="middle" x="117.9474" y="-33.4266" font-family="Helvetica,sans-Serif" font-size="10.00" fill="#000000">21</text>
</a>
</g>
</g>
<!-- dir_bcbb2cf9a3d3d83e5515c82071a07177&#45;&gt;dir_2171f7ec022c5423887b07c69b2f5b48 -->
<g id="edge10" class="edge">
<title>dir_bcbb2cf9a3d3d83e5515c82071a07177&#45;&gt;dir_2171f7ec022c5423887b07c69b2f5b48</title>
<path fill="none" stroke="#000000" d="M84.7322,-71.8314C79.8694,-63.8771 74.7732,-54.369 70.6075,-45.5723"/>
<polygon fill="#000000" stroke="#000000" points="73.7879,-44.1105 66.5076,-36.4133 67.3988,-46.9706 73.7879,-44.1105"/>
<g id="a_edge10&#45;headlabel"><a xlink:href="dir_000013_000076.html" target="_top" xlink:title="82">
<text text-anchor="middle" x="77.848" y="-43.7314" font-family="Helvetica,sans-Serif" font-size="10.00" fill="#000000">82</text>
</a>
</g>
</g>
<!-- dir_2171f7ec022c5423887b07c69b2f5b48&#45;&gt;dir_85bf31a2e8d306e7598ffcb73f8df6bf -->
<g id="edge11" class="edge">
<title>dir_2171f7ec022c5423887b07c69b2f5b48&#45;&gt;dir_85bf31a2e8d306e7598ffcb73f8df6bf</title>
<path fill="none" stroke="#000000" d="M68.1917,-36.4919C67.7148,-46.9183 65.7498,-60.1843 64.0212,-72 60.9838,-92.7623 57.5961,-116.226 53.781,-133.9892"/>
<polygon fill="#000000" stroke="#000000" points="50.3737,-133.1892 51.4847,-143.7257 57.1868,-134.7961 50.3737,-133.1892"/>
<g id="a_edge11&#45;headlabel"><a xlink:href="dir_000076_000061.html" target="_top" xlink:title="1">
<text text-anchor="middle" x="48.4353" y="-126.5389" font-family="Helvetica,sans-Serif" font-size="10.00" fill="#000000">1</text>
</a>
</g>
</g>
<!-- dir_2171f7ec022c5423887b07c69b2f5b48&#45;&gt;dir_bcbb2cf9a3d3d83e5515c82071a07177 -->
<g id="edge12" class="edge">
<title>dir_2171f7ec022c5423887b07c69b2f5b48&#45;&gt;dir_bcbb2cf9a3d3d83e5515c82071a07177</title>
<path fill="none" stroke="#000000" d="M78.4596,-36.4133C83.3271,-44.3991 88.416,-53.9155 92.5626,-62.6975"/>
<polygon fill="#000000" stroke="#000000" points="89.3667,-64.1246 96.637,-71.8314 95.7595,-61.2729 89.3667,-64.1246"/>
<g id="a_edge12&#45;headlabel"><a xlink:href="dir_000076_000013.html" target="_top" xlink:title="7">
<text text-anchor="middle" x="85.3094" y="-59.4985" font-family="Helvetica,sans-Serif" font-size="10.00" fill="#000000">7</text>
</a>
</g>
</g>
</g>
</svg>
