<?xml version="1.0" encoding="UTF-8" standalone="no"?>
<!DOCTYPE svg PUBLIC "-//W3C//DTD SVG 1.1//EN"
 "http://www.w3.org/Graphics/SVG/1.1/DTD/svg11.dtd">
<!-- Generated by graphviz version 2.40.1 (20161225.0304)
 -->
<!-- Title: /home/travis/build/AliceO2Group/AliceO2/Framework/Core/include/Framework Pages: 1 -->
<svg width="211pt" height="295pt"
 viewBox="0.00 0.00 210.72 295.00" xmlns="http://www.w3.org/2000/svg" xmlns:xlink="http://www.w3.org/1999/xlink">
<g id="graph0" class="graph" transform="scale(1 1) rotate(0) translate(4 291)">
<title>/home/travis/build/AliceO2Group/AliceO2/Framework/Core/include/Framework</title>
<g id="clust1" class="cluster">
<title>clusterdir_985a55873ec4a56b27533251576853b6</title>
<g id="a_clust1"><a xlink:href="dir_985a55873ec4a56b27533251576853b6.html" target="_top" xlink:title="include">
<polygon fill="#ddddee" stroke="#000000" points="14.7854,-208 14.7854,-279 102.7854,-279 102.7854,-208 14.7854,-208"/>
<text text-anchor="middle" x="58.7854" y="-267" font-family="Helvetica,sans-Serif" font-size="10.00" fill="#000000">include</text>
</a>
</g>
</g>
<!-- dir_8c4937e6752f73040ac16b54c2a51f32 -->
<g id="node1" class="node">
<title>dir_8c4937e6752f73040ac16b54c2a51f32</title>
<g id="a_node1"><a xlink:href="dir_8c4937e6752f73040ac16b54c2a51f32.html" target="_top" xlink:title="Framework">
<polygon fill="#eeeeff" stroke="#000000" points="94.2854,-252 23.2854,-252 23.2854,-216 94.2854,-216 94.2854,-252"/>
<text text-anchor="middle" x="58.7854" y="-231.5" font-family="Helvetica,sans-Serif" font-size="10.00" fill="#000000">Framework</text>
</a>
</g>
</g>
<!-- dir_4ab6b4cc6a7edbff49100e9123df213f -->
<g id="node2" class="node">
<title>dir_4ab6b4cc6a7edbff49100e9123df213f</title>
<g id="a_node2"><a xlink:href="dir_4ab6b4cc6a7edbff49100e9123df213f.html" target="_top" xlink:title="Common">
<polygon fill="none" stroke="#ff0000" points="173.2854,-180 112.2854,-180 112.2854,-144 173.2854,-144 173.2854,-180"/>
<text text-anchor="middle" x="142.7854" y="-159.5" font-family="Helvetica,sans-Serif" font-size="10.00" fill="#000000">Common</text>
</a>
</g>
</g>
<!-- dir_8c4937e6752f73040ac16b54c2a51f32&#45;&gt;dir_4ab6b4cc6a7edbff49100e9123df213f -->
<g id="edge3" class="edge">
<title>dir_8c4937e6752f73040ac16b54c2a51f32&#45;&gt;dir_4ab6b4cc6a7edbff49100e9123df213f</title>
<path fill="none" stroke="#000000" d="M79.9822,-215.8314C90.2289,-207.0485 102.6857,-196.3712 113.7951,-186.8489"/>
<polygon fill="#000000" stroke="#000000" points="116.2807,-189.3282 121.5955,-180.1628 111.7251,-184.0134 116.2807,-189.3282"/>
<g id="a_edge3&#45;headlabel"><a xlink:href="dir_000652_000027.html" target="_top" xlink:title="5">
<text text-anchor="middle" x="115.3992" y="-191.3232" font-family="Helvetica,sans-Serif" font-size="10.00" fill="#000000">5</text>
</a>
</g>
</g>
<!-- dir_5d813cdce1e9826318f2aba62999ca51 -->
<g id="node3" class="node">
<title>dir_5d813cdce1e9826318f2aba62999ca51</title>
<g id="a_node3"><a xlink:href="dir_5d813cdce1e9826318f2aba62999ca51.html" target="_top" xlink:title="Foundation">
<polygon fill="none" stroke="#ff0000" points="94.2854,-180 23.2854,-180 23.2854,-144 94.2854,-144 94.2854,-180"/>
<text text-anchor="middle" x="58.7854" y="-159.5" font-family="Helvetica,sans-Serif" font-size="10.00" fill="#000000">Foundation</text>
</a>
</g>
</g>
<!-- dir_8c4937e6752f73040ac16b54c2a51f32&#45;&gt;dir_5d813cdce1e9826318f2aba62999ca51 -->
<g id="edge4" class="edge">
<title>dir_8c4937e6752f73040ac16b54c2a51f32&#45;&gt;dir_5d813cdce1e9826318f2aba62999ca51</title>
<path fill="none" stroke="#000000" d="M58.7854,-215.8314C58.7854,-208.131 58.7854,-198.9743 58.7854,-190.4166"/>
<polygon fill="#000000" stroke="#000000" points="62.2855,-190.4132 58.7854,-180.4133 55.2855,-190.4133 62.2855,-190.4132"/>
<g id="a_edge4&#45;headlabel"><a xlink:href="dir_000652_000655.html" target="_top" xlink:title="25">
<text text-anchor="middle" x="65.1247" y="-191.5079" font-family="Helvetica,sans-Serif" font-size="10.00" fill="#000000">25</text>
</a>
</g>
</g>
<!-- dir_0b60ff9a1849fb34896fe8bde9baec43 -->
<g id="node4" class="node">
<title>dir_0b60ff9a1849fb34896fe8bde9baec43</title>
<g id="a_node4"><a xlink:href="dir_0b60ff9a1849fb34896fe8bde9baec43.html" target="_top" xlink:title="src">
<polygon fill="none" stroke="#000000" points="169.7854,-252 115.7854,-252 115.7854,-216 169.7854,-216 169.7854,-252"/>
<text text-anchor="middle" x="142.7854" y="-231.5" font-family="Helvetica,sans-Serif" font-size="10.00" fill="#000000">src</text>
</a>
</g>
</g>
<!-- dir_8c4937e6752f73040ac16b54c2a51f32&#45;&gt;dir_0b60ff9a1849fb34896fe8bde9baec43 -->
<g id="edge5" class="edge">
<title>dir_8c4937e6752f73040ac16b54c2a51f32&#45;&gt;dir_0b60ff9a1849fb34896fe8bde9baec43</title>
<path fill="none" stroke="#000000" d="M94.5511,-234C98.1781,-234 101.8051,-234 105.4321,-234"/>
<polygon fill="#000000" stroke="#000000" points="105.6536,-237.5001 115.6536,-234 105.6536,-230.5001 105.6536,-237.5001"/>
<g id="a_edge5&#45;headlabel"><a xlink:href="dir_000652_000653.html" target="_top" xlink:title="2">
<text text-anchor="middle" x="102.059" y="-237.8393" font-family="Helvetica,sans-Serif" font-size="10.00" fill="#000000">2</text>
</a>
</g>
</g>
<!-- dir_ab5a80d4bd40f73f0851d5ff6a022779 -->
<g id="node5" class="node">
<title>dir_ab5a80d4bd40f73f0851d5ff6a022779</title>
<g id="a_node5"><a xlink:href="dir_ab5a80d4bd40f73f0851d5ff6a022779.html" target="_top" xlink:title="Logger">
<polygon fill="none" stroke="#ff0000" points="194.7854,-36 140.7854,-36 140.7854,0 194.7854,0 194.7854,-36"/>
<text text-anchor="middle" x="167.7854" y="-15.5" font-family="Helvetica,sans-Serif" font-size="10.00" fill="#000000">Logger</text>
</a>
</g>
</g>
<!-- dir_8c4937e6752f73040ac16b54c2a51f32&#45;&gt;dir_ab5a80d4bd40f73f0851d5ff6a022779 -->
<g id="edge6" class="edge">
<title>dir_8c4937e6752f73040ac16b54c2a51f32&#45;&gt;dir_ab5a80d4bd40f73f0851d5ff6a022779</title>
<path fill="none" stroke="#000000" d="M33.2803,-215.9627C22.3101,-206.6284 10.6709,-194.2089 4.7854,-180 -1.3375,-165.2179 -1.724,-158.616 4.7854,-144 29.1018,-89.401 91.1243,-52.3947 131.267,-33.2774"/>
<polygon fill="#000000" stroke="#000000" points="132.8599,-36.397 140.469,-29.0247 129.9232,-30.0428 132.8599,-36.397"/>
<g id="a_edge6&#45;headlabel"><a xlink:href="dir_000652_000660.html" target="_top" xlink:title="3">
<text text-anchor="middle" x="130.788" y="-37.9823" font-family="Helvetica,sans-Serif" font-size="10.00" fill="#000000">3</text>
</a>
</g>
</g>
<!-- dir_2171f7ec022c5423887b07c69b2f5b48 -->
<g id="node6" class="node">
<title>dir_2171f7ec022c5423887b07c69b2f5b48</title>
<g id="a_node6"><a xlink:href="dir_2171f7ec022c5423887b07c69b2f5b48.html" target="_top" xlink:title="DataFormats">
<polygon fill="none" stroke="#ff0000" points="173.7854,-108 93.7854,-108 93.7854,-72 173.7854,-72 173.7854,-108"/>
<text text-anchor="middle" x="133.7854" y="-87.5" font-family="Helvetica,sans-Serif" font-size="10.00" fill="#000000">DataFormats</text>
</a>
</g>
</g>
<!-- dir_8c4937e6752f73040ac16b54c2a51f32&#45;&gt;dir_2171f7ec022c5423887b07c69b2f5b48 -->
<g id="edge7" class="edge">
<title>dir_8c4937e6752f73040ac16b54c2a51f32&#45;&gt;dir_2171f7ec022c5423887b07c69b2f5b48</title>
<path fill="none" stroke="#000000" d="M38.4848,-215.7743C20.2498,-197.1264 -1.4859,-167.6185 13.7854,-144 29.2808,-120.035 58.2266,-106.6003 83.8068,-99.1253"/>
<polygon fill="#000000" stroke="#000000" points="85.0235,-102.4228 93.7763,-96.4529 83.211,-95.6615 85.0235,-102.4228"/>
<g id="a_edge7&#45;headlabel"><a xlink:href="dir_000652_000076.html" target="_top" xlink:title="23">
<text text-anchor="middle" x="82.2866" y="-103.5959" font-family="Helvetica,sans-Serif" font-size="10.00" fill="#000000">23</text>
</a>
</g>
</g>
<!-- dir_4ab6b4cc6a7edbff49100e9123df213f&#45;&gt;dir_ab5a80d4bd40f73f0851d5ff6a022779 -->
<g id="edge1" class="edge">
<title>dir_4ab6b4cc6a7edbff49100e9123df213f&#45;&gt;dir_ab5a80d4bd40f73f0851d5ff6a022779</title>
<path fill="none" stroke="#000000" d="M160.943,-143.7286C169.3344,-133.9911 178.3977,-121.2949 182.7854,-108 189.4564,-87.7867 184.9914,-63.9964 179.2429,-45.9534"/>
<polygon fill="#000000" stroke="#000000" points="182.4817,-44.6115 175.8826,-36.3229 175.8725,-46.9177 182.4817,-44.6115"/>
<g id="a_edge1&#45;headlabel"><a xlink:href="dir_000027_000660.html" target="_top" xlink:title="2">
<text text-anchor="middle" x="186.3466" y="-44.5701" font-family="Helvetica,sans-Serif" font-size="10.00" fill="#000000">2</text>
</a>
</g>
</g>
<!-- dir_4ab6b4cc6a7edbff49100e9123df213f&#45;&gt;dir_2171f7ec022c5423887b07c69b2f5b48 -->
<g id="edge2" class="edge">
<title>dir_4ab6b4cc6a7edbff49100e9123df213f&#45;&gt;dir_2171f7ec022c5423887b07c69b2f5b48</title>
<path fill="none" stroke="#000000" d="M134.562,-143.8314C132.849,-136.131 131.4835,-126.9743 130.7224,-118.4166"/>
<polygon fill="#000000" stroke="#000000" points="134.2147,-118.1811 130.1111,-108.4133 127.2277,-118.6082 134.2147,-118.1811"/>
<g id="a_edge2&#45;headlabel"><a xlink:href="dir_000027_000076.html" target="_top" xlink:title="2">
<text text-anchor="middle" x="137.2678" y="-119.0959" font-family="Helvetica,sans-Serif" font-size="10.00" fill="#000000">2</text>
</a>
</g>
</g>
<!-- dir_0b60ff9a1849fb34896fe8bde9baec43&#45;&gt;dir_8c4937e6752f73040ac16b54c2a51f32 -->
<g id="edge10" class="edge">
<title>dir_0b60ff9a1849fb34896fe8bde9baec43&#45;&gt;dir_8c4937e6752f73040ac16b54c2a51f32</title>
<path fill="none" stroke="#000000" d="M115.6536,-234C112.0266,-234 108.3996,-234 104.7726,-234"/>
<polygon fill="#000000" stroke="#000000" points="104.5511,-230.5001 94.5511,-234 104.551,-237.5001 104.5511,-230.5001"/>
<g id="a_edge10&#45;headlabel"><a xlink:href="dir_000653_000652.html" target="_top" xlink:title="330">
<text text-anchor="middle" x="108.1457" y="-225.1607" font-family="Helvetica,sans-Serif" font-size="10.00" fill="#000000">330</text>
</a>
</g>
</g>
<!-- dir_0b60ff9a1849fb34896fe8bde9baec43&#45;&gt;dir_4ab6b4cc6a7edbff49100e9123df213f -->
<g id="edge8" class="edge">
<title>dir_0b60ff9a1849fb34896fe8bde9baec43&#45;&gt;dir_4ab6b4cc6a7edbff49100e9123df213f</title>
<path fill="none" stroke="#000000" d="M142.7854,-215.8314C142.7854,-208.131 142.7854,-198.9743 142.7854,-190.4166"/>
<polygon fill="#000000" stroke="#000000" points="146.2855,-190.4132 142.7854,-180.4133 139.2855,-190.4133 146.2855,-190.4132"/>
<g id="a_edge8&#45;headlabel"><a xlink:href="dir_000653_000027.html" target="_top" xlink:title="1">
<text text-anchor="middle" x="149.1247" y="-191.5079" font-family="Helvetica,sans-Serif" font-size="10.00" fill="#000000">1</text>
</a>
</g>
</g>
<!-- dir_0b60ff9a1849fb34896fe8bde9baec43&#45;&gt;dir_5d813cdce1e9826318f2aba62999ca51 -->
<g id="edge9" class="edge">
<title>dir_0b60ff9a1849fb34896fe8bde9baec43&#45;&gt;dir_5d813cdce1e9826318f2aba62999ca51</title>
<path fill="none" stroke="#000000" d="M121.5887,-215.8314C111.342,-207.0485 98.8852,-196.3712 87.7758,-186.8489"/>
<polygon fill="#000000" stroke="#000000" points="89.8458,-184.0134 79.9754,-180.1628 85.2902,-189.3282 89.8458,-184.0134"/>
<g id="a_edge9&#45;headlabel"><a xlink:href="dir_000653_000655.html" target="_top" xlink:title="11">
<text text-anchor="middle" x="94.4228" y="-181.697" font-family="Helvetica,sans-Serif" font-size="10.00" fill="#000000">11</text>
</a>
</g>
</g>
<!-- dir_0b60ff9a1849fb34896fe8bde9baec43&#45;&gt;dir_ab5a80d4bd40f73f0851d5ff6a022779 -->
<g id="edge11" class="edge">
<title>dir_0b60ff9a1849fb34896fe8bde9baec43&#45;&gt;dir_ab5a80d4bd40f73f0851d5ff6a022779</title>
<path fill="none" stroke="#000000" d="M169.5086,-215.9104C180.7939,-206.6439 192.7114,-194.295 198.7854,-180 203.196,-169.6199 205.0518,-99.2609 197.7854,-72 195.2701,-62.5634 190.7483,-53.0075 185.9657,-44.6112"/>
<polygon fill="#000000" stroke="#000000" points="188.9328,-42.7539 180.7564,-36.0161 182.9464,-46.3821 188.9328,-42.7539"/>
<g id="a_edge11&#45;headlabel"><a xlink:href="dir_000653_000660.html" target="_top" xlink:title="20">
<text text-anchor="middle" x="193.224" y="-41.8564" font-family="Helvetica,sans-Serif" font-size="10.00" fill="#000000">20</text>
</a>
</g>
</g>
<!-- dir_0b60ff9a1849fb34896fe8bde9baec43&#45;&gt;dir_2171f7ec022c5423887b07c69b2f5b48 -->
<g id="edge12" class="edge">
<title>dir_0b60ff9a1849fb34896fe8bde9baec43&#45;&gt;dir_2171f7ec022c5423887b07c69b2f5b48</title>
<path fill="none" stroke="#000000" d="M160.943,-215.7286C169.3344,-205.9911 178.3977,-193.2949 182.7854,-180 187.7999,-164.8061 188.5481,-158.9262 182.7854,-144 178.6662,-133.3306 171.3519,-123.4665 163.6105,-115.1681"/>
<polygon fill="#000000" stroke="#000000" points="166.0036,-112.6113 156.4604,-108.0091 161.0507,-117.558 166.0036,-112.6113"/>
<g id="a_edge12&#45;headlabel"><a xlink:href="dir_000653_000076.html" target="_top" xlink:title="17">
<text text-anchor="middle" x="170.5526" y="-110.6483" font-family="Helvetica,sans-Serif" font-size="10.00" fill="#000000">17</text>
</a>
</g>
</g>
<!-- dir_2171f7ec022c5423887b07c69b2f5b48&#45;&gt;dir_4ab6b4cc6a7edbff49100e9123df213f -->
<g id="edge13" class="edge">
<title>dir_2171f7ec022c5423887b07c69b2f5b48&#45;&gt;dir_4ab6b4cc6a7edbff49100e9123df213f</title>
<path fill="none" stroke="#000000" d="M142.0631,-108.4133C143.75,-116.0593 145.0943,-125.1084 145.8475,-133.5726"/>
<polygon fill="#000000" stroke="#000000" points="142.3705,-134.0605 146.4668,-143.8314 149.3578,-133.6386 142.3705,-134.0605"/>
<g id="a_edge13&#45;headlabel"><a xlink:href="dir_000076_000027.html" target="_top" xlink:title="34">
<text text-anchor="middle" x="139.3199" y="-128.1434" font-family="Helvetica,sans-Serif" font-size="10.00" fill="#000000">34</text>
</a>
</g>
</g>
<!-- dir_2171f7ec022c5423887b07c69b2f5b48&#45;&gt;dir_ab5a80d4bd40f73f0851d5ff6a022779 -->
<g id="edge14" class="edge">
<title>dir_2171f7ec022c5423887b07c69b2f5b48&#45;&gt;dir_ab5a80d4bd40f73f0851d5ff6a022779</title>
<path fill="none" stroke="#000000" d="M142.3651,-71.8314C146.1213,-63.8771 150.6112,-54.369 154.7652,-45.5723"/>
<polygon fill="#000000" stroke="#000000" points="157.985,-46.9503 159.0903,-36.4133 151.6553,-43.9612 157.985,-46.9503"/>
<g id="a_edge14&#45;headlabel"><a xlink:href="dir_000076_000660.html" target="_top" xlink:title="7">
<text text-anchor="middle" x="159.0176" y="-48.9131" font-family="Helvetica,sans-Serif" font-size="10.00" fill="#000000">7</text>
</a>
</g>
</g>
</g>
</svg>
