<?xml version="1.0" encoding="UTF-8" standalone="no"?>
<!DOCTYPE svg PUBLIC "-//W3C//DTD SVG 1.1//EN"
 "http://www.w3.org/Graphics/SVG/1.1/DTD/svg11.dtd">
<!-- Generated by graphviz version 2.40.1 (20161225.0304)
 -->
<!-- Title: Graphical Class Hierarchy Pages: 1 -->
<svg width="395pt" height="186pt"
 viewBox="0.00 0.00 395.00 186.00" xmlns="http://www.w3.org/2000/svg" xmlns:xlink="http://www.w3.org/1999/xlink">
<g id="graph0" class="graph" transform="scale(1 1) rotate(0) translate(4 182)">
<title>Graphical Class Hierarchy</title>
<!-- Node0 -->
<g id="node1" class="node">
<title>Node0</title>
<g id="a_node1"><a xlink:href="d9/d7d/classROOT_1_1RDF_1_1RCombinedDSIndex.html" target="_top" xlink:title="ROOT::RDF::RCombinedDSIndex">
<polygon fill="none" stroke="#000000" points="0,-79 0,-98 170,-98 170,-79 0,-79"/>
<text text-anchor="middle" x="85" y="-86" font-family="Helvetica,sans-Serif" font-size="10.00" fill="#000000">ROOT::RDF::RCombinedDSIndex</text>
</a>
</g>
</g>
<!-- Node1 -->
<g id="node2" class="node">
<title>Node1</title>
<g id="a_node2"><a xlink:href="d3/d75/classROOT_1_1RDF_1_1RCombinedDSBlockJoinIndex.html" target="_top" xlink:title="ROOT::RDF::RCombinedDSBlock\lJoinIndex\&lt; INDEX_TYPE \&gt;">
<polygon fill="none" stroke="#000000" points="211.5,-147.5 211.5,-177.5 381.5,-177.5 381.5,-147.5 211.5,-147.5"/>
<text text-anchor="start" x="219.5" y="-165.5" font-family="Helvetica,sans-Serif" font-size="10.00" fill="#000000">ROOT::RDF::RCombinedDSBlock</text>
<text text-anchor="middle" x="296.5" y="-154.5" font-family="Helvetica,sans-Serif" font-size="10.00" fill="#000000">JoinIndex&lt; INDEX_TYPE &gt;</text>
</a>
</g>
</g>
<!-- Node0&#45;&gt;Node1 -->
<g id="edge1" class="edge">
<title>Node0&#45;&gt;Node1</title>
<path fill="none" stroke="#191970" d="M115.0207,-102.2115C139.2509,-112.9589 174.39,-127.8301 206,-138.5 215.3947,-141.6712 225.4507,-144.6938 235.3193,-147.4585"/>
<polygon fill="#191970" stroke="#191970" points="116.222,-98.9147 105.6645,-98.0259 113.3634,-105.3045 116.222,-98.9147"/>
</g>
<!-- Node2 -->
<g id="node3" class="node">
<title>Node2</title>
<g id="a_node3"><a xlink:href="dc/df9/classROOT_1_1RDF_1_1RCombinedDSColumnJoinIndex.html" target="_top" xlink:title="ROOT::RDF::RCombinedDSColumn\lJoinIndex\&lt; INDEX_TYPE \&gt;">
<polygon fill="none" stroke="#000000" points="206,-98.5 206,-128.5 387,-128.5 387,-98.5 206,-98.5"/>
<text text-anchor="start" x="214" y="-116.5" font-family="Helvetica,sans-Serif" font-size="10.00" fill="#000000">ROOT::RDF::RCombinedDSColumn</text>
<text text-anchor="middle" x="296.5" y="-105.5" font-family="Helvetica,sans-Serif" font-size="10.00" fill="#000000">JoinIndex&lt; INDEX_TYPE &gt;</text>
</a>
</g>
</g>
<!-- Node0&#45;&gt;Node2 -->
<g id="edge2" class="edge">
<title>Node0&#45;&gt;Node2</title>
<path fill="none" stroke="#191970" d="M175.5462,-99.2029C185.6063,-100.392 195.8539,-101.6033 205.9145,-102.7925"/>
<polygon fill="#191970" stroke="#191970" points="175.9042,-95.7209 165.5624,-98.0227 175.0824,-102.6725 175.9042,-95.7209"/>
</g>
<!-- Node3 -->
<g id="node4" class="node">
<title>Node3</title>
<g id="a_node4"><a xlink:href="df/d02/classROOT_1_1RDF_1_1RCombinedDSCrossJoinIndex.html" target="_top" xlink:title="ROOT::RDF::RCombinedDSCross\lJoinIndex">
<polygon fill="none" stroke="#000000" points="211.5,-49.5 211.5,-79.5 381.5,-79.5 381.5,-49.5 211.5,-49.5"/>
<text text-anchor="start" x="219.5" y="-67.5" font-family="Helvetica,sans-Serif" font-size="10.00" fill="#000000">ROOT::RDF::RCombinedDSCross</text>
<text text-anchor="middle" x="296.5" y="-56.5" font-family="Helvetica,sans-Serif" font-size="10.00" fill="#000000">JoinIndex</text>
</a>
</g>
</g>
<!-- Node0&#45;&gt;Node3 -->
<g id="edge3" class="edge">
<title>Node0&#45;&gt;Node3</title>
<path fill="none" stroke="#191970" d="M179.1122,-77.8206C189.8366,-76.6036 200.7226,-75.3684 211.3219,-74.1656"/>
<polygon fill="#191970" stroke="#191970" points="178.4357,-74.3748 168.8942,-78.9801 179.2251,-81.3302 178.4357,-74.3748"/>
</g>
<!-- Node4 -->
<g id="node5" class="node">
<title>Node4</title>
<g id="a_node5"><a xlink:href="df/dc7/classROOT_1_1RDF_1_1RCombinedDSFriendIndex.html" target="_top" xlink:title="ROOT::RDF::RCombinedDSFriend\lIndex">
<polygon fill="none" stroke="#000000" points="210,-.5 210,-30.5 383,-30.5 383,-.5 210,-.5"/>
<text text-anchor="start" x="218" y="-18.5" font-family="Helvetica,sans-Serif" font-size="10.00" fill="#000000">ROOT::RDF::RCombinedDSFriend</text>
<text text-anchor="middle" x="296.5" y="-7.5" font-family="Helvetica,sans-Serif" font-size="10.00" fill="#000000">Index</text>
</a>
</g>
</g>
<!-- Node0&#45;&gt;Node4 -->
<g id="edge4" class="edge">
<title>Node0&#45;&gt;Node4</title>
<path fill="none" stroke="#191970" d="M116.4273,-74.9482C140.6501,-64.7689 175.1156,-50.8579 206,-40.5 216.3544,-37.0274 227.4878,-33.6601 238.2833,-30.5808"/>
<polygon fill="#191970" stroke="#191970" points="114.8793,-71.8028 107.0347,-78.9241 117.608,-78.2491 114.8793,-71.8028"/>
</g>
</g>
</svg>
