<?xml version="1.0" encoding="UTF-8" standalone="no"?>
<!DOCTYPE svg PUBLIC "-//W3C//DTD SVG 1.1//EN"
 "http://www.w3.org/Graphics/SVG/1.1/DTD/svg11.dtd">
<!-- Generated by graphviz version 2.40.1 (20161225.0304)
 -->
<!-- Title: Graphical Class Hierarchy Pages: 1 -->
<svg width="305pt" height="66pt"
 viewBox="0.00 0.00 305.00 66.00" xmlns="http://www.w3.org/2000/svg" xmlns:xlink="http://www.w3.org/1999/xlink">
<g id="graph0" class="graph" transform="scale(1 1) rotate(0) translate(4 62)">
<title>Graphical Class Hierarchy</title>
<!-- Node0 -->
<g id="node1" class="node">
<title>Node0</title>
<g id="a_node1"><a xlink:href="de/d1a/classo2_1_1its_1_1VertexerTraits.html" target="_top" xlink:title="o2::its::VertexerTraits">
<polygon fill="none" stroke="#000000" points="0,-19.5 0,-38.5 120,-38.5 120,-19.5 0,-19.5"/>
<text text-anchor="middle" x="60" y="-26.5" font-family="Helvetica,sans-Serif" font-size="10.00" fill="#000000">o2::its::VertexerTraits</text>
</a>
</g>
</g>
<!-- Node1 -->
<g id="node2" class="node">
<title>Node1</title>
<g id="a_node2"><a xlink:href="da/dd6/classo2_1_1its_1_1VertexerTraitsGPU.html" target="_top" xlink:title="o2::its::VertexerTraitsGPU">
<polygon fill="none" stroke="#000000" points="156,-38.5 156,-57.5 297,-57.5 297,-38.5 156,-38.5"/>
<text text-anchor="middle" x="226.5" y="-45.5" font-family="Helvetica,sans-Serif" font-size="10.00" fill="#000000">o2::its::VertexerTraitsGPU</text>
</a>
</g>
</g>
<!-- Node0&#45;&gt;Node1 -->
<g id="edge1" class="edge">
<title>Node0&#45;&gt;Node1</title>
<path fill="none" stroke="#191970" d="M130.0677,-36.9957C138.644,-37.9744 147.4119,-38.9749 155.9946,-39.9543"/>
<polygon fill="#191970" stroke="#191970" points="130.4427,-33.5159 120.1103,-35.8594 129.649,-40.4707 130.4427,-33.5159"/>
</g>
<!-- Node2 -->
<g id="node3" class="node">
<title>Node2</title>
<g id="a_node3"><a xlink:href="de/da3/classo2_1_1its_1_1VertexerTraitsHIP.html" target="_top" xlink:title="o2::its::VertexerTraitsHIP">
<polygon fill="none" stroke="#000000" points="158,-.5 158,-19.5 295,-19.5 295,-.5 158,-.5"/>
<text text-anchor="middle" x="226.5" y="-7.5" font-family="Helvetica,sans-Serif" font-size="10.00" fill="#000000">o2::its::VertexerTraitsHIP</text>
</a>
</g>
</g>
<!-- Node0&#45;&gt;Node2 -->
<g id="edge2" class="edge">
<title>Node0&#45;&gt;Node2</title>
<path fill="none" stroke="#191970" d="M130.3362,-20.9736C139.4955,-19.9284 148.8685,-18.8588 157.9972,-17.8171"/>
<polygon fill="#191970" stroke="#191970" points="129.649,-17.5293 120.1103,-22.1406 130.4427,-24.4841 129.649,-17.5293"/>
</g>
</g>
</svg>
