<?xml version="1.0" encoding="UTF-8" standalone="no"?>
<!DOCTYPE svg PUBLIC "-//W3C//DTD SVG 1.1//EN"
 "http://www.w3.org/Graphics/SVG/1.1/DTD/svg11.dtd">
<!-- Generated by graphviz version 2.40.1 (20161225.0304)
 -->
<!-- Title: Graphical Class Hierarchy Pages: 1 -->
<svg width="348pt" height="541pt"
 viewBox="0.00 0.00 348.00 541.00" xmlns="http://www.w3.org/2000/svg" xmlns:xlink="http://www.w3.org/1999/xlink">
<g id="graph0" class="graph" transform="scale(1 1) rotate(0) translate(4 537)">
<title>Graphical Class Hierarchy</title>
<!-- Node0 -->
<g id="node1" class="node">
<title>Node0</title>
<g id="a_node1"><a xlink:href="d8/dbd/structo2_1_1header_1_1BaseHeader.html" target="_top" xlink:title="the base header struct Every header type must begin (i.e. derive) with this. Don&#39;t use this struct di...">
<polygon fill="none" stroke="#000000" points="0,-240.5 0,-259.5 134,-259.5 134,-240.5 0,-240.5"/>
<text text-anchor="middle" x="67" y="-247.5" font-family="Helvetica,sans-Serif" font-size="10.00" fill="#000000">o2::header::BaseHeader</text>
</a>
</g>
</g>
<!-- Node1 -->
<g id="node2" class="node">
<title>Node1</title>
<g id="a_node2"><a xlink:href="d0/ddd/structo2_1_1cpv_1_1CPVBlockHeader.html" target="_top" xlink:title="Header for CPV flagging the following CPV payload. ">
<polygon fill="none" stroke="#000000" points="185.5,-513.5 185.5,-532.5 324.5,-532.5 324.5,-513.5 185.5,-513.5"/>
<text text-anchor="middle" x="255" y="-520.5" font-family="Helvetica,sans-Serif" font-size="10.00" fill="#000000">o2::cpv::CPVBlockHeader</text>
</a>
</g>
</g>
<!-- Node0&#45;&gt;Node1 -->
<g id="edge1" class="edge">
<title>Node0&#45;&gt;Node1</title>
<path fill="none" stroke="#191970" d="M68.8813,-269.6479C74.5702,-317.6187 96.0444,-441.362 170,-504 174.6154,-507.9091 179.8638,-511.0605 185.4345,-513.5955"/>
<polygon fill="#191970" stroke="#191970" points="72.3541,-269.2075 67.7985,-259.6422 65.3948,-269.9607 72.3541,-269.2075"/>
</g>
<!-- Node2 -->
<g id="node3" class="node">
<title>Node2</title>
<g id="a_node3"><a xlink:href="d3/d13/structo2_1_1emcal_1_1EMCALBlockHeader.html" target="_top" xlink:title="Header for EMCAL flagging the following EMCAL payload. ">
<polygon fill="none" stroke="#000000" points="172,-475.5 172,-494.5 338,-494.5 338,-475.5 172,-475.5"/>
<text text-anchor="middle" x="255" y="-482.5" font-family="Helvetica,sans-Serif" font-size="10.00" fill="#000000">o2::emcal::EMCALBlockHeader</text>
</a>
</g>
</g>
<!-- Node0&#45;&gt;Node2 -->
<g id="edge2" class="edge">
<title>Node0&#45;&gt;Node2</title>
<path fill="none" stroke="#191970" d="M70.4035,-269.5647C78.9166,-312.3297 105.2806,-414.4221 170,-466 174.8483,-469.8639 180.3239,-472.9774 186.1015,-475.4819"/>
<polygon fill="#191970" stroke="#191970" points="73.818,-268.783 68.5343,-259.5997 66.938,-270.0736 73.818,-268.783"/>
</g>
<!-- Node3 -->
<g id="node4" class="node">
<title>Node3</title>
<g id="a_node4"><a xlink:href="d7/df0/structo2_1_1framework_1_1DataProcessingHeader.html" target="_top" xlink:title="o2::framework::DataProcessing\lHeader">
<polygon fill="none" stroke="#000000" points="170,-426 170,-456 340,-456 340,-426 170,-426"/>
<text text-anchor="start" x="178" y="-444" font-family="Helvetica,sans-Serif" font-size="10.00" fill="#000000">o2::framework::DataProcessing</text>
<text text-anchor="middle" x="255" y="-433" font-family="Helvetica,sans-Serif" font-size="10.00" fill="#000000">Header</text>
</a>
</g>
</g>
<!-- Node0&#45;&gt;Node3 -->
<g id="edge3" class="edge">
<title>Node0&#45;&gt;Node3</title>
<path fill="none" stroke="#191970" d="M73.4621,-269.1299C86.2229,-303.9625 118.0144,-377.7532 170,-417 174.528,-420.4185 179.5228,-423.3501 184.7547,-425.8643"/>
<polygon fill="#191970" stroke="#191970" points="76.7444,-267.9135 70.1115,-259.6519 70.1447,-270.2467 76.7444,-267.9135"/>
</g>
<!-- Node4 -->
<g id="node5" class="node">
<title>Node4</title>
<g id="a_node5"><a xlink:href="d2/d30/structo2_1_1framework_1_1DataSamplingHeader.html" target="_top" xlink:title="o2::framework::DataSampling\lHeader">
<polygon fill="none" stroke="#000000" points="173.5,-377 173.5,-407 336.5,-407 336.5,-377 173.5,-377"/>
<text text-anchor="start" x="181.5" y="-395" font-family="Helvetica,sans-Serif" font-size="10.00" fill="#000000">o2::framework::DataSampling</text>
<text text-anchor="middle" x="255" y="-384" font-family="Helvetica,sans-Serif" font-size="10.00" fill="#000000">Header</text>
</a>
</g>
</g>
<!-- Node0&#45;&gt;Node4 -->
<g id="edge4" class="edge">
<title>Node0&#45;&gt;Node4</title>
<path fill="none" stroke="#191970" d="M77.9335,-268.1452C94.5555,-294.1721 128.66,-341.8407 170,-368 175.4422,-371.4437 181.3866,-374.4035 187.5218,-376.9454"/>
<polygon fill="#191970" stroke="#191970" points="80.8779,-266.2524 72.6195,-259.6154 74.9366,-269.9538 80.8779,-266.2524"/>
</g>
<!-- Node5 -->
<g id="node6" class="node">
<title>Node5</title>
<g id="a_node6"><a xlink:href="db/df3/structo2_1_1framework_1_1OutputObjHeader.html" target="_top" xlink:title="O2 header for OutputObj metadata. ">
<polygon fill="none" stroke="#000000" points="183.5,-328 183.5,-358 326.5,-358 326.5,-328 183.5,-328"/>
<text text-anchor="start" x="191.5" y="-346" font-family="Helvetica,sans-Serif" font-size="10.00" fill="#000000">o2::framework::OutputObj</text>
<text text-anchor="middle" x="255" y="-335" font-family="Helvetica,sans-Serif" font-size="10.00" fill="#000000">Header</text>
</a>
</g>
</g>
<!-- Node0&#45;&gt;Node5 -->
<g id="edge5" class="edge">
<title>Node0&#45;&gt;Node5</title>
<path fill="none" stroke="#191970" d="M86.6213,-265.9112C106.5569,-281.3881 138.8516,-304.6122 170,-319 177.2387,-322.3436 185.0438,-325.3192 192.8864,-327.9381"/>
<polygon fill="#191970" stroke="#191970" points="88.6452,-263.0498 78.6267,-259.603 84.309,-268.5451 88.6452,-263.0498"/>
</g>
<!-- Node6 -->
<g id="node7" class="node">
<title>Node6</title>
<g id="a_node7"><a xlink:href="d0/d7a/structo2_1_1framework_1_1SourceInfoHeader.html" target="_top" xlink:title="a BaseHeader with state information from the source ">
<polygon fill="none" stroke="#000000" points="182,-279 182,-309 328,-309 328,-279 182,-279"/>
<text text-anchor="start" x="190" y="-297" font-family="Helvetica,sans-Serif" font-size="10.00" fill="#000000">o2::framework::SourceInfo</text>
<text text-anchor="middle" x="255" y="-286" font-family="Helvetica,sans-Serif" font-size="10.00" fill="#000000">Header</text>
</a>
</g>
</g>
<!-- Node0&#45;&gt;Node6 -->
<g id="edge6" class="edge">
<title>Node0&#45;&gt;Node6</title>
<path fill="none" stroke="#191970" d="M117.7773,-261.884C140.2049,-267.1331 166.8289,-273.3642 190.6298,-278.9346"/>
<polygon fill="#191970" stroke="#191970" points="118.3277,-258.4184 107.7932,-259.5473 116.7325,-265.2342 118.3277,-258.4184"/>
</g>
<!-- Node7 -->
<g id="node8" class="node">
<title>Node7</title>
<g id="a_node8"><a xlink:href="db/d87/structo2_1_1header_1_1DataHeader.html" target="_top" xlink:title="the main header struct ">
<polygon fill="none" stroke="#000000" points="188.5,-240.5 188.5,-259.5 321.5,-259.5 321.5,-240.5 188.5,-240.5"/>
<text text-anchor="middle" x="255" y="-247.5" font-family="Helvetica,sans-Serif" font-size="10.00" fill="#000000">o2::header::DataHeader</text>
</a>
</g>
</g>
<!-- Node0&#45;&gt;Node7 -->
<g id="edge7" class="edge">
<title>Node0&#45;&gt;Node7</title>
<path fill="none" stroke="#191970" d="M144.1089,-250C158.7576,-250 173.9722,-250 188.266,-250"/>
<polygon fill="#191970" stroke="#191970" points="144.0761,-246.5001 134.0761,-250 144.0761,-253.5001 144.0761,-246.5001"/>
</g>
<!-- Node8 -->
<g id="node9" class="node">
<title>Node8</title>
<g id="a_node9"><a xlink:href="d4/dfa/structo2_1_1header_1_1HeartbeatFrameEnvelope.html" target="_top" xlink:title="o2::header::HeartbeatFrame\lEnvelope">
<polygon fill="none" stroke="#000000" points="178.5,-191 178.5,-221 331.5,-221 331.5,-191 178.5,-191"/>
<text text-anchor="start" x="186.5" y="-209" font-family="Helvetica,sans-Serif" font-size="10.00" fill="#000000">o2::header::HeartbeatFrame</text>
<text text-anchor="middle" x="255" y="-198" font-family="Helvetica,sans-Serif" font-size="10.00" fill="#000000">Envelope</text>
</a>
</g>
</g>
<!-- Node0&#45;&gt;Node8 -->
<g id="edge8" class="edge">
<title>Node0&#45;&gt;Node8</title>
<path fill="none" stroke="#191970" d="M117.7773,-238.116C140.2049,-232.8669 166.8289,-226.6358 190.6298,-221.0654"/>
<polygon fill="#191970" stroke="#191970" points="116.7325,-234.7658 107.7932,-240.4527 118.3277,-241.5816 116.7325,-234.7658"/>
</g>
<!-- Node9 -->
<g id="node10" class="node">
<title>Node9</title>
<g id="a_node10"><a xlink:href="d2/dda/structo2_1_1header_1_1NameHeader.html" target="_top" xlink:title="an example data header containing a name of an object as a null terminated char arr. this is a template! at instantiation the template parameter determines the size of the held string array. a caveat with decoding is (if length of string is not known) you have to use header::get&lt;NameHeader&lt;0&gt;&gt;(buffer) to get it out of a buffer. May improve in the future if enough people complain. If the compiler decides to pad the end of struct, the length of padding is stored in the last byte ">
<polygon fill="none" stroke="#000000" points="170.5,-152.5 170.5,-171.5 339.5,-171.5 339.5,-152.5 170.5,-152.5"/>
<text text-anchor="middle" x="255" y="-159.5" font-family="Helvetica,sans-Serif" font-size="10.00" fill="#000000">o2::header::NameHeader&lt; N &gt;</text>
</a>
</g>
</g>
<!-- Node0&#45;&gt;Node9 -->
<g id="edge9" class="edge">
<title>Node0&#45;&gt;Node9</title>
<path fill="none" stroke="#191970" d="M86.5295,-234.0425C106.3948,-218.5775 138.6368,-195.5309 170,-182 179.883,-177.7362 190.8222,-174.2991 201.4716,-171.5581"/>
<polygon fill="#191970" stroke="#191970" points="84.2289,-231.3998 78.5665,-240.3546 88.5773,-236.8855 84.2289,-231.3998"/>
</g>
<!-- Node10 -->
<g id="node11" class="node">
<title>Node10</title>
<g id="a_node11"><a xlink:href="da/d75/structo2_1_1header_1_1test_1_1MetaHeader.html" target="_top" xlink:title="o2::header::test::MetaHeader">
<polygon fill="none" stroke="#000000" points="176,-114.5 176,-133.5 334,-133.5 334,-114.5 176,-114.5"/>
<text text-anchor="middle" x="255" y="-121.5" font-family="Helvetica,sans-Serif" font-size="10.00" fill="#000000">o2::header::test::MetaHeader</text>
</a>
</g>
</g>
<!-- Node0&#45;&gt;Node10 -->
<g id="edge10" class="edge">
<title>Node0&#45;&gt;Node10</title>
<path fill="none" stroke="#191970" d="M79.1656,-231.8871C96.4172,-207.6938 130.3397,-165.2979 170,-143 176.854,-139.1465 184.4306,-136.0746 192.1535,-133.6257"/>
<polygon fill="#191970" stroke="#191970" points="76.2287,-229.9801 73.3929,-240.1884 81.9757,-233.9766 76.2287,-229.9801"/>
</g>
<!-- Node11 -->
<g id="node12" class="node">
<title>Node11</title>
<g id="a_node12"><a xlink:href="d2/d84/structo2_1_1phos_1_1PHOSBlockHeader.html" target="_top" xlink:title="Header for PHOS flagging the following PHOS payload. ">
<polygon fill="none" stroke="#000000" points="178.5,-76.5 178.5,-95.5 331.5,-95.5 331.5,-76.5 178.5,-76.5"/>
<text text-anchor="middle" x="255" y="-83.5" font-family="Helvetica,sans-Serif" font-size="10.00" fill="#000000">o2::phos::PHOSBlockHeader</text>
</a>
</g>
</g>
<!-- Node0&#45;&gt;Node11 -->
<g id="edge11" class="edge">
<title>Node0&#45;&gt;Node11</title>
<path fill="none" stroke="#191970" d="M74.9617,-230.9791C89.1603,-199.5142 121.9405,-136.938 170,-105 175.7932,-101.1501 182.2488,-98.0704 188.9419,-95.6082"/>
<polygon fill="#191970" stroke="#191970" points="71.6563,-229.8028 70.8636,-240.3679 78.0718,-232.603 71.6563,-229.8028"/>
</g>
<!-- Node12 -->
<g id="node13" class="node">
<title>Node12</title>
<g id="a_node13"><a xlink:href="d4/da3/structo2_1_1tpc_1_1TPCSectorHeader.html" target="_top" xlink:title="o2::tpc::TPCSectorHeader">
<polygon fill="none" stroke="#000000" points="185,-38.5 185,-57.5 325,-57.5 325,-38.5 185,-38.5"/>
<text text-anchor="middle" x="255" y="-45.5" font-family="Helvetica,sans-Serif" font-size="10.00" fill="#000000">o2::tpc::TPCSectorHeader</text>
</a>
</g>
</g>
<!-- Node0&#45;&gt;Node12 -->
<g id="edge12" class="edge">
<title>Node0&#45;&gt;Node12</title>
<path fill="none" stroke="#191970" d="M72.2319,-230.3403C83.3928,-192.4082 113.2688,-109.1535 170,-67 175.2191,-63.122 181.083,-60.0108 187.2279,-57.5181"/>
<polygon fill="#191970" stroke="#191970" points="68.8068,-229.591 69.466,-240.1653 75.5449,-231.4879 68.8068,-229.591"/>
</g>
<!-- Node13 -->
<g id="node14" class="node">
<title>Node13</title>
<g id="a_node14"><a xlink:href="dc/d68/structtest_1_1MetaHeader.html" target="_top" xlink:title="test::MetaHeader">
<polygon fill="none" stroke="#000000" points="204.5,-.5 204.5,-19.5 305.5,-19.5 305.5,-.5 204.5,-.5"/>
<text text-anchor="middle" x="255" y="-7.5" font-family="Helvetica,sans-Serif" font-size="10.00" fill="#000000">test::MetaHeader</text>
</a>
</g>
</g>
<!-- Node0&#45;&gt;Node13 -->
<g id="edge13" class="edge">
<title>Node0&#45;&gt;Node13</title>
<path fill="none" stroke="#191970" d="M70.205,-230.2713C78.3673,-186.7037 104.1502,-81.9556 170,-29 179.7803,-21.1348 192.1537,-16.3724 204.4107,-13.5277"/>
<polygon fill="#191970" stroke="#191970" points="66.7469,-229.728 68.4592,-240.1835 73.6408,-230.9422 66.7469,-229.728"/>
</g>
</g>
</svg>
