<?xml version="1.0" encoding="UTF-8" standalone="no"?>
<!DOCTYPE svg PUBLIC "-//W3C//DTD SVG 1.1//EN"
 "http://www.w3.org/Graphics/SVG/1.1/DTD/svg11.dtd">
<!-- Generated by graphviz version 2.40.1 (20161225.0304)
 -->
<!-- Title: Graphical Class Hierarchy Pages: 1 -->
<svg width="502pt" height="469pt"
 viewBox="0.00 0.00 502.00 469.00" xmlns="http://www.w3.org/2000/svg" xmlns:xlink="http://www.w3.org/1999/xlink">
<g id="graph0" class="graph" transform="scale(1 1) rotate(0) translate(4 465)">
<title>Graphical Class Hierarchy</title>
<!-- Node0 -->
<g id="node1" class="node">
<title>Node0</title>
<g id="a_node1"><a xlink:href="db/dfe/classFairMQDevice.html" target="_top" xlink:title="FairMQDevice">
<polygon fill="none" stroke="#000000" points="0,-176 0,-195 83,-195 83,-176 0,-176"/>
<text text-anchor="middle" x="41.5" y="-183" font-family="Helvetica,sans-Serif" font-size="10.00" fill="#000000">FairMQDevice</text>
</a>
</g>
</g>
<!-- Node1 -->
<g id="node2" class="node">
<title>Node1</title>
<g id="a_node2"><a xlink:href="d7/dd9/classo2_1_1alice__hlt_1_1EventSampler.html" target="_top" xlink:title="o2::alice_hlt::EventSampler">
<polygon fill="none" stroke="#000000" points="129,-340 129,-359 279,-359 279,-340 129,-340"/>
<text text-anchor="middle" x="204" y="-347" font-family="Helvetica,sans-Serif" font-size="10.00" fill="#000000">o2::alice_hlt::EventSampler</text>
</a>
</g>
</g>
<!-- Node0&#45;&gt;Node1 -->
<g id="edge1" class="edge">
<title>Node0&#45;&gt;Node1</title>
<path fill="none" stroke="#191970" d="M46.2251,-204.8572C54.9587,-236.3443 76.7184,-298.362 119,-330.5 124.0561,-334.3431 129.7411,-337.4366 135.7125,-339.923"/>
<polygon fill="#191970" stroke="#191970" points="49.587,-203.8787 43.6669,-195.0922 42.8155,-205.6527 49.587,-203.8787"/>
</g>
<!-- Node2 -->
<g id="node3" class="node">
<title>Node2</title>
<g id="a_node3"><a xlink:href="d5/df3/classo2_1_1alice__hlt_1_1WrapperDevice.html" target="_top" xlink:title="o2::alice_hlt::WrapperDevice">
<polygon fill="none" stroke="#000000" points="126,-302 126,-321 282,-321 282,-302 126,-302"/>
<text text-anchor="middle" x="204" y="-309" font-family="Helvetica,sans-Serif" font-size="10.00" fill="#000000">o2::alice_hlt::WrapperDevice</text>
</a>
</g>
</g>
<!-- Node0&#45;&gt;Node2 -->
<g id="edge2" class="edge">
<title>Node0&#45;&gt;Node2</title>
<path fill="none" stroke="#191970" d="M49.7951,-204.2313C61.564,-228.5374 85.4668,-270.4375 119,-292.5 124.9371,-296.4062 131.5593,-299.5186 138.4148,-301.9969"/>
<polygon fill="#191970" stroke="#191970" points="52.8926,-202.5916 45.5015,-195.0007 46.5456,-205.5439 52.8926,-202.5916"/>
</g>
<!-- Node3 -->
<g id="node4" class="node">
<title>Node3</title>
<g id="a_node4"><a xlink:href="db/d18/classo2_1_1base_1_1O2Device.html" target="_top" xlink:title="o2::base::O2Device">
<polygon fill="none" stroke="#000000" points="148.5,-264 148.5,-283 259.5,-283 259.5,-264 148.5,-264"/>
<text text-anchor="middle" x="204" y="-271" font-family="Helvetica,sans-Serif" font-size="10.00" fill="#000000">o2::base::O2Device</text>
</a>
</g>
</g>
<!-- Node0&#45;&gt;Node3 -->
<g id="edge3" class="edge">
<title>Node0&#45;&gt;Node3</title>
<path fill="none" stroke="#191970" d="M56.1,-202.7825C70.4777,-218.6611 93.8809,-241.6239 119,-254.5 128.0157,-259.1215 138.1344,-262.6253 148.1613,-265.28"/>
<polygon fill="#191970" stroke="#191970" points="58.6761,-200.4117 49.4429,-195.2157 53.4205,-205.0356 58.6761,-200.4117"/>
</g>
<!-- Node12 -->
<g id="node13" class="node">
<title>Node12</title>
<g id="a_node13"><a xlink:href="dd/d1e/classo2_1_1devices_1_1EPNReceiverDevice.html" target="_top" xlink:title="Receives sub&#45;timeframes from the flpSenders and merges these into full timeframes. ">
<polygon fill="none" stroke="#000000" points="134,-214.5 134,-244.5 274,-244.5 274,-214.5 134,-214.5"/>
<text text-anchor="start" x="142" y="-232.5" font-family="Helvetica,sans-Serif" font-size="10.00" fill="#000000">o2::devices::EPNReceiver</text>
<text text-anchor="middle" x="204" y="-221.5" font-family="Helvetica,sans-Serif" font-size="10.00" fill="#000000">Device</text>
</a>
</g>
</g>
<!-- Node0&#45;&gt;Node12 -->
<g id="edge12" class="edge">
<title>Node0&#45;&gt;Node12</title>
<path fill="none" stroke="#191970" d="M86.4413,-197.6687C105.604,-202.8574 128.1589,-208.9646 148.3609,-214.4346"/>
<polygon fill="#191970" stroke="#191970" points="87.3273,-194.2826 76.7601,-195.0473 85.4977,-201.0393 87.3273,-194.2826"/>
</g>
<!-- Node13 -->
<g id="node14" class="node">
<title>Node13</title>
<g id="a_node14"><a xlink:href="d4/d5e/classo2_1_1devices_1_1FLPSenderDevice.html" target="_top" xlink:title="o2::devices::FLPSenderDevice">
<polygon fill="none" stroke="#000000" points="123,-176 123,-195 285,-195 285,-176 123,-176"/>
<text text-anchor="middle" x="204" y="-183" font-family="Helvetica,sans-Serif" font-size="10.00" fill="#000000">o2::devices::FLPSenderDevice</text>
</a>
</g>
</g>
<!-- Node0&#45;&gt;Node13 -->
<g id="edge13" class="edge">
<title>Node0&#45;&gt;Node13</title>
<path fill="none" stroke="#191970" d="M93.6141,-185.5C102.9582,-185.5 112.8949,-185.5 122.83,-185.5"/>
<polygon fill="#191970" stroke="#191970" points="93.3478,-182.0001 83.3478,-185.5 93.3478,-189.0001 93.3478,-182.0001"/>
</g>
<!-- Node14 -->
<g id="node15" class="node">
<title>Node14</title>
<g id="a_node15"><a xlink:href="d7/d4c/classo2_1_1devices_1_1O2HitMerger.html" target="_top" xlink:title="o2::devices::O2HitMerger">
<polygon fill="none" stroke="#000000" points="134,-138 134,-157 274,-157 274,-138 134,-138"/>
<text text-anchor="middle" x="204" y="-145" font-family="Helvetica,sans-Serif" font-size="10.00" fill="#000000">o2::devices::O2HitMerger</text>
</a>
</g>
</g>
<!-- Node0&#45;&gt;Node14 -->
<g id="edge14" class="edge">
<title>Node0&#45;&gt;Node14</title>
<path fill="none" stroke="#191970" d="M89.6229,-173.5397C99.3395,-171.1706 109.4899,-168.7284 119,-166.5 132.3973,-163.3607 147.0104,-160.0525 160.2821,-157.0921"/>
<polygon fill="#191970" stroke="#191970" points="88.5795,-170.1918 79.6991,-175.9702 90.2447,-176.9908 88.5795,-170.1918"/>
</g>
<!-- Node15 -->
<g id="node16" class="node">
<title>Node15</title>
<g id="a_node16"><a xlink:href="d3/d9a/classo2_1_1devices_1_1O2PrimaryServerDevice.html" target="_top" xlink:title="o2::devices::O2PrimaryServer\lDevice">
<polygon fill="none" stroke="#000000" points="123.5,-88.5 123.5,-118.5 284.5,-118.5 284.5,-88.5 123.5,-88.5"/>
<text text-anchor="start" x="131.5" y="-106.5" font-family="Helvetica,sans-Serif" font-size="10.00" fill="#000000">o2::devices::O2PrimaryServer</text>
<text text-anchor="middle" x="204" y="-95.5" font-family="Helvetica,sans-Serif" font-size="10.00" fill="#000000">Device</text>
</a>
</g>
</g>
<!-- Node0&#45;&gt;Node15 -->
<g id="edge15" class="edge">
<title>Node0&#45;&gt;Node15</title>
<path fill="none" stroke="#191970" d="M60.1966,-168.8275C75.1817,-156.2174 97.2326,-139.2873 119,-128.5 126.5803,-124.7434 134.8269,-121.447 143.1035,-118.5865"/>
<polygon fill="#191970" stroke="#191970" points="57.5397,-166.4965 52.2456,-175.6739 62.1073,-171.8011 57.5397,-166.4965"/>
</g>
<!-- Node16 -->
<g id="node17" class="node">
<title>Node16</title>
<g id="a_node17"><a xlink:href="db/dd9/classo2_1_1devices_1_1O2SimDevice.html" target="_top" xlink:title="o2::devices::O2SimDevice">
<polygon fill="none" stroke="#000000" points="132,-50 132,-69 276,-69 276,-50 132,-50"/>
<text text-anchor="middle" x="204" y="-57" font-family="Helvetica,sans-Serif" font-size="10.00" fill="#000000">o2::devices::O2SimDevice</text>
</a>
</g>
</g>
<!-- Node0&#45;&gt;Node16 -->
<g id="edge16" class="edge">
<title>Node0&#45;&gt;Node16</title>
<path fill="none" stroke="#191970" d="M49.7951,-166.7687C61.564,-142.4626 85.4668,-100.5625 119,-78.5 124.9371,-74.5938 131.5593,-71.4814 138.4148,-69.0031"/>
<polygon fill="#191970" stroke="#191970" points="46.5456,-165.4561 45.5015,-175.9993 52.8926,-168.4084 46.5456,-165.4561"/>
</g>
<!-- Node17 -->
<g id="node18" class="node">
<title>Node17</title>
<g id="a_node18"><a xlink:href="d4/d56/classo2_1_1framework_1_1DataProcessingDevice.html" target="_top" xlink:title="o2::framework::DataProcessing\lDevice">
<polygon fill="none" stroke="#000000" points="119,-.5 119,-30.5 289,-30.5 289,-.5 119,-.5"/>
<text text-anchor="start" x="127" y="-18.5" font-family="Helvetica,sans-Serif" font-size="10.00" fill="#000000">o2::framework::DataProcessing</text>
<text text-anchor="middle" x="204" y="-7.5" font-family="Helvetica,sans-Serif" font-size="10.00" fill="#000000">Device</text>
</a>
</g>
</g>
<!-- Node0&#45;&gt;Node17 -->
<g id="edge17" class="edge">
<title>Node0&#45;&gt;Node17</title>
<path fill="none" stroke="#191970" d="M46.6001,-166.002C55.7663,-134.8203 78.0021,-73.8572 119,-40.5 123.7726,-36.6168 129.129,-33.3368 134.7702,-30.5663"/>
<polygon fill="#191970" stroke="#191970" points="43.2119,-165.1224 43.8937,-175.6953 49.9541,-167.0049 43.2119,-165.1224"/>
</g>
<!-- Node4 -->
<g id="node5" class="node">
<title>Node4</title>
<g id="a_node5"><a xlink:href="d0/d59/classo2_1_1data__flow_1_1FakeTimeframeGeneratorDevice.html" target="_top" xlink:title="A device which writes to file the timeframes. ">
<polygon fill="none" stroke="#000000" points="327.5,-430.5 327.5,-460.5 491.5,-460.5 491.5,-430.5 327.5,-430.5"/>
<text text-anchor="start" x="335.5" y="-448.5" font-family="Helvetica,sans-Serif" font-size="10.00" fill="#000000">o2::data_flow::FakeTimeframe</text>
<text text-anchor="middle" x="409.5" y="-437.5" font-family="Helvetica,sans-Serif" font-size="10.00" fill="#000000">GeneratorDevice</text>
</a>
</g>
</g>
<!-- Node3&#45;&gt;Node4 -->
<g id="edge4" class="edge">
<title>Node3&#45;&gt;Node4</title>
<path fill="none" stroke="#191970" d="M269.807,-280.4657C276.8825,-283.3697 283.4955,-287.2758 289,-292.5 332.1746,-333.4764 283.0069,-379.3137 325,-421.5 328.4428,-424.9587 332.3453,-427.9277 336.5386,-430.4754"/>
<polygon fill="#191970" stroke="#191970" points="270.5272,-277.0134 259.9327,-277.0971 268.2671,-283.6385 270.5272,-277.0134"/>
</g>
<!-- Node5 -->
<g id="node6" class="node">
<title>Node5</title>
<g id="a_node6"><a xlink:href="d7/d94/classo2_1_1data__flow_1_1HeartbeatSampler.html" target="_top" xlink:title="A sampler for heartbeat triggers. ">
<polygon fill="none" stroke="#000000" points="341.5,-381.5 341.5,-411.5 477.5,-411.5 477.5,-381.5 341.5,-381.5"/>
<text text-anchor="start" x="349.5" y="-399.5" font-family="Helvetica,sans-Serif" font-size="10.00" fill="#000000">o2::data_flow::Heartbeat</text>
<text text-anchor="middle" x="409.5" y="-388.5" font-family="Helvetica,sans-Serif" font-size="10.00" fill="#000000">Sampler</text>
</a>
</g>
</g>
<!-- Node3&#45;&gt;Node5 -->
<g id="edge5" class="edge">
<title>Node3&#45;&gt;Node5</title>
<path fill="none" stroke="#191970" d="M269.3704,-281.412C276.4625,-284.1599 283.1984,-287.7707 289,-292.5 319.2208,-317.1354 295.4912,-347.0161 325,-372.5 329.8476,-376.6865 335.3791,-380.1452 341.2395,-383.0024"/>
<polygon fill="#191970" stroke="#191970" points="270.1259,-277.976 259.5329,-278.1755 267.9382,-284.6254 270.1259,-277.976"/>
</g>
<!-- Node6 -->
<g id="node7" class="node">
<title>Node6</title>
<g id="a_node7"><a xlink:href="d9/d2b/classo2_1_1data__flow_1_1SubframeBuilderDevice.html" target="_top" xlink:title="o2::data_flow::SubframeBuilder\lDevice">
<polygon fill="none" stroke="#000000" points="325,-332.5 325,-362.5 494,-362.5 494,-332.5 325,-332.5"/>
<text text-anchor="start" x="333" y="-350.5" font-family="Helvetica,sans-Serif" font-size="10.00" fill="#000000">o2::data_flow::SubframeBuilder</text>
<text text-anchor="middle" x="409.5" y="-339.5" font-family="Helvetica,sans-Serif" font-size="10.00" fill="#000000">Device</text>
</a>
</g>
</g>
<!-- Node3&#45;&gt;Node6 -->
<g id="edge6" class="edge">
<title>Node3&#45;&gt;Node6</title>
<path fill="none" stroke="#191970" d="M269.6445,-284.7192C276.3453,-286.8771 282.9171,-289.4451 289,-292.5 307.8688,-301.976 306.408,-313.4918 325,-323.5 331.3113,-326.8974 338.1534,-329.8564 345.1187,-332.4232"/>
<polygon fill="#191970" stroke="#191970" points="270.3567,-281.2812 259.7767,-281.8421 268.3973,-288.0014 270.3567,-281.2812"/>
</g>
<!-- Node7 -->
<g id="node8" class="node">
<title>Node7</title>
<g id="a_node8"><a xlink:href="d2/de9/classo2_1_1data__flow_1_1TimeframeReaderDevice.html" target="_top" xlink:title="A device which writes to file the timeframes. ">
<polygon fill="none" stroke="#000000" points="339,-283.5 339,-313.5 480,-313.5 480,-283.5 339,-283.5"/>
<text text-anchor="start" x="347" y="-301.5" font-family="Helvetica,sans-Serif" font-size="10.00" fill="#000000">o2::data_flow::Timeframe</text>
<text text-anchor="middle" x="409.5" y="-290.5" font-family="Helvetica,sans-Serif" font-size="10.00" fill="#000000">ReaderDevice</text>
</a>
</g>
</g>
<!-- Node3&#45;&gt;Node7 -->
<g id="edge7" class="edge">
<title>Node3&#45;&gt;Node7</title>
<path fill="none" stroke="#191970" d="M269.5416,-281.4734C291.5981,-284.1567 316.2992,-287.1617 338.7392,-289.8916"/>
<polygon fill="#191970" stroke="#191970" points="269.9608,-277.9987 259.6113,-280.2654 269.1154,-284.9475 269.9608,-277.9987"/>
</g>
<!-- Node8 -->
<g id="node9" class="node">
<title>Node8</title>
<g id="a_node9"><a xlink:href="de/df1/classo2_1_1data__flow_1_1TimeframeValidatorDevice.html" target="_top" xlink:title="A validating device for time frame data (coming from EPN) ">
<polygon fill="none" stroke="#000000" points="339,-234.5 339,-264.5 480,-264.5 480,-234.5 339,-234.5"/>
<text text-anchor="start" x="347" y="-252.5" font-family="Helvetica,sans-Serif" font-size="10.00" fill="#000000">o2::data_flow::Timeframe</text>
<text text-anchor="middle" x="409.5" y="-241.5" font-family="Helvetica,sans-Serif" font-size="10.00" fill="#000000">ValidatorDevice</text>
</a>
</g>
</g>
<!-- Node3&#45;&gt;Node8 -->
<g id="edge8" class="edge">
<title>Node3&#45;&gt;Node8</title>
<path fill="none" stroke="#191970" d="M269.8398,-265.8107C291.8206,-263.2436 316.4003,-260.373 338.7392,-257.764"/>
<polygon fill="#191970" stroke="#191970" points="269.1377,-262.3688 259.6113,-267.0053 269.9498,-269.3215 269.1377,-262.3688"/>
</g>
<!-- Node9 -->
<g id="node10" class="node">
<title>Node9</title>
<g id="a_node10"><a xlink:href="d7/d32/classo2_1_1data__flow_1_1TimeframeWriterDevice.html" target="_top" xlink:title="A device which writes to file the timeframes. ">
<polygon fill="none" stroke="#000000" points="339,-185.5 339,-215.5 480,-215.5 480,-185.5 339,-185.5"/>
<text text-anchor="start" x="347" y="-203.5" font-family="Helvetica,sans-Serif" font-size="10.00" fill="#000000">o2::data_flow::Timeframe</text>
<text text-anchor="middle" x="409.5" y="-192.5" font-family="Helvetica,sans-Serif" font-size="10.00" fill="#000000">WriterDevice</text>
</a>
</g>
</g>
<!-- Node3&#45;&gt;Node9 -->
<g id="edge9" class="edge">
<title>Node3&#45;&gt;Node9</title>
<path fill="none" stroke="#191970" d="M269.5441,-262.0767C276.2641,-259.9578 282.8679,-257.4547 289,-254.5 307.509,-245.5815 306.8036,-235.0401 325,-225.5 332.1812,-221.735 340.0108,-218.4574 347.9125,-215.6268"/>
<polygon fill="#191970" stroke="#191970" points="268.3034,-258.7914 259.6568,-264.9142 270.2343,-265.5199 268.3034,-258.7914"/>
</g>
<!-- Node10 -->
<g id="node11" class="node">
<title>Node10</title>
<g id="a_node11"><a xlink:href="d7/dd8/classo2_1_1utilities_1_1DataPublisherDevice.html" target="_top" xlink:title="o2::utilities::DataPublisher\lDevice">
<polygon fill="none" stroke="#000000" points="336.5,-136.5 336.5,-166.5 482.5,-166.5 482.5,-136.5 336.5,-136.5"/>
<text text-anchor="start" x="344.5" y="-154.5" font-family="Helvetica,sans-Serif" font-size="10.00" fill="#000000">o2::utilities::DataPublisher</text>
<text text-anchor="middle" x="409.5" y="-143.5" font-family="Helvetica,sans-Serif" font-size="10.00" fill="#000000">Device</text>
</a>
</g>
</g>
<!-- Node3&#45;&gt;Node10 -->
<g id="edge10" class="edge">
<title>Node3&#45;&gt;Node10</title>
<path fill="none" stroke="#191970" d="M269.622,-265.4192C276.6135,-262.6952 283.2568,-259.1362 289,-254.5 318.7088,-230.5173 296.1204,-201.4749 325,-176.5 329.513,-172.5972 334.6121,-169.3033 340.0139,-166.5234"/>
<polygon fill="#191970" stroke="#191970" points="268.3121,-262.1662 259.9244,-268.639 270.5178,-268.8096 268.3121,-262.1662"/>
</g>
<!-- Node11 -->
<g id="node12" class="node">
<title>Node11</title>
<g id="a_node12"><a xlink:href="de/d01/classO2MessageMonitor.html" target="_top" xlink:title="O2MessageMonitor">
<polygon fill="none" stroke="#000000" points="354.5,-98 354.5,-117 464.5,-117 464.5,-98 354.5,-98"/>
<text text-anchor="middle" x="409.5" y="-105" font-family="Helvetica,sans-Serif" font-size="10.00" fill="#000000">O2MessageMonitor</text>
</a>
</g>
</g>
<!-- Node3&#45;&gt;Node11 -->
<g id="edge11" class="edge">
<title>Node3&#45;&gt;Node11</title>
<path fill="none" stroke="#191970" d="M269.7968,-266.5235C276.874,-263.6214 283.4903,-259.7186 289,-254.5 331.9053,-213.8615 282.1203,-167.1655 325,-126.5 333.0736,-118.8433 343.5403,-114.0255 354.3419,-111.0452"/>
<polygon fill="#191970" stroke="#191970" points="268.2566,-263.3507 259.921,-269.8905 270.5155,-269.9763 268.2566,-263.3507"/>
</g>
</g>
</svg>
