<?xml version="1.0" encoding="UTF-8" standalone="no"?>
<!DOCTYPE svg PUBLIC "-//W3C//DTD SVG 1.1//EN"
 "http://www.w3.org/Graphics/SVG/1.1/DTD/svg11.dtd">
<!-- Generated by graphviz version 2.40.1 (20161225.0304)
 -->
<!-- Title: Graphical Class Hierarchy Pages: 1 -->
<svg width="248pt" height="332pt"
 viewBox="0.00 0.00 248.00 332.00" xmlns="http://www.w3.org/2000/svg" xmlns:xlink="http://www.w3.org/1999/xlink">
<g id="graph0" class="graph" transform="scale(1 1) rotate(0) translate(4 328)">
<title>Graphical Class Hierarchy</title>
<!-- Node0 -->
<g id="node1" class="node">
<title>Node0</title>
<g id="a_node1"><a xlink:href="d2/d9e/classFairTask.html" target="_top" xlink:title="FairTask">
<polygon fill="none" stroke="#000000" points="0,-152.5 0,-171.5 56,-171.5 56,-152.5 0,-152.5"/>
<text text-anchor="middle" x="28" y="-159.5" font-family="Helvetica,sans-Serif" font-size="10.00" fill="#000000">FairTask</text>
</a>
</g>
</g>
<!-- Node1 -->
<g id="node2" class="node">
<title>Node1</title>
<g id="a_node2"><a xlink:href="d1/d1d/classo2_1_1emcal_1_1DigitizerTask.html" target="_top" xlink:title="FairTask running EMCAL digitization. ">
<polygon fill="none" stroke="#000000" points="99,-304.5 99,-323.5 233,-323.5 233,-304.5 99,-304.5"/>
<text text-anchor="middle" x="166" y="-311.5" font-family="Helvetica,sans-Serif" font-size="10.00" fill="#000000">o2::emcal::DigitizerTask</text>
</a>
</g>
</g>
<!-- Node0&#45;&gt;Node1 -->
<g id="edge1" class="edge">
<title>Node0&#45;&gt;Node1</title>
<path fill="none" stroke="#191970" d="M31.9368,-181.6091C38.8455,-210.8156 55.9813,-265.465 92,-295 96.718,-298.8688 102.1298,-301.9606 107.8337,-304.4299"/>
<polygon fill="#191970" stroke="#191970" points="35.3384,-180.7811 29.7717,-171.7666 28.5019,-182.285 35.3384,-180.7811"/>
</g>
<!-- Node2 -->
<g id="node3" class="node">
<title>Node2</title>
<g id="a_node3"><a xlink:href="d5/d85/classo2_1_1ft0_1_1DigitizerTask.html" target="_top" xlink:title="o2::ft0::DigitizerTask">
<polygon fill="none" stroke="#000000" points="107.5,-266.5 107.5,-285.5 224.5,-285.5 224.5,-266.5 107.5,-266.5"/>
<text text-anchor="middle" x="166" y="-273.5" font-family="Helvetica,sans-Serif" font-size="10.00" fill="#000000">o2::ft0::DigitizerTask</text>
</a>
</g>
</g>
<!-- Node0&#45;&gt;Node2 -->
<g id="edge2" class="edge">
<title>Node0&#45;&gt;Node2</title>
<path fill="none" stroke="#191970" d="M35.7356,-180.9601C45.5731,-202.6597 64.634,-237.6838 92,-257 97.5266,-260.9009 103.788,-264.0016 110.2723,-266.4661"/>
<polygon fill="#191970" stroke="#191970" points="38.8299,-179.2973 31.6512,-171.5052 32.4039,-182.0733 38.8299,-179.2973"/>
</g>
<!-- Node3 -->
<g id="node4" class="node">
<title>Node3</title>
<g id="a_node4"><a xlink:href="db/db5/classo2_1_1its_1_1HitAnalysis.html" target="_top" xlink:title="o2::its::HitAnalysis">
<polygon fill="none" stroke="#000000" points="112,-228.5 112,-247.5 220,-247.5 220,-228.5 112,-228.5"/>
<text text-anchor="middle" x="166" y="-235.5" font-family="Helvetica,sans-Serif" font-size="10.00" fill="#000000">o2::its::HitAnalysis</text>
</a>
</g>
</g>
<!-- Node0&#45;&gt;Node3 -->
<g id="edge3" class="edge">
<title>Node0&#45;&gt;Node3</title>
<path fill="none" stroke="#191970" d="M43.0789,-179.3002C55.1106,-192.0631 73.0408,-208.9003 92,-219 99.258,-222.8664 107.3409,-225.9745 115.4234,-228.4647"/>
<polygon fill="#191970" stroke="#191970" points="45.3957,-176.6462 36.0726,-171.6132 40.2221,-181.3616 45.3957,-176.6462"/>
</g>
<!-- Node4 -->
<g id="node5" class="node">
<title>Node4</title>
<g id="a_node5"><a xlink:href="d4/d8d/classo2_1_1its_1_1TrivialClustererTask.html" target="_top" xlink:title="o2::its::TrivialClustererTask">
<polygon fill="none" stroke="#000000" points="92,-190.5 92,-209.5 240,-209.5 240,-190.5 92,-190.5"/>
<text text-anchor="middle" x="166" y="-197.5" font-family="Helvetica,sans-Serif" font-size="10.00" fill="#000000">o2::its::TrivialClustererTask</text>
</a>
</g>
</g>
<!-- Node0&#45;&gt;Node4 -->
<g id="edge4" class="edge">
<title>Node0&#45;&gt;Node4</title>
<path fill="none" stroke="#191970" d="M66.0158,-173.5395C74.5478,-176.0586 83.5697,-178.6672 92,-181 103.5052,-184.1836 116.0669,-187.4771 127.5203,-190.4097"/>
<polygon fill="#191970" stroke="#191970" points="66.8728,-170.1429 56.2899,-170.6454 64.8763,-176.8522 66.8728,-170.1429"/>
</g>
<!-- Node5 -->
<g id="node6" class="node">
<title>Node5</title>
<g id="a_node6"><a xlink:href="df/d23/classo2_1_1mft_1_1DigitizerTask.html" target="_top" xlink:title="o2::mft::DigitizerTask">
<polygon fill="none" stroke="#000000" points="105.5,-152.5 105.5,-171.5 226.5,-171.5 226.5,-152.5 105.5,-152.5"/>
<text text-anchor="middle" x="166" y="-159.5" font-family="Helvetica,sans-Serif" font-size="10.00" fill="#000000">o2::mft::DigitizerTask</text>
</a>
</g>
</g>
<!-- Node0&#45;&gt;Node5 -->
<g id="edge5" class="edge">
<title>Node0&#45;&gt;Node5</title>
<path fill="none" stroke="#191970" d="M66.4089,-162C78.4732,-162 92.1018,-162 105.3174,-162"/>
<polygon fill="#191970" stroke="#191970" points="66.2594,-158.5001 56.2594,-162 66.2593,-165.5001 66.2594,-158.5001"/>
</g>
<!-- Node6 -->
<g id="node7" class="node">
<title>Node6</title>
<g id="a_node7"><a xlink:href="d0/d8a/classo2_1_1mft_1_1TrackerTask.html" target="_top" xlink:title="o2::mft::TrackerTask">
<polygon fill="none" stroke="#000000" points="108.5,-114.5 108.5,-133.5 223.5,-133.5 223.5,-114.5 108.5,-114.5"/>
<text text-anchor="middle" x="166" y="-121.5" font-family="Helvetica,sans-Serif" font-size="10.00" fill="#000000">o2::mft::TrackerTask</text>
</a>
</g>
</g>
<!-- Node0&#45;&gt;Node6 -->
<g id="edge6" class="edge">
<title>Node0&#45;&gt;Node6</title>
<path fill="none" stroke="#191970" d="M66.0158,-150.4605C74.5478,-147.9414 83.5697,-145.3328 92,-143 103.5052,-139.8164 116.0669,-136.5229 127.5203,-133.5903"/>
<polygon fill="#191970" stroke="#191970" points="64.8763,-147.1478 56.2899,-153.3546 66.8728,-153.8571 64.8763,-147.1478"/>
</g>
<!-- Node7 -->
<g id="node8" class="node">
<title>Node7</title>
<g id="a_node8"><a xlink:href="d0/dc6/classo2_1_1tof_1_1ClustererTask.html" target="_top" xlink:title="o2::tof::ClustererTask">
<polygon fill="none" stroke="#000000" points="106,-76.5 106,-95.5 226,-95.5 226,-76.5 106,-76.5"/>
<text text-anchor="middle" x="166" y="-83.5" font-family="Helvetica,sans-Serif" font-size="10.00" fill="#000000">o2::tof::ClustererTask</text>
</a>
</g>
</g>
<!-- Node0&#45;&gt;Node7 -->
<g id="edge7" class="edge">
<title>Node0&#45;&gt;Node7</title>
<path fill="none" stroke="#191970" d="M43.0789,-144.6998C55.1106,-131.9369 73.0408,-115.0997 92,-105 99.258,-101.1336 107.3409,-98.0255 115.4234,-95.5353"/>
<polygon fill="#191970" stroke="#191970" points="40.2221,-142.6384 36.0726,-152.3868 45.3957,-147.3538 40.2221,-142.6384"/>
</g>
<!-- Node8 -->
<g id="node9" class="node">
<title>Node8</title>
<g id="a_node9"><a xlink:href="d0/dad/classo2_1_1tof_1_1DigitizerTask.html" target="_top" xlink:title="o2::tof::DigitizerTask">
<polygon fill="none" stroke="#000000" points="107.5,-38.5 107.5,-57.5 224.5,-57.5 224.5,-38.5 107.5,-38.5"/>
<text text-anchor="middle" x="166" y="-45.5" font-family="Helvetica,sans-Serif" font-size="10.00" fill="#000000">o2::tof::DigitizerTask</text>
</a>
</g>
</g>
<!-- Node0&#45;&gt;Node8 -->
<g id="edge8" class="edge">
<title>Node0&#45;&gt;Node8</title>
<path fill="none" stroke="#191970" d="M35.7356,-143.0399C45.5731,-121.3403 64.634,-86.3162 92,-67 97.5266,-63.0991 103.788,-59.9984 110.2723,-57.5339"/>
<polygon fill="#191970" stroke="#191970" points="32.4039,-141.9267 31.6512,-152.4948 38.8299,-144.7027 32.4039,-141.9267"/>
</g>
<!-- Node9 -->
<g id="node10" class="node">
<title>Node9</title>
<g id="a_node10"><a xlink:href="db/dc7/classo2_1_1tpc_1_1ClustererTask.html" target="_top" xlink:title="o2::tpc::ClustererTask">
<polygon fill="none" stroke="#000000" points="105,-.5 105,-19.5 227,-19.5 227,-.5 105,-.5"/>
<text text-anchor="middle" x="166" y="-7.5" font-family="Helvetica,sans-Serif" font-size="10.00" fill="#000000">o2::tpc::ClustererTask</text>
</a>
</g>
</g>
<!-- Node0&#45;&gt;Node9 -->
<g id="edge9" class="edge">
<title>Node0&#45;&gt;Node9</title>
<path fill="none" stroke="#191970" d="M31.9368,-142.3909C38.8455,-113.1844 55.9813,-58.535 92,-29 96.718,-25.1312 102.1298,-22.0394 107.8337,-19.5701"/>
<polygon fill="#191970" stroke="#191970" points="28.5019,-141.715 29.7717,-152.2334 35.3384,-143.2189 28.5019,-141.715"/>
</g>
</g>
</svg>
