<?xml version="1.0" encoding="UTF-8" standalone="no"?>
<!DOCTYPE svg PUBLIC "-//W3C//DTD SVG 1.1//EN"
 "http://www.w3.org/Graphics/SVG/1.1/DTD/svg11.dtd">
<!-- Generated by graphviz version 2.40.1 (20161225.0304)
 -->
<!-- Title: TimingInfo Pages: 1 -->
<svg width="100pt" height="171pt"
 viewBox="0.00 0.00 99.50 171.00" xmlns="http://www.w3.org/2000/svg" xmlns:xlink="http://www.w3.org/1999/xlink">
<g id="graph0" class="graph" transform="scale(1 1) rotate(0) translate(4 167)">
<title>TimingInfo</title>
<!-- Node1 -->
<g id="node1" class="node">
<title>Node1</title>
<polygon fill="#bfbfbf" stroke="#000000" points="0,-.5 0,-57.5 69,-57.5 69,-.5 0,-.5"/>
<text text-anchor="middle" x="34.5" y="-45.5" font-family="Helvetica,sans-Serif" font-size="10.00" fill="#000000">TimingInfo</text>
<polyline fill="none" stroke="#000000" points="0,-38.5 69,-38.5 "/>
<text text-anchor="middle" x="34.5" y="-26.5" font-family="Helvetica,sans-Serif" font-size="10.00" fill="#000000"> </text>
<polyline fill="none" stroke="#000000" points="0,-19.5 69,-19.5 "/>
<text text-anchor="middle" x="34.5" y="-7.5" font-family="Helvetica,sans-Serif" font-size="10.00" fill="#000000"> </text>
</g>
<!-- Node2 -->
<g id="node2" class="node">
<title>Node2</title>
<polygon fill="none" stroke="#bfbfbf" points="12,-105.5 12,-162.5 57,-162.5 57,-105.5 12,-105.5"/>
<text text-anchor="middle" x="34.5" y="-150.5" font-family="Helvetica,sans-Serif" font-size="10.00" fill="#000000">size_t</text>
<polyline fill="none" stroke="#bfbfbf" points="12,-143.5 57,-143.5 "/>
<text text-anchor="middle" x="34.5" y="-131.5" font-family="Helvetica,sans-Serif" font-size="10.00" fill="#000000"> </text>
<polyline fill="none" stroke="#bfbfbf" points="12,-124.5 57,-124.5 "/>
<text text-anchor="middle" x="34.5" y="-112.5" font-family="Helvetica,sans-Serif" font-size="10.00" fill="#000000"> </text>
</g>
<!-- Node2&#45;&gt;Node1 -->
<g id="edge1" class="edge">
<title>Node2&#45;&gt;Node1</title>
<path fill="none" stroke="#404040" d="M34.5,-105.3083C34.5,-94.4281 34.5,-81.817 34.5,-70.0192"/>
<polygon fill="none" stroke="#404040" points="34.5001,-69.657 30.5,-63.6571 34.5,-57.657 38.5,-63.657 34.5001,-69.657"/>
<text text-anchor="middle" x="63" y="-79" font-family="Helvetica,sans-Serif" font-size="10.00" fill="#000000"> +timeslice</text>
</g>
</g>
</svg>
