<?xml version="1.0" encoding="UTF-8" standalone="no"?>
<!DOCTYPE svg PUBLIC "-//W3C//DTD SVG 1.1//EN"
 "http://www.w3.org/Graphics/SVG/1.1/DTD/svg11.dtd">
<!-- Generated by graphviz version 2.40.1 (20161225.0304)
 -->
<!-- Title: /home/travis/build/AliceO2Group/AliceO2/GPU/TPCFastTransformation/SplineHelper1D.cxx Pages: 1 -->
<svg width="854pt" height="341pt"
 viewBox="0.00 0.00 853.50 341.00" xmlns="http://www.w3.org/2000/svg" xmlns:xlink="http://www.w3.org/1999/xlink">
<g id="graph0" class="graph" transform="scale(1 1) rotate(0) translate(4 337)">
<title>/home/travis/build/AliceO2Group/AliceO2/GPU/TPCFastTransformation/SplineHelper1D.cxx</title>
<!-- Node0 -->
<g id="node1" class="node">
<title>Node0</title>
<polygon fill="#bfbfbf" stroke="#000000" points="514,-280.5 514,-332.5 669,-332.5 669,-280.5 514,-280.5"/>
<text text-anchor="start" x="522" y="-320.5" font-family="Helvetica,sans-Serif" font-size="10.00" fill="#000000">/home/travis/build</text>
<text text-anchor="start" x="522" y="-309.5" font-family="Helvetica,sans-Serif" font-size="10.00" fill="#000000">/AliceO2Group/AliceO2</text>
<text text-anchor="start" x="522" y="-298.5" font-family="Helvetica,sans-Serif" font-size="10.00" fill="#000000">/GPU/TPCFastTransformation</text>
<text text-anchor="middle" x="591.5" y="-287.5" font-family="Helvetica,sans-Serif" font-size="10.00" fill="#000000">/SplineHelper1D.cxx</text>
</g>
<!-- Node1 -->
<g id="node2" class="node">
<title>Node1</title>
<g id="a_node2"><a xlink:href="../../d2/da7/SplineHelper1D_8h.html" target="_top" xlink:title="Definition of SplineHelper1D class. ">
<polygon fill="none" stroke="#000000" points="363,-224.5 363,-243.5 464,-243.5 464,-224.5 363,-224.5"/>
<text text-anchor="middle" x="413.5" y="-231.5" font-family="Helvetica,sans-Serif" font-size="10.00" fill="#000000">SplineHelper1D.h</text>
</a>
</g>
</g>
<!-- Node0&#45;&gt;Node1 -->
<g id="edge1" class="edge">
<title>Node0&#45;&gt;Node1</title>
<path fill="none" stroke="#191970" d="M527.4894,-280.4283C500.0538,-269.2536 469.1705,-256.6748 446.4768,-247.4316"/>
<polygon fill="#191970" stroke="#191970" points="447.5593,-244.0933 436.9778,-243.5626 444.9188,-250.5762 447.5593,-244.0933"/>
</g>
<!-- Node20 -->
<g id="node21" class="node">
<title>Node20</title>
<polygon fill="none" stroke="#bfbfbf" points="482.5,-224.5 482.5,-243.5 538.5,-243.5 538.5,-224.5 482.5,-224.5"/>
<text text-anchor="middle" x="510.5" y="-231.5" font-family="Helvetica,sans-Serif" font-size="10.00" fill="#000000">TMath.h</text>
</g>
<!-- Node0&#45;&gt;Node20 -->
<g id="edge24" class="edge">
<title>Node0&#45;&gt;Node20</title>
<path fill="none" stroke="#191970" d="M562.2571,-280.3258C551.0699,-270.3126 538.6378,-259.1851 528.7624,-250.346"/>
<polygon fill="#191970" stroke="#191970" points="530.9373,-247.5954 521.1518,-243.534 526.2688,-252.8113 530.9373,-247.5954"/>
</g>
<!-- Node21 -->
<g id="node22" class="node">
<title>Node21</title>
<polygon fill="none" stroke="#bfbfbf" points="556.5,-224.5 556.5,-243.5 626.5,-243.5 626.5,-224.5 556.5,-224.5"/>
<text text-anchor="middle" x="591.5" y="-231.5" font-family="Helvetica,sans-Serif" font-size="10.00" fill="#000000">TMatrixD.h</text>
</g>
<!-- Node0&#45;&gt;Node21 -->
<g id="edge25" class="edge">
<title>Node0&#45;&gt;Node21</title>
<path fill="none" stroke="#191970" d="M591.5,-280.3258C591.5,-271.5142 591.5,-261.8397 591.5,-253.621"/>
<polygon fill="#191970" stroke="#191970" points="595.0001,-253.534 591.5,-243.534 588.0001,-253.534 595.0001,-253.534"/>
</g>
<!-- Node22 -->
<g id="node23" class="node">
<title>Node22</title>
<polygon fill="none" stroke="#bfbfbf" points="644.5,-224.5 644.5,-243.5 714.5,-243.5 714.5,-224.5 644.5,-224.5"/>
<text text-anchor="middle" x="679.5" y="-231.5" font-family="Helvetica,sans-Serif" font-size="10.00" fill="#000000">TVectorD.h</text>
</g>
<!-- Node0&#45;&gt;Node22 -->
<g id="edge26" class="edge">
<title>Node0&#45;&gt;Node22</title>
<path fill="none" stroke="#191970" d="M623.27,-280.3258C635.5456,-270.2124 649.2008,-258.9624 659.9804,-250.0815"/>
<polygon fill="#191970" stroke="#191970" points="662.4352,-252.594 667.9277,-243.534 657.9841,-247.1913 662.4352,-252.594"/>
</g>
<!-- Node23 -->
<g id="node24" class="node">
<title>Node23</title>
<polygon fill="none" stroke="#bfbfbf" points="732.5,-224.5 732.5,-243.5 818.5,-243.5 818.5,-224.5 732.5,-224.5"/>
<text text-anchor="middle" x="775.5" y="-231.5" font-family="Helvetica,sans-Serif" font-size="10.00" fill="#000000">TDecompBK.h</text>
</g>
<!-- Node0&#45;&gt;Node23 -->
<g id="edge27" class="edge">
<title>Node0&#45;&gt;Node23</title>
<path fill="none" stroke="#191970" d="M657.6683,-280.4283C686.1559,-269.2035 718.2393,-256.5619 741.7267,-247.3074"/>
<polygon fill="#191970" stroke="#191970" points="743.2101,-250.4849 751.2308,-243.5626 740.6439,-243.9722 743.2101,-250.4849"/>
</g>
<!-- Node2 -->
<g id="node3" class="node">
<title>Node2</title>
<polygon fill="none" stroke="#bfbfbf" points="143,-168.5 143,-187.5 190,-187.5 190,-168.5 143,-168.5"/>
<text text-anchor="middle" x="166.5" y="-175.5" font-family="Helvetica,sans-Serif" font-size="10.00" fill="#000000">cmath</text>
</g>
<!-- Node1&#45;&gt;Node2 -->
<g id="edge2" class="edge">
<title>Node1&#45;&gt;Node2</title>
<path fill="none" stroke="#191970" d="M362.7979,-224.5216C321.255,-216.4464 260.7734,-203.9868 199.9561,-188.2288"/>
<polygon fill="#191970" stroke="#191970" points="200.7558,-184.8203 190.1952,-185.6716 198.9817,-191.5918 200.7558,-184.8203"/>
</g>
<!-- Node3 -->
<g id="node4" class="node">
<title>Node3</title>
<polygon fill="none" stroke="#bfbfbf" points="208,-168.5 208,-187.5 255,-187.5 255,-168.5 208,-168.5"/>
<text text-anchor="middle" x="231.5" y="-175.5" font-family="Helvetica,sans-Serif" font-size="10.00" fill="#000000">vector</text>
</g>
<!-- Node1&#45;&gt;Node3 -->
<g id="edge3" class="edge">
<title>Node1&#45;&gt;Node3</title>
<path fill="none" stroke="#191970" d="M382.2131,-224.3733C349.5156,-214.3125 298.4031,-198.5856 264.928,-188.2855"/>
<polygon fill="#191970" stroke="#191970" points="265.7324,-184.8712 255.1453,-185.2755 263.6738,-191.5616 265.7324,-184.8712"/>
</g>
<!-- Node4 -->
<g id="node5" class="node">
<title>Node4</title>
<g id="a_node5"><a xlink:href="../../df/d21/GPUCommonDef_8h.html" target="_top" xlink:title="GPUCommonDef.h">
<polygon fill="none" stroke="#000000" points="570,-56.5 570,-75.5 677,-75.5 677,-56.5 570,-56.5"/>
<text text-anchor="middle" x="623.5" y="-63.5" font-family="Helvetica,sans-Serif" font-size="10.00" fill="#000000">GPUCommonDef.h</text>
</a>
</g>
</g>
<!-- Node1&#45;&gt;Node4 -->
<g id="edge4" class="edge">
<title>Node1&#45;&gt;Node4</title>
<path fill="none" stroke="#191970" d="M426.9519,-224.3239C439.6114,-215.1464 459.0319,-200.8831 475.5,-188 522.561,-151.1839 576.3616,-106.0401 604.3328,-82.3306"/>
<polygon fill="#191970" stroke="#191970" points="606.7915,-84.8344 612.1483,-75.6935 602.2604,-79.4988 606.7915,-84.8344"/>
</g>
<!-- Node7 -->
<g id="node8" class="node">
<title>Node7</title>
<g id="a_node8"><a xlink:href="../../d2/d45/GPUCommonRtypes_8h.html" target="_top" xlink:title="GPUCommonRtypes.h">
<polygon fill="none" stroke="#000000" points="0,-56.5 0,-75.5 125,-75.5 125,-56.5 0,-56.5"/>
<text text-anchor="middle" x="62.5" y="-63.5" font-family="Helvetica,sans-Serif" font-size="10.00" fill="#000000">GPUCommonRtypes.h</text>
</a>
</g>
</g>
<!-- Node1&#45;&gt;Node7 -->
<g id="edge7" class="edge">
<title>Node1&#45;&gt;Node7</title>
<path fill="none" stroke="#191970" d="M393.623,-224.4862C334.757,-196.311 161.1119,-113.1988 91.6772,-79.9651"/>
<polygon fill="#191970" stroke="#191970" points="93.1251,-76.778 82.594,-75.6177 90.103,-83.092 93.1251,-76.778"/>
</g>
<!-- Node9 -->
<g id="node10" class="node">
<title>Node9</title>
<g id="a_node10"><a xlink:href="../../de/da6/Spline1D_8h.html" target="_top" xlink:title="Definition of Spline1D class. ">
<polygon fill="none" stroke="#000000" points="379,-168.5 379,-187.5 448,-187.5 448,-168.5 379,-168.5"/>
<text text-anchor="middle" x="413.5" y="-175.5" font-family="Helvetica,sans-Serif" font-size="10.00" fill="#000000">Spline1D.h</text>
</a>
</g>
</g>
<!-- Node1&#45;&gt;Node9 -->
<g id="edge9" class="edge">
<title>Node1&#45;&gt;Node9</title>
<path fill="none" stroke="#191970" d="M413.5,-224.2455C413.5,-216.9382 413.5,-206.6944 413.5,-197.7046"/>
<polygon fill="#191970" stroke="#191970" points="417.0001,-197.6426 413.5,-187.6427 410.0001,-197.6427 417.0001,-197.6426"/>
</g>
<!-- Node18 -->
<g id="node19" class="node">
<title>Node18</title>
<polygon fill="none" stroke="#bfbfbf" points="444,-112.5 444,-131.5 509,-131.5 509,-112.5 444,-112.5"/>
<text text-anchor="middle" x="476.5" y="-119.5" font-family="Helvetica,sans-Serif" font-size="10.00" fill="#000000">functional</text>
</g>
<!-- Node1&#45;&gt;Node18 -->
<g id="edge22" class="edge">
<title>Node1&#45;&gt;Node18</title>
<path fill="none" stroke="#191970" d="M425.6346,-224.2631C435.552,-215.6942 449.2383,-202.3714 457.5,-188 465.764,-173.6247 470.6563,-155.3918 473.4014,-141.7342"/>
<polygon fill="#191970" stroke="#191970" points="476.9124,-141.9833 475.2293,-131.523 470.0219,-140.7498 476.9124,-141.9833"/>
</g>
<!-- Node19 -->
<g id="node20" class="node">
<title>Node19</title>
<polygon fill="none" stroke="#bfbfbf" points="565.5,-168.5 565.5,-187.5 609.5,-187.5 609.5,-168.5 565.5,-168.5"/>
<text text-anchor="middle" x="587.5" y="-175.5" font-family="Helvetica,sans-Serif" font-size="10.00" fill="#000000">string</text>
</g>
<!-- Node1&#45;&gt;Node19 -->
<g id="edge23" class="edge">
<title>Node1&#45;&gt;Node19</title>
<path fill="none" stroke="#191970" d="M443.4117,-224.3733C474.7125,-214.2994 523.6647,-198.5447 555.666,-188.2454"/>
<polygon fill="#191970" stroke="#191970" points="556.9697,-191.5027 565.4166,-185.1073 554.8251,-184.8393 556.9697,-191.5027"/>
</g>
<!-- Node5 -->
<g id="node6" class="node">
<title>Node5</title>
<g id="a_node6"><a xlink:href="../../d5/d93/GPUCommonDefSettings_8h.html" target="_top" xlink:title="GPUCommonDefSettings.h">
<polygon fill="none" stroke="#000000" points="697.5,-.5 697.5,-19.5 845.5,-19.5 845.5,-.5 697.5,-.5"/>
<text text-anchor="middle" x="771.5" y="-7.5" font-family="Helvetica,sans-Serif" font-size="10.00" fill="#000000">GPUCommonDefSettings.h</text>
</a>
</g>
</g>
<!-- Node4&#45;&gt;Node5 -->
<g id="edge5" class="edge">
<title>Node4&#45;&gt;Node5</title>
<path fill="none" stroke="#191970" d="M648.9421,-56.3733C673.2326,-47.1822 710.0208,-33.2624 736.9543,-23.0713"/>
<polygon fill="#191970" stroke="#191970" points="738.2757,-26.3136 746.3899,-19.5011 735.7984,-19.7666 738.2757,-26.3136"/>
</g>
<!-- Node6 -->
<g id="node7" class="node">
<title>Node6</title>
<g id="a_node7"><a xlink:href="../../da/d5a/GPUCommonDefAPI_8h.html" target="_top" xlink:title="GPUCommonDefAPI.h">
<polygon fill="none" stroke="#000000" points="555.5,-.5 555.5,-19.5 679.5,-19.5 679.5,-.5 555.5,-.5"/>
<text text-anchor="middle" x="617.5" y="-7.5" font-family="Helvetica,sans-Serif" font-size="10.00" fill="#000000">GPUCommonDefAPI.h</text>
</a>
</g>
</g>
<!-- Node4&#45;&gt;Node6 -->
<g id="edge6" class="edge">
<title>Node4&#45;&gt;Node6</title>
<path fill="none" stroke="#191970" d="M622.4549,-56.2455C621.672,-48.9382 620.5744,-38.6944 619.6112,-29.7046"/>
<polygon fill="#191970" stroke="#191970" points="623.0786,-29.2129 618.5331,-19.6427 616.1185,-29.9587 623.0786,-29.2129"/>
</g>
<!-- Node8 -->
<g id="node9" class="node">
<title>Node8</title>
<polygon fill="none" stroke="#bfbfbf" points="33,-.5 33,-19.5 92,-19.5 92,-.5 33,-.5"/>
<text text-anchor="middle" x="62.5" y="-7.5" font-family="Helvetica,sans-Serif" font-size="10.00" fill="#000000">Rtypes.h</text>
</g>
<!-- Node7&#45;&gt;Node8 -->
<g id="edge8" class="edge">
<title>Node7&#45;&gt;Node8</title>
<path fill="none" stroke="#191970" d="M62.5,-56.2455C62.5,-48.9382 62.5,-38.6944 62.5,-29.7046"/>
<polygon fill="#191970" stroke="#191970" points="66.0001,-29.6426 62.5,-19.6427 59.0001,-29.6427 66.0001,-29.6426"/>
</g>
<!-- Node9&#45;&gt;Node4 -->
<g id="edge10" class="edge">
<title>Node9&#45;&gt;Node4</title>
<path fill="none" stroke="#191970" d="M413.8996,-168.3778C415.0344,-153.9699 419.3338,-126.8953 435.5,-112 445.1143,-103.1415 512.5156,-88.0538 563.8923,-77.5842"/>
<polygon fill="#191970" stroke="#191970" points="564.8237,-80.9669 573.9322,-75.5551 563.437,-74.1056 564.8237,-80.9669"/>
</g>
<!-- Node10 -->
<g id="node11" class="node">
<title>Node10</title>
<g id="a_node11"><a xlink:href="../../db/dff/FlatObject_8h.html" target="_top" xlink:title="Definition of FlatObject class. ">
<polygon fill="none" stroke="#000000" points="312,-112.5 312,-131.5 387,-131.5 387,-112.5 312,-112.5"/>
<text text-anchor="middle" x="349.5" y="-119.5" font-family="Helvetica,sans-Serif" font-size="10.00" fill="#000000">FlatObject.h</text>
</a>
</g>
</g>
<!-- Node9&#45;&gt;Node10 -->
<g id="edge11" class="edge">
<title>Node9&#45;&gt;Node10</title>
<path fill="none" stroke="#191970" d="M402.3521,-168.2455C392.9913,-160.0549 379.4142,-148.1749 368.3651,-138.5069"/>
<polygon fill="#191970" stroke="#191970" points="370.3508,-135.5937 360.5202,-131.6427 365.7412,-140.8618 370.3508,-135.5937"/>
</g>
<!-- Node9&#45;&gt;Node18 -->
<g id="edge21" class="edge">
<title>Node9&#45;&gt;Node18</title>
<path fill="none" stroke="#191970" d="M424.4738,-168.2455C433.6882,-160.0549 447.0532,-148.1749 457.9297,-138.5069"/>
<polygon fill="#191970" stroke="#191970" points="460.5032,-140.9023 465.652,-131.6427 455.8526,-135.6704 460.5032,-140.9023"/>
</g>
<!-- Node10&#45;&gt;Node4 -->
<g id="edge16" class="edge">
<title>Node10&#45;&gt;Node4</title>
<path fill="none" stroke="#191970" d="M387.024,-114.3309C433.4261,-104.8472 512.8611,-88.6123 566.735,-77.6016"/>
<polygon fill="#191970" stroke="#191970" points="567.7205,-80.9726 576.8171,-75.541 566.3188,-74.1144 567.7205,-80.9726"/>
</g>
<!-- Node10&#45;&gt;Node7 -->
<g id="edge17" class="edge">
<title>Node10&#45;&gt;Node7</title>
<path fill="none" stroke="#191970" d="M311.9798,-114.679C263.4603,-105.2118 178.419,-88.6183 121.2854,-77.4703"/>
<polygon fill="#191970" stroke="#191970" points="121.7953,-74.0039 111.3101,-75.5239 120.4547,-80.8743 121.7953,-74.0039"/>
</g>
<!-- Node11 -->
<g id="node12" class="node">
<title>Node11</title>
<polygon fill="none" stroke="#bfbfbf" points="143,-56.5 143,-75.5 196,-75.5 196,-56.5 143,-56.5"/>
<text text-anchor="middle" x="169.5" y="-63.5" font-family="Helvetica,sans-Serif" font-size="10.00" fill="#000000">cstddef</text>
</g>
<!-- Node10&#45;&gt;Node11 -->
<g id="edge12" class="edge">
<title>Node10&#45;&gt;Node11</title>
<path fill="none" stroke="#191970" d="M318.5569,-112.3733C287.3118,-102.6526 239.0646,-87.6423 205.9764,-77.3482"/>
<polygon fill="#191970" stroke="#191970" points="206.8183,-73.9447 196.23,-74.316 204.7388,-80.6287 206.8183,-73.9447"/>
</g>
<!-- Node12 -->
<g id="node13" class="node">
<title>Node12</title>
<polygon fill="none" stroke="#bfbfbf" points="214.5,-56.5 214.5,-75.5 272.5,-75.5 272.5,-56.5 214.5,-56.5"/>
<text text-anchor="middle" x="243.5" y="-63.5" font-family="Helvetica,sans-Serif" font-size="10.00" fill="#000000">memory</text>
</g>
<!-- Node10&#45;&gt;Node12 -->
<g id="edge13" class="edge">
<title>Node10&#45;&gt;Node12</title>
<path fill="none" stroke="#191970" d="M331.0362,-112.2455C314.3926,-103.4527 289.7007,-90.4079 270.7808,-80.4125"/>
<polygon fill="#191970" stroke="#191970" points="272.2291,-77.2193 261.7522,-75.6427 268.9592,-83.4086 272.2291,-77.2193"/>
</g>
<!-- Node13 -->
<g id="node14" class="node">
<title>Node13</title>
<polygon fill="none" stroke="#bfbfbf" points="290.5,-56.5 290.5,-75.5 340.5,-75.5 340.5,-56.5 290.5,-56.5"/>
<text text-anchor="middle" x="315.5" y="-63.5" font-family="Helvetica,sans-Serif" font-size="10.00" fill="#000000">cstring</text>
</g>
<!-- Node10&#45;&gt;Node13 -->
<g id="edge14" class="edge">
<title>Node10&#45;&gt;Node13</title>
<path fill="none" stroke="#191970" d="M343.5777,-112.2455C338.8973,-104.5367 332.2327,-93.5598 326.5711,-84.2348"/>
<polygon fill="#191970" stroke="#191970" points="329.5361,-82.3741 321.3545,-75.6427 323.5525,-86.007 329.5361,-82.3741"/>
</g>
<!-- Node14 -->
<g id="node15" class="node">
<title>Node14</title>
<polygon fill="none" stroke="#bfbfbf" points="358.5,-56.5 358.5,-75.5 410.5,-75.5 410.5,-56.5 358.5,-56.5"/>
<text text-anchor="middle" x="384.5" y="-63.5" font-family="Helvetica,sans-Serif" font-size="10.00" fill="#000000">cassert</text>
</g>
<!-- Node10&#45;&gt;Node14 -->
<g id="edge15" class="edge">
<title>Node10&#45;&gt;Node14</title>
<path fill="none" stroke="#191970" d="M355.5965,-112.2455C360.4145,-104.5367 367.2751,-93.5598 373.1032,-84.2348"/>
<polygon fill="#191970" stroke="#191970" points="376.1413,-85.9777 378.4733,-75.6427 370.2053,-82.2677 376.1413,-85.9777"/>
</g>
<!-- Node15 -->
<g id="node16" class="node">
<title>Node15</title>
<g id="a_node16"><a xlink:href="../../df/d5b/GPUCommonLogger_8h.html" target="_top" xlink:title="GPUCommonLogger.h">
<polygon fill="none" stroke="#000000" points="429,-56.5 429,-75.5 552,-75.5 552,-56.5 429,-56.5"/>
<text text-anchor="middle" x="490.5" y="-63.5" font-family="Helvetica,sans-Serif" font-size="10.00" fill="#000000">GPUCommonLogger.h</text>
</a>
</g>
</g>
<!-- Node10&#45;&gt;Node15 -->
<g id="edge18" class="edge">
<title>Node10&#45;&gt;Node15</title>
<path fill="none" stroke="#191970" d="M373.7388,-112.3733C396.7789,-103.2226 431.6214,-89.3844 457.2501,-79.2057"/>
<polygon fill="#191970" stroke="#191970" points="458.5756,-82.4452 466.5775,-75.5011 455.9918,-75.9395 458.5756,-82.4452"/>
</g>
<!-- Node16 -->
<g id="node17" class="node">
<title>Node16</title>
<polygon fill="none" stroke="#bfbfbf" points="466.5,-.5 466.5,-19.5 526.5,-19.5 526.5,-.5 466.5,-.5"/>
<text text-anchor="middle" x="496.5" y="-7.5" font-family="Helvetica,sans-Serif" font-size="10.00" fill="#000000">iostream</text>
</g>
<!-- Node15&#45;&gt;Node16 -->
<g id="edge19" class="edge">
<title>Node15&#45;&gt;Node16</title>
<path fill="none" stroke="#191970" d="M491.5451,-56.2455C492.328,-48.9382 493.4256,-38.6944 494.3888,-29.7046"/>
<polygon fill="#191970" stroke="#191970" points="497.8815,-29.9587 495.4669,-19.6427 490.9214,-29.2129 497.8815,-29.9587"/>
</g>
<!-- Node17 -->
<g id="node18" class="node">
<title>Node17</title>
<polygon fill="none" stroke="#bfbfbf" points="402.5,-.5 402.5,-19.5 448.5,-19.5 448.5,-.5 402.5,-.5"/>
<text text-anchor="middle" x="425.5" y="-7.5" font-family="Helvetica,sans-Serif" font-size="10.00" fill="#000000">cstdio</text>
</g>
<!-- Node15&#45;&gt;Node17 -->
<g id="edge20" class="edge">
<title>Node15&#45;&gt;Node17</title>
<path fill="none" stroke="#191970" d="M479.1779,-56.2455C469.5777,-47.9746 455.6108,-35.9416 444.3305,-26.2232"/>
<polygon fill="#191970" stroke="#191970" points="446.553,-23.5182 436.6924,-19.6427 441.984,-28.8214 446.553,-23.5182"/>
</g>
</g>
</svg>
