<?xml version="1.0" encoding="UTF-8" standalone="no"?>
<!DOCTYPE svg PUBLIC "-//W3C//DTD SVG 1.1//EN"
 "http://www.w3.org/Graphics/SVG/1.1/DTD/svg11.dtd">
<!-- Generated by graphviz version 2.40.1 (20161225.0304)
 -->
<!-- Title: /home/travis/build/AliceO2Group/AliceO2/GPU/GPUTracking/Standalone/display/GPUDisplayConfig.h Pages: 1 -->
<svg width="484pt" height="173pt"
 viewBox="0.00 0.00 483.50 173.00" xmlns="http://www.w3.org/2000/svg" xmlns:xlink="http://www.w3.org/1999/xlink">
<g id="graph0" class="graph" transform="scale(1 1) rotate(0) translate(4 169)">
<title>/home/travis/build/AliceO2Group/AliceO2/GPU/GPUTracking/Standalone/display/GPUDisplayConfig.h</title>
<!-- Node0 -->
<g id="node1" class="node">
<title>Node0</title>
<polygon fill="#bfbfbf" stroke="#000000" points="200.5,-112.5 200.5,-164.5 363.5,-164.5 363.5,-112.5 200.5,-112.5"/>
<text text-anchor="start" x="208.5" y="-152.5" font-family="Helvetica,sans-Serif" font-size="10.00" fill="#000000">/home/travis/build</text>
<text text-anchor="start" x="208.5" y="-141.5" font-family="Helvetica,sans-Serif" font-size="10.00" fill="#000000">/AliceO2Group/AliceO2</text>
<text text-anchor="start" x="208.5" y="-130.5" font-family="Helvetica,sans-Serif" font-size="10.00" fill="#000000">/GPU/GPUTracking/Standalone</text>
<text text-anchor="middle" x="282" y="-119.5" font-family="Helvetica,sans-Serif" font-size="10.00" fill="#000000">/display/GPUDisplayConfig.h</text>
</g>
<!-- Node1 -->
<g id="node2" class="node">
<title>Node1</title>
<g id="a_node2"><a xlink:href="../../df/d21/GPUCommonDef_8h.html" target="_top" xlink:title="GPUCommonDef.h">
<polygon fill="none" stroke="#000000" points="171.5,-56.5 171.5,-75.5 278.5,-75.5 278.5,-56.5 171.5,-56.5"/>
<text text-anchor="middle" x="225" y="-63.5" font-family="Helvetica,sans-Serif" font-size="10.00" fill="#000000">GPUCommonDef.h</text>
</a>
</g>
</g>
<!-- Node0&#45;&gt;Node1 -->
<g id="edge1" class="edge">
<title>Node0&#45;&gt;Node1</title>
<path fill="none" stroke="#191970" d="M261.4217,-112.3258C253.8641,-102.7131 245.4992,-92.0735 238.6937,-83.4174"/>
<polygon fill="#191970" stroke="#191970" points="241.4278,-81.2321 232.4957,-75.534 235.9249,-85.5586 241.4278,-81.2321"/>
</g>
<!-- Node4 -->
<g id="node5" class="node">
<title>Node4</title>
<g id="a_node5"><a xlink:href="../../da/d08/qconfig_8h.html" target="_top" xlink:title="utils/qconfig.h">
<polygon fill="none" stroke="#000000" points="296.5,-56.5 296.5,-75.5 381.5,-75.5 381.5,-56.5 296.5,-56.5"/>
<text text-anchor="middle" x="339" y="-63.5" font-family="Helvetica,sans-Serif" font-size="10.00" fill="#000000">utils/qconfig.h</text>
</a>
</g>
</g>
<!-- Node0&#45;&gt;Node4 -->
<g id="edge4" class="edge">
<title>Node0&#45;&gt;Node4</title>
<path fill="none" stroke="#191970" d="M302.5783,-112.3258C310.1359,-102.7131 318.5008,-92.0735 325.3063,-83.4174"/>
<polygon fill="#191970" stroke="#191970" points="328.0751,-85.5586 331.5043,-75.534 322.5722,-81.2321 328.0751,-85.5586"/>
</g>
<!-- Node2 -->
<g id="node3" class="node">
<title>Node2</title>
<g id="a_node3"><a xlink:href="../../d5/d93/GPUCommonDefSettings_8h.html" target="_top" xlink:title="GPUCommonDefSettings.h">
<polygon fill="none" stroke="#000000" points="0,-.5 0,-19.5 148,-19.5 148,-.5 0,-.5"/>
<text text-anchor="middle" x="74" y="-7.5" font-family="Helvetica,sans-Serif" font-size="10.00" fill="#000000">GPUCommonDefSettings.h</text>
</a>
</g>
</g>
<!-- Node1&#45;&gt;Node2 -->
<g id="edge2" class="edge">
<title>Node1&#45;&gt;Node2</title>
<path fill="none" stroke="#191970" d="M199.0422,-56.3733C174.2593,-47.1822 136.7254,-33.2624 109.246,-23.0713"/>
<polygon fill="#191970" stroke="#191970" points="110.2121,-19.6968 99.6191,-19.5011 107.7781,-26.26 110.2121,-19.6968"/>
</g>
<!-- Node3 -->
<g id="node4" class="node">
<title>Node3</title>
<g id="a_node4"><a xlink:href="../../da/d5a/GPUCommonDefAPI_8h.html" target="_top" xlink:title="GPUCommonDefAPI.h">
<polygon fill="none" stroke="#000000" points="166,-.5 166,-19.5 290,-19.5 290,-.5 166,-.5"/>
<text text-anchor="middle" x="228" y="-7.5" font-family="Helvetica,sans-Serif" font-size="10.00" fill="#000000">GPUCommonDefAPI.h</text>
</a>
</g>
</g>
<!-- Node1&#45;&gt;Node3 -->
<g id="edge3" class="edge">
<title>Node1&#45;&gt;Node3</title>
<path fill="none" stroke="#191970" d="M225.5226,-56.2455C225.914,-48.9382 226.4628,-38.6944 226.9444,-29.7046"/>
<polygon fill="#191970" stroke="#191970" points="230.4434,-29.8156 227.4834,-19.6427 223.4534,-29.4411 230.4434,-29.8156"/>
</g>
<!-- Node4&#45;&gt;Node4 -->
<g id="edge7" class="edge">
<title>Node4&#45;&gt;Node4</title>
<path fill="none" stroke="#191970" d="M364.8034,-75.5252C382.3361,-78.3079 399.5,-75.1328 399.5,-66 399.5,-58.6509 388.386,-55.1596 374.9091,-55.5261"/>
<polygon fill="#191970" stroke="#191970" points="374.4324,-52.0554 364.8034,-56.4748 375.0867,-59.0247 374.4324,-52.0554"/>
</g>
<!-- Node5 -->
<g id="node6" class="node">
<title>Node5</title>
<polygon fill="none" stroke="#bfbfbf" points="313.5,-.5 313.5,-19.5 360.5,-19.5 360.5,-.5 313.5,-.5"/>
<text text-anchor="middle" x="337" y="-7.5" font-family="Helvetica,sans-Serif" font-size="10.00" fill="#000000">vector</text>
</g>
<!-- Node4&#45;&gt;Node5 -->
<g id="edge5" class="edge">
<title>Node4&#45;&gt;Node5</title>
<path fill="none" stroke="#191970" d="M338.6516,-56.2455C338.3907,-48.9382 338.0248,-38.6944 337.7037,-29.7046"/>
<polygon fill="#191970" stroke="#191970" points="341.1992,-29.5113 337.3444,-19.6427 334.2036,-29.7613 341.1992,-29.5113"/>
</g>
<!-- Node6 -->
<g id="node7" class="node">
<title>Node6</title>
<g id="a_node7"><a xlink:href="../../d8/de9/qconfigoptions_8h.html" target="_top" xlink:title="qconfigoptions.h">
<polygon fill="none" stroke="#000000" points="378.5,-.5 378.5,-19.5 475.5,-19.5 475.5,-.5 378.5,-.5"/>
<text text-anchor="middle" x="427" y="-7.5" font-family="Helvetica,sans-Serif" font-size="10.00" fill="#000000">qconfigoptions.h</text>
</a>
</g>
</g>
<!-- Node4&#45;&gt;Node6 -->
<g id="edge6" class="edge">
<title>Node4&#45;&gt;Node6</title>
<path fill="none" stroke="#191970" d="M354.3284,-56.2455C367.8303,-47.6534 387.7122,-35.0014 403.2686,-25.1018"/>
<polygon fill="#191970" stroke="#191970" points="405.2897,-27.9643 411.8472,-19.6427 401.5315,-22.0587 405.2897,-27.9643"/>
</g>
</g>
</svg>
