<?xml version="1.0" encoding="UTF-8" standalone="no"?>
<!DOCTYPE svg PUBLIC "-//W3C//DTD SVG 1.1//EN"
 "http://www.w3.org/Graphics/SVG/1.1/DTD/svg11.dtd">
<!-- Generated by graphviz version 2.40.1 (20161225.0304)
 -->
<!-- Title: o2::mergers::ConfigEntry&lt; V, P &gt; Pages: 1 -->
<!--zoomable 215 -->
<svg id="main" version="1.1" xmlns="http://www.w3.org/2000/svg" xmlns:xlink="http://www.w3.org/1999/xlink" xml:space="preserve" onload="init(evt)">
<style type="text/css"><![CDATA[
.edge:hover path { stroke: red; }
.edge:hover polygon { stroke: red; fill: red; }
]]></style>
<script type="text/javascript"><![CDATA[
var edges = document.getElementsByTagName('g');
if (edges && edges.length) {
  for (var i=0;i<edges.length;i++) {
    if (edges[i].id.substr(0,4)=='edge') {
      edges[i].setAttribute('class','edge');
    }
  }
}
]]></script>
        <defs>
                <circle id="rim" cx="0" cy="0" r="7"/>
                <circle id="rim2" cx="0" cy="0" r="3.5"/>
                <g id="zoomPlus">
                        <use xlink:href="#rim" fill="#404040">
                                <set attributeName="fill" to="#808080" begin="zoomplus.mouseover" end="zoomplus.mouseout"/>
                        </use>
                        <path d="M-4,0h8M0,-4v8" fill="none" stroke="white" stroke-width="1.5" pointer-events="none"/>
                </g>
                <g id="zoomMin">
                        <use xlink:href="#rim" fill="#404040">
                                <set attributeName="fill" to="#808080" begin="zoomminus.mouseover" end="zoomminus.mouseout"/>
                        </use>
                        <path d="M-4,0h8" fill="none" stroke="white" stroke-width="1.5" pointer-events="none"/>
                </g>
                <g id="dirArrow">
                        <path fill="none" stroke="white" stroke-width="1.5" d="M0,-3.0v7 M-2.5,-0.5L0,-3.0L2.5,-0.5"/>
                </g>
               <g id="resetDef">
                       <use xlink:href="#rim2" fill="#404040">
                               <set attributeName="fill" to="#808080" begin="reset.mouseover" end="reset.mouseout"/>
                       </use>
               </g>
        </defs>

<script type="text/javascript">
var viewWidth = 668;
var viewHeight = 215;
var sectionId = 'dynsection-0';
</script>
<script xlink:href="../../svgpan.js"/>
<svg id="graph" class="graph">
<g id="viewport">
<title>o2::mergers::ConfigEntry&lt; V, P &gt;</title>
<!-- Node0 -->
<g id="node1" class="node">
<title>Node0</title>
<polygon fill="#bfbfbf" stroke="#000000" points="245,-127.5 245,-206.5 382,-206.5 382,-127.5 245,-127.5"/>
<text text-anchor="start" x="253" y="-194.5" font-family="Helvetica,sans-Serif" font-size="10.00" fill="#000000">o2::mergers::ConfigEntry</text>
<text text-anchor="middle" x="313.5" y="-183.5" font-family="Helvetica,sans-Serif" font-size="10.00" fill="#000000">&lt; V, P &gt;</text>
<polyline fill="none" stroke="#000000" points="245,-176.5 382,-176.5 "/>
<text text-anchor="start" x="253" y="-164.5" font-family="Helvetica,sans-Serif" font-size="10.00" fill="#000000">+ value</text>
<text text-anchor="start" x="253" y="-153.5" font-family="Helvetica,sans-Serif" font-size="10.00" fill="#000000">+ param</text>
<polyline fill="none" stroke="#000000" points="245,-146.5 382,-146.5 "/>
<text text-anchor="middle" x="313.5" y="-134.5" font-family="Helvetica,sans-Serif" font-size="10.00" fill="#000000"> </text>
</g>
<!-- Node1 -->
<g id="node2" class="node">
<title>Node1</title>
<g id="a_node2"><a xlink:href="../../d1/d9c/structo2_1_1mergers_1_1ConfigEntry.html" target="_top" xlink:title="{o2::mergers::ConfigEntry\l\&lt; TopologySize, int \&gt;\n|+ value\l+ param\l|}">
<polygon fill="none" stroke="#000000" points="0,-.5 0,-79.5 137,-79.5 137,-.5 0,-.5"/>
<text text-anchor="start" x="8" y="-67.5" font-family="Helvetica,sans-Serif" font-size="10.00" fill="#000000">o2::mergers::ConfigEntry</text>
<text text-anchor="middle" x="68.5" y="-56.5" font-family="Helvetica,sans-Serif" font-size="10.00" fill="#000000">&lt; TopologySize, int &gt;</text>
<polyline fill="none" stroke="#000000" points="0,-49.5 137,-49.5 "/>
<text text-anchor="start" x="8" y="-37.5" font-family="Helvetica,sans-Serif" font-size="10.00" fill="#000000">+ value</text>
<text text-anchor="start" x="8" y="-26.5" font-family="Helvetica,sans-Serif" font-size="10.00" fill="#000000">+ param</text>
<polyline fill="none" stroke="#000000" points="0,-19.5 137,-19.5 "/>
<text text-anchor="middle" x="68.5" y="-7.5" font-family="Helvetica,sans-Serif" font-size="10.00" fill="#000000"> </text>
</a>
</g>
</g>
<!-- Node0&#45;&gt;Node1 -->
<g id="edge1" class="edge">
<title>Node0&#45;&gt;Node1</title>
<path fill="none" stroke="#ffa500" d="M234.8722,-154.4424C198.3822,-145.8947 155.8156,-131.8308 122.5,-109 111.2069,-101.261 101.1801,-90.4353 92.9249,-79.6498"/>
<polygon fill="#ffa500" stroke="#ffa500" points="234.467,-157.9383 244.9903,-156.7097 235.9976,-151.1077 234.467,-157.9383"/>
<text text-anchor="middle" x="177" y="-101" font-family="Helvetica,sans-Serif" font-size="10.00" fill="#000000"> &lt; TopologySize, int &gt;</text>
</g>
<!-- Node2 -->
<g id="node3" class="node">
<title>Node2</title>
<g id="a_node3"><a xlink:href="../../d1/d9c/structo2_1_1mergers_1_1ConfigEntry.html" target="_top" xlink:title="{o2::mergers::ConfigEntry\l\&lt; InputObjectsTimespan \&gt;\n|+ value\l+ param\l|}">
<polygon fill="none" stroke="#000000" points="155,-.5 155,-79.5 304,-79.5 304,-.5 155,-.5"/>
<text text-anchor="start" x="163" y="-67.5" font-family="Helvetica,sans-Serif" font-size="10.00" fill="#000000">o2::mergers::ConfigEntry</text>
<text text-anchor="middle" x="229.5" y="-56.5" font-family="Helvetica,sans-Serif" font-size="10.00" fill="#000000">&lt; InputObjectsTimespan &gt;</text>
<polyline fill="none" stroke="#000000" points="155,-49.5 304,-49.5 "/>
<text text-anchor="start" x="163" y="-37.5" font-family="Helvetica,sans-Serif" font-size="10.00" fill="#000000">+ value</text>
<text text-anchor="start" x="163" y="-26.5" font-family="Helvetica,sans-Serif" font-size="10.00" fill="#000000">+ param</text>
<polyline fill="none" stroke="#000000" points="155,-19.5 304,-19.5 "/>
<text text-anchor="middle" x="229.5" y="-7.5" font-family="Helvetica,sans-Serif" font-size="10.00" fill="#000000"> </text>
</a>
</g>
</g>
<!-- Node0&#45;&gt;Node2 -->
<g id="edge2" class="edge">
<title>Node0&#45;&gt;Node2</title>
<path fill="none" stroke="#ffa500" d="M247.8825,-119.6416C245.1502,-116.2454 242.6588,-112.695 240.5,-109 235.3598,-100.2019 232.4086,-89.7486 230.7632,-79.6736"/>
<polygon fill="#ffa500" stroke="#ffa500" points="245.4008,-122.1184 254.6521,-127.282 250.6401,-117.4762 245.4008,-122.1184"/>
<text text-anchor="middle" x="308.5" y="-101" font-family="Helvetica,sans-Serif" font-size="10.00" fill="#000000"> &lt; InputObjectsTimespan &gt;</text>
</g>
<!-- Node3 -->
<g id="node4" class="node">
<title>Node3</title>
<g id="a_node4"><a xlink:href="../../d1/d9c/structo2_1_1mergers_1_1ConfigEntry.html" target="_top" xlink:title="{o2::mergers::ConfigEntry\l\&lt; MergedObjectTimespan \&gt;\n|+ value\l+ param\l|}">
<polygon fill="none" stroke="#000000" points="322,-.5 322,-79.5 477,-79.5 477,-.5 322,-.5"/>
<text text-anchor="start" x="330" y="-67.5" font-family="Helvetica,sans-Serif" font-size="10.00" fill="#000000">o2::mergers::ConfigEntry</text>
<text text-anchor="middle" x="399.5" y="-56.5" font-family="Helvetica,sans-Serif" font-size="10.00" fill="#000000">&lt; MergedObjectTimespan &gt;</text>
<polyline fill="none" stroke="#000000" points="322,-49.5 477,-49.5 "/>
<text text-anchor="start" x="330" y="-37.5" font-family="Helvetica,sans-Serif" font-size="10.00" fill="#000000">+ value</text>
<text text-anchor="start" x="330" y="-26.5" font-family="Helvetica,sans-Serif" font-size="10.00" fill="#000000">+ param</text>
<polyline fill="none" stroke="#000000" points="322,-19.5 477,-19.5 "/>
<text text-anchor="middle" x="399.5" y="-7.5" font-family="Helvetica,sans-Serif" font-size="10.00" fill="#000000"> </text>
</a>
</g>
</g>
<!-- Node0&#45;&gt;Node3 -->
<g id="edge3" class="edge">
<title>Node0&#45;&gt;Node3</title>
<path fill="none" stroke="#ffa500" d="M368.8244,-119.4917C371.5948,-116.0876 374.1834,-112.5809 376.5,-109 382.2614,-100.0944 386.7183,-89.6041 390.1063,-79.528"/>
<polygon fill="#ffa500" stroke="#ffa500" points="366.0064,-117.3979 362.0723,-127.2352 371.2824,-121.9983 366.0064,-117.3979"/>
<text text-anchor="middle" x="452.5" y="-101" font-family="Helvetica,sans-Serif" font-size="10.00" fill="#000000"> &lt; MergedObjectTimespan &gt;</text>
</g>
<!-- Node4 -->
<g id="node5" class="node">
<title>Node4</title>
<g id="a_node5"><a xlink:href="../../d1/d9c/structo2_1_1mergers_1_1ConfigEntry.html" target="_top" xlink:title="{o2::mergers::ConfigEntry\l\&lt; PublicationDecision \&gt;\n|+ value\l+ param\l|}">
<polygon fill="none" stroke="#000000" points="495,-.5 495,-79.5 632,-79.5 632,-.5 495,-.5"/>
<text text-anchor="start" x="503" y="-67.5" font-family="Helvetica,sans-Serif" font-size="10.00" fill="#000000">o2::mergers::ConfigEntry</text>
<text text-anchor="middle" x="563.5" y="-56.5" font-family="Helvetica,sans-Serif" font-size="10.00" fill="#000000">&lt; PublicationDecision &gt;</text>
<polyline fill="none" stroke="#000000" points="495,-49.5 632,-49.5 "/>
<text text-anchor="start" x="503" y="-37.5" font-family="Helvetica,sans-Serif" font-size="10.00" fill="#000000">+ value</text>
<text text-anchor="start" x="503" y="-26.5" font-family="Helvetica,sans-Serif" font-size="10.00" fill="#000000">+ param</text>
<polyline fill="none" stroke="#000000" points="495,-19.5 632,-19.5 "/>
<text text-anchor="middle" x="563.5" y="-7.5" font-family="Helvetica,sans-Serif" font-size="10.00" fill="#000000"> </text>
</a>
</g>
</g>
<!-- Node0&#45;&gt;Node4 -->
<g id="edge4" class="edge">
<title>Node0&#45;&gt;Node4</title>
<path fill="none" stroke="#ffa500" d="M392.0651,-152.5712C444.0717,-141.7501 506.4351,-125.9402 527.5,-109 536.9763,-101.3793 544.239,-90.5887 549.6734,-79.799"/>
<polygon fill="#ffa500" stroke="#ffa500" points="391.2476,-149.1659 382.1526,-154.6002 392.6514,-156.0237 391.2476,-149.1659"/>
<text text-anchor="middle" x="598.5" y="-101" font-family="Helvetica,sans-Serif" font-size="10.00" fill="#000000"> &lt; PublicationDecision &gt;</text>
</g>
</g>
</svg>
        <g id="navigator" transform="translate(0 0)" fill="#404254">
                <rect fill="#f2f5e9" fill-opacity="0.5" stroke="#606060" stroke-width=".5" x="0" y="0" width="60" height="60"/>
                <use id="zoomplus" xlink:href="#zoomPlus" x="17" y="9" onmousedown="handleZoom(evt,'in')"/>
                <use id="zoomminus" xlink:href="#zoomMin" x="42" y="9" onmousedown="handleZoom(evt,'out')"/>
                <use id="reset" xlink:href="#resetDef" x="30" y="36" onmousedown="handleReset()"/>
                <g id="arrowUp" xlink:href="#dirArrow" transform="translate(30 24)" onmousedown="handlePan(0,-1)">
                  <use xlink:href="#rim" fill="#404040">
                        <set attributeName="fill" to="#808080" begin="arrowUp.mouseover" end="arrowUp.mouseout"/>
                  </use>
                  <path fill="none" stroke="white" stroke-width="1.5" d="M0,-3.0v7 M-2.5,-0.5L0,-3.0L2.5,-0.5"/>
                </g>
                <g id="arrowRight" xlink:href="#dirArrow" transform="rotate(90) translate(36 -43)" onmousedown="handlePan(1,0)">
                  <use xlink:href="#rim" fill="#404040">
                        <set attributeName="fill" to="#808080" begin="arrowRight.mouseover" end="arrowRight.mouseout"/>
                  </use>
                  <path fill="none" stroke="white" stroke-width="1.5" d="M0,-3.0v7 M-2.5,-0.5L0,-3.0L2.5,-0.5"/>
                </g>
                <g id="arrowDown" xlink:href="#dirArrow" transform="rotate(180) translate(-30 -48)" onmousedown="handlePan(0,1)">
                  <use xlink:href="#rim" fill="#404040">
                        <set attributeName="fill" to="#808080" begin="arrowDown.mouseover" end="arrowDown.mouseout"/>
                  </use>
                  <path fill="none" stroke="white" stroke-width="1.5" d="M0,-3.0v7 M-2.5,-0.5L0,-3.0L2.5,-0.5"/>
                </g>
                <g id="arrowLeft" xlink:href="#dirArrow" transform="rotate(270) translate(-36 17)" onmousedown="handlePan(-1,0)">
                  <use xlink:href="#rim" fill="#404040">
                        <set attributeName="fill" to="#808080" begin="arrowLeft.mouseover" end="arrowLeft.mouseout"/>
                  </use>
                  <path fill="none" stroke="white" stroke-width="1.5" d="M0,-3.0v7 M-2.5,-0.5L0,-3.0L2.5,-0.5"/>
                </g>
        </g>
        <svg viewBox="0 0 15 15" width="100%" height="30px" preserveAspectRatio="xMaxYMin meet">
         <g id="arrow_out" transform="scale(0.3 0.3)">
          <a xlink:href="structo2_1_1mergers_1_1ConfigEntry__inherit__graph_org.svg" target="_base">
           <rect id="button" ry="5" rx="5" y="6" x="6" height="38" width="38"
                fill="#f2f5e9" fill-opacity="0.5" stroke="#606060" stroke-width="1.0"/>
           <path id="arrow"
             d="M 11.500037,31.436501 C 11.940474,20.09759 22.043105,11.32322 32.158766,21.979434 L 37.068811,17.246167 C 37.068811,17.246167 37.088388,32 37.088388,32 L 22.160133,31.978069 C 22.160133,31.978069 26.997745,27.140456 26.997745,27.140456 C 18.528582,18.264221 13.291696,25.230495 11.500037,31.436501 z"
             style="fill:#404040;"/>
          </a>
         </g>
        </svg>
</svg>
