<?xml version="1.0" encoding="UTF-8" standalone="no"?>
<!DOCTYPE svg PUBLIC "-//W3C//DTD SVG 1.1//EN"
 "http://www.w3.org/Graphics/SVG/1.1/DTD/svg11.dtd">
<!-- Generated by graphviz version 2.40.1 (20161225.0304)
 -->
<!-- Title: /home/travis/build/AliceO2Group/AliceO2/Detectors/TPC/calibration/SpacePoints/include/SpacePoints/SpacePointsCalibParam.h Pages: 1 -->
<svg width="1037pt" height="372pt"
 viewBox="0.00 0.00 1037.00 372.00" xmlns="http://www.w3.org/2000/svg" xmlns:xlink="http://www.w3.org/1999/xlink">
<g id="graph0" class="graph" transform="scale(1 1) rotate(0) translate(4 368)">
<title>/home/travis/build/AliceO2Group/AliceO2/Detectors/TPC/calibration/SpacePoints/include/SpacePoints/SpacePointsCalibParam.h</title>
<!-- Node2 -->
<g id="node1" class="node">
<title>Node2</title>
<polygon fill="#bfbfbf" stroke="#000000" points="728,-300.5 728,-363.5 907,-363.5 907,-300.5 728,-300.5"/>
<text text-anchor="start" x="736" y="-351.5" font-family="Helvetica,sans-Serif" font-size="10.00" fill="#000000">/home/travis/build</text>
<text text-anchor="start" x="736" y="-340.5" font-family="Helvetica,sans-Serif" font-size="10.00" fill="#000000">/AliceO2Group/AliceO2</text>
<text text-anchor="start" x="736" y="-329.5" font-family="Helvetica,sans-Serif" font-size="10.00" fill="#000000">/Detectors/TPC/calibration</text>
<text text-anchor="start" x="736" y="-318.5" font-family="Helvetica,sans-Serif" font-size="10.00" fill="#000000">/SpacePoints/include/SpacePoints</text>
<text text-anchor="middle" x="817.5" y="-307.5" font-family="Helvetica,sans-Serif" font-size="10.00" fill="#000000">/SpacePointsCalibParam.h</text>
</g>
<!-- Node3 -->
<g id="node2" class="node">
<title>Node3</title>
<g id="a_node2"><a xlink:href="../../d3/d0c/TrackInterpolation_8h.html" target="_top" xlink:title="Definition of the TrackInterpolation class. ">
<polygon fill="none" stroke="#000000" points="564,-200.5 564,-263.5 743,-263.5 743,-200.5 564,-200.5"/>
<text text-anchor="start" x="572" y="-251.5" font-family="Helvetica,sans-Serif" font-size="10.00" fill="#000000">/home/travis/build</text>
<text text-anchor="start" x="572" y="-240.5" font-family="Helvetica,sans-Serif" font-size="10.00" fill="#000000">/AliceO2Group/AliceO2</text>
<text text-anchor="start" x="572" y="-229.5" font-family="Helvetica,sans-Serif" font-size="10.00" fill="#000000">/Detectors/TPC/calibration</text>
<text text-anchor="start" x="572" y="-218.5" font-family="Helvetica,sans-Serif" font-size="10.00" fill="#000000">/SpacePoints/include/SpacePoints</text>
<text text-anchor="middle" x="653.5" y="-207.5" font-family="Helvetica,sans-Serif" font-size="10.00" fill="#000000">/TrackInterpolation.h</text>
</a>
</g>
</g>
<!-- Node2&#45;&gt;Node3 -->
<g id="edge1" class="edge">
<title>Node2&#45;&gt;Node3</title>
<path fill="none" stroke="#191970" d="M756.8898,-295.0425C739.9552,-284.7166 721.712,-273.5927 705.3343,-263.6063"/>
<polygon fill="#191970" stroke="#191970" points="755.2493,-298.1415 765.6094,-300.3594 758.8935,-292.165 755.2493,-298.1415"/>
</g>
<!-- Node8 -->
<g id="node7" class="node">
<title>Node8</title>
<g id="a_node7"><a xlink:href="../../da/ddb/TrackResiduals_8h.html" target="_top" xlink:title="Definition of the TrackResiduals class. ">
<polygon fill="none" stroke="#000000" points="775,-100.5 775,-163.5 954,-163.5 954,-100.5 775,-100.5"/>
<text text-anchor="start" x="783" y="-151.5" font-family="Helvetica,sans-Serif" font-size="10.00" fill="#000000">/home/travis/build</text>
<text text-anchor="start" x="783" y="-140.5" font-family="Helvetica,sans-Serif" font-size="10.00" fill="#000000">/AliceO2Group/AliceO2</text>
<text text-anchor="start" x="783" y="-129.5" font-family="Helvetica,sans-Serif" font-size="10.00" fill="#000000">/Detectors/TPC/calibration</text>
<text text-anchor="start" x="783" y="-118.5" font-family="Helvetica,sans-Serif" font-size="10.00" fill="#000000">/SpacePoints/include/SpacePoints</text>
<text text-anchor="middle" x="864.5" y="-107.5" font-family="Helvetica,sans-Serif" font-size="10.00" fill="#000000">/TrackResiduals.h</text>
</a>
</g>
</g>
<!-- Node2&#45;&gt;Node8 -->
<g id="edge9" class="edge">
<title>Node2&#45;&gt;Node8</title>
<path fill="none" stroke="#191970" d="M820.83,-290.3557C823.5807,-264.1013 828.3903,-229.6734 836.5,-200 839.8321,-187.8076 844.7745,-174.8758 849.5834,-163.5998"/>
<polygon fill="#191970" stroke="#191970" points="817.343,-290.0525 819.8405,-300.3487 824.3089,-290.7422 817.343,-290.0525"/>
</g>
<!-- Node11 -->
<g id="node10" class="node">
<title>Node11</title>
<g id="a_node10"><a xlink:href="../../db/d0c/SpacePointsCalibParam_8cxx.html" target="_top" xlink:title="Implementation file for parameters to make code checker happy. ">
<polygon fill="none" stroke="#000000" points="846,-200.5 846,-263.5 1029,-263.5 1029,-200.5 846,-200.5"/>
<text text-anchor="start" x="854" y="-251.5" font-family="Helvetica,sans-Serif" font-size="10.00" fill="#000000">/home/travis/build</text>
<text text-anchor="start" x="854" y="-240.5" font-family="Helvetica,sans-Serif" font-size="10.00" fill="#000000">/AliceO2Group/AliceO2</text>
<text text-anchor="start" x="854" y="-229.5" font-family="Helvetica,sans-Serif" font-size="10.00" fill="#000000">/Detectors/TPC/calibration</text>
<text text-anchor="start" x="854" y="-218.5" font-family="Helvetica,sans-Serif" font-size="10.00" fill="#000000">/SpacePoints/src/SpacePointsCalib</text>
<text text-anchor="middle" x="937.5" y="-207.5" font-family="Helvetica,sans-Serif" font-size="10.00" fill="#000000">Param.cxx</text>
</a>
</g>
</g>
<!-- Node2&#45;&gt;Node11 -->
<g id="edge10" class="edge">
<title>Node2&#45;&gt;Node11</title>
<path fill="none" stroke="#191970" d="M863.1784,-293.9347C875.1193,-283.9839 887.8639,-273.3634 899.3664,-263.778"/>
<polygon fill="#191970" stroke="#191970" points="860.9103,-291.2687 855.4688,-300.3594 865.3916,-296.6463 860.9103,-291.2687"/>
</g>
<!-- Node4 -->
<g id="node3" class="node">
<title>Node4</title>
<g id="a_node3"><a xlink:href="../../dc/d50/TPCInterpolationSpec_8h.html" target="_top" xlink:title="/home/travis/build\l/AliceO2Group/AliceO2\l/Detectors/GlobalTrackingWorkflow\l/tpcinterpolationworkflow/include\l/TPCInterpolationWorkflow/TPCInterpolationSpec.h">
<polygon fill="none" stroke="#000000" points="64.5,-100.5 64.5,-163.5 326.5,-163.5 326.5,-100.5 64.5,-100.5"/>
<text text-anchor="start" x="72.5" y="-151.5" font-family="Helvetica,sans-Serif" font-size="10.00" fill="#000000">/home/travis/build</text>
<text text-anchor="start" x="72.5" y="-140.5" font-family="Helvetica,sans-Serif" font-size="10.00" fill="#000000">/AliceO2Group/AliceO2</text>
<text text-anchor="start" x="72.5" y="-129.5" font-family="Helvetica,sans-Serif" font-size="10.00" fill="#000000">/Detectors/GlobalTrackingWorkflow</text>
<text text-anchor="start" x="72.5" y="-118.5" font-family="Helvetica,sans-Serif" font-size="10.00" fill="#000000">/tpcinterpolationworkflow/include</text>
<text text-anchor="middle" x="195.5" y="-107.5" font-family="Helvetica,sans-Serif" font-size="10.00" fill="#000000">/TPCInterpolationWorkflow/TPCInterpolationSpec.h</text>
</a>
</g>
</g>
<!-- Node3&#45;&gt;Node4 -->
<g id="edge2" class="edge">
<title>Node3&#45;&gt;Node4</title>
<path fill="none" stroke="#191970" d="M554.0945,-211.1181C491.3509,-197.845 408.6239,-180.1745 335.5,-164 332.5787,-163.3538 329.6237,-162.6979 326.6445,-162.0346"/>
<polygon fill="#191970" stroke="#191970" points="553.4806,-214.5656 563.9883,-213.2097 554.9285,-207.717 553.4806,-214.5656"/>
</g>
<!-- Node7 -->
<g id="node6" class="node">
<title>Node7</title>
<g id="a_node6"><a xlink:href="../../d2/d27/TPCResidualWriterSpec_8cxx.html" target="_top" xlink:title="/home/travis/build\l/AliceO2Group/AliceO2\l/Detectors/GlobalTrackingWorkflow\l/tpcinterpolationworkflow/src\l/TPCResidualWriterSpec.cxx">
<polygon fill="none" stroke="#000000" points="345,-100.5 345,-163.5 532,-163.5 532,-100.5 345,-100.5"/>
<text text-anchor="start" x="353" y="-151.5" font-family="Helvetica,sans-Serif" font-size="10.00" fill="#000000">/home/travis/build</text>
<text text-anchor="start" x="353" y="-140.5" font-family="Helvetica,sans-Serif" font-size="10.00" fill="#000000">/AliceO2Group/AliceO2</text>
<text text-anchor="start" x="353" y="-129.5" font-family="Helvetica,sans-Serif" font-size="10.00" fill="#000000">/Detectors/GlobalTrackingWorkflow</text>
<text text-anchor="start" x="353" y="-118.5" font-family="Helvetica,sans-Serif" font-size="10.00" fill="#000000">/tpcinterpolationworkflow/src</text>
<text text-anchor="middle" x="438.5" y="-107.5" font-family="Helvetica,sans-Serif" font-size="10.00" fill="#000000">/TPCResidualWriterSpec.cxx</text>
</a>
</g>
</g>
<!-- Node3&#45;&gt;Node7 -->
<g id="edge5" class="edge">
<title>Node3&#45;&gt;Node7</title>
<path fill="none" stroke="#191970" d="M576.4174,-196.1476C553.489,-185.4833 528.5489,-173.8832 506.261,-163.5168"/>
<polygon fill="#191970" stroke="#191970" points="575.2245,-199.4528 585.7678,-200.4966 578.1766,-193.1057 575.2245,-199.4528"/>
</g>
<!-- Node3&#45;&gt;Node8 -->
<g id="edge6" class="edge">
<title>Node3&#45;&gt;Node8</title>
<path fill="none" stroke="#191970" d="M729.1485,-196.1476C751.6503,-185.4833 776.1265,-173.8832 797.9996,-163.5168"/>
<polygon fill="#191970" stroke="#191970" points="727.5097,-193.0511 719.9721,-200.4966 730.5076,-199.3767 727.5097,-193.0511"/>
</g>
<!-- Node10 -->
<g id="node9" class="node">
<title>Node10</title>
<g id="a_node9"><a xlink:href="../../d4/d15/TrackInterpolation_8cxx.html" target="_top" xlink:title="Implementation of the TrackInterpolation class. ">
<polygon fill="none" stroke="#000000" points="550,-106 550,-158 757,-158 757,-106 550,-106"/>
<text text-anchor="start" x="558" y="-146" font-family="Helvetica,sans-Serif" font-size="10.00" fill="#000000">/home/travis/build</text>
<text text-anchor="start" x="558" y="-135" font-family="Helvetica,sans-Serif" font-size="10.00" fill="#000000">/AliceO2Group/AliceO2</text>
<text text-anchor="start" x="558" y="-124" font-family="Helvetica,sans-Serif" font-size="10.00" fill="#000000">/Detectors/TPC/calibration</text>
<text text-anchor="middle" x="653.5" y="-113" font-family="Helvetica,sans-Serif" font-size="10.00" fill="#000000">/SpacePoints/src/TrackInterpolation.cxx</text>
</a>
</g>
</g>
<!-- Node3&#45;&gt;Node10 -->
<g id="edge8" class="edge">
<title>Node3&#45;&gt;Node10</title>
<path fill="none" stroke="#191970" d="M653.5,-190.1631C653.5,-179.2863 653.5,-167.8798 653.5,-158.078"/>
<polygon fill="#191970" stroke="#191970" points="650.0001,-190.3593 653.5,-200.3594 657.0001,-190.3594 650.0001,-190.3593"/>
</g>
<!-- Node5 -->
<g id="node4" class="node">
<title>Node5</title>
<g id="a_node4"><a xlink:href="../../d8/d85/TPCInterpolationSpec_8cxx.html" target="_top" xlink:title="/home/travis/build\l/AliceO2Group/AliceO2\l/Detectors/GlobalTrackingWorkflow\l/tpcinterpolationworkflow/src\l/TPCInterpolationSpec.cxx">
<polygon fill="none" stroke="#000000" points="0,-.5 0,-63.5 187,-63.5 187,-.5 0,-.5"/>
<text text-anchor="start" x="8" y="-51.5" font-family="Helvetica,sans-Serif" font-size="10.00" fill="#000000">/home/travis/build</text>
<text text-anchor="start" x="8" y="-40.5" font-family="Helvetica,sans-Serif" font-size="10.00" fill="#000000">/AliceO2Group/AliceO2</text>
<text text-anchor="start" x="8" y="-29.5" font-family="Helvetica,sans-Serif" font-size="10.00" fill="#000000">/Detectors/GlobalTrackingWorkflow</text>
<text text-anchor="start" x="8" y="-18.5" font-family="Helvetica,sans-Serif" font-size="10.00" fill="#000000">/tpcinterpolationworkflow/src</text>
<text text-anchor="middle" x="93.5" y="-7.5" font-family="Helvetica,sans-Serif" font-size="10.00" fill="#000000">/TPCInterpolationSpec.cxx</text>
</a>
</g>
</g>
<!-- Node4&#45;&gt;Node5 -->
<g id="edge3" class="edge">
<title>Node4&#45;&gt;Node5</title>
<path fill="none" stroke="#191970" d="M155.8017,-93.0801C145.9055,-83.3779 135.4114,-73.0896 125.9136,-63.778"/>
<polygon fill="#191970" stroke="#191970" points="153.6355,-95.8579 163.2266,-100.3594 158.5361,-90.8594 153.6355,-95.8579"/>
</g>
<!-- Node6 -->
<g id="node5" class="node">
<title>Node6</title>
<g id="a_node5"><a xlink:href="../../d1/d67/TrackInterpolationWorkflow_8cxx.html" target="_top" xlink:title="/home/travis/build\l/AliceO2Group/AliceO2\l/Detectors/GlobalTrackingWorkflow\l/tpcinterpolationworkflow/src\l/TrackInterpolationWorkflow.cxx">
<polygon fill="none" stroke="#000000" points="205,-.5 205,-63.5 392,-63.5 392,-.5 205,-.5"/>
<text text-anchor="start" x="213" y="-51.5" font-family="Helvetica,sans-Serif" font-size="10.00" fill="#000000">/home/travis/build</text>
<text text-anchor="start" x="213" y="-40.5" font-family="Helvetica,sans-Serif" font-size="10.00" fill="#000000">/AliceO2Group/AliceO2</text>
<text text-anchor="start" x="213" y="-29.5" font-family="Helvetica,sans-Serif" font-size="10.00" fill="#000000">/Detectors/GlobalTrackingWorkflow</text>
<text text-anchor="start" x="213" y="-18.5" font-family="Helvetica,sans-Serif" font-size="10.00" fill="#000000">/tpcinterpolationworkflow/src</text>
<text text-anchor="middle" x="298.5" y="-7.5" font-family="Helvetica,sans-Serif" font-size="10.00" fill="#000000">/TrackInterpolationWorkflow.cxx</text>
</a>
</g>
</g>
<!-- Node4&#45;&gt;Node6 -->
<g id="edge4" class="edge">
<title>Node4&#45;&gt;Node6</title>
<path fill="none" stroke="#191970" d="M235.2937,-93.3653C245.3729,-83.5797 256.0837,-73.1809 265.7686,-63.778"/>
<polygon fill="#191970" stroke="#191970" points="232.8266,-90.8824 228.0898,-100.3594 237.7027,-95.9047 232.8266,-90.8824"/>
</g>
<!-- Node9 -->
<g id="node8" class="node">
<title>Node9</title>
<g id="a_node8"><a xlink:href="../../d9/df0/TrackResiduals_8cxx.html" target="_top" xlink:title="Implementation of the TrackResiduals class. ">
<polygon fill="none" stroke="#000000" points="769,-6 769,-58 960,-58 960,-6 769,-6"/>
<text text-anchor="start" x="777" y="-46" font-family="Helvetica,sans-Serif" font-size="10.00" fill="#000000">/home/travis/build</text>
<text text-anchor="start" x="777" y="-35" font-family="Helvetica,sans-Serif" font-size="10.00" fill="#000000">/AliceO2Group/AliceO2</text>
<text text-anchor="start" x="777" y="-24" font-family="Helvetica,sans-Serif" font-size="10.00" fill="#000000">/Detectors/TPC/calibration</text>
<text text-anchor="middle" x="864.5" y="-13" font-family="Helvetica,sans-Serif" font-size="10.00" fill="#000000">/SpacePoints/src/TrackResiduals.cxx</text>
</a>
</g>
</g>
<!-- Node8&#45;&gt;Node9 -->
<g id="edge7" class="edge">
<title>Node8&#45;&gt;Node9</title>
<path fill="none" stroke="#191970" d="M864.5,-90.1631C864.5,-79.2863 864.5,-67.8798 864.5,-58.078"/>
<polygon fill="#191970" stroke="#191970" points="861.0001,-90.3593 864.5,-100.3594 868.0001,-90.3594 861.0001,-90.3593"/>
</g>
</g>
</svg>
