<?xml version="1.0" encoding="UTF-8" standalone="no"?>
<!DOCTYPE svg PUBLIC "-//W3C//DTD SVG 1.1//EN"
 "http://www.w3.org/Graphics/SVG/1.1/DTD/svg11.dtd">
<!-- Generated by graphviz version 2.40.1 (20161225.0304)
 -->
<!-- Title: /home/travis/build/AliceO2Group/AliceO2/Utilities/Mergers/include/Mergers/MergerConfig.h Pages: 1 -->
<svg width="1383pt" height="239pt"
 viewBox="0.00 0.00 1382.50 239.00" xmlns="http://www.w3.org/2000/svg" xmlns:xlink="http://www.w3.org/1999/xlink">
<g id="graph0" class="graph" transform="scale(1 1) rotate(0) translate(4 235)">
<title>/home/travis/build/AliceO2Group/AliceO2/Utilities/Mergers/include/Mergers/MergerConfig.h</title>
<!-- Node1 -->
<g id="node1" class="node">
<title>Node1</title>
<polygon fill="#bfbfbf" stroke="#000000" points="370.5,-178.5 370.5,-230.5 508.5,-230.5 508.5,-178.5 370.5,-178.5"/>
<text text-anchor="start" x="378.5" y="-218.5" font-family="Helvetica,sans-Serif" font-size="10.00" fill="#000000">/home/travis/build</text>
<text text-anchor="start" x="378.5" y="-207.5" font-family="Helvetica,sans-Serif" font-size="10.00" fill="#000000">/AliceO2Group/AliceO2</text>
<text text-anchor="start" x="378.5" y="-196.5" font-family="Helvetica,sans-Serif" font-size="10.00" fill="#000000">/Utilities/Mergers/include</text>
<text text-anchor="middle" x="439.5" y="-185.5" font-family="Helvetica,sans-Serif" font-size="10.00" fill="#000000">/Mergers/MergerConfig.h</text>
</g>
<!-- Node2 -->
<g id="node2" class="node">
<title>Node2</title>
<g id="a_node2"><a xlink:href="../../d4/dd2/FullHistoryMerger_8h.html" target="_top" xlink:title="Definition of O2 FullHistoryMerger, v0.1. ">
<polygon fill="none" stroke="#000000" points="103,-89.5 103,-141.5 258,-141.5 258,-89.5 103,-89.5"/>
<text text-anchor="start" x="111" y="-129.5" font-family="Helvetica,sans-Serif" font-size="10.00" fill="#000000">/home/travis/build</text>
<text text-anchor="start" x="111" y="-118.5" font-family="Helvetica,sans-Serif" font-size="10.00" fill="#000000">/AliceO2Group/AliceO2</text>
<text text-anchor="start" x="111" y="-107.5" font-family="Helvetica,sans-Serif" font-size="10.00" fill="#000000">/Utilities/Mergers/include</text>
<text text-anchor="middle" x="180.5" y="-96.5" font-family="Helvetica,sans-Serif" font-size="10.00" fill="#000000">/Mergers/FullHistoryMerger.h</text>
</a>
</g>
</g>
<!-- Node1&#45;&gt;Node2 -->
<g id="edge1" class="edge">
<title>Node1&#45;&gt;Node2</title>
<path fill="none" stroke="#191970" d="M360.7657,-177.4446C327.5634,-166.0353 289.0716,-152.8084 256.203,-141.5138"/>
<polygon fill="#191970" stroke="#191970" points="359.8383,-180.8267 370.433,-180.7665 362.1132,-174.2067 359.8383,-180.8267"/>
</g>
<!-- Node5 -->
<g id="node5" class="node">
<title>Node5</title>
<g id="a_node5"><a xlink:href="../../db/d19/IntegratingMerger_8h.html" target="_top" xlink:title="Definition of O2 IntegratingMerger, v0.1. ">
<polygon fill="none" stroke="#000000" points="276,-89.5 276,-141.5 433,-141.5 433,-89.5 276,-89.5"/>
<text text-anchor="start" x="284" y="-129.5" font-family="Helvetica,sans-Serif" font-size="10.00" fill="#000000">/home/travis/build</text>
<text text-anchor="start" x="284" y="-118.5" font-family="Helvetica,sans-Serif" font-size="10.00" fill="#000000">/AliceO2Group/AliceO2</text>
<text text-anchor="start" x="284" y="-107.5" font-family="Helvetica,sans-Serif" font-size="10.00" fill="#000000">/Utilities/Mergers/include</text>
<text text-anchor="middle" x="354.5" y="-96.5" font-family="Helvetica,sans-Serif" font-size="10.00" fill="#000000">/Mergers/IntegratingMerger.h</text>
</a>
</g>
</g>
<!-- Node1&#45;&gt;Node5 -->
<g id="edge4" class="edge">
<title>Node1&#45;&gt;Node5</title>
<path fill="none" stroke="#191970" d="M407.5084,-171.0029C398.1966,-161.2529 388.1668,-150.7511 379.3641,-141.5341"/>
<polygon fill="#191970" stroke="#191970" points="405.0191,-173.464 414.4569,-178.2784 410.0813,-168.6293 405.0191,-173.464"/>
</g>
<!-- Node7 -->
<g id="node7" class="node">
<title>Node7</title>
<g id="a_node7"><a xlink:href="../../d4/df8/MergerBuilder_8h.html" target="_top" xlink:title="/home/travis/build\l/AliceO2Group/AliceO2\l/Utilities/Mergers/include\l/Mergers/MergerBuilder.h">
<polygon fill="none" stroke="#000000" points="453.5,-89.5 453.5,-141.5 591.5,-141.5 591.5,-89.5 453.5,-89.5"/>
<text text-anchor="start" x="461.5" y="-129.5" font-family="Helvetica,sans-Serif" font-size="10.00" fill="#000000">/home/travis/build</text>
<text text-anchor="start" x="461.5" y="-118.5" font-family="Helvetica,sans-Serif" font-size="10.00" fill="#000000">/AliceO2Group/AliceO2</text>
<text text-anchor="start" x="461.5" y="-107.5" font-family="Helvetica,sans-Serif" font-size="10.00" fill="#000000">/Utilities/Mergers/include</text>
<text text-anchor="middle" x="522.5" y="-96.5" font-family="Helvetica,sans-Serif" font-size="10.00" fill="#000000">/Mergers/MergerBuilder.h</text>
</a>
</g>
</g>
<!-- Node1&#45;&gt;Node7 -->
<g id="edge7" class="edge">
<title>Node1&#45;&gt;Node7</title>
<path fill="none" stroke="#191970" d="M471.0065,-170.7159C480.0234,-161.0472 489.7096,-150.6608 498.221,-141.5341"/>
<polygon fill="#191970" stroke="#191970" points="468.2144,-168.578 463.9538,-178.2784 473.3338,-173.3522 468.2144,-168.578"/>
</g>
<!-- Node12 -->
<g id="node12" class="node">
<title>Node12</title>
<g id="a_node12"><a xlink:href="../../da/d43/MergerInfrastructureBuilder_8h.html" target="_top" xlink:title="Definition of O2 MergerInfrastructureBuilder, v0.1. ">
<polygon fill="none" stroke="#000000" points="719.5,-89.5 719.5,-141.5 923.5,-141.5 923.5,-89.5 719.5,-89.5"/>
<text text-anchor="start" x="727.5" y="-129.5" font-family="Helvetica,sans-Serif" font-size="10.00" fill="#000000">/home/travis/build</text>
<text text-anchor="start" x="727.5" y="-118.5" font-family="Helvetica,sans-Serif" font-size="10.00" fill="#000000">/AliceO2Group/AliceO2</text>
<text text-anchor="start" x="727.5" y="-107.5" font-family="Helvetica,sans-Serif" font-size="10.00" fill="#000000">/Utilities/Mergers/include</text>
<text text-anchor="middle" x="821.5" y="-96.5" font-family="Helvetica,sans-Serif" font-size="10.00" fill="#000000">/Mergers/MergerInfrastructureBuilder.h</text>
</a>
</g>
</g>
<!-- Node1&#45;&gt;Node12 -->
<g id="edge15" class="edge">
<title>Node1&#45;&gt;Node12</title>
<path fill="none" stroke="#191970" d="M518.5546,-186.0815C576.7488,-172.5232 656.3697,-153.9728 719.381,-139.2921"/>
<polygon fill="#191970" stroke="#191970" points="517.6223,-182.7049 508.6773,-188.3828 519.2107,-189.5223 517.6223,-182.7049"/>
</g>
<!-- Node3 -->
<g id="node3" class="node">
<title>Node3</title>
<g id="a_node3"><a xlink:href="../../db/d51/FullHistoryMerger_8cxx.html" target="_top" xlink:title="Implementation of O2 Mergers, v0.1. ">
<polygon fill="none" stroke="#000000" points="0,-.5 0,-52.5 127,-52.5 127,-.5 0,-.5"/>
<text text-anchor="start" x="8" y="-40.5" font-family="Helvetica,sans-Serif" font-size="10.00" fill="#000000">/home/travis/build</text>
<text text-anchor="start" x="8" y="-29.5" font-family="Helvetica,sans-Serif" font-size="10.00" fill="#000000">/AliceO2Group/AliceO2</text>
<text text-anchor="start" x="8" y="-18.5" font-family="Helvetica,sans-Serif" font-size="10.00" fill="#000000">/Utilities/Mergers/src</text>
<text text-anchor="middle" x="63.5" y="-7.5" font-family="Helvetica,sans-Serif" font-size="10.00" fill="#000000">/FullHistoryMerger.cxx</text>
</a>
</g>
</g>
<!-- Node2&#45;&gt;Node3 -->
<g id="edge2" class="edge">
<title>Node2&#45;&gt;Node3</title>
<path fill="none" stroke="#191970" d="M137.9677,-83.1463C124.7325,-73.0786 110.3166,-62.1126 97.7247,-52.5341"/>
<polygon fill="#191970" stroke="#191970" points="135.9509,-86.0098 146.029,-89.2784 140.1889,-80.4385 135.9509,-86.0098"/>
</g>
<!-- Node4 -->
<g id="node4" class="node">
<title>Node4</title>
<g id="a_node4"><a xlink:href="../../d8/d56/MergerBuilder_8cxx.html" target="_top" xlink:title="Definition of MergerBuilder for O2 Mergers. ">
<polygon fill="none" stroke="#000000" points="145,-.5 145,-52.5 272,-52.5 272,-.5 145,-.5"/>
<text text-anchor="start" x="153" y="-40.5" font-family="Helvetica,sans-Serif" font-size="10.00" fill="#000000">/home/travis/build</text>
<text text-anchor="start" x="153" y="-29.5" font-family="Helvetica,sans-Serif" font-size="10.00" fill="#000000">/AliceO2Group/AliceO2</text>
<text text-anchor="start" x="153" y="-18.5" font-family="Helvetica,sans-Serif" font-size="10.00" fill="#000000">/Utilities/Mergers/src</text>
<text text-anchor="middle" x="208.5" y="-7.5" font-family="Helvetica,sans-Serif" font-size="10.00" fill="#000000">/MergerBuilder.cxx</text>
</a>
</g>
</g>
<!-- Node2&#45;&gt;Node4 -->
<g id="edge3" class="edge">
<title>Node2&#45;&gt;Node4</title>
<path fill="none" stroke="#191970" d="M191.7642,-79.6959C194.6216,-70.6135 197.6372,-61.0282 200.3095,-52.5341"/>
<polygon fill="#191970" stroke="#191970" points="188.4119,-78.689 188.7495,-89.2784 195.0893,-80.7898 188.4119,-78.689"/>
</g>
<!-- Node5&#45;&gt;Node4 -->
<g id="edge6" class="edge">
<title>Node5&#45;&gt;Node4</title>
<path fill="none" stroke="#191970" d="M302.8241,-83.9989C285.9299,-73.7004 267.3654,-62.3837 251.2077,-52.5341"/>
<polygon fill="#191970" stroke="#191970" points="301.1245,-87.0619 311.4848,-89.2784 304.768,-81.0848 301.1245,-87.0619"/>
</g>
<!-- Node6 -->
<g id="node6" class="node">
<title>Node6</title>
<g id="a_node6"><a xlink:href="../../d0/d24/IntegratingMerger_8cxx.html" target="_top" xlink:title="Implementation of O2 Mergers, v0.1. ">
<polygon fill="none" stroke="#000000" points="290,-.5 290,-52.5 417,-52.5 417,-.5 290,-.5"/>
<text text-anchor="start" x="298" y="-40.5" font-family="Helvetica,sans-Serif" font-size="10.00" fill="#000000">/home/travis/build</text>
<text text-anchor="start" x="298" y="-29.5" font-family="Helvetica,sans-Serif" font-size="10.00" fill="#000000">/AliceO2Group/AliceO2</text>
<text text-anchor="start" x="298" y="-18.5" font-family="Helvetica,sans-Serif" font-size="10.00" fill="#000000">/Utilities/Mergers/src</text>
<text text-anchor="middle" x="353.5" y="-7.5" font-family="Helvetica,sans-Serif" font-size="10.00" fill="#000000">/IntegratingMerger.cxx</text>
</a>
</g>
</g>
<!-- Node5&#45;&gt;Node6 -->
<g id="edge5" class="edge">
<title>Node5&#45;&gt;Node6</title>
<path fill="none" stroke="#191970" d="M354.0912,-79.1155C353.9911,-70.2061 353.8859,-60.8475 353.7925,-52.5341"/>
<polygon fill="#191970" stroke="#191970" points="350.5931,-79.3184 354.2054,-89.2784 357.5927,-79.2397 350.5931,-79.3184"/>
</g>
<!-- Node7&#45;&gt;Node3 -->
<g id="edge8" class="edge">
<title>Node7&#45;&gt;Node3</title>
<path fill="none" stroke="#191970" d="M443.3343,-89.4107C442.7211,-89.2711 442.1096,-89.1342 441.5,-89 307.7632,-59.5644 268.6777,-84.8702 135.5,-53 132.7797,-52.349 130.0211,-51.6265 127.249,-50.8486"/>
<polygon fill="#191970" stroke="#191970" points="442.832,-92.8915 453.3788,-91.8836 444.5055,-86.0945 442.832,-92.8915"/>
</g>
<!-- Node7&#45;&gt;Node4 -->
<g id="edge10" class="edge">
<title>Node7&#45;&gt;Node4</title>
<path fill="none" stroke="#191970" d="M443.312,-89.5012C442.706,-89.3324 442.1019,-89.1653 441.5,-89 370.7965,-69.578 350.8374,-73.7085 280.5,-53 277.8167,-52.21 275.0892,-51.3713 272.3427,-50.4972"/>
<polygon fill="#191970" stroke="#191970" points="442.6826,-92.962 453.2604,-92.3624 444.6174,-86.2347 442.6826,-92.962"/>
</g>
<!-- Node7&#45;&gt;Node6 -->
<g id="edge9" class="edge">
<title>Node7&#45;&gt;Node6</title>
<path fill="none" stroke="#191970" d="M463.7579,-84.5648C443.9173,-74.1162 421.9819,-62.5644 402.9356,-52.5341"/>
<polygon fill="#191970" stroke="#191970" points="462.2295,-87.7156 472.7085,-89.2784 465.4913,-81.5219 462.2295,-87.7156"/>
</g>
<!-- Node8 -->
<g id="node8" class="node">
<title>Node8</title>
<g id="a_node8"><a xlink:href="../../d4/dda/MergerInfrastructureBuilder_8cxx.html" target="_top" xlink:title="Definition of Mergers&#39; Infrastructure Builder. ">
<polygon fill="none" stroke="#000000" points="834,-.5 834,-52.5 1007,-52.5 1007,-.5 834,-.5"/>
<text text-anchor="start" x="842" y="-40.5" font-family="Helvetica,sans-Serif" font-size="10.00" fill="#000000">/home/travis/build</text>
<text text-anchor="start" x="842" y="-29.5" font-family="Helvetica,sans-Serif" font-size="10.00" fill="#000000">/AliceO2Group/AliceO2</text>
<text text-anchor="start" x="842" y="-18.5" font-family="Helvetica,sans-Serif" font-size="10.00" fill="#000000">/Utilities/Mergers/src</text>
<text text-anchor="middle" x="920.5" y="-7.5" font-family="Helvetica,sans-Serif" font-size="10.00" fill="#000000">/MergerInfrastructureBuilder.cxx</text>
</a>
</g>
</g>
<!-- Node7&#45;&gt;Node8 -->
<g id="edge11" class="edge">
<title>Node7&#45;&gt;Node8</title>
<path fill="none" stroke="#191970" d="M601.7153,-100.5737C662.8157,-88.7067 749.3116,-71.1374 824.5,-53 827.6095,-52.2499 830.7708,-51.4699 833.9604,-50.6681"/>
<polygon fill="#191970" stroke="#191970" points="600.9061,-97.1653 591.7534,-102.5017 602.2363,-104.0378 600.9061,-97.1653"/>
</g>
<!-- Node9 -->
<g id="node9" class="node">
<title>Node9</title>
<g id="a_node9"><a xlink:href="../../d9/de7/mergersTopologyExample_8cxx.html" target="_top" xlink:title="This is a DPL workflow to see Mergers in action. ">
<polygon fill="none" stroke="#000000" points="1025,-.5 1025,-52.5 1192,-52.5 1192,-.5 1025,-.5"/>
<text text-anchor="start" x="1033" y="-40.5" font-family="Helvetica,sans-Serif" font-size="10.00" fill="#000000">/home/travis/build</text>
<text text-anchor="start" x="1033" y="-29.5" font-family="Helvetica,sans-Serif" font-size="10.00" fill="#000000">/AliceO2Group/AliceO2</text>
<text text-anchor="start" x="1033" y="-18.5" font-family="Helvetica,sans-Serif" font-size="10.00" fill="#000000">/Utilities/Mergers/src</text>
<text text-anchor="middle" x="1108.5" y="-7.5" font-family="Helvetica,sans-Serif" font-size="10.00" fill="#000000">/mergersTopologyExample.cxx</text>
</a>
</g>
</g>
<!-- Node7&#45;&gt;Node9 -->
<g id="edge12" class="edge">
<title>Node7&#45;&gt;Node9</title>
<path fill="none" stroke="#191970" d="M601.8429,-103.905C635.3502,-99.1151 674.8021,-93.6152 710.5,-89 846.3077,-71.4421 882.2586,-80.0416 1016.5,-53 1019.27,-52.442 1022.0779,-51.8413 1024.9063,-51.2059"/>
<polygon fill="#191970" stroke="#191970" points="601.0477,-100.4831 591.6456,-105.367 602.0412,-107.4123 601.0477,-100.4831"/>
</g>
<!-- Node10 -->
<g id="node10" class="node">
<title>Node10</title>
<g id="a_node10"><a xlink:href="../../dc/daf/mergersBenchmarkTopology_8cxx.html" target="_top" xlink:title="This is a DPL workflow to benchmark Mergers. ">
<polygon fill="none" stroke="#000000" points="435.5,-.5 435.5,-52.5 613.5,-52.5 613.5,-.5 435.5,-.5"/>
<text text-anchor="start" x="443.5" y="-40.5" font-family="Helvetica,sans-Serif" font-size="10.00" fill="#000000">/home/travis/build</text>
<text text-anchor="start" x="443.5" y="-29.5" font-family="Helvetica,sans-Serif" font-size="10.00" fill="#000000">/AliceO2Group/AliceO2</text>
<text text-anchor="start" x="443.5" y="-18.5" font-family="Helvetica,sans-Serif" font-size="10.00" fill="#000000">/Utilities/Mergers/test</text>
<text text-anchor="middle" x="524.5" y="-7.5" font-family="Helvetica,sans-Serif" font-size="10.00" fill="#000000">/mergersBenchmarkTopology.cxx</text>
</a>
</g>
</g>
<!-- Node7&#45;&gt;Node10 -->
<g id="edge13" class="edge">
<title>Node7&#45;&gt;Node10</title>
<path fill="none" stroke="#191970" d="M523.3176,-79.1155C523.5178,-70.2061 523.7281,-60.8475 523.915,-52.5341"/>
<polygon fill="#191970" stroke="#191970" points="519.8149,-79.2023 523.0892,-89.2784 526.8131,-79.3596 519.8149,-79.2023"/>
</g>
<!-- Node11 -->
<g id="node11" class="node">
<title>Node11</title>
<g id="a_node11"><a xlink:href="../../dc/dbc/multinodeBenchmarkMergers_8cxx.html" target="_top" xlink:title="This is a DPL workflow to run Mergers and an input proxy for benchmarks. ">
<polygon fill="none" stroke="#000000" points="631.5,-.5 631.5,-52.5 815.5,-52.5 815.5,-.5 631.5,-.5"/>
<text text-anchor="start" x="639.5" y="-40.5" font-family="Helvetica,sans-Serif" font-size="10.00" fill="#000000">/home/travis/build</text>
<text text-anchor="start" x="639.5" y="-29.5" font-family="Helvetica,sans-Serif" font-size="10.00" fill="#000000">/AliceO2Group/AliceO2</text>
<text text-anchor="start" x="639.5" y="-18.5" font-family="Helvetica,sans-Serif" font-size="10.00" fill="#000000">/Utilities/Mergers/test</text>
<text text-anchor="middle" x="723.5" y="-7.5" font-family="Helvetica,sans-Serif" font-size="10.00" fill="#000000">/multinodeBenchmarkMergers.cxx</text>
</a>
</g>
</g>
<!-- Node7&#45;&gt;Node11 -->
<g id="edge14" class="edge">
<title>Node7&#45;&gt;Node11</title>
<path fill="none" stroke="#191970" d="M590.8256,-85.2464C614.7712,-74.6436 641.4411,-62.8346 664.5525,-52.6011"/>
<polygon fill="#191970" stroke="#191970" points="589.1752,-82.1493 581.4485,-89.3984 592.0093,-88.55 589.1752,-82.1493"/>
</g>
<!-- Node12&#45;&gt;Node8 -->
<g id="edge16" class="edge">
<title>Node12&#45;&gt;Node8</title>
<path fill="none" stroke="#191970" d="M858.1238,-82.5755C869.1476,-72.6653 881.087,-61.9319 891.5407,-52.5341"/>
<polygon fill="#191970" stroke="#191970" points="855.7646,-79.9901 850.6678,-89.2784 860.4444,-85.1958 855.7646,-79.9901"/>
</g>
<!-- Node12&#45;&gt;Node9 -->
<g id="edge17" class="edge">
<title>Node12&#45;&gt;Node9</title>
<path fill="none" stroke="#191970" d="M915.4874,-86.3541C950.751,-75.4187 990.561,-63.0734 1024.8271,-52.4474"/>
<polygon fill="#191970" stroke="#191970" points="914.1849,-83.0935 905.6703,-89.3984 916.2582,-89.7794 914.1849,-83.0935"/>
</g>
<!-- Node12&#45;&gt;Node10 -->
<g id="edge18" class="edge">
<title>Node12&#45;&gt;Node10</title>
<path fill="none" stroke="#191970" d="M724.7269,-86.5007C688.2018,-75.5554 646.9056,-63.1805 611.3448,-52.5242"/>
<polygon fill="#191970" stroke="#191970" points="723.8131,-89.8805 734.397,-89.3984 725.8225,-83.1751 723.8131,-89.8805"/>
</g>
<!-- Node12&#45;&gt;Node11 -->
<g id="edge19" class="edge">
<title>Node12&#45;&gt;Node11</title>
<path fill="none" stroke="#191970" d="M784.9311,-82.2894C774.1065,-72.459 762.4154,-61.8415 752.1668,-52.5341"/>
<polygon fill="#191970" stroke="#191970" points="782.8709,-85.1464 792.6268,-89.2784 787.577,-79.9644 782.8709,-85.1464"/>
</g>
<!-- Node13 -->
<g id="node13" class="node">
<title>Node13</title>
<g id="a_node13"><a xlink:href="../../d9/db1/test__InfrastructureBuilder_8cxx.html" target="_top" xlink:title="/home/travis/build\l/AliceO2Group/AliceO2\l/Utilities/Mergers/test\l/test_InfrastructureBuilder.cxx">
<polygon fill="none" stroke="#000000" points="1210.5,-.5 1210.5,-52.5 1374.5,-52.5 1374.5,-.5 1210.5,-.5"/>
<text text-anchor="start" x="1218.5" y="-40.5" font-family="Helvetica,sans-Serif" font-size="10.00" fill="#000000">/home/travis/build</text>
<text text-anchor="start" x="1218.5" y="-29.5" font-family="Helvetica,sans-Serif" font-size="10.00" fill="#000000">/AliceO2Group/AliceO2</text>
<text text-anchor="start" x="1218.5" y="-18.5" font-family="Helvetica,sans-Serif" font-size="10.00" fill="#000000">/Utilities/Mergers/test</text>
<text text-anchor="middle" x="1292.5" y="-7.5" font-family="Helvetica,sans-Serif" font-size="10.00" fill="#000000">/test_InfrastructureBuilder.cxx</text>
</a>
</g>
</g>
<!-- Node12&#45;&gt;Node13 -->
<g id="edge20" class="edge">
<title>Node12&#45;&gt;Node13</title>
<path fill="none" stroke="#191970" d="M933.8312,-100.6485C1009.8436,-89.7136 1112.2699,-73.253 1201.5,-53 1204.3884,-52.3444 1207.3205,-51.65 1210.2759,-50.9255"/>
<polygon fill="#191970" stroke="#191970" points="933.1606,-97.2086 923.7561,-102.0878 934.1506,-104.1383 933.1606,-97.2086"/>
</g>
</g>
</svg>
