<?xml version="1.0" encoding="UTF-8" standalone="no"?>
<!DOCTYPE svg PUBLIC "-//W3C//DTD SVG 1.1//EN"
 "http://www.w3.org/Graphics/SVG/1.1/DTD/svg11.dtd">
<!-- Generated by graphviz version 2.40.1 (20161225.0304)
 -->
<!-- Title: /home/travis/build/AliceO2Group/AliceO2/Detectors/MUON/MID/Raw/include/MIDRaw/Decoder.h Pages: 1 -->
<svg width="670pt" height="150pt"
 viewBox="0.00 0.00 670.00 150.00" xmlns="http://www.w3.org/2000/svg" xmlns:xlink="http://www.w3.org/1999/xlink">
<g id="graph0" class="graph" transform="scale(1 1) rotate(0) translate(4 146)">
<title>/home/travis/build/AliceO2Group/AliceO2/Detectors/MUON/MID/Raw/include/MIDRaw/Decoder.h</title>
<!-- Node39 -->
<g id="node1" class="node">
<title>Node39</title>
<polygon fill="#bfbfbf" stroke="#000000" points="244.5,-89.5 244.5,-141.5 393.5,-141.5 393.5,-89.5 244.5,-89.5"/>
<text text-anchor="start" x="252.5" y="-129.5" font-family="Helvetica,sans-Serif" font-size="10.00" fill="#000000">/home/travis/build</text>
<text text-anchor="start" x="252.5" y="-118.5" font-family="Helvetica,sans-Serif" font-size="10.00" fill="#000000">/AliceO2Group/AliceO2</text>
<text text-anchor="start" x="252.5" y="-107.5" font-family="Helvetica,sans-Serif" font-size="10.00" fill="#000000">/Detectors/MUON/MID/Raw</text>
<text text-anchor="middle" x="319" y="-96.5" font-family="Helvetica,sans-Serif" font-size="10.00" fill="#000000">/include/MIDRaw/Decoder.h</text>
</g>
<!-- Node40 -->
<g id="node2" class="node">
<title>Node40</title>
<g id="a_node2"><a xlink:href="../../dc/d28/MUON_2MID_2Raw_2src_2Decoder_8cxx.html" target="_top" xlink:title="MID raw data decoder. ">
<polygon fill="none" stroke="#000000" points="0,-.5 0,-52.5 146,-52.5 146,-.5 0,-.5"/>
<text text-anchor="start" x="8" y="-40.5" font-family="Helvetica,sans-Serif" font-size="10.00" fill="#000000">/home/travis/build</text>
<text text-anchor="start" x="8" y="-29.5" font-family="Helvetica,sans-Serif" font-size="10.00" fill="#000000">/AliceO2Group/AliceO2</text>
<text text-anchor="start" x="8" y="-18.5" font-family="Helvetica,sans-Serif" font-size="10.00" fill="#000000">/Detectors/MUON/MID/Raw</text>
<text text-anchor="middle" x="73" y="-7.5" font-family="Helvetica,sans-Serif" font-size="10.00" fill="#000000">/src/Decoder.cxx</text>
</a>
</g>
</g>
<!-- Node39&#45;&gt;Node40 -->
<g id="edge1" class="edge">
<title>Node39&#45;&gt;Node40</title>
<path fill="none" stroke="#191970" d="M237.3177,-85.9483C207.5175,-75.1669 174.0561,-63.061 145.1446,-52.6011"/>
<polygon fill="#191970" stroke="#191970" points="236.2598,-89.2875 246.8541,-89.3984 238.6413,-82.705 236.2598,-89.2875"/>
</g>
<!-- Node41 -->
<g id="node3" class="node">
<title>Node41</title>
<g id="a_node3"><a xlink:href="../../d5/d52/bench__Raw_8cxx.html" target="_top" xlink:title="Benchmark MID raw data decoder. ">
<polygon fill="none" stroke="#000000" points="164,-.5 164,-52.5 310,-52.5 310,-.5 164,-.5"/>
<text text-anchor="start" x="172" y="-40.5" font-family="Helvetica,sans-Serif" font-size="10.00" fill="#000000">/home/travis/build</text>
<text text-anchor="start" x="172" y="-29.5" font-family="Helvetica,sans-Serif" font-size="10.00" fill="#000000">/AliceO2Group/AliceO2</text>
<text text-anchor="start" x="172" y="-18.5" font-family="Helvetica,sans-Serif" font-size="10.00" fill="#000000">/Detectors/MUON/MID/Raw</text>
<text text-anchor="middle" x="237" y="-7.5" font-family="Helvetica,sans-Serif" font-size="10.00" fill="#000000">/test/bench_Raw.cxx</text>
</a>
</g>
</g>
<!-- Node39&#45;&gt;Node41 -->
<g id="edge2" class="edge">
<title>Node39&#45;&gt;Node41</title>
<path fill="none" stroke="#191970" d="M287.8731,-81.7159C278.9648,-72.0472 269.3953,-61.6608 260.9865,-52.5341"/>
<polygon fill="#191970" stroke="#191970" points="285.4908,-84.2956 294.8408,-89.2784 290.6389,-79.5525 285.4908,-84.2956"/>
</g>
<!-- Node42 -->
<g id="node4" class="node">
<title>Node42</title>
<g id="a_node4"><a xlink:href="../../d8/d4c/testRaw_8cxx.html" target="_top" xlink:title="Test MID raw data decoder. ">
<polygon fill="none" stroke="#000000" points="328,-.5 328,-52.5 474,-52.5 474,-.5 328,-.5"/>
<text text-anchor="start" x="336" y="-40.5" font-family="Helvetica,sans-Serif" font-size="10.00" fill="#000000">/home/travis/build</text>
<text text-anchor="start" x="336" y="-29.5" font-family="Helvetica,sans-Serif" font-size="10.00" fill="#000000">/AliceO2Group/AliceO2</text>
<text text-anchor="start" x="336" y="-18.5" font-family="Helvetica,sans-Serif" font-size="10.00" fill="#000000">/Detectors/MUON/MID/Raw</text>
<text text-anchor="middle" x="401" y="-7.5" font-family="Helvetica,sans-Serif" font-size="10.00" fill="#000000">/test/testRaw.cxx</text>
</a>
</g>
</g>
<!-- Node39&#45;&gt;Node42 -->
<g id="edge3" class="edge">
<title>Node39&#45;&gt;Node42</title>
<path fill="none" stroke="#191970" d="M350.1269,-81.7159C359.0352,-72.0472 368.6047,-61.6608 377.0135,-52.5341"/>
<polygon fill="#191970" stroke="#191970" points="347.3611,-79.5525 343.1592,-89.2784 352.5092,-84.2956 347.3611,-79.5525"/>
</g>
<!-- Node43 -->
<g id="node5" class="node">
<title>Node43</title>
<g id="a_node5"><a xlink:href="../../d1/dc9/RawDecoderSpec_8cxx.html" target="_top" xlink:title="Data processor spec for MID raw decoder device. ">
<polygon fill="none" stroke="#000000" points="492,-.5 492,-52.5 662,-52.5 662,-.5 492,-.5"/>
<text text-anchor="start" x="500" y="-40.5" font-family="Helvetica,sans-Serif" font-size="10.00" fill="#000000">/home/travis/build</text>
<text text-anchor="start" x="500" y="-29.5" font-family="Helvetica,sans-Serif" font-size="10.00" fill="#000000">/AliceO2Group/AliceO2</text>
<text text-anchor="start" x="500" y="-18.5" font-family="Helvetica,sans-Serif" font-size="10.00" fill="#000000">/Detectors/MUON/MID/Workflow</text>
<text text-anchor="middle" x="577" y="-7.5" font-family="Helvetica,sans-Serif" font-size="10.00" fill="#000000">/src/RawDecoderSpec.cxx</text>
</a>
</g>
</g>
<!-- Node39&#45;&gt;Node43 -->
<g id="edge4" class="edge">
<title>Node39&#45;&gt;Node43</title>
<path fill="none" stroke="#191970" d="M403.2763,-86.4279C434.8309,-75.5428 470.4599,-63.2522 501.2016,-52.6475"/>
<polygon fill="#191970" stroke="#191970" points="401.9362,-83.1877 393.6243,-89.7575 404.219,-89.8051 401.9362,-83.1877"/>
</g>
</g>
</svg>
