<?xml version="1.0" encoding="UTF-8" standalone="no"?>
<!DOCTYPE svg PUBLIC "-//W3C//DTD SVG 1.1//EN"
 "http://www.w3.org/Graphics/SVG/1.1/DTD/svg11.dtd">
<!-- Generated by graphviz version 2.40.1 (20161225.0304)
 -->
<!-- Title: o2::mch::raw::DataFormatSizeFactor&lt; ChargeSumMode &gt; Pages: 1 -->
<svg width="179pt" height="182pt"
 viewBox="0.00 0.00 179.00 182.00" xmlns="http://www.w3.org/2000/svg" xmlns:xlink="http://www.w3.org/1999/xlink">
<g id="graph0" class="graph" transform="scale(1 1) rotate(0) translate(4 178)">
<title>o2::mch::raw::DataFormatSizeFactor&lt; ChargeSumMode &gt;</title>
<!-- Node1 -->
<g id="node1" class="node">
<title>Node1</title>
<polygon fill="#bfbfbf" stroke="#000000" points="0,-.5 0,-68.5 171,-68.5 171,-.5 0,-.5"/>
<text text-anchor="start" x="8" y="-56.5" font-family="Helvetica,sans-Serif" font-size="10.00" fill="#000000">o2::mch::raw::DataFormat</text>
<text text-anchor="middle" x="85.5" y="-45.5" font-family="Helvetica,sans-Serif" font-size="10.00" fill="#000000">SizeFactor&lt; ChargeSumMode &gt;</text>
<polyline fill="none" stroke="#000000" points="0,-38.5 171,-38.5 "/>
<text text-anchor="middle" x="85.5" y="-26.5" font-family="Helvetica,sans-Serif" font-size="10.00" fill="#000000"> </text>
<polyline fill="none" stroke="#000000" points="0,-19.5 171,-19.5 "/>
<text text-anchor="middle" x="85.5" y="-7.5" font-family="Helvetica,sans-Serif" font-size="10.00" fill="#000000"> </text>
</g>
<!-- Node2 -->
<g id="node2" class="node">
<title>Node2</title>
<polygon fill="none" stroke="#bfbfbf" points="20,-116.5 20,-173.5 151,-173.5 151,-116.5 20,-116.5"/>
<text text-anchor="middle" x="85.5" y="-161.5" font-family="Helvetica,sans-Serif" font-size="10.00" fill="#000000">static constexpr uint8_t</text>
<polyline fill="none" stroke="#bfbfbf" points="20,-154.5 151,-154.5 "/>
<text text-anchor="middle" x="85.5" y="-142.5" font-family="Helvetica,sans-Serif" font-size="10.00" fill="#000000"> </text>
<polyline fill="none" stroke="#bfbfbf" points="20,-135.5 151,-135.5 "/>
<text text-anchor="middle" x="85.5" y="-123.5" font-family="Helvetica,sans-Serif" font-size="10.00" fill="#000000"> </text>
</g>
<!-- Node2&#45;&gt;Node1 -->
<g id="edge1" class="edge">
<title>Node2&#45;&gt;Node1</title>
<path fill="none" stroke="#404040" d="M85.5,-116.2559C85.5,-105.4349 85.5,-92.8362 85.5,-80.8169"/>
<polygon fill="none" stroke="#404040" points="85.5001,-80.6001 81.5,-74.6001 85.5,-68.6001 89.5,-74.6 85.5001,-80.6001"/>
<text text-anchor="middle" x="105" y="-90" font-family="Helvetica,sans-Serif" font-size="10.00" fill="#000000"> +value</text>
</g>
</g>
</svg>
