<?xml version="1.0" encoding="UTF-8" standalone="no"?>
<!DOCTYPE svg PUBLIC "-//W3C//DTD SVG 1.1//EN"
 "http://www.w3.org/Graphics/SVG/1.1/DTD/svg11.dtd">
<!-- Generated by graphviz version 2.40.1 (20161225.0304)
 -->
<!-- Title: /home/travis/build/AliceO2Group/AliceO2/DataFormats/Detectors/EMCAL/src/TriggerRecord.cxx Pages: 1 -->
<!--zoomable 307 -->
<svg id="main" version="1.1" xmlns="http://www.w3.org/2000/svg" xmlns:xlink="http://www.w3.org/1999/xlink" xml:space="preserve" onload="init(evt)">
<style type="text/css"><![CDATA[
.edge:hover path { stroke: red; }
.edge:hover polygon { stroke: red; fill: red; }
]]></style>
<script type="text/javascript"><![CDATA[
var edges = document.getElementsByTagName('g');
if (edges && edges.length) {
  for (var i=0;i<edges.length;i++) {
    if (edges[i].id.substr(0,4)=='edge') {
      edges[i].setAttribute('class','edge');
    }
  }
}
]]></script>
        <defs>
                <circle id="rim" cx="0" cy="0" r="7"/>
                <circle id="rim2" cx="0" cy="0" r="3.5"/>
                <g id="zoomPlus">
                        <use xlink:href="#rim" fill="#404040">
                                <set attributeName="fill" to="#808080" begin="zoomplus.mouseover" end="zoomplus.mouseout"/>
                        </use>
                        <path d="M-4,0h8M0,-4v8" fill="none" stroke="white" stroke-width="1.5" pointer-events="none"/>
                </g>
                <g id="zoomMin">
                        <use xlink:href="#rim" fill="#404040">
                                <set attributeName="fill" to="#808080" begin="zoomminus.mouseover" end="zoomminus.mouseout"/>
                        </use>
                        <path d="M-4,0h8" fill="none" stroke="white" stroke-width="1.5" pointer-events="none"/>
                </g>
                <g id="dirArrow">
                        <path fill="none" stroke="white" stroke-width="1.5" d="M0,-3.0v7 M-2.5,-0.5L0,-3.0L2.5,-0.5"/>
                </g>
               <g id="resetDef">
                       <use xlink:href="#rim2" fill="#404040">
                               <set attributeName="fill" to="#808080" begin="reset.mouseover" end="reset.mouseout"/>
                       </use>
               </g>
        </defs>

<script type="text/javascript">
var viewWidth = 669;
var viewHeight = 307;
var sectionId = 'dynsection-0';
</script>
<script xlink:href="../../svgpan.js"/>
<svg id="graph" class="graph">
<g id="viewport">
<title>/home/travis/build/AliceO2Group/AliceO2/DataFormats/Detectors/EMCAL/src/TriggerRecord.cxx</title>
<!-- Node0 -->
<g id="node1" class="node">
<title>Node0</title>
<polygon fill="#bfbfbf" stroke="#000000" points="11.5,-246.5 11.5,-298.5 170.5,-298.5 170.5,-246.5 11.5,-246.5"/>
<text text-anchor="start" x="19.5" y="-286.5" font-family="Helvetica,sans-Serif" font-size="10.00" fill="#000000">/home/travis/build</text>
<text text-anchor="start" x="19.5" y="-275.5" font-family="Helvetica,sans-Serif" font-size="10.00" fill="#000000">/AliceO2Group/AliceO2</text>
<text text-anchor="start" x="19.5" y="-264.5" font-family="Helvetica,sans-Serif" font-size="10.00" fill="#000000">/DataFormats/Detectors</text>
<text text-anchor="middle" x="91" y="-253.5" font-family="Helvetica,sans-Serif" font-size="10.00" fill="#000000">/EMCAL/src/TriggerRecord.cxx</text>
</g>
<!-- Node1 -->
<g id="node2" class="node">
<title>Node1</title>
<polygon fill="none" stroke="#bfbfbf" points="0,-185 0,-204 60,-204 60,-185 0,-185"/>
<text text-anchor="middle" x="30" y="-192" font-family="Helvetica,sans-Serif" font-size="10.00" fill="#000000">iostream</text>
</g>
<!-- Node0&#45;&gt;Node1 -->
<g id="edge1" class="edge">
<title>Node0&#45;&gt;Node1</title>
<path fill="none" stroke="#191970" d="M70.3482,-246.0928C61.5798,-234.8808 51.595,-222.1133 43.7518,-212.0843"/>
<polygon fill="#191970" stroke="#191970" points="46.4125,-209.8049 37.4951,-204.0839 40.8985,-214.1172 46.4125,-209.8049"/>
</g>
<!-- Node2 -->
<g id="node3" class="node">
<title>Node2</title>
<g id="a_node3"><a xlink:href="../../d9/d38/EMCAL_2include_2DataFormatsEMCAL_2TriggerRecord_8h.html" target="_top" xlink:title="DataFormatsEMCAL/Trigger\lRecord.h">
<polygon fill="none" stroke="#000000" points="77.5,-179.5 77.5,-209.5 226.5,-209.5 226.5,-179.5 77.5,-179.5"/>
<text text-anchor="start" x="85.5" y="-197.5" font-family="Helvetica,sans-Serif" font-size="10.00" fill="#000000">DataFormatsEMCAL/Trigger</text>
<text text-anchor="middle" x="152" y="-186.5" font-family="Helvetica,sans-Serif" font-size="10.00" fill="#000000">Record.h</text>
</a>
</g>
</g>
<!-- Node0&#45;&gt;Node2 -->
<g id="edge2" class="edge">
<title>Node0&#45;&gt;Node2</title>
<path fill="none" stroke="#191970" d="M111.6518,-246.0928C118.881,-236.8489 126.9371,-226.5476 133.9381,-217.5955"/>
<polygon fill="#191970" stroke="#191970" points="136.8623,-219.5379 140.2657,-209.5046 131.3483,-215.2256 136.8623,-219.5379"/>
</g>
<!-- Node3 -->
<g id="node4" class="node">
<title>Node3</title>
<polygon fill="none" stroke="#bfbfbf" points="82.5,-56.5 82.5,-75.5 131.5,-75.5 131.5,-56.5 82.5,-56.5"/>
<text text-anchor="middle" x="107" y="-63.5" font-family="Helvetica,sans-Serif" font-size="10.00" fill="#000000">iosfwd</text>
</g>
<!-- Node2&#45;&gt;Node3 -->
<g id="edge3" class="edge">
<title>Node2&#45;&gt;Node3</title>
<path fill="none" stroke="#191970" d="M131.8026,-179.232C121.3584,-170.029 109.6423,-157.3293 104,-143 96.712,-124.4915 98.9019,-101.5076 102.0186,-85.4907"/>
<polygon fill="#191970" stroke="#191970" points="105.4511,-86.1788 104.2192,-75.6558 98.62,-84.6502 105.4511,-86.1788"/>
</g>
<!-- Node4 -->
<g id="node5" class="node">
<title>Node4</title>
<polygon fill="none" stroke="#bfbfbf" points="102.5,-.5 102.5,-19.5 161.5,-19.5 161.5,-.5 102.5,-.5"/>
<text text-anchor="middle" x="132" y="-7.5" font-family="Helvetica,sans-Serif" font-size="10.00" fill="#000000">Rtypes.h</text>
</g>
<!-- Node2&#45;&gt;Node4 -->
<g id="edge4" class="edge">
<title>Node2&#45;&gt;Node4</title>
<path fill="none" stroke="#191970" d="M130.1274,-179.3116C118.2381,-170.0469 104.1385,-157.2608 95,-143 78.163,-116.7256 78.721,-106.847 74,-76 72.6553,-67.2134 70.1325,-64.0034 74,-56 80.2828,-42.9981 92.2235,-32.5481 103.6451,-24.9145"/>
<polygon fill="#191970" stroke="#191970" points="105.5177,-27.8718 112.1759,-19.6305 101.8316,-21.9209 105.5177,-27.8718"/>
</g>
<!-- Node5 -->
<g id="node6" class="node">
<title>Node5</title>
<g id="a_node6"><a xlink:href="../../d9/d80/InteractionRecord_8h.html" target="_top" xlink:title="CommonDataFormat/Interaction\lRecord.h">
<polygon fill="none" stroke="#000000" points="341,-112.5 341,-142.5 515,-142.5 515,-112.5 341,-112.5"/>
<text text-anchor="start" x="349" y="-130.5" font-family="Helvetica,sans-Serif" font-size="10.00" fill="#000000">CommonDataFormat/Interaction</text>
<text text-anchor="middle" x="428" y="-119.5" font-family="Helvetica,sans-Serif" font-size="10.00" fill="#000000">Record.h</text>
</a>
</g>
</g>
<!-- Node2&#45;&gt;Node5 -->
<g id="edge5" class="edge">
<title>Node2&#45;&gt;Node5</title>
<path fill="none" stroke="#191970" d="M213.9398,-179.4639C256.051,-169.2412 311.904,-155.6827 355.9983,-144.9787"/>
<polygon fill="#191970" stroke="#191970" points="356.898,-148.362 365.7901,-142.6017 355.2466,-141.5596 356.898,-148.362"/>
</g>
<!-- Node10 -->
<g id="node11" class="node">
<title>Node10</title>
<g id="a_node11"><a xlink:href="../../de/d64/RangeReference_8h.html" target="_top" xlink:title="Class to refer to the 1st entry and N elements of some group in the continuous container. ">
<polygon fill="none" stroke="#000000" points="113,-118 113,-137 323,-137 323,-118 113,-118"/>
<text text-anchor="middle" x="218" y="-125" font-family="Helvetica,sans-Serif" font-size="10.00" fill="#000000">CommonDataFormat/RangeReference.h</text>
</a>
</g>
</g>
<!-- Node2&#45;&gt;Node10 -->
<g id="edge12" class="edge">
<title>Node2&#45;&gt;Node10</title>
<path fill="none" stroke="#191970" d="M166.9764,-179.2967C177.2595,-168.8578 190.9108,-154.9997 201.5053,-144.2446"/>
<polygon fill="#191970" stroke="#191970" points="204.0633,-146.6352 208.5876,-137.055 199.0765,-141.7228 204.0633,-146.6352"/>
</g>
<!-- Node5&#45;&gt;Node3 -->
<g id="edge8" class="edge">
<title>Node5&#45;&gt;Node3</title>
<path fill="none" stroke="#191970" d="M340.6916,-112.9748C285.0747,-103.3579 211.5932,-89.9784 147,-76 145.3165,-75.6357 143.5961,-75.2515 141.8606,-74.8544"/>
<polygon fill="#191970" stroke="#191970" points="142.446,-71.3961 131.9075,-72.4874 140.8264,-78.2062 142.446,-71.3961"/>
</g>
<!-- Node6 -->
<g id="node7" class="node">
<title>Node6</title>
<g id="a_node7"><a xlink:href="../../d2/d45/GPUCommonRtypes_8h.html" target="_top" xlink:title="GPUCommonRtypes.h">
<polygon fill="none" stroke="#000000" points="155.5,-56.5 155.5,-75.5 280.5,-75.5 280.5,-56.5 155.5,-56.5"/>
<text text-anchor="middle" x="218" y="-63.5" font-family="Helvetica,sans-Serif" font-size="10.00" fill="#000000">GPUCommonRtypes.h</text>
</a>
</g>
</g>
<!-- Node5&#45;&gt;Node6 -->
<g id="edge6" class="edge">
<title>Node5&#45;&gt;Node6</title>
<path fill="none" stroke="#191970" d="M376.6282,-112.4554C340.9745,-102.0139 294.0439,-88.27 260.4968,-78.4455"/>
<polygon fill="#191970" stroke="#191970" points="261.1232,-74.982 250.5425,-75.5303 259.1558,-81.6998 261.1232,-74.982"/>
</g>
<!-- Node7 -->
<g id="node8" class="node">
<title>Node7</title>
<polygon fill="none" stroke="#bfbfbf" points="337.5,-56.5 337.5,-75.5 384.5,-75.5 384.5,-56.5 337.5,-56.5"/>
<text text-anchor="middle" x="361" y="-63.5" font-family="Helvetica,sans-Serif" font-size="10.00" fill="#000000">cmath</text>
</g>
<!-- Node5&#45;&gt;Node7 -->
<g id="edge9" class="edge">
<title>Node5&#45;&gt;Node7</title>
<path fill="none" stroke="#191970" d="M411.4382,-112.2977C401.6535,-103.3163 389.2526,-91.9334 379.1957,-82.702"/>
<polygon fill="#191970" stroke="#191970" points="381.4613,-80.0307 371.7275,-75.8469 376.7278,-85.1876 381.4613,-80.0307"/>
</g>
<!-- Node8 -->
<g id="node9" class="node">
<title>Node8</title>
<polygon fill="none" stroke="#bfbfbf" points="403,-56.5 403,-75.5 453,-75.5 453,-56.5 403,-56.5"/>
<text text-anchor="middle" x="428" y="-63.5" font-family="Helvetica,sans-Serif" font-size="10.00" fill="#000000">cstdint</text>
</g>
<!-- Node5&#45;&gt;Node8 -->
<g id="edge10" class="edge">
<title>Node5&#45;&gt;Node8</title>
<path fill="none" stroke="#191970" d="M428,-112.2977C428,-104.3834 428,-94.6043 428,-86.0759"/>
<polygon fill="#191970" stroke="#191970" points="431.5001,-85.8469 428,-75.8469 424.5001,-85.847 431.5001,-85.8469"/>
</g>
<!-- Node9 -->
<g id="node10" class="node">
<title>Node9</title>
<g id="a_node10"><a xlink:href="../../d4/dc6/LHCConstants_8h.html" target="_top" xlink:title="Header to collect LHC related constants. ">
<polygon fill="none" stroke="#000000" points="471,-56.5 471,-75.5 661,-75.5 661,-56.5 471,-56.5"/>
<text text-anchor="middle" x="566" y="-63.5" font-family="Helvetica,sans-Serif" font-size="10.00" fill="#000000">CommonConstants/LHCConstants.h</text>
</a>
</g>
</g>
<!-- Node5&#45;&gt;Node9 -->
<g id="edge11" class="edge">
<title>Node5&#45;&gt;Node9</title>
<path fill="none" stroke="#191970" d="M461.7586,-112.4554C484.2793,-102.419 513.6467,-89.3314 535.4692,-79.6061"/>
<polygon fill="#191970" stroke="#191970" points="536.9056,-82.7979 544.6149,-75.5303 534.0561,-76.4041 536.9056,-82.7979"/>
</g>
<!-- Node6&#45;&gt;Node4 -->
<g id="edge7" class="edge">
<title>Node6&#45;&gt;Node4</title>
<path fill="none" stroke="#191970" d="M203.0199,-56.2455C189.8249,-47.6534 170.3949,-35.0014 155.1921,-25.1018"/>
<polygon fill="#191970" stroke="#191970" points="157.0983,-22.1665 146.8084,-19.6427 153.2785,-28.0325 157.0983,-22.1665"/>
</g>
<!-- Node10&#45;&gt;Node6 -->
<g id="edge13" class="edge">
<title>Node10&#45;&gt;Node6</title>
<path fill="none" stroke="#191970" d="M218,-117.8906C218,-109.3657 218,-96.6392 218,-85.9235"/>
<polygon fill="#191970" stroke="#191970" points="221.5001,-85.7448 218,-75.7449 214.5001,-85.7449 221.5001,-85.7448"/>
</g>
</g>
</svg>
        <g id="navigator" transform="translate(0 0)" fill="#404254">
                <rect fill="#f2f5e9" fill-opacity="0.5" stroke="#606060" stroke-width=".5" x="0" y="0" width="60" height="60"/>
                <use id="zoomplus" xlink:href="#zoomPlus" x="17" y="9" onmousedown="handleZoom(evt,'in')"/>
                <use id="zoomminus" xlink:href="#zoomMin" x="42" y="9" onmousedown="handleZoom(evt,'out')"/>
                <use id="reset" xlink:href="#resetDef" x="30" y="36" onmousedown="handleReset()"/>
                <g id="arrowUp" xlink:href="#dirArrow" transform="translate(30 24)" onmousedown="handlePan(0,-1)">
                  <use xlink:href="#rim" fill="#404040">
                        <set attributeName="fill" to="#808080" begin="arrowUp.mouseover" end="arrowUp.mouseout"/>
                  </use>
                  <path fill="none" stroke="white" stroke-width="1.5" d="M0,-3.0v7 M-2.5,-0.5L0,-3.0L2.5,-0.5"/>
                </g>
                <g id="arrowRight" xlink:href="#dirArrow" transform="rotate(90) translate(36 -43)" onmousedown="handlePan(1,0)">
                  <use xlink:href="#rim" fill="#404040">
                        <set attributeName="fill" to="#808080" begin="arrowRight.mouseover" end="arrowRight.mouseout"/>
                  </use>
                  <path fill="none" stroke="white" stroke-width="1.5" d="M0,-3.0v7 M-2.5,-0.5L0,-3.0L2.5,-0.5"/>
                </g>
                <g id="arrowDown" xlink:href="#dirArrow" transform="rotate(180) translate(-30 -48)" onmousedown="handlePan(0,1)">
                  <use xlink:href="#rim" fill="#404040">
                        <set attributeName="fill" to="#808080" begin="arrowDown.mouseover" end="arrowDown.mouseout"/>
                  </use>
                  <path fill="none" stroke="white" stroke-width="1.5" d="M0,-3.0v7 M-2.5,-0.5L0,-3.0L2.5,-0.5"/>
                </g>
                <g id="arrowLeft" xlink:href="#dirArrow" transform="rotate(270) translate(-36 17)" onmousedown="handlePan(-1,0)">
                  <use xlink:href="#rim" fill="#404040">
                        <set attributeName="fill" to="#808080" begin="arrowLeft.mouseover" end="arrowLeft.mouseout"/>
                  </use>
                  <path fill="none" stroke="white" stroke-width="1.5" d="M0,-3.0v7 M-2.5,-0.5L0,-3.0L2.5,-0.5"/>
                </g>
        </g>
        <svg viewBox="0 0 15 15" width="100%" height="30px" preserveAspectRatio="xMaxYMin meet">
         <g id="arrow_out" transform="scale(0.3 0.3)">
          <a xlink:href="EMCAL_2src_2TriggerRecord_8cxx__incl_org.svg" target="_base">
           <rect id="button" ry="5" rx="5" y="6" x="6" height="38" width="38"
                fill="#f2f5e9" fill-opacity="0.5" stroke="#606060" stroke-width="1.0"/>
           <path id="arrow"
             d="M 11.500037,31.436501 C 11.940474,20.09759 22.043105,11.32322 32.158766,21.979434 L 37.068811,17.246167 C 37.068811,17.246167 37.088388,32 37.088388,32 L 22.160133,31.978069 C 22.160133,31.978069 26.997745,27.140456 26.997745,27.140456 C 18.528582,18.264221 13.291696,25.230495 11.500037,31.436501 z"
             style="fill:#404040;"/>
          </a>
         </g>
        </svg>
</svg>
