<?xml version="1.0" encoding="UTF-8" standalone="no"?>
<!DOCTYPE svg PUBLIC "-//W3C//DTD SVG 1.1//EN"
 "http://www.w3.org/Graphics/SVG/1.1/DTD/svg11.dtd">
<!-- Generated by graphviz version 2.40.1 (20161225.0304)
 -->
<!-- Title: /home/travis/build/AliceO2Group/AliceO2/DataFormats/Detectors/CPV/include/DataFormatsCPV/TriggerRecord.h Pages: 1 -->
<svg width="600pt" height="251pt"
 viewBox="0.00 0.00 599.50 251.00" xmlns="http://www.w3.org/2000/svg" xmlns:xlink="http://www.w3.org/1999/xlink">
<g id="graph0" class="graph" transform="scale(1 1) rotate(0) translate(4 247)">
<title>/home/travis/build/AliceO2Group/AliceO2/DataFormats/Detectors/CPV/include/DataFormatsCPV/TriggerRecord.h</title>
<!-- Node0 -->
<g id="node1" class="node">
<title>Node0</title>
<polygon fill="#bfbfbf" stroke="#000000" points="0,-179.5 0,-242.5 163,-242.5 163,-179.5 0,-179.5"/>
<text text-anchor="start" x="8" y="-230.5" font-family="Helvetica,sans-Serif" font-size="10.00" fill="#000000">/home/travis/build</text>
<text text-anchor="start" x="8" y="-219.5" font-family="Helvetica,sans-Serif" font-size="10.00" fill="#000000">/AliceO2Group/AliceO2</text>
<text text-anchor="start" x="8" y="-208.5" font-family="Helvetica,sans-Serif" font-size="10.00" fill="#000000">/DataFormats/Detectors</text>
<text text-anchor="start" x="8" y="-197.5" font-family="Helvetica,sans-Serif" font-size="10.00" fill="#000000">/CPV/include/DataFormatsCPV</text>
<text text-anchor="middle" x="81.5" y="-186.5" font-family="Helvetica,sans-Serif" font-size="10.00" fill="#000000">/TriggerRecord.h</text>
</g>
<!-- Node1 -->
<g id="node2" class="node">
<title>Node1</title>
<polygon fill="none" stroke="#bfbfbf" points="13,-56.5 13,-75.5 62,-75.5 62,-56.5 13,-56.5"/>
<text text-anchor="middle" x="37.5" y="-63.5" font-family="Helvetica,sans-Serif" font-size="10.00" fill="#000000">iosfwd</text>
</g>
<!-- Node0&#45;&gt;Node1 -->
<g id="edge1" class="edge">
<title>Node0&#45;&gt;Node1</title>
<path fill="none" stroke="#191970" d="M53.6832,-179.2427C45.9213,-168.4668 38.5173,-155.8779 34.5,-143 28.6652,-124.2962 30.4882,-101.7922 33.1168,-85.9574"/>
<polygon fill="#191970" stroke="#191970" points="36.6272,-86.2362 35.0753,-75.7556 29.7527,-84.9164 36.6272,-86.2362"/>
</g>
<!-- Node2 -->
<g id="node3" class="node">
<title>Node2</title>
<polygon fill="none" stroke="#bfbfbf" points="33,-.5 33,-19.5 92,-19.5 92,-.5 33,-.5"/>
<text text-anchor="middle" x="62.5" y="-7.5" font-family="Helvetica,sans-Serif" font-size="10.00" fill="#000000">Rtypes.h</text>
</g>
<!-- Node0&#45;&gt;Node2 -->
<g id="edge2" class="edge">
<title>Node0&#45;&gt;Node2</title>
<path fill="none" stroke="#191970" d="M51.7868,-179.1742C42.7515,-168.2981 33.3988,-155.6679 26.5,-143 11.5101,-115.475 9.4511,-106.9485 4.5,-76 3.0958,-67.2227 .6325,-64.0034 4.5,-56 10.7828,-42.9981 22.7235,-32.5481 34.1451,-24.9145"/>
<polygon fill="#191970" stroke="#191970" points="36.0177,-27.8718 42.6759,-19.6305 32.3316,-21.9209 36.0177,-27.8718"/>
</g>
<!-- Node3 -->
<g id="node4" class="node">
<title>Node3</title>
<g id="a_node4"><a xlink:href="../../d9/d80/InteractionRecord_8h.html" target="_top" xlink:title="CommonDataFormat/Interaction\lRecord.h">
<polygon fill="none" stroke="#000000" points="271.5,-112.5 271.5,-142.5 445.5,-142.5 445.5,-112.5 271.5,-112.5"/>
<text text-anchor="start" x="279.5" y="-130.5" font-family="Helvetica,sans-Serif" font-size="10.00" fill="#000000">CommonDataFormat/Interaction</text>
<text text-anchor="middle" x="358.5" y="-119.5" font-family="Helvetica,sans-Serif" font-size="10.00" fill="#000000">Record.h</text>
</a>
</g>
</g>
<!-- Node0&#45;&gt;Node3 -->
<g id="edge3" class="edge">
<title>Node0&#45;&gt;Node3</title>
<path fill="none" stroke="#191970" d="M163.1109,-186.3989C206.658,-173.2719 259.2868,-157.4072 298.9476,-145.4517"/>
<polygon fill="#191970" stroke="#191970" points="300.1738,-148.7377 308.7381,-142.5004 298.1534,-142.0356 300.1738,-148.7377"/>
</g>
<!-- Node8 -->
<g id="node9" class="node">
<title>Node8</title>
<g id="a_node9"><a xlink:href="../../de/d64/RangeReference_8h.html" target="_top" xlink:title="Class to refer to the 1st entry and N elements of some group in the continuous container. ">
<polygon fill="none" stroke="#000000" points="43.5,-118 43.5,-137 253.5,-137 253.5,-118 43.5,-118"/>
<text text-anchor="middle" x="148.5" y="-125" font-family="Helvetica,sans-Serif" font-size="10.00" fill="#000000">CommonDataFormat/RangeReference.h</text>
</a>
</g>
</g>
<!-- Node0&#45;&gt;Node8 -->
<g id="edge10" class="edge">
<title>Node0&#45;&gt;Node8</title>
<path fill="none" stroke="#191970" d="M106.8298,-179.4322C116.1161,-167.859 126.2944,-155.1741 134.267,-145.2382"/>
<polygon fill="#191970" stroke="#191970" points="137.099,-147.3012 140.6275,-137.3112 131.6393,-142.9204 137.099,-147.3012"/>
</g>
<!-- Node3&#45;&gt;Node1 -->
<g id="edge6" class="edge">
<title>Node3&#45;&gt;Node1</title>
<path fill="none" stroke="#191970" d="M271.1916,-112.9748C215.5747,-103.3579 142.0932,-89.9784 77.5,-76 75.8165,-75.6357 74.0961,-75.2515 72.3606,-74.8544"/>
<polygon fill="#191970" stroke="#191970" points="72.946,-71.3961 62.4075,-72.4874 71.3264,-78.2062 72.946,-71.3961"/>
</g>
<!-- Node4 -->
<g id="node5" class="node">
<title>Node4</title>
<g id="a_node5"><a xlink:href="../../d2/d45/GPUCommonRtypes_8h.html" target="_top" xlink:title="GPUCommonRtypes.h">
<polygon fill="none" stroke="#000000" points="86,-56.5 86,-75.5 211,-75.5 211,-56.5 86,-56.5"/>
<text text-anchor="middle" x="148.5" y="-63.5" font-family="Helvetica,sans-Serif" font-size="10.00" fill="#000000">GPUCommonRtypes.h</text>
</a>
</g>
</g>
<!-- Node3&#45;&gt;Node4 -->
<g id="edge4" class="edge">
<title>Node3&#45;&gt;Node4</title>
<path fill="none" stroke="#191970" d="M307.1282,-112.4554C271.4745,-102.0139 224.5439,-88.27 190.9968,-78.4455"/>
<polygon fill="#191970" stroke="#191970" points="191.6232,-74.982 181.0425,-75.5303 189.6558,-81.6998 191.6232,-74.982"/>
</g>
<!-- Node5 -->
<g id="node6" class="node">
<title>Node5</title>
<polygon fill="none" stroke="#bfbfbf" points="268,-56.5 268,-75.5 315,-75.5 315,-56.5 268,-56.5"/>
<text text-anchor="middle" x="291.5" y="-63.5" font-family="Helvetica,sans-Serif" font-size="10.00" fill="#000000">cmath</text>
</g>
<!-- Node3&#45;&gt;Node5 -->
<g id="edge7" class="edge">
<title>Node3&#45;&gt;Node5</title>
<path fill="none" stroke="#191970" d="M341.9382,-112.2977C332.1535,-103.3163 319.7526,-91.9334 309.6957,-82.702"/>
<polygon fill="#191970" stroke="#191970" points="311.9613,-80.0307 302.2275,-75.8469 307.2278,-85.1876 311.9613,-80.0307"/>
</g>
<!-- Node6 -->
<g id="node7" class="node">
<title>Node6</title>
<polygon fill="none" stroke="#bfbfbf" points="333.5,-56.5 333.5,-75.5 383.5,-75.5 383.5,-56.5 333.5,-56.5"/>
<text text-anchor="middle" x="358.5" y="-63.5" font-family="Helvetica,sans-Serif" font-size="10.00" fill="#000000">cstdint</text>
</g>
<!-- Node3&#45;&gt;Node6 -->
<g id="edge8" class="edge">
<title>Node3&#45;&gt;Node6</title>
<path fill="none" stroke="#191970" d="M358.5,-112.2977C358.5,-104.3834 358.5,-94.6043 358.5,-86.0759"/>
<polygon fill="#191970" stroke="#191970" points="362.0001,-85.8469 358.5,-75.8469 355.0001,-85.847 362.0001,-85.8469"/>
</g>
<!-- Node7 -->
<g id="node8" class="node">
<title>Node7</title>
<g id="a_node8"><a xlink:href="../../d4/dc6/LHCConstants_8h.html" target="_top" xlink:title="Header to collect LHC related constants. ">
<polygon fill="none" stroke="#000000" points="401.5,-56.5 401.5,-75.5 591.5,-75.5 591.5,-56.5 401.5,-56.5"/>
<text text-anchor="middle" x="496.5" y="-63.5" font-family="Helvetica,sans-Serif" font-size="10.00" fill="#000000">CommonConstants/LHCConstants.h</text>
</a>
</g>
</g>
<!-- Node3&#45;&gt;Node7 -->
<g id="edge9" class="edge">
<title>Node3&#45;&gt;Node7</title>
<path fill="none" stroke="#191970" d="M392.2586,-112.4554C414.7793,-102.419 444.1467,-89.3314 465.9692,-79.6061"/>
<polygon fill="#191970" stroke="#191970" points="467.4056,-82.7979 475.1149,-75.5303 464.5561,-76.4041 467.4056,-82.7979"/>
</g>
<!-- Node4&#45;&gt;Node2 -->
<g id="edge5" class="edge">
<title>Node4&#45;&gt;Node2</title>
<path fill="none" stroke="#191970" d="M133.5199,-56.2455C120.3249,-47.6534 100.8949,-35.0014 85.6921,-25.1018"/>
<polygon fill="#191970" stroke="#191970" points="87.5983,-22.1665 77.3084,-19.6427 83.7785,-28.0325 87.5983,-22.1665"/>
</g>
<!-- Node8&#45;&gt;Node4 -->
<g id="edge11" class="edge">
<title>Node8&#45;&gt;Node4</title>
<path fill="none" stroke="#191970" d="M148.5,-117.8906C148.5,-109.3657 148.5,-96.6392 148.5,-85.9235"/>
<polygon fill="#191970" stroke="#191970" points="152.0001,-85.7448 148.5,-75.7449 145.0001,-85.7449 152.0001,-85.7448"/>
</g>
</g>
</svg>
