<?xml version="1.0" encoding="UTF-8" standalone="no"?>
<!DOCTYPE svg PUBLIC "-//W3C//DTD SVG 1.1//EN"
 "http://www.w3.org/Graphics/SVG/1.1/DTD/svg11.dtd">
<!-- Generated by graphviz version 2.40.1 (20161225.0304)
 -->
<!-- Title: /home/travis/build/AliceO2Group/AliceO2/Detectors/ITSMFT/MFT/base/include/MFTBase/HalfDiskSegmentation.h Pages: 1 -->
<svg width="431pt" height="296pt"
 viewBox="0.00 0.00 431.35 296.00" xmlns="http://www.w3.org/2000/svg" xmlns:xlink="http://www.w3.org/1999/xlink">
<g id="graph0" class="graph" transform="scale(1 1) rotate(0) translate(4 292)">
<title>/home/travis/build/AliceO2Group/AliceO2/Detectors/ITSMFT/MFT/base/include/MFTBase/HalfDiskSegmentation.h</title>
<!-- Node0 -->
<g id="node1" class="node">
<title>Node0</title>
<polygon fill="#bfbfbf" stroke="#000000" points="103,-224.5 103,-287.5 276,-287.5 276,-224.5 103,-224.5"/>
<text text-anchor="start" x="111" y="-275.5" font-family="Helvetica,sans-Serif" font-size="10.00" fill="#000000">/home/travis/build</text>
<text text-anchor="start" x="111" y="-264.5" font-family="Helvetica,sans-Serif" font-size="10.00" fill="#000000">/AliceO2Group/AliceO2</text>
<text text-anchor="start" x="111" y="-253.5" font-family="Helvetica,sans-Serif" font-size="10.00" fill="#000000">/Detectors/ITSMFT/MFT</text>
<text text-anchor="start" x="111" y="-242.5" font-family="Helvetica,sans-Serif" font-size="10.00" fill="#000000">/base/include/MFTBase/HalfDisk</text>
<text text-anchor="middle" x="189.5" y="-231.5" font-family="Helvetica,sans-Serif" font-size="10.00" fill="#000000">Segmentation.h</text>
</g>
<!-- Node1 -->
<g id="node2" class="node">
<title>Node1</title>
<polygon fill="none" stroke="#bfbfbf" points="0,-112.5 0,-131.5 85,-131.5 85,-112.5 0,-112.5"/>
<text text-anchor="middle" x="42.5" y="-119.5" font-family="Helvetica,sans-Serif" font-size="10.00" fill="#000000">TXMLEngine.h</text>
</g>
<!-- Node0&#45;&gt;Node1 -->
<g id="edge1" class="edge">
<title>Node0&#45;&gt;Node1</title>
<path fill="none" stroke="#191970" d="M138.9747,-224.3944C123.6251,-213.7186 107.2075,-201.149 93.5,-188 78.3866,-173.5024 64.0724,-154.3209 54.4781,-140.3748"/>
<polygon fill="#191970" stroke="#191970" points="57.1186,-138.0288 48.6381,-131.6782 51.3073,-141.9312 57.1186,-138.0288"/>
</g>
<!-- Node2 -->
<g id="node3" class="node">
<title>Node2</title>
<g id="a_node3"><a xlink:href="../../d9/de7/LadderSegmentation_8h.html" target="_top" xlink:title="Description of the virtual segmentation of a ladder. ">
<polygon fill="none" stroke="#000000" points="103,-168.5 103,-187.5 276,-187.5 276,-168.5 103,-168.5"/>
<text text-anchor="middle" x="189.5" y="-175.5" font-family="Helvetica,sans-Serif" font-size="10.00" fill="#000000">MFTBase/LadderSegmentation.h</text>
</a>
</g>
</g>
<!-- Node0&#45;&gt;Node2 -->
<g id="edge2" class="edge">
<title>Node0&#45;&gt;Node2</title>
<path fill="none" stroke="#191970" d="M189.5,-224.2744C189.5,-215.3302 189.5,-205.8568 189.5,-197.8269"/>
<polygon fill="#191970" stroke="#191970" points="193.0001,-197.6425 189.5,-187.6426 186.0001,-197.6426 193.0001,-197.6425"/>
</g>
<!-- Node4 -->
<g id="node5" class="node">
<title>Node4</title>
<g id="a_node5"><a xlink:href="../../d3/de7/VSegmentation_8h.html" target="_top" xlink:title="Abstract base class for MFT Segmentation description. ">
<polygon fill="none" stroke="#000000" points="256,-56.5 256,-75.5 403,-75.5 403,-56.5 256,-56.5"/>
<text text-anchor="middle" x="329.5" y="-63.5" font-family="Helvetica,sans-Serif" font-size="10.00" fill="#000000">MFTBase/VSegmentation.h</text>
</a>
</g>
</g>
<!-- Node0&#45;&gt;Node4 -->
<g id="edge10" class="edge">
<title>Node0&#45;&gt;Node4</title>
<path fill="none" stroke="#191970" d="M276.0584,-233.612C327.474,-215.3695 388.5168,-183.9032 419.5,-132 433.8834,-107.9049 403.1884,-89.9491 373.8158,-78.898"/>
<polygon fill="#191970" stroke="#191970" points="374.9792,-75.5971 364.3845,-75.5535 372.6396,-82.1945 374.9792,-75.5971"/>
</g>
<!-- Node2&#45;&gt;Node1 -->
<g id="edge4" class="edge">
<title>Node2&#45;&gt;Node1</title>
<path fill="none" stroke="#191970" d="M164.2298,-168.3733C140.1034,-159.1822 103.5638,-145.2624 76.8123,-135.0713"/>
<polygon fill="#191970" stroke="#191970" points="78.0313,-131.7904 67.4404,-131.5011 75.5393,-138.3318 78.0313,-131.7904"/>
</g>
<!-- Node3 -->
<g id="node4" class="node">
<title>Node3</title>
<polygon fill="none" stroke="#bfbfbf" points="103,-112.5 103,-131.5 192,-131.5 192,-112.5 103,-112.5"/>
<text text-anchor="middle" x="147.5" y="-119.5" font-family="Helvetica,sans-Serif" font-size="10.00" fill="#000000">TClonesArray.h</text>
</g>
<!-- Node2&#45;&gt;Node3 -->
<g id="edge3" class="edge">
<title>Node2&#45;&gt;Node3</title>
<path fill="none" stroke="#191970" d="M182.1842,-168.2455C176.2821,-160.3761 167.8258,-149.101 160.7406,-139.6542"/>
<polygon fill="#191970" stroke="#191970" points="163.5321,-137.5427 154.732,-131.6427 157.932,-141.7427 163.5321,-137.5427"/>
</g>
<!-- Node2&#45;&gt;Node4 -->
<g id="edge5" class="edge">
<title>Node2&#45;&gt;Node4</title>
<path fill="none" stroke="#191970" d="M194.8599,-168.3973C203.0052,-154.4972 219.6675,-128.6194 239.5,-112 255.7278,-98.4013 276.6511,-87.4028 294.239,-79.5743"/>
<polygon fill="#191970" stroke="#191970" points="295.8037,-82.7116 303.6159,-75.5549 293.0458,-76.2778 295.8037,-82.7116"/>
</g>
<!-- Node7 -->
<g id="node8" class="node">
<title>Node7</title>
<g id="a_node8"><a xlink:href="../../d3/dbd/ChipSegmentation_8h.html" target="_top" xlink:title="Chip (sensor) segmentation description. ">
<polygon fill="none" stroke="#000000" points="248.5,-112.5 248.5,-131.5 410.5,-131.5 410.5,-112.5 248.5,-112.5"/>
<text text-anchor="middle" x="329.5" y="-119.5" font-family="Helvetica,sans-Serif" font-size="10.00" fill="#000000">MFTBase/ChipSegmentation.h</text>
</a>
</g>
</g>
<!-- Node2&#45;&gt;Node7 -->
<g id="edge8" class="edge">
<title>Node2&#45;&gt;Node7</title>
<path fill="none" stroke="#191970" d="M213.5669,-168.3733C236.3428,-159.2629 270.7344,-145.5062 296.149,-135.3404"/>
<polygon fill="#191970" stroke="#191970" points="297.7623,-138.4648 305.7472,-131.5011 295.1625,-131.9654 297.7623,-138.4648"/>
</g>
<!-- Node5 -->
<g id="node6" class="node">
<title>Node5</title>
<polygon fill="none" stroke="#bfbfbf" points="250,-.5 250,-19.5 317,-19.5 317,-.5 250,-.5"/>
<text text-anchor="middle" x="283.5" y="-7.5" font-family="Helvetica,sans-Serif" font-size="10.00" fill="#000000">TNamed.h</text>
</g>
<!-- Node4&#45;&gt;Node5 -->
<g id="edge6" class="edge">
<title>Node4&#45;&gt;Node5</title>
<path fill="none" stroke="#191970" d="M321.4874,-56.2455C315.0232,-48.3761 305.7615,-37.101 298.0017,-27.6542"/>
<polygon fill="#191970" stroke="#191970" points="300.4727,-25.1484 291.4208,-19.6427 295.0636,-29.5916 300.4727,-25.1484"/>
</g>
<!-- Node6 -->
<g id="node7" class="node">
<title>Node6</title>
<polygon fill="none" stroke="#bfbfbf" points="335.5,-.5 335.5,-19.5 417.5,-19.5 417.5,-.5 335.5,-.5"/>
<text text-anchor="middle" x="376.5" y="-7.5" font-family="Helvetica,sans-Serif" font-size="10.00" fill="#000000">TGeoMatrix.h</text>
</g>
<!-- Node4&#45;&gt;Node6 -->
<g id="edge7" class="edge">
<title>Node4&#45;&gt;Node6</title>
<path fill="none" stroke="#191970" d="M337.6868,-56.2455C344.3589,-48.2958 353.9479,-36.8706 361.9253,-27.3656"/>
<polygon fill="#191970" stroke="#191970" points="364.6592,-29.5525 368.407,-19.6427 359.2974,-25.0524 364.6592,-29.5525"/>
</g>
<!-- Node7&#45;&gt;Node4 -->
<g id="edge9" class="edge">
<title>Node7&#45;&gt;Node4</title>
<path fill="none" stroke="#191970" d="M329.5,-112.2455C329.5,-104.9382 329.5,-94.6944 329.5,-85.7046"/>
<polygon fill="#191970" stroke="#191970" points="333.0001,-85.6426 329.5,-75.6427 326.0001,-85.6427 333.0001,-85.6426"/>
</g>
</g>
</svg>
