<?xml version="1.0" encoding="UTF-8" standalone="no"?>
<!DOCTYPE svg PUBLIC "-//W3C//DTD SVG 1.1//EN"
 "http://www.w3.org/Graphics/SVG/1.1/DTD/svg11.dtd">
<!-- Generated by graphviz version 2.40.1 (20161225.0304)
 -->
<!-- Title: o2::emcal::CaloRawFitterStandard Pages: 1 -->
<!--zoomable 640 -->
<svg id="main" version="1.1" xmlns="http://www.w3.org/2000/svg" xmlns:xlink="http://www.w3.org/1999/xlink" xml:space="preserve" onload="init(evt)">
<style type="text/css"><![CDATA[
.edge:hover path { stroke: red; }
.edge:hover polygon { stroke: red; fill: red; }
]]></style>
<script type="text/javascript"><![CDATA[
var edges = document.getElementsByTagName('g');
if (edges && edges.length) {
  for (var i=0;i<edges.length;i++) {
    if (edges[i].id.substr(0,4)=='edge') {
      edges[i].setAttribute('class','edge');
    }
  }
}
]]></script>
        <defs>
                <circle id="rim" cx="0" cy="0" r="7"/>
                <circle id="rim2" cx="0" cy="0" r="3.5"/>
                <g id="zoomPlus">
                        <use xlink:href="#rim" fill="#404040">
                                <set attributeName="fill" to="#808080" begin="zoomplus.mouseover" end="zoomplus.mouseout"/>
                        </use>
                        <path d="M-4,0h8M0,-4v8" fill="none" stroke="white" stroke-width="1.5" pointer-events="none"/>
                </g>
                <g id="zoomMin">
                        <use xlink:href="#rim" fill="#404040">
                                <set attributeName="fill" to="#808080" begin="zoomminus.mouseover" end="zoomminus.mouseout"/>
                        </use>
                        <path d="M-4,0h8" fill="none" stroke="white" stroke-width="1.5" pointer-events="none"/>
                </g>
                <g id="dirArrow">
                        <path fill="none" stroke="white" stroke-width="1.5" d="M0,-3.0v7 M-2.5,-0.5L0,-3.0L2.5,-0.5"/>
                </g>
               <g id="resetDef">
                       <use xlink:href="#rim2" fill="#404040">
                               <set attributeName="fill" to="#808080" begin="reset.mouseover" end="reset.mouseout"/>
                       </use>
               </g>
        </defs>

<script type="text/javascript">
var viewWidth = 580;
var viewHeight = 640;
var sectionId = 'dynsection-1';
</script>
<script xlink:href="../../svgpan.js"/>
<svg id="graph" class="graph">
<g id="viewport">
<title>o2::emcal::CaloRawFitterStandard</title>
<!-- Node2 -->
<g id="node1" class="node">
<title>Node2</title>
<polygon fill="#bfbfbf" stroke="#000000" points="143.5,-.5 143.5,-112.5 298.5,-112.5 298.5,-.5 143.5,-.5"/>
<text text-anchor="start" x="151.5" y="-100.5" font-family="Helvetica,sans-Serif" font-size="10.00" fill="#000000">o2::emcal::CaloRawFitter</text>
<text text-anchor="middle" x="221" y="-89.5" font-family="Helvetica,sans-Serif" font-size="10.00" fill="#000000">Standard</text>
<polyline fill="none" stroke="#000000" points="143.5,-82.5 298.5,-82.5 "/>
<text text-anchor="middle" x="221" y="-70.5" font-family="Helvetica,sans-Serif" font-size="10.00" fill="#000000"> </text>
<polyline fill="none" stroke="#000000" points="143.5,-63.5 298.5,-63.5 "/>
<text text-anchor="start" x="151.5" y="-51.5" font-family="Helvetica,sans-Serif" font-size="10.00" fill="#000000">+ CaloRawFitterStandard()</text>
<text text-anchor="start" x="151.5" y="-40.5" font-family="Helvetica,sans-Serif" font-size="10.00" fill="#000000">+ ~CaloRawFitterStandard()</text>
<text text-anchor="start" x="151.5" y="-29.5" font-family="Helvetica,sans-Serif" font-size="10.00" fill="#000000">+ evaluate()</text>
<text text-anchor="start" x="151.5" y="-18.5" font-family="Helvetica,sans-Serif" font-size="10.00" fill="#000000">+ fitRaw()</text>
<text text-anchor="start" x="151.5" y="-7.5" font-family="Helvetica,sans-Serif" font-size="10.00" fill="#000000">+ rawResponseFunction()</text>
</g>
<!-- Node3 -->
<g id="node2" class="node">
<title>Node3</title>
<g id="a_node2"><a xlink:href="../../d8/d83/classo2_1_1emcal_1_1CaloRawFitter.html" target="_top" xlink:title="{o2::emcal::CaloRawFitter\n||+ CaloRawFitter()\l+ ~CaloRawFitter()\l+ preFitEvaluateSamples()\l+ setTimeConstraint()\l+ setIsZeroSuppressed()\l+ setAmpCut()\l+ setNsamplePed()\l+ setL1Phase()\l+ getIsZeroSuppressed()\l+ getAmpCut()\l+ getNsamplePed()\l+ getReversed()\l+ getAlgoName()\l+ getAlgoAbbr()\l+ getAlgo()\l+ maxAmp()\l+ maxAmp()\l+ checkBunchEdgesForMax()\l+ isInTimeRange()\l+ reverseAndSubtractPed()\l+ selectBunch()\l+ selectSubarray()\l+ evaluatePedestal()\l+ calculateChi2()\l# ClassDefNV()\l}">
<polygon fill="none" stroke="#000000" points="142,-150.5 142,-471.5 300,-471.5 300,-150.5 142,-150.5"/>
<text text-anchor="middle" x="221" y="-459.5" font-family="Helvetica,sans-Serif" font-size="10.00" fill="#000000">o2::emcal::CaloRawFitter</text>
<polyline fill="none" stroke="#000000" points="142,-452.5 300,-452.5 "/>
<text text-anchor="middle" x="221" y="-440.5" font-family="Helvetica,sans-Serif" font-size="10.00" fill="#000000"> </text>
<polyline fill="none" stroke="#000000" points="142,-433.5 300,-433.5 "/>
<text text-anchor="start" x="150" y="-421.5" font-family="Helvetica,sans-Serif" font-size="10.00" fill="#000000">+ CaloRawFitter()</text>
<text text-anchor="start" x="150" y="-410.5" font-family="Helvetica,sans-Serif" font-size="10.00" fill="#000000">+ ~CaloRawFitter()</text>
<text text-anchor="start" x="150" y="-399.5" font-family="Helvetica,sans-Serif" font-size="10.00" fill="#000000">+ preFitEvaluateSamples()</text>
<text text-anchor="start" x="150" y="-388.5" font-family="Helvetica,sans-Serif" font-size="10.00" fill="#000000">+ setTimeConstraint()</text>
<text text-anchor="start" x="150" y="-377.5" font-family="Helvetica,sans-Serif" font-size="10.00" fill="#000000">+ setIsZeroSuppressed()</text>
<text text-anchor="start" x="150" y="-366.5" font-family="Helvetica,sans-Serif" font-size="10.00" fill="#000000">+ setAmpCut()</text>
<text text-anchor="start" x="150" y="-355.5" font-family="Helvetica,sans-Serif" font-size="10.00" fill="#000000">+ setNsamplePed()</text>
<text text-anchor="start" x="150" y="-344.5" font-family="Helvetica,sans-Serif" font-size="10.00" fill="#000000">+ setL1Phase()</text>
<text text-anchor="start" x="150" y="-333.5" font-family="Helvetica,sans-Serif" font-size="10.00" fill="#000000">+ getIsZeroSuppressed()</text>
<text text-anchor="start" x="150" y="-322.5" font-family="Helvetica,sans-Serif" font-size="10.00" fill="#000000">+ getAmpCut()</text>
<text text-anchor="start" x="150" y="-311.5" font-family="Helvetica,sans-Serif" font-size="10.00" fill="#000000">+ getNsamplePed()</text>
<text text-anchor="start" x="150" y="-300.5" font-family="Helvetica,sans-Serif" font-size="10.00" fill="#000000">+ getReversed()</text>
<text text-anchor="start" x="150" y="-289.5" font-family="Helvetica,sans-Serif" font-size="10.00" fill="#000000">+ getAlgoName()</text>
<text text-anchor="start" x="150" y="-278.5" font-family="Helvetica,sans-Serif" font-size="10.00" fill="#000000">+ getAlgoAbbr()</text>
<text text-anchor="start" x="150" y="-267.5" font-family="Helvetica,sans-Serif" font-size="10.00" fill="#000000">+ getAlgo()</text>
<text text-anchor="start" x="150" y="-256.5" font-family="Helvetica,sans-Serif" font-size="10.00" fill="#000000">+ maxAmp()</text>
<text text-anchor="start" x="150" y="-245.5" font-family="Helvetica,sans-Serif" font-size="10.00" fill="#000000">+ maxAmp()</text>
<text text-anchor="start" x="150" y="-234.5" font-family="Helvetica,sans-Serif" font-size="10.00" fill="#000000">+ checkBunchEdgesForMax()</text>
<text text-anchor="start" x="150" y="-223.5" font-family="Helvetica,sans-Serif" font-size="10.00" fill="#000000">+ isInTimeRange()</text>
<text text-anchor="start" x="150" y="-212.5" font-family="Helvetica,sans-Serif" font-size="10.00" fill="#000000">+ reverseAndSubtractPed()</text>
<text text-anchor="start" x="150" y="-201.5" font-family="Helvetica,sans-Serif" font-size="10.00" fill="#000000">+ selectBunch()</text>
<text text-anchor="start" x="150" y="-190.5" font-family="Helvetica,sans-Serif" font-size="10.00" fill="#000000">+ selectSubarray()</text>
<text text-anchor="start" x="150" y="-179.5" font-family="Helvetica,sans-Serif" font-size="10.00" fill="#000000">+ evaluatePedestal()</text>
<text text-anchor="start" x="150" y="-168.5" font-family="Helvetica,sans-Serif" font-size="10.00" fill="#000000">+ calculateChi2()</text>
<text text-anchor="start" x="150" y="-157.5" font-family="Helvetica,sans-Serif" font-size="10.00" fill="#000000"># ClassDefNV()</text>
</a>
</g>
</g>
<!-- Node3&#45;&gt;Node2 -->
<g id="edge1" class="edge">
<title>Node3&#45;&gt;Node2</title>
<path fill="none" stroke="#191970" d="M221,-140.0419C221,-130.4324 221,-121.2015 221,-112.6083"/>
<polygon fill="none" stroke="#191970" points="217.5001,-140.1821 221,-150.1822 224.5001,-140.1822 217.5001,-140.1821"/>
</g>
<!-- Node4 -->
<g id="node3" class="node">
<title>Node4</title>
<polygon fill="none" stroke="#bfbfbf" points="0,-569 0,-626 50,-626 50,-569 0,-569"/>
<text text-anchor="middle" x="25" y="-614" font-family="Helvetica,sans-Serif" font-size="10.00" fill="#000000">double</text>
<polyline fill="none" stroke="#bfbfbf" points="0,-607 50,-607 "/>
<text text-anchor="middle" x="25" y="-595" font-family="Helvetica,sans-Serif" font-size="10.00" fill="#000000"> </text>
<polyline fill="none" stroke="#bfbfbf" points="0,-588 50,-588 "/>
<text text-anchor="middle" x="25" y="-576" font-family="Helvetica,sans-Serif" font-size="10.00" fill="#000000"> </text>
</g>
<!-- Node4&#45;&gt;Node3 -->
<g id="edge2" class="edge">
<title>Node4&#45;&gt;Node3</title>
<path fill="none" stroke="#404040" d="M27.8525,-568.6515C31.0258,-546.1252 37.5977,-514.6227 51,-490 71.8863,-451.6276 103.0938,-415.4326 133.0913,-385.7652"/>
<polygon fill="none" stroke="#404040" points="133.3238,-385.5391 134.8378,-378.4887 141.9282,-377.1746 140.4142,-384.225 133.3238,-385.5391"/>
<text text-anchor="middle" x="82" y="-520.5" font-family="Helvetica,sans-Serif" font-size="10.00" fill="#000000"> #mL1Phase</text>
<text text-anchor="middle" x="82" y="-509.5" font-family="Helvetica,sans-Serif" font-size="10.00" fill="#000000">#mAmp</text>
</g>
<!-- Node5 -->
<g id="node4" class="node">
<title>Node5</title>
<polygon fill="none" stroke="#bfbfbf" points="70,-569 70,-626 146,-626 146,-569 70,-569"/>
<text text-anchor="middle" x="108" y="-614" font-family="Helvetica,sans-Serif" font-size="10.00" fill="#000000">FitAlgorithm</text>
<polyline fill="none" stroke="#bfbfbf" points="70,-607 146,-607 "/>
<text text-anchor="middle" x="108" y="-595" font-family="Helvetica,sans-Serif" font-size="10.00" fill="#000000"> </text>
<polyline fill="none" stroke="#bfbfbf" points="70,-588 146,-588 "/>
<text text-anchor="middle" x="108" y="-576" font-family="Helvetica,sans-Serif" font-size="10.00" fill="#000000"> </text>
</g>
<!-- Node5&#45;&gt;Node3 -->
<g id="edge3" class="edge">
<title>Node5&#45;&gt;Node3</title>
<path fill="none" stroke="#404040" d="M112.117,-568.6624C115.7409,-546.6983 121.878,-515.9252 131,-490 132.9536,-484.4477 135.0422,-478.8473 137.2394,-473.2294"/>
<polygon fill="none" stroke="#404040" points="137.4071,-472.8131 135.9403,-465.7527 141.8935,-461.6832 143.3602,-468.7436 137.4071,-472.8131"/>
<text text-anchor="middle" x="152.5" y="-515" font-family="Helvetica,sans-Serif" font-size="10.00" fill="#000000"> #mAlgo</text>
</g>
<!-- Node6 -->
<g id="node5" class="node">
<title>Node6</title>
<g id="a_node5"><a xlink:href="../../d4/dc3/classfloat.html" target="_top" xlink:title="{float\n||}">
<polygon fill="none" stroke="#000000" points="164,-569 164,-626 202,-626 202,-569 164,-569"/>
<text text-anchor="middle" x="183" y="-614" font-family="Helvetica,sans-Serif" font-size="10.00" fill="#000000">float</text>
<polyline fill="none" stroke="#000000" points="164,-607 202,-607 "/>
<text text-anchor="middle" x="183" y="-595" font-family="Helvetica,sans-Serif" font-size="10.00" fill="#000000"> </text>
<polyline fill="none" stroke="#000000" points="164,-588 202,-588 "/>
<text text-anchor="middle" x="183" y="-576" font-family="Helvetica,sans-Serif" font-size="10.00" fill="#000000"> </text>
</a>
</g>
</g>
<!-- Node6&#45;&gt;Node3 -->
<g id="edge4" class="edge">
<title>Node6&#45;&gt;Node3</title>
<path fill="none" stroke="#404040" d="M181.069,-568.903C180.6266,-561.1505 180.2214,-552.7569 180,-545 179.3024,-520.5655 177.2538,-514.2897 180,-490 180.2339,-487.9309 180.4826,-485.851 180.7451,-483.7619"/>
<polygon fill="none" stroke="#404040" points="180.767,-483.6013 177.6173,-477.1144 182.3938,-471.712 185.5435,-478.1989 180.767,-483.6013"/>
<text text-anchor="middle" x="210.5" y="-515" font-family="Helvetica,sans-Serif" font-size="10.00" fill="#000000"> #mAmpCut</text>
</g>
<!-- Node7 -->
<g id="node6" class="node">
<title>Node7</title>
<polygon fill="none" stroke="#bfbfbf" points="248.5,-569 248.5,-626 277.5,-626 277.5,-569 248.5,-569"/>
<text text-anchor="middle" x="263" y="-614" font-family="Helvetica,sans-Serif" font-size="10.00" fill="#000000">int</text>
<polyline fill="none" stroke="#bfbfbf" points="248.5,-607 277.5,-607 "/>
<text text-anchor="middle" x="263" y="-595" font-family="Helvetica,sans-Serif" font-size="10.00" fill="#000000"> </text>
<polyline fill="none" stroke="#bfbfbf" points="248.5,-588 277.5,-588 "/>
<text text-anchor="middle" x="263" y="-576" font-family="Helvetica,sans-Serif" font-size="10.00" fill="#000000"> </text>
</g>
<!-- Node7&#45;&gt;Node3 -->
<g id="edge5" class="edge">
<title>Node7&#45;&gt;Node3</title>
<path fill="none" stroke="#404040" d="M258.8193,-568.9819C255.7148,-547.8044 251.1949,-516.9724 246.3521,-483.9373"/>
<polygon fill="none" stroke="#404040" points="246.2959,-483.5537 241.4679,-478.1974 244.5553,-471.6806 249.3833,-477.0369 246.2959,-483.5537"/>
<text text-anchor="middle" x="299.5" y="-537" font-family="Helvetica,sans-Serif" font-size="10.00" fill="#000000"> #mName</text>
<text text-anchor="middle" x="299.5" y="-526" font-family="Helvetica,sans-Serif" font-size="10.00" fill="#000000">#mNameShort</text>
<text text-anchor="middle" x="299.5" y="-515" font-family="Helvetica,sans-Serif" font-size="10.00" fill="#000000">#mMaxTimeIndex</text>
<text text-anchor="middle" x="299.5" y="-504" font-family="Helvetica,sans-Serif" font-size="10.00" fill="#000000">#mNsamplePed</text>
<text text-anchor="middle" x="299.5" y="-493" font-family="Helvetica,sans-Serif" font-size="10.00" fill="#000000">#mMinTimeIndex</text>
</g>
<!-- Node8 -->
<g id="node7" class="node">
<title>Node8</title>
<polygon fill="none" stroke="#bfbfbf" points="358,-569 358,-626 396,-626 396,-569 358,-569"/>
<text text-anchor="middle" x="377" y="-614" font-family="Helvetica,sans-Serif" font-size="10.00" fill="#000000">bool</text>
<polyline fill="none" stroke="#bfbfbf" points="358,-607 396,-607 "/>
<text text-anchor="middle" x="377" y="-595" font-family="Helvetica,sans-Serif" font-size="10.00" fill="#000000"> </text>
<polyline fill="none" stroke="#bfbfbf" points="358,-588 396,-588 "/>
<text text-anchor="middle" x="377" y="-576" font-family="Helvetica,sans-Serif" font-size="10.00" fill="#000000"> </text>
</g>
<!-- Node8&#45;&gt;Node3 -->
<g id="edge6" class="edge">
<title>Node8&#45;&gt;Node3</title>
<path fill="none" stroke="#404040" d="M372.4592,-568.6799C368.2636,-546.4512 360.8553,-515.3272 349,-490 337.5721,-465.5858 322.7201,-441.0318 307.1995,-418.2696"/>
<polygon fill="none" stroke="#404040" points="307.1149,-418.1477 300.4081,-415.4982 300.2742,-408.2884 306.981,-410.9378 307.1149,-418.1477"/>
<text text-anchor="middle" x="418" y="-515" font-family="Helvetica,sans-Serif" font-size="10.00" fill="#000000"> #mIsZerosupressed</text>
</g>
<!-- Node9 -->
<g id="node8" class="node">
<title>Node9</title>
<polygon fill="none" stroke="#bfbfbf" points="432,-563.5 432,-631.5 572,-631.5 572,-563.5 432,-563.5"/>
<text text-anchor="start" x="440" y="-619.5" font-family="Helvetica,sans-Serif" font-size="10.00" fill="#000000">array&lt; double, constants</text>
<text text-anchor="middle" x="502" y="-608.5" font-family="Helvetica,sans-Serif" font-size="10.00" fill="#000000">::EMCAL_MAXTIMEBINS &gt;</text>
<polyline fill="none" stroke="#bfbfbf" points="432,-601.5 572,-601.5 "/>
<text text-anchor="middle" x="502" y="-589.5" font-family="Helvetica,sans-Serif" font-size="10.00" fill="#000000"> </text>
<polyline fill="none" stroke="#bfbfbf" points="432,-582.5 572,-582.5 "/>
<text text-anchor="middle" x="502" y="-570.5" font-family="Helvetica,sans-Serif" font-size="10.00" fill="#000000"> </text>
</g>
<!-- Node9&#45;&gt;Node3 -->
<g id="edge7" class="edge">
<title>Node9&#45;&gt;Node3</title>
<path fill="none" stroke="#404040" d="M498.8378,-563.4969C495.3761,-540.9908 488.1349,-511.7316 473,-490 432.0999,-431.2732 365.4263,-385.1563 310.9311,-354.4483"/>
<polygon fill="none" stroke="#404040" points="310.7052,-354.3233 303.5186,-354.918 300.2056,-348.5129 307.3922,-347.9183 310.7052,-354.3233"/>
<text text-anchor="middle" x="527.5" y="-515" font-family="Helvetica,sans-Serif" font-size="10.00" fill="#000000"> #mReversed</text>
</g>
</g>
</svg>
        <g id="navigator" transform="translate(0 0)" fill="#404254">
                <rect fill="#f2f5e9" fill-opacity="0.5" stroke="#606060" stroke-width=".5" x="0" y="0" width="60" height="60"/>
                <use id="zoomplus" xlink:href="#zoomPlus" x="17" y="9" onmousedown="handleZoom(evt,'in')"/>
                <use id="zoomminus" xlink:href="#zoomMin" x="42" y="9" onmousedown="handleZoom(evt,'out')"/>
                <use id="reset" xlink:href="#resetDef" x="30" y="36" onmousedown="handleReset()"/>
                <g id="arrowUp" xlink:href="#dirArrow" transform="translate(30 24)" onmousedown="handlePan(0,-1)">
                  <use xlink:href="#rim" fill="#404040">
                        <set attributeName="fill" to="#808080" begin="arrowUp.mouseover" end="arrowUp.mouseout"/>
                  </use>
                  <path fill="none" stroke="white" stroke-width="1.5" d="M0,-3.0v7 M-2.5,-0.5L0,-3.0L2.5,-0.5"/>
                </g>
                <g id="arrowRight" xlink:href="#dirArrow" transform="rotate(90) translate(36 -43)" onmousedown="handlePan(1,0)">
                  <use xlink:href="#rim" fill="#404040">
                        <set attributeName="fill" to="#808080" begin="arrowRight.mouseover" end="arrowRight.mouseout"/>
                  </use>
                  <path fill="none" stroke="white" stroke-width="1.5" d="M0,-3.0v7 M-2.5,-0.5L0,-3.0L2.5,-0.5"/>
                </g>
                <g id="arrowDown" xlink:href="#dirArrow" transform="rotate(180) translate(-30 -48)" onmousedown="handlePan(0,1)">
                  <use xlink:href="#rim" fill="#404040">
                        <set attributeName="fill" to="#808080" begin="arrowDown.mouseover" end="arrowDown.mouseout"/>
                  </use>
                  <path fill="none" stroke="white" stroke-width="1.5" d="M0,-3.0v7 M-2.5,-0.5L0,-3.0L2.5,-0.5"/>
                </g>
                <g id="arrowLeft" xlink:href="#dirArrow" transform="rotate(270) translate(-36 17)" onmousedown="handlePan(-1,0)">
                  <use xlink:href="#rim" fill="#404040">
                        <set attributeName="fill" to="#808080" begin="arrowLeft.mouseover" end="arrowLeft.mouseout"/>
                  </use>
                  <path fill="none" stroke="white" stroke-width="1.5" d="M0,-3.0v7 M-2.5,-0.5L0,-3.0L2.5,-0.5"/>
                </g>
        </g>
        <svg viewBox="0 0 15 15" width="100%" height="30px" preserveAspectRatio="xMaxYMin meet">
         <g id="arrow_out" transform="scale(0.3 0.3)">
          <a xlink:href="classo2_1_1emcal_1_1CaloRawFitterStandard__coll__graph_org.svg" target="_base">
           <rect id="button" ry="5" rx="5" y="6" x="6" height="38" width="38"
                fill="#f2f5e9" fill-opacity="0.5" stroke="#606060" stroke-width="1.0"/>
           <path id="arrow"
             d="M 11.500037,31.436501 C 11.940474,20.09759 22.043105,11.32322 32.158766,21.979434 L 37.068811,17.246167 C 37.068811,17.246167 37.088388,32 37.088388,32 L 22.160133,31.978069 C 22.160133,31.978069 26.997745,27.140456 26.997745,27.140456 C 18.528582,18.264221 13.291696,25.230495 11.500037,31.436501 z"
             style="fill:#404040;"/>
          </a>
         </g>
        </svg>
</svg>
