<?xml version="1.0" encoding="UTF-8" standalone="no"?>
<!DOCTYPE svg PUBLIC "-//W3C//DTD SVG 1.1//EN"
 "http://www.w3.org/Graphics/SVG/1.1/DTD/svg11.dtd">
<!-- Generated by graphviz version 2.40.1 (20161225.0304)
 -->
<!-- Title: /home/travis/build/AliceO2Group/AliceO2/Detectors/MUON/MCH/Contour/test/SegmentTree.cxx Pages: 1 -->
<svg width="551pt" height="296pt"
 viewBox="0.00 0.00 551.00 296.00" xmlns="http://www.w3.org/2000/svg" xmlns:xlink="http://www.w3.org/1999/xlink">
<g id="graph0" class="graph" transform="scale(1 1) rotate(0) translate(4 292)">
<title>/home/travis/build/AliceO2Group/AliceO2/Detectors/MUON/MCH/Contour/test/SegmentTree.cxx</title>
<!-- Node0 -->
<g id="node1" class="node">
<title>Node0</title>
<polygon fill="#bfbfbf" stroke="#000000" points="174.5,-235.5 174.5,-287.5 341.5,-287.5 341.5,-235.5 174.5,-235.5"/>
<text text-anchor="start" x="182.5" y="-275.5" font-family="Helvetica,sans-Serif" font-size="10.00" fill="#000000">/home/travis/build</text>
<text text-anchor="start" x="182.5" y="-264.5" font-family="Helvetica,sans-Serif" font-size="10.00" fill="#000000">/AliceO2Group/AliceO2</text>
<text text-anchor="start" x="182.5" y="-253.5" font-family="Helvetica,sans-Serif" font-size="10.00" fill="#000000">/Detectors/MUON/MCH/Contour</text>
<text text-anchor="middle" x="258" y="-242.5" font-family="Helvetica,sans-Serif" font-size="10.00" fill="#000000">/test/SegmentTree.cxx</text>
</g>
<!-- Node1 -->
<g id="node2" class="node">
<title>Node1</title>
<polygon fill="none" stroke="#bfbfbf" points="0,-174 0,-193 132,-193 132,-174 0,-174"/>
<text text-anchor="middle" x="66" y="-181" font-family="Helvetica,sans-Serif" font-size="10.00" fill="#000000">boost/test/unit_test.hpp</text>
</g>
<!-- Node0&#45;&gt;Node1 -->
<g id="edge1" class="edge">
<title>Node0&#45;&gt;Node1</title>
<path fill="none" stroke="#191970" d="M193.7998,-235.4187C162.0935,-222.538 125.1698,-207.5377 99.1874,-196.9824"/>
<polygon fill="#191970" stroke="#191970" points="100.3809,-193.6895 89.7989,-193.1683 97.7462,-200.1748 100.3809,-193.6895"/>
</g>
<!-- Node2 -->
<g id="node3" class="node">
<title>Node2</title>
<polygon fill="none" stroke="#bfbfbf" points="150,-168.5 150,-198.5 262,-198.5 262,-168.5 150,-168.5"/>
<text text-anchor="start" x="158" y="-186.5" font-family="Helvetica,sans-Serif" font-size="10.00" fill="#000000">boost/test/data/test</text>
<text text-anchor="middle" x="206" y="-175.5" font-family="Helvetica,sans-Serif" font-size="10.00" fill="#000000">_case.hpp</text>
</g>
<!-- Node0&#45;&gt;Node2 -->
<g id="edge2" class="edge">
<title>Node0&#45;&gt;Node2</title>
<path fill="none" stroke="#191970" d="M240.3952,-235.0928C234.2961,-225.9442 227.5066,-215.7599 221.5819,-206.8728"/>
<polygon fill="#191970" stroke="#191970" points="224.4623,-204.8836 216.003,-198.5046 218.6379,-208.7665 224.4623,-204.8836"/>
</g>
<!-- Node3 -->
<g id="node4" class="node">
<title>Node3</title>
<polygon fill="none" stroke="#bfbfbf" points="280,-174 280,-193 340,-193 340,-174 280,-174"/>
<text text-anchor="middle" x="310" y="-181" font-family="Helvetica,sans-Serif" font-size="10.00" fill="#000000">iostream</text>
</g>
<!-- Node0&#45;&gt;Node3 -->
<g id="edge3" class="edge">
<title>Node0&#45;&gt;Node3</title>
<path fill="none" stroke="#191970" d="M275.6048,-235.0928C282.9285,-224.1073 291.2477,-211.6285 297.8697,-201.6954"/>
<polygon fill="#191970" stroke="#191970" points="300.9759,-203.3459 303.6108,-193.0839 295.1515,-199.4629 300.9759,-203.3459"/>
</g>
<!-- Node4 -->
<g id="node5" class="node">
<title>Node4</title>
<g id="a_node5"><a xlink:href="../../dc/ded/SegmentTree_8h.html" target="_top" xlink:title="../include/MCHContour\l/SegmentTree.h">
<polygon fill="none" stroke="#000000" points="358.5,-168.5 358.5,-198.5 483.5,-198.5 483.5,-168.5 358.5,-168.5"/>
<text text-anchor="start" x="366.5" y="-186.5" font-family="Helvetica,sans-Serif" font-size="10.00" fill="#000000">../include/MCHContour</text>
<text text-anchor="middle" x="421" y="-175.5" font-family="Helvetica,sans-Serif" font-size="10.00" fill="#000000">/SegmentTree.h</text>
</a>
</g>
</g>
<!-- Node0&#45;&gt;Node4 -->
<g id="edge4" class="edge">
<title>Node0&#45;&gt;Node4</title>
<path fill="none" stroke="#191970" d="M312.7301,-235.3101C334.8662,-224.7174 359.9663,-212.7063 380.4219,-202.9177"/>
<polygon fill="#191970" stroke="#191970" points="381.9567,-206.0635 389.4663,-198.5897 378.9351,-199.7492 381.9567,-206.0635"/>
</g>
<!-- Node5 -->
<g id="node6" class="node">
<title>Node5</title>
<polygon fill="none" stroke="#bfbfbf" points="297.5,-56.5 297.5,-75.5 344.5,-75.5 344.5,-56.5 297.5,-56.5"/>
<text text-anchor="middle" x="321" y="-63.5" font-family="Helvetica,sans-Serif" font-size="10.00" fill="#000000">vector</text>
</g>
<!-- Node4&#45;&gt;Node5 -->
<g id="edge5" class="edge">
<title>Node4&#45;&gt;Node5</title>
<path fill="none" stroke="#191970" d="M394.1035,-168.3503C379.8493,-159.2677 362.8815,-146.6459 351,-132 339.7523,-118.1354 331.7588,-99.3729 326.8663,-85.3964"/>
<polygon fill="#191970" stroke="#191970" points="330.1633,-84.2177 323.727,-75.802 323.5104,-86.3946 330.1633,-84.2177"/>
</g>
<!-- Node6 -->
<g id="node7" class="node">
<title>Node6</title>
<polygon fill="none" stroke="#bfbfbf" points="437.5,-56.5 437.5,-75.5 494.5,-75.5 494.5,-56.5 437.5,-56.5"/>
<text text-anchor="middle" x="466" y="-63.5" font-family="Helvetica,sans-Serif" font-size="10.00" fill="#000000">ostream</text>
</g>
<!-- Node4&#45;&gt;Node6 -->
<g id="edge6" class="edge">
<title>Node4&#45;&gt;Node6</title>
<path fill="none" stroke="#191970" d="M426.883,-168.1389C435.0642,-146.7768 449.868,-108.1224 458.7303,-84.982"/>
<polygon fill="#191970" stroke="#191970" points="462.0309,-86.1498 462.3389,-75.5595 455.4939,-83.6463 462.0309,-86.1498"/>
</g>
<!-- Node7 -->
<g id="node8" class="node">
<title>Node7</title>
<polygon fill="none" stroke="#bfbfbf" points="479,-112.5 479,-131.5 543,-131.5 543,-112.5 479,-112.5"/>
<text text-anchor="middle" x="511" y="-119.5" font-family="Helvetica,sans-Serif" font-size="10.00" fill="#000000">algorithm</text>
</g>
<!-- Node4&#45;&gt;Node7 -->
<g id="edge7" class="edge">
<title>Node4&#45;&gt;Node7</title>
<path fill="none" stroke="#191970" d="M443.2472,-168.2977C456.9967,-158.9022 474.5921,-146.8787 488.4057,-137.4395"/>
<polygon fill="#191970" stroke="#191970" points="490.5768,-140.195 496.8586,-131.6633 486.6275,-134.4155 490.5768,-140.195"/>
</g>
<!-- Node8 -->
<g id="node9" class="node">
<title>Node8</title>
<g id="a_node9"><a xlink:href="../../d1/d55/Interval_8h.html" target="_top" xlink:title="Interval.h">
<polygon fill="none" stroke="#000000" points="359.5,-112.5 359.5,-131.5 422.5,-131.5 422.5,-112.5 359.5,-112.5"/>
<text text-anchor="middle" x="391" y="-119.5" font-family="Helvetica,sans-Serif" font-size="10.00" fill="#000000">Interval.h</text>
</a>
</g>
</g>
<!-- Node4&#45;&gt;Node8 -->
<g id="edge8" class="edge">
<title>Node4&#45;&gt;Node8</title>
<path fill="none" stroke="#191970" d="M413.5843,-168.2977C409.5501,-160.0277 404.5227,-149.7215 400.236,-140.9339"/>
<polygon fill="#191970" stroke="#191970" points="403.3334,-139.3001 395.8034,-131.8469 397.042,-142.3691 403.3334,-139.3001"/>
</g>
<!-- Node8&#45;&gt;Node5 -->
<g id="edge9" class="edge">
<title>Node8&#45;&gt;Node5</title>
<path fill="none" stroke="#191970" d="M378.8069,-112.2455C368.3679,-103.8943 353.1345,-91.7076 340.926,-81.9408"/>
<polygon fill="#191970" stroke="#191970" points="343.0485,-79.1566 333.0533,-75.6427 338.6756,-84.6227 343.0485,-79.1566"/>
</g>
<!-- Node8&#45;&gt;Node6 -->
<g id="edge10" class="edge">
<title>Node8&#45;&gt;Node6</title>
<path fill="none" stroke="#191970" d="M404.064,-112.2455C415.3562,-103.814 431.8845,-91.4729 445.0271,-81.6598"/>
<polygon fill="#191970" stroke="#191970" points="447.1669,-84.4301 453.0857,-75.6427 442.9789,-78.8211 447.1669,-84.4301"/>
</g>
<!-- Node9 -->
<g id="node10" class="node">
<title>Node9</title>
<g id="a_node10"><a xlink:href="../../d2/dc4/Helper_8h.html" target="_top" xlink:title="Helper.h">
<polygon fill="none" stroke="#000000" points="362.5,-56.5 362.5,-75.5 419.5,-75.5 419.5,-56.5 362.5,-56.5"/>
<text text-anchor="middle" x="391" y="-63.5" font-family="Helvetica,sans-Serif" font-size="10.00" fill="#000000">Helper.h</text>
</a>
</g>
</g>
<!-- Node8&#45;&gt;Node9 -->
<g id="edge11" class="edge">
<title>Node8&#45;&gt;Node9</title>
<path fill="none" stroke="#191970" d="M391,-112.2455C391,-104.9382 391,-94.6944 391,-85.7046"/>
<polygon fill="#191970" stroke="#191970" points="394.5001,-85.6426 391,-75.6427 387.5001,-85.6427 394.5001,-85.6426"/>
</g>
<!-- Node10 -->
<g id="node11" class="node">
<title>Node10</title>
<polygon fill="none" stroke="#bfbfbf" points="303.5,-.5 303.5,-19.5 350.5,-19.5 350.5,-.5 303.5,-.5"/>
<text text-anchor="middle" x="327" y="-7.5" font-family="Helvetica,sans-Serif" font-size="10.00" fill="#000000">cmath</text>
</g>
<!-- Node9&#45;&gt;Node10 -->
<g id="edge12" class="edge">
<title>Node9&#45;&gt;Node10</title>
<path fill="none" stroke="#191970" d="M379.8521,-56.2455C370.4913,-48.0549 356.9142,-36.1749 345.8651,-26.5069"/>
<polygon fill="#191970" stroke="#191970" points="347.8508,-23.5937 338.0202,-19.6427 343.2412,-28.8618 347.8508,-23.5937"/>
</g>
<!-- Node11 -->
<g id="node12" class="node">
<title>Node11</title>
<polygon fill="none" stroke="#bfbfbf" points="369,-.5 369,-19.5 413,-19.5 413,-.5 369,-.5"/>
<text text-anchor="middle" x="391" y="-7.5" font-family="Helvetica,sans-Serif" font-size="10.00" fill="#000000">limits</text>
</g>
<!-- Node9&#45;&gt;Node11 -->
<g id="edge13" class="edge">
<title>Node9&#45;&gt;Node11</title>
<path fill="none" stroke="#191970" d="M391,-56.2455C391,-48.9382 391,-38.6944 391,-29.7046"/>
<polygon fill="#191970" stroke="#191970" points="394.5001,-29.6426 391,-19.6427 387.5001,-29.6427 394.5001,-29.6426"/>
</g>
<!-- Node12 -->
<g id="node13" class="node">
<title>Node12</title>
<polygon fill="none" stroke="#bfbfbf" points="431,-.5 431,-19.5 481,-19.5 481,-.5 431,-.5"/>
<text text-anchor="middle" x="456" y="-7.5" font-family="Helvetica,sans-Serif" font-size="10.00" fill="#000000">cstdint</text>
</g>
<!-- Node9&#45;&gt;Node12 -->
<g id="edge14" class="edge">
<title>Node9&#45;&gt;Node12</title>
<path fill="none" stroke="#191970" d="M402.3221,-56.2455C411.9223,-47.9746 425.8892,-35.9416 437.1695,-26.2232"/>
<polygon fill="#191970" stroke="#191970" points="439.516,-28.8214 444.8076,-19.6427 434.947,-23.5182 439.516,-28.8214"/>
</g>
</g>
</svg>
