<?xml version="1.0" encoding="UTF-8" standalone="no"?>
<!DOCTYPE svg PUBLIC "-//W3C//DTD SVG 1.1//EN"
 "http://www.w3.org/Graphics/SVG/1.1/DTD/svg11.dtd">
<!-- Generated by graphviz version 2.40.1 (20161225.0304)
 -->
<!-- Title: AliHLTComponentTriggerData Pages: 1 -->
<svg width="166pt" height="182pt"
 viewBox="0.00 0.00 166.00 182.00" xmlns="http://www.w3.org/2000/svg" xmlns:xlink="http://www.w3.org/1999/xlink">
<g id="graph0" class="graph" transform="scale(1 1) rotate(0) translate(4 178)">
<title>AliHLTComponentTriggerData</title>
<!-- Node1 -->
<g id="node1" class="node">
<title>Node1</title>
<polygon fill="#bfbfbf" stroke="#000000" points="0,-.5 0,-57.5 158,-57.5 158,-.5 0,-.5"/>
<text text-anchor="middle" x="79" y="-45.5" font-family="Helvetica,sans-Serif" font-size="10.00" fill="#000000">AliHLTComponentTriggerData</text>
<polyline fill="none" stroke="#000000" points="0,-38.5 158,-38.5 "/>
<text text-anchor="middle" x="79" y="-26.5" font-family="Helvetica,sans-Serif" font-size="10.00" fill="#000000"> </text>
<polyline fill="none" stroke="#000000" points="0,-19.5 158,-19.5 "/>
<text text-anchor="middle" x="79" y="-7.5" font-family="Helvetica,sans-Serif" font-size="10.00" fill="#000000"> </text>
</g>
<!-- Node2 -->
<g id="node2" class="node">
<title>Node2</title>
<polygon fill="none" stroke="#bfbfbf" points="6.5,-116.5 6.5,-173.5 67.5,-173.5 67.5,-116.5 6.5,-116.5"/>
<text text-anchor="middle" x="37" y="-161.5" font-family="Helvetica,sans-Serif" font-size="10.00" fill="#000000">unsigned</text>
<polyline fill="none" stroke="#bfbfbf" points="6.5,-154.5 67.5,-154.5 "/>
<text text-anchor="middle" x="37" y="-142.5" font-family="Helvetica,sans-Serif" font-size="10.00" fill="#000000"> </text>
<polyline fill="none" stroke="#bfbfbf" points="6.5,-135.5 67.5,-135.5 "/>
<text text-anchor="middle" x="37" y="-123.5" font-family="Helvetica,sans-Serif" font-size="10.00" fill="#000000"> </text>
</g>
<!-- Node2&#45;&gt;Node1 -->
<g id="edge1" class="edge">
<title>Node2&#45;&gt;Node1</title>
<path fill="none" stroke="#404040" d="M33.0533,-116.2969C32.3937,-103.567 33.1562,-88.6417 38,-76 39.046,-73.27 40.3275,-70.593 41.7831,-67.9882"/>
<polygon fill="none" stroke="#404040" points="41.9525,-67.733 41.9392,-60.5219 48.5904,-57.7361 48.6038,-64.9472 41.9525,-67.733"/>
<text text-anchor="middle" x="68.5" y="-90" font-family="Helvetica,sans-Serif" font-size="10.00" fill="#000000"> +fDataSize</text>
<text text-anchor="middle" x="68.5" y="-79" font-family="Helvetica,sans-Serif" font-size="10.00" fill="#000000">+fStructSize</text>
</g>
<!-- Node3 -->
<g id="node3" class="node">
<title>Node3</title>
<polygon fill="none" stroke="#bfbfbf" points="98,-116.5 98,-173.5 144,-173.5 144,-116.5 98,-116.5"/>
<text text-anchor="middle" x="121" y="-161.5" font-family="Helvetica,sans-Serif" font-size="10.00" fill="#000000">void *</text>
<polyline fill="none" stroke="#bfbfbf" points="98,-154.5 144,-154.5 "/>
<text text-anchor="middle" x="121" y="-142.5" font-family="Helvetica,sans-Serif" font-size="10.00" fill="#000000"> </text>
<polyline fill="none" stroke="#bfbfbf" points="98,-135.5 144,-135.5 "/>
<text text-anchor="middle" x="121" y="-123.5" font-family="Helvetica,sans-Serif" font-size="10.00" fill="#000000"> </text>
</g>
<!-- Node3&#45;&gt;Node1 -->
<g id="edge2" class="edge">
<title>Node3&#45;&gt;Node1</title>
<path fill="none" stroke="#404040" d="M112.4965,-116.2598C108.6387,-103.7937 103.8575,-89.0838 99,-76 98.132,-73.6619 97.2132,-71.2702 96.2655,-68.865"/>
<polygon fill="none" stroke="#404040" points="96.2285,-68.7741 90.2599,-64.7273 91.6998,-57.6614 97.6684,-61.7082 96.2285,-68.7741"/>
<text text-anchor="middle" x="125.5" y="-84.5" font-family="Helvetica,sans-Serif" font-size="10.00" fill="#000000"> +fData</text>
</g>
</g>
</svg>
