<?xml version="1.0" encoding="UTF-8" standalone="no"?>
<!DOCTYPE svg PUBLIC "-//W3C//DTD SVG 1.1//EN"
 "http://www.w3.org/Graphics/SVG/1.1/DTD/svg11.dtd">
<!-- Generated by graphviz version 2.40.1 (20161225.0304)
 -->
<!-- Title: /home/travis/build/AliceO2Group/AliceO2/Detectors/TPC/reconstruction/include/TPCReconstruction/DigitalCurrentClusterIntegrator.h Pages: 1 -->
<svg width="1488pt" height="598pt"
 viewBox="0.00 0.00 1488.00 598.00" xmlns="http://www.w3.org/2000/svg" xmlns:xlink="http://www.w3.org/1999/xlink">
<g id="graph0" class="graph" transform="scale(1 1) rotate(0) translate(4 594)">
<title>/home/travis/build/AliceO2Group/AliceO2/Detectors/TPC/reconstruction/include/TPCReconstruction/DigitalCurrentClusterIntegrator.h</title>
<!-- Node0 -->
<g id="node1" class="node">
<title>Node0</title>
<polygon fill="#bfbfbf" stroke="#000000" points="164.5,-526.5 164.5,-589.5 343.5,-589.5 343.5,-526.5 164.5,-526.5"/>
<text text-anchor="start" x="172.5" y="-577.5" font-family="Helvetica,sans-Serif" font-size="10.00" fill="#000000">/home/travis/build</text>
<text text-anchor="start" x="172.5" y="-566.5" font-family="Helvetica,sans-Serif" font-size="10.00" fill="#000000">/AliceO2Group/AliceO2</text>
<text text-anchor="start" x="172.5" y="-555.5" font-family="Helvetica,sans-Serif" font-size="10.00" fill="#000000">/Detectors/TPC/reconstruction</text>
<text text-anchor="start" x="172.5" y="-544.5" font-family="Helvetica,sans-Serif" font-size="10.00" fill="#000000">/include/TPCReconstruction</text>
<text text-anchor="middle" x="254" y="-533.5" font-family="Helvetica,sans-Serif" font-size="10.00" fill="#000000">/DigitalCurrentClusterIntegrator.h</text>
</g>
<!-- Node1 -->
<g id="node2" class="node">
<title>Node1</title>
<polygon fill="none" stroke="#bfbfbf" points="1350.5,-358.5 1350.5,-377.5 1397.5,-377.5 1397.5,-358.5 1350.5,-358.5"/>
<text text-anchor="middle" x="1374" y="-365.5" font-family="Helvetica,sans-Serif" font-size="10.00" fill="#000000">vector</text>
</g>
<!-- Node0&#45;&gt;Node1 -->
<g id="edge1" class="edge">
<title>Node0&#45;&gt;Node1</title>
<path fill="none" stroke="#191970" d="M343.9274,-554.9608C599.8376,-545.3896 1318.1237,-511.7697 1387,-434 1398.324,-421.2138 1392.4666,-401.4964 1385.3631,-386.9402"/>
<polygon fill="#191970" stroke="#191970" points="1388.2762,-384.9688 1380.442,-377.836 1382.1182,-388.2974 1388.2762,-384.9688"/>
</g>
<!-- Node2 -->
<g id="node3" class="node">
<title>Node2</title>
<polygon fill="none" stroke="#bfbfbf" points="89,-470.5 89,-489.5 147,-489.5 147,-470.5 89,-470.5"/>
<text text-anchor="middle" x="118" y="-477.5" font-family="Helvetica,sans-Serif" font-size="10.00" fill="#000000">memory</text>
</g>
<!-- Node0&#45;&gt;Node2 -->
<g id="edge2" class="edge">
<title>Node0&#45;&gt;Node2</title>
<path fill="none" stroke="#191970" d="M199.0756,-526.4992C179.9059,-515.5049 159.2955,-503.6842 143.6523,-494.7124"/>
<polygon fill="#191970" stroke="#191970" points="145.0273,-491.4662 134.6114,-489.5271 141.5447,-497.5384 145.0273,-491.4662"/>
</g>
<!-- Node3 -->
<g id="node4" class="node">
<title>Node3</title>
<g id="a_node4"><a xlink:href="../../de/dcd/ClusterNative_8h.html" target="_top" xlink:title="Class of a TPC cluster in TPC&#45;native coordinates (row, time) ">
<polygon fill="none" stroke="#000000" points="165.5,-470.5 165.5,-489.5 342.5,-489.5 342.5,-470.5 165.5,-470.5"/>
<text text-anchor="middle" x="254" y="-477.5" font-family="Helvetica,sans-Serif" font-size="10.00" fill="#000000">DataFormatsTPC/ClusterNative.h</text>
</a>
</g>
</g>
<!-- Node0&#45;&gt;Node3 -->
<g id="edge3" class="edge">
<title>Node0&#45;&gt;Node3</title>
<path fill="none" stroke="#191970" d="M254,-526.2744C254,-517.3302 254,-507.8568 254,-499.8269"/>
<polygon fill="#191970" stroke="#191970" points="257.5001,-499.6425 254,-489.6426 250.5001,-499.6426 257.5001,-499.6425"/>
</g>
<!-- Node6 -->
<g id="node7" class="node">
<title>Node6</title>
<g id="a_node7"><a xlink:href="../../d0/dda/DataFormats_2Detectors_2TPC_2include_2DataFormatsTPC_2Constants_8h.html" target="_top" xlink:title="DataFormatsTPC/Constants.h">
<polygon fill="none" stroke="#000000" points="197.5,-190.5 197.5,-209.5 356.5,-209.5 356.5,-190.5 197.5,-190.5"/>
<text text-anchor="middle" x="277" y="-197.5" font-family="Helvetica,sans-Serif" font-size="10.00" fill="#000000">DataFormatsTPC/Constants.h</text>
</a>
</g>
</g>
<!-- Node0&#45;&gt;Node6 -->
<g id="edge10" class="edge">
<title>Node0&#45;&gt;Node6</title>
<path fill="none" stroke="#191970" d="M164.4491,-547.5634C91.321,-533.462 0,-500.5313 0,-424 0,-424 0,-424 0,-312 0,-265.5506 135.5639,-229.2777 217.0184,-211.6753"/>
<polygon fill="#191970" stroke="#191970" points="218.1044,-215.0228 227.158,-209.5199 216.6488,-208.1757 218.1044,-215.0228"/>
</g>
<!-- Node10 -->
<g id="node11" class="node">
<title>Node10</title>
<g id="a_node11"><a xlink:href="../../d5/d1d/TPC_2base_2include_2TPCBase_2Mapper_8h.html" target="_top" xlink:title="TPCBase/Mapper.h">
<polygon fill="none" stroke="#000000" points="810.5,-470.5 810.5,-489.5 917.5,-489.5 917.5,-470.5 810.5,-470.5"/>
<text text-anchor="middle" x="864" y="-477.5" font-family="Helvetica,sans-Serif" font-size="10.00" fill="#000000">TPCBase/Mapper.h</text>
</a>
</g>
</g>
<!-- Node0&#45;&gt;Node10 -->
<g id="edge11" class="edge">
<title>Node0&#45;&gt;Node10</title>
<path fill="none" stroke="#191970" d="M343.6798,-546.5327C468.3179,-530.5954 690.8676,-502.1382 800.0371,-488.1789"/>
<polygon fill="#191970" stroke="#191970" points="800.7656,-491.6143 810.2409,-486.8741 799.8777,-484.6708 800.7656,-491.6143"/>
</g>
<!-- Node4 -->
<g id="node5" class="node">
<title>Node4</title>
<polygon fill="none" stroke="#bfbfbf" points="61,-414.5 61,-433.5 111,-433.5 111,-414.5 61,-414.5"/>
<text text-anchor="middle" x="86" y="-421.5" font-family="Helvetica,sans-Serif" font-size="10.00" fill="#000000">cstdint</text>
</g>
<!-- Node3&#45;&gt;Node4 -->
<g id="edge4" class="edge">
<title>Node3&#45;&gt;Node4</title>
<path fill="none" stroke="#191970" d="M225.1198,-470.3733C196.1681,-460.7227 151.5758,-445.8586 120.7151,-435.5717"/>
<polygon fill="#191970" stroke="#191970" points="121.8088,-432.247 111.2152,-432.4051 119.5952,-438.8878 121.8088,-432.247"/>
</g>
<!-- Node5 -->
<g id="node6" class="node">
<title>Node5</title>
<polygon fill="none" stroke="#bfbfbf" points="129.5,-414.5 129.5,-433.5 182.5,-433.5 182.5,-414.5 129.5,-414.5"/>
<text text-anchor="middle" x="156" y="-421.5" font-family="Helvetica,sans-Serif" font-size="10.00" fill="#000000">cstddef</text>
</g>
<!-- Node3&#45;&gt;Node5 -->
<g id="edge5" class="edge">
<title>Node3&#45;&gt;Node5</title>
<path fill="none" stroke="#191970" d="M236.9297,-470.2455C221.753,-461.5731 199.3379,-448.7645 181.9437,-438.825"/>
<polygon fill="#191970" stroke="#191970" points="183.2936,-435.5653 172.8747,-433.6427 179.8206,-441.643 183.2936,-435.5653"/>
</g>
<!-- Node3&#45;&gt;Node6 -->
<g id="edge6" class="edge">
<title>Node3&#45;&gt;Node6</title>
<path fill="none" stroke="#191970" d="M271.4143,-470.4186C285.013,-462.2181 303.6182,-449.3256 316,-434 336.2494,-408.9364 346,-400.2215 346,-368 346,-368 346,-368 346,-312 346,-273.3203 315.7999,-236.7993 295.3591,-216.5101"/>
<polygon fill="#191970" stroke="#191970" points="297.7333,-213.9378 288.086,-209.5582 292.8965,-218.998 297.7333,-213.9378"/>
</g>
<!-- Node7 -->
<g id="node8" class="node">
<title>Node7</title>
<g id="a_node8"><a xlink:href="../../df/d21/GPUCommonDef_8h.html" target="_top" xlink:title="GPUCommonDef.h">
<polygon fill="none" stroke="#000000" points="200.5,-414.5 200.5,-433.5 307.5,-433.5 307.5,-414.5 200.5,-414.5"/>
<text text-anchor="middle" x="254" y="-421.5" font-family="Helvetica,sans-Serif" font-size="10.00" fill="#000000">GPUCommonDef.h</text>
</a>
</g>
</g>
<!-- Node3&#45;&gt;Node7 -->
<g id="edge7" class="edge">
<title>Node3&#45;&gt;Node7</title>
<path fill="none" stroke="#191970" d="M254,-470.2455C254,-462.9382 254,-452.6944 254,-443.7046"/>
<polygon fill="#191970" stroke="#191970" points="257.5001,-443.6426 254,-433.6427 250.5001,-443.6427 257.5001,-443.6426"/>
</g>
<!-- Node8 -->
<g id="node9" class="node">
<title>Node8</title>
<g id="a_node9"><a xlink:href="../../d5/d93/GPUCommonDefSettings_8h.html" target="_top" xlink:title="GPUCommonDefSettings.h">
<polygon fill="none" stroke="#000000" points="170,-358.5 170,-377.5 318,-377.5 318,-358.5 170,-358.5"/>
<text text-anchor="middle" x="244" y="-365.5" font-family="Helvetica,sans-Serif" font-size="10.00" fill="#000000">GPUCommonDefSettings.h</text>
</a>
</g>
</g>
<!-- Node7&#45;&gt;Node8 -->
<g id="edge8" class="edge">
<title>Node7&#45;&gt;Node8</title>
<path fill="none" stroke="#191970" d="M252.2581,-414.2455C250.9533,-406.9382 249.124,-396.6944 247.5187,-387.7046"/>
<polygon fill="#191970" stroke="#191970" points="250.9254,-386.8717 245.7219,-377.6427 244.0344,-388.1022 250.9254,-386.8717"/>
</g>
<!-- Node9 -->
<g id="node10" class="node">
<title>Node9</title>
<g id="a_node10"><a xlink:href="../../da/d5a/GPUCommonDefAPI_8h.html" target="_top" xlink:title="GPUCommonDefAPI.h">
<polygon fill="none" stroke="#000000" points="28,-358.5 28,-377.5 152,-377.5 152,-358.5 28,-358.5"/>
<text text-anchor="middle" x="90" y="-365.5" font-family="Helvetica,sans-Serif" font-size="10.00" fill="#000000">GPUCommonDefAPI.h</text>
</a>
</g>
</g>
<!-- Node7&#45;&gt;Node9 -->
<g id="edge9" class="edge">
<title>Node7&#45;&gt;Node9</title>
<path fill="none" stroke="#191970" d="M225.8074,-414.3733C198.6547,-405.1016 157.4093,-391.0178 127.4975,-380.804"/>
<polygon fill="#191970" stroke="#191970" points="128.4192,-377.4204 117.8247,-377.5011 126.1572,-384.0449 128.4192,-377.4204"/>
</g>
<!-- Node10&#45;&gt;Node1 -->
<g id="edge13" class="edge">
<title>Node10&#45;&gt;Node1</title>
<path fill="none" stroke="#191970" d="M917.7657,-478.9514C1041.416,-476.0035 1337.8033,-465.6753 1369,-434 1380.6944,-422.1261 1380.7432,-402.5231 1378.5881,-387.7594"/>
<polygon fill="#191970" stroke="#191970" points="1381.9676,-386.7944 1376.6669,-377.6209 1375.09,-388.0978 1381.9676,-386.7944"/>
</g>
<!-- Node11 -->
<g id="node12" class="node">
<title>Node11</title>
<polygon fill="none" stroke="#bfbfbf" points="1200,-414.5 1200,-433.5 1238,-433.5 1238,-414.5 1200,-414.5"/>
<text text-anchor="middle" x="1219" y="-421.5" font-family="Helvetica,sans-Serif" font-size="10.00" fill="#000000">map</text>
</g>
<!-- Node10&#45;&gt;Node11 -->
<g id="edge12" class="edge">
<title>Node10&#45;&gt;Node11</title>
<path fill="none" stroke="#191970" d="M917.5876,-475.8278C980.8437,-470.1585 1089.1889,-458.116 1190.1336,-433.8"/>
<polygon fill="#191970" stroke="#191970" points="1191.0002,-437.1912 1199.8776,-431.4083 1189.3315,-430.393 1191.0002,-437.1912"/>
</g>
<!-- Node12 -->
<g id="node13" class="node">
<title>Node12</title>
<polygon fill="none" stroke="#bfbfbf" points="1256,-414.5 1256,-433.5 1298,-433.5 1298,-414.5 1256,-414.5"/>
<text text-anchor="middle" x="1277" y="-421.5" font-family="Helvetica,sans-Serif" font-size="10.00" fill="#000000">array</text>
</g>
<!-- Node10&#45;&gt;Node12 -->
<g id="edge14" class="edge">
<title>Node10&#45;&gt;Node12</title>
<path fill="none" stroke="#191970" d="M917.5483,-476.9945C990.1641,-472.1663 1123.8844,-460.6103 1245.9543,-433.8488"/>
<polygon fill="#191970" stroke="#191970" points="1246.8474,-437.2356 1255.8447,-431.641 1245.3223,-430.4038 1246.8474,-437.2356"/>
</g>
<!-- Node13 -->
<g id="node14" class="node">
<title>Node13</title>
<polygon fill="none" stroke="#bfbfbf" points="1316,-414.5 1316,-433.5 1360,-433.5 1360,-414.5 1316,-414.5"/>
<text text-anchor="middle" x="1338" y="-421.5" font-family="Helvetica,sans-Serif" font-size="10.00" fill="#000000">string</text>
</g>
<!-- Node10&#45;&gt;Node13 -->
<g id="edge15" class="edge">
<title>Node10&#45;&gt;Node13</title>
<path fill="none" stroke="#191970" d="M917.7466,-478.0317C999.7767,-474.2387 1161.0865,-463.6755 1305.8479,-433.8602"/>
<polygon fill="#191970" stroke="#191970" points="1306.7298,-437.2515 1315.799,-431.7743 1305.2937,-430.4004 1306.7298,-437.2515"/>
</g>
<!-- Node14 -->
<g id="node15" class="node">
<title>Node14</title>
<polygon fill="none" stroke="#bfbfbf" points="396.5,-134.5 396.5,-153.5 443.5,-153.5 443.5,-134.5 396.5,-134.5"/>
<text text-anchor="middle" x="420" y="-141.5" font-family="Helvetica,sans-Serif" font-size="10.00" fill="#000000">cmath</text>
</g>
<!-- Node10&#45;&gt;Node14 -->
<g id="edge16" class="edge">
<title>Node10&#45;&gt;Node14</title>
<path fill="none" stroke="#191970" d="M810.3351,-478.7383C685.0808,-474.3409 384,-454.7484 384,-368 384,-368 384,-368 384,-256 384,-221.7942 399.4074,-184.4094 410.0631,-162.6445"/>
<polygon fill="#191970" stroke="#191970" points="413.273,-164.0537 414.6881,-153.5538 407.0341,-160.8795 413.273,-164.0537"/>
</g>
<!-- Node15 -->
<g id="node16" class="node">
<title>Node15</title>
<g id="a_node16"><a xlink:href="../../d1/d73/Defs_8h.html" target="_top" xlink:title="Common definitions for 2D coordinates. ">
<polygon fill="none" stroke="#000000" points="565.5,-190.5 565.5,-209.5 698.5,-209.5 698.5,-190.5 565.5,-190.5"/>
<text text-anchor="middle" x="632" y="-197.5" font-family="Helvetica,sans-Serif" font-size="10.00" fill="#000000">DataFormatsTPC/Defs.h</text>
</a>
</g>
</g>
<!-- Node10&#45;&gt;Node15 -->
<g id="edge17" class="edge">
<title>Node10&#45;&gt;Node15</title>
<path fill="none" stroke="#191970" d="M810.1495,-473.65C714.3561,-461.1353 520.5666,-429.9018 480,-378 443.6973,-331.5535 431.3495,-292.9489 467,-246 478.5563,-230.7812 520.0928,-219.2497 558.596,-211.5387"/>
<polygon fill="#191970" stroke="#191970" points="559.6675,-214.8965 568.822,-209.5632 558.3396,-208.0236 559.6675,-214.8965"/>
</g>
<!-- Node28 -->
<g id="node29" class="node">
<title>Node28</title>
<g id="a_node29"><a xlink:href="../../de/d41/PadPos_8h.html" target="_top" xlink:title="TPCBase/PadPos.h">
<polygon fill="none" stroke="#000000" points="778,-302.5 778,-321.5 884,-321.5 884,-302.5 778,-302.5"/>
<text text-anchor="middle" x="831" y="-309.5" font-family="Helvetica,sans-Serif" font-size="10.00" fill="#000000">TPCBase/PadPos.h</text>
</a>
</g>
</g>
<!-- Node10&#45;&gt;Node28 -->
<g id="edge32" class="edge">
<title>Node10&#45;&gt;Node28</title>
<path fill="none" stroke="#191970" d="M862.1312,-470.4862C856.8921,-443.8144 841.9827,-367.9117 834.8687,-331.695"/>
<polygon fill="#191970" stroke="#191970" points="838.2924,-330.9657 832.9305,-321.8279 831.4236,-332.315 838.2924,-330.9657"/>
</g>
<!-- Node29 -->
<g id="node30" class="node">
<title>Node29</title>
<g id="a_node30"><a xlink:href="../../dd/d0b/PadSecPos_8h.html" target="_top" xlink:title="TPCBase/PadSecPos.h">
<polygon fill="none" stroke="#000000" points="488.5,-358.5 488.5,-377.5 611.5,-377.5 611.5,-358.5 488.5,-358.5"/>
<text text-anchor="middle" x="550" y="-365.5" font-family="Helvetica,sans-Serif" font-size="10.00" fill="#000000">TPCBase/PadSecPos.h</text>
</a>
</g>
</g>
<!-- Node10&#45;&gt;Node29 -->
<g id="edge33" class="edge">
<title>Node10&#45;&gt;Node29</title>
<path fill="none" stroke="#191970" d="M810.9968,-470.4698C772.9923,-462.7967 720.9585,-450.5579 677,-434 639.6793,-419.9423 599.2367,-397.5699 574.2555,-382.8337"/>
<polygon fill="#191970" stroke="#191970" points="575.8575,-379.7138 565.477,-377.5931 572.2693,-385.7243 575.8575,-379.7138"/>
</g>
<!-- Node30 -->
<g id="node31" class="node">
<title>Node30</title>
<g id="a_node31"><a xlink:href="../../d3/dd6/Sector_8h.html" target="_top" xlink:title="TPCBase/Sector.h">
<polygon fill="none" stroke="#000000" points="475.5,-246.5 475.5,-265.5 576.5,-265.5 576.5,-246.5 475.5,-246.5"/>
<text text-anchor="middle" x="526" y="-253.5" font-family="Helvetica,sans-Serif" font-size="10.00" fill="#000000">TPCBase/Sector.h</text>
</a>
</g>
</g>
<!-- Node10&#45;&gt;Node30 -->
<g id="edge59" class="edge">
<title>Node10&#45;&gt;Node30</title>
<path fill="none" stroke="#191970" d="M810.3146,-474.1786C713.8233,-462.4384 517.6,-432.2995 480,-378 456.8444,-344.5603 488.8577,-297.9578 510.0013,-273.1453"/>
<polygon fill="#191970" stroke="#191970" points="512.6567,-275.426 516.6596,-265.6165 507.4131,-270.7887 512.6567,-275.426"/>
</g>
<!-- Node31 -->
<g id="node32" class="node">
<title>Node31</title>
<g id="a_node32"><a xlink:href="../../da/d61/PadROCPos_8h.html" target="_top" xlink:title="TPCBase/PadROCPos.h">
<polygon fill="none" stroke="#000000" points="854.5,-358.5 854.5,-377.5 981.5,-377.5 981.5,-358.5 854.5,-358.5"/>
<text text-anchor="middle" x="918" y="-365.5" font-family="Helvetica,sans-Serif" font-size="10.00" fill="#000000">TPCBase/PadROCPos.h</text>
</a>
</g>
</g>
<!-- Node10&#45;&gt;Node31 -->
<g id="edge38" class="edge">
<title>Node10&#45;&gt;Node31</title>
<path fill="none" stroke="#191970" d="M865.6478,-470.1867C868.1338,-456.9166 873.5828,-432.7541 883,-414 888.1469,-403.75 895.6748,-393.4832 902.4315,-385.2578"/>
<polygon fill="#191970" stroke="#191970" points="905.2182,-387.3844 909.0615,-377.5112 899.9,-382.8328 905.2182,-387.3844"/>
</g>
<!-- Node33 -->
<g id="node34" class="node">
<title>Node33</title>
<g id="a_node34"><a xlink:href="../../d3/d54/DigitPos_8h.html" target="_top" xlink:title="TPCBase/DigitPos.h">
<polygon fill="none" stroke="#000000" points="686,-414.5 686,-433.5 798,-433.5 798,-414.5 686,-414.5"/>
<text text-anchor="middle" x="742" y="-421.5" font-family="Helvetica,sans-Serif" font-size="10.00" fill="#000000">TPCBase/DigitPos.h</text>
</a>
</g>
</g>
<!-- Node10&#45;&gt;Node33 -->
<g id="edge44" class="edge">
<title>Node10&#45;&gt;Node33</title>
<path fill="none" stroke="#191970" d="M843.0275,-470.3733C823.4433,-461.3838 794.0039,-447.8706 771.949,-437.7471"/>
<polygon fill="#191970" stroke="#191970" points="773.2473,-434.4919 762.6989,-433.5011 770.3271,-440.8538 773.2473,-434.4919"/>
</g>
<!-- Node35 -->
<g id="node36" class="node">
<title>Node35</title>
<g id="a_node36"><a xlink:href="../../d1/d1f/FECInfo_8h.html" target="_top" xlink:title="TPCBase/FECInfo.h">
<polygon fill="none" stroke="#000000" points="1372,-246.5 1372,-265.5 1480,-265.5 1480,-246.5 1372,-246.5"/>
<text text-anchor="middle" x="1426" y="-253.5" font-family="Helvetica,sans-Serif" font-size="10.00" fill="#000000">TPCBase/FECInfo.h</text>
</a>
</g>
</g>
<!-- Node10&#45;&gt;Node35 -->
<g id="edge52" class="edge">
<title>Node10&#45;&gt;Node35</title>
<path fill="none" stroke="#191970" d="M917.7266,-478.5233C1043.7369,-474.6038 1350.4378,-462.2446 1387,-434 1435.3266,-396.6674 1432.9477,-314.431 1428.8536,-276.2341"/>
<polygon fill="#191970" stroke="#191970" points="1432.2763,-275.3904 1427.5822,-265.8922 1425.3286,-276.2446 1432.2763,-275.3904"/>
</g>
<!-- Node36 -->
<g id="node37" class="node">
<title>Node36</title>
<g id="a_node37"><a xlink:href="../../da/d9d/PadRegionInfo_8h.html" target="_top" xlink:title="TPCBase/PadRegionInfo.h">
<polygon fill="none" stroke="#000000" points="892,-414.5 892,-433.5 1032,-433.5 1032,-414.5 892,-414.5"/>
<text text-anchor="middle" x="962" y="-421.5" font-family="Helvetica,sans-Serif" font-size="10.00" fill="#000000">TPCBase/PadRegionInfo.h</text>
</a>
</g>
</g>
<!-- Node10&#45;&gt;Node36 -->
<g id="edge54" class="edge">
<title>Node10&#45;&gt;Node36</title>
<path fill="none" stroke="#191970" d="M881.0703,-470.2455C896.247,-461.5731 918.6621,-448.7645 936.0563,-438.825"/>
<polygon fill="#191970" stroke="#191970" points="938.1794,-441.643 945.1253,-433.6427 934.7064,-435.5653 938.1794,-441.643"/>
</g>
<!-- Node37 -->
<g id="node38" class="node">
<title>Node37</title>
<g id="a_node38"><a xlink:href="../../d6/d42/PartitionInfo_8h.html" target="_top" xlink:title="TPCBase/PartitionInfo.h">
<polygon fill="none" stroke="#000000" points="1050.5,-414.5 1050.5,-433.5 1181.5,-433.5 1181.5,-414.5 1050.5,-414.5"/>
<text text-anchor="middle" x="1116" y="-421.5" font-family="Helvetica,sans-Serif" font-size="10.00" fill="#000000">TPCBase/PartitionInfo.h</text>
</a>
</g>
</g>
<!-- Node10&#45;&gt;Node37 -->
<g id="edge58" class="edge">
<title>Node10&#45;&gt;Node37</title>
<path fill="none" stroke="#191970" d="M907.034,-470.4369C950.2525,-460.8328 1016.9141,-446.0191 1063.2818,-435.7152"/>
<polygon fill="#191970" stroke="#191970" points="1064.1409,-439.1097 1073.1435,-433.5237 1062.6223,-432.2764 1064.1409,-439.1097"/>
</g>
<!-- Node15&#45;&gt;Node14 -->
<g id="edge18" class="edge">
<title>Node15&#45;&gt;Node14</title>
<path fill="none" stroke="#191970" d="M595.5559,-190.3733C555.5634,-179.8092 491.9207,-162.9979 453.2458,-152.7819"/>
<polygon fill="#191970" stroke="#191970" points="454.0727,-149.3804 443.5105,-150.2103 452.285,-156.1482 454.0727,-149.3804"/>
</g>
<!-- Node16 -->
<g id="node17" class="node">
<title>Node16</title>
<g id="a_node17"><a xlink:href="../../d2/dd0/Cartesian2D_8h.html" target="_top" xlink:title="MathUtils/Cartesian2D.h">
<polygon fill="none" stroke="#000000" points="126.5,-73 126.5,-92 261.5,-92 261.5,-73 126.5,-73"/>
<text text-anchor="middle" x="194" y="-80" font-family="Helvetica,sans-Serif" font-size="10.00" fill="#000000">MathUtils/Cartesian2D.h</text>
</a>
</g>
</g>
<!-- Node15&#45;&gt;Node16 -->
<g id="edge19" class="edge">
<title>Node15&#45;&gt;Node16</title>
<path fill="none" stroke="#191970" d="M609.7729,-190.4979C576.2999,-176.4891 510.7177,-150.2068 453,-134 373.1943,-111.591 351.2773,-114.2824 270,-98 263.7612,-96.7502 257.2364,-95.4337 250.7437,-94.1177"/>
<polygon fill="#191970" stroke="#191970" points="251.1096,-90.6206 240.6129,-92.0599 249.7161,-97.4805 251.1096,-90.6206"/>
</g>
<!-- Node19 -->
<g id="node20" class="node">
<title>Node19</title>
<g id="a_node20"><a xlink:href="../../dd/d76/Cartesian3D_8h.html" target="_top" xlink:title="MathUtils/Cartesian3D.h">
<polygon fill="none" stroke="#000000" points="626.5,-134.5 626.5,-153.5 761.5,-153.5 761.5,-134.5 626.5,-134.5"/>
<text text-anchor="middle" x="694" y="-141.5" font-family="Helvetica,sans-Serif" font-size="10.00" fill="#000000">MathUtils/Cartesian3D.h</text>
</a>
</g>
</g>
<!-- Node15&#45;&gt;Node19 -->
<g id="edge22" class="edge">
<title>Node15&#45;&gt;Node19</title>
<path fill="none" stroke="#191970" d="M642.7996,-190.2455C651.8678,-182.0549 665.0206,-170.1749 675.7245,-160.5069"/>
<polygon fill="#191970" stroke="#191970" points="678.2491,-162.9429 683.3242,-153.6427 673.5571,-157.7482 678.2491,-162.9429"/>
</g>
<!-- Node17 -->
<g id="node18" class="node">
<title>Node17</title>
<polygon fill="none" stroke="#bfbfbf" points="15,-.5 15,-30.5 179,-30.5 179,-.5 15,-.5"/>
<text text-anchor="start" x="23" y="-18.5" font-family="Helvetica,sans-Serif" font-size="10.00" fill="#000000">Math/GenVector/Displacement</text>
<text text-anchor="middle" x="97" y="-7.5" font-family="Helvetica,sans-Serif" font-size="10.00" fill="#000000">Vector2D.h</text>
</g>
<!-- Node16&#45;&gt;Node17 -->
<g id="edge20" class="edge">
<title>Node16&#45;&gt;Node17</title>
<path fill="none" stroke="#191970" d="M180.1023,-72.9005C166.3265,-63.3853 144.7795,-48.5023 127.0779,-36.2755"/>
<polygon fill="#191970" stroke="#191970" points="128.9651,-33.3253 118.7479,-30.5218 124.9868,-39.0849 128.9651,-33.3253"/>
</g>
<!-- Node18 -->
<g id="node19" class="node">
<title>Node18</title>
<polygon fill="none" stroke="#bfbfbf" points="197.5,-6 197.5,-25 386.5,-25 386.5,-6 197.5,-6"/>
<text text-anchor="middle" x="292" y="-13" font-family="Helvetica,sans-Serif" font-size="10.00" fill="#000000">Math/GenVector/PositionVector2D.h</text>
</g>
<!-- Node16&#45;&gt;Node18 -->
<g id="edge21" class="edge">
<title>Node16&#45;&gt;Node18</title>
<path fill="none" stroke="#191970" d="M208.041,-72.9005C224.1238,-61.9052 250.6906,-43.7422 269.6316,-30.7927"/>
<polygon fill="#191970" stroke="#191970" points="271.7052,-33.6148 277.985,-25.0817 267.7545,-27.8362 271.7052,-33.6148"/>
</g>
<!-- Node19&#45;&gt;Node16 -->
<g id="edge31" class="edge">
<title>Node19&#45;&gt;Node16</title>
<path fill="none" stroke="#191970" d="M626.1853,-138.6032C542.2575,-131.4737 395.103,-117.5001 270,-98 262.5989,-96.8464 254.8259,-95.4623 247.1921,-94.0023"/>
<polygon fill="#191970" stroke="#191970" points="247.7673,-90.5485 237.2797,-92.0524 246.4161,-97.4169 247.7673,-90.5485"/>
</g>
<!-- Node20 -->
<g id="node21" class="node">
<title>Node20</title>
<polygon fill="none" stroke="#bfbfbf" points="648,-67.5 648,-97.5 812,-97.5 812,-67.5 648,-67.5"/>
<text text-anchor="start" x="656" y="-85.5" font-family="Helvetica,sans-Serif" font-size="10.00" fill="#000000">Math/GenVector/Displacement</text>
<text text-anchor="middle" x="730" y="-74.5" font-family="Helvetica,sans-Serif" font-size="10.00" fill="#000000">Vector3D.h</text>
</g>
<!-- Node19&#45;&gt;Node20 -->
<g id="edge23" class="edge">
<title>Node19&#45;&gt;Node20</title>
<path fill="none" stroke="#191970" d="M699.625,-134.3906C704.0009,-126.9151 710.2681,-116.2087 715.9743,-106.4605"/>
<polygon fill="#191970" stroke="#191970" points="719.1621,-107.9429 721.1934,-97.5446 713.121,-104.4066 719.1621,-107.9429"/>
</g>
<!-- Node21 -->
<g id="node22" class="node">
<title>Node21</title>
<polygon fill="none" stroke="#bfbfbf" points="830.5,-73 830.5,-92 1019.5,-92 1019.5,-73 830.5,-73"/>
<text text-anchor="middle" x="925" y="-80" font-family="Helvetica,sans-Serif" font-size="10.00" fill="#000000">Math/GenVector/PositionVector3D.h</text>
</g>
<!-- Node19&#45;&gt;Node21 -->
<g id="edge24" class="edge">
<title>Node19&#45;&gt;Node21</title>
<path fill="none" stroke="#191970" d="M729.8403,-134.4581C770.0485,-123.7533 835.3691,-106.3628 879.2369,-94.6837"/>
<polygon fill="#191970" stroke="#191970" points="880.3127,-98.0193 889.0756,-92.0643 878.5118,-91.2549 880.3127,-98.0193"/>
</g>
<!-- Node22 -->
<g id="node23" class="node">
<title>Node22</title>
<polygon fill="none" stroke="#bfbfbf" points="1038,-73 1038,-92 1198,-92 1198,-73 1038,-73"/>
<text text-anchor="middle" x="1118" y="-80" font-family="Helvetica,sans-Serif" font-size="10.00" fill="#000000">Math/GenVector/Rotation3D.h</text>
</g>
<!-- Node19&#45;&gt;Node22 -->
<g id="edge25" class="edge">
<title>Node19&#45;&gt;Node22</title>
<path fill="none" stroke="#191970" d="M761.7961,-135.4178C829.5415,-126.671 936.6243,-112.3814 1029,-98 1037.354,-96.6994 1046.1361,-95.2593 1054.7955,-93.7961"/>
<polygon fill="#191970" stroke="#191970" points="1055.6038,-97.2088 1064.8716,-92.0747 1054.425,-90.3087 1055.6038,-97.2088"/>
</g>
<!-- Node23 -->
<g id="node24" class="node">
<title>Node23</title>
<polygon fill="none" stroke="#bfbfbf" points="1216,-73 1216,-92 1384,-92 1384,-73 1216,-73"/>
<text text-anchor="middle" x="1300" y="-80" font-family="Helvetica,sans-Serif" font-size="10.00" fill="#000000">Math/GenVector/Transform3D.h</text>
</g>
<!-- Node19&#45;&gt;Node23 -->
<g id="edge26" class="edge">
<title>Node19&#45;&gt;Node23</title>
<path fill="none" stroke="#191970" d="M761.8108,-139.562C860.1588,-132.7531 1048.0117,-118.3475 1207,-98 1216.7417,-96.7533 1227.0256,-95.2395 1237.0624,-93.6523"/>
<polygon fill="#191970" stroke="#191970" points="1237.6744,-97.0989 1246.9877,-92.0479 1236.5573,-90.1886 1237.6744,-97.0989"/>
</g>
<!-- Node24 -->
<g id="node25" class="node">
<title>Node24</title>
<polygon fill="none" stroke="#bfbfbf" points="279.5,-73 279.5,-92 452.5,-92 452.5,-73 279.5,-73"/>
<text text-anchor="middle" x="366" y="-80" font-family="Helvetica,sans-Serif" font-size="10.00" fill="#000000">Math/GenVector/Translation3D.h</text>
</g>
<!-- Node19&#45;&gt;Node24 -->
<g id="edge27" class="edge">
<title>Node19&#45;&gt;Node24</title>
<path fill="none" stroke="#191970" d="M643.1099,-134.4581C584.7305,-123.512 489.0679,-105.5752 426.8139,-93.9026"/>
<polygon fill="#191970" stroke="#191970" points="427.2134,-90.4166 416.7396,-92.0137 425.9233,-97.2967 427.2134,-90.4166"/>
</g>
<!-- Node25 -->
<g id="node26" class="node">
<title>Node25</title>
<polygon fill="none" stroke="#bfbfbf" points="470.5,-73 470.5,-92 529.5,-92 529.5,-73 470.5,-73"/>
<text text-anchor="middle" x="500" y="-80" font-family="Helvetica,sans-Serif" font-size="10.00" fill="#000000">Rtypes.h</text>
</g>
<!-- Node19&#45;&gt;Node25 -->
<g id="edge28" class="edge">
<title>Node19&#45;&gt;Node25</title>
<path fill="none" stroke="#191970" d="M658.6246,-134.478C627.0207,-125.7403 579.5819,-112.0544 539,-98 536.8743,-97.2638 534.6941,-96.4798 532.5034,-95.6701"/>
<polygon fill="#191970" stroke="#191970" points="533.5591,-92.3267 522.9686,-92.0252 531.0596,-98.8653 533.5591,-92.3267"/>
</g>
<!-- Node26 -->
<g id="node27" class="node">
<title>Node26</title>
<polygon fill="none" stroke="#bfbfbf" points="548,-73 548,-92 630,-92 630,-73 548,-73"/>
<text text-anchor="middle" x="589" y="-80" font-family="Helvetica,sans-Serif" font-size="10.00" fill="#000000">TGeoMatrix.h</text>
</g>
<!-- Node19&#45;&gt;Node26 -->
<g id="edge29" class="edge">
<title>Node19&#45;&gt;Node26</title>
<path fill="none" stroke="#191970" d="M677.5938,-134.3906C660.5647,-124.4165 633.7159,-108.6908 614.0349,-97.1633"/>
<polygon fill="#191970" stroke="#191970" points="615.6888,-94.0759 605.291,-92.0419 612.151,-100.1161 615.6888,-94.0759"/>
</g>
<!-- Node27 -->
<g id="node28" class="node">
<title>Node27</title>
<polygon fill="none" stroke="#bfbfbf" points="1401.5,-73 1401.5,-92 1450.5,-92 1450.5,-73 1401.5,-73"/>
<text text-anchor="middle" x="1426" y="-80" font-family="Helvetica,sans-Serif" font-size="10.00" fill="#000000">iosfwd</text>
</g>
<!-- Node19&#45;&gt;Node27 -->
<g id="edge30" class="edge">
<title>Node19&#45;&gt;Node27</title>
<path fill="none" stroke="#191970" d="M761.6693,-142.7447C913.0395,-139.4191 1274.9427,-128.4486 1393,-98 1394.9766,-97.4902 1396.979,-96.8629 1398.9691,-96.1557"/>
<polygon fill="#191970" stroke="#191970" points="1400.7562,-99.203 1408.6436,-92.1291 1398.0664,-92.7404 1400.7562,-99.203"/>
</g>
<!-- Node29&#45;&gt;Node28 -->
<g id="edge37" class="edge">
<title>Node29&#45;&gt;Node28</title>
<path fill="none" stroke="#191970" d="M597.9863,-358.4369C646.4814,-348.7724 721.4473,-333.8326 773.1879,-323.5213"/>
<polygon fill="#191970" stroke="#191970" points="774.0885,-326.9107 783.2116,-321.5237 772.7203,-320.0457 774.0885,-326.9107"/>
</g>
<!-- Node29&#45;&gt;Node30 -->
<g id="edge34" class="edge">
<title>Node29&#45;&gt;Node30</title>
<path fill="none" stroke="#191970" d="M547.9538,-358.4509C544.0217,-340.1013 535.3409,-299.5908 530.1506,-275.3693"/>
<polygon fill="#191970" stroke="#191970" points="533.5587,-274.5695 528.041,-265.5249 526.7141,-276.0363 533.5587,-274.5695"/>
</g>
<!-- Node30&#45;&gt;Node6 -->
<g id="edge35" class="edge">
<title>Node30&#45;&gt;Node6</title>
<path fill="none" stroke="#191970" d="M483.4783,-246.4369C440.8639,-236.8529 375.1824,-222.0812 329.379,-211.78"/>
<polygon fill="#191970" stroke="#191970" points="329.8706,-208.3032 319.3463,-209.5237 328.3346,-215.1326 329.8706,-208.3032"/>
</g>
<!-- Node30&#45;&gt;Node15 -->
<g id="edge36" class="edge">
<title>Node30&#45;&gt;Node15</title>
<path fill="none" stroke="#191970" d="M544.4638,-246.2455C561.1074,-237.4527 585.7993,-224.4079 604.7192,-214.4125"/>
<polygon fill="#191970" stroke="#191970" points="606.5408,-217.4086 613.7478,-209.6427 603.2709,-211.2193 606.5408,-217.4086"/>
</g>
<!-- Node31&#45;&gt;Node15 -->
<g id="edge39" class="edge">
<title>Node31&#45;&gt;Node15</title>
<path fill="none" stroke="#191970" d="M916.7226,-358.2233C914.3969,-344.1063 908.2207,-317.961 893,-302 843.6468,-250.2465 764.917,-224.2967 706.819,-211.5811"/>
<polygon fill="#191970" stroke="#191970" points="707.4592,-208.1392 696.9527,-209.5047 706.0176,-214.9891 707.4592,-208.1392"/>
</g>
<!-- Node31&#45;&gt;Node28 -->
<g id="edge43" class="edge">
<title>Node31&#45;&gt;Node28</title>
<path fill="none" stroke="#191970" d="M902.8458,-358.2455C889.4973,-349.6534 869.8414,-337.0014 854.4617,-327.1018"/>
<polygon fill="#191970" stroke="#191970" points="856.2836,-324.1121 845.9806,-321.6427 852.4949,-329.9982 856.2836,-324.1121"/>
</g>
<!-- Node32 -->
<g id="node33" class="node">
<title>Node32</title>
<g id="a_node33"><a xlink:href="../../dc/d14/ROC_8h.html" target="_top" xlink:title="TPCBase/ROC.h">
<polygon fill="none" stroke="#000000" points="630,-302.5 630,-321.5 722,-321.5 722,-302.5 630,-302.5"/>
<text text-anchor="middle" x="676" y="-309.5" font-family="Helvetica,sans-Serif" font-size="10.00" fill="#000000">TPCBase/ROC.h</text>
</a>
</g>
</g>
<!-- Node31&#45;&gt;Node32 -->
<g id="edge40" class="edge">
<title>Node31&#45;&gt;Node32</title>
<path fill="none" stroke="#191970" d="M876.6737,-358.4369C835.2573,-348.8529 771.4223,-334.0812 726.9065,-323.78"/>
<polygon fill="#191970" stroke="#191970" points="727.6875,-320.3683 717.1559,-321.5237 726.1093,-327.1881 727.6875,-320.3683"/>
</g>
<!-- Node32&#45;&gt;Node15 -->
<g id="edge41" class="edge">
<title>Node32&#45;&gt;Node15</title>
<path fill="none" stroke="#191970" d="M672.2486,-302.4509C665.0073,-284.0186 648.9814,-243.2254 639.4812,-219.043"/>
<polygon fill="#191970" stroke="#191970" points="642.6561,-217.5526 635.7419,-209.5249 636.1409,-220.1122 642.6561,-217.5526"/>
</g>
<!-- Node32&#45;&gt;Node30 -->
<g id="edge42" class="edge">
<title>Node32&#45;&gt;Node30</title>
<path fill="none" stroke="#191970" d="M650.2141,-302.3733C625.5953,-293.1822 588.31,-279.2624 561.0125,-269.0713"/>
<polygon fill="#191970" stroke="#191970" points="562.042,-265.7198 551.4494,-265.5011 559.5937,-272.2777 562.042,-265.7198"/>
</g>
<!-- Node33&#45;&gt;Node15 -->
<g id="edge45" class="edge">
<title>Node33&#45;&gt;Node15</title>
<path fill="none" stroke="#191970" d="M743.2318,-414.2693C745.5065,-392.8487 748.6497,-340.4642 731,-302 714.0425,-265.0443 677.9033,-233.4065 654.2983,-215.5499"/>
<polygon fill="#191970" stroke="#191970" points="656.3561,-212.7187 646.2275,-209.6103 652.207,-218.3565 656.3561,-212.7187"/>
</g>
<!-- Node33&#45;&gt;Node28 -->
<g id="edge50" class="edge">
<title>Node33&#45;&gt;Node28</title>
<path fill="none" stroke="#191970" d="M749.5881,-414.4509C764.5636,-395.6054 798.1138,-353.3849 817.1399,-329.4419"/>
<polygon fill="#191970" stroke="#191970" points="819.9499,-331.5315 823.4311,-321.5249 814.4695,-327.1765 819.9499,-331.5315"/>
</g>
<!-- Node33&#45;&gt;Node29 -->
<g id="edge51" class="edge">
<title>Node33&#45;&gt;Node29</title>
<path fill="none" stroke="#191970" d="M708.994,-414.3733C676.7909,-404.9807 627.6558,-390.6496 592.5361,-380.4064"/>
<polygon fill="#191970" stroke="#191970" points="593.1553,-376.9412 582.5753,-377.5011 591.1953,-383.6612 593.1553,-376.9412"/>
</g>
<!-- Node34 -->
<g id="node35" class="node">
<title>Node34</title>
<g id="a_node35"><a xlink:href="../../df/d26/CRU_8h.html" target="_top" xlink:title="TPCBase/CRU.h">
<polygon fill="none" stroke="#000000" points="630,-358.5 630,-377.5 722,-377.5 722,-358.5 630,-358.5"/>
<text text-anchor="middle" x="676" y="-365.5" font-family="Helvetica,sans-Serif" font-size="10.00" fill="#000000">TPCBase/CRU.h</text>
</a>
</g>
</g>
<!-- Node33&#45;&gt;Node34 -->
<g id="edge46" class="edge">
<title>Node33&#45;&gt;Node34</title>
<path fill="none" stroke="#191970" d="M730.5037,-414.2455C720.7558,-405.9746 706.5741,-393.9416 695.1202,-384.2232"/>
<polygon fill="#191970" stroke="#191970" points="697.2541,-381.4437 687.3646,-377.6427 692.7253,-386.7813 697.2541,-381.4437"/>
</g>
<!-- Node34&#45;&gt;Node15 -->
<g id="edge47" class="edge">
<title>Node34&#45;&gt;Node15</title>
<path fill="none" stroke="#191970" d="M657.7167,-358.4509C644.8142,-350.5902 628.5359,-338.1269 621,-322 605.3234,-288.4518 616.0615,-244.099 624.5336,-219.1603"/>
<polygon fill="#191970" stroke="#191970" points="627.8276,-220.3433 627.9422,-209.7491 621.246,-217.9595 627.8276,-220.3433"/>
</g>
<!-- Node34&#45;&gt;Node30 -->
<g id="edge48" class="edge">
<title>Node34&#45;&gt;Node30</title>
<path fill="none" stroke="#191970" d="M652.704,-358.4151C634.2065,-350.2127 608.187,-337.3192 588,-322 569.5397,-307.9911 551.7822,-288.2326 540.0388,-273.9904"/>
<polygon fill="#191970" stroke="#191970" points="542.5501,-271.5287 533.5515,-265.9363 537.0986,-275.9197 542.5501,-271.5287"/>
</g>
<!-- Node34&#45;&gt;Node32 -->
<g id="edge49" class="edge">
<title>Node34&#45;&gt;Node32</title>
<path fill="none" stroke="#191970" d="M676,-358.2455C676,-350.9382 676,-340.6944 676,-331.7046"/>
<polygon fill="#191970" stroke="#191970" points="679.5001,-331.6426 676,-321.6427 672.5001,-331.6427 679.5001,-331.6426"/>
</g>
<!-- Node35&#45;&gt;Node27 -->
<g id="edge53" class="edge">
<title>Node35&#45;&gt;Node27</title>
<path fill="none" stroke="#191970" d="M1426,-246.4248C1426,-218.999 1426,-139.732 1426,-102.3964"/>
<polygon fill="#191970" stroke="#191970" points="1429.5001,-102.2595 1426,-92.2595 1422.5001,-102.2596 1429.5001,-102.2595"/>
</g>
<!-- Node36&#45;&gt;Node1 -->
<g id="edge55" class="edge">
<title>Node36&#45;&gt;Node1</title>
<path fill="none" stroke="#191970" d="M1032.3572,-414.4369C1122.0199,-402.2497 1273.3994,-381.6739 1340.3849,-372.569"/>
<polygon fill="#191970" stroke="#191970" points="1340.9512,-376.0243 1350.3887,-371.2093 1340.0083,-369.0881 1340.9512,-376.0243"/>
</g>
<!-- Node36&#45;&gt;Node15 -->
<g id="edge56" class="edge">
<title>Node36&#45;&gt;Node15</title>
<path fill="none" stroke="#191970" d="M976.6468,-414.381C993.6939,-401.9086 1018.1722,-379.2321 1007,-358 966.0692,-280.2138 924.6881,-280.8633 844,-246 801.0416,-227.4387 749.8407,-216.0588 708.519,-209.2616"/>
<polygon fill="#191970" stroke="#191970" points="708.9346,-205.7839 698.5095,-207.6723 707.8369,-212.6973 708.9346,-205.7839"/>
</g>
<!-- Node36&#45;&gt;Node28 -->
<g id="edge57" class="edge">
<title>Node36&#45;&gt;Node28</title>
<path fill="none" stroke="#191970" d="M972.1683,-414.3089C985.1459,-400.7531 1004.401,-375.7966 991,-358 979.0191,-342.0893 933.5652,-329.9777 894.1518,-322.1861"/>
<polygon fill="#191970" stroke="#191970" points="894.7652,-318.74 884.2856,-320.2986 893.4498,-325.6154 894.7652,-318.74"/>
</g>
</g>
</svg>
