<?xml version="1.0" encoding="UTF-8" standalone="no"?>
<!DOCTYPE svg PUBLIC "-//W3C//DTD SVG 1.1//EN"
 "http://www.w3.org/Graphics/SVG/1.1/DTD/svg11.dtd">
<!-- Generated by graphviz version 2.40.1 (20161225.0304)
 -->
<!-- Title: o2::its::FastMultEstConfig Pages: 1 -->
<!--zoomable 1081 -->
<svg id="main" version="1.1" xmlns="http://www.w3.org/2000/svg" xmlns:xlink="http://www.w3.org/1999/xlink" xml:space="preserve" onload="init(evt)">
<style type="text/css"><![CDATA[
.edge:hover path { stroke: red; }
.edge:hover polygon { stroke: red; fill: red; }
]]></style>
<script type="text/javascript"><![CDATA[
var edges = document.getElementsByTagName('g');
if (edges && edges.length) {
  for (var i=0;i<edges.length;i++) {
    if (edges[i].id.substr(0,4)=='edge') {
      edges[i].setAttribute('class','edge');
    }
  }
}
]]></script>
        <defs>
                <circle id="rim" cx="0" cy="0" r="7"/>
                <circle id="rim2" cx="0" cy="0" r="3.5"/>
                <g id="zoomPlus">
                        <use xlink:href="#rim" fill="#404040">
                                <set attributeName="fill" to="#808080" begin="zoomplus.mouseover" end="zoomplus.mouseout"/>
                        </use>
                        <path d="M-4,0h8M0,-4v8" fill="none" stroke="white" stroke-width="1.5" pointer-events="none"/>
                </g>
                <g id="zoomMin">
                        <use xlink:href="#rim" fill="#404040">
                                <set attributeName="fill" to="#808080" begin="zoomminus.mouseover" end="zoomminus.mouseout"/>
                        </use>
                        <path d="M-4,0h8" fill="none" stroke="white" stroke-width="1.5" pointer-events="none"/>
                </g>
                <g id="dirArrow">
                        <path fill="none" stroke="white" stroke-width="1.5" d="M0,-3.0v7 M-2.5,-0.5L0,-3.0L2.5,-0.5"/>
                </g>
               <g id="resetDef">
                       <use xlink:href="#rim2" fill="#404040">
                               <set attributeName="fill" to="#808080" begin="reset.mouseover" end="reset.mouseout"/>
                       </use>
               </g>
        </defs>

<script type="text/javascript">
var viewWidth = 389;
var viewHeight = 1081;
var sectionId = 'dynsection-1';
</script>
<script xlink:href="../../svgpan.js"/>
<svg id="graph" class="graph">
<g id="viewport">
<title>o2::its::FastMultEstConfig</title>
<!-- Node4 -->
<g id="node1" class="node">
<title>Node4</title>
<polygon fill="#bfbfbf" stroke="#000000" points="81.5,-.5 81.5,-57.5 220.5,-57.5 220.5,-.5 81.5,-.5"/>
<text text-anchor="middle" x="151" y="-45.5" font-family="Helvetica,sans-Serif" font-size="10.00" fill="#000000">o2::its::FastMultEstConfig</text>
<polyline fill="none" stroke="#000000" points="81.5,-38.5 220.5,-38.5 "/>
<text text-anchor="middle" x="151" y="-26.5" font-family="Helvetica,sans-Serif" font-size="10.00" fill="#000000"> </text>
<polyline fill="none" stroke="#000000" points="81.5,-19.5 220.5,-19.5 "/>
<text text-anchor="start" x="89.5" y="-7.5" font-family="Helvetica,sans-Serif" font-size="10.00" fill="#000000">+ O2ParamDef()</text>
</g>
<!-- Node5 -->
<g id="node2" class="node">
<title>Node5</title>
<g id="a_node2"><a xlink:href="../../d7/d50/classo2_1_1conf_1_1ConfigurableParamHelper.html" target="_top" xlink:title="{o2::conf::ConfigurableParam\lHelper\&lt; FastMultEstConfig \&gt;\n||+ getName()\l+ printKeyValues()\l+ output()\l+ getDataMembers()\l+ putKeyValues()\l+ initFrom()\l+ serializeTo()\l+ Instance()\l}">
<polygon fill="none" stroke="#000000" points="34,-160.5 34,-305.5 192,-305.5 192,-160.5 34,-160.5"/>
<text text-anchor="start" x="42" y="-293.5" font-family="Helvetica,sans-Serif" font-size="10.00" fill="#000000">o2::conf::ConfigurableParam</text>
<text text-anchor="middle" x="113" y="-282.5" font-family="Helvetica,sans-Serif" font-size="10.00" fill="#000000">Helper&lt; FastMultEstConfig &gt;</text>
<polyline fill="none" stroke="#000000" points="34,-275.5 192,-275.5 "/>
<text text-anchor="middle" x="113" y="-263.5" font-family="Helvetica,sans-Serif" font-size="10.00" fill="#000000"> </text>
<polyline fill="none" stroke="#000000" points="34,-256.5 192,-256.5 "/>
<text text-anchor="start" x="42" y="-244.5" font-family="Helvetica,sans-Serif" font-size="10.00" fill="#000000">+ getName()</text>
<text text-anchor="start" x="42" y="-233.5" font-family="Helvetica,sans-Serif" font-size="10.00" fill="#000000">+ printKeyValues()</text>
<text text-anchor="start" x="42" y="-222.5" font-family="Helvetica,sans-Serif" font-size="10.00" fill="#000000">+ output()</text>
<text text-anchor="start" x="42" y="-211.5" font-family="Helvetica,sans-Serif" font-size="10.00" fill="#000000">+ getDataMembers()</text>
<text text-anchor="start" x="42" y="-200.5" font-family="Helvetica,sans-Serif" font-size="10.00" fill="#000000">+ putKeyValues()</text>
<text text-anchor="start" x="42" y="-189.5" font-family="Helvetica,sans-Serif" font-size="10.00" fill="#000000">+ initFrom()</text>
<text text-anchor="start" x="42" y="-178.5" font-family="Helvetica,sans-Serif" font-size="10.00" fill="#000000">+ serializeTo()</text>
<text text-anchor="start" x="42" y="-167.5" font-family="Helvetica,sans-Serif" font-size="10.00" fill="#000000">+ Instance()</text>
</a>
</g>
</g>
<!-- Node5&#45;&gt;Node4 -->
<g id="edge1" class="edge">
<title>Node5&#45;&gt;Node4</title>
<path fill="none" stroke="#191970" d="M128.4386,-150.1189C134.5611,-117.2509 141.1953,-81.636 145.6739,-57.5927"/>
<polygon fill="none" stroke="#191970" points="124.9484,-149.7434 126.5579,-160.2153 131.8301,-151.0254 124.9484,-149.7434"/>
</g>
<!-- Node6 -->
<g id="node3" class="node">
<title>Node6</title>
<g id="a_node3"><a xlink:href="../../d6/d14/classo2_1_1conf_1_1ConfigurableParam.html" target="_top" xlink:title="{o2::conf::ConfigurableParam\n||+ getName()\l+ printKeyValues()\l+ toString()\l+ printAllRegisteredParamNames()\l+ printAllKeyValuePairs()\l+ readINI()\l+ readJSON()\l+ readConfigFile()\l+ writeJSON()\l+ writeINI()\l+ getValueAs()\l+ setValue()\l+ setValue()\l+ setEnumValue()\l+ setArrayValue()\l+ setValues()\l+ initialize()\l+ toCCDB()\l+ fromCCDB()\l+ updateFromString()\l+ updateFromFile()\l# ConfigurableParam()\l# ~ConfigurableParam()\l# putKeyValues()\l# output()\l# serializeTo()\l# initFrom()\l# setRegisterMode()\l# isInitialized()\l# initPropertyTree()\l# updateThroughStorageMap()\l# updateThroughStorageMapWith\lConversion()\l}">
<polygon fill="none" stroke="#000000" points="34,-536.5 34,-945.5 222,-945.5 222,-536.5 34,-536.5"/>
<text text-anchor="middle" x="128" y="-933.5" font-family="Helvetica,sans-Serif" font-size="10.00" fill="#000000">o2::conf::ConfigurableParam</text>
<polyline fill="none" stroke="#000000" points="34,-926.5 222,-926.5 "/>
<text text-anchor="middle" x="128" y="-914.5" font-family="Helvetica,sans-Serif" font-size="10.00" fill="#000000"> </text>
<polyline fill="none" stroke="#000000" points="34,-907.5 222,-907.5 "/>
<text text-anchor="start" x="42" y="-895.5" font-family="Helvetica,sans-Serif" font-size="10.00" fill="#000000">+ getName()</text>
<text text-anchor="start" x="42" y="-884.5" font-family="Helvetica,sans-Serif" font-size="10.00" fill="#000000">+ printKeyValues()</text>
<text text-anchor="start" x="42" y="-873.5" font-family="Helvetica,sans-Serif" font-size="10.00" fill="#000000">+ toString()</text>
<text text-anchor="start" x="42" y="-862.5" font-family="Helvetica,sans-Serif" font-size="10.00" fill="#000000">+ printAllRegisteredParamNames()</text>
<text text-anchor="start" x="42" y="-851.5" font-family="Helvetica,sans-Serif" font-size="10.00" fill="#000000">+ printAllKeyValuePairs()</text>
<text text-anchor="start" x="42" y="-840.5" font-family="Helvetica,sans-Serif" font-size="10.00" fill="#000000">+ readINI()</text>
<text text-anchor="start" x="42" y="-829.5" font-family="Helvetica,sans-Serif" font-size="10.00" fill="#000000">+ readJSON()</text>
<text text-anchor="start" x="42" y="-818.5" font-family="Helvetica,sans-Serif" font-size="10.00" fill="#000000">+ readConfigFile()</text>
<text text-anchor="start" x="42" y="-807.5" font-family="Helvetica,sans-Serif" font-size="10.00" fill="#000000">+ writeJSON()</text>
<text text-anchor="start" x="42" y="-796.5" font-family="Helvetica,sans-Serif" font-size="10.00" fill="#000000">+ writeINI()</text>
<text text-anchor="start" x="42" y="-785.5" font-family="Helvetica,sans-Serif" font-size="10.00" fill="#000000">+ getValueAs()</text>
<text text-anchor="start" x="42" y="-774.5" font-family="Helvetica,sans-Serif" font-size="10.00" fill="#000000">+ setValue()</text>
<text text-anchor="start" x="42" y="-763.5" font-family="Helvetica,sans-Serif" font-size="10.00" fill="#000000">+ setValue()</text>
<text text-anchor="start" x="42" y="-752.5" font-family="Helvetica,sans-Serif" font-size="10.00" fill="#000000">+ setEnumValue()</text>
<text text-anchor="start" x="42" y="-741.5" font-family="Helvetica,sans-Serif" font-size="10.00" fill="#000000">+ setArrayValue()</text>
<text text-anchor="start" x="42" y="-730.5" font-family="Helvetica,sans-Serif" font-size="10.00" fill="#000000">+ setValues()</text>
<text text-anchor="start" x="42" y="-719.5" font-family="Helvetica,sans-Serif" font-size="10.00" fill="#000000">+ initialize()</text>
<text text-anchor="start" x="42" y="-708.5" font-family="Helvetica,sans-Serif" font-size="10.00" fill="#000000">+ toCCDB()</text>
<text text-anchor="start" x="42" y="-697.5" font-family="Helvetica,sans-Serif" font-size="10.00" fill="#000000">+ fromCCDB()</text>
<text text-anchor="start" x="42" y="-686.5" font-family="Helvetica,sans-Serif" font-size="10.00" fill="#000000">+ updateFromString()</text>
<text text-anchor="start" x="42" y="-675.5" font-family="Helvetica,sans-Serif" font-size="10.00" fill="#000000">+ updateFromFile()</text>
<text text-anchor="start" x="42" y="-664.5" font-family="Helvetica,sans-Serif" font-size="10.00" fill="#000000"># ConfigurableParam()</text>
<text text-anchor="start" x="42" y="-653.5" font-family="Helvetica,sans-Serif" font-size="10.00" fill="#000000"># ~ConfigurableParam()</text>
<text text-anchor="start" x="42" y="-642.5" font-family="Helvetica,sans-Serif" font-size="10.00" fill="#000000"># putKeyValues()</text>
<text text-anchor="start" x="42" y="-631.5" font-family="Helvetica,sans-Serif" font-size="10.00" fill="#000000"># output()</text>
<text text-anchor="start" x="42" y="-620.5" font-family="Helvetica,sans-Serif" font-size="10.00" fill="#000000"># serializeTo()</text>
<text text-anchor="start" x="42" y="-609.5" font-family="Helvetica,sans-Serif" font-size="10.00" fill="#000000"># initFrom()</text>
<text text-anchor="start" x="42" y="-598.5" font-family="Helvetica,sans-Serif" font-size="10.00" fill="#000000"># setRegisterMode()</text>
<text text-anchor="start" x="42" y="-587.5" font-family="Helvetica,sans-Serif" font-size="10.00" fill="#000000"># isInitialized()</text>
<text text-anchor="start" x="42" y="-576.5" font-family="Helvetica,sans-Serif" font-size="10.00" fill="#000000"># initPropertyTree()</text>
<text text-anchor="start" x="42" y="-565.5" font-family="Helvetica,sans-Serif" font-size="10.00" fill="#000000"># updateThroughStorageMap()</text>
<text text-anchor="start" x="42" y="-554.5" font-family="Helvetica,sans-Serif" font-size="10.00" fill="#000000"># updateThroughStorageMapWith</text>
<text text-anchor="start" x="42" y="-543.5" font-family="Helvetica,sans-Serif" font-size="10.00" fill="#000000">Conversion()</text>
</a>
</g>
</g>
<!-- Node6&#45;&gt;Node5 -->
<g id="edge2" class="edge">
<title>Node6&#45;&gt;Node5</title>
<path fill="none" stroke="#191970" d="M113.9937,-526.3408C113.6125,-517.105 113.2774,-507.9605 113,-499 110.9742,-433.5704 111.1918,-359.0445 111.7895,-305.5562"/>
<polygon fill="none" stroke="#191970" points="110.4995,-526.5533 114.425,-536.3941 117.4931,-526.2532 110.4995,-526.5533"/>
</g>
<!-- Node8 -->
<g id="node5" class="node">
<title>Node8</title>
<g id="a_node5"><a xlink:href="../../d7/d50/classo2_1_1conf_1_1ConfigurableParamHelper.html" target="_top" xlink:title="{o2::conf::ConfigurableParam\lHelper\&lt; P \&gt;\n||+ getName()\l+ printKeyValues()\l+ output()\l+ getDataMembers()\l+ putKeyValues()\l+ initFrom()\l+ serializeTo()\l+ Instance()\l}">
<polygon fill="none" stroke="#000000" points="122,-353.5 122,-498.5 276,-498.5 276,-353.5 122,-353.5"/>
<text text-anchor="start" x="130" y="-486.5" font-family="Helvetica,sans-Serif" font-size="10.00" fill="#000000">o2::conf::ConfigurableParam</text>
<text text-anchor="middle" x="199" y="-475.5" font-family="Helvetica,sans-Serif" font-size="10.00" fill="#000000">Helper&lt; P &gt;</text>
<polyline fill="none" stroke="#000000" points="122,-468.5 276,-468.5 "/>
<text text-anchor="middle" x="199" y="-456.5" font-family="Helvetica,sans-Serif" font-size="10.00" fill="#000000"> </text>
<polyline fill="none" stroke="#000000" points="122,-449.5 276,-449.5 "/>
<text text-anchor="start" x="130" y="-437.5" font-family="Helvetica,sans-Serif" font-size="10.00" fill="#000000">+ getName()</text>
<text text-anchor="start" x="130" y="-426.5" font-family="Helvetica,sans-Serif" font-size="10.00" fill="#000000">+ printKeyValues()</text>
<text text-anchor="start" x="130" y="-415.5" font-family="Helvetica,sans-Serif" font-size="10.00" fill="#000000">+ output()</text>
<text text-anchor="start" x="130" y="-404.5" font-family="Helvetica,sans-Serif" font-size="10.00" fill="#000000">+ getDataMembers()</text>
<text text-anchor="start" x="130" y="-393.5" font-family="Helvetica,sans-Serif" font-size="10.00" fill="#000000">+ putKeyValues()</text>
<text text-anchor="start" x="130" y="-382.5" font-family="Helvetica,sans-Serif" font-size="10.00" fill="#000000">+ initFrom()</text>
<text text-anchor="start" x="130" y="-371.5" font-family="Helvetica,sans-Serif" font-size="10.00" fill="#000000">+ serializeTo()</text>
<text text-anchor="start" x="130" y="-360.5" font-family="Helvetica,sans-Serif" font-size="10.00" fill="#000000">+ Instance()</text>
</a>
</g>
</g>
<!-- Node6&#45;&gt;Node8 -->
<g id="edge5" class="edge">
<title>Node6&#45;&gt;Node8</title>
<path fill="none" stroke="#191970" d="M176.3705,-526.3986C178.5498,-516.7297 180.6543,-507.3928 182.6443,-498.5639"/>
<polygon fill="none" stroke="#191970" points="172.9522,-525.6468 174.1676,-536.1717 179.7809,-527.1861 172.9522,-525.6468"/>
</g>
<!-- Node7 -->
<g id="node4" class="node">
<title>Node7</title>
<polygon fill="none" stroke="#bfbfbf" points="0,-1015.5 0,-1072.5 44,-1072.5 44,-1015.5 0,-1015.5"/>
<text text-anchor="middle" x="22" y="-1060.5" font-family="Helvetica,sans-Serif" font-size="10.00" fill="#000000">static</text>
<polyline fill="none" stroke="#bfbfbf" points="0,-1053.5 44,-1053.5 "/>
<text text-anchor="middle" x="22" y="-1041.5" font-family="Helvetica,sans-Serif" font-size="10.00" fill="#000000"> </text>
<polyline fill="none" stroke="#bfbfbf" points="0,-1034.5 44,-1034.5 "/>
<text text-anchor="middle" x="22" y="-1022.5" font-family="Helvetica,sans-Serif" font-size="10.00" fill="#000000"> </text>
</g>
<!-- Node7&#45;&gt;Node4 -->
<g id="edge8" class="edge">
<title>Node7&#45;&gt;Node4</title>
<path fill="none" stroke="#404040" d="M19.4648,-1015.1999C14.9532,-961.3837 6,-841.8773 6,-741 6,-741 6,-741 6,-233 6,-199.4746 8.6253,-189.2544 25,-160 45.4049,-123.5454 78.403,-89.7605 105.512,-65.6337"/>
<polygon fill="none" stroke="#404040" points="105.78,-65.4001 107.6737,-58.4421 114.8249,-57.514 112.9311,-64.472 105.78,-65.4001"/>
<text text-anchor="middle" x="32" y="-423.5" font-family="Helvetica,sans-Serif" font-size="10.00" fill="#000000"> +NLayers</text>
</g>
<!-- Node7&#45;&gt;Node6 -->
<g id="edge3" class="edge">
<title>Node7&#45;&gt;Node6</title>
<path fill="none" stroke="#404040" d="M31.9722,-1015.4945C37.3313,-1000.1756 44.4745,-979.7568 52.4561,-956.9416"/>
<polygon fill="none" stroke="#404040" points="52.4749,-956.8877 50.6805,-949.9034 56.4375,-945.5608 58.2318,-952.5451 52.4749,-956.8877"/>
<text text-anchor="middle" x="107" y="-989" font-family="Helvetica,sans-Serif" font-size="10.00" fill="#000000"> #sEnumRegistry</text>
<text text-anchor="middle" x="107" y="-978" font-family="Helvetica,sans-Serif" font-size="10.00" fill="#000000">#sValueProvenanceMap</text>
<text text-anchor="middle" x="107" y="-967" font-family="Helvetica,sans-Serif" font-size="10.00" fill="#000000">#sKeyToStorageMap</text>
</g>
<!-- Node8&#45;&gt;Node5 -->
<g id="edge4" class="edge">
<title>Node8&#45;&gt;Node5</title>
<path fill="none" stroke="#ffa500" d="M162.4971,-344.0808C156.8034,-331.3031 150.9542,-318.1763 145.3612,-305.6245"/>
<polygon fill="#ffa500" stroke="#ffa500" points="159.3424,-345.6004 166.6096,-353.31 165.7364,-342.7512 159.3424,-345.6004"/>
<text text-anchor="middle" x="212" y="-327" font-family="Helvetica,sans-Serif" font-size="10.00" fill="#000000"> &lt; FastMultEstConfig &gt;</text>
</g>
<!-- Node9 -->
<g id="node6" class="node">
<title>Node9</title>
<g id="a_node6"><a xlink:href="../../d4/dc3/classfloat.html" target="_top" xlink:title="{float\n||}">
<polygon fill="none" stroke="#000000" points="210,-204.5 210,-261.5 248,-261.5 248,-204.5 210,-204.5"/>
<text text-anchor="middle" x="229" y="-249.5" font-family="Helvetica,sans-Serif" font-size="10.00" fill="#000000">float</text>
<polyline fill="none" stroke="#000000" points="210,-242.5 248,-242.5 "/>
<text text-anchor="middle" x="229" y="-230.5" font-family="Helvetica,sans-Serif" font-size="10.00" fill="#000000"> </text>
<polyline fill="none" stroke="#000000" points="210,-223.5 248,-223.5 "/>
<text text-anchor="middle" x="229" y="-211.5" font-family="Helvetica,sans-Serif" font-size="10.00" fill="#000000"> </text>
</a>
</g>
</g>
<!-- Node9&#45;&gt;Node4 -->
<g id="edge6" class="edge">
<title>Node9&#45;&gt;Node4</title>
<path fill="none" stroke="#404040" d="M219.6502,-204.2841C214.7686,-190.5682 208.2933,-174.1078 201,-160 196.5846,-151.459 193.2357,-150.6315 189,-142 177.6137,-118.7971 168.2939,-91.3432 161.7338,-69.3064"/>
<polygon fill="none" stroke="#404040" points="161.7065,-69.2116 156.1991,-64.5566 158.3777,-57.6825 163.8851,-62.3374 161.7065,-69.2116"/>
<text text-anchor="middle" x="244" y="-134" font-family="Helvetica,sans-Serif" font-size="10.00" fill="#000000"> +cutMultVtxHigh</text>
<text text-anchor="middle" x="244" y="-123" font-family="Helvetica,sans-Serif" font-size="10.00" fill="#000000">+cutMultVtxLow</text>
<text text-anchor="middle" x="244" y="-112" font-family="Helvetica,sans-Serif" font-size="10.00" fill="#000000">+cutMultClusLow</text>
<text text-anchor="middle" x="244" y="-101" font-family="Helvetica,sans-Serif" font-size="10.00" fill="#000000">+imposeNoisePerChip</text>
<text text-anchor="middle" x="244" y="-90" font-family="Helvetica,sans-Serif" font-size="10.00" fill="#000000">+accCorr</text>
<text text-anchor="middle" x="244" y="-79" font-family="Helvetica,sans-Serif" font-size="10.00" fill="#000000">+cutMultClusHigh</text>
</g>
<!-- Node10 -->
<g id="node7" class="node">
<title>Node10</title>
<polygon fill="none" stroke="#bfbfbf" points="306.5,-204.5 306.5,-261.5 335.5,-261.5 335.5,-204.5 306.5,-204.5"/>
<text text-anchor="middle" x="321" y="-249.5" font-family="Helvetica,sans-Serif" font-size="10.00" fill="#000000">int</text>
<polyline fill="none" stroke="#bfbfbf" points="306.5,-242.5 335.5,-242.5 "/>
<text text-anchor="middle" x="321" y="-230.5" font-family="Helvetica,sans-Serif" font-size="10.00" fill="#000000"> </text>
<polyline fill="none" stroke="#bfbfbf" points="306.5,-223.5 335.5,-223.5 "/>
<text text-anchor="middle" x="321" y="-211.5" font-family="Helvetica,sans-Serif" font-size="10.00" fill="#000000"> </text>
</g>
<!-- Node10&#45;&gt;Node4 -->
<g id="edge7" class="edge">
<title>Node10&#45;&gt;Node4</title>
<path fill="none" stroke="#404040" d="M325.3773,-204.4614C328.9805,-169.9295 329.3653,-111.9588 299,-76 289.5566,-64.817 261.4969,-54.6649 232.3126,-46.6811"/>
<polygon fill="none" stroke="#404040" points="232.2772,-46.6718 225.457,-49.0138 220.672,-43.619 227.4922,-41.277 232.2772,-46.6718"/>
<text text-anchor="middle" x="352.5" y="-112" font-family="Helvetica,sans-Serif" font-size="10.00" fill="#000000"> +lastLayer</text>
<text text-anchor="middle" x="352.5" y="-101" font-family="Helvetica,sans-Serif" font-size="10.00" fill="#000000">+firstLayer</text>
</g>
</g>
</svg>
        <g id="navigator" transform="translate(0 0)" fill="#404254">
                <rect fill="#f2f5e9" fill-opacity="0.5" stroke="#606060" stroke-width=".5" x="0" y="0" width="60" height="60"/>
                <use id="zoomplus" xlink:href="#zoomPlus" x="17" y="9" onmousedown="handleZoom(evt,'in')"/>
                <use id="zoomminus" xlink:href="#zoomMin" x="42" y="9" onmousedown="handleZoom(evt,'out')"/>
                <use id="reset" xlink:href="#resetDef" x="30" y="36" onmousedown="handleReset()"/>
                <g id="arrowUp" xlink:href="#dirArrow" transform="translate(30 24)" onmousedown="handlePan(0,-1)">
                  <use xlink:href="#rim" fill="#404040">
                        <set attributeName="fill" to="#808080" begin="arrowUp.mouseover" end="arrowUp.mouseout"/>
                  </use>
                  <path fill="none" stroke="white" stroke-width="1.5" d="M0,-3.0v7 M-2.5,-0.5L0,-3.0L2.5,-0.5"/>
                </g>
                <g id="arrowRight" xlink:href="#dirArrow" transform="rotate(90) translate(36 -43)" onmousedown="handlePan(1,0)">
                  <use xlink:href="#rim" fill="#404040">
                        <set attributeName="fill" to="#808080" begin="arrowRight.mouseover" end="arrowRight.mouseout"/>
                  </use>
                  <path fill="none" stroke="white" stroke-width="1.5" d="M0,-3.0v7 M-2.5,-0.5L0,-3.0L2.5,-0.5"/>
                </g>
                <g id="arrowDown" xlink:href="#dirArrow" transform="rotate(180) translate(-30 -48)" onmousedown="handlePan(0,1)">
                  <use xlink:href="#rim" fill="#404040">
                        <set attributeName="fill" to="#808080" begin="arrowDown.mouseover" end="arrowDown.mouseout"/>
                  </use>
                  <path fill="none" stroke="white" stroke-width="1.5" d="M0,-3.0v7 M-2.5,-0.5L0,-3.0L2.5,-0.5"/>
                </g>
                <g id="arrowLeft" xlink:href="#dirArrow" transform="rotate(270) translate(-36 17)" onmousedown="handlePan(-1,0)">
                  <use xlink:href="#rim" fill="#404040">
                        <set attributeName="fill" to="#808080" begin="arrowLeft.mouseover" end="arrowLeft.mouseout"/>
                  </use>
                  <path fill="none" stroke="white" stroke-width="1.5" d="M0,-3.0v7 M-2.5,-0.5L0,-3.0L2.5,-0.5"/>
                </g>
        </g>
        <svg viewBox="0 0 15 15" width="100%" height="30px" preserveAspectRatio="xMaxYMin meet">
         <g id="arrow_out" transform="scale(0.3 0.3)">
          <a xlink:href="structo2_1_1its_1_1FastMultEstConfig__coll__graph_org.svg" target="_base">
           <rect id="button" ry="5" rx="5" y="6" x="6" height="38" width="38"
                fill="#f2f5e9" fill-opacity="0.5" stroke="#606060" stroke-width="1.0"/>
           <path id="arrow"
             d="M 11.500037,31.436501 C 11.940474,20.09759 22.043105,11.32322 32.158766,21.979434 L 37.068811,17.246167 C 37.068811,17.246167 37.088388,32 37.088388,32 L 22.160133,31.978069 C 22.160133,31.978069 26.997745,27.140456 26.997745,27.140456 C 18.528582,18.264221 13.291696,25.230495 11.500037,31.436501 z"
             style="fill:#404040;"/>
          </a>
         </g>
        </svg>
</svg>
