<?xml version="1.0" encoding="UTF-8" standalone="no"?>
<!DOCTYPE svg PUBLIC "-//W3C//DTD SVG 1.1//EN"
 "http://www.w3.org/Graphics/SVG/1.1/DTD/svg11.dtd">
<!-- Generated by graphviz version 2.40.1 (20161225.0304)
 -->
<!-- Title: o2::soa::FilteredIndexPolicy Pages: 1 -->
<svg width="171pt" height="442pt"
 viewBox="0.00 0.00 171.00 442.00" xmlns="http://www.w3.org/2000/svg" xmlns:xlink="http://www.w3.org/1999/xlink">
<g id="graph0" class="graph" transform="scale(1 1) rotate(0) translate(4 438)">
<title>o2::soa::FilteredIndexPolicy</title>
<!-- Node2 -->
<g id="node1" class="node">
<title>Node2</title>
<polygon fill="#bfbfbf" stroke="#000000" points="0,-.5 0,-233.5 150,-233.5 150,-.5 0,-.5"/>
<text text-anchor="middle" x="75" y="-221.5" font-family="Helvetica,sans-Serif" font-size="10.00" fill="#000000">o2::soa::FilteredIndexPolicy</text>
<polyline fill="none" stroke="#000000" points="0,-214.5 150,-214.5 "/>
<text text-anchor="middle" x="75" y="-202.5" font-family="Helvetica,sans-Serif" font-size="10.00" fill="#000000"> </text>
<polyline fill="none" stroke="#000000" points="0,-195.5 150,-195.5 "/>
<text text-anchor="start" x="8" y="-183.5" font-family="Helvetica,sans-Serif" font-size="10.00" fill="#000000">+ FilteredIndexPolicy()</text>
<text text-anchor="start" x="8" y="-172.5" font-family="Helvetica,sans-Serif" font-size="10.00" fill="#000000">+ FilteredIndexPolicy()</text>
<text text-anchor="start" x="8" y="-161.5" font-family="Helvetica,sans-Serif" font-size="10.00" fill="#000000">+ FilteredIndexPolicy()</text>
<text text-anchor="start" x="8" y="-150.5" font-family="Helvetica,sans-Serif" font-size="10.00" fill="#000000">+ FilteredIndexPolicy()</text>
<text text-anchor="start" x="8" y="-139.5" font-family="Helvetica,sans-Serif" font-size="10.00" fill="#000000">+ operator=()</text>
<text text-anchor="start" x="8" y="-128.5" font-family="Helvetica,sans-Serif" font-size="10.00" fill="#000000">+ operator=()</text>
<text text-anchor="start" x="8" y="-117.5" font-family="Helvetica,sans-Serif" font-size="10.00" fill="#000000">+ getIndices()</text>
<text text-anchor="start" x="8" y="-106.5" font-family="Helvetica,sans-Serif" font-size="10.00" fill="#000000">+ getOffsets()</text>
<text text-anchor="start" x="8" y="-95.5" font-family="Helvetica,sans-Serif" font-size="10.00" fill="#000000">+ limitRange()</text>
<text text-anchor="start" x="8" y="-84.5" font-family="Helvetica,sans-Serif" font-size="10.00" fill="#000000">+ setCursor()</text>
<text text-anchor="start" x="8" y="-73.5" font-family="Helvetica,sans-Serif" font-size="10.00" fill="#000000">+ moveByIndex()</text>
<text text-anchor="start" x="8" y="-62.5" font-family="Helvetica,sans-Serif" font-size="10.00" fill="#000000">+ operator!=()</text>
<text text-anchor="start" x="8" y="-51.5" font-family="Helvetica,sans-Serif" font-size="10.00" fill="#000000">+ operator==()</text>
<text text-anchor="start" x="8" y="-40.5" font-family="Helvetica,sans-Serif" font-size="10.00" fill="#000000">+ operator!=()</text>
<text text-anchor="start" x="8" y="-29.5" font-family="Helvetica,sans-Serif" font-size="10.00" fill="#000000">+ operator==()</text>
<text text-anchor="start" x="8" y="-18.5" font-family="Helvetica,sans-Serif" font-size="10.00" fill="#000000">+ moveToEnd()</text>
<text text-anchor="start" x="8" y="-7.5" font-family="Helvetica,sans-Serif" font-size="10.00" fill="#000000">+ getSelectionRow()</text>
</g>
<!-- Node3 -->
<g id="node2" class="node">
<title>Node3</title>
<g id="a_node2"><a xlink:href="../../d9/d4f/structo2_1_1soa_1_1IndexPolicyBase.html" target="_top" xlink:title="{o2::soa::IndexPolicyBase\n||}">
<polygon fill="none" stroke="#000000" points="6,-271.5 6,-328.5 144,-328.5 144,-271.5 6,-271.5"/>
<text text-anchor="middle" x="75" y="-316.5" font-family="Helvetica,sans-Serif" font-size="10.00" fill="#000000">o2::soa::IndexPolicyBase</text>
<polyline fill="none" stroke="#000000" points="6,-309.5 144,-309.5 "/>
<text text-anchor="middle" x="75" y="-297.5" font-family="Helvetica,sans-Serif" font-size="10.00" fill="#000000"> </text>
<polyline fill="none" stroke="#000000" points="6,-290.5 144,-290.5 "/>
<text text-anchor="middle" x="75" y="-278.5" font-family="Helvetica,sans-Serif" font-size="10.00" fill="#000000"> </text>
</a>
</g>
</g>
<!-- Node3&#45;&gt;Node2 -->
<g id="edge1" class="edge">
<title>Node3&#45;&gt;Node2</title>
<path fill="none" stroke="#191970" d="M75,-261.2691C75,-252.855 75,-243.5365 75,-233.8035"/>
<polygon fill="none" stroke="#191970" points="71.5001,-261.4062 75,-271.4063 78.5001,-261.4063 71.5001,-261.4062"/>
</g>
<!-- Node4 -->
<g id="node3" class="node">
<title>Node4</title>
<g id="a_node3"><a xlink:href="../../d6/d30/classuint64__t.html" target="_top" xlink:title="{uint64_t\n||}">
<polygon fill="none" stroke="#000000" points="10,-376.5 10,-433.5 66,-433.5 66,-376.5 10,-376.5"/>
<text text-anchor="middle" x="38" y="-421.5" font-family="Helvetica,sans-Serif" font-size="10.00" fill="#000000">uint64_t</text>
<polyline fill="none" stroke="#000000" points="10,-414.5 66,-414.5 "/>
<text text-anchor="middle" x="38" y="-402.5" font-family="Helvetica,sans-Serif" font-size="10.00" fill="#000000"> </text>
<polyline fill="none" stroke="#000000" points="10,-395.5 66,-395.5 "/>
<text text-anchor="middle" x="38" y="-383.5" font-family="Helvetica,sans-Serif" font-size="10.00" fill="#000000"> </text>
</a>
</g>
</g>
<!-- Node4&#45;&gt;Node3 -->
<g id="edge2" class="edge">
<title>Node4&#45;&gt;Node3</title>
<path fill="none" stroke="#404040" d="M34.9566,-376.3459C34.8619,-366.7854 35.7843,-356.2244 39,-347 39.9421,-344.2976 41.1051,-341.6271 42.4298,-339.0135"/>
<polygon fill="none" stroke="#404040" points="42.4689,-338.9482 42.1203,-331.7455 48.6349,-328.6535 48.9835,-335.8562 42.4689,-338.9482"/>
<text text-anchor="middle" x="64.5" y="-350" font-family="Helvetica,sans-Serif" font-size="10.00" fill="#000000"> +mOffset</text>
</g>
<!-- Node5 -->
<g id="node4" class="node">
<title>Node5</title>
<polygon fill="none" stroke="#bfbfbf" points="87,-376.5 87,-433.5 137,-433.5 137,-376.5 87,-376.5"/>
<text text-anchor="middle" x="112" y="-421.5" font-family="Helvetica,sans-Serif" font-size="10.00" fill="#000000">int64_t</text>
<polyline fill="none" stroke="#bfbfbf" points="87,-414.5 137,-414.5 "/>
<text text-anchor="middle" x="112" y="-402.5" font-family="Helvetica,sans-Serif" font-size="10.00" fill="#000000"> </text>
<polyline fill="none" stroke="#bfbfbf" points="87,-395.5 137,-395.5 "/>
<text text-anchor="middle" x="112" y="-383.5" font-family="Helvetica,sans-Serif" font-size="10.00" fill="#000000"> </text>
</g>
<!-- Node5&#45;&gt;Node3 -->
<g id="edge3" class="edge">
<title>Node5&#45;&gt;Node3</title>
<path fill="none" stroke="#404040" d="M101.8896,-376.3083C97.974,-365.1966 93.4223,-352.2796 89.1894,-340.2673"/>
<polygon fill="none" stroke="#404040" points="89.0865,-339.9749 83.3197,-335.6454 85.0982,-328.657 90.8649,-332.9865 89.0865,-339.9749"/>
<text text-anchor="middle" x="128.5" y="-350" font-family="Helvetica,sans-Serif" font-size="10.00" fill="#000000"> +mRowIndex</text>
</g>
</g>
</svg>
