<?xml version="1.0" encoding="UTF-8" standalone="no"?>
<!DOCTYPE svg PUBLIC "-//W3C//DTD SVG 1.1//EN"
 "http://www.w3.org/Graphics/SVG/1.1/DTD/svg11.dtd">
<!-- Generated by graphviz version 2.40.1 (20161225.0304)
 -->
<!-- Title: /home/travis/build/AliceO2Group/AliceO2/Detectors/PHOS/calib/src/CalibParams.cxx Pages: 1 -->
<svg width="551pt" height="173pt"
 viewBox="0.00 0.00 551.00 173.00" xmlns="http://www.w3.org/2000/svg" xmlns:xlink="http://www.w3.org/1999/xlink">
<g id="graph0" class="graph" transform="scale(1 1) rotate(0) translate(4 169)">
<title>/home/travis/build/AliceO2Group/AliceO2/Detectors/PHOS/calib/src/CalibParams.cxx</title>
<!-- Node0 -->
<g id="node1" class="node">
<title>Node0</title>
<polygon fill="#bfbfbf" stroke="#000000" points="300.5,-112.5 300.5,-164.5 427.5,-164.5 427.5,-112.5 300.5,-112.5"/>
<text text-anchor="start" x="308.5" y="-152.5" font-family="Helvetica,sans-Serif" font-size="10.00" fill="#000000">/home/travis/build</text>
<text text-anchor="start" x="308.5" y="-141.5" font-family="Helvetica,sans-Serif" font-size="10.00" fill="#000000">/AliceO2Group/AliceO2</text>
<text text-anchor="start" x="308.5" y="-130.5" font-family="Helvetica,sans-Serif" font-size="10.00" fill="#000000">/Detectors/PHOS/calib</text>
<text text-anchor="middle" x="364" y="-119.5" font-family="Helvetica,sans-Serif" font-size="10.00" fill="#000000">/src/CalibParams.cxx</text>
</g>
<!-- Node1 -->
<g id="node2" class="node">
<title>Node1</title>
<g id="a_node2"><a xlink:href="../../d2/d37/PHOS_2calib_2include_2PHOSCalib_2CalibParams_8h.html" target="_top" xlink:title="PHOSCalib/CalibParams.h">
<polygon fill="none" stroke="#000000" points="21.5,-56.5 21.5,-75.5 162.5,-75.5 162.5,-56.5 21.5,-56.5"/>
<text text-anchor="middle" x="92" y="-63.5" font-family="Helvetica,sans-Serif" font-size="10.00" fill="#000000">PHOSCalib/CalibParams.h</text>
</a>
</g>
</g>
<!-- Node0&#45;&gt;Node1 -->
<g id="edge1" class="edge">
<title>Node0&#45;&gt;Node1</title>
<path fill="none" stroke="#191970" d="M300.2281,-121.502C250.3026,-108.1946 182.0829,-90.0111 137.544,-78.1395"/>
<polygon fill="#191970" stroke="#191970" points="138.4271,-74.7527 127.863,-75.5591 136.6242,-81.5166 138.4271,-74.7527"/>
</g>
<!-- Node4 -->
<g id="node5" class="node">
<title>Node4</title>
<g id="a_node5"><a xlink:href="../../d7/d7f/PHOS_2base_2include_2PHOSBase_2Geometry_8h.html" target="_top" xlink:title="PHOSBase/Geometry.h">
<polygon fill="none" stroke="#000000" points="181.5,-56.5 181.5,-75.5 308.5,-75.5 308.5,-56.5 181.5,-56.5"/>
<text text-anchor="middle" x="245" y="-63.5" font-family="Helvetica,sans-Serif" font-size="10.00" fill="#000000">PHOSBase/Geometry.h</text>
</a>
</g>
</g>
<!-- Node0&#45;&gt;Node4 -->
<g id="edge4" class="edge">
<title>Node0&#45;&gt;Node4</title>
<path fill="none" stroke="#191970" d="M321.0383,-112.3258C303.6166,-101.7118 284.14,-89.8458 269.2602,-80.7804"/>
<polygon fill="#191970" stroke="#191970" points="271.0099,-77.748 260.6489,-75.534 267.3678,-83.7259 271.0099,-77.748"/>
</g>
<!-- Node8 -->
<g id="node9" class="node">
<title>Node8</title>
<polygon fill="none" stroke="#bfbfbf" points="326.5,-56.5 326.5,-75.5 401.5,-75.5 401.5,-56.5 326.5,-56.5"/>
<text text-anchor="middle" x="364" y="-63.5" font-family="Helvetica,sans-Serif" font-size="10.00" fill="#000000">FairLogger.h</text>
</g>
<!-- Node0&#45;&gt;Node8 -->
<g id="edge8" class="edge">
<title>Node0&#45;&gt;Node8</title>
<path fill="none" stroke="#191970" d="M364,-112.3258C364,-103.5142 364,-93.8397 364,-85.621"/>
<polygon fill="#191970" stroke="#191970" points="367.5001,-85.534 364,-75.534 360.5001,-85.534 367.5001,-85.534"/>
</g>
<!-- Node9 -->
<g id="node10" class="node">
<title>Node9</title>
<polygon fill="none" stroke="#bfbfbf" points="419.5,-56.5 419.5,-75.5 464.5,-75.5 464.5,-56.5 419.5,-56.5"/>
<text text-anchor="middle" x="442" y="-63.5" font-family="Helvetica,sans-Serif" font-size="10.00" fill="#000000">TH2.h</text>
</g>
<!-- Node0&#45;&gt;Node9 -->
<g id="edge9" class="edge">
<title>Node0&#45;&gt;Node9</title>
<path fill="none" stroke="#191970" d="M392.1598,-112.3258C402.9327,-102.3126 414.9043,-91.1851 424.414,-82.346"/>
<polygon fill="#191970" stroke="#191970" points="426.801,-84.9058 431.7427,-75.534 422.0353,-79.7785 426.801,-84.9058"/>
</g>
<!-- Node10 -->
<g id="node11" class="node">
<title>Node10</title>
<polygon fill="none" stroke="#bfbfbf" points="483,-56.5 483,-75.5 543,-75.5 543,-56.5 483,-56.5"/>
<text text-anchor="middle" x="513" y="-63.5" font-family="Helvetica,sans-Serif" font-size="10.00" fill="#000000">iostream</text>
</g>
<!-- Node0&#45;&gt;Node10 -->
<g id="edge10" class="edge">
<title>Node0&#45;&gt;Node10</title>
<path fill="none" stroke="#191970" d="M417.7924,-112.3258C440.2235,-101.4114 465.3752,-89.1731 484.1916,-80.0175"/>
<polygon fill="#191970" stroke="#191970" points="485.9453,-83.0566 493.406,-75.534 482.8826,-76.7622 485.9453,-83.0566"/>
</g>
<!-- Node2 -->
<g id="node3" class="node">
<title>Node2</title>
<polygon fill="none" stroke="#bfbfbf" points="0,-.5 0,-19.5 42,-19.5 42,-.5 0,-.5"/>
<text text-anchor="middle" x="21" y="-7.5" font-family="Helvetica,sans-Serif" font-size="10.00" fill="#000000">array</text>
</g>
<!-- Node1&#45;&gt;Node2 -->
<g id="edge2" class="edge">
<title>Node1&#45;&gt;Node2</title>
<path fill="none" stroke="#191970" d="M79.6327,-56.2455C69.0446,-47.8943 53.5936,-35.7076 41.2107,-25.9408"/>
<polygon fill="#191970" stroke="#191970" points="43.2447,-23.0875 33.2255,-19.6427 38.9097,-28.5837 43.2447,-23.0875"/>
</g>
<!-- Node3 -->
<g id="node4" class="node">
<title>Node3</title>
<polygon fill="none" stroke="#bfbfbf" points="60.5,-.5 60.5,-19.5 123.5,-19.5 123.5,-.5 60.5,-.5"/>
<text text-anchor="middle" x="92" y="-7.5" font-family="Helvetica,sans-Serif" font-size="10.00" fill="#000000">TObject.h</text>
</g>
<!-- Node1&#45;&gt;Node3 -->
<g id="edge3" class="edge">
<title>Node1&#45;&gt;Node3</title>
<path fill="none" stroke="#191970" d="M92,-56.2455C92,-48.9382 92,-38.6944 92,-29.7046"/>
<polygon fill="#191970" stroke="#191970" points="95.5001,-29.6426 92,-19.6427 88.5001,-29.6427 95.5001,-29.6426"/>
</g>
<!-- Node5 -->
<g id="node6" class="node">
<title>Node5</title>
<polygon fill="none" stroke="#bfbfbf" points="142,-.5 142,-19.5 186,-19.5 186,-.5 142,-.5"/>
<text text-anchor="middle" x="164" y="-7.5" font-family="Helvetica,sans-Serif" font-size="10.00" fill="#000000">string</text>
</g>
<!-- Node4&#45;&gt;Node5 -->
<g id="edge5" class="edge">
<title>Node4&#45;&gt;Node5</title>
<path fill="none" stroke="#191970" d="M230.8909,-56.2455C218.5791,-47.7337 200.5042,-35.2375 186.2462,-25.3801"/>
<polygon fill="#191970" stroke="#191970" points="188.1634,-22.4506 177.9474,-19.6427 184.1826,-28.2085 188.1634,-22.4506"/>
</g>
<!-- Node6 -->
<g id="node7" class="node">
<title>Node6</title>
<polygon fill="none" stroke="#bfbfbf" points="204,-.5 204,-19.5 288,-19.5 288,-.5 204,-.5"/>
<text text-anchor="middle" x="246" y="-7.5" font-family="Helvetica,sans-Serif" font-size="10.00" fill="#000000">RStringView.h</text>
</g>
<!-- Node4&#45;&gt;Node6 -->
<g id="edge6" class="edge">
<title>Node4&#45;&gt;Node6</title>
<path fill="none" stroke="#191970" d="M245.1742,-56.2455C245.3047,-48.9382 245.4876,-38.6944 245.6481,-29.7046"/>
<polygon fill="#191970" stroke="#191970" points="249.1486,-29.7036 245.8278,-19.6427 242.1497,-29.5786 249.1486,-29.7036"/>
</g>
<!-- Node7 -->
<g id="node8" class="node">
<title>Node7</title>
<polygon fill="none" stroke="#bfbfbf" points="306,-.5 306,-19.5 362,-19.5 362,-.5 306,-.5"/>
<text text-anchor="middle" x="334" y="-7.5" font-family="Helvetica,sans-Serif" font-size="10.00" fill="#000000">TMath.h</text>
</g>
<!-- Node4&#45;&gt;Node7 -->
<g id="edge7" class="edge">
<title>Node4&#45;&gt;Node7</title>
<path fill="none" stroke="#191970" d="M260.5026,-56.2455C274.158,-47.6534 294.2657,-35.0014 309.9989,-25.1018"/>
<polygon fill="#191970" stroke="#191970" points="312.0751,-27.9307 318.675,-19.6427 308.3471,-22.006 312.0751,-27.9307"/>
</g>
</g>
</svg>
