<?xml version="1.0" encoding="UTF-8" standalone="no"?>
<!DOCTYPE svg PUBLIC "-//W3C//DTD SVG 1.1//EN"
 "http://www.w3.org/Graphics/SVG/1.1/DTD/svg11.dtd">
<!-- Generated by graphviz version 2.40.1 (20161225.0304)
 -->
<!-- Title: /home/travis/build/AliceO2Group/AliceO2/Detectors/ZDC/simulation/include/ZDCSimulation/Digitizer.h Pages: 1 -->
<svg width="2669pt" height="374pt"
 viewBox="0.00 0.00 2669.00 374.00" xmlns="http://www.w3.org/2000/svg" xmlns:xlink="http://www.w3.org/1999/xlink">
<g id="graph0" class="graph" transform="scale(1 1) rotate(0) translate(4 370)">
<title>/home/travis/build/AliceO2Group/AliceO2/Detectors/ZDC/simulation/include/ZDCSimulation/Digitizer.h</title>
<!-- Node0 -->
<g id="node1" class="node">
<title>Node0</title>
<polygon fill="#bfbfbf" stroke="#000000" points="1776.5,-313.5 1776.5,-365.5 1960.5,-365.5 1960.5,-313.5 1776.5,-313.5"/>
<text text-anchor="start" x="1784.5" y="-353.5" font-family="Helvetica,sans-Serif" font-size="10.00" fill="#000000">/home/travis/build</text>
<text text-anchor="start" x="1784.5" y="-342.5" font-family="Helvetica,sans-Serif" font-size="10.00" fill="#000000">/AliceO2Group/AliceO2</text>
<text text-anchor="start" x="1784.5" y="-331.5" font-family="Helvetica,sans-Serif" font-size="10.00" fill="#000000">/Detectors/ZDC/simulation</text>
<text text-anchor="middle" x="1868.5" y="-320.5" font-family="Helvetica,sans-Serif" font-size="10.00" fill="#000000">/include/ZDCSimulation/Digitizer.h</text>
</g>
<!-- Node1 -->
<g id="node2" class="node">
<title>Node1</title>
<g id="a_node2"><a xlink:href="../../dd/de7/Detectors_2ZDC_2simulation_2include_2ZDCSimulation_2Hit_8h.html" target="_top" xlink:title="ZDCSimulation/Hit.h">
<polygon fill="none" stroke="#000000" points="946.5,-257.5 946.5,-276.5 1062.5,-276.5 1062.5,-257.5 946.5,-257.5"/>
<text text-anchor="middle" x="1004.5" y="-264.5" font-family="Helvetica,sans-Serif" font-size="10.00" fill="#000000">ZDCSimulation/Hit.h</text>
</a>
</g>
</g>
<!-- Node0&#45;&gt;Node1 -->
<g id="edge1" class="edge">
<title>Node0&#45;&gt;Node1</title>
<path fill="none" stroke="#191970" d="M1776.4954,-332.1109C1634.4402,-320.6486 1353.1533,-297.7387 1114.5,-277 1101.1033,-275.8358 1086.7922,-274.5591 1073.0727,-273.3189"/>
<polygon fill="#191970" stroke="#191970" points="1072.997,-269.7977 1062.7217,-272.38 1072.3646,-276.7691 1072.997,-269.7977"/>
</g>
<!-- Node22 -->
<g id="node23" class="node">
<title>Node22</title>
<g id="a_node23"><a xlink:href="../../d7/d7a/Detectors_2ZDC_2simulation_2include_2ZDCSimulation_2MCLabel_8h.html" target="_top" xlink:title="ZDCSimulation/MCLabel.h">
<polygon fill="none" stroke="#000000" points="2077,-257.5 2077,-276.5 2220,-276.5 2220,-257.5 2077,-257.5"/>
<text text-anchor="middle" x="2148.5" y="-264.5" font-family="Helvetica,sans-Serif" font-size="10.00" fill="#000000">ZDCSimulation/MCLabel.h</text>
</a>
</g>
</g>
<!-- Node0&#45;&gt;Node22 -->
<g id="edge22" class="edge">
<title>Node0&#45;&gt;Node22</title>
<path fill="none" stroke="#191970" d="M1960.5703,-315.6604C2007.831,-303.4232 2063.379,-289.0403 2101.7661,-279.1008"/>
<polygon fill="#191970" stroke="#191970" points="2102.8244,-282.4422 2111.6278,-276.5473 2101.0697,-275.6657 2102.8244,-282.4422"/>
</g>
<!-- Node25 -->
<g id="node26" class="node">
<title>Node25</title>
<g id="a_node26"><a xlink:href="../../d4/d8c/ModuleConfig_8h.html" target="_top" xlink:title="ZDCBase/ModuleConfig.h">
<polygon fill="none" stroke="#000000" points="1167.5,-257.5 1167.5,-276.5 1307.5,-276.5 1307.5,-257.5 1167.5,-257.5"/>
<text text-anchor="middle" x="1237.5" y="-264.5" font-family="Helvetica,sans-Serif" font-size="10.00" fill="#000000">ZDCBase/ModuleConfig.h</text>
</a>
</g>
</g>
<!-- Node0&#45;&gt;Node25 -->
<g id="edge26" class="edge">
<title>Node0&#45;&gt;Node25</title>
<path fill="none" stroke="#191970" d="M1776.4095,-328.9191C1652.7655,-314.7128 1435.1021,-289.7039 1317.7983,-276.226"/>
<polygon fill="#191970" stroke="#191970" points="1318.1363,-272.7419 1307.8021,-275.0775 1317.3372,-279.6962 1318.1363,-272.7419"/>
</g>
<!-- Node32 -->
<g id="node33" class="node">
<title>Node32</title>
<polygon fill="none" stroke="#bfbfbf" points="1086.5,-196 1086.5,-215 1128.5,-215 1128.5,-196 1086.5,-196"/>
<text text-anchor="middle" x="1107.5" y="-203" font-family="Helvetica,sans-Serif" font-size="10.00" fill="#000000">array</text>
</g>
<!-- Node0&#45;&gt;Node32 -->
<g id="edge63" class="edge">
<title>Node0&#45;&gt;Node32</title>
<path fill="none" stroke="#191970" d="M1776.3862,-335.6775C1596.3946,-327.5882 1210.9319,-306.986 1158.5,-277 1138.0032,-265.2778 1123.6419,-241.5737 1115.4935,-224.6734"/>
<polygon fill="#191970" stroke="#191970" points="1118.523,-222.8769 1111.2235,-215.1978 1112.141,-225.7528 1118.523,-222.8769"/>
</g>
<!-- Node33 -->
<g id="node34" class="node">
<title>Node33</title>
<g id="a_node34"><a xlink:href="../../d5/df4/ZDC_2include_2DataFormatsZDC_2ChannelData_8h.html" target="_top" xlink:title="DataFormatsZDC/ChannelData.h">
<polygon fill="none" stroke="#000000" points="1366.5,-257.5 1366.5,-276.5 1542.5,-276.5 1542.5,-257.5 1366.5,-257.5"/>
<text text-anchor="middle" x="1454.5" y="-264.5" font-family="Helvetica,sans-Serif" font-size="10.00" fill="#000000">DataFormatsZDC/ChannelData.h</text>
</a>
</g>
</g>
<!-- Node0&#45;&gt;Node33 -->
<g id="edge35" class="edge">
<title>Node0&#45;&gt;Node33</title>
<path fill="none" stroke="#191970" d="M1776.3629,-323.3649C1698.1282,-309.6644 1587.8632,-290.3547 1518.8271,-278.265"/>
<polygon fill="#191970" stroke="#191970" points="1519.4032,-274.8127 1508.9493,-276.5352 1518.1956,-281.7078 1519.4032,-274.8127"/>
</g>
<!-- Node34 -->
<g id="node35" class="node">
<title>Node34</title>
<g id="a_node35"><a xlink:href="../../dd/d40/ZDC_2include_2DataFormatsZDC_2BCData_8h.html" target="_top" xlink:title="DataFormatsZDC/BCData.h">
<polygon fill="none" stroke="#000000" points="1794,-257.5 1794,-276.5 1943,-276.5 1943,-257.5 1794,-257.5"/>
<text text-anchor="middle" x="1868.5" y="-264.5" font-family="Helvetica,sans-Serif" font-size="10.00" fill="#000000">DataFormatsZDC/BCData.h</text>
</a>
</g>
</g>
<!-- Node0&#45;&gt;Node34 -->
<g id="edge39" class="edge">
<title>Node0&#45;&gt;Node34</title>
<path fill="none" stroke="#191970" d="M1868.5,-313.3258C1868.5,-304.5142 1868.5,-294.8397 1868.5,-286.621"/>
<polygon fill="#191970" stroke="#191970" points="1872.0001,-286.534 1868.5,-276.534 1865.0001,-286.534 1872.0001,-286.534"/>
</g>
<!-- Node35 -->
<g id="node36" class="node">
<title>Node35</title>
<g id="a_node36"><a xlink:href="../../d9/d80/InteractionRecord_8h.html" target="_top" xlink:title="CommonDataFormat/Interaction\lRecord.h">
<polygon fill="none" stroke="#000000" points="1666.5,-190.5 1666.5,-220.5 1840.5,-220.5 1840.5,-190.5 1666.5,-190.5"/>
<text text-anchor="start" x="1674.5" y="-208.5" font-family="Helvetica,sans-Serif" font-size="10.00" fill="#000000">CommonDataFormat/Interaction</text>
<text text-anchor="middle" x="1753.5" y="-197.5" font-family="Helvetica,sans-Serif" font-size="10.00" fill="#000000">Record.h</text>
</a>
</g>
</g>
<!-- Node0&#45;&gt;Node35 -->
<g id="edge61" class="edge">
<title>Node0&#45;&gt;Node35</title>
<path fill="none" stroke="#191970" d="M1825.2708,-313.26C1811.2664,-303.2206 1796.5203,-290.822 1785.5,-277 1774.5162,-263.2237 1766.454,-245.0792 1761.1695,-230.516"/>
<polygon fill="#191970" stroke="#191970" points="1764.3489,-228.9949 1757.8104,-220.6583 1757.723,-231.2528 1764.3489,-228.9949"/>
</g>
<!-- Node40 -->
<g id="node41" class="node">
<title>Node40</title>
<g id="a_node41"><a xlink:href="../../db/d14/MCTruthContainer_8h.html" target="_top" xlink:title="Definition of a container to keep Monte Carlo truth external to simulation objects. ">
<polygon fill="none" stroke="#000000" points="2345,-190.5 2345,-220.5 2472,-220.5 2472,-190.5 2345,-190.5"/>
<text text-anchor="start" x="2353" y="-208.5" font-family="Helvetica,sans-Serif" font-size="10.00" fill="#000000">SimulationDataFormat</text>
<text text-anchor="middle" x="2408.5" y="-197.5" font-family="Helvetica,sans-Serif" font-size="10.00" fill="#000000">/MCTruthContainer.h</text>
</a>
</g>
</g>
<!-- Node0&#45;&gt;Node40 -->
<g id="edge51" class="edge">
<title>Node0&#45;&gt;Node40</title>
<path fill="none" stroke="#191970" d="M1960.5506,-328.9516C2034.2137,-319.2275 2139.684,-302.412 2229.5,-277 2278.1236,-263.2427 2331.6661,-240.8374 2367.4062,-224.7733"/>
<polygon fill="#191970" stroke="#191970" points="2368.8829,-227.9467 2376.5449,-220.6293 2365.9921,-221.5715 2368.8829,-227.9467"/>
</g>
<!-- Node45 -->
<g id="node46" class="node">
<title>Node45</title>
<polygon fill="none" stroke="#bfbfbf" points="2614,-134.5 2614,-153.5 2661,-153.5 2661,-134.5 2614,-134.5"/>
<text text-anchor="middle" x="2637.5" y="-141.5" font-family="Helvetica,sans-Serif" font-size="10.00" fill="#000000">vector</text>
</g>
<!-- Node0&#45;&gt;Node45 -->
<g id="edge62" class="edge">
<title>Node0&#45;&gt;Node45</title>
<path fill="none" stroke="#191970" d="M1960.6947,-331.4037C2082.9742,-318.5007 2304.0282,-287.5911 2481.5,-221 2528.9602,-203.1919 2581.2422,-175.6377 2611.624,-158.771"/>
<polygon fill="#191970" stroke="#191970" points="2613.6704,-161.6365 2620.6848,-153.6963 2610.2497,-155.5292 2613.6704,-161.6365"/>
</g>
<!-- Node46 -->
<g id="node47" class="node">
<title>Node46</title>
<polygon fill="none" stroke="#bfbfbf" points="2529,-257.5 2529,-276.5 2576,-276.5 2576,-257.5 2529,-257.5"/>
<text text-anchor="middle" x="2552.5" y="-264.5" font-family="Helvetica,sans-Serif" font-size="10.00" fill="#000000">deque</text>
</g>
<!-- Node0&#45;&gt;Node46 -->
<g id="edge64" class="edge">
<title>Node0&#45;&gt;Node46</title>
<path fill="none" stroke="#191970" d="M1960.6005,-335.2568C2086.4944,-328.3976 2319.0065,-311.9454 2514.5,-277 2515.969,-276.7374 2517.4644,-276.4467 2518.971,-276.1345"/>
<polygon fill="#191970" stroke="#191970" points="2519.96,-279.4983 2528.9143,-273.8351 2518.3828,-272.6783 2519.96,-279.4983"/>
</g>
<!-- Node47 -->
<g id="node48" class="node">
<title>Node47</title>
<polygon fill="none" stroke="#bfbfbf" points="2594.5,-257.5 2594.5,-276.5 2638.5,-276.5 2638.5,-257.5 2594.5,-257.5"/>
<text text-anchor="middle" x="2616.5" y="-264.5" font-family="Helvetica,sans-Serif" font-size="10.00" fill="#000000">bitset</text>
</g>
<!-- Node0&#45;&gt;Node47 -->
<g id="edge65" class="edge">
<title>Node0&#45;&gt;Node47</title>
<path fill="none" stroke="#191970" d="M1960.752,-334.052C2122.3266,-324.0895 2451.2119,-301.8315 2584.3109,-276.7829"/>
<polygon fill="#191970" stroke="#191970" points="2585.1703,-280.1811 2594.3084,-274.8197 2583.8214,-273.3122 2585.1703,-280.1811"/>
</g>
<!-- Node2 -->
<g id="node3" class="node">
<title>Node2</title>
<g id="a_node3"><a xlink:href="../../d4/d25/BaseHits_8h.html" target="_top" xlink:title="SimulationDataFormat\l/BaseHits.h">
<polygon fill="none" stroke="#000000" points="941,-190.5 941,-220.5 1068,-220.5 1068,-190.5 941,-190.5"/>
<text text-anchor="start" x="949" y="-208.5" font-family="Helvetica,sans-Serif" font-size="10.00" fill="#000000">SimulationDataFormat</text>
<text text-anchor="middle" x="1004.5" y="-197.5" font-family="Helvetica,sans-Serif" font-size="10.00" fill="#000000">/BaseHits.h</text>
</a>
</g>
</g>
<!-- Node1&#45;&gt;Node2 -->
<g id="edge2" class="edge">
<title>Node1&#45;&gt;Node2</title>
<path fill="none" stroke="#191970" d="M1004.5,-257.3906C1004.5,-250.2234 1004.5,-240.0862 1004.5,-230.671"/>
<polygon fill="#191970" stroke="#191970" points="1008.0001,-230.5446 1004.5,-220.5446 1001.0001,-230.5446 1008.0001,-230.5446"/>
</g>
<!-- Node15 -->
<g id="node16" class="node">
<title>Node15</title>
<g id="a_node16"><a xlink:href="../../d0/d91/ShmAllocator_8h.html" target="_top" xlink:title="CommonUtils/ShmAllocator.h">
<polygon fill="none" stroke="#000000" points="762.5,-196 762.5,-215 922.5,-215 922.5,-196 762.5,-196"/>
<text text-anchor="middle" x="842.5" y="-203" font-family="Helvetica,sans-Serif" font-size="10.00" fill="#000000">CommonUtils/ShmAllocator.h</text>
</a>
</g>
</g>
<!-- Node1&#45;&gt;Node15 -->
<g id="edge15" class="edge">
<title>Node1&#45;&gt;Node15</title>
<path fill="none" stroke="#191970" d="M979.1875,-257.3906C951.7253,-246.9652 907.7105,-230.2559 877.0737,-218.6252"/>
<polygon fill="#191970" stroke="#191970" points="878.226,-215.319 867.6348,-215.0419 875.7415,-221.8633 878.226,-215.319"/>
</g>
<!-- Node3 -->
<g id="node4" class="node">
<title>Node3</title>
<g id="a_node4"><a xlink:href="../../dd/d76/Cartesian3D_8h.html" target="_top" xlink:title="MathUtils/Cartesian3D.h">
<polygon fill="none" stroke="#000000" points="990,-134.5 990,-153.5 1125,-153.5 1125,-134.5 990,-134.5"/>
<text text-anchor="middle" x="1057.5" y="-141.5" font-family="Helvetica,sans-Serif" font-size="10.00" fill="#000000">MathUtils/Cartesian3D.h</text>
</a>
</g>
</g>
<!-- Node2&#45;&gt;Node3 -->
<g id="edge3" class="edge">
<title>Node2&#45;&gt;Node3</title>
<path fill="none" stroke="#191970" d="M1017.6011,-190.2977C1025.1113,-181.5831 1034.57,-170.6075 1042.3927,-161.5302"/>
<polygon fill="#191970" stroke="#191970" points="1045.1371,-163.707 1049.014,-153.8469 1039.8345,-159.1372 1045.1371,-163.707"/>
</g>
<!-- Node4 -->
<g id="node5" class="node">
<title>Node4</title>
<polygon fill="none" stroke="#bfbfbf" points="1267.5,-67.5 1267.5,-97.5 1431.5,-97.5 1431.5,-67.5 1267.5,-67.5"/>
<text text-anchor="start" x="1275.5" y="-85.5" font-family="Helvetica,sans-Serif" font-size="10.00" fill="#000000">Math/GenVector/Displacement</text>
<text text-anchor="middle" x="1349.5" y="-74.5" font-family="Helvetica,sans-Serif" font-size="10.00" fill="#000000">Vector3D.h</text>
</g>
<!-- Node3&#45;&gt;Node4 -->
<g id="edge4" class="edge">
<title>Node3&#45;&gt;Node4</title>
<path fill="none" stroke="#191970" d="M1102.8046,-134.4581C1146.9148,-125.1678 1214.9342,-110.8418 1268.3866,-99.5838"/>
<polygon fill="#191970" stroke="#191970" points="1269.1248,-103.0052 1278.1888,-97.5193 1267.6821,-96.1555 1269.1248,-103.0052"/>
</g>
<!-- Node5 -->
<g id="node6" class="node">
<title>Node5</title>
<polygon fill="none" stroke="#bfbfbf" points="1450,-73 1450,-92 1639,-92 1639,-73 1450,-73"/>
<text text-anchor="middle" x="1544.5" y="-80" font-family="Helvetica,sans-Serif" font-size="10.00" fill="#000000">Math/GenVector/PositionVector3D.h</text>
</g>
<!-- Node3&#45;&gt;Node5 -->
<g id="edge5" class="edge">
<title>Node3&#45;&gt;Node5</title>
<path fill="none" stroke="#191970" d="M1125.3446,-135.9579C1226.9691,-123.8955 1410.0929,-102.0911 1440.5,-98 1450.8513,-96.6073 1461.7705,-95.0629 1472.4867,-93.5042"/>
<polygon fill="#191970" stroke="#191970" points="1473.2875,-96.9242 1482.6736,-92.0098 1472.2714,-89.9984 1473.2875,-96.9242"/>
</g>
<!-- Node6 -->
<g id="node7" class="node">
<title>Node6</title>
<polygon fill="none" stroke="#bfbfbf" points="457.5,-73 457.5,-92 617.5,-92 617.5,-73 457.5,-73"/>
<text text-anchor="middle" x="537.5" y="-80" font-family="Helvetica,sans-Serif" font-size="10.00" fill="#000000">Math/GenVector/Rotation3D.h</text>
</g>
<!-- Node3&#45;&gt;Node6 -->
<g id="edge6" class="edge">
<title>Node3&#45;&gt;Node6</title>
<path fill="none" stroke="#191970" d="M989.7706,-138.1669C904.7391,-130.5231 754.4909,-115.9554 626.5,-98 617.4891,-96.7359 607.9915,-95.2487 598.6905,-93.7044"/>
<polygon fill="#191970" stroke="#191970" points="599.1515,-90.2327 588.7075,-92.0142 597.9829,-97.1345 599.1515,-90.2327"/>
</g>
<!-- Node7 -->
<g id="node8" class="node">
<title>Node7</title>
<polygon fill="none" stroke="#bfbfbf" points="635.5,-73 635.5,-92 803.5,-92 803.5,-73 635.5,-73"/>
<text text-anchor="middle" x="719.5" y="-80" font-family="Helvetica,sans-Serif" font-size="10.00" fill="#000000">Math/GenVector/Transform3D.h</text>
</g>
<!-- Node3&#45;&gt;Node7 -->
<g id="edge7" class="edge">
<title>Node3&#45;&gt;Node7</title>
<path fill="none" stroke="#191970" d="M1005.0584,-134.4581C944.7751,-123.4894 845.9133,-105.5012 781.7716,-93.8305"/>
<polygon fill="#191970" stroke="#191970" points="782.2516,-90.3604 771.7866,-92.0137 780.9985,-97.2474 782.2516,-90.3604"/>
</g>
<!-- Node8 -->
<g id="node9" class="node">
<title>Node8</title>
<polygon fill="none" stroke="#bfbfbf" points="822,-73 822,-92 995,-92 995,-73 822,-73"/>
<text text-anchor="middle" x="908.5" y="-80" font-family="Helvetica,sans-Serif" font-size="10.00" fill="#000000">Math/GenVector/Translation3D.h</text>
</g>
<!-- Node3&#45;&gt;Node8 -->
<g id="edge8" class="edge">
<title>Node3&#45;&gt;Node8</title>
<path fill="none" stroke="#191970" d="M1034.2188,-134.3906C1009.179,-124.0554 969.1775,-107.5447 941.034,-95.9284"/>
<polygon fill="#191970" stroke="#191970" points="942.1967,-92.622 931.6178,-92.0419 939.526,-99.0925 942.1967,-92.622"/>
</g>
<!-- Node9 -->
<g id="node10" class="node">
<title>Node9</title>
<polygon fill="none" stroke="#bfbfbf" points="1724,-73 1724,-92 1783,-92 1783,-73 1724,-73"/>
<text text-anchor="middle" x="1753.5" y="-80" font-family="Helvetica,sans-Serif" font-size="10.00" fill="#000000">Rtypes.h</text>
</g>
<!-- Node3&#45;&gt;Node9 -->
<g id="edge9" class="edge">
<title>Node3&#45;&gt;Node9</title>
<path fill="none" stroke="#191970" d="M1125.2036,-135.6987C1131.0496,-135.0839 1136.8765,-134.5071 1142.5,-134 1396.6377,-111.0844 1466.7641,-154.9346 1715.5,-98 1718.2998,-97.3591 1721.1602,-96.5357 1723.9925,-95.6032"/>
<polygon fill="#191970" stroke="#191970" points="1725.2274,-98.8783 1733.3859,-92.1189 1722.7929,-92.3152 1725.2274,-98.8783"/>
</g>
<!-- Node10 -->
<g id="node11" class="node">
<title>Node10</title>
<polygon fill="none" stroke="#bfbfbf" points="1013.5,-73 1013.5,-92 1095.5,-92 1095.5,-73 1013.5,-73"/>
<text text-anchor="middle" x="1054.5" y="-80" font-family="Helvetica,sans-Serif" font-size="10.00" fill="#000000">TGeoMatrix.h</text>
</g>
<!-- Node3&#45;&gt;Node10 -->
<g id="edge10" class="edge">
<title>Node3&#45;&gt;Node10</title>
<path fill="none" stroke="#191970" d="M1057.0313,-134.3906C1056.6154,-125.8657 1055.9946,-113.1392 1055.4719,-102.4235"/>
<polygon fill="#191970" stroke="#191970" points="1058.9585,-102.0624 1054.9754,-92.2449 1051.9668,-102.4035 1058.9585,-102.0624"/>
</g>
<!-- Node11 -->
<g id="node12" class="node">
<title>Node11</title>
<polygon fill="none" stroke="#bfbfbf" points="1657,-73 1657,-92 1706,-92 1706,-73 1657,-73"/>
<text text-anchor="middle" x="1681.5" y="-80" font-family="Helvetica,sans-Serif" font-size="10.00" fill="#000000">iosfwd</text>
</g>
<!-- Node3&#45;&gt;Node11 -->
<g id="edge11" class="edge">
<title>Node3&#45;&gt;Node11</title>
<path fill="none" stroke="#191970" d="M1125.2083,-135.7494C1131.0533,-135.1236 1136.8787,-134.5304 1142.5,-134 1366.9606,-112.823 1430.3372,-154.8858 1648.5,-98 1650.4753,-97.4849 1652.4766,-96.8537 1654.466,-96.1437"/>
<polygon fill="#191970" stroke="#191970" points="1656.2559,-99.1895 1664.1388,-92.1105 1653.562,-92.7286 1656.2559,-99.1895"/>
</g>
<!-- Node12 -->
<g id="node13" class="node">
<title>Node12</title>
<g id="a_node13"><a xlink:href="../../d2/dd0/Cartesian2D_8h.html" target="_top" xlink:title="MathUtils/Cartesian2D.h">
<polygon fill="none" stroke="#000000" points="1114,-73 1114,-92 1249,-92 1249,-73 1114,-73"/>
<text text-anchor="middle" x="1181.5" y="-80" font-family="Helvetica,sans-Serif" font-size="10.00" fill="#000000">MathUtils/Cartesian2D.h</text>
</a>
</g>
</g>
<!-- Node3&#45;&gt;Node12 -->
<g id="edge12" class="edge">
<title>Node3&#45;&gt;Node12</title>
<path fill="none" stroke="#191970" d="M1076.875,-134.3906C1097.3495,-124.2359 1129.8442,-108.1196 1153.1885,-96.5416"/>
<polygon fill="#191970" stroke="#191970" points="1154.8575,-99.6207 1162.2611,-92.0419 1151.7472,-93.3496 1154.8575,-99.6207"/>
</g>
<!-- Node13 -->
<g id="node14" class="node">
<title>Node13</title>
<polygon fill="none" stroke="#bfbfbf" points="1001.5,-.5 1001.5,-30.5 1165.5,-30.5 1165.5,-.5 1001.5,-.5"/>
<text text-anchor="start" x="1009.5" y="-18.5" font-family="Helvetica,sans-Serif" font-size="10.00" fill="#000000">Math/GenVector/Displacement</text>
<text text-anchor="middle" x="1083.5" y="-7.5" font-family="Helvetica,sans-Serif" font-size="10.00" fill="#000000">Vector2D.h</text>
</g>
<!-- Node12&#45;&gt;Node13 -->
<g id="edge13" class="edge">
<title>Node12&#45;&gt;Node13</title>
<path fill="none" stroke="#191970" d="M1167.459,-72.9005C1153.5412,-63.3853 1131.772,-48.5023 1113.888,-36.2755"/>
<polygon fill="#191970" stroke="#191970" points="1115.7026,-33.2763 1105.4721,-30.5218 1111.7519,-39.0549 1115.7026,-33.2763"/>
</g>
<!-- Node14 -->
<g id="node15" class="node">
<title>Node14</title>
<polygon fill="none" stroke="#bfbfbf" points="1184,-6 1184,-25 1373,-25 1373,-6 1184,-6"/>
<text text-anchor="middle" x="1278.5" y="-13" font-family="Helvetica,sans-Serif" font-size="10.00" fill="#000000">Math/GenVector/PositionVector2D.h</text>
</g>
<!-- Node12&#45;&gt;Node14 -->
<g id="edge14" class="edge">
<title>Node12&#45;&gt;Node14</title>
<path fill="none" stroke="#191970" d="M1195.3977,-72.9005C1211.3164,-61.9052 1237.6121,-43.7422 1256.3599,-30.7927"/>
<polygon fill="#191970" stroke="#191970" points="1258.3892,-33.6448 1264.628,-25.0817 1254.4108,-27.8852 1258.3892,-33.6448"/>
</g>
<!-- Node16 -->
<g id="node17" class="node">
<title>Node16</title>
<g id="a_node17"><a xlink:href="../../de/d61/ShmManager_8h.html" target="_top" xlink:title="CommonUtils/ShmManager.h">
<polygon fill="none" stroke="#000000" points="181.5,-134.5 181.5,-153.5 339.5,-153.5 339.5,-134.5 181.5,-134.5"/>
<text text-anchor="middle" x="260.5" y="-141.5" font-family="Helvetica,sans-Serif" font-size="10.00" fill="#000000">CommonUtils/ShmManager.h</text>
</a>
</g>
</g>
<!-- Node15&#45;&gt;Node16 -->
<g id="edge16" class="edge">
<title>Node15&#45;&gt;Node16</title>
<path fill="none" stroke="#191970" d="M762.4913,-197.0455C654.3662,-185.6199 462.2008,-165.3137 349.5897,-153.4141"/>
<polygon fill="#191970" stroke="#191970" points="349.9279,-149.9305 339.6155,-152.3601 349.1923,-156.8917 349.9279,-149.9305"/>
</g>
<!-- Node21 -->
<g id="node22" class="node">
<title>Node21</title>
<polygon fill="none" stroke="#bfbfbf" points="1601.5,-134.5 1601.5,-153.5 1653.5,-153.5 1653.5,-134.5 1601.5,-134.5"/>
<text text-anchor="middle" x="1627.5" y="-141.5" font-family="Helvetica,sans-Serif" font-size="10.00" fill="#000000">cassert</text>
</g>
<!-- Node15&#45;&gt;Node21 -->
<g id="edge21" class="edge">
<title>Node15&#45;&gt;Node21</title>
<path fill="none" stroke="#191970" d="M891.3146,-195.9305C904.3282,-193.6724 918.4101,-191.491 931.5,-190 1220.5399,-157.0762 1300.5577,-201.6947 1591.2832,-153.8422"/>
<polygon fill="#191970" stroke="#191970" points="1591.9839,-157.2738 1601.2715,-152.1757 1590.8318,-150.3692 1591.9839,-157.2738"/>
</g>
<!-- Node17 -->
<g id="node18" class="node">
<title>Node17</title>
<polygon fill="none" stroke="#bfbfbf" points="183.5,-73 183.5,-92 215.5,-92 215.5,-73 183.5,-73"/>
<text text-anchor="middle" x="199.5" y="-80" font-family="Helvetica,sans-Serif" font-size="10.00" fill="#000000">list</text>
</g>
<!-- Node16&#45;&gt;Node17 -->
<g id="edge17" class="edge">
<title>Node16&#45;&gt;Node17</title>
<path fill="none" stroke="#191970" d="M250.9688,-134.3906C241.7121,-125.0581 227.461,-110.6902 216.2997,-99.4374"/>
<polygon fill="#191970" stroke="#191970" points="218.6928,-96.88 209.1656,-92.2449 213.7228,-101.8095 218.6928,-96.88"/>
</g>
<!-- Node18 -->
<g id="node19" class="node">
<title>Node18</title>
<polygon fill="none" stroke="#bfbfbf" points="234,-73 234,-92 287,-92 287,-73 234,-73"/>
<text text-anchor="middle" x="260.5" y="-80" font-family="Helvetica,sans-Serif" font-size="10.00" fill="#000000">cstddef</text>
</g>
<!-- Node16&#45;&gt;Node18 -->
<g id="edge18" class="edge">
<title>Node16&#45;&gt;Node18</title>
<path fill="none" stroke="#191970" d="M260.5,-134.3906C260.5,-125.8657 260.5,-113.1392 260.5,-102.4235"/>
<polygon fill="#191970" stroke="#191970" points="264.0001,-102.2448 260.5,-92.2449 257.0001,-102.2449 264.0001,-102.2448"/>
</g>
<!-- Node19 -->
<g id="node20" class="node">
<title>Node19</title>
<polygon fill="none" stroke="#bfbfbf" points="0,-67.5 0,-97.5 165,-97.5 165,-67.5 0,-67.5"/>
<text text-anchor="start" x="8" y="-85.5" font-family="Helvetica,sans-Serif" font-size="10.00" fill="#000000">boost/interprocess</text>
<text text-anchor="middle" x="82.5" y="-74.5" font-family="Helvetica,sans-Serif" font-size="10.00" fill="#000000">/managed_external_buffer.hpp</text>
</g>
<!-- Node16&#45;&gt;Node19 -->
<g id="edge19" class="edge">
<title>Node16&#45;&gt;Node19</title>
<path fill="none" stroke="#191970" d="M232.6875,-134.3906C206.8129,-125.4508 167.5652,-111.8905 135.6798,-100.8739"/>
<polygon fill="#191970" stroke="#191970" points="136.6385,-97.5022 126.0437,-97.5446 134.3525,-104.1184 136.6385,-97.5022"/>
</g>
<!-- Node20 -->
<g id="node21" class="node">
<title>Node20</title>
<polygon fill="none" stroke="#bfbfbf" points="305.5,-67.5 305.5,-97.5 439.5,-97.5 439.5,-67.5 305.5,-67.5"/>
<text text-anchor="start" x="313.5" y="-85.5" font-family="Helvetica,sans-Serif" font-size="10.00" fill="#000000">boost/interprocess</text>
<text text-anchor="middle" x="372.5" y="-74.5" font-family="Helvetica,sans-Serif" font-size="10.00" fill="#000000">/allocators/allocator.hpp</text>
</g>
<!-- Node16&#45;&gt;Node20 -->
<g id="edge20" class="edge">
<title>Node16&#45;&gt;Node20</title>
<path fill="none" stroke="#191970" d="M278,-134.3906C293.5087,-125.8747 316.653,-113.166 336.1549,-102.4573"/>
<polygon fill="#191970" stroke="#191970" points="338.0209,-105.4257 345.1017,-97.5446 334.6516,-99.2899 338.0209,-105.4257"/>
</g>
<!-- Node23 -->
<g id="node24" class="node">
<title>Node23</title>
<g id="a_node24"><a xlink:href="../../d7/dcd/MCCompLabel_8h.html" target="_top" xlink:title="SimulationDataFormat\l/MCCompLabel.h">
<polygon fill="none" stroke="#000000" points="2200,-190.5 2200,-220.5 2327,-220.5 2327,-190.5 2200,-190.5"/>
<text text-anchor="start" x="2208" y="-208.5" font-family="Helvetica,sans-Serif" font-size="10.00" fill="#000000">SimulationDataFormat</text>
<text text-anchor="middle" x="2263.5" y="-197.5" font-family="Helvetica,sans-Serif" font-size="10.00" fill="#000000">/MCCompLabel.h</text>
</a>
</g>
</g>
<!-- Node22&#45;&gt;Node23 -->
<g id="edge23" class="edge">
<title>Node22&#45;&gt;Node23</title>
<path fill="none" stroke="#191970" d="M2166.4688,-257.3906C2182.4649,-248.8361 2206.3723,-236.0509 2226.453,-225.3121"/>
<polygon fill="#191970" stroke="#191970" points="2228.2002,-228.3469 2235.3678,-220.5446 2224.899,-222.1741 2228.2002,-228.3469"/>
</g>
<!-- Node24 -->
<g id="node25" class="node">
<title>Node24</title>
<g id="a_node25"><a xlink:href="../../d2/d45/GPUCommonRtypes_8h.html" target="_top" xlink:title="GPUCommonRtypes.h">
<polygon fill="none" stroke="#000000" points="2177,-134.5 2177,-153.5 2302,-153.5 2302,-134.5 2177,-134.5"/>
<text text-anchor="middle" x="2239.5" y="-141.5" font-family="Helvetica,sans-Serif" font-size="10.00" fill="#000000">GPUCommonRtypes.h</text>
</a>
</g>
</g>
<!-- Node23&#45;&gt;Node24 -->
<g id="edge24" class="edge">
<title>Node23&#45;&gt;Node24</title>
<path fill="none" stroke="#191970" d="M2257.5674,-190.2977C2254.3748,-182.1166 2250.4046,-171.943 2246.9996,-163.2179"/>
<polygon fill="#191970" stroke="#191970" points="2250.2387,-161.8903 2243.3427,-153.8469 2243.7177,-164.4351 2250.2387,-161.8903"/>
</g>
<!-- Node24&#45;&gt;Node9 -->
<g id="edge25" class="edge">
<title>Node24&#45;&gt;Node9</title>
<path fill="none" stroke="#191970" d="M2176.7878,-135.1102C2173.9875,-134.7313 2171.2149,-134.3596 2168.5,-134 2030.9593,-115.7811 1867.5063,-96.0644 1793.4719,-87.2385"/>
<polygon fill="#191970" stroke="#191970" points="1793.555,-83.7238 1783.2113,-86.0169 1792.7273,-90.6747 1793.555,-83.7238"/>
</g>
<!-- Node25&#45;&gt;Node9 -->
<g id="edge33" class="edge">
<title>Node25&#45;&gt;Node9</title>
<path fill="none" stroke="#191970" d="M1229.066,-257.2186C1209.269,-233.0679 1163.9459,-169.9669 1197.5,-134 1236.8565,-91.8134 1659.3032,-111.0598 1715.5,-98 1718.2977,-97.3498 1721.1566,-96.5201 1723.988,-95.5834"/>
<polygon fill="#191970" stroke="#191970" points="1725.2258,-98.8574 1733.3799,-92.0926 1722.787,-92.2959 1725.2258,-98.8574"/>
</g>
<!-- Node26 -->
<g id="node27" class="node">
<title>Node26</title>
<g id="a_node27"><a xlink:href="../../d3/dd7/Detectors_2ZDC_2base_2include_2ZDCBase_2Constants_8h.html" target="_top" xlink:title="ZDCBase/Constants.h">
<polygon fill="none" stroke="#000000" points="1475.5,-196 1475.5,-215 1597.5,-215 1597.5,-196 1475.5,-196"/>
<text text-anchor="middle" x="1536.5" y="-203" font-family="Helvetica,sans-Serif" font-size="10.00" fill="#000000">ZDCBase/Constants.h</text>
</a>
</g>
</g>
<!-- Node25&#45;&gt;Node26 -->
<g id="edge27" class="edge">
<title>Node25&#45;&gt;Node26</title>
<path fill="none" stroke="#191970" d="M1283.8907,-257.4581C1336.8116,-246.573 1423.3414,-228.7751 1480.1106,-217.0985"/>
<polygon fill="#191970" stroke="#191970" points="1480.9107,-220.5073 1490.0005,-215.0643 1479.5004,-213.6508 1480.9107,-220.5073"/>
</g>
<!-- Node25&#45;&gt;Node32 -->
<g id="edge34" class="edge">
<title>Node25&#45;&gt;Node32</title>
<path fill="none" stroke="#191970" d="M1217.1875,-257.3906C1195.6269,-247.1908 1161.3522,-230.9763 1136.8556,-219.3875"/>
<polygon fill="#191970" stroke="#191970" points="1138.2061,-216.1545 1127.6699,-215.0419 1135.2126,-222.4822 1138.2061,-216.1545"/>
</g>
<!-- Node27 -->
<g id="node28" class="node">
<title>Node27</title>
<g id="a_node28"><a xlink:href="../../d3/d9d/PhysicsConstants_8h.html" target="_top" xlink:title="Header to collect physics constants. ">
<polygon fill="none" stroke="#000000" points="1285,-134.5 1285,-153.5 1492,-153.5 1492,-134.5 1285,-134.5"/>
<text text-anchor="middle" x="1388.5" y="-141.5" font-family="Helvetica,sans-Serif" font-size="10.00" fill="#000000">CommonConstants/PhysicsConstants.h</text>
</a>
</g>
</g>
<!-- Node26&#45;&gt;Node27 -->
<g id="edge28" class="edge">
<title>Node26&#45;&gt;Node27</title>
<path fill="none" stroke="#191970" d="M1513.375,-195.8906C1488.5033,-185.5554 1448.7702,-169.0447 1420.8156,-157.4284"/>
<polygon fill="#191970" stroke="#191970" points="1422.0402,-154.1472 1411.4626,-153.5419 1419.354,-160.6113 1422.0402,-154.1472"/>
</g>
<!-- Node28 -->
<g id="node29" class="node">
<title>Node28</title>
<polygon fill="none" stroke="#bfbfbf" points="1709.5,-134.5 1709.5,-153.5 1759.5,-153.5 1759.5,-134.5 1709.5,-134.5"/>
<text text-anchor="middle" x="1734.5" y="-141.5" font-family="Helvetica,sans-Serif" font-size="10.00" fill="#000000">cstdint</text>
</g>
<!-- Node26&#45;&gt;Node28 -->
<g id="edge29" class="edge">
<title>Node26&#45;&gt;Node28</title>
<path fill="none" stroke="#191970" d="M1567.4375,-195.8906C1603.2279,-184.7739 1662.0207,-166.5125 1699.4649,-154.8821"/>
<polygon fill="#191970" stroke="#191970" points="1700.9114,-158.0978 1709.4232,-151.789 1698.835,-151.4129 1700.9114,-158.0978"/>
</g>
<!-- Node29 -->
<g id="node30" class="node">
<title>Node29</title>
<polygon fill="none" stroke="#bfbfbf" points="1510,-134.5 1510,-153.5 1583,-153.5 1583,-134.5 1510,-134.5"/>
<text text-anchor="middle" x="1546.5" y="-141.5" font-family="Helvetica,sans-Serif" font-size="10.00" fill="#000000">string_view</text>
</g>
<!-- Node26&#45;&gt;Node29 -->
<g id="edge30" class="edge">
<title>Node26&#45;&gt;Node29</title>
<path fill="none" stroke="#191970" d="M1538.0625,-195.8906C1539.4487,-187.3657 1541.518,-174.6392 1543.2604,-163.9235"/>
<polygon fill="#191970" stroke="#191970" points="1546.7651,-164.177 1544.9155,-153.7449 1539.8558,-163.0535 1546.7651,-164.177"/>
</g>
<!-- Node30 -->
<g id="node31" class="node">
<title>Node30</title>
<polygon fill="none" stroke="#bfbfbf" points="1222.5,-134.5 1222.5,-153.5 1266.5,-153.5 1266.5,-134.5 1222.5,-134.5"/>
<text text-anchor="middle" x="1244.5" y="-141.5" font-family="Helvetica,sans-Serif" font-size="10.00" fill="#000000">string</text>
</g>
<!-- Node26&#45;&gt;Node30 -->
<g id="edge31" class="edge">
<title>Node26&#45;&gt;Node30</title>
<path fill="none" stroke="#191970" d="M1479.2999,-195.9914C1426.3549,-186.7605 1345.6211,-171.5918 1276.5,-154 1276.4013,-153.9749 1276.3024,-153.9496 1276.2034,-153.9243"/>
<polygon fill="#191970" stroke="#191970" points="1277.3648,-150.6146 1266.7923,-151.3018 1275.4857,-157.3577 1277.3648,-150.6146"/>
</g>
<!-- Node31 -->
<g id="node32" class="node">
<title>Node31</title>
<polygon fill="none" stroke="#bfbfbf" points="2090,-134.5 2090,-153.5 2159,-153.5 2159,-134.5 2090,-134.5"/>
<text text-anchor="middle" x="2124.5" y="-141.5" font-family="Helvetica,sans-Serif" font-size="10.00" fill="#000000">type_traits</text>
</g>
<!-- Node26&#45;&gt;Node31 -->
<g id="edge32" class="edge">
<title>Node26&#45;&gt;Node31</title>
<path fill="none" stroke="#191970" d="M1597.6967,-197.2479C1616.8312,-194.7786 1638.0289,-192.1568 1657.5,-190 1828.3128,-171.0791 1871.6307,-172.4039 2042.5,-154 2054.5211,-152.7052 2067.5175,-151.1788 2079.5432,-149.7136"/>
<polygon fill="#191970" stroke="#191970" points="2080.3151,-153.1451 2089.8124,-148.4492 2079.4596,-146.1975 2080.3151,-153.1451"/>
</g>
<!-- Node33&#45;&gt;Node9 -->
<g id="edge38" class="edge">
<title>Node33&#45;&gt;Node9</title>
<path fill="none" stroke="#191970" d="M1398.1439,-257.4782C1309.2711,-240.2277 1152.6113,-199.4116 1213.5,-134 1251.6017,-93.0681 1661.0445,-110.7184 1715.5,-98 1718.297,-97.3468 1721.1553,-96.5149 1723.9864,-95.5769"/>
<polygon fill="#191970" stroke="#191970" points="1725.2252,-98.8504 1733.3778,-92.0839 1722.785,-92.2895 1725.2252,-98.8504"/>
</g>
<!-- Node33&#45;&gt;Node26 -->
<g id="edge36" class="edge">
<title>Node33&#45;&gt;Node26</title>
<path fill="none" stroke="#191970" d="M1467.3125,-257.3906C1480.1901,-247.7324 1500.2584,-232.6812 1515.472,-221.271"/>
<polygon fill="#191970" stroke="#191970" points="1517.8775,-223.8419 1523.7775,-215.0419 1513.6774,-218.2419 1517.8775,-223.8419"/>
</g>
<!-- Node33&#45;&gt;Node32 -->
<g id="edge37" class="edge">
<title>Node33&#45;&gt;Node32</title>
<path fill="none" stroke="#191970" d="M1393.1525,-257.4725C1337.5337,-248.6514 1253.3579,-234.8441 1180.5,-221 1166.64,-218.3664 1151.3632,-215.1688 1138.3825,-212.3636"/>
<polygon fill="#191970" stroke="#191970" points="1139.0516,-208.9273 1128.5355,-210.2163 1137.5601,-215.7666 1139.0516,-208.9273"/>
</g>
<!-- Node34&#45;&gt;Node9 -->
<g id="edge49" class="edge">
<title>Node34&#45;&gt;Node9</title>
<path fill="none" stroke="#191970" d="M1867.9087,-257.4354C1867.4628,-241.1837 1869.071,-208.1781 1887.5,-190 1939.6473,-138.5627 2089.5313,-190.1533 2042.5,-134 2011.1544,-96.5748 1864.875,-86.3225 1793.2382,-83.5325"/>
<polygon fill="#191970" stroke="#191970" points="1793.3523,-80.0345 1783.233,-83.1727 1793.1007,-87.0299 1793.3523,-80.0345"/>
</g>
<!-- Node34&#45;&gt;Node26 -->
<g id="edge48" class="edge">
<title>Node34&#45;&gt;Node26</title>
<path fill="none" stroke="#191970" d="M1816.9893,-257.4581C1757.898,-246.512 1661.0687,-228.5752 1598.0555,-216.9026"/>
<polygon fill="#191970" stroke="#191970" points="1598.3287,-213.3937 1587.8584,-215.0137 1597.0536,-220.2766 1598.3287,-213.3937"/>
</g>
<!-- Node34&#45;&gt;Node35 -->
<g id="edge40" class="edge">
<title>Node34&#45;&gt;Node35</title>
<path fill="none" stroke="#191970" d="M1850.5313,-257.3906C1834.5351,-248.8361 1810.6277,-236.0509 1790.547,-225.3121"/>
<polygon fill="#191970" stroke="#191970" points="1792.101,-222.1741 1781.6322,-220.5446 1788.7998,-228.3469 1792.101,-222.1741"/>
</g>
<!-- Node38 -->
<g id="node39" class="node">
<title>Node38</title>
<g id="a_node39"><a xlink:href="../../de/d64/RangeReference_8h.html" target="_top" xlink:title="Class to refer to the 1st entry and N elements of some group in the continuous container. ">
<polygon fill="none" stroke="#000000" points="1896.5,-196 1896.5,-215 2106.5,-215 2106.5,-196 1896.5,-196"/>
<text text-anchor="middle" x="2001.5" y="-203" font-family="Helvetica,sans-Serif" font-size="10.00" fill="#000000">CommonDataFormat/RangeReference.h</text>
</a>
</g>
</g>
<!-- Node34&#45;&gt;Node38 -->
<g id="edge46" class="edge">
<title>Node34&#45;&gt;Node38</title>
<path fill="none" stroke="#191970" d="M1889.2813,-257.3906C1911.3394,-247.1908 1946.405,-230.9763 1971.4669,-219.3875"/>
<polygon fill="#191970" stroke="#191970" points="1973.2571,-222.4158 1980.8647,-215.0419 1970.3191,-216.0622 1973.2571,-222.4158"/>
</g>
<!-- Node39 -->
<g id="node40" class="node">
<title>Node39</title>
<polygon fill="none" stroke="#bfbfbf" points="2125,-196 2125,-215 2182,-215 2182,-196 2125,-196"/>
<text text-anchor="middle" x="2153.5" y="-203" font-family="Helvetica,sans-Serif" font-size="10.00" fill="#000000">gsl/span</text>
</g>
<!-- Node34&#45;&gt;Node39 -->
<g id="edge50" class="edge">
<title>Node34&#45;&gt;Node39</title>
<path fill="none" stroke="#191970" d="M1941.0152,-257.4625C1990.726,-249.9632 2057.8502,-237.9344 2115.5,-221 2117.8072,-220.3223 2120.1665,-219.5538 2122.5241,-218.7304"/>
<polygon fill="#191970" stroke="#191970" points="2123.949,-221.9337 2132.0682,-215.1271 2121.4765,-215.3848 2123.949,-221.9337"/>
</g>
<!-- Node35&#45;&gt;Node11 -->
<g id="edge42" class="edge">
<title>Node35&#45;&gt;Node11</title>
<path fill="none" stroke="#191970" d="M1733.2238,-190.3786C1722.0483,-181.0464 1708.7983,-168.1714 1700.5,-154 1691.1906,-138.102 1686.3485,-117.5727 1683.8903,-102.593"/>
<polygon fill="#191970" stroke="#191970" points="1687.3123,-101.7966 1682.4405,-92.3883 1680.3819,-102.7812 1687.3123,-101.7966"/>
</g>
<!-- Node35&#45;&gt;Node24 -->
<g id="edge41" class="edge">
<title>Node35&#45;&gt;Node24</title>
<path fill="none" stroke="#191970" d="M1840.5914,-195.1149C1922.3039,-185.274 2048.2092,-169.8625 2166.8043,-154.2103"/>
<polygon fill="#191970" stroke="#191970" points="2167.3331,-157.6709 2176.7878,-152.8898 2166.4152,-150.7313 2167.3331,-157.6709"/>
</g>
<!-- Node35&#45;&gt;Node28 -->
<g id="edge44" class="edge">
<title>Node35&#45;&gt;Node28</title>
<path fill="none" stroke="#191970" d="M1748.8034,-190.2977C1746.3033,-182.2055 1743.201,-172.1639 1740.5253,-163.5029"/>
<polygon fill="#191970" stroke="#191970" points="1743.838,-162.3682 1737.5421,-153.8469 1737.1499,-164.4345 1743.838,-162.3682"/>
</g>
<!-- Node36 -->
<g id="node37" class="node">
<title>Node36</title>
<polygon fill="none" stroke="#bfbfbf" points="1778,-134.5 1778,-153.5 1825,-153.5 1825,-134.5 1778,-134.5"/>
<text text-anchor="middle" x="1801.5" y="-141.5" font-family="Helvetica,sans-Serif" font-size="10.00" fill="#000000">cmath</text>
</g>
<!-- Node35&#45;&gt;Node36 -->
<g id="edge43" class="edge">
<title>Node35&#45;&gt;Node36</title>
<path fill="none" stroke="#191970" d="M1765.3652,-190.2977C1772.0975,-181.672 1780.5585,-170.8312 1787.6006,-161.8087"/>
<polygon fill="#191970" stroke="#191970" points="1790.421,-163.8836 1793.8146,-153.8469 1784.9027,-159.5766 1790.421,-163.8836"/>
</g>
<!-- Node37 -->
<g id="node38" class="node">
<title>Node37</title>
<g id="a_node38"><a xlink:href="../../d4/dc6/LHCConstants_8h.html" target="_top" xlink:title="Header to collect LHC related constants. ">
<polygon fill="none" stroke="#000000" points="1843.5,-134.5 1843.5,-153.5 2033.5,-153.5 2033.5,-134.5 1843.5,-134.5"/>
<text text-anchor="middle" x="1938.5" y="-141.5" font-family="Helvetica,sans-Serif" font-size="10.00" fill="#000000">CommonConstants/LHCConstants.h</text>
</a>
</g>
</g>
<!-- Node35&#45;&gt;Node37 -->
<g id="edge45" class="edge">
<title>Node35&#45;&gt;Node37</title>
<path fill="none" stroke="#191970" d="M1798.7561,-190.4554C1829.8946,-180.104 1870.7969,-166.5067 1900.2955,-156.7004"/>
<polygon fill="#191970" stroke="#191970" points="1901.4463,-160.0063 1909.8316,-153.5303 1899.238,-153.3637 1901.4463,-160.0063"/>
</g>
<!-- Node38&#45;&gt;Node24 -->
<g id="edge47" class="edge">
<title>Node38&#45;&gt;Node24</title>
<path fill="none" stroke="#191970" d="M2038.4264,-195.9581C2079.9402,-185.2308 2147.4365,-167.7895 2192.6353,-156.11"/>
<polygon fill="#191970" stroke="#191970" points="2193.6807,-159.4549 2202.487,-153.5643 2191.9293,-152.6775 2193.6807,-159.4549"/>
</g>
<!-- Node40&#45;&gt;Node21 -->
<g id="edge54" class="edge">
<title>Node40&#45;&gt;Node21</title>
<path fill="none" stroke="#191970" d="M2344.9912,-191.2678C2342.128,-190.803 2339.2877,-190.3766 2336.5,-190 2055.93,-152.0934 1982.3062,-181.2339 1700.5,-154 1688.6069,-152.8506 1675.6742,-151.2087 1664.0439,-149.5867"/>
<polygon fill="#191970" stroke="#191970" points="1664.1919,-146.0722 1653.7963,-148.1174 1663.1983,-153.0013 1664.1919,-146.0722"/>
</g>
<!-- Node40&#45;&gt;Node24 -->
<g id="edge52" class="edge">
<title>Node40&#45;&gt;Node24</title>
<path fill="none" stroke="#191970" d="M2367.1579,-190.4554C2338.9599,-180.194 2301.9969,-166.7429 2275.1057,-156.9571"/>
<polygon fill="#191970" stroke="#191970" points="2276.283,-153.6611 2265.689,-153.5303 2273.8892,-160.239 2276.283,-153.6611"/>
</g>
<!-- Node40&#45;&gt;Node28 -->
<g id="edge53" class="edge">
<title>Node40&#45;&gt;Node28</title>
<path fill="none" stroke="#191970" d="M2344.9879,-191.2917C2342.1256,-190.8205 2339.2864,-190.3862 2336.5,-190 2086.3836,-155.3334 2018.3309,-196.9321 1769.5,-154 1769.3988,-153.9825 1769.2975,-153.9649 1769.196,-153.9471"/>
<polygon fill="#191970" stroke="#191970" points="1770.0996,-150.5617 1759.5853,-151.8654 1768.6177,-157.4031 1770.0996,-150.5617"/>
</g>
<!-- Node40&#45;&gt;Node31 -->
<g id="edge57" class="edge">
<title>Node40&#45;&gt;Node31</title>
<path fill="none" stroke="#191970" d="M2344.8975,-191.8044C2342.0596,-191.1944 2339.2503,-190.5907 2336.5,-190 2264.9031,-174.6223 2244.7003,-170.7704 2169.0918,-154.1109"/>
<polygon fill="#191970" stroke="#191970" points="2169.5974,-150.6383 2159.0781,-151.9012 2168.0889,-157.4739 2169.5974,-150.6383"/>
</g>
<!-- Node41 -->
<g id="node42" class="node">
<title>Node41</title>
<polygon fill="none" stroke="#bfbfbf" points="2320,-134.5 2320,-153.5 2385,-153.5 2385,-134.5 2320,-134.5"/>
<text text-anchor="middle" x="2352.5" y="-141.5" font-family="Helvetica,sans-Serif" font-size="10.00" fill="#000000">stdexcept</text>
</g>
<!-- Node40&#45;&gt;Node41 -->
<g id="edge55" class="edge">
<title>Node40&#45;&gt;Node41</title>
<path fill="none" stroke="#191970" d="M2394.6573,-190.2977C2386.641,-181.4941 2376.5238,-170.3833 2368.21,-161.2529"/>
<polygon fill="#191970" stroke="#191970" points="2370.7869,-158.8845 2361.4663,-153.8469 2365.6112,-163.5974 2370.7869,-158.8845"/>
</g>
<!-- Node42 -->
<g id="node43" class="node">
<title>Node42</title>
<polygon fill="none" stroke="#bfbfbf" points="2403.5,-134.5 2403.5,-153.5 2451.5,-153.5 2451.5,-134.5 2403.5,-134.5"/>
<text text-anchor="middle" x="2427.5" y="-141.5" font-family="Helvetica,sans-Serif" font-size="10.00" fill="#000000">gsl/gsl</text>
</g>
<!-- Node40&#45;&gt;Node42 -->
<g id="edge56" class="edge">
<title>Node40&#45;&gt;Node42</title>
<path fill="none" stroke="#191970" d="M2413.1966,-190.2977C2415.6967,-182.2055 2418.799,-172.1639 2421.4747,-163.5029"/>
<polygon fill="#191970" stroke="#191970" points="2424.8501,-164.4345 2424.4579,-153.8469 2418.162,-162.3682 2424.8501,-164.4345"/>
</g>
<!-- Node43 -->
<g id="node44" class="node">
<title>Node43</title>
<polygon fill="none" stroke="#bfbfbf" points="2469.5,-134.5 2469.5,-153.5 2519.5,-153.5 2519.5,-134.5 2469.5,-134.5"/>
<text text-anchor="middle" x="2494.5" y="-141.5" font-family="Helvetica,sans-Serif" font-size="10.00" fill="#000000">cstring</text>
</g>
<!-- Node40&#45;&gt;Node43 -->
<g id="edge58" class="edge">
<title>Node40&#45;&gt;Node43</title>
<path fill="none" stroke="#191970" d="M2429.7584,-190.2977C2442.7718,-180.9917 2459.3903,-169.1075 2472.5317,-159.7099"/>
<polygon fill="#191970" stroke="#191970" points="2474.8889,-162.3271 2480.9871,-153.6633 2470.8171,-156.6332 2474.8889,-162.3271"/>
</g>
<!-- Node44 -->
<g id="node45" class="node">
<title>Node44</title>
<polygon fill="none" stroke="#bfbfbf" points="2537.5,-134.5 2537.5,-153.5 2595.5,-153.5 2595.5,-134.5 2537.5,-134.5"/>
<text text-anchor="middle" x="2566.5" y="-141.5" font-family="Helvetica,sans-Serif" font-size="10.00" fill="#000000">memory</text>
</g>
<!-- Node40&#45;&gt;Node44 -->
<g id="edge59" class="edge">
<title>Node40&#45;&gt;Node44</title>
<path fill="none" stroke="#191970" d="M2447.1511,-190.4554C2473.2826,-180.284 2507.4653,-166.9787 2532.5481,-157.2155"/>
<polygon fill="#191970" stroke="#191970" points="2533.9662,-160.4193 2542.0156,-153.5303 2531.4271,-153.8961 2533.9662,-160.4193"/>
</g>
<!-- Node40&#45;&gt;Node45 -->
<g id="edge60" class="edge">
<title>Node40&#45;&gt;Node45</title>
<path fill="none" stroke="#191970" d="M2468.2706,-190.4114C2504.8187,-181.0425 2552.7405,-168.5059 2603.824,-154.1202"/>
<polygon fill="#191970" stroke="#191970" points="2605.0681,-157.4057 2613.7381,-151.3161 2603.1629,-150.67 2605.0681,-157.4057"/>
</g>
</g>
</svg>
