<?xml version="1.0" encoding="UTF-8" standalone="no"?>
<!DOCTYPE svg PUBLIC "-//W3C//DTD SVG 1.1//EN"
 "http://www.w3.org/Graphics/SVG/1.1/DTD/svg11.dtd">
<!-- Generated by graphviz version 2.40.1 (20161225.0304)
 -->
<!-- Title: /home/travis/build/AliceO2Group/AliceO2/Detectors/MUON/MCH/Raw/ImplHelpers/MoveBuffer.h Pages: 1 -->
<svg width="209pt" height="117pt"
 viewBox="0.00 0.00 209.00 117.00" xmlns="http://www.w3.org/2000/svg" xmlns:xlink="http://www.w3.org/1999/xlink">
<g id="graph0" class="graph" transform="scale(1 1) rotate(0) translate(4 113)">
<title>/home/travis/build/AliceO2Group/AliceO2/Detectors/MUON/MCH/Raw/ImplHelpers/MoveBuffer.h</title>
<!-- Node0 -->
<g id="node1" class="node">
<title>Node0</title>
<polygon fill="#bfbfbf" stroke="#000000" points="20.5,-56.5 20.5,-108.5 170.5,-108.5 170.5,-56.5 20.5,-56.5"/>
<text text-anchor="start" x="28.5" y="-96.5" font-family="Helvetica,sans-Serif" font-size="10.00" fill="#000000">/home/travis/build</text>
<text text-anchor="start" x="28.5" y="-85.5" font-family="Helvetica,sans-Serif" font-size="10.00" fill="#000000">/AliceO2Group/AliceO2</text>
<text text-anchor="start" x="28.5" y="-74.5" font-family="Helvetica,sans-Serif" font-size="10.00" fill="#000000">/Detectors/MUON/MCH/Raw</text>
<text text-anchor="middle" x="95.5" y="-63.5" font-family="Helvetica,sans-Serif" font-size="10.00" fill="#000000">/ImplHelpers/MoveBuffer.h</text>
</g>
<!-- Node1 -->
<g id="node2" class="node">
<title>Node1</title>
<polygon fill="none" stroke="#bfbfbf" points="0,-.5 0,-19.5 47,-19.5 47,-.5 0,-.5"/>
<text text-anchor="middle" x="23.5" y="-7.5" font-family="Helvetica,sans-Serif" font-size="10.00" fill="#000000">vector</text>
</g>
<!-- Node0&#45;&gt;Node1 -->
<g id="edge1" class="edge">
<title>Node0&#45;&gt;Node1</title>
<path fill="none" stroke="#191970" d="M69.5063,-56.3258C59.761,-46.5128 48.953,-35.6298 40.2626,-26.879"/>
<polygon fill="#191970" stroke="#191970" points="42.4983,-24.1632 32.9683,-19.534 37.5314,-29.0958 42.4983,-24.1632"/>
</g>
<!-- Node2 -->
<g id="node3" class="node">
<title>Node2</title>
<polygon fill="none" stroke="#bfbfbf" points="65.5,-.5 65.5,-19.5 125.5,-19.5 125.5,-.5 65.5,-.5"/>
<text text-anchor="middle" x="95.5" y="-7.5" font-family="Helvetica,sans-Serif" font-size="10.00" fill="#000000">iostream</text>
</g>
<!-- Node0&#45;&gt;Node2 -->
<g id="edge2" class="edge">
<title>Node0&#45;&gt;Node2</title>
<path fill="none" stroke="#191970" d="M95.5,-56.3258C95.5,-47.5142 95.5,-37.8397 95.5,-29.621"/>
<polygon fill="#191970" stroke="#191970" points="99.0001,-29.534 95.5,-19.534 92.0001,-29.534 99.0001,-29.534"/>
</g>
<!-- Node3 -->
<g id="node4" class="node">
<title>Node3</title>
<polygon fill="none" stroke="#bfbfbf" points="144,-.5 144,-19.5 201,-19.5 201,-.5 144,-.5"/>
<text text-anchor="middle" x="172.5" y="-7.5" font-family="Helvetica,sans-Serif" font-size="10.00" fill="#000000">gsl/span</text>
</g>
<!-- Node0&#45;&gt;Node3 -->
<g id="edge3" class="edge">
<title>Node0&#45;&gt;Node3</title>
<path fill="none" stroke="#191970" d="M123.2988,-56.3258C133.8272,-46.4127 145.5154,-35.4075 154.8571,-26.6118"/>
<polygon fill="#191970" stroke="#191970" points="157.4929,-28.9374 162.3742,-19.534 152.6943,-23.8409 157.4929,-28.9374"/>
</g>
</g>
</svg>
