<?xml version="1.0" encoding="UTF-8" standalone="no"?>
<!DOCTYPE svg PUBLIC "-//W3C//DTD SVG 1.1//EN"
 "http://www.w3.org/Graphics/SVG/1.1/DTD/svg11.dtd">
<!-- Generated by graphviz version 2.40.1 (20161225.0304)
 -->
<!-- Title: o2::eventgen::Pythia8Generator Pages: 1 -->
<svg width="346pt" height="314pt"
 viewBox="0.00 0.00 345.50 314.00" xmlns="http://www.w3.org/2000/svg" xmlns:xlink="http://www.w3.org/1999/xlink">
<g id="graph0" class="graph" transform="scale(1 1) rotate(0) translate(4 310)">
<title>o2::eventgen::Pythia8Generator</title>
<!-- Node2 -->
<g id="node1" class="node">
<title>Node2</title>
<polygon fill="#bfbfbf" stroke="#000000" points="80.5,-.5 80.5,-189.5 252.5,-189.5 252.5,-.5 80.5,-.5"/>
<text text-anchor="middle" x="166.5" y="-177.5" font-family="Helvetica,sans-Serif" font-size="10.00" fill="#000000">o2::eventgen::Pythia8Generator</text>
<polyline fill="none" stroke="#000000" points="80.5,-170.5 252.5,-170.5 "/>
<text text-anchor="middle" x="166.5" y="-158.5" font-family="Helvetica,sans-Serif" font-size="10.00" fill="#000000"> </text>
<polyline fill="none" stroke="#000000" points="80.5,-151.5 252.5,-151.5 "/>
<text text-anchor="start" x="88.5" y="-139.5" font-family="Helvetica,sans-Serif" font-size="10.00" fill="#000000">+ Pythia8Generator()</text>
<text text-anchor="start" x="88.5" y="-128.5" font-family="Helvetica,sans-Serif" font-size="10.00" fill="#000000">+ ~Pythia8Generator()</text>
<text text-anchor="start" x="88.5" y="-117.5" font-family="Helvetica,sans-Serif" font-size="10.00" fill="#000000">+ ReadEvent()</text>
<text text-anchor="start" x="88.5" y="-106.5" font-family="Helvetica,sans-Serif" font-size="10.00" fill="#000000">+ SetParameters()</text>
<text text-anchor="start" x="88.5" y="-95.5" font-family="Helvetica,sans-Serif" font-size="10.00" fill="#000000">+ Print()</text>
<text text-anchor="start" x="88.5" y="-84.5" font-family="Helvetica,sans-Serif" font-size="10.00" fill="#000000">+ Init()</text>
<text text-anchor="start" x="88.5" y="-73.5" font-family="Helvetica,sans-Serif" font-size="10.00" fill="#000000">+ SetMom()</text>
<text text-anchor="start" x="88.5" y="-62.5" font-family="Helvetica,sans-Serif" font-size="10.00" fill="#000000">+ SetId()</text>
<text text-anchor="start" x="88.5" y="-51.5" font-family="Helvetica,sans-Serif" font-size="10.00" fill="#000000">+ SetHNLId()</text>
<text text-anchor="start" x="88.5" y="-40.5" font-family="Helvetica,sans-Serif" font-size="10.00" fill="#000000">+ UseRandom1()</text>
<text text-anchor="start" x="88.5" y="-29.5" font-family="Helvetica,sans-Serif" font-size="10.00" fill="#000000">+ UseRandom3()</text>
<text text-anchor="start" x="88.5" y="-18.5" font-family="Helvetica,sans-Serif" font-size="10.00" fill="#000000">+ GetPythiaInstance()</text>
<text text-anchor="start" x="88.5" y="-7.5" font-family="Helvetica,sans-Serif" font-size="10.00" fill="#000000"># ClassDefOverride()</text>
</g>
<!-- Node3 -->
<g id="node2" class="node">
<title>Node3</title>
<g id="a_node2"><a xlink:href="../../df/d40/classFairGenerator.html" target="_top" xlink:title="{FairGenerator\n||}">
<polygon fill="none" stroke="#000000" points="0,-248.5 0,-305.5 83,-305.5 83,-248.5 0,-248.5"/>
<text text-anchor="middle" x="41.5" y="-293.5" font-family="Helvetica,sans-Serif" font-size="10.00" fill="#000000">FairGenerator</text>
<polyline fill="none" stroke="#000000" points="0,-286.5 83,-286.5 "/>
<text text-anchor="middle" x="41.5" y="-274.5" font-family="Helvetica,sans-Serif" font-size="10.00" fill="#000000"> </text>
<polyline fill="none" stroke="#000000" points="0,-267.5 83,-267.5 "/>
<text text-anchor="middle" x="41.5" y="-255.5" font-family="Helvetica,sans-Serif" font-size="10.00" fill="#000000"> </text>
</a>
</g>
</g>
<!-- Node3&#45;&gt;Node2 -->
<g id="edge1" class="edge">
<title>Node3&#45;&gt;Node2</title>
<path fill="none" stroke="#191970" d="M66.9874,-239.8904C77.0525,-225.2355 89.1195,-207.666 101.3228,-189.898"/>
<polygon fill="none" stroke="#191970" points="64.083,-237.937 61.3066,-248.1616 69.8532,-241.9 64.083,-237.937"/>
</g>
<!-- Node4 -->
<g id="node3" class="node">
<title>Node4</title>
<polygon fill="none" stroke="#bfbfbf" points="101.5,-248.5 101.5,-305.5 161.5,-305.5 161.5,-248.5 101.5,-248.5"/>
<text text-anchor="middle" x="131.5" y="-293.5" font-family="Helvetica,sans-Serif" font-size="10.00" fill="#000000">Double_t</text>
<polyline fill="none" stroke="#bfbfbf" points="101.5,-286.5 161.5,-286.5 "/>
<text text-anchor="middle" x="131.5" y="-274.5" font-family="Helvetica,sans-Serif" font-size="10.00" fill="#000000"> </text>
<polyline fill="none" stroke="#bfbfbf" points="101.5,-267.5 161.5,-267.5 "/>
<text text-anchor="middle" x="131.5" y="-255.5" font-family="Helvetica,sans-Serif" font-size="10.00" fill="#000000"> </text>
</g>
<!-- Node4&#45;&gt;Node2 -->
<g id="edge2" class="edge">
<title>Node4&#45;&gt;Node2</title>
<path fill="none" stroke="#404040" d="M130.7019,-248.3137C130.7745,-235.8571 131.4259,-221.1398 133.5,-208 133.8436,-205.8235 134.2167,-203.63 134.6163,-201.4246"/>
<polygon fill="none" stroke="#404040" points="134.638,-201.3158 131.8907,-194.6485 136.9885,-189.5483 139.7357,-196.2155 134.638,-201.3158"/>
<text text-anchor="middle" x="156.5" y="-216.5" font-family="Helvetica,sans-Serif" font-size="10.00" fill="#000000"> #mMom</text>
</g>
<!-- Node5 -->
<g id="node4" class="node">
<title>Node5</title>
<polygon fill="none" stroke="#bfbfbf" points="180,-248.5 180,-305.5 227,-305.5 227,-248.5 180,-248.5"/>
<text text-anchor="middle" x="203.5" y="-293.5" font-family="Helvetica,sans-Serif" font-size="10.00" fill="#000000">Bool_t</text>
<polyline fill="none" stroke="#bfbfbf" points="180,-286.5 227,-286.5 "/>
<text text-anchor="middle" x="203.5" y="-274.5" font-family="Helvetica,sans-Serif" font-size="10.00" fill="#000000"> </text>
<polyline fill="none" stroke="#bfbfbf" points="180,-267.5 227,-267.5 "/>
<text text-anchor="middle" x="203.5" y="-255.5" font-family="Helvetica,sans-Serif" font-size="10.00" fill="#000000"> </text>
</g>
<!-- Node5&#45;&gt;Node2 -->
<g id="edge3" class="edge">
<title>Node5&#45;&gt;Node2</title>
<path fill="none" stroke="#404040" d="M197.6372,-248.1616C194.9882,-235.1313 191.6771,-218.8439 188.2108,-201.7934"/>
<polygon fill="none" stroke="#404040" points="188.1832,-201.6574 183.068,-196.5746 185.7924,-189.898 190.9076,-194.9808 188.1832,-201.6574"/>
<text text-anchor="middle" x="237" y="-222" font-family="Helvetica,sans-Serif" font-size="10.00" fill="#000000"> #mUseRandom3</text>
<text text-anchor="middle" x="237" y="-211" font-family="Helvetica,sans-Serif" font-size="10.00" fill="#000000">#mUseRandom1</text>
</g>
<!-- Node6 -->
<g id="node5" class="node">
<title>Node6</title>
<polygon fill="none" stroke="#bfbfbf" points="292.5,-248.5 292.5,-305.5 330.5,-305.5 330.5,-248.5 292.5,-248.5"/>
<text text-anchor="middle" x="311.5" y="-293.5" font-family="Helvetica,sans-Serif" font-size="10.00" fill="#000000">Int_t</text>
<polyline fill="none" stroke="#bfbfbf" points="292.5,-286.5 330.5,-286.5 "/>
<text text-anchor="middle" x="311.5" y="-274.5" font-family="Helvetica,sans-Serif" font-size="10.00" fill="#000000"> </text>
<polyline fill="none" stroke="#bfbfbf" points="292.5,-267.5 330.5,-267.5 "/>
<text text-anchor="middle" x="311.5" y="-255.5" font-family="Helvetica,sans-Serif" font-size="10.00" fill="#000000"> </text>
</g>
<!-- Node6&#45;&gt;Node2 -->
<g id="edge4" class="edge">
<title>Node6&#45;&gt;Node2</title>
<path fill="none" stroke="#404040" d="M303.4409,-248.449C299.015,-235.4646 292.7305,-220.2921 284.5,-208 277.5636,-197.6407 269.5307,-187.5075 260.9822,-177.8283"/>
<polygon fill="none" stroke="#404040" points="260.7362,-177.5587 253.737,-175.823 252.6472,-168.6947 259.6463,-170.4304 260.7362,-177.5587"/>
<text text-anchor="middle" x="316.5" y="-222" font-family="Helvetica,sans-Serif" font-size="10.00" fill="#000000"> #mHNL</text>
<text text-anchor="middle" x="316.5" y="-211" font-family="Helvetica,sans-Serif" font-size="10.00" fill="#000000">#mId</text>
</g>
</g>
</svg>
