<?xml version="1.0" encoding="UTF-8" standalone="no"?>
<!DOCTYPE svg PUBLIC "-//W3C//DTD SVG 1.1//EN"
 "http://www.w3.org/Graphics/SVG/1.1/DTD/svg11.dtd">
<!-- Generated by graphviz version 2.40.1 (20161225.0304)
 -->
<!-- Title: /home/travis/build/AliceO2Group/AliceO2/Utilities/DataCompression/test/DataGenerator.h Pages: 1 -->
<svg width="274pt" height="117pt"
 viewBox="0.00 0.00 274.00 117.00" xmlns="http://www.w3.org/2000/svg" xmlns:xlink="http://www.w3.org/1999/xlink">
<g id="graph0" class="graph" transform="scale(1 1) rotate(0) translate(4 113)">
<title>/home/travis/build/AliceO2Group/AliceO2/Utilities/DataCompression/test/DataGenerator.h</title>
<!-- Node0 -->
<g id="node1" class="node">
<title>Node0</title>
<polygon fill="#bfbfbf" stroke="#000000" points="65.5,-56.5 65.5,-108.5 213.5,-108.5 213.5,-56.5 65.5,-56.5"/>
<text text-anchor="start" x="73.5" y="-96.5" font-family="Helvetica,sans-Serif" font-size="10.00" fill="#000000">/home/travis/build</text>
<text text-anchor="start" x="73.5" y="-85.5" font-family="Helvetica,sans-Serif" font-size="10.00" fill="#000000">/AliceO2Group/AliceO2</text>
<text text-anchor="start" x="73.5" y="-74.5" font-family="Helvetica,sans-Serif" font-size="10.00" fill="#000000">/Utilities/DataCompression</text>
<text text-anchor="middle" x="139.5" y="-63.5" font-family="Helvetica,sans-Serif" font-size="10.00" fill="#000000">/test/DataGenerator.h</text>
</g>
<!-- Node1 -->
<g id="node2" class="node">
<title>Node1</title>
<polygon fill="none" stroke="#bfbfbf" points="0,-.5 0,-19.5 65,-19.5 65,-.5 0,-.5"/>
<text text-anchor="middle" x="32.5" y="-7.5" font-family="Helvetica,sans-Serif" font-size="10.00" fill="#000000">stdexcept</text>
</g>
<!-- Node0&#45;&gt;Node1 -->
<g id="edge1" class="edge">
<title>Node0&#45;&gt;Node1</title>
<path fill="none" stroke="#191970" d="M100.8705,-56.3258C85.5012,-45.912 68.3533,-34.2931 55.0755,-25.2965"/>
<polygon fill="#191970" stroke="#191970" points="56.8128,-22.2459 46.5709,-19.534 52.8862,-28.0409 56.8128,-22.2459"/>
</g>
<!-- Node2 -->
<g id="node3" class="node">
<title>Node2</title>
<polygon fill="none" stroke="#bfbfbf" points="83,-.5 83,-19.5 128,-19.5 128,-.5 83,-.5"/>
<text text-anchor="middle" x="105.5" y="-7.5" font-family="Helvetica,sans-Serif" font-size="10.00" fill="#000000">utility</text>
</g>
<!-- Node0&#45;&gt;Node2 -->
<g id="edge2" class="edge">
<title>Node0&#45;&gt;Node2</title>
<path fill="none" stroke="#191970" d="M127.2252,-56.3258C122.952,-47.2138 118.246,-37.179 114.3098,-28.7857"/>
<polygon fill="#191970" stroke="#191970" points="117.386,-27.1018 109.9711,-19.534 111.0483,-30.0739 117.386,-27.1018"/>
</g>
<!-- Node3 -->
<g id="node4" class="node">
<title>Node3</title>
<polygon fill="none" stroke="#bfbfbf" points="146.5,-.5 146.5,-19.5 200.5,-19.5 200.5,-.5 146.5,-.5"/>
<text text-anchor="middle" x="173.5" y="-7.5" font-family="Helvetica,sans-Serif" font-size="10.00" fill="#000000">random</text>
</g>
<!-- Node0&#45;&gt;Node3 -->
<g id="edge3" class="edge">
<title>Node0&#45;&gt;Node3</title>
<path fill="none" stroke="#191970" d="M151.7748,-56.3258C156.048,-47.2138 160.754,-37.179 164.6902,-28.7857"/>
<polygon fill="#191970" stroke="#191970" points="167.9517,-30.0739 169.0289,-19.534 161.614,-27.1018 167.9517,-30.0739"/>
</g>
<!-- Node4 -->
<g id="node5" class="node">
<title>Node4</title>
<polygon fill="none" stroke="#bfbfbf" points="219,-.5 219,-19.5 266,-19.5 266,-.5 219,-.5"/>
<text text-anchor="middle" x="242.5" y="-7.5" font-family="Helvetica,sans-Serif" font-size="10.00" fill="#000000">cmath</text>
</g>
<!-- Node0&#45;&gt;Node4 -->
<g id="edge4" class="edge">
<title>Node0&#45;&gt;Node4</title>
<path fill="none" stroke="#191970" d="M176.6854,-56.3258C191.4801,-45.912 207.987,-34.2931 220.7685,-25.2965"/>
<polygon fill="#191970" stroke="#191970" points="222.7923,-28.152 228.9551,-19.534 218.7632,-22.4279 222.7923,-28.152"/>
</g>
</g>
</svg>
