<?xml version="1.0" encoding="UTF-8" standalone="no"?>
<!DOCTYPE svg PUBLIC "-//W3C//DTD SVG 1.1//EN"
 "http://www.w3.org/Graphics/SVG/1.1/DTD/svg11.dtd">
<!-- Generated by graphviz version 2.40.1 (20161225.0304)
 -->
<!-- Title: /home/travis/build/AliceO2Group/AliceO2/GPU/GPUTracking/TRDTracking/GPUTRDTrackletLabels.h Pages: 1 -->
<!--zoomable 150 -->
<svg id="main" version="1.1" xmlns="http://www.w3.org/2000/svg" xmlns:xlink="http://www.w3.org/1999/xlink" xml:space="preserve" onload="init(evt)">
<style type="text/css"><![CDATA[
.edge:hover path { stroke: red; }
.edge:hover polygon { stroke: red; fill: red; }
]]></style>
<script type="text/javascript"><![CDATA[
var edges = document.getElementsByTagName('g');
if (edges && edges.length) {
  for (var i=0;i<edges.length;i++) {
    if (edges[i].id.substr(0,4)=='edge') {
      edges[i].setAttribute('class','edge');
    }
  }
}
]]></script>
        <defs>
                <circle id="rim" cx="0" cy="0" r="7"/>
                <circle id="rim2" cx="0" cy="0" r="3.5"/>
                <g id="zoomPlus">
                        <use xlink:href="#rim" fill="#404040">
                                <set attributeName="fill" to="#808080" begin="zoomplus.mouseover" end="zoomplus.mouseout"/>
                        </use>
                        <path d="M-4,0h8M0,-4v8" fill="none" stroke="white" stroke-width="1.5" pointer-events="none"/>
                </g>
                <g id="zoomMin">
                        <use xlink:href="#rim" fill="#404040">
                                <set attributeName="fill" to="#808080" begin="zoomminus.mouseover" end="zoomminus.mouseout"/>
                        </use>
                        <path d="M-4,0h8" fill="none" stroke="white" stroke-width="1.5" pointer-events="none"/>
                </g>
                <g id="dirArrow">
                        <path fill="none" stroke="white" stroke-width="1.5" d="M0,-3.0v7 M-2.5,-0.5L0,-3.0L2.5,-0.5"/>
                </g>
               <g id="resetDef">
                       <use xlink:href="#rim2" fill="#404040">
                               <set attributeName="fill" to="#808080" begin="reset.mouseover" end="reset.mouseout"/>
                       </use>
               </g>
        </defs>

<script type="text/javascript">
var viewWidth = 1090;
var viewHeight = 150;
var sectionId = 'dynsection-0';
</script>
<script xlink:href="../../svgpan.js"/>
<svg id="graph" class="graph">
<g id="viewport">
<title>/home/travis/build/AliceO2Group/AliceO2/GPU/GPUTracking/TRDTracking/GPUTRDTrackletLabels.h</title>
<!-- Node1 -->
<g id="node1" class="node">
<title>Node1</title>
<polygon fill="#bfbfbf" stroke="#000000" points="430,-89.5 430,-141.5 599,-141.5 599,-89.5 430,-89.5"/>
<text text-anchor="start" x="438" y="-129.5" font-family="Helvetica,sans-Serif" font-size="10.00" fill="#000000">/home/travis/build</text>
<text text-anchor="start" x="438" y="-118.5" font-family="Helvetica,sans-Serif" font-size="10.00" fill="#000000">/AliceO2Group/AliceO2</text>
<text text-anchor="start" x="438" y="-107.5" font-family="Helvetica,sans-Serif" font-size="10.00" fill="#000000">/GPU/GPUTracking/TRDTracking</text>
<text text-anchor="middle" x="514.5" y="-96.5" font-family="Helvetica,sans-Serif" font-size="10.00" fill="#000000">/GPUTRDTrackletLabels.h</text>
</g>
<!-- Node2 -->
<g id="node2" class="node">
<title>Node2</title>
<g id="a_node2"><a xlink:href="../../da/df6/GPUReconstructionCPU_8cxx.html" target="_top" xlink:title="/home/travis/build\l/AliceO2Group/AliceO2\l/GPU/GPUTracking/Base\l/GPUReconstructionCPU.cxx">
<polygon fill="none" stroke="#000000" points="0,-.5 0,-52.5 153,-52.5 153,-.5 0,-.5"/>
<text text-anchor="start" x="8" y="-40.5" font-family="Helvetica,sans-Serif" font-size="10.00" fill="#000000">/home/travis/build</text>
<text text-anchor="start" x="8" y="-29.5" font-family="Helvetica,sans-Serif" font-size="10.00" fill="#000000">/AliceO2Group/AliceO2</text>
<text text-anchor="start" x="8" y="-18.5" font-family="Helvetica,sans-Serif" font-size="10.00" fill="#000000">/GPU/GPUTracking/Base</text>
<text text-anchor="middle" x="76.5" y="-7.5" font-family="Helvetica,sans-Serif" font-size="10.00" fill="#000000">/GPUReconstructionCPU.cxx</text>
</a>
</g>
</g>
<!-- Node1&#45;&gt;Node2 -->
<g id="edge1" class="edge">
<title>Node1&#45;&gt;Node2</title>
<path fill="none" stroke="#191970" d="M419.6745,-101.9074C348.4485,-90.915 248.7493,-73.8615 162.5,-53 159.4629,-52.2654 156.3755,-51.4839 153.2641,-50.6672"/>
<polygon fill="#191970" stroke="#191970" points="419.5569,-105.4301 429.9716,-103.485 420.617,-98.5109 419.5569,-105.4301"/>
</g>
<!-- Node3 -->
<g id="node3" class="node">
<title>Node3</title>
<g id="a_node3"><a xlink:href="../../df/d9c/AliHLTGPUDumpComponent_8cxx.html" target="_top" xlink:title="/home/travis/build\l/AliceO2Group/AliceO2\l/GPU/GPUTracking/Global\l/AliHLTGPUDumpComponent.cxx">
<polygon fill="none" stroke="#000000" points="171.5,-.5 171.5,-52.5 347.5,-52.5 347.5,-.5 171.5,-.5"/>
<text text-anchor="start" x="179.5" y="-40.5" font-family="Helvetica,sans-Serif" font-size="10.00" fill="#000000">/home/travis/build</text>
<text text-anchor="start" x="179.5" y="-29.5" font-family="Helvetica,sans-Serif" font-size="10.00" fill="#000000">/AliceO2Group/AliceO2</text>
<text text-anchor="start" x="179.5" y="-18.5" font-family="Helvetica,sans-Serif" font-size="10.00" fill="#000000">/GPU/GPUTracking/Global</text>
<text text-anchor="middle" x="259.5" y="-7.5" font-family="Helvetica,sans-Serif" font-size="10.00" fill="#000000">/AliHLTGPUDumpComponent.cxx</text>
</a>
</g>
</g>
<!-- Node1&#45;&gt;Node3 -->
<g id="edge2" class="edge">
<title>Node1&#45;&gt;Node3</title>
<path fill="none" stroke="#191970" d="M430.2303,-86.0882C399.2392,-75.2717 364.383,-63.1062 334.2841,-52.6011"/>
<polygon fill="#191970" stroke="#191970" points="429.1197,-89.4076 439.7146,-89.3984 431.4265,-82.7986 429.1197,-89.4076"/>
</g>
<!-- Node4 -->
<g id="node4" class="node">
<title>Node4</title>
<g id="a_node4"><a xlink:href="../../d2/d58/GPUChainTracking_8cxx.html" target="_top" xlink:title="/home/travis/build\l/AliceO2Group/AliceO2\l/GPU/GPUTracking/Global\l/GPUChainTracking.cxx">
<polygon fill="none" stroke="#000000" points="365.5,-.5 365.5,-52.5 505.5,-52.5 505.5,-.5 365.5,-.5"/>
<text text-anchor="start" x="373.5" y="-40.5" font-family="Helvetica,sans-Serif" font-size="10.00" fill="#000000">/home/travis/build</text>
<text text-anchor="start" x="373.5" y="-29.5" font-family="Helvetica,sans-Serif" font-size="10.00" fill="#000000">/AliceO2Group/AliceO2</text>
<text text-anchor="start" x="373.5" y="-18.5" font-family="Helvetica,sans-Serif" font-size="10.00" fill="#000000">/GPU/GPUTracking/Global</text>
<text text-anchor="middle" x="435.5" y="-7.5" font-family="Helvetica,sans-Serif" font-size="10.00" fill="#000000">/GPUChainTracking.cxx</text>
</a>
</g>
</g>
<!-- Node1&#45;&gt;Node4 -->
<g id="edge3" class="edge">
<title>Node1&#45;&gt;Node4</title>
<path fill="none" stroke="#191970" d="M484.5119,-81.7159C475.9295,-72.0472 466.7101,-61.6608 458.609,-52.5341"/>
<polygon fill="#191970" stroke="#191970" points="481.9687,-84.1231 491.2247,-89.2784 487.2038,-79.4762 481.9687,-84.1231"/>
</g>
<!-- Node5 -->
<g id="node5" class="node">
<title>Node5</title>
<g id="a_node5"><a xlink:href="../../d3/d85/GPUChainTrackingIO_8cxx.html" target="_top" xlink:title="/home/travis/build\l/AliceO2Group/AliceO2\l/GPU/GPUTracking/Global\l/GPUChainTrackingIO.cxx">
<polygon fill="none" stroke="#000000" points="523.5,-.5 523.5,-52.5 663.5,-52.5 663.5,-.5 523.5,-.5"/>
<text text-anchor="start" x="531.5" y="-40.5" font-family="Helvetica,sans-Serif" font-size="10.00" fill="#000000">/home/travis/build</text>
<text text-anchor="start" x="531.5" y="-29.5" font-family="Helvetica,sans-Serif" font-size="10.00" fill="#000000">/AliceO2Group/AliceO2</text>
<text text-anchor="start" x="531.5" y="-18.5" font-family="Helvetica,sans-Serif" font-size="10.00" fill="#000000">/GPU/GPUTracking/Global</text>
<text text-anchor="middle" x="593.5" y="-7.5" font-family="Helvetica,sans-Serif" font-size="10.00" fill="#000000">/GPUChainTrackingIO.cxx</text>
</a>
</g>
</g>
<!-- Node1&#45;&gt;Node5 -->
<g id="edge4" class="edge">
<title>Node1&#45;&gt;Node5</title>
<path fill="none" stroke="#191970" d="M544.4881,-81.7159C553.0705,-72.0472 562.2899,-61.6608 570.391,-52.5341"/>
<polygon fill="#191970" stroke="#191970" points="541.7962,-79.4762 537.7753,-89.2784 547.0313,-84.1231 541.7962,-79.4762"/>
</g>
<!-- Node6 -->
<g id="node6" class="node">
<title>Node6</title>
<g id="a_node6"><a xlink:href="../../db/dd1/GPUTRDTrackerComponent_8cxx.html" target="_top" xlink:title="A TRD tracker processing component for the GPU. ">
<polygon fill="none" stroke="#000000" points="682,-.5 682,-52.5 855,-52.5 855,-.5 682,-.5"/>
<text text-anchor="start" x="690" y="-40.5" font-family="Helvetica,sans-Serif" font-size="10.00" fill="#000000">/home/travis/build</text>
<text text-anchor="start" x="690" y="-29.5" font-family="Helvetica,sans-Serif" font-size="10.00" fill="#000000">/AliceO2Group/AliceO2</text>
<text text-anchor="start" x="690" y="-18.5" font-family="Helvetica,sans-Serif" font-size="10.00" fill="#000000">/GPU/GPUTracking/TRDTracking</text>
<text text-anchor="middle" x="768.5" y="-7.5" font-family="Helvetica,sans-Serif" font-size="10.00" fill="#000000">/GPUTRDTrackerComponent.cxx</text>
</a>
</g>
</g>
<!-- Node1&#45;&gt;Node6 -->
<g id="edge5" class="edge">
<title>Node1&#45;&gt;Node6</title>
<path fill="none" stroke="#191970" d="M598.4392,-86.0882C629.3088,-75.2717 664.0283,-63.1062 694.0092,-52.6011"/>
<polygon fill="#191970" stroke="#191970" points="597.2722,-82.7884 588.9921,-89.3984 599.587,-89.3946 597.2722,-82.7884"/>
</g>
<!-- Node7 -->
<g id="node7" class="node">
<title>Node7</title>
<g id="a_node7"><a xlink:href="../../d1/d64/GPUTRDTrackletReaderComponent_8cxx.html" target="_top" xlink:title="A pre&#45;processing component for TRD tracking/trigger data on FEP&#45;level. ">
<polygon fill="none" stroke="#000000" points="873,-.5 873,-52.5 1082,-52.5 1082,-.5 873,-.5"/>
<text text-anchor="start" x="881" y="-40.5" font-family="Helvetica,sans-Serif" font-size="10.00" fill="#000000">/home/travis/build</text>
<text text-anchor="start" x="881" y="-29.5" font-family="Helvetica,sans-Serif" font-size="10.00" fill="#000000">/AliceO2Group/AliceO2</text>
<text text-anchor="start" x="881" y="-18.5" font-family="Helvetica,sans-Serif" font-size="10.00" fill="#000000">/GPU/GPUTracking/TRDTracking</text>
<text text-anchor="middle" x="977.5" y="-7.5" font-family="Helvetica,sans-Serif" font-size="10.00" fill="#000000">/GPUTRDTrackletReaderComponent.cxx</text>
</a>
</g>
</g>
<!-- Node1&#45;&gt;Node7 -->
<g id="edge6" class="edge">
<title>Node1&#45;&gt;Node7</title>
<path fill="none" stroke="#191970" d="M609.4582,-99.9599C680.0094,-88.0704 778.506,-70.7481 864.5,-53 867.2628,-52.4298 870.0614,-51.8427 872.8836,-51.2423"/>
<polygon fill="#191970" stroke="#191970" points="608.5383,-96.5653 599.2566,-101.6741 609.6983,-103.4685 608.5383,-96.5653"/>
</g>
</g>
</svg>
        <g id="navigator" transform="translate(0 0)" fill="#404254">
                <rect fill="#f2f5e9" fill-opacity="0.5" stroke="#606060" stroke-width=".5" x="0" y="0" width="60" height="60"/>
                <use id="zoomplus" xlink:href="#zoomPlus" x="17" y="9" onmousedown="handleZoom(evt,'in')"/>
                <use id="zoomminus" xlink:href="#zoomMin" x="42" y="9" onmousedown="handleZoom(evt,'out')"/>
                <use id="reset" xlink:href="#resetDef" x="30" y="36" onmousedown="handleReset()"/>
                <g id="arrowUp" xlink:href="#dirArrow" transform="translate(30 24)" onmousedown="handlePan(0,-1)">
                  <use xlink:href="#rim" fill="#404040">
                        <set attributeName="fill" to="#808080" begin="arrowUp.mouseover" end="arrowUp.mouseout"/>
                  </use>
                  <path fill="none" stroke="white" stroke-width="1.5" d="M0,-3.0v7 M-2.5,-0.5L0,-3.0L2.5,-0.5"/>
                </g>
                <g id="arrowRight" xlink:href="#dirArrow" transform="rotate(90) translate(36 -43)" onmousedown="handlePan(1,0)">
                  <use xlink:href="#rim" fill="#404040">
                        <set attributeName="fill" to="#808080" begin="arrowRight.mouseover" end="arrowRight.mouseout"/>
                  </use>
                  <path fill="none" stroke="white" stroke-width="1.5" d="M0,-3.0v7 M-2.5,-0.5L0,-3.0L2.5,-0.5"/>
                </g>
                <g id="arrowDown" xlink:href="#dirArrow" transform="rotate(180) translate(-30 -48)" onmousedown="handlePan(0,1)">
                  <use xlink:href="#rim" fill="#404040">
                        <set attributeName="fill" to="#808080" begin="arrowDown.mouseover" end="arrowDown.mouseout"/>
                  </use>
                  <path fill="none" stroke="white" stroke-width="1.5" d="M0,-3.0v7 M-2.5,-0.5L0,-3.0L2.5,-0.5"/>
                </g>
                <g id="arrowLeft" xlink:href="#dirArrow" transform="rotate(270) translate(-36 17)" onmousedown="handlePan(-1,0)">
                  <use xlink:href="#rim" fill="#404040">
                        <set attributeName="fill" to="#808080" begin="arrowLeft.mouseover" end="arrowLeft.mouseout"/>
                  </use>
                  <path fill="none" stroke="white" stroke-width="1.5" d="M0,-3.0v7 M-2.5,-0.5L0,-3.0L2.5,-0.5"/>
                </g>
        </g>
        <svg viewBox="0 0 15 15" width="100%" height="30px" preserveAspectRatio="xMaxYMin meet">
         <g id="arrow_out" transform="scale(0.3 0.3)">
          <a xlink:href="GPUTRDTrackletLabels_8h__dep__incl_org.svg" target="_base">
           <rect id="button" ry="5" rx="5" y="6" x="6" height="38" width="38"
                fill="#f2f5e9" fill-opacity="0.5" stroke="#606060" stroke-width="1.0"/>
           <path id="arrow"
             d="M 11.500037,31.436501 C 11.940474,20.09759 22.043105,11.32322 32.158766,21.979434 L 37.068811,17.246167 C 37.068811,17.246167 37.088388,32 37.088388,32 L 22.160133,31.978069 C 22.160133,31.978069 26.997745,27.140456 26.997745,27.140456 C 18.528582,18.264221 13.291696,25.230495 11.500037,31.436501 z"
             style="fill:#404040;"/>
          </a>
         </g>
        </svg>
</svg>
