<?xml version="1.0" encoding="UTF-8" standalone="no"?>
<!DOCTYPE svg PUBLIC "-//W3C//DTD SVG 1.1//EN"
 "http://www.w3.org/Graphics/SVG/1.1/DTD/svg11.dtd">
<!-- Generated by graphviz version 2.40.1 (20161225.0304)
 -->
<!-- Title: /home/travis/build/AliceO2Group/AliceO2/Detectors/TRD/simulation/src/TRsim.cxx Pages: 1 -->
<svg width="649pt" height="173pt"
 viewBox="0.00 0.00 648.50 173.00" xmlns="http://www.w3.org/2000/svg" xmlns:xlink="http://www.w3.org/1999/xlink">
<g id="graph0" class="graph" transform="scale(1 1) rotate(0) translate(4 169)">
<title>/home/travis/build/AliceO2Group/AliceO2/Detectors/TRD/simulation/src/TRsim.cxx</title>
<!-- Node0 -->
<g id="node1" class="node">
<title>Node0</title>
<polygon fill="#bfbfbf" stroke="#000000" points="159,-112.5 159,-164.5 304,-164.5 304,-112.5 159,-112.5"/>
<text text-anchor="start" x="167" y="-152.5" font-family="Helvetica,sans-Serif" font-size="10.00" fill="#000000">/home/travis/build</text>
<text text-anchor="start" x="167" y="-141.5" font-family="Helvetica,sans-Serif" font-size="10.00" fill="#000000">/AliceO2Group/AliceO2</text>
<text text-anchor="start" x="167" y="-130.5" font-family="Helvetica,sans-Serif" font-size="10.00" fill="#000000">/Detectors/TRD/simulation</text>
<text text-anchor="middle" x="231.5" y="-119.5" font-family="Helvetica,sans-Serif" font-size="10.00" fill="#000000">/src/TRsim.cxx</text>
</g>
<!-- Node1 -->
<g id="node2" class="node">
<title>Node1</title>
<polygon fill="none" stroke="#bfbfbf" points="0,-56.5 0,-75.5 45,-75.5 45,-56.5 0,-56.5"/>
<text text-anchor="middle" x="22.5" y="-63.5" font-family="Helvetica,sans-Serif" font-size="10.00" fill="#000000">TH1.h</text>
</g>
<!-- Node0&#45;&gt;Node1 -->
<g id="edge1" class="edge">
<title>Node0&#45;&gt;Node1</title>
<path fill="none" stroke="#191970" d="M158.9885,-113.3465C123.4973,-101.0349 82.558,-86.8335 54.8459,-77.2205"/>
<polygon fill="#191970" stroke="#191970" points="55.864,-73.8691 45.2692,-73.8984 53.5698,-80.4825 55.864,-73.8691"/>
</g>
<!-- Node2 -->
<g id="node3" class="node">
<title>Node2</title>
<polygon fill="none" stroke="#bfbfbf" points="63.5,-56.5 63.5,-75.5 135.5,-75.5 135.5,-56.5 63.5,-56.5"/>
<text text-anchor="middle" x="99.5" y="-63.5" font-family="Helvetica,sans-Serif" font-size="10.00" fill="#000000">TRandom.h</text>
</g>
<!-- Node0&#45;&gt;Node2 -->
<g id="edge2" class="edge">
<title>Node0&#45;&gt;Node2</title>
<path fill="none" stroke="#191970" d="M183.845,-112.3258C164.3377,-101.6116 142.508,-89.6218 125.9447,-80.5246"/>
<polygon fill="#191970" stroke="#191970" points="127.3084,-77.2804 116.8585,-75.534 123.9385,-83.4159 127.3084,-77.2804"/>
</g>
<!-- Node3 -->
<g id="node4" class="node">
<title>Node3</title>
<polygon fill="none" stroke="#bfbfbf" points="259.5,-.5 259.5,-19.5 315.5,-19.5 315.5,-.5 259.5,-.5"/>
<text text-anchor="middle" x="287.5" y="-7.5" font-family="Helvetica,sans-Serif" font-size="10.00" fill="#000000">TMath.h</text>
</g>
<!-- Node0&#45;&gt;Node3 -->
<g id="edge3" class="edge">
<title>Node0&#45;&gt;Node3</title>
<path fill="none" stroke="#191970" d="M199.6797,-112.1383C183.8722,-95.7652 170.4686,-74.4062 182.5,-56 197.2683,-33.4068 225.8591,-21.8417 249.4815,-15.961"/>
<polygon fill="#191970" stroke="#191970" points="250.2536,-19.3749 259.2464,-13.7732 248.7231,-12.5442 250.2536,-19.3749"/>
</g>
<!-- Node4 -->
<g id="node5" class="node">
<title>Node4</title>
<polygon fill="none" stroke="#bfbfbf" points="192,-56.5 192,-75.5 271,-75.5 271,-56.5 192,-56.5"/>
<text text-anchor="middle" x="231.5" y="-63.5" font-family="Helvetica,sans-Serif" font-size="10.00" fill="#000000">TVirtualMC.h</text>
</g>
<!-- Node0&#45;&gt;Node4 -->
<g id="edge4" class="edge">
<title>Node0&#45;&gt;Node4</title>
<path fill="none" stroke="#191970" d="M231.5,-112.3258C231.5,-103.5142 231.5,-93.8397 231.5,-85.621"/>
<polygon fill="#191970" stroke="#191970" points="235.0001,-85.534 231.5,-75.534 228.0001,-85.534 235.0001,-85.534"/>
</g>
<!-- Node5 -->
<g id="node6" class="node">
<title>Node5</title>
<polygon fill="none" stroke="#bfbfbf" points="288.5,-56.5 288.5,-75.5 394.5,-75.5 394.5,-56.5 288.5,-56.5"/>
<text text-anchor="middle" x="341.5" y="-63.5" font-family="Helvetica,sans-Serif" font-size="10.00" fill="#000000">TVirtualMCStack.h</text>
</g>
<!-- Node0&#45;&gt;Node5 -->
<g id="edge5" class="edge">
<title>Node0&#45;&gt;Node5</title>
<path fill="none" stroke="#191970" d="M271.2125,-112.3258C287.1647,-101.8119 304.9806,-90.0696 318.6842,-81.0377"/>
<polygon fill="#191970" stroke="#191970" points="320.6111,-83.9595 327.0346,-75.534 316.7589,-78.1148 320.6111,-83.9595"/>
</g>
<!-- Node6 -->
<g id="node7" class="node">
<title>Node6</title>
<g id="a_node7"><a xlink:href="../../df/db2/TRsim_8h.html" target="_top" xlink:title="TRDSimulation/TRsim.h">
<polygon fill="none" stroke="#000000" points="412.5,-56.5 412.5,-75.5 544.5,-75.5 544.5,-56.5 412.5,-56.5"/>
<text text-anchor="middle" x="478.5" y="-63.5" font-family="Helvetica,sans-Serif" font-size="10.00" fill="#000000">TRDSimulation/TRsim.h</text>
</a>
</g>
</g>
<!-- Node0&#45;&gt;Node6 -->
<g id="edge6" class="edge">
<title>Node0&#45;&gt;Node6</title>
<path fill="none" stroke="#191970" d="M304.2722,-117.1397C347.1964,-104.5405 400.0161,-89.0368 436.1732,-78.4239"/>
<polygon fill="#191970" stroke="#191970" points="437.2979,-81.7415 445.9074,-75.5667 435.3264,-75.0248 437.2979,-81.7415"/>
</g>
<!-- Node9 -->
<g id="node10" class="node">
<title>Node9</title>
<polygon fill="none" stroke="#bfbfbf" points="562.5,-56.5 562.5,-75.5 640.5,-75.5 640.5,-56.5 562.5,-56.5"/>
<text text-anchor="middle" x="601.5" y="-63.5" font-family="Helvetica,sans-Serif" font-size="10.00" fill="#000000">FairModule.h</text>
</g>
<!-- Node0&#45;&gt;Node9 -->
<g id="edge10" class="edge">
<title>Node0&#45;&gt;Node9</title>
<path fill="none" stroke="#191970" d="M304.1306,-124.6963C367.1339,-112.6548 461.0589,-94.5423 552.4931,-76.1839"/>
<polygon fill="#191970" stroke="#191970" points="553.3627,-79.5792 562.4764,-74.1764 551.9827,-72.7166 553.3627,-79.5792"/>
</g>
<!-- Node6&#45;&gt;Node3 -->
<g id="edge7" class="edge">
<title>Node6&#45;&gt;Node3</title>
<path fill="none" stroke="#191970" d="M445.6659,-56.3733C412.2715,-46.5822 360.5737,-31.4247 325.4457,-21.1254"/>
<polygon fill="#191970" stroke="#191970" points="326.1417,-17.6822 315.5609,-18.2273 324.1722,-24.3995 326.1417,-17.6822"/>
</g>
<!-- Node7 -->
<g id="node8" class="node">
<title>Node7</title>
<polygon fill="none" stroke="#bfbfbf" points="425.5,-.5 425.5,-19.5 467.5,-19.5 467.5,-.5 425.5,-.5"/>
<text text-anchor="middle" x="446.5" y="-7.5" font-family="Helvetica,sans-Serif" font-size="10.00" fill="#000000">array</text>
</g>
<!-- Node6&#45;&gt;Node7 -->
<g id="edge8" class="edge">
<title>Node6&#45;&gt;Node7</title>
<path fill="none" stroke="#191970" d="M472.926,-56.2455C468.5669,-48.617 462.3789,-37.7881 457.0867,-28.5267"/>
<polygon fill="#191970" stroke="#191970" points="460.0104,-26.5886 452.0101,-19.6427 453.9327,-30.0616 460.0104,-26.5886"/>
</g>
<!-- Node8 -->
<g id="node9" class="node">
<title>Node8</title>
<polygon fill="none" stroke="#bfbfbf" points="486,-.5 486,-19.5 533,-19.5 533,-.5 486,-.5"/>
<text text-anchor="middle" x="509.5" y="-7.5" font-family="Helvetica,sans-Serif" font-size="10.00" fill="#000000">vector</text>
</g>
<!-- Node6&#45;&gt;Node8 -->
<g id="edge9" class="edge">
<title>Node6&#45;&gt;Node8</title>
<path fill="none" stroke="#191970" d="M483.8998,-56.2455C488.1227,-48.617 494.1173,-37.7881 499.2441,-28.5267"/>
<polygon fill="#191970" stroke="#191970" points="502.381,-30.0867 504.1621,-19.6427 496.2568,-26.6965 502.381,-30.0867"/>
</g>
</g>
</svg>
