<?xml version="1.0" encoding="UTF-8" standalone="no"?>
<!DOCTYPE svg PUBLIC "-//W3C//DTD SVG 1.1//EN"
 "http://www.w3.org/Graphics/SVG/1.1/DTD/svg11.dtd">
<!-- Generated by graphviz version 2.40.1 (20161225.0304)
 -->
<!-- Title: o2::framework::OutputObj&lt; T &gt; Pages: 1 -->
<svg width="626pt" height="463pt"
 viewBox="0.00 0.00 626.00 463.00" xmlns="http://www.w3.org/2000/svg" xmlns:xlink="http://www.w3.org/1999/xlink">
<g id="graph0" class="graph" transform="scale(1 1) rotate(0) translate(4 459)">
<title>o2::framework::OutputObj&lt; T &gt;</title>
<!-- Node8 -->
<g id="node1" class="node">
<title>Node8</title>
<polygon fill="#bfbfbf" stroke="#000000" points="203,-.5 203,-156.5 375,-156.5 375,-.5 203,-.5"/>
<text text-anchor="middle" x="289" y="-144.5" font-family="Helvetica,sans-Serif" font-size="10.00" fill="#000000">o2::framework::OutputObj&lt; T &gt;</text>
<polyline fill="none" stroke="#000000" points="203,-137.5 375,-137.5 "/>
<text text-anchor="middle" x="289" y="-125.5" font-family="Helvetica,sans-Serif" font-size="10.00" fill="#000000"> </text>
<polyline fill="none" stroke="#000000" points="203,-118.5 375,-118.5 "/>
<text text-anchor="start" x="211" y="-106.5" font-family="Helvetica,sans-Serif" font-size="10.00" fill="#000000">+ OutputObj()</text>
<text text-anchor="start" x="211" y="-95.5" font-family="Helvetica,sans-Serif" font-size="10.00" fill="#000000">+ OutputObj()</text>
<text text-anchor="start" x="211" y="-84.5" font-family="Helvetica,sans-Serif" font-size="10.00" fill="#000000">+ setObject()</text>
<text text-anchor="start" x="211" y="-73.5" font-family="Helvetica,sans-Serif" font-size="10.00" fill="#000000">+ setObject()</text>
<text text-anchor="start" x="211" y="-62.5" font-family="Helvetica,sans-Serif" font-size="10.00" fill="#000000">+ setObject()</text>
<text text-anchor="start" x="211" y="-51.5" font-family="Helvetica,sans-Serif" font-size="10.00" fill="#000000">+ setHash()</text>
<text text-anchor="start" x="211" y="-40.5" font-family="Helvetica,sans-Serif" font-size="10.00" fill="#000000">+ spec()</text>
<text text-anchor="start" x="211" y="-29.5" font-family="Helvetica,sans-Serif" font-size="10.00" fill="#000000">+ operator&#45;&gt;()</text>
<text text-anchor="start" x="211" y="-18.5" font-family="Helvetica,sans-Serif" font-size="10.00" fill="#000000">+ operator*()</text>
<text text-anchor="start" x="211" y="-7.5" font-family="Helvetica,sans-Serif" font-size="10.00" fill="#000000">+ ref()</text>
</g>
<!-- Node9 -->
<g id="node2" class="node">
<title>Node9</title>
<polygon fill="none" stroke="#bfbfbf" points="0,-232 0,-289 56,-289 56,-232 0,-232"/>
<text text-anchor="middle" x="28" y="-277" font-family="Helvetica,sans-Serif" font-size="10.00" fill="#000000">uint32_t</text>
<polyline fill="none" stroke="#bfbfbf" points="0,-270 56,-270 "/>
<text text-anchor="middle" x="28" y="-258" font-family="Helvetica,sans-Serif" font-size="10.00" fill="#000000"> </text>
<polyline fill="none" stroke="#bfbfbf" points="0,-251 56,-251 "/>
<text text-anchor="middle" x="28" y="-239" font-family="Helvetica,sans-Serif" font-size="10.00" fill="#000000"> </text>
</g>
<!-- Node9&#45;&gt;Node8 -->
<g id="edge1" class="edge">
<title>Node9&#45;&gt;Node8</title>
<path fill="none" stroke="#404040" d="M43.1321,-231.78C49.088,-222.1965 56.5385,-211.9465 65,-204 101.7668,-169.4711 149.7926,-140.9478 191.9417,-119.8668"/>
<polygon fill="none" stroke="#404040" points="192.033,-119.822 195.655,-113.5865 202.8039,-114.5316 199.1819,-120.7671 192.033,-119.822"/>
<text text-anchor="middle" x="132" y="-178" font-family="Helvetica,sans-Serif" font-size="10.00" fill="#000000"> +mTaskHash</text>
</g>
<!-- Node10 -->
<g id="node3" class="node">
<title>Node10</title>
<polygon fill="none" stroke="#bfbfbf" points="74.5,-232 74.5,-289 213.5,-289 213.5,-232 74.5,-232"/>
<text text-anchor="middle" x="144" y="-277" font-family="Helvetica,sans-Serif" font-size="10.00" fill="#000000">OutputObjHandlingPolicy</text>
<polyline fill="none" stroke="#bfbfbf" points="74.5,-270 213.5,-270 "/>
<text text-anchor="middle" x="144" y="-258" font-family="Helvetica,sans-Serif" font-size="10.00" fill="#000000"> </text>
<polyline fill="none" stroke="#bfbfbf" points="74.5,-251 213.5,-251 "/>
<text text-anchor="middle" x="144" y="-239" font-family="Helvetica,sans-Serif" font-size="10.00" fill="#000000"> </text>
</g>
<!-- Node10&#45;&gt;Node8 -->
<g id="edge2" class="edge">
<title>Node10&#45;&gt;Node8</title>
<path fill="none" stroke="#404040" d="M158.9545,-231.7012C168.3741,-214.5881 181.3118,-192.8183 195,-175 197.2775,-172.0354 199.637,-169.0647 202.0595,-166.1004"/>
<polygon fill="none" stroke="#404040" points="202.2651,-165.8558 203.064,-158.689 209.9867,-156.67 209.1878,-163.8367 202.2651,-165.8558"/>
<text text-anchor="middle" x="215.5" y="-178" font-family="Helvetica,sans-Serif" font-size="10.00" fill="#000000"> +policy</text>
</g>
<!-- Node11 -->
<g id="node4" class="node">
<title>Node11</title>
<polygon fill="none" stroke="#bfbfbf" points="255.5,-381 255.5,-438 284.5,-438 284.5,-381 255.5,-381"/>
<text text-anchor="middle" x="270" y="-426" font-family="Helvetica,sans-Serif" font-size="10.00" fill="#000000">int</text>
<polyline fill="none" stroke="#bfbfbf" points="255.5,-419 284.5,-419 "/>
<text text-anchor="middle" x="270" y="-407" font-family="Helvetica,sans-Serif" font-size="10.00" fill="#000000"> </text>
<polyline fill="none" stroke="#bfbfbf" points="255.5,-400 284.5,-400 "/>
<text text-anchor="middle" x="270" y="-388" font-family="Helvetica,sans-Serif" font-size="10.00" fill="#000000"> </text>
</g>
<!-- Node11&#45;&gt;Node8 -->
<g id="edge3" class="edge">
<title>Node11&#45;&gt;Node8</title>
<path fill="none" stroke="#404040" d="M265.7032,-380.8286C263.1915,-362.5995 260.2722,-338.4713 259,-317 256.0295,-266.8657 253.1214,-253.877 259,-204 260.3668,-192.4032 262.4208,-180.3259 264.8254,-168.4446"/>
<polygon fill="none" stroke="#404040" points="264.8368,-168.3908 262.1732,-161.6896 267.3344,-156.6536 269.998,-163.3547 264.8368,-168.3908"/>
<text text-anchor="middle" x="277" y="-258" font-family="Helvetica,sans-Serif" font-size="10.00" fill="#000000"> +label</text>
</g>
<!-- Node14 -->
<g id="node7" class="node">
<title>Node14</title>
<g id="a_node7"><a xlink:href="../../da/d96/structo2_1_1framework_1_1InputSpec.html" target="_top" xlink:title="{o2::framework::InputSpec\n||+ InputSpec()\l+ InputSpec()\l+ InputSpec()\l+ InputSpec()\l+ InputSpec()\l+ operator==()\l}">
<polygon fill="none" stroke="#000000" points="304,-204.5 304,-316.5 446,-316.5 446,-204.5 304,-204.5"/>
<text text-anchor="middle" x="375" y="-304.5" font-family="Helvetica,sans-Serif" font-size="10.00" fill="#000000">o2::framework::InputSpec</text>
<polyline fill="none" stroke="#000000" points="304,-297.5 446,-297.5 "/>
<text text-anchor="middle" x="375" y="-285.5" font-family="Helvetica,sans-Serif" font-size="10.00" fill="#000000"> </text>
<polyline fill="none" stroke="#000000" points="304,-278.5 446,-278.5 "/>
<text text-anchor="start" x="312" y="-266.5" font-family="Helvetica,sans-Serif" font-size="10.00" fill="#000000">+ InputSpec()</text>
<text text-anchor="start" x="312" y="-255.5" font-family="Helvetica,sans-Serif" font-size="10.00" fill="#000000">+ InputSpec()</text>
<text text-anchor="start" x="312" y="-244.5" font-family="Helvetica,sans-Serif" font-size="10.00" fill="#000000">+ InputSpec()</text>
<text text-anchor="start" x="312" y="-233.5" font-family="Helvetica,sans-Serif" font-size="10.00" fill="#000000">+ InputSpec()</text>
<text text-anchor="start" x="312" y="-222.5" font-family="Helvetica,sans-Serif" font-size="10.00" fill="#000000">+ InputSpec()</text>
<text text-anchor="start" x="312" y="-211.5" font-family="Helvetica,sans-Serif" font-size="10.00" fill="#000000">+ operator==()</text>
</a>
</g>
</g>
<!-- Node11&#45;&gt;Node14 -->
<g id="edge9" class="edge">
<title>Node11&#45;&gt;Node14</title>
<path fill="none" stroke="#404040" d="M284.6542,-385.6902C293.9232,-370.9031 306.3199,-351.615 318,-335 319.9756,-332.1897 322.0126,-329.3367 324.0875,-326.4672"/>
<polygon fill="none" stroke="#404040" points="324.1622,-326.3652 324.4813,-319.1611 331.2539,-316.6849 330.9348,-323.8889 324.1622,-326.3652"/>
<text text-anchor="middle" x="342" y="-338" font-family="Helvetica,sans-Serif" font-size="10.00" fill="#000000"> +binding</text>
</g>
<!-- Node12 -->
<g id="node5" class="node">
<title>Node12</title>
<polygon fill="none" stroke="#bfbfbf" points="464.5,-232 464.5,-289 561.5,-289 561.5,-232 464.5,-232"/>
<text text-anchor="middle" x="513" y="-277" font-family="Helvetica,sans-Serif" font-size="10.00" fill="#000000">shared_ptr&lt; T &gt;</text>
<polyline fill="none" stroke="#bfbfbf" points="464.5,-270 561.5,-270 "/>
<text text-anchor="middle" x="513" y="-258" font-family="Helvetica,sans-Serif" font-size="10.00" fill="#000000"> </text>
<polyline fill="none" stroke="#bfbfbf" points="464.5,-251 561.5,-251 "/>
<text text-anchor="middle" x="513" y="-239" font-family="Helvetica,sans-Serif" font-size="10.00" fill="#000000"> </text>
</g>
<!-- Node12&#45;&gt;Node8 -->
<g id="edge4" class="edge">
<title>Node12&#45;&gt;Node8</title>
<path fill="none" stroke="#404040" d="M485.0525,-231.8941C475.7278,-222.7276 465.1291,-212.7031 455,-204 432.8422,-184.9616 408.1207,-165.4295 384.6656,-147.6148"/>
<polygon fill="none" stroke="#404040" points="384.6289,-147.5871 377.4303,-147.1631 375.053,-140.355 382.2517,-140.7791 384.6289,-147.5871"/>
<text text-anchor="middle" x="454" y="-178" font-family="Helvetica,sans-Serif" font-size="10.00" fill="#000000"> +object</text>
</g>
<!-- Node13 -->
<g id="node6" class="node">
<title>Node13</title>
<polygon fill="none" stroke="#bfbfbf" points="580,-232 580,-289 618,-289 618,-232 580,-232"/>
<text text-anchor="middle" x="599" y="-277" font-family="Helvetica,sans-Serif" font-size="10.00" fill="#000000">bool</text>
<polyline fill="none" stroke="#bfbfbf" points="580,-270 618,-270 "/>
<text text-anchor="middle" x="599" y="-258" font-family="Helvetica,sans-Serif" font-size="10.00" fill="#000000"> </text>
<polyline fill="none" stroke="#bfbfbf" points="580,-251 618,-251 "/>
<text text-anchor="middle" x="599" y="-239" font-family="Helvetica,sans-Serif" font-size="10.00" fill="#000000"> </text>
</g>
<!-- Node13&#45;&gt;Node8 -->
<g id="edge5" class="edge">
<title>Node13&#45;&gt;Node8</title>
<path fill="none" stroke="#404040" d="M589.4106,-231.8629C585.0199,-222.0642 578.9785,-211.655 571,-204 519.7949,-154.8713 446.1087,-122.9883 386.9002,-103.655"/>
<polygon fill="none" stroke="#404040" points="386.6982,-103.5908 379.7682,-105.5844 375.2625,-99.9542 382.1925,-97.9606 386.6982,-103.5908"/>
<text text-anchor="middle" x="576" y="-178" font-family="Helvetica,sans-Serif" font-size="10.00" fill="#000000"> +isdangling</text>
</g>
<!-- Node14&#45;&gt;Node8 -->
<g id="edge6" class="edge">
<title>Node14&#45;&gt;Node8</title>
<path fill="none" stroke="#404040" d="M348.4954,-204.4089C342.9987,-192.7764 337.0781,-180.2467 331.1782,-167.7608"/>
<polygon fill="none" stroke="#404040" points="331.1367,-167.6729 324.9567,-163.957 326.0099,-156.8232 332.1899,-160.5391 331.1367,-167.6729"/>
<text text-anchor="middle" x="356" y="-178" font-family="Helvetica,sans-Serif" font-size="10.00" fill="#000000"> +spec</text>
</g>
<!-- Node15 -->
<g id="node8" class="node">
<title>Node15</title>
<polygon fill="none" stroke="#bfbfbf" points="323,-381 323,-438 411,-438 411,-381 323,-381"/>
<text text-anchor="middle" x="367" y="-426" font-family="Helvetica,sans-Serif" font-size="10.00" fill="#000000">enum Lifetime</text>
<polyline fill="none" stroke="#bfbfbf" points="323,-419 411,-419 "/>
<text text-anchor="middle" x="367" y="-407" font-family="Helvetica,sans-Serif" font-size="10.00" fill="#000000"> </text>
<polyline fill="none" stroke="#bfbfbf" points="323,-400 411,-400 "/>
<text text-anchor="middle" x="367" y="-388" font-family="Helvetica,sans-Serif" font-size="10.00" fill="#000000"> </text>
</g>
<!-- Node15&#45;&gt;Node14 -->
<g id="edge7" class="edge">
<title>Node15&#45;&gt;Node14</title>
<path fill="none" stroke="#404040" d="M368.5425,-380.7713C369.3395,-365.9277 370.3489,-347.1262 371.3315,-328.825"/>
<polygon fill="none" stroke="#404040" points="371.3442,-328.5877 367.6717,-322.3818 371.9877,-316.6049 375.6602,-322.8108 371.3442,-328.5877"/>
<text text-anchor="middle" x="396" y="-338" font-family="Helvetica,sans-Serif" font-size="10.00" fill="#000000"> +lifetime</text>
</g>
<!-- Node16 -->
<g id="node9" class="node">
<title>Node16</title>
<polygon fill="none" stroke="#bfbfbf" points="429,-364.5 429,-454.5 593,-454.5 593,-364.5 429,-364.5"/>
<text text-anchor="start" x="437" y="-442.5" font-family="Helvetica,sans-Serif" font-size="10.00" fill="#000000">variant&lt; o2::framework</text>
<text text-anchor="start" x="437" y="-431.5" font-family="Helvetica,sans-Serif" font-size="10.00" fill="#000000">::ConcreteDataMatcher,</text>
<text text-anchor="start" x="437" y="-420.5" font-family="Helvetica,sans-Serif" font-size="10.00" fill="#000000"> o2::framework::data_matcher</text>
<text text-anchor="middle" x="511" y="-409.5" font-family="Helvetica,sans-Serif" font-size="10.00" fill="#000000">::DataDescriptorMatcher &gt;</text>
<polyline fill="none" stroke="#bfbfbf" points="429,-402.5 593,-402.5 "/>
<text text-anchor="middle" x="511" y="-390.5" font-family="Helvetica,sans-Serif" font-size="10.00" fill="#000000"> </text>
<polyline fill="none" stroke="#bfbfbf" points="429,-383.5 593,-383.5 "/>
<text text-anchor="middle" x="511" y="-371.5" font-family="Helvetica,sans-Serif" font-size="10.00" fill="#000000"> </text>
</g>
<!-- Node16&#45;&gt;Node14 -->
<g id="edge8" class="edge">
<title>Node16&#45;&gt;Node14</title>
<path fill="none" stroke="#404040" d="M469.8264,-364.3907C458.6467,-352.1423 446.3147,-338.6316 434.3463,-325.5191"/>
<polygon fill="none" stroke="#404040" points="434.2271,-325.3885 427.2278,-323.6535 426.1372,-316.5254 433.1365,-318.2603 434.2271,-325.3885"/>
<text text-anchor="middle" x="477" y="-338" font-family="Helvetica,sans-Serif" font-size="10.00" fill="#000000"> +matcher</text>
</g>
</g>
</svg>
