<?xml version="1.0" encoding="UTF-8" standalone="no"?>
<!DOCTYPE svg PUBLIC "-//W3C//DTD SVG 1.1//EN"
 "http://www.w3.org/Graphics/SVG/1.1/DTD/svg11.dtd">
<!-- Generated by graphviz version 2.40.1 (20161225.0304)
 -->
<!-- Title: /home/travis/build/AliceO2Group/AliceO2/Generators/src/Generator.cxx Pages: 1 -->
<svg width="683pt" height="218pt"
 viewBox="0.00 0.00 683.32 218.00" xmlns="http://www.w3.org/2000/svg" xmlns:xlink="http://www.w3.org/1999/xlink">
<g id="graph0" class="graph" transform="scale(1 1) rotate(0) translate(4 214)">
<title>/home/travis/build/AliceO2Group/AliceO2/Generators/src/Generator.cxx</title>
<!-- Node0 -->
<g id="node1" class="node">
<title>Node0</title>
<polygon fill="#bfbfbf" stroke="#000000" points="264.8249,-168.5 264.8249,-209.5 426.8249,-209.5 426.8249,-168.5 264.8249,-168.5"/>
<text text-anchor="start" x="272.8249" y="-197.5" font-family="Helvetica,sans-Serif" font-size="10.00" fill="#000000">/home/travis/build</text>
<text text-anchor="start" x="272.8249" y="-186.5" font-family="Helvetica,sans-Serif" font-size="10.00" fill="#000000">/AliceO2Group/AliceO2</text>
<text text-anchor="middle" x="345.8249" y="-175.5" font-family="Helvetica,sans-Serif" font-size="10.00" fill="#000000">/Generators/src/Generator.cxx</text>
</g>
<!-- Node1 -->
<g id="node2" class="node">
<title>Node1</title>
<g id="a_node2"><a xlink:href="../../d9/d12/Generator_8h.html" target="_top" xlink:title="Generators/Generator.h">
<polygon fill="none" stroke="#000000" points="93.3249,-112.5 93.3249,-131.5 224.3249,-131.5 224.3249,-112.5 93.3249,-112.5"/>
<text text-anchor="middle" x="158.8249" y="-119.5" font-family="Helvetica,sans-Serif" font-size="10.00" fill="#000000">Generators/Generator.h</text>
</a>
</g>
</g>
<!-- Node0&#45;&gt;Node1 -->
<g id="edge1" class="edge">
<title>Node0&#45;&gt;Node1</title>
<path fill="none" stroke="#191970" d="M288.4479,-168.4425C257.9838,-157.5275 221.4741,-144.4465 194.9763,-134.9527"/>
<polygon fill="#191970" stroke="#191970" points="195.939,-131.5798 185.3445,-131.5017 193.5779,-138.1696 195.939,-131.5798"/>
</g>
<!-- Node3 -->
<g id="node4" class="node">
<title>Node3</title>
<polygon fill="none" stroke="#bfbfbf" points="98.8249,-.5 98.8249,-19.5 166.8249,-19.5 166.8249,-.5 98.8249,-.5"/>
<text text-anchor="middle" x="132.8249" y="-7.5" font-family="Helvetica,sans-Serif" font-size="10.00" fill="#000000">TParticle.h</text>
</g>
<!-- Node0&#45;&gt;Node3 -->
<g id="edge13" class="edge">
<title>Node0&#45;&gt;Node3</title>
<path fill="none" stroke="#191970" d="M264.7344,-179.8088C211.6251,-171.7727 141.6103,-157.2854 83.8249,-132 44.0637,-114.6016 23.8679,-114.4958 3.8249,-76 -15.4141,-39.0486 44.2175,-22.2855 88.7311,-15.0544"/>
<polygon fill="#191970" stroke="#191970" points="89.4477,-18.4859 98.8136,-13.533 88.4033,-11.5643 89.4477,-18.4859"/>
</g>
<!-- Node4 -->
<g id="node5" class="node">
<title>Node4</title>
<g id="a_node5"><a xlink:href="../../d7/dac/Trigger_8h.html" target="_top" xlink:title="Generators/Trigger.h">
<polygon fill="none" stroke="#000000" points="226.3249,-56.5 226.3249,-75.5 341.3249,-75.5 341.3249,-56.5 226.3249,-56.5"/>
<text text-anchor="middle" x="283.8249" y="-63.5" font-family="Helvetica,sans-Serif" font-size="10.00" fill="#000000">Generators/Trigger.h</text>
</a>
</g>
</g>
<!-- Node0&#45;&gt;Node4 -->
<g id="edge8" class="edge">
<title>Node0&#45;&gt;Node4</title>
<path fill="none" stroke="#191970" d="M306.9349,-168.4734C293.5805,-159.2543 280.1577,-147.0291 272.8249,-132 265.6808,-117.3579 269.6661,-98.9499 274.7305,-85.2969"/>
<polygon fill="#191970" stroke="#191970" points="278.0206,-86.5008 278.6471,-75.9245 271.5619,-83.8017 278.0206,-86.5008"/>
</g>
<!-- Node7 -->
<g id="node8" class="node">
<title>Node7</title>
<polygon fill="none" stroke="#bfbfbf" points="281.3249,-112.5 281.3249,-131.5 410.3249,-131.5 410.3249,-112.5 281.3249,-112.5"/>
<text text-anchor="middle" x="345.8249" y="-119.5" font-family="Helvetica,sans-Serif" font-size="10.00" fill="#000000">FairPrimaryGenerator.h</text>
</g>
<!-- Node0&#45;&gt;Node7 -->
<g id="edge9" class="edge">
<title>Node0&#45;&gt;Node7</title>
<path fill="none" stroke="#191970" d="M345.8249,-168.168C345.8249,-159.8226 345.8249,-150.2471 345.8249,-141.9879"/>
<polygon fill="#191970" stroke="#191970" points="349.325,-141.7804 345.8249,-131.7805 342.325,-141.7805 349.325,-141.7804"/>
</g>
<!-- Node8 -->
<g id="node9" class="node">
<title>Node8</title>
<polygon fill="none" stroke="#bfbfbf" points="428.3249,-112.5 428.3249,-131.5 503.3249,-131.5 503.3249,-112.5 428.3249,-112.5"/>
<text text-anchor="middle" x="465.8249" y="-119.5" font-family="Helvetica,sans-Serif" font-size="10.00" fill="#000000">FairLogger.h</text>
</g>
<!-- Node0&#45;&gt;Node8 -->
<g id="edge10" class="edge">
<title>Node0&#45;&gt;Node8</title>
<path fill="none" stroke="#191970" d="M382.808,-168.3511C401.1142,-158.1301 422.7898,-146.0279 439.4013,-136.7532"/>
<polygon fill="#191970" stroke="#191970" points="441.508,-139.5856 448.533,-131.6546 438.0955,-133.4737 441.508,-139.5856"/>
</g>
<!-- Node9 -->
<g id="node10" class="node">
<title>Node9</title>
<polygon fill="none" stroke="#bfbfbf" points="521.3249,-112.5 521.3249,-131.5 568.3249,-131.5 568.3249,-112.5 521.3249,-112.5"/>
<text text-anchor="middle" x="544.8249" y="-119.5" font-family="Helvetica,sans-Serif" font-size="10.00" fill="#000000">cmath</text>
</g>
<!-- Node0&#45;&gt;Node9 -->
<g id="edge11" class="edge">
<title>Node0&#45;&gt;Node9</title>
<path fill="none" stroke="#191970" d="M406.8838,-168.4425C441.428,-156.812 483.2771,-142.7221 511.757,-133.1334"/>
<polygon fill="#191970" stroke="#191970" points="512.8788,-136.4488 521.2393,-129.9409 510.6452,-129.8147 512.8788,-136.4488"/>
</g>
<!-- Node10 -->
<g id="node11" class="node">
<title>Node10</title>
<polygon fill="none" stroke="#bfbfbf" points="586.3249,-112.5 586.3249,-131.5 675.3249,-131.5 675.3249,-112.5 586.3249,-112.5"/>
<text text-anchor="middle" x="630.8249" y="-119.5" font-family="Helvetica,sans-Serif" font-size="10.00" fill="#000000">TClonesArray.h</text>
</g>
<!-- Node0&#45;&gt;Node10 -->
<g id="edge12" class="edge">
<title>Node0&#45;&gt;Node10</title>
<path fill="none" stroke="#191970" d="M427.113,-169.8902C476.4636,-158.2884 537.9076,-143.8437 580.3373,-133.869"/>
<polygon fill="#191970" stroke="#191970" points="581.2257,-137.2557 590.1593,-131.56 579.6237,-130.4414 581.2257,-137.2557"/>
</g>
<!-- Node2 -->
<g id="node3" class="node">
<title>Node2</title>
<polygon fill="none" stroke="#bfbfbf" points="13.3249,-56.5 13.3249,-75.5 104.3249,-75.5 104.3249,-56.5 13.3249,-56.5"/>
<text text-anchor="middle" x="58.8249" y="-63.5" font-family="Helvetica,sans-Serif" font-size="10.00" fill="#000000">FairGenerator.h</text>
</g>
<!-- Node1&#45;&gt;Node2 -->
<g id="edge2" class="edge">
<title>Node1&#45;&gt;Node2</title>
<path fill="none" stroke="#191970" d="M141.4062,-112.2455C125.7763,-103.4928 102.623,-90.527 84.8063,-80.5496"/>
<polygon fill="#191970" stroke="#191970" points="86.4791,-77.475 76.0439,-75.6427 83.0589,-83.5825 86.4791,-77.475"/>
</g>
<!-- Node1&#45;&gt;Node3 -->
<g id="edge3" class="edge">
<title>Node1&#45;&gt;Node3</title>
<path fill="none" stroke="#191970" d="M156.6081,-112.4509C152.3484,-94.1013 142.9442,-53.5908 137.3213,-29.3693"/>
<polygon fill="#191970" stroke="#191970" points="140.7067,-28.4744 135.036,-19.5249 133.888,-30.0573 140.7067,-28.4744"/>
</g>
<!-- Node1&#45;&gt;Node4 -->
<g id="edge4" class="edge">
<title>Node1&#45;&gt;Node4</title>
<path fill="none" stroke="#191970" d="M180.3131,-112.3733C200.4689,-103.3435 230.8129,-89.7494 253.4429,-79.6111"/>
<polygon fill="#191970" stroke="#191970" points="254.9219,-82.7838 262.617,-75.5011 252.06,-76.3955 254.9219,-82.7838"/>
</g>
<!-- Node6 -->
<g id="node7" class="node">
<title>Node6</title>
<polygon fill="none" stroke="#bfbfbf" points="161.3249,-56.5 161.3249,-75.5 208.3249,-75.5 208.3249,-56.5 161.3249,-56.5"/>
<text text-anchor="middle" x="184.8249" y="-63.5" font-family="Helvetica,sans-Serif" font-size="10.00" fill="#000000">vector</text>
</g>
<!-- Node1&#45;&gt;Node6 -->
<g id="edge7" class="edge">
<title>Node1&#45;&gt;Node6</title>
<path fill="none" stroke="#191970" d="M163.3537,-112.2455C166.8582,-104.6973 171.8175,-94.0158 176.0871,-84.8197"/>
<polygon fill="#191970" stroke="#191970" points="179.3113,-86.1867 180.3479,-75.6427 172.9622,-83.2389 179.3113,-86.1867"/>
</g>
<!-- Node4&#45;&gt;Node3 -->
<g id="edge6" class="edge">
<title>Node4&#45;&gt;Node3</title>
<path fill="none" stroke="#191970" d="M257.867,-56.3733C233.0841,-47.1822 195.5502,-33.2624 168.0708,-23.0713"/>
<polygon fill="#191970" stroke="#191970" points="169.037,-19.6968 158.444,-19.5011 166.6029,-26.26 169.037,-19.6968"/>
</g>
<!-- Node5 -->
<g id="node6" class="node">
<title>Node5</title>
<polygon fill="none" stroke="#bfbfbf" points="251.3249,-.5 251.3249,-19.5 316.3249,-19.5 316.3249,-.5 251.3249,-.5"/>
<text text-anchor="middle" x="283.8249" y="-7.5" font-family="Helvetica,sans-Serif" font-size="10.00" fill="#000000">functional</text>
</g>
<!-- Node4&#45;&gt;Node5 -->
<g id="edge5" class="edge">
<title>Node4&#45;&gt;Node5</title>
<path fill="none" stroke="#191970" d="M283.8249,-56.2455C283.8249,-48.9382 283.8249,-38.6944 283.8249,-29.7046"/>
<polygon fill="#191970" stroke="#191970" points="287.325,-29.6426 283.8249,-19.6427 280.325,-29.6427 287.325,-29.6426"/>
</g>
</g>
</svg>
