<?xml version="1.0" encoding="UTF-8" standalone="no"?>
<!DOCTYPE svg PUBLIC "-//W3C//DTD SVG 1.1//EN"
 "http://www.w3.org/Graphics/SVG/1.1/DTD/svg11.dtd">
<!-- Generated by graphviz version 2.40.1 (20161225.0304)
 -->
<!-- Title: o2::soa::CombinationsBlockUpperIndexPolicy&lt; T, Ts &gt; Pages: 1 -->
<!--zoomable 851 -->
<svg id="main" version="1.1" xmlns="http://www.w3.org/2000/svg" xmlns:xlink="http://www.w3.org/1999/xlink" xml:space="preserve" onload="init(evt)">
<style type="text/css"><![CDATA[
.edge:hover path { stroke: red; }
.edge:hover polygon { stroke: red; fill: red; }
]]></style>
<script type="text/javascript"><![CDATA[
var edges = document.getElementsByTagName('g');
if (edges && edges.length) {
  for (var i=0;i<edges.length;i++) {
    if (edges[i].id.substr(0,4)=='edge') {
      edges[i].setAttribute('class','edge');
    }
  }
}
]]></script>
        <defs>
                <circle id="rim" cx="0" cy="0" r="7"/>
                <circle id="rim2" cx="0" cy="0" r="3.5"/>
                <g id="zoomPlus">
                        <use xlink:href="#rim" fill="#404040">
                                <set attributeName="fill" to="#808080" begin="zoomplus.mouseover" end="zoomplus.mouseout"/>
                        </use>
                        <path d="M-4,0h8M0,-4v8" fill="none" stroke="white" stroke-width="1.5" pointer-events="none"/>
                </g>
                <g id="zoomMin">
                        <use xlink:href="#rim" fill="#404040">
                                <set attributeName="fill" to="#808080" begin="zoomminus.mouseover" end="zoomminus.mouseout"/>
                        </use>
                        <path d="M-4,0h8" fill="none" stroke="white" stroke-width="1.5" pointer-events="none"/>
                </g>
                <g id="dirArrow">
                        <path fill="none" stroke="white" stroke-width="1.5" d="M0,-3.0v7 M-2.5,-0.5L0,-3.0L2.5,-0.5"/>
                </g>
               <g id="resetDef">
                       <use xlink:href="#rim2" fill="#404040">
                               <set attributeName="fill" to="#808080" begin="reset.mouseover" end="reset.mouseout"/>
                       </use>
               </g>
        </defs>

<script type="text/javascript">
var viewWidth = 946;
var viewHeight = 851;
var sectionId = 'dynsection-1';
</script>
<script xlink:href="../../svgpan.js"/>
<svg id="graph" class="graph">
<g id="viewport">
<title>o2::soa::CombinationsBlockUpperIndexPolicy&lt; T, Ts &gt;</title>
<!-- Node5 -->
<g id="node1" class="node">
<title>Node5</title>
<polygon fill="#bfbfbf" stroke="#000000" points="162.5,-.5 162.5,-101.5 341.5,-101.5 341.5,-.5 162.5,-.5"/>
<text text-anchor="start" x="170.5" y="-89.5" font-family="Helvetica,sans-Serif" font-size="10.00" fill="#000000">o2::soa::CombinationsBlock</text>
<text text-anchor="middle" x="252" y="-78.5" font-family="Helvetica,sans-Serif" font-size="10.00" fill="#000000">UpperIndexPolicy&lt; T, Ts &gt;</text>
<polyline fill="none" stroke="#000000" points="162.5,-71.5 341.5,-71.5 "/>
<text text-anchor="middle" x="252" y="-59.5" font-family="Helvetica,sans-Serif" font-size="10.00" fill="#000000"> </text>
<polyline fill="none" stroke="#000000" points="162.5,-52.5 341.5,-52.5 "/>
<text text-anchor="start" x="170.5" y="-40.5" font-family="Helvetica,sans-Serif" font-size="10.00" fill="#000000">+ CombinationsBlockUpperIndex</text>
<text text-anchor="start" x="170.5" y="-29.5" font-family="Helvetica,sans-Serif" font-size="10.00" fill="#000000">Policy()</text>
<text text-anchor="start" x="170.5" y="-18.5" font-family="Helvetica,sans-Serif" font-size="10.00" fill="#000000">+ setRanges()</text>
<text text-anchor="start" x="170.5" y="-7.5" font-family="Helvetica,sans-Serif" font-size="10.00" fill="#000000">+ addOne()</text>
</g>
<!-- Node6 -->
<g id="node2" class="node">
<title>Node6</title>
<g id="a_node2"><a xlink:href="../../d0/d11/structo2_1_1soa_1_1CombinationsBlockIndexPolicyBase.html" target="_top" xlink:title="{o2::soa::CombinationsBlock\lIndexPolicyBase\&lt; T, Ts... \&gt;\n||+ CombinationsBlockIndexPolicyBase()\l}">
<polygon fill="none" stroke="#000000" points="147,-139.5 147,-207.5 357,-207.5 357,-139.5 147,-139.5"/>
<text text-anchor="start" x="155" y="-195.5" font-family="Helvetica,sans-Serif" font-size="10.00" fill="#000000">o2::soa::CombinationsBlock</text>
<text text-anchor="middle" x="252" y="-184.5" font-family="Helvetica,sans-Serif" font-size="10.00" fill="#000000">IndexPolicyBase&lt; T, Ts... &gt;</text>
<polyline fill="none" stroke="#000000" points="147,-177.5 357,-177.5 "/>
<text text-anchor="middle" x="252" y="-165.5" font-family="Helvetica,sans-Serif" font-size="10.00" fill="#000000"> </text>
<polyline fill="none" stroke="#000000" points="147,-158.5 357,-158.5 "/>
<text text-anchor="start" x="155" y="-146.5" font-family="Helvetica,sans-Serif" font-size="10.00" fill="#000000">+ CombinationsBlockIndexPolicyBase()</text>
</a>
</g>
</g>
<!-- Node6&#45;&gt;Node5 -->
<g id="edge1" class="edge">
<title>Node6&#45;&gt;Node5</title>
<path fill="none" stroke="#191970" d="M252,-129.2437C252,-120.3671 252,-110.9733 252,-101.8923"/>
<polygon fill="none" stroke="#191970" points="248.5001,-129.3769 252,-139.3769 255.5001,-129.377 248.5001,-129.3769"/>
</g>
<!-- Node7 -->
<g id="node3" class="node">
<title>Node7</title>
<g id="a_node3"><a xlink:href="../../de/dac/structo2_1_1soa_1_1CombinationsIndexPolicyBase.html" target="_top" xlink:title="{o2::soa::CombinationsIndex\lPolicyBase\&lt; Ts... \&gt;\n||+ CombinationsIndexPolicyBase()\l+ moveToEnd()\l+ addOne()\l}">
<polygon fill="none" stroke="#000000" points="513.5,-371.5 513.5,-461.5 696.5,-461.5 696.5,-371.5 513.5,-371.5"/>
<text text-anchor="start" x="521.5" y="-449.5" font-family="Helvetica,sans-Serif" font-size="10.00" fill="#000000">o2::soa::CombinationsIndex</text>
<text text-anchor="middle" x="605" y="-438.5" font-family="Helvetica,sans-Serif" font-size="10.00" fill="#000000">PolicyBase&lt; Ts... &gt;</text>
<polyline fill="none" stroke="#000000" points="513.5,-431.5 696.5,-431.5 "/>
<text text-anchor="middle" x="605" y="-419.5" font-family="Helvetica,sans-Serif" font-size="10.00" fill="#000000"> </text>
<polyline fill="none" stroke="#000000" points="513.5,-412.5 696.5,-412.5 "/>
<text text-anchor="start" x="521.5" y="-400.5" font-family="Helvetica,sans-Serif" font-size="10.00" fill="#000000">+ CombinationsIndexPolicyBase()</text>
<text text-anchor="start" x="521.5" y="-389.5" font-family="Helvetica,sans-Serif" font-size="10.00" fill="#000000">+ moveToEnd()</text>
<text text-anchor="start" x="521.5" y="-378.5" font-family="Helvetica,sans-Serif" font-size="10.00" fill="#000000">+ addOne()</text>
</a>
</g>
</g>
<!-- Node7&#45;&gt;Node6 -->
<g id="edge2" class="edge">
<title>Node7&#45;&gt;Node6</title>
<path fill="none" stroke="#191970" d="M613.2409,-360.8249C615.1046,-326.3347 611.0897,-283.3603 586,-255 555.8934,-220.9688 443.4615,-198.5896 357.2751,-186.0397"/>
<polygon fill="none" stroke="#191970" points="609.7189,-361.005 612.4906,-371.2308 616.7008,-361.5085 609.7189,-361.005"/>
</g>
<!-- Node15 -->
<g id="node11" class="node">
<title>Node15</title>
<g id="a_node11"><a xlink:href="../../d0/d11/structo2_1_1soa_1_1CombinationsBlockIndexPolicyBase.html" target="_top" xlink:title="{o2::soa::CombinationsBlock\lIndexPolicyBase\&lt; T, Ts \&gt;\n||+ CombinationsBlockIndexPolicyBase()\l}">
<polygon fill="none" stroke="#000000" points="367,-255.5 367,-323.5 577,-323.5 577,-255.5 367,-255.5"/>
<text text-anchor="start" x="375" y="-311.5" font-family="Helvetica,sans-Serif" font-size="10.00" fill="#000000">o2::soa::CombinationsBlock</text>
<text text-anchor="middle" x="472" y="-300.5" font-family="Helvetica,sans-Serif" font-size="10.00" fill="#000000">IndexPolicyBase&lt; T, Ts &gt;</text>
<polyline fill="none" stroke="#000000" points="367,-293.5 577,-293.5 "/>
<text text-anchor="middle" x="472" y="-281.5" font-family="Helvetica,sans-Serif" font-size="10.00" fill="#000000"> </text>
<polyline fill="none" stroke="#000000" points="367,-274.5 577,-274.5 "/>
<text text-anchor="start" x="375" y="-262.5" font-family="Helvetica,sans-Serif" font-size="10.00" fill="#000000">+ CombinationsBlockIndexPolicyBase()</text>
</a>
</g>
</g>
<!-- Node7&#45;&gt;Node15 -->
<g id="edge15" class="edge">
<title>Node7&#45;&gt;Node15</title>
<path fill="none" stroke="#191970" d="M550.3214,-364.2881C535.985,-350.5985 520.8912,-336.1856 507.822,-323.706"/>
<polygon fill="none" stroke="#191970" points="548.0852,-366.9922 557.7347,-371.367 552.9195,-361.9296 548.0852,-366.9922"/>
</g>
<!-- Node8 -->
<g id="node4" class="node">
<title>Node8</title>
<polygon fill="none" stroke="#bfbfbf" points="746.5,-658.5 746.5,-726.5 861.5,-726.5 861.5,-658.5 746.5,-658.5"/>
<text text-anchor="start" x="754.5" y="-714.5" font-family="Helvetica,sans-Serif" font-size="10.00" fill="#000000">tuple&lt; typename Ts</text>
<text text-anchor="middle" x="804" y="-703.5" font-family="Helvetica,sans-Serif" font-size="10.00" fill="#000000">::iterator... &gt;</text>
<polyline fill="none" stroke="#bfbfbf" points="746.5,-696.5 861.5,-696.5 "/>
<text text-anchor="middle" x="804" y="-684.5" font-family="Helvetica,sans-Serif" font-size="10.00" fill="#000000"> </text>
<polyline fill="none" stroke="#bfbfbf" points="746.5,-677.5 861.5,-677.5 "/>
<text text-anchor="middle" x="804" y="-665.5" font-family="Helvetica,sans-Serif" font-size="10.00" fill="#000000"> </text>
</g>
<!-- Node8&#45;&gt;Node7 -->
<g id="edge3" class="edge">
<title>Node8&#45;&gt;Node7</title>
<path fill="none" stroke="#404040" d="M833.2373,-658.36C838.0008,-652.364 842.7587,-646.0913 847,-640 877.7799,-595.7945 894.2062,-564.5995 864,-520 829.2697,-468.7205 764.5919,-442.8459 708.5607,-429.7909"/>
<polygon fill="none" stroke="#404040" points="708.4697,-429.771 701.7509,-432.3898 696.7494,-427.1952 703.4681,-424.5763 708.4697,-429.771"/>
<text text-anchor="middle" x="909" y="-563" font-family="Helvetica,sans-Serif" font-size="10.00" fill="#000000"> +mCurrent</text>
</g>
<!-- Node12 -->
<g id="node8" class="node">
<title>Node12</title>
<g id="a_node8"><a xlink:href="../../de/dac/structo2_1_1soa_1_1CombinationsIndexPolicyBase.html" target="_top" xlink:title="{o2::soa::CombinationsIndex\lPolicyBase\&lt; Ts \&gt;\n||+ CombinationsIndexPolicyBase()\l+ moveToEnd()\l+ addOne()\l}">
<polygon fill="none" stroke="#000000" points="671.5,-520.5 671.5,-610.5 854.5,-610.5 854.5,-520.5 671.5,-520.5"/>
<text text-anchor="start" x="679.5" y="-598.5" font-family="Helvetica,sans-Serif" font-size="10.00" fill="#000000">o2::soa::CombinationsIndex</text>
<text text-anchor="middle" x="763" y="-587.5" font-family="Helvetica,sans-Serif" font-size="10.00" fill="#000000">PolicyBase&lt; Ts &gt;</text>
<polyline fill="none" stroke="#000000" points="671.5,-580.5 854.5,-580.5 "/>
<text text-anchor="middle" x="763" y="-568.5" font-family="Helvetica,sans-Serif" font-size="10.00" fill="#000000"> </text>
<polyline fill="none" stroke="#000000" points="671.5,-561.5 854.5,-561.5 "/>
<text text-anchor="start" x="679.5" y="-549.5" font-family="Helvetica,sans-Serif" font-size="10.00" fill="#000000">+ CombinationsIndexPolicyBase()</text>
<text text-anchor="start" x="679.5" y="-538.5" font-family="Helvetica,sans-Serif" font-size="10.00" fill="#000000">+ moveToEnd()</text>
<text text-anchor="start" x="679.5" y="-527.5" font-family="Helvetica,sans-Serif" font-size="10.00" fill="#000000">+ addOne()</text>
</a>
</g>
</g>
<!-- Node8&#45;&gt;Node12 -->
<g id="edge8" class="edge">
<title>Node8&#45;&gt;Node12</title>
<path fill="none" stroke="#404040" d="M793.0128,-658.4663C789.4177,-647.3304 785.3211,-634.6409 781.3349,-622.2934"/>
<polygon fill="none" stroke="#404040" points="781.2536,-622.0415 775.6037,-617.5606 777.5669,-610.6219 783.2168,-615.1028 781.2536,-622.0415"/>
<text text-anchor="middle" x="814" y="-632" font-family="Helvetica,sans-Serif" font-size="10.00" fill="#000000"> +mCurrent</text>
</g>
<!-- Node9 -->
<g id="node5" class="node">
<title>Node9</title>
<polygon fill="none" stroke="#bfbfbf" points="665,-664 665,-721 703,-721 703,-664 665,-664"/>
<text text-anchor="middle" x="684" y="-709" font-family="Helvetica,sans-Serif" font-size="10.00" fill="#000000">bool</text>
<polyline fill="none" stroke="#bfbfbf" points="665,-702 703,-702 "/>
<text text-anchor="middle" x="684" y="-690" font-family="Helvetica,sans-Serif" font-size="10.00" fill="#000000"> </text>
<polyline fill="none" stroke="#bfbfbf" points="665,-683 703,-683 "/>
<text text-anchor="middle" x="684" y="-671" font-family="Helvetica,sans-Serif" font-size="10.00" fill="#000000"> </text>
</g>
<!-- Node9&#45;&gt;Node7 -->
<g id="edge4" class="edge">
<title>Node9&#45;&gt;Node7</title>
<path fill="none" stroke="#404040" d="M664.8721,-676.638C648.3439,-661.6468 625.509,-637.5459 615,-611 597.7241,-567.3609 596.243,-513.8617 598.5072,-474.0254"/>
<polygon fill="none" stroke="#404040" points="598.52,-473.8367 594.9382,-467.5781 599.3377,-461.8646 602.9196,-468.1232 598.52,-473.8367"/>
<text text-anchor="middle" x="639" y="-563" font-family="Helvetica,sans-Serif" font-size="10.00" fill="#000000"> +mIsEnd</text>
</g>
<!-- Node9&#45;&gt;Node12 -->
<g id="edge9" class="edge">
<title>Node9&#45;&gt;Node12</title>
<path fill="none" stroke="#404040" d="M701.7291,-663.9987C709.563,-651.4051 719.0582,-636.1405 728.2112,-621.4263"/>
<polygon fill="none" stroke="#404040" points="728.4484,-621.0449 728.2211,-613.8374 734.7868,-610.8554 735.0141,-618.063 728.4484,-621.0449"/>
<text text-anchor="middle" x="747" y="-632" font-family="Helvetica,sans-Serif" font-size="10.00" fill="#000000"> +mIsEnd</text>
</g>
<!-- Node10 -->
<g id="node6" class="node">
<title>Node10</title>
<g id="a_node6"><a xlink:href="../../dd/da8/structo2_1_1soa_1_1NTupleType.html" target="_top" xlink:title="{o2::soa::NTupleType\l\&lt; uint64_t, sizeof...(Ts)\&gt;\n||}">
<polygon fill="none" stroke="#000000" points="376.5,-658.5 376.5,-726.5 513.5,-726.5 513.5,-658.5 376.5,-658.5"/>
<text text-anchor="start" x="384.5" y="-714.5" font-family="Helvetica,sans-Serif" font-size="10.00" fill="#000000">o2::soa::NTupleType</text>
<text text-anchor="middle" x="445" y="-703.5" font-family="Helvetica,sans-Serif" font-size="10.00" fill="#000000">&lt; uint64_t, sizeof...(Ts)&gt;</text>
<polyline fill="none" stroke="#000000" points="376.5,-696.5 513.5,-696.5 "/>
<text text-anchor="middle" x="445" y="-684.5" font-family="Helvetica,sans-Serif" font-size="10.00" fill="#000000"> </text>
<polyline fill="none" stroke="#000000" points="376.5,-677.5 513.5,-677.5 "/>
<text text-anchor="middle" x="445" y="-665.5" font-family="Helvetica,sans-Serif" font-size="10.00" fill="#000000"> </text>
</a>
</g>
</g>
<!-- Node10&#45;&gt;Node6 -->
<g id="edge13" class="edge">
<title>Node10&#45;&gt;Node6</title>
<path fill="none" stroke="#404040" d="M376.444,-687.2081C251.6179,-675.6724 0,-642.8288 0,-565.5 0,-565.5 0,-565.5 0,-289.5 0,-257.1846 69.2436,-226.8741 135.137,-205.346"/>
<polygon fill="none" stroke="#404040" points="135.5249,-205.2219 140.0204,-199.5836 146.9541,-201.5647 142.4586,-207.2031 135.5249,-205.2219"/>
<text text-anchor="middle" x="46" y="-419.5" font-family="Helvetica,sans-Serif" font-size="10.00" fill="#000000"> +mCurrentIndices</text>
<text text-anchor="middle" x="46" y="-408.5" font-family="Helvetica,sans-Serif" font-size="10.00" fill="#000000">+mBeginIndices</text>
</g>
<!-- Node10&#45;&gt;Node7 -->
<g id="edge5" class="edge">
<title>Node10&#45;&gt;Node7</title>
<path fill="none" stroke="#404040" d="M457.6185,-658.1973C471.4157,-622.4674 495.2906,-565.4666 523,-520 533.0802,-503.46 545.4389,-486.5636 557.474,-471.3477"/>
<polygon fill="none" stroke="#404040" points="557.7854,-470.9608 558.4309,-463.7786 565.3088,-461.6121 564.6633,-468.7943 557.7854,-470.9608"/>
<text text-anchor="middle" x="558.5" y="-563" font-family="Helvetica,sans-Serif" font-size="10.00" fill="#000000"> +mMaxOffset</text>
</g>
<!-- Node10&#45;&gt;Node12 -->
<g id="edge10" class="edge">
<title>Node10&#45;&gt;Node12</title>
<path fill="none" stroke="#404040" d="M513.5272,-666.9198C555.173,-651.1847 609.3325,-630.3847 657,-611 658.0348,-610.5792 659.0749,-610.1551 660.1194,-609.7281"/>
<polygon fill="none" stroke="#404040" points="660.3566,-609.6304 664.3793,-603.6455 671.4509,-605.0568 667.4283,-611.0417 660.3566,-609.6304"/>
<text text-anchor="middle" x="645.5" y="-632" font-family="Helvetica,sans-Serif" font-size="10.00" fill="#000000"> +mMaxOffset</text>
</g>
<!-- Node10&#45;&gt;Node15 -->
<g id="edge18" class="edge">
<title>Node10&#45;&gt;Node15</title>
<path fill="none" stroke="#404040" d="M441.6355,-658.203C438.061,-616.1385 433.6098,-542.6953 439,-480 443.2807,-430.2091 453.7443,-373.8981 461.751,-335.4926"/>
<polygon fill="none" stroke="#404040" points="461.7658,-335.4227 459.0964,-328.7239 464.2534,-323.6834 466.9227,-330.3823 461.7658,-335.4227"/>
<text text-anchor="middle" x="485" y="-494" font-family="Helvetica,sans-Serif" font-size="10.00" fill="#000000"> +mCurrentIndices</text>
<text text-anchor="middle" x="485" y="-483" font-family="Helvetica,sans-Serif" font-size="10.00" fill="#000000">+mBeginIndices</text>
</g>
<!-- Node11 -->
<g id="node7" class="node">
<title>Node11</title>
<g id="a_node7"><a xlink:href="../../dd/da8/structo2_1_1soa_1_1NTupleType.html" target="_top" xlink:title="{o2::soa::NTupleType\l\&lt; T, N, REST \&gt;\n||}">
<polygon fill="none" stroke="#000000" points="388.5,-774.5 388.5,-842.5 501.5,-842.5 501.5,-774.5 388.5,-774.5"/>
<text text-anchor="start" x="396.5" y="-830.5" font-family="Helvetica,sans-Serif" font-size="10.00" fill="#000000">o2::soa::NTupleType</text>
<text text-anchor="middle" x="445" y="-819.5" font-family="Helvetica,sans-Serif" font-size="10.00" fill="#000000">&lt; T, N, REST &gt;</text>
<polyline fill="none" stroke="#000000" points="388.5,-812.5 501.5,-812.5 "/>
<text text-anchor="middle" x="445" y="-800.5" font-family="Helvetica,sans-Serif" font-size="10.00" fill="#000000"> </text>
<polyline fill="none" stroke="#000000" points="388.5,-793.5 501.5,-793.5 "/>
<text text-anchor="middle" x="445" y="-781.5" font-family="Helvetica,sans-Serif" font-size="10.00" fill="#000000"> </text>
</a>
</g>
</g>
<!-- Node11&#45;&gt;Node10 -->
<g id="edge6" class="edge">
<title>Node11&#45;&gt;Node10</title>
<path fill="none" stroke="#ffa500" d="M445,-764.1851C445,-751.8048 445,-738.5422 445,-726.833"/>
<polygon fill="#ffa500" stroke="#ffa500" points="441.5001,-764.3235 445,-774.3236 448.5001,-764.3236 441.5001,-764.3235"/>
<text text-anchor="middle" x="507" y="-748" font-family="Helvetica,sans-Serif" font-size="10.00" fill="#000000"> &lt; uint64_t, sizeof...(Ts)&gt;</text>
</g>
<!-- Node12&#45;&gt;Node7 -->
<g id="edge7" class="edge">
<title>Node12&#45;&gt;Node7</title>
<path fill="none" stroke="#ffa500" d="M707.6425,-513.2958C689.8066,-496.4758 670.1996,-477.9857 652.9438,-461.7129"/>
<polygon fill="#ffa500" stroke="#ffa500" points="705.4895,-516.0762 715.166,-520.3907 710.2921,-510.9835 705.4895,-516.0762"/>
<text text-anchor="middle" x="715.5" y="-488.5" font-family="Helvetica,sans-Serif" font-size="10.00" fill="#000000"> &lt; Ts... &gt;</text>
</g>
<!-- Node13 -->
<g id="node9" class="node">
<title>Node13</title>
<g id="a_node9"><a xlink:href="../../d6/d30/classuint64__t.html" target="_top" xlink:title="{uint64_t\n||}">
<polygon fill="none" stroke="#000000" points="110,-388 110,-445 166,-445 166,-388 110,-388"/>
<text text-anchor="middle" x="138" y="-433" font-family="Helvetica,sans-Serif" font-size="10.00" fill="#000000">uint64_t</text>
<polyline fill="none" stroke="#000000" points="110,-426 166,-426 "/>
<text text-anchor="middle" x="138" y="-414" font-family="Helvetica,sans-Serif" font-size="10.00" fill="#000000"> </text>
<polyline fill="none" stroke="#000000" points="110,-407 166,-407 "/>
<text text-anchor="middle" x="138" y="-395" font-family="Helvetica,sans-Serif" font-size="10.00" fill="#000000"> </text>
</a>
</g>
</g>
<!-- Node13&#45;&gt;Node6 -->
<g id="edge11" class="edge">
<title>Node13&#45;&gt;Node6</title>
<path fill="none" stroke="#404040" d="M130.1923,-387.8055C122.6452,-353.993 115.2391,-297.0933 137,-255 145.1263,-239.2809 157.8375,-225.9393 171.895,-214.8863"/>
<polygon fill="none" stroke="#404040" points="172.1359,-214.7092 174.599,-207.9318 181.8025,-207.5987 179.3393,-214.3762 172.1359,-214.7092"/>
<text text-anchor="middle" x="194" y="-287" font-family="Helvetica,sans-Serif" font-size="10.00" fill="#000000"> +mSlidingWindowSize</text>
</g>
<!-- Node13&#45;&gt;Node15 -->
<g id="edge16" class="edge">
<title>Node13&#45;&gt;Node15</title>
<path fill="none" stroke="#404040" d="M142.192,-387.6438C146.0944,-371.6104 153.5995,-352.7775 168,-342 201.0694,-317.2504 312.4348,-331.7841 353,-324 353.5677,-323.8911 354.1367,-323.7806 354.7067,-323.6687"/>
<polygon fill="none" stroke="#404040" points="355.0682,-323.5925 360.114,-318.4408 366.8101,-321.117 361.7644,-326.2687 355.0682,-323.5925"/>
<text text-anchor="middle" x="225" y="-345" font-family="Helvetica,sans-Serif" font-size="10.00" fill="#000000"> +mSlidingWindowSize</text>
</g>
<!-- Node14 -->
<g id="node10" class="node">
<title>Node14</title>
<polygon fill="none" stroke="#bfbfbf" points="201.5,-377 201.5,-456 364.5,-456 364.5,-377 201.5,-377"/>
<text text-anchor="start" x="209.5" y="-444" font-family="Helvetica,sans-Serif" font-size="10.00" fill="#000000">array&lt; std::vector</text>
<text text-anchor="start" x="209.5" y="-433" font-family="Helvetica,sans-Serif" font-size="10.00" fill="#000000">&lt; std::pair&lt; uint64</text>
<text text-anchor="middle" x="283" y="-422" font-family="Helvetica,sans-Serif" font-size="10.00" fill="#000000">_t, uint64_t &gt; &gt;, sizeof...(Ts)&gt;</text>
<polyline fill="none" stroke="#bfbfbf" points="201.5,-415 364.5,-415 "/>
<text text-anchor="middle" x="283" y="-403" font-family="Helvetica,sans-Serif" font-size="10.00" fill="#000000"> </text>
<polyline fill="none" stroke="#bfbfbf" points="201.5,-396 364.5,-396 "/>
<text text-anchor="middle" x="283" y="-384" font-family="Helvetica,sans-Serif" font-size="10.00" fill="#000000"> </text>
</g>
<!-- Node14&#45;&gt;Node6 -->
<g id="edge12" class="edge">
<title>Node14&#45;&gt;Node6</title>
<path fill="none" stroke="#404040" d="M271.9396,-376.7277C267.847,-360.4992 263.5803,-341.473 261,-324 255.8807,-289.334 253.6544,-249.767 252.6953,-219.9052"/>
<polygon fill="none" stroke="#404040" points="252.6908,-219.7395 248.5255,-213.853 252.3571,-207.7441 256.5224,-213.6306 252.6908,-219.7395"/>
<text text-anchor="middle" x="309.5" y="-287" font-family="Helvetica,sans-Serif" font-size="10.00" fill="#000000"> +mGroupedIndices</text>
</g>
<!-- Node14&#45;&gt;Node15 -->
<g id="edge17" class="edge">
<title>Node14&#45;&gt;Node15</title>
<path fill="none" stroke="#404040" d="M279.6699,-376.748C280.6198,-364.3974 283.9083,-351.5367 292,-342 292.1678,-341.8023 320.762,-333.432 355.1098,-323.4314"/>
<polygon fill="none" stroke="#404040" points="355.424,-323.34 360.0673,-317.8227 366.946,-319.9868 362.3028,-325.5041 355.424,-323.34"/>
<text text-anchor="middle" x="340.5" y="-345" font-family="Helvetica,sans-Serif" font-size="10.00" fill="#000000"> +mGroupedIndices</text>
</g>
<!-- Node15&#45;&gt;Node6 -->
<g id="edge14" class="edge">
<title>Node15&#45;&gt;Node6</title>
<path fill="none" stroke="#ffa500" d="M398.6045,-250.8006C372.0412,-236.7944 342.2635,-221.0935 316.5196,-207.5194"/>
<polygon fill="#ffa500" stroke="#ffa500" points="397.0011,-253.9118 407.4792,-255.48 400.266,-247.7198 397.0011,-253.9118"/>
<text text-anchor="middle" x="396.5" y="-229" font-family="Helvetica,sans-Serif" font-size="10.00" fill="#000000"> &lt; T, Ts... &gt;</text>
</g>
</g>
</svg>
        <g id="navigator" transform="translate(0 0)" fill="#404254">
                <rect fill="#f2f5e9" fill-opacity="0.5" stroke="#606060" stroke-width=".5" x="0" y="0" width="60" height="60"/>
                <use id="zoomplus" xlink:href="#zoomPlus" x="17" y="9" onmousedown="handleZoom(evt,'in')"/>
                <use id="zoomminus" xlink:href="#zoomMin" x="42" y="9" onmousedown="handleZoom(evt,'out')"/>
                <use id="reset" xlink:href="#resetDef" x="30" y="36" onmousedown="handleReset()"/>
                <g id="arrowUp" xlink:href="#dirArrow" transform="translate(30 24)" onmousedown="handlePan(0,-1)">
                  <use xlink:href="#rim" fill="#404040">
                        <set attributeName="fill" to="#808080" begin="arrowUp.mouseover" end="arrowUp.mouseout"/>
                  </use>
                  <path fill="none" stroke="white" stroke-width="1.5" d="M0,-3.0v7 M-2.5,-0.5L0,-3.0L2.5,-0.5"/>
                </g>
                <g id="arrowRight" xlink:href="#dirArrow" transform="rotate(90) translate(36 -43)" onmousedown="handlePan(1,0)">
                  <use xlink:href="#rim" fill="#404040">
                        <set attributeName="fill" to="#808080" begin="arrowRight.mouseover" end="arrowRight.mouseout"/>
                  </use>
                  <path fill="none" stroke="white" stroke-width="1.5" d="M0,-3.0v7 M-2.5,-0.5L0,-3.0L2.5,-0.5"/>
                </g>
                <g id="arrowDown" xlink:href="#dirArrow" transform="rotate(180) translate(-30 -48)" onmousedown="handlePan(0,1)">
                  <use xlink:href="#rim" fill="#404040">
                        <set attributeName="fill" to="#808080" begin="arrowDown.mouseover" end="arrowDown.mouseout"/>
                  </use>
                  <path fill="none" stroke="white" stroke-width="1.5" d="M0,-3.0v7 M-2.5,-0.5L0,-3.0L2.5,-0.5"/>
                </g>
                <g id="arrowLeft" xlink:href="#dirArrow" transform="rotate(270) translate(-36 17)" onmousedown="handlePan(-1,0)">
                  <use xlink:href="#rim" fill="#404040">
                        <set attributeName="fill" to="#808080" begin="arrowLeft.mouseover" end="arrowLeft.mouseout"/>
                  </use>
                  <path fill="none" stroke="white" stroke-width="1.5" d="M0,-3.0v7 M-2.5,-0.5L0,-3.0L2.5,-0.5"/>
                </g>
        </g>
        <svg viewBox="0 0 15 15" width="100%" height="30px" preserveAspectRatio="xMaxYMin meet">
         <g id="arrow_out" transform="scale(0.3 0.3)">
          <a xlink:href="structo2_1_1soa_1_1CombinationsBlockUpperIndexPolicy__coll__graph_org.svg" target="_base">
           <rect id="button" ry="5" rx="5" y="6" x="6" height="38" width="38"
                fill="#f2f5e9" fill-opacity="0.5" stroke="#606060" stroke-width="1.0"/>
           <path id="arrow"
             d="M 11.500037,31.436501 C 11.940474,20.09759 22.043105,11.32322 32.158766,21.979434 L 37.068811,17.246167 C 37.068811,17.246167 37.088388,32 37.088388,32 L 22.160133,31.978069 C 22.160133,31.978069 26.997745,27.140456 26.997745,27.140456 C 18.528582,18.264221 13.291696,25.230495 11.500037,31.436501 z"
             style="fill:#404040;"/>
          </a>
         </g>
        </svg>
</svg>
