<?xml version="1.0" encoding="UTF-8" standalone="no"?>
<!DOCTYPE svg PUBLIC "-//W3C//DTD SVG 1.1//EN"
 "http://www.w3.org/Graphics/SVG/1.1/DTD/svg11.dtd">
<!-- Generated by graphviz version 2.40.1 (20161225.0304)
 -->
<!-- Title: /home/travis/build/AliceO2Group/AliceO2/Detectors/TPC/base/include/TPCBase/ParameterGEM.h Pages: 1 -->
<svg width="639pt" height="262pt"
 viewBox="0.00 0.00 638.50 262.00" xmlns="http://www.w3.org/2000/svg" xmlns:xlink="http://www.w3.org/1999/xlink">
<g id="graph0" class="graph" transform="scale(1 1) rotate(0) translate(4 258)">
<title>/home/travis/build/AliceO2Group/AliceO2/Detectors/TPC/base/include/TPCBase/ParameterGEM.h</title>
<!-- Node0 -->
<g id="node1" class="node">
<title>Node0</title>
<polygon fill="#bfbfbf" stroke="#000000" points="202,-201.5 202,-253.5 355,-253.5 355,-201.5 202,-201.5"/>
<text text-anchor="start" x="210" y="-241.5" font-family="Helvetica,sans-Serif" font-size="10.00" fill="#000000">/home/travis/build</text>
<text text-anchor="start" x="210" y="-230.5" font-family="Helvetica,sans-Serif" font-size="10.00" fill="#000000">/AliceO2Group/AliceO2</text>
<text text-anchor="start" x="210" y="-219.5" font-family="Helvetica,sans-Serif" font-size="10.00" fill="#000000">/Detectors/TPC/base/include</text>
<text text-anchor="middle" x="278.5" y="-208.5" font-family="Helvetica,sans-Serif" font-size="10.00" fill="#000000">/TPCBase/ParameterGEM.h</text>
</g>
<!-- Node1 -->
<g id="node2" class="node">
<title>Node1</title>
<polygon fill="none" stroke="#bfbfbf" points="168.5,-140 168.5,-159 210.5,-159 210.5,-140 168.5,-140"/>
<text text-anchor="middle" x="189.5" y="-147" font-family="Helvetica,sans-Serif" font-size="10.00" fill="#000000">array</text>
</g>
<!-- Node0&#45;&gt;Node1 -->
<g id="edge1" class="edge">
<title>Node0&#45;&gt;Node1</title>
<path fill="none" stroke="#191970" d="M248.3687,-201.0928C235.0586,-189.4278 219.8273,-176.079 208.1927,-165.8824"/>
<polygon fill="#191970" stroke="#191970" points="210.2629,-163.0427 200.4354,-159.0839 205.6491,-168.3071 210.2629,-163.0427"/>
</g>
<!-- Node2 -->
<g id="node3" class="node">
<title>Node2</title>
<polygon fill="none" stroke="#bfbfbf" points="229,-140 229,-159 276,-159 276,-140 229,-140"/>
<text text-anchor="middle" x="252.5" y="-147" font-family="Helvetica,sans-Serif" font-size="10.00" fill="#000000">cmath</text>
</g>
<!-- Node0&#45;&gt;Node2 -->
<g id="edge2" class="edge">
<title>Node0&#45;&gt;Node2</title>
<path fill="none" stroke="#191970" d="M269.6976,-201.0928C266.149,-190.447 262.133,-178.3989 258.8747,-168.6242"/>
<polygon fill="#191970" stroke="#191970" points="262.1774,-167.4639 255.6946,-159.0839 255.5366,-169.6775 262.1774,-167.4639"/>
</g>
<!-- Node3 -->
<g id="node4" class="node">
<title>Node3</title>
<g id="a_node4"><a xlink:href="../../db/d2c/ConfigurableParam_8h.html" target="_top" xlink:title="CommonUtils/Configurable\lParam.h">
<polygon fill="none" stroke="#000000" points="215.5,-67.5 215.5,-97.5 363.5,-97.5 363.5,-67.5 215.5,-67.5"/>
<text text-anchor="start" x="223.5" y="-85.5" font-family="Helvetica,sans-Serif" font-size="10.00" fill="#000000">CommonUtils/Configurable</text>
<text text-anchor="middle" x="289.5" y="-74.5" font-family="Helvetica,sans-Serif" font-size="10.00" fill="#000000">Param.h</text>
</a>
</g>
</g>
<!-- Node0&#45;&gt;Node3 -->
<g id="edge3" class="edge">
<title>Node0&#45;&gt;Node3</title>
<path fill="none" stroke="#191970" d="M281.2156,-201.3661C282.3249,-190.1746 283.5643,-176.9541 284.5,-165 285.9921,-145.938 287.2856,-124.3683 288.1829,-108.0658"/>
<polygon fill="#191970" stroke="#191970" points="291.6973,-107.8898 288.7384,-97.7165 284.7074,-107.5145 291.6973,-107.8898"/>
</g>
<!-- Node10 -->
<g id="node11" class="node">
<title>Node10</title>
<g id="a_node11"><a xlink:href="../../da/d6b/ConfigurableParamHelper_8h.html" target="_top" xlink:title="CommonUtils/Configurable\lParamHelper.h">
<polygon fill="none" stroke="#000000" points="360.5,-134.5 360.5,-164.5 508.5,-164.5 508.5,-134.5 360.5,-134.5"/>
<text text-anchor="start" x="368.5" y="-152.5" font-family="Helvetica,sans-Serif" font-size="10.00" fill="#000000">CommonUtils/Configurable</text>
<text text-anchor="middle" x="434.5" y="-141.5" font-family="Helvetica,sans-Serif" font-size="10.00" fill="#000000">ParamHelper.h</text>
</a>
</g>
</g>
<!-- Node0&#45;&gt;Node10 -->
<g id="edge10" class="edge">
<title>Node0&#45;&gt;Node10</title>
<path fill="none" stroke="#191970" d="M330.8797,-201.3101C351.8743,-190.8128 375.6548,-178.9226 395.1344,-169.1828"/>
<polygon fill="#191970" stroke="#191970" points="396.9415,-172.1924 404.3205,-164.5897 393.811,-165.9314 396.9415,-172.1924"/>
</g>
<!-- Node4 -->
<g id="node5" class="node">
<title>Node4</title>
<polygon fill="none" stroke="#bfbfbf" points="0,-6 0,-25 47,-25 47,-6 0,-6"/>
<text text-anchor="middle" x="23.5" y="-13" font-family="Helvetica,sans-Serif" font-size="10.00" fill="#000000">vector</text>
</g>
<!-- Node3&#45;&gt;Node4 -->
<g id="edge4" class="edge">
<title>Node3&#45;&gt;Node4</title>
<path fill="none" stroke="#191970" d="M215.4189,-70.4655C169.0507,-61.8741 108.4597,-48.7002 56.5,-31 54.8523,-30.4387 53.1778,-29.8192 51.5013,-29.1603"/>
<polygon fill="#191970" stroke="#191970" points="52.6184,-25.8307 42.0495,-25.0897 49.8495,-32.2598 52.6184,-25.8307"/>
</g>
<!-- Node5 -->
<g id="node6" class="node">
<title>Node5</title>
<polygon fill="none" stroke="#bfbfbf" points="65.5,-6 65.5,-25 103.5,-25 103.5,-6 65.5,-6"/>
<text text-anchor="middle" x="84.5" y="-13" font-family="Helvetica,sans-Serif" font-size="10.00" fill="#000000">map</text>
</g>
<!-- Node3&#45;&gt;Node5 -->
<g id="edge5" class="edge">
<title>Node3&#45;&gt;Node5</title>
<path fill="none" stroke="#191970" d="M225.2452,-67.4889C191.1229,-58.6041 148.8427,-46.1245 112.5,-31 111.4997,-30.5837 110.4893,-30.1409 109.4762,-29.678"/>
<polygon fill="#191970" stroke="#191970" points="110.9878,-26.5205 100.4826,-25.1449 107.8371,-32.7714 110.9878,-26.5205"/>
</g>
<!-- Node6 -->
<g id="node7" class="node">
<title>Node6</title>
<polygon fill="none" stroke="#bfbfbf" points="122,-6 122,-25 215,-25 215,-6 122,-6"/>
<text text-anchor="middle" x="168.5" y="-13" font-family="Helvetica,sans-Serif" font-size="10.00" fill="#000000">unordered_map</text>
</g>
<!-- Node3&#45;&gt;Node6 -->
<g id="edge6" class="edge">
<title>Node3&#45;&gt;Node6</title>
<path fill="none" stroke="#191970" d="M262.3452,-67.4639C242.1344,-56.2728 214.7036,-41.0838 194.7201,-30.0186"/>
<polygon fill="#191970" stroke="#191970" points="196.2883,-26.8862 185.8444,-25.1039 192.8973,-33.0101 196.2883,-26.8862"/>
</g>
<!-- Node7 -->
<g id="node8" class="node">
<title>Node7</title>
<polygon fill="none" stroke="#bfbfbf" points="233,-.5 233,-30.5 346,-30.5 346,-.5 233,-.5"/>
<text text-anchor="start" x="241" y="-18.5" font-family="Helvetica,sans-Serif" font-size="10.00" fill="#000000">boost/property_tree</text>
<text text-anchor="middle" x="289.5" y="-7.5" font-family="Helvetica,sans-Serif" font-size="10.00" fill="#000000">/ptree.hpp</text>
</g>
<!-- Node3&#45;&gt;Node7 -->
<g id="edge7" class="edge">
<title>Node3&#45;&gt;Node7</title>
<path fill="none" stroke="#191970" d="M289.5,-67.2967C289.5,-59.5013 289.5,-49.7991 289.5,-40.9064"/>
<polygon fill="#191970" stroke="#191970" points="293.0001,-40.6431 289.5,-30.6432 286.0001,-40.6432 293.0001,-40.6431"/>
</g>
<!-- Node8 -->
<g id="node9" class="node">
<title>Node8</title>
<polygon fill="none" stroke="#bfbfbf" points="443,-6 443,-25 500,-25 500,-6 443,-6"/>
<text text-anchor="middle" x="471.5" y="-13" font-family="Helvetica,sans-Serif" font-size="10.00" fill="#000000">typeinfo</text>
</g>
<!-- Node3&#45;&gt;Node8 -->
<g id="edge8" class="edge">
<title>Node3&#45;&gt;Node8</title>
<path fill="none" stroke="#191970" d="M333.1627,-67.4436C361.8082,-57.4283 400.0226,-43.807 433.5,-31 435.3467,-30.2936 437.2395,-29.5581 439.1467,-28.8083"/>
<polygon fill="#191970" stroke="#191970" points="440.6702,-31.9687 448.6567,-25.0068 438.072,-25.4687 440.6702,-31.9687"/>
</g>
<!-- Node9 -->
<g id="node10" class="node">
<title>Node9</title>
<polygon fill="none" stroke="#bfbfbf" points="364.5,-6 364.5,-25 424.5,-25 424.5,-6 364.5,-6"/>
<text text-anchor="middle" x="394.5" y="-13" font-family="Helvetica,sans-Serif" font-size="10.00" fill="#000000">iostream</text>
</g>
<!-- Node3&#45;&gt;Node9 -->
<g id="edge9" class="edge">
<title>Node3&#45;&gt;Node9</title>
<path fill="none" stroke="#191970" d="M313.064,-67.4639C330.2056,-56.526 353.3321,-41.769 370.5602,-30.7759"/>
<polygon fill="#191970" stroke="#191970" points="372.9018,-33.4336 379.4491,-25.1039 369.1364,-27.5326 372.9018,-33.4336"/>
</g>
<!-- Node10&#45;&gt;Node3 -->
<g id="edge11" class="edge">
<title>Node10&#45;&gt;Node3</title>
<path fill="none" stroke="#191970" d="M401.9592,-134.4639C381.1369,-124.8426 353.9196,-112.2663 331.4764,-101.896"/>
<polygon fill="#191970" stroke="#191970" points="332.7286,-98.6191 322.1828,-97.6017 329.7924,-104.9735 332.7286,-98.6191"/>
</g>
<!-- Node10&#45;&gt;Node8 -->
<g id="edge14" class="edge">
<title>Node10&#45;&gt;Node8</title>
<path fill="none" stroke="#191970" d="M424.1492,-134.3956C413.9243,-117.4586 401.1938,-89.4281 411.5,-67 418.4858,-51.7977 432.4188,-39.3979 445.1011,-30.5778"/>
<polygon fill="#191970" stroke="#191970" points="447.1126,-33.4446 453.5805,-25.0531 443.2913,-27.5796 447.1126,-33.4446"/>
</g>
<!-- Node11 -->
<g id="node12" class="node">
<title>Node11</title>
<polygon fill="none" stroke="#bfbfbf" points="420,-73 420,-92 477,-92 477,-73 420,-73"/>
<text text-anchor="middle" x="448.5" y="-80" font-family="Helvetica,sans-Serif" font-size="10.00" fill="#000000">TClass.h</text>
</g>
<!-- Node10&#45;&gt;Node11 -->
<g id="edge12" class="edge">
<title>Node10&#45;&gt;Node11</title>
<path fill="none" stroke="#191970" d="M437.6768,-134.2967C439.6675,-124.7699 442.2532,-112.3954 444.3981,-102.1306"/>
<polygon fill="#191970" stroke="#191970" points="447.884,-102.5595 446.5034,-92.055 441.032,-101.1277 447.884,-102.5595"/>
</g>
<!-- Node12 -->
<g id="node13" class="node">
<title>Node12</title>
<polygon fill="none" stroke="#bfbfbf" points="495,-73 495,-92 564,-92 564,-73 495,-73"/>
<text text-anchor="middle" x="529.5" y="-80" font-family="Helvetica,sans-Serif" font-size="10.00" fill="#000000">type_traits</text>
</g>
<!-- Node10&#45;&gt;Node12 -->
<g id="edge13" class="edge">
<title>Node10&#45;&gt;Node12</title>
<path fill="none" stroke="#191970" d="M456.057,-134.2967C471.4332,-123.4524 492.0414,-108.9182 507.5138,-98.006"/>
<polygon fill="#191970" stroke="#191970" points="509.797,-100.6787 515.9519,-92.055 505.7626,-94.9582 509.797,-100.6787"/>
</g>
<!-- Node13 -->
<g id="node14" class="node">
<title>Node13</title>
<polygon fill="none" stroke="#bfbfbf" points="582.5,-73 582.5,-92 630.5,-92 630.5,-73 582.5,-73"/>
<text text-anchor="middle" x="606.5" y="-80" font-family="Helvetica,sans-Serif" font-size="10.00" fill="#000000">TFile.h</text>
</g>
<!-- Node10&#45;&gt;Node13 -->
<g id="edge15" class="edge">
<title>Node10&#45;&gt;Node13</title>
<path fill="none" stroke="#191970" d="M478.0688,-134.4227C505.6492,-124.6168 541.934,-111.2332 573.5,-98 574.8499,-97.4341 576.2252,-96.8439 577.6103,-96.2385"/>
<polygon fill="#191970" stroke="#191970" points="579.0572,-99.4256 586.728,-92.1174 576.174,-93.0469 579.0572,-99.4256"/>
</g>
</g>
</svg>
