<?xml version="1.0" encoding="UTF-8" standalone="no"?>
<!DOCTYPE svg PUBLIC "-//W3C//DTD SVG 1.1//EN"
 "http://www.w3.org/Graphics/SVG/1.1/DTD/svg11.dtd">
<!-- Generated by graphviz version 2.40.1 (20161225.0304)
 -->
<!-- Title: /home/travis/build/AliceO2Group/AliceO2/EventVisualisation/DataConverter/include/EventVisualisationDataConverter/VisualisationEvent.h Pages: 1 -->
<svg width="559pt" height="318pt"
 viewBox="0.00 0.00 558.61 318.00" xmlns="http://www.w3.org/2000/svg" xmlns:xlink="http://www.w3.org/1999/xlink">
<g id="graph0" class="graph" transform="scale(1 1) rotate(0) translate(4 314)">
<title>/home/travis/build/AliceO2Group/AliceO2/EventVisualisation/DataConverter/include/EventVisualisationDataConverter/VisualisationEvent.h</title>
<!-- Node0 -->
<g id="node1" class="node">
<title>Node0</title>
<polygon fill="#bfbfbf" stroke="#000000" points="277,-246.5 277,-309.5 497,-309.5 497,-246.5 277,-246.5"/>
<text text-anchor="start" x="285" y="-297.5" font-family="Helvetica,sans-Serif" font-size="10.00" fill="#000000">/home/travis/build</text>
<text text-anchor="start" x="285" y="-286.5" font-family="Helvetica,sans-Serif" font-size="10.00" fill="#000000">/AliceO2Group/AliceO2</text>
<text text-anchor="start" x="285" y="-275.5" font-family="Helvetica,sans-Serif" font-size="10.00" fill="#000000">/EventVisualisation/DataConverter</text>
<text text-anchor="start" x="285" y="-264.5" font-family="Helvetica,sans-Serif" font-size="10.00" fill="#000000">/include/EventVisualisationDataConverter</text>
<text text-anchor="middle" x="387" y="-253.5" font-family="Helvetica,sans-Serif" font-size="10.00" fill="#000000">/VisualisationEvent.h</text>
</g>
<!-- Node1 -->
<g id="node2" class="node">
<title>Node1</title>
<g id="a_node2"><a xlink:href="../../d0/d40/VisualisationTrack_8h.html" target="_top" xlink:title="EventVisualisationDataConverter\l/VisualisationTrack.h">
<polygon fill="none" stroke="#000000" points="120.5,-112.5 120.5,-142.5 299.5,-142.5 299.5,-112.5 120.5,-112.5"/>
<text text-anchor="start" x="128.5" y="-130.5" font-family="Helvetica,sans-Serif" font-size="10.00" fill="#000000">EventVisualisationDataConverter</text>
<text text-anchor="middle" x="210" y="-119.5" font-family="Helvetica,sans-Serif" font-size="10.00" fill="#000000">/VisualisationTrack.h</text>
</a>
</g>
</g>
<!-- Node0&#45;&gt;Node1 -->
<g id="edge1" class="edge">
<title>Node0&#45;&gt;Node1</title>
<path fill="none" stroke="#191970" d="M349.895,-246.4503C315.6109,-217.2991 265.5793,-174.7581 235.5635,-149.2362"/>
<polygon fill="#191970" stroke="#191970" points="237.5436,-146.3257 227.658,-142.5143 233.0092,-151.6585 237.5436,-146.3257"/>
</g>
<!-- Node5 -->
<g id="node6" class="node">
<title>Node5</title>
<polygon fill="none" stroke="#bfbfbf" points="378.5,-56.5 378.5,-75.5 425.5,-75.5 425.5,-56.5 378.5,-56.5"/>
<text text-anchor="middle" x="402" y="-63.5" font-family="Helvetica,sans-Serif" font-size="10.00" fill="#000000">vector</text>
</g>
<!-- Node0&#45;&gt;Node5 -->
<g id="edge13" class="edge">
<title>Node0&#45;&gt;Node5</title>
<path fill="none" stroke="#191970" d="M363.7047,-246.3829C356.9434,-235.4209 350.4547,-222.6868 347,-210 343.38,-196.7063 343.9061,-192.4259 347,-179 355.237,-143.2554 376.3758,-105.7242 389.9181,-84.1691"/>
<polygon fill="#191970" stroke="#191970" points="392.8955,-86.01 395.3647,-75.7069 387.0093,-82.2214 392.8955,-86.01"/>
</g>
<!-- Node8 -->
<g id="node9" class="node">
<title>Node8</title>
<g id="a_node9"><a xlink:href="../../d5/d20/VisualisationCluster_8h.html" target="_top" xlink:title="EventVisualisationDataConverter\l/VisualisationCluster.h">
<polygon fill="none" stroke="#000000" points="356.5,-179.5 356.5,-209.5 535.5,-209.5 535.5,-179.5 356.5,-179.5"/>
<text text-anchor="start" x="364.5" y="-197.5" font-family="Helvetica,sans-Serif" font-size="10.00" fill="#000000">EventVisualisationDataConverter</text>
<text text-anchor="middle" x="446" y="-186.5" font-family="Helvetica,sans-Serif" font-size="10.00" fill="#000000">/VisualisationCluster.h</text>
</a>
</g>
</g>
<!-- Node0&#45;&gt;Node8 -->
<g id="edge9" class="edge">
<title>Node0&#45;&gt;Node8</title>
<path fill="none" stroke="#191970" d="M409.3054,-246.4322C415.9624,-237.0109 423.1399,-226.8528 429.3664,-218.0407"/>
<polygon fill="#191970" stroke="#191970" points="432.3091,-219.9412 435.2214,-209.7545 426.5922,-215.9017 432.3091,-219.9412"/>
</g>
<!-- Node9 -->
<g id="node10" class="node">
<title>Node9</title>
<polygon fill="none" stroke="#bfbfbf" points="495,-118 495,-137 539,-137 539,-118 495,-118"/>
<text text-anchor="middle" x="517" y="-125" font-family="Helvetica,sans-Serif" font-size="10.00" fill="#000000">ctime</text>
</g>
<!-- Node0&#45;&gt;Node9 -->
<g id="edge14" class="edge">
<title>Node0&#45;&gt;Node9</title>
<path fill="none" stroke="#191970" d="M497.0162,-250.5363C515.9966,-240.8269 533.3416,-227.7099 545,-210 558.2437,-189.8819 544.1771,-162.8703 531.6519,-145.3257"/>
<polygon fill="#191970" stroke="#191970" points="534.2352,-142.9406 525.3953,-137.1005 528.6638,-147.1786 534.2352,-142.9406"/>
</g>
<!-- Node2 -->
<g id="node3" class="node">
<title>Node2</title>
<g id="a_node3"><a xlink:href="../../de/ddf/ConversionConstants_8h.html" target="_top" xlink:title="ConversionConstants.h">
<polygon fill="none" stroke="#000000" points="164.5,-56.5 164.5,-75.5 293.5,-75.5 293.5,-56.5 164.5,-56.5"/>
<text text-anchor="middle" x="229" y="-63.5" font-family="Helvetica,sans-Serif" font-size="10.00" fill="#000000">ConversionConstants.h</text>
</a>
</g>
</g>
<!-- Node1&#45;&gt;Node2 -->
<g id="edge2" class="edge">
<title>Node1&#45;&gt;Node2</title>
<path fill="none" stroke="#191970" d="M214.6966,-112.2977C217.1967,-104.2055 220.299,-94.1639 222.9747,-85.5029"/>
<polygon fill="#191970" stroke="#191970" points="226.3501,-86.4345 225.9579,-75.8469 219.662,-84.3682 226.3501,-86.4345"/>
</g>
<!-- Node3 -->
<g id="node4" class="node">
<title>Node3</title>
<polygon fill="none" stroke="#bfbfbf" points="160,-.5 160,-19.5 204,-19.5 204,-.5 160,-.5"/>
<text text-anchor="middle" x="182" y="-7.5" font-family="Helvetica,sans-Serif" font-size="10.00" fill="#000000">string</text>
</g>
<!-- Node1&#45;&gt;Node3 -->
<g id="edge5" class="edge">
<title>Node1&#45;&gt;Node3</title>
<path fill="none" stroke="#191970" d="M186.3581,-112.4133C174.5584,-103.4299 161.4527,-90.8819 155,-76 147.9705,-59.7878 157.1732,-41.1366 166.6925,-27.8062"/>
<polygon fill="#191970" stroke="#191970" points="169.4658,-29.9413 172.8264,-19.8935 163.9335,-25.6526 169.4658,-29.9413"/>
</g>
<!-- Node4 -->
<g id="node5" class="node">
<title>Node4</title>
<polygon fill="none" stroke="#bfbfbf" points="311.5,-56.5 311.5,-75.5 360.5,-75.5 360.5,-56.5 311.5,-56.5"/>
<text text-anchor="middle" x="336" y="-63.5" font-family="Helvetica,sans-Serif" font-size="10.00" fill="#000000">iosfwd</text>
</g>
<!-- Node1&#45;&gt;Node4 -->
<g id="edge4" class="edge">
<title>Node1&#45;&gt;Node4</title>
<path fill="none" stroke="#191970" d="M240.8231,-112.4554C261.1088,-102.554 287.4788,-89.683 307.3162,-80.0004"/>
<polygon fill="#191970" stroke="#191970" points="309.023,-83.062 316.4745,-75.5303 305.9526,-76.7714 309.023,-83.062"/>
</g>
<!-- Node1&#45;&gt;Node5 -->
<g id="edge6" class="edge">
<title>Node1&#45;&gt;Node5</title>
<path fill="none" stroke="#191970" d="M256.9685,-112.4554C291.4795,-101.4011 337.5467,-86.6452 368.4156,-76.7575"/>
<polygon fill="#191970" stroke="#191970" points="369.8073,-79.987 378.263,-73.6033 367.6719,-73.3206 369.8073,-79.987"/>
</g>
<!-- Node6 -->
<g id="node7" class="node">
<title>Node6</title>
<polygon fill="none" stroke="#bfbfbf" points="0,-56.5 0,-75.5 42,-75.5 42,-56.5 0,-56.5"/>
<text text-anchor="middle" x="21" y="-63.5" font-family="Helvetica,sans-Serif" font-size="10.00" fill="#000000">array</text>
</g>
<!-- Node1&#45;&gt;Node6 -->
<g id="edge7" class="edge">
<title>Node1&#45;&gt;Node6</title>
<path fill="none" stroke="#191970" d="M163.0043,-112.394C133.5601,-102.9032 94.5784,-90.2904 52.0142,-76.3171"/>
<polygon fill="#191970" stroke="#191970" points="52.8907,-72.9211 42.2979,-73.1241 50.7053,-79.5712 52.8907,-72.9211"/>
</g>
<!-- Node7 -->
<g id="node8" class="node">
<title>Node7</title>
<polygon fill="none" stroke="#bfbfbf" points="60.5,-56.5 60.5,-75.5 107.5,-75.5 107.5,-56.5 60.5,-56.5"/>
<text text-anchor="middle" x="84" y="-63.5" font-family="Helvetica,sans-Serif" font-size="10.00" fill="#000000">cmath</text>
</g>
<!-- Node1&#45;&gt;Node7 -->
<g id="edge8" class="edge">
<title>Node1&#45;&gt;Node7</title>
<path fill="none" stroke="#191970" d="M179.1769,-112.4554C158.8912,-102.554 132.5212,-89.683 112.6838,-80.0004"/>
<polygon fill="#191970" stroke="#191970" points="114.0474,-76.7714 103.5255,-75.5303 110.977,-83.062 114.0474,-76.7714"/>
</g>
<!-- Node2&#45;&gt;Node3 -->
<g id="edge3" class="edge">
<title>Node2&#45;&gt;Node3</title>
<path fill="none" stroke="#191970" d="M220.8132,-56.2455C214.1411,-48.2958 204.5521,-36.8706 196.5747,-27.3656"/>
<polygon fill="#191970" stroke="#191970" points="199.2026,-25.0524 190.093,-19.6427 193.8408,-29.5525 199.2026,-25.0524"/>
</g>
<!-- Node8&#45;&gt;Node1 -->
<g id="edge10" class="edge">
<title>Node8&#45;&gt;Node1</title>
<path fill="none" stroke="#191970" d="M393.037,-179.4639C357.4828,-169.3701 310.4726,-156.024 272.9972,-145.3848"/>
<polygon fill="#191970" stroke="#191970" points="273.7697,-141.9659 263.194,-142.6017 271.858,-148.6998 273.7697,-141.9659"/>
</g>
<!-- Node8&#45;&gt;Node5 -->
<g id="edge11" class="edge">
<title>Node8&#45;&gt;Node5</title>
<path fill="none" stroke="#191970" d="M440.7798,-179.2548C432.7726,-155.87 417.464,-111.1619 408.6656,-85.4665"/>
<polygon fill="#191970" stroke="#191970" points="411.8845,-84.0627 405.3337,-75.7358 405.2619,-86.3304 411.8845,-84.0627"/>
</g>
<!-- Node8&#45;&gt;Node9 -->
<g id="edge12" class="edge">
<title>Node8&#45;&gt;Node9</title>
<path fill="none" stroke="#191970" d="M462.111,-179.2967C473.2805,-168.7564 488.144,-154.7303 499.5867,-143.9323"/>
<polygon fill="#191970" stroke="#191970" points="502.0037,-146.4638 506.8746,-137.055 497.1994,-141.3727 502.0037,-146.4638"/>
</g>
</g>
</svg>
