<?xml version="1.0" encoding="UTF-8" standalone="no"?>
<!DOCTYPE svg PUBLIC "-//W3C//DTD SVG 1.1//EN"
 "http://www.w3.org/Graphics/SVG/1.1/DTD/svg11.dtd">
<!-- Generated by graphviz version 2.40.1 (20161225.0304)
 -->
<!-- Title: /home/travis/build/AliceO2Group/AliceO2/Detectors/ITSMFT/ITS/tracking/include/ITStracking/DBScan.h Pages: 1 -->
<svg width="729pt" height="184pt"
 viewBox="0.00 0.00 728.50 184.00" xmlns="http://www.w3.org/2000/svg" xmlns:xlink="http://www.w3.org/1999/xlink">
<g id="graph0" class="graph" transform="scale(1 1) rotate(0) translate(4 180)">
<title>/home/travis/build/AliceO2Group/AliceO2/Detectors/ITSMFT/ITS/tracking/include/ITStracking/DBScan.h</title>
<!-- Node0 -->
<g id="node1" class="node">
<title>Node0</title>
<polygon fill="#bfbfbf" stroke="#000000" points="268.5,-112.5 268.5,-175.5 423.5,-175.5 423.5,-112.5 268.5,-112.5"/>
<text text-anchor="start" x="276.5" y="-163.5" font-family="Helvetica,sans-Serif" font-size="10.00" fill="#000000">/home/travis/build</text>
<text text-anchor="start" x="276.5" y="-152.5" font-family="Helvetica,sans-Serif" font-size="10.00" fill="#000000">/AliceO2Group/AliceO2</text>
<text text-anchor="start" x="276.5" y="-141.5" font-family="Helvetica,sans-Serif" font-size="10.00" fill="#000000">/Detectors/ITSMFT/ITS</text>
<text text-anchor="start" x="276.5" y="-130.5" font-family="Helvetica,sans-Serif" font-size="10.00" fill="#000000">/tracking/include/ITStracking</text>
<text text-anchor="middle" x="346" y="-119.5" font-family="Helvetica,sans-Serif" font-size="10.00" fill="#000000">/DBScan.h</text>
</g>
<!-- Node1 -->
<g id="node2" class="node">
<title>Node1</title>
<polygon fill="none" stroke="#bfbfbf" points="261,-56.5 261,-75.5 325,-75.5 325,-56.5 261,-56.5"/>
<text text-anchor="middle" x="293" y="-63.5" font-family="Helvetica,sans-Serif" font-size="10.00" fill="#000000">algorithm</text>
</g>
<!-- Node0&#45;&gt;Node1 -->
<g id="edge1" class="edge">
<title>Node0&#45;&gt;Node1</title>
<path fill="none" stroke="#191970" d="M324.4429,-112.2744C317.8764,-102.6106 310.8902,-92.3289 305.1749,-83.9177"/>
<polygon fill="#191970" stroke="#191970" points="308.0672,-81.9467 299.552,-75.6426 302.2773,-85.8809 308.0672,-81.9467"/>
</g>
<!-- Node2 -->
<g id="node3" class="node">
<title>Node2</title>
<g id="a_node3"><a xlink:href="../../d7/d16/Graph_8h.html" target="_top" xlink:title="ITStracking/Graph.h">
<polygon fill="none" stroke="#000000" points="343.5,-56.5 343.5,-75.5 456.5,-75.5 456.5,-56.5 343.5,-56.5"/>
<text text-anchor="middle" x="400" y="-63.5" font-family="Helvetica,sans-Serif" font-size="10.00" fill="#000000">ITStracking/Graph.h</text>
</a>
</g>
</g>
<!-- Node0&#45;&gt;Node2 -->
<g id="edge2" class="edge">
<title>Node0&#45;&gt;Node2</title>
<path fill="none" stroke="#191970" d="M367.9639,-112.2744C374.6542,-102.6106 381.7723,-92.3289 387.5954,-83.9177"/>
<polygon fill="#191970" stroke="#191970" points="390.5099,-85.8568 393.3244,-75.6426 384.7546,-81.8723 390.5099,-85.8568"/>
</g>
<!-- Node3 -->
<g id="node4" class="node">
<title>Node3</title>
<polygon fill="none" stroke="#bfbfbf" points="0,-.5 0,-19.5 42,-19.5 42,-.5 0,-.5"/>
<text text-anchor="middle" x="21" y="-7.5" font-family="Helvetica,sans-Serif" font-size="10.00" fill="#000000">array</text>
</g>
<!-- Node2&#45;&gt;Node3 -->
<g id="edge3" class="edge">
<title>Node2&#45;&gt;Node3</title>
<path fill="none" stroke="#191970" d="M343.4872,-57.3469C340.2787,-56.8838 337.0991,-56.4318 334,-56 211.6104,-38.946 176.3954,-47.7076 52.0617,-19.8731"/>
<polygon fill="#191970" stroke="#191970" points="52.6867,-16.426 42.1596,-17.6221 51.1349,-23.2518 52.6867,-16.426"/>
</g>
<!-- Node4 -->
<g id="node5" class="node">
<title>Node4</title>
<polygon fill="none" stroke="#bfbfbf" points="60.5,-.5 60.5,-19.5 107.5,-19.5 107.5,-.5 60.5,-.5"/>
<text text-anchor="middle" x="84" y="-7.5" font-family="Helvetica,sans-Serif" font-size="10.00" fill="#000000">cmath</text>
</g>
<!-- Node2&#45;&gt;Node4 -->
<g id="edge4" class="edge">
<title>Node2&#45;&gt;Node4</title>
<path fill="none" stroke="#191970" d="M343.3181,-57.2627C273.4189,-46.4256 159.4774,-28.5377 117.4975,-19.964"/>
<polygon fill="#191970" stroke="#191970" points="118.1794,-16.5305 107.6617,-17.8064 116.6794,-23.3679 118.1794,-16.5305"/>
</g>
<!-- Node5 -->
<g id="node6" class="node">
<title>Node5</title>
<polygon fill="none" stroke="#bfbfbf" points="125.5,-.5 125.5,-19.5 232.5,-19.5 232.5,-.5 125.5,-.5"/>
<text text-anchor="middle" x="179" y="-7.5" font-family="Helvetica,sans-Serif" font-size="10.00" fill="#000000">condition_variable</text>
</g>
<!-- Node2&#45;&gt;Node5 -->
<g id="edge5" class="edge">
<title>Node2&#45;&gt;Node5</title>
<path fill="none" stroke="#191970" d="M362.2599,-56.4369C324.7552,-46.9335 267.1201,-32.3291 226.5176,-22.0407"/>
<polygon fill="#191970" stroke="#191970" points="227.1379,-18.5873 216.5845,-19.5237 225.4184,-25.3728 227.1379,-18.5873"/>
</g>
<!-- Node6 -->
<g id="node7" class="node">
<title>Node6</title>
<polygon fill="none" stroke="#bfbfbf" points="250.5,-.5 250.5,-19.5 315.5,-19.5 315.5,-.5 250.5,-.5"/>
<text text-anchor="middle" x="283" y="-7.5" font-family="Helvetica,sans-Serif" font-size="10.00" fill="#000000">functional</text>
</g>
<!-- Node2&#45;&gt;Node6 -->
<g id="edge6" class="edge">
<title>Node2&#45;&gt;Node6</title>
<path fill="none" stroke="#191970" d="M379.887,-56.3733C361.1897,-47.4241 333.1256,-33.9917 312.0066,-23.8835"/>
<polygon fill="#191970" stroke="#191970" points="313.3817,-20.6614 302.8506,-19.5011 310.3595,-26.9755 313.3817,-20.6614"/>
</g>
<!-- Node7 -->
<g id="node8" class="node">
<title>Node7</title>
<polygon fill="none" stroke="#bfbfbf" points="334,-.5 334,-19.5 394,-19.5 394,-.5 334,-.5"/>
<text text-anchor="middle" x="364" y="-7.5" font-family="Helvetica,sans-Serif" font-size="10.00" fill="#000000">iostream</text>
</g>
<!-- Node2&#45;&gt;Node7 -->
<g id="edge7" class="edge">
<title>Node2&#45;&gt;Node7</title>
<path fill="none" stroke="#191970" d="M393.7293,-56.2455C388.7736,-48.5367 381.717,-37.5598 375.7224,-28.2348"/>
<polygon fill="#191970" stroke="#191970" points="378.5506,-26.1618 370.1989,-19.6427 372.6624,-29.9471 378.5506,-26.1618"/>
</g>
<!-- Node8 -->
<g id="node9" class="node">
<title>Node8</title>
<polygon fill="none" stroke="#bfbfbf" points="412,-.5 412,-19.5 460,-19.5 460,-.5 412,-.5"/>
<text text-anchor="middle" x="436" y="-7.5" font-family="Helvetica,sans-Serif" font-size="10.00" fill="#000000">mutex</text>
</g>
<!-- Node2&#45;&gt;Node8 -->
<g id="edge8" class="edge">
<title>Node2&#45;&gt;Node8</title>
<path fill="none" stroke="#191970" d="M406.2707,-56.2455C411.2264,-48.5367 418.283,-37.5598 424.2776,-28.2348"/>
<polygon fill="#191970" stroke="#191970" points="427.3376,-29.9471 429.8011,-19.6427 421.4494,-26.1618 427.3376,-29.9471"/>
</g>
<!-- Node9 -->
<g id="node10" class="node">
<title>Node9</title>
<polygon fill="none" stroke="#bfbfbf" points="478.5,-.5 478.5,-19.5 525.5,-19.5 525.5,-.5 478.5,-.5"/>
<text text-anchor="middle" x="502" y="-7.5" font-family="Helvetica,sans-Serif" font-size="10.00" fill="#000000">queue</text>
</g>
<!-- Node2&#45;&gt;Node9 -->
<g id="edge9" class="edge">
<title>Node2&#45;&gt;Node9</title>
<path fill="none" stroke="#191970" d="M417.767,-56.2455C433.7095,-47.4928 457.3259,-34.527 475.4989,-24.5496"/>
<polygon fill="#191970" stroke="#191970" points="477.3552,-27.5233 484.4366,-19.6427 473.9863,-21.3873 477.3552,-27.5233"/>
</g>
<!-- Node10 -->
<g id="node11" class="node">
<title>Node10</title>
<polygon fill="none" stroke="#bfbfbf" points="544,-.5 544,-19.5 592,-19.5 592,-.5 544,-.5"/>
<text text-anchor="middle" x="568" y="-7.5" font-family="Helvetica,sans-Serif" font-size="10.00" fill="#000000">thread</text>
</g>
<!-- Node2&#45;&gt;Node10 -->
<g id="edge10" class="edge">
<title>Node2&#45;&gt;Node10</title>
<path fill="none" stroke="#191970" d="M428.8802,-56.3733C458.0437,-46.6521 503.0776,-31.6408 533.96,-21.3467"/>
<polygon fill="#191970" stroke="#191970" points="535.4673,-24.5336 543.8473,-18.0509 533.2536,-17.8929 535.4673,-24.5336"/>
</g>
<!-- Node11 -->
<g id="node12" class="node">
<title>Node11</title>
<polygon fill="none" stroke="#bfbfbf" points="610.5,-.5 610.5,-19.5 655.5,-19.5 655.5,-.5 610.5,-.5"/>
<text text-anchor="middle" x="633" y="-7.5" font-family="Helvetica,sans-Serif" font-size="10.00" fill="#000000">utility</text>
</g>
<!-- Node2&#45;&gt;Node11 -->
<g id="edge11" class="edge">
<title>Node2&#45;&gt;Node11</title>
<path fill="none" stroke="#191970" d="M446.5577,-56.4212C485.3031,-48.2077 542.0924,-35.6113 600.5607,-19.9629"/>
<polygon fill="#191970" stroke="#191970" points="601.5973,-23.3084 610.3383,-17.3213 599.7716,-16.5507 601.5973,-23.3084"/>
</g>
<!-- Node12 -->
<g id="node13" class="node">
<title>Node12</title>
<polygon fill="none" stroke="#bfbfbf" points="673.5,-.5 673.5,-19.5 720.5,-19.5 720.5,-.5 673.5,-.5"/>
<text text-anchor="middle" x="697" y="-7.5" font-family="Helvetica,sans-Serif" font-size="10.00" fill="#000000">vector</text>
</g>
<!-- Node2&#45;&gt;Node12 -->
<g id="edge12" class="edge">
<title>Node2&#45;&gt;Node12</title>
<path fill="none" stroke="#191970" d="M456.5301,-58.38C508.2714,-50.9117 587.0684,-38.3002 663.5348,-20.137"/>
<polygon fill="#191970" stroke="#191970" points="664.4295,-23.5217 673.3311,-17.776 662.7894,-16.7165 664.4295,-23.5217"/>
</g>
</g>
</svg>
