<?xml version="1.0" encoding="UTF-8" standalone="no"?>
<!DOCTYPE svg PUBLIC "-//W3C//DTD SVG 1.1//EN"
 "http://www.w3.org/Graphics/SVG/1.1/DTD/svg11.dtd">
<!-- Generated by graphviz version 2.40.1 (20161225.0304)
 -->
<!-- Title: /home/travis/build/AliceO2Group/AliceO2/GPU/TPCSpaceChargeBase/AliTPCSpaceCharge3DCalc.h Pages: 1 -->
<svg width="907pt" height="251pt"
 viewBox="0.00 0.00 906.50 251.00" xmlns="http://www.w3.org/2000/svg" xmlns:xlink="http://www.w3.org/1999/xlink">
<g id="graph0" class="graph" transform="scale(1 1) rotate(0) translate(4 247)">
<title>/home/travis/build/AliceO2Group/AliceO2/GPU/TPCSpaceChargeBase/AliTPCSpaceCharge3DCalc.h</title>
<!-- Node0 -->
<g id="node1" class="node">
<title>Node0</title>
<polygon fill="#bfbfbf" stroke="#000000" points="211.5,-190.5 211.5,-242.5 369.5,-242.5 369.5,-190.5 211.5,-190.5"/>
<text text-anchor="start" x="219.5" y="-230.5" font-family="Helvetica,sans-Serif" font-size="10.00" fill="#000000">/home/travis/build</text>
<text text-anchor="start" x="219.5" y="-219.5" font-family="Helvetica,sans-Serif" font-size="10.00" fill="#000000">/AliceO2Group/AliceO2</text>
<text text-anchor="start" x="219.5" y="-208.5" font-family="Helvetica,sans-Serif" font-size="10.00" fill="#000000">/GPU/TPCSpaceChargeBase</text>
<text text-anchor="middle" x="290.5" y="-197.5" font-family="Helvetica,sans-Serif" font-size="10.00" fill="#000000">/AliTPCSpaceCharge3DCalc.h</text>
</g>
<!-- Node1 -->
<g id="node2" class="node">
<title>Node1</title>
<polygon fill="none" stroke="#bfbfbf" points="0,-129 0,-148 43,-148 43,-129 0,-129"/>
<text text-anchor="middle" x="21.5" y="-136" font-family="Helvetica,sans-Serif" font-size="10.00" fill="#000000">TF1.h</text>
</g>
<!-- Node0&#45;&gt;Node1 -->
<g id="edge1" class="edge">
<title>Node0&#45;&gt;Node1</title>
<path fill="none" stroke="#191970" d="M211.3587,-200.4344C164.1399,-189.7154 103.4552,-173.9328 51.5,-154 50.2685,-153.5275 49.0217,-153.0184 47.7718,-152.4826"/>
<polygon fill="#191970" stroke="#191970" points="48.8699,-149.1305 38.3331,-148.023 45.8794,-155.4596 48.8699,-149.1305"/>
</g>
<!-- Node2 -->
<g id="node3" class="node">
<title>Node2</title>
<polygon fill="none" stroke="#bfbfbf" points="61,-129 61,-148 104,-148 104,-129 61,-129"/>
<text text-anchor="middle" x="82.5" y="-136" font-family="Helvetica,sans-Serif" font-size="10.00" fill="#000000">TF2.h</text>
</g>
<!-- Node0&#45;&gt;Node2 -->
<g id="edge2" class="edge">
<title>Node0&#45;&gt;Node2</title>
<path fill="none" stroke="#191970" d="M211.1712,-191.2868C180.0348,-180.7079 144.2273,-167.6873 112.5,-154 111.4773,-153.5588 110.4411,-153.0977 109.3991,-152.6221"/>
<polygon fill="#191970" stroke="#191970" points="110.5949,-149.3121 100.0702,-148.0953 107.539,-155.6098 110.5949,-149.3121"/>
</g>
<!-- Node3 -->
<g id="node4" class="node">
<title>Node3</title>
<polygon fill="none" stroke="#bfbfbf" points="122,-129 122,-148 171,-148 171,-129 122,-129"/>
<text text-anchor="middle" x="146.5" y="-136" font-family="Helvetica,sans-Serif" font-size="10.00" fill="#000000">TH3F.h</text>
</g>
<!-- Node0&#45;&gt;Node3 -->
<g id="edge3" class="edge">
<title>Node0&#45;&gt;Node3</title>
<path fill="none" stroke="#191970" d="M242.1495,-190.3101C219.1186,-177.8351 192.4559,-163.3928 173.1408,-152.9304"/>
<polygon fill="#191970" stroke="#191970" points="174.7571,-149.8255 164.2971,-148.1401 171.4231,-155.9805 174.7571,-149.8255"/>
</g>
<!-- Node4 -->
<g id="node5" class="node">
<title>Node4</title>
<polygon fill="none" stroke="#bfbfbf" points="488.5,-.5 488.5,-19.5 558.5,-19.5 558.5,-.5 488.5,-.5"/>
<text text-anchor="middle" x="523.5" y="-7.5" font-family="Helvetica,sans-Serif" font-size="10.00" fill="#000000">TMatrixD.h</text>
</g>
<!-- Node0&#45;&gt;Node4 -->
<g id="edge4" class="edge">
<title>Node0&#45;&gt;Node4</title>
<path fill="none" stroke="#191970" d="M249.1997,-190.3013C237.3593,-180.4882 225.9253,-168.2162 219.5,-154 200.3254,-111.5755 218.5661,-82.9912 256.5,-56 291.3787,-31.1828 411.63,-18.4019 478.225,-13.0871"/>
<polygon fill="#191970" stroke="#191970" points="478.7309,-16.5586 488.4311,-12.2976 478.1909,-9.5794 478.7309,-16.5586"/>
</g>
<!-- Node5 -->
<g id="node6" class="node">
<title>Node5</title>
<g id="a_node6"><a xlink:href="../../dd/d13/AliTPCPoissonSolver_8h.html" target="_top" xlink:title="This class provides implementation of Poisson Eq solver by MultiGrid Method. ">
<polygon fill="none" stroke="#000000" points="228,-129 228,-148 353,-148 353,-129 228,-129"/>
<text text-anchor="middle" x="290.5" y="-136" font-family="Helvetica,sans-Serif" font-size="10.00" fill="#000000">AliTPCPoissonSolver.h</text>
</a>
</g>
</g>
<!-- Node0&#45;&gt;Node5 -->
<g id="edge5" class="edge">
<title>Node0&#45;&gt;Node5</title>
<path fill="none" stroke="#191970" d="M290.5,-190.0928C290.5,-179.6735 290.5,-167.911 290.5,-158.2512"/>
<polygon fill="#191970" stroke="#191970" points="294.0001,-158.0838 290.5,-148.0839 287.0001,-158.0839 294.0001,-158.0838"/>
</g>
<!-- Node8 -->
<g id="node9" class="node">
<title>Node8</title>
<g id="a_node9"><a xlink:href="../../d1/dc0/AliTPCLookUpTable3DInterpolatorD_8h.html" target="_top" xlink:title="Wrap up look&#45;up table for correction/distortion integral or derivative (electric field) assume 3 comp...">
<polygon fill="none" stroke="#000000" points="371,-129 371,-148 568,-148 568,-129 371,-129"/>
<text text-anchor="middle" x="469.5" y="-136" font-family="Helvetica,sans-Serif" font-size="10.00" fill="#000000">AliTPCLookUpTable3DInterpolatorD.h</text>
</a>
</g>
</g>
<!-- Node0&#45;&gt;Node8 -->
<g id="edge9" class="edge">
<title>Node0&#45;&gt;Node8</title>
<path fill="none" stroke="#191970" d="M350.6024,-190.3101C379.8817,-177.5515 413.8831,-162.7353 438.0068,-152.2233"/>
<polygon fill="#191970" stroke="#191970" points="439.6079,-155.3435 447.3772,-148.1401 436.8115,-148.9263 439.6079,-155.3435"/>
</g>
<!-- Node9 -->
<g id="node10" class="node">
<title>Node9</title>
<g id="a_node10"><a xlink:href="../../d2/d9a/AliTPC3DCylindricalInterpolator_8h.html" target="_top" xlink:title="Interpolator for cylindrical coordinate this class provides: cubic spline, quadratic and linear inter...">
<polygon fill="none" stroke="#000000" points="493,-62 493,-81 672,-81 672,-62 493,-62"/>
<text text-anchor="middle" x="582.5" y="-69" font-family="Helvetica,sans-Serif" font-size="10.00" fill="#000000">AliTPC3DCylindricalInterpolator.h</text>
</a>
</g>
</g>
<!-- Node0&#45;&gt;Node9 -->
<g id="edge13" class="edge">
<title>Node0&#45;&gt;Node9</title>
<path fill="none" stroke="#191970" d="M369.7573,-209.8319C445.1529,-201.7002 550.9146,-185.0271 577.5,-154 592.1819,-136.8651 590.7131,-109.6514 587.3955,-91.2067"/>
<polygon fill="#191970" stroke="#191970" points="590.7841,-90.3147 585.2779,-81.2631 583.9376,-91.7728 590.7841,-90.3147"/>
</g>
<!-- Node10 -->
<g id="node11" class="node">
<title>Node10</title>
<g id="a_node11"><a xlink:href="../../df/d79/AliTPCLookUpTable3DInterpolatorIrregularD_8h.html" target="_top" xlink:title="Wrap up look&#45;up table with irregular grid. ">
<polygon fill="none" stroke="#000000" points="625,-123.5 625,-153.5 806,-153.5 806,-123.5 625,-123.5"/>
<text text-anchor="start" x="633" y="-141.5" font-family="Helvetica,sans-Serif" font-size="10.00" fill="#000000">AliTPCLookUpTable3DInterpolator</text>
<text text-anchor="middle" x="715.5" y="-130.5" font-family="Helvetica,sans-Serif" font-size="10.00" fill="#000000">IrregularD.h</text>
</a>
</g>
</g>
<!-- Node0&#45;&gt;Node10 -->
<g id="edge14" class="edge">
<title>Node0&#45;&gt;Node10</title>
<path fill="none" stroke="#191970" d="M369.9407,-201.9203C441.9092,-188.712 547.9492,-169.2505 623.5585,-155.374"/>
<polygon fill="#191970" stroke="#191970" points="624.3489,-158.7875 633.5528,-153.5397 623.0852,-151.9024 624.3489,-158.7875"/>
</g>
<!-- Node11 -->
<g id="node12" class="node">
<title>Node11</title>
<g id="a_node12"><a xlink:href="../../d9/d86/AliTPC3DCylindricalInterpolatorIrregular_8h.html" target="_top" xlink:title="Irregular grid interpolator for cylindrical coordinate with r,phi,z different coordinates RBF&#45;based i...">
<polygon fill="none" stroke="#000000" points="728.5,-56.5 728.5,-86.5 898.5,-86.5 898.5,-56.5 728.5,-56.5"/>
<text text-anchor="start" x="736.5" y="-74.5" font-family="Helvetica,sans-Serif" font-size="10.00" fill="#000000">AliTPC3DCylindricalInterpolator</text>
<text text-anchor="middle" x="813.5" y="-63.5" font-family="Helvetica,sans-Serif" font-size="10.00" fill="#000000">Irregular.h</text>
</a>
</g>
</g>
<!-- Node0&#45;&gt;Node11 -->
<g id="edge18" class="edge">
<title>Node0&#45;&gt;Node11</title>
<path fill="none" stroke="#191970" d="M369.7693,-212.7677C509.2041,-205.3845 786.4354,-186.7299 815.5,-154 829.1622,-138.6149 826.8663,-114.528 822.2173,-96.3445"/>
<polygon fill="#191970" stroke="#191970" points="825.5597,-95.3039 819.3953,-86.6871 818.8407,-97.2674 825.5597,-95.3039"/>
</g>
<!-- Node5&#45;&gt;Node4 -->
<g id="edge7" class="edge">
<title>Node5&#45;&gt;Node4</title>
<path fill="none" stroke="#191970" d="M282.8936,-128.9348C270.5993,-112.2513 249.4711,-77.5572 267.5,-56 293.8297,-24.5175 411.8395,-14.5514 478.0576,-11.4189"/>
<polygon fill="#191970" stroke="#191970" points="478.3818,-14.9081 488.2186,-10.9725 478.0746,-7.9148 478.3818,-14.9081"/>
</g>
<!-- Node6 -->
<g id="node7" class="node">
<title>Node6</title>
<polygon fill="none" stroke="#bfbfbf" points="276,-62 276,-81 343,-81 343,-62 276,-62"/>
<text text-anchor="middle" x="309.5" y="-69" font-family="Helvetica,sans-Serif" font-size="10.00" fill="#000000">TNamed.h</text>
</g>
<!-- Node5&#45;&gt;Node6 -->
<g id="edge6" class="edge">
<title>Node5&#45;&gt;Node6</title>
<path fill="none" stroke="#191970" d="M293.2222,-128.9005C296.0158,-119.0495 300.441,-103.4451 303.9727,-90.9912"/>
<polygon fill="#191970" stroke="#191970" points="307.4217,-91.6572 306.7828,-81.0817 300.6873,-89.7474 307.4217,-91.6572"/>
</g>
<!-- Node7 -->
<g id="node8" class="node">
<title>Node7</title>
<polygon fill="none" stroke="#bfbfbf" points="361.5,-62 361.5,-81 431.5,-81 431.5,-62 361.5,-62"/>
<text text-anchor="middle" x="396.5" y="-69" font-family="Helvetica,sans-Serif" font-size="10.00" fill="#000000">TVectorD.h</text>
</g>
<!-- Node5&#45;&gt;Node7 -->
<g id="edge8" class="edge">
<title>Node5&#45;&gt;Node7</title>
<path fill="none" stroke="#191970" d="M305.6872,-128.9005C323.2403,-117.8057 352.3394,-99.4128 372.8598,-86.4424"/>
<polygon fill="#191970" stroke="#191970" points="374.758,-89.3832 381.341,-81.0817 371.0179,-83.4661 374.758,-89.3832"/>
</g>
<!-- Node8&#45;&gt;Node4 -->
<g id="edge10" class="edge">
<title>Node8&#45;&gt;Node4</title>
<path fill="none" stroke="#191970" d="M469.6558,-128.8593C470.2537,-112.9389 472.9289,-80.4805 484.5,-56 489.5335,-45.3508 497.6747,-35.1778 505.2201,-27.119"/>
<polygon fill="#191970" stroke="#191970" points="507.8887,-29.398 512.4298,-19.8256 502.9105,-24.4768 507.8887,-29.398"/>
</g>
<!-- Node8&#45;&gt;Node9 -->
<g id="edge11" class="edge">
<title>Node8&#45;&gt;Node9</title>
<path fill="none" stroke="#191970" d="M485.6901,-128.9005C504.4863,-117.7559 535.7016,-99.2477 557.5924,-86.2682"/>
<polygon fill="#191970" stroke="#191970" points="559.5233,-89.1924 566.3399,-81.0817 555.9531,-83.1712 559.5233,-89.1924"/>
</g>
<!-- Node9&#45;&gt;Node4 -->
<g id="edge12" class="edge">
<title>Node9&#45;&gt;Node4</title>
<path fill="none" stroke="#191970" d="M573.2813,-61.8906C564.4142,-52.6478 550.8088,-38.466 540.0611,-27.2628"/>
<polygon fill="#191970" stroke="#191970" points="542.2973,-24.5381 532.8487,-19.7449 537.2459,-29.3841 542.2973,-24.5381"/>
</g>
<!-- Node10&#45;&gt;Node4 -->
<g id="edge15" class="edge">
<title>Node10&#45;&gt;Node4</title>
<path fill="none" stroke="#191970" d="M713.3245,-123.4314C709.8597,-104.9236 701.3272,-73.8007 681.5,-56 664.7928,-41.0003 609.0393,-27.0789 568.4854,-18.5661"/>
<polygon fill="#191970" stroke="#191970" points="569.0354,-15.1061 558.5355,-16.521 567.6261,-21.9628 569.0354,-15.1061"/>
</g>
<!-- Node10&#45;&gt;Node11 -->
<g id="edge16" class="edge">
<title>Node10&#45;&gt;Node11</title>
<path fill="none" stroke="#191970" d="M737.7377,-123.2967C751.1447,-114.1306 768.4076,-102.3285 783.068,-92.3055"/>
<polygon fill="#191970" stroke="#191970" points="785.0705,-95.1763 791.3503,-86.6432 781.1198,-89.3977 785.0705,-95.1763"/>
</g>
<!-- Node11&#45;&gt;Node4 -->
<g id="edge17" class="edge">
<title>Node11&#45;&gt;Node4</title>
<path fill="none" stroke="#191970" d="M742.558,-56.4554C688.1931,-44.9263 614.8422,-29.3708 568.3489,-19.5111"/>
<polygon fill="#191970" stroke="#191970" points="569.075,-16.0873 558.5665,-17.4365 567.6228,-22.935 569.075,-16.0873"/>
</g>
</g>
</svg>
