<?xml version="1.0" encoding="UTF-8" standalone="no"?>
<!DOCTYPE svg PUBLIC "-//W3C//DTD SVG 1.1//EN"
 "http://www.w3.org/Graphics/SVG/1.1/DTD/svg11.dtd">
<!-- Generated by graphviz version 2.40.1 (20161225.0304)
 -->
<!-- Title: o2::raw::RawFileWriter::OutputFile Pages: 1 -->
<svg width="138pt" height="215pt"
 viewBox="0.00 0.00 137.50 215.00" xmlns="http://www.w3.org/2000/svg" xmlns:xlink="http://www.w3.org/1999/xlink">
<g id="graph0" class="graph" transform="scale(1 1) rotate(0) translate(4 211)">
<title>o2::raw::RawFileWriter::OutputFile</title>
<!-- Node1 -->
<g id="node1" class="node">
<title>Node1</title>
<polygon fill="#bfbfbf" stroke="#000000" points="0,-.5 0,-101.5 125,-101.5 125,-.5 0,-.5"/>
<text text-anchor="start" x="8" y="-89.5" font-family="Helvetica,sans-Serif" font-size="10.00" fill="#000000">o2::raw::RawFileWriter</text>
<text text-anchor="middle" x="62.5" y="-78.5" font-family="Helvetica,sans-Serif" font-size="10.00" fill="#000000">::OutputFile</text>
<polyline fill="none" stroke="#000000" points="0,-71.5 125,-71.5 "/>
<text text-anchor="middle" x="62.5" y="-59.5" font-family="Helvetica,sans-Serif" font-size="10.00" fill="#000000"> </text>
<polyline fill="none" stroke="#000000" points="0,-52.5 125,-52.5 "/>
<text text-anchor="start" x="8" y="-40.5" font-family="Helvetica,sans-Serif" font-size="10.00" fill="#000000">+ OutputFile()</text>
<text text-anchor="start" x="8" y="-29.5" font-family="Helvetica,sans-Serif" font-size="10.00" fill="#000000">+ OutputFile()</text>
<text text-anchor="start" x="8" y="-18.5" font-family="Helvetica,sans-Serif" font-size="10.00" fill="#000000">+ operator=()</text>
<text text-anchor="start" x="8" y="-7.5" font-family="Helvetica,sans-Serif" font-size="10.00" fill="#000000">+ write()</text>
</g>
<!-- Node2 -->
<g id="node2" class="node">
<title>Node2</title>
<polygon fill="none" stroke="#bfbfbf" points="4.5,-149.5 4.5,-206.5 48.5,-206.5 48.5,-149.5 4.5,-149.5"/>
<text text-anchor="middle" x="26.5" y="-194.5" font-family="Helvetica,sans-Serif" font-size="10.00" fill="#000000">FILE *</text>
<polyline fill="none" stroke="#bfbfbf" points="4.5,-187.5 48.5,-187.5 "/>
<text text-anchor="middle" x="26.5" y="-175.5" font-family="Helvetica,sans-Serif" font-size="10.00" fill="#000000"> </text>
<polyline fill="none" stroke="#bfbfbf" points="4.5,-168.5 48.5,-168.5 "/>
<text text-anchor="middle" x="26.5" y="-156.5" font-family="Helvetica,sans-Serif" font-size="10.00" fill="#000000"> </text>
</g>
<!-- Node2&#45;&gt;Node1 -->
<g id="edge1" class="edge">
<title>Node2&#45;&gt;Node1</title>
<path fill="none" stroke="#404040" d="M24.4538,-149.3476C24.4476,-139.8854 25.1706,-129.3833 27.5,-120 28.0704,-117.7023 28.7282,-115.394 29.4586,-113.0873"/>
<polygon fill="none" stroke="#404040" points="29.5284,-112.8961 27.831,-105.8876 33.6475,-101.6252 35.3449,-108.6337 29.5284,-112.8961"/>
<text text-anchor="middle" x="52" y="-123" font-family="Helvetica,sans-Serif" font-size="10.00" fill="#000000"> +handler</text>
</g>
<!-- Node3 -->
<g id="node3" class="node">
<title>Node3</title>
<polygon fill="none" stroke="#bfbfbf" points="74.5,-149.5 74.5,-206.5 122.5,-206.5 122.5,-149.5 74.5,-149.5"/>
<text text-anchor="middle" x="98.5" y="-194.5" font-family="Helvetica,sans-Serif" font-size="10.00" fill="#000000">mutex</text>
<polyline fill="none" stroke="#bfbfbf" points="74.5,-187.5 122.5,-187.5 "/>
<text text-anchor="middle" x="98.5" y="-175.5" font-family="Helvetica,sans-Serif" font-size="10.00" fill="#000000"> </text>
<polyline fill="none" stroke="#bfbfbf" points="74.5,-168.5 122.5,-168.5 "/>
<text text-anchor="middle" x="98.5" y="-156.5" font-family="Helvetica,sans-Serif" font-size="10.00" fill="#000000"> </text>
</g>
<!-- Node3&#45;&gt;Node1 -->
<g id="edge2" class="edge">
<title>Node3&#45;&gt;Node1</title>
<path fill="none" stroke="#404040" d="M90.4209,-149.4987C87.3576,-138.6923 83.7369,-125.9192 80.1357,-113.2147"/>
<polygon fill="none" stroke="#404040" points="80.1231,-113.1701 74.6384,-108.4885 76.8504,-101.625 82.3351,-106.3067 80.1231,-113.1701"/>
<text text-anchor="middle" x="107" y="-123" font-family="Helvetica,sans-Serif" font-size="10.00" fill="#000000"> +fileMtx</text>
</g>
</g>
</svg>
