<?xml version="1.0" encoding="UTF-8" standalone="no"?>
<!DOCTYPE svg PUBLIC "-//W3C//DTD SVG 1.1//EN"
 "http://www.w3.org/Graphics/SVG/1.1/DTD/svg11.dtd">
<!-- Generated by graphviz version 2.40.1 (20161225.0304)
 -->
<!-- Title: /home/travis/build/AliceO2Group/AliceO2/DataFormats/simulation/include/SimulationDataFormat/MCEventHeader.h Pages: 1 -->
<svg width="336pt" height="195pt"
 viewBox="0.00 0.00 336.00 195.00" xmlns="http://www.w3.org/2000/svg" xmlns:xlink="http://www.w3.org/1999/xlink">
<g id="graph0" class="graph" transform="scale(1 1) rotate(0) translate(4 191)">
<title>/home/travis/build/AliceO2Group/AliceO2/DataFormats/simulation/include/SimulationDataFormat/MCEventHeader.h</title>
<!-- Node0 -->
<g id="node1" class="node">
<title>Node0</title>
<polygon fill="#bfbfbf" stroke="#000000" points="118,-123.5 118,-186.5 286,-186.5 286,-123.5 118,-123.5"/>
<text text-anchor="start" x="126" y="-174.5" font-family="Helvetica,sans-Serif" font-size="10.00" fill="#000000">/home/travis/build</text>
<text text-anchor="start" x="126" y="-163.5" font-family="Helvetica,sans-Serif" font-size="10.00" fill="#000000">/AliceO2Group/AliceO2</text>
<text text-anchor="start" x="126" y="-152.5" font-family="Helvetica,sans-Serif" font-size="10.00" fill="#000000">/DataFormats/simulation</text>
<text text-anchor="start" x="126" y="-141.5" font-family="Helvetica,sans-Serif" font-size="10.00" fill="#000000">/include/SimulationDataFormat</text>
<text text-anchor="middle" x="202" y="-130.5" font-family="Helvetica,sans-Serif" font-size="10.00" fill="#000000">/MCEventHeader.h</text>
</g>
<!-- Node1 -->
<g id="node2" class="node">
<title>Node1</title>
<polygon fill="none" stroke="#bfbfbf" points="0,-62 0,-81 120,-81 120,-62 0,-62"/>
<text text-anchor="middle" x="60" y="-69" font-family="Helvetica,sans-Serif" font-size="10.00" fill="#000000">FairMCEventHeader.h</text>
</g>
<!-- Node0&#45;&gt;Node1 -->
<g id="edge1" class="edge">
<title>Node0&#45;&gt;Node1</title>
<path fill="none" stroke="#191970" d="M148.3159,-123.4322C126.7128,-110.729 102.8319,-96.6864 85.3556,-86.4098"/>
<polygon fill="#191970" stroke="#191970" points="86.7549,-83.1724 76.3607,-81.1205 83.2067,-89.2065 86.7549,-83.1724"/>
</g>
<!-- Node2 -->
<g id="node3" class="node">
<title>Node2</title>
<g id="a_node3"><a xlink:href="../../d6/d9d/MCEventStats_8h.html" target="_top" xlink:title="SimulationDataFormat\l/MCEventStats.h">
<polygon fill="none" stroke="#000000" points="138.5,-56.5 138.5,-86.5 265.5,-86.5 265.5,-56.5 138.5,-56.5"/>
<text text-anchor="start" x="146.5" y="-74.5" font-family="Helvetica,sans-Serif" font-size="10.00" fill="#000000">SimulationDataFormat</text>
<text text-anchor="middle" x="202" y="-63.5" font-family="Helvetica,sans-Serif" font-size="10.00" fill="#000000">/MCEventStats.h</text>
</a>
</g>
</g>
<!-- Node0&#45;&gt;Node2 -->
<g id="edge2" class="edge">
<title>Node0&#45;&gt;Node2</title>
<path fill="none" stroke="#191970" d="M202,-123.4322C202,-114.6979 202,-105.3303 202,-96.989"/>
<polygon fill="#191970" stroke="#191970" points="205.5001,-96.7544 202,-86.7545 198.5001,-96.7545 205.5001,-96.7544"/>
</g>
<!-- Node4 -->
<g id="node5" class="node">
<title>Node4</title>
<polygon fill="none" stroke="#bfbfbf" points="284,-62 284,-81 328,-81 328,-62 284,-62"/>
<text text-anchor="middle" x="306" y="-69" font-family="Helvetica,sans-Serif" font-size="10.00" fill="#000000">string</text>
</g>
<!-- Node0&#45;&gt;Node4 -->
<g id="edge4" class="edge">
<title>Node0&#45;&gt;Node4</title>
<path fill="none" stroke="#191970" d="M241.3179,-123.4322C256.4605,-111.2745 273.131,-97.89 285.7552,-87.7542"/>
<polygon fill="#191970" stroke="#191970" points="288.1736,-90.3011 293.7801,-81.3112 283.7911,-84.8427 288.1736,-90.3011"/>
</g>
<!-- Node3 -->
<g id="node4" class="node">
<title>Node3</title>
<polygon fill="none" stroke="#bfbfbf" points="172.5,-.5 172.5,-19.5 231.5,-19.5 231.5,-.5 172.5,-.5"/>
<text text-anchor="middle" x="202" y="-7.5" font-family="Helvetica,sans-Serif" font-size="10.00" fill="#000000">Rtypes.h</text>
</g>
<!-- Node2&#45;&gt;Node3 -->
<g id="edge3" class="edge">
<title>Node2&#45;&gt;Node3</title>
<path fill="none" stroke="#191970" d="M202,-56.2977C202,-48.3834 202,-38.6043 202,-30.0759"/>
<polygon fill="#191970" stroke="#191970" points="205.5001,-29.8469 202,-19.8469 198.5001,-29.847 205.5001,-29.8469"/>
</g>
</g>
</svg>
