<?xml version="1.0" encoding="UTF-8" standalone="no"?>
<!DOCTYPE svg PUBLIC "-//W3C//DTD SVG 1.1//EN"
 "http://www.w3.org/Graphics/SVG/1.1/DTD/svg11.dtd">
<!-- Generated by graphviz version 2.40.1 (20161225.0304)
 -->
<!-- Title: /home/travis/build/AliceO2Group/AliceO2/Detectors/Base/src/GeometryManager.cxx Pages: 1 -->
<!--zoomable 441 -->
<svg id="main" version="1.1" xmlns="http://www.w3.org/2000/svg" xmlns:xlink="http://www.w3.org/1999/xlink" xml:space="preserve" onload="init(evt)">
<style type="text/css"><![CDATA[
.edge:hover path { stroke: red; }
.edge:hover polygon { stroke: red; fill: red; }
]]></style>
<script type="text/javascript"><![CDATA[
var edges = document.getElementsByTagName('g');
if (edges && edges.length) {
  for (var i=0;i<edges.length;i++) {
    if (edges[i].id.substr(0,4)=='edge') {
      edges[i].setAttribute('class','edge');
    }
  }
}
]]></script>
        <defs>
                <circle id="rim" cx="0" cy="0" r="7"/>
                <circle id="rim2" cx="0" cy="0" r="3.5"/>
                <g id="zoomPlus">
                        <use xlink:href="#rim" fill="#404040">
                                <set attributeName="fill" to="#808080" begin="zoomplus.mouseover" end="zoomplus.mouseout"/>
                        </use>
                        <path d="M-4,0h8M0,-4v8" fill="none" stroke="white" stroke-width="1.5" pointer-events="none"/>
                </g>
                <g id="zoomMin">
                        <use xlink:href="#rim" fill="#404040">
                                <set attributeName="fill" to="#808080" begin="zoomminus.mouseover" end="zoomminus.mouseout"/>
                        </use>
                        <path d="M-4,0h8" fill="none" stroke="white" stroke-width="1.5" pointer-events="none"/>
                </g>
                <g id="dirArrow">
                        <path fill="none" stroke="white" stroke-width="1.5" d="M0,-3.0v7 M-2.5,-0.5L0,-3.0L2.5,-0.5"/>
                </g>
               <g id="resetDef">
                       <use xlink:href="#rim2" fill="#404040">
                               <set attributeName="fill" to="#808080" begin="reset.mouseover" end="reset.mouseout"/>
                       </use>
               </g>
        </defs>

<script type="text/javascript">
var viewWidth = 2535;
var viewHeight = 441;
var sectionId = 'dynsection-0';
</script>
<script xlink:href="../../svgpan.js"/>
<svg id="graph" class="graph">
<g id="viewport">
<title>/home/travis/build/AliceO2Group/AliceO2/Detectors/Base/src/GeometryManager.cxx</title>
<!-- Node0 -->
<g id="node1" class="node">
<title>Node0</title>
<polygon fill="#bfbfbf" stroke="#000000" points="1818,-380.5 1818,-432.5 1981,-432.5 1981,-380.5 1818,-380.5"/>
<text text-anchor="start" x="1826" y="-420.5" font-family="Helvetica,sans-Serif" font-size="10.00" fill="#000000">/home/travis/build</text>
<text text-anchor="start" x="1826" y="-409.5" font-family="Helvetica,sans-Serif" font-size="10.00" fill="#000000">/AliceO2Group/AliceO2</text>
<text text-anchor="start" x="1826" y="-398.5" font-family="Helvetica,sans-Serif" font-size="10.00" fill="#000000">/Detectors/Base/src/Geometry</text>
<text text-anchor="middle" x="1899.5" y="-387.5" font-family="Helvetica,sans-Serif" font-size="10.00" fill="#000000">Manager.cxx</text>
</g>
<!-- Node1 -->
<g id="node2" class="node">
<title>Node1</title>
<polygon fill="none" stroke="#bfbfbf" points="437,-252 437,-271 512,-271 512,-252 437,-252"/>
<text text-anchor="middle" x="474.5" y="-259" font-family="Helvetica,sans-Serif" font-size="10.00" fill="#000000">FairLogger.h</text>
</g>
<!-- Node0&#45;&gt;Node1 -->
<g id="edge1" class="edge">
<title>Node0&#45;&gt;Node1</title>
<path fill="none" stroke="#191970" d="M1817.8798,-404.6976C1589.3548,-399.2393 946.3042,-380.9514 738.5,-344 653.1354,-328.8206 556.8569,-294.0126 507.5261,-274.8159"/>
<polygon fill="#191970" stroke="#191970" points="508.6052,-271.4795 498.0178,-271.0821 506.0466,-277.9951 508.6052,-271.4795"/>
</g>
<!-- Node2 -->
<g id="node3" class="node">
<title>Node2</title>
<polygon fill="none" stroke="#bfbfbf" points="2060.5,-319 2060.5,-338 2140.5,-338 2140.5,-319 2060.5,-319"/>
<text text-anchor="middle" x="2100.5" y="-326" font-family="Helvetica,sans-Serif" font-size="10.00" fill="#000000">TCollection.h</text>
</g>
<!-- Node0&#45;&gt;Node2 -->
<g id="edge2" class="edge">
<title>Node0&#45;&gt;Node2</title>
<path fill="none" stroke="#191970" d="M1966.7095,-380.4187C2000.0484,-367.4812 2038.8973,-352.4055 2066.1157,-341.8432"/>
<polygon fill="#191970" stroke="#191970" points="2067.5291,-345.049 2075.5856,-338.1683 2064.9967,-338.5232 2067.5291,-345.049"/>
</g>
<!-- Node3 -->
<g id="node4" class="node">
<title>Node3</title>
<polygon fill="none" stroke="#bfbfbf" points="2158.5,-319 2158.5,-338 2206.5,-338 2206.5,-319 2158.5,-319"/>
<text text-anchor="middle" x="2182.5" y="-326" font-family="Helvetica,sans-Serif" font-size="10.00" fill="#000000">TFile.h</text>
</g>
<!-- Node0&#45;&gt;Node3 -->
<g id="edge3" class="edge">
<title>Node0&#45;&gt;Node3</title>
<path fill="none" stroke="#191970" d="M1981.1827,-390.2844C2030.6073,-379.4416 2094.4983,-363.5828 2149.5,-344 2151.0988,-343.4308 2152.7247,-342.8107 2154.3545,-342.1568"/>
<polygon fill="#191970" stroke="#191970" points="2155.7892,-345.3496 2163.5697,-338.1582 2153.0028,-338.9281 2155.7892,-345.3496"/>
</g>
<!-- Node4 -->
<g id="node5" class="node">
<title>Node4</title>
<polygon fill="none" stroke="#bfbfbf" points="1939.5,-185 1939.5,-204 2021.5,-204 2021.5,-185 1939.5,-185"/>
<text text-anchor="middle" x="1980.5" y="-192" font-family="Helvetica,sans-Serif" font-size="10.00" fill="#000000">TGeoMatrix.h</text>
</g>
<!-- Node0&#45;&gt;Node4 -->
<g id="edge4" class="edge">
<title>Node0&#45;&gt;Node4</title>
<path fill="none" stroke="#191970" d="M1876.8048,-380.2496C1863.0778,-361.0207 1850.3666,-334.6172 1862.5,-313 1877.5352,-286.2129 1899.0012,-297.9144 1921.5,-277 1941.958,-257.9827 1959.7157,-230.8577 1970.2648,-212.974"/>
<polygon fill="#191970" stroke="#191970" points="1973.4156,-214.5154 1975.3552,-204.0996 1967.3436,-211.0324 1973.4156,-214.5154"/>
</g>
<!-- Node5 -->
<g id="node6" class="node">
<title>Node5</title>
<polygon fill="none" stroke="#bfbfbf" points="2225,-319 2225,-338 2302,-338 2302,-319 2225,-319"/>
<text text-anchor="middle" x="2263.5" y="-326" font-family="Helvetica,sans-Serif" font-size="10.00" fill="#000000">TGeoNode.h</text>
</g>
<!-- Node0&#45;&gt;Node5 -->
<g id="edge5" class="edge">
<title>Node0&#45;&gt;Node5</title>
<path fill="none" stroke="#191970" d="M1981.276,-393.0385C2045.4276,-381.8272 2136.7375,-364.431 2215.5,-344 2218.9091,-343.1157 2222.4318,-342.1266 2225.9482,-341.0876"/>
<polygon fill="#191970" stroke="#191970" points="2227.2146,-344.3599 2235.7422,-338.0726 2225.155,-337.6698 2227.2146,-344.3599"/>
</g>
<!-- Node6 -->
<g id="node7" class="node">
<title>Node6</title>
<polygon fill="none" stroke="#bfbfbf" points="530,-252 530,-271 647,-271 647,-252 530,-252"/>
<text text-anchor="middle" x="588.5" y="-259" font-family="Helvetica,sans-Serif" font-size="10.00" fill="#000000">TGeoPhysicalNode.h</text>
</g>
<!-- Node0&#45;&gt;Node6 -->
<g id="edge6" class="edge">
<title>Node0&#45;&gt;Node6</title>
<path fill="none" stroke="#191970" d="M1817.8351,-403.9805C1606.9695,-397.0878 1048.0208,-376.2562 865.5,-344 776.1406,-328.2079 674.7997,-293.5572 622.9988,-274.5731"/>
<polygon fill="#191970" stroke="#191970" points="624.2103,-271.2895 613.6171,-271.107 621.7844,-277.8557 624.2103,-271.2895"/>
</g>
<!-- Node7 -->
<g id="node8" class="node">
<title>Node7</title>
<polygon fill="none" stroke="#bfbfbf" points="2320,-319 2320,-338 2393,-338 2393,-319 2320,-319"/>
<text text-anchor="middle" x="2356.5" y="-326" font-family="Helvetica,sans-Serif" font-size="10.00" fill="#000000">TObjArray.h</text>
</g>
<!-- Node0&#45;&gt;Node7 -->
<g id="edge7" class="edge">
<title>Node0&#45;&gt;Node7</title>
<path fill="none" stroke="#191970" d="M1981.2631,-398.5157C2065.0131,-389.3098 2198.5683,-371.772 2311.5,-344 2314.8926,-343.1657 2318.3921,-342.1842 2321.8706,-341.1268"/>
<polygon fill="#191970" stroke="#191970" points="2323.0763,-344.4154 2331.5121,-338.0054 2320.9202,-337.7557 2323.0763,-344.4154"/>
</g>
<!-- Node8 -->
<g id="node9" class="node">
<title>Node8</title>
<polygon fill="none" stroke="#bfbfbf" points="665,-252 665,-271 728,-271 728,-252 665,-252"/>
<text text-anchor="middle" x="696.5" y="-259" font-family="Helvetica,sans-Serif" font-size="10.00" fill="#000000">TObject.h</text>
</g>
<!-- Node0&#45;&gt;Node8 -->
<g id="edge8" class="edge">
<title>Node0&#45;&gt;Node8</title>
<path fill="none" stroke="#191970" d="M1817.8412,-404.3386C1665.3605,-399.4585 1327.2672,-384.6527 1045.5,-344 906.4155,-323.9332 871.0922,-317.3992 736.5,-277 734.0658,-276.2694 731.5698,-275.4581 729.0717,-274.6006"/>
<polygon fill="#191970" stroke="#191970" points="730.147,-271.2675 719.553,-271.1378 727.7539,-277.8457 730.147,-271.2675"/>
</g>
<!-- Node9 -->
<g id="node10" class="node">
<title>Node9</title>
<polygon fill="none" stroke="#bfbfbf" points="2411.5,-319 2411.5,-338 2455.5,-338 2455.5,-319 2411.5,-319"/>
<text text-anchor="middle" x="2433.5" y="-326" font-family="Helvetica,sans-Serif" font-size="10.00" fill="#000000">string</text>
</g>
<!-- Node0&#45;&gt;Node9 -->
<g id="edge9" class="edge">
<title>Node0&#45;&gt;Node9</title>
<path fill="none" stroke="#191970" d="M1981.0732,-399.7498C2102.7337,-389.1087 2325.6388,-367.2409 2402.5,-344 2404.1631,-343.4971 2405.8454,-342.9105 2407.5215,-342.2654"/>
<polygon fill="#191970" stroke="#191970" points="2409.1586,-345.3679 2416.8746,-338.1075 2406.315,-338.9715 2409.1586,-345.3679"/>
</g>
<!-- Node10 -->
<g id="node11" class="node">
<title>Node10</title>
<polygon fill="none" stroke="#bfbfbf" points="1385.5,-185 1385.5,-204 1437.5,-204 1437.5,-185 1385.5,-185"/>
<text text-anchor="middle" x="1411.5" y="-192" font-family="Helvetica,sans-Serif" font-size="10.00" fill="#000000">cassert</text>
</g>
<!-- Node0&#45;&gt;Node10 -->
<g id="edge10" class="edge">
<title>Node0&#45;&gt;Node10</title>
<path fill="none" stroke="#191970" d="M1817.9401,-394.7212C1745.7069,-383.2185 1646.5901,-364.4927 1612.5,-344 1563.5807,-314.593 1575.6133,-279.6368 1529.5,-246 1495.6923,-221.3393 1480.5718,-227.3682 1442.5,-210 1441.4872,-209.538 1440.4589,-209.0618 1439.4227,-208.5759"/>
<polygon fill="#191970" stroke="#191970" points="1440.6105,-205.2626 1430.084,-204.0611 1437.5637,-211.5648 1440.6105,-205.2626"/>
</g>
<!-- Node11 -->
<g id="node12" class="node">
<title>Node11</title>
<polygon fill="none" stroke="#bfbfbf" points="2474,-319 2474,-338 2527,-338 2527,-319 2474,-319"/>
<text text-anchor="middle" x="2500.5" y="-326" font-family="Helvetica,sans-Serif" font-size="10.00" fill="#000000">cstddef</text>
</g>
<!-- Node0&#45;&gt;Node11 -->
<g id="edge11" class="edge">
<title>Node0&#45;&gt;Node11</title>
<path fill="none" stroke="#191970" d="M1981.0679,-400.4645C2114.9344,-390.0582 2375.2889,-367.5764 2464.5,-344 2466.8314,-343.3839 2469.2071,-342.6413 2471.5703,-341.8191"/>
<polygon fill="#191970" stroke="#191970" points="2473.0259,-345.0082 2481.0682,-338.1109 2470.48,-338.4875 2473.0259,-345.0082"/>
</g>
<!-- Node12 -->
<g id="node13" class="node">
<title>Node12</title>
<g id="a_node13"><a xlink:href="../../db/dcc/Detectors_2Base_2include_2DetectorsBase_2GeometryManager_8h.html" target="_top" xlink:title="DetectorsBase/GeometryManager.h">
<polygon fill="none" stroke="#000000" points="1054.5,-319 1054.5,-338 1244.5,-338 1244.5,-319 1054.5,-319"/>
<text text-anchor="middle" x="1149.5" y="-326" font-family="Helvetica,sans-Serif" font-size="10.00" fill="#000000">DetectorsBase/GeometryManager.h</text>
</a>
</g>
</g>
<!-- Node0&#45;&gt;Node12 -->
<g id="edge12" class="edge">
<title>Node0&#45;&gt;Node12</title>
<path fill="none" stroke="#191970" d="M1817.8091,-398.0041C1679.9351,-383.6653 1401.4262,-354.7003 1251.1469,-339.0713"/>
<polygon fill="#191970" stroke="#191970" points="1251.3028,-335.5687 1240.9943,-338.0154 1250.5786,-342.5311 1251.3028,-335.5687"/>
</g>
<!-- Node44 -->
<g id="node45" class="node">
<title>Node44</title>
<g id="a_node45"><a xlink:href="../../d2/d8f/AlignParam_8h.html" target="_top" xlink:title="Definition of the base alignment parameters class. ">
<polygon fill="none" stroke="#000000" points="1871,-313.5 1871,-343.5 2042,-343.5 2042,-313.5 1871,-313.5"/>
<text text-anchor="start" x="1879" y="-331.5" font-family="Helvetica,sans-Serif" font-size="10.00" fill="#000000">DetectorsCommonDataFormats</text>
<text text-anchor="middle" x="1956.5" y="-320.5" font-family="Helvetica,sans-Serif" font-size="10.00" fill="#000000">/AlignParam.h</text>
</a>
</g>
</g>
<!-- Node0&#45;&gt;Node44 -->
<g id="edge55" class="edge">
<title>Node0&#45;&gt;Node44</title>
<path fill="none" stroke="#191970" d="M1918.7976,-380.0928C1925.5528,-370.8489 1933.0806,-360.5476 1939.6225,-351.5955"/>
<polygon fill="#191970" stroke="#191970" points="1942.4608,-353.6436 1945.5351,-343.5046 1936.8091,-349.5134 1942.4608,-353.6436"/>
</g>
<!-- Node46 -->
<g id="node47" class="node">
<title>Node46</title>
<g id="a_node47"><a xlink:href="../../d7/d61/NameConf_8h.html" target="_top" xlink:title="Definition of the Names Generator class. ">
<polygon fill="none" stroke="#000000" points="1621,-313.5 1621,-343.5 1792,-343.5 1792,-313.5 1621,-313.5"/>
<text text-anchor="start" x="1629" y="-331.5" font-family="Helvetica,sans-Serif" font-size="10.00" fill="#000000">DetectorsCommonDataFormats</text>
<text text-anchor="middle" x="1706.5" y="-320.5" font-family="Helvetica,sans-Serif" font-size="10.00" fill="#000000">/NameConf.h</text>
</a>
</g>
</g>
<!-- Node0&#45;&gt;Node46 -->
<g id="edge58" class="edge">
<title>Node0&#45;&gt;Node46</title>
<path fill="none" stroke="#191970" d="M1834.9655,-380.4187C1808.1682,-369.5887 1777.6634,-357.2603 1753.1055,-347.3354"/>
<polygon fill="#191970" stroke="#191970" points="1754.2457,-344.0212 1743.6628,-343.5192 1751.6228,-350.5112 1754.2457,-344.0212"/>
</g>
<!-- Node12&#45;&gt;Node1 -->
<g id="edge38" class="edge">
<title>Node12&#45;&gt;Node1</title>
<path fill="none" stroke="#191970" d="M1054.3992,-323.5531C904.4271,-315.2722 619.8281,-297.4815 520.5,-277 516.8168,-276.2405 513.0199,-275.2748 509.2609,-274.1979"/>
<polygon fill="#191970" stroke="#191970" points="510.0918,-270.7908 499.5032,-271.1527 508.0064,-277.4729 510.0918,-270.7908"/>
</g>
<!-- Node12&#45;&gt;Node6 -->
<g id="edge15" class="edge">
<title>Node12&#45;&gt;Node6</title>
<path fill="none" stroke="#191970" d="M1054.3284,-322.083C954.5047,-314.5348 793.2792,-300.0285 655.5,-277 649.1631,-275.9409 642.5299,-274.6421 636.0049,-273.2513"/>
<polygon fill="#191970" stroke="#191970" points="636.4189,-269.7582 625.8985,-271.0111 634.904,-276.5923 636.4189,-269.7582"/>
</g>
<!-- Node12&#45;&gt;Node8 -->
<g id="edge18" class="edge">
<title>Node12&#45;&gt;Node8</title>
<path fill="none" stroke="#191970" d="M1054.2826,-319.3608C951.516,-309.0111 794.7424,-291.6777 736.5,-277 733.6564,-276.2834 730.7413,-275.4205 727.8439,-274.4734"/>
<polygon fill="#191970" stroke="#191970" points="728.7856,-271.093 718.191,-271.0184 726.4266,-277.6836 728.7856,-271.093"/>
</g>
<!-- Node13 -->
<g id="node14" class="node">
<title>Node13</title>
<polygon fill="none" stroke="#bfbfbf" points="1227.5,-252 1227.5,-271 1319.5,-271 1319.5,-252 1227.5,-252"/>
<text text-anchor="middle" x="1273.5" y="-259" font-family="Helvetica,sans-Serif" font-size="10.00" fill="#000000">TGeoManager.h</text>
</g>
<!-- Node12&#45;&gt;Node13 -->
<g id="edge13" class="edge">
<title>Node12&#45;&gt;Node13</title>
<path fill="none" stroke="#191970" d="M1167.2662,-318.9005C1188.0762,-307.6564 1222.7588,-288.9166 1246.8087,-275.9219"/>
<polygon fill="#191970" stroke="#191970" points="1248.6327,-278.9147 1255.7668,-271.0817 1245.3051,-272.7561 1248.6327,-278.9147"/>
</g>
<!-- Node14 -->
<g id="node15" class="node">
<title>Node14</title>
<polygon fill="none" stroke="#bfbfbf" points="1338,-252 1338,-271 1429,-271 1429,-252 1338,-252"/>
<text text-anchor="middle" x="1383.5" y="-259" font-family="Helvetica,sans-Serif" font-size="10.00" fill="#000000">TGeoMaterial.h</text>
</g>
<!-- Node12&#45;&gt;Node14 -->
<g id="edge14" class="edge">
<title>Node12&#45;&gt;Node14</title>
<path fill="none" stroke="#191970" d="M1183.0265,-318.9005C1224.3821,-307.0594 1294.7706,-286.9054 1340.1838,-273.9025"/>
<polygon fill="#191970" stroke="#191970" points="1341.3855,-277.1992 1350.0357,-271.0817 1339.4586,-270.4696 1341.3855,-277.1992"/>
</g>
<!-- Node15 -->
<g id="node16" class="node">
<title>Node15</title>
<polygon fill="none" stroke="#bfbfbf" points="1054,-252 1054,-271 1135,-271 1135,-252 1054,-252"/>
<text text-anchor="middle" x="1094.5" y="-259" font-family="Helvetica,sans-Serif" font-size="10.00" fill="#000000">TGeoShape.h</text>
</g>
<!-- Node12&#45;&gt;Node15 -->
<g id="edge16" class="edge">
<title>Node12&#45;&gt;Node15</title>
<path fill="none" stroke="#191970" d="M1141.6198,-318.9005C1133.1248,-308.552 1119.4176,-291.8542 1108.972,-279.1295"/>
<polygon fill="#191970" stroke="#191970" points="1111.4158,-276.5902 1102.3655,-271.0817 1106.0053,-281.0317 1111.4158,-276.5902"/>
</g>
<!-- Node16 -->
<g id="node17" class="node">
<title>Node16</title>
<polygon fill="none" stroke="#bfbfbf" points="1153.5,-252 1153.5,-271 1209.5,-271 1209.5,-252 1153.5,-252"/>
<text text-anchor="middle" x="1181.5" y="-259" font-family="Helvetica,sans-Serif" font-size="10.00" fill="#000000">TMath.h</text>
</g>
<!-- Node12&#45;&gt;Node16 -->
<g id="edge17" class="edge">
<title>Node12&#45;&gt;Node16</title>
<path fill="none" stroke="#191970" d="M1154.0848,-318.9005C1158.8848,-308.8505 1166.5449,-292.8122 1172.5494,-280.2403"/>
<polygon fill="#191970" stroke="#191970" points="1175.7721,-281.6137 1176.9237,-271.0817 1169.4556,-278.5968 1175.7721,-281.6137"/>
</g>
<!-- Node17 -->
<g id="node18" class="node">
<title>Node17</title>
<polygon fill="none" stroke="#bfbfbf" points="1447,-252 1447,-271 1520,-271 1520,-252 1447,-252"/>
<text text-anchor="middle" x="1483.5" y="-259" font-family="Helvetica,sans-Serif" font-size="10.00" fill="#000000">string_view</text>
</g>
<!-- Node12&#45;&gt;Node17 -->
<g id="edge19" class="edge">
<title>Node12&#45;&gt;Node17</title>
<path fill="none" stroke="#191970" d="M1219.3688,-318.9684C1278.0797,-310.2545 1363.9434,-295.8588 1437.5,-277 1440.8673,-276.1367 1444.3438,-275.1491 1447.8069,-274.0998"/>
<polygon fill="#191970" stroke="#191970" points="1448.9655,-277.404 1457.4292,-271.0309 1446.8384,-270.735 1448.9655,-277.404"/>
</g>
<!-- Node18 -->
<g id="node19" class="node">
<title>Node18</title>
<g id="a_node19"><a xlink:href="../../d6/d31/DetID_8h.html" target="_top" xlink:title="DetectorsCommonDataFormats\l/DetID.h">
<polygon fill="none" stroke="#000000" points="1577,-246.5 1577,-276.5 1748,-276.5 1748,-246.5 1577,-246.5"/>
<text text-anchor="start" x="1585" y="-264.5" font-family="Helvetica,sans-Serif" font-size="10.00" fill="#000000">DetectorsCommonDataFormats</text>
<text text-anchor="middle" x="1662.5" y="-253.5" font-family="Helvetica,sans-Serif" font-size="10.00" fill="#000000">/DetID.h</text>
</a>
</g>
</g>
<!-- Node12&#45;&gt;Node18 -->
<g id="edge20" class="edge">
<title>Node12&#45;&gt;Node18</title>
<path fill="none" stroke="#191970" d="M1222.4556,-318.9717C1312.8492,-307.1659 1467.1083,-287.019 1566.8887,-273.9873"/>
<polygon fill="#191970" stroke="#191970" points="1567.509,-277.436 1576.9715,-272.6704 1566.6024,-270.495 1567.509,-277.436"/>
</g>
<!-- Node32 -->
<g id="node33" class="node">
<title>Node32</title>
<g id="a_node33"><a xlink:href="../../dd/d76/Cartesian3D_8h.html" target="_top" xlink:title="MathUtils/Cartesian3D.h">
<polygon fill="none" stroke="#000000" points="746,-252 746,-271 881,-271 881,-252 746,-252"/>
<text text-anchor="middle" x="813.5" y="-259" font-family="Helvetica,sans-Serif" font-size="10.00" fill="#000000">MathUtils/Cartesian3D.h</text>
</a>
</g>
</g>
<!-- Node12&#45;&gt;Node32 -->
<g id="edge39" class="edge">
<title>Node12&#45;&gt;Node32</title>
<path fill="none" stroke="#191970" d="M1101.0855,-318.9949C1048.858,-308.7215 963.2605,-291.8266 889.5,-277 883.2621,-275.7461 876.7378,-274.4271 870.2453,-273.1096"/>
<polygon fill="#191970" stroke="#191970" points="870.6117,-269.6126 860.1149,-271.0502 869.2172,-276.4723 870.6117,-269.6126"/>
</g>
<!-- Node42 -->
<g id="node43" class="node">
<title>Node42</title>
<g id="a_node43"><a xlink:href="../../db/dba/MatCell_8h.html" target="_top" xlink:title="Declarations for material properties of the cell (voxel) ">
<polygon fill="none" stroke="#000000" points="899,-252 899,-271 1036,-271 1036,-252 899,-252"/>
<text text-anchor="middle" x="967.5" y="-259" font-family="Helvetica,sans-Serif" font-size="10.00" fill="#000000">DetectorsBase/MatCell.h</text>
</a>
</g>
</g>
<!-- Node12&#45;&gt;Node42 -->
<g id="edge51" class="edge">
<title>Node12&#45;&gt;Node42</title>
<path fill="none" stroke="#191970" d="M1123.4238,-318.9005C1091.7989,-307.2584 1038.3456,-287.5805 1002.9876,-274.5641"/>
<polygon fill="#191970" stroke="#191970" points="1004.1213,-271.2519 993.5278,-271.0817 1001.703,-277.8209 1004.1213,-271.2519"/>
</g>
<!-- Node18&#45;&gt;Node10 -->
<g id="edge24" class="edge">
<title>Node18&#45;&gt;Node10</title>
<path fill="none" stroke="#191970" d="M1591.0495,-246.4958C1549.8824,-237.247 1497.3646,-224.416 1451.5,-210 1449.0755,-209.2379 1446.5865,-208.4036 1444.0935,-207.5298"/>
<polygon fill="#191970" stroke="#191970" points="1445.1785,-204.1997 1434.585,-204.0336 1442.7628,-210.7697 1445.1785,-204.1997"/>
</g>
<!-- Node19 -->
<g id="node20" class="node">
<title>Node19</title>
<polygon fill="none" stroke="#bfbfbf" points="1237,-118 1237,-137 1296,-137 1296,-118 1237,-118"/>
<text text-anchor="middle" x="1266.5" y="-125" font-family="Helvetica,sans-Serif" font-size="10.00" fill="#000000">Rtypes.h</text>
</g>
<!-- Node18&#45;&gt;Node19 -->
<g id="edge21" class="edge">
<title>Node18&#45;&gt;Node19</title>
<path fill="none" stroke="#191970" d="M1585.4306,-246.39C1553.1112,-238.2536 1515.8397,-226.4341 1484.5,-210 1465.1971,-199.8778 1465.8179,-189.0935 1446.5,-179 1401.3392,-155.4038 1343.9917,-141.3947 1306.3167,-134.0794"/>
<polygon fill="#191970" stroke="#191970" points="1306.7121,-130.5927 1296.2385,-132.1912 1305.423,-137.473 1306.7121,-130.5927"/>
</g>
<!-- Node20 -->
<g id="node21" class="node">
<title>Node20</title>
<polygon fill="none" stroke="#bfbfbf" points="1816.5,-118 1816.5,-137 1858.5,-137 1858.5,-118 1816.5,-118"/>
<text text-anchor="middle" x="1837.5" y="-125" font-family="Helvetica,sans-Serif" font-size="10.00" fill="#000000">array</text>
</g>
<!-- Node18&#45;&gt;Node20 -->
<g id="edge22" class="edge">
<title>Node18&#45;&gt;Node20</title>
<path fill="none" stroke="#191970" d="M1729.1763,-246.4205C1765.6698,-236.8678 1805.9633,-223.7536 1818.5,-210 1834.0791,-192.9087 1837.6851,-165.6615 1838.1507,-147.1989"/>
<polygon fill="#191970" stroke="#191970" points="1841.6501,-146.9951 1838.1138,-137.0078 1834.6501,-147.0205 1841.6501,-146.9951"/>
</g>
<!-- Node21 -->
<g id="node22" class="node">
<title>Node21</title>
<polygon fill="none" stroke="#bfbfbf" points="1493.5,-185 1493.5,-204 1537.5,-204 1537.5,-185 1493.5,-185"/>
<text text-anchor="middle" x="1515.5" y="-192" font-family="Helvetica,sans-Serif" font-size="10.00" fill="#000000">bitset</text>
</g>
<!-- Node18&#45;&gt;Node21 -->
<g id="edge23" class="edge">
<title>Node18&#45;&gt;Node21</title>
<path fill="none" stroke="#191970" d="M1627.5406,-246.4767C1604.4192,-236.4187 1573.5035,-222.737 1546.5,-210 1545.5204,-209.5379 1544.5253,-209.0642 1543.5217,-208.5828"/>
<polygon fill="#191970" stroke="#191970" points="1544.9712,-205.3956 1534.4502,-204.1471 1541.8963,-211.6841 1544.9712,-205.3956"/>
</g>
<!-- Node22 -->
<g id="node23" class="node">
<title>Node22</title>
<polygon fill="none" stroke="#bfbfbf" points="1555.5,-185 1555.5,-204 1605.5,-204 1605.5,-185 1555.5,-185"/>
<text text-anchor="middle" x="1580.5" y="-192" font-family="Helvetica,sans-Serif" font-size="10.00" fill="#000000">cstdint</text>
</g>
<!-- Node18&#45;&gt;Node22 -->
<g id="edge25" class="edge">
<title>Node18&#45;&gt;Node22</title>
<path fill="none" stroke="#191970" d="M1643.8929,-246.2967C1630.8689,-235.6551 1613.4961,-221.4602 1600.231,-210.6217"/>
<polygon fill="#191970" stroke="#191970" points="1602.1525,-207.6719 1592.1941,-204.055 1597.7234,-213.0926 1602.1525,-207.6719"/>
</g>
<!-- Node23 -->
<g id="node24" class="node">
<title>Node23</title>
<polygon fill="none" stroke="#bfbfbf" points="1624,-185 1624,-204 1693,-204 1693,-185 1624,-185"/>
<text text-anchor="middle" x="1658.5" y="-192" font-family="Helvetica,sans-Serif" font-size="10.00" fill="#000000">type_traits</text>
</g>
<!-- Node18&#45;&gt;Node23 -->
<g id="edge26" class="edge">
<title>Node18&#45;&gt;Node23</title>
<path fill="none" stroke="#191970" d="M1661.5923,-246.2967C1661.0236,-236.7699 1660.2848,-224.3954 1659.672,-214.1306"/>
<polygon fill="#191970" stroke="#191970" points="1663.1603,-213.8286 1659.0704,-204.055 1656.1727,-214.2458 1663.1603,-213.8286"/>
</g>
<!-- Node24 -->
<g id="node25" class="node">
<title>Node24</title>
<g id="a_node25"><a xlink:href="../../d9/d52/Common_2MathUtils_2include_2MathUtils_2Utils_8h.html" target="_top" xlink:title="MathUtils/Utils.h">
<polygon fill="none" stroke="#000000" points="1711.5,-185 1711.5,-204 1809.5,-204 1809.5,-185 1711.5,-185"/>
<text text-anchor="middle" x="1760.5" y="-192" font-family="Helvetica,sans-Serif" font-size="10.00" fill="#000000">MathUtils/Utils.h</text>
</a>
</g>
</g>
<!-- Node18&#45;&gt;Node24 -->
<g id="edge27" class="edge">
<title>Node18&#45;&gt;Node24</title>
<path fill="none" stroke="#191970" d="M1684.7377,-246.2967C1700.7478,-235.351 1722.2563,-220.6462 1738.2656,-209.701"/>
<polygon fill="#191970" stroke="#191970" points="1740.2443,-212.5881 1746.5241,-204.055 1736.2936,-206.8095 1740.2443,-212.5881"/>
</g>
<!-- Node24&#45;&gt;Node20 -->
<g id="edge28" class="edge">
<title>Node24&#45;&gt;Node20</title>
<path fill="none" stroke="#191970" d="M1771.5322,-184.9005C1783.8828,-174.1539 1804.1023,-156.5603 1818.9057,-143.6794"/>
<polygon fill="#191970" stroke="#191970" points="1821.2418,-146.2863 1826.4882,-137.0817 1816.6468,-141.0055 1821.2418,-146.2863"/>
</g>
<!-- Node25 -->
<g id="node26" class="node">
<title>Node25</title>
<polygon fill="none" stroke="#bfbfbf" points="1762,-56.5 1762,-75.5 1809,-75.5 1809,-56.5 1762,-56.5"/>
<text text-anchor="middle" x="1785.5" y="-63.5" font-family="Helvetica,sans-Serif" font-size="10.00" fill="#000000">cmath</text>
</g>
<!-- Node24&#45;&gt;Node25 -->
<g id="edge29" class="edge">
<title>Node24&#45;&gt;Node25</title>
<path fill="none" stroke="#191970" d="M1762.3791,-184.8416C1766.4692,-163.8184 1776.2471,-113.5598 1781.686,-85.6038"/>
<polygon fill="#191970" stroke="#191970" points="1785.1249,-86.2548 1783.5991,-75.7705 1778.2537,-84.918 1785.1249,-86.2548"/>
</g>
<!-- Node26 -->
<g id="node27" class="node">
<title>Node26</title>
<g id="a_node27"><a xlink:href="../../df/d21/GPUCommonDef_8h.html" target="_top" xlink:title="GPUCommonDef.h">
<polygon fill="none" stroke="#000000" points="1548,-56.5 1548,-75.5 1655,-75.5 1655,-56.5 1548,-56.5"/>
<text text-anchor="middle" x="1601.5" y="-63.5" font-family="Helvetica,sans-Serif" font-size="10.00" fill="#000000">GPUCommonDef.h</text>
</a>
</g>
</g>
<!-- Node24&#45;&gt;Node26 -->
<g id="edge30" class="edge">
<title>Node24&#45;&gt;Node26</title>
<path fill="none" stroke="#191970" d="M1730.743,-184.9653C1698.7047,-174.2202 1650.4466,-156.494 1636.5,-143 1620.3116,-127.3369 1610.9569,-102.7976 1606.0587,-85.6434"/>
<polygon fill="#191970" stroke="#191970" points="1609.3538,-84.4065 1603.4564,-75.6047 1602.5777,-86.163 1609.3538,-84.4065"/>
</g>
<!-- Node29 -->
<g id="node30" class="node">
<title>Node29</title>
<g id="a_node30"><a xlink:href="../../d6/da2/GPUCommonMath_8h.html" target="_top" xlink:title="GPUCommonMath.h">
<polygon fill="none" stroke="#000000" points="1645,-118 1645,-137 1760,-137 1760,-118 1645,-118"/>
<text text-anchor="middle" x="1702.5" y="-125" font-family="Helvetica,sans-Serif" font-size="10.00" fill="#000000">GPUCommonMath.h</text>
</a>
</g>
</g>
<!-- Node24&#45;&gt;Node29 -->
<g id="edge33" class="edge">
<title>Node24&#45;&gt;Node29</title>
<path fill="none" stroke="#191970" d="M1752.19,-184.9005C1743.1454,-174.4525 1728.4983,-157.5325 1717.4445,-144.7635"/>
<polygon fill="#191970" stroke="#191970" points="1719.9858,-142.3515 1710.7946,-137.0817 1714.6934,-146.9331 1719.9858,-142.3515"/>
</g>
<!-- Node31 -->
<g id="node32" class="node">
<title>Node31</title>
<g id="a_node32"><a xlink:href="../../d6/d84/MathConstants_8h.html" target="_top" xlink:title="useful math constants ">
<polygon fill="none" stroke="#000000" points="1394.5,-118 1394.5,-137 1588.5,-137 1588.5,-118 1394.5,-118"/>
<text text-anchor="middle" x="1491.5" y="-125" font-family="Helvetica,sans-Serif" font-size="10.00" fill="#000000">CommonConstants/MathConstants.h</text>
</a>
</g>
</g>
<!-- Node24&#45;&gt;Node31 -->
<g id="edge37" class="edge">
<title>Node24&#45;&gt;Node31</title>
<path fill="none" stroke="#191970" d="M1725.2597,-184.9511C1717.7553,-182.9544 1709.8716,-180.8844 1702.5,-179 1647.5406,-164.9509 1584.3092,-149.629 1541.5076,-139.3818"/>
<polygon fill="#191970" stroke="#191970" points="1542.162,-135.9397 1531.6222,-137.0184 1540.5342,-142.7478 1542.162,-135.9397"/>
</g>
<!-- Node27 -->
<g id="node28" class="node">
<title>Node27</title>
<g id="a_node28"><a xlink:href="../../d5/d93/GPUCommonDefSettings_8h.html" target="_top" xlink:title="GPUCommonDefSettings.h">
<polygon fill="none" stroke="#000000" points="1450.5,-.5 1450.5,-19.5 1598.5,-19.5 1598.5,-.5 1450.5,-.5"/>
<text text-anchor="middle" x="1524.5" y="-7.5" font-family="Helvetica,sans-Serif" font-size="10.00" fill="#000000">GPUCommonDefSettings.h</text>
</a>
</g>
</g>
<!-- Node26&#45;&gt;Node27 -->
<g id="edge31" class="edge">
<title>Node26&#45;&gt;Node27</title>
<path fill="none" stroke="#191970" d="M1588.0876,-56.2455C1576.4943,-47.814 1559.5252,-35.4729 1546.0322,-25.6598"/>
<polygon fill="#191970" stroke="#191970" points="1547.9047,-22.6938 1537.7587,-19.6427 1543.7874,-28.355 1547.9047,-22.6938"/>
</g>
<!-- Node28 -->
<g id="node29" class="node">
<title>Node28</title>
<g id="a_node29"><a xlink:href="../../da/d5a/GPUCommonDefAPI_8h.html" target="_top" xlink:title="GPUCommonDefAPI.h">
<polygon fill="none" stroke="#000000" points="1616.5,-.5 1616.5,-19.5 1740.5,-19.5 1740.5,-.5 1616.5,-.5"/>
<text text-anchor="middle" x="1678.5" y="-7.5" font-family="Helvetica,sans-Serif" font-size="10.00" fill="#000000">GPUCommonDefAPI.h</text>
</a>
</g>
</g>
<!-- Node26&#45;&gt;Node28 -->
<g id="edge32" class="edge">
<title>Node26&#45;&gt;Node28</title>
<path fill="none" stroke="#191970" d="M1614.9124,-56.2455C1626.5057,-47.814 1643.4748,-35.4729 1656.9678,-25.6598"/>
<polygon fill="#191970" stroke="#191970" points="1659.2126,-28.355 1665.2413,-19.6427 1655.0953,-22.6938 1659.2126,-28.355"/>
</g>
<!-- Node29&#45;&gt;Node25 -->
<g id="edge35" class="edge">
<title>Node29&#45;&gt;Node25</title>
<path fill="none" stroke="#191970" d="M1715.4688,-117.8906C1728.5034,-108.2324 1748.8164,-93.1812 1764.2155,-81.771"/>
<polygon fill="#191970" stroke="#191970" points="1766.6713,-84.3075 1772.6223,-75.5419 1762.5039,-78.6832 1766.6713,-84.3075"/>
</g>
<!-- Node29&#45;&gt;Node26 -->
<g id="edge34" class="edge">
<title>Node29&#45;&gt;Node26</title>
<path fill="none" stroke="#191970" d="M1686.7188,-117.8906C1670.4125,-107.9616 1644.746,-92.333 1625.8386,-80.8201"/>
<polygon fill="#191970" stroke="#191970" points="1627.5319,-77.7533 1617.1704,-75.5419 1623.8913,-83.7322 1627.5319,-77.7533"/>
</g>
<!-- Node30 -->
<g id="node31" class="node">
<title>Node30</title>
<polygon fill="none" stroke="#bfbfbf" points="1673.5,-56.5 1673.5,-75.5 1737.5,-75.5 1737.5,-56.5 1673.5,-56.5"/>
<text text-anchor="middle" x="1705.5" y="-63.5" font-family="Helvetica,sans-Serif" font-size="10.00" fill="#000000">algorithm</text>
</g>
<!-- Node29&#45;&gt;Node30 -->
<g id="edge36" class="edge">
<title>Node29&#45;&gt;Node30</title>
<path fill="none" stroke="#191970" d="M1702.9688,-117.8906C1703.3846,-109.3657 1704.0054,-96.6392 1704.5281,-85.9235"/>
<polygon fill="#191970" stroke="#191970" points="1708.0332,-85.9035 1705.0246,-75.7449 1701.0415,-85.5624 1708.0332,-85.9035"/>
</g>
<!-- Node32&#45;&gt;Node4 -->
<g id="edge46" class="edge">
<title>Node32&#45;&gt;Node4</title>
<path fill="none" stroke="#191970" d="M853.9227,-251.9551C865.3617,-249.6093 877.8658,-247.3778 889.5,-246 1349.2306,-191.5553 1474.0425,-287.2206 1930.5,-210 1935.0588,-209.2288 1939.7803,-208.1519 1944.4199,-206.9214"/>
<polygon fill="#191970" stroke="#191970" points="1945.7215,-210.1882 1954.3507,-204.041 1943.7715,-203.4653 1945.7215,-210.1882"/>
</g>
<!-- Node32&#45;&gt;Node19 -->
<g id="edge45" class="edge">
<title>Node32&#45;&gt;Node19</title>
<path fill="none" stroke="#191970" d="M857.6125,-251.9813C868.0428,-249.8756 879.1437,-247.7522 889.5,-246 1007.5625,-226.0246 1046.6434,-257.6373 1156.5,-210 1176.4968,-201.3288 1177.183,-192.2357 1194.5,-179 1210.881,-166.4797 1229.8662,-152.9387 1244.2276,-142.8851"/>
<polygon fill="#191970" stroke="#191970" points="1246.3033,-145.7047 1252.5074,-137.1163 1242.3016,-139.9612 1246.3033,-145.7047"/>
</g>
<!-- Node33 -->
<g id="node34" class="node">
<title>Node33</title>
<polygon fill="none" stroke="#bfbfbf" points="983.5,-179.5 983.5,-209.5 1147.5,-209.5 1147.5,-179.5 983.5,-179.5"/>
<text text-anchor="start" x="991.5" y="-197.5" font-family="Helvetica,sans-Serif" font-size="10.00" fill="#000000">Math/GenVector/Displacement</text>
<text text-anchor="middle" x="1065.5" y="-186.5" font-family="Helvetica,sans-Serif" font-size="10.00" fill="#000000">Vector3D.h</text>
</g>
<!-- Node32&#45;&gt;Node33 -->
<g id="edge40" class="edge">
<title>Node32&#45;&gt;Node33</title>
<path fill="none" stroke="#191970" d="M849.3378,-251.9717C888.2384,-241.6291 951.2169,-224.8848 999.1861,-212.1311"/>
<polygon fill="#191970" stroke="#191970" points="1000.109,-215.5074 1008.8739,-209.5553 998.3103,-208.7424 1000.109,-215.5074"/>
</g>
<!-- Node34 -->
<g id="node35" class="node">
<title>Node34</title>
<polygon fill="none" stroke="#bfbfbf" points="0,-185 0,-204 189,-204 189,-185 0,-185"/>
<text text-anchor="middle" x="94.5" y="-192" font-family="Helvetica,sans-Serif" font-size="10.00" fill="#000000">Math/GenVector/PositionVector3D.h</text>
</g>
<!-- Node32&#45;&gt;Node34 -->
<g id="edge41" class="edge">
<title>Node32&#45;&gt;Node34</title>
<path fill="none" stroke="#191970" d="M771.3062,-251.9632C760.0469,-249.7048 747.8538,-247.5152 736.5,-246 498.5205,-214.2413 436.1897,-235.8859 197.5,-210 186.0981,-208.7635 174.0239,-207.1883 162.3104,-205.5181"/>
<polygon fill="#191970" stroke="#191970" points="162.5363,-202.0141 152.1355,-204.0321 161.5247,-208.9406 162.5363,-202.0141"/>
</g>
<!-- Node35 -->
<g id="node36" class="node">
<title>Node35</title>
<polygon fill="none" stroke="#bfbfbf" points="360.5,-185 360.5,-204 520.5,-204 520.5,-185 360.5,-185"/>
<text text-anchor="middle" x="440.5" y="-192" font-family="Helvetica,sans-Serif" font-size="10.00" fill="#000000">Math/GenVector/Rotation3D.h</text>
</g>
<!-- Node32&#45;&gt;Node35 -->
<g id="edge42" class="edge">
<title>Node32&#45;&gt;Node35</title>
<path fill="none" stroke="#191970" d="M767.1205,-251.9574C757.0358,-249.9403 746.4178,-247.8603 736.5,-246 644.7197,-228.7846 621.4981,-226.0109 529.5,-210 521.5907,-208.6235 513.286,-207.1778 505.0604,-205.7455"/>
<polygon fill="#191970" stroke="#191970" points="505.5502,-202.2782 495.098,-204.0107 504.3493,-209.1744 505.5502,-202.2782"/>
</g>
<!-- Node36 -->
<g id="node37" class="node">
<title>Node36</title>
<polygon fill="none" stroke="#bfbfbf" points="538.5,-185 538.5,-204 706.5,-204 706.5,-185 538.5,-185"/>
<text text-anchor="middle" x="622.5" y="-192" font-family="Helvetica,sans-Serif" font-size="10.00" fill="#000000">Math/GenVector/Transform3D.h</text>
</g>
<!-- Node32&#45;&gt;Node36 -->
<g id="edge43" class="edge">
<title>Node32&#45;&gt;Node36</title>
<path fill="none" stroke="#191970" d="M786.1344,-251.9005C752.8038,-240.2086 696.3691,-220.4122 659.2677,-207.3976"/>
<polygon fill="#191970" stroke="#191970" points="660.4097,-204.0891 649.8149,-204.0817 658.0926,-210.6945 660.4097,-204.0891"/>
</g>
<!-- Node37 -->
<g id="node38" class="node">
<title>Node37</title>
<polygon fill="none" stroke="#bfbfbf" points="725,-185 725,-204 898,-204 898,-185 725,-185"/>
<text text-anchor="middle" x="811.5" y="-192" font-family="Helvetica,sans-Serif" font-size="10.00" fill="#000000">Math/GenVector/Translation3D.h</text>
</g>
<!-- Node32&#45;&gt;Node37 -->
<g id="edge44" class="edge">
<title>Node32&#45;&gt;Node37</title>
<path fill="none" stroke="#191970" d="M813.2134,-251.9005C812.9224,-242.149 812.463,-226.7597 812.0931,-214.3695"/>
<polygon fill="#191970" stroke="#191970" points="815.5829,-213.9727 811.786,-204.0817 808.586,-214.1817 815.5829,-213.9727"/>
</g>
<!-- Node38 -->
<g id="node39" class="node">
<title>Node38</title>
<polygon fill="none" stroke="#bfbfbf" points="916,-185 916,-204 965,-204 965,-185 916,-185"/>
<text text-anchor="middle" x="940.5" y="-192" font-family="Helvetica,sans-Serif" font-size="10.00" fill="#000000">iosfwd</text>
</g>
<!-- Node32&#45;&gt;Node38 -->
<g id="edge47" class="edge">
<title>Node32&#45;&gt;Node38</title>
<path fill="none" stroke="#191970" d="M831.696,-251.9005C853.1038,-240.6067 888.8458,-221.7506 913.4893,-208.7497"/>
<polygon fill="#191970" stroke="#191970" points="915.1262,-211.8434 922.3378,-204.0817 911.8599,-205.6522 915.1262,-211.8434"/>
</g>
<!-- Node39 -->
<g id="node40" class="node">
<title>Node39</title>
<g id="a_node40"><a xlink:href="../../d2/dd0/Cartesian2D_8h.html" target="_top" xlink:title="MathUtils/Cartesian2D.h">
<polygon fill="none" stroke="#000000" points="207,-185 207,-204 342,-204 342,-185 207,-185"/>
<text text-anchor="middle" x="274.5" y="-192" font-family="Helvetica,sans-Serif" font-size="10.00" fill="#000000">MathUtils/Cartesian2D.h</text>
</a>
</g>
</g>
<!-- Node32&#45;&gt;Node39 -->
<g id="edge48" class="edge">
<title>Node32&#45;&gt;Node39</title>
<path fill="none" stroke="#191970" d="M770.0678,-251.9251C759.1492,-249.7478 747.4279,-247.6062 736.5,-246 566.4694,-221.0081 521.5306,-234.9919 351.5,-210 343.8163,-208.8706 335.7404,-207.4766 327.8271,-205.9916"/>
<polygon fill="#191970" stroke="#191970" points="328.4153,-202.5405 317.9322,-204.0749 327.0841,-209.4128 328.4153,-202.5405"/>
</g>
<!-- Node40 -->
<g id="node41" class="node">
<title>Node40</title>
<polygon fill="none" stroke="#bfbfbf" points="95.5,-112.5 95.5,-142.5 259.5,-142.5 259.5,-112.5 95.5,-112.5"/>
<text text-anchor="start" x="103.5" y="-130.5" font-family="Helvetica,sans-Serif" font-size="10.00" fill="#000000">Math/GenVector/Displacement</text>
<text text-anchor="middle" x="177.5" y="-119.5" font-family="Helvetica,sans-Serif" font-size="10.00" fill="#000000">Vector2D.h</text>
</g>
<!-- Node39&#45;&gt;Node40 -->
<g id="edge49" class="edge">
<title>Node39&#45;&gt;Node40</title>
<path fill="none" stroke="#191970" d="M260.6023,-184.9005C246.8265,-175.3853 225.2795,-160.5023 207.5779,-148.2755"/>
<polygon fill="#191970" stroke="#191970" points="209.4651,-145.3253 199.2479,-142.5218 205.4868,-151.0849 209.4651,-145.3253"/>
</g>
<!-- Node41 -->
<g id="node42" class="node">
<title>Node41</title>
<polygon fill="none" stroke="#bfbfbf" points="278,-118 278,-137 467,-137 467,-118 278,-118"/>
<text text-anchor="middle" x="372.5" y="-125" font-family="Helvetica,sans-Serif" font-size="10.00" fill="#000000">Math/GenVector/PositionVector2D.h</text>
</g>
<!-- Node39&#45;&gt;Node41 -->
<g id="edge50" class="edge">
<title>Node39&#45;&gt;Node41</title>
<path fill="none" stroke="#191970" d="M288.541,-184.9005C304.6238,-173.9052 331.1906,-155.7422 350.1316,-142.7927"/>
<polygon fill="#191970" stroke="#191970" points="352.2052,-145.6148 358.485,-137.0817 348.2545,-139.8362 352.2052,-145.6148"/>
</g>
<!-- Node42&#45;&gt;Node26 -->
<g id="edge52" class="edge">
<title>Node42&#45;&gt;Node26</title>
<path fill="none" stroke="#191970" d="M1011.7767,-251.9854C1022.4621,-249.856 1033.8658,-247.721 1044.5,-246 1109.2581,-235.5195 1284.0633,-248.0522 1337.5,-210 1377.0065,-181.8675 1347.2629,-141.8348 1385.5,-112 1408.9058,-93.7374 1483.0364,-80.7368 1537.9571,-73.3149"/>
<polygon fill="#191970" stroke="#191970" points="1538.5154,-76.7716 1547.9718,-71.994 1537.6,-69.8317 1538.5154,-76.7716"/>
</g>
<!-- Node43 -->
<g id="node44" class="node">
<title>Node43</title>
<g id="a_node44"><a xlink:href="../../d2/d45/GPUCommonRtypes_8h.html" target="_top" xlink:title="GPUCommonRtypes.h">
<polygon fill="none" stroke="#000000" points="1204,-185 1204,-204 1329,-204 1329,-185 1204,-185"/>
<text text-anchor="middle" x="1266.5" y="-192" font-family="Helvetica,sans-Serif" font-size="10.00" fill="#000000">GPUCommonRtypes.h</text>
</a>
</g>
</g>
<!-- Node42&#45;&gt;Node43 -->
<g id="edge53" class="edge">
<title>Node42&#45;&gt;Node43</title>
<path fill="none" stroke="#191970" d="M1010.0219,-251.9717C1063.5596,-239.975 1155.5348,-219.3651 1213.5699,-206.3606"/>
<polygon fill="#191970" stroke="#191970" points="1214.648,-209.7059 1223.6407,-204.1039 1213.1174,-202.8753 1214.648,-209.7059"/>
</g>
<!-- Node43&#45;&gt;Node19 -->
<g id="edge54" class="edge">
<title>Node43&#45;&gt;Node19</title>
<path fill="none" stroke="#191970" d="M1266.5,-184.9005C1266.5,-175.149 1266.5,-159.7597 1266.5,-147.3695"/>
<polygon fill="#191970" stroke="#191970" points="1270.0001,-147.0816 1266.5,-137.0817 1263.0001,-147.0817 1270.0001,-147.0816"/>
</g>
<!-- Node44&#45;&gt;Node4 -->
<g id="edge56" class="edge">
<title>Node44&#45;&gt;Node4</title>
<path fill="none" stroke="#191970" d="M1959.2065,-313.389C1963.5615,-289.0735 1972.1243,-241.2644 1976.9591,-214.2698"/>
<polygon fill="#191970" stroke="#191970" points="1980.462,-214.5646 1978.7799,-204.1042 1973.5716,-213.3305 1980.462,-214.5646"/>
</g>
<!-- Node45 -->
<g id="node46" class="node">
<title>Node45</title>
<polygon fill="none" stroke="#bfbfbf" points="2007,-252 2007,-271 2074,-271 2074,-252 2007,-252"/>
<text text-anchor="middle" x="2040.5" y="-259" font-family="Helvetica,sans-Serif" font-size="10.00" fill="#000000">TNamed.h</text>
</g>
<!-- Node44&#45;&gt;Node45 -->
<g id="edge57" class="edge">
<title>Node44&#45;&gt;Node45</title>
<path fill="none" stroke="#191970" d="M1975.5609,-313.2967C1989.0297,-302.5537 2007.0385,-288.1895 2020.6748,-277.3129"/>
<polygon fill="#191970" stroke="#191970" points="2022.8853,-280.0268 2028.5206,-271.055 2018.5204,-274.5544 2022.8853,-280.0268"/>
</g>
<!-- Node46&#45;&gt;Node17 -->
<g id="edge62" class="edge">
<title>Node46&#45;&gt;Node17</title>
<path fill="none" stroke="#191970" d="M1656.4544,-313.4639C1616.898,-301.5792 1562.3348,-285.1858 1525.1403,-274.0108"/>
<polygon fill="#191970" stroke="#191970" points="1525.7212,-270.5308 1515.137,-271.0053 1523.707,-277.2348 1525.7212,-270.5308"/>
</g>
<!-- Node46&#45;&gt;Node18 -->
<g id="edge59" class="edge">
<title>Node46&#45;&gt;Node18</title>
<path fill="none" stroke="#191970" d="M1696.5157,-313.2967C1691.0588,-304.9873 1684.1792,-294.5115 1678.0371,-285.1587"/>
<polygon fill="#191970" stroke="#191970" points="1680.8596,-283.0806 1672.4448,-276.6432 1675.0086,-286.9231 1680.8596,-283.0806"/>
</g>
<!-- Node47 -->
<g id="node48" class="node">
<title>Node47</title>
<g id="a_node48"><a xlink:href="../../d4/d8f/StringUtils_8h.html" target="_top" xlink:title="CommonUtils/StringUtils.h">
<polygon fill="none" stroke="#000000" points="1766.5,-252 1766.5,-271 1912.5,-271 1912.5,-252 1766.5,-252"/>
<text text-anchor="middle" x="1839.5" y="-259" font-family="Helvetica,sans-Serif" font-size="10.00" fill="#000000">CommonUtils/StringUtils.h</text>
</a>
</g>
</g>
<!-- Node46&#45;&gt;Node47 -->
<g id="edge60" class="edge">
<title>Node46&#45;&gt;Node47</title>
<path fill="none" stroke="#191970" d="M1736.3478,-313.4639C1758.764,-302.1715 1789.2606,-286.8086 1811.2738,-275.7192"/>
<polygon fill="#191970" stroke="#191970" points="1813.0793,-278.7287 1820.4355,-271.1039 1809.93,-272.4772 1813.0793,-278.7287"/>
</g>
<!-- Node48 -->
<g id="node49" class="node">
<title>Node48</title>
<polygon fill="none" stroke="#bfbfbf" points="1865.5,-185 1865.5,-204 1921.5,-204 1921.5,-185 1865.5,-185"/>
<text text-anchor="middle" x="1893.5" y="-192" font-family="Helvetica,sans-Serif" font-size="10.00" fill="#000000">sstream</text>
</g>
<!-- Node47&#45;&gt;Node48 -->
<g id="edge61" class="edge">
<title>Node47&#45;&gt;Node48</title>
<path fill="none" stroke="#191970" d="M1847.2369,-251.9005C1855.5775,-241.552 1869.0354,-224.8542 1879.2912,-212.1295"/>
<polygon fill="#191970" stroke="#191970" points="1882.2273,-214.064 1885.7775,-204.0817 1876.7771,-209.6713 1882.2273,-214.064"/>
</g>
</g>
</svg>
        <g id="navigator" transform="translate(0 0)" fill="#404254">
                <rect fill="#f2f5e9" fill-opacity="0.5" stroke="#606060" stroke-width=".5" x="0" y="0" width="60" height="60"/>
                <use id="zoomplus" xlink:href="#zoomPlus" x="17" y="9" onmousedown="handleZoom(evt,'in')"/>
                <use id="zoomminus" xlink:href="#zoomMin" x="42" y="9" onmousedown="handleZoom(evt,'out')"/>
                <use id="reset" xlink:href="#resetDef" x="30" y="36" onmousedown="handleReset()"/>
                <g id="arrowUp" xlink:href="#dirArrow" transform="translate(30 24)" onmousedown="handlePan(0,-1)">
                  <use xlink:href="#rim" fill="#404040">
                        <set attributeName="fill" to="#808080" begin="arrowUp.mouseover" end="arrowUp.mouseout"/>
                  </use>
                  <path fill="none" stroke="white" stroke-width="1.5" d="M0,-3.0v7 M-2.5,-0.5L0,-3.0L2.5,-0.5"/>
                </g>
                <g id="arrowRight" xlink:href="#dirArrow" transform="rotate(90) translate(36 -43)" onmousedown="handlePan(1,0)">
                  <use xlink:href="#rim" fill="#404040">
                        <set attributeName="fill" to="#808080" begin="arrowRight.mouseover" end="arrowRight.mouseout"/>
                  </use>
                  <path fill="none" stroke="white" stroke-width="1.5" d="M0,-3.0v7 M-2.5,-0.5L0,-3.0L2.5,-0.5"/>
                </g>
                <g id="arrowDown" xlink:href="#dirArrow" transform="rotate(180) translate(-30 -48)" onmousedown="handlePan(0,1)">
                  <use xlink:href="#rim" fill="#404040">
                        <set attributeName="fill" to="#808080" begin="arrowDown.mouseover" end="arrowDown.mouseout"/>
                  </use>
                  <path fill="none" stroke="white" stroke-width="1.5" d="M0,-3.0v7 M-2.5,-0.5L0,-3.0L2.5,-0.5"/>
                </g>
                <g id="arrowLeft" xlink:href="#dirArrow" transform="rotate(270) translate(-36 17)" onmousedown="handlePan(-1,0)">
                  <use xlink:href="#rim" fill="#404040">
                        <set attributeName="fill" to="#808080" begin="arrowLeft.mouseover" end="arrowLeft.mouseout"/>
                  </use>
                  <path fill="none" stroke="white" stroke-width="1.5" d="M0,-3.0v7 M-2.5,-0.5L0,-3.0L2.5,-0.5"/>
                </g>
        </g>
        <svg viewBox="0 0 15 15" width="100%" height="30px" preserveAspectRatio="xMaxYMin meet">
         <g id="arrow_out" transform="scale(0.3 0.3)">
          <a xlink:href="Detectors_2Base_2src_2GeometryManager_8cxx__incl_org.svg" target="_base">
           <rect id="button" ry="5" rx="5" y="6" x="6" height="38" width="38"
                fill="#f2f5e9" fill-opacity="0.5" stroke="#606060" stroke-width="1.0"/>
           <path id="arrow"
             d="M 11.500037,31.436501 C 11.940474,20.09759 22.043105,11.32322 32.158766,21.979434 L 37.068811,17.246167 C 37.068811,17.246167 37.088388,32 37.088388,32 L 22.160133,31.978069 C 22.160133,31.978069 26.997745,27.140456 26.997745,27.140456 C 18.528582,18.264221 13.291696,25.230495 11.500037,31.436501 z"
             style="fill:#404040;"/>
          </a>
         </g>
        </svg>
</svg>
