<?xml version="1.0" encoding="UTF-8" standalone="no"?>
<!DOCTYPE svg PUBLIC "-//W3C//DTD SVG 1.1//EN"
 "http://www.w3.org/Graphics/SVG/1.1/DTD/svg11.dtd">
<!-- Generated by graphviz version 2.40.1 (20161225.0304)
 -->
<!-- Title: JTask Pages: 1 -->
<!--zoomable 458 -->
<svg id="main" version="1.1" xmlns="http://www.w3.org/2000/svg" xmlns:xlink="http://www.w3.org/1999/xlink" xml:space="preserve" onload="init(evt)">
<style type="text/css"><![CDATA[
.edge:hover path { stroke: red; }
.edge:hover polygon { stroke: red; fill: red; }
]]></style>
<script type="text/javascript"><![CDATA[
var edges = document.getElementsByTagName('g');
if (edges && edges.length) {
  for (var i=0;i<edges.length;i++) {
    if (edges[i].id.substr(0,4)=='edge') {
      edges[i].setAttribute('class','edge');
    }
  }
}
]]></script>
        <defs>
                <circle id="rim" cx="0" cy="0" r="7"/>
                <circle id="rim2" cx="0" cy="0" r="3.5"/>
                <g id="zoomPlus">
                        <use xlink:href="#rim" fill="#404040">
                                <set attributeName="fill" to="#808080" begin="zoomplus.mouseover" end="zoomplus.mouseout"/>
                        </use>
                        <path d="M-4,0h8M0,-4v8" fill="none" stroke="white" stroke-width="1.5" pointer-events="none"/>
                </g>
                <g id="zoomMin">
                        <use xlink:href="#rim" fill="#404040">
                                <set attributeName="fill" to="#808080" begin="zoomminus.mouseover" end="zoomminus.mouseout"/>
                        </use>
                        <path d="M-4,0h8" fill="none" stroke="white" stroke-width="1.5" pointer-events="none"/>
                </g>
                <g id="dirArrow">
                        <path fill="none" stroke="white" stroke-width="1.5" d="M0,-3.0v7 M-2.5,-0.5L0,-3.0L2.5,-0.5"/>
                </g>
               <g id="resetDef">
                       <use xlink:href="#rim2" fill="#404040">
                               <set attributeName="fill" to="#808080" begin="reset.mouseover" end="reset.mouseout"/>
                       </use>
               </g>
        </defs>

<script type="text/javascript">
var viewWidth = 426;
var viewHeight = 458;
var sectionId = 'dynsection-0';
</script>
<script xlink:href="../../svgpan.js"/>
<svg id="graph" class="graph">
<g id="viewport">
<title>JTask</title>
<!-- Node1 -->
<g id="node1" class="node">
<title>Node1</title>
<polygon fill="#bfbfbf" stroke="#000000" points="139.5,-.5 139.5,-57.5 212.5,-57.5 212.5,-.5 139.5,-.5"/>
<text text-anchor="middle" x="176" y="-45.5" font-family="Helvetica,sans-Serif" font-size="10.00" fill="#000000">JTask</text>
<polyline fill="none" stroke="#000000" points="139.5,-38.5 212.5,-38.5 "/>
<text text-anchor="middle" x="176" y="-26.5" font-family="Helvetica,sans-Serif" font-size="10.00" fill="#000000"> </text>
<polyline fill="none" stroke="#000000" points="139.5,-19.5 212.5,-19.5 "/>
<text text-anchor="start" x="147.5" y="-7.5" font-family="Helvetica,sans-Serif" font-size="10.00" fill="#000000">+ process()</text>
</g>
<!-- Node2 -->
<g id="node2" class="node">
<title>Node2</title>
<g id="a_node2"><a xlink:href="../../d8/d71/structo2_1_1framework_1_1Configurable.html" target="_top" xlink:title="{o2::framework::Configurable\l\&lt; o2::test::SimplePODClass \&gt;\n||+ Configurable()\l+ operator o2::test::\lSimplePODClass()\l+ operator&#45;\&gt;()\l}">
<polygon fill="none" stroke="#000000" points="94.5,-105.5 94.5,-206.5 257.5,-206.5 257.5,-105.5 94.5,-105.5"/>
<text text-anchor="start" x="102.5" y="-194.5" font-family="Helvetica,sans-Serif" font-size="10.00" fill="#000000">o2::framework::Configurable</text>
<text text-anchor="middle" x="176" y="-183.5" font-family="Helvetica,sans-Serif" font-size="10.00" fill="#000000">&lt; o2::test::SimplePODClass &gt;</text>
<polyline fill="none" stroke="#000000" points="94.5,-176.5 257.5,-176.5 "/>
<text text-anchor="middle" x="176" y="-164.5" font-family="Helvetica,sans-Serif" font-size="10.00" fill="#000000"> </text>
<polyline fill="none" stroke="#000000" points="94.5,-157.5 257.5,-157.5 "/>
<text text-anchor="start" x="102.5" y="-145.5" font-family="Helvetica,sans-Serif" font-size="10.00" fill="#000000">+ Configurable()</text>
<text text-anchor="start" x="102.5" y="-134.5" font-family="Helvetica,sans-Serif" font-size="10.00" fill="#000000">+ operator o2::test::</text>
<text text-anchor="start" x="102.5" y="-123.5" font-family="Helvetica,sans-Serif" font-size="10.00" fill="#000000">SimplePODClass()</text>
<text text-anchor="start" x="102.5" y="-112.5" font-family="Helvetica,sans-Serif" font-size="10.00" fill="#000000">+ operator&#45;&gt;()</text>
</a>
</g>
</g>
<!-- Node2&#45;&gt;Node1 -->
<g id="edge1" class="edge">
<title>Node2&#45;&gt;Node1</title>
<path fill="none" stroke="#404040" d="M176,-105.4413C176,-93.681 176,-81.3021 176,-70.0123"/>
<polygon fill="none" stroke="#404040" points="176.0001,-69.8195 172,-63.8195 176,-57.8195 180,-63.8195 176.0001,-69.8195"/>
<text text-anchor="middle" x="189.5" y="-79" font-family="Helvetica,sans-Serif" font-size="10.00" fill="#000000"> +cfg</text>
</g>
<!-- Node3 -->
<g id="node3" class="node">
<title>Node3</title>
<g id="a_node3"><a xlink:href="../../d6/da0/classo2_1_1test_1_1SimplePODClass.html" target="_top" xlink:title="{o2::test::SimplePODClass\n||}">
<polygon fill="none" stroke="#000000" points="0,-265.5 0,-322.5 140,-322.5 140,-265.5 0,-265.5"/>
<text text-anchor="middle" x="70" y="-310.5" font-family="Helvetica,sans-Serif" font-size="10.00" fill="#000000">o2::test::SimplePODClass</text>
<polyline fill="none" stroke="#000000" points="0,-303.5 140,-303.5 "/>
<text text-anchor="middle" x="70" y="-291.5" font-family="Helvetica,sans-Serif" font-size="10.00" fill="#000000"> </text>
<polyline fill="none" stroke="#000000" points="0,-284.5 140,-284.5 "/>
<text text-anchor="middle" x="70" y="-272.5" font-family="Helvetica,sans-Serif" font-size="10.00" fill="#000000"> </text>
</a>
</g>
</g>
<!-- Node3&#45;&gt;Node2 -->
<g id="edge2" class="edge">
<title>Node3&#45;&gt;Node2</title>
<path fill="none" stroke="#404040" d="M91.9633,-265.4063C102.862,-251.2174 116.4643,-233.5087 129.5292,-216.4998"/>
<polygon fill="none" stroke="#404040" points="129.825,-216.1145 130.3078,-208.9196 137.1349,-206.5979 136.6522,-213.7929 129.825,-216.1145"/>
<text text-anchor="middle" x="142.5" y="-228" font-family="Helvetica,sans-Serif" font-size="10.00" fill="#000000"> +value</text>
</g>
<!-- Node4 -->
<g id="node4" class="node">
<title>Node4</title>
<g id="a_node4"><a xlink:href="../../d4/dc3/classfloat.html" target="_top" xlink:title="{float\n||}">
<polygon fill="none" stroke="#000000" points="51,-392.5 51,-449.5 89,-449.5 89,-392.5 51,-392.5"/>
<text text-anchor="middle" x="70" y="-437.5" font-family="Helvetica,sans-Serif" font-size="10.00" fill="#000000">float</text>
<polyline fill="none" stroke="#000000" points="51,-430.5 89,-430.5 "/>
<text text-anchor="middle" x="70" y="-418.5" font-family="Helvetica,sans-Serif" font-size="10.00" fill="#000000"> </text>
<polyline fill="none" stroke="#000000" points="51,-411.5 89,-411.5 "/>
<text text-anchor="middle" x="70" y="-399.5" font-family="Helvetica,sans-Serif" font-size="10.00" fill="#000000"> </text>
</a>
</g>
</g>
<!-- Node4&#45;&gt;Node3 -->
<g id="edge3" class="edge">
<title>Node4&#45;&gt;Node3</title>
<path fill="none" stroke="#404040" d="M70,-392.4987C70,-375.5423 70,-353.7438 70,-334.9661"/>
<polygon fill="none" stroke="#404040" points="70.0001,-334.8456 66,-328.8456 70,-322.8456 74,-328.8455 70.0001,-334.8456"/>
<text text-anchor="middle" x="79" y="-360.5" font-family="Helvetica,sans-Serif" font-size="10.00" fill="#000000"> +y</text>
</g>
<!-- Node5 -->
<g id="node5" class="node">
<title>Node5</title>
<polygon fill="none" stroke="#bfbfbf" points="161.5,-392.5 161.5,-449.5 190.5,-449.5 190.5,-392.5 161.5,-392.5"/>
<text text-anchor="middle" x="176" y="-437.5" font-family="Helvetica,sans-Serif" font-size="10.00" fill="#000000">int</text>
<polyline fill="none" stroke="#bfbfbf" points="161.5,-430.5 190.5,-430.5 "/>
<text text-anchor="middle" x="176" y="-418.5" font-family="Helvetica,sans-Serif" font-size="10.00" fill="#000000"> </text>
<polyline fill="none" stroke="#bfbfbf" points="161.5,-411.5 190.5,-411.5 "/>
<text text-anchor="middle" x="176" y="-399.5" font-family="Helvetica,sans-Serif" font-size="10.00" fill="#000000"> </text>
</g>
<!-- Node5&#45;&gt;Node2 -->
<g id="edge5" class="edge">
<title>Node5&#45;&gt;Node2</title>
<path fill="none" stroke="#404040" d="M176,-392.3886C176,-351.0798 176,-273.6679 176,-218.6945"/>
<polygon fill="none" stroke="#404040" points="176.0001,-218.6319 172,-212.632 176,-206.6319 180,-212.6319 176.0001,-218.6319"/>
<text text-anchor="middle" x="196" y="-297" font-family="Helvetica,sans-Serif" font-size="10.00" fill="#000000"> +name</text>
<text text-anchor="middle" x="196" y="-286" font-family="Helvetica,sans-Serif" font-size="10.00" fill="#000000">+help</text>
</g>
<!-- Node5&#45;&gt;Node3 -->
<g id="edge4" class="edge">
<title>Node5&#45;&gt;Node3</title>
<path fill="none" stroke="#404040" d="M161.4834,-403.6075C146.234,-385.337 121.7628,-356.0177 101.9655,-332.2983"/>
<polygon fill="none" stroke="#404040" points="101.7745,-332.0695 94.8589,-330.0262 94.0851,-322.8567 101.0007,-324.9 101.7745,-332.0695"/>
<text text-anchor="middle" x="145" y="-360.5" font-family="Helvetica,sans-Serif" font-size="10.00" fill="#000000"> +x</text>
</g>
<!-- Node6 -->
<g id="node6" class="node">
<title>Node6</title>
<g id="a_node6"><a xlink:href="../../d8/d71/structo2_1_1framework_1_1Configurable.html" target="_top" xlink:title="{o2::framework::Configurable\&lt; T \&gt;\n||+ Configurable()\l+ operator T()\l+ operator&#45;\&gt;()\l}">
<polygon fill="none" stroke="#000000" points="234,-254.5 234,-333.5 418,-333.5 418,-254.5 234,-254.5"/>
<text text-anchor="middle" x="326" y="-321.5" font-family="Helvetica,sans-Serif" font-size="10.00" fill="#000000">o2::framework::Configurable&lt; T &gt;</text>
<polyline fill="none" stroke="#000000" points="234,-314.5 418,-314.5 "/>
<text text-anchor="middle" x="326" y="-302.5" font-family="Helvetica,sans-Serif" font-size="10.00" fill="#000000"> </text>
<polyline fill="none" stroke="#000000" points="234,-295.5 418,-295.5 "/>
<text text-anchor="start" x="242" y="-283.5" font-family="Helvetica,sans-Serif" font-size="10.00" fill="#000000">+ Configurable()</text>
<text text-anchor="start" x="242" y="-272.5" font-family="Helvetica,sans-Serif" font-size="10.00" fill="#000000">+ operator T()</text>
<text text-anchor="start" x="242" y="-261.5" font-family="Helvetica,sans-Serif" font-size="10.00" fill="#000000">+ operator&#45;&gt;()</text>
</a>
</g>
</g>
<!-- Node5&#45;&gt;Node6 -->
<g id="edge7" class="edge">
<title>Node5&#45;&gt;Node6</title>
<path fill="none" stroke="#404040" d="M190.6557,-408.5915C208.9356,-393.1145 241.2555,-365.7504 269.728,-341.6436"/>
<polygon fill="none" stroke="#404040" points="270.0523,-341.3691 272.0467,-334.4393 279.2106,-333.615 277.2161,-340.5448 270.0523,-341.3691"/>
<text text-anchor="middle" x="276" y="-366" font-family="Helvetica,sans-Serif" font-size="10.00" fill="#000000"> +name</text>
<text text-anchor="middle" x="276" y="-355" font-family="Helvetica,sans-Serif" font-size="10.00" fill="#000000">+help</text>
</g>
<!-- Node6&#45;&gt;Node2 -->
<g id="edge6" class="edge">
<title>Node6&#45;&gt;Node2</title>
<path fill="none" stroke="#ffa500" d="M275.2631,-247.322C261.039,-234.2359 245.5101,-219.9493 231.0484,-206.6445"/>
<polygon fill="#ffa500" stroke="#ffa500" points="273.287,-250.2599 283.016,-254.4547 278.0264,-245.1084 273.287,-250.2599"/>
<text text-anchor="middle" x="335" y="-228" font-family="Helvetica,sans-Serif" font-size="10.00" fill="#000000"> &lt; o2::test::SimplePODClass &gt;</text>
</g>
<!-- Node7 -->
<g id="node7" class="node">
<title>Node7</title>
<polygon fill="none" stroke="#bfbfbf" points="311.5,-392.5 311.5,-449.5 340.5,-449.5 340.5,-392.5 311.5,-392.5"/>
<text text-anchor="middle" x="326" y="-437.5" font-family="Helvetica,sans-Serif" font-size="10.00" fill="#000000">T</text>
<polyline fill="none" stroke="#bfbfbf" points="311.5,-430.5 340.5,-430.5 "/>
<text text-anchor="middle" x="326" y="-418.5" font-family="Helvetica,sans-Serif" font-size="10.00" fill="#000000"> </text>
<polyline fill="none" stroke="#bfbfbf" points="311.5,-411.5 340.5,-411.5 "/>
<text text-anchor="middle" x="326" y="-399.5" font-family="Helvetica,sans-Serif" font-size="10.00" fill="#000000"> </text>
</g>
<!-- Node7&#45;&gt;Node6 -->
<g id="edge8" class="edge">
<title>Node7&#45;&gt;Node6</title>
<path fill="none" stroke="#404040" d="M326,-392.4987C326,-378.8801 326,-362.1381 326,-346.3462"/>
<polygon fill="none" stroke="#404040" points="326.0001,-345.963 322,-339.963 326,-333.963 330,-339.963 326.0001,-345.963"/>
<text text-anchor="middle" x="345.5" y="-360.5" font-family="Helvetica,sans-Serif" font-size="10.00" fill="#000000"> +value</text>
</g>
</g>
</svg>
        <g id="navigator" transform="translate(0 0)" fill="#404254">
                <rect fill="#f2f5e9" fill-opacity="0.5" stroke="#606060" stroke-width=".5" x="0" y="0" width="60" height="60"/>
                <use id="zoomplus" xlink:href="#zoomPlus" x="17" y="9" onmousedown="handleZoom(evt,'in')"/>
                <use id="zoomminus" xlink:href="#zoomMin" x="42" y="9" onmousedown="handleZoom(evt,'out')"/>
                <use id="reset" xlink:href="#resetDef" x="30" y="36" onmousedown="handleReset()"/>
                <g id="arrowUp" xlink:href="#dirArrow" transform="translate(30 24)" onmousedown="handlePan(0,-1)">
                  <use xlink:href="#rim" fill="#404040">
                        <set attributeName="fill" to="#808080" begin="arrowUp.mouseover" end="arrowUp.mouseout"/>
                  </use>
                  <path fill="none" stroke="white" stroke-width="1.5" d="M0,-3.0v7 M-2.5,-0.5L0,-3.0L2.5,-0.5"/>
                </g>
                <g id="arrowRight" xlink:href="#dirArrow" transform="rotate(90) translate(36 -43)" onmousedown="handlePan(1,0)">
                  <use xlink:href="#rim" fill="#404040">
                        <set attributeName="fill" to="#808080" begin="arrowRight.mouseover" end="arrowRight.mouseout"/>
                  </use>
                  <path fill="none" stroke="white" stroke-width="1.5" d="M0,-3.0v7 M-2.5,-0.5L0,-3.0L2.5,-0.5"/>
                </g>
                <g id="arrowDown" xlink:href="#dirArrow" transform="rotate(180) translate(-30 -48)" onmousedown="handlePan(0,1)">
                  <use xlink:href="#rim" fill="#404040">
                        <set attributeName="fill" to="#808080" begin="arrowDown.mouseover" end="arrowDown.mouseout"/>
                  </use>
                  <path fill="none" stroke="white" stroke-width="1.5" d="M0,-3.0v7 M-2.5,-0.5L0,-3.0L2.5,-0.5"/>
                </g>
                <g id="arrowLeft" xlink:href="#dirArrow" transform="rotate(270) translate(-36 17)" onmousedown="handlePan(-1,0)">
                  <use xlink:href="#rim" fill="#404040">
                        <set attributeName="fill" to="#808080" begin="arrowLeft.mouseover" end="arrowLeft.mouseout"/>
                  </use>
                  <path fill="none" stroke="white" stroke-width="1.5" d="M0,-3.0v7 M-2.5,-0.5L0,-3.0L2.5,-0.5"/>
                </g>
        </g>
        <svg viewBox="0 0 15 15" width="100%" height="30px" preserveAspectRatio="xMaxYMin meet">
         <g id="arrow_out" transform="scale(0.3 0.3)">
          <a xlink:href="structJTask__coll__graph_org.svg" target="_base">
           <rect id="button" ry="5" rx="5" y="6" x="6" height="38" width="38"
                fill="#f2f5e9" fill-opacity="0.5" stroke="#606060" stroke-width="1.0"/>
           <path id="arrow"
             d="M 11.500037,31.436501 C 11.940474,20.09759 22.043105,11.32322 32.158766,21.979434 L 37.068811,17.246167 C 37.068811,17.246167 37.088388,32 37.088388,32 L 22.160133,31.978069 C 22.160133,31.978069 26.997745,27.140456 26.997745,27.140456 C 18.528582,18.264221 13.291696,25.230495 11.500037,31.436501 z"
             style="fill:#404040;"/>
          </a>
         </g>
        </svg>
</svg>
