<?xml version="1.0" encoding="UTF-8" standalone="no"?>
<!DOCTYPE svg PUBLIC "-//W3C//DTD SVG 1.1//EN"
 "http://www.w3.org/Graphics/SVG/1.1/DTD/svg11.dtd">
<!-- Generated by graphviz version 2.40.1 (20161225.0304)
 -->
<!-- Title: /home/travis/build/AliceO2Group/AliceO2/Detectors/ITSMFT/MFT/tracking/include/MFTTracking/IndexTableUtils.h Pages: 1 -->
<svg width="524pt" height="184pt"
 viewBox="0.00 0.00 524.00 184.00" xmlns="http://www.w3.org/2000/svg" xmlns:xlink="http://www.w3.org/1999/xlink">
<g id="graph0" class="graph" transform="scale(1 1) rotate(0) translate(4 180)">
<title>/home/travis/build/AliceO2Group/AliceO2/Detectors/ITSMFT/MFT/tracking/include/MFTTracking/IndexTableUtils.h</title>
<!-- Node0 -->
<g id="node1" class="node">
<title>Node0</title>
<polygon fill="#bfbfbf" stroke="#000000" points="27.5,-112.5 27.5,-175.5 188.5,-175.5 188.5,-112.5 27.5,-112.5"/>
<text text-anchor="start" x="35.5" y="-163.5" font-family="Helvetica,sans-Serif" font-size="10.00" fill="#000000">/home/travis/build</text>
<text text-anchor="start" x="35.5" y="-152.5" font-family="Helvetica,sans-Serif" font-size="10.00" fill="#000000">/AliceO2Group/AliceO2</text>
<text text-anchor="start" x="35.5" y="-141.5" font-family="Helvetica,sans-Serif" font-size="10.00" fill="#000000">/Detectors/ITSMFT/MFT</text>
<text text-anchor="start" x="35.5" y="-130.5" font-family="Helvetica,sans-Serif" font-size="10.00" fill="#000000">/tracking/include/MFTTracking</text>
<text text-anchor="middle" x="108" y="-119.5" font-family="Helvetica,sans-Serif" font-size="10.00" fill="#000000">/IndexTableUtils.h</text>
</g>
<!-- Node1 -->
<g id="node2" class="node">
<title>Node1</title>
<polygon fill="none" stroke="#bfbfbf" points="0,-56.5 0,-75.5 42,-75.5 42,-56.5 0,-56.5"/>
<text text-anchor="middle" x="21" y="-63.5" font-family="Helvetica,sans-Serif" font-size="10.00" fill="#000000">array</text>
</g>
<!-- Node0&#45;&gt;Node1 -->
<g id="edge1" class="edge">
<title>Node0&#45;&gt;Node1</title>
<path fill="none" stroke="#191970" d="M72.8645,-112.4992C61.3694,-102.1933 49.0644,-91.1612 39.326,-82.4302"/>
<polygon fill="#191970" stroke="#191970" points="41.6057,-79.7733 31.8235,-75.7039 36.9328,-84.9853 41.6057,-79.7733"/>
</g>
<!-- Node2 -->
<g id="node3" class="node">
<title>Node2</title>
<polygon fill="none" stroke="#bfbfbf" points="60.5,-56.5 60.5,-75.5 105.5,-75.5 105.5,-56.5 60.5,-56.5"/>
<text text-anchor="middle" x="83" y="-63.5" font-family="Helvetica,sans-Serif" font-size="10.00" fill="#000000">utility</text>
</g>
<!-- Node0&#45;&gt;Node2 -->
<g id="edge2" class="edge">
<title>Node0&#45;&gt;Node2</title>
<path fill="none" stroke="#191970" d="M97.8315,-112.2744C94.8989,-103.1246 91.7888,-93.4209 89.178,-85.2754"/>
<polygon fill="#191970" stroke="#191970" points="92.4758,-84.0971 86.0906,-75.6426 85.8098,-86.2337 92.4758,-84.0971"/>
</g>
<!-- Node3 -->
<g id="node4" class="node">
<title>Node3</title>
<polygon fill="none" stroke="#bfbfbf" points="110.5,-.5 110.5,-19.5 157.5,-19.5 157.5,-.5 110.5,-.5"/>
<text text-anchor="middle" x="134" y="-7.5" font-family="Helvetica,sans-Serif" font-size="10.00" fill="#000000">vector</text>
</g>
<!-- Node0&#45;&gt;Node3 -->
<g id="edge3" class="edge">
<title>Node0&#45;&gt;Node3</title>
<path fill="none" stroke="#191970" d="M114.1616,-112.2439C119.1488,-86.5407 126.0131,-51.1634 130.2209,-29.4768"/>
<polygon fill="#191970" stroke="#191970" points="133.6863,-29.9914 132.1552,-19.5078 126.8144,-28.658 133.6863,-29.9914"/>
</g>
<!-- Node4 -->
<g id="node5" class="node">
<title>Node4</title>
<g id="a_node5"><a xlink:href="../../df/db8/Detectors_2ITSMFT_2MFT_2tracking_2include_2MFTTracking_2Constants_8h.html" target="_top" xlink:title="MFTTracking/Constants.h">
<polygon fill="none" stroke="#000000" points="162.5,-56.5 162.5,-75.5 299.5,-75.5 299.5,-56.5 162.5,-56.5"/>
<text text-anchor="middle" x="231" y="-63.5" font-family="Helvetica,sans-Serif" font-size="10.00" fill="#000000">MFTTracking/Constants.h</text>
</a>
</g>
</g>
<!-- Node0&#45;&gt;Node4 -->
<g id="edge4" class="edge">
<title>Node0&#45;&gt;Node4</title>
<path fill="none" stroke="#191970" d="M157.6743,-112.4992C174.848,-101.6086 193.3003,-89.9071 207.3981,-80.967"/>
<polygon fill="#191970" stroke="#191970" points="209.4057,-83.8384 215.9764,-75.5271 205.6569,-77.9268 209.4057,-83.8384"/>
</g>
<!-- Node4&#45;&gt;Node3 -->
<g id="edge6" class="edge">
<title>Node4&#45;&gt;Node3</title>
<path fill="none" stroke="#191970" d="M214.1039,-56.2455C199.082,-47.5731 176.8957,-34.7645 159.679,-24.825"/>
<polygon fill="#191970" stroke="#191970" points="161.1128,-21.6114 150.7025,-19.6427 157.6129,-27.6737 161.1128,-21.6114"/>
</g>
<!-- Node5 -->
<g id="node6" class="node">
<title>Node5</title>
<polygon fill="none" stroke="#bfbfbf" points="176,-.5 176,-19.5 226,-19.5 226,-.5 176,-.5"/>
<text text-anchor="middle" x="201" y="-7.5" font-family="Helvetica,sans-Serif" font-size="10.00" fill="#000000">climits</text>
</g>
<!-- Node4&#45;&gt;Node5 -->
<g id="edge5" class="edge">
<title>Node4&#45;&gt;Node5</title>
<path fill="none" stroke="#191970" d="M225.7744,-56.2455C221.6877,-48.617 215.8865,-37.7881 210.925,-28.5267"/>
<polygon fill="#191970" stroke="#191970" points="213.9732,-26.8047 206.1657,-19.6427 207.8028,-30.1103 213.9732,-26.8047"/>
</g>
<!-- Node6 -->
<g id="node7" class="node">
<title>Node6</title>
<polygon fill="none" stroke="#bfbfbf" points="244.5,-.5 244.5,-19.5 303.5,-19.5 303.5,-.5 244.5,-.5"/>
<text text-anchor="middle" x="274" y="-7.5" font-family="Helvetica,sans-Serif" font-size="10.00" fill="#000000">Rtypes.h</text>
</g>
<!-- Node4&#45;&gt;Node6 -->
<g id="edge7" class="edge">
<title>Node4&#45;&gt;Node6</title>
<path fill="none" stroke="#191970" d="M238.49,-56.2455C244.5326,-48.3761 253.1903,-37.101 260.4441,-27.6542"/>
<polygon fill="#191970" stroke="#191970" points="263.2815,-29.7058 266.5958,-19.6427 257.7295,-25.4426 263.2815,-29.7058"/>
</g>
<!-- Node7 -->
<g id="node8" class="node">
<title>Node7</title>
<g id="a_node8"><a xlink:href="../../d6/d84/MathConstants_8h.html" target="_top" xlink:title="useful math constants ">
<polygon fill="none" stroke="#000000" points="322,-.5 322,-19.5 516,-19.5 516,-.5 322,-.5"/>
<text text-anchor="middle" x="419" y="-7.5" font-family="Helvetica,sans-Serif" font-size="10.00" fill="#000000">CommonConstants/MathConstants.h</text>
</a>
</g>
</g>
<!-- Node4&#45;&gt;Node7 -->
<g id="edge8" class="edge">
<title>Node4&#45;&gt;Node7</title>
<path fill="none" stroke="#191970" d="M263.3184,-56.3733C294.8506,-46.9807 342.9621,-32.6496 377.3501,-22.4064"/>
<polygon fill="#191970" stroke="#191970" points="378.5187,-25.7103 387.1034,-19.5011 376.5203,-19.0016 378.5187,-25.7103"/>
</g>
</g>
</svg>
