<?xml version="1.0" encoding="UTF-8" standalone="no"?>
<!DOCTYPE svg PUBLIC "-//W3C//DTD SVG 1.1//EN"
 "http://www.w3.org/Graphics/SVG/1.1/DTD/svg11.dtd">
<!-- Generated by graphviz version 2.40.1 (20161225.0304)
 -->
<!-- Title: /home/travis/build/AliceO2Group/AliceO2/DataFormats/Detectors/EMCAL/src/Cell.cxx Pages: 1 -->
<svg width="430pt" height="229pt"
 viewBox="0.00 0.00 429.50 229.00" xmlns="http://www.w3.org/2000/svg" xmlns:xlink="http://www.w3.org/1999/xlink">
<g id="graph0" class="graph" transform="scale(1 1) rotate(0) translate(4 225)">
<title>/home/travis/build/AliceO2Group/AliceO2/DataFormats/Detectors/EMCAL/src/Cell.cxx</title>
<!-- Node0 -->
<g id="node1" class="node">
<title>Node0</title>
<polygon fill="#bfbfbf" stroke="#000000" points="217,-168.5 217,-220.5 350,-220.5 350,-168.5 217,-168.5"/>
<text text-anchor="start" x="225" y="-208.5" font-family="Helvetica,sans-Serif" font-size="10.00" fill="#000000">/home/travis/build</text>
<text text-anchor="start" x="225" y="-197.5" font-family="Helvetica,sans-Serif" font-size="10.00" fill="#000000">/AliceO2Group/AliceO2</text>
<text text-anchor="start" x="225" y="-186.5" font-family="Helvetica,sans-Serif" font-size="10.00" fill="#000000">/DataFormats/Detectors</text>
<text text-anchor="middle" x="283.5" y="-175.5" font-family="Helvetica,sans-Serif" font-size="10.00" fill="#000000">/EMCAL/src/Cell.cxx</text>
</g>
<!-- Node1 -->
<g id="node2" class="node">
<title>Node1</title>
<g id="a_node2"><a xlink:href="../../dd/dda/DataFormats_2Detectors_2EMCAL_2include_2DataFormatsEMCAL_2Constants_8h.html" target="_top" xlink:title="DataFormatsEMCAL/Constants.h">
<polygon fill="none" stroke="#000000" points="47,-56.5 47,-75.5 220,-75.5 220,-56.5 47,-56.5"/>
<text text-anchor="middle" x="133.5" y="-63.5" font-family="Helvetica,sans-Serif" font-size="10.00" fill="#000000">DataFormatsEMCAL/Constants.h</text>
</a>
</g>
</g>
<!-- Node0&#45;&gt;Node1 -->
<g id="edge1" class="edge">
<title>Node0&#45;&gt;Node1</title>
<path fill="none" stroke="#191970" d="M216.696,-175.2894C193.5255,-165.6508 169.198,-151.7055 152.5,-132 141.5515,-119.0796 136.9032,-100.1802 134.9344,-85.9133"/>
<polygon fill="#191970" stroke="#191970" points="138.384,-85.2482 133.8607,-75.6674 131.4221,-85.9778 138.384,-85.2482"/>
</g>
<!-- Node6 -->
<g id="node7" class="node">
<title>Node6</title>
<g id="a_node7"><a xlink:href="../../d5/dd3/DataFormats_2Detectors_2EMCAL_2include_2DataFormatsEMCAL_2Cell_8h.html" target="_top" xlink:title="DataFormatsEMCAL/Cell.h">
<polygon fill="none" stroke="#000000" points="162,-112.5 162,-131.5 305,-131.5 305,-112.5 162,-112.5"/>
<text text-anchor="middle" x="233.5" y="-119.5" font-family="Helvetica,sans-Serif" font-size="10.00" fill="#000000">DataFormatsEMCAL/Cell.h</text>
</a>
</g>
</g>
<!-- Node0&#45;&gt;Node6 -->
<g id="edge6" class="edge">
<title>Node0&#45;&gt;Node6</title>
<path fill="none" stroke="#191970" d="M265.4489,-168.3258C258.9575,-158.9134 251.7872,-148.5164 245.8869,-139.961"/>
<polygon fill="#191970" stroke="#191970" points="248.6338,-137.7791 240.0752,-131.534 242.8713,-141.7532 248.6338,-137.7791"/>
</g>
<!-- Node7 -->
<g id="node8" class="node">
<title>Node7</title>
<polygon fill="none" stroke="#bfbfbf" points="293.5,-56.5 293.5,-75.5 337.5,-75.5 337.5,-56.5 293.5,-56.5"/>
<text text-anchor="middle" x="315.5" y="-63.5" font-family="Helvetica,sans-Serif" font-size="10.00" fill="#000000">bitset</text>
</g>
<!-- Node0&#45;&gt;Node7 -->
<g id="edge11" class="edge">
<title>Node0&#45;&gt;Node7</title>
<path fill="none" stroke="#191970" d="M299.6777,-168.4289C305.5306,-157.5803 311.4471,-144.5952 314.5,-132 318.1746,-116.8395 318.2241,-99.1407 317.4647,-85.8895"/>
<polygon fill="#191970" stroke="#191970" points="320.9266,-85.2627 316.66,-75.565 313.9478,-85.8068 320.9266,-85.2627"/>
</g>
<!-- Node8 -->
<g id="node9" class="node">
<title>Node8</title>
<polygon fill="none" stroke="#bfbfbf" points="361.5,-112.5 361.5,-131.5 421.5,-131.5 421.5,-112.5 361.5,-112.5"/>
<text text-anchor="middle" x="391.5" y="-119.5" font-family="Helvetica,sans-Serif" font-size="10.00" fill="#000000">iostream</text>
</g>
<!-- Node0&#45;&gt;Node8 -->
<g id="edge10" class="edge">
<title>Node0&#45;&gt;Node8</title>
<path fill="none" stroke="#191970" d="M322.4905,-168.3258C338.0034,-157.912 355.3116,-146.2931 368.7135,-137.2965"/>
<polygon fill="#191970" stroke="#191970" points="370.9457,-140.0136 377.2976,-131.534 367.0441,-134.2017 370.9457,-140.0136"/>
</g>
<!-- Node2 -->
<g id="node3" class="node">
<title>Node2</title>
<polygon fill="none" stroke="#bfbfbf" points="219,-.5 219,-19.5 278,-19.5 278,-.5 219,-.5"/>
<text text-anchor="middle" x="248.5" y="-7.5" font-family="Helvetica,sans-Serif" font-size="10.00" fill="#000000">Rtypes.h</text>
</g>
<!-- Node1&#45;&gt;Node2 -->
<g id="edge2" class="edge">
<title>Node1&#45;&gt;Node2</title>
<path fill="none" stroke="#191970" d="M153.2692,-56.3733C171.6469,-47.4241 199.2312,-33.9917 219.9893,-23.8835"/>
<polygon fill="#191970" stroke="#191970" points="221.5304,-27.026 228.9888,-19.5011 218.4657,-20.7325 221.5304,-27.026"/>
</g>
<!-- Node3 -->
<g id="node4" class="node">
<title>Node3</title>
<polygon fill="none" stroke="#bfbfbf" points="0,-.5 0,-19.5 49,-19.5 49,-.5 0,-.5"/>
<text text-anchor="middle" x="24.5" y="-7.5" font-family="Helvetica,sans-Serif" font-size="10.00" fill="#000000">iosfwd</text>
</g>
<!-- Node1&#45;&gt;Node3 -->
<g id="edge3" class="edge">
<title>Node1&#45;&gt;Node3</title>
<path fill="none" stroke="#191970" d="M114.5136,-56.2455C97.3208,-47.4125 71.7762,-34.2887 52.2868,-24.2758"/>
<polygon fill="#191970" stroke="#191970" points="53.763,-21.0993 43.2688,-19.6427 50.5641,-27.3257 53.763,-21.0993"/>
</g>
<!-- Node4 -->
<g id="node5" class="node">
<title>Node4</title>
<polygon fill="none" stroke="#bfbfbf" points="67,-.5 67,-19.5 132,-19.5 132,-.5 67,-.5"/>
<text text-anchor="middle" x="99.5" y="-7.5" font-family="Helvetica,sans-Serif" font-size="10.00" fill="#000000">exception</text>
</g>
<!-- Node1&#45;&gt;Node4 -->
<g id="edge4" class="edge">
<title>Node1&#45;&gt;Node4</title>
<path fill="none" stroke="#191970" d="M127.5777,-56.2455C122.8973,-48.5367 116.2327,-37.5598 110.5711,-28.2348"/>
<polygon fill="#191970" stroke="#191970" points="113.5361,-26.3741 105.3545,-19.6427 107.5525,-30.007 113.5361,-26.3741"/>
</g>
<!-- Node5 -->
<g id="node6" class="node">
<title>Node5</title>
<polygon fill="none" stroke="#bfbfbf" points="150.5,-.5 150.5,-19.5 200.5,-19.5 200.5,-.5 150.5,-.5"/>
<text text-anchor="middle" x="175.5" y="-7.5" font-family="Helvetica,sans-Serif" font-size="10.00" fill="#000000">cstdint</text>
</g>
<!-- Node1&#45;&gt;Node5 -->
<g id="edge5" class="edge">
<title>Node1&#45;&gt;Node5</title>
<path fill="none" stroke="#191970" d="M140.8158,-56.2455C146.7179,-48.3761 155.1742,-37.101 162.2594,-27.6542"/>
<polygon fill="#191970" stroke="#191970" points="165.068,-29.7427 168.268,-19.6427 159.4679,-25.5427 165.068,-29.7427"/>
</g>
<!-- Node6&#45;&gt;Node1 -->
<g id="edge9" class="edge">
<title>Node6&#45;&gt;Node1</title>
<path fill="none" stroke="#191970" d="M216.0813,-112.2455C200.4515,-103.4928 177.2981,-90.527 159.4815,-80.5496"/>
<polygon fill="#191970" stroke="#191970" points="161.1543,-77.475 150.7191,-75.6427 157.734,-83.5825 161.1543,-77.475"/>
</g>
<!-- Node6&#45;&gt;Node2 -->
<g id="edge8" class="edge">
<title>Node6&#45;&gt;Node2</title>
<path fill="none" stroke="#191970" d="M234.7789,-112.4509C237.2254,-94.184 242.6131,-53.9553 245.8619,-29.6976"/>
<polygon fill="#191970" stroke="#191970" points="249.3659,-29.901 247.2243,-19.5249 242.4278,-28.9718 249.3659,-29.901"/>
</g>
<!-- Node6&#45;&gt;Node7 -->
<g id="edge7" class="edge">
<title>Node6&#45;&gt;Node7</title>
<path fill="none" stroke="#191970" d="M247.7833,-112.2455C260.247,-103.7337 278.5451,-91.2375 292.9792,-81.3801"/>
<polygon fill="#191970" stroke="#191970" points="295.0962,-84.1726 301.3804,-75.6427 291.1485,-78.392 295.0962,-84.1726"/>
</g>
</g>
</svg>
