<?xml version="1.0" encoding="UTF-8" standalone="no"?>
<!DOCTYPE svg PUBLIC "-//W3C//DTD SVG 1.1//EN"
 "http://www.w3.org/Graphics/SVG/1.1/DTD/svg11.dtd">
<!-- Generated by graphviz version 2.40.1 (20161225.0304)
 -->
<!-- Title: o2::framework::MessageContext::RootSerializedObject&lt; T &gt; Pages: 1 -->
<svg width="183pt" height="420pt"
 viewBox="0.00 0.00 183.00 420.00" xmlns="http://www.w3.org/2000/svg" xmlns:xlink="http://www.w3.org/1999/xlink">
<g id="graph0" class="graph" transform="scale(1 1) rotate(0) translate(4 416)">
<title>o2::framework::MessageContext::RootSerializedObject&lt; T &gt;</title>
<!-- Node2 -->
<g id="node1" class="node">
<title>Node2</title>
<polygon fill="#bfbfbf" stroke="#000000" points="0,-.5 0,-123.5 175,-123.5 175,-.5 0,-.5"/>
<text text-anchor="start" x="8" y="-111.5" font-family="Helvetica,sans-Serif" font-size="10.00" fill="#000000">o2::framework::MessageContext</text>
<text text-anchor="middle" x="87.5" y="-100.5" font-family="Helvetica,sans-Serif" font-size="10.00" fill="#000000">::RootSerializedObject&lt; T &gt;</text>
<polyline fill="none" stroke="#000000" points="0,-93.5 175,-93.5 "/>
<text text-anchor="middle" x="87.5" y="-81.5" font-family="Helvetica,sans-Serif" font-size="10.00" fill="#000000"> </text>
<polyline fill="none" stroke="#000000" points="0,-74.5 175,-74.5 "/>
<text text-anchor="start" x="8" y="-62.5" font-family="Helvetica,sans-Serif" font-size="10.00" fill="#000000">+ RootSerializedObject()</text>
<text text-anchor="start" x="8" y="-51.5" font-family="Helvetica,sans-Serif" font-size="10.00" fill="#000000">+ RootSerializedObject()</text>
<text text-anchor="start" x="8" y="-40.5" font-family="Helvetica,sans-Serif" font-size="10.00" fill="#000000">+ ~RootSerializedObject()</text>
<text text-anchor="start" x="8" y="-29.5" font-family="Helvetica,sans-Serif" font-size="10.00" fill="#000000">+ finalize()</text>
<text text-anchor="start" x="8" y="-18.5" font-family="Helvetica,sans-Serif" font-size="10.00" fill="#000000">+ operator value_type &amp;()</text>
<text text-anchor="start" x="8" y="-7.5" font-family="Helvetica,sans-Serif" font-size="10.00" fill="#000000">+ get()</text>
</g>
<!-- Node3 -->
<g id="node2" class="node">
<title>Node3</title>
<g id="a_node2"><a xlink:href="../../d3/dc5/classo2_1_1framework_1_1MessageContext_1_1ContextObject.html" target="_top" xlink:title="{o2::framework::MessageContext\l::ContextObject\n||+ ContextObject()\l+ ContextObject()\l+ ContextObject()\l+ ~ContextObject()\l+ finalize()\l+ channel()\l+ empty()\l+ header()\l}">
<polygon fill="none" stroke="#000000" points="0,-161.5 0,-306.5 175,-306.5 175,-161.5 0,-161.5"/>
<text text-anchor="start" x="8" y="-294.5" font-family="Helvetica,sans-Serif" font-size="10.00" fill="#000000">o2::framework::MessageContext</text>
<text text-anchor="middle" x="87.5" y="-283.5" font-family="Helvetica,sans-Serif" font-size="10.00" fill="#000000">::ContextObject</text>
<polyline fill="none" stroke="#000000" points="0,-276.5 175,-276.5 "/>
<text text-anchor="middle" x="87.5" y="-264.5" font-family="Helvetica,sans-Serif" font-size="10.00" fill="#000000"> </text>
<polyline fill="none" stroke="#000000" points="0,-257.5 175,-257.5 "/>
<text text-anchor="start" x="8" y="-245.5" font-family="Helvetica,sans-Serif" font-size="10.00" fill="#000000">+ ContextObject()</text>
<text text-anchor="start" x="8" y="-234.5" font-family="Helvetica,sans-Serif" font-size="10.00" fill="#000000">+ ContextObject()</text>
<text text-anchor="start" x="8" y="-223.5" font-family="Helvetica,sans-Serif" font-size="10.00" fill="#000000">+ ContextObject()</text>
<text text-anchor="start" x="8" y="-212.5" font-family="Helvetica,sans-Serif" font-size="10.00" fill="#000000">+ ~ContextObject()</text>
<text text-anchor="start" x="8" y="-201.5" font-family="Helvetica,sans-Serif" font-size="10.00" fill="#000000">+ finalize()</text>
<text text-anchor="start" x="8" y="-190.5" font-family="Helvetica,sans-Serif" font-size="10.00" fill="#000000">+ channel()</text>
<text text-anchor="start" x="8" y="-179.5" font-family="Helvetica,sans-Serif" font-size="10.00" fill="#000000">+ empty()</text>
<text text-anchor="start" x="8" y="-168.5" font-family="Helvetica,sans-Serif" font-size="10.00" fill="#000000">+ header()</text>
</a>
</g>
</g>
<!-- Node3&#45;&gt;Node2 -->
<g id="edge1" class="edge">
<title>Node3&#45;&gt;Node2</title>
<path fill="none" stroke="#191970" d="M87.5,-150.78C87.5,-141.6427 87.5,-132.4636 87.5,-123.6556"/>
<polygon fill="none" stroke="#191970" points="84.0001,-151.0565 87.5,-161.0565 91.0001,-151.0565 84.0001,-151.0565"/>
</g>
<!-- Node4 -->
<g id="node3" class="node">
<title>Node4</title>
<polygon fill="none" stroke="#bfbfbf" points="12.5,-354.5 12.5,-411.5 86.5,-411.5 86.5,-354.5 12.5,-354.5"/>
<text text-anchor="middle" x="49.5" y="-399.5" font-family="Helvetica,sans-Serif" font-size="10.00" fill="#000000">FairMQParts</text>
<polyline fill="none" stroke="#bfbfbf" points="12.5,-392.5 86.5,-392.5 "/>
<text text-anchor="middle" x="49.5" y="-380.5" font-family="Helvetica,sans-Serif" font-size="10.00" fill="#000000"> </text>
<polyline fill="none" stroke="#bfbfbf" points="12.5,-373.5 86.5,-373.5 "/>
<text text-anchor="middle" x="49.5" y="-361.5" font-family="Helvetica,sans-Serif" font-size="10.00" fill="#000000"> </text>
</g>
<!-- Node4&#45;&gt;Node3 -->
<g id="edge2" class="edge">
<title>Node4&#45;&gt;Node3</title>
<path fill="none" stroke="#404040" d="M53.0693,-354.2145C54.4702,-344.8394 56.2815,-334.4228 58.5,-325 59.0053,-322.8539 59.5363,-320.6852 60.089,-318.502"/>
<polygon fill="none" stroke="#404040" points="60.1349,-318.3299 57.8173,-311.5014 63.2291,-306.7356 65.5468,-313.5641 60.1349,-318.3299"/>
<text text-anchor="middle" x="81.5" y="-328" font-family="Helvetica,sans-Serif" font-size="10.00" fill="#000000"> #mParts</text>
</g>
<!-- Node5 -->
<g id="node4" class="node">
<title>Node5</title>
<polygon fill="none" stroke="#bfbfbf" points="105,-354.5 105,-411.5 148,-411.5 148,-354.5 105,-354.5"/>
<text text-anchor="middle" x="126.5" y="-399.5" font-family="Helvetica,sans-Serif" font-size="10.00" fill="#000000">const</text>
<polyline fill="none" stroke="#bfbfbf" points="105,-392.5 148,-392.5 "/>
<text text-anchor="middle" x="126.5" y="-380.5" font-family="Helvetica,sans-Serif" font-size="10.00" fill="#000000"> </text>
<polyline fill="none" stroke="#bfbfbf" points="105,-373.5 148,-373.5 "/>
<text text-anchor="middle" x="126.5" y="-361.5" font-family="Helvetica,sans-Serif" font-size="10.00" fill="#000000"> </text>
</g>
<!-- Node5&#45;&gt;Node3 -->
<g id="edge3" class="edge">
<title>Node5&#45;&gt;Node3</title>
<path fill="none" stroke="#404040" d="M118.9804,-354.2713C116.235,-343.7825 112.9724,-331.3175 109.6041,-318.4492"/>
<polygon fill="none" stroke="#404040" points="109.5317,-318.172 104.1427,-313.3805 106.493,-306.5631 111.882,-311.3547 109.5317,-318.172"/>
<text text-anchor="middle" x="144" y="-328" font-family="Helvetica,sans-Serif" font-size="10.00" fill="#000000"> #mChannel</text>
</g>
</g>
</svg>
