<?xml version="1.0" encoding="UTF-8" standalone="no"?>
<!DOCTYPE svg PUBLIC "-//W3C//DTD SVG 1.1//EN"
 "http://www.w3.org/Graphics/SVG/1.1/DTD/svg11.dtd">
<!-- Generated by graphviz version 2.40.1 (20161225.0304)
 -->
<!-- Title: /home/travis/build/AliceO2Group/AliceO2/Framework/Core/include/Framework/SerializationMethods.h Pages: 1 -->
<svg width="2009pt" height="240pt"
 viewBox="0.00 0.00 2008.50 240.00" xmlns="http://www.w3.org/2000/svg" xmlns:xlink="http://www.w3.org/1999/xlink">
<g id="graph0" class="graph" transform="scale(1 1) rotate(0) translate(4 236)">
<title>/home/travis/build/AliceO2Group/AliceO2/Framework/Core/include/Framework/SerializationMethods.h</title>
<!-- Node0 -->
<g id="node1" class="node">
<title>Node0</title>
<polygon fill="#bfbfbf" stroke="#000000" points="635,-179.5 635,-231.5 823,-231.5 823,-179.5 635,-179.5"/>
<text text-anchor="start" x="643" y="-219.5" font-family="Helvetica,sans-Serif" font-size="10.00" fill="#000000">/home/travis/build</text>
<text text-anchor="start" x="643" y="-208.5" font-family="Helvetica,sans-Serif" font-size="10.00" fill="#000000">/AliceO2Group/AliceO2</text>
<text text-anchor="start" x="643" y="-197.5" font-family="Helvetica,sans-Serif" font-size="10.00" fill="#000000">/Framework/Core/include</text>
<text text-anchor="middle" x="729" y="-186.5" font-family="Helvetica,sans-Serif" font-size="10.00" fill="#000000">/Framework/SerializationMethods.h</text>
</g>
<!-- Node1 -->
<g id="node2" class="node">
<title>Node1</title>
<g id="a_node2"><a xlink:href="../../d0/d95/TypeTraits_8h.html" target="_top" xlink:title="Framework/TypeTraits.h">
<polygon fill="none" stroke="#000000" points="231.5,-123.5 231.5,-142.5 362.5,-142.5 362.5,-123.5 231.5,-123.5"/>
<text text-anchor="middle" x="297" y="-130.5" font-family="Helvetica,sans-Serif" font-size="10.00" fill="#000000">Framework/TypeTraits.h</text>
</a>
</g>
</g>
<!-- Node0&#45;&gt;Node1 -->
<g id="edge1" class="edge">
<title>Node0&#45;&gt;Node1</title>
<path fill="none" stroke="#191970" d="M634.9961,-189.7239C553.0921,-175.9784 436.3678,-156.3893 363.7264,-144.1983"/>
<polygon fill="#191970" stroke="#191970" points="364.2186,-140.732 353.7772,-142.5286 363.0599,-147.6355 364.2186,-140.732"/>
</g>
<!-- Node9 -->
<g id="node10" class="node">
<title>Node9</title>
<g id="a_node10"><a xlink:href="../../d7/d91/BoostSerializer_8h.html" target="_top" xlink:title="Templatised boost serializer/deserializer for containers and base types. ">
<polygon fill="none" stroke="#000000" points="1174,-123.5 1174,-142.5 1342,-142.5 1342,-123.5 1174,-123.5"/>
<text text-anchor="middle" x="1258" y="-130.5" font-family="Helvetica,sans-Serif" font-size="10.00" fill="#000000">CommonUtils/BoostSerializer.h</text>
</a>
</g>
</g>
<!-- Node0&#45;&gt;Node9 -->
<g id="edge10" class="edge">
<title>Node0&#45;&gt;Node9</title>
<path fill="none" stroke="#191970" d="M823.2696,-192.5802C924.4399,-178.7148 1083.383,-156.9314 1178.4674,-143.9"/>
<polygon fill="#191970" stroke="#191970" points="1179.1689,-147.3367 1188.601,-142.5112 1178.2183,-140.4015 1179.1689,-147.3367"/>
</g>
<!-- Node2 -->
<g id="node3" class="node">
<title>Node2</title>
<polygon fill="none" stroke="#bfbfbf" points="124.5,-.5 124.5,-19.5 193.5,-19.5 193.5,-.5 124.5,-.5"/>
<text text-anchor="middle" x="159" y="-7.5" font-family="Helvetica,sans-Serif" font-size="10.00" fill="#000000">type_traits</text>
</g>
<!-- Node1&#45;&gt;Node2 -->
<g id="edge2" class="edge">
<title>Node1&#45;&gt;Node2</title>
<path fill="none" stroke="#191970" d="M231.4772,-126.8453C179.172,-120.4166 111.9363,-108.2267 95,-87 86.407,-76.2302 88.7136,-68.26 95,-56 101.933,-42.4789 114.8936,-32.0326 127.3481,-24.5377"/>
<polygon fill="#191970" stroke="#191970" points="129.1928,-27.5168 136.234,-19.6001 125.7928,-21.3979 129.1928,-27.5168"/>
</g>
<!-- Node3 -->
<g id="node4" class="node">
<title>Node3</title>
<polygon fill="none" stroke="#bfbfbf" points="308.5,-62 308.5,-81 355.5,-81 355.5,-62 308.5,-62"/>
<text text-anchor="middle" x="332" y="-69" font-family="Helvetica,sans-Serif" font-size="10.00" fill="#000000">vector</text>
</g>
<!-- Node1&#45;&gt;Node3 -->
<g id="edge3" class="edge">
<title>Node1&#45;&gt;Node3</title>
<path fill="none" stroke="#191970" d="M302.4688,-123.3906C307.5246,-114.5068 315.1772,-101.0601 321.4254,-90.0811"/>
<polygon fill="#191970" stroke="#191970" points="324.5498,-91.6672 326.4541,-81.2449 318.466,-88.2048 324.5498,-91.6672"/>
</g>
<!-- Node4 -->
<g id="node5" class="node">
<title>Node4</title>
<polygon fill="none" stroke="#bfbfbf" points="232,-62 232,-81 290,-81 290,-62 232,-62"/>
<text text-anchor="middle" x="261" y="-69" font-family="Helvetica,sans-Serif" font-size="10.00" fill="#000000">memory</text>
</g>
<!-- Node1&#45;&gt;Node4 -->
<g id="edge4" class="edge">
<title>Node1&#45;&gt;Node4</title>
<path fill="none" stroke="#191970" d="M291.375,-123.3906C286.1747,-114.5068 278.3034,-101.0601 271.8767,-90.0811"/>
<polygon fill="#191970" stroke="#191970" points="274.7767,-88.1069 266.7043,-81.2449 268.7356,-91.6432 274.7767,-88.1069"/>
</g>
<!-- Node5 -->
<g id="node6" class="node">
<title>Node5</title>
<g id="a_node6"><a xlink:href="../../db/d31/Traits_8h.html" target="_top" xlink:title="Framework/Traits.h">
<polygon fill="none" stroke="#000000" points="104.5,-62 104.5,-81 213.5,-81 213.5,-62 104.5,-62"/>
<text text-anchor="middle" x="159" y="-69" font-family="Helvetica,sans-Serif" font-size="10.00" fill="#000000">Framework/Traits.h</text>
</a>
</g>
</g>
<!-- Node1&#45;&gt;Node5 -->
<g id="edge5" class="edge">
<title>Node1&#45;&gt;Node5</title>
<path fill="none" stroke="#191970" d="M275.4375,-123.3906C252.4488,-113.1457 215.844,-96.8326 189.8176,-85.2339"/>
<polygon fill="#191970" stroke="#191970" points="190.9698,-81.9156 180.4111,-81.0419 188.1204,-88.3095 190.9698,-81.9156"/>
</g>
<!-- Node6 -->
<g id="node7" class="node">
<title>Node6</title>
<polygon fill="none" stroke="#bfbfbf" points="374,-56.5 374,-86.5 490,-86.5 490,-56.5 374,-56.5"/>
<text text-anchor="start" x="382" y="-74.5" font-family="Helvetica,sans-Serif" font-size="10.00" fill="#000000">boost/archive/binary</text>
<text text-anchor="middle" x="432" y="-63.5" font-family="Helvetica,sans-Serif" font-size="10.00" fill="#000000">_iarchive.hpp</text>
</g>
<!-- Node1&#45;&gt;Node6 -->
<g id="edge7" class="edge">
<title>Node1&#45;&gt;Node6</title>
<path fill="none" stroke="#191970" d="M318.0938,-123.3906C337.2102,-114.682 365.9514,-101.5888 389.7798,-90.7336"/>
<polygon fill="#191970" stroke="#191970" points="391.3261,-93.8754 398.9753,-86.5446 388.4241,-87.5052 391.3261,-93.8754"/>
</g>
<!-- Node7 -->
<g id="node8" class="node">
<title>Node7</title>
<polygon fill="none" stroke="#bfbfbf" points="508,-56.5 508,-86.5 624,-86.5 624,-56.5 508,-56.5"/>
<text text-anchor="start" x="516" y="-74.5" font-family="Helvetica,sans-Serif" font-size="10.00" fill="#000000">boost/archive/binary</text>
<text text-anchor="middle" x="566" y="-63.5" font-family="Helvetica,sans-Serif" font-size="10.00" fill="#000000">_oarchive.hpp</text>
</g>
<!-- Node1&#45;&gt;Node7 -->
<g id="edge8" class="edge">
<title>Node1&#45;&gt;Node7</title>
<path fill="none" stroke="#191970" d="M339.1804,-123.4389C377.9769,-114.6349 437.3732,-101.1314 498.1371,-87.1942"/>
<polygon fill="#191970" stroke="#191970" points="498.9343,-90.6024 507.8982,-84.9543 497.3687,-83.7797 498.9343,-90.6024"/>
</g>
<!-- Node8 -->
<g id="node9" class="node">
<title>Node8</title>
<polygon fill="none" stroke="#bfbfbf" points="0,-62 0,-81 48,-81 48,-62 0,-62"/>
<text text-anchor="middle" x="24" y="-69" font-family="Helvetica,sans-Serif" font-size="10.00" fill="#000000">gsl/gsl</text>
</g>
<!-- Node1&#45;&gt;Node8 -->
<g id="edge9" class="edge">
<title>Node1&#45;&gt;Node8</title>
<path fill="none" stroke="#191970" d="M231.3408,-123.6495C183.7505,-116.0291 118.1651,-103.7786 62,-87 59.6959,-86.3117 57.3389,-85.5355 54.983,-84.7065"/>
<polygon fill="#191970" stroke="#191970" points="56.0337,-81.3619 45.4424,-81.0916 53.5535,-87.9077 56.0337,-81.3619"/>
</g>
<!-- Node5&#45;&gt;Node2 -->
<g id="edge6" class="edge">
<title>Node5&#45;&gt;Node2</title>
<path fill="none" stroke="#191970" d="M159,-61.8906C159,-53.3657 159,-40.6392 159,-29.9235"/>
<polygon fill="#191970" stroke="#191970" points="162.5001,-29.7448 159,-19.7449 155.5001,-29.7449 162.5001,-29.7448"/>
</g>
<!-- Node9&#45;&gt;Node2 -->
<g id="edge12" class="edge">
<title>Node9&#45;&gt;Node2</title>
<path fill="none" stroke="#191970" d="M1342.0436,-129.7923C1410.4411,-125.2054 1499.2448,-114.0629 1522,-87 1530.8669,-76.4546 1531.5766,-65.9053 1522,-56 1498.5616,-31.7573 436.9069,-14.2257 203.8974,-10.6659"/>
<polygon fill="#191970" stroke="#191970" points="203.7998,-7.1641 193.7478,-10.5117 203.6934,-14.1633 203.7998,-7.1641"/>
</g>
<!-- Node9&#45;&gt;Node3 -->
<g id="edge14" class="edge">
<title>Node9&#45;&gt;Node3</title>
<path fill="none" stroke="#191970" d="M1173.8491,-130.5158C966.4642,-124.13 442.038,-106.2849 365,-87 362.8049,-86.4505 360.5793,-85.7522 358.3746,-84.9574"/>
<polygon fill="#191970" stroke="#191970" points="359.5764,-81.666 349.0015,-81.017 356.8636,-88.1189 359.5764,-81.666"/>
</g>
<!-- Node9&#45;&gt;Node6 -->
<g id="edge18" class="edge">
<title>Node9&#45;&gt;Node6</title>
<path fill="none" stroke="#191970" d="M1173.888,-129.6754C1008.381,-122.8488 644.6876,-106.3659 500.3634,-87.0032"/>
<polygon fill="#191970" stroke="#191970" points="500.7452,-83.5226 490.3569,-85.6042 499.7759,-90.4552 500.7452,-83.5226"/>
</g>
<!-- Node9&#45;&gt;Node7 -->
<g id="edge19" class="edge">
<title>Node9&#45;&gt;Node7</title>
<path fill="none" stroke="#191970" d="M1173.8879,-130.9142C1055.441,-127.0637 832.7009,-116.4797 634.3858,-87.0649"/>
<polygon fill="#191970" stroke="#191970" points="634.7726,-83.5838 624.3636,-85.559 633.7325,-90.5061 634.7726,-83.5838"/>
</g>
<!-- Node10 -->
<g id="node11" class="node">
<title>Node10</title>
<polygon fill="none" stroke="#bfbfbf" points="1569.5,-62 1569.5,-81 1614.5,-81 1614.5,-62 1569.5,-62"/>
<text text-anchor="middle" x="1592" y="-69" font-family="Helvetica,sans-Serif" font-size="10.00" fill="#000000">utility</text>
</g>
<!-- Node9&#45;&gt;Node10 -->
<g id="edge11" class="edge">
<title>Node9&#45;&gt;Node10</title>
<path fill="none" stroke="#191970" d="M1342.0543,-125.4871C1402.1726,-118.788 1484.5747,-106.8845 1555,-87 1557.3186,-86.3453 1559.6863,-85.5846 1562.0473,-84.7583"/>
<polygon fill="#191970" stroke="#191970" points="1563.4949,-87.9516 1571.5737,-81.0972 1560.9837,-81.4176 1563.4949,-87.9516"/>
</g>
<!-- Node11 -->
<g id="node12" class="node">
<title>Node11</title>
<polygon fill="none" stroke="#bfbfbf" points="1633,-62 1633,-81 1675,-81 1675,-62 1633,-62"/>
<text text-anchor="middle" x="1654" y="-69" font-family="Helvetica,sans-Serif" font-size="10.00" fill="#000000">array</text>
</g>
<!-- Node9&#45;&gt;Node11 -->
<g id="edge13" class="edge">
<title>Node9&#45;&gt;Node11</title>
<path fill="none" stroke="#191970" d="M1342.2547,-125.8592C1433.5761,-117.5091 1573.0818,-102.8044 1624,-87 1625.4697,-86.5438 1626.9535,-86.0182 1628.4329,-85.4422"/>
<polygon fill="#191970" stroke="#191970" points="1630.29,-88.4424 1637.9394,-81.1118 1627.3882,-82.0721 1630.29,-88.4424"/>
</g>
<!-- Node12 -->
<g id="node13" class="node">
<title>Node12</title>
<polygon fill="none" stroke="#bfbfbf" points="1693,-62 1693,-81 1725,-81 1725,-62 1693,-62"/>
<text text-anchor="middle" x="1709" y="-69" font-family="Helvetica,sans-Serif" font-size="10.00" fill="#000000">list</text>
</g>
<!-- Node9&#45;&gt;Node12 -->
<g id="edge15" class="edge">
<title>Node9&#45;&gt;Node12</title>
<path fill="none" stroke="#191970" d="M1342.2857,-128.3438C1447.9931,-121.7358 1622.8011,-108.0497 1684,-87 1685.0383,-86.6429 1686.0785,-86.2364 1687.113,-85.7914"/>
<polygon fill="#191970" stroke="#191970" points="1688.873,-88.8197 1696.0627,-81.0378 1685.5893,-82.6377 1688.873,-88.8197"/>
</g>
<!-- Node13 -->
<g id="node14" class="node">
<title>Node13</title>
<polygon fill="none" stroke="#bfbfbf" points="1743,-62 1743,-81 1781,-81 1781,-62 1743,-62"/>
<text text-anchor="middle" x="1762" y="-69" font-family="Helvetica,sans-Serif" font-size="10.00" fill="#000000">map</text>
</g>
<!-- Node9&#45;&gt;Node13 -->
<g id="edge16" class="edge">
<title>Node9&#45;&gt;Node13</title>
<path fill="none" stroke="#191970" d="M1342.024,-128.997C1458.5896,-122.7404 1663.0335,-109.0272 1734,-87 1735.4261,-86.5573 1736.8614,-86.0368 1738.2882,-85.4596"/>
<polygon fill="#191970" stroke="#191970" points="1739.9168,-88.5598 1747.394,-81.0536 1736.8679,-82.2587 1739.9168,-88.5598"/>
</g>
<!-- Node14 -->
<g id="node15" class="node">
<title>Node14</title>
<polygon fill="none" stroke="#bfbfbf" points="1799,-62 1799,-81 1831,-81 1831,-62 1799,-62"/>
<text text-anchor="middle" x="1815" y="-69" font-family="Helvetica,sans-Serif" font-size="10.00" fill="#000000">set</text>
</g>
<!-- Node9&#45;&gt;Node14 -->
<g id="edge17" class="edge">
<title>Node9&#45;&gt;Node14</title>
<path fill="none" stroke="#191970" d="M1342.1525,-130.481C1470.6129,-125.8345 1709.2221,-113.8249 1790,-87 1791.042,-86.654 1792.0853,-86.2567 1793.1224,-85.8193"/>
<polygon fill="#191970" stroke="#191970" points="1794.8682,-88.8556 1802.0825,-81.0964 1791.6041,-82.6632 1794.8682,-88.8556"/>
</g>
<!-- Node15 -->
<g id="node16" class="node">
<title>Node15</title>
<polygon fill="none" stroke="#bfbfbf" points="1849.5,-56.5 1849.5,-86.5 2000.5,-86.5 2000.5,-56.5 1849.5,-56.5"/>
<text text-anchor="start" x="1857.5" y="-74.5" font-family="Helvetica,sans-Serif" font-size="10.00" fill="#000000">boost/serialization</text>
<text text-anchor="middle" x="1925" y="-63.5" font-family="Helvetica,sans-Serif" font-size="10.00" fill="#000000">/is_bitwise_serializable.hpp</text>
</g>
<!-- Node9&#45;&gt;Node15 -->
<g id="edge20" class="edge">
<title>Node9&#45;&gt;Node15</title>
<path fill="none" stroke="#191970" d="M1342.1287,-129.0357C1453.4938,-123.1868 1656.1239,-110.4634 1838.9874,-87.0457"/>
<polygon fill="#191970" stroke="#191970" points="1839.5919,-90.4968 1849.06,-85.7423 1838.6935,-83.5547 1839.5919,-90.4968"/>
</g>
<!-- Node16 -->
<g id="node17" class="node">
<title>Node16</title>
<polygon fill="none" stroke="#bfbfbf" points="642.5,-56.5 642.5,-86.5 749.5,-86.5 749.5,-56.5 642.5,-56.5"/>
<text text-anchor="start" x="650.5" y="-74.5" font-family="Helvetica,sans-Serif" font-size="10.00" fill="#000000">boost/serialization</text>
<text text-anchor="middle" x="696" y="-63.5" font-family="Helvetica,sans-Serif" font-size="10.00" fill="#000000">/serialization.hpp</text>
</g>
<!-- Node9&#45;&gt;Node16 -->
<g id="edge21" class="edge">
<title>Node9&#45;&gt;Node16</title>
<path fill="none" stroke="#191970" d="M1173.8884,-129.2021C1076.2562,-123.9062 910.3417,-112.168 759.5703,-87.1193"/>
<polygon fill="#191970" stroke="#191970" points="760.1045,-83.6601 749.662,-85.4501 758.9416,-90.5628 760.1045,-83.6601"/>
</g>
<!-- Node17 -->
<g id="node18" class="node">
<title>Node17</title>
<polygon fill="none" stroke="#bfbfbf" points="767.5,-56.5 767.5,-86.5 874.5,-86.5 874.5,-56.5 767.5,-56.5"/>
<text text-anchor="start" x="775.5" y="-74.5" font-family="Helvetica,sans-Serif" font-size="10.00" fill="#000000">boost/serialization</text>
<text text-anchor="middle" x="821" y="-63.5" font-family="Helvetica,sans-Serif" font-size="10.00" fill="#000000">/array.hpp</text>
</g>
<!-- Node9&#45;&gt;Node17 -->
<g id="edge22" class="edge">
<title>Node9&#45;&gt;Node17</title>
<path fill="none" stroke="#191970" d="M1173.7711,-125.6547C1099.8556,-118.5238 989.3237,-106.2039 884.7772,-87.2082"/>
<polygon fill="#191970" stroke="#191970" points="885.1485,-83.7177 874.68,-85.349 883.8808,-90.602 885.1485,-83.7177"/>
</g>
<!-- Node18 -->
<g id="node19" class="node">
<title>Node18</title>
<polygon fill="none" stroke="#bfbfbf" points="892.5,-56.5 892.5,-86.5 999.5,-86.5 999.5,-56.5 892.5,-56.5"/>
<text text-anchor="start" x="900.5" y="-74.5" font-family="Helvetica,sans-Serif" font-size="10.00" fill="#000000">boost/serialization</text>
<text text-anchor="middle" x="946" y="-63.5" font-family="Helvetica,sans-Serif" font-size="10.00" fill="#000000">/vector.hpp</text>
</g>
<!-- Node9&#45;&gt;Node18 -->
<g id="edge23" class="edge">
<title>Node9&#45;&gt;Node18</title>
<path fill="none" stroke="#191970" d="M1200.2027,-123.4291C1151.6821,-115.1526 1080.3206,-102.4188 1009.6804,-87.2991"/>
<polygon fill="#191970" stroke="#191970" points="1010.2332,-83.8379 999.72,-85.15 1008.7568,-90.6804 1010.2332,-83.8379"/>
</g>
<!-- Node19 -->
<g id="node20" class="node">
<title>Node19</title>
<polygon fill="none" stroke="#bfbfbf" points="1017.5,-56.5 1017.5,-86.5 1124.5,-86.5 1124.5,-56.5 1017.5,-56.5"/>
<text text-anchor="start" x="1025.5" y="-74.5" font-family="Helvetica,sans-Serif" font-size="10.00" fill="#000000">boost/serialization</text>
<text text-anchor="middle" x="1071" y="-63.5" font-family="Helvetica,sans-Serif" font-size="10.00" fill="#000000">/list.hpp</text>
</g>
<!-- Node9&#45;&gt;Node19 -->
<g id="edge24" class="edge">
<title>Node9&#45;&gt;Node19</title>
<path fill="none" stroke="#191970" d="M1228.7813,-123.3906C1201.4812,-114.4123 1160.0105,-100.7735 1126.436,-89.7316"/>
<polygon fill="#191970" stroke="#191970" points="1127.3383,-86.344 1116.7453,-86.5446 1125.1513,-92.9936 1127.3383,-86.344"/>
</g>
<!-- Node20 -->
<g id="node21" class="node">
<title>Node20</title>
<polygon fill="none" stroke="#bfbfbf" points="1142.5,-56.5 1142.5,-86.5 1249.5,-86.5 1249.5,-56.5 1142.5,-56.5"/>
<text text-anchor="start" x="1150.5" y="-74.5" font-family="Helvetica,sans-Serif" font-size="10.00" fill="#000000">boost/serialization</text>
<text text-anchor="middle" x="1196" y="-63.5" font-family="Helvetica,sans-Serif" font-size="10.00" fill="#000000">/map.hpp</text>
</g>
<!-- Node9&#45;&gt;Node20 -->
<g id="edge25" class="edge">
<title>Node9&#45;&gt;Node20</title>
<path fill="none" stroke="#191970" d="M1248.3125,-123.3906C1240.31,-115.4527 1228.635,-103.8718 1218.3437,-93.6635"/>
<polygon fill="#191970" stroke="#191970" points="1220.7314,-91.1021 1211.1669,-86.5446 1215.8017,-96.0719 1220.7314,-91.1021"/>
</g>
<!-- Node21 -->
<g id="node22" class="node">
<title>Node21</title>
<polygon fill="none" stroke="#bfbfbf" points="1267.5,-56.5 1267.5,-86.5 1374.5,-86.5 1374.5,-56.5 1267.5,-56.5"/>
<text text-anchor="start" x="1275.5" y="-74.5" font-family="Helvetica,sans-Serif" font-size="10.00" fill="#000000">boost/serialization</text>
<text text-anchor="middle" x="1321" y="-63.5" font-family="Helvetica,sans-Serif" font-size="10.00" fill="#000000">/set.hpp</text>
</g>
<!-- Node9&#45;&gt;Node21 -->
<g id="edge26" class="edge">
<title>Node9&#45;&gt;Node21</title>
<path fill="none" stroke="#191970" d="M1267.8438,-123.3906C1275.9753,-115.4527 1287.8386,-103.8718 1298.2959,-93.6635"/>
<polygon fill="#191970" stroke="#191970" points="1300.8776,-96.0345 1305.5885,-86.5446 1295.9878,-91.0255 1300.8776,-96.0345"/>
</g>
<!-- Node22 -->
<g id="node23" class="node">
<title>Node22</title>
<polygon fill="none" stroke="#bfbfbf" points="1393,-62 1393,-81 1513,-81 1513,-62 1393,-62"/>
<text text-anchor="middle" x="1453" y="-69" font-family="Helvetica,sans-Serif" font-size="10.00" fill="#000000">boost/type_traits.hpp</text>
</g>
<!-- Node9&#45;&gt;Node22 -->
<g id="edge27" class="edge">
<title>Node9&#45;&gt;Node22</title>
<path fill="none" stroke="#191970" d="M1288.4688,-123.3906C1321.9544,-112.8298 1375.8853,-95.8208 1412.812,-84.1747"/>
<polygon fill="#191970" stroke="#191970" points="1414.261,-87.3877 1422.7452,-81.0419 1412.1555,-80.7118 1414.261,-87.3877"/>
</g>
</g>
</svg>
