<?xml version="1.0" encoding="UTF-8" standalone="no"?>
<!DOCTYPE svg PUBLIC "-//W3C//DTD SVG 1.1//EN"
 "http://www.w3.org/Graphics/SVG/1.1/DTD/svg11.dtd">
<!-- Generated by graphviz version 2.40.1 (20161225.0304)
 -->
<!-- Title: /home/travis/build/AliceO2Group/AliceO2/Detectors/TOF/calibration/include/TOFCalibration/CollectCalibInfoTOF.h Pages: 1 -->
<!--zoomable 463 -->
<svg id="main" version="1.1" xmlns="http://www.w3.org/2000/svg" xmlns:xlink="http://www.w3.org/1999/xlink" xml:space="preserve" onload="init(evt)">
<style type="text/css"><![CDATA[
.edge:hover path { stroke: red; }
.edge:hover polygon { stroke: red; fill: red; }
]]></style>
<script type="text/javascript"><![CDATA[
var edges = document.getElementsByTagName('g');
if (edges && edges.length) {
  for (var i=0;i<edges.length;i++) {
    if (edges[i].id.substr(0,4)=='edge') {
      edges[i].setAttribute('class','edge');
    }
  }
}
]]></script>
        <defs>
                <circle id="rim" cx="0" cy="0" r="7"/>
                <circle id="rim2" cx="0" cy="0" r="3.5"/>
                <g id="zoomPlus">
                        <use xlink:href="#rim" fill="#404040">
                                <set attributeName="fill" to="#808080" begin="zoomplus.mouseover" end="zoomplus.mouseout"/>
                        </use>
                        <path d="M-4,0h8M0,-4v8" fill="none" stroke="white" stroke-width="1.5" pointer-events="none"/>
                </g>
                <g id="zoomMin">
                        <use xlink:href="#rim" fill="#404040">
                                <set attributeName="fill" to="#808080" begin="zoomminus.mouseover" end="zoomminus.mouseout"/>
                        </use>
                        <path d="M-4,0h8" fill="none" stroke="white" stroke-width="1.5" pointer-events="none"/>
                </g>
                <g id="dirArrow">
                        <path fill="none" stroke="white" stroke-width="1.5" d="M0,-3.0v7 M-2.5,-0.5L0,-3.0L2.5,-0.5"/>
                </g>
               <g id="resetDef">
                       <use xlink:href="#rim2" fill="#404040">
                               <set attributeName="fill" to="#808080" begin="reset.mouseover" end="reset.mouseout"/>
                       </use>
               </g>
        </defs>

<script type="text/javascript">
var viewWidth = 2277;
var viewHeight = 463;
var sectionId = 'dynsection-0';
</script>
<script xlink:href="../../svgpan.js"/>
<svg id="graph" class="graph">
<g id="viewport">
<title>/home/travis/build/AliceO2Group/AliceO2/Detectors/TOF/calibration/include/TOFCalibration/CollectCalibInfoTOF.h</title>
<!-- Node0 -->
<g id="node1" class="node">
<title>Node0</title>
<polygon fill="#bfbfbf" stroke="#000000" points="1739.9652,-391.5 1739.9652,-454.5 1930.9652,-454.5 1930.9652,-391.5 1739.9652,-391.5"/>
<text text-anchor="start" x="1747.9652" y="-442.5" font-family="Helvetica,sans-Serif" font-size="10.00" fill="#000000">/home/travis/build</text>
<text text-anchor="start" x="1747.9652" y="-431.5" font-family="Helvetica,sans-Serif" font-size="10.00" fill="#000000">/AliceO2Group/AliceO2</text>
<text text-anchor="start" x="1747.9652" y="-420.5" font-family="Helvetica,sans-Serif" font-size="10.00" fill="#000000">/Detectors/TOF/calibration</text>
<text text-anchor="start" x="1747.9652" y="-409.5" font-family="Helvetica,sans-Serif" font-size="10.00" fill="#000000">/include/TOFCalibration/CollectCalib</text>
<text text-anchor="middle" x="1835.4652" y="-398.5" font-family="Helvetica,sans-Serif" font-size="10.00" fill="#000000">InfoTOF.h</text>
</g>
<!-- Node1 -->
<g id="node2" class="node">
<title>Node1</title>
<polygon fill="none" stroke="#bfbfbf" points="1688.9652,-.5 1688.9652,-19.5 1747.9652,-19.5 1747.9652,-.5 1688.9652,-.5"/>
<text text-anchor="middle" x="1718.4652" y="-7.5" font-family="Helvetica,sans-Serif" font-size="10.00" fill="#000000">Rtypes.h</text>
</g>
<!-- Node0&#45;&gt;Node1 -->
<g id="edge1" class="edge">
<title>Node0&#45;&gt;Node1</title>
<path fill="none" stroke="#191970" d="M1839.257,-391.3558C1843.9884,-349.0675 1851.4652,-271.7593 1851.4652,-205.5 1851.4652,-205.5 1851.4652,-205.5 1851.4652,-138.5 1851.4652,-82.8547 1790.5071,-43.6577 1751.1284,-24.142"/>
<polygon fill="#191970" stroke="#191970" points="1752.1641,-20.758 1741.632,-19.6064 1749.1472,-27.0745 1752.1641,-20.758"/>
</g>
<!-- Node2 -->
<g id="node3" class="node">
<title>Node2</title>
<polygon fill="none" stroke="#bfbfbf" points="1863.4652,-330 1863.4652,-349 1905.4652,-349 1905.4652,-330 1863.4652,-330"/>
<text text-anchor="middle" x="1884.4652" y="-337" font-family="Helvetica,sans-Serif" font-size="10.00" fill="#000000">array</text>
</g>
<!-- Node0&#45;&gt;Node2 -->
<g id="edge2" class="edge">
<title>Node0&#45;&gt;Node2</title>
<path fill="none" stroke="#191970" d="M1853.99,-391.4322C1860.5757,-380.2097 1867.7747,-367.9419 1873.5215,-358.1489"/>
<polygon fill="#191970" stroke="#191970" points="1876.6651,-359.7073 1878.7077,-349.3112 1870.6279,-356.1644 1876.6651,-359.7073"/>
</g>
<!-- Node3 -->
<g id="node4" class="node">
<title>Node3</title>
<polygon fill="none" stroke="#bfbfbf" points="30.9652,-62 30.9652,-81 77.9652,-81 77.9652,-62 30.9652,-62"/>
<text text-anchor="middle" x="54.4652" y="-69" font-family="Helvetica,sans-Serif" font-size="10.00" fill="#000000">vector</text>
</g>
<!-- Node0&#45;&gt;Node3 -->
<g id="edge3" class="edge">
<title>Node0&#45;&gt;Node3</title>
<path fill="none" stroke="#191970" d="M1739.6987,-419.4507C1384.177,-405.6525 160.4652,-352.3584 160.4652,-272.5 160.4652,-272.5 160.4652,-272.5 160.4652,-205.5 160.4652,-153.1246 110.0384,-109.2517 78.7463,-87.0687"/>
<polygon fill="#191970" stroke="#191970" points="80.3331,-83.913 70.1059,-81.1462 76.3754,-89.6869 80.3331,-83.913"/>
</g>
<!-- Node4 -->
<g id="node5" class="node">
<title>Node4</title>
<polygon fill="none" stroke="#bfbfbf" points="768.4652,-.5 768.4652,-19.5 812.4652,-19.5 812.4652,-.5 768.4652,-.5"/>
<text text-anchor="middle" x="790.4652" y="-7.5" font-family="Helvetica,sans-Serif" font-size="10.00" fill="#000000">string</text>
</g>
<!-- Node0&#45;&gt;Node4 -->
<g id="edge4" class="edge">
<title>Node0&#45;&gt;Node4</title>
<path fill="none" stroke="#191970" d="M1739.7203,-421.1815C1453.1155,-415.3407 604.9541,-395.0585 331.4652,-355 182.3073,-333.1525 2.4652,-423.2494 2.4652,-272.5 2.4652,-272.5 2.4652,-272.5 2.4652,-138.5 2.4652,-100.8735 -7.3956,-80.1414 21.4652,-56 82.4074,-5.0232 640.9495,-32.7928 758.0942,-19.4037"/>
<polygon fill="#191970" stroke="#191970" points="758.8996,-22.8236 768.2938,-17.9247 757.895,-15.896 758.8996,-22.8236"/>
</g>
<!-- Node5 -->
<g id="node6" class="node">
<title>Node5</title>
<polygon fill="none" stroke="#bfbfbf" points="1923.9652,-330 1923.9652,-349 2006.9652,-349 2006.9652,-330 1923.9652,-330"/>
<text text-anchor="middle" x="1965.4652" y="-337" font-family="Helvetica,sans-Serif" font-size="10.00" fill="#000000">TStopwatch.h</text>
</g>
<!-- Node0&#45;&gt;Node5 -->
<g id="edge5" class="edge">
<title>Node0&#45;&gt;Node5</title>
<path fill="none" stroke="#191970" d="M1884.6126,-391.4322C1904.207,-378.8466 1925.8482,-364.9463 1941.8064,-354.6963"/>
<polygon fill="#191970" stroke="#191970" points="1943.9647,-357.4698 1950.4871,-349.1205 1940.1817,-351.58 1943.9647,-357.4698"/>
</g>
<!-- Node6 -->
<g id="node7" class="node">
<title>Node6</title>
<polygon fill="none" stroke="#bfbfbf" points="2024.9652,-330 2024.9652,-349 2105.9652,-349 2105.9652,-330 2024.9652,-330"/>
<text text-anchor="middle" x="2065.4652" y="-337" font-family="Helvetica,sans-Serif" font-size="10.00" fill="#000000">TParameter.h</text>
</g>
<!-- Node0&#45;&gt;Node6 -->
<g id="edge6" class="edge">
<title>Node0&#45;&gt;Node6</title>
<path fill="none" stroke="#191970" d="M1922.4183,-391.4322C1959.629,-377.9231 2001.012,-362.8993 2029.6544,-352.5009"/>
<polygon fill="#191970" stroke="#191970" points="2031.0212,-355.7282 2039.2266,-349.0258 2028.6324,-349.1484 2031.0212,-355.7282"/>
</g>
<!-- Node7 -->
<g id="node8" class="node">
<title>Node7</title>
<g id="a_node8"><a xlink:href="../../d6/d9c/CalibInfoTOF_8h.html" target="_top" xlink:title="Class to store the output of the matching to TOF for calibration. ">
<polygon fill="none" stroke="#000000" points="1677.9652,-257.5 1677.9652,-287.5 1822.9652,-287.5 1822.9652,-257.5 1677.9652,-257.5"/>
<text text-anchor="start" x="1685.9652" y="-275.5" font-family="Helvetica,sans-Serif" font-size="10.00" fill="#000000">DataFormatsTOF/CalibInfo</text>
<text text-anchor="middle" x="1750.4652" y="-264.5" font-family="Helvetica,sans-Serif" font-size="10.00" fill="#000000">TOF.h</text>
</a>
</g>
</g>
<!-- Node0&#45;&gt;Node7 -->
<g id="edge7" class="edge">
<title>Node0&#45;&gt;Node7</title>
<path fill="none" stroke="#191970" d="M1817.6464,-391.4503C1801.6045,-363.0466 1778.383,-321.9309 1763.8689,-296.2325"/>
<polygon fill="#191970" stroke="#191970" points="1766.9103,-294.5004 1758.945,-287.5143 1760.8153,-297.9428 1766.9103,-294.5004"/>
</g>
<!-- Node8 -->
<g id="node9" class="node">
<title>Node8</title>
<g id="a_node9"><a xlink:href="../../d4/d78/CalibInfoTOFshort_8h.html" target="_top" xlink:title="Class to store the output of the matching to TOF for calibration (no channel info, available in CalibInfoTOF.h) ">
<polygon fill="none" stroke="#000000" points="2123.9652,-324.5 2123.9652,-354.5 2268.9652,-354.5 2268.9652,-324.5 2123.9652,-324.5"/>
<text text-anchor="start" x="2131.9652" y="-342.5" font-family="Helvetica,sans-Serif" font-size="10.00" fill="#000000">DataFormatsTOF/CalibInfo</text>
<text text-anchor="middle" x="2196.4652" y="-331.5" font-family="Helvetica,sans-Serif" font-size="10.00" fill="#000000">TOFshort.h</text>
</a>
</g>
</g>
<!-- Node0&#45;&gt;Node8 -->
<g id="edge9" class="edge">
<title>Node0&#45;&gt;Node8</title>
<path fill="none" stroke="#191970" d="M1931.2588,-400.8428C1990.8418,-387.0611 2066.3508,-369.5957 2121.5467,-356.8288"/>
<polygon fill="#191970" stroke="#191970" points="2122.6541,-360.1651 2131.6081,-354.5016 2121.0766,-353.3452 2122.6541,-360.1651"/>
</g>
<!-- Node9 -->
<g id="node10" class="node">
<title>Node9</title>
<g id="a_node10"><a xlink:href="../../d4/d54/Geo_8h.html" target="_top" xlink:title="TOFBase/Geo.h">
<polygon fill="none" stroke="#000000" points="1578.9652,-330 1578.9652,-349 1669.9652,-349 1669.9652,-330 1578.9652,-330"/>
<text text-anchor="middle" x="1624.4652" y="-337" font-family="Helvetica,sans-Serif" font-size="10.00" fill="#000000">TOFBase/Geo.h</text>
</a>
</g>
</g>
<!-- Node0&#45;&gt;Node9 -->
<g id="edge10" class="edge">
<title>Node0&#45;&gt;Node9</title>
<path fill="none" stroke="#191970" d="M1755.6951,-391.4322C1721.96,-378.0821 1684.4868,-363.2526 1658.2499,-352.8698"/>
<polygon fill="#191970" stroke="#191970" points="1659.3621,-349.5459 1648.7758,-349.1205 1656.7863,-356.0547 1659.3621,-349.5459"/>
</g>
<!-- Node7&#45;&gt;Node1 -->
<g id="edge8" class="edge">
<title>Node7&#45;&gt;Node1</title>
<path fill="none" stroke="#191970" d="M1750.3085,-257.3899C1749.7026,-221.9121 1746.7582,-130.6426 1732.4652,-56 1730.7623,-47.1068 1727.9891,-37.4916 1725.3582,-29.3628"/>
<polygon fill="#191970" stroke="#191970" points="1728.6131,-28.0625 1722.0838,-19.7186 1721.9847,-30.313 1728.6131,-28.0625"/>
</g>
<!-- Node9&#45;&gt;Node1 -->
<g id="edge11" class="edge">
<title>Node9&#45;&gt;Node1</title>
<path fill="none" stroke="#191970" d="M1627.4891,-329.9142C1637.9775,-296.5457 1673.5638,-182.3198 1699.4652,-87 1704.753,-67.5405 1710.2089,-45.1454 1713.9101,-29.5423"/>
<polygon fill="#191970" stroke="#191970" points="1717.3847,-30.0559 1716.2675,-19.5202 1710.5707,-28.4531 1717.3847,-30.0559"/>
</g>
<!-- Node10 -->
<g id="node11" class="node">
<title>Node10</title>
<g id="a_node11"><a xlink:href="../../d4/dc6/LHCConstants_8h.html" target="_top" xlink:title="Header to collect LHC related constants. ">
<polygon fill="none" stroke="#000000" points="1500.4652,-62 1500.4652,-81 1690.4652,-81 1690.4652,-62 1500.4652,-62"/>
<text text-anchor="middle" x="1595.4652" y="-69" font-family="Helvetica,sans-Serif" font-size="10.00" fill="#000000">CommonConstants/LHCConstants.h</text>
</a>
</g>
</g>
<!-- Node9&#45;&gt;Node10 -->
<g id="edge12" class="edge">
<title>Node9&#45;&gt;Node10</title>
<path fill="none" stroke="#191970" d="M1623.4331,-329.9617C1619.2406,-291.2174 1603.433,-145.1339 1597.624,-91.4499"/>
<polygon fill="#191970" stroke="#191970" points="1601.0708,-90.7694 1596.5153,-81.204 1594.1115,-91.5226 1601.0708,-90.7694"/>
</g>
<!-- Node11 -->
<g id="node12" class="node">
<title>Node11</title>
<g id="a_node12"><a xlink:href="../../d1/dec/HBFUtils_8h.html" target="_top" xlink:title="DetectorsRaw/HBFUtils.h">
<polygon fill="none" stroke="#000000" points="1063.9652,-263 1063.9652,-282 1202.9652,-282 1202.9652,-263 1063.9652,-263"/>
<text text-anchor="middle" x="1133.4652" y="-270" font-family="Helvetica,sans-Serif" font-size="10.00" fill="#000000">DetectorsRaw/HBFUtils.h</text>
</a>
</g>
</g>
<!-- Node9&#45;&gt;Node11 -->
<g id="edge13" class="edge">
<title>Node9&#45;&gt;Node11</title>
<path fill="none" stroke="#191970" d="M1578.714,-333.257C1495.1955,-321.8603 1317.0908,-297.5569 1213.23,-283.3844"/>
<polygon fill="#191970" stroke="#191970" points="1213.489,-279.8874 1203.1076,-282.0031 1212.5425,-286.8231 1213.489,-279.8874"/>
</g>
<!-- Node11&#45;&gt;Node1 -->
<g id="edge14" class="edge">
<title>Node11&#45;&gt;Node1</title>
<path fill="none" stroke="#191970" d="M1151.2744,-262.9282C1168.1546,-253.4318 1193.7848,-237.8882 1213.4652,-221 1250.6204,-189.1162 1316.1955,-78.909 1359.4652,-56 1387.281,-41.273 1591.4531,-21.4218 1678.8973,-13.4878"/>
<polygon fill="#191970" stroke="#191970" points="1679.3175,-16.9642 1688.9628,-12.5804 1678.689,-9.9925 1679.3175,-16.9642"/>
</g>
<!-- Node12 -->
<g id="node13" class="node">
<title>Node12</title>
<g id="a_node13"><a xlink:href="../../d6/dec/Raw_2include_2DetectorsRaw_2RDHUtils_8h.html" target="_top" xlink:title="DetectorsRaw/RDHUtils.h">
<polygon fill="none" stroke="#000000" points="1062.9652,-196 1062.9652,-215 1203.9652,-215 1203.9652,-196 1062.9652,-196"/>
<text text-anchor="middle" x="1133.4652" y="-203" font-family="Helvetica,sans-Serif" font-size="10.00" fill="#000000">DetectorsRaw/RDHUtils.h</text>
</a>
</g>
</g>
<!-- Node11&#45;&gt;Node12 -->
<g id="edge15" class="edge">
<title>Node11&#45;&gt;Node12</title>
<path fill="none" stroke="#191970" d="M1133.4652,-262.9005C1133.4652,-253.149 1133.4652,-237.7597 1133.4652,-225.3695"/>
<polygon fill="#191970" stroke="#191970" points="1136.9653,-225.0816 1133.4652,-215.0817 1129.9653,-225.0817 1136.9653,-225.0816"/>
</g>
<!-- Node22 -->
<g id="node23" class="node">
<title>Node22</title>
<g id="a_node23"><a xlink:href="../../d9/d80/InteractionRecord_8h.html" target="_top" xlink:title="CommonDataFormat/Interaction\lRecord.h">
<polygon fill="none" stroke="#000000" points="1313.4652,-123.5 1313.4652,-153.5 1487.4652,-153.5 1487.4652,-123.5 1313.4652,-123.5"/>
<text text-anchor="start" x="1321.4652" y="-141.5" font-family="Helvetica,sans-Serif" font-size="10.00" fill="#000000">CommonDataFormat/Interaction</text>
<text text-anchor="middle" x="1400.4652" y="-130.5" font-family="Helvetica,sans-Serif" font-size="10.00" fill="#000000">Record.h</text>
</a>
</g>
</g>
<!-- Node11&#45;&gt;Node22 -->
<g id="edge59" class="edge">
<title>Node11&#45;&gt;Node22</title>
<path fill="none" stroke="#191970" d="M1180.8088,-262.9329C1215.1018,-254.8057 1261.8502,-241.2024 1299.4652,-221 1329.4429,-204.8995 1359.033,-179.2687 1378.3584,-160.8471"/>
<polygon fill="#191970" stroke="#191970" points="1380.9974,-163.1633 1385.7358,-153.6871 1376.1222,-158.14 1380.9974,-163.1633"/>
</g>
<!-- Node34 -->
<g id="node35" class="node">
<title>Node34</title>
<g id="a_node35"><a xlink:href="../../db/d2c/ConfigurableParam_8h.html" target="_top" xlink:title="CommonUtils/Configurable\lParam.h">
<polygon fill="none" stroke="#000000" points="226.4652,-123.5 226.4652,-153.5 374.4652,-153.5 374.4652,-123.5 226.4652,-123.5"/>
<text text-anchor="start" x="234.4652" y="-141.5" font-family="Helvetica,sans-Serif" font-size="10.00" fill="#000000">CommonUtils/Configurable</text>
<text text-anchor="middle" x="300.4652" y="-130.5" font-family="Helvetica,sans-Serif" font-size="10.00" fill="#000000">Param.h</text>
</a>
</g>
</g>
<!-- Node11&#45;&gt;Node34 -->
<g id="edge46" class="edge">
<title>Node11&#45;&gt;Node34</title>
<path fill="none" stroke="#191970" d="M1063.9195,-270.8022C914.8582,-266.5801 569.0023,-253.5057 456.4652,-221 409.5832,-207.4584 360.6508,-178.8312 330.3675,-159.1323"/>
<polygon fill="#191970" stroke="#191970" points="332.2379,-156.1732 321.9646,-153.5828 328.3803,-162.0143 332.2379,-156.1732"/>
</g>
<!-- Node40 -->
<g id="node41" class="node">
<title>Node40</title>
<g id="a_node41"><a xlink:href="../../da/d6b/ConfigurableParamHelper_8h.html" target="_top" xlink:title="CommonUtils/Configurable\lParamHelper.h">
<polygon fill="none" stroke="#000000" points="465.4652,-190.5 465.4652,-220.5 613.4652,-220.5 613.4652,-190.5 465.4652,-190.5"/>
<text text-anchor="start" x="473.4652" y="-208.5" font-family="Helvetica,sans-Serif" font-size="10.00" fill="#000000">CommonUtils/Configurable</text>
<text text-anchor="middle" x="539.4652" y="-197.5" font-family="Helvetica,sans-Serif" font-size="10.00" fill="#000000">ParamHelper.h</text>
</a>
</g>
</g>
<!-- Node11&#45;&gt;Node40 -->
<g id="edge53" class="edge">
<title>Node11&#45;&gt;Node40</title>
<path fill="none" stroke="#191970" d="M1063.8715,-264.6502C954.3246,-252.2939 742.0097,-228.3459 623.9042,-215.0243"/>
<polygon fill="#191970" stroke="#191970" points="624.1517,-211.5301 613.8223,-213.8871 623.367,-218.486 624.1517,-211.5301"/>
</g>
<!-- Node43 -->
<g id="node44" class="node">
<title>Node43</title>
<g id="a_node44"><a xlink:href="../../de/da4/Triggers_8h.html" target="_top" xlink:title="Definition of the 32 Central Trigger System (CTS) Trigger Types defined in https://twiki.cern.ch/twiki/pub/ALICE/NoteForFEDevelopers/CTS_CRU_FE_interface.pdf. ">
<polygon fill="none" stroke="#000000" points="884.4652,-196 884.4652,-215 1044.4652,-215 1044.4652,-196 884.4652,-196"/>
<text text-anchor="middle" x="964.4652" y="-203" font-family="Helvetica,sans-Serif" font-size="10.00" fill="#000000">CommonConstants/Triggers.h</text>
</a>
</g>
</g>
<!-- Node11&#45;&gt;Node43 -->
<g id="edge60" class="edge">
<title>Node11&#45;&gt;Node43</title>
<path fill="none" stroke="#191970" d="M1109.2516,-262.9005C1080.1366,-251.3579 1031.0974,-231.9163 998.2634,-218.8993"/>
<polygon fill="#191970" stroke="#191970" points="999.2199,-215.5135 988.6339,-215.0817 996.64,-222.0208 999.2199,-215.5135"/>
</g>
<!-- Node13 -->
<g id="node14" class="node">
<title>Node13</title>
<g id="a_node14"><a xlink:href="../../df/d21/GPUCommonDef_8h.html" target="_top" xlink:title="GPUCommonDef.h">
<polygon fill="none" stroke="#000000" points="634.9652,-62 634.9652,-81 741.9652,-81 741.9652,-62 634.9652,-62"/>
<text text-anchor="middle" x="688.4652" y="-69" font-family="Helvetica,sans-Serif" font-size="10.00" fill="#000000">GPUCommonDef.h</text>
</a>
</g>
</g>
<!-- Node12&#45;&gt;Node13 -->
<g id="edge16" class="edge">
<title>Node12&#45;&gt;Node13</title>
<path fill="none" stroke="#191970" d="M1087.8938,-195.9539C1076.6706,-193.8011 1064.66,-191.6636 1053.4652,-190 977.0009,-178.637 765.3755,-205.2084 707.4652,-154 689.8854,-138.4547 686.8434,-110.2088 687.0435,-91.1517"/>
<polygon fill="#191970" stroke="#191970" points="690.5406,-91.2926 687.4505,-81.1584 683.5464,-91.0077 690.5406,-91.2926"/>
</g>
<!-- Node16 -->
<g id="node17" class="node">
<title>Node16</title>
<g id="a_node17"><a xlink:href="../../d2/d45/GPUCommonRtypes_8h.html" target="_top" xlink:title="GPUCommonRtypes.h">
<polygon fill="none" stroke="#000000" points="1185.9652,-62 1185.9652,-81 1310.9652,-81 1310.9652,-62 1185.9652,-62"/>
<text text-anchor="middle" x="1248.4652" y="-69" font-family="Helvetica,sans-Serif" font-size="10.00" fill="#000000">GPUCommonRtypes.h</text>
</a>
</g>
</g>
<!-- Node12&#45;&gt;Node16 -->
<g id="edge19" class="edge">
<title>Node12&#45;&gt;Node16</title>
<path fill="none" stroke="#191970" d="M1141.7357,-195.8631C1160.9649,-173.4569 1208.9074,-117.5934 1233.4589,-88.9857"/>
<polygon fill="#191970" stroke="#191970" points="1236.413,-90.9176 1240.2696,-81.0496 1231.101,-86.3588 1236.413,-90.9176"/>
</g>
<!-- Node17 -->
<g id="node18" class="node">
<title>Node17</title>
<g id="a_node18"><a xlink:href="../../d4/d78/DataFormats_2Headers_2include_2Headers_2RAWDataHeader_8h.html" target="_top" xlink:title="Headers/RAWDataHeader.h">
<polygon fill="none" stroke="#000000" points="797.9652,-62 797.9652,-81 946.9652,-81 946.9652,-62 797.9652,-62"/>
<text text-anchor="middle" x="872.4652" y="-69" font-family="Helvetica,sans-Serif" font-size="10.00" fill="#000000">Headers/RAWDataHeader.h</text>
</a>
</g>
</g>
<!-- Node12&#45;&gt;Node17 -->
<g id="edge21" class="edge">
<title>Node12&#45;&gt;Node17</title>
<path fill="none" stroke="#191970" d="M1114.6947,-195.8631C1069.3599,-172.5877 953.7041,-113.2088 900.2849,-85.7829"/>
<polygon fill="#191970" stroke="#191970" points="901.5602,-82.5034 891.0656,-81.0496 898.3631,-88.7306 901.5602,-82.5034"/>
</g>
<!-- Node19 -->
<g id="node20" class="node">
<title>Node19</title>
<g id="a_node20"><a xlink:href="../../d6/d89/RDHAny_8h.html" target="_top" xlink:title="Headers/RDHAny.h">
<polygon fill="none" stroke="#000000" points="716.4652,-129 716.4652,-148 824.4652,-148 824.4652,-129 716.4652,-129"/>
<text text-anchor="middle" x="770.4652" y="-136" font-family="Helvetica,sans-Serif" font-size="10.00" fill="#000000">Headers/RDHAny.h</text>
</a>
</g>
</g>
<!-- Node12&#45;&gt;Node19 -->
<g id="edge23" class="edge">
<title>Node12&#45;&gt;Node19</title>
<path fill="none" stroke="#191970" d="M1084.8305,-195.9853C1074.4815,-193.9864 1063.6151,-191.9067 1053.4652,-190 977.9956,-175.8224 891.0859,-160.096 833.7076,-149.7965"/>
<polygon fill="#191970" stroke="#191970" points="834.1615,-146.3221 823.7006,-148.0015 832.9255,-153.2122 834.1615,-146.3221"/>
</g>
<!-- Node12&#45;&gt;Node22 -->
<g id="edge28" class="edge">
<title>Node12&#45;&gt;Node22</title>
<path fill="none" stroke="#191970" d="M1171.4362,-195.9717C1212.7384,-185.6075 1279.6583,-168.8148 1330.5222,-156.0512"/>
<polygon fill="#191970" stroke="#191970" points="1331.6211,-159.3841 1340.4685,-153.5553 1329.9173,-152.5946 1331.6211,-159.3841"/>
</g>
<!-- Node25 -->
<g id="node26" class="node">
<title>Node25</title>
<g id="a_node26"><a xlink:href="../../d7/d34/DAQID_8h.html" target="_top" xlink:title="Headers/DAQID.h">
<polygon fill="none" stroke="#000000" points="1063.9652,-129 1063.9652,-148 1164.9652,-148 1164.9652,-129 1063.9652,-129"/>
<text text-anchor="middle" x="1114.4652" y="-136" font-family="Helvetica,sans-Serif" font-size="10.00" fill="#000000">Headers/DAQID.h</text>
</a>
</g>
</g>
<!-- Node12&#45;&gt;Node25 -->
<g id="edge34" class="edge">
<title>Node12&#45;&gt;Node25</title>
<path fill="none" stroke="#191970" d="M1130.743,-195.9005C1127.9494,-186.0495 1123.5242,-170.4451 1119.9925,-157.9912"/>
<polygon fill="#191970" stroke="#191970" points="1123.2779,-156.7474 1117.1824,-148.0817 1116.5435,-158.6572 1123.2779,-156.7474"/>
</g>
<!-- Node14 -->
<g id="node15" class="node">
<title>Node14</title>
<g id="a_node15"><a xlink:href="../../d5/d93/GPUCommonDefSettings_8h.html" target="_top" xlink:title="GPUCommonDefSettings.h">
<polygon fill="none" stroke="#000000" points="460.4652,-.5 460.4652,-19.5 608.4652,-19.5 608.4652,-.5 460.4652,-.5"/>
<text text-anchor="middle" x="534.4652" y="-7.5" font-family="Helvetica,sans-Serif" font-size="10.00" fill="#000000">GPUCommonDefSettings.h</text>
</a>
</g>
</g>
<!-- Node13&#45;&gt;Node14 -->
<g id="edge17" class="edge">
<title>Node13&#45;&gt;Node14</title>
<path fill="none" stroke="#191970" d="M664.4027,-61.8906C638.4096,-51.5103 596.8174,-34.9004 567.7105,-23.2766"/>
<polygon fill="#191970" stroke="#191970" points="568.9437,-20.0003 558.3587,-19.5419 566.3475,-26.5011 568.9437,-20.0003"/>
</g>
<!-- Node15 -->
<g id="node16" class="node">
<title>Node15</title>
<g id="a_node16"><a xlink:href="../../da/d5a/GPUCommonDefAPI_8h.html" target="_top" xlink:title="GPUCommonDefAPI.h">
<polygon fill="none" stroke="#000000" points="626.4652,-.5 626.4652,-19.5 750.4652,-19.5 750.4652,-.5 626.4652,-.5"/>
<text text-anchor="middle" x="688.4652" y="-7.5" font-family="Helvetica,sans-Serif" font-size="10.00" fill="#000000">GPUCommonDefAPI.h</text>
</a>
</g>
</g>
<!-- Node13&#45;&gt;Node15 -->
<g id="edge18" class="edge">
<title>Node13&#45;&gt;Node15</title>
<path fill="none" stroke="#191970" d="M688.4652,-61.8906C688.4652,-53.3657 688.4652,-40.6392 688.4652,-29.9235"/>
<polygon fill="#191970" stroke="#191970" points="691.9653,-29.7448 688.4652,-19.7449 684.9653,-29.7449 691.9653,-29.7448"/>
</g>
<!-- Node16&#45;&gt;Node1 -->
<g id="edge20" class="edge">
<title>Node16&#45;&gt;Node1</title>
<path fill="none" stroke="#191970" d="M1292.7348,-61.9416C1303.4206,-59.8138 1314.8261,-57.6905 1325.4652,-56 1453.8821,-35.5947 1607.25,-20.2163 1678.4672,-13.5867"/>
<polygon fill="#191970" stroke="#191970" points="1679.1352,-17.04 1688.771,-12.6353 1678.4916,-10.0696 1679.1352,-17.04"/>
</g>
<!-- Node18 -->
<g id="node19" class="node">
<title>Node18</title>
<polygon fill="none" stroke="#bfbfbf" points="914.4652,-.5 914.4652,-19.5 964.4652,-19.5 964.4652,-.5 914.4652,-.5"/>
<text text-anchor="middle" x="939.4652" y="-7.5" font-family="Helvetica,sans-Serif" font-size="10.00" fill="#000000">cstdint</text>
</g>
<!-- Node17&#45;&gt;Node18 -->
<g id="edge22" class="edge">
<title>Node17&#45;&gt;Node18</title>
<path fill="none" stroke="#191970" d="M882.9339,-61.8906C893.1989,-52.4683 909.0555,-37.9134 921.3658,-26.6137"/>
<polygon fill="#191970" stroke="#191970" points="923.8486,-29.0856 928.8488,-19.7449 919.1151,-23.9287 923.8486,-29.0856"/>
</g>
<!-- Node19&#45;&gt;Node13 -->
<g id="edge24" class="edge">
<title>Node19&#45;&gt;Node13</title>
<path fill="none" stroke="#191970" d="M758.7166,-128.9005C745.5641,-118.1539 724.0316,-100.5603 708.2669,-87.6794"/>
<polygon fill="#191970" stroke="#191970" points="710.1504,-84.6986 700.192,-81.0817 705.7213,-90.1193 710.1504,-84.6986"/>
</g>
<!-- Node19&#45;&gt;Node17 -->
<g id="edge25" class="edge">
<title>Node19&#45;&gt;Node17</title>
<path fill="none" stroke="#191970" d="M785.0793,-128.9005C801.8942,-117.8554 829.7201,-99.5776 849.451,-86.6172"/>
<polygon fill="#191970" stroke="#191970" points="851.4416,-89.4972 857.8782,-81.0817 847.5985,-83.6465 851.4416,-89.4972"/>
</g>
<!-- Node20 -->
<g id="node21" class="node">
<title>Node20</title>
<polygon fill="none" stroke="#bfbfbf" points="547.9652,-62 547.9652,-81 616.9652,-81 616.9652,-62 547.9652,-62"/>
<text text-anchor="middle" x="582.4652" y="-69" font-family="Helvetica,sans-Serif" font-size="10.00" fill="#000000">type_traits</text>
</g>
<!-- Node19&#45;&gt;Node20 -->
<g id="edge26" class="edge">
<title>Node19&#45;&gt;Node20</title>
<path fill="none" stroke="#191970" d="M743.5294,-128.9005C710.8619,-117.2584 655.6464,-97.5805 619.1227,-84.5641"/>
<polygon fill="#191970" stroke="#191970" points="619.9457,-81.1418 609.351,-81.0817 617.5958,-87.7356 619.9457,-81.1418"/>
</g>
<!-- Node21 -->
<g id="node22" class="node">
<title>Node21</title>
<polygon fill="none" stroke="#bfbfbf" points="830.9652,-.5 830.9652,-19.5 895.9652,-19.5 895.9652,-.5 830.9652,-.5"/>
<text text-anchor="middle" x="863.4652" y="-7.5" font-family="Helvetica,sans-Serif" font-size="10.00" fill="#000000">stdexcept</text>
</g>
<!-- Node19&#45;&gt;Node21 -->
<g id="edge27" class="edge">
<title>Node19&#45;&gt;Node21</title>
<path fill="none" stroke="#191970" d="M770.374,-128.8882C770.6832,-112.4359 773.399,-78.4811 789.4652,-56 799.3498,-42.1687 814.8168,-31.6162 829.0601,-24.1292"/>
<polygon fill="#191970" stroke="#191970" points="830.7431,-27.202 838.1722,-19.6483 827.654,-20.9204 830.7431,-27.202"/>
</g>
<!-- Node22&#45;&gt;Node10 -->
<g id="edge33" class="edge">
<title>Node22&#45;&gt;Node10</title>
<path fill="none" stroke="#191970" d="M1444.227,-123.4639C1478.5211,-111.6808 1525.7143,-95.4657 1558.216,-84.2984"/>
<polygon fill="#191970" stroke="#191970" points="1559.4806,-87.5649 1567.8006,-81.0053 1557.2059,-80.9447 1559.4806,-87.5649"/>
</g>
<!-- Node22&#45;&gt;Node16 -->
<g id="edge29" class="edge">
<title>Node22&#45;&gt;Node16</title>
<path fill="none" stroke="#191970" d="M1366.3534,-123.4639C1340.3903,-112.0196 1304.9422,-96.3945 1279.7137,-85.274"/>
<polygon fill="#191970" stroke="#191970" points="1280.8154,-81.9347 1270.2532,-81.1039 1277.992,-88.3401 1280.8154,-81.9347"/>
</g>
<!-- Node22&#45;&gt;Node18 -->
<g id="edge32" class="edge">
<title>Node22&#45;&gt;Node18</title>
<path fill="none" stroke="#191970" d="M1313.3243,-131.8173C1220.8031,-123.7522 1081.3106,-108.5382 1032.4652,-87 1015.8102,-79.656 978.9511,-46.8384 956.9663,-26.49"/>
<polygon fill="#191970" stroke="#191970" points="959.3059,-23.8861 949.6045,-19.6277 954.5328,-29.0065 959.3059,-23.8861"/>
</g>
<!-- Node23 -->
<g id="node24" class="node">
<title>Node23</title>
<polygon fill="none" stroke="#bfbfbf" points="1367.9652,-62 1367.9652,-81 1416.9652,-81 1416.9652,-62 1367.9652,-62"/>
<text text-anchor="middle" x="1392.4652" y="-69" font-family="Helvetica,sans-Serif" font-size="10.00" fill="#000000">iosfwd</text>
</g>
<!-- Node22&#45;&gt;Node23 -->
<g id="edge30" class="edge">
<title>Node22&#45;&gt;Node23</title>
<path fill="none" stroke="#191970" d="M1398.6499,-123.2967C1397.5124,-113.7699 1396.0348,-101.3954 1394.8092,-91.1306"/>
<polygon fill="#191970" stroke="#191970" points="1398.2671,-90.5694 1393.6061,-81.055 1391.3165,-91.3994 1398.2671,-90.5694"/>
</g>
<!-- Node24 -->
<g id="node25" class="node">
<title>Node24</title>
<polygon fill="none" stroke="#bfbfbf" points="1434.9652,-62 1434.9652,-81 1481.9652,-81 1481.9652,-62 1434.9652,-62"/>
<text text-anchor="middle" x="1458.4652" y="-69" font-family="Helvetica,sans-Serif" font-size="10.00" fill="#000000">cmath</text>
</g>
<!-- Node22&#45;&gt;Node24 -->
<g id="edge31" class="edge">
<title>Node22&#45;&gt;Node24</title>
<path fill="none" stroke="#191970" d="M1413.6263,-123.2967C1422.4875,-113.0605 1434.1947,-99.5366 1443.4245,-88.8746"/>
<polygon fill="#191970" stroke="#191970" points="1446.2949,-90.9064 1450.1937,-81.055 1441.0025,-86.3248 1446.2949,-90.9064"/>
</g>
<!-- Node26 -->
<g id="node27" class="node">
<title>Node26</title>
<g id="a_node27"><a xlink:href="../../dc/dcd/DataHeader_8h.html" target="_top" xlink:title="Headers/DataHeader.h">
<polygon fill="none" stroke="#000000" points="1040.9652,-62 1040.9652,-81 1167.9652,-81 1167.9652,-62 1040.9652,-62"/>
<text text-anchor="middle" x="1104.4652" y="-69" font-family="Helvetica,sans-Serif" font-size="10.00" fill="#000000">Headers/DataHeader.h</text>
</a>
</g>
</g>
<!-- Node25&#45;&gt;Node26 -->
<g id="edge35" class="edge">
<title>Node25&#45;&gt;Node26</title>
<path fill="none" stroke="#191970" d="M1113.0324,-128.9005C1111.5621,-119.0495 1109.2331,-103.4451 1107.3743,-90.9912"/>
<polygon fill="#191970" stroke="#191970" points="1110.8332,-90.4554 1105.8953,-81.0817 1103.9099,-91.4888 1110.8332,-90.4554"/>
</g>
<!-- Node26&#45;&gt;Node4 -->
<g id="edge42" class="edge">
<title>Node26&#45;&gt;Node4</title>
<path fill="none" stroke="#191970" d="M1040.7148,-62.1392C983.2488,-53.1618 896.6375,-38.2896 822.4652,-20 822.3663,-19.9756 822.2673,-19.9511 822.1681,-19.9264"/>
<polygon fill="#191970" stroke="#191970" points="823.3161,-16.6121 812.7466,-17.3449 821.4662,-23.3632 823.3161,-16.6121"/>
</g>
<!-- Node26&#45;&gt;Node18 -->
<g id="edge36" class="edge">
<title>Node26&#45;&gt;Node18</title>
<path fill="none" stroke="#191970" d="M1078.6839,-61.8906C1050.5496,-51.4042 1005.3584,-34.5602 974.1332,-22.9217"/>
<polygon fill="#191970" stroke="#191970" points="975.1178,-19.5535 964.5251,-19.3405 972.673,-26.1127 975.1178,-19.5535"/>
</g>
<!-- Node26&#45;&gt;Node21 -->
<g id="edge41" class="edge">
<title>Node26&#45;&gt;Node21</title>
<path fill="none" stroke="#191970" d="M1067.0734,-61.9581C1023.5612,-50.8544 951.8605,-32.5573 906.1884,-20.9024"/>
<polygon fill="#191970" stroke="#191970" points="906.8508,-17.4593 896.2959,-18.378 905.1199,-24.242 906.8508,-17.4593"/>
</g>
<!-- Node27 -->
<g id="node28" class="node">
<title>Node27</title>
<polygon fill="none" stroke="#bfbfbf" points="1430.4652,-.5 1430.4652,-19.5 1488.4652,-19.5 1488.4652,-.5 1430.4652,-.5"/>
<text text-anchor="middle" x="1459.4652" y="-7.5" font-family="Helvetica,sans-Serif" font-size="10.00" fill="#000000">memory</text>
</g>
<!-- Node26&#45;&gt;Node27 -->
<g id="edge37" class="edge">
<title>Node26&#45;&gt;Node27</title>
<path fill="none" stroke="#191970" d="M1147.2238,-61.952C1157.1299,-59.8705 1167.6463,-57.765 1177.4652,-56 1282.1937,-37.1748 1312.3228,-41.6886 1420.107,-20.1034"/>
<polygon fill="#191970" stroke="#191970" points="1420.9798,-23.4976 1430.0825,-18.0763 1419.5858,-16.6378 1420.9798,-23.4976"/>
</g>
<!-- Node28 -->
<g id="node29" class="node">
<title>Node28</title>
<polygon fill="none" stroke="#bfbfbf" points="1506.4652,-.5 1506.4652,-19.5 1558.4652,-19.5 1558.4652,-.5 1506.4652,-.5"/>
<text text-anchor="middle" x="1532.4652" y="-7.5" font-family="Helvetica,sans-Serif" font-size="10.00" fill="#000000">cassert</text>
</g>
<!-- Node26&#45;&gt;Node28 -->
<g id="edge38" class="edge">
<title>Node26&#45;&gt;Node28</title>
<path fill="none" stroke="#191970" d="M1146.0261,-61.9456C1156.268,-59.793 1167.2337,-57.6577 1177.4652,-56 1315.5691,-33.6243 1355.2894,-47.1159 1496.3219,-19.9474"/>
<polygon fill="#191970" stroke="#191970" points="1497.0666,-23.3681 1506.2063,-18.0094 1495.7197,-16.4989 1497.0666,-23.3681"/>
</g>
<!-- Node29 -->
<g id="node30" class="node">
<title>Node29</title>
<polygon fill="none" stroke="#bfbfbf" points="982.4652,-.5 982.4652,-19.5 1032.4652,-19.5 1032.4652,-.5 982.4652,-.5"/>
<text text-anchor="middle" x="1007.4652" y="-7.5" font-family="Helvetica,sans-Serif" font-size="10.00" fill="#000000">cstring</text>
</g>
<!-- Node26&#45;&gt;Node29 -->
<g id="edge39" class="edge">
<title>Node26&#45;&gt;Node29</title>
<path fill="none" stroke="#191970" d="M1089.3089,-61.8906C1073.7909,-52.0519 1049.4459,-36.6167 1031.3368,-25.1351"/>
<polygon fill="#191970" stroke="#191970" points="1032.8347,-21.9407 1022.515,-19.5419 1029.0865,-27.8526 1032.8347,-21.9407"/>
</g>
<!-- Node30 -->
<g id="node31" class="node">
<title>Node30</title>
<polygon fill="none" stroke="#bfbfbf" points="1050.4652,-.5 1050.4652,-19.5 1114.4652,-19.5 1114.4652,-.5 1050.4652,-.5"/>
<text text-anchor="middle" x="1082.4652" y="-7.5" font-family="Helvetica,sans-Serif" font-size="10.00" fill="#000000">algorithm</text>
</g>
<!-- Node26&#45;&gt;Node30 -->
<g id="edge40" class="edge">
<title>Node26&#45;&gt;Node30</title>
<path fill="none" stroke="#191970" d="M1101.0277,-61.8906C1097.9139,-53.1862 1093.2332,-40.1015 1089.3512,-29.2494"/>
<polygon fill="#191970" stroke="#191970" points="1092.6149,-27.9817 1085.9512,-19.7449 1086.024,-30.3394 1092.6149,-27.9817"/>
</g>
<!-- Node31 -->
<g id="node32" class="node">
<title>Node31</title>
<polygon fill="none" stroke="#bfbfbf" points="1132.4652,-.5 1132.4652,-19.5 1182.4652,-19.5 1182.4652,-.5 1132.4652,-.5"/>
<text text-anchor="middle" x="1157.4652" y="-7.5" font-family="Helvetica,sans-Serif" font-size="10.00" fill="#000000">climits</text>
</g>
<!-- Node26&#45;&gt;Node31 -->
<g id="edge43" class="edge">
<title>Node26&#45;&gt;Node31</title>
<path fill="none" stroke="#191970" d="M1112.7464,-61.8906C1120.6345,-52.7376 1132.6966,-38.7409 1142.3064,-27.59"/>
<polygon fill="#191970" stroke="#191970" points="1145.1903,-29.6049 1149.0672,-19.7449 1139.8877,-25.0352 1145.1903,-29.6049"/>
</g>
<!-- Node32 -->
<g id="node33" class="node">
<title>Node32</title>
<g id="a_node33"><a xlink:href="../../d7/df8/Types_8h.html" target="_top" xlink:title="MemoryResources/Types.h">
<polygon fill="none" stroke="#000000" points="1200.4652,-.5 1200.4652,-19.5 1346.4652,-19.5 1346.4652,-.5 1200.4652,-.5"/>
<text text-anchor="middle" x="1273.4652" y="-7.5" font-family="Helvetica,sans-Serif" font-size="10.00" fill="#000000">MemoryResources/Types.h</text>
</a>
</g>
</g>
<!-- Node26&#45;&gt;Node32 -->
<g id="edge44" class="edge">
<title>Node26&#45;&gt;Node32</title>
<path fill="none" stroke="#191970" d="M1130.8714,-61.8906C1159.6443,-51.42 1205.8348,-34.6111 1237.8118,-22.9745"/>
<polygon fill="#191970" stroke="#191970" points="1239.0442,-26.2506 1247.2444,-19.5419 1236.6503,-19.6726 1239.0442,-26.2506"/>
</g>
<!-- Node33 -->
<g id="node34" class="node">
<title>Node33</title>
<polygon fill="none" stroke="#bfbfbf" points="1364.9652,-.5 1364.9652,-19.5 1411.9652,-19.5 1411.9652,-.5 1364.9652,-.5"/>
<text text-anchor="middle" x="1388.4652" y="-7.5" font-family="Helvetica,sans-Serif" font-size="10.00" fill="#000000">cerrno</text>
</g>
<!-- Node26&#45;&gt;Node33 -->
<g id="edge45" class="edge">
<title>Node26&#45;&gt;Node33</title>
<path fill="none" stroke="#191970" d="M1149.2337,-61.9229C1158.5603,-59.9478 1168.3309,-57.8934 1177.4652,-56 1253.4108,-40.2578 1275.4935,-39.7425 1354.7863,-19.9874"/>
<polygon fill="#191970" stroke="#191970" points="1355.9038,-23.3153 1364.7472,-17.4805 1354.1954,-16.527 1355.9038,-23.3153"/>
</g>
<!-- Node34&#45;&gt;Node3 -->
<g id="edge47" class="edge">
<title>Node34&#45;&gt;Node3</title>
<path fill="none" stroke="#191970" d="M226.4535,-124.4498C184.9921,-115.6278 132.6865,-102.9035 87.4652,-87 85.8231,-86.4225 84.153,-85.7902 82.4799,-85.1216"/>
<polygon fill="#191970" stroke="#191970" points="83.6046,-81.7943 73.0378,-81.0229 80.8172,-88.2154 83.6046,-81.7943"/>
</g>
<!-- Node35 -->
<g id="node36" class="node">
<title>Node35</title>
<polygon fill="none" stroke="#bfbfbf" points="96.4652,-62 96.4652,-81 134.4652,-81 134.4652,-62 96.4652,-62"/>
<text text-anchor="middle" x="115.4652" y="-69" font-family="Helvetica,sans-Serif" font-size="10.00" fill="#000000">map</text>
</g>
<!-- Node34&#45;&gt;Node35 -->
<g id="edge48" class="edge">
<title>Node34&#45;&gt;Node35</title>
<path fill="none" stroke="#191970" d="M246.1198,-123.4341C215.4522,-114.252 176.7269,-101.507 143.4652,-87 142.4721,-86.5669 141.4678,-86.1098 140.4598,-85.6349"/>
<polygon fill="#191970" stroke="#191970" points="141.9864,-82.4845 131.4895,-81.0472 138.799,-88.7167 141.9864,-82.4845"/>
</g>
<!-- Node36 -->
<g id="node37" class="node">
<title>Node36</title>
<polygon fill="none" stroke="#bfbfbf" points="230.9652,-62 230.9652,-81 323.9652,-81 323.9652,-62 230.9652,-62"/>
<text text-anchor="middle" x="277.4652" y="-69" font-family="Helvetica,sans-Serif" font-size="10.00" fill="#000000">unordered_map</text>
</g>
<!-- Node34&#45;&gt;Node36 -->
<g id="edge49" class="edge">
<title>Node34&#45;&gt;Node36</title>
<path fill="none" stroke="#191970" d="M295.2461,-123.2967C291.941,-113.6685 287.6373,-101.1318 284.0919,-90.8038"/>
<polygon fill="#191970" stroke="#191970" points="287.3026,-89.3768 280.7453,-81.055 280.6818,-91.6496 287.3026,-89.3768"/>
</g>
<!-- Node37 -->
<g id="node38" class="node">
<title>Node37</title>
<polygon fill="none" stroke="#bfbfbf" points="341.9652,-56.5 341.9652,-86.5 454.9652,-86.5 454.9652,-56.5 341.9652,-56.5"/>
<text text-anchor="start" x="349.9652" y="-74.5" font-family="Helvetica,sans-Serif" font-size="10.00" fill="#000000">boost/property_tree</text>
<text text-anchor="middle" x="398.4652" y="-63.5" font-family="Helvetica,sans-Serif" font-size="10.00" fill="#000000">/ptree.hpp</text>
</g>
<!-- Node34&#45;&gt;Node37 -->
<g id="edge50" class="edge">
<title>Node34&#45;&gt;Node37</title>
<path fill="none" stroke="#191970" d="M322.7029,-123.2967C336.1099,-114.1306 353.3728,-102.3285 368.0332,-92.3055"/>
<polygon fill="#191970" stroke="#191970" points="370.0357,-95.1763 376.3155,-86.6432 366.085,-89.3977 370.0357,-95.1763"/>
</g>
<!-- Node38 -->
<g id="node39" class="node">
<title>Node38</title>
<polygon fill="none" stroke="#bfbfbf" points="472.9652,-62 472.9652,-81 529.9652,-81 529.9652,-62 472.9652,-62"/>
<text text-anchor="middle" x="501.4652" y="-69" font-family="Helvetica,sans-Serif" font-size="10.00" fill="#000000">typeinfo</text>
</g>
<!-- Node34&#45;&gt;Node38 -->
<g id="edge51" class="edge">
<title>Node34&#45;&gt;Node38</title>
<path fill="none" stroke="#191970" d="M351.8475,-123.4353C384.1163,-113.6867 426.4817,-100.3602 463.4652,-87 465.3248,-86.3282 467.2277,-85.62 469.1427,-84.891"/>
<polygon fill="#191970" stroke="#191970" points="470.646,-88.0609 478.6741,-81.1471 468.0867,-81.5455 470.646,-88.0609"/>
</g>
<!-- Node39 -->
<g id="node40" class="node">
<title>Node39</title>
<polygon fill="none" stroke="#bfbfbf" points="152.4652,-62 152.4652,-81 212.4652,-81 212.4652,-62 152.4652,-62"/>
<text text-anchor="middle" x="182.4652" y="-69" font-family="Helvetica,sans-Serif" font-size="10.00" fill="#000000">iostream</text>
</g>
<!-- Node34&#45;&gt;Node39 -->
<g id="edge52" class="edge">
<title>Node34&#45;&gt;Node39</title>
<path fill="none" stroke="#191970" d="M273.9837,-123.4639C254.3632,-112.3234 227.7652,-97.2212 208.3002,-86.1691"/>
<polygon fill="#191970" stroke="#191970" points="209.8037,-82.9979 199.3796,-81.1039 206.3474,-89.0851 209.8037,-82.9979"/>
</g>
<!-- Node40&#45;&gt;Node20 -->
<g id="edge56" class="edge">
<title>Node40&#45;&gt;Node20</title>
<path fill="none" stroke="#191970" d="M571.1073,-190.4839C585.281,-181.9409 600.5587,-169.7673 608.4652,-154 619.0295,-132.9325 606.87,-106.6906 595.8776,-89.536"/>
<polygon fill="#191970" stroke="#191970" points="598.5859,-87.2969 590.0424,-81.0311 592.8139,-91.2571 598.5859,-87.2969"/>
</g>
<!-- Node40&#45;&gt;Node34 -->
<g id="edge54" class="edge">
<title>Node40&#45;&gt;Node34</title>
<path fill="none" stroke="#191970" d="M485.8289,-190.4639C449.8227,-180.3701 402.215,-167.024 364.2632,-156.3848"/>
<polygon fill="#191970" stroke="#191970" points="364.909,-152.931 354.3354,-153.6017 363.0194,-159.6711 364.909,-152.931"/>
</g>
<!-- Node40&#45;&gt;Node38 -->
<g id="edge57" class="edge">
<title>Node40&#45;&gt;Node38</title>
<path fill="none" stroke="#191970" d="M505.2759,-190.4711C490.5094,-182.045 474.7446,-169.9734 466.4652,-154 455.2467,-132.3564 470.8727,-106.3012 484.6848,-89.3428"/>
<polygon fill="#191970" stroke="#191970" points="487.6857,-91.2244 491.5906,-81.3754 482.3961,-86.6396 487.6857,-91.2244"/>
</g>
<!-- Node41 -->
<g id="node42" class="node">
<title>Node41</title>
<polygon fill="none" stroke="#bfbfbf" points="475.9652,-129 475.9652,-148 532.9652,-148 532.9652,-129 475.9652,-129"/>
<text text-anchor="middle" x="504.4652" y="-136" font-family="Helvetica,sans-Serif" font-size="10.00" fill="#000000">TClass.h</text>
</g>
<!-- Node40&#45;&gt;Node41 -->
<g id="edge55" class="edge">
<title>Node40&#45;&gt;Node41</title>
<path fill="none" stroke="#191970" d="M531.5232,-190.2967C526.3877,-180.4658 519.6681,-167.6026 514.2101,-157.1545"/>
<polygon fill="#191970" stroke="#191970" points="517.1891,-155.2979 509.4566,-148.055 510.9846,-158.5391 517.1891,-155.2979"/>
</g>
<!-- Node42 -->
<g id="node43" class="node">
<title>Node42</title>
<polygon fill="none" stroke="#bfbfbf" points="551.4652,-129 551.4652,-148 599.4652,-148 599.4652,-129 551.4652,-129"/>
<text text-anchor="middle" x="575.4652" y="-136" font-family="Helvetica,sans-Serif" font-size="10.00" fill="#000000">TFile.h</text>
</g>
<!-- Node40&#45;&gt;Node42 -->
<g id="edge58" class="edge">
<title>Node40&#45;&gt;Node42</title>
<path fill="none" stroke="#191970" d="M547.6342,-190.2967C552.9164,-180.4658 559.828,-167.6026 565.4419,-157.1545"/>
<polygon fill="#191970" stroke="#191970" points="568.6811,-158.5205 570.3312,-148.055 562.5148,-155.2073 568.6811,-158.5205"/>
</g>
<!-- Node43&#45;&gt;Node18 -->
<g id="edge61" class="edge">
<title>Node43&#45;&gt;Node18</title>
<path fill="none" stroke="#191970" d="M964.9369,-195.9284C965.9035,-172.0293 967.1931,-107.9271 956.4652,-56 954.5757,-46.8543 951.1845,-37.101 947.9253,-28.9398"/>
<polygon fill="#191970" stroke="#191970" points="951.1043,-27.4707 943.9905,-19.6193 944.6554,-30.1932 951.1043,-27.4707"/>
</g>
</g>
</svg>
        <g id="navigator" transform="translate(0 0)" fill="#404254">
                <rect fill="#f2f5e9" fill-opacity="0.5" stroke="#606060" stroke-width=".5" x="0" y="0" width="60" height="60"/>
                <use id="zoomplus" xlink:href="#zoomPlus" x="17" y="9" onmousedown="handleZoom(evt,'in')"/>
                <use id="zoomminus" xlink:href="#zoomMin" x="42" y="9" onmousedown="handleZoom(evt,'out')"/>
                <use id="reset" xlink:href="#resetDef" x="30" y="36" onmousedown="handleReset()"/>
                <g id="arrowUp" xlink:href="#dirArrow" transform="translate(30 24)" onmousedown="handlePan(0,-1)">
                  <use xlink:href="#rim" fill="#404040">
                        <set attributeName="fill" to="#808080" begin="arrowUp.mouseover" end="arrowUp.mouseout"/>
                  </use>
                  <path fill="none" stroke="white" stroke-width="1.5" d="M0,-3.0v7 M-2.5,-0.5L0,-3.0L2.5,-0.5"/>
                </g>
                <g id="arrowRight" xlink:href="#dirArrow" transform="rotate(90) translate(36 -43)" onmousedown="handlePan(1,0)">
                  <use xlink:href="#rim" fill="#404040">
                        <set attributeName="fill" to="#808080" begin="arrowRight.mouseover" end="arrowRight.mouseout"/>
                  </use>
                  <path fill="none" stroke="white" stroke-width="1.5" d="M0,-3.0v7 M-2.5,-0.5L0,-3.0L2.5,-0.5"/>
                </g>
                <g id="arrowDown" xlink:href="#dirArrow" transform="rotate(180) translate(-30 -48)" onmousedown="handlePan(0,1)">
                  <use xlink:href="#rim" fill="#404040">
                        <set attributeName="fill" to="#808080" begin="arrowDown.mouseover" end="arrowDown.mouseout"/>
                  </use>
                  <path fill="none" stroke="white" stroke-width="1.5" d="M0,-3.0v7 M-2.5,-0.5L0,-3.0L2.5,-0.5"/>
                </g>
                <g id="arrowLeft" xlink:href="#dirArrow" transform="rotate(270) translate(-36 17)" onmousedown="handlePan(-1,0)">
                  <use xlink:href="#rim" fill="#404040">
                        <set attributeName="fill" to="#808080" begin="arrowLeft.mouseover" end="arrowLeft.mouseout"/>
                  </use>
                  <path fill="none" stroke="white" stroke-width="1.5" d="M0,-3.0v7 M-2.5,-0.5L0,-3.0L2.5,-0.5"/>
                </g>
        </g>
        <svg viewBox="0 0 15 15" width="100%" height="30px" preserveAspectRatio="xMaxYMin meet">
         <g id="arrow_out" transform="scale(0.3 0.3)">
          <a xlink:href="CollectCalibInfoTOF_8h__incl_org.svg" target="_base">
           <rect id="button" ry="5" rx="5" y="6" x="6" height="38" width="38"
                fill="#f2f5e9" fill-opacity="0.5" stroke="#606060" stroke-width="1.0"/>
           <path id="arrow"
             d="M 11.500037,31.436501 C 11.940474,20.09759 22.043105,11.32322 32.158766,21.979434 L 37.068811,17.246167 C 37.068811,17.246167 37.088388,32 37.088388,32 L 22.160133,31.978069 C 22.160133,31.978069 26.997745,27.140456 26.997745,27.140456 C 18.528582,18.264221 13.291696,25.230495 11.500037,31.436501 z"
             style="fill:#404040;"/>
          </a>
         </g>
        </svg>
</svg>
