<?xml version="1.0" encoding="UTF-8" standalone="no"?>
<!DOCTYPE svg PUBLIC "-//W3C//DTD SVG 1.1//EN"
 "http://www.w3.org/Graphics/SVG/1.1/DTD/svg11.dtd">
<!-- Generated by graphviz version 2.40.1 (20161225.0304)
 -->
<!-- Title: /home/travis/build/AliceO2Group/AliceO2/Framework/Core/src/DataSamplingConditionCustom.cxx Pages: 1 -->
<svg width="1145pt" height="251pt"
 viewBox="0.00 0.00 1145.00 251.00" xmlns="http://www.w3.org/2000/svg" xmlns:xlink="http://www.w3.org/1999/xlink">
<g id="graph0" class="graph" transform="scale(1 1) rotate(0) translate(4 247)">
<title>/home/travis/build/AliceO2Group/AliceO2/Framework/Core/src/DataSamplingConditionCustom.cxx</title>
<!-- Node0 -->
<g id="node1" class="node">
<title>Node0</title>
<polygon fill="#bfbfbf" stroke="#000000" points="669.5,-190.5 669.5,-242.5 857.5,-242.5 857.5,-190.5 669.5,-190.5"/>
<text text-anchor="start" x="677.5" y="-230.5" font-family="Helvetica,sans-Serif" font-size="10.00" fill="#000000">/home/travis/build</text>
<text text-anchor="start" x="677.5" y="-219.5" font-family="Helvetica,sans-Serif" font-size="10.00" fill="#000000">/AliceO2Group/AliceO2</text>
<text text-anchor="start" x="677.5" y="-208.5" font-family="Helvetica,sans-Serif" font-size="10.00" fill="#000000">/Framework/Core/src/DataSampling</text>
<text text-anchor="middle" x="763.5" y="-197.5" font-family="Helvetica,sans-Serif" font-size="10.00" fill="#000000">ConditionCustom.cxx</text>
</g>
<!-- Node1 -->
<g id="node2" class="node">
<title>Node1</title>
<g id="a_node2"><a xlink:href="../../dd/dcf/DataSamplingCondition_8h.html" target="_top" xlink:title="A standarised data sampling condition, to decide if given data sample should be passed forward...">
<polygon fill="none" stroke="#000000" points="81.5,-67.5 81.5,-86.5 279.5,-86.5 279.5,-67.5 81.5,-67.5"/>
<text text-anchor="middle" x="180.5" y="-74.5" font-family="Helvetica,sans-Serif" font-size="10.00" fill="#000000">Framework/DataSamplingCondition.h</text>
</a>
</g>
</g>
<!-- Node0&#45;&gt;Node1 -->
<g id="edge1" class="edge">
<title>Node0&#45;&gt;Node1</title>
<path fill="none" stroke="#191970" d="M669.2502,-214.83C536.5182,-210.9138 302.7439,-197.8145 231.5,-154 209.7056,-140.5966 195.266,-113.9857 187.4802,-95.8399"/>
<polygon fill="#191970" stroke="#191970" points="190.7183,-94.5109 183.747,-86.5326 184.2214,-97.1169 190.7183,-94.5109"/>
</g>
<!-- Node5 -->
<g id="node6" class="node">
<title>Node5</title>
<g id="a_node6"><a xlink:href="../../de/dca/DataSamplingConditionFactory_8h.html" target="_top" xlink:title="A definition of DataSamplingConditionFactory. ">
<polygon fill="none" stroke="#000000" points="241,-123.5 241,-153.5 430,-153.5 430,-123.5 241,-123.5"/>
<text text-anchor="start" x="249" y="-141.5" font-family="Helvetica,sans-Serif" font-size="10.00" fill="#000000">Framework/DataSamplingCondition</text>
<text text-anchor="middle" x="335.5" y="-130.5" font-family="Helvetica,sans-Serif" font-size="10.00" fill="#000000">Factory.h</text>
</a>
</g>
</g>
<!-- Node0&#45;&gt;Node5 -->
<g id="edge5" class="edge">
<title>Node0&#45;&gt;Node5</title>
<path fill="none" stroke="#191970" d="M669.3088,-199.3343C597.4957,-186.2469 499.1245,-168.3194 427.7867,-155.3186"/>
<polygon fill="#191970" stroke="#191970" points="428.3712,-151.8675 417.9056,-153.5179 427.1161,-158.7541 428.3712,-151.8675"/>
</g>
<!-- Node7 -->
<g id="node8" class="node">
<title>Node7</title>
<g id="a_node8"><a xlink:href="../../dc/dcd/DataHeader_8h.html" target="_top" xlink:title="Headers/DataHeader.h">
<polygon fill="none" stroke="#000000" points="514,-129 514,-148 641,-148 641,-129 514,-129"/>
<text text-anchor="middle" x="577.5" y="-136" font-family="Helvetica,sans-Serif" font-size="10.00" fill="#000000">Headers/DataHeader.h</text>
</a>
</g>
</g>
<!-- Node0&#45;&gt;Node7 -->
<g id="edge9" class="edge">
<title>Node0&#45;&gt;Node7</title>
<path fill="none" stroke="#191970" d="M701.3061,-190.4187C670.7258,-177.5947 635.1358,-162.6699 609.9836,-152.1222"/>
<polygon fill="#191970" stroke="#191970" points="611.1307,-148.8079 600.5551,-148.1683 608.4235,-155.2633 611.1307,-148.8079"/>
</g>
<!-- Node16 -->
<g id="node17" class="node">
<title>Node16</title>
<polygon fill="none" stroke="#bfbfbf" points="659.5,-129 659.5,-148 767.5,-148 767.5,-129 659.5,-129"/>
<text text-anchor="middle" x="713.5" y="-136" font-family="Helvetica,sans-Serif" font-size="10.00" fill="#000000">fairlogger/Logger.h</text>
</g>
<!-- Node0&#45;&gt;Node16 -->
<g id="edge20" class="edge">
<title>Node0&#45;&gt;Node16</title>
<path fill="none" stroke="#191970" d="M746.5723,-190.0928C739.5303,-179.1073 731.5311,-166.6285 725.1637,-156.6954"/>
<polygon fill="#191970" stroke="#191970" points="727.9868,-154.6138 719.6435,-148.0839 722.0936,-158.3915 727.9868,-154.6138"/>
</g>
<!-- Node17 -->
<g id="node18" class="node">
<title>Node17</title>
<polygon fill="none" stroke="#bfbfbf" points="786,-129 786,-148 843,-148 843,-129 786,-129"/>
<text text-anchor="middle" x="814.5" y="-136" font-family="Helvetica,sans-Serif" font-size="10.00" fill="#000000">TClass.h</text>
</g>
<!-- Node0&#45;&gt;Node17 -->
<g id="edge21" class="edge">
<title>Node0&#45;&gt;Node17</title>
<path fill="none" stroke="#191970" d="M780.7663,-190.0928C787.9491,-179.1073 796.1083,-166.6285 802.603,-156.6954"/>
<polygon fill="#191970" stroke="#191970" points="805.6905,-158.369 808.2336,-148.0839 799.8317,-154.5382 805.6905,-158.369"/>
</g>
<!-- Node18 -->
<g id="node19" class="node">
<title>Node18</title>
<polygon fill="none" stroke="#bfbfbf" points="861.5,-129 861.5,-148 919.5,-148 919.5,-129 861.5,-129"/>
<text text-anchor="middle" x="890.5" y="-136" font-family="Helvetica,sans-Serif" font-size="10.00" fill="#000000">TROOT.h</text>
</g>
<!-- Node0&#45;&gt;Node18 -->
<g id="edge22" class="edge">
<title>Node0&#45;&gt;Node18</title>
<path fill="none" stroke="#191970" d="M806.1425,-190.3101C826.0851,-178.0619 849.1154,-163.9173 866.0688,-153.505"/>
<polygon fill="#191970" stroke="#191970" points="868.1145,-156.3561 874.8039,-148.1401 864.451,-150.3912 868.1145,-156.3561"/>
</g>
<!-- Node19 -->
<g id="node20" class="node">
<title>Node19</title>
<polygon fill="none" stroke="#bfbfbf" points="937.5,-129 937.5,-148 1005.5,-148 1005.5,-129 937.5,-129"/>
<text text-anchor="middle" x="971.5" y="-136" font-family="Helvetica,sans-Serif" font-size="10.00" fill="#000000">TSystem.h</text>
</g>
<!-- Node0&#45;&gt;Node19 -->
<g id="edge23" class="edge">
<title>Node0&#45;&gt;Node19</title>
<path fill="none" stroke="#191970" d="M833.0502,-190.4187C867.807,-177.3849 908.3511,-162.1808 936.5456,-151.6079"/>
<polygon fill="#191970" stroke="#191970" points="937.8392,-154.8609 945.9736,-148.0724 935.3813,-148.3066 937.8392,-154.8609"/>
</g>
<!-- Node20 -->
<g id="node21" class="node">
<title>Node20</title>
<polygon fill="none" stroke="#bfbfbf" points="1024,-123.5 1024,-153.5 1137,-153.5 1137,-123.5 1024,-123.5"/>
<text text-anchor="start" x="1032" y="-141.5" font-family="Helvetica,sans-Serif" font-size="10.00" fill="#000000">boost/property_tree</text>
<text text-anchor="middle" x="1080.5" y="-130.5" font-family="Helvetica,sans-Serif" font-size="10.00" fill="#000000">/ptree.hpp</text>
</g>
<!-- Node0&#45;&gt;Node20 -->
<g id="edge24" class="edge">
<title>Node0&#45;&gt;Node20</title>
<path fill="none" stroke="#191970" d="M857.7522,-193.3086C908.081,-180.9249 968.8132,-165.9813 1014.142,-154.8278"/>
<polygon fill="#191970" stroke="#191970" points="1014.9869,-158.2244 1023.861,-152.4364 1013.3144,-151.4272 1014.9869,-158.2244"/>
</g>
<!-- Node2 -->
<g id="node3" class="node">
<title>Node2</title>
<g id="a_node3"><a xlink:href="../../d5/dfb/DataRef_8h.html" target="_top" xlink:title="Framework/DataRef.h">
<polygon fill="none" stroke="#000000" points="0,-6 0,-25 121,-25 121,-6 0,-6"/>
<text text-anchor="middle" x="60.5" y="-13" font-family="Helvetica,sans-Serif" font-size="10.00" fill="#000000">Framework/DataRef.h</text>
</a>
</g>
</g>
<!-- Node1&#45;&gt;Node2 -->
<g id="edge2" class="edge">
<title>Node1&#45;&gt;Node2</title>
<path fill="none" stroke="#191970" d="M161.75,-67.3906C142.024,-57.2811 110.7688,-41.2628 88.2,-29.6962"/>
<polygon fill="#191970" stroke="#191970" points="89.614,-26.4881 79.1183,-25.0419 86.4213,-32.7176 89.614,-26.4881"/>
</g>
<!-- Node3 -->
<g id="node4" class="node">
<title>Node3</title>
<polygon fill="none" stroke="#bfbfbf" points="139,-.5 139,-30.5 252,-30.5 252,-.5 139,-.5"/>
<text text-anchor="start" x="147" y="-18.5" font-family="Helvetica,sans-Serif" font-size="10.00" fill="#000000">boost/property_tree</text>
<text text-anchor="middle" x="195.5" y="-7.5" font-family="Helvetica,sans-Serif" font-size="10.00" fill="#000000">/ptree_fwd.hpp</text>
</g>
<!-- Node1&#45;&gt;Node3 -->
<g id="edge3" class="edge">
<title>Node1&#45;&gt;Node3</title>
<path fill="none" stroke="#191970" d="M182.8438,-67.3906C184.6107,-60.1463 187.1176,-49.8679 189.4347,-40.3676"/>
<polygon fill="#191970" stroke="#191970" points="192.8613,-41.0892 191.8306,-30.5446 186.0606,-39.4304 192.8613,-41.0892"/>
</g>
<!-- Node4 -->
<g id="node5" class="node">
<title>Node4</title>
<polygon fill="none" stroke="#bfbfbf" points="285.5,-6 285.5,-25 329.5,-25 329.5,-6 285.5,-6"/>
<text text-anchor="middle" x="307.5" y="-13" font-family="Helvetica,sans-Serif" font-size="10.00" fill="#000000">string</text>
</g>
<!-- Node1&#45;&gt;Node4 -->
<g id="edge4" class="edge">
<title>Node1&#45;&gt;Node4</title>
<path fill="none" stroke="#191970" d="M200.3438,-67.3906C221.3136,-57.2359 254.5944,-41.1196 278.5036,-29.5416"/>
<polygon fill="#191970" stroke="#191970" points="280.3208,-32.5504 287.7956,-25.0419 277.2699,-26.2502 280.3208,-32.5504"/>
</g>
<!-- Node5&#45;&gt;Node1 -->
<g id="edge6" class="edge">
<title>Node5&#45;&gt;Node1</title>
<path fill="none" stroke="#191970" d="M297.5827,-123.4554C272.0609,-113.329 238.7104,-100.0964 214.1344,-90.3453"/>
<polygon fill="#191970" stroke="#191970" points="215.1054,-86.9651 204.5195,-86.5303 212.5237,-93.4717 215.1054,-86.9651"/>
</g>
<!-- Node5&#45;&gt;Node4 -->
<g id="edge8" class="edge">
<title>Node5&#45;&gt;Node4</title>
<path fill="none" stroke="#191970" d="M332.0667,-123.4178C327.0012,-101.1659 317.5234,-59.5314 311.9369,-34.9908"/>
<polygon fill="#191970" stroke="#191970" points="315.3062,-34.0229 309.6738,-25.0493 308.4808,-35.5767 315.3062,-34.0229"/>
</g>
<!-- Node6 -->
<g id="node7" class="node">
<title>Node6</title>
<polygon fill="none" stroke="#bfbfbf" points="335.5,-67.5 335.5,-86.5 393.5,-86.5 393.5,-67.5 335.5,-67.5"/>
<text text-anchor="middle" x="364.5" y="-74.5" font-family="Helvetica,sans-Serif" font-size="10.00" fill="#000000">memory</text>
</g>
<!-- Node5&#45;&gt;Node6 -->
<g id="edge7" class="edge">
<title>Node5&#45;&gt;Node6</title>
<path fill="none" stroke="#191970" d="M342.6685,-123.2977C346.5682,-115.0277 351.428,-104.7215 355.5718,-95.9339"/>
<polygon fill="#191970" stroke="#191970" points="358.7573,-97.3846 359.8567,-86.8469 352.4259,-94.399 358.7573,-97.3846"/>
</g>
<!-- Node7&#45;&gt;Node4 -->
<g id="edge16" class="edge">
<title>Node7&#45;&gt;Node4</title>
<path fill="none" stroke="#191970" d="M548.7108,-128.9374C520.6714,-119.331 477.0523,-103.6055 440.5,-87 435.1092,-84.551 371.0718,-49.94 333.86,-29.7876"/>
<polygon fill="#191970" stroke="#191970" points="335.4893,-26.6897 325.0294,-25.004 332.1551,-32.8446 335.4893,-26.6897"/>
</g>
<!-- Node7&#45;&gt;Node6 -->
<g id="edge11" class="edge">
<title>Node7&#45;&gt;Node6</title>
<path fill="none" stroke="#191970" d="M544.2188,-128.8906C506.143,-117.8969 443.8666,-99.9157 403.5346,-88.2705"/>
<polygon fill="#191970" stroke="#191970" points="404.36,-84.866 393.7815,-85.4545 402.4182,-91.5912 404.36,-84.866"/>
</g>
<!-- Node8 -->
<g id="node9" class="node">
<title>Node8</title>
<polygon fill="none" stroke="#bfbfbf" points="449.5,-67.5 449.5,-86.5 499.5,-86.5 499.5,-67.5 449.5,-67.5"/>
<text text-anchor="middle" x="474.5" y="-74.5" font-family="Helvetica,sans-Serif" font-size="10.00" fill="#000000">cstdint</text>
</g>
<!-- Node7&#45;&gt;Node8 -->
<g id="edge10" class="edge">
<title>Node7&#45;&gt;Node8</title>
<path fill="none" stroke="#191970" d="M561.4063,-128.8906C544.7772,-118.9616 518.6024,-103.333 499.3206,-91.8201"/>
<polygon fill="#191970" stroke="#191970" points="500.861,-88.6634 490.4807,-86.5419 497.2724,-94.6736 500.861,-88.6634"/>
</g>
<!-- Node9 -->
<g id="node10" class="node">
<title>Node9</title>
<polygon fill="none" stroke="#bfbfbf" points="517.5,-67.5 517.5,-86.5 569.5,-86.5 569.5,-67.5 517.5,-67.5"/>
<text text-anchor="middle" x="543.5" y="-74.5" font-family="Helvetica,sans-Serif" font-size="10.00" fill="#000000">cassert</text>
</g>
<!-- Node7&#45;&gt;Node9 -->
<g id="edge12" class="edge">
<title>Node7&#45;&gt;Node9</title>
<path fill="none" stroke="#191970" d="M572.1875,-128.8906C567.2761,-120.0068 559.8421,-106.5601 553.7725,-95.5811"/>
<polygon fill="#191970" stroke="#191970" points="556.7888,-93.8031 548.8874,-86.7449 550.6627,-97.1899 556.7888,-93.8031"/>
</g>
<!-- Node10 -->
<g id="node11" class="node">
<title>Node10</title>
<polygon fill="none" stroke="#bfbfbf" points="587.5,-67.5 587.5,-86.5 637.5,-86.5 637.5,-67.5 587.5,-67.5"/>
<text text-anchor="middle" x="612.5" y="-74.5" font-family="Helvetica,sans-Serif" font-size="10.00" fill="#000000">cstring</text>
</g>
<!-- Node7&#45;&gt;Node10 -->
<g id="edge13" class="edge">
<title>Node7&#45;&gt;Node10</title>
<path fill="none" stroke="#191970" d="M582.9688,-128.8906C588.0246,-120.0068 595.6772,-106.5601 601.9254,-95.5811"/>
<polygon fill="#191970" stroke="#191970" points="605.0498,-97.1672 606.9541,-86.7449 598.966,-93.7048 605.0498,-97.1672"/>
</g>
<!-- Node11 -->
<g id="node12" class="node">
<title>Node11</title>
<polygon fill="none" stroke="#bfbfbf" points="655.5,-67.5 655.5,-86.5 719.5,-86.5 719.5,-67.5 655.5,-67.5"/>
<text text-anchor="middle" x="687.5" y="-74.5" font-family="Helvetica,sans-Serif" font-size="10.00" fill="#000000">algorithm</text>
</g>
<!-- Node7&#45;&gt;Node11 -->
<g id="edge14" class="edge">
<title>Node7&#45;&gt;Node11</title>
<path fill="none" stroke="#191970" d="M594.6875,-128.8906C612.6082,-118.8713 640.9095,-103.0483 661.5523,-91.5071"/>
<polygon fill="#191970" stroke="#191970" points="663.4128,-94.4769 670.4332,-86.5419 659.9967,-88.367 663.4128,-94.4769"/>
</g>
<!-- Node12 -->
<g id="node13" class="node">
<title>Node12</title>
<polygon fill="none" stroke="#bfbfbf" points="738,-67.5 738,-86.5 803,-86.5 803,-67.5 738,-67.5"/>
<text text-anchor="middle" x="770.5" y="-74.5" font-family="Helvetica,sans-Serif" font-size="10.00" fill="#000000">stdexcept</text>
</g>
<!-- Node7&#45;&gt;Node12 -->
<g id="edge15" class="edge">
<title>Node7&#45;&gt;Node12</title>
<path fill="none" stroke="#191970" d="M607.6563,-128.8906C640.7985,-118.3298 694.1762,-101.3208 730.7242,-89.6747"/>
<polygon fill="#191970" stroke="#191970" points="732.0902,-92.9129 740.5555,-86.5419 729.9649,-86.2433 732.0902,-92.9129"/>
</g>
<!-- Node13 -->
<g id="node14" class="node">
<title>Node13</title>
<polygon fill="none" stroke="#bfbfbf" points="821.5,-67.5 821.5,-86.5 871.5,-86.5 871.5,-67.5 821.5,-67.5"/>
<text text-anchor="middle" x="846.5" y="-74.5" font-family="Helvetica,sans-Serif" font-size="10.00" fill="#000000">climits</text>
</g>
<!-- Node7&#45;&gt;Node13 -->
<g id="edge17" class="edge">
<title>Node7&#45;&gt;Node13</title>
<path fill="none" stroke="#191970" d="M621.7386,-128.9812C678.4624,-116.7517 773.254,-96.2257 811.1274,-87.1458"/>
<polygon fill="#191970" stroke="#191970" points="812.4385,-90.4269 821.3036,-84.625 810.7553,-83.6323 812.4385,-90.4269"/>
</g>
<!-- Node14 -->
<g id="node15" class="node">
<title>Node14</title>
<g id="a_node15"><a xlink:href="../../d7/df8/Types_8h.html" target="_top" xlink:title="MemoryResources/Types.h">
<polygon fill="none" stroke="#000000" points="889.5,-67.5 889.5,-86.5 1035.5,-86.5 1035.5,-67.5 889.5,-67.5"/>
<text text-anchor="middle" x="962.5" y="-74.5" font-family="Helvetica,sans-Serif" font-size="10.00" fill="#000000">MemoryResources/Types.h</text>
</a>
</g>
</g>
<!-- Node7&#45;&gt;Node14 -->
<g id="edge18" class="edge">
<title>Node7&#45;&gt;Node14</title>
<path fill="none" stroke="#191970" d="M620.2584,-128.9512C630.1645,-126.8698 640.681,-124.7645 650.5,-123 727.709,-109.1256 816.2215,-96.3729 879.2016,-87.8322"/>
<polygon fill="#191970" stroke="#191970" points="880.0342,-91.2516 889.4762,-86.4455 879.0979,-84.3145 880.0342,-91.2516"/>
</g>
<!-- Node15 -->
<g id="node16" class="node">
<title>Node15</title>
<polygon fill="none" stroke="#bfbfbf" points="1054,-67.5 1054,-86.5 1101,-86.5 1101,-67.5 1054,-67.5"/>
<text text-anchor="middle" x="1077.5" y="-74.5" font-family="Helvetica,sans-Serif" font-size="10.00" fill="#000000">cerrno</text>
</g>
<!-- Node7&#45;&gt;Node15 -->
<g id="edge19" class="edge">
<title>Node7&#45;&gt;Node15</title>
<path fill="none" stroke="#191970" d="M618.2703,-128.9549C628.7307,-126.7509 639.9955,-124.5894 650.5,-123 821.1357,-97.1814 870.1052,-119.7985 1043.8618,-86.7302"/>
<polygon fill="#191970" stroke="#191970" points="1044.7006,-90.1328 1053.8521,-84.7943 1043.3688,-83.2607 1044.7006,-90.1328"/>
</g>
</g>
</svg>
