<?xml version="1.0" encoding="UTF-8" standalone="no"?>
<!DOCTYPE svg PUBLIC "-//W3C//DTD SVG 1.1//EN"
 "http://www.w3.org/Graphics/SVG/1.1/DTD/svg11.dtd">
<!-- Generated by graphviz version 2.40.1 (20161225.0304)
 -->
<!-- Title: o2::emcal::SupermoduleIndexException Pages: 1 -->
<svg width="191pt" height="215pt"
 viewBox="0.00 0.00 191.00 215.00" xmlns="http://www.w3.org/2000/svg" xmlns:xlink="http://www.w3.org/1999/xlink">
<g id="graph0" class="graph" transform="scale(1 1) rotate(0) translate(4 211)">
<title>o2::emcal::SupermoduleIndexException</title>
<!-- Node2 -->
<g id="node1" class="node">
<title>Node2</title>
<polygon fill="#bfbfbf" stroke="#000000" points="0,-.5 0,-112.5 183,-112.5 183,-.5 0,-.5"/>
<text text-anchor="start" x="8" y="-100.5" font-family="Helvetica,sans-Serif" font-size="10.00" fill="#000000">o2::emcal::SupermoduleIndex</text>
<text text-anchor="middle" x="91.5" y="-89.5" font-family="Helvetica,sans-Serif" font-size="10.00" fill="#000000">Exception</text>
<polyline fill="none" stroke="#000000" points="0,-82.5 183,-82.5 "/>
<text text-anchor="middle" x="91.5" y="-70.5" font-family="Helvetica,sans-Serif" font-size="10.00" fill="#000000"> </text>
<polyline fill="none" stroke="#000000" points="0,-63.5 183,-63.5 "/>
<text text-anchor="start" x="8" y="-51.5" font-family="Helvetica,sans-Serif" font-size="10.00" fill="#000000">+ SupermoduleIndexException()</text>
<text text-anchor="start" x="8" y="-40.5" font-family="Helvetica,sans-Serif" font-size="10.00" fill="#000000">+ ~SupermoduleIndexException()</text>
<text text-anchor="start" x="8" y="-29.5" font-family="Helvetica,sans-Serif" font-size="10.00" fill="#000000">+ getSupermodule()</text>
<text text-anchor="start" x="8" y="-18.5" font-family="Helvetica,sans-Serif" font-size="10.00" fill="#000000">+ getMaxSupermodule()</text>
<text text-anchor="start" x="8" y="-7.5" font-family="Helvetica,sans-Serif" font-size="10.00" fill="#000000">+ what()</text>
</g>
<!-- Node3 -->
<g id="node2" class="node">
<title>Node3</title>
<polygon fill="none" stroke="#bfbfbf" points="59,-149.5 59,-206.5 124,-206.5 124,-149.5 59,-149.5"/>
<text text-anchor="middle" x="91.5" y="-194.5" font-family="Helvetica,sans-Serif" font-size="10.00" fill="#000000">exception</text>
<polyline fill="none" stroke="#bfbfbf" points="59,-187.5 124,-187.5 "/>
<text text-anchor="middle" x="91.5" y="-175.5" font-family="Helvetica,sans-Serif" font-size="10.00" fill="#000000"> </text>
<polyline fill="none" stroke="#bfbfbf" points="59,-168.5 124,-168.5 "/>
<text text-anchor="middle" x="91.5" y="-156.5" font-family="Helvetica,sans-Serif" font-size="10.00" fill="#000000"> </text>
</g>
<!-- Node3&#45;&gt;Node2 -->
<g id="edge1" class="edge">
<title>Node3&#45;&gt;Node2</title>
<path fill="none" stroke="#191970" d="M91.5,-139.0021C91.5,-130.6329 91.5,-121.6292 91.5,-112.7541"/>
<polygon fill="none" stroke="#191970" points="88.0001,-139.2062 91.5,-149.2062 95.0001,-139.2062 88.0001,-139.2062"/>
</g>
</g>
</svg>
