<?xml version="1.0" encoding="UTF-8" standalone="no"?>
<!DOCTYPE svg PUBLIC "-//W3C//DTD SVG 1.1//EN"
 "http://www.w3.org/Graphics/SVG/1.1/DTD/svg11.dtd">
<!-- Generated by graphviz version 2.40.1 (20161225.0304)
 -->
<!-- Title: o2::tpc::ClusterNative Pages: 1 -->
<svg width="477pt" height="556pt"
 viewBox="0.00 0.00 477.00 556.00" xmlns="http://www.w3.org/2000/svg" xmlns:xlink="http://www.w3.org/1999/xlink">
<g id="graph0" class="graph" transform="scale(1 1) rotate(0) translate(4 552)">
<title>o2::tpc::ClusterNative</title>
<!-- Node1 -->
<g id="node1" class="node">
<title>Node1</title>
<polygon fill="#bfbfbf" stroke="#000000" points="109.5,-.5 109.5,-365.5 234.5,-365.5 234.5,-.5 109.5,-.5"/>
<text text-anchor="middle" x="172" y="-353.5" font-family="Helvetica,sans-Serif" font-size="10.00" fill="#000000">o2::tpc::ClusterNative</text>
<polyline fill="none" stroke="#000000" points="109.5,-346.5 234.5,-346.5 "/>
<text text-anchor="middle" x="172" y="-334.5" font-family="Helvetica,sans-Serif" font-size="10.00" fill="#000000"> </text>
<polyline fill="none" stroke="#000000" points="109.5,-327.5 234.5,-327.5 "/>
<text text-anchor="start" x="117.5" y="-315.5" font-family="Helvetica,sans-Serif" font-size="10.00" fill="#000000">+ GPUd()</text>
<text text-anchor="start" x="117.5" y="-304.5" font-family="Helvetica,sans-Serif" font-size="10.00" fill="#000000">+ GPUd()</text>
<text text-anchor="start" x="117.5" y="-293.5" font-family="Helvetica,sans-Serif" font-size="10.00" fill="#000000">+ GPUd()</text>
<text text-anchor="start" x="117.5" y="-282.5" font-family="Helvetica,sans-Serif" font-size="10.00" fill="#000000">+ GPUd()</text>
<text text-anchor="start" x="117.5" y="-271.5" font-family="Helvetica,sans-Serif" font-size="10.00" fill="#000000">+ GPUdDefault()</text>
<text text-anchor="start" x="117.5" y="-260.5" font-family="Helvetica,sans-Serif" font-size="10.00" fill="#000000">+ GPUd()</text>
<text text-anchor="start" x="117.5" y="-249.5" font-family="Helvetica,sans-Serif" font-size="10.00" fill="#000000">+ sigmaTimePacked()</text>
<text text-anchor="start" x="117.5" y="-238.5" font-family="Helvetica,sans-Serif" font-size="10.00" fill="#000000">+ sigmaPadPacked()</text>
<text text-anchor="start" x="117.5" y="-227.5" font-family="Helvetica,sans-Serif" font-size="10.00" fill="#000000">+ qMax()</text>
<text text-anchor="start" x="117.5" y="-216.5" font-family="Helvetica,sans-Serif" font-size="10.00" fill="#000000">+ qTot()</text>
<text text-anchor="start" x="117.5" y="-205.5" font-family="Helvetica,sans-Serif" font-size="10.00" fill="#000000">+ GPUd()</text>
<text text-anchor="start" x="117.5" y="-194.5" font-family="Helvetica,sans-Serif" font-size="10.00" fill="#000000">+ GPUd()</text>
<text text-anchor="start" x="117.5" y="-183.5" font-family="Helvetica,sans-Serif" font-size="10.00" fill="#000000">+ GPUd()</text>
<text text-anchor="start" x="117.5" y="-172.5" font-family="Helvetica,sans-Serif" font-size="10.00" fill="#000000">+ GPUd()</text>
<text text-anchor="start" x="117.5" y="-161.5" font-family="Helvetica,sans-Serif" font-size="10.00" fill="#000000">+ GPUd()</text>
<text text-anchor="start" x="117.5" y="-150.5" font-family="Helvetica,sans-Serif" font-size="10.00" fill="#000000">+ GPUd()</text>
<text text-anchor="start" x="117.5" y="-139.5" font-family="Helvetica,sans-Serif" font-size="10.00" fill="#000000">+ GPUd()</text>
<text text-anchor="start" x="117.5" y="-128.5" font-family="Helvetica,sans-Serif" font-size="10.00" fill="#000000">+ GPUd()</text>
<text text-anchor="start" x="117.5" y="-117.5" font-family="Helvetica,sans-Serif" font-size="10.00" fill="#000000">+ GPUd()</text>
<text text-anchor="start" x="117.5" y="-106.5" font-family="Helvetica,sans-Serif" font-size="10.00" fill="#000000">+ GPUd()</text>
<text text-anchor="start" x="117.5" y="-95.5" font-family="Helvetica,sans-Serif" font-size="10.00" fill="#000000">+ GPUd()</text>
<text text-anchor="start" x="117.5" y="-84.5" font-family="Helvetica,sans-Serif" font-size="10.00" fill="#000000">+ GPUd()</text>
<text text-anchor="start" x="117.5" y="-73.5" font-family="Helvetica,sans-Serif" font-size="10.00" fill="#000000">+ GPUd()</text>
<text text-anchor="start" x="117.5" y="-62.5" font-family="Helvetica,sans-Serif" font-size="10.00" fill="#000000">+ GPUd()</text>
<text text-anchor="start" x="117.5" y="-51.5" font-family="Helvetica,sans-Serif" font-size="10.00" fill="#000000">+ GPUd()</text>
<text text-anchor="start" x="117.5" y="-40.5" font-family="Helvetica,sans-Serif" font-size="10.00" fill="#000000">+ GPUd()</text>
<text text-anchor="start" x="117.5" y="-29.5" font-family="Helvetica,sans-Serif" font-size="10.00" fill="#000000">+ GPUd()</text>
<text text-anchor="start" x="117.5" y="-18.5" font-family="Helvetica,sans-Serif" font-size="10.00" fill="#000000">+ GPUd()</text>
<text text-anchor="start" x="117.5" y="-7.5" font-family="Helvetica,sans-Serif" font-size="10.00" fill="#000000">+ GPUd()</text>
</g>
<!-- Node2 -->
<g id="node2" class="node">
<title>Node2</title>
<polygon fill="none" stroke="#bfbfbf" points="0,-490.5 0,-547.5 56,-547.5 56,-490.5 0,-490.5"/>
<text text-anchor="middle" x="28" y="-535.5" font-family="Helvetica,sans-Serif" font-size="10.00" fill="#000000">uint16_t</text>
<polyline fill="none" stroke="#bfbfbf" points="0,-528.5 56,-528.5 "/>
<text text-anchor="middle" x="28" y="-516.5" font-family="Helvetica,sans-Serif" font-size="10.00" fill="#000000"> </text>
<polyline fill="none" stroke="#bfbfbf" points="0,-509.5 56,-509.5 "/>
<text text-anchor="middle" x="28" y="-497.5" font-family="Helvetica,sans-Serif" font-size="10.00" fill="#000000"> </text>
</g>
<!-- Node2&#45;&gt;Node1 -->
<g id="edge1" class="edge">
<title>Node2&#45;&gt;Node1</title>
<path fill="none" stroke="#404040" d="M27.733,-490.2379C28.3165,-462.3164 31.4759,-419.1244 44,-384 57.7881,-345.3305 80.12,-306.438 102.3003,-273.3057"/>
<polygon fill="none" stroke="#404040" points="102.4166,-273.1347 102.4863,-265.9239 109.1693,-263.2149 109.0996,-270.4257 102.4166,-273.1347"/>
<text text-anchor="middle" x="74.5" y="-436.5" font-family="Helvetica,sans-Serif" font-size="10.00" fill="#000000"> +qTot</text>
<text text-anchor="middle" x="74.5" y="-425.5" font-family="Helvetica,sans-Serif" font-size="10.00" fill="#000000">+padPacked</text>
<text text-anchor="middle" x="74.5" y="-414.5" font-family="Helvetica,sans-Serif" font-size="10.00" fill="#000000">+qMax</text>
</g>
<!-- Node3 -->
<g id="node3" class="node">
<title>Node3</title>
<polygon fill="none" stroke="#bfbfbf" points="87,-490.5 87,-547.5 137,-547.5 137,-490.5 87,-490.5"/>
<text text-anchor="middle" x="112" y="-535.5" font-family="Helvetica,sans-Serif" font-size="10.00" fill="#000000">uint8_t</text>
<polyline fill="none" stroke="#bfbfbf" points="87,-528.5 137,-528.5 "/>
<text text-anchor="middle" x="112" y="-516.5" font-family="Helvetica,sans-Serif" font-size="10.00" fill="#000000"> </text>
<polyline fill="none" stroke="#bfbfbf" points="87,-509.5 137,-509.5 "/>
<text text-anchor="middle" x="112" y="-497.5" font-family="Helvetica,sans-Serif" font-size="10.00" fill="#000000"> </text>
</g>
<!-- Node3&#45;&gt;Node1 -->
<g id="edge2" class="edge">
<title>Node3&#45;&gt;Node1</title>
<path fill="none" stroke="#404040" d="M109.9236,-490.3797C108.4704,-462.9315 107.6298,-420.4039 113,-384 113.3056,-381.9284 113.6273,-379.8483 113.9642,-377.7612"/>
<polygon fill="none" stroke="#404040" points="113.9986,-377.5629 111.0855,-370.9664 116.0541,-365.7403 118.9672,-372.3368 113.9986,-377.5629"/>
<text text-anchor="middle" x="162" y="-464" font-family="Helvetica,sans-Serif" font-size="10.00" fill="#000000"> +qtot</text>
<text text-anchor="middle" x="162" y="-453" font-family="Helvetica,sans-Serif" font-size="10.00" fill="#000000">+sigmaTimePacked</text>
<text text-anchor="middle" x="162" y="-442" font-family="Helvetica,sans-Serif" font-size="10.00" fill="#000000">+pad</text>
<text text-anchor="middle" x="162" y="-431" font-family="Helvetica,sans-Serif" font-size="10.00" fill="#000000">+sigmaTime</text>
<text text-anchor="middle" x="162" y="-420" font-family="Helvetica,sans-Serif" font-size="10.00" fill="#000000">+flags</text>
<text text-anchor="middle" x="162" y="-409" font-family="Helvetica,sans-Serif" font-size="10.00" fill="#000000">+sigmaPad</text>
<text text-anchor="middle" x="162" y="-398" font-family="Helvetica,sans-Serif" font-size="10.00" fill="#000000">+sigmaPadPacked</text>
<text text-anchor="middle" x="162" y="-387" font-family="Helvetica,sans-Serif" font-size="10.00" fill="#000000">+qmax</text>
</g>
<!-- Node4 -->
<g id="node4" class="node">
<title>Node4</title>
<g id="a_node4"><a xlink:href="../../d3/d87/classuint32__t.html" target="_top" xlink:title="{uint32_t\n||}">
<polygon fill="none" stroke="#000000" points="205,-490.5 205,-547.5 261,-547.5 261,-490.5 205,-490.5"/>
<text text-anchor="middle" x="233" y="-535.5" font-family="Helvetica,sans-Serif" font-size="10.00" fill="#000000">uint32_t</text>
<polyline fill="none" stroke="#000000" points="205,-528.5 261,-528.5 "/>
<text text-anchor="middle" x="233" y="-516.5" font-family="Helvetica,sans-Serif" font-size="10.00" fill="#000000"> </text>
<polyline fill="none" stroke="#000000" points="205,-509.5 261,-509.5 "/>
<text text-anchor="middle" x="233" y="-497.5" font-family="Helvetica,sans-Serif" font-size="10.00" fill="#000000"> </text>
</a>
</g>
</g>
<!-- Node4&#45;&gt;Node1 -->
<g id="edge3" class="edge">
<title>Node4&#45;&gt;Node1</title>
<path fill="none" stroke="#404040" d="M228.572,-490.2519C224.2971,-462.892 217.5289,-420.5856 211,-384 210.6129,-381.8307 210.2216,-379.6485 209.8267,-377.4555"/>
<polygon fill="none" stroke="#404040" points="209.8242,-377.4413 204.8173,-372.2518 207.6818,-365.6341 212.6887,-370.8236 209.8242,-377.4413"/>
<text text-anchor="middle" x="272" y="-425.5" font-family="Helvetica,sans-Serif" font-size="10.00" fill="#000000"> +timeFlagsPacked</text>
</g>
<!-- Node5 -->
<g id="node5" class="node">
<title>Node5</title>
<polygon fill="none" stroke="#bfbfbf" points="335.5,-490.5 335.5,-547.5 364.5,-547.5 364.5,-490.5 335.5,-490.5"/>
<text text-anchor="middle" x="350" y="-535.5" font-family="Helvetica,sans-Serif" font-size="10.00" fill="#000000">int</text>
<polyline fill="none" stroke="#bfbfbf" points="335.5,-528.5 364.5,-528.5 "/>
<text text-anchor="middle" x="350" y="-516.5" font-family="Helvetica,sans-Serif" font-size="10.00" fill="#000000"> </text>
<polyline fill="none" stroke="#bfbfbf" points="335.5,-509.5 364.5,-509.5 "/>
<text text-anchor="middle" x="350" y="-497.5" font-family="Helvetica,sans-Serif" font-size="10.00" fill="#000000"> </text>
</g>
<!-- Node5&#45;&gt;Node1 -->
<g id="edge4" class="edge">
<title>Node5&#45;&gt;Node1</title>
<path fill="none" stroke="#404040" d="M347.9955,-490.4823C345.181,-462.3639 338.5257,-418.6876 323,-384 302.9491,-339.2023 271.3777,-294.9772 242.2758,-259.4655"/>
<polygon fill="none" stroke="#404040" points="242.2125,-259.3893 235.3013,-257.3311 234.5431,-250.1599 241.4543,-252.2182 242.2125,-259.3893"/>
<text text-anchor="middle" x="407" y="-453" font-family="Helvetica,sans-Serif" font-size="10.00" fill="#000000"> +scaleTimePacked</text>
<text text-anchor="middle" x="407" y="-442" font-family="Helvetica,sans-Serif" font-size="10.00" fill="#000000">+scaleSigmaPadPacked</text>
<text text-anchor="middle" x="407" y="-431" font-family="Helvetica,sans-Serif" font-size="10.00" fill="#000000">+scaleSigmaTimePacked</text>
<text text-anchor="middle" x="407" y="-420" font-family="Helvetica,sans-Serif" font-size="10.00" fill="#000000">+f</text>
<text text-anchor="middle" x="407" y="-409" font-family="Helvetica,sans-Serif" font-size="10.00" fill="#000000">+scalePadPacked</text>
<text text-anchor="middle" x="407" y="-398" font-family="Helvetica,sans-Serif" font-size="10.00" fill="#000000">+qMax</text>
</g>
</g>
</svg>
