<?xml version="1.0" encoding="UTF-8" standalone="no"?>
<!DOCTYPE svg PUBLIC "-//W3C//DTD SVG 1.1//EN"
 "http://www.w3.org/Graphics/SVG/1.1/DTD/svg11.dtd">
<!-- Generated by graphviz version 2.40.1 (20161225.0304)
 -->
<!-- Title: /home/travis/build/AliceO2Group/AliceO2/DataFormats/Detectors/PHOS/include/DataFormatsPHOS/TriggerRecord.h Pages: 1 -->
<svg width="607pt" height="251pt"
 viewBox="0.00 0.00 607.00 251.00" xmlns="http://www.w3.org/2000/svg" xmlns:xlink="http://www.w3.org/1999/xlink">
<g id="graph0" class="graph" transform="scale(1 1) rotate(0) translate(4 247)">
<title>/home/travis/build/AliceO2Group/AliceO2/DataFormats/Detectors/PHOS/include/DataFormatsPHOS/TriggerRecord.h</title>
<!-- Node0 -->
<g id="node1" class="node">
<title>Node0</title>
<polygon fill="#bfbfbf" stroke="#000000" points="0,-179.5 0,-242.5 178,-242.5 178,-179.5 0,-179.5"/>
<text text-anchor="start" x="8" y="-230.5" font-family="Helvetica,sans-Serif" font-size="10.00" fill="#000000">/home/travis/build</text>
<text text-anchor="start" x="8" y="-219.5" font-family="Helvetica,sans-Serif" font-size="10.00" fill="#000000">/AliceO2Group/AliceO2</text>
<text text-anchor="start" x="8" y="-208.5" font-family="Helvetica,sans-Serif" font-size="10.00" fill="#000000">/DataFormats/Detectors</text>
<text text-anchor="start" x="8" y="-197.5" font-family="Helvetica,sans-Serif" font-size="10.00" fill="#000000">/PHOS/include/DataFormatsPHOS</text>
<text text-anchor="middle" x="89" y="-186.5" font-family="Helvetica,sans-Serif" font-size="10.00" fill="#000000">/TriggerRecord.h</text>
</g>
<!-- Node1 -->
<g id="node2" class="node">
<title>Node1</title>
<polygon fill="none" stroke="#bfbfbf" points="20.5,-56.5 20.5,-75.5 69.5,-75.5 69.5,-56.5 20.5,-56.5"/>
<text text-anchor="middle" x="45" y="-63.5" font-family="Helvetica,sans-Serif" font-size="10.00" fill="#000000">iosfwd</text>
</g>
<!-- Node0&#45;&gt;Node1 -->
<g id="edge1" class="edge">
<title>Node0&#45;&gt;Node1</title>
<path fill="none" stroke="#191970" d="M61.1832,-179.2427C53.4213,-168.4668 46.0173,-155.8779 42,-143 36.1652,-124.2962 37.9882,-101.7922 40.6168,-85.9574"/>
<polygon fill="#191970" stroke="#191970" points="44.1272,-86.2362 42.5753,-75.7556 37.2527,-84.9164 44.1272,-86.2362"/>
</g>
<!-- Node2 -->
<g id="node3" class="node">
<title>Node2</title>
<polygon fill="none" stroke="#bfbfbf" points="40.5,-.5 40.5,-19.5 99.5,-19.5 99.5,-.5 40.5,-.5"/>
<text text-anchor="middle" x="70" y="-7.5" font-family="Helvetica,sans-Serif" font-size="10.00" fill="#000000">Rtypes.h</text>
</g>
<!-- Node0&#45;&gt;Node2 -->
<g id="edge2" class="edge">
<title>Node0&#45;&gt;Node2</title>
<path fill="none" stroke="#191970" d="M59.2868,-179.1742C50.2515,-168.2981 40.8988,-155.6679 34,-143 19.0101,-115.475 16.9511,-106.9485 12,-76 10.5958,-67.2227 8.1325,-64.0034 12,-56 18.2828,-42.9981 30.2235,-32.5481 41.6451,-24.9145"/>
<polygon fill="#191970" stroke="#191970" points="43.5177,-27.8718 50.1759,-19.6305 39.8316,-21.9209 43.5177,-27.8718"/>
</g>
<!-- Node3 -->
<g id="node4" class="node">
<title>Node3</title>
<g id="a_node4"><a xlink:href="../../d9/d80/InteractionRecord_8h.html" target="_top" xlink:title="CommonDataFormat/Interaction\lRecord.h">
<polygon fill="none" stroke="#000000" points="279,-112.5 279,-142.5 453,-142.5 453,-112.5 279,-112.5"/>
<text text-anchor="start" x="287" y="-130.5" font-family="Helvetica,sans-Serif" font-size="10.00" fill="#000000">CommonDataFormat/Interaction</text>
<text text-anchor="middle" x="366" y="-119.5" font-family="Helvetica,sans-Serif" font-size="10.00" fill="#000000">Record.h</text>
</a>
</g>
</g>
<!-- Node0&#45;&gt;Node3 -->
<g id="edge3" class="edge">
<title>Node0&#45;&gt;Node3</title>
<path fill="none" stroke="#191970" d="M178.1693,-184.1205C220.127,-171.4726 269.0326,-156.7302 306.4213,-145.4597"/>
<polygon fill="#191970" stroke="#191970" points="307.5913,-148.7626 316.1555,-142.5253 305.5709,-142.0605 307.5913,-148.7626"/>
</g>
<!-- Node8 -->
<g id="node9" class="node">
<title>Node8</title>
<g id="a_node9"><a xlink:href="../../de/d64/RangeReference_8h.html" target="_top" xlink:title="Class to refer to the 1st entry and N elements of some group in the continuous container. ">
<polygon fill="none" stroke="#000000" points="51,-118 51,-137 261,-137 261,-118 51,-118"/>
<text text-anchor="middle" x="156" y="-125" font-family="Helvetica,sans-Serif" font-size="10.00" fill="#000000">CommonDataFormat/RangeReference.h</text>
</a>
</g>
</g>
<!-- Node0&#45;&gt;Node8 -->
<g id="edge10" class="edge">
<title>Node0&#45;&gt;Node8</title>
<path fill="none" stroke="#191970" d="M114.3298,-179.4322C123.6161,-167.859 133.7944,-155.1741 141.767,-145.2382"/>
<polygon fill="#191970" stroke="#191970" points="144.599,-147.3012 148.1275,-137.3112 139.1393,-142.9204 144.599,-147.3012"/>
</g>
<!-- Node3&#45;&gt;Node1 -->
<g id="edge6" class="edge">
<title>Node3&#45;&gt;Node1</title>
<path fill="none" stroke="#191970" d="M278.6916,-112.9748C223.0747,-103.3579 149.5932,-89.9784 85,-76 83.3165,-75.6357 81.5961,-75.2515 79.8606,-74.8544"/>
<polygon fill="#191970" stroke="#191970" points="80.446,-71.3961 69.9075,-72.4874 78.8264,-78.2062 80.446,-71.3961"/>
</g>
<!-- Node4 -->
<g id="node5" class="node">
<title>Node4</title>
<g id="a_node5"><a xlink:href="../../d2/d45/GPUCommonRtypes_8h.html" target="_top" xlink:title="GPUCommonRtypes.h">
<polygon fill="none" stroke="#000000" points="93.5,-56.5 93.5,-75.5 218.5,-75.5 218.5,-56.5 93.5,-56.5"/>
<text text-anchor="middle" x="156" y="-63.5" font-family="Helvetica,sans-Serif" font-size="10.00" fill="#000000">GPUCommonRtypes.h</text>
</a>
</g>
</g>
<!-- Node3&#45;&gt;Node4 -->
<g id="edge4" class="edge">
<title>Node3&#45;&gt;Node4</title>
<path fill="none" stroke="#191970" d="M314.6282,-112.4554C278.9745,-102.0139 232.0439,-88.27 198.4968,-78.4455"/>
<polygon fill="#191970" stroke="#191970" points="199.1232,-74.982 188.5425,-75.5303 197.1558,-81.6998 199.1232,-74.982"/>
</g>
<!-- Node5 -->
<g id="node6" class="node">
<title>Node5</title>
<polygon fill="none" stroke="#bfbfbf" points="275.5,-56.5 275.5,-75.5 322.5,-75.5 322.5,-56.5 275.5,-56.5"/>
<text text-anchor="middle" x="299" y="-63.5" font-family="Helvetica,sans-Serif" font-size="10.00" fill="#000000">cmath</text>
</g>
<!-- Node3&#45;&gt;Node5 -->
<g id="edge7" class="edge">
<title>Node3&#45;&gt;Node5</title>
<path fill="none" stroke="#191970" d="M349.4382,-112.2977C339.6535,-103.3163 327.2526,-91.9334 317.1957,-82.702"/>
<polygon fill="#191970" stroke="#191970" points="319.4613,-80.0307 309.7275,-75.8469 314.7278,-85.1876 319.4613,-80.0307"/>
</g>
<!-- Node6 -->
<g id="node7" class="node">
<title>Node6</title>
<polygon fill="none" stroke="#bfbfbf" points="341,-56.5 341,-75.5 391,-75.5 391,-56.5 341,-56.5"/>
<text text-anchor="middle" x="366" y="-63.5" font-family="Helvetica,sans-Serif" font-size="10.00" fill="#000000">cstdint</text>
</g>
<!-- Node3&#45;&gt;Node6 -->
<g id="edge8" class="edge">
<title>Node3&#45;&gt;Node6</title>
<path fill="none" stroke="#191970" d="M366,-112.2977C366,-104.3834 366,-94.6043 366,-86.0759"/>
<polygon fill="#191970" stroke="#191970" points="369.5001,-85.8469 366,-75.8469 362.5001,-85.847 369.5001,-85.8469"/>
</g>
<!-- Node7 -->
<g id="node8" class="node">
<title>Node7</title>
<g id="a_node8"><a xlink:href="../../d4/dc6/LHCConstants_8h.html" target="_top" xlink:title="Header to collect LHC related constants. ">
<polygon fill="none" stroke="#000000" points="409,-56.5 409,-75.5 599,-75.5 599,-56.5 409,-56.5"/>
<text text-anchor="middle" x="504" y="-63.5" font-family="Helvetica,sans-Serif" font-size="10.00" fill="#000000">CommonConstants/LHCConstants.h</text>
</a>
</g>
</g>
<!-- Node3&#45;&gt;Node7 -->
<g id="edge9" class="edge">
<title>Node3&#45;&gt;Node7</title>
<path fill="none" stroke="#191970" d="M399.7586,-112.4554C422.2793,-102.419 451.6467,-89.3314 473.4692,-79.6061"/>
<polygon fill="#191970" stroke="#191970" points="474.9056,-82.7979 482.6149,-75.5303 472.0561,-76.4041 474.9056,-82.7979"/>
</g>
<!-- Node4&#45;&gt;Node2 -->
<g id="edge5" class="edge">
<title>Node4&#45;&gt;Node2</title>
<path fill="none" stroke="#191970" d="M141.0199,-56.2455C127.8249,-47.6534 108.3949,-35.0014 93.1921,-25.1018"/>
<polygon fill="#191970" stroke="#191970" points="95.0983,-22.1665 84.8084,-19.6427 91.2785,-28.0325 95.0983,-22.1665"/>
</g>
<!-- Node8&#45;&gt;Node4 -->
<g id="edge11" class="edge">
<title>Node8&#45;&gt;Node4</title>
<path fill="none" stroke="#191970" d="M156,-117.8906C156,-109.3657 156,-96.6392 156,-85.9235"/>
<polygon fill="#191970" stroke="#191970" points="159.5001,-85.7448 156,-75.7449 152.5001,-85.7449 159.5001,-85.7448"/>
</g>
</g>
</svg>
