<?xml version="1.0" encoding="UTF-8" standalone="no"?>
<!DOCTYPE svg PUBLIC "-//W3C//DTD SVG 1.1//EN"
 "http://www.w3.org/Graphics/SVG/1.1/DTD/svg11.dtd">
<!-- Generated by graphviz version 2.40.1 (20161225.0304)
 -->
<!-- Title: GPUCA_NAMESPACE::gpu::GPUTRDTracker_t&lt; T, P &gt;::Hypothesis Pages: 1 -->
<svg width="194pt" height="270pt"
 viewBox="0.00 0.00 194.00 270.00" xmlns="http://www.w3.org/2000/svg" xmlns:xlink="http://www.w3.org/1999/xlink">
<g id="graph0" class="graph" transform="scale(1 1) rotate(0) translate(4 266)">
<title>GPUCA_NAMESPACE::gpu::GPUTRDTracker_t&lt; T, P &gt;::Hypothesis</title>
<!-- Node1 -->
<g id="node1" class="node">
<title>Node1</title>
<polygon fill="#bfbfbf" stroke="#000000" points="0,-.5 0,-101.5 140,-101.5 140,-.5 0,-.5"/>
<text text-anchor="start" x="8" y="-89.5" font-family="Helvetica,sans-Serif" font-size="10.00" fill="#000000">GPUCA_NAMESPACE::gpu</text>
<text text-anchor="start" x="8" y="-78.5" font-family="Helvetica,sans-Serif" font-size="10.00" fill="#000000">::GPUTRDTracker_t&lt; T,</text>
<text text-anchor="middle" x="70" y="-67.5" font-family="Helvetica,sans-Serif" font-size="10.00" fill="#000000"> P &gt;::Hypothesis</text>
<polyline fill="none" stroke="#000000" points="0,-60.5 140,-60.5 "/>
<text text-anchor="middle" x="70" y="-48.5" font-family="Helvetica,sans-Serif" font-size="10.00" fill="#000000"> </text>
<polyline fill="none" stroke="#000000" points="0,-41.5 140,-41.5 "/>
<text text-anchor="start" x="8" y="-29.5" font-family="Helvetica,sans-Serif" font-size="10.00" fill="#000000">+ GPUd()</text>
<text text-anchor="start" x="8" y="-18.5" font-family="Helvetica,sans-Serif" font-size="10.00" fill="#000000">+ GPUd()</text>
<text text-anchor="start" x="8" y="-7.5" font-family="Helvetica,sans-Serif" font-size="10.00" fill="#000000">+ GPUd()</text>
</g>
<!-- Node2 -->
<g id="node2" class="node">
<title>Node2</title>
<g id="a_node2"><a xlink:href="../../d4/dc3/classfloat.html" target="_top" xlink:title="{float\n||}">
<polygon fill="none" stroke="#000000" points="4,-204.5 4,-261.5 42,-261.5 42,-204.5 4,-204.5"/>
<text text-anchor="middle" x="23" y="-249.5" font-family="Helvetica,sans-Serif" font-size="10.00" fill="#000000">float</text>
<polyline fill="none" stroke="#000000" points="4,-242.5 42,-242.5 "/>
<text text-anchor="middle" x="23" y="-230.5" font-family="Helvetica,sans-Serif" font-size="10.00" fill="#000000"> </text>
<polyline fill="none" stroke="#000000" points="4,-223.5 42,-223.5 "/>
<text text-anchor="middle" x="23" y="-211.5" font-family="Helvetica,sans-Serif" font-size="10.00" fill="#000000"> </text>
</a>
</g>
</g>
<!-- Node2&#45;&gt;Node1 -->
<g id="edge1" class="edge">
<title>Node2&#45;&gt;Node1</title>
<path fill="none" stroke="#404040" d="M18.8256,-204.4525C16.4627,-181.184 15.463,-147.7525 24,-120 24.7441,-117.5811 25.6029,-115.1691 26.5571,-112.7744"/>
<polygon fill="none" stroke="#404040" points="26.623,-112.6313 25.5021,-105.5078 31.6465,-101.7333 32.7674,-108.8568 26.623,-112.6313"/>
<text text-anchor="middle" x="59.5" y="-156" font-family="Helvetica,sans-Serif" font-size="10.00" fill="#000000"> +mChi2YZPhi</text>
<text text-anchor="middle" x="59.5" y="-145" font-family="Helvetica,sans-Serif" font-size="10.00" fill="#000000">+mChi2</text>
</g>
<!-- Node3 -->
<g id="node3" class="node">
<title>Node3</title>
<polygon fill="none" stroke="#bfbfbf" points="102.5,-204.5 102.5,-261.5 131.5,-261.5 131.5,-204.5 102.5,-204.5"/>
<text text-anchor="middle" x="117" y="-249.5" font-family="Helvetica,sans-Serif" font-size="10.00" fill="#000000">int</text>
<polyline fill="none" stroke="#bfbfbf" points="102.5,-242.5 131.5,-242.5 "/>
<text text-anchor="middle" x="117" y="-230.5" font-family="Helvetica,sans-Serif" font-size="10.00" fill="#000000"> </text>
<polyline fill="none" stroke="#bfbfbf" points="102.5,-223.5 131.5,-223.5 "/>
<text text-anchor="middle" x="117" y="-211.5" font-family="Helvetica,sans-Serif" font-size="10.00" fill="#000000"> </text>
</g>
<!-- Node3&#45;&gt;Node1 -->
<g id="edge2" class="edge">
<title>Node3&#45;&gt;Node1</title>
<path fill="none" stroke="#404040" d="M112.6925,-204.3879C108.926,-181.372 102.835,-148.316 95,-120 94.3757,-117.7436 93.7121,-115.4556 93.0183,-113.1522"/>
<polygon fill="none" stroke="#404040" points="92.9753,-113.0169 87.3445,-108.5119 89.3372,-101.5816 94.968,-106.0865 92.9753,-113.0169"/>
<text text-anchor="middle" x="147.5" y="-178" font-family="Helvetica,sans-Serif" font-size="10.00" fill="#000000"> +mLayers</text>
<text text-anchor="middle" x="147.5" y="-167" font-family="Helvetica,sans-Serif" font-size="10.00" fill="#000000">+chi2</text>
<text text-anchor="middle" x="147.5" y="-156" font-family="Helvetica,sans-Serif" font-size="10.00" fill="#000000">+candidateId</text>
<text text-anchor="middle" x="147.5" y="-145" font-family="Helvetica,sans-Serif" font-size="10.00" fill="#000000">+mCandidateId</text>
<text text-anchor="middle" x="147.5" y="-134" font-family="Helvetica,sans-Serif" font-size="10.00" fill="#000000">+trackletId</text>
<text text-anchor="middle" x="147.5" y="-123" font-family="Helvetica,sans-Serif" font-size="10.00" fill="#000000">+mTrackletId</text>
</g>
</g>
</svg>
