<?xml version="1.0" encoding="UTF-8" standalone="no"?>
<!DOCTYPE svg PUBLIC "-//W3C//DTD SVG 1.1//EN"
 "http://www.w3.org/Graphics/SVG/1.1/DTD/svg11.dtd">
<!-- Generated by graphviz version 2.40.1 (20161225.0304)
 -->
<!-- Title: /home/travis/build/AliceO2Group/AliceO2/Detectors/ITSMFT/ITS/reconstruction/include/ITSReconstruction/TrivialClustererTask.h Pages: 1 -->
<svg width="2458pt" height="586pt"
 viewBox="0.00 0.00 2458.20 586.00" xmlns="http://www.w3.org/2000/svg" xmlns:xlink="http://www.w3.org/1999/xlink">
<g id="graph0" class="graph" transform="scale(1 1) rotate(0) translate(4 582)">
<title>/home/travis/build/AliceO2Group/AliceO2/Detectors/ITSMFT/ITS/reconstruction/include/ITSReconstruction/TrivialClustererTask.h</title>
<!-- Node0 -->
<g id="node1" class="node">
<title>Node0</title>
<polygon fill="#bfbfbf" stroke="#000000" points="1074.5,-503.5 1074.5,-577.5 1257.5,-577.5 1257.5,-503.5 1074.5,-503.5"/>
<text text-anchor="start" x="1082.5" y="-565.5" font-family="Helvetica,sans-Serif" font-size="10.00" fill="#000000">/home/travis/build</text>
<text text-anchor="start" x="1082.5" y="-554.5" font-family="Helvetica,sans-Serif" font-size="10.00" fill="#000000">/AliceO2Group/AliceO2</text>
<text text-anchor="start" x="1082.5" y="-543.5" font-family="Helvetica,sans-Serif" font-size="10.00" fill="#000000">/Detectors/ITSMFT/ITS</text>
<text text-anchor="start" x="1082.5" y="-532.5" font-family="Helvetica,sans-Serif" font-size="10.00" fill="#000000">/reconstruction/include</text>
<text text-anchor="start" x="1082.5" y="-521.5" font-family="Helvetica,sans-Serif" font-size="10.00" fill="#000000">/ITSReconstruction/TrivialClusterer</text>
<text text-anchor="middle" x="1166" y="-510.5" font-family="Helvetica,sans-Serif" font-size="10.00" fill="#000000">Task.h</text>
</g>
<!-- Node1 -->
<g id="node2" class="node">
<title>Node1</title>
<polygon fill="none" stroke="#bfbfbf" points="1014.5,-442 1014.5,-461 1079.5,-461 1079.5,-442 1014.5,-442"/>
<text text-anchor="middle" x="1047" y="-449" font-family="Helvetica,sans-Serif" font-size="10.00" fill="#000000">FairTask.h</text>
</g>
<!-- Node0&#45;&gt;Node1 -->
<g id="edge1" class="edge">
<title>Node0&#45;&gt;Node1</title>
<path fill="none" stroke="#191970" d="M1116.2228,-503.2717C1099.2953,-490.6116 1081.2887,-477.1445 1067.8847,-467.1196"/>
<polygon fill="#191970" stroke="#191970" points="1069.903,-464.2585 1059.7986,-461.0721 1065.7105,-469.8642 1069.903,-464.2585"/>
</g>
<!-- Node2 -->
<g id="node3" class="node">
<title>Node2</title>
<g id="a_node3"><a xlink:href="../../df/d9a/ITS_2base_2include_2ITSBase_2GeometryTGeo_8h.html" target="_top" xlink:title="ITSBase/GeometryTGeo.h">
<polygon fill="none" stroke="#000000" points="1271,-442 1271,-461 1413,-461 1413,-442 1271,-442"/>
<text text-anchor="middle" x="1342" y="-449" font-family="Helvetica,sans-Serif" font-size="10.00" fill="#000000">ITSBase/GeometryTGeo.h</text>
</a>
</g>
</g>
<!-- Node0&#45;&gt;Node2 -->
<g id="edge2" class="edge">
<title>Node0&#45;&gt;Node2</title>
<path fill="none" stroke="#191970" d="M1239.3654,-503.4005C1265.7473,-490.0596 1293.9347,-475.8057 1314.0816,-465.6179"/>
<polygon fill="#191970" stroke="#191970" points="1315.665,-468.7392 1323.0095,-461.1032 1312.5061,-462.4925 1315.665,-468.7392"/>
</g>
<!-- Node48 -->
<g id="node49" class="node">
<title>Node48</title>
<g id="a_node49"><a xlink:href="../../d1/d76/TrivialClusterer_8h.html" target="_top" xlink:title="Definition of the ITS cluster finder. ">
<polygon fill="none" stroke="#000000" points="1098,-436.5 1098,-466.5 1234,-466.5 1234,-436.5 1098,-436.5"/>
<text text-anchor="start" x="1106" y="-454.5" font-family="Helvetica,sans-Serif" font-size="10.00" fill="#000000">ITSReconstruction/Trivial</text>
<text text-anchor="middle" x="1166" y="-443.5" font-family="Helvetica,sans-Serif" font-size="10.00" fill="#000000">Clusterer.h</text>
</a>
</g>
</g>
<!-- Node0&#45;&gt;Node48 -->
<g id="edge66" class="edge">
<title>Node0&#45;&gt;Node48</title>
<path fill="none" stroke="#191970" d="M1166,-503.2717C1166,-494.3955 1166,-485.1226 1166,-476.9174"/>
<polygon fill="#191970" stroke="#191970" points="1169.5001,-476.8693 1166,-466.8693 1162.5001,-476.8693 1169.5001,-476.8693"/>
</g>
<!-- Node3 -->
<g id="node4" class="node">
<title>Node3</title>
<polygon fill="none" stroke="#bfbfbf" points="1347,-185 1347,-204 1429,-204 1429,-185 1347,-185"/>
<text text-anchor="middle" x="1388" y="-192" font-family="Helvetica,sans-Serif" font-size="10.00" fill="#000000">TGeoMatrix.h</text>
</g>
<!-- Node2&#45;&gt;Node3 -->
<g id="edge3" class="edge">
<title>Node2&#45;&gt;Node3</title>
<path fill="none" stroke="#191970" d="M1338.2558,-441.9121C1327.0078,-411.5132 1296.1963,-315.2108 1328,-246 1334.9858,-230.7977 1348.9188,-218.3979 1361.6011,-209.5778"/>
<polygon fill="#191970" stroke="#191970" points="1363.6126,-212.4446 1370.0805,-204.0531 1359.7913,-206.5796 1363.6126,-212.4446"/>
</g>
<!-- Node4 -->
<g id="node5" class="node">
<title>Node4</title>
<polygon fill="none" stroke="#bfbfbf" points="1408.5,-319 1408.5,-338 1471.5,-338 1471.5,-319 1408.5,-319"/>
<text text-anchor="middle" x="1440" y="-326" font-family="Helvetica,sans-Serif" font-size="10.00" fill="#000000">TObject.h</text>
</g>
<!-- Node2&#45;&gt;Node4 -->
<g id="edge4" class="edge">
<title>Node2&#45;&gt;Node4</title>
<path fill="none" stroke="#191970" d="M1353.0539,-441.8688C1364.0888,-431.9638 1381.2017,-415.7954 1394,-400 1407.7205,-383.0664 1420.9167,-361.8803 1429.6289,-346.9807"/>
<polygon fill="#191970" stroke="#191970" points="1432.7234,-348.6203 1434.667,-338.2052 1426.6527,-345.135 1432.7234,-348.6203"/>
</g>
<!-- Node5 -->
<g id="node6" class="node">
<title>Node5</title>
<polygon fill="none" stroke="#bfbfbf" points="1544,-118 1544,-137 1586,-137 1586,-118 1544,-118"/>
<text text-anchor="middle" x="1565" y="-125" font-family="Helvetica,sans-Serif" font-size="10.00" fill="#000000">array</text>
</g>
<!-- Node2&#45;&gt;Node5 -->
<g id="edge5" class="edge">
<title>Node2&#45;&gt;Node5</title>
<path fill="none" stroke="#191970" d="M1343.2249,-441.8466C1346.9185,-416.7885 1360.2555,-349.1133 1400,-313 1439.9519,-276.6982 1477.529,-314.8677 1516,-277 1552.0599,-241.5056 1561.5901,-179.0962 1564.1036,-147.3114"/>
<polygon fill="#191970" stroke="#191970" points="1567.6116,-147.2939 1564.7483,-137.0933 1560.6255,-146.8531 1567.6116,-147.2939"/>
</g>
<!-- Node6 -->
<g id="node7" class="node">
<title>Node6</title>
<polygon fill="none" stroke="#bfbfbf" points="1194,-319 1194,-338 1238,-338 1238,-319 1194,-319"/>
<text text-anchor="middle" x="1216" y="-326" font-family="Helvetica,sans-Serif" font-size="10.00" fill="#000000">string</text>
</g>
<!-- Node2&#45;&gt;Node6 -->
<g id="edge6" class="edge">
<title>Node2&#45;&gt;Node6</title>
<path fill="none" stroke="#191970" d="M1316.8482,-441.886C1297.1799,-433.3347 1270.2071,-419.2044 1252,-400 1237.8604,-385.0858 1228.044,-363.5446 1222.2742,-348.0087"/>
<polygon fill="#191970" stroke="#191970" points="1225.5123,-346.6641 1218.9228,-338.3678 1218.9004,-348.9626 1225.5123,-346.6641"/>
</g>
<!-- Node7 -->
<g id="node8" class="node">
<title>Node7</title>
<polygon fill="none" stroke="#bfbfbf" points="906.5,-252 906.5,-271 953.5,-271 953.5,-252 906.5,-252"/>
<text text-anchor="middle" x="930" y="-259" font-family="Helvetica,sans-Serif" font-size="10.00" fill="#000000">vector</text>
</g>
<!-- Node2&#45;&gt;Node7 -->
<g id="edge7" class="edge">
<title>Node2&#45;&gt;Node7</title>
<path fill="none" stroke="#191970" d="M1330.1346,-441.7963C1318.7964,-432.0854 1301.7401,-416.2847 1290,-400 1264.7765,-365.0125 1282.131,-338.0232 1247,-313 1143.3688,-239.1852 1085.1854,-312.4792 963,-277 961.0852,-276.444 959.1421,-275.7902 957.2064,-275.071"/>
<polygon fill="#191970" stroke="#191970" points="958.3318,-271.747 947.7579,-271.0808 955.6085,-278.1955 958.3318,-271.747"/>
</g>
<!-- Node8 -->
<g id="node9" class="node">
<title>Node8</title>
<g id="a_node9"><a xlink:href="../../db/dcc/Detectors_2Base_2include_2DetectorsBase_2GeometryManager_8h.html" target="_top" xlink:title="DetectorsBase/GeometryManager.h">
<polygon fill="none" stroke="#000000" points="1744,-380.5 1744,-399.5 1934,-399.5 1934,-380.5 1744,-380.5"/>
<text text-anchor="middle" x="1839" y="-387.5" font-family="Helvetica,sans-Serif" font-size="10.00" fill="#000000">DetectorsBase/GeometryManager.h</text>
</a>
</g>
</g>
<!-- Node2&#45;&gt;Node8 -->
<g id="edge8" class="edge">
<title>Node2&#45;&gt;Node8</title>
<path fill="none" stroke="#191970" d="M1413.208,-442.6885C1502.6437,-431.6216 1656.0089,-412.6438 1752.2141,-400.7391"/>
<polygon fill="#191970" stroke="#191970" points="1752.7135,-404.2041 1762.2079,-399.5024 1751.8538,-397.2571 1752.7135,-404.2041"/>
</g>
<!-- Node15 -->
<g id="node16" class="node">
<title>Node15</title>
<g id="a_node16"><a xlink:href="../../d6/d31/DetID_8h.html" target="_top" xlink:title="DetectorsCommonDataFormats\l/DetID.h">
<polygon fill="none" stroke="#000000" points="1681.5,-246.5 1681.5,-276.5 1852.5,-276.5 1852.5,-246.5 1681.5,-246.5"/>
<text text-anchor="start" x="1689.5" y="-264.5" font-family="Helvetica,sans-Serif" font-size="10.00" fill="#000000">DetectorsCommonDataFormats</text>
<text text-anchor="middle" x="1767" y="-253.5" font-family="Helvetica,sans-Serif" font-size="10.00" fill="#000000">/DetID.h</text>
</a>
</g>
</g>
<!-- Node2&#45;&gt;Node15 -->
<g id="edge51" class="edge">
<title>Node2&#45;&gt;Node15</title>
<path fill="none" stroke="#191970" d="M1413.3748,-449.9056C1644.2055,-444.0154 2359.5138,-419.7448 2427,-344 2436.1654,-333.713 2436.3557,-323.1142 2427,-313 2408.1357,-292.6064 2041.1985,-273.6377 1862.7896,-265.5771"/>
<polygon fill="#191970" stroke="#191970" points="1862.7635,-262.0725 1852.6165,-265.12 1862.4493,-269.0654 1862.7635,-262.0725"/>
</g>
<!-- Node16 -->
<g id="node17" class="node">
<title>Node16</title>
<polygon fill="none" stroke="#bfbfbf" points="1447.5,-185 1447.5,-204 1506.5,-204 1506.5,-185 1447.5,-185"/>
<text text-anchor="middle" x="1477" y="-192" font-family="Helvetica,sans-Serif" font-size="10.00" fill="#000000">Rtypes.h</text>
</g>
<!-- Node2&#45;&gt;Node16 -->
<g id="edge65" class="edge">
<title>Node2&#45;&gt;Node16</title>
<path fill="none" stroke="#191970" d="M1340.5544,-441.7576C1336.4038,-410.068 1327.4879,-308.3736 1373,-246 1377.7214,-239.5294 1416.7077,-221.2253 1445.5673,-208.2861"/>
<polygon fill="#191970" stroke="#191970" points="1447.1912,-211.3944 1454.9021,-204.1286 1444.3432,-204.9999 1447.1912,-211.3944"/>
</g>
<!-- Node21 -->
<g id="node22" class="node">
<title>Node21</title>
<g id="a_node22"><a xlink:href="../../d9/d52/Common_2MathUtils_2include_2MathUtils_2Utils_8h.html" target="_top" xlink:title="MathUtils/Utils.h">
<polygon fill="none" stroke="#000000" points="1926,-185 1926,-204 2024,-204 2024,-185 1926,-185"/>
<text text-anchor="middle" x="1975" y="-192" font-family="Helvetica,sans-Serif" font-size="10.00" fill="#000000">MathUtils/Utils.h</text>
</a>
</g>
</g>
<!-- Node2&#45;&gt;Node21 -->
<g id="edge64" class="edge">
<title>Node2&#45;&gt;Node21</title>
<path fill="none" stroke="#191970" d="M1413.115,-450.4374C1604.2244,-447.1381 2125.7918,-435.0927 2294,-400 2363.6612,-385.4668 2403.4243,-402.4595 2444,-344 2451.856,-332.6814 2452.4654,-323.8703 2444,-313 2393.7857,-248.5203 2148.8449,-213.5909 2034.2857,-200.5489"/>
<polygon fill="#191970" stroke="#191970" points="2034.6059,-197.063 2024.2783,-199.4277 2033.8264,-204.0195 2034.6059,-197.063"/>
</g>
<!-- Node42 -->
<g id="node43" class="node">
<title>Node42</title>
<g id="a_node43"><a xlink:href="../../d0/d2d/common_2base_2include_2ITSMFTBase_2GeometryTGeo_8h.html" target="_top" xlink:title="ITSMFTBase/GeometryTGeo.h">
<polygon fill="none" stroke="#000000" points="976.5,-380.5 976.5,-399.5 1137.5,-399.5 1137.5,-380.5 976.5,-380.5"/>
<text text-anchor="middle" x="1057" y="-387.5" font-family="Helvetica,sans-Serif" font-size="10.00" fill="#000000">ITSMFTBase/GeometryTGeo.h</text>
</a>
</g>
</g>
<!-- Node2&#45;&gt;Node42 -->
<g id="edge52" class="edge">
<title>Node2&#45;&gt;Node42</title>
<path fill="none" stroke="#191970" d="M1297.7815,-441.9581C1247.5473,-431.1181 1165.5427,-413.4224 1111.4228,-401.7439"/>
<polygon fill="#191970" stroke="#191970" points="1111.8356,-398.2524 1101.3223,-399.5643 1110.359,-405.095 1111.8356,-398.2524"/>
</g>
<!-- Node8&#45;&gt;Node4 -->
<g id="edge14" class="edge">
<title>Node8&#45;&gt;Node4</title>
<path fill="none" stroke="#191970" d="M1743.7133,-382.6654C1672.1601,-375.9348 1572.105,-363.9154 1486,-344 1482.5285,-343.1971 1478.9489,-342.2365 1475.3916,-341.1924"/>
<polygon fill="#191970" stroke="#191970" points="1476.1232,-337.7535 1465.5337,-338.0897 1474.0216,-344.4306 1476.1232,-337.7535"/>
</g>
<!-- Node9 -->
<g id="node10" class="node">
<title>Node9</title>
<polygon fill="none" stroke="#bfbfbf" points="1622,-319 1622,-338 1714,-338 1714,-319 1622,-319"/>
<text text-anchor="middle" x="1668" y="-326" font-family="Helvetica,sans-Serif" font-size="10.00" fill="#000000">TGeoManager.h</text>
</g>
<!-- Node8&#45;&gt;Node9 -->
<g id="edge9" class="edge">
<title>Node8&#45;&gt;Node9</title>
<path fill="none" stroke="#191970" d="M1812.2813,-380.3906C1783.1679,-369.92 1736.4308,-353.1111 1704.0753,-341.4745"/>
<polygon fill="#191970" stroke="#191970" points="1705.1256,-338.1328 1694.5311,-338.0419 1702.7565,-344.7197 1705.1256,-338.1328"/>
</g>
<!-- Node10 -->
<g id="node11" class="node">
<title>Node10</title>
<polygon fill="none" stroke="#bfbfbf" points="1732.5,-319 1732.5,-338 1823.5,-338 1823.5,-319 1732.5,-319"/>
<text text-anchor="middle" x="1778" y="-326" font-family="Helvetica,sans-Serif" font-size="10.00" fill="#000000">TGeoMaterial.h</text>
</g>
<!-- Node8&#45;&gt;Node10 -->
<g id="edge10" class="edge">
<title>Node8&#45;&gt;Node10</title>
<path fill="none" stroke="#191970" d="M1829.4688,-380.3906C1820.2121,-371.0581 1805.961,-356.6902 1794.7997,-345.4374"/>
<polygon fill="#191970" stroke="#191970" points="1797.1928,-342.88 1787.6656,-338.2449 1792.2228,-347.8095 1797.1928,-342.88"/>
</g>
<!-- Node11 -->
<g id="node12" class="node">
<title>Node11</title>
<polygon fill="none" stroke="#bfbfbf" points="1841.5,-319 1841.5,-338 1958.5,-338 1958.5,-319 1841.5,-319"/>
<text text-anchor="middle" x="1900" y="-326" font-family="Helvetica,sans-Serif" font-size="10.00" fill="#000000">TGeoPhysicalNode.h</text>
</g>
<!-- Node8&#45;&gt;Node11 -->
<g id="edge11" class="edge">
<title>Node8&#45;&gt;Node11</title>
<path fill="none" stroke="#191970" d="M1848.5313,-380.3906C1857.7879,-371.0581 1872.039,-356.6902 1883.2003,-345.4374"/>
<polygon fill="#191970" stroke="#191970" points="1885.7772,-347.8095 1890.3344,-338.2449 1880.8072,-342.88 1885.7772,-347.8095"/>
</g>
<!-- Node12 -->
<g id="node13" class="node">
<title>Node12</title>
<polygon fill="none" stroke="#bfbfbf" points="1976.5,-319 1976.5,-338 2057.5,-338 2057.5,-319 1976.5,-319"/>
<text text-anchor="middle" x="2017" y="-326" font-family="Helvetica,sans-Serif" font-size="10.00" fill="#000000">TGeoShape.h</text>
</g>
<!-- Node8&#45;&gt;Node12 -->
<g id="edge12" class="edge">
<title>Node8&#45;&gt;Node12</title>
<path fill="none" stroke="#191970" d="M1866.8125,-380.3906C1897.2483,-369.8749 1946.1877,-352.966 1979.8826,-341.3243"/>
<polygon fill="#191970" stroke="#191970" points="1981.074,-344.6157 1989.3828,-338.0419 1978.788,-337.9995 1981.074,-344.6157"/>
</g>
<!-- Node13 -->
<g id="node14" class="node">
<title>Node13</title>
<polygon fill="none" stroke="#bfbfbf" points="2076,-319 2076,-338 2132,-338 2132,-319 2076,-319"/>
<text text-anchor="middle" x="2104" y="-326" font-family="Helvetica,sans-Serif" font-size="10.00" fill="#000000">TMath.h</text>
</g>
<!-- Node8&#45;&gt;Node13 -->
<g id="edge13" class="edge">
<title>Node8&#45;&gt;Node13</title>
<path fill="none" stroke="#191970" d="M1903.7268,-380.4456C1949.8347,-372.7947 2012.9567,-360.593 2067,-344 2069.1638,-343.3357 2071.3745,-342.5902 2073.5853,-341.7949"/>
<polygon fill="#191970" stroke="#191970" points="2075.0795,-344.9693 2083.1339,-338.0862 2072.5451,-338.4442 2075.0795,-344.9693"/>
</g>
<!-- Node14 -->
<g id="node15" class="node">
<title>Node14</title>
<polygon fill="none" stroke="#bfbfbf" points="2150.5,-319 2150.5,-338 2223.5,-338 2223.5,-319 2150.5,-319"/>
<text text-anchor="middle" x="2187" y="-326" font-family="Helvetica,sans-Serif" font-size="10.00" fill="#000000">string_view</text>
</g>
<!-- Node8&#45;&gt;Node14 -->
<g id="edge15" class="edge">
<title>Node8&#45;&gt;Node14</title>
<path fill="none" stroke="#191970" d="M1928.6607,-380.4891C1989.1629,-373.0612 2070.5201,-361.1044 2141,-344 2144.3782,-343.1802 2147.8621,-342.2221 2151.3298,-341.1916"/>
<polygon fill="#191970" stroke="#191970" points="2152.4774,-344.4997 2160.959,-338.1505 2150.3692,-337.8247 2152.4774,-344.4997"/>
</g>
<!-- Node8&#45;&gt;Node15 -->
<g id="edge16" class="edge">
<title>Node8&#45;&gt;Node15</title>
<path fill="none" stroke="#191970" d="M1934.4749,-385.3996C2044.7006,-379.0899 2213.4551,-365.9596 2233,-344 2242.1601,-333.7083 2242.1917,-323.2635 2233,-313 2208.7953,-285.9729 1992.263,-271.6118 1863.0452,-265.3838"/>
<polygon fill="#191970" stroke="#191970" points="1862.8993,-261.873 1852.7448,-264.8956 1862.5678,-268.8652 1862.8993,-261.873"/>
</g>
<!-- Node29 -->
<g id="node30" class="node">
<title>Node29</title>
<polygon fill="none" stroke="#bfbfbf" points="1528.5,-319 1528.5,-338 1603.5,-338 1603.5,-319 1528.5,-319"/>
<text text-anchor="middle" x="1566" y="-326" font-family="Helvetica,sans-Serif" font-size="10.00" fill="#000000">FairLogger.h</text>
</g>
<!-- Node8&#45;&gt;Node29 -->
<g id="edge34" class="edge">
<title>Node8&#45;&gt;Node29</title>
<path fill="none" stroke="#191970" d="M1782.8491,-380.4712C1736.86,-372.2131 1670.2733,-359.2161 1613,-344 1609.6603,-343.1127 1606.2099,-342.1217 1602.766,-341.0813"/>
<polygon fill="#191970" stroke="#191970" points="1603.7644,-337.7264 1593.175,-338.0642 1601.6638,-344.4038 1603.7644,-337.7264"/>
</g>
<!-- Node30 -->
<g id="node31" class="node">
<title>Node30</title>
<g id="a_node31"><a xlink:href="../../dd/d76/Cartesian3D_8h.html" target="_top" xlink:title="MathUtils/Cartesian3D.h">
<polygon fill="none" stroke="#000000" points="971.5,-252 971.5,-271 1106.5,-271 1106.5,-252 971.5,-252"/>
<text text-anchor="middle" x="1039" y="-259" font-family="Helvetica,sans-Serif" font-size="10.00" fill="#000000">MathUtils/Cartesian3D.h</text>
</a>
</g>
</g>
<!-- Node8&#45;&gt;Node30 -->
<g id="edge35" class="edge">
<title>Node8&#45;&gt;Node30</title>
<path fill="none" stroke="#191970" d="M1743.9441,-381.8128C1664.8764,-373.9933 1559.1734,-360.9055 1520,-344 1499.6702,-335.2266 1501.4473,-321.4959 1481,-313 1417.0709,-286.4373 1226.0266,-271.826 1117.1788,-265.4508"/>
<polygon fill="#191970" stroke="#191970" points="1117.0934,-261.9402 1106.9088,-264.8594 1116.691,-268.9286 1117.0934,-261.9402"/>
</g>
<!-- Node40 -->
<g id="node41" class="node">
<title>Node40</title>
<g id="a_node41"><a xlink:href="../../db/dba/MatCell_8h.html" target="_top" xlink:title="Declarations for material properties of the cell (voxel) ">
<polygon fill="none" stroke="#000000" points="2280.5,-319 2280.5,-338 2417.5,-338 2417.5,-319 2280.5,-319"/>
<text text-anchor="middle" x="2349" y="-326" font-family="Helvetica,sans-Serif" font-size="10.00" fill="#000000">DetectorsBase/MatCell.h</text>
</a>
</g>
</g>
<!-- Node8&#45;&gt;Node40 -->
<g id="edge47" class="edge">
<title>Node8&#45;&gt;Node40</title>
<path fill="none" stroke="#191970" d="M1934.2398,-381.8654C2020.9512,-373.955 2152.3973,-360.7011 2266,-344 2274.235,-342.7894 2282.9001,-341.3532 2291.3995,-339.8512"/>
<polygon fill="#191970" stroke="#191970" points="2292.0477,-343.2908 2301.2653,-338.0672 2290.802,-336.4025 2292.0477,-343.2908"/>
</g>
<!-- Node15&#45;&gt;Node5 -->
<g id="edge18" class="edge">
<title>Node15&#45;&gt;Node5</title>
<path fill="none" stroke="#191970" d="M1699.858,-246.4487C1674.3868,-238.4988 1646.1984,-226.7993 1624,-210 1601.3861,-192.8862 1583.8742,-164.6529 1573.9951,-146.0645"/>
<polygon fill="#191970" stroke="#191970" points="1577.0835,-144.4163 1569.423,-137.0974 1570.8474,-147.596 1577.0835,-144.4163"/>
</g>
<!-- Node15&#45;&gt;Node16 -->
<g id="edge17" class="edge">
<title>Node15&#45;&gt;Node16</title>
<path fill="none" stroke="#191970" d="M1701.9183,-246.4639C1644.9762,-233.3083 1564.1213,-214.628 1516.4597,-203.6165"/>
<polygon fill="#191970" stroke="#191970" points="1517.058,-200.1627 1506.5268,-201.3217 1515.4823,-206.983 1517.058,-200.1627"/>
</g>
<!-- Node17 -->
<g id="node18" class="node">
<title>Node17</title>
<polygon fill="none" stroke="#bfbfbf" points="1859,-185 1859,-204 1903,-204 1903,-185 1859,-185"/>
<text text-anchor="middle" x="1881" y="-192" font-family="Helvetica,sans-Serif" font-size="10.00" fill="#000000">bitset</text>
</g>
<!-- Node15&#45;&gt;Node17 -->
<g id="edge19" class="edge">
<title>Node15&#45;&gt;Node17</title>
<path fill="none" stroke="#191970" d="M1792.5838,-246.4639C1811.4531,-235.3741 1837.0021,-220.3584 1855.7839,-209.32"/>
<polygon fill="#191970" stroke="#191970" points="1857.8111,-212.1883 1864.659,-204.1039 1854.2643,-206.1534 1857.8111,-212.1883"/>
</g>
<!-- Node18 -->
<g id="node19" class="node">
<title>Node18</title>
<polygon fill="none" stroke="#bfbfbf" points="1633,-185 1633,-204 1685,-204 1685,-185 1633,-185"/>
<text text-anchor="middle" x="1659" y="-192" font-family="Helvetica,sans-Serif" font-size="10.00" fill="#000000">cassert</text>
</g>
<!-- Node15&#45;&gt;Node18 -->
<g id="edge20" class="edge">
<title>Node15&#45;&gt;Node18</title>
<path fill="none" stroke="#191970" d="M1742.7627,-246.4639C1724.9682,-235.4247 1700.9031,-220.4954 1683.1331,-209.4715"/>
<polygon fill="#191970" stroke="#191970" points="1684.8237,-206.4015 1674.4809,-204.1039 1681.1335,-212.3498 1684.8237,-206.4015"/>
</g>
<!-- Node19 -->
<g id="node20" class="node">
<title>Node19</title>
<polygon fill="none" stroke="#bfbfbf" points="1703,-185 1703,-204 1753,-204 1753,-185 1703,-185"/>
<text text-anchor="middle" x="1728" y="-192" font-family="Helvetica,sans-Serif" font-size="10.00" fill="#000000">cstdint</text>
</g>
<!-- Node15&#45;&gt;Node19 -->
<g id="edge21" class="edge">
<title>Node15&#45;&gt;Node19</title>
<path fill="none" stroke="#191970" d="M1758.1503,-246.2967C1752.3689,-236.3645 1744.7858,-223.3371 1738.6709,-212.8321"/>
<polygon fill="#191970" stroke="#191970" points="1741.6175,-210.9367 1733.5618,-204.055 1735.5677,-214.4582 1741.6175,-210.9367"/>
</g>
<!-- Node20 -->
<g id="node21" class="node">
<title>Node20</title>
<polygon fill="none" stroke="#bfbfbf" points="1771.5,-185 1771.5,-204 1840.5,-204 1840.5,-185 1771.5,-185"/>
<text text-anchor="middle" x="1806" y="-192" font-family="Helvetica,sans-Serif" font-size="10.00" fill="#000000">type_traits</text>
</g>
<!-- Node15&#45;&gt;Node20 -->
<g id="edge22" class="edge">
<title>Node15&#45;&gt;Node20</title>
<path fill="none" stroke="#191970" d="M1775.8497,-246.2967C1781.6311,-236.3645 1789.2142,-223.3371 1795.3291,-212.8321"/>
<polygon fill="#191970" stroke="#191970" points="1798.4323,-214.4582 1800.4382,-204.055 1792.3825,-210.9367 1798.4323,-214.4582"/>
</g>
<!-- Node15&#45;&gt;Node21 -->
<g id="edge23" class="edge">
<title>Node15&#45;&gt;Node21</title>
<path fill="none" stroke="#191970" d="M1813.6793,-246.4639C1850.4173,-234.63 1901.0333,-218.3258 1935.715,-207.1543"/>
<polygon fill="#191970" stroke="#191970" points="1937.0458,-210.4028 1945.4911,-204.0053 1934.8995,-203.7399 1937.0458,-210.4028"/>
</g>
<!-- Node21&#45;&gt;Node5 -->
<g id="edge24" class="edge">
<title>Node21&#45;&gt;Node5</title>
<path fill="none" stroke="#191970" d="M1938.8169,-184.981C1930.0727,-182.8517 1920.7309,-180.718 1912,-179 1796.4367,-156.2604 1657.4509,-138.4876 1596.3786,-131.1542"/>
<polygon fill="#191970" stroke="#191970" points="1596.5862,-127.6543 1586.2425,-129.9474 1595.7586,-134.6052 1596.5862,-127.6543"/>
</g>
<!-- Node22 -->
<g id="node23" class="node">
<title>Node22</title>
<polygon fill="none" stroke="#bfbfbf" points="1871.5,-56.5 1871.5,-75.5 1918.5,-75.5 1918.5,-56.5 1871.5,-56.5"/>
<text text-anchor="middle" x="1895" y="-63.5" font-family="Helvetica,sans-Serif" font-size="10.00" fill="#000000">cmath</text>
</g>
<!-- Node21&#45;&gt;Node22 -->
<g id="edge25" class="edge">
<title>Node21&#45;&gt;Node22</title>
<path fill="none" stroke="#191970" d="M1956.2277,-184.9177C1941.0036,-176.1286 1920.2836,-161.6536 1909,-143 1898.4865,-125.6196 1895.4779,-102.279 1894.7942,-85.867"/>
<polygon fill="#191970" stroke="#191970" points="1898.2922,-85.7114 1894.6287,-75.7701 1891.2932,-85.8262 1898.2922,-85.7114"/>
</g>
<!-- Node23 -->
<g id="node24" class="node">
<title>Node23</title>
<g id="a_node24"><a xlink:href="../../df/d21/GPUCommonDef_8h.html" target="_top" xlink:title="GPUCommonDef.h">
<polygon fill="none" stroke="#000000" points="2022.5,-56.5 2022.5,-75.5 2129.5,-75.5 2129.5,-56.5 2022.5,-56.5"/>
<text text-anchor="middle" x="2076" y="-63.5" font-family="Helvetica,sans-Serif" font-size="10.00" fill="#000000">GPUCommonDef.h</text>
</a>
</g>
</g>
<!-- Node21&#45;&gt;Node23 -->
<g id="edge26" class="edge">
<title>Node21&#45;&gt;Node23</title>
<path fill="none" stroke="#191970" d="M1991.7882,-184.9511C2006.6355,-175.7975 2028.0471,-160.7704 2042,-143 2055.6215,-125.6517 2064.9998,-101.9932 2070.4034,-85.4962"/>
<polygon fill="#191970" stroke="#191970" points="2073.7826,-86.4151 2073.385,-75.8278 2067.0934,-84.3523 2073.7826,-86.4151"/>
</g>
<!-- Node26 -->
<g id="node27" class="node">
<title>Node26</title>
<g id="a_node27"><a xlink:href="../../d6/da2/GPUCommonMath_8h.html" target="_top" xlink:title="GPUCommonMath.h">
<polygon fill="none" stroke="#000000" points="1917.5,-118 1917.5,-137 2032.5,-137 2032.5,-118 1917.5,-118"/>
<text text-anchor="middle" x="1975" y="-125" font-family="Helvetica,sans-Serif" font-size="10.00" fill="#000000">GPUCommonMath.h</text>
</a>
</g>
</g>
<!-- Node21&#45;&gt;Node26 -->
<g id="edge29" class="edge">
<title>Node21&#45;&gt;Node26</title>
<path fill="none" stroke="#191970" d="M1975,-184.9005C1975,-175.149 1975,-159.7597 1975,-147.3695"/>
<polygon fill="#191970" stroke="#191970" points="1978.5001,-147.0816 1975,-137.0817 1971.5001,-147.0817 1978.5001,-147.0816"/>
</g>
<!-- Node28 -->
<g id="node29" class="node">
<title>Node28</title>
<g id="a_node29"><a xlink:href="../../d6/d84/MathConstants_8h.html" target="_top" xlink:title="useful math constants ">
<polygon fill="none" stroke="#000000" points="2089,-118 2089,-137 2283,-137 2283,-118 2089,-118"/>
<text text-anchor="middle" x="2186" y="-125" font-family="Helvetica,sans-Serif" font-size="10.00" fill="#000000">CommonConstants/MathConstants.h</text>
</a>
</g>
</g>
<!-- Node21&#45;&gt;Node28 -->
<g id="edge33" class="edge">
<title>Node21&#45;&gt;Node28</title>
<path fill="none" stroke="#191970" d="M2005.2312,-184.9005C2042.2869,-173.134 2105.1929,-153.1591 2146.1644,-140.1492"/>
<polygon fill="#191970" stroke="#191970" points="2147.3532,-143.444 2155.8249,-137.0817 2145.2346,-136.7723 2147.3532,-143.444"/>
</g>
<!-- Node24 -->
<g id="node25" class="node">
<title>Node24</title>
<g id="a_node25"><a xlink:href="../../d5/d93/GPUCommonDefSettings_8h.html" target="_top" xlink:title="GPUCommonDefSettings.h">
<polygon fill="none" stroke="#000000" points="1925,-.5 1925,-19.5 2073,-19.5 2073,-.5 1925,-.5"/>
<text text-anchor="middle" x="1999" y="-7.5" font-family="Helvetica,sans-Serif" font-size="10.00" fill="#000000">GPUCommonDefSettings.h</text>
</a>
</g>
</g>
<!-- Node23&#45;&gt;Node24 -->
<g id="edge27" class="edge">
<title>Node23&#45;&gt;Node24</title>
<path fill="none" stroke="#191970" d="M2062.5876,-56.2455C2050.9943,-47.814 2034.0252,-35.4729 2020.5322,-25.6598"/>
<polygon fill="#191970" stroke="#191970" points="2022.4047,-22.6938 2012.2587,-19.6427 2018.2874,-28.355 2022.4047,-22.6938"/>
</g>
<!-- Node25 -->
<g id="node26" class="node">
<title>Node25</title>
<g id="a_node26"><a xlink:href="../../da/d5a/GPUCommonDefAPI_8h.html" target="_top" xlink:title="GPUCommonDefAPI.h">
<polygon fill="none" stroke="#000000" points="2091,-.5 2091,-19.5 2215,-19.5 2215,-.5 2091,-.5"/>
<text text-anchor="middle" x="2153" y="-7.5" font-family="Helvetica,sans-Serif" font-size="10.00" fill="#000000">GPUCommonDefAPI.h</text>
</a>
</g>
</g>
<!-- Node23&#45;&gt;Node25 -->
<g id="edge28" class="edge">
<title>Node23&#45;&gt;Node25</title>
<path fill="none" stroke="#191970" d="M2089.4124,-56.2455C2101.0057,-47.814 2117.9748,-35.4729 2131.4678,-25.6598"/>
<polygon fill="#191970" stroke="#191970" points="2133.7126,-28.355 2139.7413,-19.6427 2129.5953,-22.6938 2133.7126,-28.355"/>
</g>
<!-- Node26&#45;&gt;Node22 -->
<g id="edge31" class="edge">
<title>Node26&#45;&gt;Node22</title>
<path fill="none" stroke="#191970" d="M1962.5,-117.8906C1949.9364,-108.2324 1930.3577,-93.1812 1915.5151,-81.771"/>
<polygon fill="#191970" stroke="#191970" points="1917.4735,-78.8618 1907.4122,-75.5419 1913.2072,-84.4115 1917.4735,-78.8618"/>
</g>
<!-- Node26&#45;&gt;Node23 -->
<g id="edge30" class="edge">
<title>Node26&#45;&gt;Node23</title>
<path fill="none" stroke="#191970" d="M1990.7813,-117.8906C2007.0875,-107.9616 2032.754,-92.333 2051.6614,-80.8201"/>
<polygon fill="#191970" stroke="#191970" points="2053.6087,-83.7322 2060.3296,-75.5419 2049.9681,-77.7533 2053.6087,-83.7322"/>
</g>
<!-- Node27 -->
<g id="node28" class="node">
<title>Node27</title>
<polygon fill="none" stroke="#bfbfbf" points="1940,-56.5 1940,-75.5 2004,-75.5 2004,-56.5 1940,-56.5"/>
<text text-anchor="middle" x="1972" y="-63.5" font-family="Helvetica,sans-Serif" font-size="10.00" fill="#000000">algorithm</text>
</g>
<!-- Node26&#45;&gt;Node27 -->
<g id="edge32" class="edge">
<title>Node26&#45;&gt;Node27</title>
<path fill="none" stroke="#191970" d="M1974.5313,-117.8906C1974.1154,-109.3657 1973.4946,-96.6392 1972.9719,-85.9235"/>
<polygon fill="#191970" stroke="#191970" points="1976.4585,-85.5624 1972.4754,-75.7449 1969.4668,-85.9035 1976.4585,-85.5624"/>
</g>
<!-- Node30&#45;&gt;Node3 -->
<g id="edge42" class="edge">
<title>Node30&#45;&gt;Node3</title>
<path fill="none" stroke="#191970" d="M1106.6042,-252.4196C1167.5416,-243.6287 1259.3787,-228.8726 1338,-210 1341.8179,-209.0835 1345.7712,-208.035 1349.7054,-206.9249"/>
<polygon fill="#191970" stroke="#191970" points="1350.7556,-210.2644 1359.3578,-204.0795 1348.7762,-203.55 1350.7556,-210.2644"/>
</g>
<!-- Node30&#45;&gt;Node16 -->
<g id="edge41" class="edge">
<title>Node30&#45;&gt;Node16</title>
<path fill="none" stroke="#191970" d="M1106.5043,-252.1158C1121.4797,-250.0687 1137.2755,-247.9365 1152,-246 1279.0203,-229.2947 1313.9244,-241.9137 1438,-210 1440.7784,-209.2854 1443.6248,-208.4239 1446.4524,-207.4776"/>
<polygon fill="#191970" stroke="#191970" points="1447.6852,-210.7535 1455.8684,-204.024 1445.2747,-204.1816 1447.6852,-210.7535"/>
</g>
<!-- Node31 -->
<g id="node32" class="node">
<title>Node31</title>
<polygon fill="none" stroke="#bfbfbf" points="957,-179.5 957,-209.5 1121,-209.5 1121,-179.5 957,-179.5"/>
<text text-anchor="start" x="965" y="-197.5" font-family="Helvetica,sans-Serif" font-size="10.00" fill="#000000">Math/GenVector/Displacement</text>
<text text-anchor="middle" x="1039" y="-186.5" font-family="Helvetica,sans-Serif" font-size="10.00" fill="#000000">Vector3D.h</text>
</g>
<!-- Node30&#45;&gt;Node31 -->
<g id="edge36" class="edge">
<title>Node30&#45;&gt;Node31</title>
<path fill="none" stroke="#191970" d="M1039,-251.9005C1039,-243.5099 1039,-230.9451 1039,-219.7085"/>
<polygon fill="#191970" stroke="#191970" points="1042.5001,-219.5217 1039,-209.5218 1035.5001,-219.5218 1042.5001,-219.5217"/>
</g>
<!-- Node32 -->
<g id="node33" class="node">
<title>Node32</title>
<polygon fill="none" stroke="#bfbfbf" points="1139.5,-185 1139.5,-204 1328.5,-204 1328.5,-185 1139.5,-185"/>
<text text-anchor="middle" x="1234" y="-192" font-family="Helvetica,sans-Serif" font-size="10.00" fill="#000000">Math/GenVector/PositionVector3D.h</text>
</g>
<!-- Node30&#45;&gt;Node32 -->
<g id="edge37" class="edge">
<title>Node30&#45;&gt;Node32</title>
<path fill="none" stroke="#191970" d="M1066.9387,-251.9005C1100.9674,-240.2086 1158.5839,-220.4122 1196.4622,-207.3976"/>
<polygon fill="#191970" stroke="#191970" points="1197.7931,-210.6412 1206.1131,-204.0817 1195.5184,-204.0211 1197.7931,-210.6412"/>
</g>
<!-- Node33 -->
<g id="node34" class="node">
<title>Node33</title>
<polygon fill="none" stroke="#bfbfbf" points="334,-185 334,-204 494,-204 494,-185 334,-185"/>
<text text-anchor="middle" x="414" y="-192" font-family="Helvetica,sans-Serif" font-size="10.00" fill="#000000">Math/GenVector/Rotation3D.h</text>
</g>
<!-- Node30&#45;&gt;Node33 -->
<g id="edge38" class="edge">
<title>Node30&#45;&gt;Node33</title>
<path fill="none" stroke="#191970" d="M996.9502,-251.9629C985.9481,-249.732 974.068,-247.5557 963,-246 759.9267,-217.4561 706.4628,-235.6209 503,-210 493.5296,-208.8075 483.5321,-207.3059 473.7933,-205.7097"/>
<polygon fill="#191970" stroke="#191970" points="474.2136,-202.2313 463.7711,-204.021 473.0505,-209.134 474.2136,-202.2313"/>
</g>
<!-- Node34 -->
<g id="node35" class="node">
<title>Node34</title>
<polygon fill="none" stroke="#bfbfbf" points="512,-185 512,-204 680,-204 680,-185 512,-185"/>
<text text-anchor="middle" x="596" y="-192" font-family="Helvetica,sans-Serif" font-size="10.00" fill="#000000">Math/GenVector/Transform3D.h</text>
</g>
<!-- Node30&#45;&gt;Node34 -->
<g id="edge39" class="edge">
<title>Node30&#45;&gt;Node34</title>
<path fill="none" stroke="#191970" d="M994.8912,-251.9595C984.4607,-249.8546 973.3589,-247.7371 963,-246 842.3016,-225.7594 811.059,-227.9581 690,-210 680.9888,-208.6633 671.5039,-207.1842 662.1663,-205.686"/>
<polygon fill="#191970" stroke="#191970" points="662.5522,-202.203 652.1212,-204.0586 661.4327,-209.1129 662.5522,-202.203"/>
</g>
<!-- Node35 -->
<g id="node36" class="node">
<title>Node35</title>
<polygon fill="none" stroke="#bfbfbf" points="698.5,-185 698.5,-204 871.5,-204 871.5,-185 698.5,-185"/>
<text text-anchor="middle" x="785" y="-192" font-family="Helvetica,sans-Serif" font-size="10.00" fill="#000000">Math/GenVector/Translation3D.h</text>
</g>
<!-- Node30&#45;&gt;Node35 -->
<g id="edge40" class="edge">
<title>Node30&#45;&gt;Node35</title>
<path fill="none" stroke="#191970" d="M1002.8777,-251.9717C957.7742,-240.0743 880.5567,-219.7059 831.1948,-206.6852"/>
<polygon fill="#191970" stroke="#191970" points="831.9709,-203.2703 821.4089,-204.1039 830.1854,-210.0388 831.9709,-203.2703"/>
</g>
<!-- Node36 -->
<g id="node37" class="node">
<title>Node36</title>
<polygon fill="none" stroke="#bfbfbf" points="889.5,-185 889.5,-204 938.5,-204 938.5,-185 889.5,-185"/>
<text text-anchor="middle" x="914" y="-192" font-family="Helvetica,sans-Serif" font-size="10.00" fill="#000000">iosfwd</text>
</g>
<!-- Node30&#45;&gt;Node36 -->
<g id="edge43" class="edge">
<title>Node30&#45;&gt;Node36</title>
<path fill="none" stroke="#191970" d="M1021.0905,-251.9005C1000.1127,-240.6564 965.1504,-221.9166 940.9065,-208.9219"/>
<polygon fill="#191970" stroke="#191970" points="942.3435,-205.7211 931.8762,-204.0817 939.0365,-211.8907 942.3435,-205.7211"/>
</g>
<!-- Node37 -->
<g id="node38" class="node">
<title>Node37</title>
<g id="a_node38"><a xlink:href="../../d2/dd0/Cartesian2D_8h.html" target="_top" xlink:title="MathUtils/Cartesian2D.h">
<polygon fill="none" stroke="#000000" points="142.5,-185 142.5,-204 277.5,-204 277.5,-185 142.5,-185"/>
<text text-anchor="middle" x="210" y="-192" font-family="Helvetica,sans-Serif" font-size="10.00" fill="#000000">MathUtils/Cartesian2D.h</text>
</a>
</g>
</g>
<!-- Node30&#45;&gt;Node37 -->
<g id="edge44" class="edge">
<title>Node30&#45;&gt;Node37</title>
<path fill="none" stroke="#191970" d="M997.7662,-251.9592C986.5433,-249.6725 974.3514,-247.4699 963,-246 681.3451,-209.5274 607.7214,-236.9884 325,-210 311.8156,-208.7414 297.8188,-207.1071 284.2962,-205.3729"/>
<polygon fill="#191970" stroke="#191970" points="284.4394,-201.8618 274.0692,-204.0319 283.5292,-208.8024 284.4394,-201.8618"/>
</g>
<!-- Node38 -->
<g id="node39" class="node">
<title>Node38</title>
<polygon fill="none" stroke="#bfbfbf" points="31,-112.5 31,-142.5 195,-142.5 195,-112.5 31,-112.5"/>
<text text-anchor="start" x="39" y="-130.5" font-family="Helvetica,sans-Serif" font-size="10.00" fill="#000000">Math/GenVector/Displacement</text>
<text text-anchor="middle" x="113" y="-119.5" font-family="Helvetica,sans-Serif" font-size="10.00" fill="#000000">Vector2D.h</text>
</g>
<!-- Node37&#45;&gt;Node38 -->
<g id="edge45" class="edge">
<title>Node37&#45;&gt;Node38</title>
<path fill="none" stroke="#191970" d="M196.1023,-184.9005C182.3265,-175.3853 160.7795,-160.5023 143.0779,-148.2755"/>
<polygon fill="#191970" stroke="#191970" points="144.9651,-145.3253 134.7479,-142.5218 140.9868,-151.0849 144.9651,-145.3253"/>
</g>
<!-- Node39 -->
<g id="node40" class="node">
<title>Node39</title>
<polygon fill="none" stroke="#bfbfbf" points="213.5,-118 213.5,-137 402.5,-137 402.5,-118 213.5,-118"/>
<text text-anchor="middle" x="308" y="-125" font-family="Helvetica,sans-Serif" font-size="10.00" fill="#000000">Math/GenVector/PositionVector2D.h</text>
</g>
<!-- Node37&#45;&gt;Node39 -->
<g id="edge46" class="edge">
<title>Node37&#45;&gt;Node39</title>
<path fill="none" stroke="#191970" d="M224.041,-184.9005C240.1238,-173.9052 266.6906,-155.7422 285.6316,-142.7927"/>
<polygon fill="#191970" stroke="#191970" points="287.7052,-145.6148 293.985,-137.0817 283.7545,-139.8362 287.7052,-145.6148"/>
</g>
<!-- Node40&#45;&gt;Node23 -->
<g id="edge48" class="edge">
<title>Node40&#45;&gt;Node23</title>
<path fill="none" stroke="#191970" d="M2349.7103,-318.5381C2351.5668,-284.234 2352.7607,-169.9347 2292,-112 2270.416,-91.4199 2195.2998,-78.8653 2139.6834,-72.1821"/>
<polygon fill="#191970" stroke="#191970" points="2139.8805,-68.6815 2129.5429,-71.0019 2139.0712,-75.6345 2139.8805,-68.6815"/>
</g>
<!-- Node41 -->
<g id="node42" class="node">
<title>Node41</title>
<g id="a_node42"><a xlink:href="../../d2/d45/GPUCommonRtypes_8h.html" target="_top" xlink:title="GPUCommonRtypes.h">
<polygon fill="none" stroke="#000000" points="1381.5,-252 1381.5,-271 1506.5,-271 1506.5,-252 1381.5,-252"/>
<text text-anchor="middle" x="1444" y="-259" font-family="Helvetica,sans-Serif" font-size="10.00" fill="#000000">GPUCommonRtypes.h</text>
</a>
</g>
</g>
<!-- Node40&#45;&gt;Node41 -->
<g id="edge49" class="edge">
<title>Node40&#45;&gt;Node41</title>
<path fill="none" stroke="#191970" d="M2283.7547,-318.9829C2267.2221,-316.7913 2249.4788,-314.6287 2233,-313 1984.8066,-288.4697 1921.8615,-293.4212 1673,-277 1620.8034,-273.5558 1561.9221,-269.5681 1516.9372,-266.5"/>
<polygon fill="#191970" stroke="#191970" points="1516.9027,-262.9896 1506.6876,-265.8005 1516.426,-269.9733 1516.9027,-262.9896"/>
</g>
<!-- Node41&#45;&gt;Node16 -->
<g id="edge50" class="edge">
<title>Node41&#45;&gt;Node16</title>
<path fill="none" stroke="#191970" d="M1448.7281,-251.9005C1453.6781,-241.8505 1461.5776,-225.8122 1467.7697,-213.2403"/>
<polygon fill="#191970" stroke="#191970" points="1471.0019,-214.5991 1472.2807,-204.0817 1464.7223,-211.5061 1471.0019,-214.5991"/>
</g>
<!-- Node42&#45;&gt;Node6 -->
<g id="edge54" class="edge">
<title>Node42&#45;&gt;Node6</title>
<path fill="none" stroke="#191970" d="M1081.8438,-380.3906C1109.4654,-369.7068 1154.1484,-352.4237 1184.2776,-340.77"/>
<polygon fill="#191970" stroke="#191970" points="1185.8277,-343.9232 1193.8917,-337.0513 1183.3025,-337.3945 1185.8277,-343.9232"/>
</g>
<!-- Node43 -->
<g id="node44" class="node">
<title>Node43</title>
<polygon fill="none" stroke="#bfbfbf" points="1054.5,-319 1054.5,-338 1127.5,-338 1127.5,-319 1054.5,-319"/>
<text text-anchor="middle" x="1091" y="-326" font-family="Helvetica,sans-Serif" font-size="10.00" fill="#000000">TObjArray.h</text>
</g>
<!-- Node42&#45;&gt;Node43 -->
<g id="edge53" class="edge">
<title>Node42&#45;&gt;Node43</title>
<path fill="none" stroke="#191970" d="M1062.3125,-380.3906C1067.2239,-371.5068 1074.6579,-358.0601 1080.7275,-347.0811"/>
<polygon fill="#191970" stroke="#191970" points="1083.8373,-348.6899 1085.6126,-338.2449 1077.7112,-345.3031 1083.8373,-348.6899"/>
</g>
<!-- Node44 -->
<g id="node45" class="node">
<title>Node44</title>
<g id="a_node45"><a xlink:href="../../d4/d20/DetMatrixCache_8h.html" target="_top" xlink:title="DetectorsCommonDataFormats\l/DetMatrixCache.h">
<polygon fill="none" stroke="#000000" points="865.5,-313.5 865.5,-343.5 1036.5,-343.5 1036.5,-313.5 865.5,-313.5"/>
<text text-anchor="start" x="873.5" y="-331.5" font-family="Helvetica,sans-Serif" font-size="10.00" fill="#000000">DetectorsCommonDataFormats</text>
<text text-anchor="middle" x="951" y="-320.5" font-family="Helvetica,sans-Serif" font-size="10.00" fill="#000000">/DetMatrixCache.h</text>
</a>
</g>
</g>
<!-- Node42&#45;&gt;Node44 -->
<g id="edge55" class="edge">
<title>Node42&#45;&gt;Node44</title>
<path fill="none" stroke="#191970" d="M1040.4375,-380.3906C1025.826,-371.9132 1004.0533,-359.2809 985.6488,-348.6028"/>
<polygon fill="#191970" stroke="#191970" points="987.3366,-345.5357 976.9305,-343.5446 983.8237,-351.5904 987.3366,-345.5357"/>
</g>
<!-- Node44&#45;&gt;Node5 -->
<g id="edge60" class="edge">
<title>Node44&#45;&gt;Node5</title>
<path fill="none" stroke="#191970" d="M865.2621,-321.9248C676.4371,-305.868 247.3567,-259.9349 325,-179 368.1188,-134.0532 1345.2514,-128.2856 1533.7054,-127.5906"/>
<polygon fill="#191970" stroke="#191970" points="1533.7886,-131.0905 1543.7763,-127.5557 1533.7642,-124.0905 1533.7886,-131.0905"/>
</g>
<!-- Node44&#45;&gt;Node7 -->
<g id="edge61" class="edge">
<title>Node44&#45;&gt;Node7</title>
<path fill="none" stroke="#191970" d="M946.2348,-313.2967C943.217,-303.6685 939.2876,-291.1318 936.0504,-280.8038"/>
<polygon fill="#191970" stroke="#191970" points="939.3256,-279.5504 932.9948,-271.055 932.646,-281.6441 939.3256,-279.5504"/>
</g>
<!-- Node44&#45;&gt;Node15 -->
<g id="edge62" class="edge">
<title>Node44&#45;&gt;Node15</title>
<path fill="none" stroke="#191970" d="M1036.6548,-314.1592C1039.8065,-313.7478 1042.9294,-313.3594 1046,-313 1164.3292,-299.1495 1503.7516,-277.5145 1671.2121,-267.2613"/>
<polygon fill="#191970" stroke="#191970" points="1671.4885,-270.7511 1681.2563,-266.6474 1671.0614,-263.7641 1671.4885,-270.7511"/>
</g>
<!-- Node44&#45;&gt;Node30 -->
<g id="edge63" class="edge">
<title>Node44&#45;&gt;Node30</title>
<path fill="none" stroke="#191970" d="M970.9686,-313.2967C985.0787,-302.5537 1003.9451,-288.1895 1018.2308,-277.3129"/>
<polygon fill="#191970" stroke="#191970" points="1020.614,-279.8975 1026.4502,-271.055 1016.3736,-274.328 1020.614,-279.8975"/>
</g>
<!-- Node44&#45;&gt;Node41 -->
<g id="edge59" class="edge">
<title>Node44&#45;&gt;Node41</title>
<path fill="none" stroke="#191970" d="M1036.6847,-314.3862C1039.828,-313.911 1042.941,-313.4473 1046,-313 1159.3828,-296.4193 1291.3498,-279.8871 1371.2253,-270.1845"/>
<polygon fill="#191970" stroke="#191970" points="1371.6766,-273.6555 1381.1827,-268.9776 1370.8342,-266.7064 1371.6766,-273.6555"/>
</g>
<!-- Node45 -->
<g id="node46" class="node">
<title>Node45</title>
<g id="a_node46"><a xlink:href="../../df/d5b/GPUCommonLogger_8h.html" target="_top" xlink:title="GPUCommonLogger.h">
<polygon fill="none" stroke="#000000" points="32.5,-252 32.5,-271 155.5,-271 155.5,-252 32.5,-252"/>
<text text-anchor="middle" x="94" y="-259" font-family="Helvetica,sans-Serif" font-size="10.00" fill="#000000">GPUCommonLogger.h</text>
</a>
</g>
</g>
<!-- Node44&#45;&gt;Node45 -->
<g id="edge56" class="edge">
<title>Node44&#45;&gt;Node45</title>
<path fill="none" stroke="#191970" d="M865.4317,-321.8166C739.738,-311.9984 497.7934,-293.0963 292,-277 250.21,-273.7314 203.4589,-270.0717 165.8828,-267.1295"/>
<polygon fill="#191970" stroke="#191970" points="165.7822,-263.611 155.5395,-266.3196 165.2357,-270.5896 165.7822,-263.611"/>
</g>
<!-- Node46 -->
<g id="node47" class="node">
<title>Node46</title>
<polygon fill="none" stroke="#bfbfbf" points="64,-185 64,-204 124,-204 124,-185 64,-185"/>
<text text-anchor="middle" x="94" y="-192" font-family="Helvetica,sans-Serif" font-size="10.00" fill="#000000">iostream</text>
</g>
<!-- Node45&#45;&gt;Node46 -->
<g id="edge57" class="edge">
<title>Node45&#45;&gt;Node46</title>
<path fill="none" stroke="#191970" d="M94,-251.9005C94,-242.149 94,-226.7597 94,-214.3695"/>
<polygon fill="#191970" stroke="#191970" points="97.5001,-214.0816 94,-204.0817 90.5001,-214.0817 97.5001,-214.0816"/>
</g>
<!-- Node47 -->
<g id="node48" class="node">
<title>Node47</title>
<polygon fill="none" stroke="#bfbfbf" points="0,-185 0,-204 46,-204 46,-185 0,-185"/>
<text text-anchor="middle" x="23" y="-192" font-family="Helvetica,sans-Serif" font-size="10.00" fill="#000000">cstdio</text>
</g>
<!-- Node45&#45;&gt;Node47 -->
<g id="edge58" class="edge">
<title>Node45&#45;&gt;Node47</title>
<path fill="none" stroke="#191970" d="M83.8274,-251.9005C72.5447,-241.2535 54.1399,-223.8856 40.5258,-211.0385"/>
<polygon fill="#191970" stroke="#191970" points="42.8288,-208.3994 33.1537,-204.0817 38.0246,-213.4905 42.8288,-208.3994"/>
</g>
<!-- Node48&#45;&gt;Node16 -->
<g id="edge67" class="edge">
<title>Node48&#45;&gt;Node16</title>
<path fill="none" stroke="#191970" d="M1163.55,-436.3259C1159.9756,-408.6819 1156.5486,-349.5982 1185,-313 1187.1139,-310.2808 1366.7262,-238.4584 1443.1688,-207.976"/>
<polygon fill="#191970" stroke="#191970" points="1444.8228,-211.0845 1452.8158,-204.1302 1442.2306,-204.5821 1444.8228,-211.0845"/>
</g>
<!-- Node48&#45;&gt;Node42 -->
<g id="edge68" class="edge">
<title>Node48&#45;&gt;Node42</title>
<path fill="none" stroke="#191970" d="M1139.3356,-436.4554C1122.1059,-426.734 1099.8025,-414.15 1082.7554,-404.5317"/>
<polygon fill="#191970" stroke="#191970" points="1084.3204,-401.3961 1073.8911,-399.5303 1080.8806,-407.4926 1084.3204,-401.3961"/>
</g>
</g>
</svg>
