<?xml version="1.0" encoding="UTF-8" standalone="no"?>
<!DOCTYPE svg PUBLIC "-//W3C//DTD SVG 1.1//EN"
 "http://www.w3.org/Graphics/SVG/1.1/DTD/svg11.dtd">
<!-- Generated by graphviz version 2.40.1 (20161225.0304)
 -->
<!-- Title: /home/travis/build/AliceO2Group/AliceO2/Framework/Utils/include/DPLUtils/MakeRootTreeWriterSpec.h Pages: 1 -->
<!--zoomable 250 -->
<svg id="main" version="1.1" xmlns="http://www.w3.org/2000/svg" xmlns:xlink="http://www.w3.org/1999/xlink" xml:space="preserve" onload="init(evt)">
<style type="text/css"><![CDATA[
.edge:hover path { stroke: red; }
.edge:hover polygon { stroke: red; fill: red; }
]]></style>
<script type="text/javascript"><![CDATA[
var edges = document.getElementsByTagName('g');
if (edges && edges.length) {
  for (var i=0;i<edges.length;i++) {
    if (edges[i].id.substr(0,4)=='edge') {
      edges[i].setAttribute('class','edge');
    }
  }
}
]]></script>
        <defs>
                <circle id="rim" cx="0" cy="0" r="7"/>
                <circle id="rim2" cx="0" cy="0" r="3.5"/>
                <g id="zoomPlus">
                        <use xlink:href="#rim" fill="#404040">
                                <set attributeName="fill" to="#808080" begin="zoomplus.mouseover" end="zoomplus.mouseout"/>
                        </use>
                        <path d="M-4,0h8M0,-4v8" fill="none" stroke="white" stroke-width="1.5" pointer-events="none"/>
                </g>
                <g id="zoomMin">
                        <use xlink:href="#rim" fill="#404040">
                                <set attributeName="fill" to="#808080" begin="zoomminus.mouseover" end="zoomminus.mouseout"/>
                        </use>
                        <path d="M-4,0h8" fill="none" stroke="white" stroke-width="1.5" pointer-events="none"/>
                </g>
                <g id="dirArrow">
                        <path fill="none" stroke="white" stroke-width="1.5" d="M0,-3.0v7 M-2.5,-0.5L0,-3.0L2.5,-0.5"/>
                </g>
               <g id="resetDef">
                       <use xlink:href="#rim2" fill="#404040">
                               <set attributeName="fill" to="#808080" begin="reset.mouseover" end="reset.mouseout"/>
                       </use>
               </g>
        </defs>

<script type="text/javascript">
var viewWidth = 3763;
var viewHeight = 250;
var sectionId = 'dynsection-1';
</script>
<script xlink:href="../../svgpan.js"/>
<svg id="graph" class="graph">
<g id="viewport">
<title>/home/travis/build/AliceO2Group/AliceO2/Framework/Utils/include/DPLUtils/MakeRootTreeWriterSpec.h</title>
<!-- Node131 -->
<g id="node1" class="node">
<title>Node131</title>
<polygon fill="#bfbfbf" stroke="#000000" points="1841,-189.5 1841,-241.5 2034,-241.5 2034,-189.5 1841,-189.5"/>
<text text-anchor="start" x="1849" y="-229.5" font-family="Helvetica,sans-Serif" font-size="10.00" fill="#000000">/home/travis/build</text>
<text text-anchor="start" x="1849" y="-218.5" font-family="Helvetica,sans-Serif" font-size="10.00" fill="#000000">/AliceO2Group/AliceO2</text>
<text text-anchor="start" x="1849" y="-207.5" font-family="Helvetica,sans-Serif" font-size="10.00" fill="#000000">/Framework/Utils/include</text>
<text text-anchor="middle" x="1937.5" y="-196.5" font-family="Helvetica,sans-Serif" font-size="10.00" fill="#000000">/DPLUtils/MakeRootTreeWriterSpec.h</text>
</g>
<!-- Node132 -->
<g id="node2" class="node">
<title>Node132</title>
<g id="a_node2"><a xlink:href="../../dd/d16/CPV_2workflow_2src_2RecoWorkflow_8cxx.html" target="_top" xlink:title="/home/travis/build\l/AliceO2Group/AliceO2\l/Detectors/CPV/workflow\l/src/RecoWorkflow.cxx">
<polygon fill="none" stroke="#000000" points="0,-95 0,-147 137,-147 137,-95 0,-95"/>
<text text-anchor="start" x="8" y="-135" font-family="Helvetica,sans-Serif" font-size="10.00" fill="#000000">/home/travis/build</text>
<text text-anchor="start" x="8" y="-124" font-family="Helvetica,sans-Serif" font-size="10.00" fill="#000000">/AliceO2Group/AliceO2</text>
<text text-anchor="start" x="8" y="-113" font-family="Helvetica,sans-Serif" font-size="10.00" fill="#000000">/Detectors/CPV/workflow</text>
<text text-anchor="middle" x="68.5" y="-102" font-family="Helvetica,sans-Serif" font-size="10.00" fill="#000000">/src/RecoWorkflow.cxx</text>
</a>
</g>
</g>
<!-- Node131&#45;&gt;Node132 -->
<g id="edge1" class="edge">
<title>Node131&#45;&gt;Node132</title>
<path fill="none" stroke="#191970" d="M1830.7096,-213.9698C1470.0529,-208.4983 310.5448,-188.3252 146.5,-153 139.6317,-151.521 132.5968,-149.4716 125.6993,-147.1177"/>
<polygon fill="#191970" stroke="#191970" points="1830.8358,-217.472 1840.8875,-214.1235 1830.9416,-210.4728 1830.8358,-217.472"/>
</g>
<!-- Node133 -->
<g id="node3" class="node">
<title>Node133</title>
<g id="a_node3"><a xlink:href="../../d2/dbf/EMCAL_2workflow_2src_2RecoWorkflow_8cxx.html" target="_top" xlink:title="/home/travis/build\l/AliceO2Group/AliceO2\l/Detectors/EMCAL/workflow\l/src/RecoWorkflow.cxx">
<polygon fill="none" stroke="#000000" points="155.5,-95 155.5,-147 305.5,-147 305.5,-95 155.5,-95"/>
<text text-anchor="start" x="163.5" y="-135" font-family="Helvetica,sans-Serif" font-size="10.00" fill="#000000">/home/travis/build</text>
<text text-anchor="start" x="163.5" y="-124" font-family="Helvetica,sans-Serif" font-size="10.00" fill="#000000">/AliceO2Group/AliceO2</text>
<text text-anchor="start" x="163.5" y="-113" font-family="Helvetica,sans-Serif" font-size="10.00" fill="#000000">/Detectors/EMCAL/workflow</text>
<text text-anchor="middle" x="230.5" y="-102" font-family="Helvetica,sans-Serif" font-size="10.00" fill="#000000">/src/RecoWorkflow.cxx</text>
</a>
</g>
</g>
<!-- Node131&#45;&gt;Node133 -->
<g id="edge2" class="edge">
<title>Node131&#45;&gt;Node133</title>
<path fill="none" stroke="#191970" d="M1830.7085,-213.4261C1492.8884,-206.5824 461.0625,-183.408 313.5,-153 306.2396,-151.5039 298.7839,-149.4438 291.4614,-147.0838"/>
<polygon fill="#191970" stroke="#191970" points="1830.6724,-216.926 1840.7411,-213.6287 1830.8138,-209.9274 1830.6724,-216.926"/>
</g>
<!-- Node134 -->
<g id="node4" class="node">
<title>Node134</title>
<g id="a_node4"><a xlink:href="../../d3/d52/TrackWriterTPCITSSpec_8cxx.html" target="_top" xlink:title="/home/travis/build\l/AliceO2Group/AliceO2\l/Detectors/GlobalTrackingWorkflow\l/src/TrackWriterTPCITSSpec.cxx">
<polygon fill="none" stroke="#000000" points="323,-95 323,-147 510,-147 510,-95 323,-95"/>
<text text-anchor="start" x="331" y="-135" font-family="Helvetica,sans-Serif" font-size="10.00" fill="#000000">/home/travis/build</text>
<text text-anchor="start" x="331" y="-124" font-family="Helvetica,sans-Serif" font-size="10.00" fill="#000000">/AliceO2Group/AliceO2</text>
<text text-anchor="start" x="331" y="-113" font-family="Helvetica,sans-Serif" font-size="10.00" fill="#000000">/Detectors/GlobalTrackingWorkflow</text>
<text text-anchor="middle" x="416.5" y="-102" font-family="Helvetica,sans-Serif" font-size="10.00" fill="#000000">/src/TrackWriterTPCITSSpec.cxx</text>
</a>
</g>
</g>
<!-- Node131&#45;&gt;Node134 -->
<g id="edge3" class="edge">
<title>Node131&#45;&gt;Node134</title>
<path fill="none" stroke="#191970" d="M1830.3649,-214.38C1544.8416,-210.8205 770.2497,-197.2542 518.5,-153 509.8174,-151.4737 500.8453,-149.4122 491.99,-147.0665"/>
<polygon fill="#191970" stroke="#191970" points="1830.682,-217.8841 1840.7243,-214.5074 1830.7681,-210.8846 1830.682,-217.8841"/>
</g>
<!-- Node135 -->
<g id="node5" class="node">
<title>Node135</title>
<g id="a_node5"><a xlink:href="../../d2/d27/TPCResidualWriterSpec_8cxx.html" target="_top" xlink:title="/home/travis/build\l/AliceO2Group/AliceO2\l/Detectors/GlobalTrackingWorkflow\l/tpcinterpolationworkflow/src\l/TPCResidualWriterSpec.cxx">
<polygon fill="none" stroke="#000000" points="528,-89.5 528,-152.5 715,-152.5 715,-89.5 528,-89.5"/>
<text text-anchor="start" x="536" y="-140.5" font-family="Helvetica,sans-Serif" font-size="10.00" fill="#000000">/home/travis/build</text>
<text text-anchor="start" x="536" y="-129.5" font-family="Helvetica,sans-Serif" font-size="10.00" fill="#000000">/AliceO2Group/AliceO2</text>
<text text-anchor="start" x="536" y="-118.5" font-family="Helvetica,sans-Serif" font-size="10.00" fill="#000000">/Detectors/GlobalTrackingWorkflow</text>
<text text-anchor="start" x="536" y="-107.5" font-family="Helvetica,sans-Serif" font-size="10.00" fill="#000000">/tpcinterpolationworkflow/src</text>
<text text-anchor="middle" x="621.5" y="-96.5" font-family="Helvetica,sans-Serif" font-size="10.00" fill="#000000">/TPCResidualWriterSpec.cxx</text>
</a>
</g>
</g>
<!-- Node131&#45;&gt;Node135 -->
<g id="edge4" class="edge">
<title>Node131&#45;&gt;Node135</title>
<path fill="none" stroke="#191970" d="M1830.7548,-213.4142C1575.4953,-207.8754 935.38,-190.5796 724.5,-153 721.3661,-152.4415 718.1942,-151.8161 715.0032,-151.1351"/>
<polygon fill="#191970" stroke="#191970" points="1830.7043,-216.9138 1840.7774,-213.6299 1830.855,-209.9154 1830.7043,-216.9138"/>
</g>
<!-- Node136 -->
<g id="node6" class="node">
<title>Node136</title>
<g id="a_node6"><a xlink:href="../../d2/de0/MUON_2MID_2Workflow_2src_2RecoWorkflow_8cxx.html" target="_top" xlink:title="Definition of MID reconstruction workflow. ">
<polygon fill="none" stroke="#000000" points="733.5,-95 733.5,-147 903.5,-147 903.5,-95 733.5,-95"/>
<text text-anchor="start" x="741.5" y="-135" font-family="Helvetica,sans-Serif" font-size="10.00" fill="#000000">/home/travis/build</text>
<text text-anchor="start" x="741.5" y="-124" font-family="Helvetica,sans-Serif" font-size="10.00" fill="#000000">/AliceO2Group/AliceO2</text>
<text text-anchor="start" x="741.5" y="-113" font-family="Helvetica,sans-Serif" font-size="10.00" fill="#000000">/Detectors/MUON/MID/Workflow</text>
<text text-anchor="middle" x="818.5" y="-102" font-family="Helvetica,sans-Serif" font-size="10.00" fill="#000000">/src/RecoWorkflow.cxx</text>
</a>
</g>
</g>
<!-- Node131&#45;&gt;Node136 -->
<g id="edge5" class="edge">
<title>Node131&#45;&gt;Node136</title>
<path fill="none" stroke="#191970" d="M1830.442,-212.5908C1604.551,-205.8614 1085.7413,-187.1287 912.5,-153 904.5504,-151.4339 896.3513,-149.3643 888.2624,-147.0287"/>
<polygon fill="#191970" stroke="#191970" points="1830.5484,-216.0954 1840.6475,-212.8926 1830.7554,-209.0985 1830.5484,-216.0954"/>
</g>
<!-- Node137 -->
<g id="node7" class="node">
<title>Node137</title>
<g id="a_node7"><a xlink:href="../../dd/d65/RecoWorkflowMC_8cxx.html" target="_top" xlink:title="Definition of MID reconstruction workflow for MC. ">
<polygon fill="none" stroke="#000000" points="921.5,-95 921.5,-147 1091.5,-147 1091.5,-95 921.5,-95"/>
<text text-anchor="start" x="929.5" y="-135" font-family="Helvetica,sans-Serif" font-size="10.00" fill="#000000">/home/travis/build</text>
<text text-anchor="start" x="929.5" y="-124" font-family="Helvetica,sans-Serif" font-size="10.00" fill="#000000">/AliceO2Group/AliceO2</text>
<text text-anchor="start" x="929.5" y="-113" font-family="Helvetica,sans-Serif" font-size="10.00" fill="#000000">/Detectors/MUON/MID/Workflow</text>
<text text-anchor="middle" x="1006.5" y="-102" font-family="Helvetica,sans-Serif" font-size="10.00" fill="#000000">/src/RecoWorkflowMC.cxx</text>
</a>
</g>
</g>
<!-- Node131&#45;&gt;Node137 -->
<g id="edge6" class="edge">
<title>Node131&#45;&gt;Node137</title>
<path fill="none" stroke="#191970" d="M1830.7563,-210.9031C1637.5392,-202.0215 1237.1699,-180.8932 1100.5,-153 1092.7302,-151.4142 1084.7176,-149.3652 1076.8003,-147.0705"/>
<polygon fill="#191970" stroke="#191970" points="1830.7767,-214.4076 1840.9262,-211.368 1831.0965,-207.4149 1830.7767,-214.4076"/>
</g>
<!-- Node138 -->
<g id="node8" class="node">
<title>Node138</title>
<g id="a_node8"><a xlink:href="../../d8/d7e/PHOS_2workflow_2src_2RecoWorkflow_8cxx.html" target="_top" xlink:title="/home/travis/build\l/AliceO2Group/AliceO2\l/Detectors/PHOS/workflow\l/src/RecoWorkflow.cxx">
<polygon fill="none" stroke="#000000" points="1109.5,-95 1109.5,-147 1253.5,-147 1253.5,-95 1109.5,-95"/>
<text text-anchor="start" x="1117.5" y="-135" font-family="Helvetica,sans-Serif" font-size="10.00" fill="#000000">/home/travis/build</text>
<text text-anchor="start" x="1117.5" y="-124" font-family="Helvetica,sans-Serif" font-size="10.00" fill="#000000">/AliceO2Group/AliceO2</text>
<text text-anchor="start" x="1117.5" y="-113" font-family="Helvetica,sans-Serif" font-size="10.00" fill="#000000">/Detectors/PHOS/workflow</text>
<text text-anchor="middle" x="1181.5" y="-102" font-family="Helvetica,sans-Serif" font-size="10.00" fill="#000000">/src/RecoWorkflow.cxx</text>
</a>
</g>
</g>
<!-- Node131&#45;&gt;Node138 -->
<g id="edge7" class="edge">
<title>Node131&#45;&gt;Node138</title>
<path fill="none" stroke="#191970" d="M1830.7832,-209.3177C1668.5071,-199.2897 1367.4779,-178.0549 1262.5,-153 1255.7348,-151.3853 1248.7855,-149.3178 1241.9367,-147.0121"/>
<polygon fill="#191970" stroke="#191970" points="1830.5945,-212.8126 1840.7904,-209.9328 1831.024,-205.8258 1830.5945,-212.8126"/>
</g>
<!-- Node139 -->
<g id="node9" class="node">
<title>Node139</title>
<g id="a_node9"><a xlink:href="../../d0/d80/TPC_2workflow_2src_2RecoWorkflow_8cxx.html" target="_top" xlink:title="/home/travis/build\l/AliceO2Group/AliceO2\l/Detectors/TPC/workflow\l/src/RecoWorkflow.cxx">
<polygon fill="none" stroke="#000000" points="1271.5,-95 1271.5,-147 1407.5,-147 1407.5,-95 1271.5,-95"/>
<text text-anchor="start" x="1279.5" y="-135" font-family="Helvetica,sans-Serif" font-size="10.00" fill="#000000">/home/travis/build</text>
<text text-anchor="start" x="1279.5" y="-124" font-family="Helvetica,sans-Serif" font-size="10.00" fill="#000000">/AliceO2Group/AliceO2</text>
<text text-anchor="start" x="1279.5" y="-113" font-family="Helvetica,sans-Serif" font-size="10.00" fill="#000000">/Detectors/TPC/workflow</text>
<text text-anchor="middle" x="1339.5" y="-102" font-family="Helvetica,sans-Serif" font-size="10.00" fill="#000000">/src/RecoWorkflow.cxx</text>
</a>
</g>
</g>
<!-- Node131&#45;&gt;Node139 -->
<g id="edge8" class="edge">
<title>Node131&#45;&gt;Node139</title>
<path fill="none" stroke="#191970" d="M1830.6058,-211.0698C1724.3721,-204.7121 1557.5222,-189.4207 1417.5,-153 1411.1255,-151.3419 1404.5819,-149.278 1398.1256,-147.0022"/>
<polygon fill="#191970" stroke="#191970" points="1830.5076,-214.5699 1840.6943,-211.6576 1830.9148,-207.5818 1830.5076,-214.5699"/>
</g>
<!-- Node140 -->
<g id="node10" class="node">
<title>Node140</title>
<g id="a_node10"><a xlink:href="../../dd/d1a/TRDDigitWriterSpec_8cxx.html" target="_top" xlink:title="/home/travis/build\l/AliceO2Group/AliceO2\l/Detectors/TRD/workflow\l/src/TRDDigitWriterSpec.cxx">
<polygon fill="none" stroke="#000000" points="1426,-95 1426,-147 1579,-147 1579,-95 1426,-95"/>
<text text-anchor="start" x="1434" y="-135" font-family="Helvetica,sans-Serif" font-size="10.00" fill="#000000">/home/travis/build</text>
<text text-anchor="start" x="1434" y="-124" font-family="Helvetica,sans-Serif" font-size="10.00" fill="#000000">/AliceO2Group/AliceO2</text>
<text text-anchor="start" x="1434" y="-113" font-family="Helvetica,sans-Serif" font-size="10.00" fill="#000000">/Detectors/TRD/workflow</text>
<text text-anchor="middle" x="1502.5" y="-102" font-family="Helvetica,sans-Serif" font-size="10.00" fill="#000000">/src/TRDDigitWriterSpec.cxx</text>
</a>
</g>
</g>
<!-- Node131&#45;&gt;Node140 -->
<g id="edge9" class="edge">
<title>Node131&#45;&gt;Node140</title>
<path fill="none" stroke="#191970" d="M1830.8186,-201.4588C1761.1479,-191.0526 1668.5812,-174.8799 1588.5,-153 1582.0457,-151.2365 1575.3944,-149.1904 1568.7845,-147.0018"/>
<polygon fill="#191970" stroke="#191970" points="1830.5234,-204.9531 1840.9276,-202.9523 1831.5465,-198.0283 1830.5234,-204.9531"/>
</g>
<!-- Node141 -->
<g id="node11" class="node">
<title>Node141</title>
<g id="a_node11"><a xlink:href="../../d0/dfb/TRDTrackletWriterSpec_8cxx.html" target="_top" xlink:title="/home/travis/build\l/AliceO2Group/AliceO2\l/Detectors/TRD/workflow\l/src/TRDTrackletWriterSpec.cxx">
<polygon fill="none" stroke="#000000" points="1597.5,-95 1597.5,-147 1765.5,-147 1765.5,-95 1597.5,-95"/>
<text text-anchor="start" x="1605.5" y="-135" font-family="Helvetica,sans-Serif" font-size="10.00" fill="#000000">/home/travis/build</text>
<text text-anchor="start" x="1605.5" y="-124" font-family="Helvetica,sans-Serif" font-size="10.00" fill="#000000">/AliceO2Group/AliceO2</text>
<text text-anchor="start" x="1605.5" y="-113" font-family="Helvetica,sans-Serif" font-size="10.00" fill="#000000">/Detectors/TRD/workflow</text>
<text text-anchor="middle" x="1681.5" y="-102" font-family="Helvetica,sans-Serif" font-size="10.00" fill="#000000">/src/TRDTrackletWriterSpec.cxx</text>
</a>
</g>
</g>
<!-- Node131&#45;&gt;Node141 -->
<g id="edge10" class="edge">
<title>Node131&#45;&gt;Node141</title>
<path fill="none" stroke="#191970" d="M1857.0851,-185.8156C1823.5068,-173.4205 1784.8342,-159.1449 1752.3443,-147.1515"/>
<polygon fill="#191970" stroke="#191970" points="1856.2759,-189.2477 1866.8692,-189.4273 1858.7,-182.6808 1856.2759,-189.2477"/>
</g>
<!-- Node142 -->
<g id="node12" class="node">
<title>Node142</title>
<g id="a_node12"><a xlink:href="../../da/dcf/test__RootTreeWriter_8cxx.html" target="_top" xlink:title="/home/travis/build\l/AliceO2Group/AliceO2\l/Framework/Utils/test\l/test_RootTreeWriter.cxx">
<polygon fill="none" stroke="#000000" points="1783.5,-95 1783.5,-147 1917.5,-147 1917.5,-95 1783.5,-95"/>
<text text-anchor="start" x="1791.5" y="-135" font-family="Helvetica,sans-Serif" font-size="10.00" fill="#000000">/home/travis/build</text>
<text text-anchor="start" x="1791.5" y="-124" font-family="Helvetica,sans-Serif" font-size="10.00" fill="#000000">/AliceO2Group/AliceO2</text>
<text text-anchor="start" x="1791.5" y="-113" font-family="Helvetica,sans-Serif" font-size="10.00" fill="#000000">/Framework/Utils/test</text>
<text text-anchor="middle" x="1850.5" y="-102" font-family="Helvetica,sans-Serif" font-size="10.00" fill="#000000">/test_RootTreeWriter.cxx</text>
</a>
</g>
</g>
<!-- Node131&#45;&gt;Node142 -->
<g id="edge11" class="edge">
<title>Node131&#45;&gt;Node142</title>
<path fill="none" stroke="#191970" d="M1906.4734,-181.7986C1896.0396,-170.4654 1884.56,-157.9962 1874.7271,-147.3157"/>
<polygon fill="#191970" stroke="#191970" points="1904.1485,-184.4409 1913.4966,-189.4273 1909.2984,-179.6997 1904.1485,-184.4409"/>
</g>
<!-- Node143 -->
<g id="node13" class="node">
<title>Node143</title>
<g id="a_node13"><a xlink:href="../../d1/d02/test__RootTreeWriterWorkflow_8cxx.html" target="_top" xlink:title="/home/travis/build\l/AliceO2Group/AliceO2\l/Framework/Utils/test\l/test_RootTreeWriterWorkflow.cxx">
<polygon fill="none" stroke="#000000" points="1936,-95 1936,-147 2115,-147 2115,-95 1936,-95"/>
<text text-anchor="start" x="1944" y="-135" font-family="Helvetica,sans-Serif" font-size="10.00" fill="#000000">/home/travis/build</text>
<text text-anchor="start" x="1944" y="-124" font-family="Helvetica,sans-Serif" font-size="10.00" fill="#000000">/AliceO2Group/AliceO2</text>
<text text-anchor="start" x="1944" y="-113" font-family="Helvetica,sans-Serif" font-size="10.00" fill="#000000">/Framework/Utils/test</text>
<text text-anchor="middle" x="2025.5" y="-102" font-family="Helvetica,sans-Serif" font-size="10.00" fill="#000000">/test_RootTreeWriterWorkflow.cxx</text>
</a>
</g>
</g>
<!-- Node131&#45;&gt;Node143 -->
<g id="edge12" class="edge">
<title>Node131&#45;&gt;Node143</title>
<path fill="none" stroke="#191970" d="M1968.8833,-181.7986C1979.437,-170.4654 1991.0485,-157.9962 2000.9944,-147.3157"/>
<polygon fill="#191970" stroke="#191970" points="1966.0329,-179.7238 1961.7793,-189.4273 1971.1557,-184.4942 1966.0329,-179.7238"/>
</g>
<!-- Node144 -->
<g id="node14" class="node">
<title>Node144</title>
<g id="a_node14"><a xlink:href="../../d1/dc0/CPVDigitWriterSpec_8h.html" target="_top" xlink:title="/home/travis/build\l/AliceO2Group/AliceO2\l/Steer/DigitizerWorkflow\l/src/CPVDigitWriterSpec.h">
<polygon fill="none" stroke="#000000" points="2133,-95 2133,-147 2274,-147 2274,-95 2133,-95"/>
<text text-anchor="start" x="2141" y="-135" font-family="Helvetica,sans-Serif" font-size="10.00" fill="#000000">/home/travis/build</text>
<text text-anchor="start" x="2141" y="-124" font-family="Helvetica,sans-Serif" font-size="10.00" fill="#000000">/AliceO2Group/AliceO2</text>
<text text-anchor="start" x="2141" y="-113" font-family="Helvetica,sans-Serif" font-size="10.00" fill="#000000">/Steer/DigitizerWorkflow</text>
<text text-anchor="middle" x="2203.5" y="-102" font-family="Helvetica,sans-Serif" font-size="10.00" fill="#000000">/src/CPVDigitWriterSpec.h</text>
</a>
</g>
</g>
<!-- Node131&#45;&gt;Node144 -->
<g id="edge13" class="edge">
<title>Node131&#45;&gt;Node144</title>
<path fill="none" stroke="#191970" d="M2029.1118,-186.1456C2059.5987,-176.0413 2093.641,-164.3943 2124.5,-153 2129.6362,-151.1035 2134.938,-149.0868 2140.2502,-147.0242"/>
<polygon fill="#191970" stroke="#191970" points="2027.7453,-182.9109 2019.3469,-189.3698 2029.94,-189.558 2027.7453,-182.9109"/>
</g>
<!-- Node146 -->
<g id="node16" class="node">
<title>Node146</title>
<g id="a_node16"><a xlink:href="../../d9/db2/EMCALDigitWriterSpec_8cxx.html" target="_top" xlink:title="/home/travis/build\l/AliceO2Group/AliceO2\l/Steer/DigitizerWorkflow\l/src/EMCALDigitWriterSpec.cxx">
<polygon fill="none" stroke="#000000" points="2292.5,-95 2292.5,-147 2458.5,-147 2458.5,-95 2292.5,-95"/>
<text text-anchor="start" x="2300.5" y="-135" font-family="Helvetica,sans-Serif" font-size="10.00" fill="#000000">/home/travis/build</text>
<text text-anchor="start" x="2300.5" y="-124" font-family="Helvetica,sans-Serif" font-size="10.00" fill="#000000">/AliceO2Group/AliceO2</text>
<text text-anchor="start" x="2300.5" y="-113" font-family="Helvetica,sans-Serif" font-size="10.00" fill="#000000">/Steer/DigitizerWorkflow</text>
<text text-anchor="middle" x="2375.5" y="-102" font-family="Helvetica,sans-Serif" font-size="10.00" fill="#000000">/src/EMCALDigitWriterSpec.cxx</text>
</a>
</g>
</g>
<!-- Node131&#45;&gt;Node146 -->
<g id="edge15" class="edge">
<title>Node131&#45;&gt;Node146</title>
<path fill="none" stroke="#191970" d="M2044.2062,-200.6327C2113.0869,-189.9563 2204.295,-173.7925 2283.5,-153 2290.2062,-151.2395 2297.1241,-149.2221 2304.014,-147.0753"/>
<polygon fill="#191970" stroke="#191970" points="2043.5624,-197.1904 2034.2096,-202.1679 2044.625,-204.1093 2043.5624,-197.1904"/>
</g>
<!-- Node147 -->
<g id="node17" class="node">
<title>Node147</title>
<g id="a_node17"><a xlink:href="../../d8/dcd/FDDDigitWriterSpec_8h.html" target="_top" xlink:title="/home/travis/build\l/AliceO2Group/AliceO2\l/Steer/DigitizerWorkflow\l/src/FDDDigitWriterSpec.h">
<polygon fill="none" stroke="#000000" points="2476.5,-95 2476.5,-147 2618.5,-147 2618.5,-95 2476.5,-95"/>
<text text-anchor="start" x="2484.5" y="-135" font-family="Helvetica,sans-Serif" font-size="10.00" fill="#000000">/home/travis/build</text>
<text text-anchor="start" x="2484.5" y="-124" font-family="Helvetica,sans-Serif" font-size="10.00" fill="#000000">/AliceO2Group/AliceO2</text>
<text text-anchor="start" x="2484.5" y="-113" font-family="Helvetica,sans-Serif" font-size="10.00" fill="#000000">/Steer/DigitizerWorkflow</text>
<text text-anchor="middle" x="2547.5" y="-102" font-family="Helvetica,sans-Serif" font-size="10.00" fill="#000000">/src/FDDDigitWriterSpec.h</text>
</a>
</g>
</g>
<!-- Node131&#45;&gt;Node147 -->
<g id="edge16" class="edge">
<title>Node131&#45;&gt;Node147</title>
<path fill="none" stroke="#191970" d="M2044.4093,-211.1434C2152.5306,-204.8235 2323.7504,-189.5437 2467.5,-153 2474.0239,-151.3415 2480.7262,-149.2773 2487.3426,-147.0013"/>
<polygon fill="#191970" stroke="#191970" points="2043.9309,-207.6649 2034.146,-211.7274 2044.3287,-214.6536 2043.9309,-207.6649"/>
</g>
<!-- Node148 -->
<g id="node18" class="node">
<title>Node148</title>
<g id="a_node18"><a xlink:href="../../d4/d85/FT0DigitWriterSpec_8h.html" target="_top" xlink:title="/home/travis/build\l/AliceO2Group/AliceO2\l/Steer/DigitizerWorkflow\l/src/FT0DigitWriterSpec.h">
<polygon fill="none" stroke="#000000" points="2637,-95 2637,-147 2776,-147 2776,-95 2637,-95"/>
<text text-anchor="start" x="2645" y="-135" font-family="Helvetica,sans-Serif" font-size="10.00" fill="#000000">/home/travis/build</text>
<text text-anchor="start" x="2645" y="-124" font-family="Helvetica,sans-Serif" font-size="10.00" fill="#000000">/AliceO2Group/AliceO2</text>
<text text-anchor="start" x="2645" y="-113" font-family="Helvetica,sans-Serif" font-size="10.00" fill="#000000">/Steer/DigitizerWorkflow</text>
<text text-anchor="middle" x="2706.5" y="-102" font-family="Helvetica,sans-Serif" font-size="10.00" fill="#000000">/src/FT0DigitWriterSpec.h</text>
</a>
</g>
</g>
<!-- Node131&#45;&gt;Node148 -->
<g id="edge18" class="edge">
<title>Node131&#45;&gt;Node148</title>
<path fill="none" stroke="#191970" d="M2044.2971,-209.6723C2209.6494,-199.999 2519.7933,-179.0836 2627.5,-153 2634.1157,-151.3979 2640.9046,-149.3383 2647.5909,-147.0374"/>
<polygon fill="#191970" stroke="#191970" points="2043.8845,-206.1903 2034.1046,-210.265 2044.291,-213.1785 2043.8845,-206.1903"/>
</g>
<!-- Node149 -->
<g id="node19" class="node">
<title>Node149</title>
<g id="a_node19"><a xlink:href="../../d3/d12/FV0DigitWriterSpec_8h.html" target="_top" xlink:title="/home/travis/build\l/AliceO2Group/AliceO2\l/Steer/DigitizerWorkflow\l/src/FV0DigitWriterSpec.h">
<polygon fill="none" stroke="#000000" points="2794.5,-95 2794.5,-147 2934.5,-147 2934.5,-95 2794.5,-95"/>
<text text-anchor="start" x="2802.5" y="-135" font-family="Helvetica,sans-Serif" font-size="10.00" fill="#000000">/home/travis/build</text>
<text text-anchor="start" x="2802.5" y="-124" font-family="Helvetica,sans-Serif" font-size="10.00" fill="#000000">/AliceO2Group/AliceO2</text>
<text text-anchor="start" x="2802.5" y="-113" font-family="Helvetica,sans-Serif" font-size="10.00" fill="#000000">/Steer/DigitizerWorkflow</text>
<text text-anchor="middle" x="2864.5" y="-102" font-family="Helvetica,sans-Serif" font-size="10.00" fill="#000000">/src/FV0DigitWriterSpec.h</text>
</a>
</g>
</g>
<!-- Node131&#45;&gt;Node149 -->
<g id="edge20" class="edge">
<title>Node131&#45;&gt;Node149</title>
<path fill="none" stroke="#191970" d="M2044.013,-211.7761C2239.3417,-204.2635 2647.464,-185.2062 2785.5,-153 2792.273,-151.4197 2799.2219,-149.3411 2806.0538,-147.0004"/>
<polygon fill="#191970" stroke="#191970" points="2043.8792,-208.2786 2034.02,-212.1575 2044.1463,-215.2735 2043.8792,-208.2786"/>
</g>
<!-- Node150 -->
<g id="node20" class="node">
<title>Node150</title>
<g id="a_node20"><a xlink:href="../../d5/d5b/HMPIDDigitWriterSpec_8h.html" target="_top" xlink:title="/home/travis/build\l/AliceO2Group/AliceO2\l/Steer/DigitizerWorkflow\l/src/HMPIDDigitWriterSpec.h">
<polygon fill="none" stroke="#000000" points="2952.5,-95 2952.5,-147 3106.5,-147 3106.5,-95 2952.5,-95"/>
<text text-anchor="start" x="2960.5" y="-135" font-family="Helvetica,sans-Serif" font-size="10.00" fill="#000000">/home/travis/build</text>
<text text-anchor="start" x="2960.5" y="-124" font-family="Helvetica,sans-Serif" font-size="10.00" fill="#000000">/AliceO2Group/AliceO2</text>
<text text-anchor="start" x="2960.5" y="-113" font-family="Helvetica,sans-Serif" font-size="10.00" fill="#000000">/Steer/DigitizerWorkflow</text>
<text text-anchor="middle" x="3029.5" y="-102" font-family="Helvetica,sans-Serif" font-size="10.00" fill="#000000">/src/HMPIDDigitWriterSpec.h</text>
</a>
</g>
</g>
<!-- Node131&#45;&gt;Node150 -->
<g id="edge22" class="edge">
<title>Node131&#45;&gt;Node150</title>
<path fill="none" stroke="#191970" d="M2044.3096,-212.8291C2267.0327,-206.6115 2774.3875,-188.8919 2943.5,-153 2950.8243,-151.4455 2958.3579,-149.3832 2965.7772,-147.0519"/>
<polygon fill="#191970" stroke="#191970" points="2044.1435,-209.3322 2034.2442,-213.1076 2044.3373,-216.3295 2044.1435,-209.3322"/>
</g>
<!-- Node151 -->
<g id="node21" class="node">
<title>Node151</title>
<g id="a_node21"><a xlink:href="../../d8/d60/MCHDigitWriterSpec_8h.html" target="_top" xlink:title="/home/travis/build\l/AliceO2Group/AliceO2\l/Steer/DigitizerWorkflow\l/src/MCHDigitWriterSpec.h">
<polygon fill="none" stroke="#000000" points="3124.5,-95 3124.5,-147 3268.5,-147 3268.5,-95 3124.5,-95"/>
<text text-anchor="start" x="3132.5" y="-135" font-family="Helvetica,sans-Serif" font-size="10.00" fill="#000000">/home/travis/build</text>
<text text-anchor="start" x="3132.5" y="-124" font-family="Helvetica,sans-Serif" font-size="10.00" fill="#000000">/AliceO2Group/AliceO2</text>
<text text-anchor="start" x="3132.5" y="-113" font-family="Helvetica,sans-Serif" font-size="10.00" fill="#000000">/Steer/DigitizerWorkflow</text>
<text text-anchor="middle" x="3196.5" y="-102" font-family="Helvetica,sans-Serif" font-size="10.00" fill="#000000">/src/MCHDigitWriterSpec.h</text>
</a>
</g>
</g>
<!-- Node131&#45;&gt;Node151 -->
<g id="edge24" class="edge">
<title>Node131&#45;&gt;Node151</title>
<path fill="none" stroke="#191970" d="M2044.4612,-214.2287C2294.8335,-210.542 2913.0756,-197.1248 3115.5,-153 3122.4434,-151.4865 3129.5675,-149.4501 3136.572,-147.1338"/>
<polygon fill="#191970" stroke="#191970" points="2044.212,-210.7318 2034.2638,-214.3764 2044.3135,-217.7311 2044.212,-210.7318"/>
</g>
<!-- Node152 -->
<g id="node22" class="node">
<title>Node152</title>
<g id="a_node22"><a xlink:href="../../d9/d65/MIDDigitWriterSpec_8h.html" target="_top" xlink:title="/home/travis/build\l/AliceO2Group/AliceO2\l/Steer/DigitizerWorkflow\l/src/MIDDigitWriterSpec.h">
<polygon fill="none" stroke="#000000" points="3286.5,-95 3286.5,-147 3426.5,-147 3426.5,-95 3286.5,-95"/>
<text text-anchor="start" x="3294.5" y="-135" font-family="Helvetica,sans-Serif" font-size="10.00" fill="#000000">/home/travis/build</text>
<text text-anchor="start" x="3294.5" y="-124" font-family="Helvetica,sans-Serif" font-size="10.00" fill="#000000">/AliceO2Group/AliceO2</text>
<text text-anchor="start" x="3294.5" y="-113" font-family="Helvetica,sans-Serif" font-size="10.00" fill="#000000">/Steer/DigitizerWorkflow</text>
<text text-anchor="middle" x="3356.5" y="-102" font-family="Helvetica,sans-Serif" font-size="10.00" fill="#000000">/src/MIDDigitWriterSpec.h</text>
</a>
</g>
</g>
<!-- Node131&#45;&gt;Node152 -->
<g id="edge26" class="edge">
<title>Node131&#45;&gt;Node152</title>
<path fill="none" stroke="#191970" d="M2044.5678,-212.5828C2341.0338,-204.2126 3158.6577,-179.0438 3277.5,-153 3284.4383,-151.4795 3291.552,-149.4042 3298.5315,-147.0356"/>
<polygon fill="#191970" stroke="#191970" points="2044.141,-209.0933 2034.2435,-212.8734 2044.338,-216.0905 2044.141,-209.0933"/>
</g>
<!-- Node153 -->
<g id="node23" class="node">
<title>Node153</title>
<g id="a_node23"><a xlink:href="../../d4/d33/PHOSDigitWriterSpec_8h.html" target="_top" xlink:title="/home/travis/build\l/AliceO2Group/AliceO2\l/Steer/DigitizerWorkflow\l/src/PHOSDigitWriterSpec.h">
<polygon fill="none" stroke="#000000" points="3445,-95 3445,-147 3594,-147 3594,-95 3445,-95"/>
<text text-anchor="start" x="3453" y="-135" font-family="Helvetica,sans-Serif" font-size="10.00" fill="#000000">/home/travis/build</text>
<text text-anchor="start" x="3453" y="-124" font-family="Helvetica,sans-Serif" font-size="10.00" fill="#000000">/AliceO2Group/AliceO2</text>
<text text-anchor="start" x="3453" y="-113" font-family="Helvetica,sans-Serif" font-size="10.00" fill="#000000">/Steer/DigitizerWorkflow</text>
<text text-anchor="middle" x="3519.5" y="-102" font-family="Helvetica,sans-Serif" font-size="10.00" fill="#000000">/src/PHOSDigitWriterSpec.h</text>
</a>
</g>
</g>
<!-- Node131&#45;&gt;Node153 -->
<g id="edge28" class="edge">
<title>Node131&#45;&gt;Node153</title>
<path fill="none" stroke="#191970" d="M2044.4213,-213.0263C2364.3792,-205.3458 3300.562,-180.7523 3435.5,-153 3442.8372,-151.491 3450.376,-149.4229 3457.783,-147.0583"/>
<polygon fill="#191970" stroke="#191970" points="2044.1313,-209.5321 2034.218,-213.2705 2044.2989,-216.5301 2044.1313,-209.5321"/>
</g>
<!-- Node154 -->
<g id="node24" class="node">
<title>Node154</title>
<g id="a_node24"><a xlink:href="../../d9/d31/ZDCDigitWriterSpec_8h.html" target="_top" xlink:title="/home/travis/build\l/AliceO2Group/AliceO2\l/Steer/DigitizerWorkflow\l/src/ZDCDigitWriterSpec.h">
<polygon fill="none" stroke="#000000" points="3612,-95 3612,-147 3755,-147 3755,-95 3612,-95"/>
<text text-anchor="start" x="3620" y="-135" font-family="Helvetica,sans-Serif" font-size="10.00" fill="#000000">/home/travis/build</text>
<text text-anchor="start" x="3620" y="-124" font-family="Helvetica,sans-Serif" font-size="10.00" fill="#000000">/AliceO2Group/AliceO2</text>
<text text-anchor="start" x="3620" y="-113" font-family="Helvetica,sans-Serif" font-size="10.00" fill="#000000">/Steer/DigitizerWorkflow</text>
<text text-anchor="middle" x="3683.5" y="-102" font-family="Helvetica,sans-Serif" font-size="10.00" fill="#000000">/src/ZDCDigitWriterSpec.h</text>
</a>
</g>
</g>
<!-- Node131&#45;&gt;Node154 -->
<g id="edge30" class="edge">
<title>Node131&#45;&gt;Node154</title>
<path fill="none" stroke="#191970" d="M2044.3724,-213.6127C2388.1462,-207.2472 3451.9154,-185.151 3603.5,-153 3610.524,-151.5102 3617.7264,-149.4541 3624.7936,-147.0964"/>
<polygon fill="#191970" stroke="#191970" points="2044.101,-210.117 2034.1673,-213.801 2044.2301,-217.1158 2044.101,-210.117"/>
</g>
<!-- Node145 -->
<g id="node15" class="node">
<title>Node145</title>
<g id="a_node15"><a xlink:href="../../d2/dd7/SimpleDigitizerWorkflow_8cxx.html" target="_top" xlink:title="/home/travis/build\l/AliceO2Group/AliceO2\l/Steer/DigitizerWorkflow\l/src/SimpleDigitizerWorkflow.cxx">
<polygon fill="none" stroke="#000000" points="2941.5,-.5 2941.5,-52.5 3117.5,-52.5 3117.5,-.5 2941.5,-.5"/>
<text text-anchor="start" x="2949.5" y="-40.5" font-family="Helvetica,sans-Serif" font-size="10.00" fill="#000000">/home/travis/build</text>
<text text-anchor="start" x="2949.5" y="-29.5" font-family="Helvetica,sans-Serif" font-size="10.00" fill="#000000">/AliceO2Group/AliceO2</text>
<text text-anchor="start" x="2949.5" y="-18.5" font-family="Helvetica,sans-Serif" font-size="10.00" fill="#000000">/Steer/DigitizerWorkflow</text>
<text text-anchor="middle" x="3029.5" y="-7.5" font-family="Helvetica,sans-Serif" font-size="10.00" fill="#000000">/src/SimpleDigitizerWorkflow.cxx</text>
</a>
</g>
</g>
<!-- Node144&#45;&gt;Node145 -->
<g id="edge14" class="edge">
<title>Node144&#45;&gt;Node145</title>
<path fill="none" stroke="#191970" d="M2272.7198,-91.8826C2276.3351,-90.8124 2279.9424,-89.8407 2283.5,-89 2406.2688,-59.9895 2771.8112,-39.0376 2941.3419,-30.6043"/>
<polygon fill="#191970" stroke="#191970" points="2271.6294,-88.5566 2263.1605,-94.9228 2273.751,-95.2273 2271.6294,-88.5566"/>
</g>
<!-- Node147&#45;&gt;Node145 -->
<g id="edge17" class="edge">
<title>Node147&#45;&gt;Node145</title>
<path fill="none" stroke="#191970" d="M2618.9854,-91.7858C2622.1816,-90.788 2625.363,-89.8528 2628.5,-89 2734.0562,-60.3052 2859.0624,-43.4281 2941.1069,-34.5883"/>
<polygon fill="#191970" stroke="#191970" points="2617.786,-88.4958 2609.3819,-94.9473 2619.9749,-95.1448 2617.786,-88.4958"/>
</g>
<!-- Node148&#45;&gt;Node145 -->
<g id="edge19" class="edge">
<title>Node148&#45;&gt;Node145</title>
<path fill="none" stroke="#191970" d="M2778.2259,-91.4695C2780.6719,-90.615 2783.1016,-89.789 2785.5,-89 2836.489,-72.2266 2894.679,-57.1691 2941.4414,-46.0384"/>
<polygon fill="#191970" stroke="#191970" points="2776.9613,-88.2048 2768.7412,-94.8891 2779.3355,-94.7899 2776.9613,-88.2048"/>
</g>
<!-- Node149&#45;&gt;Node145 -->
<g id="edge21" class="edge">
<title>Node149&#45;&gt;Node145</title>
<path fill="none" stroke="#191970" d="M2918.8521,-89.8711C2939.8919,-77.821 2963.7067,-64.1816 2983.8387,-52.6515"/>
<polygon fill="#191970" stroke="#191970" points="2916.9619,-86.9202 2910.0238,-94.9273 2920.4408,-92.9945 2916.9619,-86.9202"/>
</g>
<!-- Node150&#45;&gt;Node145 -->
<g id="edge23" class="edge">
<title>Node150&#45;&gt;Node145</title>
<path fill="none" stroke="#191970" d="M3029.5,-84.6645C3029.5,-74.0577 3029.5,-62.6746 3029.5,-52.8157"/>
<polygon fill="#191970" stroke="#191970" points="3026.0001,-84.9273 3029.5,-94.9273 3033.0001,-84.9273 3026.0001,-84.9273"/>
</g>
<!-- Node151&#45;&gt;Node145 -->
<g id="edge25" class="edge">
<title>Node151&#45;&gt;Node145</title>
<path fill="none" stroke="#191970" d="M3141.4891,-89.8711C3120.1943,-77.821 3096.0908,-64.1816 3075.7148,-52.6515"/>
<polygon fill="#191970" stroke="#191970" points="3139.9975,-93.0485 3150.4244,-94.9273 3143.4449,-86.9563 3139.9975,-93.0485"/>
</g>
<!-- Node152&#45;&gt;Node145 -->
<g id="edge27" class="edge">
<title>Node152&#45;&gt;Node145</title>
<path fill="none" stroke="#191970" d="M3284.7781,-91.4573C3282.3309,-90.6063 3279.9,-89.7843 3277.5,-89 3225.1657,-71.8965 3165.3447,-56.6984 3117.5684,-45.5725"/>
<polygon fill="#191970" stroke="#191970" points="3283.6719,-94.7788 3294.2664,-94.8661 3286.0387,-88.1911 3283.6719,-94.7788"/>
</g>
<!-- Node153&#45;&gt;Node145 -->
<g id="edge29" class="edge">
<title>Node153&#45;&gt;Node145</title>
<path fill="none" stroke="#191970" d="M3445.6538,-91.8911C3442.2411,-90.855 3438.8452,-89.884 3435.5,-89 3327.9389,-60.5752 3200.7047,-43.5845 3117.7155,-34.6478"/>
<polygon fill="#191970" stroke="#191970" points="3444.6968,-95.2596 3455.2876,-94.9659 3446.8252,-88.591 3444.6968,-95.2596"/>
</g>
<!-- Node154&#45;&gt;Node145 -->
<g id="edge31" class="edge">
<title>Node154&#45;&gt;Node145</title>
<path fill="none" stroke="#191970" d="M3613.7071,-91.8252C3610.2821,-90.7909 3606.8677,-89.8401 3603.5,-89 3434.9955,-46.9628 3231.6718,-33.1985 3117.8325,-28.6924"/>
<polygon fill="#191970" stroke="#191970" points="3612.7659,-95.1992 3623.3576,-94.9394 3614.9156,-88.5374 3612.7659,-95.1992"/>
</g>
</g>
</svg>
        <g id="navigator" transform="translate(0 0)" fill="#404254">
                <rect fill="#f2f5e9" fill-opacity="0.5" stroke="#606060" stroke-width=".5" x="0" y="0" width="60" height="60"/>
                <use id="zoomplus" xlink:href="#zoomPlus" x="17" y="9" onmousedown="handleZoom(evt,'in')"/>
                <use id="zoomminus" xlink:href="#zoomMin" x="42" y="9" onmousedown="handleZoom(evt,'out')"/>
                <use id="reset" xlink:href="#resetDef" x="30" y="36" onmousedown="handleReset()"/>
                <g id="arrowUp" xlink:href="#dirArrow" transform="translate(30 24)" onmousedown="handlePan(0,-1)">
                  <use xlink:href="#rim" fill="#404040">
                        <set attributeName="fill" to="#808080" begin="arrowUp.mouseover" end="arrowUp.mouseout"/>
                  </use>
                  <path fill="none" stroke="white" stroke-width="1.5" d="M0,-3.0v7 M-2.5,-0.5L0,-3.0L2.5,-0.5"/>
                </g>
                <g id="arrowRight" xlink:href="#dirArrow" transform="rotate(90) translate(36 -43)" onmousedown="handlePan(1,0)">
                  <use xlink:href="#rim" fill="#404040">
                        <set attributeName="fill" to="#808080" begin="arrowRight.mouseover" end="arrowRight.mouseout"/>
                  </use>
                  <path fill="none" stroke="white" stroke-width="1.5" d="M0,-3.0v7 M-2.5,-0.5L0,-3.0L2.5,-0.5"/>
                </g>
                <g id="arrowDown" xlink:href="#dirArrow" transform="rotate(180) translate(-30 -48)" onmousedown="handlePan(0,1)">
                  <use xlink:href="#rim" fill="#404040">
                        <set attributeName="fill" to="#808080" begin="arrowDown.mouseover" end="arrowDown.mouseout"/>
                  </use>
                  <path fill="none" stroke="white" stroke-width="1.5" d="M0,-3.0v7 M-2.5,-0.5L0,-3.0L2.5,-0.5"/>
                </g>
                <g id="arrowLeft" xlink:href="#dirArrow" transform="rotate(270) translate(-36 17)" onmousedown="handlePan(-1,0)">
                  <use xlink:href="#rim" fill="#404040">
                        <set attributeName="fill" to="#808080" begin="arrowLeft.mouseover" end="arrowLeft.mouseout"/>
                  </use>
                  <path fill="none" stroke="white" stroke-width="1.5" d="M0,-3.0v7 M-2.5,-0.5L0,-3.0L2.5,-0.5"/>
                </g>
        </g>
        <svg viewBox="0 0 15 15" width="100%" height="30px" preserveAspectRatio="xMaxYMin meet">
         <g id="arrow_out" transform="scale(0.3 0.3)">
          <a xlink:href="MakeRootTreeWriterSpec_8h__dep__incl_org.svg" target="_base">
           <rect id="button" ry="5" rx="5" y="6" x="6" height="38" width="38"
                fill="#f2f5e9" fill-opacity="0.5" stroke="#606060" stroke-width="1.0"/>
           <path id="arrow"
             d="M 11.500037,31.436501 C 11.940474,20.09759 22.043105,11.32322 32.158766,21.979434 L 37.068811,17.246167 C 37.068811,17.246167 37.088388,32 37.088388,32 L 22.160133,31.978069 C 22.160133,31.978069 26.997745,27.140456 26.997745,27.140456 C 18.528582,18.264221 13.291696,25.230495 11.500037,31.436501 z"
             style="fill:#404040;"/>
          </a>
         </g>
        </svg>
</svg>
