<?xml version="1.0" encoding="UTF-8" standalone="no"?>
<!DOCTYPE svg PUBLIC "-//W3C//DTD SVG 1.1//EN"
 "http://www.w3.org/Graphics/SVG/1.1/DTD/svg11.dtd">
<!-- Generated by graphviz version 2.40.1 (20161225.0304)
 -->
<!-- Title: /home/travis/build/AliceO2Group/AliceO2/Common/Utils/src/TreeStream.cxx Pages: 1 -->
<svg width="271pt" height="162pt"
 viewBox="0.00 0.00 270.50 162.00" xmlns="http://www.w3.org/2000/svg" xmlns:xlink="http://www.w3.org/1999/xlink">
<g id="graph0" class="graph" transform="scale(1 1) rotate(0) translate(4 158)">
<title>/home/travis/build/AliceO2Group/AliceO2/Common/Utils/src/TreeStream.cxx</title>
<!-- Node0 -->
<g id="node1" class="node">
<title>Node0</title>
<polygon fill="#bfbfbf" stroke="#000000" points="74.5,-112.5 74.5,-153.5 259.5,-153.5 259.5,-112.5 74.5,-112.5"/>
<text text-anchor="start" x="82.5" y="-141.5" font-family="Helvetica,sans-Serif" font-size="10.00" fill="#000000">/home/travis/build</text>
<text text-anchor="start" x="82.5" y="-130.5" font-family="Helvetica,sans-Serif" font-size="10.00" fill="#000000">/AliceO2Group/AliceO2</text>
<text text-anchor="middle" x="167" y="-119.5" font-family="Helvetica,sans-Serif" font-size="10.00" fill="#000000">/Common/Utils/src/TreeStream.cxx</text>
</g>
<!-- Node1 -->
<g id="node2" class="node">
<title>Node1</title>
<g id="a_node2"><a xlink:href="../../d2/dec/TreeStream_8h.html" target="_top" xlink:title="CommonUtils/TreeStream.h">
<polygon fill="none" stroke="#000000" points="28.5,-56.5 28.5,-75.5 179.5,-75.5 179.5,-56.5 28.5,-56.5"/>
<text text-anchor="middle" x="104" y="-63.5" font-family="Helvetica,sans-Serif" font-size="10.00" fill="#000000">CommonUtils/TreeStream.h</text>
</a>
</g>
</g>
<!-- Node0&#45;&gt;Node1 -->
<g id="edge1" class="edge">
<title>Node0&#45;&gt;Node1</title>
<path fill="none" stroke="#191970" d="M147.4117,-112.168C138.6728,-102.8742 128.4994,-92.0549 120.1985,-83.227"/>
<polygon fill="#191970" stroke="#191970" points="122.5967,-80.6681 113.1966,-75.7805 117.497,-85.4633 122.5967,-80.6681"/>
</g>
<!-- Node5 -->
<g id="node6" class="node">
<title>Node5</title>
<polygon fill="none" stroke="#bfbfbf" points="197.5,-56.5 197.5,-75.5 262.5,-75.5 262.5,-56.5 197.5,-56.5"/>
<text text-anchor="middle" x="230" y="-63.5" font-family="Helvetica,sans-Serif" font-size="10.00" fill="#000000">TBranch.h</text>
</g>
<!-- Node0&#45;&gt;Node5 -->
<g id="edge5" class="edge">
<title>Node0&#45;&gt;Node5</title>
<path fill="none" stroke="#191970" d="M186.5883,-112.168C195.3272,-102.8742 205.5006,-92.0549 213.8015,-83.227"/>
<polygon fill="#191970" stroke="#191970" points="216.503,-85.4633 220.8034,-75.7805 211.4033,-80.6681 216.503,-85.4633"/>
</g>
<!-- Node2 -->
<g id="node3" class="node">
<title>Node2</title>
<polygon fill="none" stroke="#bfbfbf" points="0,-.5 0,-19.5 60,-19.5 60,-.5 0,-.5"/>
<text text-anchor="middle" x="30" y="-7.5" font-family="Helvetica,sans-Serif" font-size="10.00" fill="#000000">TString.h</text>
</g>
<!-- Node1&#45;&gt;Node2 -->
<g id="edge2" class="edge">
<title>Node1&#45;&gt;Node2</title>
<path fill="none" stroke="#191970" d="M91.1102,-56.2455C80.0746,-47.8943 63.9708,-35.7076 51.0647,-25.9408"/>
<polygon fill="#191970" stroke="#191970" points="52.8283,-22.8862 42.7421,-19.6427 48.6041,-28.4681 52.8283,-22.8862"/>
</g>
<!-- Node3 -->
<g id="node4" class="node">
<title>Node3</title>
<polygon fill="none" stroke="#bfbfbf" points="78,-.5 78,-19.5 130,-19.5 130,-.5 78,-.5"/>
<text text-anchor="middle" x="104" y="-7.5" font-family="Helvetica,sans-Serif" font-size="10.00" fill="#000000">TTree.h</text>
</g>
<!-- Node1&#45;&gt;Node3 -->
<g id="edge3" class="edge">
<title>Node1&#45;&gt;Node3</title>
<path fill="none" stroke="#191970" d="M104,-56.2455C104,-48.9382 104,-38.6944 104,-29.7046"/>
<polygon fill="#191970" stroke="#191970" points="107.5001,-29.6426 104,-19.6427 100.5001,-29.6427 107.5001,-29.6426"/>
</g>
<!-- Node4 -->
<g id="node5" class="node">
<title>Node4</title>
<polygon fill="none" stroke="#bfbfbf" points="148.5,-.5 148.5,-19.5 195.5,-19.5 195.5,-.5 148.5,-.5"/>
<text text-anchor="middle" x="172" y="-7.5" font-family="Helvetica,sans-Serif" font-size="10.00" fill="#000000">vector</text>
</g>
<!-- Node1&#45;&gt;Node4 -->
<g id="edge4" class="edge">
<title>Node1&#45;&gt;Node4</title>
<path fill="none" stroke="#191970" d="M115.8447,-56.2455C125.888,-47.9746 140.4995,-35.9416 152.3004,-26.2232"/>
<polygon fill="#191970" stroke="#191970" points="154.7967,-28.7015 160.291,-19.6427 150.3467,-23.298 154.7967,-28.7015"/>
</g>
</g>
</svg>
