<?xml version="1.0" encoding="UTF-8" standalone="no"?>
<!DOCTYPE svg PUBLIC "-//W3C//DTD SVG 1.1//EN"
 "http://www.w3.org/Graphics/SVG/1.1/DTD/svg11.dtd">
<!-- Generated by graphviz version 2.40.1 (20161225.0304)
 -->
<!-- Title: o2::mid::Cluster3D Pages: 1 -->
<svg width="130pt" height="215pt"
 viewBox="0.00 0.00 130.00 215.00" xmlns="http://www.w3.org/2000/svg" xmlns:xlink="http://www.w3.org/1999/xlink">
<g id="graph0" class="graph" transform="scale(1 1) rotate(0) translate(4 211)">
<title>o2::mid::Cluster3D</title>
<!-- Node1 -->
<g id="node1" class="node">
<title>Node1</title>
<polygon fill="#bfbfbf" stroke="#000000" points="4.5,-.5 4.5,-57.5 111.5,-57.5 111.5,-.5 4.5,-.5"/>
<text text-anchor="middle" x="58" y="-45.5" font-family="Helvetica,sans-Serif" font-size="10.00" fill="#000000">o2::mid::Cluster3D</text>
<polyline fill="none" stroke="#000000" points="4.5,-38.5 111.5,-38.5 "/>
<text text-anchor="middle" x="58" y="-26.5" font-family="Helvetica,sans-Serif" font-size="10.00" fill="#000000"> </text>
<polyline fill="none" stroke="#000000" points="4.5,-19.5 111.5,-19.5 "/>
<text text-anchor="middle" x="58" y="-7.5" font-family="Helvetica,sans-Serif" font-size="10.00" fill="#000000"> </text>
</g>
<!-- Node2 -->
<g id="node2" class="node">
<title>Node2</title>
<g id="a_node2"><a xlink:href="../../d4/dc3/classfloat.html" target="_top" xlink:title="{float\n||}">
<polygon fill="none" stroke="#000000" points="0,-149.5 0,-206.5 38,-206.5 38,-149.5 0,-149.5"/>
<text text-anchor="middle" x="19" y="-194.5" font-family="Helvetica,sans-Serif" font-size="10.00" fill="#000000">float</text>
<polyline fill="none" stroke="#000000" points="0,-187.5 38,-187.5 "/>
<text text-anchor="middle" x="19" y="-175.5" font-family="Helvetica,sans-Serif" font-size="10.00" fill="#000000"> </text>
<polyline fill="none" stroke="#000000" points="0,-168.5 38,-168.5 "/>
<text text-anchor="middle" x="19" y="-156.5" font-family="Helvetica,sans-Serif" font-size="10.00" fill="#000000"> </text>
</a>
</g>
</g>
<!-- Node2&#45;&gt;Node1 -->
<g id="edge1" class="edge">
<title>Node2&#45;&gt;Node1</title>
<path fill="none" stroke="#404040" d="M14.3608,-149.4132C12.1209,-128.4611 11.4988,-99.6665 20,-76 20.9727,-73.292 22.1731,-70.6249 23.5411,-68.021"/>
<polygon fill="none" stroke="#404040" points="23.6084,-67.913 23.3875,-60.7053 29.9559,-57.7292 30.1767,-64.937 23.6084,-67.913"/>
<text text-anchor="middle" x="47.5" y="-123" font-family="Helvetica,sans-Serif" font-size="10.00" fill="#000000"> +sigmaX2</text>
<text text-anchor="middle" x="47.5" y="-112" font-family="Helvetica,sans-Serif" font-size="10.00" fill="#000000">+xCoor</text>
<text text-anchor="middle" x="47.5" y="-101" font-family="Helvetica,sans-Serif" font-size="10.00" fill="#000000">+yCoor</text>
<text text-anchor="middle" x="47.5" y="-90" font-family="Helvetica,sans-Serif" font-size="10.00" fill="#000000">+zCoor</text>
<text text-anchor="middle" x="47.5" y="-79" font-family="Helvetica,sans-Serif" font-size="10.00" fill="#000000">+sigmaY2</text>
</g>
<!-- Node3 -->
<g id="node3" class="node">
<title>Node3</title>
<polygon fill="none" stroke="#bfbfbf" points="72,-149.5 72,-206.5 122,-206.5 122,-149.5 72,-149.5"/>
<text text-anchor="middle" x="97" y="-194.5" font-family="Helvetica,sans-Serif" font-size="10.00" fill="#000000">uint8_t</text>
<polyline fill="none" stroke="#bfbfbf" points="72,-187.5 122,-187.5 "/>
<text text-anchor="middle" x="97" y="-175.5" font-family="Helvetica,sans-Serif" font-size="10.00" fill="#000000"> </text>
<polyline fill="none" stroke="#bfbfbf" points="72,-168.5 122,-168.5 "/>
<text text-anchor="middle" x="97" y="-156.5" font-family="Helvetica,sans-Serif" font-size="10.00" fill="#000000"> </text>
</g>
<!-- Node3&#45;&gt;Node1 -->
<g id="edge2" class="edge">
<title>Node3&#45;&gt;Node1</title>
<path fill="none" stroke="#404040" d="M91.8558,-149.1656C87.9258,-128.596 82.0027,-100.3758 75,-76 74.3531,-73.7483 73.6536,-71.4487 72.9197,-69.1364"/>
<polygon fill="none" stroke="#404040" points="72.8757,-69.0054 67.1711,-64.5943 69.0488,-57.6319 74.7534,-62.043 72.8757,-69.0054"/>
<text text-anchor="middle" x="103.5" y="-101" font-family="Helvetica,sans-Serif" font-size="10.00" fill="#000000"> +deId</text>
</g>
</g>
</svg>
