<?xml version="1.0" encoding="UTF-8" standalone="no"?>
<!DOCTYPE svg PUBLIC "-//W3C//DTD SVG 1.1//EN"
 "http://www.w3.org/Graphics/SVG/1.1/DTD/svg11.dtd">
<!-- Generated by graphviz version 2.40.1 (20161225.0304)
 -->
<!-- Title: o2::mft::HalfCone Pages: 1 -->
<svg width="143pt" height="193pt"
 viewBox="0.00 0.00 143.00 193.00" xmlns="http://www.w3.org/2000/svg" xmlns:xlink="http://www.w3.org/1999/xlink">
<g id="graph0" class="graph" transform="scale(1 1) rotate(0) translate(4 189)">
<title>o2::mft::HalfCone</title>
<!-- Node1 -->
<g id="node1" class="node">
<title>Node1</title>
<polygon fill="#bfbfbf" stroke="#000000" points="12,-.5 12,-79.5 123,-79.5 123,-.5 12,-.5"/>
<text text-anchor="middle" x="67.5" y="-67.5" font-family="Helvetica,sans-Serif" font-size="10.00" fill="#000000">o2::mft::HalfCone</text>
<polyline fill="none" stroke="#000000" points="12,-60.5 123,-60.5 "/>
<text text-anchor="middle" x="67.5" y="-48.5" font-family="Helvetica,sans-Serif" font-size="10.00" fill="#000000"> </text>
<polyline fill="none" stroke="#000000" points="12,-41.5 123,-41.5 "/>
<text text-anchor="start" x="20" y="-29.5" font-family="Helvetica,sans-Serif" font-size="10.00" fill="#000000">+ HalfCone()</text>
<text text-anchor="start" x="20" y="-18.5" font-family="Helvetica,sans-Serif" font-size="10.00" fill="#000000">+ ~HalfCone()</text>
<text text-anchor="start" x="20" y="-7.5" font-family="Helvetica,sans-Serif" font-size="10.00" fill="#000000">+ createHalfCone()</text>
</g>
<!-- Node2 -->
<g id="node2" class="node">
<title>Node2</title>
<polygon fill="none" stroke="#bfbfbf" points="0,-127.5 0,-184.5 135,-184.5 135,-127.5 0,-127.5"/>
<text text-anchor="middle" x="67.5" y="-172.5" font-family="Helvetica,sans-Serif" font-size="10.00" fill="#000000">TGeoVolumeAssembly *</text>
<polyline fill="none" stroke="#bfbfbf" points="0,-165.5 135,-165.5 "/>
<text text-anchor="middle" x="67.5" y="-153.5" font-family="Helvetica,sans-Serif" font-size="10.00" fill="#000000"> </text>
<polyline fill="none" stroke="#bfbfbf" points="0,-146.5 135,-146.5 "/>
<text text-anchor="middle" x="67.5" y="-134.5" font-family="Helvetica,sans-Serif" font-size="10.00" fill="#000000"> </text>
</g>
<!-- Node2&#45;&gt;Node1 -->
<g id="edge1" class="edge">
<title>Node2&#45;&gt;Node1</title>
<path fill="none" stroke="#404040" d="M67.5,-127.3258C67.5,-116.5576 67.5,-103.9593 67.5,-91.7364"/>
<polygon fill="none" stroke="#404040" points="67.5001,-91.7203 63.5,-85.7203 67.5,-79.7203 71.5,-85.7203 67.5001,-91.7203"/>
<text text-anchor="middle" x="101" y="-101" font-family="Helvetica,sans-Serif" font-size="10.00" fill="#000000"> #mHalfCone</text>
</g>
</g>
</svg>
