<?xml version="1.0" encoding="UTF-8" standalone="no"?>
<!DOCTYPE svg PUBLIC "-//W3C//DTD SVG 1.1//EN"
 "http://www.w3.org/Graphics/SVG/1.1/DTD/svg11.dtd">
<!-- Generated by graphviz version 2.40.1 (20161225.0304)
 -->
<!-- Title: /home/travis/build/AliceO2Group/AliceO2/Detectors/TRD/base/include/TRDBase/Tracklet.h Pages: 1 -->
<!--zoomable 350 -->
<svg id="main" version="1.1" xmlns="http://www.w3.org/2000/svg" xmlns:xlink="http://www.w3.org/1999/xlink" xml:space="preserve" onload="init(evt)">
<style type="text/css"><![CDATA[
.edge:hover path { stroke: red; }
.edge:hover polygon { stroke: red; fill: red; }
]]></style>
<script type="text/javascript"><![CDATA[
var edges = document.getElementsByTagName('g');
if (edges && edges.length) {
  for (var i=0;i<edges.length;i++) {
    if (edges[i].id.substr(0,4)=='edge') {
      edges[i].setAttribute('class','edge');
    }
  }
}
]]></script>
        <defs>
                <circle id="rim" cx="0" cy="0" r="7"/>
                <circle id="rim2" cx="0" cy="0" r="3.5"/>
                <g id="zoomPlus">
                        <use xlink:href="#rim" fill="#404040">
                                <set attributeName="fill" to="#808080" begin="zoomplus.mouseover" end="zoomplus.mouseout"/>
                        </use>
                        <path d="M-4,0h8M0,-4v8" fill="none" stroke="white" stroke-width="1.5" pointer-events="none"/>
                </g>
                <g id="zoomMin">
                        <use xlink:href="#rim" fill="#404040">
                                <set attributeName="fill" to="#808080" begin="zoomminus.mouseover" end="zoomminus.mouseout"/>
                        </use>
                        <path d="M-4,0h8" fill="none" stroke="white" stroke-width="1.5" pointer-events="none"/>
                </g>
                <g id="dirArrow">
                        <path fill="none" stroke="white" stroke-width="1.5" d="M0,-3.0v7 M-2.5,-0.5L0,-3.0L2.5,-0.5"/>
                </g>
               <g id="resetDef">
                       <use xlink:href="#rim2" fill="#404040">
                               <set attributeName="fill" to="#808080" begin="reset.mouseover" end="reset.mouseout"/>
                       </use>
               </g>
        </defs>

<script type="text/javascript">
var viewWidth = 1026;
var viewHeight = 350;
var sectionId = 'dynsection-1';
</script>
<script xlink:href="../../svgpan.js"/>
<svg id="graph" class="graph">
<g id="viewport">
<title>/home/travis/build/AliceO2Group/AliceO2/Detectors/TRD/base/include/TRDBase/Tracklet.h</title>
<!-- Node39 -->
<g id="node1" class="node">
<title>Node39</title>
<polygon fill="#bfbfbf" stroke="#000000" points="328.5,-289.5 328.5,-341.5 483.5,-341.5 483.5,-289.5 328.5,-289.5"/>
<text text-anchor="start" x="336.5" y="-329.5" font-family="Helvetica,sans-Serif" font-size="10.00" fill="#000000">/home/travis/build</text>
<text text-anchor="start" x="336.5" y="-318.5" font-family="Helvetica,sans-Serif" font-size="10.00" fill="#000000">/AliceO2Group/AliceO2</text>
<text text-anchor="start" x="336.5" y="-307.5" font-family="Helvetica,sans-Serif" font-size="10.00" fill="#000000">/Detectors/TRD/base/include</text>
<text text-anchor="middle" x="406" y="-296.5" font-family="Helvetica,sans-Serif" font-size="10.00" fill="#000000">/TRDBase/Tracklet.h</text>
</g>
<!-- Node40 -->
<g id="node2" class="node">
<title>Node40</title>
<g id="a_node2"><a xlink:href="../../d2/d07/Tracklet_8cxx.html" target="_top" xlink:title="/home/travis/build\l/AliceO2Group/AliceO2\l/Detectors/TRD/base/src\l/Tracklet.cxx">
<polygon fill="none" stroke="#000000" points="73,-195 73,-247 207,-247 207,-195 73,-195"/>
<text text-anchor="start" x="81" y="-235" font-family="Helvetica,sans-Serif" font-size="10.00" fill="#000000">/home/travis/build</text>
<text text-anchor="start" x="81" y="-224" font-family="Helvetica,sans-Serif" font-size="10.00" fill="#000000">/AliceO2Group/AliceO2</text>
<text text-anchor="start" x="81" y="-213" font-family="Helvetica,sans-Serif" font-size="10.00" fill="#000000">/Detectors/TRD/base/src</text>
<text text-anchor="middle" x="140" y="-202" font-family="Helvetica,sans-Serif" font-size="10.00" fill="#000000">/Tracklet.cxx</text>
</a>
</g>
</g>
<!-- Node39&#45;&gt;Node40 -->
<g id="edge1" class="edge">
<title>Node39&#45;&gt;Node40</title>
<path fill="none" stroke="#191970" d="M318.4038,-286.9141C287.5045,-276.5646 252.5979,-264.5707 221,-253 215.8887,-251.1283 210.6131,-249.1502 205.3206,-247.1327"/>
<polygon fill="#191970" stroke="#191970" points="317.6923,-290.3664 328.286,-290.2139 319.9094,-283.7268 317.6923,-290.3664"/>
</g>
<!-- Node41 -->
<g id="node3" class="node">
<title>Node41</title>
<g id="a_node3"><a xlink:href="../../d7/d42/TrapSimulator_8h.html" target="_top" xlink:title="/home/travis/build\l/AliceO2Group/AliceO2\l/Detectors/TRD/simulation\l/include/TRDSimulation/TrapSimulator.h">
<polygon fill="none" stroke="#000000" points="301.5,-195 301.5,-247 510.5,-247 510.5,-195 301.5,-195"/>
<text text-anchor="start" x="309.5" y="-235" font-family="Helvetica,sans-Serif" font-size="10.00" fill="#000000">/home/travis/build</text>
<text text-anchor="start" x="309.5" y="-224" font-family="Helvetica,sans-Serif" font-size="10.00" fill="#000000">/AliceO2Group/AliceO2</text>
<text text-anchor="start" x="309.5" y="-213" font-family="Helvetica,sans-Serif" font-size="10.00" fill="#000000">/Detectors/TRD/simulation</text>
<text text-anchor="middle" x="406" y="-202" font-family="Helvetica,sans-Serif" font-size="10.00" fill="#000000">/include/TRDSimulation/TrapSimulator.h</text>
</a>
</g>
</g>
<!-- Node39&#45;&gt;Node41 -->
<g id="edge2" class="edge">
<title>Node39&#45;&gt;Node41</title>
<path fill="none" stroke="#191970" d="M406,-279.1645C406,-268.5577 406,-257.1746 406,-247.3157"/>
<polygon fill="#191970" stroke="#191970" points="402.5001,-279.4273 406,-289.4273 409.5001,-279.4273 402.5001,-279.4273"/>
</g>
<!-- Node42 -->
<g id="node4" class="node">
<title>Node42</title>
<g id="a_node4"><a xlink:href="../../db/dc3/TrapConfigHandler_8cxx.html" target="_top" xlink:title="/home/travis/build\l/AliceO2Group/AliceO2\l/Detectors/TRD/simulation\l/src/TrapConfigHandler.cxx">
<polygon fill="none" stroke="#000000" points="0,-95 0,-147 146,-147 146,-95 0,-95"/>
<text text-anchor="start" x="8" y="-135" font-family="Helvetica,sans-Serif" font-size="10.00" fill="#000000">/home/travis/build</text>
<text text-anchor="start" x="8" y="-124" font-family="Helvetica,sans-Serif" font-size="10.00" fill="#000000">/AliceO2Group/AliceO2</text>
<text text-anchor="start" x="8" y="-113" font-family="Helvetica,sans-Serif" font-size="10.00" fill="#000000">/Detectors/TRD/simulation</text>
<text text-anchor="middle" x="73" y="-102" font-family="Helvetica,sans-Serif" font-size="10.00" fill="#000000">/src/TrapConfigHandler.cxx</text>
</a>
</g>
</g>
<!-- Node39&#45;&gt;Node42 -->
<g id="edge11" class="edge">
<title>Node39&#45;&gt;Node42</title>
<path fill="none" stroke="#191970" d="M318.6144,-291.7237C295.1489,-282.3781 271.0328,-269.7595 252,-253 227.5068,-231.4322 239.8537,-211.273 216,-189 203.4921,-177.321 169.3284,-160.9186 137.5309,-147.1494"/>
<polygon fill="#191970" stroke="#191970" points="317.6707,-295.1096 328.2615,-295.4024 320.1648,-288.569 317.6707,-295.1096"/>
</g>
<!-- Node43 -->
<g id="node5" class="node">
<title>Node43</title>
<g id="a_node5"><a xlink:href="../../da/deb/TrapSimulator_8cxx.html" target="_top" xlink:title="/home/travis/build\l/AliceO2Group/AliceO2\l/Detectors/TRD/simulation\l/src/TrapSimulator.cxx">
<polygon fill="none" stroke="#000000" points="164.5,-95 164.5,-147 309.5,-147 309.5,-95 164.5,-95"/>
<text text-anchor="start" x="172.5" y="-135" font-family="Helvetica,sans-Serif" font-size="10.00" fill="#000000">/home/travis/build</text>
<text text-anchor="start" x="172.5" y="-124" font-family="Helvetica,sans-Serif" font-size="10.00" fill="#000000">/AliceO2Group/AliceO2</text>
<text text-anchor="start" x="172.5" y="-113" font-family="Helvetica,sans-Serif" font-size="10.00" fill="#000000">/Detectors/TRD/simulation</text>
<text text-anchor="middle" x="237" y="-102" font-family="Helvetica,sans-Serif" font-size="10.00" fill="#000000">/src/TrapSimulator.cxx</text>
</a>
</g>
</g>
<!-- Node39&#45;&gt;Node43 -->
<g id="edge12" class="edge">
<title>Node39&#45;&gt;Node43</title>
<path fill="none" stroke="#191970" d="M331.8216,-284.3819C317.2849,-275.8029 303.119,-265.3736 292,-253 264.4543,-222.3463 249.506,-175.9444 242.4001,-147.1068"/>
<polygon fill="#191970" stroke="#191970" points="330.4648,-287.6343 340.8967,-289.4852 333.8959,-281.5329 330.4648,-287.6343"/>
</g>
<!-- Node44 -->
<g id="node6" class="node">
<title>Node44</title>
<g id="a_node6"><a xlink:href="../../dc/d96/TRDTrapSimulatorSpec_8h.html" target="_top" xlink:title="/home/travis/build\l/AliceO2Group/AliceO2\l/Detectors/TRD/workflow\l/include/TRDWorkflow/TRDTrapSimulator\lSpec.h">
<polygon fill="none" stroke="#000000" points="542,-89.5 542,-152.5 756,-152.5 756,-89.5 542,-89.5"/>
<text text-anchor="start" x="550" y="-140.5" font-family="Helvetica,sans-Serif" font-size="10.00" fill="#000000">/home/travis/build</text>
<text text-anchor="start" x="550" y="-129.5" font-family="Helvetica,sans-Serif" font-size="10.00" fill="#000000">/AliceO2Group/AliceO2</text>
<text text-anchor="start" x="550" y="-118.5" font-family="Helvetica,sans-Serif" font-size="10.00" fill="#000000">/Detectors/TRD/workflow</text>
<text text-anchor="start" x="550" y="-107.5" font-family="Helvetica,sans-Serif" font-size="10.00" fill="#000000">/include/TRDWorkflow/TRDTrapSimulator</text>
<text text-anchor="middle" x="649" y="-96.5" font-family="Helvetica,sans-Serif" font-size="10.00" fill="#000000">Spec.h</text>
</a>
</g>
</g>
<!-- Node39&#45;&gt;Node44 -->
<g id="edge17" class="edge">
<title>Node39&#45;&gt;Node44</title>
<path fill="none" stroke="#191970" d="M469.6998,-284.448C486.3463,-275.2278 503.856,-264.4916 519,-253 558.587,-222.9604 597.7413,-181.1011 622.5664,-152.6301"/>
<polygon fill="#191970" stroke="#191970" points="467.6793,-281.5623 460.561,-289.4096 471.0193,-287.7142 467.6793,-281.5623"/>
</g>
<!-- Node49 -->
<g id="node11" class="node">
<title>Node49</title>
<g id="a_node11"><a xlink:href="../../d8/dff/TRDTrackletWriterSpec_8h.html" target="_top" xlink:title="/home/travis/build\l/AliceO2Group/AliceO2\l/Detectors/TRD/workflow\l/include/TRDWorkflow/TRDTracklet\lWriterSpec.h">
<polygon fill="none" stroke="#000000" points="698.5,-189.5 698.5,-252.5 883.5,-252.5 883.5,-189.5 698.5,-189.5"/>
<text text-anchor="start" x="706.5" y="-240.5" font-family="Helvetica,sans-Serif" font-size="10.00" fill="#000000">/home/travis/build</text>
<text text-anchor="start" x="706.5" y="-229.5" font-family="Helvetica,sans-Serif" font-size="10.00" fill="#000000">/AliceO2Group/AliceO2</text>
<text text-anchor="start" x="706.5" y="-218.5" font-family="Helvetica,sans-Serif" font-size="10.00" fill="#000000">/Detectors/TRD/workflow</text>
<text text-anchor="start" x="706.5" y="-207.5" font-family="Helvetica,sans-Serif" font-size="10.00" fill="#000000">/include/TRDWorkflow/TRDTracklet</text>
<text text-anchor="middle" x="791" y="-196.5" font-family="Helvetica,sans-Serif" font-size="10.00" fill="#000000">WriterSpec.h</text>
</a>
</g>
</g>
<!-- Node39&#45;&gt;Node49 -->
<g id="edge13" class="edge">
<title>Node39&#45;&gt;Node49</title>
<path fill="none" stroke="#191970" d="M493.914,-293.9211C554.9747,-278.9335 636.1942,-258.9978 698.2776,-243.7591"/>
<polygon fill="#191970" stroke="#191970" points="492.7879,-290.5936 483.9105,-296.3765 494.4566,-297.3918 492.7879,-290.5936"/>
</g>
<!-- Node50 -->
<g id="node12" class="node">
<title>Node50</title>
<g id="a_node12"><a xlink:href="../../d0/dfb/TRDTrackletWriterSpec_8cxx.html" target="_top" xlink:title="/home/travis/build\l/AliceO2Group/AliceO2\l/Detectors/TRD/workflow\l/src/TRDTrackletWriterSpec.cxx">
<polygon fill="none" stroke="#000000" points="850,-95 850,-147 1018,-147 1018,-95 850,-95"/>
<text text-anchor="start" x="858" y="-135" font-family="Helvetica,sans-Serif" font-size="10.00" fill="#000000">/home/travis/build</text>
<text text-anchor="start" x="858" y="-124" font-family="Helvetica,sans-Serif" font-size="10.00" fill="#000000">/AliceO2Group/AliceO2</text>
<text text-anchor="start" x="858" y="-113" font-family="Helvetica,sans-Serif" font-size="10.00" fill="#000000">/Detectors/TRD/workflow</text>
<text text-anchor="middle" x="934" y="-102" font-family="Helvetica,sans-Serif" font-size="10.00" fill="#000000">/src/TRDTrackletWriterSpec.cxx</text>
</a>
</g>
</g>
<!-- Node39&#45;&gt;Node50 -->
<g id="edge18" class="edge">
<title>Node39&#45;&gt;Node50</title>
<path fill="none" stroke="#191970" d="M493.7134,-309.3117C625.3983,-299.2663 862.039,-277.9971 892,-253 923.2995,-226.8862 931.5639,-177.4854 933.5754,-147.0828"/>
<polygon fill="#191970" stroke="#191970" points="493.348,-305.8292 483.6406,-310.0738 493.8762,-312.8093 493.348,-305.8292"/>
</g>
<!-- Node41&#45;&gt;Node42 -->
<g id="edge3" class="edge">
<title>Node41&#45;&gt;Node42</title>
<path fill="none" stroke="#191970" d="M291.772,-192.8256C248.6105,-181.4564 199.2493,-167.5811 155,-153 149.4847,-151.1826 143.7999,-149.1996 138.1176,-147.1403"/>
<polygon fill="#191970" stroke="#191970" points="290.8931,-196.2134 301.4536,-195.3613 292.6668,-189.4418 290.8931,-196.2134"/>
</g>
<!-- Node41&#45;&gt;Node43 -->
<g id="edge4" class="edge">
<title>Node41&#45;&gt;Node43</title>
<path fill="none" stroke="#191970" d="M353.3432,-189.8422C330.1292,-176.106 303.1595,-160.1476 281.0347,-147.0561"/>
<polygon fill="#191970" stroke="#191970" points="351.6498,-192.9069 362.0384,-194.9872 355.2145,-186.8826 351.6498,-192.9069"/>
</g>
<!-- Node41&#45;&gt;Node44 -->
<g id="edge5" class="edge">
<title>Node41&#45;&gt;Node44</title>
<path fill="none" stroke="#191970" d="M478.6243,-191.1134C508.1519,-178.9622 542.3011,-164.909 572.2384,-152.5891"/>
<polygon fill="#191970" stroke="#191970" points="477.1266,-187.9449 469.211,-194.9872 479.7906,-194.4182 477.1266,-187.9449"/>
</g>
<!-- Node45 -->
<g id="node7" class="node">
<title>Node45</title>
<g id="a_node7"><a xlink:href="../../dd/de7/TRDTrapSimulatorSpec_8cxx.html" target="_top" xlink:title="/home/travis/build\l/AliceO2Group/AliceO2\l/Detectors/TRD/workflow\l/src/TRDTrapSimulatorSpec.cxx">
<polygon fill="none" stroke="#000000" points="310,-.5 310,-52.5 478,-52.5 478,-.5 310,-.5"/>
<text text-anchor="start" x="318" y="-40.5" font-family="Helvetica,sans-Serif" font-size="10.00" fill="#000000">/home/travis/build</text>
<text text-anchor="start" x="318" y="-29.5" font-family="Helvetica,sans-Serif" font-size="10.00" fill="#000000">/AliceO2Group/AliceO2</text>
<text text-anchor="start" x="318" y="-18.5" font-family="Helvetica,sans-Serif" font-size="10.00" fill="#000000">/Detectors/TRD/workflow</text>
<text text-anchor="middle" x="394" y="-7.5" font-family="Helvetica,sans-Serif" font-size="10.00" fill="#000000">/src/TRDTrapSimulatorSpec.cxx</text>
</a>
</g>
</g>
<!-- Node41&#45;&gt;Node45 -->
<g id="edge10" class="edge">
<title>Node41&#45;&gt;Node45</title>
<path fill="none" stroke="#191970" d="M374.9433,-186.5991C367.625,-176.4741 360.841,-164.9005 357,-153 348.2631,-125.9306 349.4882,-116.4346 357,-89 360.4965,-76.23 367.3493,-63.4212 374.2168,-52.7536"/>
<polygon fill="#191970" stroke="#191970" points="372.3106,-188.9184 381.1635,-194.7389 377.8726,-184.6681 372.3106,-188.9184"/>
</g>
<!-- Node48 -->
<g id="node10" class="node">
<title>Node48</title>
<g id="a_node10"><a xlink:href="../../d7/da6/TRDDigitReaderSpec_8cxx.html" target="_top" xlink:title="/home/travis/build\l/AliceO2Group/AliceO2\l/Detectors/TRD/workflow\l/src/TRDDigitReaderSpec.cxx">
<polygon fill="none" stroke="#000000" points="366,-95 366,-147 524,-147 524,-95 366,-95"/>
<text text-anchor="start" x="374" y="-135" font-family="Helvetica,sans-Serif" font-size="10.00" fill="#000000">/home/travis/build</text>
<text text-anchor="start" x="374" y="-124" font-family="Helvetica,sans-Serif" font-size="10.00" fill="#000000">/AliceO2Group/AliceO2</text>
<text text-anchor="start" x="374" y="-113" font-family="Helvetica,sans-Serif" font-size="10.00" fill="#000000">/Detectors/TRD/workflow</text>
<text text-anchor="middle" x="445" y="-102" font-family="Helvetica,sans-Serif" font-size="10.00" fill="#000000">/src/TRDDigitReaderSpec.cxx</text>
</a>
</g>
</g>
<!-- Node41&#45;&gt;Node48 -->
<g id="edge9" class="edge">
<title>Node41&#45;&gt;Node48</title>
<path fill="none" stroke="#191970" d="M419.7897,-185.6418C424.723,-172.9923 430.1911,-158.9715 434.7703,-147.2299"/>
<polygon fill="#191970" stroke="#191970" points="416.5177,-184.3989 416.145,-194.9872 423.0393,-186.9424 416.5177,-184.3989"/>
</g>
<!-- Node44&#45;&gt;Node45 -->
<g id="edge6" class="edge">
<title>Node44&#45;&gt;Node45</title>
<path fill="none" stroke="#191970" d="M554.1675,-85.8562C524.3986,-74.8242 492.0822,-62.8481 464.3252,-52.5617"/>
<polygon fill="#191970" stroke="#191970" points="553.1411,-89.2084 563.7342,-89.4015 555.5736,-82.6446 553.1411,-89.2084"/>
</g>
<!-- Node46 -->
<g id="node8" class="node">
<title>Node46</title>
<g id="a_node8"><a xlink:href="../../d2/dc0/TRDTrapSimulatorWorkFlow_8cxx.html" target="_top" xlink:title="/home/travis/build\l/AliceO2Group/AliceO2\l/Detectors/TRD/workflow\l/src/TRDTrapSimulatorWorkFlow.cxx">
<polygon fill="none" stroke="#000000" points="538.5,-.5 538.5,-52.5 729.5,-52.5 729.5,-.5 538.5,-.5"/>
<text text-anchor="start" x="546.5" y="-40.5" font-family="Helvetica,sans-Serif" font-size="10.00" fill="#000000">/home/travis/build</text>
<text text-anchor="start" x="546.5" y="-29.5" font-family="Helvetica,sans-Serif" font-size="10.00" fill="#000000">/AliceO2Group/AliceO2</text>
<text text-anchor="start" x="546.5" y="-18.5" font-family="Helvetica,sans-Serif" font-size="10.00" fill="#000000">/Detectors/TRD/workflow</text>
<text text-anchor="middle" x="634" y="-7.5" font-family="Helvetica,sans-Serif" font-size="10.00" fill="#000000">/src/TRDTrapSimulatorWorkFlow.cxx</text>
</a>
</g>
</g>
<!-- Node44&#45;&gt;Node46 -->
<g id="edge7" class="edge">
<title>Node44&#45;&gt;Node46</title>
<path fill="none" stroke="#191970" d="M642.3723,-79.2457C640.9366,-70.2008 639.4577,-60.8836 638.1499,-52.6442"/>
<polygon fill="#191970" stroke="#191970" points="638.939,-79.9423 643.9635,-89.27 645.8525,-78.8449 638.939,-79.9423"/>
</g>
<!-- Node47 -->
<g id="node9" class="node">
<title>Node47</title>
<g id="a_node9"><a xlink:href="../../d2/dd7/SimpleDigitizerWorkflow_8cxx.html" target="_top" xlink:title="/home/travis/build\l/AliceO2Group/AliceO2\l/Steer/DigitizerWorkflow\l/src/SimpleDigitizerWorkflow.cxx">
<polygon fill="none" stroke="#000000" points="748,-.5 748,-52.5 924,-52.5 924,-.5 748,-.5"/>
<text text-anchor="start" x="756" y="-40.5" font-family="Helvetica,sans-Serif" font-size="10.00" fill="#000000">/home/travis/build</text>
<text text-anchor="start" x="756" y="-29.5" font-family="Helvetica,sans-Serif" font-size="10.00" fill="#000000">/AliceO2Group/AliceO2</text>
<text text-anchor="start" x="756" y="-18.5" font-family="Helvetica,sans-Serif" font-size="10.00" fill="#000000">/Steer/DigitizerWorkflow</text>
<text text-anchor="middle" x="836" y="-7.5" font-family="Helvetica,sans-Serif" font-size="10.00" fill="#000000">/src/SimpleDigitizerWorkflow.cxx</text>
</a>
</g>
</g>
<!-- Node44&#45;&gt;Node47 -->
<g id="edge8" class="edge">
<title>Node44&#45;&gt;Node47</title>
<path fill="none" stroke="#191970" d="M720.5334,-84.8507C741.8076,-74.0999 764.6899,-62.5364 784.4282,-52.5617"/>
<polygon fill="#191970" stroke="#191970" points="718.8748,-81.7674 711.5283,-89.4015 722.032,-88.0149 718.8748,-81.7674"/>
</g>
<!-- Node49&#45;&gt;Node46 -->
<g id="edge15" class="edge">
<title>Node49&#45;&gt;Node46</title>
<path fill="none" stroke="#191970" d="M792.1271,-179.1485C790.8036,-151.0038 784.8109,-114.5229 765,-89 752.9482,-73.4733 736.0791,-61.606 718.4472,-52.6096"/>
<polygon fill="#191970" stroke="#191970" points="788.6383,-179.5918 792.4248,-189.4869 795.6354,-179.3903 788.6383,-179.5918"/>
</g>
<!-- Node49&#45;&gt;Node47 -->
<g id="edge16" class="edge">
<title>Node49&#45;&gt;Node47</title>
<path fill="none" stroke="#191970" d="M800.6105,-179.4614C809.5038,-141.0223 822.4512,-85.0607 829.9709,-52.5592"/>
<polygon fill="#191970" stroke="#191970" points="797.1744,-178.7857 798.3302,-189.3173 803.9943,-180.3636 797.1744,-178.7857"/>
</g>
<!-- Node49&#45;&gt;Node50 -->
<g id="edge14" class="edge">
<title>Node49&#45;&gt;Node50</title>
<path fill="none" stroke="#191970" d="M844.6214,-183.5025C861.9673,-171.3725 880.8134,-158.1934 896.7085,-147.078"/>
<polygon fill="#191970" stroke="#191970" points="842.4353,-180.7603 836.2461,-189.3594 846.4469,-186.4968 842.4353,-180.7603"/>
</g>
</g>
</svg>
        <g id="navigator" transform="translate(0 0)" fill="#404254">
                <rect fill="#f2f5e9" fill-opacity="0.5" stroke="#606060" stroke-width=".5" x="0" y="0" width="60" height="60"/>
                <use id="zoomplus" xlink:href="#zoomPlus" x="17" y="9" onmousedown="handleZoom(evt,'in')"/>
                <use id="zoomminus" xlink:href="#zoomMin" x="42" y="9" onmousedown="handleZoom(evt,'out')"/>
                <use id="reset" xlink:href="#resetDef" x="30" y="36" onmousedown="handleReset()"/>
                <g id="arrowUp" xlink:href="#dirArrow" transform="translate(30 24)" onmousedown="handlePan(0,-1)">
                  <use xlink:href="#rim" fill="#404040">
                        <set attributeName="fill" to="#808080" begin="arrowUp.mouseover" end="arrowUp.mouseout"/>
                  </use>
                  <path fill="none" stroke="white" stroke-width="1.5" d="M0,-3.0v7 M-2.5,-0.5L0,-3.0L2.5,-0.5"/>
                </g>
                <g id="arrowRight" xlink:href="#dirArrow" transform="rotate(90) translate(36 -43)" onmousedown="handlePan(1,0)">
                  <use xlink:href="#rim" fill="#404040">
                        <set attributeName="fill" to="#808080" begin="arrowRight.mouseover" end="arrowRight.mouseout"/>
                  </use>
                  <path fill="none" stroke="white" stroke-width="1.5" d="M0,-3.0v7 M-2.5,-0.5L0,-3.0L2.5,-0.5"/>
                </g>
                <g id="arrowDown" xlink:href="#dirArrow" transform="rotate(180) translate(-30 -48)" onmousedown="handlePan(0,1)">
                  <use xlink:href="#rim" fill="#404040">
                        <set attributeName="fill" to="#808080" begin="arrowDown.mouseover" end="arrowDown.mouseout"/>
                  </use>
                  <path fill="none" stroke="white" stroke-width="1.5" d="M0,-3.0v7 M-2.5,-0.5L0,-3.0L2.5,-0.5"/>
                </g>
                <g id="arrowLeft" xlink:href="#dirArrow" transform="rotate(270) translate(-36 17)" onmousedown="handlePan(-1,0)">
                  <use xlink:href="#rim" fill="#404040">
                        <set attributeName="fill" to="#808080" begin="arrowLeft.mouseover" end="arrowLeft.mouseout"/>
                  </use>
                  <path fill="none" stroke="white" stroke-width="1.5" d="M0,-3.0v7 M-2.5,-0.5L0,-3.0L2.5,-0.5"/>
                </g>
        </g>
        <svg viewBox="0 0 15 15" width="100%" height="30px" preserveAspectRatio="xMaxYMin meet">
         <g id="arrow_out" transform="scale(0.3 0.3)">
          <a xlink:href="TRD_2base_2include_2TRDBase_2Tracklet_8h__dep__incl_org.svg" target="_base">
           <rect id="button" ry="5" rx="5" y="6" x="6" height="38" width="38"
                fill="#f2f5e9" fill-opacity="0.5" stroke="#606060" stroke-width="1.0"/>
           <path id="arrow"
             d="M 11.500037,31.436501 C 11.940474,20.09759 22.043105,11.32322 32.158766,21.979434 L 37.068811,17.246167 C 37.068811,17.246167 37.088388,32 37.088388,32 L 22.160133,31.978069 C 22.160133,31.978069 26.997745,27.140456 26.997745,27.140456 C 18.528582,18.264221 13.291696,25.230495 11.500037,31.436501 z"
             style="fill:#404040;"/>
          </a>
         </g>
        </svg>
</svg>
