<?xml version="1.0" encoding="UTF-8" standalone="no"?>
<!DOCTYPE svg PUBLIC "-//W3C//DTD SVG 1.1//EN"
 "http://www.w3.org/Graphics/SVG/1.1/DTD/svg11.dtd">
<!-- Generated by graphviz version 2.40.1 (20161225.0304)
 -->
<!-- Title: AliHLTHOMERWriter::AliHLTHOMERWriterAlignmentDoubleTestStructure Pages: 1 -->
<svg width="454pt" height="226pt"
 viewBox="0.00 0.00 454.00 226.00" xmlns="http://www.w3.org/2000/svg" xmlns:xlink="http://www.w3.org/1999/xlink">
<g id="graph0" class="graph" transform="scale(1 1) rotate(0) translate(4 222)">
<title>AliHLTHOMERWriter::AliHLTHOMERWriterAlignmentDoubleTestStructure</title>
<!-- Node1 -->
<g id="node1" class="node">
<title>Node1</title>
<polygon fill="#bfbfbf" stroke="#000000" points="130.5,-.5 130.5,-79.5 291.5,-79.5 291.5,-.5 130.5,-.5"/>
<text text-anchor="start" x="138.5" y="-67.5" font-family="Helvetica,sans-Serif" font-size="10.00" fill="#000000">AliHLTHOMERWriter::</text>
<text text-anchor="start" x="138.5" y="-56.5" font-family="Helvetica,sans-Serif" font-size="10.00" fill="#000000">AliHLTHOMERWriterAlignment</text>
<text text-anchor="middle" x="211" y="-45.5" font-family="Helvetica,sans-Serif" font-size="10.00" fill="#000000">DoubleTestStructure</text>
<polyline fill="none" stroke="#000000" points="130.5,-38.5 291.5,-38.5 "/>
<text text-anchor="middle" x="211" y="-26.5" font-family="Helvetica,sans-Serif" font-size="10.00" fill="#000000"> </text>
<polyline fill="none" stroke="#000000" points="130.5,-19.5 291.5,-19.5 "/>
<text text-anchor="middle" x="211" y="-7.5" font-family="Helvetica,sans-Serif" font-size="10.00" fill="#000000"> </text>
</g>
<!-- Node2 -->
<g id="node2" class="node">
<title>Node2</title>
<polygon fill="none" stroke="#bfbfbf" points="0,-160.5 0,-217.5 50,-217.5 50,-160.5 0,-160.5"/>
<text text-anchor="middle" x="25" y="-205.5" font-family="Helvetica,sans-Serif" font-size="10.00" fill="#000000">double</text>
<polyline fill="none" stroke="#bfbfbf" points="0,-198.5 50,-198.5 "/>
<text text-anchor="middle" x="25" y="-186.5" font-family="Helvetica,sans-Serif" font-size="10.00" fill="#000000"> </text>
<polyline fill="none" stroke="#bfbfbf" points="0,-179.5 50,-179.5 "/>
<text text-anchor="middle" x="25" y="-167.5" font-family="Helvetica,sans-Serif" font-size="10.00" fill="#000000"> </text>
</g>
<!-- Node2&#45;&gt;Node1 -->
<g id="edge1" class="edge">
<title>Node2&#45;&gt;Node1</title>
<path fill="none" stroke="#404040" d="M27.9452,-160.2117C31.3864,-140.4168 38.8439,-114.7737 55,-98 72.2261,-80.1154 95.4664,-67.7023 118.7419,-59.1026"/>
<polygon fill="none" stroke="#404040" points="118.7974,-59.0835 123.1699,-53.3493 130.1447,-55.1799 125.7723,-60.9142 118.7974,-59.0835"/>
<text text-anchor="middle" x="96" y="-134" font-family="Helvetica,sans-Serif" font-size="10.00" fill="#000000"> +fDoubleTest16</text>
<text text-anchor="middle" x="96" y="-123" font-family="Helvetica,sans-Serif" font-size="10.00" fill="#000000">+fDoubleTest8</text>
<text text-anchor="middle" x="96" y="-112" font-family="Helvetica,sans-Serif" font-size="10.00" fill="#000000">+fDoubleTest64</text>
<text text-anchor="middle" x="96" y="-101" font-family="Helvetica,sans-Serif" font-size="10.00" fill="#000000">+fDoubleTest32</text>
</g>
<!-- Node3 -->
<g id="node3" class="node">
<title>Node3</title>
<polygon fill="none" stroke="#bfbfbf" points="78,-160.5 78,-217.5 162,-217.5 162,-160.5 78,-160.5"/>
<text text-anchor="middle" x="120" y="-205.5" font-family="Helvetica,sans-Serif" font-size="10.00" fill="#000000">homer_uint16</text>
<polyline fill="none" stroke="#bfbfbf" points="78,-198.5 162,-198.5 "/>
<text text-anchor="middle" x="120" y="-186.5" font-family="Helvetica,sans-Serif" font-size="10.00" fill="#000000"> </text>
<polyline fill="none" stroke="#bfbfbf" points="78,-179.5 162,-179.5 "/>
<text text-anchor="middle" x="120" y="-167.5" font-family="Helvetica,sans-Serif" font-size="10.00" fill="#000000"> </text>
</g>
<!-- Node3&#45;&gt;Node1 -->
<g id="edge2" class="edge">
<title>Node3&#45;&gt;Node1</title>
<path fill="none" stroke="#404040" d="M132.745,-160.3563C141.3115,-142.0411 153.3205,-118.0481 166,-98 167.8202,-95.122 169.7506,-92.213 171.7484,-89.3108"/>
<polygon fill="none" stroke="#404040" points="171.7637,-89.2893 171.9961,-82.082 178.7384,-79.5244 178.506,-86.7318 171.7637,-89.2893"/>
<text text-anchor="middle" x="186.5" y="-117.5" font-family="Helvetica,sans-Serif" font-size="10.00" fill="#000000"> +f16Fill</text>
</g>
<!-- Node4 -->
<g id="node4" class="node">
<title>Node4</title>
<polygon fill="none" stroke="#bfbfbf" points="180.5,-160.5 180.5,-217.5 241.5,-217.5 241.5,-160.5 180.5,-160.5"/>
<text text-anchor="middle" x="211" y="-205.5" font-family="Helvetica,sans-Serif" font-size="10.00" fill="#000000">unsigned</text>
<polyline fill="none" stroke="#bfbfbf" points="180.5,-198.5 241.5,-198.5 "/>
<text text-anchor="middle" x="211" y="-186.5" font-family="Helvetica,sans-Serif" font-size="10.00" fill="#000000"> </text>
<polyline fill="none" stroke="#bfbfbf" points="180.5,-179.5 241.5,-179.5 "/>
<text text-anchor="middle" x="211" y="-167.5" font-family="Helvetica,sans-Serif" font-size="10.00" fill="#000000"> </text>
</g>
<!-- Node4&#45;&gt;Node1 -->
<g id="edge3" class="edge">
<title>Node4&#45;&gt;Node1</title>
<path fill="none" stroke="#404040" d="M211,-160.2713C211,-140.8453 211,-114.6404 211,-91.6499"/>
<polygon fill="none" stroke="#404040" points="211.0001,-91.6236 207,-85.6236 211,-79.6236 215,-85.6235 211.0001,-91.6236"/>
<text text-anchor="middle" x="228.5" y="-117.5" font-family="Helvetica,sans-Serif" font-size="10.00" fill="#000000"> +f8Fill</text>
</g>
<!-- Node5 -->
<g id="node5" class="node">
<title>Node5</title>
<polygon fill="none" stroke="#bfbfbf" points="260,-160.5 260,-217.5 344,-217.5 344,-160.5 260,-160.5"/>
<text text-anchor="middle" x="302" y="-205.5" font-family="Helvetica,sans-Serif" font-size="10.00" fill="#000000">homer_uint64</text>
<polyline fill="none" stroke="#bfbfbf" points="260,-198.5 344,-198.5 "/>
<text text-anchor="middle" x="302" y="-186.5" font-family="Helvetica,sans-Serif" font-size="10.00" fill="#000000"> </text>
<polyline fill="none" stroke="#bfbfbf" points="260,-179.5 344,-179.5 "/>
<text text-anchor="middle" x="302" y="-167.5" font-family="Helvetica,sans-Serif" font-size="10.00" fill="#000000"> </text>
</g>
<!-- Node5&#45;&gt;Node1 -->
<g id="edge4" class="edge">
<title>Node5&#45;&gt;Node1</title>
<path fill="none" stroke="#404040" d="M286.3623,-160.4043C276.3008,-142.32 262.7639,-118.5611 250,-98 248.3181,-95.2906 246.5704,-92.5262 244.7883,-89.7467"/>
<polygon fill="none" stroke="#404040" points="244.7865,-89.7439 238.1609,-86.8975 238.24,-79.6868 244.8656,-82.5332 244.7865,-89.7439"/>
<text text-anchor="middle" x="294.5" y="-117.5" font-family="Helvetica,sans-Serif" font-size="10.00" fill="#000000"> +f64Fill</text>
</g>
<!-- Node6 -->
<g id="node6" class="node">
<title>Node6</title>
<polygon fill="none" stroke="#bfbfbf" points="362,-160.5 362,-217.5 446,-217.5 446,-160.5 362,-160.5"/>
<text text-anchor="middle" x="404" y="-205.5" font-family="Helvetica,sans-Serif" font-size="10.00" fill="#000000">homer_uint32</text>
<polyline fill="none" stroke="#bfbfbf" points="362,-198.5 446,-198.5 "/>
<text text-anchor="middle" x="404" y="-186.5" font-family="Helvetica,sans-Serif" font-size="10.00" fill="#000000"> </text>
<polyline fill="none" stroke="#bfbfbf" points="362,-179.5 446,-179.5 "/>
<text text-anchor="middle" x="404" y="-167.5" font-family="Helvetica,sans-Serif" font-size="10.00" fill="#000000"> </text>
</g>
<!-- Node6&#45;&gt;Node1 -->
<g id="edge5" class="edge">
<title>Node6&#45;&gt;Node1</title>
<path fill="none" stroke="#404040" d="M381.5373,-160.4222C365.4917,-141.2224 342.6385,-116.2008 319,-98 313.5445,-93.7994 307.743,-89.7343 301.7702,-85.8374"/>
<polygon fill="none" stroke="#404040" points="301.7503,-85.8249 294.5419,-86.022 291.5875,-79.4439 298.7959,-79.2468 301.7503,-85.8249"/>
<text text-anchor="middle" x="383.5" y="-117.5" font-family="Helvetica,sans-Serif" font-size="10.00" fill="#000000"> +f32Fill</text>
</g>
</g>
</svg>
