<?xml version="1.0" encoding="UTF-8" standalone="no"?>
<!DOCTYPE svg PUBLIC "-//W3C//DTD SVG 1.1//EN"
 "http://www.w3.org/Graphics/SVG/1.1/DTD/svg11.dtd">
<!-- Generated by graphviz version 2.40.1 (20161225.0304)
 -->
<!-- Title: /home/travis/build/AliceO2Group/AliceO2/GPU/GPUTracking/TRDTracking/GPUTRDTrack.cxx Pages: 1 -->
<!--zoomable 632 -->
<svg id="main" version="1.1" xmlns="http://www.w3.org/2000/svg" xmlns:xlink="http://www.w3.org/1999/xlink" xml:space="preserve" onload="init(evt)">
<style type="text/css"><![CDATA[
.edge:hover path { stroke: red; }
.edge:hover polygon { stroke: red; fill: red; }
]]></style>
<script type="text/javascript"><![CDATA[
var edges = document.getElementsByTagName('g');
if (edges && edges.length) {
  for (var i=0;i<edges.length;i++) {
    if (edges[i].id.substr(0,4)=='edge') {
      edges[i].setAttribute('class','edge');
    }
  }
}
]]></script>
        <defs>
                <circle id="rim" cx="0" cy="0" r="7"/>
                <circle id="rim2" cx="0" cy="0" r="3.5"/>
                <g id="zoomPlus">
                        <use xlink:href="#rim" fill="#404040">
                                <set attributeName="fill" to="#808080" begin="zoomplus.mouseover" end="zoomplus.mouseout"/>
                        </use>
                        <path d="M-4,0h8M0,-4v8" fill="none" stroke="white" stroke-width="1.5" pointer-events="none"/>
                </g>
                <g id="zoomMin">
                        <use xlink:href="#rim" fill="#404040">
                                <set attributeName="fill" to="#808080" begin="zoomminus.mouseover" end="zoomminus.mouseout"/>
                        </use>
                        <path d="M-4,0h8" fill="none" stroke="white" stroke-width="1.5" pointer-events="none"/>
                </g>
                <g id="dirArrow">
                        <path fill="none" stroke="white" stroke-width="1.5" d="M0,-3.0v7 M-2.5,-0.5L0,-3.0L2.5,-0.5"/>
                </g>
               <g id="resetDef">
                       <use xlink:href="#rim2" fill="#404040">
                               <set attributeName="fill" to="#808080" begin="reset.mouseover" end="reset.mouseout"/>
                       </use>
               </g>
        </defs>

<script type="text/javascript">
var viewWidth = 1484;
var viewHeight = 632;
var sectionId = 'dynsection-0';
</script>
<script xlink:href="../../svgpan.js"/>
<svg id="graph" class="graph">
<g id="viewport">
<title>/home/travis/build/AliceO2Group/AliceO2/GPU/GPUTracking/TRDTracking/GPUTRDTrack.cxx</title>
<!-- Node0 -->
<g id="node1" class="node">
<title>Node0</title>
<polygon fill="#bfbfbf" stroke="#000000" points="1058.5,-571.5 1058.5,-623.5 1227.5,-623.5 1227.5,-571.5 1058.5,-571.5"/>
<text text-anchor="start" x="1066.5" y="-611.5" font-family="Helvetica,sans-Serif" font-size="10.00" fill="#000000">/home/travis/build</text>
<text text-anchor="start" x="1066.5" y="-600.5" font-family="Helvetica,sans-Serif" font-size="10.00" fill="#000000">/AliceO2Group/AliceO2</text>
<text text-anchor="start" x="1066.5" y="-589.5" font-family="Helvetica,sans-Serif" font-size="10.00" fill="#000000">/GPU/GPUTracking/TRDTracking</text>
<text text-anchor="middle" x="1143" y="-578.5" font-family="Helvetica,sans-Serif" font-size="10.00" fill="#000000">/GPUTRDTrack.cxx</text>
</g>
<!-- Node1 -->
<g id="node2" class="node">
<title>Node1</title>
<g id="a_node2"><a xlink:href="../../db/dca/GPUTRDTrack_8h.html" target="_top" xlink:title="GPUTRDTrack.h">
<polygon fill="none" stroke="#000000" points="1036,-515.5 1036,-534.5 1128,-534.5 1128,-515.5 1036,-515.5"/>
<text text-anchor="middle" x="1082" y="-522.5" font-family="Helvetica,sans-Serif" font-size="10.00" fill="#000000">GPUTRDTrack.h</text>
</a>
</g>
</g>
<!-- Node0&#45;&gt;Node1 -->
<g id="edge1" class="edge">
<title>Node0&#45;&gt;Node1</title>
<path fill="none" stroke="#191970" d="M1120.9776,-571.3258C1112.8896,-561.7131 1103.9377,-551.0735 1096.6547,-542.4174"/>
<polygon fill="#191970" stroke="#191970" points="1099.138,-539.9325 1090.0217,-534.534 1093.7817,-544.4392 1099.138,-539.9325"/>
</g>
<!-- Node31 -->
<g id="node32" class="node">
<title>Node31</title>
<g id="a_node32"><a xlink:href="../../db/d74/GPUTRDTrackData_8h.html" target="_top" xlink:title="This is a flat data structure for transporting TRD tracks via network between the components...">
<polygon fill="none" stroke="#000000" points="1146,-515.5 1146,-534.5 1262,-534.5 1262,-515.5 1146,-515.5"/>
<text text-anchor="middle" x="1204" y="-522.5" font-family="Helvetica,sans-Serif" font-size="10.00" fill="#000000">GPUTRDTrackData.h</text>
</a>
</g>
</g>
<!-- Node0&#45;&gt;Node31 -->
<g id="edge54" class="edge">
<title>Node0&#45;&gt;Node31</title>
<path fill="none" stroke="#191970" d="M1165.0224,-571.3258C1173.1104,-561.7131 1182.0623,-551.0735 1189.3453,-542.4174"/>
<polygon fill="#191970" stroke="#191970" points="1192.2183,-544.4392 1195.9783,-534.534 1186.862,-539.9325 1192.2183,-544.4392"/>
</g>
<!-- Node2 -->
<g id="node3" class="node">
<title>Node2</title>
<g id="a_node3"><a xlink:href="../../d7/d4f/GPUTRDDef_8h.html" target="_top" xlink:title="GPUTRDDef.h">
<polygon fill="none" stroke="#000000" points="1040.5,-403.5 1040.5,-422.5 1123.5,-422.5 1123.5,-403.5 1040.5,-403.5"/>
<text text-anchor="middle" x="1082" y="-410.5" font-family="Helvetica,sans-Serif" font-size="10.00" fill="#000000">GPUTRDDef.h</text>
</a>
</g>
</g>
<!-- Node1&#45;&gt;Node2 -->
<g id="edge2" class="edge">
<title>Node1&#45;&gt;Node2</title>
<path fill="none" stroke="#191970" d="M1082,-515.4509C1082,-497.184 1082,-456.9553 1082,-432.6976"/>
<polygon fill="#191970" stroke="#191970" points="1085.5001,-432.5249 1082,-422.5249 1078.5001,-432.5249 1085.5001,-432.5249"/>
</g>
<!-- Node6 -->
<g id="node7" class="node">
<title>Node6</title>
<g id="a_node7"><a xlink:href="../../d2/d6d/GPUDef_8h.html" target="_top" xlink:title="GPUDef.h">
<polygon fill="none" stroke="#000000" points="1034.5,-112.5 1034.5,-131.5 1097.5,-131.5 1097.5,-112.5 1034.5,-112.5"/>
<text text-anchor="middle" x="1066" y="-119.5" font-family="Helvetica,sans-Serif" font-size="10.00" fill="#000000">GPUDef.h</text>
</a>
</g>
</g>
<!-- Node1&#45;&gt;Node6 -->
<g id="edge6" class="edge">
<title>Node1&#45;&gt;Node6</title>
<path fill="none" stroke="#191970" d="M1093.2467,-515.4756C1113.0341,-497.5856 1152,-456.7959 1152,-413 1152,-413 1152,-413 1152,-234 1152,-192.5919 1114.5622,-157.0689 1089.0888,-137.6911"/>
<polygon fill="#191970" stroke="#191970" points="1091.116,-134.8375 1080.9801,-131.7532 1086.9804,-140.4852 1091.116,-134.8375"/>
</g>
<!-- Node13 -->
<g id="node14" class="node">
<title>Node13</title>
<g id="a_node14"><a xlink:href="../../df/d77/GPUTRDInterfaces_8h.html" target="_top" xlink:title="GPUTRDInterfaces.h">
<polygon fill="none" stroke="#000000" points="570,-459.5 570,-478.5 686,-478.5 686,-459.5 570,-459.5"/>
<text text-anchor="middle" x="628" y="-466.5" font-family="Helvetica,sans-Serif" font-size="10.00" fill="#000000">GPUTRDInterfaces.h</text>
</a>
</g>
</g>
<!-- Node1&#45;&gt;Node13 -->
<g id="edge14" class="edge">
<title>Node1&#45;&gt;Node13</title>
<path fill="none" stroke="#191970" d="M1035.9696,-519.3222C955.7105,-509.4224 789.8032,-488.9581 696.1694,-477.4086"/>
<polygon fill="#191970" stroke="#191970" points="696.5829,-473.9331 686.2296,-476.1825 695.7259,-480.8805 696.5829,-473.9331"/>
</g>
<!-- Node3 -->
<g id="node4" class="node">
<title>Node3</title>
<g id="a_node4"><a xlink:href="../../df/d21/GPUCommonDef_8h.html" target="_top" xlink:title="GPUCommonDef.h">
<polygon fill="none" stroke="#000000" points="666.5,-56.5 666.5,-75.5 773.5,-75.5 773.5,-56.5 666.5,-56.5"/>
<text text-anchor="middle" x="720" y="-63.5" font-family="Helvetica,sans-Serif" font-size="10.00" fill="#000000">GPUCommonDef.h</text>
</a>
</g>
</g>
<!-- Node2&#45;&gt;Node3 -->
<g id="edge3" class="edge">
<title>Node2&#45;&gt;Node3</title>
<path fill="none" stroke="#191970" d="M1082.2596,-403.2914C1082.8164,-361.1226 1079.0437,-192.378 987,-112 971.8575,-98.7767 857.8661,-82.7001 783.8031,-73.4783"/>
<polygon fill="#191970" stroke="#191970" points="783.9852,-69.9743 773.6319,-72.2236 783.1281,-76.9217 783.9852,-69.9743"/>
</g>
<!-- Node4 -->
<g id="node5" class="node">
<title>Node4</title>
<g id="a_node5"><a xlink:href="../../d5/d93/GPUCommonDefSettings_8h.html" target="_top" xlink:title="GPUCommonDefSettings.h">
<polygon fill="none" stroke="#000000" points="494,-.5 494,-19.5 642,-19.5 642,-.5 494,-.5"/>
<text text-anchor="middle" x="568" y="-7.5" font-family="Helvetica,sans-Serif" font-size="10.00" fill="#000000">GPUCommonDefSettings.h</text>
</a>
</g>
</g>
<!-- Node3&#45;&gt;Node4 -->
<g id="edge4" class="edge">
<title>Node3&#45;&gt;Node4</title>
<path fill="none" stroke="#191970" d="M693.8703,-56.3733C668.9232,-47.1822 631.1408,-33.2624 603.4794,-23.0713"/>
<polygon fill="#191970" stroke="#191970" points="604.3822,-19.674 593.7888,-19.5011 601.9622,-26.2424 604.3822,-19.674"/>
</g>
<!-- Node5 -->
<g id="node6" class="node">
<title>Node5</title>
<g id="a_node6"><a xlink:href="../../da/d5a/GPUCommonDefAPI_8h.html" target="_top" xlink:title="GPUCommonDefAPI.h">
<polygon fill="none" stroke="#000000" points="660,-.5 660,-19.5 784,-19.5 784,-.5 660,-.5"/>
<text text-anchor="middle" x="722" y="-7.5" font-family="Helvetica,sans-Serif" font-size="10.00" fill="#000000">GPUCommonDefAPI.h</text>
</a>
</g>
</g>
<!-- Node3&#45;&gt;Node5 -->
<g id="edge5" class="edge">
<title>Node3&#45;&gt;Node5</title>
<path fill="none" stroke="#191970" d="M720.3484,-56.2455C720.6093,-48.9382 720.9752,-38.6944 721.2963,-29.7046"/>
<polygon fill="#191970" stroke="#191970" points="724.7964,-29.7613 721.6556,-19.6427 717.8008,-29.5113 724.7964,-29.7613"/>
</g>
<!-- Node6&#45;&gt;Node3 -->
<g id="edge7" class="edge">
<title>Node6&#45;&gt;Node3</title>
<path fill="none" stroke="#191970" d="M1034.3782,-114.8563C1029.571,-113.8484 1024.6609,-112.8631 1020,-112 938.8193,-96.9671 844.6298,-83.104 783.7666,-74.6103"/>
<polygon fill="#191970" stroke="#191970" points="783.9335,-71.1 773.5471,-73.1909 782.9705,-78.0334 783.9335,-71.1"/>
</g>
<!-- Node7 -->
<g id="node8" class="node">
<title>Node7</title>
<g id="a_node8"><a xlink:href="../../d2/d37/GPUDefConstantsAndSettings_8h.html" target="_top" xlink:title="GPUDefConstantsAndSettings.h">
<polygon fill="none" stroke="#000000" points="1304.5,-56.5 1304.5,-75.5 1475.5,-75.5 1475.5,-56.5 1304.5,-56.5"/>
<text text-anchor="middle" x="1390" y="-63.5" font-family="Helvetica,sans-Serif" font-size="10.00" fill="#000000">GPUDefConstantsAndSettings.h</text>
</a>
</g>
</g>
<!-- Node6&#45;&gt;Node7 -->
<g id="edge8" class="edge">
<title>Node6&#45;&gt;Node7</title>
<path fill="none" stroke="#191970" d="M1097.6564,-116.5285C1150.0923,-107.4655 1256.0117,-89.1585 1324.9251,-77.2475"/>
<polygon fill="#191970" stroke="#191970" points="1325.5556,-80.6905 1334.8134,-75.5384 1324.3634,-73.7928 1325.5556,-80.6905"/>
</g>
<!-- Node8 -->
<g id="node9" class="node">
<title>Node8</title>
<g id="a_node9"><a xlink:href="../../dc/de9/GPUDefGPUParameters_8h.html" target="_top" xlink:title="GPUDefGPUParameters.h">
<polygon fill="none" stroke="#000000" points="821,-56.5 821,-75.5 961,-75.5 961,-56.5 821,-56.5"/>
<text text-anchor="middle" x="891" y="-63.5" font-family="Helvetica,sans-Serif" font-size="10.00" fill="#000000">GPUDefGPUParameters.h</text>
</a>
</g>
</g>
<!-- Node6&#45;&gt;Node8 -->
<g id="edge9" class="edge">
<title>Node6&#45;&gt;Node8</title>
<path fill="none" stroke="#191970" d="M1035.9164,-112.3733C1006.8166,-103.0613 962.5477,-88.8953 930.597,-78.671"/>
<polygon fill="#191970" stroke="#191970" points="931.282,-75.2155 920.691,-75.5011 929.1485,-81.8824 931.282,-75.2155"/>
</g>
<!-- Node10 -->
<g id="node11" class="node">
<title>Node10</title>
<g id="a_node11"><a xlink:href="../../d3/d4c/GPUDefOpenCL12Templates_8h.html" target="_top" xlink:title="GPUDefOpenCL12Templates.h">
<polygon fill="none" stroke="#000000" points="979,-56.5 979,-75.5 1143,-75.5 1143,-56.5 979,-56.5"/>
<text text-anchor="middle" x="1061" y="-63.5" font-family="Helvetica,sans-Serif" font-size="10.00" fill="#000000">GPUDefOpenCL12Templates.h</text>
</a>
</g>
</g>
<!-- Node6&#45;&gt;Node10 -->
<g id="edge11" class="edge">
<title>Node6&#45;&gt;Node10</title>
<path fill="none" stroke="#191970" d="M1065.1291,-112.2455C1064.4766,-104.9382 1063.562,-94.6944 1062.7593,-85.7046"/>
<polygon fill="#191970" stroke="#191970" points="1066.2365,-85.2918 1061.861,-75.6427 1059.2642,-85.9143 1066.2365,-85.2918"/>
</g>
<!-- Node11 -->
<g id="node12" class="node">
<title>Node11</title>
<g id="a_node12"><a xlink:href="../../d2/d45/GPUCommonRtypes_8h.html" target="_top" xlink:title="GPUCommonRtypes.h">
<polygon fill="none" stroke="#000000" points="1161.5,-56.5 1161.5,-75.5 1286.5,-75.5 1286.5,-56.5 1161.5,-56.5"/>
<text text-anchor="middle" x="1224" y="-63.5" font-family="Helvetica,sans-Serif" font-size="10.00" fill="#000000">GPUCommonRtypes.h</text>
</a>
</g>
</g>
<!-- Node6&#45;&gt;Node11 -->
<g id="edge12" class="edge">
<title>Node6&#45;&gt;Node11</title>
<path fill="none" stroke="#191970" d="M1093.1612,-112.3733C1119.2067,-103.1419 1158.7116,-89.1402 1187.4979,-78.9375"/>
<polygon fill="#191970" stroke="#191970" points="1188.937,-82.1408 1197.1933,-75.5011 1186.5985,-75.5429 1188.937,-82.1408"/>
</g>
<!-- Node9 -->
<g id="node10" class="node">
<title>Node9</title>
<g id="a_node10"><a xlink:href="../../d6/dff/GPUDefMacros_8h.html" target="_top" xlink:title="GPUDefMacros.h">
<polygon fill="none" stroke="#000000" points="842,-.5 842,-19.5 940,-19.5 940,-.5 842,-.5"/>
<text text-anchor="middle" x="891" y="-7.5" font-family="Helvetica,sans-Serif" font-size="10.00" fill="#000000">GPUDefMacros.h</text>
</a>
</g>
</g>
<!-- Node8&#45;&gt;Node9 -->
<g id="edge10" class="edge">
<title>Node8&#45;&gt;Node9</title>
<path fill="none" stroke="#191970" d="M891,-56.2455C891,-48.9382 891,-38.6944 891,-29.7046"/>
<polygon fill="#191970" stroke="#191970" points="894.5001,-29.6426 891,-19.6427 887.5001,-29.6427 894.5001,-29.6426"/>
</g>
<!-- Node12 -->
<g id="node13" class="node">
<title>Node12</title>
<polygon fill="none" stroke="#bfbfbf" points="1194.5,-.5 1194.5,-19.5 1253.5,-19.5 1253.5,-.5 1194.5,-.5"/>
<text text-anchor="middle" x="1224" y="-7.5" font-family="Helvetica,sans-Serif" font-size="10.00" fill="#000000">Rtypes.h</text>
</g>
<!-- Node11&#45;&gt;Node12 -->
<g id="edge13" class="edge">
<title>Node11&#45;&gt;Node12</title>
<path fill="none" stroke="#191970" d="M1224,-56.2455C1224,-48.9382 1224,-38.6944 1224,-29.7046"/>
<polygon fill="#191970" stroke="#191970" points="1227.5001,-29.6426 1224,-19.6427 1220.5001,-29.6427 1227.5001,-29.6426"/>
</g>
<!-- Node13&#45;&gt;Node2 -->
<g id="edge34" class="edge">
<title>Node13&#45;&gt;Node2</title>
<path fill="none" stroke="#191970" d="M686.15,-463.4132C763.8035,-455.6936 905.568,-440.6953 1026,-423 1027.4657,-422.7846 1028.9518,-422.5602 1030.4511,-422.3285"/>
<polygon fill="#191970" stroke="#191970" points="1031.1427,-425.7622 1040.4566,-420.7123 1030.0265,-418.8518 1031.1427,-425.7622"/>
</g>
<!-- Node13&#45;&gt;Node3 -->
<g id="edge15" class="edge">
<title>Node13&#45;&gt;Node3</title>
<path fill="none" stroke="#191970" d="M569.6919,-465.6038C460.4143,-458.871 228.815,-442.7604 151,-423 79.0298,-404.7239 0,-425.7545 0,-351.5 0,-351.5 0,-351.5 0,-178 0,-111.8752 480.284,-79.0528 656.3195,-69.2435"/>
<polygon fill="#191970" stroke="#191970" points="656.6788,-72.7291 666.4712,-68.6846 656.2939,-65.7397 656.6788,-72.7291"/>
</g>
<!-- Node13&#45;&gt;Node6 -->
<g id="edge53" class="edge">
<title>Node13&#45;&gt;Node6</title>
<path fill="none" stroke="#191970" d="M667.4339,-459.4867C723.3627,-444.9343 827.7337,-413.8134 907,-367 996.3731,-314.2177 1024.9738,-286.7312 1057,-188 1061.8572,-173.0261 1064.0936,-155.3154 1065.123,-142.0122"/>
<polygon fill="#191970" stroke="#191970" points="1068.6404,-141.8293 1065.7524,-131.6357 1061.6533,-141.4054 1068.6404,-141.8293"/>
</g>
<!-- Node14 -->
<g id="node15" class="node">
<title>Node14</title>
<g id="a_node15"><a xlink:href="../../d6/da2/GPUCommonMath_8h.html" target="_top" xlink:title="GPUCommonMath.h">
<polygon fill="none" stroke="#000000" points="711.5,-224.5 711.5,-243.5 826.5,-243.5 826.5,-224.5 711.5,-224.5"/>
<text text-anchor="middle" x="769" y="-231.5" font-family="Helvetica,sans-Serif" font-size="10.00" fill="#000000">GPUCommonMath.h</text>
</a>
</g>
</g>
<!-- Node13&#45;&gt;Node14 -->
<g id="edge16" class="edge">
<title>Node13&#45;&gt;Node14</title>
<path fill="none" stroke="#191970" d="M581.5052,-459.489C486.4211,-439.5803 276.9679,-393.1986 257,-367 248.6482,-356.0421 248.261,-346.6517 257,-336 258.8122,-333.7912 575.7423,-271.7173 709.9994,-245.505"/>
<polygon fill="#191970" stroke="#191970" points="710.9675,-248.8822 720.1117,-243.5311 709.6263,-242.0119 710.9675,-248.8822"/>
</g>
<!-- Node17 -->
<g id="node18" class="node">
<title>Node17</title>
<g id="a_node18"><a xlink:href="../../d8/dfd/GPUTPCGMMergedTrack_8h.html" target="_top" xlink:title="GPUTPCGMMergedTrack.h">
<polygon fill="none" stroke="#000000" points="28.5,-342 28.5,-361 171.5,-361 171.5,-342 28.5,-342"/>
<text text-anchor="middle" x="100" y="-349" font-family="Helvetica,sans-Serif" font-size="10.00" fill="#000000">GPUTPCGMMergedTrack.h</text>
</a>
</g>
</g>
<!-- Node13&#45;&gt;Node17 -->
<g id="edge20" class="edge">
<title>Node13&#45;&gt;Node17</title>
<path fill="none" stroke="#191970" d="M569.7102,-467.1249C465.9667,-463.0994 253.8126,-451.5625 186,-423 157.2435,-410.8878 130.7009,-385.8067 114.9247,-368.812"/>
<polygon fill="#191970" stroke="#191970" points="117.3741,-366.3016 108.0823,-361.2111 112.1715,-370.985 117.3741,-366.3016"/>
</g>
<!-- Node18 -->
<g id="node19" class="node">
<title>Node18</title>
<g id="a_node19"><a xlink:href="../../d8/d33/GPUTPCGMTrackParam_8h.html" target="_top" xlink:title="GPUTPCGMTrackParam.h">
<polygon fill="none" stroke="#000000" points="285.5,-280.5 285.5,-299.5 422.5,-299.5 422.5,-280.5 285.5,-280.5"/>
<text text-anchor="middle" x="354" y="-287.5" font-family="Helvetica,sans-Serif" font-size="10.00" fill="#000000">GPUTPCGMTrackParam.h</text>
</a>
</g>
</g>
<!-- Node13&#45;&gt;Node18 -->
<g id="edge33" class="edge">
<title>Node13&#45;&gt;Node18</title>
<path fill="none" stroke="#191970" d="M569.9361,-466.5915C463.658,-461.5832 246.6226,-448.3446 224,-423 198.2515,-394.1534 201.6799,-367.5741 224,-336 233.4243,-322.6683 269.7071,-310.4851 301.5541,-302.0108"/>
<polygon fill="#191970" stroke="#191970" points="302.4542,-305.3933 311.2606,-299.5028 300.703,-298.6159 302.4542,-305.3933"/>
</g>
<!-- Node24 -->
<g id="node25" class="node">
<title>Node24</title>
<g id="a_node25"><a xlink:href="../../d0/dd8/GPUTPCGMPropagator_8h.html" target="_top" xlink:title="GPUTPCGMPropagator.h">
<polygon fill="none" stroke="#000000" points="561,-403.5 561,-422.5 695,-422.5 695,-403.5 561,-403.5"/>
<text text-anchor="middle" x="628" y="-410.5" font-family="Helvetica,sans-Serif" font-size="10.00" fill="#000000">GPUTPCGMPropagator.h</text>
</a>
</g>
</g>
<!-- Node13&#45;&gt;Node24 -->
<g id="edge35" class="edge">
<title>Node13&#45;&gt;Node24</title>
<path fill="none" stroke="#191970" d="M628,-459.2455C628,-451.9382 628,-441.6944 628,-432.7046"/>
<polygon fill="#191970" stroke="#191970" points="631.5001,-432.6426 628,-422.6427 624.5001,-432.6427 631.5001,-432.6426"/>
</g>
<!-- Node28 -->
<g id="node29" class="node">
<title>Node28</title>
<g id="a_node29"><a xlink:href="../../df/d13/GPUParam_8h.html" target="_top" xlink:title="GPUParam.h">
<polygon fill="none" stroke="#000000" points="820.5,-342 820.5,-361 897.5,-361 897.5,-342 820.5,-342"/>
<text text-anchor="middle" x="859" y="-349" font-family="Helvetica,sans-Serif" font-size="10.00" fill="#000000">GPUParam.h</text>
</a>
</g>
</g>
<!-- Node13&#45;&gt;Node28 -->
<g id="edge44" class="edge">
<title>Node13&#45;&gt;Node28</title>
<path fill="none" stroke="#191970" d="M646.9037,-459.3845C687.5293,-438.7199 783.333,-389.9886 831.0216,-365.7314"/>
<polygon fill="#191970" stroke="#191970" points="832.8327,-368.737 840.1591,-361.0836 829.659,-362.4978 832.8327,-368.737"/>
</g>
<!-- Node14&#45;&gt;Node3 -->
<g id="edge17" class="edge">
<title>Node14&#45;&gt;Node3</title>
<path fill="none" stroke="#191970" d="M757.2451,-224.4086C747.7879,-215.9284 735.1042,-202.6542 729,-188 714.907,-154.1672 715.7245,-110.5094 717.7542,-85.6468"/>
<polygon fill="#191970" stroke="#191970" points="721.2421,-85.9398 718.7228,-75.6489 714.2747,-85.2647 721.2421,-85.9398"/>
</g>
<!-- Node15 -->
<g id="node16" class="node">
<title>Node15</title>
<polygon fill="none" stroke="#bfbfbf" points="820.5,-168.5 820.5,-187.5 867.5,-187.5 867.5,-168.5 820.5,-168.5"/>
<text text-anchor="middle" x="844" y="-175.5" font-family="Helvetica,sans-Serif" font-size="10.00" fill="#000000">cmath</text>
</g>
<!-- Node14&#45;&gt;Node15 -->
<g id="edge18" class="edge">
<title>Node14&#45;&gt;Node15</title>
<path fill="none" stroke="#191970" d="M782.064,-224.2455C793.3562,-215.814 809.8845,-203.4729 823.0271,-193.6598"/>
<polygon fill="#191970" stroke="#191970" points="825.1669,-196.4301 831.0857,-187.6427 820.9789,-190.8211 825.1669,-196.4301"/>
</g>
<!-- Node16 -->
<g id="node17" class="node">
<title>Node16</title>
<polygon fill="none" stroke="#bfbfbf" points="738,-168.5 738,-187.5 802,-187.5 802,-168.5 738,-168.5"/>
<text text-anchor="middle" x="770" y="-175.5" font-family="Helvetica,sans-Serif" font-size="10.00" fill="#000000">algorithm</text>
</g>
<!-- Node14&#45;&gt;Node16 -->
<g id="edge19" class="edge">
<title>Node14&#45;&gt;Node16</title>
<path fill="none" stroke="#191970" d="M769.1742,-224.2455C769.3047,-216.9382 769.4876,-206.6944 769.6481,-197.7046"/>
<polygon fill="#191970" stroke="#191970" points="773.1486,-197.7036 769.8278,-187.6427 766.1497,-197.5786 773.1486,-197.7036"/>
</g>
<!-- Node17&#45;&gt;Node18 -->
<g id="edge21" class="edge">
<title>Node17&#45;&gt;Node18</title>
<path fill="none" stroke="#191970" d="M139.4088,-341.9581C183.8997,-331.1857 256.3531,-313.6428 304.5915,-301.9631"/>
<polygon fill="#191970" stroke="#191970" points="305.6032,-305.3193 314.4987,-299.5643 303.9559,-298.5159 305.6032,-305.3193"/>
</g>
<!-- Node20 -->
<g id="node21" class="node">
<title>Node20</title>
<g id="a_node21"><a xlink:href="../../d3/dcc/GPUTPCGMMergedTrackHit_8h.html" target="_top" xlink:title="GPUTPCGMMergedTrackHit.h">
<polygon fill="none" stroke="#000000" points="49.5,-224.5 49.5,-243.5 206.5,-243.5 206.5,-224.5 49.5,-224.5"/>
<text text-anchor="middle" x="128" y="-231.5" font-family="Helvetica,sans-Serif" font-size="10.00" fill="#000000">GPUTPCGMMergedTrackHit.h</text>
</a>
</g>
</g>
<!-- Node17&#45;&gt;Node20 -->
<g id="edge31" class="edge">
<title>Node17&#45;&gt;Node20</title>
<path fill="none" stroke="#191970" d="M102.2914,-341.8845C106.865,-322.6913 117.2084,-279.286 123.2897,-253.7663"/>
<polygon fill="#191970" stroke="#191970" points="126.7635,-254.2874 125.677,-243.7484 119.9542,-252.6646 126.7635,-254.2874"/>
</g>
<!-- Node21 -->
<g id="node22" class="node">
<title>Node21</title>
<g id="a_node22"><a xlink:href="../../d3/d1f/GPUdEdxInfo_8h.html" target="_top" xlink:title="GPUdEdxInfo.h">
<polygon fill="none" stroke="#000000" points="224.5,-224.5 224.5,-243.5 313.5,-243.5 313.5,-224.5 224.5,-224.5"/>
<text text-anchor="middle" x="269" y="-231.5" font-family="Helvetica,sans-Serif" font-size="10.00" fill="#000000">GPUdEdxInfo.h</text>
</a>
</g>
</g>
<!-- Node17&#45;&gt;Node21 -->
<g id="edge32" class="edge">
<title>Node17&#45;&gt;Node21</title>
<path fill="none" stroke="#191970" d="M113.83,-341.8845C143.0447,-321.5724 211.2623,-274.1431 246.7151,-249.4939"/>
<polygon fill="#191970" stroke="#191970" points="248.7664,-252.3306 254.9789,-243.7484 244.7704,-246.5832 248.7664,-252.3306"/>
</g>
<!-- Node18&#45;&gt;Node14 -->
<g id="edge26" class="edge">
<title>Node18&#45;&gt;Node14</title>
<path fill="none" stroke="#191970" d="M422.5288,-280.7527C499.753,-270.3321 624.5048,-253.4981 701.3615,-243.1271"/>
<polygon fill="#191970" stroke="#191970" points="701.9732,-246.5764 711.4153,-241.7705 701.037,-239.6393 701.9732,-246.5764"/>
</g>
<!-- Node19 -->
<g id="node20" class="node">
<title>Node19</title>
<g id="a_node20"><a xlink:href="../../da/dab/GPUTPCDef_8h.html" target="_top" xlink:title="GPUTPCDef.h">
<polygon fill="none" stroke="#000000" points="559,-168.5 559,-187.5 641,-187.5 641,-168.5 559,-168.5"/>
<text text-anchor="middle" x="600" y="-175.5" font-family="Helvetica,sans-Serif" font-size="10.00" fill="#000000">GPUTPCDef.h</text>
</a>
</g>
</g>
<!-- Node18&#45;&gt;Node19 -->
<g id="edge22" class="edge">
<title>Node18&#45;&gt;Node19</title>
<path fill="none" stroke="#191970" d="M370.8071,-280.3921C394.6735,-266.9351 439.9415,-242.0953 480,-224 507.3427,-211.6487 539.0708,-199.5808 563.0327,-190.9066"/>
<polygon fill="#191970" stroke="#191970" points="564.2327,-194.1946 572.4629,-187.5227 561.8684,-187.606 564.2327,-194.1946"/>
</g>
<!-- Node18&#45;&gt;Node20 -->
<g id="edge24" class="edge">
<title>Node18&#45;&gt;Node20</title>
<path fill="none" stroke="#191970" d="M315.406,-280.4369C276.9716,-270.9133 217.864,-256.2672 176.329,-245.9753"/>
<polygon fill="#191970" stroke="#191970" points="176.9831,-242.5316 166.4348,-243.5237 175.2994,-249.3261 176.9831,-242.5316"/>
</g>
<!-- Node18&#45;&gt;Node21 -->
<g id="edge27" class="edge">
<title>Node18&#45;&gt;Node21</title>
<path fill="none" stroke="#191970" d="M339.1941,-280.2455C326.2744,-271.7337 307.3069,-259.2375 292.3448,-249.3801"/>
<polygon fill="#191970" stroke="#191970" points="293.9124,-246.2216 283.6362,-243.6427 290.0613,-252.067 293.9124,-246.2216"/>
</g>
<!-- Node22 -->
<g id="node23" class="node">
<title>Node22</title>
<g id="a_node23"><a xlink:href="../../de/d4c/GPUTPCGMMergerTypes_8h.html" target="_top" xlink:title="GPUTPCGMMergerTypes.h">
<polygon fill="none" stroke="#000000" points="488.5,-224.5 488.5,-243.5 631.5,-243.5 631.5,-224.5 488.5,-224.5"/>
<text text-anchor="middle" x="560" y="-231.5" font-family="Helvetica,sans-Serif" font-size="10.00" fill="#000000">GPUTPCGMMergerTypes.h</text>
</a>
</g>
</g>
<!-- Node18&#45;&gt;Node22 -->
<g id="edge28" class="edge">
<title>Node18&#45;&gt;Node22</title>
<path fill="none" stroke="#191970" d="M389.4127,-280.3733C424.2605,-270.9001 477.5882,-256.4032 515.3293,-246.1435"/>
<polygon fill="#191970" stroke="#191970" points="516.3178,-249.5019 525.0494,-243.5011 514.4815,-242.747 516.3178,-249.5019"/>
</g>
<!-- Node23 -->
<g id="node24" class="node">
<title>Node23</title>
<polygon fill="none" stroke="#bfbfbf" points="331.5,-224.5 331.5,-243.5 384.5,-243.5 384.5,-224.5 331.5,-224.5"/>
<text text-anchor="middle" x="358" y="-231.5" font-family="Helvetica,sans-Serif" font-size="10.00" fill="#000000">cstddef</text>
</g>
<!-- Node18&#45;&gt;Node23 -->
<g id="edge30" class="edge">
<title>Node18&#45;&gt;Node23</title>
<path fill="none" stroke="#191970" d="M354.6967,-280.2455C355.2187,-272.9382 355.9504,-262.6944 356.5925,-253.7046"/>
<polygon fill="#191970" stroke="#191970" points="360.0898,-253.8667 357.3112,-243.6427 353.1076,-253.3679 360.0898,-253.8667"/>
</g>
<!-- Node19&#45;&gt;Node6 -->
<g id="edge23" class="edge">
<title>Node19&#45;&gt;Node6</title>
<path fill="none" stroke="#191970" d="M641.2504,-173.2012C712.0108,-164.946 861.0813,-147.4529 987,-132 999.0988,-130.5152 1012.2348,-128.867 1024.2584,-127.344"/>
<polygon fill="#191970" stroke="#191970" points="1025.005,-130.7774 1034.4842,-126.0451 1024.1229,-123.8332 1025.005,-130.7774"/>
</g>
<!-- Node20&#45;&gt;Node3 -->
<g id="edge25" class="edge">
<title>Node20&#45;&gt;Node3</title>
<path fill="none" stroke="#191970" d="M148.7246,-224.3715C198.7417,-201.5085 330.4797,-143.5154 446,-112 516.7497,-92.6986 600.1065,-80.0985 656.1416,-73.0478"/>
<polygon fill="#191970" stroke="#191970" points="656.7821,-76.4953 666.2774,-71.7955 655.9237,-69.5482 656.7821,-76.4953"/>
</g>
<!-- Node22&#45;&gt;Node19 -->
<g id="edge29" class="edge">
<title>Node22&#45;&gt;Node19</title>
<path fill="none" stroke="#191970" d="M566.9675,-224.2455C572.5311,-216.4564 580.478,-205.3308 587.1829,-195.9439"/>
<polygon fill="#191970" stroke="#191970" points="590.148,-197.8144 593.1124,-187.6427 584.4519,-193.7457 590.148,-197.8144"/>
</g>
<!-- Node24&#45;&gt;Node3 -->
<g id="edge36" class="edge">
<title>Node24&#45;&gt;Node3</title>
<path fill="none" stroke="#191970" d="M584.5545,-403.4396C549.1131,-394.7806 502.8771,-381.2324 490,-367 449.3448,-322.0661 460,-294.5962 460,-234 460,-234 460,-234 460,-178 460,-133.6089 589.4552,-96.0993 665.6723,-77.8622"/>
<polygon fill="#191970" stroke="#191970" points="666.6689,-81.2233 675.5998,-75.5235 665.0637,-74.4099 666.6689,-81.2233"/>
</g>
<!-- Node24&#45;&gt;Node14 -->
<g id="edge42" class="edge">
<title>Node24&#45;&gt;Node14</title>
<path fill="none" stroke="#191970" d="M643.618,-403.4791C655.2472,-395.3972 670.2332,-382.6339 677,-367 682.4728,-354.3558 684.5845,-347.5023 677,-336 654.6405,-302.0909 615.3595,-333.9091 593,-300 588.1067,-292.5792 587.5671,-287.0353 593,-280 606.4757,-262.5495 657.6063,-250.4507 701.3088,-243.0569"/>
<polygon fill="#191970" stroke="#191970" points="702.0599,-246.4807 711.3649,-241.4144 700.9314,-239.5722 702.0599,-246.4807"/>
</g>
<!-- Node24&#45;&gt;Node22 -->
<g id="edge43" class="edge">
<title>Node24&#45;&gt;Node22</title>
<path fill="none" stroke="#191970" d="M638.0226,-403.3435C652.6273,-388.0802 676.4225,-357.87 661,-336 633.5361,-297.0546 587.4639,-338.9454 560,-300 550.5281,-286.5683 551.6705,-267.4683 554.5063,-253.2686"/>
<polygon fill="#191970" stroke="#191970" points="557.9103,-254.0826 556.8572,-243.5402 551.1061,-252.4383 557.9103,-254.0826"/>
</g>
<!-- Node25 -->
<g id="node26" class="node">
<title>Node25</title>
<g id="a_node26"><a xlink:href="../../d0/d79/GPUTPCGMOfflineStatisticalErrors_8h.html" target="_top" xlink:title="GPUTPCGMOfflineStatistical\lErrors.h">
<polygon fill="none" stroke="#000000" points="498.5,-336.5 498.5,-366.5 651.5,-366.5 651.5,-336.5 498.5,-336.5"/>
<text text-anchor="start" x="506.5" y="-354.5" font-family="Helvetica,sans-Serif" font-size="10.00" fill="#000000">GPUTPCGMOfflineStatistical</text>
<text text-anchor="middle" x="575" y="-343.5" font-family="Helvetica,sans-Serif" font-size="10.00" fill="#000000">Errors.h</text>
</a>
</g>
</g>
<!-- Node24&#45;&gt;Node25 -->
<g id="edge37" class="edge">
<title>Node24&#45;&gt;Node25</title>
<path fill="none" stroke="#191970" d="M619.7188,-403.3906C613.0108,-395.6068 603.2841,-384.3202 594.6141,-374.2597"/>
<polygon fill="#191970" stroke="#191970" points="597.1448,-371.8349 587.9653,-366.5446 591.8422,-376.4046 597.1448,-371.8349"/>
</g>
<!-- Node26 -->
<g id="node27" class="node">
<title>Node26</title>
<g id="a_node27"><a xlink:href="../../d6/d37/GPUTPCGMPhysicalTrackModel_8h.html" target="_top" xlink:title="GPUTPCGMPhysicalTrackModel.h">
<polygon fill="none" stroke="#000000" points="266,-342 266,-361 442,-361 442,-342 266,-342"/>
<text text-anchor="middle" x="354" y="-349" font-family="Helvetica,sans-Serif" font-size="10.00" fill="#000000">GPUTPCGMPhysicalTrackModel.h</text>
</a>
</g>
</g>
<!-- Node24&#45;&gt;Node26 -->
<g id="edge38" class="edge">
<title>Node24&#45;&gt;Node26</title>
<path fill="none" stroke="#191970" d="M585.4881,-403.4581C537.2932,-392.6406 458.681,-374.9959 406.6471,-363.3168"/>
<polygon fill="#191970" stroke="#191970" points="407.1354,-359.8394 396.6116,-361.0643 405.6023,-366.6694 407.1354,-359.8394"/>
</g>
<!-- Node27 -->
<g id="node28" class="node">
<title>Node27</title>
<g id="a_node28"><a xlink:href="../../d9/d9c/GPUTPCGMPolynomialField_8h.html" target="_top" xlink:title="GPUTPCGMPolynomialField.h">
<polygon fill="none" stroke="#000000" points="602,-280.5 602,-299.5 760,-299.5 760,-280.5 602,-280.5"/>
<text text-anchor="middle" x="681" y="-287.5" font-family="Helvetica,sans-Serif" font-size="10.00" fill="#000000">GPUTPCGMPolynomialField.h</text>
</a>
</g>
</g>
<!-- Node24&#45;&gt;Node27 -->
<g id="edge40" class="edge">
<title>Node24&#45;&gt;Node27</title>
<path fill="none" stroke="#191970" d="M677.7035,-403.476C698.1367,-396.8489 719.8266,-385.6954 732,-367 739.518,-355.4541 737.5985,-348.589 732,-336 726.5492,-323.7432 716.0401,-313.3755 705.9711,-305.6036"/>
<polygon fill="#191970" stroke="#191970" points="707.904,-302.6828 697.7373,-299.7012 703.8256,-308.3721 707.904,-302.6828"/>
</g>
<!-- Node26&#45;&gt;Node18 -->
<g id="edge39" class="edge">
<title>Node26&#45;&gt;Node18</title>
<path fill="none" stroke="#191970" d="M354,-341.8906C354,-333.3657 354,-320.6392 354,-309.9235"/>
<polygon fill="#191970" stroke="#191970" points="357.5001,-309.7448 354,-299.7449 350.5001,-309.7449 357.5001,-309.7448"/>
</g>
<!-- Node27&#45;&gt;Node19 -->
<g id="edge41" class="edge">
<title>Node27&#45;&gt;Node19</title>
<path fill="none" stroke="#191970" d="M675.8286,-280.2484C668.6656,-267.0482 655.015,-242.9646 641,-224 633.58,-213.9594 624.4045,-203.5136 616.6162,-195.1187"/>
<polygon fill="#191970" stroke="#191970" points="619.0899,-192.6406 609.6766,-187.7785 614.0033,-197.4496 619.0899,-192.6406"/>
</g>
<!-- Node28&#45;&gt;Node3 -->
<g id="edge45" class="edge">
<title>Node28&#45;&gt;Node3</title>
<path fill="none" stroke="#191970" d="M874.0926,-341.7328C886.6279,-332.6386 903.5661,-317.8251 911,-300 927.7943,-259.7303 927.371,-234.9956 877,-168 845.04,-125.4919 789.8008,-95.6545 754.0944,-79.6554"/>
<polygon fill="#191970" stroke="#191970" points="755.1428,-76.2945 744.5769,-75.5107 752.3479,-82.7124 755.1428,-76.2945"/>
</g>
<!-- Node28&#45;&gt;Node6 -->
<g id="edge47" class="edge">
<title>Node28&#45;&gt;Node6</title>
<path fill="none" stroke="#191970" d="M888.8302,-341.8557C911.0272,-333.5181 940.9909,-319.6836 962,-300 1011.9434,-253.2076 1045.3014,-177.0064 1058.9859,-141.437"/>
<polygon fill="#191970" stroke="#191970" points="1062.3727,-142.3727 1062.5978,-131.7803 1055.8163,-139.9204 1062.3727,-142.3727"/>
</g>
<!-- Node28&#45;&gt;Node14 -->
<g id="edge46" class="edge">
<title>Node28&#45;&gt;Node14</title>
<path fill="none" stroke="#191970" d="M847.7803,-341.9998C836.6164,-332.1967 819.4051,-316.106 807,-300 795.5737,-285.1649 785.1599,-266.5444 778.1354,-252.8671"/>
<polygon fill="#191970" stroke="#191970" points="781.2572,-251.2844 773.6534,-243.9065 774.9966,-254.4158 781.2572,-251.2844"/>
</g>
<!-- Node28&#45;&gt;Node27 -->
<g id="edge52" class="edge">
<title>Node28&#45;&gt;Node27</title>
<path fill="none" stroke="#191970" d="M831.1875,-341.8906C800.7517,-331.3749 751.8123,-314.466 718.1174,-302.8243"/>
<polygon fill="#191970" stroke="#191970" points="719.212,-299.4995 708.6172,-299.5419 716.926,-306.1157 719.212,-299.4995"/>
</g>
<!-- Node29 -->
<g id="node30" class="node">
<title>Node29</title>
<g id="a_node30"><a xlink:href="../../dd/dc6/GPUSettings_8h.html" target="_top" xlink:title="GPUSettings.h">
<polygon fill="none" stroke="#000000" points="816,-280.5 816,-299.5 902,-299.5 902,-280.5 816,-280.5"/>
<text text-anchor="middle" x="859" y="-287.5" font-family="Helvetica,sans-Serif" font-size="10.00" fill="#000000">GPUSettings.h</text>
</a>
</g>
</g>
<!-- Node28&#45;&gt;Node29 -->
<g id="edge48" class="edge">
<title>Node28&#45;&gt;Node29</title>
<path fill="none" stroke="#191970" d="M859,-341.8906C859,-333.3657 859,-320.6392 859,-309.9235"/>
<polygon fill="#191970" stroke="#191970" points="862.5001,-309.7448 859,-299.7449 855.5001,-309.7449 862.5001,-309.7448"/>
</g>
<!-- Node30 -->
<g id="node31" class="node">
<title>Node30</title>
<g id="a_node31"><a xlink:href="../../d6/d1b/GPUTPCGeometry_8h.html" target="_top" xlink:title="GPUTPCGeometry.h">
<polygon fill="none" stroke="#000000" points="864.5,-112.5 864.5,-131.5 977.5,-131.5 977.5,-112.5 864.5,-112.5"/>
<text text-anchor="middle" x="921" y="-119.5" font-family="Helvetica,sans-Serif" font-size="10.00" fill="#000000">GPUTPCGeometry.h</text>
</a>
</g>
</g>
<!-- Node28&#45;&gt;Node30 -->
<g id="edge50" class="edge">
<title>Node28&#45;&gt;Node30</title>
<path fill="none" stroke="#191970" d="M889.0806,-341.9844C908.5262,-334.09 932.3132,-320.7454 944,-300 973.106,-248.3336 946.2257,-175.1129 930.5148,-140.939"/>
<polygon fill="#191970" stroke="#191970" points="933.5454,-139.1637 926.0719,-131.6539 927.2311,-142.1852 933.5454,-139.1637"/>
</g>
<!-- Node29&#45;&gt;Node14 -->
<g id="edge49" class="edge">
<title>Node29&#45;&gt;Node14</title>
<path fill="none" stroke="#191970" d="M843.3232,-280.2455C829.5144,-271.6534 809.1807,-259.0014 793.2708,-249.1018"/>
<polygon fill="#191970" stroke="#191970" points="794.8368,-245.954 784.4972,-243.6427 791.1387,-251.8974 794.8368,-245.954"/>
</g>
<!-- Node30&#45;&gt;Node3 -->
<g id="edge51" class="edge">
<title>Node30&#45;&gt;Node3</title>
<path fill="none" stroke="#191970" d="M886.4469,-112.3733C852.5896,-102.9404 800.854,-88.5265 764.0574,-78.2747"/>
<polygon fill="#191970" stroke="#191970" points="764.6747,-74.8135 754.1022,-75.5011 762.796,-81.5566 764.6747,-74.8135"/>
</g>
</g>
</svg>
        <g id="navigator" transform="translate(0 0)" fill="#404254">
                <rect fill="#f2f5e9" fill-opacity="0.5" stroke="#606060" stroke-width=".5" x="0" y="0" width="60" height="60"/>
                <use id="zoomplus" xlink:href="#zoomPlus" x="17" y="9" onmousedown="handleZoom(evt,'in')"/>
                <use id="zoomminus" xlink:href="#zoomMin" x="42" y="9" onmousedown="handleZoom(evt,'out')"/>
                <use id="reset" xlink:href="#resetDef" x="30" y="36" onmousedown="handleReset()"/>
                <g id="arrowUp" xlink:href="#dirArrow" transform="translate(30 24)" onmousedown="handlePan(0,-1)">
                  <use xlink:href="#rim" fill="#404040">
                        <set attributeName="fill" to="#808080" begin="arrowUp.mouseover" end="arrowUp.mouseout"/>
                  </use>
                  <path fill="none" stroke="white" stroke-width="1.5" d="M0,-3.0v7 M-2.5,-0.5L0,-3.0L2.5,-0.5"/>
                </g>
                <g id="arrowRight" xlink:href="#dirArrow" transform="rotate(90) translate(36 -43)" onmousedown="handlePan(1,0)">
                  <use xlink:href="#rim" fill="#404040">
                        <set attributeName="fill" to="#808080" begin="arrowRight.mouseover" end="arrowRight.mouseout"/>
                  </use>
                  <path fill="none" stroke="white" stroke-width="1.5" d="M0,-3.0v7 M-2.5,-0.5L0,-3.0L2.5,-0.5"/>
                </g>
                <g id="arrowDown" xlink:href="#dirArrow" transform="rotate(180) translate(-30 -48)" onmousedown="handlePan(0,1)">
                  <use xlink:href="#rim" fill="#404040">
                        <set attributeName="fill" to="#808080" begin="arrowDown.mouseover" end="arrowDown.mouseout"/>
                  </use>
                  <path fill="none" stroke="white" stroke-width="1.5" d="M0,-3.0v7 M-2.5,-0.5L0,-3.0L2.5,-0.5"/>
                </g>
                <g id="arrowLeft" xlink:href="#dirArrow" transform="rotate(270) translate(-36 17)" onmousedown="handlePan(-1,0)">
                  <use xlink:href="#rim" fill="#404040">
                        <set attributeName="fill" to="#808080" begin="arrowLeft.mouseover" end="arrowLeft.mouseout"/>
                  </use>
                  <path fill="none" stroke="white" stroke-width="1.5" d="M0,-3.0v7 M-2.5,-0.5L0,-3.0L2.5,-0.5"/>
                </g>
        </g>
        <svg viewBox="0 0 15 15" width="100%" height="30px" preserveAspectRatio="xMaxYMin meet">
         <g id="arrow_out" transform="scale(0.3 0.3)">
          <a xlink:href="GPUTRDTrack_8cxx__incl_org.svg" target="_base">
           <rect id="button" ry="5" rx="5" y="6" x="6" height="38" width="38"
                fill="#f2f5e9" fill-opacity="0.5" stroke="#606060" stroke-width="1.0"/>
           <path id="arrow"
             d="M 11.500037,31.436501 C 11.940474,20.09759 22.043105,11.32322 32.158766,21.979434 L 37.068811,17.246167 C 37.068811,17.246167 37.088388,32 37.088388,32 L 22.160133,31.978069 C 22.160133,31.978069 26.997745,27.140456 26.997745,27.140456 C 18.528582,18.264221 13.291696,25.230495 11.500037,31.436501 z"
             style="fill:#404040;"/>
          </a>
         </g>
        </svg>
</svg>
