<?xml version="1.0" encoding="UTF-8" standalone="no"?>
<!DOCTYPE svg PUBLIC "-//W3C//DTD SVG 1.1//EN"
 "http://www.w3.org/Graphics/SVG/1.1/DTD/svg11.dtd">
<!-- Generated by graphviz version 2.40.1 (20161225.0304)
 -->
<!-- Title: /home/travis/build/AliceO2Group/AliceO2/Detectors/ITSMFT/MFT/base/include/MFTBase/LadderSegmentation.h Pages: 1 -->
<svg width="1091pt" height="250pt"
 viewBox="0.00 0.00 1091.00 250.00" xmlns="http://www.w3.org/2000/svg" xmlns:xlink="http://www.w3.org/1999/xlink">
<g id="graph0" class="graph" transform="scale(1 1) rotate(0) translate(4 246)">
<title>/home/travis/build/AliceO2Group/AliceO2/Detectors/ITSMFT/MFT/base/include/MFTBase/LadderSegmentation.h</title>
<!-- Node7 -->
<g id="node1" class="node">
<title>Node7</title>
<polygon fill="#bfbfbf" stroke="#000000" points="505,-189.5 505,-241.5 746,-241.5 746,-189.5 505,-189.5"/>
<text text-anchor="start" x="513" y="-229.5" font-family="Helvetica,sans-Serif" font-size="10.00" fill="#000000">/home/travis/build</text>
<text text-anchor="start" x="513" y="-218.5" font-family="Helvetica,sans-Serif" font-size="10.00" fill="#000000">/AliceO2Group/AliceO2</text>
<text text-anchor="start" x="513" y="-207.5" font-family="Helvetica,sans-Serif" font-size="10.00" fill="#000000">/Detectors/ITSMFT/MFT</text>
<text text-anchor="middle" x="625.5" y="-196.5" font-family="Helvetica,sans-Serif" font-size="10.00" fill="#000000">/base/include/MFTBase/LadderSegmentation.h</text>
</g>
<!-- Node8 -->
<g id="node2" class="node">
<title>Node8</title>
<g id="a_node2"><a xlink:href="../../dc/d53/HalfDiskSegmentation_8h.html" target="_top" xlink:title="Class for the description of the structure of a half&#45;disk. ">
<polygon fill="none" stroke="#000000" points="378,-89.5 378,-152.5 551,-152.5 551,-89.5 378,-89.5"/>
<text text-anchor="start" x="386" y="-140.5" font-family="Helvetica,sans-Serif" font-size="10.00" fill="#000000">/home/travis/build</text>
<text text-anchor="start" x="386" y="-129.5" font-family="Helvetica,sans-Serif" font-size="10.00" fill="#000000">/AliceO2Group/AliceO2</text>
<text text-anchor="start" x="386" y="-118.5" font-family="Helvetica,sans-Serif" font-size="10.00" fill="#000000">/Detectors/ITSMFT/MFT</text>
<text text-anchor="start" x="386" y="-107.5" font-family="Helvetica,sans-Serif" font-size="10.00" fill="#000000">/base/include/MFTBase/HalfDisk</text>
<text text-anchor="middle" x="464.5" y="-96.5" font-family="Helvetica,sans-Serif" font-size="10.00" fill="#000000">Segmentation.h</text>
</a>
</g>
</g>
<!-- Node7&#45;&gt;Node8 -->
<g id="edge1" class="edge">
<title>Node7&#45;&gt;Node8</title>
<path fill="none" stroke="#191970" d="M572.203,-184.217C554.8567,-174.0355 535.6007,-162.733 518.2234,-152.5333"/>
<polygon fill="#191970" stroke="#191970" points="570.684,-187.3837 581.0799,-189.4273 574.2274,-181.3468 570.684,-187.3837"/>
</g>
<!-- Node9 -->
<g id="node3" class="node">
<title>Node9</title>
<g id="a_node3"><a xlink:href="../../de/d37/ITSMFT_2MFT_2base_2src_2Geometry_8cxx.html" target="_top" xlink:title="/home/travis/build\l/AliceO2Group/AliceO2\l/Detectors/ITSMFT/MFT\l/base/src/Geometry.cxx">
<polygon fill="none" stroke="#000000" points="0,-.5 0,-52.5 131,-52.5 131,-.5 0,-.5"/>
<text text-anchor="start" x="8" y="-40.5" font-family="Helvetica,sans-Serif" font-size="10.00" fill="#000000">/home/travis/build</text>
<text text-anchor="start" x="8" y="-29.5" font-family="Helvetica,sans-Serif" font-size="10.00" fill="#000000">/AliceO2Group/AliceO2</text>
<text text-anchor="start" x="8" y="-18.5" font-family="Helvetica,sans-Serif" font-size="10.00" fill="#000000">/Detectors/ITSMFT/MFT</text>
<text text-anchor="middle" x="65.5" y="-7.5" font-family="Helvetica,sans-Serif" font-size="10.00" fill="#000000">/base/src/Geometry.cxx</text>
</a>
</g>
</g>
<!-- Node7&#45;&gt;Node9 -->
<g id="edge9" class="edge">
<title>Node7&#45;&gt;Node9</title>
<path fill="none" stroke="#191970" d="M494.9719,-187.7557C454.3964,-178.0333 409.761,-166.2032 369.5,-153 280.5534,-123.8307 181.0143,-80.2201 120.8261,-52.5775"/>
<polygon fill="#191970" stroke="#191970" points="494.383,-191.2131 504.921,-190.1172 495.9997,-184.4023 494.383,-191.2131"/>
</g>
<!-- Node14 -->
<g id="node8" class="node">
<title>Node14</title>
<g id="a_node8"><a xlink:href="../../d7/d41/ITSMFT_2MFT_2base_2src_2Segmentation_8cxx.html" target="_top" xlink:title="/home/travis/build\l/AliceO2Group/AliceO2\l/Detectors/ITSMFT/MFT\l/base/src/Segmentation.cxx">
<polygon fill="none" stroke="#000000" points="859.5,-.5 859.5,-52.5 1011.5,-52.5 1011.5,-.5 859.5,-.5"/>
<text text-anchor="start" x="867.5" y="-40.5" font-family="Helvetica,sans-Serif" font-size="10.00" fill="#000000">/home/travis/build</text>
<text text-anchor="start" x="867.5" y="-29.5" font-family="Helvetica,sans-Serif" font-size="10.00" fill="#000000">/AliceO2Group/AliceO2</text>
<text text-anchor="start" x="867.5" y="-18.5" font-family="Helvetica,sans-Serif" font-size="10.00" fill="#000000">/Detectors/ITSMFT/MFT</text>
<text text-anchor="middle" x="935.5" y="-7.5" font-family="Helvetica,sans-Serif" font-size="10.00" fill="#000000">/base/src/Segmentation.cxx</text>
</a>
</g>
</g>
<!-- Node7&#45;&gt;Node14 -->
<g id="edge12" class="edge">
<title>Node7&#45;&gt;Node14</title>
<path fill="none" stroke="#191970" d="M603.8582,-180.2244C589.8177,-152.329 577.7959,-114.0391 599.5,-89 636.4078,-46.421 795.5384,-65.4253 850.5,-53 853.3646,-52.3524 856.2723,-51.6549 859.2007,-50.9186"/>
<polygon fill="#191970" stroke="#191970" points="600.8706,-182.061 608.6514,-189.252 607.0532,-178.7784 600.8706,-182.061"/>
</g>
<!-- Node15 -->
<g id="node9" class="node">
<title>Node15</title>
<g id="a_node9"><a xlink:href="../../d7/d93/Flex_8cxx.html" target="_top" xlink:title="Flex class for ALICE MFT upgrade. ">
<polygon fill="none" stroke="#000000" points="608,-95 608,-147 735,-147 735,-95 608,-95"/>
<text text-anchor="start" x="616" y="-135" font-family="Helvetica,sans-Serif" font-size="10.00" fill="#000000">/home/travis/build</text>
<text text-anchor="start" x="616" y="-124" font-family="Helvetica,sans-Serif" font-size="10.00" fill="#000000">/AliceO2Group/AliceO2</text>
<text text-anchor="start" x="616" y="-113" font-family="Helvetica,sans-Serif" font-size="10.00" fill="#000000">/Detectors/ITSMFT/MFT</text>
<text text-anchor="middle" x="671.5" y="-102" font-family="Helvetica,sans-Serif" font-size="10.00" fill="#000000">/base/src/Flex.cxx</text>
</a>
</g>
</g>
<!-- Node7&#45;&gt;Node15 -->
<g id="edge8" class="edge">
<title>Node7&#45;&gt;Node15</title>
<path fill="none" stroke="#191970" d="M642.7042,-180.1565C648.0032,-169.2706 653.7412,-157.4827 658.6903,-147.3157"/>
<polygon fill="#191970" stroke="#191970" points="639.4213,-178.9041 638.1915,-189.4273 645.7152,-181.9678 639.4213,-178.9041"/>
</g>
<!-- Node16 -->
<g id="node10" class="node">
<title>Node16</title>
<g id="a_node10"><a xlink:href="../../dc/d80/Ladder_8cxx.html" target="_top" xlink:title="Ladder builder. ">
<polygon fill="none" stroke="#000000" points="753,-95 753,-147 880,-147 880,-95 753,-95"/>
<text text-anchor="start" x="761" y="-135" font-family="Helvetica,sans-Serif" font-size="10.00" fill="#000000">/home/travis/build</text>
<text text-anchor="start" x="761" y="-124" font-family="Helvetica,sans-Serif" font-size="10.00" fill="#000000">/AliceO2Group/AliceO2</text>
<text text-anchor="start" x="761" y="-113" font-family="Helvetica,sans-Serif" font-size="10.00" fill="#000000">/Detectors/ITSMFT/MFT</text>
<text text-anchor="middle" x="816.5" y="-102" font-family="Helvetica,sans-Serif" font-size="10.00" fill="#000000">/base/src/Ladder.cxx</text>
</a>
</g>
</g>
<!-- Node7&#45;&gt;Node16 -->
<g id="edge10" class="edge">
<title>Node7&#45;&gt;Node16</title>
<path fill="none" stroke="#191970" d="M687.4398,-184.8544C712.0326,-172.6868 740.0272,-158.836 763.6435,-147.1515"/>
<polygon fill="#191970" stroke="#191970" points="685.6081,-181.8557 678.1972,-189.4273 688.7123,-188.1297 685.6081,-181.8557"/>
</g>
<!-- Node17 -->
<g id="node11" class="node">
<title>Node17</title>
<g id="a_node11"><a xlink:href="../../d6/dc0/LadderSegmentation_8cxx.html" target="_top" xlink:title="Description of the virtual segmentation of a ladder. ">
<polygon fill="none" stroke="#000000" points="898,-95 898,-147 1083,-147 1083,-95 898,-95"/>
<text text-anchor="start" x="906" y="-135" font-family="Helvetica,sans-Serif" font-size="10.00" fill="#000000">/home/travis/build</text>
<text text-anchor="start" x="906" y="-124" font-family="Helvetica,sans-Serif" font-size="10.00" fill="#000000">/AliceO2Group/AliceO2</text>
<text text-anchor="start" x="906" y="-113" font-family="Helvetica,sans-Serif" font-size="10.00" fill="#000000">/Detectors/ITSMFT/MFT</text>
<text text-anchor="middle" x="990.5" y="-102" font-family="Helvetica,sans-Serif" font-size="10.00" fill="#000000">/base/src/LadderSegmentation.cxx</text>
</a>
</g>
</g>
<!-- Node7&#45;&gt;Node17 -->
<g id="edge11" class="edge">
<title>Node7&#45;&gt;Node17</title>
<path fill="none" stroke="#191970" d="M753.9339,-187.1153C797.1802,-177.0215 845.5924,-165.135 889.5,-153 896.2371,-151.138 903.1995,-149.1238 910.1719,-147.0434"/>
<polygon fill="#191970" stroke="#191970" points="752.8749,-183.7681 743.9266,-189.4407 754.4593,-190.5864 752.8749,-183.7681"/>
</g>
<!-- Node8&#45;&gt;Node9 -->
<g id="edge2" class="edge">
<title>Node8&#45;&gt;Node9</title>
<path fill="none" stroke="#191970" d="M367.996,-104.4138C302.8941,-92.3462 215.3561,-74.4082 139.5,-53 136.742,-52.2216 133.9386,-51.3927 131.1157,-50.5266"/>
<polygon fill="#191970" stroke="#191970" points="367.3716,-107.8576 377.84,-106.2255 368.6387,-100.9732 367.3716,-107.8576"/>
</g>
<!-- Node10 -->
<g id="node4" class="node">
<title>Node10</title>
<g id="a_node4"><a xlink:href="../../d3/d36/HalfDetector_8cxx.html" target="_top" xlink:title="Class Building the geometry of one half of the ALICE Muon Forward Tracker. ">
<polygon fill="none" stroke="#000000" points="149,-.5 149,-52.5 294,-52.5 294,-.5 149,-.5"/>
<text text-anchor="start" x="157" y="-40.5" font-family="Helvetica,sans-Serif" font-size="10.00" fill="#000000">/home/travis/build</text>
<text text-anchor="start" x="157" y="-29.5" font-family="Helvetica,sans-Serif" font-size="10.00" fill="#000000">/AliceO2Group/AliceO2</text>
<text text-anchor="start" x="157" y="-18.5" font-family="Helvetica,sans-Serif" font-size="10.00" fill="#000000">/Detectors/ITSMFT/MFT</text>
<text text-anchor="middle" x="221.5" y="-7.5" font-family="Helvetica,sans-Serif" font-size="10.00" fill="#000000">/base/src/HalfDetector.cxx</text>
</a>
</g>
</g>
<!-- Node8&#45;&gt;Node10 -->
<g id="edge3" class="edge">
<title>Node8&#45;&gt;Node10</title>
<path fill="none" stroke="#191970" d="M373.7616,-85.7129C345.4957,-74.7205 314.852,-62.8036 288.5158,-52.5617"/>
<polygon fill="#191970" stroke="#191970" points="372.658,-89.039 383.2467,-89.4015 375.1952,-82.5149 372.658,-89.039"/>
</g>
<!-- Node11 -->
<g id="node5" class="node">
<title>Node11</title>
<g id="a_node5"><a xlink:href="../../d6/d66/HalfDisk_8cxx.html" target="_top" xlink:title="Class describing geometry of one half of a MFT disk. ">
<polygon fill="none" stroke="#000000" points="312,-.5 312,-52.5 439,-52.5 439,-.5 312,-.5"/>
<text text-anchor="start" x="320" y="-40.5" font-family="Helvetica,sans-Serif" font-size="10.00" fill="#000000">/home/travis/build</text>
<text text-anchor="start" x="320" y="-29.5" font-family="Helvetica,sans-Serif" font-size="10.00" fill="#000000">/AliceO2Group/AliceO2</text>
<text text-anchor="start" x="320" y="-18.5" font-family="Helvetica,sans-Serif" font-size="10.00" fill="#000000">/Detectors/ITSMFT/MFT</text>
<text text-anchor="middle" x="375.5" y="-7.5" font-family="Helvetica,sans-Serif" font-size="10.00" fill="#000000">/base/src/HalfDisk.cxx</text>
</a>
</g>
</g>
<!-- Node8&#45;&gt;Node11 -->
<g id="edge4" class="edge">
<title>Node8&#45;&gt;Node11</title>
<path fill="none" stroke="#191970" d="M427.6406,-81.8628C418.3653,-72.0143 408.6334,-61.681 400.1225,-52.6442"/>
<polygon fill="#191970" stroke="#191970" points="425.2127,-84.3898 434.6167,-89.27 430.3085,-79.5906 425.2127,-84.3898"/>
</g>
<!-- Node12 -->
<g id="node6" class="node">
<title>Node12</title>
<g id="a_node6"><a xlink:href="../../d1/d8f/HalfDiskSegmentation_8cxx.html" target="_top" xlink:title="Class for the description of the structure of a half&#45;disk. ">
<polygon fill="none" stroke="#000000" points="457.5,-.5 457.5,-52.5 651.5,-52.5 651.5,-.5 457.5,-.5"/>
<text text-anchor="start" x="465.5" y="-40.5" font-family="Helvetica,sans-Serif" font-size="10.00" fill="#000000">/home/travis/build</text>
<text text-anchor="start" x="465.5" y="-29.5" font-family="Helvetica,sans-Serif" font-size="10.00" fill="#000000">/AliceO2Group/AliceO2</text>
<text text-anchor="start" x="465.5" y="-18.5" font-family="Helvetica,sans-Serif" font-size="10.00" fill="#000000">/Detectors/ITSMFT/MFT</text>
<text text-anchor="middle" x="554.5" y="-7.5" font-family="Helvetica,sans-Serif" font-size="10.00" fill="#000000">/base/src/HalfDiskSegmentation.cxx</text>
</a>
</g>
</g>
<!-- Node8&#45;&gt;Node12 -->
<g id="edge5" class="edge">
<title>Node8&#45;&gt;Node12</title>
<path fill="none" stroke="#191970" d="M501.7736,-81.8628C511.1531,-72.0143 520.9943,-61.681 529.6008,-52.6442"/>
<polygon fill="#191970" stroke="#191970" points="499.0812,-79.6148 494.7191,-89.27 504.1501,-84.4424 499.0812,-79.6148"/>
</g>
<!-- Node13 -->
<g id="node7" class="node">
<title>Node13</title>
<g id="a_node7"><a xlink:href="../../d1/d7f/HalfSegmentation_8cxx.html" target="_top" xlink:title="Segmentation class for each half of the ALICE Muon Forward Tracker. ">
<polygon fill="none" stroke="#000000" points="669.5,-.5 669.5,-52.5 841.5,-52.5 841.5,-.5 669.5,-.5"/>
<text text-anchor="start" x="677.5" y="-40.5" font-family="Helvetica,sans-Serif" font-size="10.00" fill="#000000">/home/travis/build</text>
<text text-anchor="start" x="677.5" y="-29.5" font-family="Helvetica,sans-Serif" font-size="10.00" fill="#000000">/AliceO2Group/AliceO2</text>
<text text-anchor="start" x="677.5" y="-18.5" font-family="Helvetica,sans-Serif" font-size="10.00" fill="#000000">/Detectors/ITSMFT/MFT</text>
<text text-anchor="middle" x="755.5" y="-7.5" font-family="Helvetica,sans-Serif" font-size="10.00" fill="#000000">/base/src/HalfSegmentation.cxx</text>
</a>
</g>
</g>
<!-- Node8&#45;&gt;Node13 -->
<g id="edge6" class="edge">
<title>Node8&#45;&gt;Node13</title>
<path fill="none" stroke="#191970" d="M560.8426,-89.7135C597.938,-77.667 639.8642,-64.0518 675.2804,-52.5507"/>
<polygon fill="#191970" stroke="#191970" points="559.4517,-86.4852 551.0217,-92.9027 561.6138,-93.1429 559.4517,-86.4852"/>
</g>
<!-- Node8&#45;&gt;Node14 -->
<g id="edge7" class="edge">
<title>Node8&#45;&gt;Node14</title>
<path fill="none" stroke="#191970" d="M561.0957,-89.9965C562.5715,-89.6532 564.0403,-89.3207 565.5,-89 690.1999,-61.6068 725.7373,-80.1056 850.5,-53 853.37,-52.3765 856.2821,-51.6995 859.2145,-50.9805"/>
<polygon fill="#191970" stroke="#191970" points="560.1519,-86.6242 551.275,-92.4079 561.8212,-93.4223 560.1519,-86.6242"/>
</g>
</g>
</svg>
