<?xml version="1.0" encoding="UTF-8" standalone="no"?>
<!DOCTYPE svg PUBLIC "-//W3C//DTD SVG 1.1//EN"
 "http://www.w3.org/Graphics/SVG/1.1/DTD/svg11.dtd">
<!-- Generated by graphviz version 2.40.1 (20161225.0304)
 -->
<!-- Title: /home/travis/build/AliceO2Group/AliceO2/Detectors/ITSMFT/common/simulation/include/ITSMFTSimulation/ChipDigitsContainer.h Pages: 1 -->
<svg width="324pt" height="307pt"
 viewBox="0.00 0.00 324.00 307.00" xmlns="http://www.w3.org/2000/svg" xmlns:xlink="http://www.w3.org/1999/xlink">
<g id="graph0" class="graph" transform="scale(1 1) rotate(0) translate(4 303)">
<title>/home/travis/build/AliceO2Group/AliceO2/Detectors/ITSMFT/common/simulation/include/ITSMFTSimulation/ChipDigitsContainer.h</title>
<!-- Node0 -->
<g id="node1" class="node">
<title>Node0</title>
<polygon fill="#bfbfbf" stroke="#000000" points="73.5,-235.5 73.5,-298.5 273.5,-298.5 273.5,-235.5 73.5,-235.5"/>
<text text-anchor="start" x="81.5" y="-286.5" font-family="Helvetica,sans-Serif" font-size="10.00" fill="#000000">/home/travis/build</text>
<text text-anchor="start" x="81.5" y="-275.5" font-family="Helvetica,sans-Serif" font-size="10.00" fill="#000000">/AliceO2Group/AliceO2</text>
<text text-anchor="start" x="81.5" y="-264.5" font-family="Helvetica,sans-Serif" font-size="10.00" fill="#000000">/Detectors/ITSMFT/common</text>
<text text-anchor="start" x="81.5" y="-253.5" font-family="Helvetica,sans-Serif" font-size="10.00" fill="#000000">/simulation/include/ITSMFTSimulation</text>
<text text-anchor="middle" x="173.5" y="-242.5" font-family="Helvetica,sans-Serif" font-size="10.00" fill="#000000">/ChipDigitsContainer.h</text>
</g>
<!-- Node1 -->
<g id="node2" class="node">
<title>Node1</title>
<g id="a_node2"><a xlink:href="../../d7/dcd/MCCompLabel_8h.html" target="_top" xlink:title="SimulationDataFormat\l/MCCompLabel.h">
<polygon fill="none" stroke="#000000" points="0,-112.5 0,-142.5 127,-142.5 127,-112.5 0,-112.5"/>
<text text-anchor="start" x="8" y="-130.5" font-family="Helvetica,sans-Serif" font-size="10.00" fill="#000000">SimulationDataFormat</text>
<text text-anchor="middle" x="63.5" y="-119.5" font-family="Helvetica,sans-Serif" font-size="10.00" fill="#000000">/MCCompLabel.h</text>
</a>
</g>
</g>
<!-- Node0&#45;&gt;Node1 -->
<g id="edge1" class="edge">
<title>Node0&#45;&gt;Node1</title>
<path fill="none" stroke="#191970" d="M73.4116,-237.9693C55.9842,-228.3726 40.0808,-215.6977 29.5,-199 19.7213,-183.5681 29.2619,-164.8867 40.6968,-150.49"/>
<polygon fill="#191970" stroke="#191970" points="43.6464,-152.4281 47.5166,-142.5655 38.3407,-147.862 43.6464,-152.4281"/>
</g>
<!-- Node4 -->
<g id="node5" class="node">
<title>Node4</title>
<g id="a_node5"><a xlink:href="../../d2/d53/PreDigit_8h.html" target="_top" xlink:title="Definition of the digit contribution from single hit. ">
<polygon fill="none" stroke="#000000" points="39,-179.5 39,-198.5 194,-198.5 194,-179.5 39,-179.5"/>
<text text-anchor="middle" x="116.5" y="-186.5" font-family="Helvetica,sans-Serif" font-size="10.00" fill="#000000">ITSMFTSimulation/PreDigit.h</text>
</a>
</g>
</g>
<!-- Node0&#45;&gt;Node4 -->
<g id="edge4" class="edge">
<title>Node0&#45;&gt;Node4</title>
<path fill="none" stroke="#191970" d="M150.3159,-235.2744C143.2539,-225.6106 135.7404,-215.3289 129.5937,-206.9177"/>
<polygon fill="#191970" stroke="#191970" points="132.2726,-204.6514 123.5465,-198.6426 126.6208,-208.7816 132.2726,-204.6514"/>
</g>
<!-- Node5 -->
<g id="node6" class="node">
<title>Node5</title>
<polygon fill="none" stroke="#bfbfbf" points="212.5,-179.5 212.5,-198.5 250.5,-198.5 250.5,-179.5 212.5,-179.5"/>
<text text-anchor="middle" x="231.5" y="-186.5" font-family="Helvetica,sans-Serif" font-size="10.00" fill="#000000">map</text>
</g>
<!-- Node0&#45;&gt;Node5 -->
<g id="edge6" class="edge">
<title>Node0&#45;&gt;Node5</title>
<path fill="none" stroke="#191970" d="M197.0908,-235.2744C204.2768,-225.6106 211.9221,-215.3289 218.1766,-206.9177"/>
<polygon fill="#191970" stroke="#191970" points="221.1714,-208.7557 224.3299,-198.6426 215.5542,-204.5787 221.1714,-208.7557"/>
</g>
<!-- Node6 -->
<g id="node7" class="node">
<title>Node6</title>
<polygon fill="none" stroke="#bfbfbf" points="269,-179.5 269,-198.5 316,-198.5 316,-179.5 269,-179.5"/>
<text text-anchor="middle" x="292.5" y="-186.5" font-family="Helvetica,sans-Serif" font-size="10.00" fill="#000000">vector</text>
</g>
<!-- Node0&#45;&gt;Node6 -->
<g id="edge7" class="edge">
<title>Node0&#45;&gt;Node6</title>
<path fill="none" stroke="#191970" d="M221.5588,-235.4992C238.0158,-224.7123 255.6864,-213.13 269.2748,-204.2232"/>
<polygon fill="#191970" stroke="#191970" points="271.5202,-206.9364 277.965,-198.5271 267.6828,-201.0819 271.5202,-206.9364"/>
</g>
<!-- Node2 -->
<g id="node3" class="node">
<title>Node2</title>
<g id="a_node3"><a xlink:href="../../d2/d45/GPUCommonRtypes_8h.html" target="_top" xlink:title="GPUCommonRtypes.h">
<polygon fill="none" stroke="#000000" points="1,-56.5 1,-75.5 126,-75.5 126,-56.5 1,-56.5"/>
<text text-anchor="middle" x="63.5" y="-63.5" font-family="Helvetica,sans-Serif" font-size="10.00" fill="#000000">GPUCommonRtypes.h</text>
</a>
</g>
</g>
<!-- Node1&#45;&gt;Node2 -->
<g id="edge2" class="edge">
<title>Node1&#45;&gt;Node2</title>
<path fill="none" stroke="#191970" d="M63.5,-112.2977C63.5,-104.3834 63.5,-94.6043 63.5,-86.0759"/>
<polygon fill="#191970" stroke="#191970" points="67.0001,-85.8469 63.5,-75.8469 60.0001,-85.847 67.0001,-85.8469"/>
</g>
<!-- Node3 -->
<g id="node4" class="node">
<title>Node3</title>
<polygon fill="none" stroke="#bfbfbf" points="34,-.5 34,-19.5 93,-19.5 93,-.5 34,-.5"/>
<text text-anchor="middle" x="63.5" y="-7.5" font-family="Helvetica,sans-Serif" font-size="10.00" fill="#000000">Rtypes.h</text>
</g>
<!-- Node2&#45;&gt;Node3 -->
<g id="edge3" class="edge">
<title>Node2&#45;&gt;Node3</title>
<path fill="none" stroke="#191970" d="M63.5,-56.2455C63.5,-48.9382 63.5,-38.6944 63.5,-29.7046"/>
<polygon fill="#191970" stroke="#191970" points="67.0001,-29.6426 63.5,-19.6427 60.0001,-29.6427 67.0001,-29.6426"/>
</g>
<!-- Node4&#45;&gt;Node1 -->
<g id="edge5" class="edge">
<title>Node4&#45;&gt;Node1</title>
<path fill="none" stroke="#191970" d="M108.2188,-179.3906C101.5108,-171.6068 91.7841,-160.3202 83.1141,-150.2597"/>
<polygon fill="#191970" stroke="#191970" points="85.6448,-147.8349 76.4653,-142.5446 80.3422,-152.4046 85.6448,-147.8349"/>
</g>
</g>
</svg>
