<?xml version="1.0" encoding="UTF-8" standalone="no"?>
<!DOCTYPE svg PUBLIC "-//W3C//DTD SVG 1.1//EN"
 "http://www.w3.org/Graphics/SVG/1.1/DTD/svg11.dtd">
<!-- Generated by graphviz version 2.40.1 (20161225.0304)
 -->
<!-- Title: /home/travis/build/AliceO2Group/AliceO2/Detectors/MUON/MCH/Raw/Encoder/Payload/EncoderImplHelper.h Pages: 1 -->
<svg width="524pt" height="229pt"
 viewBox="0.00 0.00 523.66 229.00" xmlns="http://www.w3.org/2000/svg" xmlns:xlink="http://www.w3.org/1999/xlink">
<g id="graph0" class="graph" transform="scale(1 1) rotate(0) translate(4 225)">
<title>/home/travis/build/AliceO2Group/AliceO2/Detectors/MUON/MCH/Raw/Encoder/Payload/EncoderImplHelper.h</title>
<!-- Node0 -->
<g id="node1" class="node">
<title>Node0</title>
<polygon fill="#bfbfbf" stroke="#000000" points="208.1631,-168.5 208.1631,-220.5 412.1631,-220.5 412.1631,-168.5 208.1631,-168.5"/>
<text text-anchor="start" x="216.1631" y="-208.5" font-family="Helvetica,sans-Serif" font-size="10.00" fill="#000000">/home/travis/build</text>
<text text-anchor="start" x="216.1631" y="-197.5" font-family="Helvetica,sans-Serif" font-size="10.00" fill="#000000">/AliceO2Group/AliceO2</text>
<text text-anchor="start" x="216.1631" y="-186.5" font-family="Helvetica,sans-Serif" font-size="10.00" fill="#000000">/Detectors/MUON/MCH/Raw</text>
<text text-anchor="middle" x="310.1631" y="-175.5" font-family="Helvetica,sans-Serif" font-size="10.00" fill="#000000">/Encoder/Payload/EncoderImplHelper.h</text>
</g>
<!-- Node1 -->
<g id="node2" class="node">
<title>Node1</title>
<g id="a_node2"><a xlink:href="../../d0/d5b/SampaCluster_8h.html" target="_top" xlink:title="MCHRawCommon/SampaCluster.h">
<polygon fill="none" stroke="#000000" points="218.1631,-112.5 218.1631,-131.5 402.1631,-131.5 402.1631,-112.5 218.1631,-112.5"/>
<text text-anchor="middle" x="310.1631" y="-119.5" font-family="Helvetica,sans-Serif" font-size="10.00" fill="#000000">MCHRawCommon/SampaCluster.h</text>
</a>
</g>
</g>
<!-- Node0&#45;&gt;Node1 -->
<g id="edge1" class="edge">
<title>Node0&#45;&gt;Node1</title>
<path fill="none" stroke="#191970" d="M310.1631,-168.3258C310.1631,-159.5142 310.1631,-149.8397 310.1631,-141.621"/>
<polygon fill="#191970" stroke="#191970" points="313.6632,-141.534 310.1631,-131.534 306.6632,-141.534 313.6632,-141.534"/>
</g>
<!-- Node2 -->
<g id="node3" class="node">
<title>Node2</title>
<polygon fill="none" stroke="#bfbfbf" points="9.6631,-56.5 9.6631,-75.5 58.6631,-75.5 58.6631,-56.5 9.6631,-56.5"/>
<text text-anchor="middle" x="34.1631" y="-63.5" font-family="Helvetica,sans-Serif" font-size="10.00" fill="#000000">cstdlib</text>
</g>
<!-- Node0&#45;&gt;Node2 -->
<g id="edge11" class="edge">
<title>Node0&#45;&gt;Node2</title>
<path fill="none" stroke="#191970" d="M207.8021,-187.1838C129.4323,-179.2012 30.5765,-163.1492 5.1631,-132 -6.6096,-117.5703 5.1005,-97.6175 16.9724,-83.437"/>
<polygon fill="#191970" stroke="#191970" points="19.7201,-85.6159 23.8048,-75.8401 14.5154,-80.9349 19.7201,-85.6159"/>
</g>
<!-- Node3 -->
<g id="node4" class="node">
<title>Node3</title>
<polygon fill="none" stroke="#bfbfbf" points="449.6631,-56.5 449.6631,-75.5 496.6631,-75.5 496.6631,-56.5 449.6631,-56.5"/>
<text text-anchor="middle" x="473.1631" y="-63.5" font-family="Helvetica,sans-Serif" font-size="10.00" fill="#000000">vector</text>
</g>
<!-- Node0&#45;&gt;Node3 -->
<g id="edge13" class="edge">
<title>Node0&#45;&gt;Node3</title>
<path fill="none" stroke="#191970" d="M357.9053,-168.4651C375.3488,-158.0633 394.8002,-145.3785 411.1631,-132 429.1038,-117.3315 446.94,-97.673 458.8438,-83.6344"/>
<polygon fill="#191970" stroke="#191970" points="461.7288,-85.6392 465.4368,-75.7144 456.349,-81.1607 461.7288,-85.6392"/>
</g>
<!-- Node8 -->
<g id="node9" class="node">
<title>Node8</title>
<g id="a_node9"><a xlink:href="../../d5/d49/SampaHeader_8h.html" target="_top" xlink:title="MCHRawCommon/SampaHeader.h">
<polygon fill="none" stroke="#000000" points="14.6631,-112.5 14.6631,-131.5 199.6631,-131.5 199.6631,-112.5 14.6631,-112.5"/>
<text text-anchor="middle" x="107.1631" y="-119.5" font-family="Helvetica,sans-Serif" font-size="10.00" fill="#000000">MCHRawCommon/SampaHeader.h</text>
</a>
</g>
</g>
<!-- Node0&#45;&gt;Node8 -->
<g id="edge8" class="edge">
<title>Node0&#45;&gt;Node8</title>
<path fill="none" stroke="#191970" d="M237.1622,-168.4283C205.3121,-157.0532 169.3877,-144.2231 143.3879,-134.9374"/>
<polygon fill="#191970" stroke="#191970" points="144.5329,-131.6299 133.9383,-131.5626 142.1785,-138.2221 144.5329,-131.6299"/>
</g>
<!-- Node9 -->
<g id="node10" class="node">
<title>Node9</title>
<polygon fill="none" stroke="#bfbfbf" points="458.6631,-112.5 458.6631,-131.5 515.6631,-131.5 515.6631,-112.5 458.6631,-112.5"/>
<text text-anchor="middle" x="487.1631" y="-119.5" font-family="Helvetica,sans-Serif" font-size="10.00" fill="#000000">gsl/span</text>
</g>
<!-- Node0&#45;&gt;Node9 -->
<g id="edge12" class="edge">
<title>Node0&#45;&gt;Node9</title>
<path fill="none" stroke="#191970" d="M374.0642,-168.3258C401.3216,-157.161 431.9609,-144.6111 454.4671,-135.3924"/>
<polygon fill="#191970" stroke="#191970" points="455.9598,-138.5633 463.887,-131.534 453.3065,-132.0856 455.9598,-138.5633"/>
</g>
<!-- Node1&#45;&gt;Node2 -->
<g id="edge2" class="edge">
<title>Node1&#45;&gt;Node2</title>
<path fill="none" stroke="#191970" d="M251.1362,-112.4486C204.229,-104.4787 136.7875,-92.1781 68.975,-76.0146"/>
<polygon fill="#191970" stroke="#191970" points="69.5115,-72.5437 58.9696,-73.6018 67.8704,-79.3486 69.5115,-72.5437"/>
</g>
<!-- Node1&#45;&gt;Node3 -->
<g id="edge3" class="edge">
<title>Node1&#45;&gt;Node3</title>
<path fill="none" stroke="#191970" d="M338.1838,-112.3733C366.3976,-102.6802 409.9204,-87.7275 439.876,-77.436"/>
<polygon fill="#191970" stroke="#191970" points="441.1529,-80.6982 449.4731,-74.1389 438.8784,-74.078 441.1529,-80.6982"/>
</g>
<!-- Node4 -->
<g id="node5" class="node">
<title>Node4</title>
<polygon fill="none" stroke="#bfbfbf" points="77.1631,-56.5 77.1631,-75.5 137.1631,-75.5 137.1631,-56.5 77.1631,-56.5"/>
<text text-anchor="middle" x="107.1631" y="-63.5" font-family="Helvetica,sans-Serif" font-size="10.00" fill="#000000">iostream</text>
</g>
<!-- Node1&#45;&gt;Node4 -->
<g id="edge4" class="edge">
<title>Node1&#45;&gt;Node4</title>
<path fill="none" stroke="#191970" d="M275.2662,-112.3733C239.7249,-102.5688 184.6769,-87.3831 147.3392,-77.0831"/>
<polygon fill="#191970" stroke="#191970" points="147.8792,-73.6014 137.3085,-74.316 146.0177,-80.3493 147.8792,-73.6014"/>
</g>
<!-- Node5 -->
<g id="node6" class="node">
<title>Node5</title>
<polygon fill="none" stroke="#bfbfbf" points="352.6631,-56.5 352.6631,-75.5 431.6631,-75.5 431.6631,-56.5 352.6631,-56.5"/>
<text text-anchor="middle" x="392.1631" y="-63.5" font-family="Helvetica,sans-Serif" font-size="10.00" fill="#000000">fmt/format.h</text>
</g>
<!-- Node1&#45;&gt;Node5 -->
<g id="edge5" class="edge">
<title>Node1&#45;&gt;Node5</title>
<path fill="none" stroke="#191970" d="M324.4464,-112.2455C336.9101,-103.7337 355.2082,-91.2375 369.6423,-81.3801"/>
<polygon fill="#191970" stroke="#191970" points="371.7593,-84.1726 378.0435,-75.6427 367.8116,-78.392 371.7593,-84.1726"/>
</g>
<!-- Node6 -->
<g id="node7" class="node">
<title>Node6</title>
<g id="a_node7"><a xlink:href="../../d0/d64/DataFormats_8h.html" target="_top" xlink:title="MCHRawCommon/DataFormats.h">
<polygon fill="none" stroke="#000000" points="155.6631,-56.5 155.6631,-75.5 334.6631,-75.5 334.6631,-56.5 155.6631,-56.5"/>
<text text-anchor="middle" x="245.1631" y="-63.5" font-family="Helvetica,sans-Serif" font-size="10.00" fill="#000000">MCHRawCommon/DataFormats.h</text>
</a>
</g>
</g>
<!-- Node1&#45;&gt;Node6 -->
<g id="edge6" class="edge">
<title>Node1&#45;&gt;Node6</title>
<path fill="none" stroke="#191970" d="M298.841,-112.2455C289.2408,-103.9746 275.2739,-91.9416 263.9936,-82.2232"/>
<polygon fill="#191970" stroke="#191970" points="266.2161,-79.5182 256.3555,-75.6427 261.6471,-84.8214 266.2161,-79.5182"/>
</g>
<!-- Node7 -->
<g id="node8" class="node">
<title>Node7</title>
<polygon fill="none" stroke="#bfbfbf" points="220.1631,-.5 220.1631,-19.5 270.1631,-19.5 270.1631,-.5 220.1631,-.5"/>
<text text-anchor="middle" x="245.1631" y="-7.5" font-family="Helvetica,sans-Serif" font-size="10.00" fill="#000000">cstdint</text>
</g>
<!-- Node6&#45;&gt;Node7 -->
<g id="edge7" class="edge">
<title>Node6&#45;&gt;Node7</title>
<path fill="none" stroke="#191970" d="M245.1631,-56.2455C245.1631,-48.9382 245.1631,-38.6944 245.1631,-29.7046"/>
<polygon fill="#191970" stroke="#191970" points="248.6632,-29.6426 245.1631,-19.6427 241.6632,-29.6427 248.6632,-29.6426"/>
</g>
<!-- Node8&#45;&gt;Node2 -->
<g id="edge9" class="edge">
<title>Node8&#45;&gt;Node2</title>
<path fill="none" stroke="#191970" d="M94.4475,-112.2455C83.5611,-103.8943 67.6748,-91.7076 54.9431,-81.9408"/>
<polygon fill="#191970" stroke="#191970" points="56.7977,-78.9523 46.733,-75.6427 52.537,-84.5063 56.7977,-78.9523"/>
</g>
<!-- Node8&#45;&gt;Node4 -->
<g id="edge10" class="edge">
<title>Node8&#45;&gt;Node4</title>
<path fill="none" stroke="#191970" d="M107.1631,-112.2455C107.1631,-104.9382 107.1631,-94.6944 107.1631,-85.7046"/>
<polygon fill="#191970" stroke="#191970" points="110.6632,-85.6426 107.1631,-75.6427 103.6632,-85.6427 110.6632,-85.6426"/>
</g>
</g>
</svg>
