<?xml version="1.0" encoding="UTF-8" standalone="no"?>
<!DOCTYPE svg PUBLIC "-//W3C//DTD SVG 1.1//EN"
 "http://www.w3.org/Graphics/SVG/1.1/DTD/svg11.dtd">
<!-- Generated by graphviz version 2.40.1 (20161225.0304)
 -->
<!-- Title: gNeric::single_printer Pages: 1 -->
<svg width="139pt" height="288pt"
 viewBox="0.00 0.00 139.00 288.00" xmlns="http://www.w3.org/2000/svg" xmlns:xlink="http://www.w3.org/1999/xlink">
<g id="graph0" class="graph" transform="scale(1 1) rotate(0) translate(4 284)">
<title>gNeric::single_printer</title>
<!-- Node0 -->
<g id="node1" class="node">
<title>Node0</title>
<polygon fill="#bfbfbf" stroke="#000000" points="5,-.5 5,-57.5 126,-57.5 126,-.5 5,-.5"/>
<text text-anchor="middle" x="65.5" y="-45.5" font-family="Helvetica,sans-Serif" font-size="10.00" fill="#000000">gNeric::single_printer</text>
<polyline fill="none" stroke="#000000" points="5,-38.5 126,-38.5 "/>
<text text-anchor="middle" x="65.5" y="-26.5" font-family="Helvetica,sans-Serif" font-size="10.00" fill="#000000"> </text>
<polyline fill="none" stroke="#000000" points="5,-19.5 126,-19.5 "/>
<text text-anchor="middle" x="65.5" y="-7.5" font-family="Helvetica,sans-Serif" font-size="10.00" fill="#000000"> </text>
</g>
<!-- Node1 -->
<g id="node2" class="node">
<title>Node1</title>
<g id="a_node2"><a xlink:href="../../d2/dc8/structgNeric_1_1verbose__printer__base.html" target="_top" xlink:title="{gNeric::verbose_printer\l_base\&lt; false \&gt;\n||+ operator()()\l}">
<polygon fill="none" stroke="#000000" points="0,-95.5 0,-163.5 131,-163.5 131,-95.5 0,-95.5"/>
<text text-anchor="start" x="8" y="-151.5" font-family="Helvetica,sans-Serif" font-size="10.00" fill="#000000">gNeric::verbose_printer</text>
<text text-anchor="middle" x="65.5" y="-140.5" font-family="Helvetica,sans-Serif" font-size="10.00" fill="#000000">_base&lt; false &gt;</text>
<polyline fill="none" stroke="#000000" points="0,-133.5 131,-133.5 "/>
<text text-anchor="middle" x="65.5" y="-121.5" font-family="Helvetica,sans-Serif" font-size="10.00" fill="#000000"> </text>
<polyline fill="none" stroke="#000000" points="0,-114.5 131,-114.5 "/>
<text text-anchor="start" x="8" y="-102.5" font-family="Helvetica,sans-Serif" font-size="10.00" fill="#000000">+ operator()()</text>
</a>
</g>
</g>
<!-- Node1&#45;&gt;Node0 -->
<g id="edge1" class="edge">
<title>Node1&#45;&gt;Node0</title>
<path fill="none" stroke="#191970" d="M65.5,-85.4301C65.5,-76.0073 65.5,-66.2901 65.5,-57.6312"/>
<polygon fill="none" stroke="#191970" points="62.0001,-85.4752 65.5,-95.4753 69.0001,-85.4753 62.0001,-85.4752"/>
</g>
<!-- Node2 -->
<g id="node3" class="node">
<title>Node2</title>
<g id="a_node3"><a xlink:href="../../d2/dc8/structgNeric_1_1verbose__printer__base.html" target="_top" xlink:title="Verbose printer prints level and content. ">
<polygon fill="none" stroke="#000000" points="0,-211.5 0,-279.5 131,-279.5 131,-211.5 0,-211.5"/>
<text text-anchor="start" x="8" y="-267.5" font-family="Helvetica,sans-Serif" font-size="10.00" fill="#000000">gNeric::verbose_printer</text>
<text text-anchor="middle" x="65.5" y="-256.5" font-family="Helvetica,sans-Serif" font-size="10.00" fill="#000000">_base&lt; recursive &gt;</text>
<polyline fill="none" stroke="#000000" points="0,-249.5 131,-249.5 "/>
<text text-anchor="middle" x="65.5" y="-237.5" font-family="Helvetica,sans-Serif" font-size="10.00" fill="#000000"> </text>
<polyline fill="none" stroke="#000000" points="0,-230.5 131,-230.5 "/>
<text text-anchor="start" x="8" y="-218.5" font-family="Helvetica,sans-Serif" font-size="10.00" fill="#000000">+ operator()()</text>
</a>
</g>
</g>
<!-- Node2&#45;&gt;Node1 -->
<g id="edge2" class="edge">
<title>Node2&#45;&gt;Node1</title>
<path fill="none" stroke="#ffa500" d="M65.5,-201.1851C65.5,-188.8048 65.5,-175.5422 65.5,-163.833"/>
<polygon fill="#ffa500" stroke="#ffa500" points="62.0001,-201.3235 65.5,-211.3236 69.0001,-201.3236 62.0001,-201.3235"/>
<text text-anchor="middle" x="90.5" y="-185" font-family="Helvetica,sans-Serif" font-size="10.00" fill="#000000"> &lt; false &gt;</text>
</g>
</g>
</svg>
