<?xml version="1.0" encoding="UTF-8" standalone="no"?>
<!DOCTYPE svg PUBLIC "-//W3C//DTD SVG 1.1//EN"
 "http://www.w3.org/Graphics/SVG/1.1/DTD/svg11.dtd">
<!-- Generated by graphviz version 2.40.1 (20161225.0304)
 -->
<!-- Title: /home/travis/build/AliceO2Group/AliceO2/DataFormats/simulation/include/SimulationDataFormat/MCEventHeader.h Pages: 1 -->
<!--zoomable 417 -->
<svg id="main" version="1.1" xmlns="http://www.w3.org/2000/svg" xmlns:xlink="http://www.w3.org/1999/xlink" xml:space="preserve" onload="init(evt)">
<style type="text/css"><![CDATA[
.edge:hover path { stroke: red; }
.edge:hover polygon { stroke: red; fill: red; }
]]></style>
<script type="text/javascript"><![CDATA[
var edges = document.getElementsByTagName('g');
if (edges && edges.length) {
  for (var i=0;i<edges.length;i++) {
    if (edges[i].id.substr(0,4)=='edge') {
      edges[i].setAttribute('class','edge');
    }
  }
}
]]></script>
        <defs>
                <circle id="rim" cx="0" cy="0" r="7"/>
                <circle id="rim2" cx="0" cy="0" r="3.5"/>
                <g id="zoomPlus">
                        <use xlink:href="#rim" fill="#404040">
                                <set attributeName="fill" to="#808080" begin="zoomplus.mouseover" end="zoomplus.mouseout"/>
                        </use>
                        <path d="M-4,0h8M0,-4v8" fill="none" stroke="white" stroke-width="1.5" pointer-events="none"/>
                </g>
                <g id="zoomMin">
                        <use xlink:href="#rim" fill="#404040">
                                <set attributeName="fill" to="#808080" begin="zoomminus.mouseover" end="zoomminus.mouseout"/>
                        </use>
                        <path d="M-4,0h8" fill="none" stroke="white" stroke-width="1.5" pointer-events="none"/>
                </g>
                <g id="dirArrow">
                        <path fill="none" stroke="white" stroke-width="1.5" d="M0,-3.0v7 M-2.5,-0.5L0,-3.0L2.5,-0.5"/>
                </g>
               <g id="resetDef">
                       <use xlink:href="#rim2" fill="#404040">
                               <set attributeName="fill" to="#808080" begin="reset.mouseover" end="reset.mouseout"/>
                       </use>
               </g>
        </defs>

<script type="text/javascript">
var viewWidth = 1279;
var viewHeight = 417;
var sectionId = 'dynsection-1';
</script>
<script xlink:href="../../svgpan.js"/>
<svg id="graph" class="graph">
<g id="viewport">
<title>/home/travis/build/AliceO2Group/AliceO2/DataFormats/simulation/include/SimulationDataFormat/MCEventHeader.h</title>
<!-- Node5 -->
<g id="node1" class="node">
<title>Node5</title>
<polygon fill="#bfbfbf" stroke="#000000" points="632.5,-345.5 632.5,-408.5 800.5,-408.5 800.5,-345.5 632.5,-345.5"/>
<text text-anchor="start" x="640.5" y="-396.5" font-family="Helvetica,sans-Serif" font-size="10.00" fill="#000000">/home/travis/build</text>
<text text-anchor="start" x="640.5" y="-385.5" font-family="Helvetica,sans-Serif" font-size="10.00" fill="#000000">/AliceO2Group/AliceO2</text>
<text text-anchor="start" x="640.5" y="-374.5" font-family="Helvetica,sans-Serif" font-size="10.00" fill="#000000">/DataFormats/simulation</text>
<text text-anchor="start" x="640.5" y="-363.5" font-family="Helvetica,sans-Serif" font-size="10.00" fill="#000000">/include/SimulationDataFormat</text>
<text text-anchor="middle" x="716.5" y="-352.5" font-family="Helvetica,sans-Serif" font-size="10.00" fill="#000000">/MCEventHeader.h</text>
</g>
<!-- Node6 -->
<g id="node2" class="node">
<title>Node6</title>
<g id="a_node2"><a xlink:href="../../d9/d45/PrimaryChunk_8h.html" target="_top" xlink:title="/home/travis/build\l/AliceO2Group/AliceO2\l/DataFormats/simulation\l/include/SimulationDataFormat\l/PrimaryChunk.h">
<polygon fill="none" stroke="#000000" points="424.5,-245.5 424.5,-308.5 592.5,-308.5 592.5,-245.5 424.5,-245.5"/>
<text text-anchor="start" x="432.5" y="-296.5" font-family="Helvetica,sans-Serif" font-size="10.00" fill="#000000">/home/travis/build</text>
<text text-anchor="start" x="432.5" y="-285.5" font-family="Helvetica,sans-Serif" font-size="10.00" fill="#000000">/AliceO2Group/AliceO2</text>
<text text-anchor="start" x="432.5" y="-274.5" font-family="Helvetica,sans-Serif" font-size="10.00" fill="#000000">/DataFormats/simulation</text>
<text text-anchor="start" x="432.5" y="-263.5" font-family="Helvetica,sans-Serif" font-size="10.00" fill="#000000">/include/SimulationDataFormat</text>
<text text-anchor="middle" x="508.5" y="-252.5" font-family="Helvetica,sans-Serif" font-size="10.00" fill="#000000">/PrimaryChunk.h</text>
</a>
</g>
</g>
<!-- Node5&#45;&gt;Node6 -->
<g id="edge1" class="edge">
<title>Node5&#45;&gt;Node6</title>
<path fill="none" stroke="#191970" d="M641.9271,-341.1476C619.7452,-330.4833 595.6171,-318.8832 574.0549,-308.5168"/>
<polygon fill="#191970" stroke="#191970" points="640.4439,-344.318 650.973,-345.4966 643.477,-338.0092 640.4439,-344.318"/>
</g>
<!-- Node8 -->
<g id="node4" class="node">
<title>Node8</title>
<g id="a_node4"><a xlink:href="../../db/d50/O2HitMerger_8h.html" target="_top" xlink:title="/home/travis/build\l/AliceO2Group/AliceO2\l/run/O2HitMerger.h">
<polygon fill="none" stroke="#000000" points="13,-78.5 13,-119.5 140,-119.5 140,-78.5 13,-78.5"/>
<text text-anchor="start" x="21" y="-107.5" font-family="Helvetica,sans-Serif" font-size="10.00" fill="#000000">/home/travis/build</text>
<text text-anchor="start" x="21" y="-96.5" font-family="Helvetica,sans-Serif" font-size="10.00" fill="#000000">/AliceO2Group/AliceO2</text>
<text text-anchor="middle" x="76.5" y="-85.5" font-family="Helvetica,sans-Serif" font-size="10.00" fill="#000000">/run/O2HitMerger.h</text>
</a>
</g>
</g>
<!-- Node5&#45;&gt;Node8 -->
<g id="edge18" class="edge">
<title>Node5&#45;&gt;Node8</title>
<path fill="none" stroke="#191970" d="M622.438,-366.7385C459.6798,-346.8074 136.5493,-296.9126 70.5,-209 51.085,-183.1584 59.9187,-143.4971 68.1652,-119.5243"/>
<polygon fill="#191970" stroke="#191970" points="622.098,-370.2228 632.4464,-367.9511 622.94,-363.2737 622.098,-370.2228"/>
</g>
<!-- Node12 -->
<g id="node8" class="node">
<title>Node12</title>
<g id="a_node8"><a xlink:href="../../dc/d50/O2PrimaryServerDevice_8h.html" target="_top" xlink:title="/home/travis/build\l/AliceO2Group/AliceO2\l/run/O2PrimaryServerDevice.h">
<polygon fill="none" stroke="#000000" points="706.5,-162 706.5,-203 870.5,-203 870.5,-162 706.5,-162"/>
<text text-anchor="start" x="714.5" y="-191" font-family="Helvetica,sans-Serif" font-size="10.00" fill="#000000">/home/travis/build</text>
<text text-anchor="start" x="714.5" y="-180" font-family="Helvetica,sans-Serif" font-size="10.00" fill="#000000">/AliceO2Group/AliceO2</text>
<text text-anchor="middle" x="788.5" y="-169" font-family="Helvetica,sans-Serif" font-size="10.00" fill="#000000">/run/O2PrimaryServerDevice.h</text>
</a>
</g>
</g>
<!-- Node5&#45;&gt;Node12 -->
<g id="edge19" class="edge">
<title>Node5&#45;&gt;Node12</title>
<path fill="none" stroke="#191970" d="M716.6462,-335.0236C718.1388,-308.2262 722.7425,-273.3281 735.5,-245 742.5688,-229.3038 754.7958,-214.4827 765.7256,-203.216"/>
<polygon fill="#191970" stroke="#191970" points="713.1401,-335.0905 716.2045,-345.2325 720.1336,-335.3932 713.1401,-335.0905"/>
</g>
<!-- Node16 -->
<g id="node12" class="node">
<title>Node16</title>
<g id="a_node12"><a xlink:href="../../df/d3b/O2MCApplication_8cxx.html" target="_top" xlink:title="/home/travis/build\l/AliceO2Group/AliceO2\l/Steer/src/O2MCApplication.cxx">
<polygon fill="none" stroke="#000000" points="575,-78.5 575,-119.5 744,-119.5 744,-78.5 575,-78.5"/>
<text text-anchor="start" x="583" y="-107.5" font-family="Helvetica,sans-Serif" font-size="10.00" fill="#000000">/home/travis/build</text>
<text text-anchor="start" x="583" y="-96.5" font-family="Helvetica,sans-Serif" font-size="10.00" fill="#000000">/AliceO2Group/AliceO2</text>
<text text-anchor="middle" x="659.5" y="-85.5" font-family="Helvetica,sans-Serif" font-size="10.00" fill="#000000">/Steer/src/O2MCApplication.cxx</text>
</a>
</g>
</g>
<!-- Node5&#45;&gt;Node16 -->
<g id="edge20" class="edge">
<title>Node5&#45;&gt;Node16</title>
<path fill="none" stroke="#191970" d="M707.9721,-335.4077C695.578,-274.9592 673.0511,-165.0915 663.7214,-119.5885"/>
<polygon fill="#191970" stroke="#191970" points="704.5795,-336.2873 710.0169,-345.3805 711.4369,-334.8813 704.5795,-336.2873"/>
</g>
<!-- Node17 -->
<g id="node13" class="node">
<title>Node17</title>
<g id="a_node13"><a xlink:href="../../df/dc2/DigitizationContext_8cxx.html" target="_top" xlink:title="/home/travis/build\l/AliceO2Group/AliceO2\l/DataFormats/simulation\l/src/DigitizationContext.cxx">
<polygon fill="none" stroke="#000000" points="744.5,-251 744.5,-303 896.5,-303 896.5,-251 744.5,-251"/>
<text text-anchor="start" x="752.5" y="-291" font-family="Helvetica,sans-Serif" font-size="10.00" fill="#000000">/home/travis/build</text>
<text text-anchor="start" x="752.5" y="-280" font-family="Helvetica,sans-Serif" font-size="10.00" fill="#000000">/AliceO2Group/AliceO2</text>
<text text-anchor="start" x="752.5" y="-269" font-family="Helvetica,sans-Serif" font-size="10.00" fill="#000000">/DataFormats/simulation</text>
<text text-anchor="middle" x="820.5" y="-258" font-family="Helvetica,sans-Serif" font-size="10.00" fill="#000000">/src/DigitizationContext.cxx</text>
</a>
</g>
</g>
<!-- Node5&#45;&gt;Node17 -->
<g id="edge15" class="edge">
<title>Node5&#45;&gt;Node17</title>
<path fill="none" stroke="#191970" d="M756.8777,-338.1752C769.1066,-326.4167 782.2392,-313.7892 793.3789,-303.078"/>
<polygon fill="#191970" stroke="#191970" points="754.1887,-335.9053 749.4063,-345.3594 759.0405,-340.9512 754.1887,-335.9053"/>
</g>
<!-- Node18 -->
<g id="node14" class="node">
<title>Node18</title>
<g id="a_node14"><a xlink:href="../../d8/de4/MCEventHeader_8cxx.html" target="_top" xlink:title="/home/travis/build\l/AliceO2Group/AliceO2\l/DataFormats/simulation\l/src/MCEventHeader.cxx">
<polygon fill="none" stroke="#000000" points="915,-251 915,-303 1052,-303 1052,-251 915,-251"/>
<text text-anchor="start" x="923" y="-291" font-family="Helvetica,sans-Serif" font-size="10.00" fill="#000000">/home/travis/build</text>
<text text-anchor="start" x="923" y="-280" font-family="Helvetica,sans-Serif" font-size="10.00" fill="#000000">/AliceO2Group/AliceO2</text>
<text text-anchor="start" x="923" y="-269" font-family="Helvetica,sans-Serif" font-size="10.00" fill="#000000">/DataFormats/simulation</text>
<text text-anchor="middle" x="983.5" y="-258" font-family="Helvetica,sans-Serif" font-size="10.00" fill="#000000">/src/MCEventHeader.cxx</text>
</a>
</g>
</g>
<!-- Node5&#45;&gt;Node18 -->
<g id="edge16" class="edge">
<title>Node5&#45;&gt;Node18</title>
<path fill="none" stroke="#191970" d="M810.2939,-344.1724C840.7655,-333.2627 874.6647,-320.8657 905.5,-309 910.4178,-307.1076 915.4949,-305.1146 920.5893,-303.0868"/>
<polygon fill="#191970" stroke="#191970" points="808.7695,-341.0002 800.5292,-347.6597 811.1238,-347.5925 808.7695,-341.0002"/>
</g>
<!-- Node19 -->
<g id="node15" class="node">
<title>Node19</title>
<g id="a_node15"><a xlink:href="../../dc/d20/PrimaryGenerator_8cxx.html" target="_top" xlink:title="/home/travis/build\l/AliceO2Group/AliceO2\l/Generators/src/PrimaryGenerator.cxx">
<polygon fill="none" stroke="#000000" points="1070.5,-256.5 1070.5,-297.5 1270.5,-297.5 1270.5,-256.5 1070.5,-256.5"/>
<text text-anchor="start" x="1078.5" y="-285.5" font-family="Helvetica,sans-Serif" font-size="10.00" fill="#000000">/home/travis/build</text>
<text text-anchor="start" x="1078.5" y="-274.5" font-family="Helvetica,sans-Serif" font-size="10.00" fill="#000000">/AliceO2Group/AliceO2</text>
<text text-anchor="middle" x="1170.5" y="-263.5" font-family="Helvetica,sans-Serif" font-size="10.00" fill="#000000">/Generators/src/PrimaryGenerator.cxx</text>
</a>
</g>
</g>
<!-- Node5&#45;&gt;Node19 -->
<g id="edge17" class="edge">
<title>Node5&#45;&gt;Node19</title>
<path fill="none" stroke="#191970" d="M810.6964,-360.8228C880.3372,-348.2846 977.2886,-329.6151 1061.5,-309 1075.3885,-305.6001 1090.1527,-301.5593 1104.1827,-297.5135"/>
<polygon fill="#191970" stroke="#191970" points="809.8503,-357.4186 800.6245,-362.6277 811.0851,-364.3088 809.8503,-357.4186"/>
</g>
<!-- Node7 -->
<g id="node3" class="node">
<title>Node7</title>
<g id="a_node3"><a xlink:href="../../d5/d9d/test_2MCTrack_8cxx.html" target="_top" xlink:title="/home/travis/build\l/AliceO2Group/AliceO2\l/DataFormats/simulation\l/test/MCTrack.cxx">
<polygon fill="none" stroke="#000000" points="105,-156.5 105,-208.5 242,-208.5 242,-156.5 105,-156.5"/>
<text text-anchor="start" x="113" y="-196.5" font-family="Helvetica,sans-Serif" font-size="10.00" fill="#000000">/home/travis/build</text>
<text text-anchor="start" x="113" y="-185.5" font-family="Helvetica,sans-Serif" font-size="10.00" fill="#000000">/AliceO2Group/AliceO2</text>
<text text-anchor="start" x="113" y="-174.5" font-family="Helvetica,sans-Serif" font-size="10.00" fill="#000000">/DataFormats/simulation</text>
<text text-anchor="middle" x="173.5" y="-163.5" font-family="Helvetica,sans-Serif" font-size="10.00" fill="#000000">/test/MCTrack.cxx</text>
</a>
</g>
</g>
<!-- Node6&#45;&gt;Node7 -->
<g id="edge2" class="edge">
<title>Node6&#45;&gt;Node7</title>
<path fill="none" stroke="#191970" d="M414.4275,-253.9812C365.3278,-241.5197 304.4097,-225.3567 250.5,-209 247.7943,-208.1791 245.0414,-207.3246 242.2651,-206.447"/>
<polygon fill="#191970" stroke="#191970" points="413.8481,-257.4448 424.401,-256.5029 415.5641,-250.6584 413.8481,-257.4448"/>
</g>
<!-- Node6&#45;&gt;Node8 -->
<g id="edge3" class="edge">
<title>Node6&#45;&gt;Node8</title>
<path fill="none" stroke="#191970" d="M413.9413,-273.8156C306.1599,-268.1288 139.226,-252.3839 95.5,-209 71.9748,-185.6588 71.4003,-144.42 73.6124,-119.608"/>
<polygon fill="#191970" stroke="#191970" points="414.0165,-277.3238 424.181,-274.3351 414.3712,-270.3328 414.0165,-277.3238"/>
</g>
<!-- Node10 -->
<g id="node6" class="node">
<title>Node10</title>
<g id="a_node6"><a xlink:href="../../db/d82/O2SimDevice_8h.html" target="_top" xlink:title="/home/travis/build\l/AliceO2Group/AliceO2\l/run/O2SimDevice.h">
<polygon fill="none" stroke="#000000" points="260,-162 260,-203 387,-203 387,-162 260,-162"/>
<text text-anchor="start" x="268" y="-191" font-family="Helvetica,sans-Serif" font-size="10.00" fill="#000000">/home/travis/build</text>
<text text-anchor="start" x="268" y="-180" font-family="Helvetica,sans-Serif" font-size="10.00" fill="#000000">/AliceO2Group/AliceO2</text>
<text text-anchor="middle" x="323.5" y="-169" font-family="Helvetica,sans-Serif" font-size="10.00" fill="#000000">/run/O2SimDevice.h</text>
</a>
</g>
</g>
<!-- Node6&#45;&gt;Node10 -->
<g id="edge6" class="edge">
<title>Node6&#45;&gt;Node10</title>
<path fill="none" stroke="#191970" d="M437.5496,-240.7578C412.5619,-227.9938 385.3526,-214.095 363.7795,-203.0752"/>
<polygon fill="#191970" stroke="#191970" points="436.1429,-243.9693 446.6405,-245.4015 439.3272,-237.7355 436.1429,-243.9693"/>
</g>
<!-- Node6&#45;&gt;Node12 -->
<g id="edge9" class="edge">
<title>Node6&#45;&gt;Node12</title>
<path fill="none" stroke="#191970" d="M602.0656,-245.4216C643.4703,-231.4475 690.9858,-215.411 727.6849,-203.0251"/>
<polygon fill="#191970" stroke="#191970" points="600.8649,-242.1328 592.5092,-248.6469 603.1034,-248.7653 600.8649,-242.1328"/>
</g>
<!-- Node14 -->
<g id="node10" class="node">
<title>Node14</title>
<g id="a_node10"><a xlink:href="../../df/d82/O2MCApplication_8h.html" target="_top" xlink:title="/home/travis/build\l/AliceO2Group/AliceO2\l/Steer/include/Steer/O2MCApplication.h">
<polygon fill="none" stroke="#000000" points="405,-162 405,-203 612,-203 612,-162 405,-162"/>
<text text-anchor="start" x="413" y="-191" font-family="Helvetica,sans-Serif" font-size="10.00" fill="#000000">/home/travis/build</text>
<text text-anchor="start" x="413" y="-180" font-family="Helvetica,sans-Serif" font-size="10.00" fill="#000000">/AliceO2Group/AliceO2</text>
<text text-anchor="middle" x="508.5" y="-169" font-family="Helvetica,sans-Serif" font-size="10.00" fill="#000000">/Steer/include/Steer/O2MCApplication.h</text>
</a>
</g>
</g>
<!-- Node6&#45;&gt;Node14 -->
<g id="edge11" class="edge">
<title>Node6&#45;&gt;Node14</title>
<path fill="none" stroke="#191970" d="M508.5,-235.2063C508.5,-224.0427 508.5,-212.4673 508.5,-203.0178"/>
<polygon fill="#191970" stroke="#191970" points="505.0001,-235.2699 508.5,-245.27 512.0001,-235.27 505.0001,-235.2699"/>
</g>
<!-- Node6&#45;&gt;Node16 -->
<g id="edge14" class="edge">
<title>Node6&#45;&gt;Node16</title>
<path fill="none" stroke="#191970" d="M586.6255,-239.9701C599.5553,-231.214 611.8647,-220.8945 621.5,-209 642.866,-182.6243 652.5544,-143.4937 656.6904,-119.708"/>
<polygon fill="#191970" stroke="#191970" points="584.5641,-237.1348 578.0611,-245.4991 588.3608,-243.0158 584.5641,-237.1348"/>
</g>
<!-- Node8&#45;&gt;Node8 -->
<g id="edge4" class="edge">
<title>Node8&#45;&gt;Node8</title>
<path fill="none" stroke="#191970" d="M149.6757,-109.6998C154.8451,-107.2654 158,-103.6989 158,-99 158,-91.8398 150.6744,-87.3088 140.058,-85.4069"/>
<polygon fill="#191970" stroke="#191970" points="148.6258,-106.3606 140.058,-112.5931 150.6424,-113.0638 148.6258,-106.3606"/>
</g>
<!-- Node9 -->
<g id="node5" class="node">
<title>Node9</title>
<g id="a_node5"><a xlink:href="../../d9/d16/O2HitMergerRunner_8cxx.html" target="_top" xlink:title="/home/travis/build\l/AliceO2Group/AliceO2\l/run/O2HitMergerRunner.cxx">
<polygon fill="none" stroke="#000000" points="0,-.5 0,-41.5 153,-41.5 153,-.5 0,-.5"/>
<text text-anchor="start" x="8" y="-29.5" font-family="Helvetica,sans-Serif" font-size="10.00" fill="#000000">/home/travis/build</text>
<text text-anchor="start" x="8" y="-18.5" font-family="Helvetica,sans-Serif" font-size="10.00" fill="#000000">/AliceO2Group/AliceO2</text>
<text text-anchor="middle" x="76.5" y="-7.5" font-family="Helvetica,sans-Serif" font-size="10.00" fill="#000000">/run/O2HitMergerRunner.cxx</text>
</a>
</g>
</g>
<!-- Node8&#45;&gt;Node9 -->
<g id="edge5" class="edge">
<title>Node8&#45;&gt;Node9</title>
<path fill="none" stroke="#191970" d="M76.5,-68.0789C76.5,-59.2178 76.5,-49.7747 76.5,-41.6898"/>
<polygon fill="#191970" stroke="#191970" points="73.0001,-68.0974 76.5,-78.0974 80.0001,-68.0975 73.0001,-68.0974"/>
</g>
<!-- Node10&#45;&gt;Node8 -->
<g id="edge7" class="edge">
<title>Node10&#45;&gt;Node8</title>
<path fill="none" stroke="#191970" d="M257.7993,-158.5398C255.3371,-157.6768 252.8976,-156.8277 250.5,-156 214.142,-143.4491 173.2814,-130.0287 140.297,-119.3647"/>
<polygon fill="#191970" stroke="#191970" points="256.7737,-161.8894 267.3685,-161.9208 259.1057,-155.2892 256.7737,-161.8894"/>
</g>
<!-- Node11 -->
<g id="node7" class="node">
<title>Node11</title>
<g id="a_node7"><a xlink:href="../../d6/da5/O2SimDeviceRunner_8cxx.html" target="_top" xlink:title="/home/travis/build\l/AliceO2Group/AliceO2\l/run/O2SimDeviceRunner.cxx">
<polygon fill="none" stroke="#000000" points="206.5,-78.5 206.5,-119.5 364.5,-119.5 364.5,-78.5 206.5,-78.5"/>
<text text-anchor="start" x="214.5" y="-107.5" font-family="Helvetica,sans-Serif" font-size="10.00" fill="#000000">/home/travis/build</text>
<text text-anchor="start" x="214.5" y="-96.5" font-family="Helvetica,sans-Serif" font-size="10.00" fill="#000000">/AliceO2Group/AliceO2</text>
<text text-anchor="middle" x="285.5" y="-85.5" font-family="Helvetica,sans-Serif" font-size="10.00" fill="#000000">/run/O2SimDeviceRunner.cxx</text>
</a>
</g>
</g>
<!-- Node10&#45;&gt;Node11 -->
<g id="edge8" class="edge">
<title>Node10&#45;&gt;Node11</title>
<path fill="none" stroke="#191970" d="M309.9178,-152.6549C304.9496,-141.7379 299.442,-129.6358 294.9169,-119.6924"/>
<polygon fill="#191970" stroke="#191970" points="306.7789,-154.2075 314.1067,-161.8595 313.1502,-151.308 306.7789,-154.2075"/>
</g>
<!-- Node13 -->
<g id="node9" class="node">
<title>Node13</title>
<g id="a_node9"><a xlink:href="../../db/d8f/O2PrimaryServerDeviceRunner_8cxx.html" target="_top" xlink:title="/home/travis/build\l/AliceO2Group/AliceO2\l/run/O2PrimaryServerDeviceRunner.cxx">
<polygon fill="none" stroke="#000000" points="762,-78.5 762,-119.5 971,-119.5 971,-78.5 762,-78.5"/>
<text text-anchor="start" x="770" y="-107.5" font-family="Helvetica,sans-Serif" font-size="10.00" fill="#000000">/home/travis/build</text>
<text text-anchor="start" x="770" y="-96.5" font-family="Helvetica,sans-Serif" font-size="10.00" fill="#000000">/AliceO2Group/AliceO2</text>
<text text-anchor="middle" x="866.5" y="-85.5" font-family="Helvetica,sans-Serif" font-size="10.00" fill="#000000">/run/O2PrimaryServerDeviceRunner.cxx</text>
</a>
</g>
</g>
<!-- Node12&#45;&gt;Node13 -->
<g id="edge10" class="edge">
<title>Node12&#45;&gt;Node13</title>
<path fill="none" stroke="#191970" d="M814.843,-154.2995C825.4301,-142.9658 837.4131,-130.1379 847.1706,-119.6924"/>
<polygon fill="#191970" stroke="#191970" points="812.0496,-152.1627 807.7809,-161.8595 817.1649,-156.9411 812.0496,-152.1627"/>
</g>
<!-- Node15 -->
<g id="node11" class="node">
<title>Node15</title>
<g id="a_node11"><a xlink:href="../../d9/d9b/O2RunSim_8h.html" target="_top" xlink:title="/home/travis/build\l/AliceO2Group/AliceO2\l/Steer/include/Steer/O2RunSim.h">
<polygon fill="none" stroke="#000000" points="382.5,-78.5 382.5,-119.5 556.5,-119.5 556.5,-78.5 382.5,-78.5"/>
<text text-anchor="start" x="390.5" y="-107.5" font-family="Helvetica,sans-Serif" font-size="10.00" fill="#000000">/home/travis/build</text>
<text text-anchor="start" x="390.5" y="-96.5" font-family="Helvetica,sans-Serif" font-size="10.00" fill="#000000">/AliceO2Group/AliceO2</text>
<text text-anchor="middle" x="469.5" y="-85.5" font-family="Helvetica,sans-Serif" font-size="10.00" fill="#000000">/Steer/include/Steer/O2RunSim.h</text>
</a>
</g>
</g>
<!-- Node14&#45;&gt;Node15 -->
<g id="edge12" class="edge">
<title>Node14&#45;&gt;Node15</title>
<path fill="none" stroke="#191970" d="M494.5604,-152.6549C489.4614,-141.7379 483.8089,-129.6358 479.1647,-119.6924"/>
<polygon fill="#191970" stroke="#191970" points="491.4565,-154.2802 498.8595,-161.8595 497.7988,-151.3179 491.4565,-154.2802"/>
</g>
<!-- Node14&#45;&gt;Node16 -->
<g id="edge13" class="edge">
<title>Node14&#45;&gt;Node16</title>
<path fill="none" stroke="#191970" d="M554.8535,-156.8674C576.5186,-144.8871 601.9663,-130.815 622.3421,-119.5476"/>
<polygon fill="#191970" stroke="#191970" points="552.8833,-153.9574 545.8259,-161.8595 556.2707,-160.0832 552.8833,-153.9574"/>
</g>
</g>
</svg>
        <g id="navigator" transform="translate(0 0)" fill="#404254">
                <rect fill="#f2f5e9" fill-opacity="0.5" stroke="#606060" stroke-width=".5" x="0" y="0" width="60" height="60"/>
                <use id="zoomplus" xlink:href="#zoomPlus" x="17" y="9" onmousedown="handleZoom(evt,'in')"/>
                <use id="zoomminus" xlink:href="#zoomMin" x="42" y="9" onmousedown="handleZoom(evt,'out')"/>
                <use id="reset" xlink:href="#resetDef" x="30" y="36" onmousedown="handleReset()"/>
                <g id="arrowUp" xlink:href="#dirArrow" transform="translate(30 24)" onmousedown="handlePan(0,-1)">
                  <use xlink:href="#rim" fill="#404040">
                        <set attributeName="fill" to="#808080" begin="arrowUp.mouseover" end="arrowUp.mouseout"/>
                  </use>
                  <path fill="none" stroke="white" stroke-width="1.5" d="M0,-3.0v7 M-2.5,-0.5L0,-3.0L2.5,-0.5"/>
                </g>
                <g id="arrowRight" xlink:href="#dirArrow" transform="rotate(90) translate(36 -43)" onmousedown="handlePan(1,0)">
                  <use xlink:href="#rim" fill="#404040">
                        <set attributeName="fill" to="#808080" begin="arrowRight.mouseover" end="arrowRight.mouseout"/>
                  </use>
                  <path fill="none" stroke="white" stroke-width="1.5" d="M0,-3.0v7 M-2.5,-0.5L0,-3.0L2.5,-0.5"/>
                </g>
                <g id="arrowDown" xlink:href="#dirArrow" transform="rotate(180) translate(-30 -48)" onmousedown="handlePan(0,1)">
                  <use xlink:href="#rim" fill="#404040">
                        <set attributeName="fill" to="#808080" begin="arrowDown.mouseover" end="arrowDown.mouseout"/>
                  </use>
                  <path fill="none" stroke="white" stroke-width="1.5" d="M0,-3.0v7 M-2.5,-0.5L0,-3.0L2.5,-0.5"/>
                </g>
                <g id="arrowLeft" xlink:href="#dirArrow" transform="rotate(270) translate(-36 17)" onmousedown="handlePan(-1,0)">
                  <use xlink:href="#rim" fill="#404040">
                        <set attributeName="fill" to="#808080" begin="arrowLeft.mouseover" end="arrowLeft.mouseout"/>
                  </use>
                  <path fill="none" stroke="white" stroke-width="1.5" d="M0,-3.0v7 M-2.5,-0.5L0,-3.0L2.5,-0.5"/>
                </g>
        </g>
        <svg viewBox="0 0 15 15" width="100%" height="30px" preserveAspectRatio="xMaxYMin meet">
         <g id="arrow_out" transform="scale(0.3 0.3)">
          <a xlink:href="MCEventHeader_8h__dep__incl_org.svg" target="_base">
           <rect id="button" ry="5" rx="5" y="6" x="6" height="38" width="38"
                fill="#f2f5e9" fill-opacity="0.5" stroke="#606060" stroke-width="1.0"/>
           <path id="arrow"
             d="M 11.500037,31.436501 C 11.940474,20.09759 22.043105,11.32322 32.158766,21.979434 L 37.068811,17.246167 C 37.068811,17.246167 37.088388,32 37.088388,32 L 22.160133,31.978069 C 22.160133,31.978069 26.997745,27.140456 26.997745,27.140456 C 18.528582,18.264221 13.291696,25.230495 11.500037,31.436501 z"
             style="fill:#404040;"/>
          </a>
         </g>
        </svg>
</svg>
