<?xml version="1.0" encoding="UTF-8" standalone="no"?>
<!DOCTYPE svg PUBLIC "-//W3C//DTD SVG 1.1//EN"
 "http://www.w3.org/Graphics/SVG/1.1/DTD/svg11.dtd">
<!-- Generated by graphviz version 2.40.1 (20161225.0304)
 -->
<!-- Title: /home/travis/build/AliceO2Group/AliceO2/Detectors/MUON/MCH/Raw/Encoder/Digit/digit2json.cxx Pages: 1 -->
<svg width="2249pt" height="296pt"
 viewBox="0.00 0.00 2248.65 296.00" xmlns="http://www.w3.org/2000/svg" xmlns:xlink="http://www.w3.org/1999/xlink">
<g id="graph0" class="graph" transform="scale(1 1) rotate(0) translate(4 292)">
<title>/home/travis/build/AliceO2Group/AliceO2/Detectors/MUON/MCH/Raw/Encoder/Digit/digit2json.cxx</title>
<!-- Node0 -->
<g id="node1" class="node">
<title>Node0</title>
<polygon fill="#bfbfbf" stroke="#000000" points="1430.6495,-235.5 1430.6495,-287.5 1586.6495,-287.5 1586.6495,-235.5 1430.6495,-235.5"/>
<text text-anchor="start" x="1438.6495" y="-275.5" font-family="Helvetica,sans-Serif" font-size="10.00" fill="#000000">/home/travis/build</text>
<text text-anchor="start" x="1438.6495" y="-264.5" font-family="Helvetica,sans-Serif" font-size="10.00" fill="#000000">/AliceO2Group/AliceO2</text>
<text text-anchor="start" x="1438.6495" y="-253.5" font-family="Helvetica,sans-Serif" font-size="10.00" fill="#000000">/Detectors/MUON/MCH/Raw</text>
<text text-anchor="middle" x="1508.6495" y="-242.5" font-family="Helvetica,sans-Serif" font-size="10.00" fill="#000000">/Encoder/Digit/digit2json.cxx</text>
</g>
<!-- Node1 -->
<g id="node2" class="node">
<title>Node1</title>
<g id="a_node2"><a xlink:href="../../d8/d72/Detectors_2MUON_2MCH_2Base_2include_2MCHBase_2Digit_8h.html" target="_top" xlink:title="MCHBase/Digit.h">
<polygon fill="none" stroke="#000000" points="1264.6495,-118 1264.6495,-137 1362.6495,-137 1362.6495,-118 1264.6495,-118"/>
<text text-anchor="middle" x="1313.6495" y="-125" font-family="Helvetica,sans-Serif" font-size="10.00" fill="#000000">MCHBase/Digit.h</text>
</a>
</g>
</g>
<!-- Node0&#45;&gt;Node1 -->
<g id="edge1" class="edge">
<title>Node0&#45;&gt;Node1</title>
<path fill="none" stroke="#191970" d="M1430.647,-252.0269C1366.9235,-242.4952 1284.1512,-225.3883 1263.6495,-199 1249.1591,-180.349 1270.8697,-157.8927 1290.058,-143.1858"/>
<polygon fill="#191970" stroke="#191970" points="1292.256,-145.9151 1298.2855,-137.2033 1288.1392,-140.2536 1292.256,-145.9151"/>
</g>
<!-- Node3 -->
<g id="node4" class="node">
<title>Node3</title>
<g id="a_node4"><a xlink:href="../../d2/d71/MUON_2MCH_2Raw_2ElecMap_2include_2MCHRawElecMap_2Mapper_8h.html" target="_top" xlink:title="MCHRawElecMap/Mapper.h">
<polygon fill="none" stroke="#000000" points="416.6495,-118 416.6495,-137 564.6495,-137 564.6495,-118 416.6495,-118"/>
<text text-anchor="middle" x="490.6495" y="-125" font-family="Helvetica,sans-Serif" font-size="10.00" fill="#000000">MCHRawElecMap/Mapper.h</text>
</a>
</g>
</g>
<!-- Node0&#45;&gt;Node3 -->
<g id="edge3" class="edge">
<title>Node0&#45;&gt;Node3</title>
<path fill="none" stroke="#191970" d="M1430.4008,-251.3084C1335.7293,-238.9686 1171.5034,-217.5336 1030.6495,-199 868.0637,-177.6069 677.9719,-152.3897 572.2363,-138.3447"/>
<polygon fill="#191970" stroke="#191970" points="572.6448,-134.8683 562.2709,-137.0209 571.7229,-141.8073 572.6448,-134.8683"/>
</g>
<!-- Node13 -->
<g id="node14" class="node">
<title>Node13</title>
<polygon fill="none" stroke="#bfbfbf" points="1010.1495,-56.5 1010.1495,-75.5 1089.1495,-75.5 1089.1495,-56.5 1010.1495,-56.5"/>
<text text-anchor="middle" x="1049.6495" y="-63.5" font-family="Helvetica,sans-Serif" font-size="10.00" fill="#000000">fmt/format.h</text>
</g>
<!-- Node0&#45;&gt;Node13 -->
<g id="edge23" class="edge">
<title>Node0&#45;&gt;Node13</title>
<path fill="none" stroke="#191970" d="M1430.3349,-250.9981C1316.162,-234.0381 1112.2855,-196.9734 1063.6495,-143 1049.6971,-127.5164 1047.4388,-102.9414 1047.8698,-85.7299"/>
<polygon fill="#191970" stroke="#191970" points="1051.3694,-85.8357 1048.4455,-75.6524 1044.3808,-85.4364 1051.3694,-85.8357"/>
</g>
<!-- Node16 -->
<g id="node17" class="node">
<title>Node16</title>
<polygon fill="none" stroke="#bfbfbf" points="1372.6495,-179.5 1372.6495,-198.5 1522.6495,-198.5 1522.6495,-179.5 1372.6495,-179.5"/>
<text text-anchor="middle" x="1447.6495" y="-186.5" font-family="Helvetica,sans-Serif" font-size="10.00" fill="#000000">boost/program_options.hpp</text>
</g>
<!-- Node0&#45;&gt;Node16 -->
<g id="edge22" class="edge">
<title>Node0&#45;&gt;Node16</title>
<path fill="none" stroke="#191970" d="M1486.6271,-235.3258C1478.5392,-225.7131 1469.5872,-215.0735 1462.3042,-206.4174"/>
<polygon fill="#191970" stroke="#191970" points="1464.7875,-203.9325 1455.6712,-198.534 1459.4312,-208.4392 1464.7875,-203.9325"/>
</g>
<!-- Node17 -->
<g id="node18" class="node">
<title>Node17</title>
<polygon fill="none" stroke="#bfbfbf" points="1540.6495,-179.5 1540.6495,-198.5 1600.6495,-198.5 1600.6495,-179.5 1540.6495,-179.5"/>
<text text-anchor="middle" x="1570.6495" y="-186.5" font-family="Helvetica,sans-Serif" font-size="10.00" fill="#000000">iostream</text>
</g>
<!-- Node0&#45;&gt;Node17 -->
<g id="edge24" class="edge">
<title>Node0&#45;&gt;Node17</title>
<path fill="none" stroke="#191970" d="M1531.0329,-235.3258C1539.3391,-225.613 1548.5418,-214.8518 1555.9854,-206.1476"/>
<polygon fill="#191970" stroke="#191970" points="1558.657,-208.4087 1562.4963,-198.534 1553.337,-203.8592 1558.657,-208.4087"/>
</g>
<!-- Node18 -->
<g id="node19" class="node">
<title>Node18</title>
<polygon fill="none" stroke="#bfbfbf" points="1618.6495,-179.5 1618.6495,-198.5 1740.6495,-198.5 1740.6495,-179.5 1618.6495,-179.5"/>
<text text-anchor="middle" x="1679.6495" y="-186.5" font-family="Helvetica,sans-Serif" font-size="10.00" fill="#000000">rapidjson/document.h</text>
</g>
<!-- Node0&#45;&gt;Node18 -->
<g id="edge25" class="edge">
<title>Node0&#45;&gt;Node18</title>
<path fill="none" stroke="#191970" d="M1570.3844,-235.3258C1596.5999,-224.2111 1626.0532,-211.7236 1647.7689,-202.5167"/>
<polygon fill="#191970" stroke="#191970" points="1649.3219,-205.6598 1657.1624,-198.534 1646.5895,-199.2151 1649.3219,-205.6598"/>
</g>
<!-- Node19 -->
<g id="node20" class="node">
<title>Node19</title>
<polygon fill="none" stroke="#bfbfbf" points="1759.1495,-179.5 1759.1495,-198.5 1912.1495,-198.5 1912.1495,-179.5 1759.1495,-179.5"/>
<text text-anchor="middle" x="1835.6495" y="-186.5" font-family="Helvetica,sans-Serif" font-size="10.00" fill="#000000">rapidjson/ostreamwrapper.h</text>
</g>
<!-- Node0&#45;&gt;Node19 -->
<g id="edge26" class="edge">
<title>Node0&#45;&gt;Node19</title>
<path fill="none" stroke="#191970" d="M1586.9742,-244.1344C1647.5035,-230.7143 1729.6411,-212.5034 1782.6503,-200.7506"/>
<polygon fill="#191970" stroke="#191970" points="1783.5176,-204.1434 1792.5229,-198.5617 1782.0024,-197.3093 1783.5176,-204.1434"/>
</g>
<!-- Node20 -->
<g id="node21" class="node">
<title>Node20</title>
<polygon fill="none" stroke="#bfbfbf" points="1930.1495,-179.5 1930.1495,-198.5 2059.1495,-198.5 2059.1495,-179.5 1930.1495,-179.5"/>
<text text-anchor="middle" x="1994.6495" y="-186.5" font-family="Helvetica,sans-Serif" font-size="10.00" fill="#000000">rapidjson/stringbuffer.h</text>
</g>
<!-- Node0&#45;&gt;Node20 -->
<g id="edge27" class="edge">
<title>Node0&#45;&gt;Node20</title>
<path fill="none" stroke="#191970" d="M1586.7338,-249.8516C1678.7117,-236.1306 1830.3749,-213.506 1920.5752,-200.0502"/>
<polygon fill="#191970" stroke="#191970" points="1921.3491,-203.4736 1930.7232,-198.5363 1920.3162,-196.5502 1921.3491,-203.4736"/>
</g>
<!-- Node21 -->
<g id="node22" class="node">
<title>Node21</title>
<polygon fill="none" stroke="#bfbfbf" points="2077.1495,-179.5 2077.1495,-198.5 2178.1495,-198.5 2178.1495,-179.5 2077.1495,-179.5"/>
<text text-anchor="middle" x="2127.6495" y="-186.5" font-family="Helvetica,sans-Serif" font-size="10.00" fill="#000000">rapidjson/writer.h</text>
</g>
<!-- Node0&#45;&gt;Node21 -->
<g id="edge28" class="edge">
<title>Node0&#45;&gt;Node21</title>
<path fill="none" stroke="#191970" d="M1586.7351,-254.1972C1693.106,-243.9336 1889.7141,-223.8432 2067.1084,-199.1582"/>
<polygon fill="#191970" stroke="#191970" points="2067.7298,-202.6055 2077.1483,-197.7533 2066.7597,-195.673 2067.7298,-202.6055"/>
</g>
<!-- Node22 -->
<g id="node23" class="node">
<title>Node22</title>
<polygon fill="none" stroke="#bfbfbf" points="2196.6495,-179.5 2196.6495,-198.5 2240.6495,-198.5 2240.6495,-179.5 2196.6495,-179.5"/>
<text text-anchor="middle" x="2218.6495" y="-186.5" font-family="Helvetica,sans-Serif" font-size="10.00" fill="#000000">string</text>
</g>
<!-- Node0&#45;&gt;Node22 -->
<g id="edge29" class="edge">
<title>Node0&#45;&gt;Node22</title>
<path fill="none" stroke="#191970" d="M1586.854,-259.8792C1712.1802,-256.0583 1965.5341,-243.3016 2186.6171,-198.8117"/>
<polygon fill="#191970" stroke="#191970" points="2187.3557,-202.2332 2196.4552,-196.8064 2185.9576,-195.3742 2187.3557,-202.2332"/>
</g>
<!-- Node23 -->
<g id="node24" class="node">
<title>Node23</title>
<g id="a_node24"><a xlink:href="../../da/df9/DigitEncoder_8h.html" target="_top" xlink:title="DigitEncoder.h">
<polygon fill="none" stroke="#000000" points="292.1495,-179.5 292.1495,-198.5 379.1495,-198.5 379.1495,-179.5 292.1495,-179.5"/>
<text text-anchor="middle" x="335.6495" y="-186.5" font-family="Helvetica,sans-Serif" font-size="10.00" fill="#000000">DigitEncoder.h</text>
</a>
</g>
</g>
<!-- Node0&#45;&gt;Node23 -->
<g id="edge30" class="edge">
<title>Node0&#45;&gt;Node23</title>
<path fill="none" stroke="#191970" d="M1430.3213,-256.6587C1208.1717,-242.9283 577.9957,-203.9788 389.5335,-192.3304"/>
<polygon fill="#191970" stroke="#191970" points="389.5209,-188.8231 379.324,-191.6994 389.089,-195.8097 389.5209,-188.8231"/>
</g>
<!-- Node24 -->
<g id="node25" class="node">
<title>Node24</title>
<g id="a_node25"><a xlink:href="../../d3/d01/MUON_2MCH_2Raw_2Encoder_2Digit_2DigitReader_8h.html" target="_top" xlink:title="DigitReader.h">
<polygon fill="none" stroke="#000000" points="1272.6495,-179.5 1272.6495,-198.5 1354.6495,-198.5 1354.6495,-179.5 1272.6495,-179.5"/>
<text text-anchor="middle" x="1313.6495" y="-186.5" font-family="Helvetica,sans-Serif" font-size="10.00" fill="#000000">DigitReader.h</text>
</a>
</g>
</g>
<!-- Node0&#45;&gt;Node24 -->
<g id="edge39" class="edge">
<title>Node0&#45;&gt;Node24</title>
<path fill="none" stroke="#191970" d="M1438.5255,-235.4283C1408.0653,-224.1033 1373.7259,-211.3361 1348.7774,-202.0604"/>
<polygon fill="#191970" stroke="#191970" points="1349.9624,-198.7669 1339.3696,-198.5626 1347.523,-205.3281 1349.9624,-198.7669"/>
</g>
<!-- Node2 -->
<g id="node3" class="node">
<title>Node2</title>
<polygon fill="none" stroke="#bfbfbf" points="1399.1495,-.5 1399.1495,-19.5 1458.1495,-19.5 1458.1495,-.5 1399.1495,-.5"/>
<text text-anchor="middle" x="1428.6495" y="-7.5" font-family="Helvetica,sans-Serif" font-size="10.00" fill="#000000">Rtypes.h</text>
</g>
<!-- Node1&#45;&gt;Node2 -->
<g id="edge2" class="edge">
<title>Node1&#45;&gt;Node2</title>
<path fill="none" stroke="#191970" d="M1346.9433,-117.9981C1354.9942,-115.8682 1363.5993,-113.7299 1371.6495,-112 1420.083,-101.5922 1559.573,-113.7521 1591.6495,-76 1628.0145,-33.2007 1527.9526,-17.8313 1468.7526,-12.5704"/>
<polygon fill="#191970" stroke="#191970" points="1468.824,-9.0644 1458.5695,-11.7283 1468.2471,-16.0406 1468.824,-9.0644"/>
</g>
<!-- Node4 -->
<g id="node5" class="node">
<title>Node4</title>
<polygon fill="none" stroke="#bfbfbf" points="136.1495,-56.5 136.1495,-75.5 201.1495,-75.5 201.1495,-56.5 136.1495,-56.5"/>
<text text-anchor="middle" x="168.6495" y="-63.5" font-family="Helvetica,sans-Serif" font-size="10.00" fill="#000000">functional</text>
</g>
<!-- Node3&#45;&gt;Node4 -->
<g id="edge4" class="edge">
<title>Node3&#45;&gt;Node4</title>
<path fill="none" stroke="#191970" d="M437.5992,-117.9635C382.1618,-107.9045 292.6909,-91.4074 215.6495,-76 214.1924,-75.7086 212.7105,-75.4093 211.2143,-75.1047"/>
<polygon fill="#191970" stroke="#191970" points="211.7458,-71.6406 201.2442,-73.0431 210.3283,-78.4956 211.7458,-71.6406"/>
</g>
<!-- Node5 -->
<g id="node6" class="node">
<title>Node5</title>
<polygon fill="none" stroke="#bfbfbf" points="201.6495,-.5 201.6495,-19.5 257.6495,-19.5 257.6495,-.5 201.6495,-.5"/>
<text text-anchor="middle" x="229.6495" y="-7.5" font-family="Helvetica,sans-Serif" font-size="10.00" fill="#000000">optional</text>
</g>
<!-- Node3&#45;&gt;Node5 -->
<g id="edge5" class="edge">
<title>Node3&#45;&gt;Node5</title>
<path fill="none" stroke="#191970" d="M416.6268,-120.1144C354.7035,-112.4671 272.7304,-98.4376 248.6495,-76 235.9974,-64.2112 231.5827,-44.5968 230.1327,-29.8073"/>
<polygon fill="#191970" stroke="#191970" points="233.6155,-29.4166 229.5145,-19.6477 226.6285,-29.8419 233.6155,-29.4166"/>
</g>
<!-- Node6 -->
<g id="node7" class="node">
<title>Node6</title>
<polygon fill="none" stroke="#bfbfbf" points="529.6495,-56.5 529.6495,-75.5 561.6495,-75.5 561.6495,-56.5 529.6495,-56.5"/>
<text text-anchor="middle" x="545.6495" y="-63.5" font-family="Helvetica,sans-Serif" font-size="10.00" fill="#000000">set</text>
</g>
<!-- Node3&#45;&gt;Node6 -->
<g id="edge6" class="edge">
<title>Node3&#45;&gt;Node6</title>
<path fill="none" stroke="#191970" d="M499.2433,-117.8906C507.5092,-108.6478 520.1921,-94.466 530.2112,-83.2628"/>
<polygon fill="#191970" stroke="#191970" points="532.8773,-85.5321 536.9346,-75.7449 527.6595,-80.8657 532.8773,-85.5321"/>
</g>
<!-- Node7 -->
<g id="node8" class="node">
<title>Node7</title>
<polygon fill="none" stroke="#bfbfbf" points="580.1495,-56.5 580.1495,-75.5 645.1495,-75.5 645.1495,-56.5 580.1495,-56.5"/>
<text text-anchor="middle" x="612.6495" y="-63.5" font-family="Helvetica,sans-Serif" font-size="10.00" fill="#000000">stdexcept</text>
</g>
<!-- Node3&#45;&gt;Node7 -->
<g id="edge7" class="edge">
<title>Node3&#45;&gt;Node7</title>
<path fill="none" stroke="#191970" d="M509.712,-117.8906C529.7667,-107.7811 561.5429,-91.7628 584.4879,-80.1962"/>
<polygon fill="#191970" stroke="#191970" points="586.3668,-83.1687 593.7209,-75.5419 583.2158,-76.918 586.3668,-83.1687"/>
</g>
<!-- Node8 -->
<g id="node9" class="node">
<title>Node8</title>
<polygon fill="none" stroke="#bfbfbf" points="532.6495,-.5 532.6495,-19.5 582.6495,-19.5 582.6495,-.5 532.6495,-.5"/>
<text text-anchor="middle" x="557.6495" y="-7.5" font-family="Helvetica,sans-Serif" font-size="10.00" fill="#000000">cstdint</text>
</g>
<!-- Node3&#45;&gt;Node8 -->
<g id="edge8" class="edge">
<title>Node3&#45;&gt;Node8</title>
<path fill="none" stroke="#191970" d="M480.8625,-117.7512C467.7903,-103.5074 447.6966,-76.4782 460.6495,-56 474.1531,-34.6512 500.5473,-23.0142 522.3976,-16.7895"/>
<polygon fill="#191970" stroke="#191970" points="523.5565,-20.1053 532.3678,-14.2222 521.8109,-13.3264 523.5565,-20.1053"/>
</g>
<!-- Node9 -->
<g id="node10" class="node">
<title>Node9</title>
<g id="a_node10"><a xlink:href="../../d5/dcd/DsDetId_8h.html" target="_top" xlink:title="MCHRawElecMap/DsDetId.h">
<polygon fill="none" stroke="#000000" points="839.6495,-56.5 839.6495,-75.5 991.6495,-75.5 991.6495,-56.5 839.6495,-56.5"/>
<text text-anchor="middle" x="915.6495" y="-63.5" font-family="Helvetica,sans-Serif" font-size="10.00" fill="#000000">MCHRawElecMap/DsDetId.h</text>
</a>
</g>
</g>
<!-- Node3&#45;&gt;Node9 -->
<g id="edge9" class="edge">
<title>Node3&#45;&gt;Node9</title>
<path fill="none" stroke="#191970" d="M556.5895,-117.9581C633.1692,-106.8766 759.2608,-88.6304 839.8247,-76.9723"/>
<polygon fill="#191970" stroke="#191970" points="840.5089,-80.4098 849.9046,-75.5137 839.5064,-73.482 840.5089,-80.4098"/>
</g>
<!-- Node11 -->
<g id="node12" class="node">
<title>Node11</title>
<g id="a_node12"><a xlink:href="../../d4/d09/DsElecId_8h.html" target="_top" xlink:title="MCHRawElecMap/DsElecId.h">
<polygon fill="none" stroke="#000000" points="258.1495,-56.5 258.1495,-75.5 413.1495,-75.5 413.1495,-56.5 258.1495,-56.5"/>
<text text-anchor="middle" x="335.6495" y="-63.5" font-family="Helvetica,sans-Serif" font-size="10.00" fill="#000000">MCHRawElecMap/DsElecId.h</text>
</a>
</g>
</g>
<!-- Node3&#45;&gt;Node11 -->
<g id="edge12" class="edge">
<title>Node3&#45;&gt;Node11</title>
<path fill="none" stroke="#191970" d="M466.4308,-117.8906C440.2689,-107.5103 398.4066,-90.9004 369.1107,-79.2766"/>
<polygon fill="#191970" stroke="#191970" points="370.2841,-75.9767 359.6982,-75.5419 367.7024,-82.4833 370.2841,-75.9767"/>
</g>
<!-- Node12 -->
<g id="node13" class="node">
<title>Node12</title>
<g id="a_node13"><a xlink:href="../../d8/d97/FeeLinkId_8h.html" target="_top" xlink:title="MCHRawElecMap/FeeLinkId.h">
<polygon fill="none" stroke="#000000" points="663.6495,-56.5 663.6495,-75.5 821.6495,-75.5 821.6495,-56.5 663.6495,-56.5"/>
<text text-anchor="middle" x="742.6495" y="-63.5" font-family="Helvetica,sans-Serif" font-size="10.00" fill="#000000">MCHRawElecMap/FeeLinkId.h</text>
</a>
</g>
</g>
<!-- Node3&#45;&gt;Node12 -->
<g id="edge16" class="edge">
<title>Node3&#45;&gt;Node12</title>
<path fill="none" stroke="#191970" d="M529.748,-117.9581C573.8886,-107.1857 645.7715,-89.6428 693.6301,-77.9631"/>
<polygon fill="#191970" stroke="#191970" points="694.5742,-81.3355 703.4593,-75.5643 692.9146,-74.535 694.5742,-81.3355"/>
</g>
<!-- Node3&#45;&gt;Node13 -->
<g id="edge19" class="edge">
<title>Node3&#45;&gt;Node13</title>
<path fill="none" stroke="#191970" d="M564.8445,-122.362C662.3351,-115.0852 839.0315,-100.0883 1000.0386,-75.9491"/>
<polygon fill="#191970" stroke="#191970" points="1000.7671,-79.3787 1010.1302,-74.4208 999.7189,-72.4576 1000.7671,-79.3787"/>
</g>
<!-- Node14 -->
<g id="node15" class="node">
<title>Node14</title>
<polygon fill="none" stroke="#bfbfbf" points="469.6495,-56.5 469.6495,-75.5 511.6495,-75.5 511.6495,-56.5 469.6495,-56.5"/>
<text text-anchor="middle" x="490.6495" y="-63.5" font-family="Helvetica,sans-Serif" font-size="10.00" fill="#000000">array</text>
</g>
<!-- Node3&#45;&gt;Node14 -->
<g id="edge20" class="edge">
<title>Node3&#45;&gt;Node14</title>
<path fill="none" stroke="#191970" d="M490.6495,-117.8906C490.6495,-109.3657 490.6495,-96.6392 490.6495,-85.9235"/>
<polygon fill="#191970" stroke="#191970" points="494.1496,-85.7448 490.6495,-75.7449 487.1496,-85.7449 494.1496,-85.7448"/>
</g>
<!-- Node15 -->
<g id="node16" class="node">
<title>Node15</title>
<polygon fill="none" stroke="#bfbfbf" points="61.1495,-56.5 61.1495,-75.5 118.1495,-75.5 118.1495,-56.5 61.1495,-56.5"/>
<text text-anchor="middle" x="89.6495" y="-63.5" font-family="Helvetica,sans-Serif" font-size="10.00" fill="#000000">gsl/span</text>
</g>
<!-- Node3&#45;&gt;Node15 -->
<g id="edge21" class="edge">
<title>Node3&#45;&gt;Node15</title>
<path fill="none" stroke="#191970" d="M416.6396,-119.7413C345.0026,-111.6154 233.2346,-97.3162 128.0771,-76.1102"/>
<polygon fill="#191970" stroke="#191970" points="128.7472,-72.6749 118.2492,-74.1039 127.3471,-79.5334 128.7472,-72.6749"/>
</g>
<!-- Node9&#45;&gt;Node8 -->
<g id="edge10" class="edge">
<title>Node9&#45;&gt;Node8</title>
<path fill="none" stroke="#191970" d="M854.5139,-56.4369C779.1891,-44.6542 653.7376,-25.0305 592.8924,-15.5129"/>
<polygon fill="#191970" stroke="#191970" points="593.4242,-12.0536 583.0034,-13.966 592.3423,-18.9695 593.4242,-12.0536"/>
</g>
<!-- Node10 -->
<g id="node11" class="node">
<title>Node10</title>
<polygon fill="none" stroke="#bfbfbf" points="804.1495,-.5 804.1495,-19.5 853.1495,-19.5 853.1495,-.5 804.1495,-.5"/>
<text text-anchor="middle" x="828.6495" y="-7.5" font-family="Helvetica,sans-Serif" font-size="10.00" fill="#000000">iosfwd</text>
</g>
<!-- Node9&#45;&gt;Node10 -->
<g id="edge11" class="edge">
<title>Node9&#45;&gt;Node10</title>
<path fill="none" stroke="#191970" d="M900.4953,-56.2455C887.1468,-47.6534 867.4909,-35.0014 852.1112,-25.1018"/>
<polygon fill="#191970" stroke="#191970" points="853.9331,-22.1121 843.6301,-19.6427 850.1444,-27.9982 853.9331,-22.1121"/>
</g>
<!-- Node11&#45;&gt;Node5 -->
<g id="edge15" class="edge">
<title>Node11&#45;&gt;Node5</title>
<path fill="none" stroke="#191970" d="M317.1857,-56.2455C300.5421,-47.4527 275.8502,-34.4079 256.9303,-24.4125"/>
<polygon fill="#191970" stroke="#191970" points="258.3786,-21.2193 247.9017,-19.6427 255.1087,-27.4086 258.3786,-21.2193"/>
</g>
<!-- Node11&#45;&gt;Node8 -->
<g id="edge13" class="edge">
<title>Node11&#45;&gt;Node8</title>
<path fill="none" stroke="#191970" d="M373.5604,-56.4369C415.3447,-45.8967 482.0031,-29.082 522.6058,-18.8398"/>
<polygon fill="#191970" stroke="#191970" points="523.496,-22.225 532.3362,-16.3853 521.7838,-15.4376 523.496,-22.225"/>
</g>
<!-- Node11&#45;&gt;Node10 -->
<g id="edge14" class="edge">
<title>Node11&#45;&gt;Node10</title>
<path fill="none" stroke="#191970" d="M413.2231,-57.1884C521.8661,-44.8476 714.8639,-22.9249 793.6684,-13.9735"/>
<polygon fill="#191970" stroke="#191970" points="794.4684,-17.4052 804.0095,-12.7989 793.6783,-10.45 794.4684,-17.4052"/>
</g>
<!-- Node12&#45;&gt;Node8 -->
<g id="edge17" class="edge">
<title>Node12&#45;&gt;Node8</title>
<path fill="none" stroke="#191970" d="M710.8469,-56.3733C677.9849,-46.4259 626.8238,-30.9393 592.7855,-20.6358"/>
<polygon fill="#191970" stroke="#191970" points="593.396,-17.1638 582.8108,-17.6164 591.3679,-23.8636 593.396,-17.1638"/>
</g>
<!-- Node12&#45;&gt;Node10 -->
<g id="edge18" class="edge">
<title>Node12&#45;&gt;Node10</title>
<path fill="none" stroke="#191970" d="M757.6296,-56.2455C770.8246,-47.6534 790.2546,-35.0014 805.4574,-25.1018"/>
<polygon fill="#191970" stroke="#191970" points="807.371,-28.0325 813.8411,-19.6427 803.5512,-22.1665 807.371,-28.0325"/>
</g>
<!-- Node23&#45;&gt;Node1 -->
<g id="edge31" class="edge">
<title>Node23&#45;&gt;Node1</title>
<path fill="none" stroke="#191970" d="M379.334,-188.039C538.0047,-184.358 1083.5381,-169.9897 1255.6495,-143 1261.2485,-142.122 1267.0857,-140.9177 1272.8072,-139.5653"/>
<polygon fill="#191970" stroke="#191970" points="1274.0693,-142.8563 1282.9048,-137.0096 1272.3517,-136.0703 1274.0693,-142.8563"/>
</g>
<!-- Node23&#45;&gt;Node3 -->
<g id="edge34" class="edge">
<title>Node23&#45;&gt;Node3</title>
<path fill="none" stroke="#191970" d="M359.8683,-179.3906C386.0301,-169.0103 427.8924,-152.4004 457.1883,-140.7766"/>
<polygon fill="#191970" stroke="#191970" points="458.5966,-143.9833 466.6008,-137.0419 456.0149,-137.4767 458.5966,-143.9833"/>
</g>
<!-- Node23&#45;&gt;Node4 -->
<g id="edge36" class="edge">
<title>Node23&#45;&gt;Node4</title>
<path fill="none" stroke="#191970" d="M322.5453,-179.3484C293.7661,-158.1517 224.8231,-107.3734 189.8166,-81.5901"/>
<polygon fill="#191970" stroke="#191970" points="191.8203,-78.719 181.6928,-75.6068 187.669,-84.3553 191.8203,-78.719"/>
</g>
<!-- Node23&#45;&gt;Node5 -->
<g id="edge38" class="edge">
<title>Node23&#45;&gt;Node5</title>
<path fill="none" stroke="#191970" d="M291.9807,-185.8014C209.245,-179.2958 36.2987,-163.3951 18.6495,-143 -6.6527,-113.7612 -5.6058,-86.1129 18.6495,-56 39.9157,-29.5981 136.4325,-17.5425 191.2696,-12.7395"/>
<polygon fill="#191970" stroke="#191970" points="191.6478,-16.2202 201.3215,-11.8993 191.0647,-9.2445 191.6478,-16.2202"/>
</g>
<!-- Node23&#45;&gt;Node8 -->
<g id="edge35" class="edge">
<title>Node23&#45;&gt;Node8</title>
<path fill="none" stroke="#191970" d="M292.0974,-184.4542C195.5589,-172.802 -22.2374,-136.9086 51.6495,-56 83.3109,-21.3298 412.3042,-12.5108 522.1593,-10.5242"/>
<polygon fill="#191970" stroke="#191970" points="522.4475,-14.0199 532.3856,-10.3478 522.3267,-7.0209 522.4475,-14.0199"/>
</g>
<!-- Node23&#45;&gt;Node9 -->
<g id="edge32" class="edge">
<title>Node23&#45;&gt;Node9</title>
<path fill="none" stroke="#191970" d="M379.1589,-181.0031C426.9385,-172.1253 505.8875,-157.1732 573.6495,-143 677.6267,-121.252 798.799,-93.3662 865.3857,-77.8216"/>
<polygon fill="#191970" stroke="#191970" points="866.2582,-81.2121 875.1991,-75.5277 864.6649,-74.3958 866.2582,-81.2121"/>
</g>
<!-- Node23&#45;&gt;Node11 -->
<g id="edge33" class="edge">
<title>Node23&#45;&gt;Node11</title>
<path fill="none" stroke="#191970" d="M335.6495,-179.3484C335.6495,-159.2295 335.6495,-112.4608 335.6495,-85.7098"/>
<polygon fill="#191970" stroke="#191970" points="339.1496,-85.6067 335.6495,-75.6068 332.1496,-85.6068 339.1496,-85.6067"/>
</g>
<!-- Node23&#45;&gt;Node15 -->
<g id="edge37" class="edge">
<title>Node23&#45;&gt;Node15</title>
<path fill="none" stroke="#191970" d="M311.5414,-179.4414C289.6496,-170.5723 256.6077,-156.711 228.6495,-143 187.8812,-123.0068 142.0769,-96.8925 114.5651,-80.793"/>
<polygon fill="#191970" stroke="#191970" points="116.0293,-77.5938 105.6349,-75.5425 112.4814,-83.6281 116.0293,-77.5938"/>
</g>
<!-- Node24&#45;&gt;Node1 -->
<g id="edge42" class="edge">
<title>Node24&#45;&gt;Node1</title>
<path fill="none" stroke="#191970" d="M1313.6495,-179.3906C1313.6495,-170.8657 1313.6495,-158.1392 1313.6495,-147.4235"/>
<polygon fill="#191970" stroke="#191970" points="1317.1496,-147.2448 1313.6495,-137.2449 1310.1496,-147.2449 1317.1496,-147.2448"/>
</g>
<!-- Node25 -->
<g id="node26" class="node">
<title>Node25</title>
<polygon fill="none" stroke="#bfbfbf" points="1380.6495,-118 1380.6495,-137 1418.6495,-137 1418.6495,-118 1380.6495,-118"/>
<text text-anchor="middle" x="1399.6495" y="-125" font-family="Helvetica,sans-Serif" font-size="10.00" fill="#000000">map</text>
</g>
<!-- Node24&#45;&gt;Node25 -->
<g id="edge40" class="edge">
<title>Node24&#45;&gt;Node25</title>
<path fill="none" stroke="#191970" d="M1327.087,-179.3906C1340.7191,-169.6421 1362.0341,-154.3994 1378.0418,-142.9521"/>
<polygon fill="#191970" stroke="#191970" points="1380.2081,-145.7057 1386.3064,-137.0419 1376.1363,-140.0118 1380.2081,-145.7057"/>
</g>
<!-- Node26 -->
<g id="node27" class="node">
<title>Node26</title>
<polygon fill="none" stroke="#bfbfbf" points="1437.1495,-118 1437.1495,-137 1484.1495,-137 1484.1495,-118 1437.1495,-118"/>
<text text-anchor="middle" x="1460.6495" y="-125" font-family="Helvetica,sans-Serif" font-size="10.00" fill="#000000">vector</text>
</g>
<!-- Node24&#45;&gt;Node26 -->
<g id="edge41" class="edge">
<title>Node24&#45;&gt;Node26</title>
<path fill="none" stroke="#191970" d="M1338.7229,-179.3456C1361.9326,-170.2995 1397.3283,-156.2262 1427.6495,-143 1428.9912,-142.4148 1430.3597,-141.8088 1431.7393,-141.1906"/>
<polygon fill="#191970" stroke="#191970" points="1433.203,-144.3699 1440.8374,-137.0237 1430.2882,-138.0056 1433.203,-144.3699"/>
</g>
<!-- Node27 -->
<g id="node28" class="node">
<title>Node27</title>
<g id="a_node28"><a xlink:href="../../d9/d80/InteractionRecord_8h.html" target="_top" xlink:title="CommonDataFormat/Interaction\lRecord.h">
<polygon fill="none" stroke="#000000" points="1072.6495,-112.5 1072.6495,-142.5 1246.6495,-142.5 1246.6495,-112.5 1072.6495,-112.5"/>
<text text-anchor="start" x="1080.6495" y="-130.5" font-family="Helvetica,sans-Serif" font-size="10.00" fill="#000000">CommonDataFormat/Interaction</text>
<text text-anchor="middle" x="1159.6495" y="-119.5" font-family="Helvetica,sans-Serif" font-size="10.00" fill="#000000">Record.h</text>
</a>
</g>
</g>
<!-- Node24&#45;&gt;Node27 -->
<g id="edge43" class="edge">
<title>Node24&#45;&gt;Node27</title>
<path fill="none" stroke="#191970" d="M1289.587,-179.3906C1267.4906,-170.5664 1234.1214,-157.2404 1206.7323,-146.3026"/>
<polygon fill="#191970" stroke="#191970" points="1207.9071,-143.003 1197.3221,-142.5446 1205.3109,-149.5038 1207.9071,-143.003"/>
</g>
<!-- Node31 -->
<g id="node32" class="node">
<title>Node31</title>
<polygon fill="none" stroke="#bfbfbf" points="1502.6495,-118 1502.6495,-137 1550.6495,-137 1550.6495,-118 1502.6495,-118"/>
<text text-anchor="middle" x="1526.6495" y="-125" font-family="Helvetica,sans-Serif" font-size="10.00" fill="#000000">TFile.h</text>
</g>
<!-- Node24&#45;&gt;Node31 -->
<g id="edge50" class="edge">
<title>Node24&#45;&gt;Node31</title>
<path fill="none" stroke="#191970" d="M1354.6997,-180.8274C1391.6185,-172.9341 1447.0508,-159.7282 1493.6495,-143 1495.2468,-142.4266 1496.8716,-141.8032 1498.5005,-141.1467"/>
<polygon fill="#191970" stroke="#191970" points="1499.9382,-144.3382 1507.7129,-137.1406 1497.1467,-137.9189 1499.9382,-144.3382"/>
</g>
<!-- Node27&#45;&gt;Node8 -->
<g id="edge48" class="edge">
<title>Node27&#45;&gt;Node8</title>
<path fill="none" stroke="#191970" d="M1151.4285,-112.4C1141.2637,-95.3988 1122.2502,-68.5183 1097.6495,-56 1052.8171,-33.1866 706.0628,-16.3881 593.0972,-11.475"/>
<polygon fill="#191970" stroke="#191970" points="593.0541,-7.97 582.9128,-11.0368 592.7531,-14.9635 593.0541,-7.97"/>
</g>
<!-- Node27&#45;&gt;Node10 -->
<g id="edge46" class="edge">
<title>Node27&#45;&gt;Node10</title>
<path fill="none" stroke="#191970" d="M1158.1113,-112.324C1155.5791,-95.7761 1148.9386,-69.8133 1131.6495,-56 1090.8255,-23.3833 934.2766,-13.738 863.6159,-11.015"/>
<polygon fill="#191970" stroke="#191970" points="863.5597,-7.5108 853.4401,-10.6482 863.3075,-14.5063 863.5597,-7.5108"/>
</g>
<!-- Node28 -->
<g id="node29" class="node">
<title>Node28</title>
<g id="a_node29"><a xlink:href="../../d2/d45/GPUCommonRtypes_8h.html" target="_top" xlink:title="GPUCommonRtypes.h">
<polygon fill="none" stroke="#000000" points="1184.1495,-56.5 1184.1495,-75.5 1309.1495,-75.5 1309.1495,-56.5 1184.1495,-56.5"/>
<text text-anchor="middle" x="1246.6495" y="-63.5" font-family="Helvetica,sans-Serif" font-size="10.00" fill="#000000">GPUCommonRtypes.h</text>
</a>
</g>
</g>
<!-- Node27&#45;&gt;Node28 -->
<g id="edge44" class="edge">
<title>Node27&#45;&gt;Node28</title>
<path fill="none" stroke="#191970" d="M1181.1551,-112.2977C1194.4464,-102.9022 1211.4552,-90.8787 1224.8083,-81.4395"/>
<polygon fill="#191970" stroke="#191970" points="1226.8341,-84.2937 1232.9795,-75.6633 1222.7934,-78.5776 1226.8341,-84.2937"/>
</g>
<!-- Node29 -->
<g id="node30" class="node">
<title>Node29</title>
<polygon fill="none" stroke="#bfbfbf" points="1327.1495,-56.5 1327.1495,-75.5 1374.1495,-75.5 1374.1495,-56.5 1327.1495,-56.5"/>
<text text-anchor="middle" x="1350.6495" y="-63.5" font-family="Helvetica,sans-Serif" font-size="10.00" fill="#000000">cmath</text>
</g>
<!-- Node27&#45;&gt;Node29 -->
<g id="edge47" class="edge">
<title>Node27&#45;&gt;Node29</title>
<path fill="none" stroke="#191970" d="M1206.3734,-112.4554C1240.7047,-101.4011 1286.5319,-86.6452 1317.2401,-76.7575"/>
<polygon fill="#191970" stroke="#191970" points="1318.5901,-79.9998 1327.0361,-73.6033 1316.4446,-73.3367 1318.5901,-79.9998"/>
</g>
<!-- Node30 -->
<g id="node31" class="node">
<title>Node30</title>
<g id="a_node31"><a xlink:href="../../d4/dc6/LHCConstants_8h.html" target="_top" xlink:title="Header to collect LHC related constants. ">
<polygon fill="none" stroke="#000000" points="1392.6495,-56.5 1392.6495,-75.5 1582.6495,-75.5 1582.6495,-56.5 1392.6495,-56.5"/>
<text text-anchor="middle" x="1487.6495" y="-63.5" font-family="Helvetica,sans-Serif" font-size="10.00" fill="#000000">CommonConstants/LHCConstants.h</text>
</a>
</g>
</g>
<!-- Node27&#45;&gt;Node30 -->
<g id="edge49" class="edge">
<title>Node27&#45;&gt;Node30</title>
<path fill="none" stroke="#191970" d="M1239.8873,-112.4554C1297.6154,-101.6314 1374.271,-87.2585 1426.9468,-77.3818"/>
<polygon fill="#191970" stroke="#191970" points="1427.6375,-80.8133 1436.8212,-75.5303 1426.3474,-73.9332 1427.6375,-80.8133"/>
</g>
<!-- Node28&#45;&gt;Node2 -->
<g id="edge45" class="edge">
<title>Node28&#45;&gt;Node2</title>
<path fill="none" stroke="#191970" d="M1277.9364,-56.3733C1308.6997,-46.9076 1355.7638,-32.4264 1389.1032,-22.1681"/>
<polygon fill="#191970" stroke="#191970" points="1390.4476,-25.4165 1398.976,-19.1303 1388.3889,-18.726 1390.4476,-25.4165"/>
</g>
</g>
</svg>
