<?xml version="1.0" encoding="UTF-8" standalone="no"?>
<!DOCTYPE svg PUBLIC "-//W3C//DTD SVG 1.1//EN"
 "http://www.w3.org/Graphics/SVG/1.1/DTD/svg11.dtd">
<!-- Generated by graphviz version 2.40.1 (20161225.0304)
 -->
<!-- Title: /home/travis/build/AliceO2Group/AliceO2/DataFormats/Headers/src/DataHeader.cxx Pages: 1 -->
<svg width="798pt" height="173pt"
 viewBox="0.00 0.00 797.50 173.00" xmlns="http://www.w3.org/2000/svg" xmlns:xlink="http://www.w3.org/1999/xlink">
<g id="graph0" class="graph" transform="scale(1 1) rotate(0) translate(4 169)">
<title>/home/travis/build/AliceO2Group/AliceO2/DataFormats/Headers/src/DataHeader.cxx</title>
<!-- Node0 -->
<g id="node1" class="node">
<title>Node0</title>
<polygon fill="#bfbfbf" stroke="#000000" points="242.5,-112.5 242.5,-164.5 385.5,-164.5 385.5,-112.5 242.5,-112.5"/>
<text text-anchor="start" x="250.5" y="-152.5" font-family="Helvetica,sans-Serif" font-size="10.00" fill="#000000">/home/travis/build</text>
<text text-anchor="start" x="250.5" y="-141.5" font-family="Helvetica,sans-Serif" font-size="10.00" fill="#000000">/AliceO2Group/AliceO2</text>
<text text-anchor="start" x="250.5" y="-130.5" font-family="Helvetica,sans-Serif" font-size="10.00" fill="#000000">/DataFormats/Headers/src</text>
<text text-anchor="middle" x="314" y="-119.5" font-family="Helvetica,sans-Serif" font-size="10.00" fill="#000000">/DataHeader.cxx</text>
</g>
<!-- Node1 -->
<g id="node2" class="node">
<title>Node1</title>
<g id="a_node2"><a xlink:href="../../dc/dcd/DataHeader_8h.html" target="_top" xlink:title="Headers/DataHeader.h">
<polygon fill="none" stroke="#000000" points="250.5,-56.5 250.5,-75.5 377.5,-75.5 377.5,-56.5 250.5,-56.5"/>
<text text-anchor="middle" x="314" y="-63.5" font-family="Helvetica,sans-Serif" font-size="10.00" fill="#000000">Headers/DataHeader.h</text>
</a>
</g>
</g>
<!-- Node0&#45;&gt;Node1 -->
<g id="edge1" class="edge">
<title>Node0&#45;&gt;Node1</title>
<path fill="none" stroke="#191970" d="M314,-112.3258C314,-103.5142 314,-93.8397 314,-85.621"/>
<polygon fill="#191970" stroke="#191970" points="317.5001,-85.534 314,-75.534 310.5001,-85.534 317.5001,-85.534"/>
</g>
<!-- Node5 -->
<g id="node6" class="node">
<title>Node5</title>
<polygon fill="none" stroke="#bfbfbf" points="0,-.5 0,-19.5 50,-19.5 50,-.5 0,-.5"/>
<text text-anchor="middle" x="25" y="-7.5" font-family="Helvetica,sans-Serif" font-size="10.00" fill="#000000">cstring</text>
</g>
<!-- Node0&#45;&gt;Node5 -->
<g id="edge13" class="edge">
<title>Node0&#45;&gt;Node5</title>
<path fill="none" stroke="#191970" d="M255.5165,-112.4961C195.1555,-85.6574 103.3103,-44.8196 55.829,-23.7077"/>
<polygon fill="#191970" stroke="#191970" points="56.9571,-20.379 46.3976,-19.5142 54.1131,-26.7752 56.9571,-20.379"/>
</g>
<!-- Node12 -->
<g id="node13" class="node">
<title>Node12</title>
<polygon fill="none" stroke="#bfbfbf" points="396,-56.5 396,-75.5 442,-75.5 442,-56.5 396,-56.5"/>
<text text-anchor="middle" x="419" y="-63.5" font-family="Helvetica,sans-Serif" font-size="10.00" fill="#000000">cstdio</text>
</g>
<!-- Node0&#45;&gt;Node12 -->
<g id="edge12" class="edge">
<title>Node0&#45;&gt;Node12</title>
<path fill="none" stroke="#191970" d="M351.9074,-112.3258C366.9895,-101.912 383.8168,-90.2931 396.8465,-81.2965"/>
<polygon fill="#191970" stroke="#191970" points="398.9518,-84.0961 405.1921,-75.534 394.9745,-78.3358 398.9518,-84.0961"/>
</g>
<!-- Node2 -->
<g id="node3" class="node">
<title>Node2</title>
<polygon fill="none" stroke="#bfbfbf" points="68,-.5 68,-19.5 118,-19.5 118,-.5 68,-.5"/>
<text text-anchor="middle" x="93" y="-7.5" font-family="Helvetica,sans-Serif" font-size="10.00" fill="#000000">cstdint</text>
</g>
<!-- Node1&#45;&gt;Node2 -->
<g id="edge2" class="edge">
<title>Node1&#45;&gt;Node2</title>
<path fill="none" stroke="#191970" d="M273.0079,-56.4752C237.1814,-48.0259 183.537,-35.0751 128.1981,-20.2442"/>
<polygon fill="#191970" stroke="#191970" points="128.7817,-16.7766 118.2154,-17.553 126.9596,-23.5353 128.7817,-16.7766"/>
</g>
<!-- Node3 -->
<g id="node4" class="node">
<title>Node3</title>
<polygon fill="none" stroke="#bfbfbf" points="136,-.5 136,-19.5 194,-19.5 194,-.5 136,-.5"/>
<text text-anchor="middle" x="165" y="-7.5" font-family="Helvetica,sans-Serif" font-size="10.00" fill="#000000">memory</text>
</g>
<!-- Node1&#45;&gt;Node3 -->
<g id="edge3" class="edge">
<title>Node1&#45;&gt;Node3</title>
<path fill="none" stroke="#191970" d="M288.386,-56.3733C263.9313,-47.1822 226.8946,-33.2624 199.7791,-23.0713"/>
<polygon fill="#191970" stroke="#191970" points="200.8719,-19.7431 190.2798,-19.5011 198.4091,-26.2956 200.8719,-19.7431"/>
</g>
<!-- Node4 -->
<g id="node5" class="node">
<title>Node4</title>
<polygon fill="none" stroke="#bfbfbf" points="212,-.5 212,-19.5 264,-19.5 264,-.5 212,-.5"/>
<text text-anchor="middle" x="238" y="-7.5" font-family="Helvetica,sans-Serif" font-size="10.00" fill="#000000">cassert</text>
</g>
<!-- Node1&#45;&gt;Node4 -->
<g id="edge4" class="edge">
<title>Node1&#45;&gt;Node4</title>
<path fill="none" stroke="#191970" d="M300.7618,-56.2455C289.319,-47.814 272.5704,-35.4729 259.2525,-25.6598"/>
<polygon fill="#191970" stroke="#191970" points="261.2133,-22.757 251.0865,-19.6427 257.0609,-28.3924 261.2133,-22.757"/>
</g>
<!-- Node1&#45;&gt;Node5 -->
<g id="edge5" class="edge">
<title>Node1&#45;&gt;Node5</title>
<path fill="none" stroke="#191970" d="M250.4707,-56.4876C200.9699,-48.6306 130.3692,-36.4541 60.0836,-20.0705"/>
<polygon fill="#191970" stroke="#191970" points="60.707,-16.6215 50.1704,-17.7308 59.099,-23.4344 60.707,-16.6215"/>
</g>
<!-- Node6 -->
<g id="node7" class="node">
<title>Node6</title>
<polygon fill="none" stroke="#bfbfbf" points="282,-.5 282,-19.5 346,-19.5 346,-.5 282,-.5"/>
<text text-anchor="middle" x="314" y="-7.5" font-family="Helvetica,sans-Serif" font-size="10.00" fill="#000000">algorithm</text>
</g>
<!-- Node1&#45;&gt;Node6 -->
<g id="edge6" class="edge">
<title>Node1&#45;&gt;Node6</title>
<path fill="none" stroke="#191970" d="M314,-56.2455C314,-48.9382 314,-38.6944 314,-29.7046"/>
<polygon fill="#191970" stroke="#191970" points="317.5001,-29.6426 314,-19.6427 310.5001,-29.6427 317.5001,-29.6426"/>
</g>
<!-- Node7 -->
<g id="node8" class="node">
<title>Node7</title>
<polygon fill="none" stroke="#bfbfbf" points="364.5,-.5 364.5,-19.5 429.5,-19.5 429.5,-.5 364.5,-.5"/>
<text text-anchor="middle" x="397" y="-7.5" font-family="Helvetica,sans-Serif" font-size="10.00" fill="#000000">stdexcept</text>
</g>
<!-- Node1&#45;&gt;Node7 -->
<g id="edge7" class="edge">
<title>Node1&#45;&gt;Node7</title>
<path fill="none" stroke="#191970" d="M328.4575,-56.2455C341.0732,-47.7337 359.5944,-35.2375 374.2045,-25.3801"/>
<polygon fill="#191970" stroke="#191970" points="376.3761,-28.1371 382.7082,-19.6427 372.4609,-22.3343 376.3761,-28.1371"/>
</g>
<!-- Node8 -->
<g id="node9" class="node">
<title>Node8</title>
<polygon fill="none" stroke="#bfbfbf" points="448,-.5 448,-19.5 492,-19.5 492,-.5 448,-.5"/>
<text text-anchor="middle" x="470" y="-7.5" font-family="Helvetica,sans-Serif" font-size="10.00" fill="#000000">string</text>
</g>
<!-- Node1&#45;&gt;Node8 -->
<g id="edge8" class="edge">
<title>Node1&#45;&gt;Node8</title>
<path fill="none" stroke="#191970" d="M340.8174,-56.3733C367.78,-46.6944 409.3515,-31.7712 438.0166,-21.4812"/>
<polygon fill="#191970" stroke="#191970" points="439.3431,-24.7238 447.5725,-18.0509 436.978,-18.1354 439.3431,-24.7238"/>
</g>
<!-- Node9 -->
<g id="node10" class="node">
<title>Node9</title>
<polygon fill="none" stroke="#bfbfbf" points="510,-.5 510,-19.5 560,-19.5 560,-.5 510,-.5"/>
<text text-anchor="middle" x="535" y="-7.5" font-family="Helvetica,sans-Serif" font-size="10.00" fill="#000000">climits</text>
</g>
<!-- Node1&#45;&gt;Node9 -->
<g id="edge9" class="edge">
<title>Node1&#45;&gt;Node9</title>
<path fill="none" stroke="#191970" d="M354.9921,-56.4752C390.8186,-48.0259 444.463,-35.0751 499.8019,-20.2442"/>
<polygon fill="#191970" stroke="#191970" points="501.0404,-23.5353 509.7846,-17.553 499.2183,-16.7766 501.0404,-23.5353"/>
</g>
<!-- Node10 -->
<g id="node11" class="node">
<title>Node10</title>
<g id="a_node11"><a xlink:href="../../d7/df8/Types_8h.html" target="_top" xlink:title="MemoryResources/Types.h">
<polygon fill="none" stroke="#000000" points="578,-.5 578,-19.5 724,-19.5 724,-.5 578,-.5"/>
<text text-anchor="middle" x="651" y="-7.5" font-family="Helvetica,sans-Serif" font-size="10.00" fill="#000000">MemoryResources/Types.h</text>
</a>
</g>
</g>
<!-- Node1&#45;&gt;Node10 -->
<g id="edge10" class="edge">
<title>Node1&#45;&gt;Node10</title>
<path fill="none" stroke="#191970" d="M371.5495,-56.4369C430.3149,-46.6717 521.4913,-31.5207 583.5966,-21.2006"/>
<polygon fill="#191970" stroke="#191970" points="584.3969,-24.6157 593.6879,-19.5237 583.2494,-17.7103 584.3969,-24.6157"/>
</g>
<!-- Node11 -->
<g id="node12" class="node">
<title>Node11</title>
<polygon fill="none" stroke="#bfbfbf" points="742.5,-.5 742.5,-19.5 789.5,-19.5 789.5,-.5 742.5,-.5"/>
<text text-anchor="middle" x="766" y="-7.5" font-family="Helvetica,sans-Serif" font-size="10.00" fill="#000000">cerrno</text>
</g>
<!-- Node1&#45;&gt;Node11 -->
<g id="edge11" class="edge">
<title>Node1&#45;&gt;Node11</title>
<path fill="none" stroke="#191970" d="M377.6856,-57.152C380.8338,-56.7535 383.952,-56.3672 387,-56 537.2,-37.9033 579.6306,-50.0111 732.138,-19.8091"/>
<polygon fill="#191970" stroke="#191970" points="733.2305,-23.1595 742.3449,-17.7577 731.8512,-16.2968 733.2305,-23.1595"/>
</g>
</g>
</svg>
