<?xml version="1.0" encoding="UTF-8" standalone="no"?>
<!DOCTYPE svg PUBLIC "-//W3C//DTD SVG 1.1//EN"
 "http://www.w3.org/Graphics/SVG/1.1/DTD/svg11.dtd">
<!-- Generated by graphviz version 2.40.1 (20161225.0304)
 -->
<!-- Title: /home/travis/build/AliceO2Group/AliceO2/Detectors/TRD/simulation/include/TRDSimulation/Detector.h Pages: 1 -->
<!--zoomable 428 -->
<svg id="main" version="1.1" xmlns="http://www.w3.org/2000/svg" xmlns:xlink="http://www.w3.org/1999/xlink" xml:space="preserve" onload="init(evt)">
<style type="text/css"><![CDATA[
.edge:hover path { stroke: red; }
.edge:hover polygon { stroke: red; fill: red; }
]]></style>
<script type="text/javascript"><![CDATA[
var edges = document.getElementsByTagName('g');
if (edges && edges.length) {
  for (var i=0;i<edges.length;i++) {
    if (edges[i].id.substr(0,4)=='edge') {
      edges[i].setAttribute('class','edge');
    }
  }
}
]]></script>
        <defs>
                <circle id="rim" cx="0" cy="0" r="7"/>
                <circle id="rim2" cx="0" cy="0" r="3.5"/>
                <g id="zoomPlus">
                        <use xlink:href="#rim" fill="#404040">
                                <set attributeName="fill" to="#808080" begin="zoomplus.mouseover" end="zoomplus.mouseout"/>
                        </use>
                        <path d="M-4,0h8M0,-4v8" fill="none" stroke="white" stroke-width="1.5" pointer-events="none"/>
                </g>
                <g id="zoomMin">
                        <use xlink:href="#rim" fill="#404040">
                                <set attributeName="fill" to="#808080" begin="zoomminus.mouseover" end="zoomminus.mouseout"/>
                        </use>
                        <path d="M-4,0h8" fill="none" stroke="white" stroke-width="1.5" pointer-events="none"/>
                </g>
                <g id="dirArrow">
                        <path fill="none" stroke="white" stroke-width="1.5" d="M0,-3.0v7 M-2.5,-0.5L0,-3.0L2.5,-0.5"/>
                </g>
               <g id="resetDef">
                       <use xlink:href="#rim2" fill="#404040">
                               <set attributeName="fill" to="#808080" begin="reset.mouseover" end="reset.mouseout"/>
                       </use>
               </g>
        </defs>

<script type="text/javascript">
var viewWidth = 1075;
var viewHeight = 428;
var sectionId = 'dynsection-1';
</script>
<script xlink:href="../../svgpan.js"/>
<svg id="graph" class="graph">
<g id="viewport">
<title>/home/travis/build/AliceO2Group/AliceO2/Detectors/TRD/simulation/include/TRDSimulation/Detector.h</title>
<!-- Node37 -->
<g id="node1" class="node">
<title>Node37</title>
<polygon fill="#bfbfbf" stroke="#000000" points="613.0878,-367.5 613.0878,-419.5 797.0878,-419.5 797.0878,-367.5 613.0878,-367.5"/>
<text text-anchor="start" x="621.0878" y="-407.5" font-family="Helvetica,sans-Serif" font-size="10.00" fill="#000000">/home/travis/build</text>
<text text-anchor="start" x="621.0878" y="-396.5" font-family="Helvetica,sans-Serif" font-size="10.00" fill="#000000">/AliceO2Group/AliceO2</text>
<text text-anchor="start" x="621.0878" y="-385.5" font-family="Helvetica,sans-Serif" font-size="10.00" fill="#000000">/Detectors/TRD/simulation</text>
<text text-anchor="middle" x="705.0878" y="-374.5" font-family="Helvetica,sans-Serif" font-size="10.00" fill="#000000">/include/TRDSimulation/Detector.h</text>
</g>
<!-- Node38 -->
<g id="node2" class="node">
<title>Node38</title>
<g id="a_node2"><a xlink:href="../../d4/dae/TRD_2simulation_2include_2TRDSimulation_2Digitizer_8h.html" target="_top" xlink:title="/home/travis/build\l/AliceO2Group/AliceO2\l/Detectors/TRD/simulation\l/include/TRDSimulation/Digitizer.h">
<polygon fill="none" stroke="#000000" points="307.5878,-278.5 307.5878,-330.5 490.5878,-330.5 490.5878,-278.5 307.5878,-278.5"/>
<text text-anchor="start" x="315.5878" y="-318.5" font-family="Helvetica,sans-Serif" font-size="10.00" fill="#000000">/home/travis/build</text>
<text text-anchor="start" x="315.5878" y="-307.5" font-family="Helvetica,sans-Serif" font-size="10.00" fill="#000000">/AliceO2Group/AliceO2</text>
<text text-anchor="start" x="315.5878" y="-296.5" font-family="Helvetica,sans-Serif" font-size="10.00" fill="#000000">/Detectors/TRD/simulation</text>
<text text-anchor="middle" x="399.0878" y="-285.5" font-family="Helvetica,sans-Serif" font-size="10.00" fill="#000000">/include/TRDSimulation/Digitizer.h</text>
</a>
</g>
</g>
<!-- Node37&#45;&gt;Node38 -->
<g id="edge1" class="edge">
<title>Node37&#45;&gt;Node38</title>
<path fill="none" stroke="#191970" d="M605.3823,-364.5007C567.7503,-353.5554 525.2027,-341.1805 488.5643,-330.5242"/>
<polygon fill="#191970" stroke="#191970" points="604.7657,-367.9663 615.3453,-367.3984 606.7207,-361.2448 604.7657,-367.9663"/>
</g>
<!-- Node43 -->
<g id="node7" class="node">
<title>Node43</title>
<g id="a_node7"><a xlink:href="../../dd/de7/TRDTrapSimulatorSpec_8cxx.html" target="_top" xlink:title="/home/travis/build\l/AliceO2Group/AliceO2\l/Detectors/TRD/workflow\l/src/TRDTrapSimulatorSpec.cxx">
<polygon fill="none" stroke="#000000" points="154.0878,-.5 154.0878,-52.5 322.0878,-52.5 322.0878,-.5 154.0878,-.5"/>
<text text-anchor="start" x="162.0878" y="-40.5" font-family="Helvetica,sans-Serif" font-size="10.00" fill="#000000">/home/travis/build</text>
<text text-anchor="start" x="162.0878" y="-29.5" font-family="Helvetica,sans-Serif" font-size="10.00" fill="#000000">/AliceO2Group/AliceO2</text>
<text text-anchor="start" x="162.0878" y="-18.5" font-family="Helvetica,sans-Serif" font-size="10.00" fill="#000000">/Detectors/TRD/workflow</text>
<text text-anchor="middle" x="238.0878" y="-7.5" font-family="Helvetica,sans-Serif" font-size="10.00" fill="#000000">/src/TRDTrapSimulatorSpec.cxx</text>
</a>
</g>
</g>
<!-- Node37&#45;&gt;Node43 -->
<g id="edge19" class="edge">
<title>Node37&#45;&gt;Node43</title>
<path fill="none" stroke="#191970" d="M602.8902,-387.0901C427.8711,-373.6671 82.9149,-335.6967 14.0878,-242 -42.8582,-164.4774 88.0969,-90.4327 172.8946,-52.607"/>
<polygon fill="#191970" stroke="#191970" points="602.6525,-390.582 612.8875,-387.8443 603.1792,-383.6019 602.6525,-390.582"/>
</g>
<!-- Node46 -->
<g id="node10" class="node">
<title>Node46</title>
<g id="a_node10"><a xlink:href="../../d7/da6/TRDDigitReaderSpec_8cxx.html" target="_top" xlink:title="/home/travis/build\l/AliceO2Group/AliceO2\l/Detectors/TRD/workflow\l/src/TRDDigitReaderSpec.cxx">
<polygon fill="none" stroke="#000000" points="791.0878,-95 791.0878,-147 949.0878,-147 949.0878,-95 791.0878,-95"/>
<text text-anchor="start" x="799.0878" y="-135" font-family="Helvetica,sans-Serif" font-size="10.00" fill="#000000">/home/travis/build</text>
<text text-anchor="start" x="799.0878" y="-124" font-family="Helvetica,sans-Serif" font-size="10.00" fill="#000000">/AliceO2Group/AliceO2</text>
<text text-anchor="start" x="799.0878" y="-113" font-family="Helvetica,sans-Serif" font-size="10.00" fill="#000000">/Detectors/TRD/workflow</text>
<text text-anchor="middle" x="870.0878" y="-102" font-family="Helvetica,sans-Serif" font-size="10.00" fill="#000000">/src/TRDDigitReaderSpec.cxx</text>
</a>
</g>
</g>
<!-- Node37&#45;&gt;Node46 -->
<g id="edge18" class="edge">
<title>Node37&#45;&gt;Node46</title>
<path fill="none" stroke="#191970" d="M716.0939,-357.7808C724.0086,-334.3452 735.7869,-303.4432 750.0878,-278 777.9919,-228.3551 820.1644,-177.0794 846.3681,-147.1622"/>
<polygon fill="#191970" stroke="#191970" points="712.7528,-356.7367 712.9423,-367.3298 719.4001,-358.9306 712.7528,-356.7367"/>
</g>
<!-- Node48 -->
<g id="node12" class="node">
<title>Node48</title>
<g id="a_node12"><a xlink:href="../../d6/df2/TRDDigitizerSpec_8cxx.html" target="_top" xlink:title="/home/travis/build\l/AliceO2Group/AliceO2\l/Detectors/TRD/workflow\l/src/TRDDigitizerSpec.cxx">
<polygon fill="none" stroke="#000000" points="560.0878,-189.5 560.0878,-241.5 702.0878,-241.5 702.0878,-189.5 560.0878,-189.5"/>
<text text-anchor="start" x="568.0878" y="-229.5" font-family="Helvetica,sans-Serif" font-size="10.00" fill="#000000">/home/travis/build</text>
<text text-anchor="start" x="568.0878" y="-218.5" font-family="Helvetica,sans-Serif" font-size="10.00" fill="#000000">/AliceO2Group/AliceO2</text>
<text text-anchor="start" x="568.0878" y="-207.5" font-family="Helvetica,sans-Serif" font-size="10.00" fill="#000000">/Detectors/TRD/workflow</text>
<text text-anchor="middle" x="631.0878" y="-196.5" font-family="Helvetica,sans-Serif" font-size="10.00" fill="#000000">/src/TRDDigitizerSpec.cxx</text>
</a>
</g>
</g>
<!-- Node37&#45;&gt;Node48 -->
<g id="edge17" class="edge">
<title>Node37&#45;&gt;Node48</title>
<path fill="none" stroke="#191970" d="M690.1553,-357.5812C675.8696,-323.2182 654.6681,-272.2201 641.931,-241.5823"/>
<polygon fill="#191970" stroke="#191970" points="687.0982,-359.3452 694.1689,-367.2355 693.5619,-356.658 687.0982,-359.3452"/>
</g>
<!-- Node49 -->
<g id="node13" class="node">
<title>Node49</title>
<g id="a_node13"><a xlink:href="../../da/d16/TRD_2simulation_2src_2Detector_8cxx.html" target="_top" xlink:title="/home/travis/build\l/AliceO2Group/AliceO2\l/Detectors/TRD/simulation\l/src/Detector.cxx">
<polygon fill="none" stroke="#000000" points="758.5878,-278.5 758.5878,-330.5 903.5878,-330.5 903.5878,-278.5 758.5878,-278.5"/>
<text text-anchor="start" x="766.5878" y="-318.5" font-family="Helvetica,sans-Serif" font-size="10.00" fill="#000000">/home/travis/build</text>
<text text-anchor="start" x="766.5878" y="-307.5" font-family="Helvetica,sans-Serif" font-size="10.00" fill="#000000">/AliceO2Group/AliceO2</text>
<text text-anchor="start" x="766.5878" y="-296.5" font-family="Helvetica,sans-Serif" font-size="10.00" fill="#000000">/Detectors/TRD/simulation</text>
<text text-anchor="middle" x="831.0878" y="-285.5" font-family="Helvetica,sans-Serif" font-size="10.00" fill="#000000">/src/Detector.cxx</text>
</a>
</g>
</g>
<!-- Node37&#45;&gt;Node49 -->
<g id="edge16" class="edge">
<title>Node37&#45;&gt;Node49</title>
<path fill="none" stroke="#191970" d="M750.4888,-361.431C764.852,-351.2856 780.5421,-340.203 794.2305,-330.5341"/>
<polygon fill="#191970" stroke="#191970" points="748.3591,-358.6503 742.2105,-367.2784 752.3977,-364.3678 748.3591,-358.6503"/>
</g>
<!-- Node50 -->
<g id="node14" class="node">
<title>Node50</title>
<g id="a_node14"><a xlink:href="../../db/d50/O2HitMerger_8h.html" target="_top" xlink:title="/home/travis/build\l/AliceO2Group/AliceO2\l/run/O2HitMerger.h">
<polygon fill="none" stroke="#000000" points="921.5878,-284 921.5878,-325 1048.5878,-325 1048.5878,-284 921.5878,-284"/>
<text text-anchor="start" x="929.5878" y="-313" font-family="Helvetica,sans-Serif" font-size="10.00" fill="#000000">/home/travis/build</text>
<text text-anchor="start" x="929.5878" y="-302" font-family="Helvetica,sans-Serif" font-size="10.00" fill="#000000">/AliceO2Group/AliceO2</text>
<text text-anchor="middle" x="985.0878" y="-291" font-family="Helvetica,sans-Serif" font-size="10.00" fill="#000000">/run/O2HitMerger.h</text>
</a>
</g>
</g>
<!-- Node37&#45;&gt;Node50 -->
<g id="edge20" class="edge">
<title>Node37&#45;&gt;Node50</title>
<path fill="none" stroke="#191970" d="M806.0547,-364.5043C840.1854,-354.3466 878.4204,-342.5763 913.0878,-331 918.6468,-329.1437 924.4218,-327.1427 930.1744,-325.1015"/>
<polygon fill="#191970" stroke="#191970" points="804.6671,-361.2651 796.0747,-367.4635 806.6571,-367.9763 804.6671,-361.2651"/>
</g>
<!-- Node39 -->
<g id="node3" class="node">
<title>Node39</title>
<g id="a_node3"><a xlink:href="../../d7/d42/TrapSimulator_8h.html" target="_top" xlink:title="/home/travis/build\l/AliceO2Group/AliceO2\l/Detectors/TRD/simulation\l/include/TRDSimulation/TrapSimulator.h">
<polygon fill="none" stroke="#000000" points="294.5878,-189.5 294.5878,-241.5 503.5878,-241.5 503.5878,-189.5 294.5878,-189.5"/>
<text text-anchor="start" x="302.5878" y="-229.5" font-family="Helvetica,sans-Serif" font-size="10.00" fill="#000000">/home/travis/build</text>
<text text-anchor="start" x="302.5878" y="-218.5" font-family="Helvetica,sans-Serif" font-size="10.00" fill="#000000">/AliceO2Group/AliceO2</text>
<text text-anchor="start" x="302.5878" y="-207.5" font-family="Helvetica,sans-Serif" font-size="10.00" fill="#000000">/Detectors/TRD/simulation</text>
<text text-anchor="middle" x="399.0878" y="-196.5" font-family="Helvetica,sans-Serif" font-size="10.00" fill="#000000">/include/TRDSimulation/TrapSimulator.h</text>
</a>
</g>
</g>
<!-- Node38&#45;&gt;Node39 -->
<g id="edge2" class="edge">
<title>Node38&#45;&gt;Node39</title>
<path fill="none" stroke="#191970" d="M399.0878,-268.1155C399.0878,-259.2061 399.0878,-249.8475 399.0878,-241.5341"/>
<polygon fill="#191970" stroke="#191970" points="395.5879,-268.2784 399.0878,-278.2784 402.5879,-268.2785 395.5879,-268.2784"/>
</g>
<!-- Node41 -->
<g id="node5" class="node">
<title>Node41</title>
<g id="a_node5"><a xlink:href="../../da/deb/TrapSimulator_8cxx.html" target="_top" xlink:title="/home/travis/build\l/AliceO2Group/AliceO2\l/Detectors/TRD/simulation\l/src/TrapSimulator.cxx">
<polygon fill="none" stroke="#000000" points="193.5878,-95 193.5878,-147 338.5878,-147 338.5878,-95 193.5878,-95"/>
<text text-anchor="start" x="201.5878" y="-135" font-family="Helvetica,sans-Serif" font-size="10.00" fill="#000000">/home/travis/build</text>
<text text-anchor="start" x="201.5878" y="-124" font-family="Helvetica,sans-Serif" font-size="10.00" fill="#000000">/AliceO2Group/AliceO2</text>
<text text-anchor="start" x="201.5878" y="-113" font-family="Helvetica,sans-Serif" font-size="10.00" fill="#000000">/Detectors/TRD/simulation</text>
<text text-anchor="middle" x="266.0878" y="-102" font-family="Helvetica,sans-Serif" font-size="10.00" fill="#000000">/src/TrapSimulator.cxx</text>
</a>
</g>
</g>
<!-- Node38&#45;&gt;Node41 -->
<g id="edge12" class="edge">
<title>Node38&#45;&gt;Node41</title>
<path fill="none" stroke="#191970" d="M319.2719,-273.236C306.1227,-264.8802 293.9233,-254.5738 285.0878,-242 265.4045,-213.9885 262.9642,-173.3519 263.8636,-147.0494"/>
<polygon fill="#191970" stroke="#191970" points="317.6416,-276.3387 328.0241,-278.4495 321.224,-270.3248 317.6416,-276.3387"/>
</g>
<!-- Node38&#45;&gt;Node43 -->
<g id="edge15" class="edge">
<title>Node38&#45;&gt;Node43</title>
<path fill="none" stroke="#191970" d="M316.1034,-274.1741C265.2946,-250.2678 205.9588,-211.1384 184.0878,-153 174.0726,-126.3771 174.1666,-115.6581 184.0878,-89 189.1395,-75.4264 198.6104,-62.8348 208.2272,-52.5631"/>
<polygon fill="#191970" stroke="#191970" points="314.9306,-277.4863 325.4804,-278.4619 317.8416,-271.1203 314.9306,-277.4863"/>
</g>
<!-- Node38&#45;&gt;Node46 -->
<g id="edge14" class="edge">
<title>Node38&#45;&gt;Node46</title>
<path fill="none" stroke="#191970" d="M466.183,-273.6135C482.1233,-264.6429 498.4454,-253.9851 512.0878,-242 534.0592,-222.6979 526.0868,-204.1742 551.0878,-189 639.9133,-135.0882 681.4556,-178.8764 782.0878,-153 788.7005,-151.2996 795.512,-149.2959 802.2791,-147.134"/>
<polygon fill="#191970" stroke="#191970" points="464.4825,-270.5542 457.386,-278.4213 467.8396,-276.6967 464.4825,-270.5542"/>
</g>
<!-- Node47 -->
<g id="node11" class="node">
<title>Node47</title>
<g id="a_node11"><a xlink:href="../../d7/d40/TRD_2simulation_2src_2Digitizer_8cxx.html" target="_top" xlink:title="/home/travis/build\l/AliceO2Group/AliceO2\l/Detectors/TRD/simulation\l/src/Digitizer.cxx">
<polygon fill="none" stroke="#000000" points="23.5878,-189.5 23.5878,-241.5 168.5878,-241.5 168.5878,-189.5 23.5878,-189.5"/>
<text text-anchor="start" x="31.5878" y="-229.5" font-family="Helvetica,sans-Serif" font-size="10.00" fill="#000000">/home/travis/build</text>
<text text-anchor="start" x="31.5878" y="-218.5" font-family="Helvetica,sans-Serif" font-size="10.00" fill="#000000">/AliceO2Group/AliceO2</text>
<text text-anchor="start" x="31.5878" y="-207.5" font-family="Helvetica,sans-Serif" font-size="10.00" fill="#000000">/Detectors/TRD/simulation</text>
<text text-anchor="middle" x="96.0878" y="-196.5" font-family="Helvetica,sans-Serif" font-size="10.00" fill="#000000">/src/Digitizer.cxx</text>
</a>
</g>
</g>
<!-- Node38&#45;&gt;Node47 -->
<g id="edge11" class="edge">
<title>Node38&#45;&gt;Node47</title>
<path fill="none" stroke="#191970" d="M298.4679,-275.7021C262.0822,-265.2048 220.7046,-253.1706 183.0878,-242 178.3957,-240.6066 173.5641,-239.1621 168.6958,-237.6993"/>
<polygon fill="#191970" stroke="#191970" points="297.5183,-279.0708 308.0965,-278.4777 299.4572,-272.3447 297.5183,-279.0708"/>
</g>
<!-- Node38&#45;&gt;Node48 -->
<g id="edge13" class="edge">
<title>Node38&#45;&gt;Node48</title>
<path fill="none" stroke="#191970" d="M476.4867,-274.8082C504.499,-264.0621 535.9009,-252.0157 563.049,-241.6011"/>
<polygon fill="#191970" stroke="#191970" points="475.2109,-271.5489 467.1279,-278.3984 477.7181,-278.0845 475.2109,-271.5489"/>
</g>
<!-- Node40 -->
<g id="node4" class="node">
<title>Node40</title>
<g id="a_node4"><a xlink:href="../../db/dc3/TrapConfigHandler_8cxx.html" target="_top" xlink:title="/home/travis/build\l/AliceO2Group/AliceO2\l/Detectors/TRD/simulation\l/src/TrapConfigHandler.cxx">
<polygon fill="none" stroke="#000000" points="627.0878,-95 627.0878,-147 773.0878,-147 773.0878,-95 627.0878,-95"/>
<text text-anchor="start" x="635.0878" y="-135" font-family="Helvetica,sans-Serif" font-size="10.00" fill="#000000">/home/travis/build</text>
<text text-anchor="start" x="635.0878" y="-124" font-family="Helvetica,sans-Serif" font-size="10.00" fill="#000000">/AliceO2Group/AliceO2</text>
<text text-anchor="start" x="635.0878" y="-113" font-family="Helvetica,sans-Serif" font-size="10.00" fill="#000000">/Detectors/TRD/simulation</text>
<text text-anchor="middle" x="700.0878" y="-102" font-family="Helvetica,sans-Serif" font-size="10.00" fill="#000000">/src/TrapConfigHandler.cxx</text>
</a>
</g>
</g>
<!-- Node39&#45;&gt;Node40 -->
<g id="edge3" class="edge">
<title>Node39&#45;&gt;Node40</title>
<path fill="none" stroke="#191970" d="M507.6893,-186.6854C543.1054,-176.7098 582.4692,-165.0029 618.0878,-153 623.5908,-151.1456 629.2669,-149.1366 634.9434,-147.0598"/>
<polygon fill="#191970" stroke="#191970" points="506.4968,-183.3846 497.8113,-189.4519 508.3847,-190.1253 506.4968,-183.3846"/>
</g>
<!-- Node39&#45;&gt;Node41 -->
<g id="edge4" class="edge">
<title>Node39&#45;&gt;Node41</title>
<path fill="none" stroke="#191970" d="M353.9453,-183.425C337.3991,-171.6685 318.8792,-158.5097 303.1247,-147.3157"/>
<polygon fill="#191970" stroke="#191970" points="352.2139,-186.4883 362.3929,-189.4273 356.2684,-180.7821 352.2139,-186.4883"/>
</g>
<!-- Node42 -->
<g id="node6" class="node">
<title>Node42</title>
<g id="a_node6"><a xlink:href="../../dc/d96/TRDTrapSimulatorSpec_8h.html" target="_top" xlink:title="/home/travis/build\l/AliceO2Group/AliceO2\l/Detectors/TRD/workflow\l/include/TRDWorkflow/TRDTrapSimulator\lSpec.h">
<polygon fill="none" stroke="#000000" points="395.0878,-89.5 395.0878,-152.5 609.0878,-152.5 609.0878,-89.5 395.0878,-89.5"/>
<text text-anchor="start" x="403.0878" y="-140.5" font-family="Helvetica,sans-Serif" font-size="10.00" fill="#000000">/home/travis/build</text>
<text text-anchor="start" x="403.0878" y="-129.5" font-family="Helvetica,sans-Serif" font-size="10.00" fill="#000000">/AliceO2Group/AliceO2</text>
<text text-anchor="start" x="403.0878" y="-118.5" font-family="Helvetica,sans-Serif" font-size="10.00" fill="#000000">/Detectors/TRD/workflow</text>
<text text-anchor="start" x="403.0878" y="-107.5" font-family="Helvetica,sans-Serif" font-size="10.00" fill="#000000">/include/TRDWorkflow/TRDTrapSimulator</text>
<text text-anchor="middle" x="502.0878" y="-96.5" font-family="Helvetica,sans-Serif" font-size="10.00" fill="#000000">Spec.h</text>
</a>
</g>
</g>
<!-- Node39&#45;&gt;Node42 -->
<g id="edge5" class="edge">
<title>Node39&#45;&gt;Node42</title>
<path fill="none" stroke="#191970" d="M434.991,-182.5597C445.5446,-172.877 457.0631,-162.3091 467.5307,-152.7054"/>
<polygon fill="#191970" stroke="#191970" points="432.5081,-180.0878 427.5057,-189.4273 437.2405,-185.2458 432.5081,-180.0878"/>
</g>
<!-- Node39&#45;&gt;Node43 -->
<g id="edge10" class="edge">
<title>Node39&#45;&gt;Node43</title>
<path fill="none" stroke="#191970" d="M391.0396,-179.3625C383.4558,-152.0174 369.7895,-114.8789 347.0878,-89 334.1412,-74.2414 316.8257,-62.1352 299.8133,-52.6405"/>
<polygon fill="#191970" stroke="#191970" points="387.7291,-180.5364 393.6545,-189.3193 394.4995,-178.7583 387.7291,-180.5364"/>
</g>
<!-- Node39&#45;&gt;Node46 -->
<g id="edge9" class="edge">
<title>Node39&#45;&gt;Node46</title>
<path fill="none" stroke="#191970" d="M513.6669,-189.8037C515.1488,-189.5306 516.623,-189.2625 518.0878,-189 634.6502,-168.1117 667.1235,-181.3957 782.0878,-153 788.8742,-151.3238 795.8636,-149.3079 802.7963,-147.1136"/>
<polygon fill="#191970" stroke="#191970" points="512.9658,-186.3742 503.7922,-191.6747 514.2689,-193.2519 512.9658,-186.3742"/>
</g>
<!-- Node42&#45;&gt;Node43 -->
<g id="edge6" class="edge">
<title>Node42&#45;&gt;Node43</title>
<path fill="none" stroke="#191970" d="M404.3084,-85.9994C373.3785,-74.9279 339.7561,-62.8926 310.8951,-52.5617"/>
<polygon fill="#191970" stroke="#191970" points="403.2181,-89.3265 413.8126,-89.4015 405.5772,-82.736 403.2181,-89.3265"/>
</g>
<!-- Node44 -->
<g id="node8" class="node">
<title>Node44</title>
<g id="a_node8"><a xlink:href="../../d2/dc0/TRDTrapSimulatorWorkFlow_8cxx.html" target="_top" xlink:title="/home/travis/build\l/AliceO2Group/AliceO2\l/Detectors/TRD/workflow\l/src/TRDTrapSimulatorWorkFlow.cxx">
<polygon fill="none" stroke="#000000" points="571.5878,-.5 571.5878,-52.5 762.5878,-52.5 762.5878,-.5 571.5878,-.5"/>
<text text-anchor="start" x="579.5878" y="-40.5" font-family="Helvetica,sans-Serif" font-size="10.00" fill="#000000">/home/travis/build</text>
<text text-anchor="start" x="579.5878" y="-29.5" font-family="Helvetica,sans-Serif" font-size="10.00" fill="#000000">/AliceO2Group/AliceO2</text>
<text text-anchor="start" x="579.5878" y="-18.5" font-family="Helvetica,sans-Serif" font-size="10.00" fill="#000000">/Detectors/TRD/workflow</text>
<text text-anchor="middle" x="667.0878" y="-7.5" font-family="Helvetica,sans-Serif" font-size="10.00" fill="#000000">/src/TRDTrapSimulatorWorkFlow.cxx</text>
</a>
</g>
</g>
<!-- Node42&#45;&gt;Node44 -->
<g id="edge7" class="edge">
<title>Node42&#45;&gt;Node44</title>
<path fill="none" stroke="#191970" d="M566.3938,-84.1703C584.7744,-73.6431 604.4232,-62.3898 621.4393,-52.6442"/>
<polygon fill="#191970" stroke="#191970" points="564.4276,-81.2629 557.4895,-89.27 567.9065,-87.3372 564.4276,-81.2629"/>
</g>
<!-- Node45 -->
<g id="node9" class="node">
<title>Node45</title>
<g id="a_node9"><a xlink:href="../../d2/dd7/SimpleDigitizerWorkflow_8cxx.html" target="_top" xlink:title="/home/travis/build\l/AliceO2Group/AliceO2\l/Steer/DigitizerWorkflow\l/src/SimpleDigitizerWorkflow.cxx">
<polygon fill="none" stroke="#000000" points="377.0878,-.5 377.0878,-52.5 553.0878,-52.5 553.0878,-.5 377.0878,-.5"/>
<text text-anchor="start" x="385.0878" y="-40.5" font-family="Helvetica,sans-Serif" font-size="10.00" fill="#000000">/home/travis/build</text>
<text text-anchor="start" x="385.0878" y="-29.5" font-family="Helvetica,sans-Serif" font-size="10.00" fill="#000000">/AliceO2Group/AliceO2</text>
<text text-anchor="start" x="385.0878" y="-18.5" font-family="Helvetica,sans-Serif" font-size="10.00" fill="#000000">/Steer/DigitizerWorkflow</text>
<text text-anchor="middle" x="465.0878" y="-7.5" font-family="Helvetica,sans-Serif" font-size="10.00" fill="#000000">/src/SimpleDigitizerWorkflow.cxx</text>
</a>
</g>
</g>
<!-- Node42&#45;&gt;Node45 -->
<g id="edge8" class="edge">
<title>Node42&#45;&gt;Node45</title>
<path fill="none" stroke="#191970" d="M485.9679,-79.8289C482.3553,-70.6021 478.6196,-61.0608 475.3242,-52.6442"/>
<polygon fill="#191970" stroke="#191970" points="482.7594,-81.2343 489.6644,-89.27 489.2776,-78.6822 482.7594,-81.2343"/>
</g>
<!-- Node50&#45;&gt;Node50 -->
<g id="edge21" class="edge">
<title>Node50&#45;&gt;Node50</title>
<path fill="none" stroke="#191970" d="M1058.2636,-316.5715C1063.433,-313.8251 1066.5878,-309.8013 1066.5878,-304.5 1066.5878,-296.4219 1059.2623,-291.3099 1048.6459,-289.1642"/>
<polygon fill="#191970" stroke="#191970" points="1056.9904,-313.3075 1048.6459,-319.8358 1059.2403,-319.9361 1056.9904,-313.3075"/>
</g>
<!-- Node51 -->
<g id="node15" class="node">
<title>Node51</title>
<g id="a_node15"><a xlink:href="../../d9/d16/O2HitMergerRunner_8cxx.html" target="_top" xlink:title="/home/travis/build\l/AliceO2Group/AliceO2\l/run/O2HitMergerRunner.cxx">
<polygon fill="none" stroke="#000000" points="908.5878,-195 908.5878,-236 1061.5878,-236 1061.5878,-195 908.5878,-195"/>
<text text-anchor="start" x="916.5878" y="-224" font-family="Helvetica,sans-Serif" font-size="10.00" fill="#000000">/home/travis/build</text>
<text text-anchor="start" x="916.5878" y="-213" font-family="Helvetica,sans-Serif" font-size="10.00" fill="#000000">/AliceO2Group/AliceO2</text>
<text text-anchor="middle" x="985.0878" y="-202" font-family="Helvetica,sans-Serif" font-size="10.00" fill="#000000">/run/O2HitMergerRunner.cxx</text>
</a>
</g>
</g>
<!-- Node50&#45;&gt;Node51 -->
<g id="edge22" class="edge">
<title>Node50&#45;&gt;Node51</title>
<path fill="none" stroke="#191970" d="M985.0878,-273.844C985.0878,-261.3522 985.0878,-247.2439 985.0878,-236.0301"/>
<polygon fill="#191970" stroke="#191970" points="981.5879,-273.8579 985.0878,-283.8579 988.5879,-273.8579 981.5879,-273.8579"/>
</g>
</g>
</svg>
        <g id="navigator" transform="translate(0 0)" fill="#404254">
                <rect fill="#f2f5e9" fill-opacity="0.5" stroke="#606060" stroke-width=".5" x="0" y="0" width="60" height="60"/>
                <use id="zoomplus" xlink:href="#zoomPlus" x="17" y="9" onmousedown="handleZoom(evt,'in')"/>
                <use id="zoomminus" xlink:href="#zoomMin" x="42" y="9" onmousedown="handleZoom(evt,'out')"/>
                <use id="reset" xlink:href="#resetDef" x="30" y="36" onmousedown="handleReset()"/>
                <g id="arrowUp" xlink:href="#dirArrow" transform="translate(30 24)" onmousedown="handlePan(0,-1)">
                  <use xlink:href="#rim" fill="#404040">
                        <set attributeName="fill" to="#808080" begin="arrowUp.mouseover" end="arrowUp.mouseout"/>
                  </use>
                  <path fill="none" stroke="white" stroke-width="1.5" d="M0,-3.0v7 M-2.5,-0.5L0,-3.0L2.5,-0.5"/>
                </g>
                <g id="arrowRight" xlink:href="#dirArrow" transform="rotate(90) translate(36 -43)" onmousedown="handlePan(1,0)">
                  <use xlink:href="#rim" fill="#404040">
                        <set attributeName="fill" to="#808080" begin="arrowRight.mouseover" end="arrowRight.mouseout"/>
                  </use>
                  <path fill="none" stroke="white" stroke-width="1.5" d="M0,-3.0v7 M-2.5,-0.5L0,-3.0L2.5,-0.5"/>
                </g>
                <g id="arrowDown" xlink:href="#dirArrow" transform="rotate(180) translate(-30 -48)" onmousedown="handlePan(0,1)">
                  <use xlink:href="#rim" fill="#404040">
                        <set attributeName="fill" to="#808080" begin="arrowDown.mouseover" end="arrowDown.mouseout"/>
                  </use>
                  <path fill="none" stroke="white" stroke-width="1.5" d="M0,-3.0v7 M-2.5,-0.5L0,-3.0L2.5,-0.5"/>
                </g>
                <g id="arrowLeft" xlink:href="#dirArrow" transform="rotate(270) translate(-36 17)" onmousedown="handlePan(-1,0)">
                  <use xlink:href="#rim" fill="#404040">
                        <set attributeName="fill" to="#808080" begin="arrowLeft.mouseover" end="arrowLeft.mouseout"/>
                  </use>
                  <path fill="none" stroke="white" stroke-width="1.5" d="M0,-3.0v7 M-2.5,-0.5L0,-3.0L2.5,-0.5"/>
                </g>
        </g>
        <svg viewBox="0 0 15 15" width="100%" height="30px" preserveAspectRatio="xMaxYMin meet">
         <g id="arrow_out" transform="scale(0.3 0.3)">
          <a xlink:href="TRD_2simulation_2include_2TRDSimulation_2Detector_8h__dep__incl_org.svg" target="_base">
           <rect id="button" ry="5" rx="5" y="6" x="6" height="38" width="38"
                fill="#f2f5e9" fill-opacity="0.5" stroke="#606060" stroke-width="1.0"/>
           <path id="arrow"
             d="M 11.500037,31.436501 C 11.940474,20.09759 22.043105,11.32322 32.158766,21.979434 L 37.068811,17.246167 C 37.068811,17.246167 37.088388,32 37.088388,32 L 22.160133,31.978069 C 22.160133,31.978069 26.997745,27.140456 26.997745,27.140456 C 18.528582,18.264221 13.291696,25.230495 11.500037,31.436501 z"
             style="fill:#404040;"/>
          </a>
         </g>
        </svg>
</svg>
