<?xml version="1.0" encoding="UTF-8" standalone="no"?>
<!DOCTYPE svg PUBLIC "-//W3C//DTD SVG 1.1//EN"
 "http://www.w3.org/Graphics/SVG/1.1/DTD/svg11.dtd">
<!-- Generated by graphviz version 2.40.1 (20161225.0304)
 -->
<!-- Title: o2::framework::ExpirationHandler Pages: 1 -->
<!--zoomable 309 -->
<svg id="main" version="1.1" xmlns="http://www.w3.org/2000/svg" xmlns:xlink="http://www.w3.org/1999/xlink" xml:space="preserve" onload="init(evt)">
<style type="text/css"><![CDATA[
.edge:hover path { stroke: red; }
.edge:hover polygon { stroke: red; fill: red; }
]]></style>
<script type="text/javascript"><![CDATA[
var edges = document.getElementsByTagName('g');
if (edges && edges.length) {
  for (var i=0;i<edges.length;i++) {
    if (edges[i].id.substr(0,4)=='edge') {
      edges[i].setAttribute('class','edge');
    }
  }
}
]]></script>
        <defs>
                <circle id="rim" cx="0" cy="0" r="7"/>
                <circle id="rim2" cx="0" cy="0" r="3.5"/>
                <g id="zoomPlus">
                        <use xlink:href="#rim" fill="#404040">
                                <set attributeName="fill" to="#808080" begin="zoomplus.mouseover" end="zoomplus.mouseout"/>
                        </use>
                        <path d="M-4,0h8M0,-4v8" fill="none" stroke="white" stroke-width="1.5" pointer-events="none"/>
                </g>
                <g id="zoomMin">
                        <use xlink:href="#rim" fill="#404040">
                                <set attributeName="fill" to="#808080" begin="zoomminus.mouseover" end="zoomminus.mouseout"/>
                        </use>
                        <path d="M-4,0h8" fill="none" stroke="white" stroke-width="1.5" pointer-events="none"/>
                </g>
                <g id="dirArrow">
                        <path fill="none" stroke="white" stroke-width="1.5" d="M0,-3.0v7 M-2.5,-0.5L0,-3.0L2.5,-0.5"/>
                </g>
               <g id="resetDef">
                       <use xlink:href="#rim2" fill="#404040">
                               <set attributeName="fill" to="#808080" begin="reset.mouseover" end="reset.mouseout"/>
                       </use>
               </g>
        </defs>

<script type="text/javascript">
var viewWidth = 712;
var viewHeight = 309;
var sectionId = 'dynsection-0';
</script>
<script xlink:href="../../svgpan.js"/>
<svg id="graph" class="graph">
<g id="viewport">
<title>o2::framework::ExpirationHandler</title>
<!-- Node1 -->
<g id="node1" class="node">
<title>Node1</title>
<polygon fill="#bfbfbf" stroke="#000000" points="212,-.5 212,-68.5 355,-68.5 355,-.5 212,-.5"/>
<text text-anchor="start" x="220" y="-56.5" font-family="Helvetica,sans-Serif" font-size="10.00" fill="#000000">o2::framework::Expiration</text>
<text text-anchor="middle" x="283.5" y="-45.5" font-family="Helvetica,sans-Serif" font-size="10.00" fill="#000000">Handler</text>
<polyline fill="none" stroke="#000000" points="212,-38.5 355,-38.5 "/>
<text text-anchor="middle" x="283.5" y="-26.5" font-family="Helvetica,sans-Serif" font-size="10.00" fill="#000000"> </text>
<polyline fill="none" stroke="#000000" points="212,-19.5 355,-19.5 "/>
<text text-anchor="middle" x="283.5" y="-7.5" font-family="Helvetica,sans-Serif" font-size="10.00" fill="#000000"> </text>
</g>
<!-- Node2 -->
<g id="node2" class="node">
<title>Node2</title>
<polygon fill="none" stroke="#bfbfbf" points="0,-127.5 0,-184.5 57,-184.5 57,-127.5 0,-127.5"/>
<text text-anchor="middle" x="28.5" y="-172.5" font-family="Helvetica,sans-Serif" font-size="10.00" fill="#000000">Lifetime</text>
<polyline fill="none" stroke="#bfbfbf" points="0,-165.5 57,-165.5 "/>
<text text-anchor="middle" x="28.5" y="-153.5" font-family="Helvetica,sans-Serif" font-size="10.00" fill="#000000"> </text>
<polyline fill="none" stroke="#bfbfbf" points="0,-146.5 57,-146.5 "/>
<text text-anchor="middle" x="28.5" y="-134.5" font-family="Helvetica,sans-Serif" font-size="10.00" fill="#000000"> </text>
</g>
<!-- Node2&#45;&gt;Node1 -->
<g id="edge1" class="edge">
<title>Node2&#45;&gt;Node1</title>
<path fill="none" stroke="#404040" d="M52.0673,-127.1238C56.2507,-123.0403 60.787,-119.1628 65.5,-116 106.2881,-88.6279 157.4992,-68.8735 200.0355,-55.6746"/>
<polygon fill="none" stroke="#404040" points="200.2997,-55.5948 204.8867,-50.0307 211.7871,-52.1247 207.2001,-57.6889 200.2997,-55.5948"/>
<text text-anchor="middle" x="140.5" y="-90" font-family="Helvetica,sans-Serif" font-size="10.00" fill="#000000"> +lifetime</text>
</g>
<!-- Node3 -->
<g id="node3" class="node">
<title>Node3</title>
<polygon fill="none" stroke="#bfbfbf" points="75,-122 75,-190 198,-190 198,-122 75,-122"/>
<text text-anchor="start" x="83" y="-178" font-family="Helvetica,sans-Serif" font-size="10.00" fill="#000000">function&lt; bool(uint64</text>
<text text-anchor="middle" x="136.5" y="-167" font-family="Helvetica,sans-Serif" font-size="10.00" fill="#000000">_t timestamp)&gt;</text>
<polyline fill="none" stroke="#bfbfbf" points="75,-160 198,-160 "/>
<text text-anchor="middle" x="136.5" y="-148" font-family="Helvetica,sans-Serif" font-size="10.00" fill="#000000"> </text>
<polyline fill="none" stroke="#bfbfbf" points="75,-141 198,-141 "/>
<text text-anchor="middle" x="136.5" y="-129" font-family="Helvetica,sans-Serif" font-size="10.00" fill="#000000"> </text>
</g>
<!-- Node3&#45;&gt;Node1 -->
<g id="edge2" class="edge">
<title>Node3&#45;&gt;Node1</title>
<path fill="none" stroke="#404040" d="M177.8389,-121.8321C194.8202,-107.7966 214.6545,-91.4029 232.5229,-76.6341"/>
<polygon fill="none" stroke="#404040" points="232.9674,-76.2668 235.0438,-69.361 242.2169,-68.6217 240.1405,-75.5274 232.9674,-76.2668"/>
<text text-anchor="middle" x="244.5" y="-90" font-family="Helvetica,sans-Serif" font-size="10.00" fill="#000000"> +checker</text>
</g>
<!-- Node4 -->
<g id="node4" class="node">
<title>Node4</title>
<polygon fill="none" stroke="#bfbfbf" points="216.5,-122 216.5,-190 350.5,-190 350.5,-122 216.5,-122"/>
<text text-anchor="start" x="224.5" y="-178" font-family="Helvetica,sans-Serif" font-size="10.00" fill="#000000">function&lt; TimesliceSlot</text>
<text text-anchor="middle" x="283.5" y="-167" font-family="Helvetica,sans-Serif" font-size="10.00" fill="#000000">(TimesliceIndex &amp;)&gt;</text>
<polyline fill="none" stroke="#bfbfbf" points="216.5,-160 350.5,-160 "/>
<text text-anchor="middle" x="283.5" y="-148" font-family="Helvetica,sans-Serif" font-size="10.00" fill="#000000"> </text>
<polyline fill="none" stroke="#bfbfbf" points="216.5,-141 350.5,-141 "/>
<text text-anchor="middle" x="283.5" y="-129" font-family="Helvetica,sans-Serif" font-size="10.00" fill="#000000"> </text>
</g>
<!-- Node4&#45;&gt;Node1 -->
<g id="edge3" class="edge">
<title>Node4&#45;&gt;Node1</title>
<path fill="none" stroke="#404040" d="M283.5,-121.8321C283.5,-109.1499 283.5,-94.5424 283.5,-80.948"/>
<polygon fill="none" stroke="#404040" points="283.5001,-80.8324 279.5,-74.8324 283.5,-68.8324 287.5,-74.8323 283.5001,-80.8324"/>
<text text-anchor="middle" x="306.5" y="-90" font-family="Helvetica,sans-Serif" font-size="10.00" fill="#000000"> +creator</text>
</g>
<!-- Node5 -->
<g id="node5" class="node">
<title>Node5</title>
<g id="a_node5"><a xlink:href="../../d1/d02/structo2_1_1framework_1_1RouteIndex.html" target="_top" xlink:title="Typesafe index inside. ">
<polygon fill="none" stroke="#000000" points="369,-127.5 369,-184.5 518,-184.5 518,-127.5 369,-127.5"/>
<text text-anchor="middle" x="443.5" y="-172.5" font-family="Helvetica,sans-Serif" font-size="10.00" fill="#000000">o2::framework::RouteIndex</text>
<polyline fill="none" stroke="#000000" points="369,-165.5 518,-165.5 "/>
<text text-anchor="middle" x="443.5" y="-153.5" font-family="Helvetica,sans-Serif" font-size="10.00" fill="#000000"> </text>
<polyline fill="none" stroke="#000000" points="369,-146.5 518,-146.5 "/>
<text text-anchor="middle" x="443.5" y="-134.5" font-family="Helvetica,sans-Serif" font-size="10.00" fill="#000000"> </text>
</a>
</g>
</g>
<!-- Node5&#45;&gt;Node1 -->
<g id="edge4" class="edge">
<title>Node5&#45;&gt;Node1</title>
<path fill="none" stroke="#404040" d="M405.5822,-127.2062C385.4577,-111.9241 360.3664,-92.8704 338.1742,-76.0182"/>
<polygon fill="none" stroke="#404040" points="338.0949,-75.958 330.8974,-75.515 328.538,-68.7007 335.7355,-69.1438 338.0949,-75.958"/>
<text text-anchor="middle" x="395.5" y="-90" font-family="Helvetica,sans-Serif" font-size="10.00" fill="#000000"> +routeIndex</text>
</g>
<!-- Node6 -->
<g id="node6" class="node">
<title>Node6</title>
<polygon fill="none" stroke="#bfbfbf" points="429,-243.5 429,-300.5 458,-300.5 458,-243.5 429,-243.5"/>
<text text-anchor="middle" x="443.5" y="-288.5" font-family="Helvetica,sans-Serif" font-size="10.00" fill="#000000">int</text>
<polyline fill="none" stroke="#bfbfbf" points="429,-281.5 458,-281.5 "/>
<text text-anchor="middle" x="443.5" y="-269.5" font-family="Helvetica,sans-Serif" font-size="10.00" fill="#000000"> </text>
<polyline fill="none" stroke="#bfbfbf" points="429,-262.5 458,-262.5 "/>
<text text-anchor="middle" x="443.5" y="-250.5" font-family="Helvetica,sans-Serif" font-size="10.00" fill="#000000"> </text>
</g>
<!-- Node6&#45;&gt;Node5 -->
<g id="edge5" class="edge">
<title>Node6&#45;&gt;Node5</title>
<path fill="none" stroke="#404040" d="M443.5,-243.3258C443.5,-229.3834 443.5,-212.3727 443.5,-197.0815"/>
<polygon fill="none" stroke="#404040" points="443.5001,-196.7463 439.5,-190.7464 443.5,-184.7463 447.5,-190.7463 443.5001,-196.7463"/>
<text text-anchor="middle" x="463" y="-217" font-family="Helvetica,sans-Serif" font-size="10.00" fill="#000000"> +value</text>
</g>
<!-- Node7 -->
<g id="node7" class="node">
<title>Node7</title>
<polygon fill="none" stroke="#bfbfbf" points="535.5,-116.5 535.5,-195.5 703.5,-195.5 703.5,-116.5 535.5,-116.5"/>
<text text-anchor="start" x="543.5" y="-183.5" font-family="Helvetica,sans-Serif" font-size="10.00" fill="#000000">function&lt; void(ServiceRegistry</text>
<text text-anchor="start" x="543.5" y="-172.5" font-family="Helvetica,sans-Serif" font-size="10.00" fill="#000000"> &amp;, PartRef &amp;expiredInput,</text>
<text text-anchor="middle" x="619.5" y="-161.5" font-family="Helvetica,sans-Serif" font-size="10.00" fill="#000000"> uint64_t timestamp)&gt;</text>
<polyline fill="none" stroke="#bfbfbf" points="535.5,-154.5 703.5,-154.5 "/>
<text text-anchor="middle" x="619.5" y="-142.5" font-family="Helvetica,sans-Serif" font-size="10.00" fill="#000000"> </text>
<polyline fill="none" stroke="#bfbfbf" points="535.5,-135.5 703.5,-135.5 "/>
<text text-anchor="middle" x="619.5" y="-123.5" font-family="Helvetica,sans-Serif" font-size="10.00" fill="#000000"> </text>
</g>
<!-- Node7&#45;&gt;Node1 -->
<g id="edge6" class="edge">
<title>Node7&#45;&gt;Node1</title>
<path fill="none" stroke="#404040" d="M535.3935,-119.0805C532.7378,-118.0274 530.1018,-116.9979 527.5,-116 474.5305,-95.6835 414.052,-75.4627 366.5581,-60.2449"/>
<polygon fill="none" stroke="#404040" points="366.5189,-60.2324 359.587,-62.2197 355.0865,-56.5854 362.0184,-54.5981 366.5189,-60.2324"/>
<text text-anchor="middle" x="499" y="-90" font-family="Helvetica,sans-Serif" font-size="10.00" fill="#000000"> +handler</text>
</g>
</g>
</svg>
        <g id="navigator" transform="translate(0 0)" fill="#404254">
                <rect fill="#f2f5e9" fill-opacity="0.5" stroke="#606060" stroke-width=".5" x="0" y="0" width="60" height="60"/>
                <use id="zoomplus" xlink:href="#zoomPlus" x="17" y="9" onmousedown="handleZoom(evt,'in')"/>
                <use id="zoomminus" xlink:href="#zoomMin" x="42" y="9" onmousedown="handleZoom(evt,'out')"/>
                <use id="reset" xlink:href="#resetDef" x="30" y="36" onmousedown="handleReset()"/>
                <g id="arrowUp" xlink:href="#dirArrow" transform="translate(30 24)" onmousedown="handlePan(0,-1)">
                  <use xlink:href="#rim" fill="#404040">
                        <set attributeName="fill" to="#808080" begin="arrowUp.mouseover" end="arrowUp.mouseout"/>
                  </use>
                  <path fill="none" stroke="white" stroke-width="1.5" d="M0,-3.0v7 M-2.5,-0.5L0,-3.0L2.5,-0.5"/>
                </g>
                <g id="arrowRight" xlink:href="#dirArrow" transform="rotate(90) translate(36 -43)" onmousedown="handlePan(1,0)">
                  <use xlink:href="#rim" fill="#404040">
                        <set attributeName="fill" to="#808080" begin="arrowRight.mouseover" end="arrowRight.mouseout"/>
                  </use>
                  <path fill="none" stroke="white" stroke-width="1.5" d="M0,-3.0v7 M-2.5,-0.5L0,-3.0L2.5,-0.5"/>
                </g>
                <g id="arrowDown" xlink:href="#dirArrow" transform="rotate(180) translate(-30 -48)" onmousedown="handlePan(0,1)">
                  <use xlink:href="#rim" fill="#404040">
                        <set attributeName="fill" to="#808080" begin="arrowDown.mouseover" end="arrowDown.mouseout"/>
                  </use>
                  <path fill="none" stroke="white" stroke-width="1.5" d="M0,-3.0v7 M-2.5,-0.5L0,-3.0L2.5,-0.5"/>
                </g>
                <g id="arrowLeft" xlink:href="#dirArrow" transform="rotate(270) translate(-36 17)" onmousedown="handlePan(-1,0)">
                  <use xlink:href="#rim" fill="#404040">
                        <set attributeName="fill" to="#808080" begin="arrowLeft.mouseover" end="arrowLeft.mouseout"/>
                  </use>
                  <path fill="none" stroke="white" stroke-width="1.5" d="M0,-3.0v7 M-2.5,-0.5L0,-3.0L2.5,-0.5"/>
                </g>
        </g>
        <svg viewBox="0 0 15 15" width="100%" height="30px" preserveAspectRatio="xMaxYMin meet">
         <g id="arrow_out" transform="scale(0.3 0.3)">
          <a xlink:href="structo2_1_1framework_1_1ExpirationHandler__coll__graph_org.svg" target="_base">
           <rect id="button" ry="5" rx="5" y="6" x="6" height="38" width="38"
                fill="#f2f5e9" fill-opacity="0.5" stroke="#606060" stroke-width="1.0"/>
           <path id="arrow"
             d="M 11.500037,31.436501 C 11.940474,20.09759 22.043105,11.32322 32.158766,21.979434 L 37.068811,17.246167 C 37.068811,17.246167 37.088388,32 37.088388,32 L 22.160133,31.978069 C 22.160133,31.978069 26.997745,27.140456 26.997745,27.140456 C 18.528582,18.264221 13.291696,25.230495 11.500037,31.436501 z"
             style="fill:#404040;"/>
          </a>
         </g>
        </svg>
</svg>
