<?xml version="1.0" encoding="UTF-8" standalone="no"?>
<!DOCTYPE svg PUBLIC "-//W3C//DTD SVG 1.1//EN"
 "http://www.w3.org/Graphics/SVG/1.1/DTD/svg11.dtd">
<!-- Generated by graphviz version 2.40.1 (20161225.0304)
 -->
<!-- Title: /home/travis/build/AliceO2Group/AliceO2/Detectors/TRD/base/include/TRDBase/LocalGainFactor.h Pages: 1 -->
<svg width="975pt" height="517pt"
 viewBox="0.00 0.00 975.35 517.00" xmlns="http://www.w3.org/2000/svg" xmlns:xlink="http://www.w3.org/1999/xlink">
<g id="graph0" class="graph" transform="scale(1 1) rotate(0) translate(4 513)">
<title>/home/travis/build/AliceO2Group/AliceO2/Detectors/TRD/base/include/TRDBase/LocalGainFactor.h</title>
<!-- Node44 -->
<g id="node1" class="node">
<title>Node44</title>
<polygon fill="#bfbfbf" stroke="#000000" points="381.5,-456.5 381.5,-508.5 536.5,-508.5 536.5,-456.5 381.5,-456.5"/>
<text text-anchor="start" x="389.5" y="-496.5" font-family="Helvetica,sans-Serif" font-size="10.00" fill="#000000">/home/travis/build</text>
<text text-anchor="start" x="389.5" y="-485.5" font-family="Helvetica,sans-Serif" font-size="10.00" fill="#000000">/AliceO2Group/AliceO2</text>
<text text-anchor="start" x="389.5" y="-474.5" font-family="Helvetica,sans-Serif" font-size="10.00" fill="#000000">/Detectors/TRD/base/include</text>
<text text-anchor="middle" x="459" y="-463.5" font-family="Helvetica,sans-Serif" font-size="10.00" fill="#000000">/TRDBase/LocalGainFactor.h</text>
</g>
<!-- Node45 -->
<g id="node2" class="node">
<title>Node45</title>
<g id="a_node2"><a xlink:href="../../d4/d17/Calibrations_8h.html" target="_top" xlink:title="/home/travis/build\l/AliceO2Group/AliceO2\l/Detectors/TRD/base/include\l/TRDBase/Calibrations.h">
<polygon fill="none" stroke="#000000" points="381.5,-367.5 381.5,-419.5 536.5,-419.5 536.5,-367.5 381.5,-367.5"/>
<text text-anchor="start" x="389.5" y="-407.5" font-family="Helvetica,sans-Serif" font-size="10.00" fill="#000000">/home/travis/build</text>
<text text-anchor="start" x="389.5" y="-396.5" font-family="Helvetica,sans-Serif" font-size="10.00" fill="#000000">/AliceO2Group/AliceO2</text>
<text text-anchor="start" x="389.5" y="-385.5" font-family="Helvetica,sans-Serif" font-size="10.00" fill="#000000">/Detectors/TRD/base/include</text>
<text text-anchor="middle" x="459" y="-374.5" font-family="Helvetica,sans-Serif" font-size="10.00" fill="#000000">/TRDBase/Calibrations.h</text>
</a>
</g>
</g>
<!-- Node44&#45;&gt;Node45 -->
<g id="edge1" class="edge">
<title>Node44&#45;&gt;Node45</title>
<path fill="none" stroke="#191970" d="M459,-446.1155C459,-437.2061 459,-427.8475 459,-419.5341"/>
<polygon fill="#191970" stroke="#191970" points="455.5001,-446.2784 459,-456.2784 462.5001,-446.2785 455.5001,-446.2784"/>
</g>
<!-- Node46 -->
<g id="node3" class="node">
<title>Node46</title>
<g id="a_node3"><a xlink:href="../../dc/db4/Calibrations_8cxx.html" target="_top" xlink:title="/home/travis/build\l/AliceO2Group/AliceO2\l/Detectors/TRD/base/src\l/Calibrations.cxx">
<polygon fill="none" stroke="#000000" points="291,-278.5 291,-330.5 425,-330.5 425,-278.5 291,-278.5"/>
<text text-anchor="start" x="299" y="-318.5" font-family="Helvetica,sans-Serif" font-size="10.00" fill="#000000">/home/travis/build</text>
<text text-anchor="start" x="299" y="-307.5" font-family="Helvetica,sans-Serif" font-size="10.00" fill="#000000">/AliceO2Group/AliceO2</text>
<text text-anchor="start" x="299" y="-296.5" font-family="Helvetica,sans-Serif" font-size="10.00" fill="#000000">/Detectors/TRD/base/src</text>
<text text-anchor="middle" x="358" y="-285.5" font-family="Helvetica,sans-Serif" font-size="10.00" fill="#000000">/Calibrations.cxx</text>
</a>
</g>
</g>
<!-- Node44&#45;&gt;Node46 -->
<g id="edge19" class="edge">
<title>Node44&#45;&gt;Node46</title>
<path fill="none" stroke="#191970" d="M399.5702,-450.0917C388.8242,-441.6533 378.8669,-431.6071 372,-420 355.8529,-392.7065 354.2456,-355.4491 355.4173,-330.7145"/>
<polygon fill="#191970" stroke="#191970" points="397.7762,-453.1172 407.9034,-456.2303 401.9279,-447.4813 397.7762,-453.1172"/>
</g>
<!-- Node58 -->
<g id="node15" class="node">
<title>Node58</title>
<g id="a_node15"><a xlink:href="../../d3/d93/LocalGainFactor_8cxx.html" target="_top" xlink:title="/home/travis/build\l/AliceO2Group/AliceO2\l/Detectors/TRD/base/src\l/LocalGainFactor.cxx">
<polygon fill="none" stroke="#000000" points="555,-367.5 555,-419.5 689,-419.5 689,-367.5 555,-367.5"/>
<text text-anchor="start" x="563" y="-407.5" font-family="Helvetica,sans-Serif" font-size="10.00" fill="#000000">/home/travis/build</text>
<text text-anchor="start" x="563" y="-396.5" font-family="Helvetica,sans-Serif" font-size="10.00" fill="#000000">/AliceO2Group/AliceO2</text>
<text text-anchor="start" x="563" y="-385.5" font-family="Helvetica,sans-Serif" font-size="10.00" fill="#000000">/Detectors/TRD/base/src</text>
<text text-anchor="middle" x="622" y="-374.5" font-family="Helvetica,sans-Serif" font-size="10.00" fill="#000000">/LocalGainFactor.cxx</text>
</a>
</g>
</g>
<!-- Node44&#45;&gt;Node58 -->
<g id="edge20" class="edge">
<title>Node44&#45;&gt;Node58</title>
<path fill="none" stroke="#191970" d="M515.9153,-451.4235C534.9833,-441.0122 556.0322,-429.5192 574.3195,-419.5341"/>
<polygon fill="#191970" stroke="#191970" points="514.1234,-448.4142 507.0238,-456.2784 517.478,-454.558 514.1234,-448.4142"/>
</g>
<!-- Node45&#45;&gt;Node46 -->
<g id="edge2" class="edge">
<title>Node45&#45;&gt;Node46</title>
<path fill="none" stroke="#191970" d="M421.6363,-360.5755C410.3898,-350.6653 398.2092,-339.9319 387.5444,-330.5341"/>
<polygon fill="#191970" stroke="#191970" points="419.4262,-363.2931 429.2429,-367.2784 424.0542,-358.0411 419.4262,-363.2931"/>
</g>
<!-- Node47 -->
<g id="node4" class="node">
<title>Node47</title>
<g id="a_node4"><a xlink:href="../../d4/dae/TRD_2simulation_2include_2TRDSimulation_2Digitizer_8h.html" target="_top" xlink:title="/home/travis/build\l/AliceO2Group/AliceO2\l/Detectors/TRD/simulation\l/include/TRDSimulation/Digitizer.h">
<polygon fill="none" stroke="#000000" points="588.5,-278.5 588.5,-330.5 771.5,-330.5 771.5,-278.5 588.5,-278.5"/>
<text text-anchor="start" x="596.5" y="-318.5" font-family="Helvetica,sans-Serif" font-size="10.00" fill="#000000">/home/travis/build</text>
<text text-anchor="start" x="596.5" y="-307.5" font-family="Helvetica,sans-Serif" font-size="10.00" fill="#000000">/AliceO2Group/AliceO2</text>
<text text-anchor="start" x="596.5" y="-296.5" font-family="Helvetica,sans-Serif" font-size="10.00" fill="#000000">/Detectors/TRD/simulation</text>
<text text-anchor="middle" x="680" y="-285.5" font-family="Helvetica,sans-Serif" font-size="10.00" fill="#000000">/include/TRDSimulation/Digitizer.h</text>
</a>
</g>
</g>
<!-- Node45&#45;&gt;Node47 -->
<g id="edge3" class="edge">
<title>Node45&#45;&gt;Node47</title>
<path fill="none" stroke="#191970" d="M533.4259,-363.5276C559.9331,-352.8527 589.5511,-340.9251 615.1871,-330.6011"/>
<polygon fill="#191970" stroke="#191970" points="531.7826,-360.4161 523.814,-367.3984 534.3976,-366.9094 531.7826,-360.4161"/>
</g>
<!-- Node57 -->
<g id="node14" class="node">
<title>Node57</title>
<g id="a_node14"><a xlink:href="../../d6/df2/TRDDigitizerSpec_8cxx.html" target="_top" xlink:title="/home/travis/build\l/AliceO2Group/AliceO2\l/Detectors/TRD/workflow\l/src/TRDDigitizerSpec.cxx">
<polygon fill="none" stroke="#000000" points="282,-189.5 282,-241.5 424,-241.5 424,-189.5 282,-189.5"/>
<text text-anchor="start" x="290" y="-229.5" font-family="Helvetica,sans-Serif" font-size="10.00" fill="#000000">/home/travis/build</text>
<text text-anchor="start" x="290" y="-218.5" font-family="Helvetica,sans-Serif" font-size="10.00" fill="#000000">/AliceO2Group/AliceO2</text>
<text text-anchor="start" x="290" y="-207.5" font-family="Helvetica,sans-Serif" font-size="10.00" fill="#000000">/Detectors/TRD/workflow</text>
<text text-anchor="middle" x="353" y="-196.5" font-family="Helvetica,sans-Serif" font-size="10.00" fill="#000000">/src/TRDDigitizerSpec.cxx</text>
</a>
</g>
</g>
<!-- Node45&#45;&gt;Node57 -->
<g id="edge18" class="edge">
<title>Node45&#45;&gt;Node57</title>
<path fill="none" stroke="#191970" d="M457.5341,-357.1096C455.094,-333.0617 448.9848,-301.7222 434,-278 424.9884,-263.7339 411.5106,-251.449 398.1222,-241.6395"/>
<polygon fill="#191970" stroke="#191970" points="454.0621,-357.5891 458.3932,-367.2582 461.0371,-356.9986 454.0621,-357.5891"/>
</g>
<!-- Node48 -->
<g id="node5" class="node">
<title>Node48</title>
<g id="a_node5"><a xlink:href="../../d7/d42/TrapSimulator_8h.html" target="_top" xlink:title="/home/travis/build\l/AliceO2Group/AliceO2\l/Detectors/TRD/simulation\l/include/TRDSimulation/TrapSimulator.h">
<polygon fill="none" stroke="#000000" points="442.5,-189.5 442.5,-241.5 651.5,-241.5 651.5,-189.5 442.5,-189.5"/>
<text text-anchor="start" x="450.5" y="-229.5" font-family="Helvetica,sans-Serif" font-size="10.00" fill="#000000">/home/travis/build</text>
<text text-anchor="start" x="450.5" y="-218.5" font-family="Helvetica,sans-Serif" font-size="10.00" fill="#000000">/AliceO2Group/AliceO2</text>
<text text-anchor="start" x="450.5" y="-207.5" font-family="Helvetica,sans-Serif" font-size="10.00" fill="#000000">/Detectors/TRD/simulation</text>
<text text-anchor="middle" x="547" y="-196.5" font-family="Helvetica,sans-Serif" font-size="10.00" fill="#000000">/include/TRDSimulation/TrapSimulator.h</text>
</a>
</g>
</g>
<!-- Node47&#45;&gt;Node48 -->
<g id="edge4" class="edge">
<title>Node47&#45;&gt;Node48</title>
<path fill="none" stroke="#191970" d="M632.5014,-272.7152C617.2253,-262.4929 600.4889,-251.2933 585.905,-241.5341"/>
<polygon fill="#191970" stroke="#191970" points="630.5576,-275.6258 640.815,-278.2784 634.4506,-269.8082 630.5576,-275.6258"/>
</g>
<!-- Node50 -->
<g id="node7" class="node">
<title>Node50</title>
<g id="a_node7"><a xlink:href="../../da/deb/TrapSimulator_8cxx.html" target="_top" xlink:title="/home/travis/build\l/AliceO2Group/AliceO2\l/Detectors/TRD/simulation\l/src/TrapSimulator.cxx">
<polygon fill="none" stroke="#000000" points="793.5,-95 793.5,-147 938.5,-147 938.5,-95 793.5,-95"/>
<text text-anchor="start" x="801.5" y="-135" font-family="Helvetica,sans-Serif" font-size="10.00" fill="#000000">/home/travis/build</text>
<text text-anchor="start" x="801.5" y="-124" font-family="Helvetica,sans-Serif" font-size="10.00" fill="#000000">/AliceO2Group/AliceO2</text>
<text text-anchor="start" x="801.5" y="-113" font-family="Helvetica,sans-Serif" font-size="10.00" fill="#000000">/Detectors/TRD/simulation</text>
<text text-anchor="middle" x="866" y="-102" font-family="Helvetica,sans-Serif" font-size="10.00" fill="#000000">/src/TrapSimulator.cxx</text>
</a>
</g>
</g>
<!-- Node47&#45;&gt;Node50 -->
<g id="edge14" class="edge">
<title>Node47&#45;&gt;Node50</title>
<path fill="none" stroke="#191970" d="M781.4637,-280.8008C817.6763,-270.1579 852.2173,-256.6887 863,-242 883.0201,-214.7278 879.0452,-173.9006 873.3382,-147.3549"/>
<polygon fill="#191970" stroke="#191970" points="780.383,-277.4695 771.7314,-283.5852 782.3084,-284.1995 780.383,-277.4695"/>
</g>
<!-- Node52 -->
<g id="node9" class="node">
<title>Node52</title>
<g id="a_node9"><a xlink:href="../../dd/de7/TRDTrapSimulatorSpec_8cxx.html" target="_top" xlink:title="/home/travis/build\l/AliceO2Group/AliceO2\l/Detectors/TRD/workflow\l/src/TRDTrapSimulatorSpec.cxx">
<polygon fill="none" stroke="#000000" points="404,-.5 404,-52.5 572,-52.5 572,-.5 404,-.5"/>
<text text-anchor="start" x="412" y="-40.5" font-family="Helvetica,sans-Serif" font-size="10.00" fill="#000000">/home/travis/build</text>
<text text-anchor="start" x="412" y="-29.5" font-family="Helvetica,sans-Serif" font-size="10.00" fill="#000000">/AliceO2Group/AliceO2</text>
<text text-anchor="start" x="412" y="-18.5" font-family="Helvetica,sans-Serif" font-size="10.00" fill="#000000">/Detectors/TRD/workflow</text>
<text text-anchor="middle" x="488" y="-7.5" font-family="Helvetica,sans-Serif" font-size="10.00" fill="#000000">/src/TRDTrapSimulatorSpec.cxx</text>
</a>
</g>
</g>
<!-- Node47&#45;&gt;Node52 -->
<g id="edge17" class="edge">
<title>Node47&#45;&gt;Node52</title>
<path fill="none" stroke="#191970" d="M781.3125,-287.2393C816.1234,-277.8784 853.8758,-263.612 884,-242 943.8906,-199.0326 996.4851,-144.5183 948,-89 923.6963,-61.1708 698.1854,-41.1416 572.1904,-32.017"/>
<polygon fill="#191970" stroke="#191970" points="780.3886,-283.863 771.5809,-289.7516 782.1383,-290.6408 780.3886,-283.863"/>
</g>
<!-- Node55 -->
<g id="node12" class="node">
<title>Node55</title>
<g id="a_node12"><a xlink:href="../../d7/da6/TRDDigitReaderSpec_8cxx.html" target="_top" xlink:title="/home/travis/build\l/AliceO2Group/AliceO2\l/Detectors/TRD/workflow\l/src/TRDDigitReaderSpec.cxx">
<polygon fill="none" stroke="#000000" points="617,-95 617,-147 775,-147 775,-95 617,-95"/>
<text text-anchor="start" x="625" y="-135" font-family="Helvetica,sans-Serif" font-size="10.00" fill="#000000">/home/travis/build</text>
<text text-anchor="start" x="625" y="-124" font-family="Helvetica,sans-Serif" font-size="10.00" fill="#000000">/AliceO2Group/AliceO2</text>
<text text-anchor="start" x="625" y="-113" font-family="Helvetica,sans-Serif" font-size="10.00" fill="#000000">/Detectors/TRD/workflow</text>
<text text-anchor="middle" x="696" y="-102" font-family="Helvetica,sans-Serif" font-size="10.00" fill="#000000">/src/TRDDigitReaderSpec.cxx</text>
</a>
</g>
</g>
<!-- Node47&#45;&gt;Node55 -->
<g id="edge16" class="edge">
<title>Node47&#45;&gt;Node55</title>
<path fill="none" stroke="#191970" d="M683.1645,-268.2071C686.2747,-232.5371 690.9455,-178.9692 693.7118,-147.2423"/>
<polygon fill="#191970" stroke="#191970" points="679.6744,-267.9427 682.2924,-278.2089 686.6479,-268.5508 679.6744,-267.9427"/>
</g>
<!-- Node56 -->
<g id="node13" class="node">
<title>Node56</title>
<g id="a_node13"><a xlink:href="../../d7/d40/TRD_2simulation_2src_2Digitizer_8cxx.html" target="_top" xlink:title="/home/travis/build\l/AliceO2Group/AliceO2\l/Detectors/TRD/simulation\l/src/Digitizer.cxx">
<polygon fill="none" stroke="#000000" points="708.5,-189.5 708.5,-241.5 853.5,-241.5 853.5,-189.5 708.5,-189.5"/>
<text text-anchor="start" x="716.5" y="-229.5" font-family="Helvetica,sans-Serif" font-size="10.00" fill="#000000">/home/travis/build</text>
<text text-anchor="start" x="716.5" y="-218.5" font-family="Helvetica,sans-Serif" font-size="10.00" fill="#000000">/AliceO2Group/AliceO2</text>
<text text-anchor="start" x="716.5" y="-207.5" font-family="Helvetica,sans-Serif" font-size="10.00" fill="#000000">/Detectors/TRD/simulation</text>
<text text-anchor="middle" x="781" y="-196.5" font-family="Helvetica,sans-Serif" font-size="10.00" fill="#000000">/src/Digitizer.cxx</text>
</a>
</g>
</g>
<!-- Node47&#45;&gt;Node56 -->
<g id="edge13" class="edge">
<title>Node47&#45;&gt;Node56</title>
<path fill="none" stroke="#191970" d="M717.3637,-271.5755C728.6102,-261.6653 740.7908,-250.9319 751.4556,-241.5341"/>
<polygon fill="#191970" stroke="#191970" points="714.9458,-269.0411 709.7571,-278.2784 719.5738,-274.2931 714.9458,-269.0411"/>
</g>
<!-- Node47&#45;&gt;Node57 -->
<g id="edge15" class="edge">
<title>Node47&#45;&gt;Node57</title>
<path fill="none" stroke="#191970" d="M578.644,-280.5999C533.8095,-269.579 480.5716,-255.8782 433,-242 430.0504,-241.1395 427.0464,-240.2419 424.0168,-239.319"/>
<polygon fill="#191970" stroke="#191970" points="577.8264,-284.003 588.3719,-282.9816 579.4912,-277.2038 577.8264,-284.003"/>
</g>
<!-- Node49 -->
<g id="node6" class="node">
<title>Node49</title>
<g id="a_node6"><a xlink:href="../../db/dc3/TrapConfigHandler_8cxx.html" target="_top" xlink:title="/home/travis/build\l/AliceO2Group/AliceO2\l/Detectors/TRD/simulation\l/src/TrapConfigHandler.cxx">
<polygon fill="none" stroke="#000000" points="453,-95 453,-147 599,-147 599,-95 453,-95"/>
<text text-anchor="start" x="461" y="-135" font-family="Helvetica,sans-Serif" font-size="10.00" fill="#000000">/home/travis/build</text>
<text text-anchor="start" x="461" y="-124" font-family="Helvetica,sans-Serif" font-size="10.00" fill="#000000">/AliceO2Group/AliceO2</text>
<text text-anchor="start" x="461" y="-113" font-family="Helvetica,sans-Serif" font-size="10.00" fill="#000000">/Detectors/TRD/simulation</text>
<text text-anchor="middle" x="526" y="-102" font-family="Helvetica,sans-Serif" font-size="10.00" fill="#000000">/src/TrapConfigHandler.cxx</text>
</a>
</g>
</g>
<!-- Node48&#45;&gt;Node49 -->
<g id="edge5" class="edge">
<title>Node48&#45;&gt;Node49</title>
<path fill="none" stroke="#191970" d="M538.999,-179.4957C536.6211,-168.795 534.0616,-157.2773 531.8479,-147.3157"/>
<polygon fill="#191970" stroke="#191970" points="535.62,-180.4247 541.2061,-189.4273 542.4533,-178.9061 535.62,-180.4247"/>
</g>
<!-- Node48&#45;&gt;Node50 -->
<g id="edge6" class="edge">
<title>Node48&#45;&gt;Node50</title>
<path fill="none" stroke="#191970" d="M661.4246,-188.1399C700.5782,-178.0348 744.4636,-165.881 784,-153 789.6667,-151.1538 795.5099,-149.1274 801.3444,-147.0186"/>
<polygon fill="#191970" stroke="#191970" points="660.3955,-184.7904 651.5778,-190.664 662.1337,-191.5712 660.3955,-184.7904"/>
</g>
<!-- Node51 -->
<g id="node8" class="node">
<title>Node51</title>
<g id="a_node8"><a xlink:href="../../dc/d96/TRDTrapSimulatorSpec_8h.html" target="_top" xlink:title="/home/travis/build\l/AliceO2Group/AliceO2\l/Detectors/TRD/workflow\l/include/TRDWorkflow/TRDTrapSimulator\lSpec.h">
<polygon fill="none" stroke="#000000" points="183,-89.5 183,-152.5 397,-152.5 397,-89.5 183,-89.5"/>
<text text-anchor="start" x="191" y="-140.5" font-family="Helvetica,sans-Serif" font-size="10.00" fill="#000000">/home/travis/build</text>
<text text-anchor="start" x="191" y="-129.5" font-family="Helvetica,sans-Serif" font-size="10.00" fill="#000000">/AliceO2Group/AliceO2</text>
<text text-anchor="start" x="191" y="-118.5" font-family="Helvetica,sans-Serif" font-size="10.00" fill="#000000">/Detectors/TRD/workflow</text>
<text text-anchor="start" x="191" y="-107.5" font-family="Helvetica,sans-Serif" font-size="10.00" fill="#000000">/include/TRDWorkflow/TRDTrapSimulator</text>
<text text-anchor="middle" x="290" y="-96.5" font-family="Helvetica,sans-Serif" font-size="10.00" fill="#000000">Spec.h</text>
</a>
</g>
</g>
<!-- Node48&#45;&gt;Node51 -->
<g id="edge7" class="edge">
<title>Node48&#45;&gt;Node51</title>
<path fill="none" stroke="#191970" d="M466.4673,-185.8878C437.6271,-175.2831 405.0231,-163.2945 375.7573,-152.5333"/>
<polygon fill="#191970" stroke="#191970" points="465.4998,-189.2611 476.0933,-189.4273 467.9156,-182.6911 465.4998,-189.2611"/>
</g>
<!-- Node48&#45;&gt;Node52 -->
<g id="edge12" class="edge">
<title>Node48&#45;&gt;Node52</title>
<path fill="none" stroke="#191970" d="M472.8119,-183.6421C461.2646,-175.3708 450.894,-165.2471 444,-153 430.0472,-128.2128 435.4121,-116.1171 444,-89 448.1667,-75.8433 456.2096,-63.0615 464.2917,-52.5213"/>
<polygon fill="#191970" stroke="#191970" points="471.1284,-186.7256 481.3953,-189.3414 475.0006,-180.894 471.1284,-186.7256"/>
</g>
<!-- Node48&#45;&gt;Node55 -->
<g id="edge11" class="edge">
<title>Node48&#45;&gt;Node55</title>
<path fill="none" stroke="#191970" d="M596.5911,-184.0479C615.4649,-172.0776 636.749,-158.5786 654.7664,-147.1515"/>
<polygon fill="#191970" stroke="#191970" points="594.6795,-181.1157 588.1093,-189.4273 598.4287,-187.027 594.6795,-181.1157"/>
</g>
<!-- Node51&#45;&gt;Node52 -->
<g id="edge8" class="edge">
<title>Node51&#45;&gt;Node52</title>
<path fill="none" stroke="#191970" d="M365.4397,-84.9947C388.0504,-74.2032 412.4019,-62.5809 433.3946,-52.5617"/>
<polygon fill="#191970" stroke="#191970" points="363.7237,-81.9354 356.2064,-89.4015 366.7388,-88.2528 363.7237,-81.9354"/>
</g>
<!-- Node53 -->
<g id="node10" class="node">
<title>Node53</title>
<g id="a_node10"><a xlink:href="../../d2/dc0/TRDTrapSimulatorWorkFlow_8cxx.html" target="_top" xlink:title="/home/travis/build\l/AliceO2Group/AliceO2\l/Detectors/TRD/workflow\l/src/TRDTrapSimulatorWorkFlow.cxx">
<polygon fill="none" stroke="#000000" points="194.5,-.5 194.5,-52.5 385.5,-52.5 385.5,-.5 194.5,-.5"/>
<text text-anchor="start" x="202.5" y="-40.5" font-family="Helvetica,sans-Serif" font-size="10.00" fill="#000000">/home/travis/build</text>
<text text-anchor="start" x="202.5" y="-29.5" font-family="Helvetica,sans-Serif" font-size="10.00" fill="#000000">/AliceO2Group/AliceO2</text>
<text text-anchor="start" x="202.5" y="-18.5" font-family="Helvetica,sans-Serif" font-size="10.00" fill="#000000">/Detectors/TRD/workflow</text>
<text text-anchor="middle" x="290" y="-7.5" font-family="Helvetica,sans-Serif" font-size="10.00" fill="#000000">/src/TRDTrapSimulatorWorkFlow.cxx</text>
</a>
</g>
</g>
<!-- Node51&#45;&gt;Node53 -->
<g id="edge9" class="edge">
<title>Node51&#45;&gt;Node53</title>
<path fill="none" stroke="#191970" d="M290,-79.2457C290,-70.2008 290,-60.8836 290,-52.6442"/>
<polygon fill="#191970" stroke="#191970" points="286.5001,-79.2699 290,-89.27 293.5001,-79.27 286.5001,-79.2699"/>
</g>
<!-- Node54 -->
<g id="node11" class="node">
<title>Node54</title>
<g id="a_node11"><a xlink:href="../../d2/dd7/SimpleDigitizerWorkflow_8cxx.html" target="_top" xlink:title="/home/travis/build\l/AliceO2Group/AliceO2\l/Steer/DigitizerWorkflow\l/src/SimpleDigitizerWorkflow.cxx">
<polygon fill="none" stroke="#000000" points="0,-.5 0,-52.5 176,-52.5 176,-.5 0,-.5"/>
<text text-anchor="start" x="8" y="-40.5" font-family="Helvetica,sans-Serif" font-size="10.00" fill="#000000">/home/travis/build</text>
<text text-anchor="start" x="8" y="-29.5" font-family="Helvetica,sans-Serif" font-size="10.00" fill="#000000">/AliceO2Group/AliceO2</text>
<text text-anchor="start" x="8" y="-18.5" font-family="Helvetica,sans-Serif" font-size="10.00" fill="#000000">/Steer/DigitizerWorkflow</text>
<text text-anchor="middle" x="88" y="-7.5" font-family="Helvetica,sans-Serif" font-size="10.00" fill="#000000">/src/SimpleDigitizerWorkflow.cxx</text>
</a>
</g>
</g>
<!-- Node51&#45;&gt;Node54 -->
<g id="edge10" class="edge">
<title>Node51&#45;&gt;Node54</title>
<path fill="none" stroke="#191970" d="M213.3437,-85.1385C190.1896,-74.3065 165.2205,-62.6254 143.7086,-52.5617"/>
<polygon fill="#191970" stroke="#191970" points="211.9151,-88.3342 222.4561,-89.4015 214.8814,-81.9937 211.9151,-88.3342"/>
</g>
</g>
</svg>
