<?xml version="1.0" encoding="UTF-8" standalone="no"?>
<!DOCTYPE svg PUBLIC "-//W3C//DTD SVG 1.1//EN"
 "http://www.w3.org/Graphics/SVG/1.1/DTD/svg11.dtd">
<!-- Generated by graphviz version 2.40.1 (20161225.0304)
 -->
<!-- Title: /home/travis/build/AliceO2Group/AliceO2/Detectors/ITSMFT/ITS/tracking/include/ITStracking/json.h Pages: 1 -->
<svg width="2357pt" height="117pt"
 viewBox="0.00 0.00 2357.00 117.00" xmlns="http://www.w3.org/2000/svg" xmlns:xlink="http://www.w3.org/1999/xlink">
<g id="graph0" class="graph" transform="scale(1 1) rotate(0) translate(4 113)">
<title>/home/travis/build/AliceO2Group/AliceO2/Detectors/ITSMFT/ITS/tracking/include/ITStracking/json.h</title>
<!-- Node0 -->
<g id="node1" class="node">
<title>Node0</title>
<polygon fill="#bfbfbf" stroke="#000000" points="1087,-56.5 1087,-108.5 1275,-108.5 1275,-56.5 1087,-56.5"/>
<text text-anchor="start" x="1095" y="-96.5" font-family="Helvetica,sans-Serif" font-size="10.00" fill="#000000">/home/travis/build</text>
<text text-anchor="start" x="1095" y="-85.5" font-family="Helvetica,sans-Serif" font-size="10.00" fill="#000000">/AliceO2Group/AliceO2</text>
<text text-anchor="start" x="1095" y="-74.5" font-family="Helvetica,sans-Serif" font-size="10.00" fill="#000000">/Detectors/ITSMFT/ITS</text>
<text text-anchor="middle" x="1181" y="-63.5" font-family="Helvetica,sans-Serif" font-size="10.00" fill="#000000">/tracking/include/ITStracking/json.h</text>
</g>
<!-- Node1 -->
<g id="node2" class="node">
<title>Node1</title>
<polygon fill="none" stroke="#bfbfbf" points="0,-.5 0,-19.5 64,-19.5 64,-.5 0,-.5"/>
<text text-anchor="middle" x="32" y="-7.5" font-family="Helvetica,sans-Serif" font-size="10.00" fill="#000000">algorithm</text>
</g>
<!-- Node0&#45;&gt;Node1 -->
<g id="edge1" class="edge">
<title>Node0&#45;&gt;Node1</title>
<path fill="none" stroke="#191970" d="M1086.9087,-79.4079C859.994,-71.5997 286.3785,-49.6777 74.2473,-19.8919"/>
<polygon fill="#191970" stroke="#191970" points="74.5179,-16.3946 64.1189,-18.4222 73.5126,-23.3221 74.5179,-16.3946"/>
</g>
<!-- Node2 -->
<g id="node3" class="node">
<title>Node2</title>
<polygon fill="none" stroke="#bfbfbf" points="82,-.5 82,-19.5 134,-19.5 134,-.5 82,-.5"/>
<text text-anchor="middle" x="108" y="-7.5" font-family="Helvetica,sans-Serif" font-size="10.00" fill="#000000">cassert</text>
</g>
<!-- Node0&#45;&gt;Node2 -->
<g id="edge2" class="edge">
<title>Node0&#45;&gt;Node2</title>
<path fill="none" stroke="#191970" d="M1086.7384,-79.4575C870.2129,-72.05 341.44,-51.4662 144.2147,-19.8198"/>
<polygon fill="#191970" stroke="#191970" points="144.6701,-16.3476 134.2313,-18.1591 143.5214,-23.2527 144.6701,-16.3476"/>
</g>
<!-- Node3 -->
<g id="node4" class="node">
<title>Node3</title>
<polygon fill="none" stroke="#bfbfbf" points="152,-.5 152,-19.5 206,-19.5 206,-.5 152,-.5"/>
<text text-anchor="middle" x="179" y="-7.5" font-family="Helvetica,sans-Serif" font-size="10.00" fill="#000000">ciso646</text>
</g>
<!-- Node0&#45;&gt;Node3 -->
<g id="edge3" class="edge">
<title>Node0&#45;&gt;Node3</title>
<path fill="none" stroke="#191970" d="M1086.7283,-78.8809C881.5918,-70.6095 399.1436,-48.9075 216.4235,-19.8884"/>
<polygon fill="#191970" stroke="#191970" points="216.8216,-16.4069 206.3856,-18.2347 215.6836,-23.3138 216.8216,-16.4069"/>
</g>
<!-- Node4 -->
<g id="node5" class="node">
<title>Node4</title>
<polygon fill="none" stroke="#bfbfbf" points="224.5,-.5 224.5,-19.5 277.5,-19.5 277.5,-.5 224.5,-.5"/>
<text text-anchor="middle" x="251" y="-7.5" font-family="Helvetica,sans-Serif" font-size="10.00" fill="#000000">cstddef</text>
</g>
<!-- Node0&#45;&gt;Node4 -->
<g id="edge4" class="edge">
<title>Node0&#45;&gt;Node4</title>
<path fill="none" stroke="#191970" d="M1086.6336,-78.4064C893.0253,-69.6074 455.6537,-47.5697 287.5783,-19.926"/>
<polygon fill="#191970" stroke="#191970" points="288.0658,-16.4586 277.6193,-18.2249 286.8872,-23.3587 288.0658,-16.4586"/>
</g>
<!-- Node5 -->
<g id="node6" class="node">
<title>Node5</title>
<polygon fill="none" stroke="#bfbfbf" points="295.5,-.5 295.5,-19.5 360.5,-19.5 360.5,-.5 295.5,-.5"/>
<text text-anchor="middle" x="328" y="-7.5" font-family="Helvetica,sans-Serif" font-size="10.00" fill="#000000">functional</text>
</g>
<!-- Node0&#45;&gt;Node5 -->
<g id="edge5" class="edge">
<title>Node0&#45;&gt;Node5</title>
<path fill="none" stroke="#191970" d="M1086.953,-80.2138C937.0097,-75.4748 634.5898,-61.4418 370.7355,-20.0611"/>
<polygon fill="#191970" stroke="#191970" points="371.0013,-16.5597 360.5767,-18.4512 369.9056,-23.4734 371.0013,-16.5597"/>
</g>
<!-- Node6 -->
<g id="node7" class="node">
<title>Node6</title>
<polygon fill="none" stroke="#bfbfbf" points="378.5,-.5 378.5,-19.5 461.5,-19.5 461.5,-.5 378.5,-.5"/>
<text text-anchor="middle" x="420" y="-7.5" font-family="Helvetica,sans-Serif" font-size="10.00" fill="#000000">initializer_list</text>
</g>
<!-- Node0&#45;&gt;Node6 -->
<g id="edge6" class="edge">
<title>Node0&#45;&gt;Node6</title>
<path fill="none" stroke="#191970" d="M1086.8845,-77.5235C952.4151,-69.6779 697.4692,-52.078 471.7306,-20.1267"/>
<polygon fill="#191970" stroke="#191970" points="472.0772,-16.6408 461.6829,-18.6922 471.0878,-23.5705 472.0772,-16.6408"/>
</g>
<!-- Node7 -->
<g id="node8" class="node">
<title>Node7</title>
<polygon fill="none" stroke="#bfbfbf" points="479.5,-.5 479.5,-19.5 528.5,-19.5 528.5,-.5 479.5,-.5"/>
<text text-anchor="middle" x="504" y="-7.5" font-family="Helvetica,sans-Serif" font-size="10.00" fill="#000000">iosfwd</text>
</g>
<!-- Node0&#45;&gt;Node7 -->
<g id="edge7" class="edge">
<title>Node0&#45;&gt;Node7</title>
<path fill="none" stroke="#191970" d="M1086.8375,-79.1816C962.7225,-73.5093 737.7353,-58.7408 538.7862,-20.0477"/>
<polygon fill="#191970" stroke="#191970" points="539.2211,-16.5662 528.7332,-18.0676 537.8683,-23.4342 539.2211,-16.5662"/>
</g>
<!-- Node8 -->
<g id="node9" class="node">
<title>Node8</title>
<polygon fill="none" stroke="#bfbfbf" points="546.5,-.5 546.5,-19.5 599.5,-19.5 599.5,-.5 546.5,-.5"/>
<text text-anchor="middle" x="573" y="-7.5" font-family="Helvetica,sans-Serif" font-size="10.00" fill="#000000">iterator</text>
</g>
<!-- Node0&#45;&gt;Node8 -->
<g id="edge8" class="edge">
<title>Node0&#45;&gt;Node8</title>
<path fill="none" stroke="#191970" d="M1086.9249,-76.914C975.1687,-69.2221 783.135,-52.6767 609.7009,-19.8438"/>
<polygon fill="#191970" stroke="#191970" points="610.1021,-16.3571 599.6222,-17.9132 608.7852,-23.2321 610.1021,-16.3571"/>
</g>
<!-- Node9 -->
<g id="node10" class="node">
<title>Node9</title>
<polygon fill="none" stroke="#bfbfbf" points="618,-.5 618,-19.5 674,-19.5 674,-.5 618,-.5"/>
<text text-anchor="middle" x="646" y="-7.5" font-family="Helvetica,sans-Serif" font-size="10.00" fill="#000000">numeric</text>
</g>
<!-- Node0&#45;&gt;Node9 -->
<g id="edge9" class="edge">
<title>Node0&#45;&gt;Node9</title>
<path fill="none" stroke="#191970" d="M1086.7578,-74.6114C988.406,-65.4837 829.6829,-48.2354 684.1935,-20.0144"/>
<polygon fill="#191970" stroke="#191970" points="684.6733,-16.5419 674.1866,-18.0517 683.3259,-23.411 684.6733,-16.5419"/>
</g>
<!-- Node10 -->
<g id="node11" class="node">
<title>Node10</title>
<polygon fill="none" stroke="#bfbfbf" points="692,-.5 692,-19.5 736,-19.5 736,-.5 692,-.5"/>
<text text-anchor="middle" x="714" y="-7.5" font-family="Helvetica,sans-Serif" font-size="10.00" fill="#000000">string</text>
</g>
<!-- Node0&#45;&gt;Node10 -->
<g id="edge10" class="edge">
<title>Node0&#45;&gt;Node10</title>
<path fill="none" stroke="#191970" d="M1086.5936,-73.6411C1000.0475,-64.4508 868.3885,-47.7798 746.135,-19.9533"/>
<polygon fill="#191970" stroke="#191970" points="746.7552,-16.5045 736.2245,-17.6679 745.1823,-23.3255 746.7552,-16.5045"/>
</g>
<!-- Node11 -->
<g id="node12" class="node">
<title>Node11</title>
<polygon fill="none" stroke="#bfbfbf" points="754.5,-.5 754.5,-19.5 799.5,-19.5 799.5,-.5 754.5,-.5"/>
<text text-anchor="middle" x="777" y="-7.5" font-family="Helvetica,sans-Serif" font-size="10.00" fill="#000000">utility</text>
</g>
<!-- Node0&#45;&gt;Node11 -->
<g id="edge11" class="edge">
<title>Node0&#45;&gt;Node11</title>
<path fill="none" stroke="#191970" d="M1086.6459,-70.2767C1013.4571,-59.9547 909.4324,-43.4523 809.5794,-19.8675"/>
<polygon fill="#191970" stroke="#191970" points="810.1589,-16.4075 799.6193,-17.4878 808.5322,-23.2159 810.1589,-16.4075"/>
</g>
<!-- Node12 -->
<g id="node13" class="node">
<title>Node12</title>
<polygon fill="none" stroke="#bfbfbf" points="818,-.5 818,-19.5 868,-19.5 868,-.5 818,-.5"/>
<text text-anchor="middle" x="843" y="-7.5" font-family="Helvetica,sans-Serif" font-size="10.00" fill="#000000">cstdint</text>
</g>
<!-- Node0&#45;&gt;Node12 -->
<g id="edge12" class="edge">
<title>Node0&#45;&gt;Node12</title>
<path fill="none" stroke="#191970" d="M1086.7347,-65.2199C1029.0564,-54.1519 953.6052,-38.794 878.3244,-20.1875"/>
<polygon fill="#191970" stroke="#191970" points="878.7367,-16.6833 868.1871,-17.6618 877.0443,-23.4757 878.7367,-16.6833"/>
</g>
<!-- Node13 -->
<g id="node14" class="node">
<title>Node13</title>
<polygon fill="none" stroke="#bfbfbf" points="886,-.5 886,-19.5 924,-19.5 924,-.5 886,-.5"/>
<text text-anchor="middle" x="905" y="-7.5" font-family="Helvetica,sans-Serif" font-size="10.00" fill="#000000">map</text>
</g>
<!-- Node0&#45;&gt;Node13 -->
<g id="edge13" class="edge">
<title>Node0&#45;&gt;Node13</title>
<path fill="none" stroke="#191970" d="M1086.7913,-61.0146C1042.7658,-50.4341 989.5339,-36.874 933.8805,-20.0783"/>
<polygon fill="#191970" stroke="#191970" points="934.7845,-16.695 924.1987,-17.1308 932.7458,-23.3916 934.7845,-16.695"/>
</g>
<!-- Node14 -->
<g id="node15" class="node">
<title>Node14</title>
<polygon fill="none" stroke="#bfbfbf" points="942,-.5 942,-19.5 1000,-19.5 1000,-.5 942,-.5"/>
<text text-anchor="middle" x="971" y="-7.5" font-family="Helvetica,sans-Serif" font-size="10.00" fill="#000000">memory</text>
</g>
<!-- Node0&#45;&gt;Node14 -->
<g id="edge14" class="edge">
<title>Node0&#45;&gt;Node14</title>
<path fill="none" stroke="#191970" d="M1105.4819,-56.4283C1072.5334,-45.0532 1035.3703,-32.2231 1008.4739,-22.9374"/>
<polygon fill="#191970" stroke="#191970" points="1009.2933,-19.5176 998.6985,-19.5626 1007.0088,-26.1344 1009.2933,-19.5176"/>
</g>
<!-- Node15 -->
<g id="node16" class="node">
<title>Node15</title>
<polygon fill="none" stroke="#bfbfbf" points="1018.5,-.5 1018.5,-19.5 1065.5,-19.5 1065.5,-.5 1018.5,-.5"/>
<text text-anchor="middle" x="1042" y="-7.5" font-family="Helvetica,sans-Serif" font-size="10.00" fill="#000000">vector</text>
</g>
<!-- Node0&#45;&gt;Node15 -->
<g id="edge15" class="edge">
<title>Node0&#45;&gt;Node15</title>
<path fill="none" stroke="#191970" d="M1130.8178,-56.3258C1110.0841,-45.5115 1086.8588,-33.3976 1069.3595,-24.2703"/>
<polygon fill="#191970" stroke="#191970" points="1070.764,-21.0554 1060.279,-19.534 1067.5268,-27.2619 1070.764,-21.0554"/>
</g>
<!-- Node16 -->
<g id="node17" class="node">
<title>Node16</title>
<polygon fill="none" stroke="#bfbfbf" points="1084,-.5 1084,-19.5 1128,-19.5 1128,-.5 1084,-.5"/>
<text text-anchor="middle" x="1106" y="-7.5" font-family="Helvetica,sans-Serif" font-size="10.00" fill="#000000">limits</text>
</g>
<!-- Node0&#45;&gt;Node16 -->
<g id="edge16" class="edge">
<title>Node0&#45;&gt;Node16</title>
<path fill="none" stroke="#191970" d="M1153.9233,-56.3258C1143.6683,-46.4127 1132.2837,-35.4075 1123.1847,-26.6118"/>
<polygon fill="#191970" stroke="#191970" points="1125.4853,-23.9678 1115.8628,-19.534 1120.6201,-29.0007 1125.4853,-23.9678"/>
</g>
<!-- Node17 -->
<g id="node18" class="node">
<title>Node17</title>
<polygon fill="none" stroke="#bfbfbf" points="1146.5,-.5 1146.5,-19.5 1215.5,-19.5 1215.5,-.5 1146.5,-.5"/>
<text text-anchor="middle" x="1181" y="-7.5" font-family="Helvetica,sans-Serif" font-size="10.00" fill="#000000">type_traits</text>
</g>
<!-- Node0&#45;&gt;Node17 -->
<g id="edge17" class="edge">
<title>Node0&#45;&gt;Node17</title>
<path fill="none" stroke="#191970" d="M1181,-56.3258C1181,-47.5142 1181,-37.8397 1181,-29.621"/>
<polygon fill="#191970" stroke="#191970" points="1184.5001,-29.534 1181,-19.534 1177.5001,-29.534 1184.5001,-29.534"/>
</g>
<!-- Node18 -->
<g id="node19" class="node">
<title>Node18</title>
<polygon fill="none" stroke="#bfbfbf" points="1233.5,-.5 1233.5,-19.5 1298.5,-19.5 1298.5,-.5 1233.5,-.5"/>
<text text-anchor="middle" x="1266" y="-7.5" font-family="Helvetica,sans-Serif" font-size="10.00" fill="#000000">exception</text>
</g>
<!-- Node0&#45;&gt;Node18 -->
<g id="edge18" class="edge">
<title>Node0&#45;&gt;Node18</title>
<path fill="none" stroke="#191970" d="M1211.687,-56.3258C1223.544,-46.2124 1236.7337,-34.9624 1247.1458,-26.0815"/>
<polygon fill="#191970" stroke="#191970" points="1249.4852,-28.6864 1254.8222,-19.534 1244.9425,-23.3606 1249.4852,-28.6864"/>
</g>
<!-- Node19 -->
<g id="node20" class="node">
<title>Node19</title>
<polygon fill="none" stroke="#bfbfbf" points="1316.5,-.5 1316.5,-19.5 1381.5,-19.5 1381.5,-.5 1316.5,-.5"/>
<text text-anchor="middle" x="1349" y="-7.5" font-family="Helvetica,sans-Serif" font-size="10.00" fill="#000000">stdexcept</text>
</g>
<!-- Node0&#45;&gt;Node19 -->
<g id="edge19" class="edge">
<title>Node0&#45;&gt;Node19</title>
<path fill="none" stroke="#191970" d="M1241.6519,-56.3258C1267.4074,-45.2111 1296.344,-32.7236 1317.6787,-23.5167"/>
<polygon fill="#191970" stroke="#191970" points="1319.1127,-26.7099 1326.9074,-19.534 1316.3391,-20.2828 1319.1127,-26.7099"/>
</g>
<!-- Node20 -->
<g id="node21" class="node">
<title>Node20</title>
<polygon fill="none" stroke="#bfbfbf" points="1400,-.5 1400,-19.5 1442,-19.5 1442,-.5 1400,-.5"/>
<text text-anchor="middle" x="1421" y="-7.5" font-family="Helvetica,sans-Serif" font-size="10.00" fill="#000000">array</text>
</g>
<!-- Node0&#45;&gt;Node20 -->
<g id="edge20" class="edge">
<title>Node0&#45;&gt;Node20</title>
<path fill="none" stroke="#191970" d="M1270.8662,-56.4513C1305.575,-46.222 1345.7975,-34.1645 1389.9423,-20.2745"/>
<polygon fill="#191970" stroke="#191970" points="1391.2399,-23.5352 1399.7225,-17.1873 1389.1327,-16.8598 1391.2399,-23.5352"/>
</g>
<!-- Node21 -->
<g id="node22" class="node">
<title>Node21</title>
<polygon fill="none" stroke="#bfbfbf" points="1460,-.5 1460,-19.5 1534,-19.5 1534,-.5 1460,-.5"/>
<text text-anchor="middle" x="1497" y="-7.5" font-family="Helvetica,sans-Serif" font-size="10.00" fill="#000000">forward_list</text>
</g>
<!-- Node0&#45;&gt;Node21 -->
<g id="edge21" class="edge">
<title>Node0&#45;&gt;Node21</title>
<path fill="none" stroke="#191970" d="M1275.3824,-60.8458C1332.8686,-47.6567 1403.843,-31.3731 1449.7405,-20.8428"/>
<polygon fill="#191970" stroke="#191970" points="1450.7431,-24.2038 1459.7072,-18.5561 1449.1777,-17.381 1450.7431,-24.2038"/>
</g>
<!-- Node22 -->
<g id="node23" class="node">
<title>Node22</title>
<polygon fill="none" stroke="#bfbfbf" points="1552.5,-.5 1552.5,-19.5 1593.5,-19.5 1593.5,-.5 1552.5,-.5"/>
<text text-anchor="middle" x="1573" y="-7.5" font-family="Helvetica,sans-Serif" font-size="10.00" fill="#000000">tuple</text>
</g>
<!-- Node0&#45;&gt;Node22 -->
<g id="edge22" class="edge">
<title>Node0&#45;&gt;Node22</title>
<path fill="none" stroke="#191970" d="M1275.1904,-70.2134C1346.29,-60.0174 1446.2601,-43.7183 1542.5568,-19.7913"/>
<polygon fill="#191970" stroke="#191970" points="1543.62,-23.133 1552.4639,-17.2991 1541.9122,-16.3445 1543.62,-23.133"/>
</g>
<!-- Node23 -->
<g id="node24" class="node">
<title>Node23</title>
<polygon fill="none" stroke="#bfbfbf" points="1611.5,-.5 1611.5,-19.5 1668.5,-19.5 1668.5,-.5 1611.5,-.5"/>
<text text-anchor="middle" x="1640" y="-7.5" font-family="Helvetica,sans-Serif" font-size="10.00" fill="#000000">valarray</text>
</g>
<!-- Node0&#45;&gt;Node23 -->
<g id="edge23" class="edge">
<title>Node0&#45;&gt;Node23</title>
<path fill="none" stroke="#191970" d="M1275.4175,-71.725C1358.9622,-61.4526 1484.2646,-44.2469 1601.527,-20.1352"/>
<polygon fill="#191970" stroke="#191970" points="1602.3172,-23.5459 1611.3964,-18.0853 1600.8936,-16.6921 1602.3172,-23.5459"/>
</g>
<!-- Node24 -->
<g id="node25" class="node">
<title>Node24</title>
<polygon fill="none" stroke="#bfbfbf" points="1687,-.5 1687,-19.5 1737,-19.5 1737,-.5 1687,-.5"/>
<text text-anchor="middle" x="1712" y="-7.5" font-family="Helvetica,sans-Serif" font-size="10.00" fill="#000000">cstring</text>
</g>
<!-- Node0&#45;&gt;Node24 -->
<g id="edge24" class="edge">
<title>Node0&#45;&gt;Node24</title>
<path fill="none" stroke="#191970" d="M1275.1758,-75.2042C1373.4303,-66.5604 1531.918,-49.7142 1676.8926,-19.955"/>
<polygon fill="#191970" stroke="#191970" points="1677.7847,-23.3445 1686.8635,-17.8832 1676.3606,-16.4909 1677.7847,-23.3445"/>
</g>
<!-- Node25 -->
<g id="node26" class="node">
<title>Node25</title>
<polygon fill="none" stroke="#bfbfbf" points="1755.5,-.5 1755.5,-19.5 1786.5,-19.5 1786.5,-.5 1755.5,-.5"/>
<text text-anchor="middle" x="1771" y="-7.5" font-family="Helvetica,sans-Serif" font-size="10.00" fill="#000000">ios</text>
</g>
<!-- Node0&#45;&gt;Node25 -->
<g id="edge25" class="edge">
<title>Node0&#45;&gt;Node25</title>
<path fill="none" stroke="#191970" d="M1275.0973,-79.8421C1386.2079,-74.9712 1576.2058,-61.1972 1745.5079,-19.4708"/>
<polygon fill="#191970" stroke="#191970" points="1746.4927,-22.8324 1755.3436,-17.009 1744.793,-16.0418 1746.4927,-22.8324"/>
</g>
<!-- Node26 -->
<g id="node27" class="node">
<title>Node26</title>
<polygon fill="none" stroke="#bfbfbf" points="1805,-.5 1805,-19.5 1859,-19.5 1859,-.5 1805,-.5"/>
<text text-anchor="middle" x="1832" y="-7.5" font-family="Helvetica,sans-Serif" font-size="10.00" fill="#000000">istream</text>
</g>
<!-- Node0&#45;&gt;Node26 -->
<g id="edge26" class="edge">
<title>Node0&#45;&gt;Node26</title>
<path fill="none" stroke="#191970" d="M1275.2207,-77.9C1394.4425,-70.9643 1606.024,-54.9402 1795.1452,-19.8789"/>
<polygon fill="#191970" stroke="#191970" points="1795.8055,-23.3162 1804.9889,-18.0328 1794.5151,-16.4362 1795.8055,-23.3162"/>
</g>
<!-- Node27 -->
<g id="node28" class="node">
<title>Node27</title>
<polygon fill="none" stroke="#bfbfbf" points="1877.5,-.5 1877.5,-19.5 1928.5,-19.5 1928.5,-.5 1877.5,-.5"/>
<text text-anchor="middle" x="1903" y="-7.5" font-family="Helvetica,sans-Serif" font-size="10.00" fill="#000000">clocale</text>
</g>
<!-- Node0&#45;&gt;Node27 -->
<g id="edge27" class="edge">
<title>Node0&#45;&gt;Node27</title>
<path fill="none" stroke="#191970" d="M1275.1043,-79.5219C1406.1485,-74.1325 1650.8898,-59.5614 1867.1833,-19.825"/>
<polygon fill="#191970" stroke="#191970" points="1867.9437,-23.2437 1877.1355,-17.975 1866.6642,-16.3616 1867.9437,-23.2437"/>
</g>
<!-- Node28 -->
<g id="node29" class="node">
<title>Node28</title>
<polygon fill="none" stroke="#bfbfbf" points="1946.5,-.5 1946.5,-19.5 1995.5,-19.5 1995.5,-.5 1946.5,-.5"/>
<text text-anchor="middle" x="1971" y="-7.5" font-family="Helvetica,sans-Serif" font-size="10.00" fill="#000000">cstdlib</text>
</g>
<!-- Node0&#45;&gt;Node28 -->
<g id="edge28" class="edge">
<title>Node0&#45;&gt;Node28</title>
<path fill="none" stroke="#191970" d="M1275.2852,-77.2174C1444.8185,-67.3138 1795.7997,-44.8606 1936.1402,-19.9791"/>
<polygon fill="#191970" stroke="#191970" points="1937.0768,-23.3654 1946.2744,-18.1068 1935.8049,-16.4819 1937.0768,-23.3654"/>
</g>
<!-- Node29 -->
<g id="node30" class="node">
<title>Node29</title>
<polygon fill="none" stroke="#bfbfbf" points="2014,-.5 2014,-19.5 2070,-19.5 2070,-.5 2014,-.5"/>
<text text-anchor="middle" x="2042" y="-7.5" font-family="Helvetica,sans-Serif" font-size="10.00" fill="#000000">iomanip</text>
</g>
<!-- Node0&#45;&gt;Node29 -->
<g id="edge29" class="edge">
<title>Node0&#45;&gt;Node29</title>
<path fill="none" stroke="#191970" d="M1275.3111,-81.1032C1427.2755,-77.5833 1735.5848,-65.1976 2003.9111,-19.892"/>
<polygon fill="#191970" stroke="#191970" points="2004.5717,-23.3299 2013.8402,-18.1972 2003.3939,-16.4297 2004.5717,-23.3299"/>
</g>
<!-- Node30 -->
<g id="node31" class="node">
<title>Node30</title>
<polygon fill="none" stroke="#bfbfbf" points="2088,-.5 2088,-19.5 2144,-19.5 2144,-.5 2088,-.5"/>
<text text-anchor="middle" x="2116" y="-7.5" font-family="Helvetica,sans-Serif" font-size="10.00" fill="#000000">sstream</text>
</g>
<!-- Node0&#45;&gt;Node30 -->
<g id="edge30" class="edge">
<title>Node0&#45;&gt;Node30</title>
<path fill="none" stroke="#191970" d="M1275.2779,-78.2655C1469.2868,-69.1784 1908.4782,-46.5883 2077.8082,-19.8589"/>
<polygon fill="#191970" stroke="#191970" points="2078.5404,-23.2857 2087.8434,-18.2157 2077.4092,-16.3777 2078.5404,-23.2857"/>
</g>
<!-- Node31 -->
<g id="node32" class="node">
<title>Node31</title>
<polygon fill="none" stroke="#bfbfbf" points="2162.5,-.5 2162.5,-19.5 2209.5,-19.5 2209.5,-.5 2162.5,-.5"/>
<text text-anchor="middle" x="2186" y="-7.5" font-family="Helvetica,sans-Serif" font-size="10.00" fill="#000000">cmath</text>
</g>
<!-- Node0&#45;&gt;Node31 -->
<g id="edge31" class="edge">
<title>Node0&#45;&gt;Node31</title>
<path fill="none" stroke="#191970" d="M1275.1184,-79.2075C1481.2747,-71.5554 1968.2823,-50.9631 2152.5093,-19.6139"/>
<polygon fill="#191970" stroke="#191970" points="2153.1282,-23.0589 2162.3668,-17.8727 2151.9104,-16.1656 2153.1282,-23.0589"/>
</g>
<!-- Node32 -->
<g id="node33" class="node">
<title>Node32</title>
<polygon fill="none" stroke="#bfbfbf" points="2227.5,-.5 2227.5,-19.5 2284.5,-19.5 2284.5,-.5 2227.5,-.5"/>
<text text-anchor="middle" x="2256" y="-7.5" font-family="Helvetica,sans-Serif" font-size="10.00" fill="#000000">ostream</text>
</g>
<!-- Node0&#45;&gt;Node32 -->
<g id="edge32" class="edge">
<title>Node0&#45;&gt;Node32</title>
<path fill="none" stroke="#191970" d="M1275.2331,-79.2868C1491.6975,-71.5144 2020.3485,-50.201 2217.4652,-19.923"/>
<polygon fill="#191970" stroke="#191970" points="2218.1171,-23.3634 2227.443,-18.3356 2217.0172,-16.4503 2218.1171,-23.3634"/>
</g>
<!-- Node33 -->
<g id="node34" class="node">
<title>Node33</title>
<polygon fill="none" stroke="#bfbfbf" points="2303,-.5 2303,-19.5 2349,-19.5 2349,-.5 2303,-.5"/>
<text text-anchor="middle" x="2326" y="-7.5" font-family="Helvetica,sans-Serif" font-size="10.00" fill="#000000">cstdio</text>
</g>
<!-- Node0&#45;&gt;Node33 -->
<g id="edge33" class="edge">
<title>Node0&#45;&gt;Node33</title>
<path fill="none" stroke="#191970" d="M1275.2162,-80.1963C1503.144,-74.1502 2080.5236,-55.8869 2292.624,-19.7835"/>
<polygon fill="#191970" stroke="#191970" points="2293.5091,-23.1815 2302.7478,-17.9953 2292.2914,-16.2882 2293.5091,-23.1815"/>
</g>
</g>
</svg>
