<?xml version="1.0" encoding="UTF-8" standalone="no"?>
<!DOCTYPE svg PUBLIC "-//W3C//DTD SVG 1.1//EN"
 "http://www.w3.org/Graphics/SVG/1.1/DTD/svg11.dtd">
<!-- Generated by graphviz version 2.40.1 (20161225.0304)
 -->
<!-- Title: /home/travis/build/AliceO2Group/AliceO2/GPU/GPUTracking/TRDTracking/GPUTRDTrackletReaderComponent.cxx Pages: 1 -->
<!--zoomable 285 -->
<svg id="main" version="1.1" xmlns="http://www.w3.org/2000/svg" xmlns:xlink="http://www.w3.org/1999/xlink" xml:space="preserve" onload="init(evt)">
<style type="text/css"><![CDATA[
.edge:hover path { stroke: red; }
.edge:hover polygon { stroke: red; fill: red; }
]]></style>
<script type="text/javascript"><![CDATA[
var edges = document.getElementsByTagName('g');
if (edges && edges.length) {
  for (var i=0;i<edges.length;i++) {
    if (edges[i].id.substr(0,4)=='edge') {
      edges[i].setAttribute('class','edge');
    }
  }
}
]]></script>
        <defs>
                <circle id="rim" cx="0" cy="0" r="7"/>
                <circle id="rim2" cx="0" cy="0" r="3.5"/>
                <g id="zoomPlus">
                        <use xlink:href="#rim" fill="#404040">
                                <set attributeName="fill" to="#808080" begin="zoomplus.mouseover" end="zoomplus.mouseout"/>
                        </use>
                        <path d="M-4,0h8M0,-4v8" fill="none" stroke="white" stroke-width="1.5" pointer-events="none"/>
                </g>
                <g id="zoomMin">
                        <use xlink:href="#rim" fill="#404040">
                                <set attributeName="fill" to="#808080" begin="zoomminus.mouseover" end="zoomminus.mouseout"/>
                        </use>
                        <path d="M-4,0h8" fill="none" stroke="white" stroke-width="1.5" pointer-events="none"/>
                </g>
                <g id="dirArrow">
                        <path fill="none" stroke="white" stroke-width="1.5" d="M0,-3.0v7 M-2.5,-0.5L0,-3.0L2.5,-0.5"/>
                </g>
               <g id="resetDef">
                       <use xlink:href="#rim2" fill="#404040">
                               <set attributeName="fill" to="#808080" begin="reset.mouseover" end="reset.mouseout"/>
                       </use>
               </g>
        </defs>

<script type="text/javascript">
var viewWidth = 1951;
var viewHeight = 285;
var sectionId = 'dynsection-0';
</script>
<script xlink:href="../../svgpan.js"/>
<svg id="graph" class="graph">
<g id="viewport">
<title>/home/travis/build/AliceO2Group/AliceO2/GPU/GPUTracking/TRDTracking/GPUTRDTrackletReaderComponent.cxx</title>
<!-- Node0 -->
<g id="node1" class="node">
<title>Node0</title>
<polygon fill="#bfbfbf" stroke="#000000" points="943,-224.5 943,-276.5 1152,-276.5 1152,-224.5 943,-224.5"/>
<text text-anchor="start" x="951" y="-264.5" font-family="Helvetica,sans-Serif" font-size="10.00" fill="#000000">/home/travis/build</text>
<text text-anchor="start" x="951" y="-253.5" font-family="Helvetica,sans-Serif" font-size="10.00" fill="#000000">/AliceO2Group/AliceO2</text>
<text text-anchor="start" x="951" y="-242.5" font-family="Helvetica,sans-Serif" font-size="10.00" fill="#000000">/GPU/GPUTracking/TRDTracking</text>
<text text-anchor="middle" x="1047.5" y="-231.5" font-family="Helvetica,sans-Serif" font-size="10.00" fill="#000000">/GPUTRDTrackletReaderComponent.cxx</text>
</g>
<!-- Node1 -->
<g id="node2" class="node">
<title>Node1</title>
<polygon fill="none" stroke="#bfbfbf" points="0,-168.5 0,-187.5 49,-187.5 49,-168.5 0,-168.5"/>
<text text-anchor="middle" x="24.5" y="-175.5" font-family="Helvetica,sans-Serif" font-size="10.00" fill="#000000">cstdlib</text>
</g>
<!-- Node0&#45;&gt;Node1 -->
<g id="edge1" class="edge">
<title>Node0&#45;&gt;Node1</title>
<path fill="none" stroke="#191970" d="M942.7941,-246.8389C728.1861,-238.8598 243.8312,-218.2896 59.118,-187.667"/>
<polygon fill="#191970" stroke="#191970" points="59.6789,-184.2122 49.2304,-185.9666 58.4925,-191.1109 59.6789,-184.2122"/>
</g>
<!-- Node2 -->
<g id="node3" class="node">
<title>Node2</title>
<polygon fill="none" stroke="#bfbfbf" points="67.5,-168.5 67.5,-187.5 123.5,-187.5 123.5,-168.5 67.5,-168.5"/>
<text text-anchor="middle" x="95.5" y="-175.5" font-family="Helvetica,sans-Serif" font-size="10.00" fill="#000000">AliLog.h</text>
</g>
<!-- Node0&#45;&gt;Node2 -->
<g id="edge2" class="edge">
<title>Node0&#45;&gt;Node2</title>
<path fill="none" stroke="#191970" d="M942.8783,-245.935C741.0633,-236.712 303.6744,-214.5905 133.7319,-187.8632"/>
<polygon fill="#191970" stroke="#191970" points="134.0891,-184.3753 123.656,-186.2195 132.962,-191.284 134.0891,-184.3753"/>
</g>
<!-- Node3 -->
<g id="node4" class="node">
<title>Node3</title>
<g id="a_node4"><a xlink:href="../../d6/d34/AliHLTDataTypes_8h.html" target="_top" xlink:title="Data type declaration for the HLT module. ">
<polygon fill="none" stroke="#000000" points="142,-168.5 142,-187.5 249,-187.5 249,-168.5 142,-168.5"/>
<text text-anchor="middle" x="195.5" y="-175.5" font-family="Helvetica,sans-Serif" font-size="10.00" fill="#000000">AliHLTDataTypes.h</text>
</a>
</g>
</g>
<!-- Node0&#45;&gt;Node3 -->
<g id="edge3" class="edge">
<title>Node0&#45;&gt;Node3</title>
<path fill="none" stroke="#191970" d="M942.9055,-244.8312C793.5732,-236.1523 510.5016,-217.5325 259.1338,-187.9869"/>
<polygon fill="#191970" stroke="#191970" points="259.4185,-184.4963 249.0765,-186.7969 258.5959,-191.4478 259.4185,-184.4963"/>
</g>
<!-- Node4 -->
<g id="node5" class="node">
<title>Node4</title>
<polygon fill="none" stroke="#bfbfbf" points="267.5,-168.5 267.5,-187.5 395.5,-187.5 395.5,-168.5 267.5,-168.5"/>
<text text-anchor="middle" x="331.5" y="-175.5" font-family="Helvetica,sans-Serif" font-size="10.00" fill="#000000">AliHLTTRDDefinitions.h</text>
</g>
<!-- Node0&#45;&gt;Node4 -->
<g id="edge4" class="edge">
<title>Node0&#45;&gt;Node4</title>
<path fill="none" stroke="#191970" d="M942.9556,-241.608C817.7883,-230.6739 601.5617,-210.8735 405.7696,-188.1122"/>
<polygon fill="#191970" stroke="#191970" points="405.9144,-184.6055 395.576,-186.9223 405.1027,-191.5582 405.9144,-184.6055"/>
</g>
<!-- Node5 -->
<g id="node6" class="node">
<title>Node5</title>
<g id="a_node6"><a xlink:href="../../dc/d2e/GPUTRDTrackletReaderComponent_8h.html" target="_top" xlink:title="A pre&#45;processing component for TRD tracking/trigger data on FEP&#45;level. ">
<polygon fill="none" stroke="#000000" points="414,-168.5 414,-187.5 609,-187.5 609,-168.5 414,-168.5"/>
<text text-anchor="middle" x="511.5" y="-175.5" font-family="Helvetica,sans-Serif" font-size="10.00" fill="#000000">GPUTRDTrackletReaderComponent.h</text>
</a>
</g>
</g>
<!-- Node0&#45;&gt;Node5 -->
<g id="edge5" class="edge">
<title>Node0&#45;&gt;Node5</title>
<path fill="none" stroke="#191970" d="M942.8814,-236.3492C840.1462,-222.4531 685.6135,-201.5508 592.0774,-188.899"/>
<polygon fill="#191970" stroke="#191970" points="592.4801,-185.4217 582.1012,-187.5496 591.5418,-192.3585 592.4801,-185.4217"/>
</g>
<!-- Node7 -->
<g id="node8" class="node">
<title>Node7</title>
<polygon fill="none" stroke="#bfbfbf" points="627,-168.5 627,-187.5 758,-187.5 758,-168.5 627,-168.5"/>
<text text-anchor="middle" x="692.5" y="-175.5" font-family="Helvetica,sans-Serif" font-size="10.00" fill="#000000">AliRawReaderMemory.h</text>
</g>
<!-- Node0&#45;&gt;Node7 -->
<g id="edge7" class="edge">
<title>Node0&#45;&gt;Node7</title>
<path fill="none" stroke="#191970" d="M942.9084,-229.1397C879.6338,-216.2175 801.3983,-200.2398 749.3846,-189.6173"/>
<polygon fill="#191970" stroke="#191970" points="749.8418,-186.1385 739.3437,-187.5667 748.4411,-192.9969 749.8418,-186.1385"/>
</g>
<!-- Node8 -->
<g id="node9" class="node">
<title>Node8</title>
<polygon fill="none" stroke="#bfbfbf" points="776.5,-168.5 776.5,-187.5 888.5,-187.5 888.5,-168.5 776.5,-168.5"/>
<text text-anchor="middle" x="832.5" y="-175.5" font-family="Helvetica,sans-Serif" font-size="10.00" fill="#000000">AliTRDrawStream.h</text>
</g>
<!-- Node0&#45;&gt;Node8 -->
<g id="edge8" class="edge">
<title>Node0&#45;&gt;Node8</title>
<path fill="none" stroke="#191970" d="M970.1838,-224.4283C936.3023,-213.0031 898.0676,-200.11 870.5029,-190.8149"/>
<polygon fill="#191970" stroke="#191970" points="871.4521,-187.4414 860.858,-187.5626 869.2154,-194.0745 871.4521,-187.4414"/>
</g>
<!-- Node9 -->
<g id="node10" class="node">
<title>Node9</title>
<g id="a_node10"><a xlink:href="../../df/d3c/GPUTRDTrackletWord_8h.html" target="_top" xlink:title="TRD Tracklet word for GPU tracker &#45; 32bit tracklet info + half chamber ID + index. ">
<polygon fill="none" stroke="#000000" points="906.5,-168.5 906.5,-187.5 1036.5,-187.5 1036.5,-168.5 906.5,-168.5"/>
<text text-anchor="middle" x="971.5" y="-175.5" font-family="Helvetica,sans-Serif" font-size="10.00" fill="#000000">GPUTRDTrackletWord.h</text>
</a>
</g>
</g>
<!-- Node0&#45;&gt;Node9 -->
<g id="edge9" class="edge">
<title>Node0&#45;&gt;Node9</title>
<path fill="none" stroke="#191970" d="M1020.0623,-224.3258C1009.6706,-214.4127 998.1341,-203.4075 988.9138,-194.6118"/>
<polygon fill="#191970" stroke="#191970" points="991.1459,-191.904 981.4943,-187.534 986.3141,-196.969 991.1459,-191.904"/>
</g>
<!-- Node20 -->
<g id="node21" class="node">
<title>Node20</title>
<g id="a_node21"><a xlink:href="../../d5/df2/GPUTRDTrackletLabels_8h.html" target="_top" xlink:title="Used for storing the MC labels for the TRD tracklets. ">
<polygon fill="none" stroke="#000000" points="1055,-168.5 1055,-187.5 1192,-187.5 1192,-168.5 1055,-168.5"/>
<text text-anchor="middle" x="1123.5" y="-175.5" font-family="Helvetica,sans-Serif" font-size="10.00" fill="#000000">GPUTRDTrackletLabels.h</text>
</a>
</g>
</g>
<!-- Node0&#45;&gt;Node20 -->
<g id="edge20" class="edge">
<title>Node0&#45;&gt;Node20</title>
<path fill="none" stroke="#191970" d="M1074.9377,-224.3258C1085.3294,-214.4127 1096.8659,-203.4075 1106.0862,-194.6118"/>
<polygon fill="#191970" stroke="#191970" points="1108.6859,-196.969 1113.5057,-187.534 1103.8541,-191.904 1108.6859,-196.969"/>
</g>
<!-- Node21 -->
<g id="node22" class="node">
<title>Node21</title>
<polygon fill="none" stroke="#bfbfbf" points="1210,-168.5 1210,-187.5 1331,-187.5 1331,-168.5 1210,-168.5"/>
<text text-anchor="middle" x="1270.5" y="-175.5" font-family="Helvetica,sans-Serif" font-size="10.00" fill="#000000">AliTRDtrackletWord.h</text>
</g>
<!-- Node0&#45;&gt;Node21 -->
<g id="edge21" class="edge">
<title>Node0&#45;&gt;Node21</title>
<path fill="none" stroke="#191970" d="M1127.6931,-224.4283C1162.9895,-212.953 1202.8406,-199.9969 1231.4586,-190.6928"/>
<polygon fill="#191970" stroke="#191970" points="1232.659,-193.983 1241.0868,-187.5626 1230.4946,-187.326 1232.659,-193.983"/>
</g>
<!-- Node22 -->
<g id="node23" class="node">
<title>Node22</title>
<polygon fill="none" stroke="#bfbfbf" points="1349,-168.5 1349,-187.5 1468,-187.5 1468,-168.5 1349,-168.5"/>
<text text-anchor="middle" x="1408.5" y="-175.5" font-family="Helvetica,sans-Serif" font-size="10.00" fill="#000000">AliTRDtrackletMCM.h</text>
</g>
<!-- Node0&#45;&gt;Node22 -->
<g id="edge22" class="edge">
<title>Node0&#45;&gt;Node22</title>
<path fill="none" stroke="#191970" d="M1152.4011,-229.4326C1217.1353,-216.432 1297.7036,-200.2513 1350.9945,-189.5489"/>
<polygon fill="#191970" stroke="#191970" points="1351.8316,-192.9507 1360.9467,-187.5502 1350.4533,-186.0878 1351.8316,-192.9507"/>
</g>
<!-- Node23 -->
<g id="node24" class="node">
<title>Node23</title>
<polygon fill="none" stroke="#bfbfbf" points="1486.5,-168.5 1486.5,-187.5 1538.5,-187.5 1538.5,-168.5 1486.5,-168.5"/>
<text text-anchor="middle" x="1512.5" y="-175.5" font-family="Helvetica,sans-Serif" font-size="10.00" fill="#000000">TTree.h</text>
</g>
<!-- Node0&#45;&gt;Node23 -->
<g id="edge23" class="edge">
<title>Node0&#45;&gt;Node23</title>
<path fill="none" stroke="#191970" d="M1152.026,-239.2796C1237.056,-229.2316 1360.2037,-212.5913 1476.1073,-188.0798"/>
<polygon fill="#191970" stroke="#191970" points="1477.1752,-191.4306 1486.222,-185.9165 1475.7111,-184.5855 1477.1752,-191.4306"/>
</g>
<!-- Node24 -->
<g id="node25" class="node">
<title>Node24</title>
<polygon fill="none" stroke="#bfbfbf" points="1557,-168.5 1557,-187.5 1634,-187.5 1634,-168.5 1557,-168.5"/>
<text text-anchor="middle" x="1595.5" y="-175.5" font-family="Helvetica,sans-Serif" font-size="10.00" fill="#000000">TEventList.h</text>
</g>
<!-- Node0&#45;&gt;Node24 -->
<g id="edge24" class="edge">
<title>Node0&#45;&gt;Node24</title>
<path fill="none" stroke="#191970" d="M1152.2403,-239.9057C1251.2762,-229.3136 1404.2137,-211.4746 1546.5491,-188.0446"/>
<polygon fill="#191970" stroke="#191970" points="1547.4856,-191.4372 1556.7781,-186.348 1546.3401,-184.5315 1547.4856,-191.4372"/>
</g>
<!-- Node25 -->
<g id="node26" class="node">
<title>Node25</title>
<polygon fill="none" stroke="#bfbfbf" points="1652,-168.5 1652,-187.5 1741,-187.5 1741,-168.5 1652,-168.5"/>
<text text-anchor="middle" x="1696.5" y="-175.5" font-family="Helvetica,sans-Serif" font-size="10.00" fill="#000000">AliRunLoader.h</text>
</g>
<!-- Node0&#45;&gt;Node25 -->
<g id="edge25" class="edge">
<title>Node0&#45;&gt;Node25</title>
<path fill="none" stroke="#191970" d="M1152.2578,-242.1324C1269.3307,-232.1856 1464.6894,-213.8108 1641.7046,-188.1771"/>
<polygon fill="#191970" stroke="#191970" points="1642.3339,-191.6225 1651.7239,-186.7155 1641.3234,-184.6958 1642.3339,-191.6225"/>
</g>
<!-- Node26 -->
<g id="node27" class="node">
<title>Node26</title>
<polygon fill="none" stroke="#bfbfbf" points="1759,-168.5 1759,-187.5 1830,-187.5 1830,-168.5 1759,-168.5"/>
<text text-anchor="middle" x="1794.5" y="-175.5" font-family="Helvetica,sans-Serif" font-size="10.00" fill="#000000">AliLoader.h</text>
</g>
<!-- Node0&#45;&gt;Node26 -->
<g id="edge26" class="edge">
<title>Node0&#45;&gt;Node26</title>
<path fill="none" stroke="#191970" d="M1152.2567,-245.6032C1288.0068,-238.2655 1532.0592,-221.6994 1748.594,-188.1429"/>
<polygon fill="#191970" stroke="#191970" points="1749.2195,-191.5878 1758.558,-186.5837 1748.1371,-184.6719 1749.2195,-191.5878"/>
</g>
<!-- Node27 -->
<g id="node28" class="node">
<title>Node27</title>
<polygon fill="none" stroke="#bfbfbf" points="1848.5,-168.5 1848.5,-187.5 1942.5,-187.5 1942.5,-168.5 1848.5,-168.5"/>
<text text-anchor="middle" x="1895.5" y="-175.5" font-family="Helvetica,sans-Serif" font-size="10.00" fill="#000000">AliDataLoader.h</text>
</g>
<!-- Node0&#45;&gt;Node27 -->
<g id="edge27" class="edge">
<title>Node0&#45;&gt;Node27</title>
<path fill="none" stroke="#191970" d="M1152.2537,-245.5076C1302.1639,-237.6311 1586.6536,-219.9672 1838.4248,-188.0256"/>
<polygon fill="#191970" stroke="#191970" points="1839.0224,-191.4778 1848.4977,-186.7378 1838.1345,-184.5343 1839.0224,-191.4778"/>
</g>
<!-- Node6 -->
<g id="node7" class="node">
<title>Node6</title>
<polygon fill="none" stroke="#bfbfbf" points="460.5,-112.5 460.5,-131.5 562.5,-131.5 562.5,-112.5 460.5,-112.5"/>
<text text-anchor="middle" x="511.5" y="-119.5" font-family="Helvetica,sans-Serif" font-size="10.00" fill="#000000">AliHLTProcessor.h</text>
</g>
<!-- Node5&#45;&gt;Node6 -->
<g id="edge6" class="edge">
<title>Node5&#45;&gt;Node6</title>
<path fill="none" stroke="#191970" d="M511.5,-168.2455C511.5,-160.9382 511.5,-150.6944 511.5,-141.7046"/>
<polygon fill="#191970" stroke="#191970" points="515.0001,-141.6426 511.5,-131.6427 508.0001,-141.6427 515.0001,-141.6426"/>
</g>
<!-- Node10 -->
<g id="node11" class="node">
<title>Node10</title>
<g id="a_node11"><a xlink:href="../../d2/d6d/GPUDef_8h.html" target="_top" xlink:title="GPUDef.h">
<polygon fill="none" stroke="#000000" points="940,-112.5 940,-131.5 1003,-131.5 1003,-112.5 940,-112.5"/>
<text text-anchor="middle" x="971.5" y="-119.5" font-family="Helvetica,sans-Serif" font-size="10.00" fill="#000000">GPUDef.h</text>
</a>
</g>
</g>
<!-- Node9&#45;&gt;Node10 -->
<g id="edge10" class="edge">
<title>Node9&#45;&gt;Node10</title>
<path fill="none" stroke="#191970" d="M971.5,-168.2455C971.5,-160.9382 971.5,-150.6944 971.5,-141.7046"/>
<polygon fill="#191970" stroke="#191970" points="975.0001,-141.6426 971.5,-131.6427 968.0001,-141.6427 975.0001,-141.6426"/>
</g>
<!-- Node11 -->
<g id="node12" class="node">
<title>Node11</title>
<g id="a_node12"><a xlink:href="../../df/d21/GPUCommonDef_8h.html" target="_top" xlink:title="GPUCommonDef.h">
<polygon fill="none" stroke="#000000" points="587,-56.5 587,-75.5 694,-75.5 694,-56.5 587,-56.5"/>
<text text-anchor="middle" x="640.5" y="-63.5" font-family="Helvetica,sans-Serif" font-size="10.00" fill="#000000">GPUCommonDef.h</text>
</a>
</g>
</g>
<!-- Node10&#45;&gt;Node11 -->
<g id="edge11" class="edge">
<title>Node10&#45;&gt;Node11</title>
<path fill="none" stroke="#191970" d="M939.7623,-116.6305C885.7065,-107.4851 774.786,-88.7191 704.2204,-76.7805"/>
<polygon fill="#191970" stroke="#191970" points="704.5573,-73.2878 694.1135,-75.0706 703.3895,-80.1897 704.5573,-73.2878"/>
</g>
<!-- Node14 -->
<g id="node15" class="node">
<title>Node14</title>
<g id="a_node15"><a xlink:href="../../d2/d37/GPUDefConstantsAndSettings_8h.html" target="_top" xlink:title="GPUDefConstantsAndSettings.h">
<polygon fill="none" stroke="#000000" points="712,-56.5 712,-75.5 883,-75.5 883,-56.5 712,-56.5"/>
<text text-anchor="middle" x="797.5" y="-63.5" font-family="Helvetica,sans-Serif" font-size="10.00" fill="#000000">GPUDefConstantsAndSettings.h</text>
</a>
</g>
</g>
<!-- Node10&#45;&gt;Node14 -->
<g id="edge14" class="edge">
<title>Node10&#45;&gt;Node14</title>
<path fill="none" stroke="#191970" d="M941.5883,-112.3733C912.6548,-103.0613 868.6389,-88.8953 836.8707,-78.671"/>
<polygon fill="#191970" stroke="#191970" points="837.6128,-75.2331 827.0213,-75.5011 835.4682,-81.8965 837.6128,-75.2331"/>
</g>
<!-- Node15 -->
<g id="node16" class="node">
<title>Node15</title>
<g id="a_node16"><a xlink:href="../../dc/de9/GPUDefGPUParameters_8h.html" target="_top" xlink:title="GPUDefGPUParameters.h">
<polygon fill="none" stroke="#000000" points="901.5,-56.5 901.5,-75.5 1041.5,-75.5 1041.5,-56.5 901.5,-56.5"/>
<text text-anchor="middle" x="971.5" y="-63.5" font-family="Helvetica,sans-Serif" font-size="10.00" fill="#000000">GPUDefGPUParameters.h</text>
</a>
</g>
</g>
<!-- Node10&#45;&gt;Node15 -->
<g id="edge15" class="edge">
<title>Node10&#45;&gt;Node15</title>
<path fill="none" stroke="#191970" d="M971.5,-112.2455C971.5,-104.9382 971.5,-94.6944 971.5,-85.7046"/>
<polygon fill="#191970" stroke="#191970" points="975.0001,-85.6426 971.5,-75.6427 968.0001,-85.6427 975.0001,-85.6426"/>
</g>
<!-- Node17 -->
<g id="node18" class="node">
<title>Node17</title>
<g id="a_node18"><a xlink:href="../../d3/d4c/GPUDefOpenCL12Templates_8h.html" target="_top" xlink:title="GPUDefOpenCL12Templates.h">
<polygon fill="none" stroke="#000000" points="1059.5,-56.5 1059.5,-75.5 1223.5,-75.5 1223.5,-56.5 1059.5,-56.5"/>
<text text-anchor="middle" x="1141.5" y="-63.5" font-family="Helvetica,sans-Serif" font-size="10.00" fill="#000000">GPUDefOpenCL12Templates.h</text>
</a>
</g>
</g>
<!-- Node10&#45;&gt;Node17 -->
<g id="edge17" class="edge">
<title>Node10&#45;&gt;Node17</title>
<path fill="none" stroke="#191970" d="M1000.724,-112.3733C1028.9925,-103.0613 1071.9965,-88.8953 1103.0344,-78.671"/>
<polygon fill="#191970" stroke="#191970" points="1104.2544,-81.9542 1112.6573,-75.5011 1102.0643,-75.3056 1104.2544,-81.9542"/>
</g>
<!-- Node18 -->
<g id="node19" class="node">
<title>Node18</title>
<g id="a_node19"><a xlink:href="../../d2/d45/GPUCommonRtypes_8h.html" target="_top" xlink:title="GPUCommonRtypes.h">
<polygon fill="none" stroke="#000000" points="1242,-56.5 1242,-75.5 1367,-75.5 1367,-56.5 1242,-56.5"/>
<text text-anchor="middle" x="1304.5" y="-63.5" font-family="Helvetica,sans-Serif" font-size="10.00" fill="#000000">GPUCommonRtypes.h</text>
</a>
</g>
</g>
<!-- Node10&#45;&gt;Node18 -->
<g id="edge18" class="edge">
<title>Node10&#45;&gt;Node18</title>
<path fill="none" stroke="#191970" d="M1003.128,-116.6812C1056.6675,-107.6775 1166.2672,-89.2464 1237.4979,-77.2676"/>
<polygon fill="#191970" stroke="#191970" points="1238.4367,-80.659 1247.7177,-75.549 1237.2758,-73.7559 1238.4367,-80.659"/>
</g>
<!-- Node12 -->
<g id="node13" class="node">
<title>Node12</title>
<g id="a_node13"><a xlink:href="../../d5/d93/GPUCommonDefSettings_8h.html" target="_top" xlink:title="GPUCommonDefSettings.h">
<polygon fill="none" stroke="#000000" points="489.5,-.5 489.5,-19.5 637.5,-19.5 637.5,-.5 489.5,-.5"/>
<text text-anchor="middle" x="563.5" y="-7.5" font-family="Helvetica,sans-Serif" font-size="10.00" fill="#000000">GPUCommonDefSettings.h</text>
</a>
</g>
</g>
<!-- Node11&#45;&gt;Node12 -->
<g id="edge12" class="edge">
<title>Node11&#45;&gt;Node12</title>
<path fill="none" stroke="#191970" d="M627.0876,-56.2455C615.4943,-47.814 598.5252,-35.4729 585.0322,-25.6598"/>
<polygon fill="#191970" stroke="#191970" points="586.9047,-22.6938 576.7587,-19.6427 582.7874,-28.355 586.9047,-22.6938"/>
</g>
<!-- Node13 -->
<g id="node14" class="node">
<title>Node13</title>
<g id="a_node14"><a xlink:href="../../da/d5a/GPUCommonDefAPI_8h.html" target="_top" xlink:title="GPUCommonDefAPI.h">
<polygon fill="none" stroke="#000000" points="655.5,-.5 655.5,-19.5 779.5,-19.5 779.5,-.5 655.5,-.5"/>
<text text-anchor="middle" x="717.5" y="-7.5" font-family="Helvetica,sans-Serif" font-size="10.00" fill="#000000">GPUCommonDefAPI.h</text>
</a>
</g>
</g>
<!-- Node11&#45;&gt;Node13 -->
<g id="edge13" class="edge">
<title>Node11&#45;&gt;Node13</title>
<path fill="none" stroke="#191970" d="M653.9124,-56.2455C665.5057,-47.814 682.4748,-35.4729 695.9678,-25.6598"/>
<polygon fill="#191970" stroke="#191970" points="698.2126,-28.355 704.2413,-19.6427 694.0953,-22.6938 698.2126,-28.355"/>
</g>
<!-- Node16 -->
<g id="node17" class="node">
<title>Node16</title>
<g id="a_node17"><a xlink:href="../../d6/dff/GPUDefMacros_8h.html" target="_top" xlink:title="GPUDefMacros.h">
<polygon fill="none" stroke="#000000" points="922.5,-.5 922.5,-19.5 1020.5,-19.5 1020.5,-.5 922.5,-.5"/>
<text text-anchor="middle" x="971.5" y="-7.5" font-family="Helvetica,sans-Serif" font-size="10.00" fill="#000000">GPUDefMacros.h</text>
</a>
</g>
</g>
<!-- Node15&#45;&gt;Node16 -->
<g id="edge16" class="edge">
<title>Node15&#45;&gt;Node16</title>
<path fill="none" stroke="#191970" d="M971.5,-56.2455C971.5,-48.9382 971.5,-38.6944 971.5,-29.7046"/>
<polygon fill="#191970" stroke="#191970" points="975.0001,-29.6426 971.5,-19.6427 968.0001,-29.6427 975.0001,-29.6426"/>
</g>
<!-- Node19 -->
<g id="node20" class="node">
<title>Node19</title>
<polygon fill="none" stroke="#bfbfbf" points="1275,-.5 1275,-19.5 1334,-19.5 1334,-.5 1275,-.5"/>
<text text-anchor="middle" x="1304.5" y="-7.5" font-family="Helvetica,sans-Serif" font-size="10.00" fill="#000000">Rtypes.h</text>
</g>
<!-- Node18&#45;&gt;Node19 -->
<g id="edge19" class="edge">
<title>Node18&#45;&gt;Node19</title>
<path fill="none" stroke="#191970" d="M1304.5,-56.2455C1304.5,-48.9382 1304.5,-38.6944 1304.5,-29.7046"/>
<polygon fill="#191970" stroke="#191970" points="1308.0001,-29.6426 1304.5,-19.6427 1301.0001,-29.6427 1308.0001,-29.6426"/>
</g>
</g>
</svg>
        <g id="navigator" transform="translate(0 0)" fill="#404254">
                <rect fill="#f2f5e9" fill-opacity="0.5" stroke="#606060" stroke-width=".5" x="0" y="0" width="60" height="60"/>
                <use id="zoomplus" xlink:href="#zoomPlus" x="17" y="9" onmousedown="handleZoom(evt,'in')"/>
                <use id="zoomminus" xlink:href="#zoomMin" x="42" y="9" onmousedown="handleZoom(evt,'out')"/>
                <use id="reset" xlink:href="#resetDef" x="30" y="36" onmousedown="handleReset()"/>
                <g id="arrowUp" xlink:href="#dirArrow" transform="translate(30 24)" onmousedown="handlePan(0,-1)">
                  <use xlink:href="#rim" fill="#404040">
                        <set attributeName="fill" to="#808080" begin="arrowUp.mouseover" end="arrowUp.mouseout"/>
                  </use>
                  <path fill="none" stroke="white" stroke-width="1.5" d="M0,-3.0v7 M-2.5,-0.5L0,-3.0L2.5,-0.5"/>
                </g>
                <g id="arrowRight" xlink:href="#dirArrow" transform="rotate(90) translate(36 -43)" onmousedown="handlePan(1,0)">
                  <use xlink:href="#rim" fill="#404040">
                        <set attributeName="fill" to="#808080" begin="arrowRight.mouseover" end="arrowRight.mouseout"/>
                  </use>
                  <path fill="none" stroke="white" stroke-width="1.5" d="M0,-3.0v7 M-2.5,-0.5L0,-3.0L2.5,-0.5"/>
                </g>
                <g id="arrowDown" xlink:href="#dirArrow" transform="rotate(180) translate(-30 -48)" onmousedown="handlePan(0,1)">
                  <use xlink:href="#rim" fill="#404040">
                        <set attributeName="fill" to="#808080" begin="arrowDown.mouseover" end="arrowDown.mouseout"/>
                  </use>
                  <path fill="none" stroke="white" stroke-width="1.5" d="M0,-3.0v7 M-2.5,-0.5L0,-3.0L2.5,-0.5"/>
                </g>
                <g id="arrowLeft" xlink:href="#dirArrow" transform="rotate(270) translate(-36 17)" onmousedown="handlePan(-1,0)">
                  <use xlink:href="#rim" fill="#404040">
                        <set attributeName="fill" to="#808080" begin="arrowLeft.mouseover" end="arrowLeft.mouseout"/>
                  </use>
                  <path fill="none" stroke="white" stroke-width="1.5" d="M0,-3.0v7 M-2.5,-0.5L0,-3.0L2.5,-0.5"/>
                </g>
        </g>
        <svg viewBox="0 0 15 15" width="100%" height="30px" preserveAspectRatio="xMaxYMin meet">
         <g id="arrow_out" transform="scale(0.3 0.3)">
          <a xlink:href="GPUTRDTrackletReaderComponent_8cxx__incl_org.svg" target="_base">
           <rect id="button" ry="5" rx="5" y="6" x="6" height="38" width="38"
                fill="#f2f5e9" fill-opacity="0.5" stroke="#606060" stroke-width="1.0"/>
           <path id="arrow"
             d="M 11.500037,31.436501 C 11.940474,20.09759 22.043105,11.32322 32.158766,21.979434 L 37.068811,17.246167 C 37.068811,17.246167 37.088388,32 37.088388,32 L 22.160133,31.978069 C 22.160133,31.978069 26.997745,27.140456 26.997745,27.140456 C 18.528582,18.264221 13.291696,25.230495 11.500037,31.436501 z"
             style="fill:#404040;"/>
          </a>
         </g>
        </svg>
</svg>
