<?xml version="1.0" encoding="UTF-8" standalone="no"?>
<!DOCTYPE svg PUBLIC "-//W3C//DTD SVG 1.1//EN"
 "http://www.w3.org/Graphics/SVG/1.1/DTD/svg11.dtd">
<!-- Generated by graphviz version 2.40.1 (20161225.0304)
 -->
<!-- Title: o2::mft::HalfSegmentation Pages: 1 -->
<svg width="154pt" height="408pt"
 viewBox="0.00 0.00 154.00 408.00" xmlns="http://www.w3.org/2000/svg" xmlns:xlink="http://www.w3.org/1999/xlink">
<g id="graph0" class="graph" transform="scale(1 1) rotate(0) translate(4 404)">
<title>o2::mft::HalfSegmentation</title>
<!-- Node3 -->
<g id="node1" class="node">
<title>Node3</title>
<polygon fill="#bfbfbf" stroke="#000000" points="0,-.5 0,-123.5 146,-123.5 146,-.5 0,-.5"/>
<text text-anchor="middle" x="73" y="-111.5" font-family="Helvetica,sans-Serif" font-size="10.00" fill="#000000">o2::mft::HalfSegmentation</text>
<polyline fill="none" stroke="#000000" points="0,-104.5 146,-104.5 "/>
<text text-anchor="middle" x="73" y="-92.5" font-family="Helvetica,sans-Serif" font-size="10.00" fill="#000000"> </text>
<polyline fill="none" stroke="#000000" points="0,-85.5 146,-85.5 "/>
<text text-anchor="start" x="8" y="-73.5" font-family="Helvetica,sans-Serif" font-size="10.00" fill="#000000">+ HalfSegmentation()</text>
<text text-anchor="start" x="8" y="-62.5" font-family="Helvetica,sans-Serif" font-size="10.00" fill="#000000">+ HalfSegmentation()</text>
<text text-anchor="start" x="8" y="-51.5" font-family="Helvetica,sans-Serif" font-size="10.00" fill="#000000">+ HalfSegmentation()</text>
<text text-anchor="start" x="8" y="-40.5" font-family="Helvetica,sans-Serif" font-size="10.00" fill="#000000">+ ~HalfSegmentation()</text>
<text text-anchor="start" x="8" y="-29.5" font-family="Helvetica,sans-Serif" font-size="10.00" fill="#000000">+ Clear()</text>
<text text-anchor="start" x="8" y="-18.5" font-family="Helvetica,sans-Serif" font-size="10.00" fill="#000000">+ getNHalfDisks()</text>
<text text-anchor="start" x="8" y="-7.5" font-family="Helvetica,sans-Serif" font-size="10.00" fill="#000000">+ getHalfDisk()</text>
</g>
<!-- Node4 -->
<g id="node2" class="node">
<title>Node4</title>
<g id="a_node2"><a xlink:href="../../d5/db8/classo2_1_1mft_1_1VSegmentation.html" target="_top" xlink:title="{o2::mft::VSegmentation\n||+ VSegmentation()\l+ VSegmentation()\l+ ~VSegmentation()\l+ setPosition()\l+ setRotationAngles()\l+ rotateX()\l+ rotateY()\l+ rotateZ()\l+ getTransformation()\l}">
<polygon fill="none" stroke="#000000" points="6.5,-160.5 6.5,-305.5 139.5,-305.5 139.5,-160.5 6.5,-160.5"/>
<text text-anchor="middle" x="73" y="-293.5" font-family="Helvetica,sans-Serif" font-size="10.00" fill="#000000">o2::mft::VSegmentation</text>
<polyline fill="none" stroke="#000000" points="6.5,-286.5 139.5,-286.5 "/>
<text text-anchor="middle" x="73" y="-274.5" font-family="Helvetica,sans-Serif" font-size="10.00" fill="#000000"> </text>
<polyline fill="none" stroke="#000000" points="6.5,-267.5 139.5,-267.5 "/>
<text text-anchor="start" x="14.5" y="-255.5" font-family="Helvetica,sans-Serif" font-size="10.00" fill="#000000">+ VSegmentation()</text>
<text text-anchor="start" x="14.5" y="-244.5" font-family="Helvetica,sans-Serif" font-size="10.00" fill="#000000">+ VSegmentation()</text>
<text text-anchor="start" x="14.5" y="-233.5" font-family="Helvetica,sans-Serif" font-size="10.00" fill="#000000">+ ~VSegmentation()</text>
<text text-anchor="start" x="14.5" y="-222.5" font-family="Helvetica,sans-Serif" font-size="10.00" fill="#000000">+ setPosition()</text>
<text text-anchor="start" x="14.5" y="-211.5" font-family="Helvetica,sans-Serif" font-size="10.00" fill="#000000">+ setRotationAngles()</text>
<text text-anchor="start" x="14.5" y="-200.5" font-family="Helvetica,sans-Serif" font-size="10.00" fill="#000000">+ rotateX()</text>
<text text-anchor="start" x="14.5" y="-189.5" font-family="Helvetica,sans-Serif" font-size="10.00" fill="#000000">+ rotateY()</text>
<text text-anchor="start" x="14.5" y="-178.5" font-family="Helvetica,sans-Serif" font-size="10.00" fill="#000000">+ rotateZ()</text>
<text text-anchor="start" x="14.5" y="-167.5" font-family="Helvetica,sans-Serif" font-size="10.00" fill="#000000">+ getTransformation()</text>
</a>
</g>
</g>
<!-- Node4&#45;&gt;Node3 -->
<g id="edge1" class="edge">
<title>Node4&#45;&gt;Node3</title>
<path fill="none" stroke="#191970" d="M73,-150.3393C73,-141.3221 73,-132.2628 73,-123.5631"/>
<polygon fill="none" stroke="#191970" points="69.5001,-150.4806 73,-160.4806 76.5001,-150.4806 69.5001,-150.4806"/>
</g>
<!-- Node5 -->
<g id="node3" class="node">
<title>Node5</title>
<polygon fill="none" stroke="#bfbfbf" points="44,-342.5 44,-399.5 102,-399.5 102,-342.5 44,-342.5"/>
<text text-anchor="middle" x="73" y="-387.5" font-family="Helvetica,sans-Serif" font-size="10.00" fill="#000000">TNamed</text>
<polyline fill="none" stroke="#bfbfbf" points="44,-380.5 102,-380.5 "/>
<text text-anchor="middle" x="73" y="-368.5" font-family="Helvetica,sans-Serif" font-size="10.00" fill="#000000"> </text>
<polyline fill="none" stroke="#bfbfbf" points="44,-361.5 102,-361.5 "/>
<text text-anchor="middle" x="73" y="-349.5" font-family="Helvetica,sans-Serif" font-size="10.00" fill="#000000"> </text>
</g>
<!-- Node5&#45;&gt;Node4 -->
<g id="edge2" class="edge">
<title>Node5&#45;&gt;Node4</title>
<path fill="none" stroke="#191970" d="M73,-332.2817C73,-323.9388 73,-314.8592 73,-305.6924"/>
<polygon fill="none" stroke="#191970" points="69.5001,-332.4063 73,-342.4063 76.5001,-332.4063 69.5001,-332.4063"/>
</g>
</g>
</svg>
