<?xml version="1.0" encoding="UTF-8" standalone="no"?>
<!DOCTYPE svg PUBLIC "-//W3C//DTD SVG 1.1//EN"
 "http://www.w3.org/Graphics/SVG/1.1/DTD/svg11.dtd">
<!-- Generated by graphviz version 2.40.1 (20161225.0304)
 -->
<!-- Title: /home/travis/build/AliceO2Group/AliceO2/Detectors/MUON/MCH/Mapping/Impl3/src/CathodeSegmentationCreator.h Pages: 1 -->
<svg width="5732pt" height="161pt"
 viewBox="0.00 0.00 5732.00 161.00" xmlns="http://www.w3.org/2000/svg" xmlns:xlink="http://www.w3.org/1999/xlink">
<g id="graph0" class="graph" transform="scale(1 1) rotate(0) translate(4 157)">
<title>/home/travis/build/AliceO2Group/AliceO2/Detectors/MUON/MCH/Mapping/Impl3/src/CathodeSegmentationCreator.h</title>
<!-- Node8 -->
<g id="node1" class="node">
<title>Node8</title>
<polygon fill="#bfbfbf" stroke="#000000" points="2747.5,-100.5 2747.5,-152.5 2968.5,-152.5 2968.5,-100.5 2747.5,-100.5"/>
<text text-anchor="start" x="2755.5" y="-140.5" font-family="Helvetica,sans-Serif" font-size="10.00" fill="#000000">/home/travis/build</text>
<text text-anchor="start" x="2755.5" y="-129.5" font-family="Helvetica,sans-Serif" font-size="10.00" fill="#000000">/AliceO2Group/AliceO2</text>
<text text-anchor="start" x="2755.5" y="-118.5" font-family="Helvetica,sans-Serif" font-size="10.00" fill="#000000">/Detectors/MUON/MCH/Mapping</text>
<text text-anchor="middle" x="2858" y="-107.5" font-family="Helvetica,sans-Serif" font-size="10.00" fill="#000000">/Impl3/src/CathodeSegmentationCreator.h</text>
</g>
<!-- Node9 -->
<g id="node2" class="node">
<title>Node9</title>
<g id="a_node2"><a xlink:href="../../d5/dff/Impl3_2src_2CathodeSegmentationCreator_8cxx.html" target="_top" xlink:title="/home/travis/build\l/AliceO2Group/AliceO2\l/Detectors/MUON/MCH/Mapping\l/Impl3/src/CathodeSegmentationCreator.cxx">
<polygon fill="none" stroke="#000000" points="0,-6 0,-58 232,-58 232,-6 0,-6"/>
<text text-anchor="start" x="8" y="-46" font-family="Helvetica,sans-Serif" font-size="10.00" fill="#000000">/home/travis/build</text>
<text text-anchor="start" x="8" y="-35" font-family="Helvetica,sans-Serif" font-size="10.00" fill="#000000">/AliceO2Group/AliceO2</text>
<text text-anchor="start" x="8" y="-24" font-family="Helvetica,sans-Serif" font-size="10.00" fill="#000000">/Detectors/MUON/MCH/Mapping</text>
<text text-anchor="middle" x="116" y="-13" font-family="Helvetica,sans-Serif" font-size="10.00" fill="#000000">/Impl3/src/CathodeSegmentationCreator.cxx</text>
</a>
</g>
</g>
<!-- Node8&#45;&gt;Node9 -->
<g id="edge1" class="edge">
<title>Node8&#45;&gt;Node9</title>
<path fill="none" stroke="#191970" d="M2737.2722,-125.2268C2256.1515,-119.9331 489.5089,-98.3231 241,-64 230.2376,-62.5135 219.0665,-60.4417 208.028,-58.0598"/>
<polygon fill="#191970" stroke="#191970" points="2737.3292,-128.7276 2747.3671,-125.3376 2737.4061,-121.728 2737.3292,-128.7276"/>
</g>
<!-- Node10 -->
<g id="node3" class="node">
<title>Node10</title>
<g id="a_node3"><a xlink:href="../../d7/d47/CathodeSegmentationImpl3_8cxx.html" target="_top" xlink:title="/home/travis/build\l/AliceO2Group/AliceO2\l/Detectors/MUON/MCH/Mapping\l/Impl3/src/CathodeSegmentationImpl3.cxx">
<polygon fill="none" stroke="#000000" points="250,-6 250,-58 474,-58 474,-6 250,-6"/>
<text text-anchor="start" x="258" y="-46" font-family="Helvetica,sans-Serif" font-size="10.00" fill="#000000">/home/travis/build</text>
<text text-anchor="start" x="258" y="-35" font-family="Helvetica,sans-Serif" font-size="10.00" fill="#000000">/AliceO2Group/AliceO2</text>
<text text-anchor="start" x="258" y="-24" font-family="Helvetica,sans-Serif" font-size="10.00" fill="#000000">/Detectors/MUON/MCH/Mapping</text>
<text text-anchor="middle" x="362" y="-13" font-family="Helvetica,sans-Serif" font-size="10.00" fill="#000000">/Impl3/src/CathodeSegmentationImpl3.cxx</text>
</a>
</g>
</g>
<!-- Node8&#45;&gt;Node10 -->
<g id="edge2" class="edge">
<title>Node8&#45;&gt;Node10</title>
<path fill="none" stroke="#191970" d="M2737.2364,-124.9658C2285.0601,-118.9957 706.4945,-96.0486 483,-64 472.5681,-62.5041 461.7459,-60.4264 451.0557,-58.0411"/>
<polygon fill="#191970" stroke="#191970" points="2737.3385,-128.4674 2747.3838,-125.0994 2737.4308,-121.468 2737.3385,-128.4674"/>
</g>
<!-- Node11 -->
<g id="node4" class="node">
<title>Node11</title>
<g id="a_node4"><a xlink:href="../../df/d60/Impl3_2src_2GenCathodeSegmentationCreatorForSegType0_8cxx.html" target="_top" xlink:title="/home/travis/build\l/AliceO2Group/AliceO2\l/Detectors/MUON/MCH/Mapping\l/Impl3/src/GenCathodeSegmentationCreator\lForSegType0.cxx">
<polygon fill="none" stroke="#000000" points="492,-.5 492,-63.5 724,-63.5 724,-.5 492,-.5"/>
<text text-anchor="start" x="500" y="-51.5" font-family="Helvetica,sans-Serif" font-size="10.00" fill="#000000">/home/travis/build</text>
<text text-anchor="start" x="500" y="-40.5" font-family="Helvetica,sans-Serif" font-size="10.00" fill="#000000">/AliceO2Group/AliceO2</text>
<text text-anchor="start" x="500" y="-29.5" font-family="Helvetica,sans-Serif" font-size="10.00" fill="#000000">/Detectors/MUON/MCH/Mapping</text>
<text text-anchor="start" x="500" y="-18.5" font-family="Helvetica,sans-Serif" font-size="10.00" fill="#000000">/Impl3/src/GenCathodeSegmentationCreator</text>
<text text-anchor="middle" x="608" y="-7.5" font-family="Helvetica,sans-Serif" font-size="10.00" fill="#000000">ForSegType0.cxx</text>
</a>
</g>
</g>
<!-- Node8&#45;&gt;Node11 -->
<g id="edge3" class="edge">
<title>Node8&#45;&gt;Node11</title>
<path fill="none" stroke="#191970" d="M2737.3653,-124.5102C2316.9357,-117.3601 931.0304,-91.9089 733,-64 730.1163,-63.5936 727.2032,-63.146 724.271,-62.6623"/>
<polygon fill="#191970" stroke="#191970" points="2737.3594,-128.0105 2747.4174,-124.6808 2737.4782,-121.0115 2737.3594,-128.0105"/>
</g>
<!-- Node12 -->
<g id="node5" class="node">
<title>Node12</title>
<g id="a_node5"><a xlink:href="../../da/ddc/Impl3_2src_2GenCathodeSegmentationCreatorForSegType1_8cxx.html" target="_top" xlink:title="/home/travis/build\l/AliceO2Group/AliceO2\l/Detectors/MUON/MCH/Mapping\l/Impl3/src/GenCathodeSegmentationCreator\lForSegType1.cxx">
<polygon fill="none" stroke="#000000" points="742,-.5 742,-63.5 974,-63.5 974,-.5 742,-.5"/>
<text text-anchor="start" x="750" y="-51.5" font-family="Helvetica,sans-Serif" font-size="10.00" fill="#000000">/home/travis/build</text>
<text text-anchor="start" x="750" y="-40.5" font-family="Helvetica,sans-Serif" font-size="10.00" fill="#000000">/AliceO2Group/AliceO2</text>
<text text-anchor="start" x="750" y="-29.5" font-family="Helvetica,sans-Serif" font-size="10.00" fill="#000000">/Detectors/MUON/MCH/Mapping</text>
<text text-anchor="start" x="750" y="-18.5" font-family="Helvetica,sans-Serif" font-size="10.00" fill="#000000">/Impl3/src/GenCathodeSegmentationCreator</text>
<text text-anchor="middle" x="858" y="-7.5" font-family="Helvetica,sans-Serif" font-size="10.00" fill="#000000">ForSegType1.cxx</text>
</a>
</g>
</g>
<!-- Node8&#45;&gt;Node12 -->
<g id="edge4" class="edge">
<title>Node8&#45;&gt;Node12</title>
<path fill="none" stroke="#191970" d="M2737.2133,-125.8995C2378.5353,-123.5739 1323.5121,-112.6697 983,-64 980.1171,-63.588 977.2047,-63.1352 974.2732,-62.647"/>
<polygon fill="#191970" stroke="#191970" points="2737.3407,-129.4003 2747.3629,-125.9642 2737.3854,-122.4004 2737.3407,-129.4003"/>
</g>
<!-- Node13 -->
<g id="node6" class="node">
<title>Node13</title>
<g id="a_node6"><a xlink:href="../../d5/d99/Impl3_2src_2GenCathodeSegmentationCreatorForSegType10_8cxx.html" target="_top" xlink:title="/home/travis/build\l/AliceO2Group/AliceO2\l/Detectors/MUON/MCH/Mapping\l/Impl3/src/GenCathodeSegmentationCreator\lForSegType10.cxx">
<polygon fill="none" stroke="#000000" points="992,-.5 992,-63.5 1224,-63.5 1224,-.5 992,-.5"/>
<text text-anchor="start" x="1000" y="-51.5" font-family="Helvetica,sans-Serif" font-size="10.00" fill="#000000">/home/travis/build</text>
<text text-anchor="start" x="1000" y="-40.5" font-family="Helvetica,sans-Serif" font-size="10.00" fill="#000000">/AliceO2Group/AliceO2</text>
<text text-anchor="start" x="1000" y="-29.5" font-family="Helvetica,sans-Serif" font-size="10.00" fill="#000000">/Detectors/MUON/MCH/Mapping</text>
<text text-anchor="start" x="1000" y="-18.5" font-family="Helvetica,sans-Serif" font-size="10.00" fill="#000000">/Impl3/src/GenCathodeSegmentationCreator</text>
<text text-anchor="middle" x="1108" y="-7.5" font-family="Helvetica,sans-Serif" font-size="10.00" fill="#000000">ForSegType10.cxx</text>
</a>
</g>
</g>
<!-- Node8&#45;&gt;Node13 -->
<g id="edge5" class="edge">
<title>Node8&#45;&gt;Node13</title>
<path fill="none" stroke="#191970" d="M2736.9025,-125.17C2411.4633,-121.0641 1523.0282,-106.2121 1233,-64 1230.1182,-63.5806 1227.2068,-63.1212 1224.2761,-62.6271"/>
<polygon fill="#191970" stroke="#191970" points="2737.2605,-128.6746 2747.3035,-125.2999 2737.348,-121.6752 2737.2605,-128.6746"/>
</g>
<!-- Node14 -->
<g id="node7" class="node">
<title>Node14</title>
<g id="a_node7"><a xlink:href="../../de/de8/Impl3_2src_2GenCathodeSegmentationCreatorForSegType11_8cxx.html" target="_top" xlink:title="/home/travis/build\l/AliceO2Group/AliceO2\l/Detectors/MUON/MCH/Mapping\l/Impl3/src/GenCathodeSegmentationCreator\lForSegType11.cxx">
<polygon fill="none" stroke="#000000" points="1242,-.5 1242,-63.5 1474,-63.5 1474,-.5 1242,-.5"/>
<text text-anchor="start" x="1250" y="-51.5" font-family="Helvetica,sans-Serif" font-size="10.00" fill="#000000">/home/travis/build</text>
<text text-anchor="start" x="1250" y="-40.5" font-family="Helvetica,sans-Serif" font-size="10.00" fill="#000000">/AliceO2Group/AliceO2</text>
<text text-anchor="start" x="1250" y="-29.5" font-family="Helvetica,sans-Serif" font-size="10.00" fill="#000000">/Detectors/MUON/MCH/Mapping</text>
<text text-anchor="start" x="1250" y="-18.5" font-family="Helvetica,sans-Serif" font-size="10.00" fill="#000000">/Impl3/src/GenCathodeSegmentationCreator</text>
<text text-anchor="middle" x="1358" y="-7.5" font-family="Helvetica,sans-Serif" font-size="10.00" fill="#000000">ForSegType11.cxx</text>
</a>
</g>
</g>
<!-- Node8&#45;&gt;Node14 -->
<g id="edge6" class="edge">
<title>Node8&#45;&gt;Node14</title>
<path fill="none" stroke="#191970" d="M2737.3641,-124.1915C2448.4669,-118.1502 1723.1484,-99.8088 1483,-64 1480.1197,-63.5705 1477.2096,-63.1021 1474.2801,-62.5999"/>
<polygon fill="#191970" stroke="#191970" points="2737.3849,-127.6926 2747.4555,-124.4012 2737.5304,-120.6941 2737.3849,-127.6926"/>
</g>
<!-- Node15 -->
<g id="node8" class="node">
<title>Node15</title>
<g id="a_node8"><a xlink:href="../../dc/d00/Impl3_2src_2GenCathodeSegmentationCreatorForSegType12_8cxx.html" target="_top" xlink:title="/home/travis/build\l/AliceO2Group/AliceO2\l/Detectors/MUON/MCH/Mapping\l/Impl3/src/GenCathodeSegmentationCreator\lForSegType12.cxx">
<polygon fill="none" stroke="#000000" points="1492,-.5 1492,-63.5 1724,-63.5 1724,-.5 1492,-.5"/>
<text text-anchor="start" x="1500" y="-51.5" font-family="Helvetica,sans-Serif" font-size="10.00" fill="#000000">/home/travis/build</text>
<text text-anchor="start" x="1500" y="-40.5" font-family="Helvetica,sans-Serif" font-size="10.00" fill="#000000">/AliceO2Group/AliceO2</text>
<text text-anchor="start" x="1500" y="-29.5" font-family="Helvetica,sans-Serif" font-size="10.00" fill="#000000">/Detectors/MUON/MCH/Mapping</text>
<text text-anchor="start" x="1500" y="-18.5" font-family="Helvetica,sans-Serif" font-size="10.00" fill="#000000">/Impl3/src/GenCathodeSegmentationCreator</text>
<text text-anchor="middle" x="1608" y="-7.5" font-family="Helvetica,sans-Serif" font-size="10.00" fill="#000000">ForSegType12.cxx</text>
</a>
</g>
</g>
<!-- Node8&#45;&gt;Node15 -->
<g id="edge7" class="edge">
<title>Node8&#45;&gt;Node15</title>
<path fill="none" stroke="#191970" d="M2737.1622,-122.7697C2487.7901,-114.5823 1923.5645,-93.3974 1733,-64 1730.1219,-63.556 1727.2137,-63.0746 1724.286,-62.5607"/>
<polygon fill="#191970" stroke="#191970" points="2737.2398,-126.2741 2747.3488,-123.1027 2737.4685,-119.2778 2737.2398,-126.2741"/>
</g>
<!-- Node16 -->
<g id="node9" class="node">
<title>Node16</title>
<g id="a_node9"><a xlink:href="../../d8/d92/Impl3_2src_2GenCathodeSegmentationCreatorForSegType13_8cxx.html" target="_top" xlink:title="/home/travis/build\l/AliceO2Group/AliceO2\l/Detectors/MUON/MCH/Mapping\l/Impl3/src/GenCathodeSegmentationCreator\lForSegType13.cxx">
<polygon fill="none" stroke="#000000" points="1742,-.5 1742,-63.5 1974,-63.5 1974,-.5 1742,-.5"/>
<text text-anchor="start" x="1750" y="-51.5" font-family="Helvetica,sans-Serif" font-size="10.00" fill="#000000">/home/travis/build</text>
<text text-anchor="start" x="1750" y="-40.5" font-family="Helvetica,sans-Serif" font-size="10.00" fill="#000000">/AliceO2Group/AliceO2</text>
<text text-anchor="start" x="1750" y="-29.5" font-family="Helvetica,sans-Serif" font-size="10.00" fill="#000000">/Detectors/MUON/MCH/Mapping</text>
<text text-anchor="start" x="1750" y="-18.5" font-family="Helvetica,sans-Serif" font-size="10.00" fill="#000000">/Impl3/src/GenCathodeSegmentationCreator</text>
<text text-anchor="middle" x="1858" y="-7.5" font-family="Helvetica,sans-Serif" font-size="10.00" fill="#000000">ForSegType13.cxx</text>
</a>
</g>
</g>
<!-- Node8&#45;&gt;Node16 -->
<g id="edge8" class="edge">
<title>Node8&#45;&gt;Node16</title>
<path fill="none" stroke="#191970" d="M2737.2504,-124.7034C2567.7316,-120.6352 2250.0149,-107.3545 1983,-64 1980.1255,-63.5333 1977.2206,-63.0314 1974.2958,-62.4992"/>
<polygon fill="#191970" stroke="#191970" points="2737.3733,-128.2072 2747.4522,-124.9414 2737.5366,-121.2091 2737.3733,-128.2072"/>
</g>
<!-- Node17 -->
<g id="node10" class="node">
<title>Node17</title>
<g id="a_node10"><a xlink:href="../../de/d96/Impl3_2src_2GenCathodeSegmentationCreatorForSegType14_8cxx.html" target="_top" xlink:title="/home/travis/build\l/AliceO2Group/AliceO2\l/Detectors/MUON/MCH/Mapping\l/Impl3/src/GenCathodeSegmentationCreator\lForSegType14.cxx">
<polygon fill="none" stroke="#000000" points="1992,-.5 1992,-63.5 2224,-63.5 2224,-.5 1992,-.5"/>
<text text-anchor="start" x="2000" y="-51.5" font-family="Helvetica,sans-Serif" font-size="10.00" fill="#000000">/home/travis/build</text>
<text text-anchor="start" x="2000" y="-40.5" font-family="Helvetica,sans-Serif" font-size="10.00" fill="#000000">/AliceO2Group/AliceO2</text>
<text text-anchor="start" x="2000" y="-29.5" font-family="Helvetica,sans-Serif" font-size="10.00" fill="#000000">/Detectors/MUON/MCH/Mapping</text>
<text text-anchor="start" x="2000" y="-18.5" font-family="Helvetica,sans-Serif" font-size="10.00" fill="#000000">/Impl3/src/GenCathodeSegmentationCreator</text>
<text text-anchor="middle" x="2108" y="-7.5" font-family="Helvetica,sans-Serif" font-size="10.00" fill="#000000">ForSegType14.cxx</text>
</a>
</g>
</g>
<!-- Node8&#45;&gt;Node17 -->
<g id="edge9" class="edge">
<title>Node8&#45;&gt;Node17</title>
<path fill="none" stroke="#191970" d="M2737.132,-119.8389C2610.6943,-111.6063 2406.812,-94.7571 2233,-64 2230.1324,-63.4926 2227.2337,-62.9541 2224.3144,-62.3892"/>
<polygon fill="#191970" stroke="#191970" points="2737.0276,-123.3393 2747.2318,-120.4889 2737.4772,-116.3538 2737.0276,-123.3393"/>
</g>
<!-- Node18 -->
<g id="node11" class="node">
<title>Node18</title>
<g id="a_node11"><a xlink:href="../../dc/db3/Impl3_2src_2GenCathodeSegmentationCreatorForSegType15_8cxx.html" target="_top" xlink:title="/home/travis/build\l/AliceO2Group/AliceO2\l/Detectors/MUON/MCH/Mapping\l/Impl3/src/GenCathodeSegmentationCreator\lForSegType15.cxx">
<polygon fill="none" stroke="#000000" points="2242,-.5 2242,-63.5 2474,-63.5 2474,-.5 2242,-.5"/>
<text text-anchor="start" x="2250" y="-51.5" font-family="Helvetica,sans-Serif" font-size="10.00" fill="#000000">/home/travis/build</text>
<text text-anchor="start" x="2250" y="-40.5" font-family="Helvetica,sans-Serif" font-size="10.00" fill="#000000">/AliceO2Group/AliceO2</text>
<text text-anchor="start" x="2250" y="-29.5" font-family="Helvetica,sans-Serif" font-size="10.00" fill="#000000">/Detectors/MUON/MCH/Mapping</text>
<text text-anchor="start" x="2250" y="-18.5" font-family="Helvetica,sans-Serif" font-size="10.00" fill="#000000">/Impl3/src/GenCathodeSegmentationCreator</text>
<text text-anchor="middle" x="2358" y="-7.5" font-family="Helvetica,sans-Serif" font-size="10.00" fill="#000000">ForSegType15.cxx</text>
</a>
</g>
</g>
<!-- Node8&#45;&gt;Node18 -->
<g id="edge10" class="edge">
<title>Node8&#45;&gt;Node18</title>
<path fill="none" stroke="#191970" d="M2736.9374,-109.0102C2663.2372,-97.697 2567.3475,-81.7915 2483,-64 2480.0409,-63.3758 2477.0464,-62.7285 2474.0282,-62.0622"/>
<polygon fill="#191970" stroke="#191970" points="2736.7721,-112.5254 2747.186,-110.5757 2737.8292,-105.6057 2736.7721,-112.5254"/>
</g>
<!-- Node19 -->
<g id="node12" class="node">
<title>Node19</title>
<g id="a_node12"><a xlink:href="../../da/d76/Impl3_2src_2GenCathodeSegmentationCreatorForSegType16_8cxx.html" target="_top" xlink:title="/home/travis/build\l/AliceO2Group/AliceO2\l/Detectors/MUON/MCH/Mapping\l/Impl3/src/GenCathodeSegmentationCreator\lForSegType16.cxx">
<polygon fill="none" stroke="#000000" points="2492,-.5 2492,-63.5 2724,-63.5 2724,-.5 2492,-.5"/>
<text text-anchor="start" x="2500" y="-51.5" font-family="Helvetica,sans-Serif" font-size="10.00" fill="#000000">/home/travis/build</text>
<text text-anchor="start" x="2500" y="-40.5" font-family="Helvetica,sans-Serif" font-size="10.00" fill="#000000">/AliceO2Group/AliceO2</text>
<text text-anchor="start" x="2500" y="-29.5" font-family="Helvetica,sans-Serif" font-size="10.00" fill="#000000">/Detectors/MUON/MCH/Mapping</text>
<text text-anchor="start" x="2500" y="-18.5" font-family="Helvetica,sans-Serif" font-size="10.00" fill="#000000">/Impl3/src/GenCathodeSegmentationCreator</text>
<text text-anchor="middle" x="2608" y="-7.5" font-family="Helvetica,sans-Serif" font-size="10.00" fill="#000000">ForSegType16.cxx</text>
</a>
</g>
</g>
<!-- Node8&#45;&gt;Node19 -->
<g id="edge11" class="edge">
<title>Node8&#45;&gt;Node19</title>
<path fill="none" stroke="#191970" d="M2779.6608,-96.8878C2751.6061,-86.2831 2719.8902,-74.2945 2691.4215,-63.5333"/>
<polygon fill="#191970" stroke="#191970" points="2778.433,-100.1653 2789.0246,-100.4273 2780.9081,-93.6175 2778.433,-100.1653"/>
</g>
<!-- Node20 -->
<g id="node13" class="node">
<title>Node20</title>
<g id="a_node13"><a xlink:href="../../d8/dbf/Impl3_2src_2GenCathodeSegmentationCreatorForSegType17_8cxx.html" target="_top" xlink:title="/home/travis/build\l/AliceO2Group/AliceO2\l/Detectors/MUON/MCH/Mapping\l/Impl3/src/GenCathodeSegmentationCreator\lForSegType17.cxx">
<polygon fill="none" stroke="#000000" points="2742,-.5 2742,-63.5 2974,-63.5 2974,-.5 2742,-.5"/>
<text text-anchor="start" x="2750" y="-51.5" font-family="Helvetica,sans-Serif" font-size="10.00" fill="#000000">/home/travis/build</text>
<text text-anchor="start" x="2750" y="-40.5" font-family="Helvetica,sans-Serif" font-size="10.00" fill="#000000">/AliceO2Group/AliceO2</text>
<text text-anchor="start" x="2750" y="-29.5" font-family="Helvetica,sans-Serif" font-size="10.00" fill="#000000">/Detectors/MUON/MCH/Mapping</text>
<text text-anchor="start" x="2750" y="-18.5" font-family="Helvetica,sans-Serif" font-size="10.00" fill="#000000">/Impl3/src/GenCathodeSegmentationCreator</text>
<text text-anchor="middle" x="2858" y="-7.5" font-family="Helvetica,sans-Serif" font-size="10.00" fill="#000000">ForSegType17.cxx</text>
</a>
</g>
</g>
<!-- Node8&#45;&gt;Node20 -->
<g id="edge12" class="edge">
<title>Node8&#45;&gt;Node20</title>
<path fill="none" stroke="#191970" d="M2858,-90.1424C2858,-81.4277 2858,-72.1902 2858,-63.7054"/>
<polygon fill="#191970" stroke="#191970" points="2854.5001,-90.4273 2858,-100.4273 2861.5001,-90.4273 2854.5001,-90.4273"/>
</g>
<!-- Node21 -->
<g id="node14" class="node">
<title>Node21</title>
<g id="a_node14"><a xlink:href="../../d4/d83/Impl3_2src_2GenCathodeSegmentationCreatorForSegType18_8cxx.html" target="_top" xlink:title="/home/travis/build\l/AliceO2Group/AliceO2\l/Detectors/MUON/MCH/Mapping\l/Impl3/src/GenCathodeSegmentationCreator\lForSegType18.cxx">
<polygon fill="none" stroke="#000000" points="2992,-.5 2992,-63.5 3224,-63.5 3224,-.5 2992,-.5"/>
<text text-anchor="start" x="3000" y="-51.5" font-family="Helvetica,sans-Serif" font-size="10.00" fill="#000000">/home/travis/build</text>
<text text-anchor="start" x="3000" y="-40.5" font-family="Helvetica,sans-Serif" font-size="10.00" fill="#000000">/AliceO2Group/AliceO2</text>
<text text-anchor="start" x="3000" y="-29.5" font-family="Helvetica,sans-Serif" font-size="10.00" fill="#000000">/Detectors/MUON/MCH/Mapping</text>
<text text-anchor="start" x="3000" y="-18.5" font-family="Helvetica,sans-Serif" font-size="10.00" fill="#000000">/Impl3/src/GenCathodeSegmentationCreator</text>
<text text-anchor="middle" x="3108" y="-7.5" font-family="Helvetica,sans-Serif" font-size="10.00" fill="#000000">ForSegType18.cxx</text>
</a>
</g>
</g>
<!-- Node8&#45;&gt;Node21 -->
<g id="edge13" class="edge">
<title>Node8&#45;&gt;Node21</title>
<path fill="none" stroke="#191970" d="M2936.3392,-96.8878C2964.3939,-86.2831 2996.1098,-74.2945 3024.5785,-63.5333"/>
<polygon fill="#191970" stroke="#191970" points="2935.0919,-93.6175 2926.9754,-100.4273 2937.567,-100.1653 2935.0919,-93.6175"/>
</g>
<!-- Node22 -->
<g id="node15" class="node">
<title>Node22</title>
<g id="a_node15"><a xlink:href="../../d1/d8a/Impl3_2src_2GenCathodeSegmentationCreatorForSegType19_8cxx.html" target="_top" xlink:title="/home/travis/build\l/AliceO2Group/AliceO2\l/Detectors/MUON/MCH/Mapping\l/Impl3/src/GenCathodeSegmentationCreator\lForSegType19.cxx">
<polygon fill="none" stroke="#000000" points="3242,-.5 3242,-63.5 3474,-63.5 3474,-.5 3242,-.5"/>
<text text-anchor="start" x="3250" y="-51.5" font-family="Helvetica,sans-Serif" font-size="10.00" fill="#000000">/home/travis/build</text>
<text text-anchor="start" x="3250" y="-40.5" font-family="Helvetica,sans-Serif" font-size="10.00" fill="#000000">/AliceO2Group/AliceO2</text>
<text text-anchor="start" x="3250" y="-29.5" font-family="Helvetica,sans-Serif" font-size="10.00" fill="#000000">/Detectors/MUON/MCH/Mapping</text>
<text text-anchor="start" x="3250" y="-18.5" font-family="Helvetica,sans-Serif" font-size="10.00" fill="#000000">/Impl3/src/GenCathodeSegmentationCreator</text>
<text text-anchor="middle" x="3358" y="-7.5" font-family="Helvetica,sans-Serif" font-size="10.00" fill="#000000">ForSegType19.cxx</text>
</a>
</g>
</g>
<!-- Node8&#45;&gt;Node22 -->
<g id="edge14" class="edge">
<title>Node8&#45;&gt;Node22</title>
<path fill="none" stroke="#191970" d="M2979.0626,-109.0102C3052.7628,-97.697 3148.6525,-81.7915 3233,-64 3235.9591,-63.3758 3238.9536,-62.7285 3241.9718,-62.0622"/>
<polygon fill="#191970" stroke="#191970" points="2978.1708,-105.6057 2968.814,-110.5757 2979.2279,-112.5254 2978.1708,-105.6057"/>
</g>
<!-- Node23 -->
<g id="node16" class="node">
<title>Node23</title>
<g id="a_node16"><a xlink:href="../../de/d19/Impl3_2src_2GenCathodeSegmentationCreatorForSegType2_8cxx.html" target="_top" xlink:title="/home/travis/build\l/AliceO2Group/AliceO2\l/Detectors/MUON/MCH/Mapping\l/Impl3/src/GenCathodeSegmentationCreator\lForSegType2.cxx">
<polygon fill="none" stroke="#000000" points="3492,-.5 3492,-63.5 3724,-63.5 3724,-.5 3492,-.5"/>
<text text-anchor="start" x="3500" y="-51.5" font-family="Helvetica,sans-Serif" font-size="10.00" fill="#000000">/home/travis/build</text>
<text text-anchor="start" x="3500" y="-40.5" font-family="Helvetica,sans-Serif" font-size="10.00" fill="#000000">/AliceO2Group/AliceO2</text>
<text text-anchor="start" x="3500" y="-29.5" font-family="Helvetica,sans-Serif" font-size="10.00" fill="#000000">/Detectors/MUON/MCH/Mapping</text>
<text text-anchor="start" x="3500" y="-18.5" font-family="Helvetica,sans-Serif" font-size="10.00" fill="#000000">/Impl3/src/GenCathodeSegmentationCreator</text>
<text text-anchor="middle" x="3608" y="-7.5" font-family="Helvetica,sans-Serif" font-size="10.00" fill="#000000">ForSegType2.cxx</text>
</a>
</g>
</g>
<!-- Node8&#45;&gt;Node23 -->
<g id="edge15" class="edge">
<title>Node8&#45;&gt;Node23</title>
<path fill="none" stroke="#191970" d="M2978.868,-119.8389C3105.3057,-111.6063 3309.188,-94.7571 3483,-64 3485.8676,-63.4926 3488.7663,-62.9541 3491.6856,-62.3892"/>
<polygon fill="#191970" stroke="#191970" points="2978.5228,-116.3538 2968.7682,-120.4889 2978.9724,-123.3393 2978.5228,-116.3538"/>
</g>
<!-- Node24 -->
<g id="node17" class="node">
<title>Node24</title>
<g id="a_node17"><a xlink:href="../../da/d11/Impl3_2src_2GenCathodeSegmentationCreatorForSegType20_8cxx.html" target="_top" xlink:title="/home/travis/build\l/AliceO2Group/AliceO2\l/Detectors/MUON/MCH/Mapping\l/Impl3/src/GenCathodeSegmentationCreator\lForSegType20.cxx">
<polygon fill="none" stroke="#000000" points="3742,-.5 3742,-63.5 3974,-63.5 3974,-.5 3742,-.5"/>
<text text-anchor="start" x="3750" y="-51.5" font-family="Helvetica,sans-Serif" font-size="10.00" fill="#000000">/home/travis/build</text>
<text text-anchor="start" x="3750" y="-40.5" font-family="Helvetica,sans-Serif" font-size="10.00" fill="#000000">/AliceO2Group/AliceO2</text>
<text text-anchor="start" x="3750" y="-29.5" font-family="Helvetica,sans-Serif" font-size="10.00" fill="#000000">/Detectors/MUON/MCH/Mapping</text>
<text text-anchor="start" x="3750" y="-18.5" font-family="Helvetica,sans-Serif" font-size="10.00" fill="#000000">/Impl3/src/GenCathodeSegmentationCreator</text>
<text text-anchor="middle" x="3858" y="-7.5" font-family="Helvetica,sans-Serif" font-size="10.00" fill="#000000">ForSegType20.cxx</text>
</a>
</g>
</g>
<!-- Node8&#45;&gt;Node24 -->
<g id="edge16" class="edge">
<title>Node8&#45;&gt;Node24</title>
<path fill="none" stroke="#191970" d="M2978.7496,-124.7034C3148.2684,-120.6352 3465.9851,-107.3545 3733,-64 3735.8745,-63.5333 3738.7794,-63.0314 3741.7042,-62.4992"/>
<polygon fill="#191970" stroke="#191970" points="2978.4634,-121.2091 2968.5478,-124.9414 2978.6267,-128.2072 2978.4634,-121.2091"/>
</g>
<!-- Node25 -->
<g id="node18" class="node">
<title>Node25</title>
<g id="a_node18"><a xlink:href="../../d5/d1d/Impl3_2src_2GenCathodeSegmentationCreatorForSegType3_8cxx.html" target="_top" xlink:title="/home/travis/build\l/AliceO2Group/AliceO2\l/Detectors/MUON/MCH/Mapping\l/Impl3/src/GenCathodeSegmentationCreator\lForSegType3.cxx">
<polygon fill="none" stroke="#000000" points="3992,-.5 3992,-63.5 4224,-63.5 4224,-.5 3992,-.5"/>
<text text-anchor="start" x="4000" y="-51.5" font-family="Helvetica,sans-Serif" font-size="10.00" fill="#000000">/home/travis/build</text>
<text text-anchor="start" x="4000" y="-40.5" font-family="Helvetica,sans-Serif" font-size="10.00" fill="#000000">/AliceO2Group/AliceO2</text>
<text text-anchor="start" x="4000" y="-29.5" font-family="Helvetica,sans-Serif" font-size="10.00" fill="#000000">/Detectors/MUON/MCH/Mapping</text>
<text text-anchor="start" x="4000" y="-18.5" font-family="Helvetica,sans-Serif" font-size="10.00" fill="#000000">/Impl3/src/GenCathodeSegmentationCreator</text>
<text text-anchor="middle" x="4108" y="-7.5" font-family="Helvetica,sans-Serif" font-size="10.00" fill="#000000">ForSegType3.cxx</text>
</a>
</g>
</g>
<!-- Node8&#45;&gt;Node25 -->
<g id="edge17" class="edge">
<title>Node8&#45;&gt;Node25</title>
<path fill="none" stroke="#191970" d="M2978.8378,-122.7697C3228.2099,-114.5823 3792.4355,-93.3974 3983,-64 3985.8781,-63.556 3988.7863,-63.0746 3991.714,-62.5607"/>
<polygon fill="#191970" stroke="#191970" points="2978.5315,-119.2778 2968.6512,-123.1027 2978.7602,-126.2741 2978.5315,-119.2778"/>
</g>
<!-- Node26 -->
<g id="node19" class="node">
<title>Node26</title>
<g id="a_node19"><a xlink:href="../../df/d31/Impl3_2src_2GenCathodeSegmentationCreatorForSegType4_8cxx.html" target="_top" xlink:title="/home/travis/build\l/AliceO2Group/AliceO2\l/Detectors/MUON/MCH/Mapping\l/Impl3/src/GenCathodeSegmentationCreator\lForSegType4.cxx">
<polygon fill="none" stroke="#000000" points="4242,-.5 4242,-63.5 4474,-63.5 4474,-.5 4242,-.5"/>
<text text-anchor="start" x="4250" y="-51.5" font-family="Helvetica,sans-Serif" font-size="10.00" fill="#000000">/home/travis/build</text>
<text text-anchor="start" x="4250" y="-40.5" font-family="Helvetica,sans-Serif" font-size="10.00" fill="#000000">/AliceO2Group/AliceO2</text>
<text text-anchor="start" x="4250" y="-29.5" font-family="Helvetica,sans-Serif" font-size="10.00" fill="#000000">/Detectors/MUON/MCH/Mapping</text>
<text text-anchor="start" x="4250" y="-18.5" font-family="Helvetica,sans-Serif" font-size="10.00" fill="#000000">/Impl3/src/GenCathodeSegmentationCreator</text>
<text text-anchor="middle" x="4358" y="-7.5" font-family="Helvetica,sans-Serif" font-size="10.00" fill="#000000">ForSegType4.cxx</text>
</a>
</g>
</g>
<!-- Node8&#45;&gt;Node26 -->
<g id="edge18" class="edge">
<title>Node8&#45;&gt;Node26</title>
<path fill="none" stroke="#191970" d="M2978.6359,-124.1915C3267.5331,-118.1502 3992.8516,-99.8088 4233,-64 4235.8803,-63.5705 4238.7904,-63.1021 4241.7199,-62.5999"/>
<polygon fill="#191970" stroke="#191970" points="2978.4696,-120.6941 2968.5445,-124.4012 2978.6151,-127.6926 2978.4696,-120.6941"/>
</g>
<!-- Node27 -->
<g id="node20" class="node">
<title>Node27</title>
<g id="a_node20"><a xlink:href="../../d9/d27/Impl3_2src_2GenCathodeSegmentationCreatorForSegType5_8cxx.html" target="_top" xlink:title="/home/travis/build\l/AliceO2Group/AliceO2\l/Detectors/MUON/MCH/Mapping\l/Impl3/src/GenCathodeSegmentationCreator\lForSegType5.cxx">
<polygon fill="none" stroke="#000000" points="4492,-.5 4492,-63.5 4724,-63.5 4724,-.5 4492,-.5"/>
<text text-anchor="start" x="4500" y="-51.5" font-family="Helvetica,sans-Serif" font-size="10.00" fill="#000000">/home/travis/build</text>
<text text-anchor="start" x="4500" y="-40.5" font-family="Helvetica,sans-Serif" font-size="10.00" fill="#000000">/AliceO2Group/AliceO2</text>
<text text-anchor="start" x="4500" y="-29.5" font-family="Helvetica,sans-Serif" font-size="10.00" fill="#000000">/Detectors/MUON/MCH/Mapping</text>
<text text-anchor="start" x="4500" y="-18.5" font-family="Helvetica,sans-Serif" font-size="10.00" fill="#000000">/Impl3/src/GenCathodeSegmentationCreator</text>
<text text-anchor="middle" x="4608" y="-7.5" font-family="Helvetica,sans-Serif" font-size="10.00" fill="#000000">ForSegType5.cxx</text>
</a>
</g>
</g>
<!-- Node8&#45;&gt;Node27 -->
<g id="edge19" class="edge">
<title>Node8&#45;&gt;Node27</title>
<path fill="none" stroke="#191970" d="M2979.0975,-125.17C3304.5367,-121.0641 4192.9718,-106.2121 4483,-64 4485.8818,-63.5806 4488.7932,-63.1212 4491.7239,-62.6271"/>
<polygon fill="#191970" stroke="#191970" points="2978.652,-121.6752 2968.6965,-125.2999 2978.7395,-128.6746 2978.652,-121.6752"/>
</g>
<!-- Node28 -->
<g id="node21" class="node">
<title>Node28</title>
<g id="a_node21"><a xlink:href="../../d6/d3e/Impl3_2src_2GenCathodeSegmentationCreatorForSegType6_8cxx.html" target="_top" xlink:title="/home/travis/build\l/AliceO2Group/AliceO2\l/Detectors/MUON/MCH/Mapping\l/Impl3/src/GenCathodeSegmentationCreator\lForSegType6.cxx">
<polygon fill="none" stroke="#000000" points="4742,-.5 4742,-63.5 4974,-63.5 4974,-.5 4742,-.5"/>
<text text-anchor="start" x="4750" y="-51.5" font-family="Helvetica,sans-Serif" font-size="10.00" fill="#000000">/home/travis/build</text>
<text text-anchor="start" x="4750" y="-40.5" font-family="Helvetica,sans-Serif" font-size="10.00" fill="#000000">/AliceO2Group/AliceO2</text>
<text text-anchor="start" x="4750" y="-29.5" font-family="Helvetica,sans-Serif" font-size="10.00" fill="#000000">/Detectors/MUON/MCH/Mapping</text>
<text text-anchor="start" x="4750" y="-18.5" font-family="Helvetica,sans-Serif" font-size="10.00" fill="#000000">/Impl3/src/GenCathodeSegmentationCreator</text>
<text text-anchor="middle" x="4858" y="-7.5" font-family="Helvetica,sans-Serif" font-size="10.00" fill="#000000">ForSegType6.cxx</text>
</a>
</g>
</g>
<!-- Node8&#45;&gt;Node28 -->
<g id="edge20" class="edge">
<title>Node8&#45;&gt;Node28</title>
<path fill="none" stroke="#191970" d="M2978.7867,-125.8995C3337.4647,-123.5739 4392.4879,-112.6697 4733,-64 4735.8829,-63.588 4738.7953,-63.1352 4741.7268,-62.647"/>
<polygon fill="#191970" stroke="#191970" points="2978.6146,-122.4004 2968.6371,-125.9642 2978.6593,-129.4003 2978.6146,-122.4004"/>
</g>
<!-- Node29 -->
<g id="node22" class="node">
<title>Node29</title>
<g id="a_node22"><a xlink:href="../../d0/d7c/Impl3_2src_2GenCathodeSegmentationCreatorForSegType7_8cxx.html" target="_top" xlink:title="/home/travis/build\l/AliceO2Group/AliceO2\l/Detectors/MUON/MCH/Mapping\l/Impl3/src/GenCathodeSegmentationCreator\lForSegType7.cxx">
<polygon fill="none" stroke="#000000" points="4992,-.5 4992,-63.5 5224,-63.5 5224,-.5 4992,-.5"/>
<text text-anchor="start" x="5000" y="-51.5" font-family="Helvetica,sans-Serif" font-size="10.00" fill="#000000">/home/travis/build</text>
<text text-anchor="start" x="5000" y="-40.5" font-family="Helvetica,sans-Serif" font-size="10.00" fill="#000000">/AliceO2Group/AliceO2</text>
<text text-anchor="start" x="5000" y="-29.5" font-family="Helvetica,sans-Serif" font-size="10.00" fill="#000000">/Detectors/MUON/MCH/Mapping</text>
<text text-anchor="start" x="5000" y="-18.5" font-family="Helvetica,sans-Serif" font-size="10.00" fill="#000000">/Impl3/src/GenCathodeSegmentationCreator</text>
<text text-anchor="middle" x="5108" y="-7.5" font-family="Helvetica,sans-Serif" font-size="10.00" fill="#000000">ForSegType7.cxx</text>
</a>
</g>
</g>
<!-- Node8&#45;&gt;Node29 -->
<g id="edge21" class="edge">
<title>Node8&#45;&gt;Node29</title>
<path fill="none" stroke="#191970" d="M2978.6347,-124.5102C3399.0643,-117.3601 4784.9696,-91.9089 4983,-64 4985.8837,-63.5936 4988.7968,-63.146 4991.729,-62.6623"/>
<polygon fill="#191970" stroke="#191970" points="2978.5218,-121.0115 2968.5826,-124.6808 2978.6406,-128.0105 2978.5218,-121.0115"/>
</g>
<!-- Node30 -->
<g id="node23" class="node">
<title>Node30</title>
<g id="a_node23"><a xlink:href="../../d8/d8e/Impl3_2src_2GenCathodeSegmentationCreatorForSegType8_8cxx.html" target="_top" xlink:title="/home/travis/build\l/AliceO2Group/AliceO2\l/Detectors/MUON/MCH/Mapping\l/Impl3/src/GenCathodeSegmentationCreator\lForSegType8.cxx">
<polygon fill="none" stroke="#000000" points="5242,-.5 5242,-63.5 5474,-63.5 5474,-.5 5242,-.5"/>
<text text-anchor="start" x="5250" y="-51.5" font-family="Helvetica,sans-Serif" font-size="10.00" fill="#000000">/home/travis/build</text>
<text text-anchor="start" x="5250" y="-40.5" font-family="Helvetica,sans-Serif" font-size="10.00" fill="#000000">/AliceO2Group/AliceO2</text>
<text text-anchor="start" x="5250" y="-29.5" font-family="Helvetica,sans-Serif" font-size="10.00" fill="#000000">/Detectors/MUON/MCH/Mapping</text>
<text text-anchor="start" x="5250" y="-18.5" font-family="Helvetica,sans-Serif" font-size="10.00" fill="#000000">/Impl3/src/GenCathodeSegmentationCreator</text>
<text text-anchor="middle" x="5358" y="-7.5" font-family="Helvetica,sans-Serif" font-size="10.00" fill="#000000">ForSegType8.cxx</text>
</a>
</g>
</g>
<!-- Node8&#45;&gt;Node30 -->
<g id="edge22" class="edge">
<title>Node8&#45;&gt;Node30</title>
<path fill="none" stroke="#191970" d="M2978.7557,-124.9102C3430.9036,-118.7393 5009.3802,-95.1626 5233,-64 5235.8843,-63.5981 5238.798,-63.1544 5241.7307,-62.6744"/>
<polygon fill="#191970" stroke="#191970" points="2978.5604,-121.4124 2968.609,-125.0483 2978.6557,-128.4118 2978.5604,-121.4124"/>
</g>
<!-- Node31 -->
<g id="node24" class="node">
<title>Node31</title>
<g id="a_node24"><a xlink:href="../../de/dfb/Impl3_2src_2GenCathodeSegmentationCreatorForSegType9_8cxx.html" target="_top" xlink:title="/home/travis/build\l/AliceO2Group/AliceO2\l/Detectors/MUON/MCH/Mapping\l/Impl3/src/GenCathodeSegmentationCreator\lForSegType9.cxx">
<polygon fill="none" stroke="#000000" points="5492,-.5 5492,-63.5 5724,-63.5 5724,-.5 5492,-.5"/>
<text text-anchor="start" x="5500" y="-51.5" font-family="Helvetica,sans-Serif" font-size="10.00" fill="#000000">/home/travis/build</text>
<text text-anchor="start" x="5500" y="-40.5" font-family="Helvetica,sans-Serif" font-size="10.00" fill="#000000">/AliceO2Group/AliceO2</text>
<text text-anchor="start" x="5500" y="-29.5" font-family="Helvetica,sans-Serif" font-size="10.00" fill="#000000">/Detectors/MUON/MCH/Mapping</text>
<text text-anchor="start" x="5500" y="-18.5" font-family="Helvetica,sans-Serif" font-size="10.00" fill="#000000">/Impl3/src/GenCathodeSegmentationCreator</text>
<text text-anchor="middle" x="5608" y="-7.5" font-family="Helvetica,sans-Serif" font-size="10.00" fill="#000000">ForSegType9.cxx</text>
</a>
</g>
</g>
<!-- Node8&#45;&gt;Node31 -->
<g id="edge23" class="edge">
<title>Node8&#45;&gt;Node31</title>
<path fill="none" stroke="#191970" d="M2978.6902,-125.2367C3460.6919,-119.9715 5233.6605,-98.4285 5483,-64 5485.8848,-63.6017 5488.7989,-63.1613 5491.732,-62.6841"/>
<polygon fill="#191970" stroke="#191970" points="2978.5386,-121.738 2968.5773,-125.3468 2978.6149,-128.7376 2978.5386,-121.738"/>
</g>
</g>
</svg>
