<?xml version="1.0" encoding="UTF-8" standalone="no"?>
<!DOCTYPE svg PUBLIC "-//W3C//DTD SVG 1.1//EN"
 "http://www.w3.org/Graphics/SVG/1.1/DTD/svg11.dtd">
<!-- Generated by graphviz version 2.40.1 (20161225.0304)
 -->
<!-- Title: /home/travis/build/AliceO2Group/AliceO2/Utilities/rANS/include/librans/rans.h Pages: 1 -->
<svg width="801pt" height="341pt"
 viewBox="0.00 0.00 801.25 341.00" xmlns="http://www.w3.org/2000/svg" xmlns:xlink="http://www.w3.org/1999/xlink">
<g id="graph0" class="graph" transform="scale(1 1) rotate(0) translate(4 337)">
<title>/home/travis/build/AliceO2Group/AliceO2/Utilities/rANS/include/librans/rans.h</title>
<!-- Node0 -->
<g id="node1" class="node">
<title>Node0</title>
<polygon fill="#bfbfbf" stroke="#000000" points="527,-280.5 527,-332.5 654,-332.5 654,-280.5 527,-280.5"/>
<text text-anchor="start" x="535" y="-320.5" font-family="Helvetica,sans-Serif" font-size="10.00" fill="#000000">/home/travis/build</text>
<text text-anchor="start" x="535" y="-309.5" font-family="Helvetica,sans-Serif" font-size="10.00" fill="#000000">/AliceO2Group/AliceO2</text>
<text text-anchor="start" x="535" y="-298.5" font-family="Helvetica,sans-Serif" font-size="10.00" fill="#000000">/Utilities/rANS/include</text>
<text text-anchor="middle" x="590.5" y="-287.5" font-family="Helvetica,sans-Serif" font-size="10.00" fill="#000000">/librans/rans.h</text>
</g>
<!-- Node1 -->
<g id="node2" class="node">
<title>Node1</title>
<g id="a_node2"><a xlink:href="../../d0/d51/SymbolStatistics_8h.html" target="_top" xlink:title="Structure to depict the distribution of symbols in the source message. ">
<polygon fill="none" stroke="#000000" points="546,-112.5 546,-131.5 689,-131.5 689,-112.5 546,-112.5"/>
<text text-anchor="middle" x="617.5" y="-119.5" font-family="Helvetica,sans-Serif" font-size="10.00" fill="#000000">librans/SymbolStatistics.h</text>
</a>
</g>
</g>
<!-- Node0&#45;&gt;Node1 -->
<g id="edge1" class="edge">
<title>Node0&#45;&gt;Node1</title>
<path fill="none" stroke="#191970" d="M639.8221,-280.335C672.4879,-259.9893 712.6641,-228.4348 731.5,-188 744.2445,-160.6416 713.5524,-143.9506 680.8215,-134.1993"/>
<polygon fill="#191970" stroke="#191970" points="681.6802,-130.8054 671.1089,-131.5108 679.8128,-137.5518 681.6802,-130.8054"/>
</g>
<!-- Node7 -->
<g id="node8" class="node">
<title>Node7</title>
<g id="a_node8"><a xlink:href="../../d4/db1/Utilities_2rANS_2include_2librans_2Encoder_8h.html" target="_top" xlink:title="librans/Encoder.h">
<polygon fill="none" stroke="#000000" points="261.5,-224.5 261.5,-243.5 361.5,-243.5 361.5,-224.5 261.5,-224.5"/>
<text text-anchor="middle" x="311.5" y="-231.5" font-family="Helvetica,sans-Serif" font-size="10.00" fill="#000000">librans/Encoder.h</text>
</a>
</g>
</g>
<!-- Node0&#45;&gt;Node7 -->
<g id="edge7" class="edge">
<title>Node0&#45;&gt;Node7</title>
<path fill="none" stroke="#191970" d="M526.8415,-289.9579C475.4484,-276.6031 404.3241,-258.1209 358.1174,-246.1139"/>
<polygon fill="#191970" stroke="#191970" points="358.9251,-242.7076 348.3663,-243.5799 357.1646,-249.4826 358.9251,-242.7076"/>
</g>
<!-- Node16 -->
<g id="node17" class="node">
<title>Node16</title>
<g id="a_node17"><a xlink:href="../../d4/dfd/Utilities_2rANS_2include_2librans_2Decoder_8h.html" target="_top" xlink:title="librans/Decoder.h">
<polygon fill="none" stroke="#000000" points="540,-224.5 540,-243.5 641,-243.5 641,-224.5 540,-224.5"/>
<text text-anchor="middle" x="590.5" y="-231.5" font-family="Helvetica,sans-Serif" font-size="10.00" fill="#000000">librans/Decoder.h</text>
</a>
</g>
</g>
<!-- Node0&#45;&gt;Node16 -->
<g id="edge26" class="edge">
<title>Node0&#45;&gt;Node16</title>
<path fill="none" stroke="#191970" d="M590.5,-280.3258C590.5,-271.5142 590.5,-261.8397 590.5,-253.621"/>
<polygon fill="#191970" stroke="#191970" points="594.0001,-253.534 590.5,-243.534 587.0001,-253.534 594.0001,-253.534"/>
</g>
<!-- Node2 -->
<g id="node3" class="node">
<title>Node2</title>
<polygon fill="none" stroke="#bfbfbf" points="496.5,-56.5 496.5,-75.5 560.5,-75.5 560.5,-56.5 496.5,-56.5"/>
<text text-anchor="middle" x="528.5" y="-63.5" font-family="Helvetica,sans-Serif" font-size="10.00" fill="#000000">algorithm</text>
</g>
<!-- Node1&#45;&gt;Node2 -->
<g id="edge2" class="edge">
<title>Node1&#45;&gt;Node2</title>
<path fill="none" stroke="#191970" d="M601.9974,-112.2455C588.342,-103.6534 568.2343,-91.0014 552.5011,-81.1018"/>
<polygon fill="#191970" stroke="#191970" points="554.1529,-78.006 543.825,-75.6427 550.4249,-83.9307 554.1529,-78.006"/>
</g>
<!-- Node3 -->
<g id="node4" class="node">
<title>Node3</title>
<polygon fill="none" stroke="#bfbfbf" points="335.5,-56.5 335.5,-75.5 387.5,-75.5 387.5,-56.5 335.5,-56.5"/>
<text text-anchor="middle" x="361.5" y="-63.5" font-family="Helvetica,sans-Serif" font-size="10.00" fill="#000000">cassert</text>
</g>
<!-- Node1&#45;&gt;Node3 -->
<g id="edge3" class="edge">
<title>Node1&#45;&gt;Node3</title>
<path fill="none" stroke="#191970" d="M573.7829,-112.4369C524.1288,-101.5751 444.0135,-84.0498 397.7097,-73.9209"/>
<polygon fill="#191970" stroke="#191970" points="398.3288,-70.4736 387.8118,-71.7557 396.8328,-77.3119 398.3288,-70.4736"/>
</g>
<!-- Node4 -->
<g id="node5" class="node">
<title>Node4</title>
<polygon fill="none" stroke="#bfbfbf" points="704.5,-56.5 704.5,-75.5 764.5,-75.5 764.5,-56.5 704.5,-56.5"/>
<text text-anchor="middle" x="734.5" y="-63.5" font-family="Helvetica,sans-Serif" font-size="10.00" fill="#000000">iostream</text>
</g>
<!-- Node1&#45;&gt;Node4 -->
<g id="edge4" class="edge">
<title>Node1&#45;&gt;Node4</title>
<path fill="none" stroke="#191970" d="M637.613,-112.3733C656.3103,-103.4241 684.3744,-89.9917 705.4934,-79.8835"/>
<polygon fill="#191970" stroke="#191970" points="707.1405,-82.9755 714.6494,-75.5011 704.1183,-76.6614 707.1405,-82.9755"/>
</g>
<!-- Node5 -->
<g id="node6" class="node">
<title>Node5</title>
<polygon fill="none" stroke="#bfbfbf" points="589.5,-56.5 589.5,-75.5 645.5,-75.5 645.5,-56.5 589.5,-56.5"/>
<text text-anchor="middle" x="617.5" y="-63.5" font-family="Helvetica,sans-Serif" font-size="10.00" fill="#000000">numeric</text>
</g>
<!-- Node1&#45;&gt;Node5 -->
<g id="edge5" class="edge">
<title>Node1&#45;&gt;Node5</title>
<path fill="none" stroke="#191970" d="M617.5,-112.2455C617.5,-104.9382 617.5,-94.6944 617.5,-85.7046"/>
<polygon fill="#191970" stroke="#191970" points="621.0001,-85.6426 617.5,-75.6427 614.0001,-85.6427 621.0001,-85.6426"/>
</g>
<!-- Node6 -->
<g id="node7" class="node">
<title>Node6</title>
<polygon fill="none" stroke="#bfbfbf" points="424,-56.5 424,-75.5 471,-75.5 471,-56.5 424,-56.5"/>
<text text-anchor="middle" x="447.5" y="-63.5" font-family="Helvetica,sans-Serif" font-size="10.00" fill="#000000">vector</text>
</g>
<!-- Node1&#45;&gt;Node6 -->
<g id="edge6" class="edge">
<title>Node1&#45;&gt;Node6</title>
<path fill="none" stroke="#191970" d="M588.276,-112.3733C558.38,-102.5252 512.0026,-87.2479 480.7286,-76.9459"/>
<polygon fill="#191970" stroke="#191970" points="481.7385,-73.5936 471.1455,-73.7891 479.5483,-80.2422 481.7385,-73.5936"/>
</g>
<!-- Node7&#45;&gt;Node2 -->
<g id="edge9" class="edge">
<title>Node7&#45;&gt;Node2</title>
<path fill="none" stroke="#191970" d="M316.6427,-224.0719C324.1758,-210.2346 339.3091,-184.9456 357.5,-168 400.1063,-128.3104 460.6791,-96.6902 497.1278,-79.704"/>
<polygon fill="#191970" stroke="#191970" points="498.6579,-82.8529 506.2912,-75.5056 495.7421,-76.4891 498.6579,-82.8529"/>
</g>
<!-- Node8 -->
<g id="node9" class="node">
<title>Node8</title>
<polygon fill="none" stroke="#bfbfbf" points="104.5,-168.5 104.5,-187.5 162.5,-187.5 162.5,-168.5 104.5,-168.5"/>
<text text-anchor="middle" x="133.5" y="-175.5" font-family="Helvetica,sans-Serif" font-size="10.00" fill="#000000">memory</text>
</g>
<!-- Node7&#45;&gt;Node8 -->
<g id="edge8" class="edge">
<title>Node7&#45;&gt;Node8</title>
<path fill="none" stroke="#191970" d="M280.9007,-224.3733C250.8136,-214.9076 204.7839,-200.4264 172.1772,-190.1681"/>
<polygon fill="#191970" stroke="#191970" points="173.1108,-186.7927 162.5213,-187.1303 171.01,-193.4701 173.1108,-186.7927"/>
</g>
<!-- Node9 -->
<g id="node10" class="node">
<title>Node9</title>
<g id="a_node10"><a xlink:href="../../d8/dd9/SymbolTable_8h.html" target="_top" xlink:title="Container for information needed to encode/decode a symbol of the alphabet. ">
<polygon fill="none" stroke="#000000" points="546.5,-168.5 546.5,-187.5 634.5,-187.5 634.5,-168.5 546.5,-168.5"/>
<text text-anchor="middle" x="590.5" y="-175.5" font-family="Helvetica,sans-Serif" font-size="10.00" fill="#000000">SymbolTable.h</text>
</a>
</g>
</g>
<!-- Node7&#45;&gt;Node9 -->
<g id="edge10" class="edge">
<title>Node7&#45;&gt;Node9</title>
<path fill="none" stroke="#191970" d="M359.1448,-224.4369C408.3161,-214.5674 484.8966,-199.1964 536.3369,-188.8714"/>
<polygon fill="#191970" stroke="#191970" points="537.1585,-192.2764 546.2742,-186.8769 535.7809,-185.4133 537.1585,-192.2764"/>
</g>
<!-- Node10 -->
<g id="node11" class="node">
<title>Node10</title>
<g id="a_node11"><a xlink:href="../../d2/d53/EncoderSymbol_8h.html" target="_top" xlink:title="Structure containing all relevant information to encode a symbol. ">
<polygon fill="none" stroke="#000000" points="160,-112.5 160,-131.5 261,-131.5 261,-112.5 160,-112.5"/>
<text text-anchor="middle" x="210.5" y="-119.5" font-family="Helvetica,sans-Serif" font-size="10.00" fill="#000000">EncoderSymbol.h</text>
</a>
</g>
</g>
<!-- Node7&#45;&gt;Node10 -->
<g id="edge13" class="edge">
<title>Node7&#45;&gt;Node10</title>
<path fill="none" stroke="#191970" d="M294.1439,-224.4095C280.2762,-216.1157 260.9941,-203.1006 247.5,-188 234.9628,-173.9702 224.8721,-154.9786 218.415,-140.9697"/>
<polygon fill="#191970" stroke="#191970" points="221.6065,-139.5325 214.3724,-131.7918 215.2004,-142.3542 221.6065,-139.5325"/>
</g>
<!-- Node14 -->
<g id="node15" class="node">
<title>Node14</title>
<g id="a_node15"><a xlink:href="../../d5/d7a/Coder_8h.html" target="_top" xlink:title="Stateless class for coding and decoding symbols using rANS. ">
<polygon fill="none" stroke="#000000" points="257,-168.5 257,-187.5 310,-187.5 310,-168.5 257,-168.5"/>
<text text-anchor="middle" x="283.5" y="-175.5" font-family="Helvetica,sans-Serif" font-size="10.00" fill="#000000">Coder.h</text>
</a>
</g>
</g>
<!-- Node7&#45;&gt;Node14 -->
<g id="edge18" class="edge">
<title>Node7&#45;&gt;Node14</title>
<path fill="none" stroke="#191970" d="M306.6228,-224.2455C302.8487,-216.6973 297.5079,-206.0158 292.9099,-196.8197"/>
<polygon fill="#191970" stroke="#191970" points="295.924,-195.0217 288.3213,-187.6427 289.663,-198.1522 295.924,-195.0217"/>
</g>
<!-- Node9&#45;&gt;Node1 -->
<g id="edge12" class="edge">
<title>Node9&#45;&gt;Node1</title>
<path fill="none" stroke="#191970" d="M595.203,-168.2455C598.8424,-160.6973 603.9924,-150.0158 608.4262,-140.8197"/>
<polygon fill="#191970" stroke="#191970" points="611.6605,-142.1704 612.8509,-131.6427 605.3551,-139.1303 611.6605,-142.1704"/>
</g>
<!-- Node9&#45;&gt;Node6 -->
<g id="edge11" class="edge">
<title>Node9&#45;&gt;Node6</title>
<path fill="none" stroke="#191970" d="M578.3079,-168.4509C553.7185,-149.1921 497.9609,-105.5218 467.7926,-81.8935"/>
<polygon fill="#191970" stroke="#191970" points="469.6921,-78.9355 459.6612,-75.5249 465.3759,-84.4464 469.6921,-78.9355"/>
</g>
<!-- Node10&#45;&gt;Node3 -->
<g id="edge15" class="edge">
<title>Node10&#45;&gt;Node3</title>
<path fill="none" stroke="#191970" d="M236.4578,-112.3733C261.2407,-103.1822 298.7746,-89.2624 326.254,-79.0713"/>
<polygon fill="#191970" stroke="#191970" points="327.7219,-82.26 335.8809,-75.5011 325.2879,-75.6968 327.7219,-82.26"/>
</g>
<!-- Node11 -->
<g id="node12" class="node">
<title>Node11</title>
<polygon fill="none" stroke="#bfbfbf" points="106.5,-56.5 106.5,-75.5 156.5,-75.5 156.5,-56.5 106.5,-56.5"/>
<text text-anchor="middle" x="131.5" y="-63.5" font-family="Helvetica,sans-Serif" font-size="10.00" fill="#000000">cstdint</text>
</g>
<!-- Node10&#45;&gt;Node11 -->
<g id="edge14" class="edge">
<title>Node10&#45;&gt;Node11</title>
<path fill="none" stroke="#191970" d="M196.7393,-112.2455C184.8448,-103.814 167.435,-91.4729 153.5915,-81.6598"/>
<polygon fill="#191970" stroke="#191970" points="155.2854,-78.5704 145.1031,-75.6427 151.2372,-84.2811 155.2854,-78.5704"/>
</g>
<!-- Node12 -->
<g id="node13" class="node">
<title>Node12</title>
<g id="a_node13"><a xlink:href="../../d4/da1/helper_8h.html" target="_top" xlink:title="various helper functions ">
<polygon fill="none" stroke="#000000" points="261.5,-56.5 261.5,-75.5 317.5,-75.5 317.5,-56.5 261.5,-56.5"/>
<text text-anchor="middle" x="289.5" y="-63.5" font-family="Helvetica,sans-Serif" font-size="10.00" fill="#000000">helper.h</text>
</a>
</g>
</g>
<!-- Node10&#45;&gt;Node12 -->
<g id="edge16" class="edge">
<title>Node10&#45;&gt;Node12</title>
<path fill="none" stroke="#191970" d="M224.2607,-112.2455C236.1552,-103.814 253.565,-91.4729 267.4085,-81.6598"/>
<polygon fill="#191970" stroke="#191970" points="269.7628,-84.2811 275.8969,-75.6427 265.7146,-78.5704 269.7628,-84.2811"/>
</g>
<!-- Node13 -->
<g id="node14" class="node">
<title>Node13</title>
<polygon fill="none" stroke="#bfbfbf" points="528,-.5 528,-19.5 581,-19.5 581,-.5 528,-.5"/>
<text text-anchor="middle" x="554.5" y="-7.5" font-family="Helvetica,sans-Serif" font-size="10.00" fill="#000000">cstddef</text>
</g>
<!-- Node12&#45;&gt;Node13 -->
<g id="edge17" class="edge">
<title>Node12&#45;&gt;Node13</title>
<path fill="none" stroke="#191970" d="M317.7338,-58.1669C320.6872,-57.4081 323.6503,-56.6718 326.5,-56 393.5923,-40.183 472.5857,-25.0066 517.7772,-16.6494"/>
<polygon fill="#191970" stroke="#191970" points="518.4993,-20.0753 527.7008,-14.8234 517.2325,-13.1909 518.4993,-20.0753"/>
</g>
<!-- Node14&#45;&gt;Node3 -->
<g id="edge21" class="edge">
<title>Node14&#45;&gt;Node3</title>
<path fill="none" stroke="#191970" d="M290.1502,-168.4509C303.2173,-149.688 332.4208,-107.7548 349.1328,-83.758"/>
<polygon fill="#191970" stroke="#191970" points="352.0237,-85.7312 354.8666,-75.5249 346.2795,-81.7307 352.0237,-85.7312"/>
</g>
<!-- Node14&#45;&gt;Node6 -->
<g id="edge19" class="edge">
<title>Node14&#45;&gt;Node6</title>
<path fill="none" stroke="#191970" d="M297.4825,-168.4509C325.9251,-149.0268 390.7292,-104.7703 425.1118,-81.2895"/>
<polygon fill="#191970" stroke="#191970" points="427.2687,-84.0549 433.5528,-75.5249 423.3209,-78.2742 427.2687,-84.0549"/>
</g>
<!-- Node14&#45;&gt;Node10 -->
<g id="edge24" class="edge">
<title>Node14&#45;&gt;Node10</title>
<path fill="none" stroke="#191970" d="M270.7844,-168.2455C259.898,-159.8943 244.0117,-147.7076 231.28,-137.9408"/>
<polygon fill="#191970" stroke="#191970" points="233.1346,-134.9523 223.0699,-131.6427 228.8739,-140.5063 233.1346,-134.9523"/>
</g>
<!-- Node14&#45;&gt;Node11 -->
<g id="edge20" class="edge">
<title>Node14&#45;&gt;Node11</title>
<path fill="none" stroke="#191970" d="M256.9897,-170.2627C220.3982,-159.3694 158.0458,-139.9542 150.5,-132 138.7291,-119.592 134.1839,-100.3685 132.4626,-85.8623"/>
<polygon fill="#191970" stroke="#191970" points="135.9489,-85.5517 131.6238,-75.8799 128.9735,-86.1379 135.9489,-85.5517"/>
</g>
<!-- Node14&#45;&gt;Node12 -->
<g id="edge25" class="edge">
<title>Node14&#45;&gt;Node12</title>
<path fill="none" stroke="#191970" d="M284.0116,-168.4509C284.9901,-150.184 287.1453,-109.9553 288.4448,-85.6976"/>
<polygon fill="#191970" stroke="#191970" points="291.9497,-85.6978 288.9897,-75.5249 284.9597,-85.3233 291.9497,-85.6978"/>
</g>
<!-- Node15 -->
<g id="node16" class="node">
<title>Node15</title>
<g id="a_node16"><a xlink:href="../../d7/d99/DecoderSymbol_8h.html" target="_top" xlink:title="Structure containing all relevant information for decoding a rANS encoded symbol. ...">
<polygon fill="none" stroke="#000000" points="0,-112.5 0,-131.5 103,-131.5 103,-112.5 0,-112.5"/>
<text text-anchor="middle" x="51.5" y="-119.5" font-family="Helvetica,sans-Serif" font-size="10.00" fill="#000000">DecoderSymbol.h</text>
</a>
</g>
</g>
<!-- Node14&#45;&gt;Node15 -->
<g id="edge22" class="edge">
<title>Node14&#45;&gt;Node15</title>
<path fill="none" stroke="#191970" d="M256.5965,-171.4264C251.8982,-170.2818 247.0572,-169.1045 242.5,-168 194.5744,-156.3843 139.8608,-143.2167 101.3129,-133.9551"/>
<polygon fill="#191970" stroke="#191970" points="101.9233,-130.5022 91.3824,-131.5697 100.2883,-137.3086 101.9233,-130.5022"/>
</g>
<!-- Node15&#45;&gt;Node11 -->
<g id="edge23" class="edge">
<title>Node15&#45;&gt;Node11</title>
<path fill="none" stroke="#191970" d="M65.4349,-112.2455C77.5947,-103.7337 95.4464,-91.2375 109.5285,-81.3801"/>
<polygon fill="#191970" stroke="#191970" points="111.5395,-84.2447 117.7248,-75.6427 107.5253,-78.51 111.5395,-84.2447"/>
</g>
<!-- Node16&#45;&gt;Node4 -->
<g id="edge29" class="edge">
<title>Node16&#45;&gt;Node4</title>
<path fill="none" stroke="#191970" d="M638.9028,-224.4233C675.0785,-216.1819 720.1591,-203.2315 731.5,-188 753.7534,-158.1122 746.8461,-111.7087 740.3423,-85.5891"/>
<polygon fill="#191970" stroke="#191970" points="743.6667,-84.4757 737.6658,-75.7442 736.9119,-86.3121 743.6667,-84.4757"/>
</g>
<!-- Node16&#45;&gt;Node9 -->
<g id="edge30" class="edge">
<title>Node16&#45;&gt;Node9</title>
<path fill="none" stroke="#191970" d="M590.5,-224.2455C590.5,-216.9382 590.5,-206.6944 590.5,-197.7046"/>
<polygon fill="#191970" stroke="#191970" points="594.0001,-197.6426 590.5,-187.6427 587.0001,-197.6427 594.0001,-197.6426"/>
</g>
<!-- Node16&#45;&gt;Node13 -->
<g id="edge27" class="edge">
<title>Node16&#45;&gt;Node13</title>
<path fill="none" stroke="#191970" d="M641.3382,-225.1431C682.0483,-217.0246 734.7091,-203.8726 749.5,-188 790.151,-144.376 811.0811,-102.2949 773.5,-56 751.0144,-28.3008 648.0709,-16.6695 591.6895,-12.308"/>
<polygon fill="#191970" stroke="#191970" points="591.6319,-8.7944 581.4025,-11.5529 591.1195,-15.7756 591.6319,-8.7944"/>
</g>
<!-- Node16&#45;&gt;Node14 -->
<g id="edge36" class="edge">
<title>Node16&#45;&gt;Node14</title>
<path fill="none" stroke="#191970" d="M539.8052,-224.7527C477.8874,-213.4583 374.6667,-194.6298 320.0221,-184.662"/>
<polygon fill="#191970" stroke="#191970" points="320.5519,-181.201 310.0861,-182.8496 319.2957,-188.0874 320.5519,-181.201"/>
</g>
<!-- Node16&#45;&gt;Node15 -->
<g id="edge31" class="edge">
<title>Node16&#45;&gt;Node15</title>
<path fill="none" stroke="#191970" d="M539.9675,-230.269C472.5819,-224.6037 349.8967,-211.8742 247.5,-188 188.9195,-174.3417 123.0726,-150.2949 84.5572,-135.3056"/>
<polygon fill="#191970" stroke="#191970" points="85.4986,-131.9151 74.9112,-131.518 82.9401,-138.4308 85.4986,-131.9151"/>
</g>
<!-- Node17 -->
<g id="node18" class="node">
<title>Node17</title>
<polygon fill="none" stroke="#bfbfbf" points="653,-168.5 653,-187.5 722,-187.5 722,-168.5 653,-168.5"/>
<text text-anchor="middle" x="687.5" y="-175.5" font-family="Helvetica,sans-Serif" font-size="10.00" fill="#000000">type_traits</text>
</g>
<!-- Node16&#45;&gt;Node17 -->
<g id="edge28" class="edge">
<title>Node16&#45;&gt;Node17</title>
<path fill="none" stroke="#191970" d="M607.3961,-224.2455C622.418,-215.5731 644.6043,-202.7645 661.821,-192.825"/>
<polygon fill="#191970" stroke="#191970" points="663.8871,-195.6737 670.7975,-187.6427 660.3872,-189.6114 663.8871,-195.6737"/>
</g>
<!-- Node18 -->
<g id="node19" class="node">
<title>Node18</title>
<g id="a_node19"><a xlink:href="../../dc/d3b/ReverseSymbolLookupTable_8h.html" target="_top" xlink:title="Maps CDF back to source symbol &#45; needed for the decoder. ">
<polygon fill="none" stroke="#000000" points="366.5,-168.5 366.5,-187.5 528.5,-187.5 528.5,-168.5 366.5,-168.5"/>
<text text-anchor="middle" x="447.5" y="-175.5" font-family="Helvetica,sans-Serif" font-size="10.00" fill="#000000">ReverseSymbolLookupTable.h</text>
</a>
</g>
</g>
<!-- Node16&#45;&gt;Node18 -->
<g id="edge32" class="edge">
<title>Node16&#45;&gt;Node18</title>
<path fill="none" stroke="#191970" d="M565.9174,-224.3733C542.5504,-215.2226 507.2138,-201.3844 481.2216,-191.2057"/>
<polygon fill="#191970" stroke="#191970" points="482.3495,-187.8886 471.7618,-187.5011 479.797,-194.4066 482.3495,-187.8886"/>
</g>
<!-- Node18&#45;&gt;Node1 -->
<g id="edge34" class="edge">
<title>Node18&#45;&gt;Node1</title>
<path fill="none" stroke="#191970" d="M476.724,-168.3733C504.9925,-159.0613 547.9965,-144.8953 579.0344,-134.671"/>
<polygon fill="#191970" stroke="#191970" points="580.2544,-137.9542 588.6573,-131.5011 578.0643,-131.3056 580.2544,-137.9542"/>
</g>
<!-- Node18&#45;&gt;Node6 -->
<g id="edge33" class="edge">
<title>Node18&#45;&gt;Node6</title>
<path fill="none" stroke="#191970" d="M447.5,-168.4509C447.5,-150.184 447.5,-109.9553 447.5,-85.6976"/>
<polygon fill="#191970" stroke="#191970" points="451.0001,-85.5249 447.5,-75.5249 444.0001,-85.5249 451.0001,-85.5249"/>
</g>
<!-- Node18&#45;&gt;Node12 -->
<g id="edge35" class="edge">
<title>Node18&#45;&gt;Node12</title>
<path fill="none" stroke="#191970" d="M434.029,-168.4509C406.7437,-149.1094 344.7246,-105.1465 311.4936,-81.5904"/>
<polygon fill="#191970" stroke="#191970" points="313.1192,-78.4526 302.9369,-75.5249 309.071,-84.1633 313.1192,-78.4526"/>
</g>
</g>
</svg>
