<?xml version="1.0" encoding="UTF-8" standalone="no"?>
<!DOCTYPE svg PUBLIC "-//W3C//DTD SVG 1.1//EN"
 "http://www.w3.org/Graphics/SVG/1.1/DTD/svg11.dtd">
<!-- Generated by graphviz version 2.40.1 (20161225.0304)
 -->
<!-- Title: /home/travis/build/AliceO2Group/AliceO2/EventVisualisation/DataConverter/include/EventVisualisationDataConverter/VisualisationTrack.h Pages: 1 -->
<svg width="434pt" height="184pt"
 viewBox="0.00 0.00 434.00 184.00" xmlns="http://www.w3.org/2000/svg" xmlns:xlink="http://www.w3.org/1999/xlink">
<g id="graph0" class="graph" transform="scale(1 1) rotate(0) translate(4 180)">
<title>/home/travis/build/AliceO2Group/AliceO2/EventVisualisation/DataConverter/include/EventVisualisationDataConverter/VisualisationTrack.h</title>
<!-- Node0 -->
<g id="node1" class="node">
<title>Node0</title>
<polygon fill="#bfbfbf" stroke="#000000" points="133.5,-112.5 133.5,-175.5 353.5,-175.5 353.5,-112.5 133.5,-112.5"/>
<text text-anchor="start" x="141.5" y="-163.5" font-family="Helvetica,sans-Serif" font-size="10.00" fill="#000000">/home/travis/build</text>
<text text-anchor="start" x="141.5" y="-152.5" font-family="Helvetica,sans-Serif" font-size="10.00" fill="#000000">/AliceO2Group/AliceO2</text>
<text text-anchor="start" x="141.5" y="-141.5" font-family="Helvetica,sans-Serif" font-size="10.00" fill="#000000">/EventVisualisation/DataConverter</text>
<text text-anchor="start" x="141.5" y="-130.5" font-family="Helvetica,sans-Serif" font-size="10.00" fill="#000000">/include/EventVisualisationDataConverter</text>
<text text-anchor="middle" x="243.5" y="-119.5" font-family="Helvetica,sans-Serif" font-size="10.00" fill="#000000">/VisualisationTrack.h</text>
</g>
<!-- Node1 -->
<g id="node2" class="node">
<title>Node1</title>
<g id="a_node2"><a xlink:href="../../de/ddf/ConversionConstants_8h.html" target="_top" xlink:title="ConversionConstants.h">
<polygon fill="none" stroke="#000000" points="0,-56.5 0,-75.5 129,-75.5 129,-56.5 0,-56.5"/>
<text text-anchor="middle" x="64.5" y="-63.5" font-family="Helvetica,sans-Serif" font-size="10.00" fill="#000000">ConversionConstants.h</text>
</a>
</g>
</g>
<!-- Node0&#45;&gt;Node1 -->
<g id="edge1" class="edge">
<title>Node0&#45;&gt;Node1</title>
<path fill="none" stroke="#191970" d="M171.2098,-112.4992C144.908,-101.0381 116.5455,-88.6791 95.6768,-79.5854"/>
<polygon fill="#191970" stroke="#191970" points="96.9292,-76.3133 86.3636,-75.5271 94.1328,-82.7306 96.9292,-76.3133"/>
</g>
<!-- Node2 -->
<g id="node3" class="node">
<title>Node2</title>
<polygon fill="none" stroke="#bfbfbf" points="88.5,-.5 88.5,-19.5 132.5,-19.5 132.5,-.5 88.5,-.5"/>
<text text-anchor="middle" x="110.5" y="-7.5" font-family="Helvetica,sans-Serif" font-size="10.00" fill="#000000">string</text>
</g>
<!-- Node0&#45;&gt;Node2 -->
<g id="edge4" class="edge">
<title>Node0&#45;&gt;Node2</title>
<path fill="none" stroke="#191970" d="M211.9809,-112.2439C185.4162,-85.4795 148.4405,-48.2258 127.2366,-26.8624"/>
<polygon fill="#191970" stroke="#191970" points="129.4655,-24.1397 119.9368,-19.5078 124.4972,-29.0709 129.4655,-24.1397"/>
</g>
<!-- Node3 -->
<g id="node4" class="node">
<title>Node3</title>
<polygon fill="none" stroke="#bfbfbf" points="186,-56.5 186,-75.5 235,-75.5 235,-56.5 186,-56.5"/>
<text text-anchor="middle" x="210.5" y="-63.5" font-family="Helvetica,sans-Serif" font-size="10.00" fill="#000000">iosfwd</text>
</g>
<!-- Node0&#45;&gt;Node3 -->
<g id="edge3" class="edge">
<title>Node0&#45;&gt;Node3</title>
<path fill="none" stroke="#191970" d="M230.0776,-112.2744C226.1631,-103.0218 222.0089,-93.2028 218.5391,-85.0015"/>
<polygon fill="#191970" stroke="#191970" points="221.6994,-83.4885 214.5795,-75.6426 215.2526,-86.216 221.6994,-83.4885"/>
</g>
<!-- Node4 -->
<g id="node5" class="node">
<title>Node4</title>
<polygon fill="none" stroke="#bfbfbf" points="253,-56.5 253,-75.5 300,-75.5 300,-56.5 253,-56.5"/>
<text text-anchor="middle" x="276.5" y="-63.5" font-family="Helvetica,sans-Serif" font-size="10.00" fill="#000000">vector</text>
</g>
<!-- Node0&#45;&gt;Node4 -->
<g id="edge5" class="edge">
<title>Node0&#45;&gt;Node4</title>
<path fill="none" stroke="#191970" d="M256.9224,-112.2744C260.8369,-103.0218 264.9911,-93.2028 268.4609,-85.0015"/>
<polygon fill="#191970" stroke="#191970" points="271.7474,-86.216 272.4205,-75.6426 265.3006,-83.4885 271.7474,-86.216"/>
</g>
<!-- Node5 -->
<g id="node6" class="node">
<title>Node5</title>
<polygon fill="none" stroke="#bfbfbf" points="318.5,-56.5 318.5,-75.5 360.5,-75.5 360.5,-56.5 318.5,-56.5"/>
<text text-anchor="middle" x="339.5" y="-63.5" font-family="Helvetica,sans-Serif" font-size="10.00" fill="#000000">array</text>
</g>
<!-- Node0&#45;&gt;Node5 -->
<g id="edge6" class="edge">
<title>Node0&#45;&gt;Node5</title>
<path fill="none" stroke="#191970" d="M282.2702,-112.4992C295.0813,-102.0902 308.804,-90.9405 319.5997,-82.169"/>
<polygon fill="#191970" stroke="#191970" points="322.0027,-84.7262 327.5568,-75.7039 317.5885,-79.2934 322.0027,-84.7262"/>
</g>
<!-- Node6 -->
<g id="node7" class="node">
<title>Node6</title>
<polygon fill="none" stroke="#bfbfbf" points="379,-56.5 379,-75.5 426,-75.5 426,-56.5 379,-56.5"/>
<text text-anchor="middle" x="402.5" y="-63.5" font-family="Helvetica,sans-Serif" font-size="10.00" fill="#000000">cmath</text>
</g>
<!-- Node0&#45;&gt;Node6 -->
<g id="edge7" class="edge">
<title>Node0&#45;&gt;Node6</title>
<path fill="none" stroke="#191970" d="M307.7131,-112.4992C330.759,-101.1937 355.586,-89.0144 374.0481,-79.9575"/>
<polygon fill="#191970" stroke="#191970" points="375.6429,-83.0737 383.0793,-75.5271 372.5599,-76.7892 375.6429,-83.0737"/>
</g>
<!-- Node1&#45;&gt;Node2 -->
<g id="edge2" class="edge">
<title>Node1&#45;&gt;Node2</title>
<path fill="none" stroke="#191970" d="M72.5126,-56.2455C78.9768,-48.3761 88.2385,-37.101 95.9983,-27.6542"/>
<polygon fill="#191970" stroke="#191970" points="98.9364,-29.5916 102.5792,-19.6427 93.5273,-25.1484 98.9364,-29.5916"/>
</g>
</g>
</svg>
