<?xml version="1.0" encoding="UTF-8" standalone="no"?>
<!DOCTYPE svg PUBLIC "-//W3C//DTD SVG 1.1//EN"
 "http://www.w3.org/Graphics/SVG/1.1/DTD/svg11.dtd">
<!-- Generated by graphviz version 2.40.1 (20161225.0304)
 -->
<!-- Title: o2::tpc::ClusterNativeHelper Pages: 1 -->
<svg width="168pt" height="237pt"
 viewBox="0.00 0.00 168.00 237.00" xmlns="http://www.w3.org/2000/svg" xmlns:xlink="http://www.w3.org/1999/xlink">
<g id="graph0" class="graph" transform="scale(1 1) rotate(0) translate(4 233)">
<title>o2::tpc::ClusterNativeHelper</title>
<!-- Node1 -->
<g id="node1" class="node">
<title>Node1</title>
<polygon fill="#bfbfbf" stroke="#000000" points="0,-.5 0,-112.5 160,-112.5 160,-.5 0,-.5"/>
<text text-anchor="middle" x="80" y="-100.5" font-family="Helvetica,sans-Serif" font-size="10.00" fill="#000000">o2::tpc::ClusterNativeHelper</text>
<polyline fill="none" stroke="#000000" points="0,-93.5 160,-93.5 "/>
<text text-anchor="middle" x="80" y="-81.5" font-family="Helvetica,sans-Serif" font-size="10.00" fill="#000000"> </text>
<polyline fill="none" stroke="#000000" points="0,-74.5 160,-74.5 "/>
<text text-anchor="start" x="8" y="-62.5" font-family="Helvetica,sans-Serif" font-size="10.00" fill="#000000">+ ClusterNativeHelper()</text>
<text text-anchor="start" x="8" y="-51.5" font-family="Helvetica,sans-Serif" font-size="10.00" fill="#000000">+ ~ClusterNativeHelper()</text>
<text text-anchor="start" x="8" y="-40.5" font-family="Helvetica,sans-Serif" font-size="10.00" fill="#000000">+ convert()</text>
<text text-anchor="start" x="8" y="-29.5" font-family="Helvetica,sans-Serif" font-size="10.00" fill="#000000">+ createClusterNativeIndex()</text>
<text text-anchor="start" x="8" y="-18.5" font-family="Helvetica,sans-Serif" font-size="10.00" fill="#000000">+ addFlatBuffer()</text>
<text text-anchor="start" x="8" y="-7.5" font-family="Helvetica,sans-Serif" font-size="10.00" fill="#000000">+ copySectorData()</text>
</g>
<!-- Node2 -->
<g id="node2" class="node">
<title>Node2</title>
<polygon fill="none" stroke="#bfbfbf" points="58,-171.5 58,-228.5 102,-228.5 102,-171.5 58,-171.5"/>
<text text-anchor="middle" x="80" y="-216.5" font-family="Helvetica,sans-Serif" font-size="10.00" fill="#000000">static</text>
<polyline fill="none" stroke="#bfbfbf" points="58,-209.5 102,-209.5 "/>
<text text-anchor="middle" x="80" y="-197.5" font-family="Helvetica,sans-Serif" font-size="10.00" fill="#000000"> </text>
<polyline fill="none" stroke="#bfbfbf" points="58,-190.5 102,-190.5 "/>
<text text-anchor="middle" x="80" y="-178.5" font-family="Helvetica,sans-Serif" font-size="10.00" fill="#000000"> </text>
</g>
<!-- Node2&#45;&gt;Node1 -->
<g id="edge1" class="edge">
<title>Node2&#45;&gt;Node1</title>
<path fill="none" stroke="#404040" d="M80,-171.3055C80,-157.9442 80,-141.4218 80,-125.1157"/>
<polygon fill="none" stroke="#404040" points="80.0001,-124.7445 76,-118.7445 80,-112.7445 84,-118.7444 80.0001,-124.7445"/>
<text text-anchor="middle" x="111" y="-145" font-family="Helvetica,sans-Serif" font-size="10.00" fill="#000000"> +NPadRows</text>
<text text-anchor="middle" x="111" y="-134" font-family="Helvetica,sans-Serif" font-size="10.00" fill="#000000">+NSectors</text>
</g>
</g>
</svg>
