<?xml version="1.0" encoding="UTF-8" standalone="no"?>
<!DOCTYPE svg PUBLIC "-//W3C//DTD SVG 1.1//EN"
 "http://www.w3.org/Graphics/SVG/1.1/DTD/svg11.dtd">
<!-- Generated by graphviz version 2.40.1 (20161225.0304)
 -->
<!-- Title: o2::ft0::Triggers Pages: 1 -->
<svg width="297pt" height="292pt"
 viewBox="0.00 0.00 297.00 292.00" xmlns="http://www.w3.org/2000/svg" xmlns:xlink="http://www.w3.org/1999/xlink">
<g id="graph0" class="graph" transform="scale(1 1) rotate(0) translate(4 288)">
<title>o2::ft0::Triggers</title>
<!-- Node1 -->
<g id="node1" class="node">
<title>Node1</title>
<polygon fill="#bfbfbf" stroke="#000000" points="95,-.5 95,-167.5 195,-167.5 195,-.5 95,-.5"/>
<text text-anchor="middle" x="145" y="-155.5" font-family="Helvetica,sans-Serif" font-size="10.00" fill="#000000">o2::ft0::Triggers</text>
<polyline fill="none" stroke="#000000" points="95,-148.5 195,-148.5 "/>
<text text-anchor="middle" x="145" y="-136.5" font-family="Helvetica,sans-Serif" font-size="10.00" fill="#000000"> </text>
<polyline fill="none" stroke="#000000" points="95,-129.5 195,-129.5 "/>
<text text-anchor="start" x="103" y="-117.5" font-family="Helvetica,sans-Serif" font-size="10.00" fill="#000000">+ Triggers()</text>
<text text-anchor="start" x="103" y="-106.5" font-family="Helvetica,sans-Serif" font-size="10.00" fill="#000000">+ Triggers()</text>
<text text-anchor="start" x="103" y="-95.5" font-family="Helvetica,sans-Serif" font-size="10.00" fill="#000000">+ getOrA()</text>
<text text-anchor="start" x="103" y="-84.5" font-family="Helvetica,sans-Serif" font-size="10.00" fill="#000000">+ getOrC()</text>
<text text-anchor="start" x="103" y="-73.5" font-family="Helvetica,sans-Serif" font-size="10.00" fill="#000000">+ getVertex()</text>
<text text-anchor="start" x="103" y="-62.5" font-family="Helvetica,sans-Serif" font-size="10.00" fill="#000000">+ getCen()</text>
<text text-anchor="start" x="103" y="-51.5" font-family="Helvetica,sans-Serif" font-size="10.00" fill="#000000">+ getSCen()</text>
<text text-anchor="start" x="103" y="-40.5" font-family="Helvetica,sans-Serif" font-size="10.00" fill="#000000">+ setTriggers()</text>
<text text-anchor="start" x="103" y="-29.5" font-family="Helvetica,sans-Serif" font-size="10.00" fill="#000000">+ cleanTriggers()</text>
<text text-anchor="start" x="103" y="-18.5" font-family="Helvetica,sans-Serif" font-size="10.00" fill="#000000">+ getTriggers()</text>
<text text-anchor="start" x="103" y="-7.5" font-family="Helvetica,sans-Serif" font-size="10.00" fill="#000000">+ ClassDefNV()</text>
</g>
<!-- Node2 -->
<g id="node2" class="node">
<title>Node2</title>
<polygon fill="none" stroke="#bfbfbf" points="0,-226.5 0,-283.5 44,-283.5 44,-226.5 0,-226.5"/>
<text text-anchor="middle" x="22" y="-271.5" font-family="Helvetica,sans-Serif" font-size="10.00" fill="#000000">int8_t</text>
<polyline fill="none" stroke="#bfbfbf" points="0,-264.5 44,-264.5 "/>
<text text-anchor="middle" x="22" y="-252.5" font-family="Helvetica,sans-Serif" font-size="10.00" fill="#000000"> </text>
<polyline fill="none" stroke="#bfbfbf" points="0,-245.5 44,-245.5 "/>
<text text-anchor="middle" x="22" y="-233.5" font-family="Helvetica,sans-Serif" font-size="10.00" fill="#000000"> </text>
</g>
<!-- Node2&#45;&gt;Node1 -->
<g id="edge1" class="edge">
<title>Node2&#45;&gt;Node1</title>
<path fill="none" stroke="#404040" d="M25.34,-226.4478C27.7618,-213.463 31.9122,-198.2907 39,-186 51.0054,-165.1819 68.5065,-145.887 85.8412,-129.8083"/>
<polygon fill="none" stroke="#404040" points="85.9356,-129.7235 87.7246,-122.7378 94.861,-121.7023 93.072,-128.688 85.9356,-129.7235"/>
<text text-anchor="middle" x="63.5" y="-200" font-family="Helvetica,sans-Serif" font-size="10.00" fill="#000000"> +nChanA</text>
<text text-anchor="middle" x="63.5" y="-189" font-family="Helvetica,sans-Serif" font-size="10.00" fill="#000000">+nChanC</text>
</g>
<!-- Node3 -->
<g id="node3" class="node">
<title>Node3</title>
<polygon fill="none" stroke="#bfbfbf" points="69,-226.5 69,-283.5 119,-283.5 119,-226.5 69,-226.5"/>
<text text-anchor="middle" x="94" y="-271.5" font-family="Helvetica,sans-Serif" font-size="10.00" fill="#000000">uint8_t</text>
<polyline fill="none" stroke="#bfbfbf" points="69,-264.5 119,-264.5 "/>
<text text-anchor="middle" x="94" y="-252.5" font-family="Helvetica,sans-Serif" font-size="10.00" fill="#000000"> </text>
<polyline fill="none" stroke="#bfbfbf" points="69,-245.5 119,-245.5 "/>
<text text-anchor="middle" x="94" y="-233.5" font-family="Helvetica,sans-Serif" font-size="10.00" fill="#000000"> </text>
</g>
<!-- Node3&#45;&gt;Node1 -->
<g id="edge2" class="edge">
<title>Node3&#45;&gt;Node1</title>
<path fill="none" stroke="#404040" d="M91.626,-226.4512C91.2918,-213.887 91.874,-199.0489 95,-186 95.5513,-183.6985 96.1609,-181.3887 96.8219,-179.0764"/>
<polygon fill="none" stroke="#404040" points="96.8629,-178.9482 94.885,-172.0136 100.5254,-167.5208 102.5033,-174.4553 96.8629,-178.9482"/>
<text text-anchor="middle" x="134.5" y="-194.5" font-family="Helvetica,sans-Serif" font-size="10.00" fill="#000000"> +triggersignals</text>
</g>
<!-- Node4 -->
<g id="node4" class="node">
<title>Node4</title>
<polygon fill="none" stroke="#bfbfbf" points="171,-226.5 171,-283.5 221,-283.5 221,-226.5 171,-226.5"/>
<text text-anchor="middle" x="196" y="-271.5" font-family="Helvetica,sans-Serif" font-size="10.00" fill="#000000">int32_t</text>
<polyline fill="none" stroke="#bfbfbf" points="171,-264.5 221,-264.5 "/>
<text text-anchor="middle" x="196" y="-252.5" font-family="Helvetica,sans-Serif" font-size="10.00" fill="#000000"> </text>
<polyline fill="none" stroke="#bfbfbf" points="171,-245.5 221,-245.5 "/>
<text text-anchor="middle" x="196" y="-233.5" font-family="Helvetica,sans-Serif" font-size="10.00" fill="#000000"> </text>
</g>
<!-- Node4&#45;&gt;Node1 -->
<g id="edge3" class="edge">
<title>Node4&#45;&gt;Node1</title>
<path fill="none" stroke="#404040" d="M187.4637,-226.3784C183.524,-213.1687 178.5955,-196.6438 173.505,-179.5757"/>
<polygon fill="none" stroke="#404040" points="173.3949,-179.206 167.8468,-174.5996 169.9651,-167.7066 175.5131,-172.3131 173.3949,-179.206"/>
<text text-anchor="middle" x="201.5" y="-200" font-family="Helvetica,sans-Serif" font-size="10.00" fill="#000000"> +amplA</text>
<text text-anchor="middle" x="201.5" y="-189" font-family="Helvetica,sans-Serif" font-size="10.00" fill="#000000">+amplC</text>
</g>
<!-- Node5 -->
<g id="node5" class="node">
<title>Node5</title>
<polygon fill="none" stroke="#bfbfbf" points="239,-226.5 239,-283.5 289,-283.5 289,-226.5 239,-226.5"/>
<text text-anchor="middle" x="264" y="-271.5" font-family="Helvetica,sans-Serif" font-size="10.00" fill="#000000">int16_t</text>
<polyline fill="none" stroke="#bfbfbf" points="239,-264.5 289,-264.5 "/>
<text text-anchor="middle" x="264" y="-252.5" font-family="Helvetica,sans-Serif" font-size="10.00" fill="#000000"> </text>
<polyline fill="none" stroke="#bfbfbf" points="239,-245.5 289,-245.5 "/>
<text text-anchor="middle" x="264" y="-233.5" font-family="Helvetica,sans-Serif" font-size="10.00" fill="#000000"> </text>
</g>
<!-- Node5&#45;&gt;Node1 -->
<g id="edge4" class="edge">
<title>Node5&#45;&gt;Node1</title>
<path fill="none" stroke="#404040" d="M250.1985,-226.4531C243.68,-213.7534 235.4775,-198.8085 227,-186 219.5316,-174.7161 211.1003,-163.1622 202.5582,-152.0744"/>
<polygon fill="none" stroke="#404040" points="202.4381,-151.9209 195.5907,-149.6596 195.0445,-142.4692 201.8919,-144.7305 202.4381,-151.9209"/>
<text text-anchor="middle" x="259.5" y="-200" font-family="Helvetica,sans-Serif" font-size="10.00" fill="#000000"> +timeA</text>
<text text-anchor="middle" x="259.5" y="-189" font-family="Helvetica,sans-Serif" font-size="10.00" fill="#000000">+timeC</text>
</g>
</g>
</svg>
