<?xml version="1.0" encoding="UTF-8" standalone="no"?>
<!DOCTYPE svg PUBLIC "-//W3C//DTD SVG 1.1//EN"
 "http://www.w3.org/Graphics/SVG/1.1/DTD/svg11.dtd">
<!-- Generated by graphviz version 2.40.1 (20161225.0304)
 -->
<!-- Title: /home/travis/build/AliceO2Group/AliceO2/Detectors/MUON/MCH/Mapping/Interface/include/MCHMappingInterface/CathodeSegmentation.h Pages: 1 -->
<svg width="729pt" height="128pt"
 viewBox="0.00 0.00 728.50 128.00" xmlns="http://www.w3.org/2000/svg" xmlns:xlink="http://www.w3.org/1999/xlink">
<g id="graph0" class="graph" transform="scale(1 1) rotate(0) translate(4 124)">
<title>/home/travis/build/AliceO2Group/AliceO2/Detectors/MUON/MCH/Mapping/Interface/include/MCHMappingInterface/CathodeSegmentation.h</title>
<!-- Node0 -->
<g id="node1" class="node">
<title>Node0</title>
<polygon fill="#bfbfbf" stroke="#000000" points="322.5,-56.5 322.5,-119.5 534.5,-119.5 534.5,-56.5 322.5,-56.5"/>
<text text-anchor="start" x="330.5" y="-107.5" font-family="Helvetica,sans-Serif" font-size="10.00" fill="#000000">/home/travis/build</text>
<text text-anchor="start" x="330.5" y="-96.5" font-family="Helvetica,sans-Serif" font-size="10.00" fill="#000000">/AliceO2Group/AliceO2</text>
<text text-anchor="start" x="330.5" y="-85.5" font-family="Helvetica,sans-Serif" font-size="10.00" fill="#000000">/Detectors/MUON/MCH/Mapping</text>
<text text-anchor="start" x="330.5" y="-74.5" font-family="Helvetica,sans-Serif" font-size="10.00" fill="#000000">/Interface/include/MCHMappingInterface</text>
<text text-anchor="middle" x="428.5" y="-63.5" font-family="Helvetica,sans-Serif" font-size="10.00" fill="#000000">/CathodeSegmentation.h</text>
</g>
<!-- Node1 -->
<g id="node2" class="node">
<title>Node1</title>
<g id="a_node2"><a xlink:href="../../d0/dc7/CathodeSegmentationCInterface_8h.html" target="_top" xlink:title="CathodeSegmentationCInterface.h">
<polygon fill="none" stroke="#000000" points="0,-.5 0,-19.5 185,-19.5 185,-.5 0,-.5"/>
<text text-anchor="middle" x="92.5" y="-7.5" font-family="Helvetica,sans-Serif" font-size="10.00" fill="#000000">CathodeSegmentationCInterface.h</text>
</a>
</g>
</g>
<!-- Node0&#45;&gt;Node1 -->
<g id="edge1" class="edge">
<title>Node0&#45;&gt;Node1</title>
<path fill="none" stroke="#191970" d="M322.1875,-63.3203C262.5412,-49.4739 190.8478,-32.8307 143.6059,-21.8639"/>
<polygon fill="#191970" stroke="#191970" points="144.1486,-18.3968 133.6161,-19.5448 142.5656,-25.2155 144.1486,-18.3968"/>
</g>
<!-- Node2 -->
<g id="node3" class="node">
<title>Node2</title>
<polygon fill="none" stroke="#bfbfbf" points="203,-.5 203,-19.5 268,-19.5 268,-.5 203,-.5"/>
<text text-anchor="middle" x="235.5" y="-7.5" font-family="Helvetica,sans-Serif" font-size="10.00" fill="#000000">stdexcept</text>
</g>
<!-- Node0&#45;&gt;Node2 -->
<g id="edge2" class="edge">
<title>Node0&#45;&gt;Node2</title>
<path fill="none" stroke="#191970" d="M350.5558,-56.4992C321.9402,-44.9344 291.0624,-32.4553 268.5063,-23.3393"/>
<polygon fill="#191970" stroke="#191970" points="269.6565,-20.0292 259.0736,-19.5271 267.0335,-26.5192 269.6565,-20.0292"/>
</g>
<!-- Node3 -->
<g id="node4" class="node">
<title>Node3</title>
<polygon fill="none" stroke="#bfbfbf" points="286.5,-.5 286.5,-19.5 344.5,-19.5 344.5,-.5 286.5,-.5"/>
<text text-anchor="middle" x="315.5" y="-7.5" font-family="Helvetica,sans-Serif" font-size="10.00" fill="#000000">memory</text>
</g>
<!-- Node0&#45;&gt;Node3 -->
<g id="edge3" class="edge">
<title>Node0&#45;&gt;Node3</title>
<path fill="none" stroke="#191970" d="M382.8643,-56.4992C367.2371,-45.7123 350.4575,-34.13 337.5541,-25.2232"/>
<polygon fill="#191970" stroke="#191970" points="339.5202,-22.3275 329.3021,-19.5271 335.5437,-28.0883 339.5202,-22.3275"/>
</g>
<!-- Node4 -->
<g id="node5" class="node">
<title>Node4</title>
<polygon fill="none" stroke="#bfbfbf" points="362.5,-.5 362.5,-19.5 422.5,-19.5 422.5,-.5 362.5,-.5"/>
<text text-anchor="middle" x="392.5" y="-7.5" font-family="Helvetica,sans-Serif" font-size="10.00" fill="#000000">iostream</text>
</g>
<!-- Node0&#45;&gt;Node4 -->
<g id="edge4" class="edge">
<title>Node0&#45;&gt;Node4</title>
<path fill="none" stroke="#191970" d="M413.8574,-56.2744C409.5395,-46.919 404.9544,-36.9845 401.144,-28.7287"/>
<polygon fill="#191970" stroke="#191970" points="404.3189,-27.2554 396.9504,-19.6426 397.9632,-30.1889 404.3189,-27.2554"/>
</g>
<!-- Node5 -->
<g id="node6" class="node">
<title>Node5</title>
<polygon fill="none" stroke="#bfbfbf" points="441,-.5 441,-19.5 488,-19.5 488,-.5 441,-.5"/>
<text text-anchor="middle" x="464.5" y="-7.5" font-family="Helvetica,sans-Serif" font-size="10.00" fill="#000000">vector</text>
</g>
<!-- Node0&#45;&gt;Node5 -->
<g id="edge5" class="edge">
<title>Node0&#45;&gt;Node5</title>
<path fill="none" stroke="#191970" d="M443.1426,-56.2744C447.4605,-46.919 452.0456,-36.9845 455.856,-28.7287"/>
<polygon fill="#191970" stroke="#191970" points="459.0368,-30.1889 460.0496,-19.6426 452.6811,-27.2554 459.0368,-30.1889"/>
</g>
<!-- Node6 -->
<g id="node7" class="node">
<title>Node6</title>
<polygon fill="none" stroke="#bfbfbf" points="506.5,-.5 506.5,-19.5 562.5,-19.5 562.5,-.5 506.5,-.5"/>
<text text-anchor="middle" x="534.5" y="-7.5" font-family="Helvetica,sans-Serif" font-size="10.00" fill="#000000">sstream</text>
</g>
<!-- Node0&#45;&gt;Node6 -->
<g id="edge6" class="edge">
<title>Node0&#45;&gt;Node6</title>
<path fill="none" stroke="#191970" d="M471.3087,-56.4992C485.7345,-45.8841 501.207,-34.4986 513.2311,-25.6507"/>
<polygon fill="#191970" stroke="#191970" points="515.3327,-28.4497 521.3127,-19.7039 511.1839,-22.8117 515.3327,-28.4497"/>
</g>
<!-- Node7 -->
<g id="node8" class="node">
<title>Node7</title>
<polygon fill="none" stroke="#bfbfbf" points="581,-.5 581,-19.5 646,-19.5 646,-.5 581,-.5"/>
<text text-anchor="middle" x="613.5" y="-7.5" font-family="Helvetica,sans-Serif" font-size="10.00" fill="#000000">functional</text>
</g>
<!-- Node0&#45;&gt;Node7 -->
<g id="edge7" class="edge">
<title>Node0&#45;&gt;Node7</title>
<path fill="none" stroke="#191970" d="M503.2133,-56.4992C530.5198,-44.9863 559.9753,-32.5672 581.5705,-23.4622"/>
<polygon fill="#191970" stroke="#191970" points="583.0489,-26.6373 590.9036,-19.5271 580.3293,-20.1872 583.0489,-26.6373"/>
</g>
<!-- Node8 -->
<g id="node9" class="node">
<title>Node8</title>
<polygon fill="none" stroke="#bfbfbf" points="664.5,-.5 664.5,-19.5 720.5,-19.5 720.5,-.5 664.5,-.5"/>
<text text-anchor="middle" x="692.5" y="-7.5" font-family="Helvetica,sans-Serif" font-size="10.00" fill="#000000">iomanip</text>
</g>
<!-- Node0&#45;&gt;Node8 -->
<g id="edge8" class="edge">
<title>Node0&#45;&gt;Node8</title>
<path fill="none" stroke="#191970" d="M534.7377,-56.6116C577.1437,-44.0825 623.2405,-30.463 654.5907,-21.2005"/>
<polygon fill="#191970" stroke="#191970" points="655.6294,-24.5432 664.2278,-18.3531 653.6459,-17.8301 655.6294,-24.5432"/>
</g>
</g>
</svg>
