<?xml version="1.0" encoding="UTF-8" standalone="no"?>
<!DOCTYPE svg PUBLIC "-//W3C//DTD SVG 1.1//EN"
 "http://www.w3.org/Graphics/SVG/1.1/DTD/svg11.dtd">
<!-- Generated by graphviz version 2.40.1 (20161225.0304)
 -->
<!-- Title: /home/travis/build/AliceO2Group/AliceO2/Detectors/ITSMFT/MFT/base/src/VSegmentation.cxx Pages: 1 -->
<svg width="176pt" height="173pt"
 viewBox="0.00 0.00 175.50 173.00" xmlns="http://www.w3.org/2000/svg" xmlns:xlink="http://www.w3.org/1999/xlink">
<g id="graph0" class="graph" transform="scale(1 1) rotate(0) translate(4 169)">
<title>/home/travis/build/AliceO2Group/AliceO2/Detectors/ITSMFT/MFT/base/src/VSegmentation.cxx</title>
<!-- Node0 -->
<g id="node1" class="node">
<title>Node0</title>
<polygon fill="#bfbfbf" stroke="#000000" points=".5,-112.5 .5,-164.5 158.5,-164.5 158.5,-112.5 .5,-112.5"/>
<text text-anchor="start" x="8.5" y="-152.5" font-family="Helvetica,sans-Serif" font-size="10.00" fill="#000000">/home/travis/build</text>
<text text-anchor="start" x="8.5" y="-141.5" font-family="Helvetica,sans-Serif" font-size="10.00" fill="#000000">/AliceO2Group/AliceO2</text>
<text text-anchor="start" x="8.5" y="-130.5" font-family="Helvetica,sans-Serif" font-size="10.00" fill="#000000">/Detectors/ITSMFT/MFT</text>
<text text-anchor="middle" x="79.5" y="-119.5" font-family="Helvetica,sans-Serif" font-size="10.00" fill="#000000">/base/src/VSegmentation.cxx</text>
</g>
<!-- Node1 -->
<g id="node2" class="node">
<title>Node1</title>
<g id="a_node2"><a xlink:href="../../d3/de7/VSegmentation_8h.html" target="_top" xlink:title="Abstract base class for MFT Segmentation description. ">
<polygon fill="none" stroke="#000000" points="6,-56.5 6,-75.5 153,-75.5 153,-56.5 6,-56.5"/>
<text text-anchor="middle" x="79.5" y="-63.5" font-family="Helvetica,sans-Serif" font-size="10.00" fill="#000000">MFTBase/VSegmentation.h</text>
</a>
</g>
</g>
<!-- Node0&#45;&gt;Node1 -->
<g id="edge1" class="edge">
<title>Node0&#45;&gt;Node1</title>
<path fill="none" stroke="#191970" d="M79.5,-112.3258C79.5,-103.5142 79.5,-93.8397 79.5,-85.621"/>
<polygon fill="#191970" stroke="#191970" points="83.0001,-85.534 79.5,-75.534 76.0001,-85.534 83.0001,-85.534"/>
</g>
<!-- Node2 -->
<g id="node3" class="node">
<title>Node2</title>
<polygon fill="none" stroke="#bfbfbf" points="0,-.5 0,-19.5 67,-19.5 67,-.5 0,-.5"/>
<text text-anchor="middle" x="33.5" y="-7.5" font-family="Helvetica,sans-Serif" font-size="10.00" fill="#000000">TNamed.h</text>
</g>
<!-- Node1&#45;&gt;Node2 -->
<g id="edge2" class="edge">
<title>Node1&#45;&gt;Node2</title>
<path fill="none" stroke="#191970" d="M71.4874,-56.2455C65.0232,-48.3761 55.7615,-37.101 48.0017,-27.6542"/>
<polygon fill="#191970" stroke="#191970" points="50.4727,-25.1484 41.4208,-19.6427 45.0636,-29.5916 50.4727,-25.1484"/>
</g>
<!-- Node3 -->
<g id="node4" class="node">
<title>Node3</title>
<polygon fill="none" stroke="#bfbfbf" points="85.5,-.5 85.5,-19.5 167.5,-19.5 167.5,-.5 85.5,-.5"/>
<text text-anchor="middle" x="126.5" y="-7.5" font-family="Helvetica,sans-Serif" font-size="10.00" fill="#000000">TGeoMatrix.h</text>
</g>
<!-- Node1&#45;&gt;Node3 -->
<g id="edge3" class="edge">
<title>Node1&#45;&gt;Node3</title>
<path fill="none" stroke="#191970" d="M87.6868,-56.2455C94.3589,-48.2958 103.9479,-36.8706 111.9253,-27.3656"/>
<polygon fill="#191970" stroke="#191970" points="114.6592,-29.5525 118.407,-19.6427 109.2974,-25.0524 114.6592,-29.5525"/>
</g>
</g>
</svg>
