<?xml version="1.0" encoding="UTF-8" standalone="no"?>
<!DOCTYPE svg PUBLIC "-//W3C//DTD SVG 1.1//EN"
 "http://www.w3.org/Graphics/SVG/1.1/DTD/svg11.dtd">
<!-- Generated by graphviz version 2.40.1 (20161225.0304)
 -->
<!-- Title: o2::mft::ClustererDPL Pages: 1 -->
<svg width="129pt" height="226pt"
 viewBox="0.00 0.00 129.00 226.00" xmlns="http://www.w3.org/2000/svg" xmlns:xlink="http://www.w3.org/1999/xlink">
<g id="graph0" class="graph" transform="scale(1 1) rotate(0) translate(4 222)">
<title>o2::mft::ClustererDPL</title>
<!-- Node0 -->
<g id="node1" class="node">
<title>Node0</title>
<polygon fill="#bfbfbf" stroke="#000000" points="0,-.5 0,-90.5 121,-90.5 121,-.5 0,-.5"/>
<text text-anchor="middle" x="60.5" y="-78.5" font-family="Helvetica,sans-Serif" font-size="10.00" fill="#000000">o2::mft::ClustererDPL</text>
<polyline fill="none" stroke="#000000" points="0,-71.5 121,-71.5 "/>
<text text-anchor="middle" x="60.5" y="-59.5" font-family="Helvetica,sans-Serif" font-size="10.00" fill="#000000"> </text>
<polyline fill="none" stroke="#000000" points="0,-52.5 121,-52.5 "/>
<text text-anchor="start" x="8" y="-40.5" font-family="Helvetica,sans-Serif" font-size="10.00" fill="#000000">+ ClustererDPL()</text>
<text text-anchor="start" x="8" y="-29.5" font-family="Helvetica,sans-Serif" font-size="10.00" fill="#000000">+ ~ClustererDPL()</text>
<text text-anchor="start" x="8" y="-18.5" font-family="Helvetica,sans-Serif" font-size="10.00" fill="#000000">+ init()</text>
<text text-anchor="start" x="8" y="-7.5" font-family="Helvetica,sans-Serif" font-size="10.00" fill="#000000">+ run()</text>
</g>
<!-- Node1 -->
<g id="node2" class="node">
<title>Node1</title>
<g id="a_node2"><a xlink:href="../../de/dac/classo2_1_1framework_1_1Task.html" target="_top" xlink:title="{o2::framework::Task\n||+ ~Task()\l+ init()\l+ run()\l+ endOfStream()\l}">
<polygon fill="none" stroke="#000000" points="2.5,-127.5 2.5,-217.5 118.5,-217.5 118.5,-127.5 2.5,-127.5"/>
<text text-anchor="middle" x="60.5" y="-205.5" font-family="Helvetica,sans-Serif" font-size="10.00" fill="#000000">o2::framework::Task</text>
<polyline fill="none" stroke="#000000" points="2.5,-198.5 118.5,-198.5 "/>
<text text-anchor="middle" x="60.5" y="-186.5" font-family="Helvetica,sans-Serif" font-size="10.00" fill="#000000"> </text>
<polyline fill="none" stroke="#000000" points="2.5,-179.5 118.5,-179.5 "/>
<text text-anchor="start" x="10.5" y="-167.5" font-family="Helvetica,sans-Serif" font-size="10.00" fill="#000000">+ ~Task()</text>
<text text-anchor="start" x="10.5" y="-156.5" font-family="Helvetica,sans-Serif" font-size="10.00" fill="#000000">+ init()</text>
<text text-anchor="start" x="10.5" y="-145.5" font-family="Helvetica,sans-Serif" font-size="10.00" fill="#000000">+ run()</text>
<text text-anchor="start" x="10.5" y="-134.5" font-family="Helvetica,sans-Serif" font-size="10.00" fill="#000000">+ endOfStream()</text>
</a>
</g>
</g>
<!-- Node1&#45;&gt;Node0 -->
<g id="edge1" class="edge">
<title>Node1&#45;&gt;Node0</title>
<path fill="none" stroke="#191970" d="M60.5,-117.2012C60.5,-108.4232 60.5,-99.4326 60.5,-90.9156"/>
<polygon fill="none" stroke="#191970" points="57.0001,-117.3669 60.5,-127.367 64.0001,-117.367 57.0001,-117.3669"/>
</g>
</g>
</svg>
