<?xml version="1.0" encoding="UTF-8" standalone="no"?>
<!DOCTYPE svg PUBLIC "-//W3C//DTD SVG 1.1//EN"
 "http://www.w3.org/Graphics/SVG/1.1/DTD/svg11.dtd">
<!-- Generated by graphviz version 2.40.1 (20161225.0304)
 -->
<!-- Title: o2::framework::MatcherInfo Pages: 1 -->
<!--zoomable 799 -->
<svg id="main" version="1.1" xmlns="http://www.w3.org/2000/svg" xmlns:xlink="http://www.w3.org/1999/xlink" xml:space="preserve" onload="init(evt)">
<style type="text/css"><![CDATA[
.edge:hover path { stroke: red; }
.edge:hover polygon { stroke: red; fill: red; }
]]></style>
<script type="text/javascript"><![CDATA[
var edges = document.getElementsByTagName('g');
if (edges && edges.length) {
  for (var i=0;i<edges.length;i++) {
    if (edges[i].id.substr(0,4)=='edge') {
      edges[i].setAttribute('class','edge');
    }
  }
}
]]></script>
        <defs>
                <circle id="rim" cx="0" cy="0" r="7"/>
                <circle id="rim2" cx="0" cy="0" r="3.5"/>
                <g id="zoomPlus">
                        <use xlink:href="#rim" fill="#404040">
                                <set attributeName="fill" to="#808080" begin="zoomplus.mouseover" end="zoomplus.mouseout"/>
                        </use>
                        <path d="M-4,0h8M0,-4v8" fill="none" stroke="white" stroke-width="1.5" pointer-events="none"/>
                </g>
                <g id="zoomMin">
                        <use xlink:href="#rim" fill="#404040">
                                <set attributeName="fill" to="#808080" begin="zoomminus.mouseover" end="zoomminus.mouseout"/>
                        </use>
                        <path d="M-4,0h8" fill="none" stroke="white" stroke-width="1.5" pointer-events="none"/>
                </g>
                <g id="dirArrow">
                        <path fill="none" stroke="white" stroke-width="1.5" d="M0,-3.0v7 M-2.5,-0.5L0,-3.0L2.5,-0.5"/>
                </g>
               <g id="resetDef">
                       <use xlink:href="#rim2" fill="#404040">
                               <set attributeName="fill" to="#808080" begin="reset.mouseover" end="reset.mouseout"/>
                       </use>
               </g>
        </defs>

<script type="text/javascript">
var viewWidth = 703;
var viewHeight = 799;
var sectionId = 'dynsection-0';
</script>
<script xlink:href="../../svgpan.js"/>
<svg id="graph" class="graph">
<g id="viewport">
<title>o2::framework::MatcherInfo</title>
<!-- Node1 -->
<g id="node1" class="node">
<title>Node1</title>
<polygon fill="#bfbfbf" stroke="#000000" points="199.8675,-.5 199.8675,-57.5 351.8675,-57.5 351.8675,-.5 199.8675,-.5"/>
<text text-anchor="middle" x="275.8675" y="-45.5" font-family="Helvetica,sans-Serif" font-size="10.00" fill="#000000">o2::framework::MatcherInfo</text>
<polyline fill="none" stroke="#000000" points="199.8675,-38.5 351.8675,-38.5 "/>
<text text-anchor="middle" x="275.8675" y="-26.5" font-family="Helvetica,sans-Serif" font-size="10.00" fill="#000000"> </text>
<polyline fill="none" stroke="#000000" points="199.8675,-19.5 351.8675,-19.5 "/>
<text text-anchor="middle" x="275.8675" y="-7.5" font-family="Helvetica,sans-Serif" font-size="10.00" fill="#000000"> </text>
</g>
<!-- Node2 -->
<g id="node2" class="node">
<title>Node2</title>
<polygon fill="none" stroke="#bfbfbf" points="47.8675,-254 47.8675,-311 103.8675,-311 103.8675,-254 47.8675,-254"/>
<text text-anchor="middle" x="75.8675" y="-299" font-family="Helvetica,sans-Serif" font-size="10.00" fill="#000000">uint32_t</text>
<polyline fill="none" stroke="#bfbfbf" points="47.8675,-292 103.8675,-292 "/>
<text text-anchor="middle" x="75.8675" y="-280" font-family="Helvetica,sans-Serif" font-size="10.00" fill="#000000"> </text>
<polyline fill="none" stroke="#bfbfbf" points="47.8675,-273 103.8675,-273 "/>
<text text-anchor="middle" x="75.8675" y="-261" font-family="Helvetica,sans-Serif" font-size="10.00" fill="#000000"> </text>
</g>
<!-- Node2&#45;&gt;Node1 -->
<g id="edge1" class="edge">
<title>Node2&#45;&gt;Node1</title>
<path fill="none" stroke="#404040" d="M80.7453,-253.7364C89.7829,-209.2692 113.3211,-123.969 166.8675,-76 173.5379,-70.0244 181.0846,-64.7232 189.018,-60.0396"/>
<polygon fill="none" stroke="#404040" points="189.1016,-59.9939 192.445,-53.6047 199.6287,-54.2335 196.2852,-60.6227 189.1016,-59.9939"/>
<text text-anchor="middle" x="192.8675" y="-112" font-family="Helvetica,sans-Serif" font-size="10.00" fill="#000000"> +subSpec</text>
</g>
<!-- Node3 -->
<g id="node3" class="node">
<title>Node3</title>
<g id="a_node3"><a xlink:href="../../d9/db3/structo2_1_1header_1_1Descriptor.html" target="_top" xlink:title="{o2::header::Descriptor\l\&lt; gSizeDataOriginString,\l printDataOrigin \&gt;\n||+ Descriptor()\l+ Descriptor()\l+ Descriptor()\l+ Descriptor()\l+ operator=()\l+ operator ItgType()\l+ runtimeInit()\l+ operator==()\l+ operator==()\l+ operator\&lt;()\l+ operator!=()\l+ operator!=()\l+ as()\l+ print()\l}">
<polygon fill="none" stroke="#000000" points="121.8675,-171.5 121.8675,-393.5 259.8675,-393.5 259.8675,-171.5 121.8675,-171.5"/>
<text text-anchor="start" x="129.8675" y="-381.5" font-family="Helvetica,sans-Serif" font-size="10.00" fill="#000000">o2::header::Descriptor</text>
<text text-anchor="start" x="129.8675" y="-370.5" font-family="Helvetica,sans-Serif" font-size="10.00" fill="#000000">&lt; gSizeDataOriginString,</text>
<text text-anchor="middle" x="190.8675" y="-359.5" font-family="Helvetica,sans-Serif" font-size="10.00" fill="#000000"> printDataOrigin &gt;</text>
<polyline fill="none" stroke="#000000" points="121.8675,-352.5 259.8675,-352.5 "/>
<text text-anchor="middle" x="190.8675" y="-340.5" font-family="Helvetica,sans-Serif" font-size="10.00" fill="#000000"> </text>
<polyline fill="none" stroke="#000000" points="121.8675,-333.5 259.8675,-333.5 "/>
<text text-anchor="start" x="129.8675" y="-321.5" font-family="Helvetica,sans-Serif" font-size="10.00" fill="#000000">+ Descriptor()</text>
<text text-anchor="start" x="129.8675" y="-310.5" font-family="Helvetica,sans-Serif" font-size="10.00" fill="#000000">+ Descriptor()</text>
<text text-anchor="start" x="129.8675" y="-299.5" font-family="Helvetica,sans-Serif" font-size="10.00" fill="#000000">+ Descriptor()</text>
<text text-anchor="start" x="129.8675" y="-288.5" font-family="Helvetica,sans-Serif" font-size="10.00" fill="#000000">+ Descriptor()</text>
<text text-anchor="start" x="129.8675" y="-277.5" font-family="Helvetica,sans-Serif" font-size="10.00" fill="#000000">+ operator=()</text>
<text text-anchor="start" x="129.8675" y="-266.5" font-family="Helvetica,sans-Serif" font-size="10.00" fill="#000000">+ operator ItgType()</text>
<text text-anchor="start" x="129.8675" y="-255.5" font-family="Helvetica,sans-Serif" font-size="10.00" fill="#000000">+ runtimeInit()</text>
<text text-anchor="start" x="129.8675" y="-244.5" font-family="Helvetica,sans-Serif" font-size="10.00" fill="#000000">+ operator==()</text>
<text text-anchor="start" x="129.8675" y="-233.5" font-family="Helvetica,sans-Serif" font-size="10.00" fill="#000000">+ operator==()</text>
<text text-anchor="start" x="129.8675" y="-222.5" font-family="Helvetica,sans-Serif" font-size="10.00" fill="#000000">+ operator&lt;()</text>
<text text-anchor="start" x="129.8675" y="-211.5" font-family="Helvetica,sans-Serif" font-size="10.00" fill="#000000">+ operator!=()</text>
<text text-anchor="start" x="129.8675" y="-200.5" font-family="Helvetica,sans-Serif" font-size="10.00" fill="#000000">+ operator!=()</text>
<text text-anchor="start" x="129.8675" y="-189.5" font-family="Helvetica,sans-Serif" font-size="10.00" fill="#000000">+ as()</text>
<text text-anchor="start" x="129.8675" y="-178.5" font-family="Helvetica,sans-Serif" font-size="10.00" fill="#000000">+ print()</text>
</a>
</g>
</g>
<!-- Node3&#45;&gt;Node1 -->
<g id="edge2" class="edge">
<title>Node3&#45;&gt;Node1</title>
<path fill="none" stroke="#404040" d="M215.6969,-171.3194C224.2736,-139.9106 235.0229,-106.1026 247.8675,-76 248.9275,-73.5157 250.0975,-71.0034 251.3401,-68.4999"/>
<polygon fill="none" stroke="#404040" points="251.4634,-68.2699 250.7744,-61.0918 257.1354,-57.695 257.8244,-64.8732 251.4634,-68.2699"/>
<text text-anchor="middle" x="267.8675" y="-112" font-family="Helvetica,sans-Serif" font-size="10.00" fill="#000000"> +origin</text>
</g>
<!-- Node4 -->
<g id="node4" class="node">
<title>Node4</title>
<polygon fill="none" stroke="#bfbfbf" points="79.3675,-733.5 79.3675,-790.5 118.3675,-790.5 118.3675,-733.5 79.3675,-733.5"/>
<text text-anchor="middle" x="98.8675" y="-778.5" font-family="Helvetica,sans-Serif" font-size="10.00" fill="#000000">Type</text>
<polyline fill="none" stroke="#bfbfbf" points="79.3675,-771.5 118.3675,-771.5 "/>
<text text-anchor="middle" x="98.8675" y="-759.5" font-family="Helvetica,sans-Serif" font-size="10.00" fill="#000000"> </text>
<polyline fill="none" stroke="#bfbfbf" points="79.3675,-752.5 118.3675,-752.5 "/>
<text text-anchor="middle" x="98.8675" y="-740.5" font-family="Helvetica,sans-Serif" font-size="10.00" fill="#000000"> </text>
</g>
<!-- Node4&#45;&gt;Node3 -->
<g id="edge3" class="edge">
<title>Node4&#45;&gt;Node3</title>
<path fill="none" stroke="#404040" d="M79.1228,-742.7396C61.8196,-724.3697 37.9099,-694.9781 27.8675,-664 -1.1885,-574.3698 -16.1436,-535.3118 27.8675,-452 49.23,-411.5612 80.3406,-426.1505 112.8675,-394 113.0565,-393.8132 113.2454,-393.6258 113.4341,-393.438"/>
<polygon fill="none" stroke="#404040" points="113.5205,-393.3475 114.7747,-386.2463 121.812,-384.6727 120.5579,-391.7739 113.5205,-393.3475"/>
<text text-anchor="middle" x="40.3675" y="-555.5" font-family="Helvetica,sans-Serif" font-size="10.00" fill="#000000"> +itg</text>
</g>
<!-- Node8 -->
<g id="node8" class="node">
<title>Node8</title>
<g id="a_node8"><a xlink:href="../../d9/db3/structo2_1_1header_1_1Descriptor.html" target="_top" xlink:title="{o2::header::Descriptor\l\&lt; N, PrinterPolicy \&gt;\n||+ Descriptor()\l+ Descriptor()\l+ Descriptor()\l+ operator=()\l+ operator ItgType()\l+ Descriptor()\l+ runtimeInit()\l+ operator==()\l+ operator\&lt;()\l+ operator!=()\l+ operator==()\l+ operator!=()\l+ as()\l+ print()\l}">
<polygon fill="none" stroke="#000000" points="240.3675,-452.5 240.3675,-663.5 365.3675,-663.5 365.3675,-452.5 240.3675,-452.5"/>
<text text-anchor="start" x="248.3675" y="-651.5" font-family="Helvetica,sans-Serif" font-size="10.00" fill="#000000">o2::header::Descriptor</text>
<text text-anchor="middle" x="302.8675" y="-640.5" font-family="Helvetica,sans-Serif" font-size="10.00" fill="#000000">&lt; N, PrinterPolicy &gt;</text>
<polyline fill="none" stroke="#000000" points="240.3675,-633.5 365.3675,-633.5 "/>
<text text-anchor="middle" x="302.8675" y="-621.5" font-family="Helvetica,sans-Serif" font-size="10.00" fill="#000000"> </text>
<polyline fill="none" stroke="#000000" points="240.3675,-614.5 365.3675,-614.5 "/>
<text text-anchor="start" x="248.3675" y="-602.5" font-family="Helvetica,sans-Serif" font-size="10.00" fill="#000000">+ Descriptor()</text>
<text text-anchor="start" x="248.3675" y="-591.5" font-family="Helvetica,sans-Serif" font-size="10.00" fill="#000000">+ Descriptor()</text>
<text text-anchor="start" x="248.3675" y="-580.5" font-family="Helvetica,sans-Serif" font-size="10.00" fill="#000000">+ Descriptor()</text>
<text text-anchor="start" x="248.3675" y="-569.5" font-family="Helvetica,sans-Serif" font-size="10.00" fill="#000000">+ operator=()</text>
<text text-anchor="start" x="248.3675" y="-558.5" font-family="Helvetica,sans-Serif" font-size="10.00" fill="#000000">+ operator ItgType()</text>
<text text-anchor="start" x="248.3675" y="-547.5" font-family="Helvetica,sans-Serif" font-size="10.00" fill="#000000">+ Descriptor()</text>
<text text-anchor="start" x="248.3675" y="-536.5" font-family="Helvetica,sans-Serif" font-size="10.00" fill="#000000">+ runtimeInit()</text>
<text text-anchor="start" x="248.3675" y="-525.5" font-family="Helvetica,sans-Serif" font-size="10.00" fill="#000000">+ operator==()</text>
<text text-anchor="start" x="248.3675" y="-514.5" font-family="Helvetica,sans-Serif" font-size="10.00" fill="#000000">+ operator&lt;()</text>
<text text-anchor="start" x="248.3675" y="-503.5" font-family="Helvetica,sans-Serif" font-size="10.00" fill="#000000">+ operator!=()</text>
<text text-anchor="start" x="248.3675" y="-492.5" font-family="Helvetica,sans-Serif" font-size="10.00" fill="#000000">+ operator==()</text>
<text text-anchor="start" x="248.3675" y="-481.5" font-family="Helvetica,sans-Serif" font-size="10.00" fill="#000000">+ operator!=()</text>
<text text-anchor="start" x="248.3675" y="-470.5" font-family="Helvetica,sans-Serif" font-size="10.00" fill="#000000">+ as()</text>
<text text-anchor="start" x="248.3675" y="-459.5" font-family="Helvetica,sans-Serif" font-size="10.00" fill="#000000">+ print()</text>
</a>
</g>
</g>
<!-- Node4&#45;&gt;Node8 -->
<g id="edge8" class="edge">
<title>Node4&#45;&gt;Node8</title>
<path fill="none" stroke="#404040" d="M118.4903,-742.8224C136.6218,-725.6786 164.7728,-700.4827 191.8675,-682 205.9922,-672.3648 212.9538,-675.2063 225.8675,-664 227.8914,-662.2437 229.8921,-660.4245 231.8675,-658.552"/>
<polygon fill="none" stroke="#404040" points="231.8893,-658.5301 233.2909,-651.4565 240.3594,-650.0296 238.9579,-657.1032 231.8893,-658.5301"/>
<text text-anchor="middle" x="204.3675" y="-696" font-family="Helvetica,sans-Serif" font-size="10.00" fill="#000000"> +itg</text>
</g>
<!-- Node9 -->
<g id="node9" class="node">
<title>Node9</title>
<g id="a_node9"><a xlink:href="../../d9/db3/structo2_1_1header_1_1Descriptor.html" target="_top" xlink:title="{o2::header::Descriptor\l\&lt; gSizeDataDescriptionString,\l printDataDescription \&gt;\n||+ Descriptor()\l+ Descriptor()\l+ Descriptor()\l+ Descriptor()\l+ operator=()\l+ operator ItgType()\l+ runtimeInit()\l+ operator==()\l+ operator==()\l+ operator\&lt;()\l+ operator!=()\l+ operator!=()\l+ as()\l+ print()\l}">
<polygon fill="none" stroke="#000000" points="277.8675,-171.5 277.8675,-393.5 441.8675,-393.5 441.8675,-171.5 277.8675,-171.5"/>
<text text-anchor="start" x="285.8675" y="-381.5" font-family="Helvetica,sans-Serif" font-size="10.00" fill="#000000">o2::header::Descriptor</text>
<text text-anchor="start" x="285.8675" y="-370.5" font-family="Helvetica,sans-Serif" font-size="10.00" fill="#000000">&lt; gSizeDataDescriptionString,</text>
<text text-anchor="middle" x="359.8675" y="-359.5" font-family="Helvetica,sans-Serif" font-size="10.00" fill="#000000"> printDataDescription &gt;</text>
<polyline fill="none" stroke="#000000" points="277.8675,-352.5 441.8675,-352.5 "/>
<text text-anchor="middle" x="359.8675" y="-340.5" font-family="Helvetica,sans-Serif" font-size="10.00" fill="#000000"> </text>
<polyline fill="none" stroke="#000000" points="277.8675,-333.5 441.8675,-333.5 "/>
<text text-anchor="start" x="285.8675" y="-321.5" font-family="Helvetica,sans-Serif" font-size="10.00" fill="#000000">+ Descriptor()</text>
<text text-anchor="start" x="285.8675" y="-310.5" font-family="Helvetica,sans-Serif" font-size="10.00" fill="#000000">+ Descriptor()</text>
<text text-anchor="start" x="285.8675" y="-299.5" font-family="Helvetica,sans-Serif" font-size="10.00" fill="#000000">+ Descriptor()</text>
<text text-anchor="start" x="285.8675" y="-288.5" font-family="Helvetica,sans-Serif" font-size="10.00" fill="#000000">+ Descriptor()</text>
<text text-anchor="start" x="285.8675" y="-277.5" font-family="Helvetica,sans-Serif" font-size="10.00" fill="#000000">+ operator=()</text>
<text text-anchor="start" x="285.8675" y="-266.5" font-family="Helvetica,sans-Serif" font-size="10.00" fill="#000000">+ operator ItgType()</text>
<text text-anchor="start" x="285.8675" y="-255.5" font-family="Helvetica,sans-Serif" font-size="10.00" fill="#000000">+ runtimeInit()</text>
<text text-anchor="start" x="285.8675" y="-244.5" font-family="Helvetica,sans-Serif" font-size="10.00" fill="#000000">+ operator==()</text>
<text text-anchor="start" x="285.8675" y="-233.5" font-family="Helvetica,sans-Serif" font-size="10.00" fill="#000000">+ operator==()</text>
<text text-anchor="start" x="285.8675" y="-222.5" font-family="Helvetica,sans-Serif" font-size="10.00" fill="#000000">+ operator&lt;()</text>
<text text-anchor="start" x="285.8675" y="-211.5" font-family="Helvetica,sans-Serif" font-size="10.00" fill="#000000">+ operator!=()</text>
<text text-anchor="start" x="285.8675" y="-200.5" font-family="Helvetica,sans-Serif" font-size="10.00" fill="#000000">+ operator!=()</text>
<text text-anchor="start" x="285.8675" y="-189.5" font-family="Helvetica,sans-Serif" font-size="10.00" fill="#000000">+ as()</text>
<text text-anchor="start" x="285.8675" y="-178.5" font-family="Helvetica,sans-Serif" font-size="10.00" fill="#000000">+ print()</text>
</a>
</g>
</g>
<!-- Node4&#45;&gt;Node9 -->
<g id="edge13" class="edge">
<title>Node4&#45;&gt;Node9</title>
<path fill="none" stroke="#404040" d="M103.3526,-733.4013C115.1974,-658.6051 147.0759,-462.2392 156.8675,-452 181.1573,-426.5999 203.738,-452.0935 233.8675,-434 243.3063,-428.3318 255.9642,-415.9362 269.6258,-400.5546"/>
<polygon fill="none" stroke="#404040" points="269.8988,-400.2404 270.8141,-393.0876 277.7687,-391.1814 276.8534,-398.3342 269.8988,-400.2404"/>
<text text-anchor="middle" x="169.3675" y="-555.5" font-family="Helvetica,sans-Serif" font-size="10.00" fill="#000000"> +itg</text>
</g>
<!-- Node5 -->
<g id="node5" class="node">
<title>Node5</title>
<polygon fill="none" stroke="#bfbfbf" points="177.8675,-733.5 177.8675,-790.5 215.8675,-790.5 215.8675,-733.5 177.8675,-733.5"/>
<text text-anchor="middle" x="196.8675" y="-778.5" font-family="Helvetica,sans-Serif" font-size="10.00" fill="#000000">char</text>
<polyline fill="none" stroke="#bfbfbf" points="177.8675,-771.5 215.8675,-771.5 "/>
<text text-anchor="middle" x="196.8675" y="-759.5" font-family="Helvetica,sans-Serif" font-size="10.00" fill="#000000"> </text>
<polyline fill="none" stroke="#bfbfbf" points="177.8675,-752.5 215.8675,-752.5 "/>
<text text-anchor="middle" x="196.8675" y="-740.5" font-family="Helvetica,sans-Serif" font-size="10.00" fill="#000000"> </text>
</g>
<!-- Node5&#45;&gt;Node3 -->
<g id="edge4" class="edge">
<title>Node5&#45;&gt;Node3</title>
<path fill="none" stroke="#404040" d="M189.5204,-733.36C183.6721,-716.105 173.7666,-695.0206 157.8675,-682 133.3477,-661.9195 108.244,-689.0798 88.8675,-664 31.2616,-589.4387 63.6574,-542.787 88.8675,-452 92.3381,-439.5015 102.6412,-419.6214 115.4425,-397.804"/>
<polygon fill="none" stroke="#404040" points="115.551,-397.6218 115.1872,-390.4198 121.6953,-387.3141 122.0591,-394.516 115.551,-397.6218"/>
<text text-anchor="middle" x="101.3675" y="-555.5" font-family="Helvetica,sans-Serif" font-size="10.00" fill="#000000"> +str</text>
</g>
<!-- Node5&#45;&gt;Node8 -->
<g id="edge9" class="edge">
<title>Node5&#45;&gt;Node8</title>
<path fill="none" stroke="#404040" d="M210.9466,-733.4013C218.5328,-718.1042 228.1089,-698.9732 236.8675,-682 238.1169,-679.5788 239.3829,-677.1328 240.6617,-674.6688"/>
<polygon fill="none" stroke="#404040" points="240.795,-674.4129 240.0196,-667.2436 246.3391,-663.7703 247.1146,-670.9396 240.795,-674.4129"/>
<text text-anchor="middle" x="249.3675" y="-696" font-family="Helvetica,sans-Serif" font-size="10.00" fill="#000000"> +str</text>
</g>
<!-- Node5&#45;&gt;Node9 -->
<g id="edge14" class="edge">
<title>Node5&#45;&gt;Node9</title>
<path fill="none" stroke="#404040" d="M193.7598,-733.2629C187.0033,-665.034 174.0798,-495.7281 206.8675,-452 222.2971,-431.4219 241.493,-449.6974 261.8675,-434 273.4198,-425.0996 284.0115,-414.426 293.6097,-402.9186"/>
<polygon fill="none" stroke="#404040" points="293.6142,-402.913 294.226,-395.7279 301.0938,-393.5291 300.4819,-400.7143 293.6142,-402.913"/>
<text text-anchor="middle" x="219.3675" y="-555.5" font-family="Helvetica,sans-Serif" font-size="10.00" fill="#000000"> +str</text>
</g>
<!-- Node6 -->
<g id="node6" class="node">
<title>Node6</title>
<polygon fill="none" stroke="#bfbfbf" points="393.3675,-733.5 393.3675,-790.5 422.3675,-790.5 422.3675,-733.5 393.3675,-733.5"/>
<text text-anchor="middle" x="407.8675" y="-778.5" font-family="Helvetica,sans-Serif" font-size="10.00" fill="#000000">int</text>
<polyline fill="none" stroke="#bfbfbf" points="393.3675,-771.5 422.3675,-771.5 "/>
<text text-anchor="middle" x="407.8675" y="-759.5" font-family="Helvetica,sans-Serif" font-size="10.00" fill="#000000"> </text>
<polyline fill="none" stroke="#bfbfbf" points="393.3675,-752.5 422.3675,-752.5 "/>
<text text-anchor="middle" x="407.8675" y="-740.5" font-family="Helvetica,sans-Serif" font-size="10.00" fill="#000000"> </text>
</g>
<!-- Node6&#45;&gt;Node3 -->
<g id="edge5" class="edge">
<title>Node6&#45;&gt;Node3</title>
<path fill="none" stroke="#404040" d="M408.1291,-733.2669C408.23,-665.4391 405.3066,-497.65 374.8675,-452 359.9712,-429.6597 288.867,-411.9167 268.8675,-394 268.774,-393.9163 268.6806,-393.8324 268.5872,-393.7484"/>
<polygon fill="none" stroke="#404040" points="268.7271,-393.8824 261.627,-392.6219 260.0597,-385.5832 267.1598,-386.8436 268.7271,-393.8824"/>
<text text-anchor="middle" x="435.8675" y="-566.5" font-family="Helvetica,sans-Serif" font-size="10.00" fill="#000000"> +arraySize</text>
<text text-anchor="middle" x="435.8675" y="-555.5" font-family="Helvetica,sans-Serif" font-size="10.00" fill="#000000">+size</text>
<text text-anchor="middle" x="435.8675" y="-544.5" font-family="Helvetica,sans-Serif" font-size="10.00" fill="#000000">+bitcount</text>
</g>
<!-- Node6&#45;&gt;Node8 -->
<g id="edge10" class="edge">
<title>Node6&#45;&gt;Node8</title>
<path fill="none" stroke="#404040" d="M393.0868,-758.8326C362.1676,-751.8756 292.3994,-734.3323 278.8675,-715 270.6737,-703.294 266.7806,-689.8941 265.7827,-675.9656"/>
<polygon fill="none" stroke="#404040" points="265.7781,-675.6176 261.6973,-669.6723 265.6158,-663.6187 269.6966,-669.564 265.7781,-675.6176"/>
<text text-anchor="middle" x="307.8675" y="-707" font-family="Helvetica,sans-Serif" font-size="10.00" fill="#000000"> +arraySize</text>
<text text-anchor="middle" x="307.8675" y="-696" font-family="Helvetica,sans-Serif" font-size="10.00" fill="#000000">+size</text>
<text text-anchor="middle" x="307.8675" y="-685" font-family="Helvetica,sans-Serif" font-size="10.00" fill="#000000">+bitcount</text>
</g>
<!-- Node6&#45;&gt;Node9 -->
<g id="edge15" class="edge">
<title>Node6&#45;&gt;Node9</title>
<path fill="none" stroke="#404040" d="M422.633,-744.1871C426.1521,-740.3317 430.0105,-736.3961 433.8675,-733 474.3943,-697.3162 508.7694,-711.8105 533.8675,-664 577.6618,-580.5741 570.4614,-538.8258 533.8675,-452 523.9802,-428.5407 514.0359,-426.142 492.8675,-412 478.4872,-402.393 469.9048,-404.9559 452.1855,-393.9991"/>
<polygon fill="none" stroke="#404040" points="451.8503,-393.7653 444.6408,-393.6141 442.0075,-386.9009 449.217,-387.0522 451.8503,-393.7653"/>
<text text-anchor="middle" x="592.8675" y="-566.5" font-family="Helvetica,sans-Serif" font-size="10.00" fill="#000000"> +arraySize</text>
<text text-anchor="middle" x="592.8675" y="-555.5" font-family="Helvetica,sans-Serif" font-size="10.00" fill="#000000">+size</text>
<text text-anchor="middle" x="592.8675" y="-544.5" font-family="Helvetica,sans-Serif" font-size="10.00" fill="#000000">+bitcount</text>
</g>
<!-- Node7 -->
<g id="node7" class="node">
<title>Node7</title>
<polygon fill="none" stroke="#bfbfbf" points="442.3675,-733.5 442.3675,-790.5 549.3675,-790.5 549.3675,-733.5 442.3675,-733.5"/>
<text text-anchor="middle" x="495.8675" y="-778.5" font-family="Helvetica,sans-Serif" font-size="10.00" fill="#000000">anonymous:+@38</text>
<polyline fill="none" stroke="#bfbfbf" points="442.3675,-771.5 549.3675,-771.5 "/>
<text text-anchor="middle" x="495.8675" y="-759.5" font-family="Helvetica,sans-Serif" font-size="10.00" fill="#000000"> </text>
<polyline fill="none" stroke="#bfbfbf" points="442.3675,-752.5 549.3675,-752.5 "/>
<text text-anchor="middle" x="495.8675" y="-740.5" font-family="Helvetica,sans-Serif" font-size="10.00" fill="#000000"> </text>
</g>
<!-- Node7&#45;&gt;Node3 -->
<g id="edge6" class="edge">
<title>Node7&#45;&gt;Node3</title>
<path fill="none" stroke="#404040" d="M495.2921,-733.2545C493.5664,-660.3889 487.3562,-472.7449 468.8675,-452 442.3063,-422.1976 418.4073,-447.5809 380.8675,-434 361.4211,-426.9648 359.1449,-419.4856 339.8675,-412 312.6033,-401.413 298.642,-410.2511 270.2776,-393.8924"/>
<polygon fill="none" stroke="#404040" points="270.1543,-393.813 262.944,-393.9263 260.0663,-387.3143 267.2765,-387.201 270.1543,-393.813"/>
<text text-anchor="middle" x="509.8675" y="-555.5" font-family="Helvetica,sans-Serif" font-size="10.00" fill="#000000"> +@38</text>
</g>
<!-- Node7&#45;&gt;Node8 -->
<g id="edge11" class="edge">
<title>Node7&#45;&gt;Node8</title>
<path fill="none" stroke="#404040" d="M457.5276,-733.4486C433.886,-714.9418 403.6471,-689.5885 379.8675,-664 377.6574,-661.6218 375.4544,-659.1793 373.2645,-656.687"/>
<polygon fill="none" stroke="#404040" points="373.1915,-656.6013 366.2544,-654.6321 365.404,-647.4713 372.341,-649.4405 373.1915,-656.6013"/>
<text text-anchor="middle" x="450.8675" y="-696" font-family="Helvetica,sans-Serif" font-size="10.00" fill="#000000"> +@38</text>
</g>
<!-- Node7&#45;&gt;Node9 -->
<g id="edge16" class="edge">
<title>Node7&#45;&gt;Node9</title>
<path fill="none" stroke="#404040" d="M549.4308,-736.8978C577.7348,-720.495 609.8541,-696.1254 625.8675,-664 667.9014,-579.6734 679.2101,-529.6685 625.8675,-452 597.8306,-411.1775 569.0642,-427.0005 521.8675,-412 493.9939,-403.141 481.0563,-409.7911 452.4994,-394.1938"/>
<polygon fill="none" stroke="#404040" points="452.4616,-394.1712 445.2587,-394.514 442.1719,-387.9969 449.3749,-387.6542 452.4616,-394.1712"/>
<text text-anchor="middle" x="677.8675" y="-555.5" font-family="Helvetica,sans-Serif" font-size="10.00" fill="#000000"> +@38</text>
</g>
<!-- Node8&#45;&gt;Node3 -->
<g id="edge7" class="edge">
<title>Node8&#45;&gt;Node3</title>
<path fill="none" stroke="#ffa500" d="M232.2901,-456.687C230.1894,-455.0486 228.0482,-453.4827 225.8675,-452 199.303,-433.9381 175.5514,-459.3859 155.8675,-434 146.6043,-422.0535 143.0685,-408.084 143.1977,-393.5483"/>
<polygon fill="#ffa500" stroke="#ffa500" points="230.2875,-459.5765 240.19,-463.3437 234.7982,-454.2235 230.2875,-459.5765"/>
<text text-anchor="start" x="155.8675" y="-426" font-family="Helvetica,sans-Serif" font-size="10.00" fill="#000000"> &lt; gSizeDataOriginString,</text>
<text text-anchor="middle" x="218.3675" y="-415" font-family="Helvetica,sans-Serif" font-size="10.00" fill="#000000"> printDataOrigin &gt;</text>
</g>
<!-- Node8&#45;&gt;Node9 -->
<g id="edge17" class="edge">
<title>Node8&#45;&gt;Node9</title>
<path fill="none" stroke="#ffa500" d="M332.0455,-442.4845C332.6698,-439.6308 333.2783,-436.7991 333.8675,-434 336.616,-420.9428 339.2827,-407.2069 341.7947,-393.5553"/>
<polygon fill="#ffa500" stroke="#ffa500" points="328.6266,-441.7356 329.8669,-452.2576 335.4589,-443.2587 328.6266,-441.7356"/>
<text text-anchor="start" x="337.8675" y="-426" font-family="Helvetica,sans-Serif" font-size="10.00" fill="#000000"> &lt; gSizeDataDescriptionString,</text>
<text text-anchor="middle" x="413.3675" y="-415" font-family="Helvetica,sans-Serif" font-size="10.00" fill="#000000"> printDataDescription &gt;</text>
</g>
<!-- Node9&#45;&gt;Node1 -->
<g id="edge12" class="edge">
<title>Node9&#45;&gt;Node1</title>
<path fill="none" stroke="#404040" d="M323.0239,-171.3112C310.9665,-134.9239 298.3336,-96.7995 289.1812,-69.1788"/>
<polygon fill="none" stroke="#404040" points="289.1344,-69.0373 283.4501,-64.6 285.3598,-57.6464 291.044,-62.0837 289.1344,-69.0373"/>
<text text-anchor="middle" x="347.8675" y="-112" font-family="Helvetica,sans-Serif" font-size="10.00" fill="#000000"> +description</text>
</g>
<!-- Node10 -->
<g id="node10" class="node">
<title>Node10</title>
<polygon fill="none" stroke="#bfbfbf" points="459.8675,-254 459.8675,-311 497.8675,-311 497.8675,-254 459.8675,-254"/>
<text text-anchor="middle" x="478.8675" y="-299" font-family="Helvetica,sans-Serif" font-size="10.00" fill="#000000">bool</text>
<polyline fill="none" stroke="#bfbfbf" points="459.8675,-292 497.8675,-292 "/>
<text text-anchor="middle" x="478.8675" y="-280" font-family="Helvetica,sans-Serif" font-size="10.00" fill="#000000"> </text>
<polyline fill="none" stroke="#bfbfbf" points="459.8675,-273 497.8675,-273 "/>
<text text-anchor="middle" x="478.8675" y="-261" font-family="Helvetica,sans-Serif" font-size="10.00" fill="#000000"> </text>
</g>
<!-- Node10&#45;&gt;Node1 -->
<g id="edge18" class="edge">
<title>Node10&#45;&gt;Node1</title>
<path fill="none" stroke="#404040" d="M474.5644,-253.5985C470.438,-230.5095 463.0077,-197.7097 450.8675,-171 429.594,-124.1961 424.67,-108.541 384.8675,-76 378.1217,-70.4849 370.6309,-65.5096 362.8252,-61.046"/>
<polygon fill="none" stroke="#404040" points="362.6094,-60.9307 355.4322,-61.6301 352.0262,-55.274 359.2033,-54.5746 362.6094,-60.9307"/>
<text text-anchor="middle" x="498.8675" y="-145" font-family="Helvetica,sans-Serif" font-size="10.00" fill="#000000"> +hasSubSpec</text>
<text text-anchor="middle" x="498.8675" y="-134" font-family="Helvetica,sans-Serif" font-size="10.00" fill="#000000">+hasDescription</text>
<text text-anchor="middle" x="498.8675" y="-123" font-family="Helvetica,sans-Serif" font-size="10.00" fill="#000000">+hasError</text>
<text text-anchor="middle" x="498.8675" y="-112" font-family="Helvetica,sans-Serif" font-size="10.00" fill="#000000">+hasUniqueOrigin</text>
<text text-anchor="middle" x="498.8675" y="-101" font-family="Helvetica,sans-Serif" font-size="10.00" fill="#000000">+hasOrigin</text>
<text text-anchor="middle" x="498.8675" y="-90" font-family="Helvetica,sans-Serif" font-size="10.00" fill="#000000">+hasUniqueDescription</text>
<text text-anchor="middle" x="498.8675" y="-79" font-family="Helvetica,sans-Serif" font-size="10.00" fill="#000000">+hasUniqueSubSpec</text>
</g>
</g>
</svg>
        <g id="navigator" transform="translate(0 0)" fill="#404254">
                <rect fill="#f2f5e9" fill-opacity="0.5" stroke="#606060" stroke-width=".5" x="0" y="0" width="60" height="60"/>
                <use id="zoomplus" xlink:href="#zoomPlus" x="17" y="9" onmousedown="handleZoom(evt,'in')"/>
                <use id="zoomminus" xlink:href="#zoomMin" x="42" y="9" onmousedown="handleZoom(evt,'out')"/>
                <use id="reset" xlink:href="#resetDef" x="30" y="36" onmousedown="handleReset()"/>
                <g id="arrowUp" xlink:href="#dirArrow" transform="translate(30 24)" onmousedown="handlePan(0,-1)">
                  <use xlink:href="#rim" fill="#404040">
                        <set attributeName="fill" to="#808080" begin="arrowUp.mouseover" end="arrowUp.mouseout"/>
                  </use>
                  <path fill="none" stroke="white" stroke-width="1.5" d="M0,-3.0v7 M-2.5,-0.5L0,-3.0L2.5,-0.5"/>
                </g>
                <g id="arrowRight" xlink:href="#dirArrow" transform="rotate(90) translate(36 -43)" onmousedown="handlePan(1,0)">
                  <use xlink:href="#rim" fill="#404040">
                        <set attributeName="fill" to="#808080" begin="arrowRight.mouseover" end="arrowRight.mouseout"/>
                  </use>
                  <path fill="none" stroke="white" stroke-width="1.5" d="M0,-3.0v7 M-2.5,-0.5L0,-3.0L2.5,-0.5"/>
                </g>
                <g id="arrowDown" xlink:href="#dirArrow" transform="rotate(180) translate(-30 -48)" onmousedown="handlePan(0,1)">
                  <use xlink:href="#rim" fill="#404040">
                        <set attributeName="fill" to="#808080" begin="arrowDown.mouseover" end="arrowDown.mouseout"/>
                  </use>
                  <path fill="none" stroke="white" stroke-width="1.5" d="M0,-3.0v7 M-2.5,-0.5L0,-3.0L2.5,-0.5"/>
                </g>
                <g id="arrowLeft" xlink:href="#dirArrow" transform="rotate(270) translate(-36 17)" onmousedown="handlePan(-1,0)">
                  <use xlink:href="#rim" fill="#404040">
                        <set attributeName="fill" to="#808080" begin="arrowLeft.mouseover" end="arrowLeft.mouseout"/>
                  </use>
                  <path fill="none" stroke="white" stroke-width="1.5" d="M0,-3.0v7 M-2.5,-0.5L0,-3.0L2.5,-0.5"/>
                </g>
        </g>
        <svg viewBox="0 0 15 15" width="100%" height="30px" preserveAspectRatio="xMaxYMin meet">
         <g id="arrow_out" transform="scale(0.3 0.3)">
          <a xlink:href="structo2_1_1framework_1_1MatcherInfo__coll__graph_org.svg" target="_base">
           <rect id="button" ry="5" rx="5" y="6" x="6" height="38" width="38"
                fill="#f2f5e9" fill-opacity="0.5" stroke="#606060" stroke-width="1.0"/>
           <path id="arrow"
             d="M 11.500037,31.436501 C 11.940474,20.09759 22.043105,11.32322 32.158766,21.979434 L 37.068811,17.246167 C 37.068811,17.246167 37.088388,32 37.088388,32 L 22.160133,31.978069 C 22.160133,31.978069 26.997745,27.140456 26.997745,27.140456 C 18.528582,18.264221 13.291696,25.230495 11.500037,31.436501 z"
             style="fill:#404040;"/>
          </a>
         </g>
        </svg>
</svg>
