<?xml version="1.0" encoding="UTF-8" standalone="no"?>
<!DOCTYPE svg PUBLIC "-//W3C//DTD SVG 1.1//EN"
 "http://www.w3.org/Graphics/SVG/1.1/DTD/svg11.dtd">
<!-- Generated by graphviz version 2.40.1 (20161225.0304)
 -->
<!-- Title: /home/travis/build/AliceO2Group/AliceO2/Utilities/DataCompression/test/Fifo.h Pages: 1 -->
<svg width="316pt" height="117pt"
 viewBox="0.00 0.00 315.50 117.00" xmlns="http://www.w3.org/2000/svg" xmlns:xlink="http://www.w3.org/1999/xlink">
<g id="graph0" class="graph" transform="scale(1 1) rotate(0) translate(4 113)">
<title>/home/travis/build/AliceO2Group/AliceO2/Utilities/DataCompression/test/Fifo.h</title>
<!-- Node0 -->
<g id="node1" class="node">
<title>Node0</title>
<polygon fill="#bfbfbf" stroke="#000000" points="63.5,-56.5 63.5,-108.5 211.5,-108.5 211.5,-56.5 63.5,-56.5"/>
<text text-anchor="start" x="71.5" y="-96.5" font-family="Helvetica,sans-Serif" font-size="10.00" fill="#000000">/home/travis/build</text>
<text text-anchor="start" x="71.5" y="-85.5" font-family="Helvetica,sans-Serif" font-size="10.00" fill="#000000">/AliceO2Group/AliceO2</text>
<text text-anchor="start" x="71.5" y="-74.5" font-family="Helvetica,sans-Serif" font-size="10.00" fill="#000000">/Utilities/DataCompression</text>
<text text-anchor="middle" x="137.5" y="-63.5" font-family="Helvetica,sans-Serif" font-size="10.00" fill="#000000">/test/Fifo.h</text>
</g>
<!-- Node1 -->
<g id="node2" class="node">
<title>Node1</title>
<polygon fill="none" stroke="#bfbfbf" points="0,-.5 0,-19.5 47,-19.5 47,-.5 0,-.5"/>
<text text-anchor="middle" x="23.5" y="-7.5" font-family="Helvetica,sans-Serif" font-size="10.00" fill="#000000">queue</text>
</g>
<!-- Node0&#45;&gt;Node1 -->
<g id="edge1" class="edge">
<title>Node0&#45;&gt;Node1</title>
<path fill="none" stroke="#191970" d="M96.3434,-56.3258C79.8111,-45.8119 61.3473,-34.0696 47.1455,-25.0377"/>
<polygon fill="#191970" stroke="#191970" points="48.8078,-21.9471 38.4914,-19.534 45.0513,-27.8538 48.8078,-21.9471"/>
</g>
<!-- Node2 -->
<g id="node3" class="node">
<title>Node2</title>
<polygon fill="none" stroke="#bfbfbf" points="65.5,-.5 65.5,-19.5 113.5,-19.5 113.5,-.5 65.5,-.5"/>
<text text-anchor="middle" x="89.5" y="-7.5" font-family="Helvetica,sans-Serif" font-size="10.00" fill="#000000">mutex</text>
</g>
<!-- Node0&#45;&gt;Node2 -->
<g id="edge2" class="edge">
<title>Node0&#45;&gt;Node2</title>
<path fill="none" stroke="#191970" d="M120.1709,-56.3258C113.9392,-46.9134 107.0557,-36.5164 101.3914,-27.961"/>
<polygon fill="#191970" stroke="#191970" points="104.251,-25.94 95.8122,-19.534 98.4143,-29.8043 104.251,-25.94"/>
</g>
<!-- Node3 -->
<g id="node4" class="node">
<title>Node3</title>
<polygon fill="none" stroke="#bfbfbf" points="132,-.5 132,-19.5 239,-19.5 239,-.5 132,-.5"/>
<text text-anchor="middle" x="185.5" y="-7.5" font-family="Helvetica,sans-Serif" font-size="10.00" fill="#000000">condition_variable</text>
</g>
<!-- Node0&#45;&gt;Node3 -->
<g id="edge3" class="edge">
<title>Node0&#45;&gt;Node3</title>
<path fill="none" stroke="#191970" d="M154.8291,-56.3258C161.0608,-46.9134 167.9443,-36.5164 173.6086,-27.961"/>
<polygon fill="#191970" stroke="#191970" points="176.5857,-29.8043 179.1878,-19.534 170.749,-25.94 176.5857,-29.8043"/>
</g>
<!-- Node4 -->
<g id="node5" class="node">
<title>Node4</title>
<polygon fill="none" stroke="#bfbfbf" points="257.5,-.5 257.5,-19.5 307.5,-19.5 307.5,-.5 257.5,-.5"/>
<text text-anchor="middle" x="282.5" y="-7.5" font-family="Helvetica,sans-Serif" font-size="10.00" fill="#000000">chrono</text>
</g>
<!-- Node0&#45;&gt;Node4 -->
<g id="edge4" class="edge">
<title>Node0&#45;&gt;Node4</title>
<path fill="none" stroke="#191970" d="M189.8483,-56.3258C211.6772,-45.4114 236.1537,-33.1731 254.465,-24.0175"/>
<polygon fill="#191970" stroke="#191970" points="256.053,-27.1367 263.432,-19.534 252.9224,-20.8757 256.053,-27.1367"/>
</g>
</g>
</svg>
