<?xml version="1.0" encoding="UTF-8" standalone="no"?>
<!DOCTYPE svg PUBLIC "-//W3C//DTD SVG 1.1//EN"
 "http://www.w3.org/Graphics/SVG/1.1/DTD/svg11.dtd">
<!-- Generated by graphviz version 2.40.1 (20161225.0304)
 -->
<!-- Title: o2::tpc::HitGroup Pages: 1 -->
<svg width="224pt" height="325pt"
 viewBox="0.00 0.00 224.00 325.00" xmlns="http://www.w3.org/2000/svg" xmlns:xlink="http://www.w3.org/1999/xlink">
<g id="graph0" class="graph" transform="scale(1 1) rotate(0) translate(4 321)">
<title>o2::tpc::HitGroup</title>
<!-- Node2 -->
<g id="node1" class="node">
<title>Node2</title>
<polygon fill="#bfbfbf" stroke="#000000" points="53,-.5 53,-134.5 152,-134.5 152,-.5 53,-.5"/>
<text text-anchor="middle" x="102.5" y="-122.5" font-family="Helvetica,sans-Serif" font-size="10.00" fill="#000000">o2::tpc::HitGroup</text>
<polyline fill="none" stroke="#000000" points="53,-115.5 152,-115.5 "/>
<text text-anchor="middle" x="102.5" y="-103.5" font-family="Helvetica,sans-Serif" font-size="10.00" fill="#000000"> </text>
<polyline fill="none" stroke="#000000" points="53,-96.5 152,-96.5 "/>
<text text-anchor="start" x="61" y="-84.5" font-family="Helvetica,sans-Serif" font-size="10.00" fill="#000000">+ HitGroup()</text>
<text text-anchor="start" x="61" y="-73.5" font-family="Helvetica,sans-Serif" font-size="10.00" fill="#000000">+ HitGroup()</text>
<text text-anchor="start" x="61" y="-62.5" font-family="Helvetica,sans-Serif" font-size="10.00" fill="#000000">+ ~HitGroup()</text>
<text text-anchor="start" x="61" y="-51.5" font-family="Helvetica,sans-Serif" font-size="10.00" fill="#000000">+ addHit()</text>
<text text-anchor="start" x="61" y="-40.5" font-family="Helvetica,sans-Serif" font-size="10.00" fill="#000000">+ getSize()</text>
<text text-anchor="start" x="61" y="-29.5" font-family="Helvetica,sans-Serif" font-size="10.00" fill="#000000">+ getHit()</text>
<text text-anchor="start" x="61" y="-18.5" font-family="Helvetica,sans-Serif" font-size="10.00" fill="#000000">+ shrinkToFit()</text>
<text text-anchor="start" x="61" y="-7.5" font-family="Helvetica,sans-Serif" font-size="10.00" fill="#000000">+ ClassDefNV()</text>
</g>
<!-- Node3 -->
<g id="node2" class="node">
<title>Node3</title>
<g id="a_node2"><a xlink:href="../../db/dfe/classo2_1_1BaseHit.html" target="_top" xlink:title="{o2::BaseHit\n||+ BaseHit()\l+ BaseHit()\l+ GetTrackID()\l+ SetTrackID()\l}">
<polygon fill="none" stroke="#000000" points="0,-226.5 0,-316.5 89,-316.5 89,-226.5 0,-226.5"/>
<text text-anchor="middle" x="44.5" y="-304.5" font-family="Helvetica,sans-Serif" font-size="10.00" fill="#000000">o2::BaseHit</text>
<polyline fill="none" stroke="#000000" points="0,-297.5 89,-297.5 "/>
<text text-anchor="middle" x="44.5" y="-285.5" font-family="Helvetica,sans-Serif" font-size="10.00" fill="#000000"> </text>
<polyline fill="none" stroke="#000000" points="0,-278.5 89,-278.5 "/>
<text text-anchor="start" x="8" y="-266.5" font-family="Helvetica,sans-Serif" font-size="10.00" fill="#000000">+ BaseHit()</text>
<text text-anchor="start" x="8" y="-255.5" font-family="Helvetica,sans-Serif" font-size="10.00" fill="#000000">+ BaseHit()</text>
<text text-anchor="start" x="8" y="-244.5" font-family="Helvetica,sans-Serif" font-size="10.00" fill="#000000">+ GetTrackID()</text>
<text text-anchor="start" x="8" y="-233.5" font-family="Helvetica,sans-Serif" font-size="10.00" fill="#000000">+ SetTrackID()</text>
</a>
</g>
</g>
<!-- Node3&#45;&gt;Node2 -->
<g id="edge1" class="edge">
<title>Node3&#45;&gt;Node2</title>
<path fill="none" stroke="#191970" d="M60.0712,-216.7322C67.2299,-191.5534 75.7897,-161.4467 83.3399,-134.8908"/>
<polygon fill="none" stroke="#191970" points="56.6684,-215.9028 57.3001,-226.4788 63.4016,-217.8172 56.6684,-215.9028"/>
</g>
<!-- Node4 -->
<g id="node3" class="node">
<title>Node4</title>
<polygon fill="none" stroke="#bfbfbf" points="107,-232 107,-311 216,-311 216,-232 107,-232"/>
<text text-anchor="start" x="115" y="-299" font-family="Helvetica,sans-Serif" font-size="10.00" fill="#000000">vector&lt; float, o2::</text>
<text text-anchor="start" x="115" y="-288" font-family="Helvetica,sans-Serif" font-size="10.00" fill="#000000">utils::ShmAllocator</text>
<text text-anchor="middle" x="161.5" y="-277" font-family="Helvetica,sans-Serif" font-size="10.00" fill="#000000">&lt; float &gt; &gt;</text>
<polyline fill="none" stroke="#bfbfbf" points="107,-270 216,-270 "/>
<text text-anchor="middle" x="161.5" y="-258" font-family="Helvetica,sans-Serif" font-size="10.00" fill="#000000"> </text>
<polyline fill="none" stroke="#bfbfbf" points="107,-251 216,-251 "/>
<text text-anchor="middle" x="161.5" y="-239" font-family="Helvetica,sans-Serif" font-size="10.00" fill="#000000"> </text>
</g>
<!-- Node4&#45;&gt;Node2 -->
<g id="edge2" class="edge">
<title>Node4&#45;&gt;Node2</title>
<path fill="none" stroke="#404040" d="M149.9841,-231.6825C142.9692,-207.4275 133.7604,-175.5868 125.3212,-146.4071"/>
<polygon fill="none" stroke="#404040" points="125.2186,-146.0521 119.709,-141.3997 121.8846,-134.5246 127.3941,-139.177 125.2186,-146.0521"/>
<text text-anchor="middle" x="175" y="-200" font-family="Helvetica,sans-Serif" font-size="10.00" fill="#000000"> +mHitsTVctr</text>
<text text-anchor="middle" x="175" y="-189" font-family="Helvetica,sans-Serif" font-size="10.00" fill="#000000">+mHitsYVctr</text>
<text text-anchor="middle" x="175" y="-178" font-family="Helvetica,sans-Serif" font-size="10.00" fill="#000000">+mHitsZVctr</text>
<text text-anchor="middle" x="175" y="-167" font-family="Helvetica,sans-Serif" font-size="10.00" fill="#000000">+mHitsEVctr</text>
<text text-anchor="middle" x="175" y="-156" font-family="Helvetica,sans-Serif" font-size="10.00" fill="#000000">+mHitsXVctr</text>
</g>
</g>
</svg>
