<?xml version="1.0" encoding="UTF-8" standalone="no"?>
<!DOCTYPE svg PUBLIC "-//W3C//DTD SVG 1.1//EN"
 "http://www.w3.org/Graphics/SVG/1.1/DTD/svg11.dtd">
<!-- Generated by graphviz version 2.40.1 (20161225.0304)
 -->
<!-- Title: /home/travis/build/AliceO2Group/AliceO2/Detectors/ITSMFT/MFT/base/src/HalfDetector.cxx Pages: 1 -->
<!--zoomable 374 -->
<svg id="main" version="1.1" xmlns="http://www.w3.org/2000/svg" xmlns:xlink="http://www.w3.org/1999/xlink" xml:space="preserve" onload="init(evt)">
<style type="text/css"><![CDATA[
.edge:hover path { stroke: red; }
.edge:hover polygon { stroke: red; fill: red; }
]]></style>
<script type="text/javascript"><![CDATA[
var edges = document.getElementsByTagName('g');
if (edges && edges.length) {
  for (var i=0;i<edges.length;i++) {
    if (edges[i].id.substr(0,4)=='edge') {
      edges[i].setAttribute('class','edge');
    }
  }
}
]]></script>
        <defs>
                <circle id="rim" cx="0" cy="0" r="7"/>
                <circle id="rim2" cx="0" cy="0" r="3.5"/>
                <g id="zoomPlus">
                        <use xlink:href="#rim" fill="#404040">
                                <set attributeName="fill" to="#808080" begin="zoomplus.mouseover" end="zoomplus.mouseout"/>
                        </use>
                        <path d="M-4,0h8M0,-4v8" fill="none" stroke="white" stroke-width="1.5" pointer-events="none"/>
                </g>
                <g id="zoomMin">
                        <use xlink:href="#rim" fill="#404040">
                                <set attributeName="fill" to="#808080" begin="zoomminus.mouseover" end="zoomminus.mouseout"/>
                        </use>
                        <path d="M-4,0h8" fill="none" stroke="white" stroke-width="1.5" pointer-events="none"/>
                </g>
                <g id="dirArrow">
                        <path fill="none" stroke="white" stroke-width="1.5" d="M0,-3.0v7 M-2.5,-0.5L0,-3.0L2.5,-0.5"/>
                </g>
               <g id="resetDef">
                       <use xlink:href="#rim2" fill="#404040">
                               <set attributeName="fill" to="#808080" begin="reset.mouseover" end="reset.mouseout"/>
                       </use>
               </g>
        </defs>

<script type="text/javascript">
var viewWidth = 1535;
var viewHeight = 374;
var sectionId = 'dynsection-0';
</script>
<script xlink:href="../../svgpan.js"/>
<svg id="graph" class="graph">
<g id="viewport">
<title>/home/travis/build/AliceO2Group/AliceO2/Detectors/ITSMFT/MFT/base/src/HalfDetector.cxx</title>
<!-- Node0 -->
<g id="node1" class="node">
<title>Node0</title>
<polygon fill="#bfbfbf" stroke="#000000" points="576.5,-313.5 576.5,-365.5 721.5,-365.5 721.5,-313.5 576.5,-313.5"/>
<text text-anchor="start" x="584.5" y="-353.5" font-family="Helvetica,sans-Serif" font-size="10.00" fill="#000000">/home/travis/build</text>
<text text-anchor="start" x="584.5" y="-342.5" font-family="Helvetica,sans-Serif" font-size="10.00" fill="#000000">/AliceO2Group/AliceO2</text>
<text text-anchor="start" x="584.5" y="-331.5" font-family="Helvetica,sans-Serif" font-size="10.00" fill="#000000">/Detectors/ITSMFT/MFT</text>
<text text-anchor="middle" x="649" y="-320.5" font-family="Helvetica,sans-Serif" font-size="10.00" fill="#000000">/base/src/HalfDetector.cxx</text>
</g>
<!-- Node1 -->
<g id="node2" class="node">
<title>Node1</title>
<polygon fill="none" stroke="#bfbfbf" points="344,-.5 344,-19.5 426,-19.5 426,-.5 344,-.5"/>
<text text-anchor="middle" x="385" y="-7.5" font-family="Helvetica,sans-Serif" font-size="10.00" fill="#000000">TGeoMatrix.h</text>
</g>
<!-- Node0&#45;&gt;Node1 -->
<g id="edge1" class="edge">
<title>Node0&#45;&gt;Node1</title>
<path fill="none" stroke="#191970" d="M576.4406,-332.0881C407.0863,-313.8121 0,-263.8161 0,-205.5 0,-205.5 0,-205.5 0,-138.5 0,-68.942 228.9752,-30.2453 333.7569,-16.1787"/>
<polygon fill="#191970" stroke="#191970" points="334.3414,-19.632 343.7983,-14.8552 333.4266,-12.6921 334.3414,-19.632"/>
</g>
<!-- Node2 -->
<g id="node3" class="node">
<title>Node2</title>
<polygon fill="none" stroke="#bfbfbf" points="199.5,-257.5 199.5,-276.5 274.5,-276.5 274.5,-257.5 199.5,-257.5"/>
<text text-anchor="middle" x="237" y="-264.5" font-family="Helvetica,sans-Serif" font-size="10.00" fill="#000000">FairLogger.h</text>
</g>
<!-- Node0&#45;&gt;Node2 -->
<g id="edge2" class="edge">
<title>Node0&#45;&gt;Node2</title>
<path fill="none" stroke="#191970" d="M576.4755,-327.9598C504.9436,-316.3777 392.2548,-297.5978 284.7363,-277.0827"/>
<polygon fill="#191970" stroke="#191970" points="285.1631,-273.6009 274.6831,-275.1564 283.8458,-280.4758 285.1631,-273.6009"/>
</g>
<!-- Node3 -->
<g id="node4" class="node">
<title>Node3</title>
<g id="a_node4"><a xlink:href="../../dc/d53/HalfDiskSegmentation_8h.html" target="_top" xlink:title="Class for the description of the structure of a half&#45;disk. ">
<polygon fill="none" stroke="#000000" points="293,-257.5 293,-276.5 475,-276.5 475,-257.5 293,-257.5"/>
<text text-anchor="middle" x="384" y="-264.5" font-family="Helvetica,sans-Serif" font-size="10.00" fill="#000000">MFTBase/HalfDiskSegmentation.h</text>
</a>
</g>
</g>
<!-- Node0&#45;&gt;Node3 -->
<g id="edge3" class="edge">
<title>Node0&#45;&gt;Node3</title>
<path fill="none" stroke="#191970" d="M576.2371,-319.5932C529.0586,-306.6858 469.1005,-290.2822 428.7961,-279.2555"/>
<polygon fill="#191970" stroke="#191970" points="429.5615,-275.8364 418.9923,-276.5734 427.7143,-282.5883 429.5615,-275.8364"/>
</g>
<!-- Node10 -->
<g id="node11" class="node">
<title>Node10</title>
<g id="a_node11"><a xlink:href="../../d2/d77/HalfSegmentation_8h.html" target="_top" xlink:title="Segmentation class for each half of the ALICE Muon Forward Tracker. ">
<polygon fill="none" stroke="#000000" points="412.5,-196 412.5,-215 573.5,-215 573.5,-196 412.5,-196"/>
<text text-anchor="middle" x="493" y="-203" font-family="Helvetica,sans-Serif" font-size="10.00" fill="#000000">MFTBase/HalfSegmentation.h</text>
</a>
</g>
</g>
<!-- Node0&#45;&gt;Node10 -->
<g id="edge14" class="edge">
<title>Node0&#45;&gt;Node10</title>
<path fill="none" stroke="#191970" d="M618.5513,-313.3453C587.0272,-286.2669 538.746,-244.7947 512.1793,-221.9745"/>
<polygon fill="#191970" stroke="#191970" points="514.2318,-219.1236 504.3655,-215.2626 509.6706,-224.4336 514.2318,-219.1236"/>
</g>
<!-- Node12 -->
<g id="node13" class="node">
<title>Node12</title>
<g id="a_node13"><a xlink:href="../../d7/d73/HalfDisk_8h.html" target="_top" xlink:title="Class building geometry of one half of an MFT disk. ">
<polygon fill="none" stroke="#000000" points="592,-196 592,-215 706,-215 706,-196 592,-196"/>
<text text-anchor="middle" x="649" y="-203" font-family="Helvetica,sans-Serif" font-size="10.00" fill="#000000">MFTBase/HalfDisk.h</text>
</a>
</g>
</g>
<!-- Node0&#45;&gt;Node12 -->
<g id="edge21" class="edge">
<title>Node0&#45;&gt;Node12</title>
<path fill="none" stroke="#191970" d="M649,-313.3453C649,-287.5564 649,-248.7118 649,-225.3578"/>
<polygon fill="#191970" stroke="#191970" points="652.5001,-225.2626 649,-215.2626 645.5001,-225.2627 652.5001,-225.2626"/>
</g>
<!-- Node13 -->
<g id="node14" class="node">
<title>Node13</title>
<g id="a_node14"><a xlink:href="../../d6/d2e/ITSMFT_2MFT_2base_2include_2MFTBase_2Geometry_8h.html" target="_top" xlink:title="MFTBase/Geometry.h">
<polygon fill="none" stroke="#000000" points="906.5,-257.5 906.5,-276.5 1025.5,-276.5 1025.5,-257.5 906.5,-257.5"/>
<text text-anchor="middle" x="966" y="-264.5" font-family="Helvetica,sans-Serif" font-size="10.00" fill="#000000">MFTBase/Geometry.h</text>
</a>
</g>
</g>
<!-- Node0&#45;&gt;Node13 -->
<g id="edge23" class="edge">
<title>Node0&#45;&gt;Node13</title>
<path fill="none" stroke="#191970" d="M721.7262,-322.867C780.5051,-309.4239 861.8052,-290.83 914.1522,-278.8579"/>
<polygon fill="#191970" stroke="#191970" points="915.2524,-282.1968 924.2203,-276.5553 913.6917,-275.373 915.2524,-282.1968"/>
</g>
<!-- Node14 -->
<g id="node15" class="node">
<title>Node14</title>
<g id="a_node15"><a xlink:href="../../d3/d4f/HalfDetector_8h.html" target="_top" xlink:title="Class describing geometry of one half of the ALICE Muon Forward Tracker. ">
<polygon fill="none" stroke="#000000" points="744,-257.5 744,-276.5 878,-276.5 878,-257.5 744,-257.5"/>
<text text-anchor="middle" x="811" y="-264.5" font-family="Helvetica,sans-Serif" font-size="10.00" fill="#000000">MFTBase/HalfDetector.h</text>
</a>
</g>
</g>
<!-- Node0&#45;&gt;Node14 -->
<g id="edge25" class="edge">
<title>Node0&#45;&gt;Node14</title>
<path fill="none" stroke="#191970" d="M707.4857,-313.3258C732.2095,-302.2612 759.9732,-289.8361 780.5188,-280.6413"/>
<polygon fill="#191970" stroke="#191970" points="781.9985,-283.8136 789.6964,-276.534 779.1391,-277.4243 781.9985,-283.8136"/>
</g>
<!-- Node16 -->
<g id="node17" class="node">
<title>Node16</title>
<g id="a_node17"><a xlink:href="../../dc/d37/PowerSupplyUnit_8h.html" target="_top" xlink:title="MFT heat exchanger builder. ">
<polygon fill="none" stroke="#000000" points="724.5,-196 724.5,-215 879.5,-215 879.5,-196 724.5,-196"/>
<text text-anchor="middle" x="802" y="-203" font-family="Helvetica,sans-Serif" font-size="10.00" fill="#000000">MFTBase/PowerSupplyUnit.h</text>
</a>
</g>
</g>
<!-- Node0&#45;&gt;Node16 -->
<g id="edge31" class="edge">
<title>Node0&#45;&gt;Node16</title>
<path fill="none" stroke="#191970" d="M674.6534,-313.4609C691.3973,-296.8281 713.9746,-275.0713 735,-257 749.6944,-244.3702 767.0594,-231.0649 780.4284,-221.1426"/>
<polygon fill="#191970" stroke="#191970" points="782.5892,-223.8982 788.5686,-215.1519 778.44,-218.2604 782.5892,-223.8982"/>
</g>
<!-- Node17 -->
<g id="node18" class="node">
<title>Node17</title>
<g id="a_node18"><a xlink:href="../../d1/d04/MFTBaseParam_8h.html" target="_top" xlink:title="MFTBase/MFTBaseParam.h">
<polygon fill="none" stroke="#000000" points="1101,-257.5 1101,-276.5 1247,-276.5 1247,-257.5 1101,-257.5"/>
<text text-anchor="middle" x="1174" y="-264.5" font-family="Helvetica,sans-Serif" font-size="10.00" fill="#000000">MFTBase/MFTBaseParam.h</text>
</a>
</g>
</g>
<!-- Node0&#45;&gt;Node17 -->
<g id="edge32" class="edge">
<title>Node0&#45;&gt;Node17</title>
<path fill="none" stroke="#191970" d="M721.7232,-329.4573C819.7057,-315.9264 993.4722,-291.93 1094.7123,-277.9493"/>
<polygon fill="#191970" stroke="#191970" points="1095.4533,-281.3802 1104.8805,-276.5451 1094.4956,-274.446 1095.4533,-281.3802"/>
</g>
<!-- Node4 -->
<g id="node5" class="node">
<title>Node4</title>
<polygon fill="none" stroke="#bfbfbf" points="284.5,-129 284.5,-148 369.5,-148 369.5,-129 284.5,-129"/>
<text text-anchor="middle" x="327" y="-136" font-family="Helvetica,sans-Serif" font-size="10.00" fill="#000000">TXMLEngine.h</text>
</g>
<!-- Node3&#45;&gt;Node4 -->
<g id="edge4" class="edge">
<title>Node3&#45;&gt;Node4</title>
<path fill="none" stroke="#191970" d="M379.7157,-257.3416C370.349,-236.2254 347.899,-185.6144 335.5318,-157.7341"/>
<polygon fill="#191970" stroke="#191970" points="338.5882,-155.9923 331.334,-148.2705 332.1895,-158.8307 338.5882,-155.9923"/>
</g>
<!-- Node5 -->
<g id="node6" class="node">
<title>Node5</title>
<g id="a_node6"><a xlink:href="../../d9/de7/LadderSegmentation_8h.html" target="_top" xlink:title="Description of the virtual segmentation of a ladder. ">
<polygon fill="none" stroke="#000000" points="144.5,-196 144.5,-215 317.5,-215 317.5,-196 144.5,-196"/>
<text text-anchor="middle" x="231" y="-203" font-family="Helvetica,sans-Serif" font-size="10.00" fill="#000000">MFTBase/LadderSegmentation.h</text>
</a>
</g>
</g>
<!-- Node3&#45;&gt;Node5 -->
<g id="edge5" class="edge">
<title>Node3&#45;&gt;Node5</title>
<path fill="none" stroke="#191970" d="M360.0938,-257.3906C334.2695,-247.0103 292.9473,-230.4004 264.0295,-218.7766"/>
<polygon fill="#191970" stroke="#191970" points="265.3222,-215.5241 254.7384,-215.0419 262.7115,-222.019 265.3222,-215.5241"/>
</g>
<!-- Node7 -->
<g id="node8" class="node">
<title>Node7</title>
<g id="a_node8"><a xlink:href="../../d3/de7/VSegmentation_8h.html" target="_top" xlink:title="Abstract base class for MFT Segmentation description. ">
<polygon fill="none" stroke="#000000" points="311.5,-62 311.5,-81 458.5,-81 458.5,-62 311.5,-62"/>
<text text-anchor="middle" x="385" y="-69" font-family="Helvetica,sans-Serif" font-size="10.00" fill="#000000">MFTBase/VSegmentation.h</text>
</a>
</g>
</g>
<!-- Node3&#45;&gt;Node7 -->
<g id="edge13" class="edge">
<title>Node3&#45;&gt;Node7</title>
<path fill="none" stroke="#191970" d="M384.0496,-257.3051C384.2052,-226.8813 384.6861,-132.8666 384.898,-91.4452"/>
<polygon fill="#191970" stroke="#191970" points="388.3988,-91.2712 384.9501,-81.2534 381.3989,-91.2353 388.3988,-91.2712"/>
</g>
<!-- Node5&#45;&gt;Node4 -->
<g id="edge7" class="edge">
<title>Node5&#45;&gt;Node4</title>
<path fill="none" stroke="#191970" d="M244.7545,-195.9005C260.4377,-184.9549 286.2983,-166.9064 304.8358,-153.9688"/>
<polygon fill="#191970" stroke="#191970" points="307.0738,-156.675 313.2711,-148.0817 303.0676,-150.9347 307.0738,-156.675"/>
</g>
<!-- Node6 -->
<g id="node7" class="node">
<title>Node6</title>
<polygon fill="none" stroke="#bfbfbf" points="476.5,-62 476.5,-81 565.5,-81 565.5,-62 476.5,-62"/>
<text text-anchor="middle" x="521" y="-69" font-family="Helvetica,sans-Serif" font-size="10.00" fill="#000000">TClonesArray.h</text>
</g>
<!-- Node5&#45;&gt;Node6 -->
<g id="edge6" class="edge">
<title>Node5&#45;&gt;Node6</title>
<path fill="none" stroke="#191970" d="M233.2351,-195.7927C237.814,-178.2391 250.0043,-141.3435 275,-123 344.9947,-71.6335 382.5144,-106.9989 467,-87 471.1643,-86.0143 475.4873,-84.9111 479.7924,-83.7598"/>
<polygon fill="#191970" stroke="#191970" points="481.0139,-87.0535 489.7218,-81.0184 479.1509,-80.306 481.0139,-87.0535"/>
</g>
<!-- Node5&#45;&gt;Node7 -->
<g id="edge8" class="edge">
<title>Node5&#45;&gt;Node7</title>
<path fill="none" stroke="#191970" d="M229.3424,-195.8728C227.0287,-179.0933 224.8525,-144.2554 242,-123 254.0398,-108.0759 298.4987,-93.4985 334.6863,-83.6843"/>
<polygon fill="#191970" stroke="#191970" points="335.8704,-86.9913 344.64,-81.0461 334.077,-80.225 335.8704,-86.9913"/>
</g>
<!-- Node9 -->
<g id="node10" class="node">
<title>Node9</title>
<g id="a_node10"><a xlink:href="../../d3/dbd/ChipSegmentation_8h.html" target="_top" xlink:title="Chip (sensor) segmentation description. ">
<polygon fill="none" stroke="#000000" points="28,-129 28,-148 190,-148 190,-129 28,-129"/>
<text text-anchor="middle" x="109" y="-136" font-family="Helvetica,sans-Serif" font-size="10.00" fill="#000000">MFTBase/ChipSegmentation.h</text>
</a>
</g>
</g>
<!-- Node5&#45;&gt;Node9 -->
<g id="edge11" class="edge">
<title>Node5&#45;&gt;Node9</title>
<path fill="none" stroke="#191970" d="M213.5204,-195.9005C193.046,-184.6564 158.9228,-165.9166 135.2607,-152.9219"/>
<polygon fill="#191970" stroke="#191970" points="136.8972,-149.8276 126.4472,-148.0817 133.5276,-155.9632 136.8972,-149.8276"/>
</g>
<!-- Node7&#45;&gt;Node1 -->
<g id="edge10" class="edge">
<title>Node7&#45;&gt;Node1</title>
<path fill="none" stroke="#191970" d="M385,-61.8906C385,-53.3657 385,-40.6392 385,-29.9235"/>
<polygon fill="#191970" stroke="#191970" points="388.5001,-29.7448 385,-19.7449 381.5001,-29.7449 388.5001,-29.7448"/>
</g>
<!-- Node8 -->
<g id="node9" class="node">
<title>Node8</title>
<polygon fill="none" stroke="#bfbfbf" points="655.5,-.5 655.5,-19.5 722.5,-19.5 722.5,-.5 655.5,-.5"/>
<text text-anchor="middle" x="689" y="-7.5" font-family="Helvetica,sans-Serif" font-size="10.00" fill="#000000">TNamed.h</text>
</g>
<!-- Node7&#45;&gt;Node8 -->
<g id="edge9" class="edge">
<title>Node7&#45;&gt;Node8</title>
<path fill="none" stroke="#191970" d="M432.1665,-61.9581C490.414,-50.1745 588.7068,-30.2896 645.3066,-18.8393"/>
<polygon fill="#191970" stroke="#191970" points="646.2634,-22.2167 655.3708,-16.8033 644.8753,-15.3557 646.2634,-22.2167"/>
</g>
<!-- Node9&#45;&gt;Node7 -->
<g id="edge12" class="edge">
<title>Node9&#45;&gt;Node7</title>
<path fill="none" stroke="#191970" d="M148.251,-128.9717C197.4657,-117.0246 281.868,-96.5357 335.4744,-83.5225"/>
<polygon fill="#191970" stroke="#191970" points="336.5455,-86.8642 345.4376,-81.1039 334.8941,-80.0618 336.5455,-86.8642"/>
</g>
<!-- Node10&#45;&gt;Node4 -->
<g id="edge16" class="edge">
<title>Node10&#45;&gt;Node4</title>
<path fill="none" stroke="#191970" d="M469.2162,-195.9005C440.6181,-184.3579 392.4494,-164.9163 360.1983,-151.8993"/>
<polygon fill="#191970" stroke="#191970" points="361.3228,-148.5789 350.7396,-148.0817 358.7028,-155.0701 361.3228,-148.5789"/>
</g>
<!-- Node10&#45;&gt;Node7 -->
<g id="edge20" class="edge">
<title>Node10&#45;&gt;Node7</title>
<path fill="none" stroke="#191970" d="M485.2329,-195.8631C467.1742,-173.4569 422.1499,-117.5934 399.0929,-88.9857"/>
<polygon fill="#191970" stroke="#191970" points="401.6971,-86.6393 392.6967,-81.0496 396.2469,-91.032 401.6971,-86.6393"/>
</g>
<!-- Node10&#45;&gt;Node8 -->
<g id="edge15" class="edge">
<title>Node10&#45;&gt;Node8</title>
<path fill="none" stroke="#191970" d="M532.4463,-195.9443C557.8904,-188.1377 590.3414,-174.9099 613,-154 651.1141,-118.8272 673.6327,-60.1077 683.3333,-29.6576"/>
<polygon fill="#191970" stroke="#191970" points="686.7659,-30.4002 686.3325,-19.8142 680.0698,-28.3599 686.7659,-30.4002"/>
</g>
<!-- Node11 -->
<g id="node12" class="node">
<title>Node11</title>
<g id="a_node12"><a xlink:href="../../dd/d83/ITSMFT_2MFT_2base_2include_2MFTBase_2Segmentation_8h.html" target="_top" xlink:title="MFTBase/Segmentation.h">
<polygon fill="none" stroke="#000000" points="464,-129 464,-148 604,-148 604,-129 464,-129"/>
<text text-anchor="middle" x="534" y="-136" font-family="Helvetica,sans-Serif" font-size="10.00" fill="#000000">MFTBase/Segmentation.h</text>
</a>
</g>
</g>
<!-- Node10&#45;&gt;Node11 -->
<g id="edge17" class="edge">
<title>Node10&#45;&gt;Node11</title>
<path fill="none" stroke="#191970" d="M498.8743,-195.9005C505.0852,-185.751 515.0335,-169.4941 522.7599,-156.8679"/>
<polygon fill="#191970" stroke="#191970" points="525.9023,-158.4382 528.1366,-148.0817 519.9315,-154.7844 525.9023,-158.4382"/>
</g>
<!-- Node11&#45;&gt;Node6 -->
<g id="edge19" class="edge">
<title>Node11&#45;&gt;Node6</title>
<path fill="none" stroke="#191970" d="M532.1374,-128.9005C530.226,-119.0495 527.1983,-103.4451 524.7819,-90.9912"/>
<polygon fill="#191970" stroke="#191970" points="528.1999,-90.2319 522.8591,-81.0817 521.3281,-91.5653 528.1999,-90.2319"/>
</g>
<!-- Node11&#45;&gt;Node8 -->
<g id="edge18" class="edge">
<title>Node11&#45;&gt;Node8</title>
<path fill="none" stroke="#191970" d="M545.6502,-128.8416C572.0188,-106.9812 636.5165,-53.5105 669.2501,-26.3733"/>
<polygon fill="#191970" stroke="#191970" points="671.7499,-28.8473 677.2146,-19.7705 667.2823,-23.4583 671.7499,-28.8473"/>
</g>
<!-- Node12&#45;&gt;Node8 -->
<g id="edge22" class="edge">
<title>Node12&#45;&gt;Node8</title>
<path fill="none" stroke="#191970" d="M652.6533,-195.8448C660.0325,-175.8666 676.6375,-128.3953 684,-87 687.4355,-67.684 688.5766,-45.2682 688.9242,-29.6211"/>
<polygon fill="#191970" stroke="#191970" points="692.4245,-29.6107 689.0584,-19.5649 685.4251,-29.5172 692.4245,-29.6107"/>
</g>
<!-- Node13&#45;&gt;Node8 -->
<g id="edge24" class="edge">
<title>Node13&#45;&gt;Node8</title>
<path fill="none" stroke="#191970" d="M964.0284,-257.1095C956.4593,-222.0863 925.6986,-103.5187 848,-56 812.4533,-34.2605 766.1646,-22.3902 732.7065,-16.1836"/>
<polygon fill="#191970" stroke="#191970" points="733.2161,-12.7196 722.761,-14.4346 732.0036,-19.6138 733.2161,-12.7196"/>
</g>
<!-- Node14&#45;&gt;Node8 -->
<g id="edge26" class="edge">
<title>Node14&#45;&gt;Node8</title>
<path fill="none" stroke="#191970" d="M852.1985,-257.3939C871.4492,-250.6178 892.5964,-239.3627 904,-221 916.5231,-200.8344 898.6132,-133.5254 891,-123 851.9736,-69.0452 778.8304,-37.593 732.0918,-22.1188"/>
<polygon fill="#191970" stroke="#191970" points="733.132,-18.7769 722.5409,-19.057 730.995,-25.4427 733.132,-18.7769"/>
</g>
<!-- Node15 -->
<g id="node16" class="node">
<title>Node15</title>
<polygon fill="none" stroke="#bfbfbf" points="794,-129 794,-148 882,-148 882,-129 794,-129"/>
<text text-anchor="middle" x="838" y="-136" font-family="Helvetica,sans-Serif" font-size="10.00" fill="#000000">TGeoVolume.h</text>
</g>
<!-- Node14&#45;&gt;Node15 -->
<g id="edge27" class="edge">
<title>Node14&#45;&gt;Node15</title>
<path fill="none" stroke="#191970" d="M840.9458,-257.4983C858.0054,-250.3713 877.9324,-238.7417 888,-221 901.3078,-197.5483 878.1007,-170.9638 859.0441,-154.4626"/>
<polygon fill="#191970" stroke="#191970" points="861.1948,-151.6997 851.2496,-148.0466 856.746,-157.1042 861.1948,-151.6997"/>
</g>
<!-- Node14&#45;&gt;Node16 -->
<g id="edge28" class="edge">
<title>Node14&#45;&gt;Node16</title>
<path fill="none" stroke="#191970" d="M809.5938,-257.3906C808.3462,-248.8657 806.4838,-236.1392 804.9156,-225.4235"/>
<polygon fill="#191970" stroke="#191970" points="808.3373,-224.6326 803.4261,-215.2449 801.411,-225.6463 808.3373,-224.6326"/>
</g>
<!-- Node16&#45;&gt;Node1 -->
<g id="edge30" class="edge">
<title>Node16&#45;&gt;Node1</title>
<path fill="none" stroke="#191970" d="M790.4841,-195.8383C758.3826,-169.3952 664.3119,-95.205 574,-56 529.355,-36.6193 475.0764,-24.481 436.1609,-17.5731"/>
<polygon fill="#191970" stroke="#191970" points="436.5627,-14.0909 426.1141,-15.8451 435.3761,-20.9896 436.5627,-14.0909"/>
</g>
<!-- Node16&#45;&gt;Node15 -->
<g id="edge29" class="edge">
<title>Node16&#45;&gt;Node15</title>
<path fill="none" stroke="#191970" d="M807.1579,-195.9005C812.5579,-185.8505 821.1755,-169.8122 827.9306,-157.2403"/>
<polygon fill="#191970" stroke="#191970" points="831.2016,-158.5472 832.8516,-148.0817 825.0353,-155.234 831.2016,-158.5472"/>
</g>
<!-- Node18 -->
<g id="node19" class="node">
<title>Node18</title>
<g id="a_node19"><a xlink:href="../../db/d2c/ConfigurableParam_8h.html" target="_top" xlink:title="CommonUtils/Configurable\lParam.h">
<polygon fill="none" stroke="#000000" points="1100,-123.5 1100,-153.5 1248,-153.5 1248,-123.5 1100,-123.5"/>
<text text-anchor="start" x="1108" y="-141.5" font-family="Helvetica,sans-Serif" font-size="10.00" fill="#000000">CommonUtils/Configurable</text>
<text text-anchor="middle" x="1174" y="-130.5" font-family="Helvetica,sans-Serif" font-size="10.00" fill="#000000">Param.h</text>
</a>
</g>
</g>
<!-- Node17&#45;&gt;Node18 -->
<g id="edge33" class="edge">
<title>Node17&#45;&gt;Node18</title>
<path fill="none" stroke="#191970" d="M1174,-257.3416C1174,-237.6745 1174,-192.4221 1174,-163.7784"/>
<polygon fill="#191970" stroke="#191970" points="1177.5001,-163.7016 1174,-153.7016 1170.5001,-163.7016 1177.5001,-163.7016"/>
</g>
<!-- Node25 -->
<g id="node26" class="node">
<title>Node25</title>
<g id="a_node26"><a xlink:href="../../da/d6b/ConfigurableParamHelper_8h.html" target="_top" xlink:title="CommonUtils/Configurable\lParamHelper.h">
<polygon fill="none" stroke="#000000" points="1261,-190.5 1261,-220.5 1409,-220.5 1409,-190.5 1261,-190.5"/>
<text text-anchor="start" x="1269" y="-208.5" font-family="Helvetica,sans-Serif" font-size="10.00" fill="#000000">CommonUtils/Configurable</text>
<text text-anchor="middle" x="1335" y="-197.5" font-family="Helvetica,sans-Serif" font-size="10.00" fill="#000000">ParamHelper.h</text>
</a>
</g>
</g>
<!-- Node17&#45;&gt;Node25 -->
<g id="edge40" class="edge">
<title>Node17&#45;&gt;Node25</title>
<path fill="none" stroke="#191970" d="M1199.1563,-257.3906C1222.3579,-248.5279 1257.4479,-235.1239 1286.1518,-224.1594"/>
<polygon fill="#191970" stroke="#191970" points="1287.5223,-227.3826 1295.615,-220.5446 1285.0243,-220.8435 1287.5223,-227.3826"/>
</g>
<!-- Node19 -->
<g id="node20" class="node">
<title>Node19</title>
<polygon fill="none" stroke="#bfbfbf" points="1012.5,-62 1012.5,-81 1059.5,-81 1059.5,-62 1012.5,-62"/>
<text text-anchor="middle" x="1036" y="-69" font-family="Helvetica,sans-Serif" font-size="10.00" fill="#000000">vector</text>
</g>
<!-- Node18&#45;&gt;Node19 -->
<g id="edge34" class="edge">
<title>Node18&#45;&gt;Node19</title>
<path fill="none" stroke="#191970" d="M1143.0301,-123.4639C1119.6669,-112.1209 1087.8441,-96.6707 1064.9806,-85.5703"/>
<polygon fill="#191970" stroke="#191970" points="1066.3057,-82.323 1055.7812,-81.1039 1063.2484,-88.62 1066.3057,-82.323"/>
</g>
<!-- Node20 -->
<g id="node21" class="node">
<title>Node20</title>
<polygon fill="none" stroke="#bfbfbf" points="1078,-62 1078,-81 1116,-81 1116,-62 1078,-62"/>
<text text-anchor="middle" x="1097" y="-69" font-family="Helvetica,sans-Serif" font-size="10.00" fill="#000000">map</text>
</g>
<!-- Node18&#45;&gt;Node20 -->
<g id="edge35" class="edge">
<title>Node18&#45;&gt;Node20</title>
<path fill="none" stroke="#191970" d="M1156.5275,-123.2967C1144.2976,-112.6551 1127.9841,-98.4602 1115.5279,-87.6217"/>
<polygon fill="#191970" stroke="#191970" points="1117.8225,-84.9788 1107.9811,-81.055 1113.2276,-90.2596 1117.8225,-84.9788"/>
</g>
<!-- Node21 -->
<g id="node22" class="node">
<title>Node21</title>
<polygon fill="none" stroke="#bfbfbf" points="1134.5,-62 1134.5,-81 1227.5,-81 1227.5,-62 1134.5,-62"/>
<text text-anchor="middle" x="1181" y="-69" font-family="Helvetica,sans-Serif" font-size="10.00" fill="#000000">unordered_map</text>
</g>
<!-- Node18&#45;&gt;Node21 -->
<g id="edge36" class="edge">
<title>Node18&#45;&gt;Node21</title>
<path fill="none" stroke="#191970" d="M1175.5884,-123.2967C1176.5837,-113.7699 1177.8766,-101.3954 1178.949,-91.1306"/>
<polygon fill="#191970" stroke="#191970" points="1182.4436,-91.3646 1180.0017,-81.055 1175.4815,-90.6371 1182.4436,-91.3646"/>
</g>
<!-- Node22 -->
<g id="node23" class="node">
<title>Node22</title>
<polygon fill="none" stroke="#bfbfbf" points="1245.5,-56.5 1245.5,-86.5 1358.5,-86.5 1358.5,-56.5 1245.5,-56.5"/>
<text text-anchor="start" x="1253.5" y="-74.5" font-family="Helvetica,sans-Serif" font-size="10.00" fill="#000000">boost/property_tree</text>
<text text-anchor="middle" x="1302" y="-63.5" font-family="Helvetica,sans-Serif" font-size="10.00" fill="#000000">/ptree.hpp</text>
</g>
<!-- Node18&#45;&gt;Node22 -->
<g id="edge37" class="edge">
<title>Node18&#45;&gt;Node22</title>
<path fill="none" stroke="#191970" d="M1202.7257,-123.4639C1220.7969,-114.0047 1244.3247,-101.6894 1263.9396,-91.4222"/>
<polygon fill="#191970" stroke="#191970" points="1265.6908,-94.4562 1272.9273,-86.7177 1262.4445,-88.2544 1265.6908,-94.4562"/>
</g>
<!-- Node23 -->
<g id="node24" class="node">
<title>Node23</title>
<polygon fill="none" stroke="#bfbfbf" points="1469.5,-62 1469.5,-81 1526.5,-81 1526.5,-62 1469.5,-62"/>
<text text-anchor="middle" x="1498" y="-69" font-family="Helvetica,sans-Serif" font-size="10.00" fill="#000000">typeinfo</text>
</g>
<!-- Node18&#45;&gt;Node23 -->
<g id="edge38" class="edge">
<title>Node18&#45;&gt;Node23</title>
<path fill="none" stroke="#191970" d="M1248.322,-124.6225C1325.4888,-110.1841 1436.3386,-89.348 1446,-87 1450.3924,-85.9325 1454.9652,-84.7206 1459.4963,-83.456"/>
<polygon fill="#191970" stroke="#191970" points="1460.6249,-86.7732 1469.2631,-80.6388 1458.6848,-80.0474 1460.6249,-86.7732"/>
</g>
<!-- Node24 -->
<g id="node25" class="node">
<title>Node24</title>
<polygon fill="none" stroke="#bfbfbf" points="1377,-62 1377,-81 1437,-81 1437,-62 1377,-62"/>
<text text-anchor="middle" x="1407" y="-69" font-family="Helvetica,sans-Serif" font-size="10.00" fill="#000000">iostream</text>
</g>
<!-- Node18&#45;&gt;Node24 -->
<g id="edge39" class="edge">
<title>Node18&#45;&gt;Node24</title>
<path fill="none" stroke="#191970" d="M1238.3467,-123.4571C1276.3862,-114.06 1325.3135,-101.0931 1368,-87 1370.1361,-86.2947 1372.3243,-85.5341 1374.5209,-84.7418"/>
<polygon fill="#191970" stroke="#191970" points="1375.9496,-87.9437 1384.0696,-81.1381 1373.4779,-81.3945 1375.9496,-87.9437"/>
</g>
<!-- Node25&#45;&gt;Node18 -->
<g id="edge41" class="edge">
<title>Node25&#45;&gt;Node18</title>
<path fill="none" stroke="#191970" d="M1298.8685,-190.4639C1275.439,-180.7137 1244.7172,-167.9289 1219.6099,-157.4805"/>
<polygon fill="#191970" stroke="#191970" points="1220.8664,-154.2125 1210.2891,-153.6017 1218.1769,-160.6752 1220.8664,-154.2125"/>
</g>
<!-- Node25&#45;&gt;Node23 -->
<g id="edge44" class="edge">
<title>Node25&#45;&gt;Node23</title>
<path fill="none" stroke="#191970" d="M1400.3691,-190.4172C1435.7354,-180.9118 1474.4945,-167.8477 1486,-154 1500.4769,-136.5759 1501.7374,-109.6194 1500.5307,-91.2996"/>
<polygon fill="#191970" stroke="#191970" points="1503.998,-90.7904 1499.5567,-81.1714 1497.0301,-91.4606 1503.998,-90.7904"/>
</g>
<!-- Node26 -->
<g id="node27" class="node">
<title>Node26</title>
<polygon fill="none" stroke="#bfbfbf" points="1266.5,-129 1266.5,-148 1323.5,-148 1323.5,-129 1266.5,-129"/>
<text text-anchor="middle" x="1295" y="-136" font-family="Helvetica,sans-Serif" font-size="10.00" fill="#000000">TClass.h</text>
</g>
<!-- Node25&#45;&gt;Node26 -->
<g id="edge42" class="edge">
<title>Node25&#45;&gt;Node26</title>
<path fill="none" stroke="#191970" d="M1325.9234,-190.2967C1319.9937,-180.3645 1312.2162,-167.3371 1305.9445,-156.8321"/>
<polygon fill="#191970" stroke="#191970" points="1308.8358,-154.8471 1300.7045,-148.055 1302.8254,-158.4354 1308.8358,-154.8471"/>
</g>
<!-- Node27 -->
<g id="node28" class="node">
<title>Node27</title>
<polygon fill="none" stroke="#bfbfbf" points="1341.5,-129 1341.5,-148 1410.5,-148 1410.5,-129 1341.5,-129"/>
<text text-anchor="middle" x="1376" y="-136" font-family="Helvetica,sans-Serif" font-size="10.00" fill="#000000">type_traits</text>
</g>
<!-- Node25&#45;&gt;Node27 -->
<g id="edge43" class="edge">
<title>Node25&#45;&gt;Node27</title>
<path fill="none" stroke="#191970" d="M1344.3035,-190.2967C1350.3814,-180.3645 1358.3534,-167.3371 1364.7819,-156.8321"/>
<polygon fill="#191970" stroke="#191970" points="1367.9186,-158.4115 1370.1529,-148.055 1361.9478,-154.7578 1367.9186,-158.4115"/>
</g>
<!-- Node28 -->
<g id="node29" class="node">
<title>Node28</title>
<polygon fill="none" stroke="#bfbfbf" points="1429,-129 1429,-148 1477,-148 1477,-129 1429,-129"/>
<text text-anchor="middle" x="1453" y="-136" font-family="Helvetica,sans-Serif" font-size="10.00" fill="#000000">TFile.h</text>
</g>
<!-- Node25&#45;&gt;Node28 -->
<g id="edge45" class="edge">
<title>Node25&#45;&gt;Node28</title>
<path fill="none" stroke="#191970" d="M1361.4815,-190.4639C1381.102,-179.3234 1407.7,-164.2212 1427.1649,-153.1691"/>
<polygon fill="#191970" stroke="#191970" points="1429.1178,-156.0851 1436.0856,-148.1039 1425.6615,-149.9979 1429.1178,-156.0851"/>
</g>
</g>
</svg>
        <g id="navigator" transform="translate(0 0)" fill="#404254">
                <rect fill="#f2f5e9" fill-opacity="0.5" stroke="#606060" stroke-width=".5" x="0" y="0" width="60" height="60"/>
                <use id="zoomplus" xlink:href="#zoomPlus" x="17" y="9" onmousedown="handleZoom(evt,'in')"/>
                <use id="zoomminus" xlink:href="#zoomMin" x="42" y="9" onmousedown="handleZoom(evt,'out')"/>
                <use id="reset" xlink:href="#resetDef" x="30" y="36" onmousedown="handleReset()"/>
                <g id="arrowUp" xlink:href="#dirArrow" transform="translate(30 24)" onmousedown="handlePan(0,-1)">
                  <use xlink:href="#rim" fill="#404040">
                        <set attributeName="fill" to="#808080" begin="arrowUp.mouseover" end="arrowUp.mouseout"/>
                  </use>
                  <path fill="none" stroke="white" stroke-width="1.5" d="M0,-3.0v7 M-2.5,-0.5L0,-3.0L2.5,-0.5"/>
                </g>
                <g id="arrowRight" xlink:href="#dirArrow" transform="rotate(90) translate(36 -43)" onmousedown="handlePan(1,0)">
                  <use xlink:href="#rim" fill="#404040">
                        <set attributeName="fill" to="#808080" begin="arrowRight.mouseover" end="arrowRight.mouseout"/>
                  </use>
                  <path fill="none" stroke="white" stroke-width="1.5" d="M0,-3.0v7 M-2.5,-0.5L0,-3.0L2.5,-0.5"/>
                </g>
                <g id="arrowDown" xlink:href="#dirArrow" transform="rotate(180) translate(-30 -48)" onmousedown="handlePan(0,1)">
                  <use xlink:href="#rim" fill="#404040">
                        <set attributeName="fill" to="#808080" begin="arrowDown.mouseover" end="arrowDown.mouseout"/>
                  </use>
                  <path fill="none" stroke="white" stroke-width="1.5" d="M0,-3.0v7 M-2.5,-0.5L0,-3.0L2.5,-0.5"/>
                </g>
                <g id="arrowLeft" xlink:href="#dirArrow" transform="rotate(270) translate(-36 17)" onmousedown="handlePan(-1,0)">
                  <use xlink:href="#rim" fill="#404040">
                        <set attributeName="fill" to="#808080" begin="arrowLeft.mouseover" end="arrowLeft.mouseout"/>
                  </use>
                  <path fill="none" stroke="white" stroke-width="1.5" d="M0,-3.0v7 M-2.5,-0.5L0,-3.0L2.5,-0.5"/>
                </g>
        </g>
        <svg viewBox="0 0 15 15" width="100%" height="30px" preserveAspectRatio="xMaxYMin meet">
         <g id="arrow_out" transform="scale(0.3 0.3)">
          <a xlink:href="HalfDetector_8cxx__incl_org.svg" target="_base">
           <rect id="button" ry="5" rx="5" y="6" x="6" height="38" width="38"
                fill="#f2f5e9" fill-opacity="0.5" stroke="#606060" stroke-width="1.0"/>
           <path id="arrow"
             d="M 11.500037,31.436501 C 11.940474,20.09759 22.043105,11.32322 32.158766,21.979434 L 37.068811,17.246167 C 37.068811,17.246167 37.088388,32 37.088388,32 L 22.160133,31.978069 C 22.160133,31.978069 26.997745,27.140456 26.997745,27.140456 C 18.528582,18.264221 13.291696,25.230495 11.500037,31.436501 z"
             style="fill:#404040;"/>
          </a>
         </g>
        </svg>
</svg>
