<?xml version="1.0" encoding="UTF-8" standalone="no"?>
<!DOCTYPE svg PUBLIC "-//W3C//DTD SVG 1.1//EN"
 "http://www.w3.org/Graphics/SVG/1.1/DTD/svg11.dtd">
<!-- Generated by graphviz version 2.40.1 (20161225.0304)
 -->
<!-- Title: /home/travis/build/AliceO2Group/AliceO2/Utilities/hough/runHough.cxx Pages: 1 -->
<svg width="1197pt" height="106pt"
 viewBox="0.00 0.00 1196.50 106.00" xmlns="http://www.w3.org/2000/svg" xmlns:xlink="http://www.w3.org/1999/xlink">
<g id="graph0" class="graph" transform="scale(1 1) rotate(0) translate(4 102)">
<title>/home/travis/build/AliceO2Group/AliceO2/Utilities/hough/runHough.cxx</title>
<!-- Node0 -->
<g id="node1" class="node">
<title>Node0</title>
<polygon fill="#bfbfbf" stroke="#000000" points="655,-56.5 655,-97.5 816,-97.5 816,-56.5 655,-56.5"/>
<text text-anchor="start" x="663" y="-85.5" font-family="Helvetica,sans-Serif" font-size="10.00" fill="#000000">/home/travis/build</text>
<text text-anchor="start" x="663" y="-74.5" font-family="Helvetica,sans-Serif" font-size="10.00" fill="#000000">/AliceO2Group/AliceO2</text>
<text text-anchor="middle" x="735.5" y="-63.5" font-family="Helvetica,sans-Serif" font-size="10.00" fill="#000000">/Utilities/hough/runHough.cxx</text>
</g>
<!-- Node1 -->
<g id="node2" class="node">
<title>Node1</title>
<polygon fill="none" stroke="#bfbfbf" points="0,-.5 0,-19.5 147,-19.5 147,-.5 0,-.5"/>
<text text-anchor="middle" x="73.5" y="-7.5" font-family="Helvetica,sans-Serif" font-size="10.00" fill="#000000">AliHLTTPCTrackGeometry.h</text>
</g>
<!-- Node0&#45;&gt;Node1 -->
<g id="edge1" class="edge">
<title>Node0&#45;&gt;Node1</title>
<path fill="none" stroke="#191970" d="M654.7454,-69.665C544.6571,-59.531 341.0365,-40.3092 157.3648,-20.1877"/>
<polygon fill="#191970" stroke="#191970" points="157.5702,-16.6893 147.2478,-19.0762 156.8057,-23.6474 157.5702,-16.6893"/>
</g>
<!-- Node2 -->
<g id="node3" class="node">
<title>Node2</title>
<polygon fill="none" stroke="#bfbfbf" points="165,-.5 165,-19.5 332,-19.5 332,-.5 165,-.5"/>
<text text-anchor="middle" x="248.5" y="-7.5" font-family="Helvetica,sans-Serif" font-size="10.00" fill="#000000">AliHLTTPCClusterDataFormat.h</text>
</g>
<!-- Node0&#45;&gt;Node2 -->
<g id="edge2" class="edge">
<title>Node0&#45;&gt;Node2</title>
<path fill="none" stroke="#191970" d="M654.8087,-65.8987C564.2299,-53.4372 418.1806,-33.3441 328.0648,-20.9463"/>
<polygon fill="#191970" stroke="#191970" points="328.2851,-17.4437 317.9013,-19.548 327.331,-24.3784 328.2851,-17.4437"/>
</g>
<!-- Node3 -->
<g id="node4" class="node">
<title>Node3</title>
<polygon fill="none" stroke="#bfbfbf" points="350,-.5 350,-19.5 525,-19.5 525,-.5 350,-.5"/>
<text text-anchor="middle" x="437.5" y="-7.5" font-family="Helvetica,sans-Serif" font-size="10.00" fill="#000000">AliHLTTPCSpacePointContainer.h</text>
</g>
<!-- Node0&#45;&gt;Node3 -->
<g id="edge3" class="edge">
<title>Node0&#45;&gt;Node3</title>
<path fill="none" stroke="#191970" d="M654.8569,-58.8688C602.4548,-47.0871 535.651,-32.0675 490.0228,-21.8088"/>
<polygon fill="#191970" stroke="#191970" points="490.5731,-18.3452 480.0489,-19.5664 489.0376,-25.1748 490.5731,-18.3452"/>
</g>
<!-- Node4 -->
<g id="node5" class="node">
<title>Node4</title>
<polygon fill="none" stroke="#bfbfbf" points="543,-.5 543,-19.5 654,-19.5 654,-.5 543,-.5"/>
<text text-anchor="middle" x="598.5" y="-7.5" font-family="Helvetica,sans-Serif" font-size="10.00" fill="#000000">AliHLTComponent.h</text>
</g>
<!-- Node0&#45;&gt;Node4 -->
<g id="edge4" class="edge">
<title>Node0&#45;&gt;Node4</title>
<path fill="none" stroke="#191970" d="M693.2776,-56.3511C671.8897,-45.8913 646.4732,-33.4614 627.3472,-24.1077"/>
<polygon fill="#191970" stroke="#191970" points="628.7625,-20.9038 618.2416,-19.6546 625.6872,-27.1921 628.7625,-20.9038"/>
</g>
<!-- Node5 -->
<g id="node6" class="node">
<title>Node5</title>
<polygon fill="none" stroke="#bfbfbf" points="672,-.5 672,-19.5 799,-19.5 799,-.5 672,-.5"/>
<text text-anchor="middle" x="735.5" y="-7.5" font-family="Helvetica,sans-Serif" font-size="10.00" fill="#000000">AliHLTTPCDefinitions.h</text>
</g>
<!-- Node0&#45;&gt;Node5 -->
<g id="edge5" class="edge">
<title>Node0&#45;&gt;Node5</title>
<path fill="none" stroke="#191970" d="M735.5,-56.168C735.5,-47.8226 735.5,-38.2471 735.5,-29.9879"/>
<polygon fill="#191970" stroke="#191970" points="739.0001,-29.7804 735.5,-19.7805 732.0001,-29.7805 739.0001,-29.7804"/>
</g>
<!-- Node6 -->
<g id="node7" class="node">
<title>Node6</title>
<polygon fill="none" stroke="#bfbfbf" points="817,-.5 817,-19.5 884,-19.5 884,-.5 817,-.5"/>
<text text-anchor="middle" x="850.5" y="-7.5" font-family="Helvetica,sans-Serif" font-size="10.00" fill="#000000">TCanvas.h</text>
</g>
<!-- Node0&#45;&gt;Node6 -->
<g id="edge6" class="edge">
<title>Node0&#45;&gt;Node6</title>
<path fill="none" stroke="#191970" d="M770.9422,-56.3511C788.4856,-46.1301 809.2581,-34.0279 825.1774,-24.7532"/>
<polygon fill="#191970" stroke="#191970" points="827.05,-27.7129 833.9286,-19.6546 823.5262,-21.6645 827.05,-27.7129"/>
</g>
<!-- Node7 -->
<g id="node8" class="node">
<title>Node7</title>
<polygon fill="none" stroke="#bfbfbf" points="902.5,-.5 902.5,-19.5 976.5,-19.5 976.5,-.5 902.5,-.5"/>
<text text-anchor="middle" x="939.5" y="-7.5" font-family="Helvetica,sans-Serif" font-size="10.00" fill="#000000">TGraph2D.h</text>
</g>
<!-- Node0&#45;&gt;Node7 -->
<g id="edge7" class="edge">
<title>Node0&#45;&gt;Node7</title>
<path fill="none" stroke="#191970" d="M798.0931,-56.4425C831.6194,-45.4314 871.8577,-32.2158 900.8235,-22.7026"/>
<polygon fill="#191970" stroke="#191970" points="902.1609,-25.9473 910.5695,-19.5017 899.9766,-19.2968 902.1609,-25.9473"/>
</g>
<!-- Node8 -->
<g id="node9" class="node">
<title>Node8</title>
<polygon fill="none" stroke="#bfbfbf" points="995,-.5 995,-19.5 1114,-19.5 1114,-.5 995,-.5"/>
<text text-anchor="middle" x="1054.5" y="-7.5" font-family="Helvetica,sans-Serif" font-size="10.00" fill="#000000">boost/filesystem.hpp</text>
</g>
<!-- Node0&#45;&gt;Node8 -->
<g id="edge8" class="edge">
<title>Node0&#45;&gt;Node8</title>
<path fill="none" stroke="#191970" d="M816.4096,-60.0065C873.569,-48.0012 948.6807,-32.2254 999.1199,-21.6316"/>
<polygon fill="#191970" stroke="#191970" points="1000.1124,-24.9995 1009.1794,-19.5187 998.6735,-18.149 1000.1124,-24.9995"/>
</g>
<!-- Node9 -->
<g id="node10" class="node">
<title>Node9</title>
<polygon fill="none" stroke="#bfbfbf" points="1132.5,-.5 1132.5,-19.5 1188.5,-19.5 1188.5,-.5 1132.5,-.5"/>
<text text-anchor="middle" x="1160.5" y="-7.5" font-family="Helvetica,sans-Serif" font-size="10.00" fill="#000000">sstream</text>
</g>
<!-- Node0&#45;&gt;Node9 -->
<g id="edge9" class="edge">
<title>Node0&#45;&gt;Node9</title>
<path fill="none" stroke="#191970" d="M816.2422,-67.9594C892.7562,-58.7494 1011.0021,-42.8548 1122.2487,-20.0713"/>
<polygon fill="#191970" stroke="#191970" points="1123.2184,-23.4449 1132.3009,-17.9896 1121.7989,-16.5903 1123.2184,-23.4449"/>
</g>
</g>
</svg>
