<?xml version="1.0" encoding="UTF-8" standalone="no"?>
<!DOCTYPE svg PUBLIC "-//W3C//DTD SVG 1.1//EN"
 "http://www.w3.org/Graphics/SVG/1.1/DTD/svg11.dtd">
<!-- Generated by graphviz version 2.40.1 (20161225.0304)
 -->
<!-- Title: o2::tof::compressed::CrateTrailer_t Pages: 1 -->
<svg width="180pt" height="226pt"
 viewBox="0.00 0.00 179.50 226.00" xmlns="http://www.w3.org/2000/svg" xmlns:xlink="http://www.w3.org/1999/xlink">
<g id="graph0" class="graph" transform="scale(1 1) rotate(0) translate(4 222)">
<title>o2::tof::compressed::CrateTrailer_t</title>
<!-- Node1 -->
<g id="node1" class="node">
<title>Node1</title>
<polygon fill="#bfbfbf" stroke="#000000" points="0,-.5 0,-68.5 113,-68.5 113,-.5 0,-.5"/>
<text text-anchor="start" x="8" y="-56.5" font-family="Helvetica,sans-Serif" font-size="10.00" fill="#000000">o2::tof::compressed</text>
<text text-anchor="middle" x="56.5" y="-45.5" font-family="Helvetica,sans-Serif" font-size="10.00" fill="#000000">::CrateTrailer_t</text>
<polyline fill="none" stroke="#000000" points="0,-38.5 113,-38.5 "/>
<text text-anchor="middle" x="56.5" y="-26.5" font-family="Helvetica,sans-Serif" font-size="10.00" fill="#000000"> </text>
<polyline fill="none" stroke="#000000" points="0,-19.5 113,-19.5 "/>
<text text-anchor="middle" x="56.5" y="-7.5" font-family="Helvetica,sans-Serif" font-size="10.00" fill="#000000"> </text>
</g>
<!-- Node2 -->
<g id="node2" class="node">
<title>Node2</title>
<g id="a_node2"><a xlink:href="../../d3/d87/classuint32__t.html" target="_top" xlink:title="{uint32_t\n||}">
<polygon fill="none" stroke="#000000" points="28.5,-160.5 28.5,-217.5 84.5,-217.5 84.5,-160.5 28.5,-160.5"/>
<text text-anchor="middle" x="56.5" y="-205.5" font-family="Helvetica,sans-Serif" font-size="10.00" fill="#000000">uint32_t</text>
<polyline fill="none" stroke="#000000" points="28.5,-198.5 84.5,-198.5 "/>
<text text-anchor="middle" x="56.5" y="-186.5" font-family="Helvetica,sans-Serif" font-size="10.00" fill="#000000"> </text>
<polyline fill="none" stroke="#000000" points="28.5,-179.5 84.5,-179.5 "/>
<text text-anchor="middle" x="56.5" y="-167.5" font-family="Helvetica,sans-Serif" font-size="10.00" fill="#000000"> </text>
</a>
</g>
</g>
<!-- Node2&#45;&gt;Node1 -->
<g id="edge1" class="edge">
<title>Node2&#45;&gt;Node1</title>
<path fill="none" stroke="#404040" d="M56.5,-160.3018C56.5,-138.0285 56.5,-106.6993 56.5,-80.878"/>
<polygon fill="none" stroke="#404040" points="56.5001,-80.7084 52.5,-74.7085 56.5,-68.7084 60.5,-74.7084 56.5001,-80.7084"/>
<text text-anchor="middle" x="114" y="-134" font-family="Helvetica,sans-Serif" font-size="10.00" fill="#000000"> +mustBeOne</text>
<text text-anchor="middle" x="114" y="-123" font-family="Helvetica,sans-Serif" font-size="10.00" fill="#000000">+numberOfDiagnostics</text>
<text text-anchor="middle" x="114" y="-112" font-family="Helvetica,sans-Serif" font-size="10.00" fill="#000000">+eventCounter</text>
<text text-anchor="middle" x="114" y="-101" font-family="Helvetica,sans-Serif" font-size="10.00" fill="#000000">+undefined</text>
<text text-anchor="middle" x="114" y="-90" font-family="Helvetica,sans-Serif" font-size="10.00" fill="#000000">+numberOfErrors</text>
</g>
</g>
</svg>
