<?xml version="1.0" encoding="UTF-8" standalone="no"?>
<!DOCTYPE svg PUBLIC "-//W3C//DTD SVG 1.1//EN"
 "http://www.w3.org/Graphics/SVG/1.1/DTD/svg11.dtd">
<!-- Generated by graphviz version 2.40.1 (20161225.0304)
 -->
<!-- Title: /home/travis/build/AliceO2Group/AliceO2/Detectors/EMCAL/base/include/EMCALBase/ShishKebabTrd1Module.h Pages: 1 -->
<svg width="480pt" height="128pt"
 viewBox="0.00 0.00 479.50 128.00" xmlns="http://www.w3.org/2000/svg" xmlns:xlink="http://www.w3.org/1999/xlink">
<g id="graph0" class="graph" transform="scale(1 1) rotate(0) translate(4 124)">
<title>/home/travis/build/AliceO2Group/AliceO2/Detectors/EMCAL/base/include/EMCALBase/ShishKebabTrd1Module.h</title>
<!-- Node0 -->
<g id="node1" class="node">
<title>Node0</title>
<polygon fill="#bfbfbf" stroke="#000000" points="121,-56.5 121,-119.5 315,-119.5 315,-56.5 121,-56.5"/>
<text text-anchor="start" x="129" y="-107.5" font-family="Helvetica,sans-Serif" font-size="10.00" fill="#000000">/home/travis/build</text>
<text text-anchor="start" x="129" y="-96.5" font-family="Helvetica,sans-Serif" font-size="10.00" fill="#000000">/AliceO2Group/AliceO2</text>
<text text-anchor="start" x="129" y="-85.5" font-family="Helvetica,sans-Serif" font-size="10.00" fill="#000000">/Detectors/EMCAL/base</text>
<text text-anchor="start" x="129" y="-74.5" font-family="Helvetica,sans-Serif" font-size="10.00" fill="#000000">/include/EMCALBase/ShishKebabTrd1</text>
<text text-anchor="middle" x="218" y="-63.5" font-family="Helvetica,sans-Serif" font-size="10.00" fill="#000000">Module.h</text>
</g>
<!-- Node1 -->
<g id="node2" class="node">
<title>Node1</title>
<polygon fill="none" stroke="#bfbfbf" points="0,-.5 0,-19.5 56,-19.5 56,-.5 0,-.5"/>
<text text-anchor="middle" x="28" y="-7.5" font-family="Helvetica,sans-Serif" font-size="10.00" fill="#000000">iomanip</text>
</g>
<!-- Node0&#45;&gt;Node1 -->
<g id="edge1" class="edge">
<title>Node0&#45;&gt;Node1</title>
<path fill="none" stroke="#191970" d="M141.2674,-56.4992C113.0966,-44.9344 82.6988,-32.4553 60.4932,-23.3393"/>
<polygon fill="#191970" stroke="#191970" points="61.7872,-20.0871 51.2071,-19.5271 59.1287,-26.5627 61.7872,-20.0871"/>
</g>
<!-- Node2 -->
<g id="node3" class="node">
<title>Node2</title>
<polygon fill="none" stroke="#bfbfbf" points="74,-.5 74,-19.5 132,-19.5 132,-.5 74,-.5"/>
<text text-anchor="middle" x="103" y="-7.5" font-family="Helvetica,sans-Serif" font-size="10.00" fill="#000000">memory</text>
</g>
<!-- Node0&#45;&gt;Node2 -->
<g id="edge2" class="edge">
<title>Node0&#45;&gt;Node2</title>
<path fill="none" stroke="#191970" d="M171.5566,-56.4992C155.6528,-45.7123 138.5762,-34.13 125.4445,-25.2232"/>
<polygon fill="#191970" stroke="#191970" points="127.287,-22.2438 117.0464,-19.5271 123.3577,-28.037 127.287,-22.2438"/>
</g>
<!-- Node3 -->
<g id="node4" class="node">
<title>Node3</title>
<polygon fill="none" stroke="#bfbfbf" points="150,-.5 150,-19.5 206,-19.5 206,-.5 150,-.5"/>
<text text-anchor="middle" x="178" y="-7.5" font-family="Helvetica,sans-Serif" font-size="10.00" fill="#000000">TMath.h</text>
</g>
<!-- Node0&#45;&gt;Node3 -->
<g id="edge3" class="edge">
<title>Node0&#45;&gt;Node3</title>
<path fill="none" stroke="#191970" d="M201.7305,-56.2744C196.9328,-46.919 191.8382,-36.9845 187.6044,-28.7287"/>
<polygon fill="#191970" stroke="#191970" points="190.6225,-26.9436 182.9449,-19.6426 184.3938,-30.1379 190.6225,-26.9436"/>
</g>
<!-- Node4 -->
<g id="node5" class="node">
<title>Node4</title>
<polygon fill="none" stroke="#bfbfbf" points="224.5,-.5 224.5,-19.5 291.5,-19.5 291.5,-.5 224.5,-.5"/>
<text text-anchor="middle" x="258" y="-7.5" font-family="Helvetica,sans-Serif" font-size="10.00" fill="#000000">TNamed.h</text>
</g>
<!-- Node0&#45;&gt;Node4 -->
<g id="edge4" class="edge">
<title>Node0&#45;&gt;Node4</title>
<path fill="none" stroke="#191970" d="M234.2695,-56.2744C239.0672,-46.919 244.1618,-36.9845 248.3956,-28.7287"/>
<polygon fill="#191970" stroke="#191970" points="251.6062,-30.1379 253.0551,-19.6426 245.3775,-26.9436 251.6062,-30.1379"/>
</g>
<!-- Node5 -->
<g id="node6" class="node">
<title>Node5</title>
<polygon fill="none" stroke="#bfbfbf" points="310,-.5 310,-19.5 378,-19.5 378,-.5 310,-.5"/>
<text text-anchor="middle" x="344" y="-7.5" font-family="Helvetica,sans-Serif" font-size="10.00" fill="#000000">TVector2.h</text>
</g>
<!-- Node0&#45;&gt;Node5 -->
<g id="edge5" class="edge">
<title>Node0&#45;&gt;Node5</title>
<path fill="none" stroke="#191970" d="M268.8858,-56.4992C286.4784,-45.6086 305.3808,-33.9071 319.8225,-24.967"/>
<polygon fill="#191970" stroke="#191970" points="321.9496,-27.7667 328.61,-19.5271 318.2651,-21.8148 321.9496,-27.7667"/>
</g>
<!-- Node6 -->
<g id="node7" class="node">
<title>Node6</title>
<polygon fill="none" stroke="#bfbfbf" points="396.5,-.5 396.5,-19.5 471.5,-19.5 471.5,-.5 396.5,-.5"/>
<text text-anchor="middle" x="434" y="-7.5" font-family="Helvetica,sans-Serif" font-size="10.00" fill="#000000">FairLogger.h</text>
</g>
<!-- Node0&#45;&gt;Node6 -->
<g id="edge6" class="edge">
<title>Node0&#45;&gt;Node6</title>
<path fill="none" stroke="#191970" d="M305.2329,-56.4992C337.6894,-44.7788 372.7464,-32.1194 398.0741,-22.9733"/>
<polygon fill="#191970" stroke="#191970" points="399.4004,-26.2156 407.6172,-19.5271 397.0228,-19.6317 399.4004,-26.2156"/>
</g>
</g>
</svg>
