<?xml version="1.0" encoding="UTF-8" standalone="no"?>
<!DOCTYPE svg PUBLIC "-//W3C//DTD SVG 1.1//EN"
 "http://www.w3.org/Graphics/SVG/1.1/DTD/svg11.dtd">
<!-- Generated by graphviz version 2.40.1 (20161225.0304)
 -->
<!-- Title: o2::tpc::CompressedClustersOffsets Pages: 1 -->
<!--zoomable 767 -->
<svg id="main" version="1.1" xmlns="http://www.w3.org/2000/svg" xmlns:xlink="http://www.w3.org/1999/xlink" xml:space="preserve" onload="init(evt)">
<style type="text/css"><![CDATA[
.edge:hover path { stroke: red; }
.edge:hover polygon { stroke: red; fill: red; }
]]></style>
<script type="text/javascript"><![CDATA[
var edges = document.getElementsByTagName('g');
if (edges && edges.length) {
  for (var i=0;i<edges.length;i++) {
    if (edges[i].id.substr(0,4)=='edge') {
      edges[i].setAttribute('class','edge');
    }
  }
}
]]></script>
        <defs>
                <circle id="rim" cx="0" cy="0" r="7"/>
                <circle id="rim2" cx="0" cy="0" r="3.5"/>
                <g id="zoomPlus">
                        <use xlink:href="#rim" fill="#404040">
                                <set attributeName="fill" to="#808080" begin="zoomplus.mouseover" end="zoomplus.mouseout"/>
                        </use>
                        <path d="M-4,0h8M0,-4v8" fill="none" stroke="white" stroke-width="1.5" pointer-events="none"/>
                </g>
                <g id="zoomMin">
                        <use xlink:href="#rim" fill="#404040">
                                <set attributeName="fill" to="#808080" begin="zoomminus.mouseover" end="zoomminus.mouseout"/>
                        </use>
                        <path d="M-4,0h8" fill="none" stroke="white" stroke-width="1.5" pointer-events="none"/>
                </g>
                <g id="dirArrow">
                        <path fill="none" stroke="white" stroke-width="1.5" d="M0,-3.0v7 M-2.5,-0.5L0,-3.0L2.5,-0.5"/>
                </g>
               <g id="resetDef">
                       <use xlink:href="#rim2" fill="#404040">
                               <set attributeName="fill" to="#808080" begin="reset.mouseover" end="reset.mouseout"/>
                       </use>
               </g>
        </defs>

<script type="text/javascript">
var viewWidth = 369;
var viewHeight = 767;
var sectionId = 'dynsection-1';
</script>
<script xlink:href="../../svgpan.js"/>
<svg id="graph" class="graph">
<g id="viewport">
<title>o2::tpc::CompressedClustersOffsets</title>
<!-- Node4 -->
<g id="node1" class="node">
<title>Node4</title>
<polygon fill="#bfbfbf" stroke="#000000" points="0,-.5 0,-68.5 156,-68.5 156,-.5 0,-.5"/>
<text text-anchor="start" x="8" y="-56.5" font-family="Helvetica,sans-Serif" font-size="10.00" fill="#000000">o2::tpc::CompressedClusters</text>
<text text-anchor="middle" x="78" y="-45.5" font-family="Helvetica,sans-Serif" font-size="10.00" fill="#000000">Offsets</text>
<polyline fill="none" stroke="#000000" points="0,-38.5 156,-38.5 "/>
<text text-anchor="middle" x="78" y="-26.5" font-family="Helvetica,sans-Serif" font-size="10.00" fill="#000000"> </text>
<polyline fill="none" stroke="#000000" points="0,-19.5 156,-19.5 "/>
<text text-anchor="middle" x="78" y="-7.5" font-family="Helvetica,sans-Serif" font-size="10.00" fill="#000000"> </text>
</g>
<!-- Node5 -->
<g id="node2" class="node">
<title>Node5</title>
<g id="a_node2"><a xlink:href="../../d7/dea/structo2_1_1tpc_1_1CompressedClustersPtrs__x.html" target="_top" xlink:title="{o2::tpc::CompressedClusters\lPtrs_x\&lt; size_t, size_t,\l size_t \&gt;\n|+ qTotA\l+ flagsA\l+ padResA\l+ timeResA\l+ qPtA\l+ sliceA\l+ padA\l+ qTotU\l+ flagsU\l+ timeDiffU\l+ sigmaPadU\l+ sigmaTimeU\l+ nSliceRowClusters\l|+ ClassDefNV()\l}">
<polygon fill="none" stroke="#000000" points="0,-106.5 0,-317.5 156,-317.5 156,-106.5 0,-106.5"/>
<text text-anchor="start" x="8" y="-305.5" font-family="Helvetica,sans-Serif" font-size="10.00" fill="#000000">o2::tpc::CompressedClusters</text>
<text text-anchor="start" x="8" y="-294.5" font-family="Helvetica,sans-Serif" font-size="10.00" fill="#000000">Ptrs_x&lt; size_t, size_t,</text>
<text text-anchor="middle" x="78" y="-283.5" font-family="Helvetica,sans-Serif" font-size="10.00" fill="#000000"> size_t &gt;</text>
<polyline fill="none" stroke="#000000" points="0,-276.5 156,-276.5 "/>
<text text-anchor="start" x="8" y="-264.5" font-family="Helvetica,sans-Serif" font-size="10.00" fill="#000000">+ qTotA</text>
<text text-anchor="start" x="8" y="-253.5" font-family="Helvetica,sans-Serif" font-size="10.00" fill="#000000">+ flagsA</text>
<text text-anchor="start" x="8" y="-242.5" font-family="Helvetica,sans-Serif" font-size="10.00" fill="#000000">+ padResA</text>
<text text-anchor="start" x="8" y="-231.5" font-family="Helvetica,sans-Serif" font-size="10.00" fill="#000000">+ timeResA</text>
<text text-anchor="start" x="8" y="-220.5" font-family="Helvetica,sans-Serif" font-size="10.00" fill="#000000">+ qPtA</text>
<text text-anchor="start" x="8" y="-209.5" font-family="Helvetica,sans-Serif" font-size="10.00" fill="#000000">+ sliceA</text>
<text text-anchor="start" x="8" y="-198.5" font-family="Helvetica,sans-Serif" font-size="10.00" fill="#000000">+ padA</text>
<text text-anchor="start" x="8" y="-187.5" font-family="Helvetica,sans-Serif" font-size="10.00" fill="#000000">+ qTotU</text>
<text text-anchor="start" x="8" y="-176.5" font-family="Helvetica,sans-Serif" font-size="10.00" fill="#000000">+ flagsU</text>
<text text-anchor="start" x="8" y="-165.5" font-family="Helvetica,sans-Serif" font-size="10.00" fill="#000000">+ timeDiffU</text>
<text text-anchor="start" x="8" y="-154.5" font-family="Helvetica,sans-Serif" font-size="10.00" fill="#000000">+ sigmaPadU</text>
<text text-anchor="start" x="8" y="-143.5" font-family="Helvetica,sans-Serif" font-size="10.00" fill="#000000">+ sigmaTimeU</text>
<text text-anchor="start" x="8" y="-132.5" font-family="Helvetica,sans-Serif" font-size="10.00" fill="#000000">+ nSliceRowClusters</text>
<polyline fill="none" stroke="#000000" points="0,-125.5 156,-125.5 "/>
<text text-anchor="start" x="8" y="-113.5" font-family="Helvetica,sans-Serif" font-size="10.00" fill="#000000">+ ClassDefNV()</text>
</a>
</g>
</g>
<!-- Node5&#45;&gt;Node4 -->
<g id="edge1" class="edge">
<title>Node5&#45;&gt;Node4</title>
<path fill="none" stroke="#191970" d="M78,-96.4006C78,-86.5041 78,-77.0994 78,-68.746"/>
<polygon fill="none" stroke="#191970" points="74.5001,-96.4401 78,-106.4402 81.5001,-96.4402 74.5001,-96.4401"/>
</g>
<!-- Node6 -->
<g id="node3" class="node">
<title>Node6</title>
<polygon fill="none" stroke="#bfbfbf" points="4.5,-481 4.5,-538 49.5,-538 49.5,-481 4.5,-481"/>
<text text-anchor="middle" x="27" y="-526" font-family="Helvetica,sans-Serif" font-size="10.00" fill="#000000">size_t</text>
<polyline fill="none" stroke="#bfbfbf" points="4.5,-519 49.5,-519 "/>
<text text-anchor="middle" x="27" y="-507" font-family="Helvetica,sans-Serif" font-size="10.00" fill="#000000"> </text>
<polyline fill="none" stroke="#bfbfbf" points="4.5,-500 49.5,-500 "/>
<text text-anchor="middle" x="27" y="-488" font-family="Helvetica,sans-Serif" font-size="10.00" fill="#000000"> </text>
</g>
<!-- Node6&#45;&gt;Node5 -->
<g id="edge2" class="edge">
<title>Node6&#45;&gt;Node5</title>
<path fill="none" stroke="#404040" d="M27.4836,-480.7046C28.4869,-446.0831 31.5655,-386.3456 41,-336 41.4089,-333.8177 41.8415,-331.6192 42.2951,-329.4088"/>
<polygon fill="none" stroke="#404040" points="42.336,-329.2222 39.7155,-322.5041 44.9089,-317.5013 47.5294,-324.2194 42.336,-329.2222"/>
<text text-anchor="middle" x="81" y="-449" font-family="Helvetica,sans-Serif" font-size="10.00" fill="#000000"> +qMaxA</text>
<text text-anchor="middle" x="81" y="-438" font-family="Helvetica,sans-Serif" font-size="10.00" fill="#000000">+nTrackClusters</text>
<text text-anchor="middle" x="81" y="-427" font-family="Helvetica,sans-Serif" font-size="10.00" fill="#000000">+padDiffU</text>
<text text-anchor="middle" x="81" y="-416" font-family="Helvetica,sans-Serif" font-size="10.00" fill="#000000">+rowA</text>
<text text-anchor="middle" x="81" y="-405" font-family="Helvetica,sans-Serif" font-size="10.00" fill="#000000">+sigmaPadA</text>
<text text-anchor="middle" x="81" y="-394" font-family="Helvetica,sans-Serif" font-size="10.00" fill="#000000">+qMaxU</text>
<text text-anchor="middle" x="81" y="-383" font-family="Helvetica,sans-Serif" font-size="10.00" fill="#000000">+sigmaTimeA</text>
<text text-anchor="middle" x="81" y="-372" font-family="Helvetica,sans-Serif" font-size="10.00" fill="#000000">+rowDiffA</text>
<text text-anchor="middle" x="81" y="-361" font-family="Helvetica,sans-Serif" font-size="10.00" fill="#000000">+sliceLegDiffA</text>
<text text-anchor="middle" x="81" y="-350" font-family="Helvetica,sans-Serif" font-size="10.00" fill="#000000">+timeA</text>
<text text-anchor="middle" x="81" y="-339" font-family="Helvetica,sans-Serif" font-size="10.00" fill="#000000">...</text>
</g>
<!-- Node7 -->
<g id="node4" class="node">
<title>Node7</title>
<g id="a_node4"><a xlink:href="../../d7/dea/structo2_1_1tpc_1_1CompressedClustersPtrs__x.html" target="_top" xlink:title="{o2::tpc::CompressedClusters\lPtrs_x\&lt; TCHAR, TSHORT, TINT \&gt;\n|+ sliceA\l|+ ClassDefNV()\l}">
<polygon fill="none" stroke="#000000" points="68,-475.5 68,-543.5 244,-543.5 244,-475.5 68,-475.5"/>
<text text-anchor="start" x="76" y="-531.5" font-family="Helvetica,sans-Serif" font-size="10.00" fill="#000000">o2::tpc::CompressedClusters</text>
<text text-anchor="middle" x="156" y="-520.5" font-family="Helvetica,sans-Serif" font-size="10.00" fill="#000000">Ptrs_x&lt; TCHAR, TSHORT, TINT &gt;</text>
<polyline fill="none" stroke="#000000" points="68,-513.5 244,-513.5 "/>
<text text-anchor="start" x="76" y="-501.5" font-family="Helvetica,sans-Serif" font-size="10.00" fill="#000000">+ sliceA</text>
<polyline fill="none" stroke="#000000" points="68,-494.5 244,-494.5 "/>
<text text-anchor="start" x="76" y="-482.5" font-family="Helvetica,sans-Serif" font-size="10.00" fill="#000000">+ ClassDefNV()</text>
</a>
</g>
</g>
<!-- Node7&#45;&gt;Node5 -->
<g id="edge3" class="edge">
<title>Node7&#45;&gt;Node5</title>
<path fill="none" stroke="#ffa500" d="M148.7774,-465.2883C142.6061,-429.9953 132.8552,-379.4391 121,-336 119.3502,-329.9551 117.5587,-323.778 115.675,-317.5669"/>
<polygon fill="#ffa500" stroke="#ffa500" points="145.3505,-466.0123 150.4989,-475.2721 152.2487,-464.8228 145.3505,-466.0123"/>
<text text-anchor="middle" x="208" y="-394" font-family="Helvetica,sans-Serif" font-size="10.00" fill="#000000"> &lt; size_t, size_t, size_t &gt;</text>
</g>
<!-- Node8 -->
<g id="node5" class="node">
<title>Node8</title>
<polygon fill="none" stroke="#bfbfbf" points="35,-701.5 35,-758.5 85,-758.5 85,-701.5 35,-701.5"/>
<text text-anchor="middle" x="60" y="-746.5" font-family="Helvetica,sans-Serif" font-size="10.00" fill="#000000">TCHAR</text>
<polyline fill="none" stroke="#bfbfbf" points="35,-739.5 85,-739.5 "/>
<text text-anchor="middle" x="60" y="-727.5" font-family="Helvetica,sans-Serif" font-size="10.00" fill="#000000"> </text>
<polyline fill="none" stroke="#bfbfbf" points="35,-720.5 85,-720.5 "/>
<text text-anchor="middle" x="60" y="-708.5" font-family="Helvetica,sans-Serif" font-size="10.00" fill="#000000"> </text>
</g>
<!-- Node8&#45;&gt;Node7 -->
<g id="edge4" class="edge">
<title>Node8&#45;&gt;Node7</title>
<path fill="none" stroke="#404040" d="M56.349,-701.2632C53.316,-665.8583 53.0108,-605.112 79,-562 81.0465,-558.6051 83.4066,-555.3792 86.0014,-552.321"/>
<polygon fill="none" stroke="#404040" points="86.0577,-552.263 87.363,-545.171 94.4115,-543.6482 93.1062,-550.7402 86.0577,-552.263"/>
<text text-anchor="middle" x="115.5" y="-675" font-family="Helvetica,sans-Serif" font-size="10.00" fill="#000000"> +rowA</text>
<text text-anchor="middle" x="115.5" y="-664" font-family="Helvetica,sans-Serif" font-size="10.00" fill="#000000">+sigmaPadA</text>
<text text-anchor="middle" x="115.5" y="-653" font-family="Helvetica,sans-Serif" font-size="10.00" fill="#000000">+sigmaTimeA</text>
<text text-anchor="middle" x="115.5" y="-642" font-family="Helvetica,sans-Serif" font-size="10.00" fill="#000000">+rowDiffA</text>
<text text-anchor="middle" x="115.5" y="-631" font-family="Helvetica,sans-Serif" font-size="10.00" fill="#000000">+sliceLegDiffA</text>
<text text-anchor="middle" x="115.5" y="-620" font-family="Helvetica,sans-Serif" font-size="10.00" fill="#000000">+sigmaPadU</text>
<text text-anchor="middle" x="115.5" y="-609" font-family="Helvetica,sans-Serif" font-size="10.00" fill="#000000">+flagsU</text>
<text text-anchor="middle" x="115.5" y="-598" font-family="Helvetica,sans-Serif" font-size="10.00" fill="#000000">+qPtA</text>
<text text-anchor="middle" x="115.5" y="-587" font-family="Helvetica,sans-Serif" font-size="10.00" fill="#000000">+flagsA</text>
<text text-anchor="middle" x="115.5" y="-576" font-family="Helvetica,sans-Serif" font-size="10.00" fill="#000000">+sigmaTimeU</text>
<text text-anchor="middle" x="115.5" y="-565" font-family="Helvetica,sans-Serif" font-size="10.00" fill="#000000">...</text>
</g>
<!-- Node9 -->
<g id="node6" class="node">
<title>Node9</title>
<polygon fill="none" stroke="#bfbfbf" points="128,-701.5 128,-758.5 184,-758.5 184,-701.5 128,-701.5"/>
<text text-anchor="middle" x="156" y="-746.5" font-family="Helvetica,sans-Serif" font-size="10.00" fill="#000000">TSHORT</text>
<polyline fill="none" stroke="#bfbfbf" points="128,-739.5 184,-739.5 "/>
<text text-anchor="middle" x="156" y="-727.5" font-family="Helvetica,sans-Serif" font-size="10.00" fill="#000000"> </text>
<polyline fill="none" stroke="#bfbfbf" points="128,-720.5 184,-720.5 "/>
<text text-anchor="middle" x="156" y="-708.5" font-family="Helvetica,sans-Serif" font-size="10.00" fill="#000000"> </text>
</g>
<!-- Node9&#45;&gt;Node7 -->
<g id="edge5" class="edge">
<title>Node9&#45;&gt;Node7</title>
<path fill="none" stroke="#404040" d="M156,-701.1735C156,-664.2261 156,-599.7136 156,-555.8345"/>
<polygon fill="none" stroke="#404040" points="156.0001,-555.7678 152,-549.7679 156,-543.7678 160,-549.7678 156.0001,-555.7678"/>
<text text-anchor="middle" x="196" y="-658.5" font-family="Helvetica,sans-Serif" font-size="10.00" fill="#000000"> +qMaxA</text>
<text text-anchor="middle" x="196" y="-647.5" font-family="Helvetica,sans-Serif" font-size="10.00" fill="#000000">+nTrackClusters</text>
<text text-anchor="middle" x="196" y="-636.5" font-family="Helvetica,sans-Serif" font-size="10.00" fill="#000000">+padDiffU</text>
<text text-anchor="middle" x="196" y="-625.5" font-family="Helvetica,sans-Serif" font-size="10.00" fill="#000000">+qMaxU</text>
<text text-anchor="middle" x="196" y="-614.5" font-family="Helvetica,sans-Serif" font-size="10.00" fill="#000000">+padA</text>
<text text-anchor="middle" x="196" y="-603.5" font-family="Helvetica,sans-Serif" font-size="10.00" fill="#000000">+padResA</text>
<text text-anchor="middle" x="196" y="-592.5" font-family="Helvetica,sans-Serif" font-size="10.00" fill="#000000">+qTotA</text>
<text text-anchor="middle" x="196" y="-581.5" font-family="Helvetica,sans-Serif" font-size="10.00" fill="#000000">+qTotU</text>
</g>
<!-- Node10 -->
<g id="node7" class="node">
<title>Node10</title>
<polygon fill="none" stroke="#bfbfbf" points="239.5,-701.5 239.5,-758.5 278.5,-758.5 278.5,-701.5 239.5,-701.5"/>
<text text-anchor="middle" x="259" y="-746.5" font-family="Helvetica,sans-Serif" font-size="10.00" fill="#000000">TINT</text>
<polyline fill="none" stroke="#bfbfbf" points="239.5,-739.5 278.5,-739.5 "/>
<text text-anchor="middle" x="259" y="-727.5" font-family="Helvetica,sans-Serif" font-size="10.00" fill="#000000"> </text>
<polyline fill="none" stroke="#bfbfbf" points="239.5,-720.5 278.5,-720.5 "/>
<text text-anchor="middle" x="259" y="-708.5" font-family="Helvetica,sans-Serif" font-size="10.00" fill="#000000"> </text>
</g>
<!-- Node10&#45;&gt;Node7 -->
<g id="edge6" class="edge">
<title>Node10&#45;&gt;Node7</title>
<path fill="none" stroke="#404040" d="M262.1702,-701.4266C264.6515,-665.9168 264.0025,-604.7869 237,-562 234.8535,-558.5988 232.3976,-555.3738 229.7091,-552.3221"/>
<polygon fill="none" stroke="#404040" points="229.5312,-552.1451 222.4563,-550.7502 221.0228,-543.683 228.0977,-545.0779 229.5312,-552.1451"/>
<text text-anchor="middle" x="312" y="-636.5" font-family="Helvetica,sans-Serif" font-size="10.00" fill="#000000"> +timeA</text>
<text text-anchor="middle" x="312" y="-625.5" font-family="Helvetica,sans-Serif" font-size="10.00" fill="#000000">+timeDiffU</text>
<text text-anchor="middle" x="312" y="-614.5" font-family="Helvetica,sans-Serif" font-size="10.00" fill="#000000">+nSliceRowClusters</text>
<text text-anchor="middle" x="312" y="-603.5" font-family="Helvetica,sans-Serif" font-size="10.00" fill="#000000">+timeResA</text>
</g>
</g>
</svg>
        <g id="navigator" transform="translate(0 0)" fill="#404254">
                <rect fill="#f2f5e9" fill-opacity="0.5" stroke="#606060" stroke-width=".5" x="0" y="0" width="60" height="60"/>
                <use id="zoomplus" xlink:href="#zoomPlus" x="17" y="9" onmousedown="handleZoom(evt,'in')"/>
                <use id="zoomminus" xlink:href="#zoomMin" x="42" y="9" onmousedown="handleZoom(evt,'out')"/>
                <use id="reset" xlink:href="#resetDef" x="30" y="36" onmousedown="handleReset()"/>
                <g id="arrowUp" xlink:href="#dirArrow" transform="translate(30 24)" onmousedown="handlePan(0,-1)">
                  <use xlink:href="#rim" fill="#404040">
                        <set attributeName="fill" to="#808080" begin="arrowUp.mouseover" end="arrowUp.mouseout"/>
                  </use>
                  <path fill="none" stroke="white" stroke-width="1.5" d="M0,-3.0v7 M-2.5,-0.5L0,-3.0L2.5,-0.5"/>
                </g>
                <g id="arrowRight" xlink:href="#dirArrow" transform="rotate(90) translate(36 -43)" onmousedown="handlePan(1,0)">
                  <use xlink:href="#rim" fill="#404040">
                        <set attributeName="fill" to="#808080" begin="arrowRight.mouseover" end="arrowRight.mouseout"/>
                  </use>
                  <path fill="none" stroke="white" stroke-width="1.5" d="M0,-3.0v7 M-2.5,-0.5L0,-3.0L2.5,-0.5"/>
                </g>
                <g id="arrowDown" xlink:href="#dirArrow" transform="rotate(180) translate(-30 -48)" onmousedown="handlePan(0,1)">
                  <use xlink:href="#rim" fill="#404040">
                        <set attributeName="fill" to="#808080" begin="arrowDown.mouseover" end="arrowDown.mouseout"/>
                  </use>
                  <path fill="none" stroke="white" stroke-width="1.5" d="M0,-3.0v7 M-2.5,-0.5L0,-3.0L2.5,-0.5"/>
                </g>
                <g id="arrowLeft" xlink:href="#dirArrow" transform="rotate(270) translate(-36 17)" onmousedown="handlePan(-1,0)">
                  <use xlink:href="#rim" fill="#404040">
                        <set attributeName="fill" to="#808080" begin="arrowLeft.mouseover" end="arrowLeft.mouseout"/>
                  </use>
                  <path fill="none" stroke="white" stroke-width="1.5" d="M0,-3.0v7 M-2.5,-0.5L0,-3.0L2.5,-0.5"/>
                </g>
        </g>
        <svg viewBox="0 0 15 15" width="100%" height="30px" preserveAspectRatio="xMaxYMin meet">
         <g id="arrow_out" transform="scale(0.3 0.3)">
          <a xlink:href="structo2_1_1tpc_1_1CompressedClustersOffsets__coll__graph_org.svg" target="_base">
           <rect id="button" ry="5" rx="5" y="6" x="6" height="38" width="38"
                fill="#f2f5e9" fill-opacity="0.5" stroke="#606060" stroke-width="1.0"/>
           <path id="arrow"
             d="M 11.500037,31.436501 C 11.940474,20.09759 22.043105,11.32322 32.158766,21.979434 L 37.068811,17.246167 C 37.068811,17.246167 37.088388,32 37.088388,32 L 22.160133,31.978069 C 22.160133,31.978069 26.997745,27.140456 26.997745,27.140456 C 18.528582,18.264221 13.291696,25.230495 11.500037,31.436501 z"
             style="fill:#404040;"/>
          </a>
         </g>
        </svg>
</svg>
