<?xml version="1.0" encoding="UTF-8" standalone="no"?>
<!DOCTYPE svg PUBLIC "-//W3C//DTD SVG 1.1//EN"
 "http://www.w3.org/Graphics/SVG/1.1/DTD/svg11.dtd">
<!-- Generated by graphviz version 2.40.1 (20161225.0304)
 -->
<!-- Title: o2::data_flow::FakeTimeframeSpec Pages: 1 -->
<svg width="294pt" height="193pt"
 viewBox="0.00 0.00 293.50 193.00" xmlns="http://www.w3.org/2000/svg" xmlns:xlink="http://www.w3.org/1999/xlink">
<g id="graph0" class="graph" transform="scale(1 1) rotate(0) translate(4 189)">
<title>o2::data_flow::FakeTimeframeSpec</title>
<!-- Node1 -->
<g id="node1" class="node">
<title>Node1</title>
<polygon fill="#bfbfbf" stroke="#000000" points="26,-.5 26,-57.5 213,-57.5 213,-.5 26,-.5"/>
<text text-anchor="middle" x="119.5" y="-45.5" font-family="Helvetica,sans-Serif" font-size="10.00" fill="#000000">o2::data_flow::FakeTimeframeSpec</text>
<polyline fill="none" stroke="#000000" points="26,-38.5 213,-38.5 "/>
<text text-anchor="middle" x="119.5" y="-26.5" font-family="Helvetica,sans-Serif" font-size="10.00" fill="#000000"> </text>
<polyline fill="none" stroke="#000000" points="26,-19.5 213,-19.5 "/>
<text text-anchor="middle" x="119.5" y="-7.5" font-family="Helvetica,sans-Serif" font-size="10.00" fill="#000000"> </text>
</g>
<!-- Node2 -->
<g id="node2" class="node">
<title>Node2</title>
<polygon fill="none" stroke="#bfbfbf" points="0,-122 0,-179 45,-179 45,-122 0,-122"/>
<text text-anchor="middle" x="22.5" y="-167" font-family="Helvetica,sans-Serif" font-size="10.00" fill="#000000">size_t</text>
<polyline fill="none" stroke="#bfbfbf" points="0,-160 45,-160 "/>
<text text-anchor="middle" x="22.5" y="-148" font-family="Helvetica,sans-Serif" font-size="10.00" fill="#000000"> </text>
<polyline fill="none" stroke="#bfbfbf" points="0,-141 45,-141 "/>
<text text-anchor="middle" x="22.5" y="-129" font-family="Helvetica,sans-Serif" font-size="10.00" fill="#000000"> </text>
</g>
<!-- Node2&#45;&gt;Node1 -->
<g id="edge1" class="edge">
<title>Node2&#45;&gt;Node1</title>
<path fill="none" stroke="#404040" d="M30.8006,-121.6512C35.9945,-106.9533 43.7653,-89.4051 54.5,-76 57.3208,-72.4775 60.4691,-69.0936 63.8167,-65.8697"/>
<polygon fill="none" stroke="#404040" points="64.0542,-65.6603 65.9095,-58.6919 73.0554,-57.7244 71.2001,-64.6928 64.0542,-65.6603"/>
<text text-anchor="middle" x="85" y="-84.5" font-family="Helvetica,sans-Serif" font-size="10.00" fill="#000000"> +bufferSize</text>
</g>
<!-- Node3 -->
<g id="node3" class="node">
<title>Node3</title>
<polygon fill="none" stroke="#bfbfbf" points="63,-116.5 63,-184.5 176,-184.5 176,-116.5 63,-116.5"/>
<text text-anchor="start" x="71" y="-172.5" font-family="Helvetica,sans-Serif" font-size="10.00" fill="#000000">function&lt; void(char</text>
<text text-anchor="middle" x="119.5" y="-161.5" font-family="Helvetica,sans-Serif" font-size="10.00" fill="#000000"> *, size_t)&gt;</text>
<polyline fill="none" stroke="#bfbfbf" points="63,-154.5 176,-154.5 "/>
<text text-anchor="middle" x="119.5" y="-142.5" font-family="Helvetica,sans-Serif" font-size="10.00" fill="#000000"> </text>
<polyline fill="none" stroke="#bfbfbf" points="63,-135.5 176,-135.5 "/>
<text text-anchor="middle" x="119.5" y="-123.5" font-family="Helvetica,sans-Serif" font-size="10.00" fill="#000000"> </text>
</g>
<!-- Node3&#45;&gt;Node1 -->
<g id="edge2" class="edge">
<title>Node3&#45;&gt;Node1</title>
<path fill="none" stroke="#404040" d="M119.5,-116.3321C119.5,-101.8557 119.5,-84.8707 119.5,-69.7473"/>
<polygon fill="none" stroke="#404040" points="119.5001,-69.5775 115.5,-63.5776 119.5,-57.5775 123.5,-63.5775 119.5001,-69.5775"/>
<text text-anchor="middle" x="151.5" y="-84.5" font-family="Helvetica,sans-Serif" font-size="10.00" fill="#000000"> +bufferFiller</text>
</g>
<!-- Node4 -->
<g id="node4" class="node">
<title>Node4</title>
<polygon fill="none" stroke="#bfbfbf" points="194,-122 194,-179 237,-179 237,-122 194,-122"/>
<text text-anchor="middle" x="215.5" y="-167" font-family="Helvetica,sans-Serif" font-size="10.00" fill="#000000">const</text>
<polyline fill="none" stroke="#bfbfbf" points="194,-160 237,-160 "/>
<text text-anchor="middle" x="215.5" y="-148" font-family="Helvetica,sans-Serif" font-size="10.00" fill="#000000"> </text>
<polyline fill="none" stroke="#bfbfbf" points="194,-141 237,-141 "/>
<text text-anchor="middle" x="215.5" y="-129" font-family="Helvetica,sans-Serif" font-size="10.00" fill="#000000"> </text>
</g>
<!-- Node4&#45;&gt;Node1 -->
<g id="edge3" class="edge">
<title>Node4&#45;&gt;Node1</title>
<path fill="none" stroke="#404040" d="M209.1477,-121.9169C204.8295,-107.119 197.9572,-89.3974 187.5,-76 184.6026,-72.288 181.3308,-68.7554 177.8282,-65.4172"/>
<polygon fill="none" stroke="#404040" points="177.7953,-65.3887 170.6415,-64.4809 168.728,-57.5283 175.8817,-58.4361 177.7953,-65.3887"/>
<text text-anchor="middle" x="242.5" y="-90" font-family="Helvetica,sans-Serif" font-size="10.00" fill="#000000"> +origin</text>
<text text-anchor="middle" x="242.5" y="-79" font-family="Helvetica,sans-Serif" font-size="10.00" fill="#000000">+dataDescription</text>
</g>
</g>
</svg>
