<?xml version="1.0" encoding="UTF-8" standalone="no"?>
<!DOCTYPE svg PUBLIC "-//W3C//DTD SVG 1.1//EN"
 "http://www.w3.org/Graphics/SVG/1.1/DTD/svg11.dtd">
<!-- Generated by graphviz version 2.40.1 (20161225.0304)
 -->
<!-- Title: /home/travis/build/AliceO2Group/AliceO2/DataFormats/simulation/include/SimulationDataFormat/BaseHits.h Pages: 1 -->
<svg width="1458pt" height="262pt"
 viewBox="0.00 0.00 1457.50 262.00" xmlns="http://www.w3.org/2000/svg" xmlns:xlink="http://www.w3.org/1999/xlink">
<g id="graph0" class="graph" transform="scale(1 1) rotate(0) translate(4 258)">
<title>/home/travis/build/AliceO2Group/AliceO2/DataFormats/simulation/include/SimulationDataFormat/BaseHits.h</title>
<!-- Node0 -->
<g id="node1" class="node">
<title>Node0</title>
<polygon fill="#bfbfbf" stroke="#000000" points="757,-190.5 757,-253.5 925,-253.5 925,-190.5 757,-190.5"/>
<text text-anchor="start" x="765" y="-241.5" font-family="Helvetica,sans-Serif" font-size="10.00" fill="#000000">/home/travis/build</text>
<text text-anchor="start" x="765" y="-230.5" font-family="Helvetica,sans-Serif" font-size="10.00" fill="#000000">/AliceO2Group/AliceO2</text>
<text text-anchor="start" x="765" y="-219.5" font-family="Helvetica,sans-Serif" font-size="10.00" fill="#000000">/DataFormats/simulation</text>
<text text-anchor="start" x="765" y="-208.5" font-family="Helvetica,sans-Serif" font-size="10.00" fill="#000000">/include/SimulationDataFormat</text>
<text text-anchor="middle" x="841" y="-197.5" font-family="Helvetica,sans-Serif" font-size="10.00" fill="#000000">/BaseHits.h</text>
</g>
<!-- Node1 -->
<g id="node2" class="node">
<title>Node1</title>
<g id="a_node2"><a xlink:href="../../dd/d76/Cartesian3D_8h.html" target="_top" xlink:title="MathUtils/Cartesian3D.h">
<polygon fill="none" stroke="#000000" points="773.5,-134.5 773.5,-153.5 908.5,-153.5 908.5,-134.5 773.5,-134.5"/>
<text text-anchor="middle" x="841" y="-141.5" font-family="Helvetica,sans-Serif" font-size="10.00" fill="#000000">MathUtils/Cartesian3D.h</text>
</a>
</g>
</g>
<!-- Node0&#45;&gt;Node1 -->
<g id="edge1" class="edge">
<title>Node0&#45;&gt;Node1</title>
<path fill="none" stroke="#191970" d="M841,-190.2744C841,-181.3302 841,-171.8568 841,-163.8269"/>
<polygon fill="#191970" stroke="#191970" points="844.5001,-163.6425 841,-153.6426 837.5001,-163.6426 844.5001,-163.6425"/>
</g>
<!-- Node2 -->
<g id="node3" class="node">
<title>Node2</title>
<polygon fill="none" stroke="#bfbfbf" points="0,-67.5 0,-97.5 164,-97.5 164,-67.5 0,-67.5"/>
<text text-anchor="start" x="8" y="-85.5" font-family="Helvetica,sans-Serif" font-size="10.00" fill="#000000">Math/GenVector/Displacement</text>
<text text-anchor="middle" x="82" y="-74.5" font-family="Helvetica,sans-Serif" font-size="10.00" fill="#000000">Vector3D.h</text>
</g>
<!-- Node1&#45;&gt;Node2 -->
<g id="edge2" class="edge">
<title>Node1&#45;&gt;Node2</title>
<path fill="none" stroke="#191970" d="M773.4717,-141.5829C654.4388,-136.8327 399.3513,-124.4633 174.3027,-98.0808"/>
<polygon fill="#191970" stroke="#191970" points="174.6285,-94.595 164.2863,-96.8949 173.8054,-101.5465 174.6285,-94.595"/>
</g>
<!-- Node3 -->
<g id="node4" class="node">
<title>Node3</title>
<polygon fill="none" stroke="#bfbfbf" points="182.5,-73 182.5,-92 371.5,-92 371.5,-73 182.5,-73"/>
<text text-anchor="middle" x="277" y="-80" font-family="Helvetica,sans-Serif" font-size="10.00" fill="#000000">Math/GenVector/PositionVector3D.h</text>
</g>
<!-- Node1&#45;&gt;Node3 -->
<g id="edge3" class="edge">
<title>Node1&#45;&gt;Node3</title>
<path fill="none" stroke="#191970" d="M773.4625,-138.2744C683.691,-130.4288 520.1798,-115.3203 381,-98 370.1818,-96.6537 358.7514,-95.0921 347.5831,-93.4888"/>
<polygon fill="#191970" stroke="#191970" points="347.8253,-89.9872 337.4253,-92.0097 346.8166,-96.9142 347.8253,-89.9872"/>
</g>
<!-- Node4 -->
<g id="node5" class="node">
<title>Node4</title>
<polygon fill="none" stroke="#bfbfbf" points="390,-73 390,-92 550,-92 550,-73 390,-73"/>
<text text-anchor="middle" x="470" y="-80" font-family="Helvetica,sans-Serif" font-size="10.00" fill="#000000">Math/GenVector/Rotation3D.h</text>
</g>
<!-- Node1&#45;&gt;Node4 -->
<g id="edge4" class="edge">
<title>Node1&#45;&gt;Node4</title>
<path fill="none" stroke="#191970" d="M781.553,-134.4929C724.4612,-125.3176 635.7962,-110.9504 559,-98 550.9736,-96.6465 542.5438,-95.2047 534.2039,-93.7661"/>
<polygon fill="#191970" stroke="#191970" points="534.5594,-90.2757 524.109,-92.0191 533.3657,-97.1732 534.5594,-90.2757"/>
</g>
<!-- Node5 -->
<g id="node6" class="node">
<title>Node5</title>
<polygon fill="none" stroke="#bfbfbf" points="568,-73 568,-92 736,-92 736,-73 568,-73"/>
<text text-anchor="middle" x="652" y="-80" font-family="Helvetica,sans-Serif" font-size="10.00" fill="#000000">Math/GenVector/Transform3D.h</text>
</g>
<!-- Node1&#45;&gt;Node5 -->
<g id="edge5" class="edge">
<title>Node1&#45;&gt;Node5</title>
<path fill="none" stroke="#191970" d="M811.4688,-134.3906C779.0134,-123.8298 726.7419,-106.8208 690.9514,-95.1747"/>
<polygon fill="#191970" stroke="#191970" points="691.9161,-91.808 681.3239,-92.0419 689.7501,-98.4645 691.9161,-91.808"/>
</g>
<!-- Node6 -->
<g id="node7" class="node">
<title>Node6</title>
<polygon fill="none" stroke="#bfbfbf" points="754.5,-73 754.5,-92 927.5,-92 927.5,-73 754.5,-73"/>
<text text-anchor="middle" x="841" y="-80" font-family="Helvetica,sans-Serif" font-size="10.00" fill="#000000">Math/GenVector/Translation3D.h</text>
</g>
<!-- Node1&#45;&gt;Node6 -->
<g id="edge6" class="edge">
<title>Node1&#45;&gt;Node6</title>
<path fill="none" stroke="#191970" d="M841,-134.3906C841,-125.8657 841,-113.1392 841,-102.4235"/>
<polygon fill="#191970" stroke="#191970" points="844.5001,-102.2448 841,-92.2449 837.5001,-102.2449 844.5001,-102.2448"/>
</g>
<!-- Node7 -->
<g id="node8" class="node">
<title>Node7</title>
<polygon fill="none" stroke="#bfbfbf" points="945.5,-73 945.5,-92 1004.5,-92 1004.5,-73 945.5,-73"/>
<text text-anchor="middle" x="975" y="-80" font-family="Helvetica,sans-Serif" font-size="10.00" fill="#000000">Rtypes.h</text>
</g>
<!-- Node1&#45;&gt;Node7 -->
<g id="edge7" class="edge">
<title>Node1&#45;&gt;Node7</title>
<path fill="none" stroke="#191970" d="M861.9375,-134.3906C884.2598,-124.1457 919.8037,-107.8326 945.0757,-96.2339"/>
<polygon fill="#191970" stroke="#191970" points="946.581,-99.3942 954.2095,-92.0419 943.6611,-93.0322 946.581,-99.3942"/>
</g>
<!-- Node8 -->
<g id="node9" class="node">
<title>Node8</title>
<polygon fill="none" stroke="#bfbfbf" points="1023,-73 1023,-92 1105,-92 1105,-73 1023,-73"/>
<text text-anchor="middle" x="1064" y="-80" font-family="Helvetica,sans-Serif" font-size="10.00" fill="#000000">TGeoMatrix.h</text>
</g>
<!-- Node1&#45;&gt;Node8 -->
<g id="edge8" class="edge">
<title>Node1&#45;&gt;Node8</title>
<path fill="none" stroke="#191970" d="M878.0064,-134.4882C912.9059,-125.4269 966.6334,-111.242 1013,-98 1016.3953,-97.0303 1019.9114,-96.0054 1023.4369,-94.9632"/>
<polygon fill="#191970" stroke="#191970" points="1024.7272,-98.2305 1033.305,-92.0119 1022.7214,-91.524 1024.7272,-98.2305"/>
</g>
<!-- Node9 -->
<g id="node10" class="node">
<title>Node9</title>
<polygon fill="none" stroke="#bfbfbf" points="1123.5,-73 1123.5,-92 1172.5,-92 1172.5,-73 1123.5,-73"/>
<text text-anchor="middle" x="1148" y="-80" font-family="Helvetica,sans-Serif" font-size="10.00" fill="#000000">iosfwd</text>
</g>
<!-- Node1&#45;&gt;Node9 -->
<g id="edge9" class="edge">
<title>Node1&#45;&gt;Node9</title>
<path fill="none" stroke="#191970" d="M908.6053,-137.5728C964.552,-131.0812 1045.642,-118.946 1114,-98 1115.9073,-97.4156 1117.8469,-96.7479 1119.7837,-96.0254"/>
<polygon fill="#191970" stroke="#191970" points="1121.3827,-99.1514 1129.2794,-92.088 1118.7014,-92.6853 1121.3827,-99.1514"/>
</g>
<!-- Node10 -->
<g id="node11" class="node">
<title>Node10</title>
<g id="a_node11"><a xlink:href="../../d2/dd0/Cartesian2D_8h.html" target="_top" xlink:title="MathUtils/Cartesian2D.h">
<polygon fill="none" stroke="#000000" points="1190.5,-73 1190.5,-92 1325.5,-92 1325.5,-73 1190.5,-73"/>
<text text-anchor="middle" x="1258" y="-80" font-family="Helvetica,sans-Serif" font-size="10.00" fill="#000000">MathUtils/Cartesian2D.h</text>
</a>
</g>
</g>
<!-- Node1&#45;&gt;Node10 -->
<g id="edge10" class="edge">
<title>Node1&#45;&gt;Node10</title>
<path fill="none" stroke="#191970" d="M908.8139,-136.2119C977.774,-127.9734 1087.6124,-113.9729 1182,-98 1189.1199,-96.7951 1196.5918,-95.4149 1203.9557,-93.9857"/>
<polygon fill="#191970" stroke="#191970" points="1204.7582,-97.3948 1213.8874,-92.0182 1203.3979,-90.5282 1204.7582,-97.3948"/>
</g>
<!-- Node11 -->
<g id="node12" class="node">
<title>Node11</title>
<polygon fill="none" stroke="#bfbfbf" points="1078,-.5 1078,-30.5 1242,-30.5 1242,-.5 1078,-.5"/>
<text text-anchor="start" x="1086" y="-18.5" font-family="Helvetica,sans-Serif" font-size="10.00" fill="#000000">Math/GenVector/Displacement</text>
<text text-anchor="middle" x="1160" y="-7.5" font-family="Helvetica,sans-Serif" font-size="10.00" fill="#000000">Vector2D.h</text>
</g>
<!-- Node10&#45;&gt;Node11 -->
<g id="edge11" class="edge">
<title>Node10&#45;&gt;Node11</title>
<path fill="none" stroke="#191970" d="M1243.959,-72.9005C1230.0412,-63.3853 1208.272,-48.5023 1190.388,-36.2755"/>
<polygon fill="#191970" stroke="#191970" points="1192.2026,-33.2763 1181.9721,-30.5218 1188.2519,-39.0549 1192.2026,-33.2763"/>
</g>
<!-- Node12 -->
<g id="node13" class="node">
<title>Node12</title>
<polygon fill="none" stroke="#bfbfbf" points="1260.5,-6 1260.5,-25 1449.5,-25 1449.5,-6 1260.5,-6"/>
<text text-anchor="middle" x="1355" y="-13" font-family="Helvetica,sans-Serif" font-size="10.00" fill="#000000">Math/GenVector/PositionVector2D.h</text>
</g>
<!-- Node10&#45;&gt;Node12 -->
<g id="edge12" class="edge">
<title>Node10&#45;&gt;Node12</title>
<path fill="none" stroke="#191970" d="M1271.8977,-72.9005C1287.8164,-61.9052 1314.1121,-43.7422 1332.8599,-30.7927"/>
<polygon fill="#191970" stroke="#191970" points="1334.8892,-33.6448 1341.128,-25.0817 1330.9108,-27.8852 1334.8892,-33.6448"/>
</g>
</g>
</svg>
