<?xml version="1.0" encoding="UTF-8" standalone="no"?>
<!DOCTYPE svg PUBLIC "-//W3C//DTD SVG 1.1//EN"
 "http://www.w3.org/Graphics/SVG/1.1/DTD/svg11.dtd">
<!-- Generated by graphviz version 2.40.1 (20161225.0304)
 -->
<!-- Title: /home/travis/build/AliceO2Group/AliceO2/Detectors/MUON/MCH/Mapping/Impl3/src/CreateSegmentation.cxx Pages: 1 -->
<!--zoomable 251 -->
<svg id="main" version="1.1" xmlns="http://www.w3.org/2000/svg" xmlns:xlink="http://www.w3.org/1999/xlink" xml:space="preserve" onload="init(evt)">
<style type="text/css"><![CDATA[
.edge:hover path { stroke: red; }
.edge:hover polygon { stroke: red; fill: red; }
]]></style>
<script type="text/javascript"><![CDATA[
var edges = document.getElementsByTagName('g');
if (edges && edges.length) {
  for (var i=0;i<edges.length;i++) {
    if (edges[i].id.substr(0,4)=='edge') {
      edges[i].setAttribute('class','edge');
    }
  }
}
]]></script>
        <defs>
                <circle id="rim" cx="0" cy="0" r="7"/>
                <circle id="rim2" cx="0" cy="0" r="3.5"/>
                <g id="zoomPlus">
                        <use xlink:href="#rim" fill="#404040">
                                <set attributeName="fill" to="#808080" begin="zoomplus.mouseover" end="zoomplus.mouseout"/>
                        </use>
                        <path d="M-4,0h8M0,-4v8" fill="none" stroke="white" stroke-width="1.5" pointer-events="none"/>
                </g>
                <g id="zoomMin">
                        <use xlink:href="#rim" fill="#404040">
                                <set attributeName="fill" to="#808080" begin="zoomminus.mouseover" end="zoomminus.mouseout"/>
                        </use>
                        <path d="M-4,0h8" fill="none" stroke="white" stroke-width="1.5" pointer-events="none"/>
                </g>
                <g id="dirArrow">
                        <path fill="none" stroke="white" stroke-width="1.5" d="M0,-3.0v7 M-2.5,-0.5L0,-3.0L2.5,-0.5"/>
                </g>
               <g id="resetDef">
                       <use xlink:href="#rim2" fill="#404040">
                               <set attributeName="fill" to="#808080" begin="reset.mouseover" end="reset.mouseout"/>
                       </use>
               </g>
        </defs>

<script type="text/javascript">
var viewWidth = 825;
var viewHeight = 251;
var sectionId = 'dynsection-0';
</script>
<script xlink:href="../../svgpan.js"/>
<svg id="graph" class="graph">
<g id="viewport">
<title>/home/travis/build/AliceO2Group/AliceO2/Detectors/MUON/MCH/Mapping/Impl3/src/CreateSegmentation.cxx</title>
<!-- Node0 -->
<g id="node1" class="node">
<title>Node0</title>
<polygon fill="#bfbfbf" stroke="#000000" points="403.5,-190.5 403.5,-242.5 591.5,-242.5 591.5,-190.5 403.5,-190.5"/>
<text text-anchor="start" x="411.5" y="-230.5" font-family="Helvetica,sans-Serif" font-size="10.00" fill="#000000">/home/travis/build</text>
<text text-anchor="start" x="411.5" y="-219.5" font-family="Helvetica,sans-Serif" font-size="10.00" fill="#000000">/AliceO2Group/AliceO2</text>
<text text-anchor="start" x="411.5" y="-208.5" font-family="Helvetica,sans-Serif" font-size="10.00" fill="#000000">/Detectors/MUON/MCH/Mapping</text>
<text text-anchor="middle" x="497.5" y="-197.5" font-family="Helvetica,sans-Serif" font-size="10.00" fill="#000000">/Impl3/src/CreateSegmentation.cxx</text>
</g>
<!-- Node1 -->
<g id="node2" class="node">
<title>Node1</title>
<polygon fill="none" stroke="#bfbfbf" points="282.5,-129 282.5,-148 320.5,-148 320.5,-129 282.5,-129"/>
<text text-anchor="middle" x="301.5" y="-136" font-family="Helvetica,sans-Serif" font-size="10.00" fill="#000000">map</text>
</g>
<!-- Node0&#45;&gt;Node1 -->
<g id="edge1" class="edge">
<title>Node0&#45;&gt;Node1</title>
<path fill="none" stroke="#191970" d="M419.9906,-190.4046C391.1886,-179.996 358.4823,-167.3224 329.5,-154 328.6607,-153.6142 327.8123,-153.2131 326.9596,-152.8004"/>
<polygon fill="#191970" stroke="#191970" points="328.3612,-149.5849 317.8714,-148.097 325.1438,-155.8017 328.3612,-149.5849"/>
</g>
<!-- Node2 -->
<g id="node3" class="node">
<title>Node2</title>
<polygon fill="none" stroke="#bfbfbf" points="339,-129 339,-148 418,-148 418,-129 339,-129"/>
<text text-anchor="middle" x="378.5" y="-136" font-family="Helvetica,sans-Serif" font-size="10.00" fill="#000000">fmt/format.h</text>
</g>
<!-- Node0&#45;&gt;Node2 -->
<g id="edge2" class="edge">
<title>Node0&#45;&gt;Node2</title>
<path fill="none" stroke="#191970" d="M457.5437,-190.3101C439.0303,-178.1753 417.6771,-164.1791 401.835,-153.7952"/>
<polygon fill="#191970" stroke="#191970" points="403.4896,-150.6949 393.2074,-148.1401 399.6522,-156.5493 403.4896,-150.6949"/>
</g>
<!-- Node3 -->
<g id="node4" class="node">
<title>Node3</title>
<g id="a_node4"><a xlink:href="../../d6/d1f/MUON_2MCH_2Mapping_2Interface_2include_2MCHMappingInterface_2Segmentation_8h.html" target="_top" xlink:title="MCHMappingInterface\l/Segmentation.h">
<polygon fill="none" stroke="#000000" points="435.5,-123.5 435.5,-153.5 559.5,-153.5 559.5,-123.5 435.5,-123.5"/>
<text text-anchor="start" x="443.5" y="-141.5" font-family="Helvetica,sans-Serif" font-size="10.00" fill="#000000">MCHMappingInterface</text>
<text text-anchor="middle" x="497.5" y="-130.5" font-family="Helvetica,sans-Serif" font-size="10.00" fill="#000000">/Segmentation.h</text>
</a>
</g>
</g>
<!-- Node0&#45;&gt;Node3 -->
<g id="edge3" class="edge">
<title>Node0&#45;&gt;Node3</title>
<path fill="none" stroke="#191970" d="M497.5,-190.0928C497.5,-181.516 497.5,-172.0289 497.5,-163.5538"/>
<polygon fill="#191970" stroke="#191970" points="501.0001,-163.5045 497.5,-153.5046 494.0001,-163.5046 501.0001,-163.5045"/>
</g>
<!-- Node14 -->
<g id="node15" class="node">
<title>Node14</title>
<polygon fill="none" stroke="#bfbfbf" points="577.5,-129 577.5,-148 743.5,-148 743.5,-129 577.5,-129"/>
<text text-anchor="middle" x="660.5" y="-136" font-family="Helvetica,sans-Serif" font-size="10.00" fill="#000000">o2mchmappingimpl3_export.h</text>
</g>
<!-- Node0&#45;&gt;Node14 -->
<g id="edge14" class="edge">
<title>Node0&#45;&gt;Node14</title>
<path fill="none" stroke="#191970" d="M552.2301,-190.3101C578.6553,-177.665 609.3043,-162.9985 631.2339,-152.5046"/>
<polygon fill="#191970" stroke="#191970" points="632.845,-155.6138 640.3546,-148.1401 629.8234,-149.2995 632.845,-155.6138"/>
</g>
<!-- Node15 -->
<g id="node16" class="node">
<title>Node15</title>
<polygon fill="none" stroke="#bfbfbf" points="762,-129 762,-148 817,-148 817,-129 762,-129"/>
<text text-anchor="middle" x="789.5" y="-136" font-family="Helvetica,sans-Serif" font-size="10.00" fill="#000000">fstream</text>
</g>
<!-- Node0&#45;&gt;Node15 -->
<g id="edge15" class="edge">
<title>Node0&#45;&gt;Node15</title>
<path fill="none" stroke="#191970" d="M591.7503,-197.0992C640.2888,-186.1799 700.1212,-171.2726 752.5,-154 754.5959,-153.3089 756.7398,-152.5513 758.8877,-151.7545"/>
<polygon fill="#191970" stroke="#191970" points="760.1701,-155.0111 768.194,-148.0926 757.6069,-148.4973 760.1701,-155.0111"/>
</g>
<!-- Node4 -->
<g id="node5" class="node">
<title>Node4</title>
<g id="a_node5"><a xlink:href="../../df/db6/CathodeSegmentation_8h.html" target="_top" xlink:title="MCHMappingInterface\l/CathodeSegmentation.h">
<polygon fill="none" stroke="#000000" points="360,-56.5 360,-86.5 497,-86.5 497,-56.5 360,-56.5"/>
<text text-anchor="start" x="368" y="-74.5" font-family="Helvetica,sans-Serif" font-size="10.00" fill="#000000">MCHMappingInterface</text>
<text text-anchor="middle" x="428.5" y="-63.5" font-family="Helvetica,sans-Serif" font-size="10.00" fill="#000000">/CathodeSegmentation.h</text>
</a>
</g>
</g>
<!-- Node3&#45;&gt;Node4 -->
<g id="edge4" class="edge">
<title>Node3&#45;&gt;Node4</title>
<path fill="none" stroke="#191970" d="M481.8428,-123.2967C472.8443,-114.559 461.3787,-103.4257 451.3852,-93.7218"/>
<polygon fill="#191970" stroke="#191970" points="453.7077,-91.0985 444.0952,-86.6432 448.8313,-96.1205 453.7077,-91.0985"/>
</g>
<!-- Node13 -->
<g id="node14" class="node">
<title>Node13</title>
<g id="a_node14"><a xlink:href="../../d0/d5f/Segmentation_8inl.html" target="_top" xlink:title="Segmentation.inl">
<polygon fill="none" stroke="#000000" points="515.5,-62 515.5,-81 615.5,-81 615.5,-62 515.5,-62"/>
<text text-anchor="middle" x="565.5" y="-69" font-family="Helvetica,sans-Serif" font-size="10.00" fill="#000000">Segmentation.inl</text>
</a>
</g>
</g>
<!-- Node3&#45;&gt;Node13 -->
<g id="edge13" class="edge">
<title>Node3&#45;&gt;Node13</title>
<path fill="none" stroke="#191970" d="M512.9303,-123.2967C523.525,-112.8578 537.5899,-98.9997 548.5054,-88.2446"/>
<polygon fill="#191970" stroke="#191970" points="551.1356,-90.5666 555.8024,-81.055 546.2227,-85.5804 551.1356,-90.5666"/>
</g>
<!-- Node5 -->
<g id="node6" class="node">
<title>Node5</title>
<g id="a_node6"><a xlink:href="../../d0/dc7/CathodeSegmentationCInterface_8h.html" target="_top" xlink:title="CathodeSegmentationCInterface.h">
<polygon fill="none" stroke="#000000" points="0,-.5 0,-19.5 185,-19.5 185,-.5 0,-.5"/>
<text text-anchor="middle" x="92.5" y="-7.5" font-family="Helvetica,sans-Serif" font-size="10.00" fill="#000000">CathodeSegmentationCInterface.h</text>
</a>
</g>
</g>
<!-- Node4&#45;&gt;Node5 -->
<g id="edge5" class="edge">
<title>Node4&#45;&gt;Node5</title>
<path fill="none" stroke="#191970" d="M359.6946,-58.9062C299.4722,-47.8833 212.7555,-32.011 154.6093,-21.3682"/>
<polygon fill="#191970" stroke="#191970" points="154.9235,-17.8677 144.4567,-19.5099 153.6631,-24.7533 154.9235,-17.8677"/>
</g>
<!-- Node6 -->
<g id="node7" class="node">
<title>Node6</title>
<polygon fill="none" stroke="#bfbfbf" points="203,-.5 203,-19.5 268,-19.5 268,-.5 203,-.5"/>
<text text-anchor="middle" x="235.5" y="-7.5" font-family="Helvetica,sans-Serif" font-size="10.00" fill="#000000">stdexcept</text>
</g>
<!-- Node4&#45;&gt;Node6 -->
<g id="edge6" class="edge">
<title>Node4&#45;&gt;Node6</title>
<path fill="none" stroke="#191970" d="M381.2869,-56.4554C348.6606,-46.059 305.7596,-32.3884 274.9559,-22.5727"/>
<polygon fill="#191970" stroke="#191970" points="275.9988,-19.2317 265.4081,-19.5303 273.8735,-25.9013 275.9988,-19.2317"/>
</g>
<!-- Node7 -->
<g id="node8" class="node">
<title>Node7</title>
<polygon fill="none" stroke="#bfbfbf" points="286.5,-.5 286.5,-19.5 344.5,-19.5 344.5,-.5 286.5,-.5"/>
<text text-anchor="middle" x="315.5" y="-7.5" font-family="Helvetica,sans-Serif" font-size="10.00" fill="#000000">memory</text>
</g>
<!-- Node4&#45;&gt;Node7 -->
<g id="edge7" class="edge">
<title>Node4&#45;&gt;Node7</title>
<path fill="none" stroke="#191970" d="M400.8571,-56.4554C382.9951,-46.734 359.8732,-34.15 342.2005,-24.5317"/>
<polygon fill="#191970" stroke="#191970" points="343.4675,-21.2365 333.011,-19.5303 340.1213,-27.3849 343.4675,-21.2365"/>
</g>
<!-- Node8 -->
<g id="node9" class="node">
<title>Node8</title>
<polygon fill="none" stroke="#bfbfbf" points="362.5,-.5 362.5,-19.5 422.5,-19.5 422.5,-.5 362.5,-.5"/>
<text text-anchor="middle" x="392.5" y="-7.5" font-family="Helvetica,sans-Serif" font-size="10.00" fill="#000000">iostream</text>
</g>
<!-- Node4&#45;&gt;Node8 -->
<g id="edge8" class="edge">
<title>Node4&#45;&gt;Node8</title>
<path fill="none" stroke="#191970" d="M419.6011,-56.2977C414.7081,-47.9388 408.5974,-37.4997 403.4176,-28.6509"/>
<polygon fill="#191970" stroke="#191970" points="406.3365,-26.7089 398.2641,-19.8469 400.2953,-30.2452 406.3365,-26.7089"/>
</g>
<!-- Node9 -->
<g id="node10" class="node">
<title>Node9</title>
<polygon fill="none" stroke="#bfbfbf" points="441,-.5 441,-19.5 488,-19.5 488,-.5 441,-.5"/>
<text text-anchor="middle" x="464.5" y="-7.5" font-family="Helvetica,sans-Serif" font-size="10.00" fill="#000000">vector</text>
</g>
<!-- Node4&#45;&gt;Node9 -->
<g id="edge9" class="edge">
<title>Node4&#45;&gt;Node9</title>
<path fill="none" stroke="#191970" d="M437.3989,-56.2977C442.2919,-47.9388 448.4026,-37.4997 453.5824,-28.6509"/>
<polygon fill="#191970" stroke="#191970" points="456.7047,-30.2452 458.7359,-19.8469 450.6635,-26.7089 456.7047,-30.2452"/>
</g>
<!-- Node10 -->
<g id="node11" class="node">
<title>Node10</title>
<polygon fill="none" stroke="#bfbfbf" points="506.5,-.5 506.5,-19.5 562.5,-19.5 562.5,-.5 506.5,-.5"/>
<text text-anchor="middle" x="534.5" y="-7.5" font-family="Helvetica,sans-Serif" font-size="10.00" fill="#000000">sstream</text>
</g>
<!-- Node4&#45;&gt;Node10 -->
<g id="edge10" class="edge">
<title>Node4&#45;&gt;Node10</title>
<path fill="none" stroke="#191970" d="M454.4305,-56.4554C471.0309,-46.8241 492.4744,-34.3828 508.9917,-24.7996"/>
<polygon fill="#191970" stroke="#191970" points="511.1806,-27.5761 518.0738,-19.5303 507.6677,-21.5214 511.1806,-27.5761"/>
</g>
<!-- Node11 -->
<g id="node12" class="node">
<title>Node11</title>
<polygon fill="none" stroke="#bfbfbf" points="581,-.5 581,-19.5 646,-19.5 646,-.5 581,-.5"/>
<text text-anchor="middle" x="613.5" y="-7.5" font-family="Helvetica,sans-Serif" font-size="10.00" fill="#000000">functional</text>
</g>
<!-- Node4&#45;&gt;Node11 -->
<g id="edge11" class="edge">
<title>Node4&#45;&gt;Node11</title>
<path fill="none" stroke="#191970" d="M473.7561,-56.4554C504.8946,-46.104 545.7969,-32.5067 575.2955,-22.7004"/>
<polygon fill="#191970" stroke="#191970" points="576.4463,-26.0063 584.8316,-19.5303 574.238,-19.3637 576.4463,-26.0063"/>
</g>
<!-- Node12 -->
<g id="node13" class="node">
<title>Node12</title>
<polygon fill="none" stroke="#bfbfbf" points="664.5,-.5 664.5,-19.5 720.5,-19.5 720.5,-.5 664.5,-.5"/>
<text text-anchor="middle" x="692.5" y="-7.5" font-family="Helvetica,sans-Serif" font-size="10.00" fill="#000000">iomanip</text>
</g>
<!-- Node4&#45;&gt;Node12 -->
<g id="edge12" class="edge">
<title>Node4&#45;&gt;Node12</title>
<path fill="none" stroke="#191970" d="M497.2141,-56.6767C539.9445,-47.2803 596.2441,-34.5792 654.5031,-20.1827"/>
<polygon fill="#191970" stroke="#191970" points="655.3873,-23.5695 664.2492,-17.7629 653.7004,-16.7758 655.3873,-23.5695"/>
</g>
</g>
</svg>
        <g id="navigator" transform="translate(0 0)" fill="#404254">
                <rect fill="#f2f5e9" fill-opacity="0.5" stroke="#606060" stroke-width=".5" x="0" y="0" width="60" height="60"/>
                <use id="zoomplus" xlink:href="#zoomPlus" x="17" y="9" onmousedown="handleZoom(evt,'in')"/>
                <use id="zoomminus" xlink:href="#zoomMin" x="42" y="9" onmousedown="handleZoom(evt,'out')"/>
                <use id="reset" xlink:href="#resetDef" x="30" y="36" onmousedown="handleReset()"/>
                <g id="arrowUp" xlink:href="#dirArrow" transform="translate(30 24)" onmousedown="handlePan(0,-1)">
                  <use xlink:href="#rim" fill="#404040">
                        <set attributeName="fill" to="#808080" begin="arrowUp.mouseover" end="arrowUp.mouseout"/>
                  </use>
                  <path fill="none" stroke="white" stroke-width="1.5" d="M0,-3.0v7 M-2.5,-0.5L0,-3.0L2.5,-0.5"/>
                </g>
                <g id="arrowRight" xlink:href="#dirArrow" transform="rotate(90) translate(36 -43)" onmousedown="handlePan(1,0)">
                  <use xlink:href="#rim" fill="#404040">
                        <set attributeName="fill" to="#808080" begin="arrowRight.mouseover" end="arrowRight.mouseout"/>
                  </use>
                  <path fill="none" stroke="white" stroke-width="1.5" d="M0,-3.0v7 M-2.5,-0.5L0,-3.0L2.5,-0.5"/>
                </g>
                <g id="arrowDown" xlink:href="#dirArrow" transform="rotate(180) translate(-30 -48)" onmousedown="handlePan(0,1)">
                  <use xlink:href="#rim" fill="#404040">
                        <set attributeName="fill" to="#808080" begin="arrowDown.mouseover" end="arrowDown.mouseout"/>
                  </use>
                  <path fill="none" stroke="white" stroke-width="1.5" d="M0,-3.0v7 M-2.5,-0.5L0,-3.0L2.5,-0.5"/>
                </g>
                <g id="arrowLeft" xlink:href="#dirArrow" transform="rotate(270) translate(-36 17)" onmousedown="handlePan(-1,0)">
                  <use xlink:href="#rim" fill="#404040">
                        <set attributeName="fill" to="#808080" begin="arrowLeft.mouseover" end="arrowLeft.mouseout"/>
                  </use>
                  <path fill="none" stroke="white" stroke-width="1.5" d="M0,-3.0v7 M-2.5,-0.5L0,-3.0L2.5,-0.5"/>
                </g>
        </g>
        <svg viewBox="0 0 15 15" width="100%" height="30px" preserveAspectRatio="xMaxYMin meet">
         <g id="arrow_out" transform="scale(0.3 0.3)">
          <a xlink:href="Impl3_2src_2CreateSegmentation_8cxx__incl_org.svg" target="_base">
           <rect id="button" ry="5" rx="5" y="6" x="6" height="38" width="38"
                fill="#f2f5e9" fill-opacity="0.5" stroke="#606060" stroke-width="1.0"/>
           <path id="arrow"
             d="M 11.500037,31.436501 C 11.940474,20.09759 22.043105,11.32322 32.158766,21.979434 L 37.068811,17.246167 C 37.068811,17.246167 37.088388,32 37.088388,32 L 22.160133,31.978069 C 22.160133,31.978069 26.997745,27.140456 26.997745,27.140456 C 18.528582,18.264221 13.291696,25.230495 11.500037,31.436501 z"
             style="fill:#404040;"/>
          </a>
         </g>
        </svg>
</svg>
