<?xml version="1.0" encoding="UTF-8" standalone="no"?>
<!DOCTYPE svg PUBLIC "-//W3C//DTD SVG 1.1//EN"
 "http://www.w3.org/Graphics/SVG/1.1/DTD/svg11.dtd">
<!-- Generated by graphviz version 2.40.1 (20161225.0304)
 -->
<!-- Title: o2::tof::LHCClockDataHisto Pages: 1 -->
<svg width="215pt" height="248pt"
 viewBox="0.00 0.00 215.00 248.00" xmlns="http://www.w3.org/2000/svg" xmlns:xlink="http://www.w3.org/1999/xlink">
<g id="graph0" class="graph" transform="scale(1 1) rotate(0) translate(4 244)">
<title>o2::tof::LHCClockDataHisto</title>
<!-- Node1 -->
<g id="node1" class="node">
<title>Node1</title>
<polygon fill="#bfbfbf" stroke="#000000" points="7.5,-.5 7.5,-123.5 156.5,-123.5 156.5,-.5 7.5,-.5"/>
<text text-anchor="middle" x="82" y="-111.5" font-family="Helvetica,sans-Serif" font-size="10.00" fill="#000000">o2::tof::LHCClockDataHisto</text>
<polyline fill="none" stroke="#000000" points="7.5,-104.5 156.5,-104.5 "/>
<text text-anchor="middle" x="82" y="-92.5" font-family="Helvetica,sans-Serif" font-size="10.00" fill="#000000"> </text>
<polyline fill="none" stroke="#000000" points="7.5,-85.5 156.5,-85.5 "/>
<text text-anchor="start" x="15.5" y="-73.5" font-family="Helvetica,sans-Serif" font-size="10.00" fill="#000000">+ LHCClockDataHisto()</text>
<text text-anchor="start" x="15.5" y="-62.5" font-family="Helvetica,sans-Serif" font-size="10.00" fill="#000000">+ LHCClockDataHisto()</text>
<text text-anchor="start" x="15.5" y="-51.5" font-family="Helvetica,sans-Serif" font-size="10.00" fill="#000000">+ getEntries()</text>
<text text-anchor="start" x="15.5" y="-40.5" font-family="Helvetica,sans-Serif" font-size="10.00" fill="#000000">+ print()</text>
<text text-anchor="start" x="15.5" y="-29.5" font-family="Helvetica,sans-Serif" font-size="10.00" fill="#000000">+ fill()</text>
<text text-anchor="start" x="15.5" y="-18.5" font-family="Helvetica,sans-Serif" font-size="10.00" fill="#000000">+ merge()</text>
<text text-anchor="start" x="15.5" y="-7.5" font-family="Helvetica,sans-Serif" font-size="10.00" fill="#000000">+ ClassDefNV()</text>
</g>
<!-- Node2 -->
<g id="node2" class="node">
<title>Node2</title>
<g id="a_node2"><a xlink:href="../../d4/dc3/classfloat.html" target="_top" xlink:title="{float\n||}">
<polygon fill="none" stroke="#000000" points="0,-182.5 0,-239.5 38,-239.5 38,-182.5 0,-182.5"/>
<text text-anchor="middle" x="19" y="-227.5" font-family="Helvetica,sans-Serif" font-size="10.00" fill="#000000">float</text>
<polyline fill="none" stroke="#000000" points="0,-220.5 38,-220.5 "/>
<text text-anchor="middle" x="19" y="-208.5" font-family="Helvetica,sans-Serif" font-size="10.00" fill="#000000"> </text>
<polyline fill="none" stroke="#000000" points="0,-201.5 38,-201.5 "/>
<text text-anchor="middle" x="19" y="-189.5" font-family="Helvetica,sans-Serif" font-size="10.00" fill="#000000"> </text>
</a>
</g>
</g>
<!-- Node2&#45;&gt;Node1 -->
<g id="edge1" class="edge">
<title>Node2&#45;&gt;Node1</title>
<path fill="none" stroke="#404040" d="M25.3016,-182.3035C28.4725,-169.712 32.7637,-154.8933 38,-142 38.9552,-139.6479 39.9631,-137.2771 41.0134,-134.8989"/>
<polygon fill="none" stroke="#404040" points="41.1343,-134.6391 40.0402,-127.5115 46.1988,-123.7602 47.2929,-130.8878 41.1343,-134.6391"/>
<text text-anchor="middle" x="58" y="-156" font-family="Helvetica,sans-Serif" font-size="10.00" fill="#000000"> +v2Bin</text>
<text text-anchor="middle" x="58" y="-145" font-family="Helvetica,sans-Serif" font-size="10.00" fill="#000000">+range</text>
</g>
<!-- Node3 -->
<g id="node3" class="node">
<title>Node3</title>
<polygon fill="none" stroke="#bfbfbf" points="67.5,-182.5 67.5,-239.5 96.5,-239.5 96.5,-182.5 67.5,-182.5"/>
<text text-anchor="middle" x="82" y="-227.5" font-family="Helvetica,sans-Serif" font-size="10.00" fill="#000000">int</text>
<polyline fill="none" stroke="#bfbfbf" points="67.5,-220.5 96.5,-220.5 "/>
<text text-anchor="middle" x="82" y="-208.5" font-family="Helvetica,sans-Serif" font-size="10.00" fill="#000000"> </text>
<polyline fill="none" stroke="#bfbfbf" points="67.5,-201.5 96.5,-201.5 "/>
<text text-anchor="middle" x="82" y="-189.5" font-family="Helvetica,sans-Serif" font-size="10.00" fill="#000000"> </text>
</g>
<!-- Node3&#45;&gt;Node1 -->
<g id="edge2" class="edge">
<title>Node3&#45;&gt;Node1</title>
<path fill="none" stroke="#404040" d="M82,-182.2713C82,-168.8656 82,-152.2317 82,-135.6537"/>
<polygon fill="none" stroke="#404040" points="82.0001,-135.6392 78,-129.6392 82,-123.6392 86,-129.6391 82.0001,-135.6392"/>
<text text-anchor="middle" x="103.5" y="-156" font-family="Helvetica,sans-Serif" font-size="10.00" fill="#000000"> +nbins</text>
<text text-anchor="middle" x="103.5" y="-145" font-family="Helvetica,sans-Serif" font-size="10.00" fill="#000000">+entries</text>
</g>
<!-- Node4 -->
<g id="node4" class="node">
<title>Node4</title>
<polygon fill="none" stroke="#bfbfbf" points="115,-182.5 115,-239.5 207,-239.5 207,-182.5 115,-182.5"/>
<text text-anchor="middle" x="161" y="-227.5" font-family="Helvetica,sans-Serif" font-size="10.00" fill="#000000">vector&lt; float &gt;</text>
<polyline fill="none" stroke="#bfbfbf" points="115,-220.5 207,-220.5 "/>
<text text-anchor="middle" x="161" y="-208.5" font-family="Helvetica,sans-Serif" font-size="10.00" fill="#000000"> </text>
<polyline fill="none" stroke="#bfbfbf" points="115,-201.5 207,-201.5 "/>
<text text-anchor="middle" x="161" y="-189.5" font-family="Helvetica,sans-Serif" font-size="10.00" fill="#000000"> </text>
</g>
<!-- Node4&#45;&gt;Node1 -->
<g id="edge3" class="edge">
<title>Node4&#45;&gt;Node1</title>
<path fill="none" stroke="#404040" d="M148.5319,-182.4992C142.848,-169.9439 135.8649,-155.0995 129,-142 127.6751,-139.4719 126.3085,-136.9105 124.9122,-134.3326"/>
<polygon fill="none" stroke="#404040" points="124.8339,-134.1906 118.4329,-130.8699 119.0363,-123.684 125.4373,-127.0048 124.8339,-134.1906"/>
<text text-anchor="middle" x="157" y="-150.5" font-family="Helvetica,sans-Serif" font-size="10.00" fill="#000000"> +histo</text>
</g>
</g>
</svg>
