<?xml version="1.0" encoding="UTF-8" standalone="no"?>
<!DOCTYPE svg PUBLIC "-//W3C//DTD SVG 1.1//EN"
 "http://www.w3.org/Graphics/SVG/1.1/DTD/svg11.dtd">
<!-- Generated by graphviz version 2.40.1 (20161225.0304)
 -->
<!-- Title: o2::eventgen::GeneratorTGenerator Pages: 1 -->
<!--zoomable 661 -->
<svg id="main" version="1.1" xmlns="http://www.w3.org/2000/svg" xmlns:xlink="http://www.w3.org/1999/xlink" xml:space="preserve" onload="init(evt)">
<style type="text/css"><![CDATA[
.edge:hover path { stroke: red; }
.edge:hover polygon { stroke: red; fill: red; }
]]></style>
<script type="text/javascript"><![CDATA[
var edges = document.getElementsByTagName('g');
if (edges && edges.length) {
  for (var i=0;i<edges.length;i++) {
    if (edges[i].id.substr(0,4)=='edge') {
      edges[i].setAttribute('class','edge');
    }
  }
}
]]></script>
        <defs>
                <circle id="rim" cx="0" cy="0" r="7"/>
                <circle id="rim2" cx="0" cy="0" r="3.5"/>
                <g id="zoomPlus">
                        <use xlink:href="#rim" fill="#404040">
                                <set attributeName="fill" to="#808080" begin="zoomplus.mouseover" end="zoomplus.mouseout"/>
                        </use>
                        <path d="M-4,0h8M0,-4v8" fill="none" stroke="white" stroke-width="1.5" pointer-events="none"/>
                </g>
                <g id="zoomMin">
                        <use xlink:href="#rim" fill="#404040">
                                <set attributeName="fill" to="#808080" begin="zoomminus.mouseover" end="zoomminus.mouseout"/>
                        </use>
                        <path d="M-4,0h8" fill="none" stroke="white" stroke-width="1.5" pointer-events="none"/>
                </g>
                <g id="dirArrow">
                        <path fill="none" stroke="white" stroke-width="1.5" d="M0,-3.0v7 M-2.5,-0.5L0,-3.0L2.5,-0.5"/>
                </g>
               <g id="resetDef">
                       <use xlink:href="#rim2" fill="#404040">
                               <set attributeName="fill" to="#808080" begin="reset.mouseover" end="reset.mouseout"/>
                       </use>
               </g>
        </defs>

<script type="text/javascript">
var viewWidth = 950;
var viewHeight = 661;
var sectionId = 'dynsection-1';
</script>
<script xlink:href="../../svgpan.js"/>
<svg id="graph" class="graph">
<g id="viewport">
<title>o2::eventgen::GeneratorTGenerator</title>
<!-- Node4 -->
<g id="node1" class="node">
<title>Node4</title>
<polygon fill="#bfbfbf" stroke="#000000" points="528.5,-.5 528.5,-167.5 718.5,-167.5 718.5,-.5 528.5,-.5"/>
<text text-anchor="middle" x="623.5" y="-155.5" font-family="Helvetica,sans-Serif" font-size="10.00" fill="#000000">o2::eventgen::GeneratorTGenerator</text>
<polyline fill="none" stroke="#000000" points="528.5,-148.5 718.5,-148.5 "/>
<text text-anchor="middle" x="623.5" y="-136.5" font-family="Helvetica,sans-Serif" font-size="10.00" fill="#000000"> </text>
<polyline fill="none" stroke="#000000" points="528.5,-129.5 718.5,-129.5 "/>
<text text-anchor="start" x="536.5" y="-117.5" font-family="Helvetica,sans-Serif" font-size="10.00" fill="#000000">+ GeneratorTGenerator()</text>
<text text-anchor="start" x="536.5" y="-106.5" font-family="Helvetica,sans-Serif" font-size="10.00" fill="#000000">+ GeneratorTGenerator()</text>
<text text-anchor="start" x="536.5" y="-95.5" font-family="Helvetica,sans-Serif" font-size="10.00" fill="#000000">+ ~GeneratorTGenerator()</text>
<text text-anchor="start" x="536.5" y="-84.5" font-family="Helvetica,sans-Serif" font-size="10.00" fill="#000000">+ setTGenerator()</text>
<text text-anchor="start" x="536.5" y="-73.5" font-family="Helvetica,sans-Serif" font-size="10.00" fill="#000000">+ getTGenerator()</text>
<text text-anchor="start" x="536.5" y="-62.5" font-family="Helvetica,sans-Serif" font-size="10.00" fill="#000000">+ Init()</text>
<text text-anchor="start" x="536.5" y="-51.5" font-family="Helvetica,sans-Serif" font-size="10.00" fill="#000000"># GeneratorTGenerator()</text>
<text text-anchor="start" x="536.5" y="-40.5" font-family="Helvetica,sans-Serif" font-size="10.00" fill="#000000"># operator=()</text>
<text text-anchor="start" x="536.5" y="-29.5" font-family="Helvetica,sans-Serif" font-size="10.00" fill="#000000"># generateEvent()</text>
<text text-anchor="start" x="536.5" y="-18.5" font-family="Helvetica,sans-Serif" font-size="10.00" fill="#000000"># importParticles()</text>
<text text-anchor="start" x="536.5" y="-7.5" font-family="Helvetica,sans-Serif" font-size="10.00" fill="#000000"># ClassDefOverride()</text>
</g>
<!-- Node5 -->
<g id="node2" class="node">
<title>Node5</title>
<g id="a_node2"><a xlink:href="../../d3/da7/classo2_1_1eventgen_1_1Generator.html" target="_top" xlink:title="{o2::eventgen::Generator\n||+ Generator()\l+ Generator()\l+ ~Generator()\l+ Init()\l+ ReadEvent()\l+ setMomentumUnit()\l+ setEnergyUnit()\l+ setPositionUnit()\l+ setTimeUnit()\l+ setBoost()\l+ setTriggerMode()\l+ addTrigger()\l+ addDeepTrigger()\l+ notifyEmbedding()\l# Generator()\l# operator=()\l# generateEvent()\l# importParticles()\l# updateHeader()\l# addTracks()\l# boostEvent()\l# triggerEvent()\l# ClassDefOverride()\l}">
<polygon fill="none" stroke="#000000" points="430,-215.5 430,-514.5 565,-514.5 565,-215.5 430,-215.5"/>
<text text-anchor="middle" x="497.5" y="-502.5" font-family="Helvetica,sans-Serif" font-size="10.00" fill="#000000">o2::eventgen::Generator</text>
<polyline fill="none" stroke="#000000" points="430,-495.5 565,-495.5 "/>
<text text-anchor="middle" x="497.5" y="-483.5" font-family="Helvetica,sans-Serif" font-size="10.00" fill="#000000"> </text>
<polyline fill="none" stroke="#000000" points="430,-476.5 565,-476.5 "/>
<text text-anchor="start" x="438" y="-464.5" font-family="Helvetica,sans-Serif" font-size="10.00" fill="#000000">+ Generator()</text>
<text text-anchor="start" x="438" y="-453.5" font-family="Helvetica,sans-Serif" font-size="10.00" fill="#000000">+ Generator()</text>
<text text-anchor="start" x="438" y="-442.5" font-family="Helvetica,sans-Serif" font-size="10.00" fill="#000000">+ ~Generator()</text>
<text text-anchor="start" x="438" y="-431.5" font-family="Helvetica,sans-Serif" font-size="10.00" fill="#000000">+ Init()</text>
<text text-anchor="start" x="438" y="-420.5" font-family="Helvetica,sans-Serif" font-size="10.00" fill="#000000">+ ReadEvent()</text>
<text text-anchor="start" x="438" y="-409.5" font-family="Helvetica,sans-Serif" font-size="10.00" fill="#000000">+ setMomentumUnit()</text>
<text text-anchor="start" x="438" y="-398.5" font-family="Helvetica,sans-Serif" font-size="10.00" fill="#000000">+ setEnergyUnit()</text>
<text text-anchor="start" x="438" y="-387.5" font-family="Helvetica,sans-Serif" font-size="10.00" fill="#000000">+ setPositionUnit()</text>
<text text-anchor="start" x="438" y="-376.5" font-family="Helvetica,sans-Serif" font-size="10.00" fill="#000000">+ setTimeUnit()</text>
<text text-anchor="start" x="438" y="-365.5" font-family="Helvetica,sans-Serif" font-size="10.00" fill="#000000">+ setBoost()</text>
<text text-anchor="start" x="438" y="-354.5" font-family="Helvetica,sans-Serif" font-size="10.00" fill="#000000">+ setTriggerMode()</text>
<text text-anchor="start" x="438" y="-343.5" font-family="Helvetica,sans-Serif" font-size="10.00" fill="#000000">+ addTrigger()</text>
<text text-anchor="start" x="438" y="-332.5" font-family="Helvetica,sans-Serif" font-size="10.00" fill="#000000">+ addDeepTrigger()</text>
<text text-anchor="start" x="438" y="-321.5" font-family="Helvetica,sans-Serif" font-size="10.00" fill="#000000">+ notifyEmbedding()</text>
<text text-anchor="start" x="438" y="-310.5" font-family="Helvetica,sans-Serif" font-size="10.00" fill="#000000"># Generator()</text>
<text text-anchor="start" x="438" y="-299.5" font-family="Helvetica,sans-Serif" font-size="10.00" fill="#000000"># operator=()</text>
<text text-anchor="start" x="438" y="-288.5" font-family="Helvetica,sans-Serif" font-size="10.00" fill="#000000"># generateEvent()</text>
<text text-anchor="start" x="438" y="-277.5" font-family="Helvetica,sans-Serif" font-size="10.00" fill="#000000"># importParticles()</text>
<text text-anchor="start" x="438" y="-266.5" font-family="Helvetica,sans-Serif" font-size="10.00" fill="#000000"># updateHeader()</text>
<text text-anchor="start" x="438" y="-255.5" font-family="Helvetica,sans-Serif" font-size="10.00" fill="#000000"># addTracks()</text>
<text text-anchor="start" x="438" y="-244.5" font-family="Helvetica,sans-Serif" font-size="10.00" fill="#000000"># boostEvent()</text>
<text text-anchor="start" x="438" y="-233.5" font-family="Helvetica,sans-Serif" font-size="10.00" fill="#000000"># triggerEvent()</text>
<text text-anchor="start" x="438" y="-222.5" font-family="Helvetica,sans-Serif" font-size="10.00" fill="#000000"># ClassDefOverride()</text>
</a>
</g>
</g>
<!-- Node5&#45;&gt;Node4 -->
<g id="edge1" class="edge">
<title>Node5&#45;&gt;Node4</title>
<path fill="none" stroke="#191970" d="M568.68,-206.2574C574.6149,-193.0215 580.4513,-180.0053 585.9738,-167.6895"/>
<polygon fill="none" stroke="#191970" points="565.456,-204.8932 564.558,-215.4499 571.8432,-207.7573 565.456,-204.8932"/>
</g>
<!-- Node6 -->
<g id="node3" class="node">
<title>Node6</title>
<g id="a_node3"><a xlink:href="../../df/d40/classFairGenerator.html" target="_top" xlink:title="{FairGenerator\n||}">
<polygon fill="none" stroke="#000000" points="0,-595.5 0,-652.5 83,-652.5 83,-595.5 0,-595.5"/>
<text text-anchor="middle" x="41.5" y="-640.5" font-family="Helvetica,sans-Serif" font-size="10.00" fill="#000000">FairGenerator</text>
<polyline fill="none" stroke="#000000" points="0,-633.5 83,-633.5 "/>
<text text-anchor="middle" x="41.5" y="-621.5" font-family="Helvetica,sans-Serif" font-size="10.00" fill="#000000"> </text>
<polyline fill="none" stroke="#000000" points="0,-614.5 83,-614.5 "/>
<text text-anchor="middle" x="41.5" y="-602.5" font-family="Helvetica,sans-Serif" font-size="10.00" fill="#000000"> </text>
</a>
</g>
</g>
<!-- Node6&#45;&gt;Node5 -->
<g id="edge2" class="edge">
<title>Node6&#45;&gt;Node5</title>
<path fill="none" stroke="#191970" d="M87.2271,-589.389C111.4324,-571.6775 141.9785,-550.2707 170.5,-533 257.4437,-480.3528 362.7569,-428.1949 429.9406,-396.2905"/>
<polygon fill="none" stroke="#191970" points="84.9219,-586.7398 78.9436,-595.4868 89.0718,-592.3771 84.9219,-586.7398"/>
</g>
<!-- Node7 -->
<g id="node4" class="node">
<title>Node7</title>
<polygon fill="none" stroke="#bfbfbf" points="101.5,-595.5 101.5,-652.5 213.5,-652.5 213.5,-595.5 101.5,-595.5"/>
<text text-anchor="middle" x="157.5" y="-640.5" font-family="Helvetica,sans-Serif" font-size="10.00" fill="#000000">vector&lt; TParticle &gt;</text>
<polyline fill="none" stroke="#bfbfbf" points="101.5,-633.5 213.5,-633.5 "/>
<text text-anchor="middle" x="157.5" y="-621.5" font-family="Helvetica,sans-Serif" font-size="10.00" fill="#000000"> </text>
<polyline fill="none" stroke="#bfbfbf" points="101.5,-614.5 213.5,-614.5 "/>
<text text-anchor="middle" x="157.5" y="-602.5" font-family="Helvetica,sans-Serif" font-size="10.00" fill="#000000"> </text>
</g>
<!-- Node7&#45;&gt;Node5 -->
<g id="edge3" class="edge">
<title>Node7&#45;&gt;Node5</title>
<path fill="none" stroke="#404040" d="M166.7315,-595.0988C174.0388,-575.7547 185.8115,-550.6935 202.5,-533 263.0624,-468.7906 353.7217,-422.2128 418.5394,-394.6115"/>
<polygon fill="none" stroke="#404040" points="418.8541,-394.4798 422.8437,-388.4729 429.9231,-389.8454 425.9334,-395.8522 418.8541,-394.4798"/>
<text text-anchor="middle" x="234" y="-552.5" font-family="Helvetica,sans-Serif" font-size="10.00" fill="#000000"> #mParticles</text>
</g>
<!-- Node8 -->
<g id="node5" class="node">
<title>Node8</title>
<polygon fill="none" stroke="#bfbfbf" points="231.5,-595.5 231.5,-652.5 281.5,-652.5 281.5,-595.5 231.5,-595.5"/>
<text text-anchor="middle" x="256.5" y="-640.5" font-family="Helvetica,sans-Serif" font-size="10.00" fill="#000000">double</text>
<polyline fill="none" stroke="#bfbfbf" points="231.5,-633.5 281.5,-633.5 "/>
<text text-anchor="middle" x="256.5" y="-621.5" font-family="Helvetica,sans-Serif" font-size="10.00" fill="#000000"> </text>
<polyline fill="none" stroke="#bfbfbf" points="231.5,-614.5 281.5,-614.5 "/>
<text text-anchor="middle" x="256.5" y="-602.5" font-family="Helvetica,sans-Serif" font-size="10.00" fill="#000000"> </text>
</g>
<!-- Node8&#45;&gt;Node5 -->
<g id="edge4" class="edge">
<title>Node8&#45;&gt;Node5</title>
<path fill="none" stroke="#404040" d="M262.5953,-595.4409C267.6186,-576.4869 276.1295,-551.7431 289.5,-533 324.1376,-484.4443 376.4046,-442.3077 419.8779,-412.3787"/>
<polygon fill="none" stroke="#404040" points="419.9311,-412.3426 422.6534,-405.6651 429.8643,-405.6097 427.142,-412.2872 419.9311,-412.3426"/>
<text text-anchor="middle" x="336.5" y="-569" font-family="Helvetica,sans-Serif" font-size="10.00" fill="#000000"> #mTimeUnit</text>
<text text-anchor="middle" x="336.5" y="-558" font-family="Helvetica,sans-Serif" font-size="10.00" fill="#000000">#mEnergyUnit</text>
<text text-anchor="middle" x="336.5" y="-547" font-family="Helvetica,sans-Serif" font-size="10.00" fill="#000000">#mPositionUnit</text>
<text text-anchor="middle" x="336.5" y="-536" font-family="Helvetica,sans-Serif" font-size="10.00" fill="#000000">#mMomentumUnit</text>
</g>
<!-- Node9 -->
<g id="node6" class="node">
<title>Node9</title>
<polygon fill="none" stroke="#bfbfbf" points="299.5,-595.5 299.5,-652.5 427.5,-652.5 427.5,-595.5 299.5,-595.5"/>
<text text-anchor="middle" x="363.5" y="-640.5" font-family="Helvetica,sans-Serif" font-size="10.00" fill="#000000">vector&lt; DeepTrigger &gt;</text>
<polyline fill="none" stroke="#bfbfbf" points="299.5,-633.5 427.5,-633.5 "/>
<text text-anchor="middle" x="363.5" y="-621.5" font-family="Helvetica,sans-Serif" font-size="10.00" fill="#000000"> </text>
<polyline fill="none" stroke="#bfbfbf" points="299.5,-614.5 427.5,-614.5 "/>
<text text-anchor="middle" x="363.5" y="-602.5" font-family="Helvetica,sans-Serif" font-size="10.00" fill="#000000"> </text>
</g>
<!-- Node9&#45;&gt;Node5 -->
<g id="edge5" class="edge">
<title>Node9&#45;&gt;Node5</title>
<path fill="none" stroke="#404040" d="M377.4829,-595.2077C386.2645,-577.2551 397.8973,-553.7081 408.5,-533 413.5798,-523.0786 418.8681,-512.8515 424.2215,-502.5717"/>
<polygon fill="none" stroke="#404040" points="424.2648,-502.4887 423.4954,-495.3187 429.8179,-491.8508 430.5873,-499.0208 424.2648,-502.4887"/>
<text text-anchor="middle" x="451" y="-552.5" font-family="Helvetica,sans-Serif" font-size="10.00" fill="#000000"> #mDeepTriggers</text>
</g>
<!-- Node10 -->
<g id="node7" class="node">
<title>Node10</title>
<polygon fill="none" stroke="#bfbfbf" points="446,-595.5 446,-652.5 549,-652.5 549,-595.5 446,-595.5"/>
<text text-anchor="middle" x="497.5" y="-640.5" font-family="Helvetica,sans-Serif" font-size="10.00" fill="#000000">vector&lt; Trigger &gt;</text>
<polyline fill="none" stroke="#bfbfbf" points="446,-633.5 549,-633.5 "/>
<text text-anchor="middle" x="497.5" y="-621.5" font-family="Helvetica,sans-Serif" font-size="10.00" fill="#000000"> </text>
<polyline fill="none" stroke="#bfbfbf" points="446,-614.5 549,-614.5 "/>
<text text-anchor="middle" x="497.5" y="-602.5" font-family="Helvetica,sans-Serif" font-size="10.00" fill="#000000"> </text>
</g>
<!-- Node10&#45;&gt;Node5 -->
<g id="edge6" class="edge">
<title>Node10&#45;&gt;Node5</title>
<path fill="none" stroke="#404040" d="M497.5,-595.2929C497.5,-577.5325 497.5,-553.1529 497.5,-526.8727"/>
<polygon fill="none" stroke="#404040" points="497.5001,-526.6812 493.5,-520.6813 497.5,-514.6812 501.5,-520.6812 497.5001,-526.6812"/>
<text text-anchor="middle" x="527.5" y="-552.5" font-family="Helvetica,sans-Serif" font-size="10.00" fill="#000000"> #mTriggers</text>
</g>
<!-- Node11 -->
<g id="node8" class="node">
<title>Node11</title>
<polygon fill="none" stroke="#bfbfbf" points="567.5,-595.5 567.5,-652.5 627.5,-652.5 627.5,-595.5 567.5,-595.5"/>
<text text-anchor="middle" x="597.5" y="-640.5" font-family="Helvetica,sans-Serif" font-size="10.00" fill="#000000">Double_t</text>
<polyline fill="none" stroke="#bfbfbf" points="567.5,-633.5 627.5,-633.5 "/>
<text text-anchor="middle" x="597.5" y="-621.5" font-family="Helvetica,sans-Serif" font-size="10.00" fill="#000000"> </text>
<polyline fill="none" stroke="#bfbfbf" points="567.5,-614.5 627.5,-614.5 "/>
<text text-anchor="middle" x="597.5" y="-602.5" font-family="Helvetica,sans-Serif" font-size="10.00" fill="#000000"> </text>
</g>
<!-- Node11&#45;&gt;Node5 -->
<g id="edge7" class="edge">
<title>Node11&#45;&gt;Node5</title>
<path fill="none" stroke="#404040" d="M586.4162,-595.2929C579.4971,-577.3725 569.9761,-552.7131 559.7247,-526.162"/>
<polygon fill="none" stroke="#404040" points="559.6143,-525.8758 553.7216,-521.7193 555.292,-514.6812 561.1846,-518.8377 559.6143,-525.8758"/>
<text text-anchor="middle" x="603" y="-552.5" font-family="Helvetica,sans-Serif" font-size="10.00" fill="#000000"> #mBoost</text>
</g>
<!-- Node12 -->
<g id="node9" class="node">
<title>Node12</title>
<polygon fill="none" stroke="#bfbfbf" points="646,-595.5 646,-652.5 675,-652.5 675,-595.5 646,-595.5"/>
<text text-anchor="middle" x="660.5" y="-640.5" font-family="Helvetica,sans-Serif" font-size="10.00" fill="#000000">int</text>
<polyline fill="none" stroke="#bfbfbf" points="646,-633.5 675,-633.5 "/>
<text text-anchor="middle" x="660.5" y="-621.5" font-family="Helvetica,sans-Serif" font-size="10.00" fill="#000000"> </text>
<polyline fill="none" stroke="#bfbfbf" points="646,-614.5 675,-614.5 "/>
<text text-anchor="middle" x="660.5" y="-602.5" font-family="Helvetica,sans-Serif" font-size="10.00" fill="#000000"> </text>
</g>
<!-- Node12&#45;&gt;Node5 -->
<g id="edge8" class="edge">
<title>Node12&#45;&gt;Node5</title>
<path fill="none" stroke="#404040" d="M658.2229,-595.403C655.17,-575.4392 648.0538,-549.5103 631.5,-533 612.69,-514.2394 594.7985,-532.1391 574.5,-515 574.3987,-514.9144 574.2974,-514.8287 574.1963,-514.7428"/>
<polygon fill="none" stroke="#404040" points="573.9112,-514.4774 566.7942,-513.3163 565.1286,-506.3002 572.2457,-507.4612 573.9112,-514.4774"/>
<text text-anchor="middle" x="700.5" y="-552.5" font-family="Helvetica,sans-Serif" font-size="10.00" fill="#000000"> #mInterfaceName</text>
</g>
<!-- Node13 -->
<g id="node10" class="node">
<title>Node13</title>
<polygon fill="none" stroke="#bfbfbf" points="728,-595.5 728,-652.5 819,-652.5 819,-595.5 728,-595.5"/>
<text text-anchor="middle" x="773.5" y="-640.5" font-family="Helvetica,sans-Serif" font-size="10.00" fill="#000000">ETriggerMode_t</text>
<polyline fill="none" stroke="#bfbfbf" points="728,-633.5 819,-633.5 "/>
<text text-anchor="middle" x="773.5" y="-621.5" font-family="Helvetica,sans-Serif" font-size="10.00" fill="#000000"> </text>
<polyline fill="none" stroke="#bfbfbf" points="728,-614.5 819,-614.5 "/>
<text text-anchor="middle" x="773.5" y="-602.5" font-family="Helvetica,sans-Serif" font-size="10.00" fill="#000000"> </text>
</g>
<!-- Node13&#45;&gt;Node5 -->
<g id="edge9" class="edge">
<title>Node13&#45;&gt;Node5</title>
<path fill="none" stroke="#404040" d="M774.6613,-595.3939C773.8252,-574.8853 769.0129,-548.2817 751.5,-533 723.9797,-508.9858 624.1143,-533.0023 575.8978,-513.5459"/>
<polygon fill="none" stroke="#404040" points="575.6869,-513.4336 568.511,-514.1454 565.094,-507.7952 572.2699,-507.0835 575.6869,-513.4336"/>
<text text-anchor="middle" x="813" y="-552.5" font-family="Helvetica,sans-Serif" font-size="10.00" fill="#000000"> #mTriggerMode</text>
</g>
<!-- Node14 -->
<g id="node11" class="node">
<title>Node14</title>
<polygon fill="none" stroke="#bfbfbf" points="854.5,-595.5 854.5,-652.5 900.5,-652.5 900.5,-595.5 854.5,-595.5"/>
<text text-anchor="middle" x="877.5" y="-640.5" font-family="Helvetica,sans-Serif" font-size="10.00" fill="#000000">void *</text>
<polyline fill="none" stroke="#bfbfbf" points="854.5,-633.5 900.5,-633.5 "/>
<text text-anchor="middle" x="877.5" y="-621.5" font-family="Helvetica,sans-Serif" font-size="10.00" fill="#000000"> </text>
<polyline fill="none" stroke="#bfbfbf" points="854.5,-614.5 900.5,-614.5 "/>
<text text-anchor="middle" x="877.5" y="-602.5" font-family="Helvetica,sans-Serif" font-size="10.00" fill="#000000"> </text>
</g>
<!-- Node14&#45;&gt;Node5 -->
<g id="edge10" class="edge">
<title>Node14&#45;&gt;Node5</title>
<path fill="none" stroke="#404040" d="M878.8265,-595.201C878.0746,-574.594 873.2954,-547.9518 855.5,-533 810.1192,-494.8708 645.5261,-543.6088 576.0107,-513.9503"/>
<polygon fill="none" stroke="#404040" points="575.906,-513.8944 568.729,-514.595 565.3219,-508.2396 572.4989,-507.5389 575.906,-513.8944"/>
<text text-anchor="middle" x="909" y="-552.5" font-family="Helvetica,sans-Serif" font-size="10.00" fill="#000000"> #mInterface</text>
</g>
<!-- Node15 -->
<g id="node12" class="node">
<title>Node15</title>
<polygon fill="none" stroke="#bfbfbf" points="583.5,-336.5 583.5,-393.5 663.5,-393.5 663.5,-336.5 583.5,-336.5"/>
<text text-anchor="middle" x="623.5" y="-381.5" font-family="Helvetica,sans-Serif" font-size="10.00" fill="#000000">TGenerator *</text>
<polyline fill="none" stroke="#bfbfbf" points="583.5,-374.5 663.5,-374.5 "/>
<text text-anchor="middle" x="623.5" y="-362.5" font-family="Helvetica,sans-Serif" font-size="10.00" fill="#000000"> </text>
<polyline fill="none" stroke="#bfbfbf" points="583.5,-355.5 663.5,-355.5 "/>
<text text-anchor="middle" x="623.5" y="-343.5" font-family="Helvetica,sans-Serif" font-size="10.00" fill="#000000"> </text>
</g>
<!-- Node15&#45;&gt;Node4 -->
<g id="edge11" class="edge">
<title>Node15&#45;&gt;Node4</title>
<path fill="none" stroke="#404040" d="M623.5,-336.2486C623.5,-299.7066 623.5,-234.7836 623.5,-179.9553"/>
<polygon fill="none" stroke="#404040" points="623.5001,-179.7051 619.5,-173.7051 623.5,-167.7051 627.5,-173.705 623.5001,-179.7051"/>
<text text-anchor="middle" x="661.5" y="-189" font-family="Helvetica,sans-Serif" font-size="10.00" fill="#000000"> #mTGenerator</text>
</g>
<!-- Node16 -->
<g id="node13" class="node">
<title>Node16</title>
<polygon fill="none" stroke="#bfbfbf" points="682,-336.5 682,-393.5 771,-393.5 771,-336.5 682,-336.5"/>
<text text-anchor="middle" x="726.5" y="-381.5" font-family="Helvetica,sans-Serif" font-size="10.00" fill="#000000">TClonesArray *</text>
<polyline fill="none" stroke="#bfbfbf" points="682,-374.5 771,-374.5 "/>
<text text-anchor="middle" x="726.5" y="-362.5" font-family="Helvetica,sans-Serif" font-size="10.00" fill="#000000"> </text>
<polyline fill="none" stroke="#bfbfbf" points="682,-355.5 771,-355.5 "/>
<text text-anchor="middle" x="726.5" y="-343.5" font-family="Helvetica,sans-Serif" font-size="10.00" fill="#000000"> </text>
</g>
<!-- Node16&#45;&gt;Node4 -->
<g id="edge12" class="edge">
<title>Node16&#45;&gt;Node4</title>
<path fill="none" stroke="#404040" d="M727.4164,-336.2046C727.5575,-299.7969 724.3701,-235.8555 703.5,-186 702.4409,-183.4699 701.3013,-180.9495 700.0913,-178.4437"/>
<polygon fill="none" stroke="#404040" points="699.9546,-178.184 693.6206,-174.7372 694.3661,-167.5647 700.7001,-171.0115 699.9546,-178.184"/>
<text text-anchor="middle" x="752" y="-189" font-family="Helvetica,sans-Serif" font-size="10.00" fill="#000000"> #mCloneParticles</text>
</g>
</g>
</svg>
        <g id="navigator" transform="translate(0 0)" fill="#404254">
                <rect fill="#f2f5e9" fill-opacity="0.5" stroke="#606060" stroke-width=".5" x="0" y="0" width="60" height="60"/>
                <use id="zoomplus" xlink:href="#zoomPlus" x="17" y="9" onmousedown="handleZoom(evt,'in')"/>
                <use id="zoomminus" xlink:href="#zoomMin" x="42" y="9" onmousedown="handleZoom(evt,'out')"/>
                <use id="reset" xlink:href="#resetDef" x="30" y="36" onmousedown="handleReset()"/>
                <g id="arrowUp" xlink:href="#dirArrow" transform="translate(30 24)" onmousedown="handlePan(0,-1)">
                  <use xlink:href="#rim" fill="#404040">
                        <set attributeName="fill" to="#808080" begin="arrowUp.mouseover" end="arrowUp.mouseout"/>
                  </use>
                  <path fill="none" stroke="white" stroke-width="1.5" d="M0,-3.0v7 M-2.5,-0.5L0,-3.0L2.5,-0.5"/>
                </g>
                <g id="arrowRight" xlink:href="#dirArrow" transform="rotate(90) translate(36 -43)" onmousedown="handlePan(1,0)">
                  <use xlink:href="#rim" fill="#404040">
                        <set attributeName="fill" to="#808080" begin="arrowRight.mouseover" end="arrowRight.mouseout"/>
                  </use>
                  <path fill="none" stroke="white" stroke-width="1.5" d="M0,-3.0v7 M-2.5,-0.5L0,-3.0L2.5,-0.5"/>
                </g>
                <g id="arrowDown" xlink:href="#dirArrow" transform="rotate(180) translate(-30 -48)" onmousedown="handlePan(0,1)">
                  <use xlink:href="#rim" fill="#404040">
                        <set attributeName="fill" to="#808080" begin="arrowDown.mouseover" end="arrowDown.mouseout"/>
                  </use>
                  <path fill="none" stroke="white" stroke-width="1.5" d="M0,-3.0v7 M-2.5,-0.5L0,-3.0L2.5,-0.5"/>
                </g>
                <g id="arrowLeft" xlink:href="#dirArrow" transform="rotate(270) translate(-36 17)" onmousedown="handlePan(-1,0)">
                  <use xlink:href="#rim" fill="#404040">
                        <set attributeName="fill" to="#808080" begin="arrowLeft.mouseover" end="arrowLeft.mouseout"/>
                  </use>
                  <path fill="none" stroke="white" stroke-width="1.5" d="M0,-3.0v7 M-2.5,-0.5L0,-3.0L2.5,-0.5"/>
                </g>
        </g>
        <svg viewBox="0 0 15 15" width="100%" height="30px" preserveAspectRatio="xMaxYMin meet">
         <g id="arrow_out" transform="scale(0.3 0.3)">
          <a xlink:href="classo2_1_1eventgen_1_1GeneratorTGenerator__coll__graph_org.svg" target="_base">
           <rect id="button" ry="5" rx="5" y="6" x="6" height="38" width="38"
                fill="#f2f5e9" fill-opacity="0.5" stroke="#606060" stroke-width="1.0"/>
           <path id="arrow"
             d="M 11.500037,31.436501 C 11.940474,20.09759 22.043105,11.32322 32.158766,21.979434 L 37.068811,17.246167 C 37.068811,17.246167 37.088388,32 37.088388,32 L 22.160133,31.978069 C 22.160133,31.978069 26.997745,27.140456 26.997745,27.140456 C 18.528582,18.264221 13.291696,25.230495 11.500037,31.436501 z"
             style="fill:#404040;"/>
          </a>
         </g>
        </svg>
</svg>
