<?xml version="1.0" encoding="UTF-8" standalone="no"?>
<!DOCTYPE svg PUBLIC "-//W3C//DTD SVG 1.1//EN"
 "http://www.w3.org/Graphics/SVG/1.1/DTD/svg11.dtd">
<!-- Generated by graphviz version 2.40.1 (20161225.0304)
 -->
<!-- Title: /home/travis/build/AliceO2Group/AliceO2/Framework/Core/src/SourceInfoHeader.cxx Pages: 1 -->
<svg width="798pt" height="229pt"
 viewBox="0.00 0.00 798.00 229.00" xmlns="http://www.w3.org/2000/svg" xmlns:xlink="http://www.w3.org/1999/xlink">
<g id="graph0" class="graph" transform="scale(1 1) rotate(0) translate(4 225)">
<title>/home/travis/build/AliceO2Group/AliceO2/Framework/Core/src/SourceInfoHeader.cxx</title>
<!-- Node0 -->
<g id="node1" class="node">
<title>Node0</title>
<polygon fill="#bfbfbf" stroke="#000000" points="164.5,-168.5 164.5,-220.5 335.5,-220.5 335.5,-168.5 164.5,-168.5"/>
<text text-anchor="start" x="172.5" y="-208.5" font-family="Helvetica,sans-Serif" font-size="10.00" fill="#000000">/home/travis/build</text>
<text text-anchor="start" x="172.5" y="-197.5" font-family="Helvetica,sans-Serif" font-size="10.00" fill="#000000">/AliceO2Group/AliceO2</text>
<text text-anchor="start" x="172.5" y="-186.5" font-family="Helvetica,sans-Serif" font-size="10.00" fill="#000000">/Framework/Core/src/SourceInfo</text>
<text text-anchor="middle" x="250" y="-175.5" font-family="Helvetica,sans-Serif" font-size="10.00" fill="#000000">Header.cxx</text>
</g>
<!-- Node1 -->
<g id="node2" class="node">
<title>Node1</title>
<g id="a_node2"><a xlink:href="../../db/d11/SourceInfoHeader_8h.html" target="_top" xlink:title="Framework/SourceInfoHeader.h">
<polygon fill="none" stroke="#000000" points="109.5,-112.5 109.5,-131.5 278.5,-131.5 278.5,-112.5 109.5,-112.5"/>
<text text-anchor="middle" x="194" y="-119.5" font-family="Helvetica,sans-Serif" font-size="10.00" fill="#000000">Framework/SourceInfoHeader.h</text>
</a>
</g>
</g>
<!-- Node0&#45;&gt;Node1 -->
<g id="edge1" class="edge">
<title>Node0&#45;&gt;Node1</title>
<path fill="none" stroke="#191970" d="M229.7827,-168.3258C222.435,-158.8132 214.3107,-148.2951 207.6629,-139.6886"/>
<polygon fill="#191970" stroke="#191970" points="210.2471,-137.3085 201.3642,-131.534 204.7072,-141.5876 210.2471,-137.3085"/>
</g>
<!-- Node2 -->
<g id="node3" class="node">
<title>Node2</title>
<g id="a_node3"><a xlink:href="../../dc/dcd/DataHeader_8h.html" target="_top" xlink:title="Headers/DataHeader.h">
<polygon fill="none" stroke="#000000" points="242.5,-56.5 242.5,-75.5 369.5,-75.5 369.5,-56.5 242.5,-56.5"/>
<text text-anchor="middle" x="306" y="-63.5" font-family="Helvetica,sans-Serif" font-size="10.00" fill="#000000">Headers/DataHeader.h</text>
</a>
</g>
</g>
<!-- Node0&#45;&gt;Node2 -->
<g id="edge19" class="edge">
<title>Node0&#45;&gt;Node2</title>
<path fill="none" stroke="#191970" d="M267.5788,-168.2181C274.3131,-157.3389 281.654,-144.3879 287,-132 293.4962,-116.9469 298.4953,-99.024 301.7315,-85.6567"/>
<polygon fill="#191970" stroke="#191970" points="305.1995,-86.1927 304.0293,-75.6627 298.3775,-84.6241 305.1995,-86.1927"/>
</g>
<!-- Node1&#45;&gt;Node2 -->
<g id="edge2" class="edge">
<title>Node1&#45;&gt;Node2</title>
<path fill="none" stroke="#191970" d="M213.2535,-112.3733C231.0712,-103.4644 257.7747,-90.1127 277.9594,-80.0203"/>
<polygon fill="#191970" stroke="#191970" points="279.6187,-83.1038 286.9978,-75.5011 276.4882,-76.8428 279.6187,-83.1038"/>
</g>
<!-- Node3 -->
<g id="node4" class="node">
<title>Node3</title>
<polygon fill="none" stroke="#bfbfbf" points="0,-.5 0,-19.5 50,-19.5 50,-.5 0,-.5"/>
<text text-anchor="middle" x="25" y="-7.5" font-family="Helvetica,sans-Serif" font-size="10.00" fill="#000000">cstdint</text>
</g>
<!-- Node1&#45;&gt;Node3 -->
<g id="edge15" class="edge">
<title>Node1&#45;&gt;Node3</title>
<path fill="none" stroke="#191970" d="M179.5912,-112.4509C150.2815,-93.0268 83.5017,-48.7703 48.0708,-25.2895"/>
<polygon fill="#191970" stroke="#191970" points="49.6415,-22.1317 39.3724,-19.5249 45.7745,-27.9666 49.6415,-22.1317"/>
</g>
<!-- Node4 -->
<g id="node5" class="node">
<title>Node4</title>
<polygon fill="none" stroke="#bfbfbf" points="68,-.5 68,-19.5 126,-19.5 126,-.5 68,-.5"/>
<text text-anchor="middle" x="97" y="-7.5" font-family="Helvetica,sans-Serif" font-size="10.00" fill="#000000">memory</text>
</g>
<!-- Node1&#45;&gt;Node4 -->
<g id="edge17" class="edge">
<title>Node1&#45;&gt;Node4</title>
<path fill="none" stroke="#191970" d="M185.7298,-112.4509C169.3366,-93.5227 132.5211,-51.014 111.834,-27.1279"/>
<polygon fill="#191970" stroke="#191970" points="114.4417,-24.7927 105.2492,-19.5249 109.1503,-29.3754 114.4417,-24.7927"/>
</g>
<!-- Node5 -->
<g id="node6" class="node">
<title>Node5</title>
<polygon fill="none" stroke="#bfbfbf" points="144,-.5 144,-19.5 196,-19.5 196,-.5 144,-.5"/>
<text text-anchor="middle" x="170" y="-7.5" font-family="Helvetica,sans-Serif" font-size="10.00" fill="#000000">cassert</text>
</g>
<!-- Node1&#45;&gt;Node5 -->
<g id="edge18" class="edge">
<title>Node1&#45;&gt;Node5</title>
<path fill="none" stroke="#191970" d="M191.9538,-112.4509C188.0217,-94.1013 179.3409,-53.5908 174.1506,-29.3693"/>
<polygon fill="#191970" stroke="#191970" points="177.5587,-28.5695 172.041,-19.5249 170.7141,-30.0363 177.5587,-28.5695"/>
</g>
<!-- Node13 -->
<g id="node14" class="node">
<title>Node13</title>
<g id="a_node14"><a xlink:href="../../dd/de5/ChannelInfo_8h.html" target="_top" xlink:title="Framework/ChannelInfo.h">
<polygon fill="none" stroke="#000000" points="387.5,-56.5 387.5,-75.5 528.5,-75.5 528.5,-56.5 387.5,-56.5"/>
<text text-anchor="middle" x="458" y="-63.5" font-family="Helvetica,sans-Serif" font-size="10.00" fill="#000000">Framework/ChannelInfo.h</text>
</a>
</g>
</g>
<!-- Node1&#45;&gt;Node13 -->
<g id="edge13" class="edge">
<title>Node1&#45;&gt;Node13</title>
<path fill="none" stroke="#191970" d="M239.0833,-112.4369C284.4546,-102.8127 354.4886,-87.957 403.0766,-77.6504"/>
<polygon fill="#191970" stroke="#191970" points="404.0466,-81.0226 413.1027,-75.5237 402.5941,-74.175 404.0466,-81.0226"/>
</g>
<!-- Node14 -->
<g id="node15" class="node">
<title>Node14</title>
<polygon fill="none" stroke="#bfbfbf" points="547,-56.5 547,-75.5 593,-75.5 593,-56.5 547,-56.5"/>
<text text-anchor="middle" x="570" y="-63.5" font-family="Helvetica,sans-Serif" font-size="10.00" fill="#000000">cstdio</text>
</g>
<!-- Node1&#45;&gt;Node14 -->
<g id="edge16" class="edge">
<title>Node1&#45;&gt;Node14</title>
<path fill="none" stroke="#191970" d="M278.8188,-114.7111C346.4831,-107.9632 443.7198,-96.1839 536.836,-75.9613"/>
<polygon fill="#191970" stroke="#191970" points="537.6947,-79.3561 546.7049,-73.7824 536.1855,-72.5207 537.6947,-79.3561"/>
</g>
<!-- Node2&#45;&gt;Node3 -->
<g id="edge3" class="edge">
<title>Node2&#45;&gt;Node3</title>
<path fill="none" stroke="#191970" d="M245.2387,-56.4597C197.3715,-48.5395 128.7888,-36.302 60.2792,-20.1294"/>
<polygon fill="#191970" stroke="#191970" points="60.7138,-16.6348 50.1742,-17.7147 59.0869,-23.4431 60.7138,-16.6348"/>
</g>
<!-- Node2&#45;&gt;Node4 -->
<g id="edge4" class="edge">
<title>Node2&#45;&gt;Node4</title>
<path fill="none" stroke="#191970" d="M270.0716,-56.3733C232.6807,-46.3546 174.3196,-30.7172 135.8712,-20.4153"/>
<polygon fill="#191970" stroke="#191970" points="136.6351,-16.9965 126.07,-17.7891 134.8234,-23.758 136.6351,-16.9965"/>
</g>
<!-- Node2&#45;&gt;Node5 -->
<g id="edge5" class="edge">
<title>Node2&#45;&gt;Node5</title>
<path fill="none" stroke="#191970" d="M282.6208,-56.3733C260.4955,-47.2629 227.0866,-33.5062 202.3981,-23.3404"/>
<polygon fill="#191970" stroke="#191970" points="203.6536,-20.0723 193.0742,-19.5011 200.9883,-26.5451 203.6536,-20.0723"/>
</g>
<!-- Node6 -->
<g id="node7" class="node">
<title>Node6</title>
<polygon fill="none" stroke="#bfbfbf" points="214,-.5 214,-19.5 264,-19.5 264,-.5 214,-.5"/>
<text text-anchor="middle" x="239" y="-7.5" font-family="Helvetica,sans-Serif" font-size="10.00" fill="#000000">cstring</text>
</g>
<!-- Node2&#45;&gt;Node6 -->
<g id="edge6" class="edge">
<title>Node2&#45;&gt;Node6</title>
<path fill="none" stroke="#191970" d="M294.3295,-56.2455C284.4339,-47.9746 270.0373,-35.9416 258.4099,-26.2232"/>
<polygon fill="#191970" stroke="#191970" points="260.4542,-23.3703 250.5368,-19.6427 255.965,-28.7413 260.4542,-23.3703"/>
</g>
<!-- Node7 -->
<g id="node8" class="node">
<title>Node7</title>
<polygon fill="none" stroke="#bfbfbf" points="282,-.5 282,-19.5 346,-19.5 346,-.5 282,-.5"/>
<text text-anchor="middle" x="314" y="-7.5" font-family="Helvetica,sans-Serif" font-size="10.00" fill="#000000">algorithm</text>
</g>
<!-- Node2&#45;&gt;Node7 -->
<g id="edge7" class="edge">
<title>Node2&#45;&gt;Node7</title>
<path fill="none" stroke="#191970" d="M307.3935,-56.2455C308.4374,-48.9382 309.9008,-38.6944 311.1851,-29.7046"/>
<polygon fill="#191970" stroke="#191970" points="314.673,-30.0372 312.6225,-19.6427 307.7434,-29.0472 314.673,-30.0372"/>
</g>
<!-- Node8 -->
<g id="node9" class="node">
<title>Node8</title>
<polygon fill="none" stroke="#bfbfbf" points="364.5,-.5 364.5,-19.5 429.5,-19.5 429.5,-.5 364.5,-.5"/>
<text text-anchor="middle" x="397" y="-7.5" font-family="Helvetica,sans-Serif" font-size="10.00" fill="#000000">stdexcept</text>
</g>
<!-- Node2&#45;&gt;Node8 -->
<g id="edge8" class="edge">
<title>Node2&#45;&gt;Node8</title>
<path fill="none" stroke="#191970" d="M321.851,-56.2455C335.8132,-47.6534 356.3728,-35.0014 372.4596,-25.1018"/>
<polygon fill="#191970" stroke="#191970" points="374.6484,-27.8645 381.3307,-19.6427 370.9797,-21.9029 374.6484,-27.8645"/>
</g>
<!-- Node9 -->
<g id="node10" class="node">
<title>Node9</title>
<polygon fill="none" stroke="#bfbfbf" points="746,-.5 746,-19.5 790,-19.5 790,-.5 746,-.5"/>
<text text-anchor="middle" x="768" y="-7.5" font-family="Helvetica,sans-Serif" font-size="10.00" fill="#000000">string</text>
</g>
<!-- Node2&#45;&gt;Node9 -->
<g id="edge9" class="edge">
<title>Node2&#45;&gt;Node9</title>
<path fill="none" stroke="#191970" d="M369.5862,-57.0349C372.4285,-56.6763 375.2432,-56.3295 378,-56 533.9569,-37.3569 578.2295,-52.1644 735.7556,-19.8748"/>
<polygon fill="#191970" stroke="#191970" points="736.7241,-23.2483 745.8011,-17.784 735.2977,-16.3952 736.7241,-23.2483"/>
</g>
<!-- Node10 -->
<g id="node11" class="node">
<title>Node10</title>
<polygon fill="none" stroke="#bfbfbf" points="448,-.5 448,-19.5 498,-19.5 498,-.5 448,-.5"/>
<text text-anchor="middle" x="473" y="-7.5" font-family="Helvetica,sans-Serif" font-size="10.00" fill="#000000">climits</text>
</g>
<!-- Node2&#45;&gt;Node10 -->
<g id="edge10" class="edge">
<title>Node2&#45;&gt;Node10</title>
<path fill="none" stroke="#191970" d="M334.7083,-56.3733C363.3631,-46.7645 407.4311,-31.9872 438.0923,-21.7056"/>
<polygon fill="#191970" stroke="#191970" points="439.5665,-24.9028 447.9349,-18.4051 437.341,-18.266 439.5665,-24.9028"/>
</g>
<!-- Node11 -->
<g id="node12" class="node">
<title>Node11</title>
<g id="a_node12"><a xlink:href="../../d7/df8/Types_8h.html" target="_top" xlink:title="MemoryResources/Types.h">
<polygon fill="none" stroke="#000000" points="516,-.5 516,-19.5 662,-19.5 662,-.5 516,-.5"/>
<text text-anchor="middle" x="589" y="-7.5" font-family="Helvetica,sans-Serif" font-size="10.00" fill="#000000">MemoryResources/Types.h</text>
</a>
</g>
</g>
<!-- Node2&#45;&gt;Node11 -->
<g id="edge11" class="edge">
<title>Node2&#45;&gt;Node11</title>
<path fill="none" stroke="#191970" d="M354.3279,-56.4369C403.1681,-46.7724 478.6676,-31.8326 530.7764,-21.5213"/>
<polygon fill="#191970" stroke="#191970" points="531.7411,-24.8983 540.8715,-19.5237 530.3822,-18.0315 531.7411,-24.8983"/>
</g>
<!-- Node12 -->
<g id="node13" class="node">
<title>Node12</title>
<polygon fill="none" stroke="#bfbfbf" points="680.5,-.5 680.5,-19.5 727.5,-19.5 727.5,-.5 680.5,-.5"/>
<text text-anchor="middle" x="704" y="-7.5" font-family="Helvetica,sans-Serif" font-size="10.00" fill="#000000">cerrno</text>
</g>
<!-- Node2&#45;&gt;Node12 -->
<g id="edge12" class="edge">
<title>Node2&#45;&gt;Node12</title>
<path fill="none" stroke="#191970" d="M369.5959,-57.1119C372.4356,-56.7325 375.2471,-56.3603 378,-56 504.9161,-39.3905 540.8896,-46.742 670.4298,-19.7924"/>
<polygon fill="#191970" stroke="#191970" points="671.2712,-23.192 680.3337,-17.7038 669.8267,-16.3427 671.2712,-23.192"/>
</g>
<!-- Node13&#45;&gt;Node9 -->
<g id="edge14" class="edge">
<title>Node13&#45;&gt;Node9</title>
<path fill="none" stroke="#191970" d="M522.5207,-56.4991C587.3766,-46.7594 683.9438,-31.6961 735.723,-19.9813"/>
<polygon fill="#191970" stroke="#191970" points="736.8341,-23.3153 745.762,-17.6106 735.2252,-16.5027 736.8341,-23.3153"/>
</g>
</g>
</svg>
