<?xml version="1.0" encoding="UTF-8" standalone="no"?>
<!DOCTYPE svg PUBLIC "-//W3C//DTD SVG 1.1//EN"
 "http://www.w3.org/Graphics/SVG/1.1/DTD/svg11.dtd">
<!-- Generated by graphviz version 2.40.1 (20161225.0304)
 -->
<!-- Title: /home/travis/build/AliceO2Group/AliceO2/GPU/TPCFastTransformation/Spline1D.h Pages: 1 -->
<!--zoomable 229 -->
<svg id="main" version="1.1" xmlns="http://www.w3.org/2000/svg" xmlns:xlink="http://www.w3.org/1999/xlink" xml:space="preserve" onload="init(evt)">
<style type="text/css"><![CDATA[
.edge:hover path { stroke: red; }
.edge:hover polygon { stroke: red; fill: red; }
]]></style>
<script type="text/javascript"><![CDATA[
var edges = document.getElementsByTagName('g');
if (edges && edges.length) {
  for (var i=0;i<edges.length;i++) {
    if (edges[i].id.substr(0,4)=='edge') {
      edges[i].setAttribute('class','edge');
    }
  }
}
]]></script>
        <defs>
                <circle id="rim" cx="0" cy="0" r="7"/>
                <circle id="rim2" cx="0" cy="0" r="3.5"/>
                <g id="zoomPlus">
                        <use xlink:href="#rim" fill="#404040">
                                <set attributeName="fill" to="#808080" begin="zoomplus.mouseover" end="zoomplus.mouseout"/>
                        </use>
                        <path d="M-4,0h8M0,-4v8" fill="none" stroke="white" stroke-width="1.5" pointer-events="none"/>
                </g>
                <g id="zoomMin">
                        <use xlink:href="#rim" fill="#404040">
                                <set attributeName="fill" to="#808080" begin="zoomminus.mouseover" end="zoomminus.mouseout"/>
                        </use>
                        <path d="M-4,0h8" fill="none" stroke="white" stroke-width="1.5" pointer-events="none"/>
                </g>
                <g id="dirArrow">
                        <path fill="none" stroke="white" stroke-width="1.5" d="M0,-3.0v7 M-2.5,-0.5L0,-3.0L2.5,-0.5"/>
                </g>
               <g id="resetDef">
                       <use xlink:href="#rim2" fill="#404040">
                               <set attributeName="fill" to="#808080" begin="reset.mouseover" end="reset.mouseout"/>
                       </use>
               </g>
        </defs>

<script type="text/javascript">
var viewWidth = 783;
var viewHeight = 229;
var sectionId = 'dynsection-0';
</script>
<script xlink:href="../../svgpan.js"/>
<svg id="graph" class="graph">
<g id="viewport">
<title>/home/travis/build/AliceO2Group/AliceO2/GPU/TPCFastTransformation/Spline1D.h</title>
<!-- Node0 -->
<g id="node1" class="node">
<title>Node0</title>
<polygon fill="#bfbfbf" stroke="#000000" points="281.5,-168.5 281.5,-220.5 436.5,-220.5 436.5,-168.5 281.5,-168.5"/>
<text text-anchor="start" x="289.5" y="-208.5" font-family="Helvetica,sans-Serif" font-size="10.00" fill="#000000">/home/travis/build</text>
<text text-anchor="start" x="289.5" y="-197.5" font-family="Helvetica,sans-Serif" font-size="10.00" fill="#000000">/AliceO2Group/AliceO2</text>
<text text-anchor="start" x="289.5" y="-186.5" font-family="Helvetica,sans-Serif" font-size="10.00" fill="#000000">/GPU/TPCFastTransformation</text>
<text text-anchor="middle" x="359" y="-175.5" font-family="Helvetica,sans-Serif" font-size="10.00" fill="#000000">/Spline1D.h</text>
</g>
<!-- Node1 -->
<g id="node2" class="node">
<title>Node1</title>
<g id="a_node2"><a xlink:href="../../df/d21/GPUCommonDef_8h.html" target="_top" xlink:title="GPUCommonDef.h">
<polygon fill="none" stroke="#000000" points="97.5,-56.5 97.5,-75.5 204.5,-75.5 204.5,-56.5 97.5,-56.5"/>
<text text-anchor="middle" x="151" y="-63.5" font-family="Helvetica,sans-Serif" font-size="10.00" fill="#000000">GPUCommonDef.h</text>
</a>
</g>
</g>
<!-- Node0&#45;&gt;Node1 -->
<g id="edge1" class="edge">
<title>Node0&#45;&gt;Node1</title>
<path fill="none" stroke="#191970" d="M316.9081,-168.4961C274.192,-142.1066 209.5681,-102.1827 174.9307,-80.7841"/>
<polygon fill="#191970" stroke="#191970" points="176.7474,-77.7924 166.4004,-75.5142 173.0683,-83.7476 176.7474,-77.7924"/>
</g>
<!-- Node4 -->
<g id="node5" class="node">
<title>Node4</title>
<g id="a_node5"><a xlink:href="../../db/dff/FlatObject_8h.html" target="_top" xlink:title="Definition of FlatObject class. ">
<polygon fill="none" stroke="#000000" points="321.5,-112.5 321.5,-131.5 396.5,-131.5 396.5,-112.5 321.5,-112.5"/>
<text text-anchor="middle" x="359" y="-119.5" font-family="Helvetica,sans-Serif" font-size="10.00" fill="#000000">FlatObject.h</text>
</a>
</g>
</g>
<!-- Node0&#45;&gt;Node4 -->
<g id="edge4" class="edge">
<title>Node0&#45;&gt;Node4</title>
<path fill="none" stroke="#191970" d="M359,-168.3258C359,-159.5142 359,-149.8397 359,-141.621"/>
<polygon fill="#191970" stroke="#191970" points="362.5001,-141.534 359,-131.534 355.5001,-141.534 362.5001,-141.534"/>
</g>
<!-- Node14 -->
<g id="node15" class="node">
<title>Node14</title>
<polygon fill="none" stroke="#bfbfbf" points="414.5,-112.5 414.5,-131.5 479.5,-131.5 479.5,-112.5 414.5,-112.5"/>
<text text-anchor="middle" x="447" y="-119.5" font-family="Helvetica,sans-Serif" font-size="10.00" fill="#000000">functional</text>
</g>
<!-- Node0&#45;&gt;Node14 -->
<g id="edge15" class="edge">
<title>Node0&#45;&gt;Node14</title>
<path fill="none" stroke="#191970" d="M390.77,-168.3258C403.0456,-158.2124 416.7008,-146.9624 427.4804,-138.0815"/>
<polygon fill="#191970" stroke="#191970" points="429.9352,-140.594 435.4277,-131.534 425.4841,-135.1913 429.9352,-140.594"/>
</g>
<!-- Node2 -->
<g id="node3" class="node">
<title>Node2</title>
<g id="a_node3"><a xlink:href="../../d5/d93/GPUCommonDefSettings_8h.html" target="_top" xlink:title="GPUCommonDefSettings.h">
<polygon fill="none" stroke="#000000" points="0,-.5 0,-19.5 148,-19.5 148,-.5 0,-.5"/>
<text text-anchor="middle" x="74" y="-7.5" font-family="Helvetica,sans-Serif" font-size="10.00" fill="#000000">GPUCommonDefSettings.h</text>
</a>
</g>
</g>
<!-- Node1&#45;&gt;Node2 -->
<g id="edge2" class="edge">
<title>Node1&#45;&gt;Node2</title>
<path fill="none" stroke="#191970" d="M137.5876,-56.2455C125.9943,-47.814 109.0252,-35.4729 95.5322,-25.6598"/>
<polygon fill="#191970" stroke="#191970" points="97.4047,-22.6938 87.2587,-19.6427 93.2874,-28.355 97.4047,-22.6938"/>
</g>
<!-- Node3 -->
<g id="node4" class="node">
<title>Node3</title>
<g id="a_node4"><a xlink:href="../../da/d5a/GPUCommonDefAPI_8h.html" target="_top" xlink:title="GPUCommonDefAPI.h">
<polygon fill="none" stroke="#000000" points="166,-.5 166,-19.5 290,-19.5 290,-.5 166,-.5"/>
<text text-anchor="middle" x="228" y="-7.5" font-family="Helvetica,sans-Serif" font-size="10.00" fill="#000000">GPUCommonDefAPI.h</text>
</a>
</g>
</g>
<!-- Node1&#45;&gt;Node3 -->
<g id="edge3" class="edge">
<title>Node1&#45;&gt;Node3</title>
<path fill="none" stroke="#191970" d="M164.4124,-56.2455C176.0057,-47.814 192.9748,-35.4729 206.4678,-25.6598"/>
<polygon fill="#191970" stroke="#191970" points="208.7126,-28.355 214.7413,-19.6427 204.5953,-22.6938 208.7126,-28.355"/>
</g>
<!-- Node4&#45;&gt;Node1 -->
<g id="edge9" class="edge">
<title>Node4&#45;&gt;Node1</title>
<path fill="none" stroke="#191970" d="M323.2435,-112.3733C288.0574,-102.9001 234.2119,-88.4032 196.1044,-78.1435"/>
<polygon fill="#191970" stroke="#191970" points="196.856,-74.7213 186.2899,-75.5011 195.0361,-81.4806 196.856,-74.7213"/>
</g>
<!-- Node5 -->
<g id="node6" class="node">
<title>Node5</title>
<polygon fill="none" stroke="#bfbfbf" points="222.5,-56.5 222.5,-75.5 275.5,-75.5 275.5,-56.5 222.5,-56.5"/>
<text text-anchor="middle" x="249" y="-63.5" font-family="Helvetica,sans-Serif" font-size="10.00" fill="#000000">cstddef</text>
</g>
<!-- Node4&#45;&gt;Node5 -->
<g id="edge5" class="edge">
<title>Node4&#45;&gt;Node5</title>
<path fill="none" stroke="#191970" d="M339.8395,-112.2455C322.4889,-103.4125 296.7099,-90.2887 277.0417,-80.2758"/>
<polygon fill="#191970" stroke="#191970" points="278.4405,-77.0605 267.941,-75.6427 275.2647,-83.2986 278.4405,-77.0605"/>
</g>
<!-- Node6 -->
<g id="node7" class="node">
<title>Node6</title>
<polygon fill="none" stroke="#bfbfbf" points="294,-56.5 294,-75.5 352,-75.5 352,-56.5 294,-56.5"/>
<text text-anchor="middle" x="323" y="-63.5" font-family="Helvetica,sans-Serif" font-size="10.00" fill="#000000">memory</text>
</g>
<!-- Node4&#45;&gt;Node6 -->
<g id="edge6" class="edge">
<title>Node4&#45;&gt;Node6</title>
<path fill="none" stroke="#191970" d="M352.7293,-112.2455C347.7736,-104.5367 340.717,-93.5598 334.7224,-84.2348"/>
<polygon fill="#191970" stroke="#191970" points="337.5506,-82.1618 329.1989,-75.6427 331.6624,-85.9471 337.5506,-82.1618"/>
</g>
<!-- Node7 -->
<g id="node8" class="node">
<title>Node7</title>
<polygon fill="none" stroke="#bfbfbf" points="370,-56.5 370,-75.5 420,-75.5 420,-56.5 370,-56.5"/>
<text text-anchor="middle" x="395" y="-63.5" font-family="Helvetica,sans-Serif" font-size="10.00" fill="#000000">cstring</text>
</g>
<!-- Node4&#45;&gt;Node7 -->
<g id="edge7" class="edge">
<title>Node4&#45;&gt;Node7</title>
<path fill="none" stroke="#191970" d="M365.2707,-112.2455C370.2264,-104.5367 377.283,-93.5598 383.2776,-84.2348"/>
<polygon fill="#191970" stroke="#191970" points="386.3376,-85.9471 388.8011,-75.6427 380.4494,-82.1618 386.3376,-85.9471"/>
</g>
<!-- Node8 -->
<g id="node9" class="node">
<title>Node8</title>
<polygon fill="none" stroke="#bfbfbf" points="438,-56.5 438,-75.5 490,-75.5 490,-56.5 438,-56.5"/>
<text text-anchor="middle" x="464" y="-63.5" font-family="Helvetica,sans-Serif" font-size="10.00" fill="#000000">cassert</text>
</g>
<!-- Node4&#45;&gt;Node8 -->
<g id="edge8" class="edge">
<title>Node4&#45;&gt;Node8</title>
<path fill="none" stroke="#191970" d="M377.2896,-112.2455C393.7762,-103.4527 418.2352,-90.4079 436.9765,-80.4125"/>
<polygon fill="#191970" stroke="#191970" points="438.7435,-83.4368 445.92,-75.6427 435.4494,-77.2604 438.7435,-83.4368"/>
</g>
<!-- Node9 -->
<g id="node10" class="node">
<title>Node9</title>
<g id="a_node10"><a xlink:href="../../d2/d45/GPUCommonRtypes_8h.html" target="_top" xlink:title="GPUCommonRtypes.h">
<polygon fill="none" stroke="#000000" points="508.5,-56.5 508.5,-75.5 633.5,-75.5 633.5,-56.5 508.5,-56.5"/>
<text text-anchor="middle" x="571" y="-63.5" font-family="Helvetica,sans-Serif" font-size="10.00" fill="#000000">GPUCommonRtypes.h</text>
</a>
</g>
</g>
<!-- Node4&#45;&gt;Node9 -->
<g id="edge10" class="edge">
<title>Node4&#45;&gt;Node9</title>
<path fill="none" stroke="#191970" d="M395.4441,-112.3733C431.3069,-102.9001 486.1878,-88.4032 525.0282,-78.1435"/>
<polygon fill="#191970" stroke="#191970" points="526.257,-81.439 535.0315,-75.5011 524.4692,-74.6712 526.257,-81.439"/>
</g>
<!-- Node11 -->
<g id="node12" class="node">
<title>Node11</title>
<g id="a_node12"><a xlink:href="../../df/d5b/GPUCommonLogger_8h.html" target="_top" xlink:title="GPUCommonLogger.h">
<polygon fill="none" stroke="#000000" points="651.5,-56.5 651.5,-75.5 774.5,-75.5 774.5,-56.5 651.5,-56.5"/>
<text text-anchor="middle" x="713" y="-63.5" font-family="Helvetica,sans-Serif" font-size="10.00" fill="#000000">GPUCommonLogger.h</text>
</a>
</g>
</g>
<!-- Node4&#45;&gt;Node11 -->
<g id="edge12" class="edge">
<title>Node4&#45;&gt;Node11</title>
<path fill="none" stroke="#191970" d="M396.615,-113.6118C399.4482,-113.0447 402.2668,-112.5006 405,-112 449.0246,-103.9362 564.9334,-87.0621 641.3306,-76.1466"/>
<polygon fill="#191970" stroke="#191970" points="641.9665,-79.5913 651.3718,-74.7137 640.9776,-72.6615 641.9665,-79.5913"/>
</g>
<!-- Node10 -->
<g id="node11" class="node">
<title>Node10</title>
<polygon fill="none" stroke="#bfbfbf" points="541.5,-.5 541.5,-19.5 600.5,-19.5 600.5,-.5 541.5,-.5"/>
<text text-anchor="middle" x="571" y="-7.5" font-family="Helvetica,sans-Serif" font-size="10.00" fill="#000000">Rtypes.h</text>
</g>
<!-- Node9&#45;&gt;Node10 -->
<g id="edge11" class="edge">
<title>Node9&#45;&gt;Node10</title>
<path fill="none" stroke="#191970" d="M571,-56.2455C571,-48.9382 571,-38.6944 571,-29.7046"/>
<polygon fill="#191970" stroke="#191970" points="574.5001,-29.6426 571,-19.6427 567.5001,-29.6427 574.5001,-29.6426"/>
</g>
<!-- Node12 -->
<g id="node13" class="node">
<title>Node12</title>
<polygon fill="none" stroke="#bfbfbf" points="651,-.5 651,-19.5 711,-19.5 711,-.5 651,-.5"/>
<text text-anchor="middle" x="681" y="-7.5" font-family="Helvetica,sans-Serif" font-size="10.00" fill="#000000">iostream</text>
</g>
<!-- Node11&#45;&gt;Node12 -->
<g id="edge13" class="edge">
<title>Node11&#45;&gt;Node12</title>
<path fill="none" stroke="#191970" d="M707.426,-56.2455C703.0669,-48.617 696.8789,-37.7881 691.5867,-28.5267"/>
<polygon fill="#191970" stroke="#191970" points="694.5104,-26.5886 686.5101,-19.6427 688.4327,-30.0616 694.5104,-26.5886"/>
</g>
<!-- Node13 -->
<g id="node14" class="node">
<title>Node13</title>
<polygon fill="none" stroke="#bfbfbf" points="729,-.5 729,-19.5 775,-19.5 775,-.5 729,-.5"/>
<text text-anchor="middle" x="752" y="-7.5" font-family="Helvetica,sans-Serif" font-size="10.00" fill="#000000">cstdio</text>
</g>
<!-- Node11&#45;&gt;Node13 -->
<g id="edge14" class="edge">
<title>Node11&#45;&gt;Node13</title>
<path fill="none" stroke="#191970" d="M719.7933,-56.2455C725.2178,-48.4564 732.9661,-37.3308 739.5033,-27.9439"/>
<polygon fill="#191970" stroke="#191970" points="742.4417,-29.849 745.2846,-19.6427 736.6975,-25.8485 742.4417,-29.849"/>
</g>
</g>
</svg>
        <g id="navigator" transform="translate(0 0)" fill="#404254">
                <rect fill="#f2f5e9" fill-opacity="0.5" stroke="#606060" stroke-width=".5" x="0" y="0" width="60" height="60"/>
                <use id="zoomplus" xlink:href="#zoomPlus" x="17" y="9" onmousedown="handleZoom(evt,'in')"/>
                <use id="zoomminus" xlink:href="#zoomMin" x="42" y="9" onmousedown="handleZoom(evt,'out')"/>
                <use id="reset" xlink:href="#resetDef" x="30" y="36" onmousedown="handleReset()"/>
                <g id="arrowUp" xlink:href="#dirArrow" transform="translate(30 24)" onmousedown="handlePan(0,-1)">
                  <use xlink:href="#rim" fill="#404040">
                        <set attributeName="fill" to="#808080" begin="arrowUp.mouseover" end="arrowUp.mouseout"/>
                  </use>
                  <path fill="none" stroke="white" stroke-width="1.5" d="M0,-3.0v7 M-2.5,-0.5L0,-3.0L2.5,-0.5"/>
                </g>
                <g id="arrowRight" xlink:href="#dirArrow" transform="rotate(90) translate(36 -43)" onmousedown="handlePan(1,0)">
                  <use xlink:href="#rim" fill="#404040">
                        <set attributeName="fill" to="#808080" begin="arrowRight.mouseover" end="arrowRight.mouseout"/>
                  </use>
                  <path fill="none" stroke="white" stroke-width="1.5" d="M0,-3.0v7 M-2.5,-0.5L0,-3.0L2.5,-0.5"/>
                </g>
                <g id="arrowDown" xlink:href="#dirArrow" transform="rotate(180) translate(-30 -48)" onmousedown="handlePan(0,1)">
                  <use xlink:href="#rim" fill="#404040">
                        <set attributeName="fill" to="#808080" begin="arrowDown.mouseover" end="arrowDown.mouseout"/>
                  </use>
                  <path fill="none" stroke="white" stroke-width="1.5" d="M0,-3.0v7 M-2.5,-0.5L0,-3.0L2.5,-0.5"/>
                </g>
                <g id="arrowLeft" xlink:href="#dirArrow" transform="rotate(270) translate(-36 17)" onmousedown="handlePan(-1,0)">
                  <use xlink:href="#rim" fill="#404040">
                        <set attributeName="fill" to="#808080" begin="arrowLeft.mouseover" end="arrowLeft.mouseout"/>
                  </use>
                  <path fill="none" stroke="white" stroke-width="1.5" d="M0,-3.0v7 M-2.5,-0.5L0,-3.0L2.5,-0.5"/>
                </g>
        </g>
        <svg viewBox="0 0 15 15" width="100%" height="30px" preserveAspectRatio="xMaxYMin meet">
         <g id="arrow_out" transform="scale(0.3 0.3)">
          <a xlink:href="Spline1D_8h__incl_org.svg" target="_base">
           <rect id="button" ry="5" rx="5" y="6" x="6" height="38" width="38"
                fill="#f2f5e9" fill-opacity="0.5" stroke="#606060" stroke-width="1.0"/>
           <path id="arrow"
             d="M 11.500037,31.436501 C 11.940474,20.09759 22.043105,11.32322 32.158766,21.979434 L 37.068811,17.246167 C 37.068811,17.246167 37.088388,32 37.088388,32 L 22.160133,31.978069 C 22.160133,31.978069 26.997745,27.140456 26.997745,27.140456 C 18.528582,18.264221 13.291696,25.230495 11.500037,31.436501 z"
             style="fill:#404040;"/>
          </a>
         </g>
        </svg>
</svg>
