<?xml version="1.0" encoding="UTF-8" standalone="no"?>
<!DOCTYPE svg PUBLIC "-//W3C//DTD SVG 1.1//EN"
 "http://www.w3.org/Graphics/SVG/1.1/DTD/svg11.dtd">
<!-- Generated by graphviz version 2.40.1 (20161225.0304)
 -->
<!-- Title: o2::framework::AlgorithmSpec Pages: 1 -->
<svg width="513pt" height="259pt"
 viewBox="0.00 0.00 512.50 259.00" xmlns="http://www.w3.org/2000/svg" xmlns:xlink="http://www.w3.org/1999/xlink">
<g id="graph0" class="graph" transform="scale(1 1) rotate(0) translate(4 255)">
<title>o2::framework::AlgorithmSpec</title>
<!-- Node1 -->
<g id="node1" class="node">
<title>Node1</title>
<polygon fill="#bfbfbf" stroke="#000000" points="184.5,-.5 184.5,-134.5 349.5,-134.5 349.5,-.5 184.5,-.5"/>
<text text-anchor="middle" x="267" y="-122.5" font-family="Helvetica,sans-Serif" font-size="10.00" fill="#000000">o2::framework::AlgorithmSpec</text>
<polyline fill="none" stroke="#000000" points="184.5,-115.5 349.5,-115.5 "/>
<text text-anchor="middle" x="267" y="-103.5" font-family="Helvetica,sans-Serif" font-size="10.00" fill="#000000"> </text>
<polyline fill="none" stroke="#000000" points="184.5,-96.5 349.5,-96.5 "/>
<text text-anchor="start" x="192.5" y="-84.5" font-family="Helvetica,sans-Serif" font-size="10.00" fill="#000000">+ AlgorithmSpec()</text>
<text text-anchor="start" x="192.5" y="-73.5" font-family="Helvetica,sans-Serif" font-size="10.00" fill="#000000">+ AlgorithmSpec()</text>
<text text-anchor="start" x="192.5" y="-62.5" font-family="Helvetica,sans-Serif" font-size="10.00" fill="#000000">+ AlgorithmSpec()</text>
<text text-anchor="start" x="192.5" y="-51.5" font-family="Helvetica,sans-Serif" font-size="10.00" fill="#000000">+ AlgorithmSpec()</text>
<text text-anchor="start" x="192.5" y="-40.5" font-family="Helvetica,sans-Serif" font-size="10.00" fill="#000000">+ operator=()</text>
<text text-anchor="start" x="192.5" y="-29.5" font-family="Helvetica,sans-Serif" font-size="10.00" fill="#000000">+ AlgorithmSpec()</text>
<text text-anchor="start" x="192.5" y="-18.5" font-family="Helvetica,sans-Serif" font-size="10.00" fill="#000000">+ AlgorithmSpec()</text>
<text text-anchor="start" x="192.5" y="-7.5" font-family="Helvetica,sans-Serif" font-size="10.00" fill="#000000">+ emptyErrorCallback()</text>
</g>
<!-- Node2 -->
<g id="node2" class="node">
<title>Node2</title>
<polygon fill="none" stroke="#bfbfbf" points="0,-188 0,-245 176,-245 176,-188 0,-188"/>
<text text-anchor="middle" x="88" y="-233" font-family="Helvetica,sans-Serif" font-size="10.00" fill="#000000">function&lt; void(ErrorContext &amp;)&gt;</text>
<polyline fill="none" stroke="#bfbfbf" points="0,-226 176,-226 "/>
<text text-anchor="middle" x="88" y="-214" font-family="Helvetica,sans-Serif" font-size="10.00" fill="#000000"> </text>
<polyline fill="none" stroke="#bfbfbf" points="0,-207 176,-207 "/>
<text text-anchor="middle" x="88" y="-195" font-family="Helvetica,sans-Serif" font-size="10.00" fill="#000000"> </text>
</g>
<!-- Node2&#45;&gt;Node1 -->
<g id="edge1" class="edge">
<title>Node2&#45;&gt;Node1</title>
<path fill="none" stroke="#404040" d="M122.513,-187.7713C138.1408,-174.7627 157.4204,-158.7143 176.7469,-142.6269"/>
<polygon fill="none" stroke="#404040" points="176.9995,-142.4166 179.0519,-135.5037 186.2224,-134.7394 184.1701,-141.6523 176.9995,-142.4166"/>
<text text-anchor="middle" x="185.5" y="-156" font-family="Helvetica,sans-Serif" font-size="10.00" fill="#000000"> +onError</text>
</g>
<!-- Node3 -->
<g id="node3" class="node">
<title>Node3</title>
<polygon fill="none" stroke="#bfbfbf" points="194.5,-182.5 194.5,-250.5 339.5,-250.5 339.5,-182.5 194.5,-182.5"/>
<text text-anchor="start" x="202.5" y="-238.5" font-family="Helvetica,sans-Serif" font-size="10.00" fill="#000000">function&lt; void(Processing</text>
<text text-anchor="middle" x="267" y="-227.5" font-family="Helvetica,sans-Serif" font-size="10.00" fill="#000000">Context &amp;)&gt;</text>
<polyline fill="none" stroke="#bfbfbf" points="194.5,-220.5 339.5,-220.5 "/>
<text text-anchor="middle" x="267" y="-208.5" font-family="Helvetica,sans-Serif" font-size="10.00" fill="#000000"> </text>
<polyline fill="none" stroke="#bfbfbf" points="194.5,-201.5 339.5,-201.5 "/>
<text text-anchor="middle" x="267" y="-189.5" font-family="Helvetica,sans-Serif" font-size="10.00" fill="#000000"> </text>
</g>
<!-- Node3&#45;&gt;Node1 -->
<g id="edge2" class="edge">
<title>Node3&#45;&gt;Node1</title>
<path fill="none" stroke="#404040" d="M267,-182.3164C267,-171.5733 267,-159.2297 267,-146.7079"/>
<polygon fill="none" stroke="#404040" points="267.0001,-146.6944 263,-140.6945 267,-134.6944 271,-140.6944 267.0001,-146.6944"/>
<text text-anchor="middle" x="297.5" y="-156" font-family="Helvetica,sans-Serif" font-size="10.00" fill="#000000"> +onProcess</text>
</g>
<!-- Node4 -->
<g id="node4" class="node">
<title>Node4</title>
<polygon fill="none" stroke="#bfbfbf" points="357.5,-182.5 357.5,-250.5 504.5,-250.5 504.5,-182.5 357.5,-182.5"/>
<text text-anchor="start" x="365.5" y="-238.5" font-family="Helvetica,sans-Serif" font-size="10.00" fill="#000000">function&lt; ProcessCallback</text>
<text text-anchor="middle" x="431" y="-227.5" font-family="Helvetica,sans-Serif" font-size="10.00" fill="#000000">(InitContext &amp;)&gt;</text>
<polyline fill="none" stroke="#bfbfbf" points="357.5,-220.5 504.5,-220.5 "/>
<text text-anchor="middle" x="431" y="-208.5" font-family="Helvetica,sans-Serif" font-size="10.00" fill="#000000"> </text>
<polyline fill="none" stroke="#bfbfbf" points="357.5,-201.5 504.5,-201.5 "/>
<text text-anchor="middle" x="431" y="-189.5" font-family="Helvetica,sans-Serif" font-size="10.00" fill="#000000"> </text>
</g>
<!-- Node4&#45;&gt;Node1 -->
<g id="edge3" class="edge">
<title>Node4&#45;&gt;Node1</title>
<path fill="none" stroke="#404040" d="M393.3751,-182.3164C380.3315,-170.4658 365.1442,-156.6676 349.9148,-142.8311"/>
<polygon fill="none" stroke="#404040" points="349.8407,-142.7638 342.71,-141.6897 340.959,-134.6944 348.0896,-135.7685 349.8407,-142.7638"/>
<text text-anchor="middle" x="388" y="-156" font-family="Helvetica,sans-Serif" font-size="10.00" fill="#000000"> +onInit</text>
</g>
</g>
</svg>
