<?xml version="1.0" encoding="UTF-8" standalone="no"?>
<!DOCTYPE svg PUBLIC "-//W3C//DTD SVG 1.1//EN"
 "http://www.w3.org/Graphics/SVG/1.1/DTD/svg11.dtd">
<!-- Generated by graphviz version 2.40.1 (20161225.0304)
 -->
<!-- Title: /home/travis/build/AliceO2Group/AliceO2/Detectors/TOF/calibration/include/TOFCalibration/CalibTOFapi.h Pages: 1 -->
<svg width="1559pt" height="361pt"
 viewBox="0.00 0.00 1558.50 361.00" xmlns="http://www.w3.org/2000/svg" xmlns:xlink="http://www.w3.org/1999/xlink">
<g id="graph0" class="graph" transform="scale(1 1) rotate(0) translate(4 357)">
<title>/home/travis/build/AliceO2Group/AliceO2/Detectors/TOF/calibration/include/TOFCalibration/CalibTOFapi.h</title>
<!-- Node18 -->
<g id="node1" class="node">
<title>Node18</title>
<polygon fill="#bfbfbf" stroke="#000000" points="704.5,-300.5 704.5,-352.5 904.5,-352.5 904.5,-300.5 704.5,-300.5"/>
<text text-anchor="start" x="712.5" y="-340.5" font-family="Helvetica,sans-Serif" font-size="10.00" fill="#000000">/home/travis/build</text>
<text text-anchor="start" x="712.5" y="-329.5" font-family="Helvetica,sans-Serif" font-size="10.00" fill="#000000">/AliceO2Group/AliceO2</text>
<text text-anchor="start" x="712.5" y="-318.5" font-family="Helvetica,sans-Serif" font-size="10.00" fill="#000000">/Detectors/TOF/calibration</text>
<text text-anchor="middle" x="804.5" y="-307.5" font-family="Helvetica,sans-Serif" font-size="10.00" fill="#000000">/include/TOFCalibration/CalibTOFapi.h</text>
</g>
<!-- Node19 -->
<g id="node2" class="node">
<title>Node19</title>
<g id="a_node2"><a xlink:href="../../d5/ded/CalibTOF_8h.html" target="_top" xlink:title="/home/travis/build\l/AliceO2Group/AliceO2\l/Detectors/TOF/calibration\l/include/TOFCalibration/CalibTOF.h">
<polygon fill="none" stroke="#000000" points="54.5,-206 54.5,-258 238.5,-258 238.5,-206 54.5,-206"/>
<text text-anchor="start" x="62.5" y="-246" font-family="Helvetica,sans-Serif" font-size="10.00" fill="#000000">/home/travis/build</text>
<text text-anchor="start" x="62.5" y="-235" font-family="Helvetica,sans-Serif" font-size="10.00" fill="#000000">/AliceO2Group/AliceO2</text>
<text text-anchor="start" x="62.5" y="-224" font-family="Helvetica,sans-Serif" font-size="10.00" fill="#000000">/Detectors/TOF/calibration</text>
<text text-anchor="middle" x="146.5" y="-213" font-family="Helvetica,sans-Serif" font-size="10.00" fill="#000000">/include/TOFCalibration/CalibTOF.h</text>
</a>
</g>
</g>
<!-- Node18&#45;&gt;Node19 -->
<g id="edge1" class="edge">
<title>Node18&#45;&gt;Node19</title>
<path fill="none" stroke="#191970" d="M694.1563,-313.8825C596.1073,-302.2755 448.9857,-283.8903 321.5,-264 294.4929,-259.7864 265.2443,-254.6617 238.5316,-249.7595"/>
<polygon fill="#191970" stroke="#191970" points="694.0372,-317.3927 704.3785,-315.0891 694.8578,-310.4409 694.0372,-317.3927"/>
</g>
<!-- Node21 -->
<g id="node4" class="node">
<title>Node21</title>
<g id="a_node4"><a xlink:href="../../da/d2b/LHCClockCalibrator_8h.html" target="_top" xlink:title="/home/travis/build\l/AliceO2Group/AliceO2\l/Detectors/TOF/calibration\l/include/TOFCalibration/LHCClock\lCalibrator.h">
<polygon fill="none" stroke="#000000" points="331,-200.5 331,-263.5 510,-263.5 510,-200.5 331,-200.5"/>
<text text-anchor="start" x="339" y="-251.5" font-family="Helvetica,sans-Serif" font-size="10.00" fill="#000000">/home/travis/build</text>
<text text-anchor="start" x="339" y="-240.5" font-family="Helvetica,sans-Serif" font-size="10.00" fill="#000000">/AliceO2Group/AliceO2</text>
<text text-anchor="start" x="339" y="-229.5" font-family="Helvetica,sans-Serif" font-size="10.00" fill="#000000">/Detectors/TOF/calibration</text>
<text text-anchor="start" x="339" y="-218.5" font-family="Helvetica,sans-Serif" font-size="10.00" fill="#000000">/include/TOFCalibration/LHCClock</text>
<text text-anchor="middle" x="420.5" y="-207.5" font-family="Helvetica,sans-Serif" font-size="10.00" fill="#000000">Calibrator.h</text>
</a>
</g>
</g>
<!-- Node18&#45;&gt;Node21 -->
<g id="edge3" class="edge">
<title>Node18&#45;&gt;Node21</title>
<path fill="none" stroke="#191970" d="M694.3632,-299.396C636.0093,-285.0355 565.2423,-267.6202 510.2641,-254.0904"/>
<polygon fill="#191970" stroke="#191970" points="693.8139,-302.8652 704.3606,-301.8563 695.4867,-296.068 693.8139,-302.8652"/>
</g>
<!-- Node25 -->
<g id="node8" class="node">
<title>Node25</title>
<g id="a_node8"><a xlink:href="../../d9/d35/CalibTOFapi_8cxx.html" target="_top" xlink:title="/home/travis/build\l/AliceO2Group/AliceO2\l/Detectors/TOF/calibration\l/src/CalibTOFapi.cxx">
<polygon fill="none" stroke="#000000" points="563,-206 563,-258 706,-258 706,-206 563,-206"/>
<text text-anchor="start" x="571" y="-246" font-family="Helvetica,sans-Serif" font-size="10.00" fill="#000000">/home/travis/build</text>
<text text-anchor="start" x="571" y="-235" font-family="Helvetica,sans-Serif" font-size="10.00" fill="#000000">/AliceO2Group/AliceO2</text>
<text text-anchor="start" x="571" y="-224" font-family="Helvetica,sans-Serif" font-size="10.00" fill="#000000">/Detectors/TOF/calibration</text>
<text text-anchor="middle" x="634.5" y="-213" font-family="Helvetica,sans-Serif" font-size="10.00" fill="#000000">/src/CalibTOFapi.cxx</text>
</a>
</g>
</g>
<!-- Node18&#45;&gt;Node25 -->
<g id="edge7" class="edge">
<title>Node18&#45;&gt;Node25</title>
<path fill="none" stroke="#191970" d="M748.791,-295.5324C727.0427,-283.4429 702.3796,-269.7331 681.545,-258.1515"/>
<polygon fill="#191970" stroke="#191970" points="747.1558,-298.6278 757.5967,-300.4273 750.5569,-292.5095 747.1558,-298.6278"/>
</g>
<!-- Node26 -->
<g id="node9" class="node">
<title>Node26</title>
<g id="a_node9"><a xlink:href="../../dc/d24/TOF_2reconstruction_2include_2TOFReconstruction_2Clusterer_8h.html" target="_top" xlink:title="/home/travis/build\l/AliceO2Group/AliceO2\l/Detectors/TOF/reconstruction\l/include/TOFReconstruction\l/Clusterer.h">
<polygon fill="none" stroke="#000000" points="724,-200.5 724,-263.5 885,-263.5 885,-200.5 724,-200.5"/>
<text text-anchor="start" x="732" y="-251.5" font-family="Helvetica,sans-Serif" font-size="10.00" fill="#000000">/home/travis/build</text>
<text text-anchor="start" x="732" y="-240.5" font-family="Helvetica,sans-Serif" font-size="10.00" fill="#000000">/AliceO2Group/AliceO2</text>
<text text-anchor="start" x="732" y="-229.5" font-family="Helvetica,sans-Serif" font-size="10.00" fill="#000000">/Detectors/TOF/reconstruction</text>
<text text-anchor="start" x="732" y="-218.5" font-family="Helvetica,sans-Serif" font-size="10.00" fill="#000000">/include/TOFReconstruction</text>
<text text-anchor="middle" x="804.5" y="-207.5" font-family="Helvetica,sans-Serif" font-size="10.00" fill="#000000">/Clusterer.h</text>
</a>
</g>
</g>
<!-- Node18&#45;&gt;Node26 -->
<g id="edge8" class="edge">
<title>Node18&#45;&gt;Node26</title>
<path fill="none" stroke="#191970" d="M804.5,-290.1424C804.5,-281.4277 804.5,-272.1902 804.5,-263.7054"/>
<polygon fill="#191970" stroke="#191970" points="801.0001,-290.4273 804.5,-300.4273 808.0001,-290.4273 801.0001,-290.4273"/>
</g>
<!-- Node30 -->
<g id="node13" class="node">
<title>Node30</title>
<g id="a_node13"><a xlink:href="../../da/df1/TOFClusterizerSpec_8cxx.html" target="_top" xlink:title="/home/travis/build\l/AliceO2Group/AliceO2\l/Detectors/TOF/workflow\l/src/TOFClusterizerSpec.cxx">
<polygon fill="none" stroke="#000000" points="887.5,-106 887.5,-158 1039.5,-158 1039.5,-106 887.5,-106"/>
<text text-anchor="start" x="895.5" y="-146" font-family="Helvetica,sans-Serif" font-size="10.00" fill="#000000">/home/travis/build</text>
<text text-anchor="start" x="895.5" y="-135" font-family="Helvetica,sans-Serif" font-size="10.00" fill="#000000">/AliceO2Group/AliceO2</text>
<text text-anchor="start" x="895.5" y="-124" font-family="Helvetica,sans-Serif" font-size="10.00" fill="#000000">/Detectors/TOF/workflow</text>
<text text-anchor="middle" x="963.5" y="-113" font-family="Helvetica,sans-Serif" font-size="10.00" fill="#000000">/src/TOFClusterizerSpec.cxx</text>
</a>
</g>
</g>
<!-- Node18&#45;&gt;Node30 -->
<g id="edge18" class="edge">
<title>Node18&#45;&gt;Node30</title>
<path fill="none" stroke="#191970" d="M858.8599,-294.4294C871.1825,-285.5783 883.5522,-275.2719 893.5,-264 921.8209,-231.9095 942.7138,-186.3502 953.9888,-158.0152"/>
<polygon fill="#191970" stroke="#191970" points="856.5901,-291.7441 850.3667,-300.3185 860.5788,-297.4966 856.5901,-291.7441"/>
</g>
<!-- Node31 -->
<g id="node14" class="node">
<title>Node31</title>
<g id="a_node14"><a xlink:href="../../d0/d85/TOF_2simulation_2include_2TOFSimulation_2Digitizer_8h.html" target="_top" xlink:title="/home/travis/build\l/AliceO2Group/AliceO2\l/Detectors/TOF/simulation\l/include/TOFSimulation/Digitizer.h">
<polygon fill="none" stroke="#000000" points="1107.5,-206 1107.5,-258 1289.5,-258 1289.5,-206 1107.5,-206"/>
<text text-anchor="start" x="1115.5" y="-246" font-family="Helvetica,sans-Serif" font-size="10.00" fill="#000000">/home/travis/build</text>
<text text-anchor="start" x="1115.5" y="-235" font-family="Helvetica,sans-Serif" font-size="10.00" fill="#000000">/AliceO2Group/AliceO2</text>
<text text-anchor="start" x="1115.5" y="-224" font-family="Helvetica,sans-Serif" font-size="10.00" fill="#000000">/Detectors/TOF/simulation</text>
<text text-anchor="middle" x="1198.5" y="-213" font-family="Helvetica,sans-Serif" font-size="10.00" fill="#000000">/include/TOFSimulation/Digitizer.h</text>
</a>
</g>
</g>
<!-- Node18&#45;&gt;Node31 -->
<g id="edge13" class="edge">
<title>Node18&#45;&gt;Node31</title>
<path fill="none" stroke="#191970" d="M914.6902,-300.0711C975.3818,-285.5144 1049.8142,-267.662 1107.2245,-253.8922"/>
<polygon fill="#191970" stroke="#191970" points="913.595,-296.7345 904.6871,-302.4703 915.2277,-303.5414 913.595,-296.7345"/>
</g>
<!-- Node35 -->
<g id="node18" class="node">
<title>Node35</title>
<g id="a_node18"><a xlink:href="../../d6/d61/TOFDigitizerSpec_8cxx.html" target="_top" xlink:title="/home/travis/build\l/AliceO2Group/AliceO2\l/Steer/DigitizerWorkflow\l/src/TOFDigitizerSpec.cxx">
<polygon fill="none" stroke="#000000" points="1410.5,-106 1410.5,-158 1550.5,-158 1550.5,-106 1410.5,-106"/>
<text text-anchor="start" x="1418.5" y="-146" font-family="Helvetica,sans-Serif" font-size="10.00" fill="#000000">/home/travis/build</text>
<text text-anchor="start" x="1418.5" y="-135" font-family="Helvetica,sans-Serif" font-size="10.00" fill="#000000">/AliceO2Group/AliceO2</text>
<text text-anchor="start" x="1418.5" y="-124" font-family="Helvetica,sans-Serif" font-size="10.00" fill="#000000">/Steer/DigitizerWorkflow</text>
<text text-anchor="middle" x="1480.5" y="-113" font-family="Helvetica,sans-Serif" font-size="10.00" fill="#000000">/src/TOFDigitizerSpec.cxx</text>
</a>
</g>
</g>
<!-- Node18&#45;&gt;Node35 -->
<g id="edge19" class="edge">
<title>Node18&#45;&gt;Node35</title>
<path fill="none" stroke="#191970" d="M914.9553,-318.9363C1038.7131,-309.3392 1230.8664,-290.7528 1298.5,-264 1360.3853,-239.5209 1420.5685,-189.0966 1453.8659,-158.1453"/>
<polygon fill="#191970" stroke="#191970" points="914.3872,-315.4695 904.6843,-319.7243 914.9228,-322.449 914.3872,-315.4695"/>
</g>
<!-- Node20 -->
<g id="node3" class="node">
<title>Node20</title>
<g id="a_node3"><a xlink:href="../../de/d89/CalibTOF_8cxx.html" target="_top" xlink:title="/home/travis/build\l/AliceO2Group/AliceO2\l/Detectors/TOF/calibration\l/src/CalibTOF.cxx">
<polygon fill="none" stroke="#000000" points="0,-106 0,-158 143,-158 143,-106 0,-106"/>
<text text-anchor="start" x="8" y="-146" font-family="Helvetica,sans-Serif" font-size="10.00" fill="#000000">/home/travis/build</text>
<text text-anchor="start" x="8" y="-135" font-family="Helvetica,sans-Serif" font-size="10.00" fill="#000000">/AliceO2Group/AliceO2</text>
<text text-anchor="start" x="8" y="-124" font-family="Helvetica,sans-Serif" font-size="10.00" fill="#000000">/Detectors/TOF/calibration</text>
<text text-anchor="middle" x="71.5" y="-113" font-family="Helvetica,sans-Serif" font-size="10.00" fill="#000000">/src/CalibTOF.cxx</text>
</a>
</g>
</g>
<!-- Node19&#45;&gt;Node20 -->
<g id="edge2" class="edge">
<title>Node19&#45;&gt;Node20</title>
<path fill="none" stroke="#191970" d="M120.8157,-197.7543C111.1142,-184.819 100.2376,-170.3168 91.1724,-158.2299"/>
<polygon fill="#191970" stroke="#191970" points="118.1904,-200.0872 126.9904,-205.9872 123.7904,-195.8872 118.1904,-200.0872"/>
</g>
<!-- Node22 -->
<g id="node5" class="node">
<title>Node22</title>
<g id="a_node5"><a xlink:href="../../d1/dff/LHCClockCalibrator_8cxx.html" target="_top" xlink:title="/home/travis/build\l/AliceO2Group/AliceO2\l/Detectors/TOF/calibration\l/src/LHCClockCalibrator.cxx">
<polygon fill="none" stroke="#000000" points="161,-106 161,-158 312,-158 312,-106 161,-106"/>
<text text-anchor="start" x="169" y="-146" font-family="Helvetica,sans-Serif" font-size="10.00" fill="#000000">/home/travis/build</text>
<text text-anchor="start" x="169" y="-135" font-family="Helvetica,sans-Serif" font-size="10.00" fill="#000000">/AliceO2Group/AliceO2</text>
<text text-anchor="start" x="169" y="-124" font-family="Helvetica,sans-Serif" font-size="10.00" fill="#000000">/Detectors/TOF/calibration</text>
<text text-anchor="middle" x="236.5" y="-113" font-family="Helvetica,sans-Serif" font-size="10.00" fill="#000000">/src/LHCClockCalibrator.cxx</text>
</a>
</g>
</g>
<!-- Node21&#45;&gt;Node22 -->
<g id="edge4" class="edge">
<title>Node21&#45;&gt;Node22</title>
<path fill="none" stroke="#191970" d="M353.5727,-195.6265C330.7375,-183.2161 305.6713,-169.5931 284.6119,-158.1478"/>
<polygon fill="#191970" stroke="#191970" points="352.0762,-198.7966 362.5338,-200.4966 355.4189,-192.6463 352.0762,-198.7966"/>
</g>
<!-- Node23 -->
<g id="node6" class="node">
<title>Node23</title>
<g id="a_node6"><a xlink:href="../../d0/d37/LHCClockCalibratorSpec_8h.html" target="_top" xlink:title="Device to calibrate LHC clock phase using TOF data. ">
<polygon fill="none" stroke="#000000" points="330,-100.5 330,-163.5 511,-163.5 511,-100.5 330,-100.5"/>
<text text-anchor="start" x="338" y="-151.5" font-family="Helvetica,sans-Serif" font-size="10.00" fill="#000000">/home/travis/build</text>
<text text-anchor="start" x="338" y="-140.5" font-family="Helvetica,sans-Serif" font-size="10.00" fill="#000000">/AliceO2Group/AliceO2</text>
<text text-anchor="start" x="338" y="-129.5" font-family="Helvetica,sans-Serif" font-size="10.00" fill="#000000">/Detectors/TOF/calibration</text>
<text text-anchor="start" x="338" y="-118.5" font-family="Helvetica,sans-Serif" font-size="10.00" fill="#000000">/testWorkflow/LHCClockCalibrator</text>
<text text-anchor="middle" x="420.5" y="-107.5" font-family="Helvetica,sans-Serif" font-size="10.00" fill="#000000">Spec.h</text>
</a>
</g>
</g>
<!-- Node21&#45;&gt;Node23 -->
<g id="edge5" class="edge">
<title>Node21&#45;&gt;Node23</title>
<path fill="none" stroke="#191970" d="M420.5,-190.2111C420.5,-181.37 420.5,-172.1767 420.5,-163.778"/>
<polygon fill="#191970" stroke="#191970" points="417.0001,-190.3593 420.5,-200.3594 424.0001,-190.3594 417.0001,-190.3593"/>
</g>
<!-- Node24 -->
<g id="node7" class="node">
<title>Node24</title>
<g id="a_node7"><a xlink:href="../../d1/d1b/lhc-clockphase-workflow_8cxx.html" target="_top" xlink:title="/home/travis/build\l/AliceO2Group/AliceO2\l/Detectors/TOF/calibration\l/testWorkflow/lhc&#45;clockphase\l&#45;workflow.cxx">
<polygon fill="none" stroke="#000000" points="341,-.5 341,-63.5 500,-63.5 500,-.5 341,-.5"/>
<text text-anchor="start" x="349" y="-51.5" font-family="Helvetica,sans-Serif" font-size="10.00" fill="#000000">/home/travis/build</text>
<text text-anchor="start" x="349" y="-40.5" font-family="Helvetica,sans-Serif" font-size="10.00" fill="#000000">/AliceO2Group/AliceO2</text>
<text text-anchor="start" x="349" y="-29.5" font-family="Helvetica,sans-Serif" font-size="10.00" fill="#000000">/Detectors/TOF/calibration</text>
<text text-anchor="start" x="349" y="-18.5" font-family="Helvetica,sans-Serif" font-size="10.00" fill="#000000">/testWorkflow/lhc&#45;clockphase</text>
<text text-anchor="middle" x="420.5" y="-7.5" font-family="Helvetica,sans-Serif" font-size="10.00" fill="#000000">&#45;workflow.cxx</text>
</a>
</g>
</g>
<!-- Node23&#45;&gt;Node24 -->
<g id="edge6" class="edge">
<title>Node23&#45;&gt;Node24</title>
<path fill="none" stroke="#191970" d="M420.5,-90.2111C420.5,-81.37 420.5,-72.1767 420.5,-63.778"/>
<polygon fill="#191970" stroke="#191970" points="417.0001,-90.3593 420.5,-100.3594 424.0001,-90.3594 417.0001,-90.3593"/>
</g>
<!-- Node27 -->
<g id="node10" class="node">
<title>Node27</title>
<g id="a_node10"><a xlink:href="../../d4/d74/TOF_2reconstruction_2include_2TOFReconstruction_2ClustererTask_8h.html" target="_top" xlink:title="/home/travis/build\l/AliceO2Group/AliceO2\l/Detectors/TOF/reconstruction\l/include/TOFReconstruction\l/ClustererTask.h">
<polygon fill="none" stroke="#000000" points="529,-100.5 529,-163.5 690,-163.5 690,-100.5 529,-100.5"/>
<text text-anchor="start" x="537" y="-151.5" font-family="Helvetica,sans-Serif" font-size="10.00" fill="#000000">/home/travis/build</text>
<text text-anchor="start" x="537" y="-140.5" font-family="Helvetica,sans-Serif" font-size="10.00" fill="#000000">/AliceO2Group/AliceO2</text>
<text text-anchor="start" x="537" y="-129.5" font-family="Helvetica,sans-Serif" font-size="10.00" fill="#000000">/Detectors/TOF/reconstruction</text>
<text text-anchor="start" x="537" y="-118.5" font-family="Helvetica,sans-Serif" font-size="10.00" fill="#000000">/include/TOFReconstruction</text>
<text text-anchor="middle" x="609.5" y="-107.5" font-family="Helvetica,sans-Serif" font-size="10.00" fill="#000000">/ClustererTask.h</text>
</a>
</g>
</g>
<!-- Node26&#45;&gt;Node27 -->
<g id="edge9" class="edge">
<title>Node26&#45;&gt;Node27</title>
<path fill="none" stroke="#191970" d="M734.0329,-195.863C713.3904,-185.2771 690.9926,-173.7911 670.9577,-163.5168"/>
<polygon fill="#191970" stroke="#191970" points="732.5731,-199.0478 743.0684,-200.4966 735.7674,-192.819 732.5731,-199.0478"/>
</g>
<!-- Node29 -->
<g id="node12" class="node">
<title>Node29</title>
<g id="a_node12"><a xlink:href="../../d5/d8a/TOF_2reconstruction_2src_2Clusterer_8cxx.html" target="_top" xlink:title="/home/travis/build\l/AliceO2Group/AliceO2\l/Detectors/TOF/reconstruction\l/src/Clusterer.cxx">
<polygon fill="none" stroke="#000000" points="708,-106 708,-158 869,-158 869,-106 708,-106"/>
<text text-anchor="start" x="716" y="-146" font-family="Helvetica,sans-Serif" font-size="10.00" fill="#000000">/home/travis/build</text>
<text text-anchor="start" x="716" y="-135" font-family="Helvetica,sans-Serif" font-size="10.00" fill="#000000">/AliceO2Group/AliceO2</text>
<text text-anchor="start" x="716" y="-124" font-family="Helvetica,sans-Serif" font-size="10.00" fill="#000000">/Detectors/TOF/reconstruction</text>
<text text-anchor="middle" x="788.5" y="-113" font-family="Helvetica,sans-Serif" font-size="10.00" fill="#000000">/src/Clusterer.cxx</text>
</a>
</g>
</g>
<!-- Node26&#45;&gt;Node29 -->
<g id="edge11" class="edge">
<title>Node26&#45;&gt;Node29</title>
<path fill="none" stroke="#191970" d="M797.8061,-190.1631C796.0658,-179.2863 794.2408,-167.8798 792.6725,-158.078"/>
<polygon fill="#191970" stroke="#191970" points="794.4015,-191.038 799.4375,-200.3594 801.3136,-189.932 794.4015,-191.038"/>
</g>
<!-- Node26&#45;&gt;Node30 -->
<g id="edge12" class="edge">
<title>Node26&#45;&gt;Node30</title>
<path fill="none" stroke="#191970" d="M863.3329,-194.9982C882.8356,-182.7323 904.1215,-169.345 922.036,-158.078"/>
<polygon fill="#191970" stroke="#191970" points="861.4102,-192.0727 854.8086,-200.3594 865.137,-197.9982 861.4102,-192.0727"/>
</g>
<!-- Node28 -->
<g id="node11" class="node">
<title>Node28</title>
<g id="a_node11"><a xlink:href="../../d5/d10/TOF_2reconstruction_2src_2ClustererTask_8cxx.html" target="_top" xlink:title="/home/travis/build\l/AliceO2Group/AliceO2\l/Detectors/TOF/reconstruction\l/src/ClustererTask.cxx">
<polygon fill="none" stroke="#000000" points="529,-6 529,-58 690,-58 690,-6 529,-6"/>
<text text-anchor="start" x="537" y="-46" font-family="Helvetica,sans-Serif" font-size="10.00" fill="#000000">/home/travis/build</text>
<text text-anchor="start" x="537" y="-35" font-family="Helvetica,sans-Serif" font-size="10.00" fill="#000000">/AliceO2Group/AliceO2</text>
<text text-anchor="start" x="537" y="-24" font-family="Helvetica,sans-Serif" font-size="10.00" fill="#000000">/Detectors/TOF/reconstruction</text>
<text text-anchor="middle" x="609.5" y="-13" font-family="Helvetica,sans-Serif" font-size="10.00" fill="#000000">/src/ClustererTask.cxx</text>
</a>
</g>
</g>
<!-- Node27&#45;&gt;Node28 -->
<g id="edge10" class="edge">
<title>Node27&#45;&gt;Node28</title>
<path fill="none" stroke="#191970" d="M609.5,-90.1631C609.5,-79.2863 609.5,-67.8798 609.5,-58.078"/>
<polygon fill="#191970" stroke="#191970" points="606.0001,-90.3593 609.5,-100.3594 613.0001,-90.3594 606.0001,-90.3593"/>
</g>
<!-- Node32 -->
<g id="node15" class="node">
<title>Node32</title>
<g id="a_node15"><a xlink:href="../../d8/dc6/TOF_2simulation_2include_2TOFSimulation_2DigitizerTask_8h.html" target="_top" xlink:title="/home/travis/build\l/AliceO2Group/AliceO2\l/Detectors/TOF/simulation\l/include/TOFSimulation/Digitizer\lTask.h">
<polygon fill="none" stroke="#000000" points="1058,-100.5 1058,-163.5 1231,-163.5 1231,-100.5 1058,-100.5"/>
<text text-anchor="start" x="1066" y="-151.5" font-family="Helvetica,sans-Serif" font-size="10.00" fill="#000000">/home/travis/build</text>
<text text-anchor="start" x="1066" y="-140.5" font-family="Helvetica,sans-Serif" font-size="10.00" fill="#000000">/AliceO2Group/AliceO2</text>
<text text-anchor="start" x="1066" y="-129.5" font-family="Helvetica,sans-Serif" font-size="10.00" fill="#000000">/Detectors/TOF/simulation</text>
<text text-anchor="start" x="1066" y="-118.5" font-family="Helvetica,sans-Serif" font-size="10.00" fill="#000000">/include/TOFSimulation/Digitizer</text>
<text text-anchor="middle" x="1144.5" y="-107.5" font-family="Helvetica,sans-Serif" font-size="10.00" fill="#000000">Task.h</text>
</a>
</g>
</g>
<!-- Node31&#45;&gt;Node32 -->
<g id="edge14" class="edge">
<title>Node31&#45;&gt;Node32</title>
<path fill="none" stroke="#191970" d="M1179.6688,-197.1274C1173.7796,-186.2215 1167.3181,-174.2557 1161.5581,-163.5891"/>
<polygon fill="#191970" stroke="#191970" points="1176.6219,-198.8512 1184.4531,-205.9872 1182.7812,-195.5251 1176.6219,-198.8512"/>
</g>
<!-- Node34 -->
<g id="node17" class="node">
<title>Node34</title>
<g id="a_node17"><a xlink:href="../../d4/df3/TOF_2simulation_2src_2Digitizer_8cxx.html" target="_top" xlink:title="/home/travis/build\l/AliceO2Group/AliceO2\l/Detectors/TOF/simulation\l/src/Digitizer.cxx">
<polygon fill="none" stroke="#000000" points="1249,-106 1249,-158 1392,-158 1392,-106 1249,-106"/>
<text text-anchor="start" x="1257" y="-146" font-family="Helvetica,sans-Serif" font-size="10.00" fill="#000000">/home/travis/build</text>
<text text-anchor="start" x="1257" y="-135" font-family="Helvetica,sans-Serif" font-size="10.00" fill="#000000">/AliceO2Group/AliceO2</text>
<text text-anchor="start" x="1257" y="-124" font-family="Helvetica,sans-Serif" font-size="10.00" fill="#000000">/Detectors/TOF/simulation</text>
<text text-anchor="middle" x="1320.5" y="-113" font-family="Helvetica,sans-Serif" font-size="10.00" fill="#000000">/src/Digitizer.cxx</text>
</a>
</g>
</g>
<!-- Node31&#45;&gt;Node34 -->
<g id="edge16" class="edge">
<title>Node31&#45;&gt;Node34</title>
<path fill="none" stroke="#191970" d="M1238.0389,-199.5911C1254.3691,-186.2056 1273.0513,-170.8924 1288.4995,-158.2299"/>
<polygon fill="#191970" stroke="#191970" points="1235.7508,-196.941 1230.2356,-205.9872 1240.1883,-202.3548 1235.7508,-196.941"/>
</g>
<!-- Node31&#45;&gt;Node35 -->
<g id="edge17" class="edge">
<title>Node31&#45;&gt;Node35</title>
<path fill="none" stroke="#191970" d="M1290.1232,-202.6381C1325.1386,-191.0697 1365.3315,-177.3686 1401.5,-164 1406.6356,-162.1018 1411.9369,-160.0838 1417.2488,-158.0204"/>
<polygon fill="#191970" stroke="#191970" points="1288.7957,-199.3903 1280.3921,-205.8424 1290.9851,-206.0392 1288.7957,-199.3903"/>
</g>
<!-- Node33 -->
<g id="node16" class="node">
<title>Node33</title>
<g id="a_node16"><a xlink:href="../../dd/df3/TOF_2simulation_2src_2DigitizerTask_8cxx.html" target="_top" xlink:title="/home/travis/build\l/AliceO2Group/AliceO2\l/Detectors/TOF/simulation\l/src/DigitizerTask.cxx">
<polygon fill="none" stroke="#000000" points="1073,-6 1073,-58 1216,-58 1216,-6 1073,-6"/>
<text text-anchor="start" x="1081" y="-46" font-family="Helvetica,sans-Serif" font-size="10.00" fill="#000000">/home/travis/build</text>
<text text-anchor="start" x="1081" y="-35" font-family="Helvetica,sans-Serif" font-size="10.00" fill="#000000">/AliceO2Group/AliceO2</text>
<text text-anchor="start" x="1081" y="-24" font-family="Helvetica,sans-Serif" font-size="10.00" fill="#000000">/Detectors/TOF/simulation</text>
<text text-anchor="middle" x="1144.5" y="-13" font-family="Helvetica,sans-Serif" font-size="10.00" fill="#000000">/src/DigitizerTask.cxx</text>
</a>
</g>
</g>
<!-- Node32&#45;&gt;Node33 -->
<g id="edge15" class="edge">
<title>Node32&#45;&gt;Node33</title>
<path fill="none" stroke="#191970" d="M1144.5,-90.1631C1144.5,-79.2863 1144.5,-67.8798 1144.5,-58.078"/>
<polygon fill="#191970" stroke="#191970" points="1141.0001,-90.3593 1144.5,-100.3594 1148.0001,-90.3594 1141.0001,-90.3593"/>
</g>
</g>
</svg>
