<?xml version="1.0" encoding="UTF-8" standalone="no"?>
<!DOCTYPE svg PUBLIC "-//W3C//DTD SVG 1.1//EN"
 "http://www.w3.org/Graphics/SVG/1.1/DTD/svg11.dtd">
<!-- Generated by graphviz version 2.40.1 (20161225.0304)
 -->
<!-- Title: /home/travis/build/AliceO2Group/AliceO2/DataFormats/Detectors/CPV/src/Digit.cxx Pages: 1 -->
<!--zoomable 374 -->
<svg id="main" version="1.1" xmlns="http://www.w3.org/2000/svg" xmlns:xlink="http://www.w3.org/1999/xlink" xml:space="preserve" onload="init(evt)">
<style type="text/css"><![CDATA[
.edge:hover path { stroke: red; }
.edge:hover polygon { stroke: red; fill: red; }
]]></style>
<script type="text/javascript"><![CDATA[
var edges = document.getElementsByTagName('g');
if (edges && edges.length) {
  for (var i=0;i<edges.length;i++) {
    if (edges[i].id.substr(0,4)=='edge') {
      edges[i].setAttribute('class','edge');
    }
  }
}
]]></script>
        <defs>
                <circle id="rim" cx="0" cy="0" r="7"/>
                <circle id="rim2" cx="0" cy="0" r="3.5"/>
                <g id="zoomPlus">
                        <use xlink:href="#rim" fill="#404040">
                                <set attributeName="fill" to="#808080" begin="zoomplus.mouseover" end="zoomplus.mouseout"/>
                        </use>
                        <path d="M-4,0h8M0,-4v8" fill="none" stroke="white" stroke-width="1.5" pointer-events="none"/>
                </g>
                <g id="zoomMin">
                        <use xlink:href="#rim" fill="#404040">
                                <set attributeName="fill" to="#808080" begin="zoomminus.mouseover" end="zoomminus.mouseout"/>
                        </use>
                        <path d="M-4,0h8" fill="none" stroke="white" stroke-width="1.5" pointer-events="none"/>
                </g>
                <g id="dirArrow">
                        <path fill="none" stroke="white" stroke-width="1.5" d="M0,-3.0v7 M-2.5,-0.5L0,-3.0L2.5,-0.5"/>
                </g>
               <g id="resetDef">
                       <use xlink:href="#rim2" fill="#404040">
                               <set attributeName="fill" to="#808080" begin="reset.mouseover" end="reset.mouseout"/>
                       </use>
               </g>
        </defs>

<script type="text/javascript">
var viewWidth = 2100;
var viewHeight = 374;
var sectionId = 'dynsection-0';
</script>
<script xlink:href="../../svgpan.js"/>
<svg id="graph" class="graph">
<g id="viewport">
<title>/home/travis/build/AliceO2Group/AliceO2/DataFormats/Detectors/CPV/src/Digit.cxx</title>
<!-- Node0 -->
<g id="node1" class="node">
<title>Node0</title>
<polygon fill="#bfbfbf" stroke="#000000" points="668.5,-313.5 668.5,-365.5 801.5,-365.5 801.5,-313.5 668.5,-313.5"/>
<text text-anchor="start" x="676.5" y="-353.5" font-family="Helvetica,sans-Serif" font-size="10.00" fill="#000000">/home/travis/build</text>
<text text-anchor="start" x="676.5" y="-342.5" font-family="Helvetica,sans-Serif" font-size="10.00" fill="#000000">/AliceO2Group/AliceO2</text>
<text text-anchor="start" x="676.5" y="-331.5" font-family="Helvetica,sans-Serif" font-size="10.00" fill="#000000">/DataFormats/Detectors</text>
<text text-anchor="middle" x="735" y="-320.5" font-family="Helvetica,sans-Serif" font-size="10.00" fill="#000000">/CPV/src/Digit.cxx</text>
</g>
<!-- Node1 -->
<g id="node2" class="node">
<title>Node1</title>
<polygon fill="none" stroke="#bfbfbf" points="467.5,-257.5 467.5,-276.5 542.5,-276.5 542.5,-257.5 467.5,-257.5"/>
<text text-anchor="middle" x="505" y="-264.5" font-family="Helvetica,sans-Serif" font-size="10.00" fill="#000000">FairLogger.h</text>
</g>
<!-- Node0&#45;&gt;Node1 -->
<g id="edge1" class="edge">
<title>Node0&#45;&gt;Node1</title>
<path fill="none" stroke="#191970" d="M668.4745,-318.53C628.5057,-305.9311 578.9747,-290.3181 544.9722,-279.5999"/>
<polygon fill="#191970" stroke="#191970" points="545.9705,-276.2449 535.3809,-276.5766 543.8661,-282.9211 545.9705,-276.2449"/>
</g>
<!-- Node2 -->
<g id="node3" class="node">
<title>Node2</title>
<g id="a_node3"><a xlink:href="../../de/dfb/DataFormats_2Detectors_2CPV_2include_2DataFormatsCPV_2Digit_8h.html" target="_top" xlink:title="DataFormatsCPV/Digit.h">
<polygon fill="none" stroke="#000000" points="561,-257.5 561,-276.5 695,-276.5 695,-257.5 561,-257.5"/>
<text text-anchor="middle" x="628" y="-264.5" font-family="Helvetica,sans-Serif" font-size="10.00" fill="#000000">DataFormatsCPV/Digit.h</text>
</a>
</g>
</g>
<!-- Node0&#45;&gt;Node2 -->
<g id="edge2" class="edge">
<title>Node0&#45;&gt;Node2</title>
<path fill="none" stroke="#191970" d="M696.3705,-313.3258C681.0012,-302.912 663.8533,-291.2931 650.5755,-282.2965"/>
<polygon fill="#191970" stroke="#191970" points="652.3128,-279.2459 642.0709,-276.534 648.3862,-285.0409 652.3128,-279.2459"/>
</g>
<!-- Node10 -->
<g id="node11" class="node">
<title>Node10</title>
<g id="a_node11"><a xlink:href="../../db/dd0/Detectors_2CPV_2base_2include_2CPVBase_2Hit_8h.html" target="_top" xlink:title="CPVBase/Hit.h">
<polygon fill="none" stroke="#000000" points="800,-257.5 800,-276.5 886,-276.5 886,-257.5 800,-257.5"/>
<text text-anchor="middle" x="843" y="-264.5" font-family="Helvetica,sans-Serif" font-size="10.00" fill="#000000">CPVBase/Hit.h</text>
</a>
</g>
</g>
<!-- Node0&#45;&gt;Node10 -->
<g id="edge10" class="edge">
<title>Node0&#45;&gt;Node10</title>
<path fill="none" stroke="#191970" d="M773.9905,-313.3258C789.5034,-302.912 806.8116,-291.2931 820.2135,-282.2965"/>
<polygon fill="#191970" stroke="#191970" points="822.4457,-285.0136 828.7976,-276.534 818.5441,-279.2017 822.4457,-285.0136"/>
</g>
<!-- Node30 -->
<g id="node31" class="node">
<title>Node30</title>
<polygon fill="none" stroke="#bfbfbf" points="904,-257.5 904,-276.5 964,-276.5 964,-257.5 904,-257.5"/>
<text text-anchor="middle" x="934" y="-264.5" font-family="Helvetica,sans-Serif" font-size="10.00" fill="#000000">iostream</text>
</g>
<!-- Node0&#45;&gt;Node30 -->
<g id="edge31" class="edge">
<title>Node0&#45;&gt;Node30</title>
<path fill="none" stroke="#191970" d="M801.5408,-315.2578C833.802,-303.5043 871.2747,-289.8522 898.1135,-280.0742"/>
<polygon fill="#191970" stroke="#191970" points="899.6482,-283.2402 907.846,-276.5285 897.252,-276.6631 899.6482,-283.2402"/>
</g>
<!-- Node3 -->
<g id="node4" class="node">
<title>Node3</title>
<polygon fill="none" stroke="#bfbfbf" points="426.5,-196 426.5,-215 473.5,-215 473.5,-196 426.5,-196"/>
<text text-anchor="middle" x="450" y="-203" font-family="Helvetica,sans-Serif" font-size="10.00" fill="#000000">cmath</text>
</g>
<!-- Node2&#45;&gt;Node3 -->
<g id="edge3" class="edge">
<title>Node2&#45;&gt;Node3</title>
<path fill="none" stroke="#191970" d="M592.6899,-257.4411C562.8047,-248.9808 519.047,-235.7175 482,-221 480.6375,-220.4587 479.2524,-219.8845 477.8606,-219.288"/>
<polygon fill="#191970" stroke="#191970" points="479.2989,-216.0973 468.7471,-215.1439 476.4013,-222.4694 479.2989,-216.0973"/>
</g>
<!-- Node4 -->
<g id="node5" class="node">
<title>Node4</title>
<g id="a_node5"><a xlink:href="../../df/d5d/common_2include_2CommonDataFormat_2TimeStamp_8h.html" target="_top" xlink:title="CommonDataFormat/TimeStamp.h">
<polygon fill="none" stroke="#000000" points="491.5,-196 491.5,-215 678.5,-215 678.5,-196 491.5,-196"/>
<text text-anchor="middle" x="585" y="-203" font-family="Helvetica,sans-Serif" font-size="10.00" fill="#000000">CommonDataFormat/TimeStamp.h</text>
</a>
</g>
</g>
<!-- Node2&#45;&gt;Node4 -->
<g id="edge4" class="edge">
<title>Node2&#45;&gt;Node4</title>
<path fill="none" stroke="#191970" d="M621.2813,-257.3906C615.007,-248.417 605.4777,-234.7879 597.7596,-223.7491"/>
<polygon fill="#191970" stroke="#191970" points="600.4121,-221.4348 591.8135,-215.2449 594.6753,-225.4459 600.4121,-221.4348"/>
</g>
<!-- Node5 -->
<g id="node6" class="node">
<title>Node5</title>
<g id="a_node6"><a xlink:href="../../d2/d45/GPUCommonRtypes_8h.html" target="_top" xlink:title="GPUCommonRtypes.h">
<polygon fill="none" stroke="#000000" points="459.5,-134.5 459.5,-153.5 584.5,-153.5 584.5,-134.5 459.5,-134.5"/>
<text text-anchor="middle" x="522" y="-141.5" font-family="Helvetica,sans-Serif" font-size="10.00" fill="#000000">GPUCommonRtypes.h</text>
</a>
</g>
</g>
<!-- Node4&#45;&gt;Node5 -->
<g id="edge5" class="edge">
<title>Node4&#45;&gt;Node5</title>
<path fill="none" stroke="#191970" d="M575.1563,-195.8906C565.5961,-186.5581 550.8777,-172.1902 539.3505,-160.9374"/>
<polygon fill="#191970" stroke="#191970" points="541.5832,-158.2257 531.9825,-153.7449 536.6934,-163.2348 541.5832,-158.2257"/>
</g>
<!-- Node7 -->
<g id="node8" class="node">
<title>Node7</title>
<g id="a_node8"><a xlink:href="../../df/d21/GPUCommonDef_8h.html" target="_top" xlink:title="GPUCommonDef.h">
<polygon fill="none" stroke="#000000" points="174.5,-134.5 174.5,-153.5 281.5,-153.5 281.5,-134.5 174.5,-134.5"/>
<text text-anchor="middle" x="228" y="-141.5" font-family="Helvetica,sans-Serif" font-size="10.00" fill="#000000">GPUCommonDef.h</text>
</a>
</g>
</g>
<!-- Node4&#45;&gt;Node7 -->
<g id="edge7" class="edge">
<title>Node4&#45;&gt;Node7</title>
<path fill="none" stroke="#191970" d="M529.6105,-195.9581C465.3418,-184.8866 359.5585,-166.6634 291.877,-155.004"/>
<polygon fill="#191970" stroke="#191970" points="292.2148,-151.5107 281.7658,-153.2622 291.0264,-158.4091 292.2148,-151.5107"/>
</g>
<!-- Node6 -->
<g id="node7" class="node">
<title>Node6</title>
<polygon fill="none" stroke="#bfbfbf" points="308.5,-73 308.5,-92 367.5,-92 367.5,-73 308.5,-73"/>
<text text-anchor="middle" x="338" y="-80" font-family="Helvetica,sans-Serif" font-size="10.00" fill="#000000">Rtypes.h</text>
</g>
<!-- Node5&#45;&gt;Node6 -->
<g id="edge6" class="edge">
<title>Node5&#45;&gt;Node6</title>
<path fill="none" stroke="#191970" d="M488.9806,-134.4405C459.2194,-125.6249 414.3723,-111.8445 376,-98 374.1402,-97.329 372.2371,-96.6213 370.3219,-95.8928"/>
<polygon fill="#191970" stroke="#191970" points="371.3774,-92.5472 360.79,-92.1501 368.819,-99.0629 371.3774,-92.5472"/>
</g>
<!-- Node8 -->
<g id="node9" class="node">
<title>Node8</title>
<g id="a_node9"><a xlink:href="../../d5/d93/GPUCommonDefSettings_8h.html" target="_top" xlink:title="GPUCommonDefSettings.h">
<polygon fill="none" stroke="#000000" points="0,-73 0,-92 148,-92 148,-73 0,-73"/>
<text text-anchor="middle" x="74" y="-80" font-family="Helvetica,sans-Serif" font-size="10.00" fill="#000000">GPUCommonDefSettings.h</text>
</a>
</g>
</g>
<!-- Node7&#45;&gt;Node8 -->
<g id="edge8" class="edge">
<title>Node7&#45;&gt;Node8</title>
<path fill="none" stroke="#191970" d="M203.9375,-134.3906C177.9444,-124.0103 136.3522,-107.4004 107.2453,-95.7766"/>
<polygon fill="#191970" stroke="#191970" points="108.4785,-92.5003 97.8935,-92.0419 105.8823,-99.0011 108.4785,-92.5003"/>
</g>
<!-- Node9 -->
<g id="node10" class="node">
<title>Node9</title>
<g id="a_node10"><a xlink:href="../../da/d5a/GPUCommonDefAPI_8h.html" target="_top" xlink:title="GPUCommonDefAPI.h">
<polygon fill="none" stroke="#000000" points="166,-73 166,-92 290,-92 290,-73 166,-73"/>
<text text-anchor="middle" x="228" y="-80" font-family="Helvetica,sans-Serif" font-size="10.00" fill="#000000">GPUCommonDefAPI.h</text>
</a>
</g>
</g>
<!-- Node7&#45;&gt;Node9 -->
<g id="edge9" class="edge">
<title>Node7&#45;&gt;Node9</title>
<path fill="none" stroke="#191970" d="M228,-134.3906C228,-125.8657 228,-113.1392 228,-102.4235"/>
<polygon fill="#191970" stroke="#191970" points="231.5001,-102.2448 228,-92.2449 224.5001,-102.2449 231.5001,-102.2448"/>
</g>
<!-- Node11 -->
<g id="node12" class="node">
<title>Node11</title>
<g id="a_node12"><a xlink:href="../../d4/d25/BaseHits_8h.html" target="_top" xlink:title="SimulationDataFormat\l/BaseHits.h">
<polygon fill="none" stroke="#000000" points="823.5,-190.5 823.5,-220.5 950.5,-220.5 950.5,-190.5 823.5,-190.5"/>
<text text-anchor="start" x="831.5" y="-208.5" font-family="Helvetica,sans-Serif" font-size="10.00" fill="#000000">SimulationDataFormat</text>
<text text-anchor="middle" x="887" y="-197.5" font-family="Helvetica,sans-Serif" font-size="10.00" fill="#000000">/BaseHits.h</text>
</a>
</g>
</g>
<!-- Node10&#45;&gt;Node11 -->
<g id="edge11" class="edge">
<title>Node10&#45;&gt;Node11</title>
<path fill="none" stroke="#191970" d="M849.875,-257.3906C855.3336,-249.761 863.2001,-238.7658 870.288,-228.8588"/>
<polygon fill="#191970" stroke="#191970" points="873.2642,-230.714 876.2364,-220.5446 867.5712,-226.6409 873.2642,-230.714"/>
</g>
<!-- Node23 -->
<g id="node24" class="node">
<title>Node23</title>
<g id="a_node24"><a xlink:href="../../d0/d91/ShmAllocator_8h.html" target="_top" xlink:title="CommonUtils/ShmAllocator.h">
<polygon fill="none" stroke="#000000" points="1341,-196 1341,-215 1501,-215 1501,-196 1341,-196"/>
<text text-anchor="middle" x="1421" y="-203" font-family="Helvetica,sans-Serif" font-size="10.00" fill="#000000">CommonUtils/ShmAllocator.h</text>
</a>
</g>
</g>
<!-- Node10&#45;&gt;Node23 -->
<g id="edge24" class="edge">
<title>Node10&#45;&gt;Node23</title>
<path fill="none" stroke="#191970" d="M886.0784,-258.398C889.0924,-257.894 892.0885,-257.4216 895,-257 1047.2567,-234.9544 1225.7044,-219.695 1330.724,-211.7891"/>
<polygon fill="#191970" stroke="#191970" points="1331.256,-215.2592 1340.9674,-211.0238 1330.7344,-208.2787 1331.256,-215.2592"/>
</g>
<!-- Node12 -->
<g id="node13" class="node">
<title>Node12</title>
<g id="a_node13"><a xlink:href="../../dd/d76/Cartesian3D_8h.html" target="_top" xlink:title="MathUtils/Cartesian3D.h">
<polygon fill="none" stroke="#000000" points="844.5,-134.5 844.5,-153.5 979.5,-153.5 979.5,-134.5 844.5,-134.5"/>
<text text-anchor="middle" x="912" y="-141.5" font-family="Helvetica,sans-Serif" font-size="10.00" fill="#000000">MathUtils/Cartesian3D.h</text>
</a>
</g>
</g>
<!-- Node11&#45;&gt;Node12 -->
<g id="edge12" class="edge">
<title>Node11&#45;&gt;Node12</title>
<path fill="none" stroke="#191970" d="M893.1798,-190.2977C896.5054,-182.1166 900.6411,-171.943 904.1879,-163.2179"/>
<polygon fill="#191970" stroke="#191970" points="907.4737,-164.4288 907.9972,-153.8469 900.989,-161.7927 907.4737,-164.4288"/>
</g>
<!-- Node12&#45;&gt;Node6 -->
<g id="edge18" class="edge">
<title>Node12&#45;&gt;Node6</title>
<path fill="none" stroke="#191970" d="M844.1106,-140.7258C720.4121,-134.3368 463.0534,-118.9764 376,-98 373.2077,-97.3272 370.3525,-96.4819 367.5235,-95.5351"/>
<polygon fill="#191970" stroke="#191970" points="368.7278,-92.2489 358.1353,-92.0286 366.2785,-98.8064 368.7278,-92.2489"/>
</g>
<!-- Node13 -->
<g id="node14" class="node">
<title>Node13</title>
<polygon fill="none" stroke="#bfbfbf" points="539,-67.5 539,-97.5 703,-97.5 703,-67.5 539,-67.5"/>
<text text-anchor="start" x="547" y="-85.5" font-family="Helvetica,sans-Serif" font-size="10.00" fill="#000000">Math/GenVector/Displacement</text>
<text text-anchor="middle" x="621" y="-74.5" font-family="Helvetica,sans-Serif" font-size="10.00" fill="#000000">Vector3D.h</text>
</g>
<!-- Node12&#45;&gt;Node13 -->
<g id="edge13" class="edge">
<title>Node12&#45;&gt;Node13</title>
<path fill="none" stroke="#191970" d="M866.8505,-134.4581C822.9826,-125.187 755.3862,-110.9012 702.1673,-99.6539"/>
<polygon fill="#191970" stroke="#191970" points="702.5746,-96.1628 692.067,-97.5193 701.1271,-103.0115 702.5746,-96.1628"/>
</g>
<!-- Node14 -->
<g id="node15" class="node">
<title>Node14</title>
<polygon fill="none" stroke="#bfbfbf" points="721.5,-73 721.5,-92 910.5,-92 910.5,-73 721.5,-73"/>
<text text-anchor="middle" x="816" y="-80" font-family="Helvetica,sans-Serif" font-size="10.00" fill="#000000">Math/GenVector/PositionVector3D.h</text>
</g>
<!-- Node12&#45;&gt;Node14 -->
<g id="edge14" class="edge">
<title>Node12&#45;&gt;Node14</title>
<path fill="none" stroke="#191970" d="M897,-134.3906C881.6419,-124.5519 857.5479,-109.1167 839.6255,-97.6351"/>
<polygon fill="#191970" stroke="#191970" points="841.203,-94.4891 830.8947,-92.0419 837.427,-100.3833 841.203,-94.4891"/>
</g>
<!-- Node15 -->
<g id="node16" class="node">
<title>Node15</title>
<polygon fill="none" stroke="#bfbfbf" points="929,-73 929,-92 1089,-92 1089,-73 929,-73"/>
<text text-anchor="middle" x="1009" y="-80" font-family="Helvetica,sans-Serif" font-size="10.00" fill="#000000">Math/GenVector/Rotation3D.h</text>
</g>
<!-- Node12&#45;&gt;Node15 -->
<g id="edge15" class="edge">
<title>Node12&#45;&gt;Node15</title>
<path fill="none" stroke="#191970" d="M927.1563,-134.3906C942.6743,-124.5519 967.0193,-109.1167 985.1284,-97.6351"/>
<polygon fill="#191970" stroke="#191970" points="987.3787,-100.3526 993.9502,-92.0419 983.6304,-94.4407 987.3787,-100.3526"/>
</g>
<!-- Node16 -->
<g id="node17" class="node">
<title>Node16</title>
<polygon fill="none" stroke="#bfbfbf" points="1107,-73 1107,-92 1275,-92 1275,-73 1107,-73"/>
<text text-anchor="middle" x="1191" y="-80" font-family="Helvetica,sans-Serif" font-size="10.00" fill="#000000">Math/GenVector/Transform3D.h</text>
</g>
<!-- Node12&#45;&gt;Node16 -->
<g id="edge16" class="edge">
<title>Node12&#45;&gt;Node16</title>
<path fill="none" stroke="#191970" d="M955.2876,-134.4581C1004.4642,-123.6181 1084.7424,-105.9224 1137.723,-94.2439"/>
<polygon fill="#191970" stroke="#191970" points="1138.5987,-97.6349 1147.6108,-92.0643 1137.0918,-90.799 1138.5987,-97.6349"/>
</g>
<!-- Node17 -->
<g id="node18" class="node">
<title>Node17</title>
<polygon fill="none" stroke="#bfbfbf" points="1293.5,-73 1293.5,-92 1466.5,-92 1466.5,-73 1293.5,-73"/>
<text text-anchor="middle" x="1380" y="-80" font-family="Helvetica,sans-Serif" font-size="10.00" fill="#000000">Math/GenVector/Translation3D.h</text>
</g>
<!-- Node12&#45;&gt;Node17 -->
<g id="edge17" class="edge">
<title>Node12&#45;&gt;Node17</title>
<path fill="none" stroke="#191970" d="M979.6416,-136.3984C1054.2659,-127.8344 1177.8609,-113.1256 1284,-98 1293.4275,-96.6565 1303.3613,-95.1526 1313.1204,-93.6241"/>
<polygon fill="#191970" stroke="#191970" points="1313.8693,-97.0492 1323.1987,-92.0281 1312.7743,-90.1353 1313.8693,-97.0492"/>
</g>
<!-- Node18 -->
<g id="node19" class="node">
<title>Node18</title>
<polygon fill="none" stroke="#bfbfbf" points="1485,-73 1485,-92 1567,-92 1567,-73 1485,-73"/>
<text text-anchor="middle" x="1526" y="-80" font-family="Helvetica,sans-Serif" font-size="10.00" fill="#000000">TGeoMatrix.h</text>
</g>
<!-- Node12&#45;&gt;Node18 -->
<g id="edge19" class="edge">
<title>Node12&#45;&gt;Node18</title>
<path fill="none" stroke="#191970" d="M979.7495,-140.3398C1108.2069,-133.0912 1382.6794,-116.0435 1476,-98 1480.3847,-97.1522 1484.9285,-96.0588 1489.4086,-94.8452"/>
<polygon fill="#191970" stroke="#191970" points="1490.4048,-98.2006 1499.0283,-92.0455 1488.4486,-91.4795 1490.4048,-98.2006"/>
</g>
<!-- Node19 -->
<g id="node20" class="node">
<title>Node19</title>
<polygon fill="none" stroke="#bfbfbf" points="1585.5,-73 1585.5,-92 1634.5,-92 1634.5,-73 1585.5,-73"/>
<text text-anchor="middle" x="1610" y="-80" font-family="Helvetica,sans-Serif" font-size="10.00" fill="#000000">iosfwd</text>
</g>
<!-- Node12&#45;&gt;Node19 -->
<g id="edge20" class="edge">
<title>Node12&#45;&gt;Node19</title>
<path fill="none" stroke="#191970" d="M979.521,-142.379C1125.1409,-138.3864 1464.5541,-126.273 1576,-98 1578.1969,-97.4427 1580.4274,-96.7488 1582.6414,-95.966"/>
<polygon fill="#191970" stroke="#191970" points="1584.15,-99.1306 1592.0872,-92.1126 1581.5059,-92.6492 1584.15,-99.1306"/>
</g>
<!-- Node20 -->
<g id="node21" class="node">
<title>Node20</title>
<g id="a_node21"><a xlink:href="../../d2/dd0/Cartesian2D_8h.html" target="_top" xlink:title="MathUtils/Cartesian2D.h">
<polygon fill="none" stroke="#000000" points="385.5,-73 385.5,-92 520.5,-92 520.5,-73 385.5,-73"/>
<text text-anchor="middle" x="453" y="-80" font-family="Helvetica,sans-Serif" font-size="10.00" fill="#000000">MathUtils/Cartesian2D.h</text>
</a>
</g>
</g>
<!-- Node12&#45;&gt;Node20 -->
<g id="edge21" class="edge">
<title>Node12&#45;&gt;Node20</title>
<path fill="none" stroke="#191970" d="M844.4963,-137.4959C767.9859,-129.7474 639.6475,-115.6097 530,-98 522.6044,-96.8123 514.8375,-95.4206 507.1991,-93.9672"/>
<polygon fill="#191970" stroke="#191970" points="507.7585,-90.5105 497.2737,-92.033 506.4196,-97.3812 507.7585,-90.5105"/>
</g>
<!-- Node21 -->
<g id="node22" class="node">
<title>Node21</title>
<polygon fill="none" stroke="#bfbfbf" points="273,-.5 273,-30.5 437,-30.5 437,-.5 273,-.5"/>
<text text-anchor="start" x="281" y="-18.5" font-family="Helvetica,sans-Serif" font-size="10.00" fill="#000000">Math/GenVector/Displacement</text>
<text text-anchor="middle" x="355" y="-7.5" font-family="Helvetica,sans-Serif" font-size="10.00" fill="#000000">Vector2D.h</text>
</g>
<!-- Node20&#45;&gt;Node21 -->
<g id="edge22" class="edge">
<title>Node20&#45;&gt;Node21</title>
<path fill="none" stroke="#191970" d="M438.959,-72.9005C425.0412,-63.3853 403.272,-48.5023 385.388,-36.2755"/>
<polygon fill="#191970" stroke="#191970" points="387.2026,-33.2763 376.9721,-30.5218 383.2519,-39.0549 387.2026,-33.2763"/>
</g>
<!-- Node22 -->
<g id="node23" class="node">
<title>Node22</title>
<polygon fill="none" stroke="#bfbfbf" points="455.5,-6 455.5,-25 644.5,-25 644.5,-6 455.5,-6"/>
<text text-anchor="middle" x="550" y="-13" font-family="Helvetica,sans-Serif" font-size="10.00" fill="#000000">Math/GenVector/PositionVector2D.h</text>
</g>
<!-- Node20&#45;&gt;Node22 -->
<g id="edge23" class="edge">
<title>Node20&#45;&gt;Node22</title>
<path fill="none" stroke="#191970" d="M466.8977,-72.9005C482.8164,-61.9052 509.1121,-43.7422 527.8599,-30.7927"/>
<polygon fill="#191970" stroke="#191970" points="529.8892,-33.6448 536.128,-25.0817 525.9108,-27.8852 529.8892,-33.6448"/>
</g>
<!-- Node24 -->
<g id="node25" class="node">
<title>Node24</title>
<g id="a_node25"><a xlink:href="../../de/d61/ShmManager_8h.html" target="_top" xlink:title="CommonUtils/ShmManager.h">
<polygon fill="none" stroke="#000000" points="1742,-134.5 1742,-153.5 1900,-153.5 1900,-134.5 1742,-134.5"/>
<text text-anchor="middle" x="1821" y="-141.5" font-family="Helvetica,sans-Serif" font-size="10.00" fill="#000000">CommonUtils/ShmManager.h</text>
</a>
</g>
</g>
<!-- Node23&#45;&gt;Node24 -->
<g id="edge25" class="edge">
<title>Node23&#45;&gt;Node24</title>
<path fill="none" stroke="#191970" d="M1483.0611,-195.9581C1554.9894,-184.8991 1673.3275,-166.7047 1749.1717,-155.0436"/>
<polygon fill="#191970" stroke="#191970" points="1749.7704,-158.4928 1759.1224,-153.5137 1748.7066,-151.5741 1749.7704,-158.4928"/>
</g>
<!-- Node29 -->
<g id="node30" class="node">
<title>Node29</title>
<polygon fill="none" stroke="#bfbfbf" points="1395,-134.5 1395,-153.5 1447,-153.5 1447,-134.5 1395,-134.5"/>
<text text-anchor="middle" x="1421" y="-141.5" font-family="Helvetica,sans-Serif" font-size="10.00" fill="#000000">cassert</text>
</g>
<!-- Node23&#45;&gt;Node29 -->
<g id="edge30" class="edge">
<title>Node23&#45;&gt;Node29</title>
<path fill="none" stroke="#191970" d="M1421,-195.8906C1421,-187.3657 1421,-174.6392 1421,-163.9235"/>
<polygon fill="#191970" stroke="#191970" points="1424.5001,-163.7448 1421,-153.7449 1417.5001,-163.7449 1424.5001,-163.7448"/>
</g>
<!-- Node25 -->
<g id="node26" class="node">
<title>Node25</title>
<polygon fill="none" stroke="#bfbfbf" points="1805,-73 1805,-92 1837,-92 1837,-73 1805,-73"/>
<text text-anchor="middle" x="1821" y="-80" font-family="Helvetica,sans-Serif" font-size="10.00" fill="#000000">list</text>
</g>
<!-- Node24&#45;&gt;Node25 -->
<g id="edge26" class="edge">
<title>Node24&#45;&gt;Node25</title>
<path fill="none" stroke="#191970" d="M1821,-134.3906C1821,-125.8657 1821,-113.1392 1821,-102.4235"/>
<polygon fill="#191970" stroke="#191970" points="1824.5001,-102.2448 1821,-92.2449 1817.5001,-102.2449 1824.5001,-102.2448"/>
</g>
<!-- Node26 -->
<g id="node27" class="node">
<title>Node26</title>
<polygon fill="none" stroke="#bfbfbf" points="1855.5,-73 1855.5,-92 1908.5,-92 1908.5,-73 1855.5,-73"/>
<text text-anchor="middle" x="1882" y="-80" font-family="Helvetica,sans-Serif" font-size="10.00" fill="#000000">cstddef</text>
</g>
<!-- Node24&#45;&gt;Node26 -->
<g id="edge27" class="edge">
<title>Node24&#45;&gt;Node26</title>
<path fill="none" stroke="#191970" d="M1830.5313,-134.3906C1839.7879,-125.0581 1854.039,-110.6902 1865.2003,-99.4374"/>
<polygon fill="#191970" stroke="#191970" points="1867.7772,-101.8095 1872.3344,-92.2449 1862.8072,-96.88 1867.7772,-101.8095"/>
</g>
<!-- Node27 -->
<g id="node28" class="node">
<title>Node27</title>
<polygon fill="none" stroke="#bfbfbf" points="1926.5,-67.5 1926.5,-97.5 2091.5,-97.5 2091.5,-67.5 1926.5,-67.5"/>
<text text-anchor="start" x="1934.5" y="-85.5" font-family="Helvetica,sans-Serif" font-size="10.00" fill="#000000">boost/interprocess</text>
<text text-anchor="middle" x="2009" y="-74.5" font-family="Helvetica,sans-Serif" font-size="10.00" fill="#000000">/managed_external_buffer.hpp</text>
</g>
<!-- Node24&#45;&gt;Node27 -->
<g id="edge28" class="edge">
<title>Node24&#45;&gt;Node27</title>
<path fill="none" stroke="#191970" d="M1850.375,-134.3906C1877.821,-125.4123 1919.5135,-111.7735 1953.2676,-100.7316"/>
<polygon fill="#191970" stroke="#191970" points="1954.5939,-103.9803 1963.01,-97.5446 1952.4174,-97.3273 1954.5939,-103.9803"/>
</g>
<!-- Node28 -->
<g id="node29" class="node">
<title>Node28</title>
<polygon fill="none" stroke="#bfbfbf" points="1653,-67.5 1653,-97.5 1787,-97.5 1787,-67.5 1653,-67.5"/>
<text text-anchor="start" x="1661" y="-85.5" font-family="Helvetica,sans-Serif" font-size="10.00" fill="#000000">boost/interprocess</text>
<text text-anchor="middle" x="1720" y="-74.5" font-family="Helvetica,sans-Serif" font-size="10.00" fill="#000000">/allocators/allocator.hpp</text>
</g>
<!-- Node24&#45;&gt;Node28 -->
<g id="edge29" class="edge">
<title>Node24&#45;&gt;Node28</title>
<path fill="none" stroke="#191970" d="M1805.2188,-134.3906C1791.4231,-125.9903 1770.9274,-113.5103 1753.4934,-102.8945"/>
<polygon fill="#191970" stroke="#191970" points="1755.0689,-99.756 1744.7074,-97.5446 1751.4283,-105.7349 1755.0689,-99.756"/>
</g>
</g>
</svg>
        <g id="navigator" transform="translate(0 0)" fill="#404254">
                <rect fill="#f2f5e9" fill-opacity="0.5" stroke="#606060" stroke-width=".5" x="0" y="0" width="60" height="60"/>
                <use id="zoomplus" xlink:href="#zoomPlus" x="17" y="9" onmousedown="handleZoom(evt,'in')"/>
                <use id="zoomminus" xlink:href="#zoomMin" x="42" y="9" onmousedown="handleZoom(evt,'out')"/>
                <use id="reset" xlink:href="#resetDef" x="30" y="36" onmousedown="handleReset()"/>
                <g id="arrowUp" xlink:href="#dirArrow" transform="translate(30 24)" onmousedown="handlePan(0,-1)">
                  <use xlink:href="#rim" fill="#404040">
                        <set attributeName="fill" to="#808080" begin="arrowUp.mouseover" end="arrowUp.mouseout"/>
                  </use>
                  <path fill="none" stroke="white" stroke-width="1.5" d="M0,-3.0v7 M-2.5,-0.5L0,-3.0L2.5,-0.5"/>
                </g>
                <g id="arrowRight" xlink:href="#dirArrow" transform="rotate(90) translate(36 -43)" onmousedown="handlePan(1,0)">
                  <use xlink:href="#rim" fill="#404040">
                        <set attributeName="fill" to="#808080" begin="arrowRight.mouseover" end="arrowRight.mouseout"/>
                  </use>
                  <path fill="none" stroke="white" stroke-width="1.5" d="M0,-3.0v7 M-2.5,-0.5L0,-3.0L2.5,-0.5"/>
                </g>
                <g id="arrowDown" xlink:href="#dirArrow" transform="rotate(180) translate(-30 -48)" onmousedown="handlePan(0,1)">
                  <use xlink:href="#rim" fill="#404040">
                        <set attributeName="fill" to="#808080" begin="arrowDown.mouseover" end="arrowDown.mouseout"/>
                  </use>
                  <path fill="none" stroke="white" stroke-width="1.5" d="M0,-3.0v7 M-2.5,-0.5L0,-3.0L2.5,-0.5"/>
                </g>
                <g id="arrowLeft" xlink:href="#dirArrow" transform="rotate(270) translate(-36 17)" onmousedown="handlePan(-1,0)">
                  <use xlink:href="#rim" fill="#404040">
                        <set attributeName="fill" to="#808080" begin="arrowLeft.mouseover" end="arrowLeft.mouseout"/>
                  </use>
                  <path fill="none" stroke="white" stroke-width="1.5" d="M0,-3.0v7 M-2.5,-0.5L0,-3.0L2.5,-0.5"/>
                </g>
        </g>
        <svg viewBox="0 0 15 15" width="100%" height="30px" preserveAspectRatio="xMaxYMin meet">
         <g id="arrow_out" transform="scale(0.3 0.3)">
          <a xlink:href="DataFormats_2Detectors_2CPV_2src_2Digit_8cxx__incl_org.svg" target="_base">
           <rect id="button" ry="5" rx="5" y="6" x="6" height="38" width="38"
                fill="#f2f5e9" fill-opacity="0.5" stroke="#606060" stroke-width="1.0"/>
           <path id="arrow"
             d="M 11.500037,31.436501 C 11.940474,20.09759 22.043105,11.32322 32.158766,21.979434 L 37.068811,17.246167 C 37.068811,17.246167 37.088388,32 37.088388,32 L 22.160133,31.978069 C 22.160133,31.978069 26.997745,27.140456 26.997745,27.140456 C 18.528582,18.264221 13.291696,25.230495 11.500037,31.436501 z"
             style="fill:#404040;"/>
          </a>
         </g>
        </svg>
</svg>
