<?xml version="1.0" encoding="UTF-8" standalone="no"?>
<!DOCTYPE svg PUBLIC "-//W3C//DTD SVG 1.1//EN"
 "http://www.w3.org/Graphics/SVG/1.1/DTD/svg11.dtd">
<!-- Generated by graphviz version 2.40.1 (20161225.0304)
 -->
<!-- Title: o2::framework::has_root_dictionary&lt; T, _ &gt; Pages: 1 -->
<svg width="167pt" height="438pt"
 viewBox="0.00 0.00 166.50 438.00" xmlns="http://www.w3.org/2000/svg" xmlns:xlink="http://www.w3.org/1999/xlink">
<g id="graph0" class="graph" transform="scale(1 1) rotate(0) translate(4 434)">
<title>o2::framework::has_root_dictionary&lt; T, _ &gt;</title>
<!-- Node0 -->
<g id="node1" class="node">
<title>Node0</title>
<polygon fill="#bfbfbf" stroke="#000000" points="0,-266.5 0,-334.5 135,-334.5 135,-266.5 0,-266.5"/>
<text text-anchor="start" x="8" y="-322.5" font-family="Helvetica,sans-Serif" font-size="10.00" fill="#000000">o2::framework::has</text>
<text text-anchor="middle" x="67.5" y="-311.5" font-family="Helvetica,sans-Serif" font-size="10.00" fill="#000000">_root_dictionary&lt; T, _ &gt;</text>
<polyline fill="none" stroke="#000000" points="0,-304.5 135,-304.5 "/>
<text text-anchor="middle" x="67.5" y="-292.5" font-family="Helvetica,sans-Serif" font-size="10.00" fill="#000000"> </text>
<polyline fill="none" stroke="#000000" points="0,-285.5 135,-285.5 "/>
<text text-anchor="middle" x="67.5" y="-273.5" font-family="Helvetica,sans-Serif" font-size="10.00" fill="#000000"> </text>
</g>
<!-- Node2 -->
<g id="node3" class="node">
<title>Node2</title>
<g id="a_node3"><a xlink:href="../../d3/de1/structo2_1_1framework_1_1has__root__dictionary.html" target="_top" xlink:title="{o2::framework::has\l_root_dictionary\&lt; T\l::value_type \&gt;\n||}">
<polygon fill="none" stroke="#000000" points="11,-139.5 11,-218.5 124,-218.5 124,-139.5 11,-139.5"/>
<text text-anchor="start" x="19" y="-206.5" font-family="Helvetica,sans-Serif" font-size="10.00" fill="#000000">o2::framework::has</text>
<text text-anchor="start" x="19" y="-195.5" font-family="Helvetica,sans-Serif" font-size="10.00" fill="#000000">_root_dictionary&lt; T</text>
<text text-anchor="middle" x="67.5" y="-184.5" font-family="Helvetica,sans-Serif" font-size="10.00" fill="#000000">::value_type &gt;</text>
<polyline fill="none" stroke="#000000" points="11,-177.5 124,-177.5 "/>
<text text-anchor="middle" x="67.5" y="-165.5" font-family="Helvetica,sans-Serif" font-size="10.00" fill="#000000"> </text>
<polyline fill="none" stroke="#000000" points="11,-158.5 124,-158.5 "/>
<text text-anchor="middle" x="67.5" y="-146.5" font-family="Helvetica,sans-Serif" font-size="10.00" fill="#000000"> </text>
</a>
</g>
</g>
<!-- Node0&#45;&gt;Node2 -->
<g id="edge2" class="edge">
<title>Node0&#45;&gt;Node2</title>
<path fill="none" stroke="#ffa500" d="M67.5,-255.967C67.5,-243.8385 67.5,-230.7795 67.5,-218.9243"/>
<polygon fill="#ffa500" stroke="#ffa500" points="64.0001,-256.3321 67.5,-266.3321 71.0001,-256.3322 64.0001,-256.3321"/>
<text text-anchor="middle" x="113" y="-240" font-family="Helvetica,sans-Serif" font-size="10.00" fill="#000000"> &lt; T::value_type &gt;</text>
</g>
<!-- Node1 -->
<g id="node2" class="node">
<title>Node1</title>
<polygon fill="none" stroke="#bfbfbf" points="33.5,-372.5 33.5,-429.5 101.5,-429.5 101.5,-372.5 33.5,-372.5"/>
<text text-anchor="middle" x="67.5" y="-417.5" font-family="Helvetica,sans-Serif" font-size="10.00" fill="#000000">false_type</text>
<polyline fill="none" stroke="#bfbfbf" points="33.5,-410.5 101.5,-410.5 "/>
<text text-anchor="middle" x="67.5" y="-398.5" font-family="Helvetica,sans-Serif" font-size="10.00" fill="#000000"> </text>
<polyline fill="none" stroke="#bfbfbf" points="33.5,-391.5 101.5,-391.5 "/>
<text text-anchor="middle" x="67.5" y="-379.5" font-family="Helvetica,sans-Serif" font-size="10.00" fill="#000000"> </text>
</g>
<!-- Node1&#45;&gt;Node0 -->
<g id="edge1" class="edge">
<title>Node1&#45;&gt;Node0</title>
<path fill="none" stroke="#191970" d="M67.5,-362.1903C67.5,-353.1667 67.5,-343.6233 67.5,-334.8097"/>
<polygon fill="none" stroke="#191970" points="64.0001,-362.4695 67.5,-372.4696 71.0001,-362.4696 64.0001,-362.4695"/>
</g>
<!-- Node3 -->
<g id="node4" class="node">
<title>Node3</title>
<g id="a_node4"><a xlink:href="../../d5/d6d/classo2_1_1framework_1_1has__root__dictionary_3_01T_00_01typename_01std_1_1enable__if_3_01is__co3a14f09bcf42c805e484bfdd1c1dadfb.html" target="_top" xlink:title="{o2::framework::has\l_root_dictionary\&lt; T,\l typename std::enable\l_if\&lt; is_container\&lt; T \&gt;\l::value \&gt;::type \&gt;\n||}">
<polygon fill="none" stroke="#000000" points="3.5,-.5 3.5,-101.5 131.5,-101.5 131.5,-.5 3.5,-.5"/>
<text text-anchor="start" x="11.5" y="-89.5" font-family="Helvetica,sans-Serif" font-size="10.00" fill="#000000">o2::framework::has</text>
<text text-anchor="start" x="11.5" y="-78.5" font-family="Helvetica,sans-Serif" font-size="10.00" fill="#000000">_root_dictionary&lt; T,</text>
<text text-anchor="start" x="11.5" y="-67.5" font-family="Helvetica,sans-Serif" font-size="10.00" fill="#000000"> typename std::enable</text>
<text text-anchor="start" x="11.5" y="-56.5" font-family="Helvetica,sans-Serif" font-size="10.00" fill="#000000">_if&lt; is_container&lt; T &gt;</text>
<text text-anchor="middle" x="67.5" y="-45.5" font-family="Helvetica,sans-Serif" font-size="10.00" fill="#000000">::value &gt;::type &gt;</text>
<polyline fill="none" stroke="#000000" points="3.5,-38.5 131.5,-38.5 "/>
<text text-anchor="middle" x="67.5" y="-26.5" font-family="Helvetica,sans-Serif" font-size="10.00" fill="#000000"> </text>
<polyline fill="none" stroke="#000000" points="3.5,-19.5 131.5,-19.5 "/>
<text text-anchor="middle" x="67.5" y="-7.5" font-family="Helvetica,sans-Serif" font-size="10.00" fill="#000000"> </text>
</a>
</g>
</g>
<!-- Node2&#45;&gt;Node3 -->
<g id="edge3" class="edge">
<title>Node2&#45;&gt;Node3</title>
<path fill="none" stroke="#191970" d="M67.5,-129.1972C67.5,-120.1496 67.5,-110.7033 67.5,-101.6321"/>
<polygon fill="none" stroke="#191970" points="64.0001,-129.2016 67.5,-139.2016 71.0001,-129.2017 64.0001,-129.2016"/>
</g>
</g>
</svg>
