<?xml version="1.0" encoding="UTF-8" standalone="no"?>
<!DOCTYPE svg PUBLIC "-//W3C//DTD SVG 1.1//EN"
 "http://www.w3.org/Graphics/SVG/1.1/DTD/svg11.dtd">
<!-- Generated by graphviz version 2.40.1 (20161225.0304)
 -->
<!-- Title: /home/travis/build/AliceO2Group/AliceO2/GPU/GPUTracking/HLTHeaders/AliHLTTPCClusterMCData.h Pages: 1 -->
<svg width="1427pt" height="150pt"
 viewBox="0.00 0.00 1427.00 150.00" xmlns="http://www.w3.org/2000/svg" xmlns:xlink="http://www.w3.org/1999/xlink">
<g id="graph0" class="graph" transform="scale(1 1) rotate(0) translate(4 146)">
<title>/home/travis/build/AliceO2Group/AliceO2/GPU/GPUTracking/HLTHeaders/AliHLTTPCClusterMCData.h</title>
<!-- Node1 -->
<g id="node1" class="node">
<title>Node1</title>
<polygon fill="#bfbfbf" stroke="#000000" points="635.5,-89.5 635.5,-141.5 801.5,-141.5 801.5,-89.5 635.5,-89.5"/>
<text text-anchor="start" x="643.5" y="-129.5" font-family="Helvetica,sans-Serif" font-size="10.00" fill="#000000">/home/travis/build</text>
<text text-anchor="start" x="643.5" y="-118.5" font-family="Helvetica,sans-Serif" font-size="10.00" fill="#000000">/AliceO2Group/AliceO2</text>
<text text-anchor="start" x="643.5" y="-107.5" font-family="Helvetica,sans-Serif" font-size="10.00" fill="#000000">/GPU/GPUTracking/HLTHeaders</text>
<text text-anchor="middle" x="718.5" y="-96.5" font-family="Helvetica,sans-Serif" font-size="10.00" fill="#000000">/AliHLTTPCClusterMCData.h</text>
</g>
<!-- Node2 -->
<g id="node2" class="node">
<title>Node2</title>
<g id="a_node2"><a xlink:href="../../da/df6/GPUReconstructionCPU_8cxx.html" target="_top" xlink:title="/home/travis/build\l/AliceO2Group/AliceO2\l/GPU/GPUTracking/Base\l/GPUReconstructionCPU.cxx">
<polygon fill="none" stroke="#000000" points="0,-.5 0,-52.5 153,-52.5 153,-.5 0,-.5"/>
<text text-anchor="start" x="8" y="-40.5" font-family="Helvetica,sans-Serif" font-size="10.00" fill="#000000">/home/travis/build</text>
<text text-anchor="start" x="8" y="-29.5" font-family="Helvetica,sans-Serif" font-size="10.00" fill="#000000">/AliceO2Group/AliceO2</text>
<text text-anchor="start" x="8" y="-18.5" font-family="Helvetica,sans-Serif" font-size="10.00" fill="#000000">/GPU/GPUTracking/Base</text>
<text text-anchor="middle" x="76.5" y="-7.5" font-family="Helvetica,sans-Serif" font-size="10.00" fill="#000000">/GPUReconstructionCPU.cxx</text>
</a>
</g>
</g>
<!-- Node1&#45;&gt;Node2 -->
<g id="edge1" class="edge">
<title>Node1&#45;&gt;Node2</title>
<path fill="none" stroke="#191970" d="M624.9475,-110.4573C513.5768,-103.2032 322.417,-86.7902 161.5,-53 158.777,-52.4282 156.0168,-51.8058 153.2379,-51.1428"/>
<polygon fill="#191970" stroke="#191970" points="624.9381,-113.9638 635.1414,-111.1102 625.3856,-106.9781 624.9381,-113.9638"/>
</g>
<!-- Node3 -->
<g id="node3" class="node">
<title>Node3</title>
<g id="a_node3"><a xlink:href="../../d7/d36/GPUReconstructionTimeframe_8cxx.html" target="_top" xlink:title="/home/travis/build\l/AliceO2Group/AliceO2\l/GPU/GPUTracking/Base\l/GPUReconstructionTimeframe.cxx">
<polygon fill="none" stroke="#000000" points="171,-.5 171,-52.5 358,-52.5 358,-.5 171,-.5"/>
<text text-anchor="start" x="179" y="-40.5" font-family="Helvetica,sans-Serif" font-size="10.00" fill="#000000">/home/travis/build</text>
<text text-anchor="start" x="179" y="-29.5" font-family="Helvetica,sans-Serif" font-size="10.00" fill="#000000">/AliceO2Group/AliceO2</text>
<text text-anchor="start" x="179" y="-18.5" font-family="Helvetica,sans-Serif" font-size="10.00" fill="#000000">/GPU/GPUTracking/Base</text>
<text text-anchor="middle" x="264.5" y="-7.5" font-family="Helvetica,sans-Serif" font-size="10.00" fill="#000000">/GPUReconstructionTimeframe.cxx</text>
</a>
</g>
</g>
<!-- Node1&#45;&gt;Node3 -->
<g id="edge2" class="edge">
<title>Node1&#45;&gt;Node3</title>
<path fill="none" stroke="#191970" d="M624.9989,-100.9496C553.8381,-89.3802 453.6276,-72.0224 366.5,-53 363.7294,-52.3951 360.9203,-51.7663 358.0876,-51.1187"/>
<polygon fill="#191970" stroke="#191970" points="624.8515,-104.4712 635.2823,-102.614 625.97,-97.5611 624.8515,-104.4712"/>
</g>
<!-- Node4 -->
<g id="node4" class="node">
<title>Node4</title>
<g id="a_node4"><a xlink:href="../../df/d9c/AliHLTGPUDumpComponent_8cxx.html" target="_top" xlink:title="/home/travis/build\l/AliceO2Group/AliceO2\l/GPU/GPUTracking/Global\l/AliHLTGPUDumpComponent.cxx">
<polygon fill="none" stroke="#000000" points="375.5,-.5 375.5,-52.5 551.5,-52.5 551.5,-.5 375.5,-.5"/>
<text text-anchor="start" x="383.5" y="-40.5" font-family="Helvetica,sans-Serif" font-size="10.00" fill="#000000">/home/travis/build</text>
<text text-anchor="start" x="383.5" y="-29.5" font-family="Helvetica,sans-Serif" font-size="10.00" fill="#000000">/AliceO2Group/AliceO2</text>
<text text-anchor="start" x="383.5" y="-18.5" font-family="Helvetica,sans-Serif" font-size="10.00" fill="#000000">/GPU/GPUTracking/Global</text>
<text text-anchor="middle" x="463.5" y="-7.5" font-family="Helvetica,sans-Serif" font-size="10.00" fill="#000000">/AliHLTGPUDumpComponent.cxx</text>
</a>
</g>
</g>
<!-- Node1&#45;&gt;Node4 -->
<g id="edge3" class="edge">
<title>Node1&#45;&gt;Node4</title>
<path fill="none" stroke="#191970" d="M634.2303,-86.0882C603.2392,-75.2717 568.383,-63.1062 538.2841,-52.6011"/>
<polygon fill="#191970" stroke="#191970" points="633.1197,-89.4076 643.7146,-89.3984 635.4265,-82.7986 633.1197,-89.4076"/>
</g>
<!-- Node5 -->
<g id="node5" class="node">
<title>Node5</title>
<g id="a_node5"><a xlink:href="../../d2/d58/GPUChainTracking_8cxx.html" target="_top" xlink:title="/home/travis/build\l/AliceO2Group/AliceO2\l/GPU/GPUTracking/Global\l/GPUChainTracking.cxx">
<polygon fill="none" stroke="#000000" points="569.5,-.5 569.5,-52.5 709.5,-52.5 709.5,-.5 569.5,-.5"/>
<text text-anchor="start" x="577.5" y="-40.5" font-family="Helvetica,sans-Serif" font-size="10.00" fill="#000000">/home/travis/build</text>
<text text-anchor="start" x="577.5" y="-29.5" font-family="Helvetica,sans-Serif" font-size="10.00" fill="#000000">/AliceO2Group/AliceO2</text>
<text text-anchor="start" x="577.5" y="-18.5" font-family="Helvetica,sans-Serif" font-size="10.00" fill="#000000">/GPU/GPUTracking/Global</text>
<text text-anchor="middle" x="639.5" y="-7.5" font-family="Helvetica,sans-Serif" font-size="10.00" fill="#000000">/GPUChainTracking.cxx</text>
</a>
</g>
</g>
<!-- Node1&#45;&gt;Node5 -->
<g id="edge4" class="edge">
<title>Node1&#45;&gt;Node5</title>
<path fill="none" stroke="#191970" d="M688.5119,-81.7159C679.9295,-72.0472 670.7101,-61.6608 662.609,-52.5341"/>
<polygon fill="#191970" stroke="#191970" points="685.9687,-84.1231 695.2247,-89.2784 691.2038,-79.4762 685.9687,-84.1231"/>
</g>
<!-- Node6 -->
<g id="node6" class="node">
<title>Node6</title>
<g id="a_node6"><a xlink:href="../../d3/d85/GPUChainTrackingIO_8cxx.html" target="_top" xlink:title="/home/travis/build\l/AliceO2Group/AliceO2\l/GPU/GPUTracking/Global\l/GPUChainTrackingIO.cxx">
<polygon fill="none" stroke="#000000" points="727.5,-.5 727.5,-52.5 867.5,-52.5 867.5,-.5 727.5,-.5"/>
<text text-anchor="start" x="735.5" y="-40.5" font-family="Helvetica,sans-Serif" font-size="10.00" fill="#000000">/home/travis/build</text>
<text text-anchor="start" x="735.5" y="-29.5" font-family="Helvetica,sans-Serif" font-size="10.00" fill="#000000">/AliceO2Group/AliceO2</text>
<text text-anchor="start" x="735.5" y="-18.5" font-family="Helvetica,sans-Serif" font-size="10.00" fill="#000000">/GPU/GPUTracking/Global</text>
<text text-anchor="middle" x="797.5" y="-7.5" font-family="Helvetica,sans-Serif" font-size="10.00" fill="#000000">/GPUChainTrackingIO.cxx</text>
</a>
</g>
</g>
<!-- Node1&#45;&gt;Node6 -->
<g id="edge5" class="edge">
<title>Node1&#45;&gt;Node6</title>
<path fill="none" stroke="#191970" d="M748.4881,-81.7159C757.0705,-72.0472 766.2899,-61.6608 774.391,-52.5341"/>
<polygon fill="#191970" stroke="#191970" points="745.7962,-79.4762 741.7753,-89.2784 751.0313,-84.1231 745.7962,-79.4762"/>
</g>
<!-- Node7 -->
<g id="node7" class="node">
<title>Node7</title>
<g id="a_node7"><a xlink:href="../../da/d1f/GPUTPCTrackerComponent_8cxx.html" target="_top" xlink:title="/home/travis/build\l/AliceO2Group/AliceO2\l/GPU/GPUTracking/SliceTracker\l/GPUTPCTrackerComponent.cxx">
<polygon fill="none" stroke="#000000" points="886,-.5 886,-52.5 1057,-52.5 1057,-.5 886,-.5"/>
<text text-anchor="start" x="894" y="-40.5" font-family="Helvetica,sans-Serif" font-size="10.00" fill="#000000">/home/travis/build</text>
<text text-anchor="start" x="894" y="-29.5" font-family="Helvetica,sans-Serif" font-size="10.00" fill="#000000">/AliceO2Group/AliceO2</text>
<text text-anchor="start" x="894" y="-18.5" font-family="Helvetica,sans-Serif" font-size="10.00" fill="#000000">/GPU/GPUTracking/SliceTracker</text>
<text text-anchor="middle" x="971.5" y="-7.5" font-family="Helvetica,sans-Serif" font-size="10.00" fill="#000000">/GPUTPCTrackerComponent.cxx</text>
</a>
</g>
</g>
<!-- Node1&#45;&gt;Node7 -->
<g id="edge6" class="edge">
<title>Node1&#45;&gt;Node7</title>
<path fill="none" stroke="#191970" d="M802.5066,-85.9483C833.1548,-75.1669 867.5683,-63.061 897.3025,-52.6011"/>
<polygon fill="#191970" stroke="#191970" points="800.9707,-82.7782 792.6989,-89.3984 803.2937,-89.3816 800.9707,-82.7782"/>
</g>
<!-- Node8 -->
<g id="node8" class="node">
<title>Node8</title>
<g id="a_node8"><a xlink:href="../../d7/d9f/genEvents_8cxx.html" target="_top" xlink:title="/home/travis/build\l/AliceO2Group/AliceO2\l/GPU/GPUTracking/Standalone\l/qa/genEvents.cxx">
<polygon fill="none" stroke="#000000" points="1075,-.5 1075,-52.5 1238,-52.5 1238,-.5 1075,-.5"/>
<text text-anchor="start" x="1083" y="-40.5" font-family="Helvetica,sans-Serif" font-size="10.00" fill="#000000">/home/travis/build</text>
<text text-anchor="start" x="1083" y="-29.5" font-family="Helvetica,sans-Serif" font-size="10.00" fill="#000000">/AliceO2Group/AliceO2</text>
<text text-anchor="start" x="1083" y="-18.5" font-family="Helvetica,sans-Serif" font-size="10.00" fill="#000000">/GPU/GPUTracking/Standalone</text>
<text text-anchor="middle" x="1156.5" y="-7.5" font-family="Helvetica,sans-Serif" font-size="10.00" fill="#000000">/qa/genEvents.cxx</text>
</a>
</g>
</g>
<!-- Node1&#45;&gt;Node8 -->
<g id="edge7" class="edge">
<title>Node1&#45;&gt;Node8</title>
<path fill="none" stroke="#191970" d="M811.8156,-101.5649C882.2141,-90.3706 980.9505,-73.2139 1066.5,-53 1069.1948,-52.3633 1071.9286,-51.6942 1074.6843,-51"/>
<polygon fill="#191970" stroke="#191970" points="810.9706,-98.1549 801.6395,-103.173 812.0632,-105.0692 810.9706,-98.1549"/>
</g>
<!-- Node9 -->
<g id="node9" class="node">
<title>Node9</title>
<g id="a_node9"><a xlink:href="../../de/ddc/GPUQA_8cxx.html" target="_top" xlink:title="/home/travis/build\l/AliceO2Group/AliceO2\l/GPU/GPUTracking/Standalone\l/qa/GPUQA.cxx">
<polygon fill="none" stroke="#000000" points="1256,-.5 1256,-52.5 1419,-52.5 1419,-.5 1256,-.5"/>
<text text-anchor="start" x="1264" y="-40.5" font-family="Helvetica,sans-Serif" font-size="10.00" fill="#000000">/home/travis/build</text>
<text text-anchor="start" x="1264" y="-29.5" font-family="Helvetica,sans-Serif" font-size="10.00" fill="#000000">/AliceO2Group/AliceO2</text>
<text text-anchor="start" x="1264" y="-18.5" font-family="Helvetica,sans-Serif" font-size="10.00" fill="#000000">/GPU/GPUTracking/Standalone</text>
<text text-anchor="middle" x="1337.5" y="-7.5" font-family="Helvetica,sans-Serif" font-size="10.00" fill="#000000">/qa/GPUQA.cxx</text>
</a>
</g>
</g>
<!-- Node1&#45;&gt;Node9 -->
<g id="edge8" class="edge">
<title>Node1&#45;&gt;Node9</title>
<path fill="none" stroke="#191970" d="M811.7117,-109.2688C917.9855,-101.0619 1096.5392,-83.9121 1247.5,-53 1250.2127,-52.4445 1252.962,-51.846 1255.7311,-51.2125"/>
<polygon fill="#191970" stroke="#191970" points="811.3611,-105.7853 801.6561,-110.0353 811.8932,-112.765 811.3611,-105.7853"/>
</g>
</g>
</svg>
