<?xml version="1.0" encoding="UTF-8" standalone="no"?>
<!DOCTYPE svg PUBLIC "-//W3C//DTD SVG 1.1//EN"
 "http://www.w3.org/Graphics/SVG/1.1/DTD/svg11.dtd">
<!-- Generated by graphviz version 2.40.1 (20161225.0304)
 -->
<!-- Title: o2::pmr::OwningMessageSpectatorAllocator&lt; T &gt; Pages: 1 -->
<!--zoomable 551 -->
<svg id="main" version="1.1" xmlns="http://www.w3.org/2000/svg" xmlns:xlink="http://www.w3.org/1999/xlink" xml:space="preserve" onload="init(evt)">
<style type="text/css"><![CDATA[
.edge:hover path { stroke: red; }
.edge:hover polygon { stroke: red; fill: red; }
]]></style>
<script type="text/javascript"><![CDATA[
var edges = document.getElementsByTagName('g');
if (edges && edges.length) {
  for (var i=0;i<edges.length;i++) {
    if (edges[i].id.substr(0,4)=='edge') {
      edges[i].setAttribute('class','edge');
    }
  }
}
]]></script>
        <defs>
                <circle id="rim" cx="0" cy="0" r="7"/>
                <circle id="rim2" cx="0" cy="0" r="3.5"/>
                <g id="zoomPlus">
                        <use xlink:href="#rim" fill="#404040">
                                <set attributeName="fill" to="#808080" begin="zoomplus.mouseover" end="zoomplus.mouseout"/>
                        </use>
                        <path d="M-4,0h8M0,-4v8" fill="none" stroke="white" stroke-width="1.5" pointer-events="none"/>
                </g>
                <g id="zoomMin">
                        <use xlink:href="#rim" fill="#404040">
                                <set attributeName="fill" to="#808080" begin="zoomminus.mouseover" end="zoomminus.mouseout"/>
                        </use>
                        <path d="M-4,0h8" fill="none" stroke="white" stroke-width="1.5" pointer-events="none"/>
                </g>
                <g id="dirArrow">
                        <path fill="none" stroke="white" stroke-width="1.5" d="M0,-3.0v7 M-2.5,-0.5L0,-3.0L2.5,-0.5"/>
                </g>
               <g id="resetDef">
                       <use xlink:href="#rim2" fill="#404040">
                               <set attributeName="fill" to="#808080" begin="reset.mouseover" end="reset.mouseout"/>
                       </use>
               </g>
        </defs>

<script type="text/javascript">
var viewWidth = 594;
var viewHeight = 551;
var sectionId = 'dynsection-0';
</script>
<script xlink:href="../../svgpan.js"/>
<svg id="graph" class="graph">
<g id="viewport">
<title>o2::pmr::OwningMessageSpectatorAllocator&lt; T &gt;</title>
<!-- Node1 -->
<g id="node1" class="node">
<title>Node1</title>
<polygon fill="#bfbfbf" stroke="#000000" points="220.5,-.5 220.5,-200.5 425.5,-200.5 425.5,-.5 220.5,-.5"/>
<text text-anchor="start" x="228.5" y="-188.5" font-family="Helvetica,sans-Serif" font-size="10.00" fill="#000000">o2::pmr::OwningMessageSpectator</text>
<text text-anchor="middle" x="323" y="-177.5" font-family="Helvetica,sans-Serif" font-size="10.00" fill="#000000">Allocator&lt; T &gt;</text>
<polyline fill="none" stroke="#000000" points="220.5,-170.5 425.5,-170.5 "/>
<text text-anchor="middle" x="323" y="-158.5" font-family="Helvetica,sans-Serif" font-size="10.00" fill="#000000"> </text>
<polyline fill="none" stroke="#000000" points="220.5,-151.5 425.5,-151.5 "/>
<text text-anchor="start" x="228.5" y="-139.5" font-family="Helvetica,sans-Serif" font-size="10.00" fill="#000000">+ OwningMessageSpectatorAllocator()</text>
<text text-anchor="start" x="228.5" y="-128.5" font-family="Helvetica,sans-Serif" font-size="10.00" fill="#000000">+ OwningMessageSpectatorAllocator()</text>
<text text-anchor="start" x="228.5" y="-117.5" font-family="Helvetica,sans-Serif" font-size="10.00" fill="#000000">+ OwningMessageSpectatorAllocator()</text>
<text text-anchor="start" x="228.5" y="-106.5" font-family="Helvetica,sans-Serif" font-size="10.00" fill="#000000">+ OwningMessageSpectatorAllocator()</text>
<text text-anchor="start" x="228.5" y="-95.5" font-family="Helvetica,sans-Serif" font-size="10.00" fill="#000000">+ OwningMessageSpectatorAllocator()</text>
<text text-anchor="start" x="228.5" y="-84.5" font-family="Helvetica,sans-Serif" font-size="10.00" fill="#000000">+ operator=()</text>
<text text-anchor="start" x="228.5" y="-73.5" font-family="Helvetica,sans-Serif" font-size="10.00" fill="#000000">+ select_on_container</text>
<text text-anchor="start" x="228.5" y="-62.5" font-family="Helvetica,sans-Serif" font-size="10.00" fill="#000000">_copy_construction()</text>
<text text-anchor="start" x="228.5" y="-51.5" font-family="Helvetica,sans-Serif" font-size="10.00" fill="#000000">+ resource()</text>
<text text-anchor="start" x="228.5" y="-40.5" font-family="Helvetica,sans-Serif" font-size="10.00" fill="#000000">+ construct()</text>
<text text-anchor="start" x="228.5" y="-29.5" font-family="Helvetica,sans-Serif" font-size="10.00" fill="#000000">+ destroy()</text>
<text text-anchor="start" x="228.5" y="-18.5" font-family="Helvetica,sans-Serif" font-size="10.00" fill="#000000">+ allocate()</text>
<text text-anchor="start" x="228.5" y="-7.5" font-family="Helvetica,sans-Serif" font-size="10.00" fill="#000000">+ deallocate()</text>
</g>
<!-- Node2 -->
<g id="node2" class="node">
<title>Node2</title>
<g id="a_node2"><a xlink:href="../../da/d1c/classo2_1_1pmr_1_1MessageResource.html" target="_top" xlink:title="{o2::pmr::MessageResource\n||+ MessageResource()\l+ MessageResource()\l+ MessageResource()\l+ operator=()\l+ operator=()\l+ MessageResource()\l+ getMessage()\l+ setMessage()\l+ getTransportFactory()\l+ getNumberOfMessages()\l# do_allocate()\l# do_deallocate()\l# do_is_equal()\l}">
<polygon fill="none" stroke="#000000" points="248.5,-248.5 248.5,-437.5 397.5,-437.5 397.5,-248.5 248.5,-248.5"/>
<text text-anchor="middle" x="323" y="-425.5" font-family="Helvetica,sans-Serif" font-size="10.00" fill="#000000">o2::pmr::MessageResource</text>
<polyline fill="none" stroke="#000000" points="248.5,-418.5 397.5,-418.5 "/>
<text text-anchor="middle" x="323" y="-406.5" font-family="Helvetica,sans-Serif" font-size="10.00" fill="#000000"> </text>
<polyline fill="none" stroke="#000000" points="248.5,-399.5 397.5,-399.5 "/>
<text text-anchor="start" x="256.5" y="-387.5" font-family="Helvetica,sans-Serif" font-size="10.00" fill="#000000">+ MessageResource()</text>
<text text-anchor="start" x="256.5" y="-376.5" font-family="Helvetica,sans-Serif" font-size="10.00" fill="#000000">+ MessageResource()</text>
<text text-anchor="start" x="256.5" y="-365.5" font-family="Helvetica,sans-Serif" font-size="10.00" fill="#000000">+ MessageResource()</text>
<text text-anchor="start" x="256.5" y="-354.5" font-family="Helvetica,sans-Serif" font-size="10.00" fill="#000000">+ operator=()</text>
<text text-anchor="start" x="256.5" y="-343.5" font-family="Helvetica,sans-Serif" font-size="10.00" fill="#000000">+ operator=()</text>
<text text-anchor="start" x="256.5" y="-332.5" font-family="Helvetica,sans-Serif" font-size="10.00" fill="#000000">+ MessageResource()</text>
<text text-anchor="start" x="256.5" y="-321.5" font-family="Helvetica,sans-Serif" font-size="10.00" fill="#000000">+ getMessage()</text>
<text text-anchor="start" x="256.5" y="-310.5" font-family="Helvetica,sans-Serif" font-size="10.00" fill="#000000">+ setMessage()</text>
<text text-anchor="start" x="256.5" y="-299.5" font-family="Helvetica,sans-Serif" font-size="10.00" fill="#000000">+ getTransportFactory()</text>
<text text-anchor="start" x="256.5" y="-288.5" font-family="Helvetica,sans-Serif" font-size="10.00" fill="#000000">+ getNumberOfMessages()</text>
<text text-anchor="start" x="256.5" y="-277.5" font-family="Helvetica,sans-Serif" font-size="10.00" fill="#000000"># do_allocate()</text>
<text text-anchor="start" x="256.5" y="-266.5" font-family="Helvetica,sans-Serif" font-size="10.00" fill="#000000"># do_deallocate()</text>
<text text-anchor="start" x="256.5" y="-255.5" font-family="Helvetica,sans-Serif" font-size="10.00" fill="#000000"># do_is_equal()</text>
</a>
</g>
</g>
<!-- Node2&#45;&gt;Node1 -->
<g id="edge1" class="edge">
<title>Node2&#45;&gt;Node1</title>
<path fill="none" stroke="#404040" d="M323,-248.2013C323,-236.666 323,-224.7949 323,-213.0338"/>
<polygon fill="none" stroke="#404040" points="323.0001,-212.8359 319,-206.8359 323,-200.8359 327,-206.8359 323.0001,-212.8359"/>
<text text-anchor="middle" x="356" y="-222" font-family="Helvetica,sans-Serif" font-size="10.00" fill="#000000"> +mResource</text>
</g>
<!-- Node3 -->
<g id="node3" class="node">
<title>Node3</title>
<g id="a_node3"><a xlink:href="../../d0/d9f/classFairMQMemoryResource.html" target="_top" xlink:title="{FairMQMemoryResource\n||}">
<polygon fill="none" stroke="#000000" points="0,-485.5 0,-542.5 134,-542.5 134,-485.5 0,-485.5"/>
<text text-anchor="middle" x="67" y="-530.5" font-family="Helvetica,sans-Serif" font-size="10.00" fill="#000000">FairMQMemoryResource</text>
<polyline fill="none" stroke="#000000" points="0,-523.5 134,-523.5 "/>
<text text-anchor="middle" x="67" y="-511.5" font-family="Helvetica,sans-Serif" font-size="10.00" fill="#000000"> </text>
<polyline fill="none" stroke="#000000" points="0,-504.5 134,-504.5 "/>
<text text-anchor="middle" x="67" y="-492.5" font-family="Helvetica,sans-Serif" font-size="10.00" fill="#000000"> </text>
</a>
</g>
</g>
<!-- Node3&#45;&gt;Node2 -->
<g id="edge2" class="edge">
<title>Node3&#45;&gt;Node2</title>
<path fill="none" stroke="#191970" d="M118.5337,-479.5771C155.788,-454.6924 206.685,-420.6948 248.3777,-392.8454"/>
<polygon fill="none" stroke="#191970" points="116.2201,-476.9135 109.8486,-485.3784 120.1083,-482.7343 116.2201,-476.9135"/>
</g>
<!-- Node4 -->
<g id="node4" class="node">
<title>Node4</title>
<polygon fill="none" stroke="#bfbfbf" points="152,-485.5 152,-542.5 294,-542.5 294,-485.5 152,-485.5"/>
<text text-anchor="middle" x="223" y="-530.5" font-family="Helvetica,sans-Serif" font-size="10.00" fill="#000000">FairMQMemoryResource *</text>
<polyline fill="none" stroke="#bfbfbf" points="152,-523.5 294,-523.5 "/>
<text text-anchor="middle" x="223" y="-511.5" font-family="Helvetica,sans-Serif" font-size="10.00" fill="#000000"> </text>
<polyline fill="none" stroke="#bfbfbf" points="152,-504.5 294,-504.5 "/>
<text text-anchor="middle" x="223" y="-492.5" font-family="Helvetica,sans-Serif" font-size="10.00" fill="#000000"> </text>
</g>
<!-- Node4&#45;&gt;Node2 -->
<g id="edge3" class="edge">
<title>Node4&#45;&gt;Node2</title>
<path fill="none" stroke="#404040" d="M234.8151,-485.2425C238.9882,-475.7732 243.9156,-465.2936 249,-456 250.4526,-453.3448 251.9468,-450.6702 253.4748,-447.9847"/>
<polygon fill="none" stroke="#404040" points="253.4862,-447.9651 253.0447,-440.7675 259.5189,-437.5917 259.9603,-444.7893 253.4862,-447.9651"/>
<text text-anchor="middle" x="284" y="-459" font-family="Helvetica,sans-Serif" font-size="10.00" fill="#000000"> #mUpstream</text>
</g>
<!-- Node5 -->
<g id="node5" class="node">
<title>Node5</title>
<polygon fill="none" stroke="#bfbfbf" points="312,-485.5 312,-542.5 350,-542.5 350,-485.5 312,-485.5"/>
<text text-anchor="middle" x="331" y="-530.5" font-family="Helvetica,sans-Serif" font-size="10.00" fill="#000000">bool</text>
<polyline fill="none" stroke="#bfbfbf" points="312,-523.5 350,-523.5 "/>
<text text-anchor="middle" x="331" y="-511.5" font-family="Helvetica,sans-Serif" font-size="10.00" fill="#000000"> </text>
<polyline fill="none" stroke="#bfbfbf" points="312,-504.5 350,-504.5 "/>
<text text-anchor="middle" x="331" y="-492.5" font-family="Helvetica,sans-Serif" font-size="10.00" fill="#000000"> </text>
</g>
<!-- Node5&#45;&gt;Node2 -->
<g id="edge4" class="edge">
<title>Node5&#45;&gt;Node2</title>
<path fill="none" stroke="#404040" d="M326.0666,-485.2396C325.2187,-479.2303 324.4626,-472.9218 324,-467 323.557,-461.329 323.1948,-455.5078 322.9014,-449.6277"/>
<polygon fill="none" stroke="#404040" points="322.8959,-449.494 318.6475,-443.6673 322.3921,-437.5046 326.6405,-443.3314 322.8959,-449.494"/>
<text text-anchor="middle" x="360" y="-459" font-family="Helvetica,sans-Serif" font-size="10.00" fill="#000000"> #initialImport</text>
</g>
<!-- Node6 -->
<g id="node6" class="node">
<title>Node6</title>
<polygon fill="none" stroke="#bfbfbf" points="395,-485.5 395,-542.5 441,-542.5 441,-485.5 395,-485.5"/>
<text text-anchor="middle" x="418" y="-530.5" font-family="Helvetica,sans-Serif" font-size="10.00" fill="#000000">void *</text>
<polyline fill="none" stroke="#bfbfbf" points="395,-523.5 441,-523.5 "/>
<text text-anchor="middle" x="418" y="-511.5" font-family="Helvetica,sans-Serif" font-size="10.00" fill="#000000"> </text>
<polyline fill="none" stroke="#bfbfbf" points="395,-504.5 441,-504.5 "/>
<text text-anchor="middle" x="418" y="-492.5" font-family="Helvetica,sans-Serif" font-size="10.00" fill="#000000"> </text>
</g>
<!-- Node6&#45;&gt;Node2 -->
<g id="edge5" class="edge">
<title>Node6&#45;&gt;Node2</title>
<path fill="none" stroke="#404040" d="M408.5362,-485.4599C405.0129,-475.9078 400.7129,-465.3229 396,-456 394.7109,-453.4499 393.3782,-450.8855 392.0092,-448.3139"/>
<polygon fill="none" stroke="#404040" points="391.9683,-448.2394 385.5747,-444.9045 386.194,-437.72 392.5876,-441.0549 391.9683,-448.2394"/>
<text text-anchor="middle" x="445" y="-459" font-family="Helvetica,sans-Serif" font-size="10.00" fill="#000000"> #mMessageData</text>
</g>
<!-- Node7 -->
<g id="node7" class="node">
<title>Node7</title>
<polygon fill="none" stroke="#bfbfbf" points="506.5,-485.5 506.5,-542.5 551.5,-542.5 551.5,-485.5 506.5,-485.5"/>
<text text-anchor="middle" x="529" y="-530.5" font-family="Helvetica,sans-Serif" font-size="10.00" fill="#000000">size_t</text>
<polyline fill="none" stroke="#bfbfbf" points="506.5,-523.5 551.5,-523.5 "/>
<text text-anchor="middle" x="529" y="-511.5" font-family="Helvetica,sans-Serif" font-size="10.00" fill="#000000"> </text>
<polyline fill="none" stroke="#bfbfbf" points="506.5,-504.5 551.5,-504.5 "/>
<text text-anchor="middle" x="529" y="-492.5" font-family="Helvetica,sans-Serif" font-size="10.00" fill="#000000"> </text>
</g>
<!-- Node7&#45;&gt;Node2 -->
<g id="edge6" class="edge">
<title>Node7&#45;&gt;Node2</title>
<path fill="none" stroke="#404040" d="M514.5516,-485.4127C508.6921,-475.4358 501.3312,-464.5948 493,-456 468.3957,-430.6171 437.155,-407.8586 408.1853,-389.5332"/>
<polygon fill="none" stroke="#404040" points="407.8285,-389.3119 400.6212,-389.5478 397.6315,-382.9857 404.8387,-382.7498 407.8285,-389.3119"/>
<text text-anchor="middle" x="543.5" y="-459" font-family="Helvetica,sans-Serif" font-size="10.00" fill="#000000"> #mMessageSize</text>
</g>
</g>
</svg>
        <g id="navigator" transform="translate(0 0)" fill="#404254">
                <rect fill="#f2f5e9" fill-opacity="0.5" stroke="#606060" stroke-width=".5" x="0" y="0" width="60" height="60"/>
                <use id="zoomplus" xlink:href="#zoomPlus" x="17" y="9" onmousedown="handleZoom(evt,'in')"/>
                <use id="zoomminus" xlink:href="#zoomMin" x="42" y="9" onmousedown="handleZoom(evt,'out')"/>
                <use id="reset" xlink:href="#resetDef" x="30" y="36" onmousedown="handleReset()"/>
                <g id="arrowUp" xlink:href="#dirArrow" transform="translate(30 24)" onmousedown="handlePan(0,-1)">
                  <use xlink:href="#rim" fill="#404040">
                        <set attributeName="fill" to="#808080" begin="arrowUp.mouseover" end="arrowUp.mouseout"/>
                  </use>
                  <path fill="none" stroke="white" stroke-width="1.5" d="M0,-3.0v7 M-2.5,-0.5L0,-3.0L2.5,-0.5"/>
                </g>
                <g id="arrowRight" xlink:href="#dirArrow" transform="rotate(90) translate(36 -43)" onmousedown="handlePan(1,0)">
                  <use xlink:href="#rim" fill="#404040">
                        <set attributeName="fill" to="#808080" begin="arrowRight.mouseover" end="arrowRight.mouseout"/>
                  </use>
                  <path fill="none" stroke="white" stroke-width="1.5" d="M0,-3.0v7 M-2.5,-0.5L0,-3.0L2.5,-0.5"/>
                </g>
                <g id="arrowDown" xlink:href="#dirArrow" transform="rotate(180) translate(-30 -48)" onmousedown="handlePan(0,1)">
                  <use xlink:href="#rim" fill="#404040">
                        <set attributeName="fill" to="#808080" begin="arrowDown.mouseover" end="arrowDown.mouseout"/>
                  </use>
                  <path fill="none" stroke="white" stroke-width="1.5" d="M0,-3.0v7 M-2.5,-0.5L0,-3.0L2.5,-0.5"/>
                </g>
                <g id="arrowLeft" xlink:href="#dirArrow" transform="rotate(270) translate(-36 17)" onmousedown="handlePan(-1,0)">
                  <use xlink:href="#rim" fill="#404040">
                        <set attributeName="fill" to="#808080" begin="arrowLeft.mouseover" end="arrowLeft.mouseout"/>
                  </use>
                  <path fill="none" stroke="white" stroke-width="1.5" d="M0,-3.0v7 M-2.5,-0.5L0,-3.0L2.5,-0.5"/>
                </g>
        </g>
        <svg viewBox="0 0 15 15" width="100%" height="30px" preserveAspectRatio="xMaxYMin meet">
         <g id="arrow_out" transform="scale(0.3 0.3)">
          <a xlink:href="classo2_1_1pmr_1_1OwningMessageSpectatorAllocator__coll__graph_org.svg" target="_base">
           <rect id="button" ry="5" rx="5" y="6" x="6" height="38" width="38"
                fill="#f2f5e9" fill-opacity="0.5" stroke="#606060" stroke-width="1.0"/>
           <path id="arrow"
             d="M 11.500037,31.436501 C 11.940474,20.09759 22.043105,11.32322 32.158766,21.979434 L 37.068811,17.246167 C 37.068811,17.246167 37.088388,32 37.088388,32 L 22.160133,31.978069 C 22.160133,31.978069 26.997745,27.140456 26.997745,27.140456 C 18.528582,18.264221 13.291696,25.230495 11.500037,31.436501 z"
             style="fill:#404040;"/>
          </a>
         </g>
        </svg>
</svg>
