<?xml version="1.0" encoding="UTF-8" standalone="no"?>
<!DOCTYPE svg PUBLIC "-//W3C//DTD SVG 1.1//EN"
 "http://www.w3.org/Graphics/SVG/1.1/DTD/svg11.dtd">
<!-- Generated by graphviz version 2.40.1 (20161225.0304)
 -->
<!-- Title: /home/travis/build/AliceO2Group/AliceO2/GPU/GPUTracking/Base/GPUReconstructionConvert.cxx Pages: 1 -->
<!--zoomable 453 -->
<svg id="main" version="1.1" xmlns="http://www.w3.org/2000/svg" xmlns:xlink="http://www.w3.org/1999/xlink" xml:space="preserve" onload="init(evt)">
<style type="text/css"><![CDATA[
.edge:hover path { stroke: red; }
.edge:hover polygon { stroke: red; fill: red; }
]]></style>
<script type="text/javascript"><![CDATA[
var edges = document.getElementsByTagName('g');
if (edges && edges.length) {
  for (var i=0;i<edges.length;i++) {
    if (edges[i].id.substr(0,4)=='edge') {
      edges[i].setAttribute('class','edge');
    }
  }
}
]]></script>
        <defs>
                <circle id="rim" cx="0" cy="0" r="7"/>
                <circle id="rim2" cx="0" cy="0" r="3.5"/>
                <g id="zoomPlus">
                        <use xlink:href="#rim" fill="#404040">
                                <set attributeName="fill" to="#808080" begin="zoomplus.mouseover" end="zoomplus.mouseout"/>
                        </use>
                        <path d="M-4,0h8M0,-4v8" fill="none" stroke="white" stroke-width="1.5" pointer-events="none"/>
                </g>
                <g id="zoomMin">
                        <use xlink:href="#rim" fill="#404040">
                                <set attributeName="fill" to="#808080" begin="zoomminus.mouseover" end="zoomminus.mouseout"/>
                        </use>
                        <path d="M-4,0h8" fill="none" stroke="white" stroke-width="1.5" pointer-events="none"/>
                </g>
                <g id="dirArrow">
                        <path fill="none" stroke="white" stroke-width="1.5" d="M0,-3.0v7 M-2.5,-0.5L0,-3.0L2.5,-0.5"/>
                </g>
               <g id="resetDef">
                       <use xlink:href="#rim2" fill="#404040">
                               <set attributeName="fill" to="#808080" begin="reset.mouseover" end="reset.mouseout"/>
                       </use>
               </g>
        </defs>

<script type="text/javascript">
var viewWidth = 1776;
var viewHeight = 453;
var sectionId = 'dynsection-0';
</script>
<script xlink:href="../../svgpan.js"/>
<svg id="graph" class="graph">
<g id="viewport">
<title>/home/travis/build/AliceO2Group/AliceO2/GPU/GPUTracking/Base/GPUReconstructionConvert.cxx</title>
<!-- Node0 -->
<g id="node1" class="node">
<title>Node0</title>
<polygon fill="#bfbfbf" stroke="#000000" points="863.5,-392.5 863.5,-444.5 1034.5,-444.5 1034.5,-392.5 863.5,-392.5"/>
<text text-anchor="start" x="871.5" y="-432.5" font-family="Helvetica,sans-Serif" font-size="10.00" fill="#000000">/home/travis/build</text>
<text text-anchor="start" x="871.5" y="-421.5" font-family="Helvetica,sans-Serif" font-size="10.00" fill="#000000">/AliceO2Group/AliceO2</text>
<text text-anchor="start" x="871.5" y="-410.5" font-family="Helvetica,sans-Serif" font-size="10.00" fill="#000000">/GPU/GPUTracking/Base</text>
<text text-anchor="middle" x="949" y="-399.5" font-family="Helvetica,sans-Serif" font-size="10.00" fill="#000000">/GPUReconstructionConvert.cxx</text>
</g>
<!-- Node1 -->
<g id="node2" class="node">
<title>Node1</title>
<g id="a_node2"><a xlink:href="../../d1/dfa/GPUReconstructionConvert_8h.html" target="_top" xlink:title="GPUReconstructionConvert.h">
<polygon fill="none" stroke="#000000" points="726.5,-168.5 726.5,-187.5 883.5,-187.5 883.5,-168.5 726.5,-168.5"/>
<text text-anchor="middle" x="805" y="-175.5" font-family="Helvetica,sans-Serif" font-size="10.00" fill="#000000">GPUReconstructionConvert.h</text>
</a>
</g>
</g>
<!-- Node0&#45;&gt;Node1 -->
<g id="edge1" class="edge">
<title>Node0&#45;&gt;Node1</title>
<path fill="none" stroke="#191970" d="M914.0292,-392.243C876.3403,-361.5197 818.5915,-306.7875 795,-244 789.3392,-228.934 792.763,-210.7912 797.0808,-197.3435"/>
<polygon fill="#191970" stroke="#191970" points="800.4542,-198.3079 800.5789,-187.7138 793.8749,-195.9179 800.4542,-198.3079"/>
</g>
<!-- Node13 -->
<g id="node14" class="node">
<title>Node13</title>
<g id="a_node14"><a xlink:href="../../d4/db1/TPCFastTransform_8h.html" target="_top" xlink:title="Definition of TPCFastTransform class. ">
<polygon fill="none" stroke="#000000" points="598.5,-336.5 598.5,-355.5 711.5,-355.5 711.5,-336.5 598.5,-336.5"/>
<text text-anchor="middle" x="655" y="-343.5" font-family="Helvetica,sans-Serif" font-size="10.00" fill="#000000">TPCFastTransform.h</text>
</a>
</g>
</g>
<!-- Node0&#45;&gt;Node13 -->
<g id="edge13" class="edge">
<title>Node0&#45;&gt;Node13</title>
<path fill="none" stroke="#191970" d="M863.1727,-397.3351C811.1261,-384.5005 746.6274,-368.5952 703.3354,-357.9194"/>
<polygon fill="#191970" stroke="#191970" points="704.1678,-354.5199 693.6207,-355.5238 702.4918,-361.3163 704.1678,-354.5199"/>
</g>
<!-- Node28 -->
<g id="node29" class="node">
<title>Node28</title>
<polygon fill="none" stroke="#bfbfbf" points="1507,-112.5 1507,-131.5 1571,-131.5 1571,-112.5 1507,-112.5"/>
<text text-anchor="middle" x="1539" y="-119.5" font-family="Helvetica,sans-Serif" font-size="10.00" fill="#000000">algorithm</text>
</g>
<!-- Node0&#45;&gt;Node28 -->
<g id="edge65" class="edge">
<title>Node0&#45;&gt;Node28</title>
<path fill="none" stroke="#191970" d="M1034.7094,-408.8406C1199.6348,-389.0882 1545,-341.5687 1545,-290 1545,-290 1545,-290 1545,-234 1545,-201.6653 1542.4755,-164.1547 1540.7016,-141.7876"/>
<polygon fill="#191970" stroke="#191970" points="1544.1698,-141.2576 1539.8597,-131.5791 1537.1935,-141.833 1544.1698,-141.2576"/>
</g>
<!-- Node30 -->
<g id="node31" class="node">
<title>Node30</title>
<g id="a_node31"><a xlink:href="../../d1/dde/GPUTPCClusterData_8h.html" target="_top" xlink:title="GPUTPCClusterData.h">
<polygon fill="none" stroke="#000000" points="887.5,-280.5 887.5,-299.5 1010.5,-299.5 1010.5,-280.5 887.5,-280.5"/>
<text text-anchor="middle" x="949" y="-287.5" font-family="Helvetica,sans-Serif" font-size="10.00" fill="#000000">GPUTPCClusterData.h</text>
</a>
</g>
</g>
<!-- Node0&#45;&gt;Node30 -->
<g id="edge43" class="edge">
<title>Node0&#45;&gt;Node30</title>
<path fill="none" stroke="#191970" d="M949,-392.4961C949,-368.0156 949,-331.8881 949,-309.7068"/>
<polygon fill="#191970" stroke="#191970" points="952.5001,-309.5141 949,-299.5142 945.5001,-309.5142 952.5001,-309.5141"/>
</g>
<!-- Node32 -->
<g id="node33" class="node">
<title>Node32</title>
<g id="a_node33"><a xlink:href="../../d5/d5c/GPUO2DataTypes_8h.html" target="_top" xlink:title="GPUO2DataTypes.h">
<polygon fill="none" stroke="#000000" points="803.5,-224.5 803.5,-243.5 914.5,-243.5 914.5,-224.5 803.5,-224.5"/>
<text text-anchor="middle" x="859" y="-231.5" font-family="Helvetica,sans-Serif" font-size="10.00" fill="#000000">GPUO2DataTypes.h</text>
</a>
</g>
</g>
<!-- Node0&#45;&gt;Node32 -->
<g id="edge46" class="edge">
<title>Node0&#45;&gt;Node32</title>
<path fill="none" stroke="#191970" d="M930.9606,-392.1826C915.5459,-368.7935 893.607,-333.2524 879,-300 872.379,-284.9274 867.1006,-267.006 863.6327,-253.6442"/>
<polygon fill="#191970" stroke="#191970" points="866.9598,-252.519 861.1558,-243.6554 860.1656,-254.2039 866.9598,-252.519"/>
</g>
<!-- Node34 -->
<g id="node35" class="node">
<title>Node34</title>
<g id="a_node35"><a xlink:href="../../d4/dc5/GPUDataTypes_8h.html" target="_top" xlink:title="GPUDataTypes.h">
<polygon fill="none" stroke="#000000" points="446,-112.5 446,-131.5 544,-131.5 544,-112.5 446,-112.5"/>
<text text-anchor="middle" x="495" y="-119.5" font-family="Helvetica,sans-Serif" font-size="10.00" fill="#000000">GPUDataTypes.h</text>
</a>
</g>
</g>
<!-- Node0&#45;&gt;Node34 -->
<g id="edge53" class="edge">
<title>Node0&#45;&gt;Node34</title>
<path fill="none" stroke="#191970" d="M863.35,-414.4875C718.0844,-405.3205 439,-376.4581 439,-290 439,-290 439,-290 439,-234 439,-197.4776 463.1172,-160.6564 479.6978,-139.6576"/>
<polygon fill="#191970" stroke="#191970" points="482.6115,-141.6242 486.25,-131.6738 477.2004,-137.1834 482.6115,-141.6242"/>
</g>
<!-- Node36 -->
<g id="node37" class="node">
<title>Node36</title>
<g id="a_node37"><a xlink:href="../../dd/d86/AliHLTTPCRawCluster_8h.html" target="_top" xlink:title="AliHLTTPCRawCluster.h">
<polygon fill="none" stroke="#000000" points="1573.5,-336.5 1573.5,-355.5 1702.5,-355.5 1702.5,-336.5 1573.5,-336.5"/>
<text text-anchor="middle" x="1638" y="-343.5" font-family="Helvetica,sans-Serif" font-size="10.00" fill="#000000">AliHLTTPCRawCluster.h</text>
</a>
</g>
</g>
<!-- Node0&#45;&gt;Node36 -->
<g id="edge54" class="edge">
<title>Node0&#45;&gt;Node36</title>
<path fill="none" stroke="#191970" d="M1034.6864,-410.3696C1152.7846,-399.0158 1372.1906,-377.3905 1559,-356 1560.3134,-355.8496 1561.6389,-355.6965 1562.9738,-355.5411"/>
<polygon fill="#191970" stroke="#191970" points="1563.8275,-358.9645 1573.3458,-354.3113 1563.0032,-352.0132 1563.8275,-358.9645"/>
</g>
<!-- Node37 -->
<g id="node38" class="node">
<title>Node37</title>
<g id="a_node38"><a xlink:href="../../df/d13/GPUParam_8h.html" target="_top" xlink:title="GPUParam.h">
<polygon fill="none" stroke="#000000" points="1156.5,-280.5 1156.5,-299.5 1233.5,-299.5 1233.5,-280.5 1156.5,-280.5"/>
<text text-anchor="middle" x="1195" y="-287.5" font-family="Helvetica,sans-Serif" font-size="10.00" fill="#000000">GPUParam.h</text>
</a>
</g>
</g>
<!-- Node0&#45;&gt;Node37 -->
<g id="edge55" class="edge">
<title>Node0&#45;&gt;Node37</title>
<path fill="none" stroke="#191970" d="M998.7818,-392.4961C1049.7318,-365.882 1127.0348,-325.5021 1167.7355,-304.2418"/>
<polygon fill="#191970" stroke="#191970" points="1169.543,-307.2464 1176.7861,-299.5142 1166.302,-301.0419 1169.543,-307.2464"/>
</g>
<!-- Node41 -->
<g id="node42" class="node">
<title>Node41</title>
<polygon fill="none" stroke="#bfbfbf" points="1720.5,-336.5 1720.5,-355.5 1767.5,-355.5 1767.5,-336.5 1720.5,-336.5"/>
<text text-anchor="middle" x="1744" y="-343.5" font-family="Helvetica,sans-Serif" font-size="10.00" fill="#000000">vector</text>
</g>
<!-- Node0&#45;&gt;Node41 -->
<g id="edge66" class="edge">
<title>Node0&#45;&gt;Node41</title>
<path fill="none" stroke="#191970" d="M1034.6775,-413.8752C1201.7709,-404.4715 1566.6836,-381.9509 1710.423,-355.9012"/>
<polygon fill="#191970" stroke="#191970" points="1711.2076,-359.3149 1720.3842,-354.0196 1709.9084,-352.4366 1711.2076,-359.3149"/>
</g>
<!-- Node2 -->
<g id="node3" class="node">
<title>Node2</title>
<polygon fill="none" stroke="#bfbfbf" points="351,-56.5 351,-75.5 409,-75.5 409,-56.5 351,-56.5"/>
<text text-anchor="middle" x="380" y="-63.5" font-family="Helvetica,sans-Serif" font-size="10.00" fill="#000000">memory</text>
</g>
<!-- Node1&#45;&gt;Node2 -->
<g id="edge2" class="edge">
<title>Node1&#45;&gt;Node2</title>
<path fill="none" stroke="#191970" d="M768.7647,-168.4509C689.4536,-147.5501 501.0414,-97.898 419.1402,-76.3146"/>
<polygon fill="#191970" stroke="#191970" points="419.7947,-72.8676 409.2329,-73.7037 418.0108,-79.6365 419.7947,-72.8676"/>
</g>
<!-- Node3 -->
<g id="node4" class="node">
<title>Node3</title>
<g id="a_node4"><a xlink:href="../../d2/d6d/GPUDef_8h.html" target="_top" xlink:title="GPUDef.h">
<polygon fill="none" stroke="#000000" points="1047.5,-112.5 1047.5,-131.5 1110.5,-131.5 1110.5,-112.5 1047.5,-112.5"/>
<text text-anchor="middle" x="1079" y="-119.5" font-family="Helvetica,sans-Serif" font-size="10.00" fill="#000000">GPUDef.h</text>
</a>
</g>
</g>
<!-- Node1&#45;&gt;Node3 -->
<g id="edge3" class="edge">
<title>Node1&#45;&gt;Node3</title>
<path fill="none" stroke="#191970" d="M851.791,-168.4369C903.9843,-157.7696 987.6231,-140.6756 1037.5465,-130.4722"/>
<polygon fill="#191970" stroke="#191970" points="1038.2667,-133.8975 1047.3633,-128.4659 1036.865,-127.0393 1038.2667,-133.8975"/>
</g>
<!-- Node4 -->
<g id="node5" class="node">
<title>Node4</title>
<g id="a_node5"><a xlink:href="../../df/d21/GPUCommonDef_8h.html" target="_top" xlink:title="GPUCommonDef.h">
<polygon fill="none" stroke="#000000" points="570.5,-56.5 570.5,-75.5 677.5,-75.5 677.5,-56.5 570.5,-56.5"/>
<text text-anchor="middle" x="624" y="-63.5" font-family="Helvetica,sans-Serif" font-size="10.00" fill="#000000">GPUCommonDef.h</text>
</a>
</g>
</g>
<!-- Node3&#45;&gt;Node4 -->
<g id="edge4" class="edge">
<title>Node3&#45;&gt;Node4</title>
<path fill="none" stroke="#191970" d="M1047.4076,-114.688C1042.5964,-113.7034 1037.6773,-112.7694 1033,-112 911.4616,-92.0082 768.1585,-78.083 687.5066,-71.1187"/>
<polygon fill="#191970" stroke="#191970" points="687.7705,-67.6286 677.5086,-70.2634 687.1738,-74.6031 687.7705,-67.6286"/>
</g>
<!-- Node7 -->
<g id="node8" class="node">
<title>Node7</title>
<g id="a_node8"><a xlink:href="../../d2/d37/GPUDefConstantsAndSettings_8h.html" target="_top" xlink:title="GPUDefConstantsAndSettings.h">
<polygon fill="none" stroke="#000000" points="819.5,-56.5 819.5,-75.5 990.5,-75.5 990.5,-56.5 819.5,-56.5"/>
<text text-anchor="middle" x="905" y="-63.5" font-family="Helvetica,sans-Serif" font-size="10.00" fill="#000000">GPUDefConstantsAndSettings.h</text>
</a>
</g>
</g>
<!-- Node3&#45;&gt;Node7 -->
<g id="edge7" class="edge">
<title>Node3&#45;&gt;Node7</title>
<path fill="none" stroke="#191970" d="M1049.0883,-112.3733C1020.1548,-103.0613 976.1389,-88.8953 944.3707,-78.671"/>
<polygon fill="#191970" stroke="#191970" points="945.1128,-75.2331 934.5213,-75.5011 942.9682,-81.8965 945.1128,-75.2331"/>
</g>
<!-- Node8 -->
<g id="node9" class="node">
<title>Node8</title>
<g id="a_node9"><a xlink:href="../../dc/de9/GPUDefGPUParameters_8h.html" target="_top" xlink:title="GPUDefGPUParameters.h">
<polygon fill="none" stroke="#000000" points="1009,-56.5 1009,-75.5 1149,-75.5 1149,-56.5 1009,-56.5"/>
<text text-anchor="middle" x="1079" y="-63.5" font-family="Helvetica,sans-Serif" font-size="10.00" fill="#000000">GPUDefGPUParameters.h</text>
</a>
</g>
</g>
<!-- Node3&#45;&gt;Node8 -->
<g id="edge8" class="edge">
<title>Node3&#45;&gt;Node8</title>
<path fill="none" stroke="#191970" d="M1079,-112.2455C1079,-104.9382 1079,-94.6944 1079,-85.7046"/>
<polygon fill="#191970" stroke="#191970" points="1082.5001,-85.6426 1079,-75.6427 1075.5001,-85.6427 1082.5001,-85.6426"/>
</g>
<!-- Node10 -->
<g id="node11" class="node">
<title>Node10</title>
<g id="a_node11"><a xlink:href="../../d3/d4c/GPUDefOpenCL12Templates_8h.html" target="_top" xlink:title="GPUDefOpenCL12Templates.h">
<polygon fill="none" stroke="#000000" points="1167,-56.5 1167,-75.5 1331,-75.5 1331,-56.5 1167,-56.5"/>
<text text-anchor="middle" x="1249" y="-63.5" font-family="Helvetica,sans-Serif" font-size="10.00" fill="#000000">GPUDefOpenCL12Templates.h</text>
</a>
</g>
</g>
<!-- Node3&#45;&gt;Node10 -->
<g id="edge10" class="edge">
<title>Node3&#45;&gt;Node10</title>
<path fill="none" stroke="#191970" d="M1108.224,-112.3733C1136.4925,-103.0613 1179.4965,-88.8953 1210.5344,-78.671"/>
<polygon fill="#191970" stroke="#191970" points="1211.7544,-81.9542 1220.1573,-75.5011 1209.5643,-75.3056 1211.7544,-81.9542"/>
</g>
<!-- Node11 -->
<g id="node12" class="node">
<title>Node11</title>
<g id="a_node12"><a xlink:href="../../d2/d45/GPUCommonRtypes_8h.html" target="_top" xlink:title="GPUCommonRtypes.h">
<polygon fill="none" stroke="#000000" points="427.5,-56.5 427.5,-75.5 552.5,-75.5 552.5,-56.5 427.5,-56.5"/>
<text text-anchor="middle" x="490" y="-63.5" font-family="Helvetica,sans-Serif" font-size="10.00" fill="#000000">GPUCommonRtypes.h</text>
</a>
</g>
</g>
<!-- Node3&#45;&gt;Node11 -->
<g id="edge11" class="edge">
<title>Node3&#45;&gt;Node11</title>
<path fill="none" stroke="#191970" d="M1047.4726,-119.7387C968.0774,-113.9282 753.2729,-97.4902 562.9948,-76.0635"/>
<polygon fill="#191970" stroke="#191970" points="563.1362,-72.5572 552.8056,-74.9086 562.3477,-79.5126 563.1362,-72.5572"/>
</g>
<!-- Node5 -->
<g id="node6" class="node">
<title>Node5</title>
<g id="a_node6"><a xlink:href="../../d5/d93/GPUCommonDefSettings_8h.html" target="_top" xlink:title="GPUCommonDefSettings.h">
<polygon fill="none" stroke="#000000" points="692,-.5 692,-19.5 840,-19.5 840,-.5 692,-.5"/>
<text text-anchor="middle" x="766" y="-7.5" font-family="Helvetica,sans-Serif" font-size="10.00" fill="#000000">GPUCommonDefSettings.h</text>
</a>
</g>
</g>
<!-- Node4&#45;&gt;Node5 -->
<g id="edge5" class="edge">
<title>Node4&#45;&gt;Node5</title>
<path fill="none" stroke="#191970" d="M648.4107,-56.3733C671.6142,-47.2226 706.7038,-33.3844 732.5142,-23.2057"/>
<polygon fill="#191970" stroke="#191970" points="733.8892,-26.4258 741.9079,-19.5011 731.3211,-19.9139 733.8892,-26.4258"/>
</g>
<!-- Node6 -->
<g id="node7" class="node">
<title>Node6</title>
<g id="a_node7"><a xlink:href="../../da/d5a/GPUCommonDefAPI_8h.html" target="_top" xlink:title="GPUCommonDefAPI.h">
<polygon fill="none" stroke="#000000" points="550,-.5 550,-19.5 674,-19.5 674,-.5 550,-.5"/>
<text text-anchor="middle" x="612" y="-7.5" font-family="Helvetica,sans-Serif" font-size="10.00" fill="#000000">GPUCommonDefAPI.h</text>
</a>
</g>
</g>
<!-- Node4&#45;&gt;Node6 -->
<g id="edge6" class="edge">
<title>Node4&#45;&gt;Node6</title>
<path fill="none" stroke="#191970" d="M621.9098,-56.2455C620.3439,-48.9382 618.1488,-38.6944 616.2224,-29.7046"/>
<polygon fill="#191970" stroke="#191970" points="619.584,-28.6873 614.0663,-19.6427 612.7393,-30.1541 619.584,-28.6873"/>
</g>
<!-- Node9 -->
<g id="node10" class="node">
<title>Node9</title>
<g id="a_node10"><a xlink:href="../../d6/dff/GPUDefMacros_8h.html" target="_top" xlink:title="GPUDefMacros.h">
<polygon fill="none" stroke="#000000" points="1030,-.5 1030,-19.5 1128,-19.5 1128,-.5 1030,-.5"/>
<text text-anchor="middle" x="1079" y="-7.5" font-family="Helvetica,sans-Serif" font-size="10.00" fill="#000000">GPUDefMacros.h</text>
</a>
</g>
</g>
<!-- Node8&#45;&gt;Node9 -->
<g id="edge9" class="edge">
<title>Node8&#45;&gt;Node9</title>
<path fill="none" stroke="#191970" d="M1079,-56.2455C1079,-48.9382 1079,-38.6944 1079,-29.7046"/>
<polygon fill="#191970" stroke="#191970" points="1082.5001,-29.6426 1079,-19.6427 1075.5001,-29.6427 1082.5001,-29.6426"/>
</g>
<!-- Node12 -->
<g id="node13" class="node">
<title>Node12</title>
<polygon fill="none" stroke="#bfbfbf" points="460.5,-.5 460.5,-19.5 519.5,-19.5 519.5,-.5 460.5,-.5"/>
<text text-anchor="middle" x="490" y="-7.5" font-family="Helvetica,sans-Serif" font-size="10.00" fill="#000000">Rtypes.h</text>
</g>
<!-- Node11&#45;&gt;Node12 -->
<g id="edge12" class="edge">
<title>Node11&#45;&gt;Node12</title>
<path fill="none" stroke="#191970" d="M490,-56.2455C490,-48.9382 490,-38.6944 490,-29.7046"/>
<polygon fill="#191970" stroke="#191970" points="493.5001,-29.6426 490,-19.6427 486.5001,-29.6427 493.5001,-29.6426"/>
</g>
<!-- Node14 -->
<g id="node15" class="node">
<title>Node14</title>
<g id="a_node15"><a xlink:href="../../db/dff/FlatObject_8h.html" target="_top" xlink:title="Definition of FlatObject class. ">
<polygon fill="none" stroke="#000000" points="155.5,-112.5 155.5,-131.5 230.5,-131.5 230.5,-112.5 155.5,-112.5"/>
<text text-anchor="middle" x="193" y="-119.5" font-family="Helvetica,sans-Serif" font-size="10.00" fill="#000000">FlatObject.h</text>
</a>
</g>
</g>
<!-- Node13&#45;&gt;Node14 -->
<g id="edge14" class="edge">
<title>Node13&#45;&gt;Node14</title>
<path fill="none" stroke="#191970" d="M598.2575,-342.9963C516.5642,-336.2627 363.9021,-314.4673 257,-244 230.3417,-226.4275 226.7047,-216.3413 212,-188 204.4494,-173.4471 199.5285,-155.4871 196.5908,-141.9783"/>
<polygon fill="#191970" stroke="#191970" points="199.9598,-140.9748 194.5752,-131.8503 193.0944,-142.3411 199.9598,-140.9748"/>
</g>
<!-- Node21 -->
<g id="node22" class="node">
<title>Node21</title>
<g id="a_node22"><a xlink:href="../../d5/dde/TPCFastTransformGeo_8h.html" target="_top" xlink:title="Definition of TPCFastTransformGeo class. ">
<polygon fill="none" stroke="#000000" points="551,-224.5 551,-243.5 683,-243.5 683,-224.5 551,-224.5"/>
<text text-anchor="middle" x="617" y="-231.5" font-family="Helvetica,sans-Serif" font-size="10.00" fill="#000000">TPCFastTransformGeo.h</text>
</a>
</g>
</g>
<!-- Node13&#45;&gt;Node21 -->
<g id="edge24" class="edge">
<title>Node13&#45;&gt;Node21</title>
<path fill="none" stroke="#191970" d="M675.4554,-336.4424C698.3128,-324.3845 730.3509,-302.4926 716,-280 705.9797,-264.2949 689.0584,-253.8684 672.013,-246.9824"/>
<polygon fill="#191970" stroke="#191970" points="673.1671,-243.6777 662.5736,-243.51 670.7504,-250.2473 673.1671,-243.6777"/>
</g>
<!-- Node22 -->
<g id="node23" class="node">
<title>Node22</title>
<g id="a_node23"><a xlink:href="../../d8/d93/TPCFastSpaceChargeCorrection_8h.html" target="_top" xlink:title="Definition of TPCFastSpaceChargeCorrection class. ">
<polygon fill="none" stroke="#000000" points="529,-280.5 529,-299.5 707,-299.5 707,-280.5 529,-280.5"/>
<text text-anchor="middle" x="618" y="-287.5" font-family="Helvetica,sans-Serif" font-size="10.00" fill="#000000">TPCFastSpaceChargeCorrection.h</text>
</a>
</g>
</g>
<!-- Node13&#45;&gt;Node22 -->
<g id="edge27" class="edge">
<title>Node13&#45;&gt;Node22</title>
<path fill="none" stroke="#191970" d="M648.5551,-336.2455C643.4618,-328.5367 636.2092,-317.5598 630.048,-308.2348"/>
<polygon fill="#191970" stroke="#191970" points="632.8038,-306.0566 624.3711,-299.6427 626.9635,-309.9155 632.8038,-306.0566"/>
</g>
<!-- Node26 -->
<g id="node27" class="node">
<title>Node26</title>
<g id="a_node27"><a xlink:href="../../d6/da2/GPUCommonMath_8h.html" target="_top" xlink:title="GPUCommonMath.h">
<polygon fill="none" stroke="#000000" points="1401.5,-168.5 1401.5,-187.5 1516.5,-187.5 1516.5,-168.5 1401.5,-168.5"/>
<text text-anchor="middle" x="1459" y="-175.5" font-family="Helvetica,sans-Serif" font-size="10.00" fill="#000000">GPUCommonMath.h</text>
</a>
</g>
</g>
<!-- Node13&#45;&gt;Node26 -->
<g id="edge38" class="edge">
<title>Node13&#45;&gt;Node26</title>
<path fill="none" stroke="#191970" d="M711.7227,-344.6853C817.0472,-341.5538 1049.7018,-331.3932 1243,-300 1344.718,-283.4802 1404.5388,-325.192 1468,-244 1478.3152,-230.8027 1474.0767,-211.4111 1468.4512,-197.0594"/>
<polygon fill="#191970" stroke="#191970" points="1471.5412,-195.3927 1464.298,-187.6605 1465.1385,-198.222 1471.5412,-195.3927"/>
</g>
<!-- Node29 -->
<g id="node30" class="node">
<title>Node29</title>
<polygon fill="none" stroke="#bfbfbf" points="467,-280.5 467,-299.5 511,-299.5 511,-280.5 467,-280.5"/>
<text text-anchor="middle" x="489" y="-287.5" font-family="Helvetica,sans-Serif" font-size="10.00" fill="#000000">string</text>
</g>
<!-- Node13&#45;&gt;Node29 -->
<g id="edge42" class="edge">
<title>Node13&#45;&gt;Node29</title>
<path fill="none" stroke="#191970" d="M626.4636,-336.3733C597.0643,-326.4554 551.3426,-311.0313 520.8001,-300.7278"/>
<polygon fill="#191970" stroke="#191970" points="521.6638,-297.3254 511.0696,-297.4452 519.4262,-303.9581 521.6638,-297.3254"/>
</g>
<!-- Node14&#45;&gt;Node2 -->
<g id="edge16" class="edge">
<title>Node14&#45;&gt;Node2</title>
<path fill="none" stroke="#191970" d="M225.1464,-112.3733C257.2713,-102.753 306.6965,-87.9519 341.0348,-77.6687"/>
<polygon fill="#191970" stroke="#191970" points="342.1559,-80.9866 350.7315,-74.7649 340.1477,-74.2809 342.1559,-80.9866"/>
</g>
<!-- Node14&#45;&gt;Node4 -->
<g id="edge19" class="edge">
<title>Node14&#45;&gt;Node4</title>
<path fill="none" stroke="#191970" d="M230.6488,-113.6492C233.805,-113.0528 236.953,-112.4933 240,-112 378.9593,-89.505 417.5971,-95.1944 560.2546,-76.1825"/>
<polygon fill="#191970" stroke="#191970" points="560.8136,-79.6389 570.2553,-74.8323 559.8769,-72.7019 560.8136,-79.6389"/>
</g>
<!-- Node14&#45;&gt;Node11 -->
<g id="edge20" class="edge">
<title>Node14&#45;&gt;Node11</title>
<path fill="none" stroke="#191970" d="M230.6912,-113.8847C233.838,-113.2364 236.9723,-112.6005 240,-112 302.9745,-99.5094 375.1089,-86.36 425.6561,-77.3342"/>
<polygon fill="#191970" stroke="#191970" points="426.555,-80.7292 435.7858,-75.529 425.3268,-73.8378 426.555,-80.7292"/>
</g>
<!-- Node15 -->
<g id="node16" class="node">
<title>Node15</title>
<polygon fill="none" stroke="#bfbfbf" points="279.5,-56.5 279.5,-75.5 332.5,-75.5 332.5,-56.5 279.5,-56.5"/>
<text text-anchor="middle" x="306" y="-63.5" font-family="Helvetica,sans-Serif" font-size="10.00" fill="#000000">cstddef</text>
</g>
<!-- Node14&#45;&gt;Node15 -->
<g id="edge15" class="edge">
<title>Node14&#45;&gt;Node15</title>
<path fill="none" stroke="#191970" d="M212.4254,-112.3733C230.4021,-103.4644 257.3441,-90.1127 277.709,-80.0203"/>
<polygon fill="#191970" stroke="#191970" points="279.4222,-83.0776 286.8281,-75.5011 276.3139,-76.8055 279.4222,-83.0776"/>
</g>
<!-- Node16 -->
<g id="node17" class="node">
<title>Node16</title>
<polygon fill="none" stroke="#bfbfbf" points="0,-56.5 0,-75.5 50,-75.5 50,-56.5 0,-56.5"/>
<text text-anchor="middle" x="25" y="-63.5" font-family="Helvetica,sans-Serif" font-size="10.00" fill="#000000">cstring</text>
</g>
<!-- Node14&#45;&gt;Node16 -->
<g id="edge17" class="edge">
<title>Node14&#45;&gt;Node16</title>
<path fill="none" stroke="#191970" d="M164.1198,-112.3733C135.1681,-102.7227 90.5758,-87.8586 59.7151,-77.5717"/>
<polygon fill="#191970" stroke="#191970" points="60.8088,-74.247 50.2152,-74.4051 58.5952,-80.8878 60.8088,-74.247"/>
</g>
<!-- Node17 -->
<g id="node18" class="node">
<title>Node17</title>
<polygon fill="none" stroke="#bfbfbf" points="68,-56.5 68,-75.5 120,-75.5 120,-56.5 68,-56.5"/>
<text text-anchor="middle" x="94" y="-63.5" font-family="Helvetica,sans-Serif" font-size="10.00" fill="#000000">cassert</text>
</g>
<!-- Node14&#45;&gt;Node17 -->
<g id="edge18" class="edge">
<title>Node14&#45;&gt;Node17</title>
<path fill="none" stroke="#191970" d="M175.7555,-112.2455C160.4239,-103.5731 137.7801,-90.7645 120.2084,-80.825"/>
<polygon fill="#191970" stroke="#191970" points="121.4741,-77.5198 111.0469,-75.6427 118.0276,-83.6126 121.4741,-77.5198"/>
</g>
<!-- Node18 -->
<g id="node19" class="node">
<title>Node18</title>
<g id="a_node19"><a xlink:href="../../df/d5b/GPUCommonLogger_8h.html" target="_top" xlink:title="GPUCommonLogger.h">
<polygon fill="none" stroke="#000000" points="138.5,-56.5 138.5,-75.5 261.5,-75.5 261.5,-56.5 138.5,-56.5"/>
<text text-anchor="middle" x="200" y="-63.5" font-family="Helvetica,sans-Serif" font-size="10.00" fill="#000000">GPUCommonLogger.h</text>
</a>
</g>
</g>
<!-- Node14&#45;&gt;Node18 -->
<g id="edge21" class="edge">
<title>Node14&#45;&gt;Node18</title>
<path fill="none" stroke="#191970" d="M194.2193,-112.2455C195.1327,-104.9382 196.4132,-94.6944 197.5369,-85.7046"/>
<polygon fill="#191970" stroke="#191970" points="201.0272,-85.9996 198.7947,-75.6427 194.0813,-85.1313 201.0272,-85.9996"/>
</g>
<!-- Node19 -->
<g id="node20" class="node">
<title>Node19</title>
<polygon fill="none" stroke="#bfbfbf" points="135,-.5 135,-19.5 195,-19.5 195,-.5 135,-.5"/>
<text text-anchor="middle" x="165" y="-7.5" font-family="Helvetica,sans-Serif" font-size="10.00" fill="#000000">iostream</text>
</g>
<!-- Node18&#45;&gt;Node19 -->
<g id="edge22" class="edge">
<title>Node18&#45;&gt;Node19</title>
<path fill="none" stroke="#191970" d="M193.9035,-56.2455C189.0855,-48.5367 182.2249,-37.5598 176.3968,-28.2348"/>
<polygon fill="#191970" stroke="#191970" points="179.2947,-26.2677 171.0267,-19.6427 173.3587,-29.9777 179.2947,-26.2677"/>
</g>
<!-- Node20 -->
<g id="node21" class="node">
<title>Node20</title>
<polygon fill="none" stroke="#bfbfbf" points="213,-.5 213,-19.5 259,-19.5 259,-.5 213,-.5"/>
<text text-anchor="middle" x="236" y="-7.5" font-family="Helvetica,sans-Serif" font-size="10.00" fill="#000000">cstdio</text>
</g>
<!-- Node18&#45;&gt;Node20 -->
<g id="edge23" class="edge">
<title>Node18&#45;&gt;Node20</title>
<path fill="none" stroke="#191970" d="M206.2707,-56.2455C211.2264,-48.5367 218.283,-37.5598 224.2776,-28.2348"/>
<polygon fill="#191970" stroke="#191970" points="227.3376,-29.9471 229.8011,-19.6427 221.4494,-26.1618 227.3376,-29.9471"/>
</g>
<!-- Node21&#45;&gt;Node2 -->
<g id="edge26" class="edge">
<title>Node21&#45;&gt;Node2</title>
<path fill="none" stroke="#191970" d="M594.7102,-224.4102C559.115,-208.4575 488.2369,-174.0294 437,-132 419.908,-117.9795 403.77,-98.4813 393.0583,-84.3154"/>
<polygon fill="#191970" stroke="#191970" points="395.5975,-81.8611 386.8473,-75.8875 389.9624,-86.014 395.5975,-81.8611"/>
</g>
<!-- Node21&#45;&gt;Node4 -->
<g id="edge25" class="edge">
<title>Node21&#45;&gt;Node4</title>
<path fill="none" stroke="#191970" d="M605.5547,-224.3916C596.4007,-215.901 584.2581,-202.6212 579,-188 575.9919,-179.6356 577.1666,-176.6978 579,-168 585.4887,-137.2168 601.8783,-104.4049 612.9805,-84.5497"/>
<polygon fill="#191970" stroke="#191970" points="616.1362,-86.0827 618.0816,-75.668 610.0661,-82.5964 616.1362,-86.0827"/>
</g>
<!-- Node22&#45;&gt;Node4 -->
<g id="edge37" class="edge">
<title>Node22&#45;&gt;Node4</title>
<path fill="none" stroke="#191970" d="M588.4315,-280.3976C571.5892,-273.2338 551.9206,-261.6009 542,-244 537.6354,-236.2564 540.346,-232.7336 542,-224 551.9516,-171.4528 558.8532,-158.0793 586,-112 592.073,-101.6917 600.4012,-91.3214 607.7134,-83.0434"/>
<polygon fill="#191970" stroke="#191970" points="610.4051,-85.2863 614.5658,-75.5427 605.237,-80.565 610.4051,-85.2863"/>
</g>
<!-- Node22&#45;&gt;Node14 -->
<g id="edge36" class="edge">
<title>Node22&#45;&gt;Node14</title>
<path fill="none" stroke="#191970" d="M528.9999,-280.5428C438.6918,-270.4759 309.2308,-254.5704 288,-244 244.1247,-222.1554 214.5112,-169.4147 201.1337,-140.959"/>
<polygon fill="#191970" stroke="#191970" points="204.2478,-139.3507 196.9433,-131.6763 197.8677,-142.2308 204.2478,-139.3507"/>
</g>
<!-- Node22&#45;&gt;Node21 -->
<g id="edge35" class="edge">
<title>Node22&#45;&gt;Node21</title>
<path fill="none" stroke="#191970" d="M617.8258,-280.2455C617.6953,-272.9382 617.5124,-262.6944 617.3519,-253.7046"/>
<polygon fill="#191970" stroke="#191970" points="620.8503,-253.5786 617.1722,-243.6427 613.8514,-253.7036 620.8503,-253.5786"/>
</g>
<!-- Node23 -->
<g id="node24" class="node">
<title>Node23</title>
<g id="a_node24"><a xlink:href="../../dd/d27/Spline2D_8h.html" target="_top" xlink:title="Definition of Spline2D class. ">
<polygon fill="none" stroke="#000000" points="296.5,-224.5 296.5,-243.5 365.5,-243.5 365.5,-224.5 296.5,-224.5"/>
<text text-anchor="middle" x="331" y="-231.5" font-family="Helvetica,sans-Serif" font-size="10.00" fill="#000000">Spline2D.h</text>
</a>
</g>
</g>
<!-- Node22&#45;&gt;Node23 -->
<g id="edge28" class="edge">
<title>Node22&#45;&gt;Node23</title>
<path fill="none" stroke="#191970" d="M568.989,-280.4369C514.8056,-269.8645 428.268,-252.9791 375.8239,-242.7461"/>
<polygon fill="#191970" stroke="#191970" points="376.2945,-239.272 365.8093,-240.7921 374.9539,-246.1425 376.2945,-239.272"/>
</g>
<!-- Node23&#45;&gt;Node4 -->
<g id="edge34" class="edge">
<title>Node23&#45;&gt;Node4</title>
<path fill="none" stroke="#191970" d="M336.4985,-224.2955C350.2204,-201.0072 388.3916,-141.6904 437,-112 457.6669,-99.3764 514.8283,-86.3091 560.5613,-77.3428"/>
<polygon fill="#191970" stroke="#191970" points="561.2703,-80.7706 570.4248,-75.4371 559.9424,-73.8977 561.2703,-80.7706"/>
</g>
<!-- Node23&#45;&gt;Node14 -->
<g id="edge33" class="edge">
<title>Node23&#45;&gt;Node14</title>
<path fill="none" stroke="#191970" d="M312.8402,-224.3675C297.3335,-215.7639 274.7832,-202.3357 257,-188 238.6832,-173.2341 220.2409,-153.5903 207.8906,-139.5818"/>
<polygon fill="#191970" stroke="#191970" points="210.238,-136.9462 201.0436,-131.6817 204.9482,-141.5308 210.238,-136.9462"/>
</g>
<!-- Node24 -->
<g id="node25" class="node">
<title>Node24</title>
<g id="a_node25"><a xlink:href="../../de/da6/Spline1D_8h.html" target="_top" xlink:title="Definition of Spline1D class. ">
<polygon fill="none" stroke="#000000" points="265.5,-168.5 265.5,-187.5 334.5,-187.5 334.5,-168.5 265.5,-168.5"/>
<text text-anchor="middle" x="300" y="-175.5" font-family="Helvetica,sans-Serif" font-size="10.00" fill="#000000">Spline1D.h</text>
</a>
</g>
</g>
<!-- Node23&#45;&gt;Node24 -->
<g id="edge29" class="edge">
<title>Node23&#45;&gt;Node24</title>
<path fill="none" stroke="#191970" d="M325.6002,-224.2455C321.3773,-216.617 315.3827,-205.7881 310.2559,-196.5267"/>
<polygon fill="#191970" stroke="#191970" points="313.2432,-194.6965 305.3379,-187.6427 307.119,-198.0867 313.2432,-194.6965"/>
</g>
<!-- Node24&#45;&gt;Node4 -->
<g id="edge30" class="edge">
<title>Node24&#45;&gt;Node4</title>
<path fill="none" stroke="#191970" d="M312.007,-168.3152C330.5884,-153.8255 367.941,-126.6456 404,-112 431.8653,-100.6823 505.945,-86.315 560.4772,-76.6747"/>
<polygon fill="#191970" stroke="#191970" points="561.1715,-80.1065 570.4165,-74.9315 559.9622,-73.2117 561.1715,-80.1065"/>
</g>
<!-- Node24&#45;&gt;Node14 -->
<g id="edge31" class="edge">
<title>Node24&#45;&gt;Node14</title>
<path fill="none" stroke="#191970" d="M281.362,-168.2455C264.5614,-159.4527 239.6366,-146.4079 220.5382,-136.4125"/>
<polygon fill="#191970" stroke="#191970" points="221.9073,-133.1787 211.4244,-131.6427 218.6614,-139.3807 221.9073,-133.1787"/>
</g>
<!-- Node25 -->
<g id="node26" class="node">
<title>Node25</title>
<polygon fill="none" stroke="#bfbfbf" points="248.5,-112.5 248.5,-131.5 313.5,-131.5 313.5,-112.5 248.5,-112.5"/>
<text text-anchor="middle" x="281" y="-119.5" font-family="Helvetica,sans-Serif" font-size="10.00" fill="#000000">functional</text>
</g>
<!-- Node24&#45;&gt;Node25 -->
<g id="edge32" class="edge">
<title>Node24&#45;&gt;Node25</title>
<path fill="none" stroke="#191970" d="M296.6905,-168.2455C294.1567,-160.7776 290.5823,-150.2427 287.485,-141.1137"/>
<polygon fill="#191970" stroke="#191970" points="290.7991,-139.9879 284.2716,-131.6427 284.1702,-142.237 290.7991,-139.9879"/>
</g>
<!-- Node26&#45;&gt;Node4 -->
<g id="edge39" class="edge">
<title>Node26&#45;&gt;Node4</title>
<path fill="none" stroke="#191970" d="M1437.8211,-168.4607C1403.5587,-153.5141 1333.4945,-124.9483 1271,-112 1214.9485,-100.3867 839.7854,-78.2028 687.7789,-69.5657"/>
<polygon fill="#191970" stroke="#191970" points="687.8431,-66.0638 677.661,-68.9921 687.4468,-73.0526 687.8431,-66.0638"/>
</g>
<!-- Node27 -->
<g id="node28" class="node">
<title>Node27</title>
<polygon fill="none" stroke="#bfbfbf" points="1435.5,-112.5 1435.5,-131.5 1482.5,-131.5 1482.5,-112.5 1435.5,-112.5"/>
<text text-anchor="middle" x="1459" y="-119.5" font-family="Helvetica,sans-Serif" font-size="10.00" fill="#000000">cmath</text>
</g>
<!-- Node26&#45;&gt;Node27 -->
<g id="edge40" class="edge">
<title>Node26&#45;&gt;Node27</title>
<path fill="none" stroke="#191970" d="M1459,-168.2455C1459,-160.9382 1459,-150.6944 1459,-141.7046"/>
<polygon fill="#191970" stroke="#191970" points="1462.5001,-141.6426 1459,-131.6427 1455.5001,-141.6427 1462.5001,-141.6426"/>
</g>
<!-- Node26&#45;&gt;Node28 -->
<g id="edge41" class="edge">
<title>Node26&#45;&gt;Node28</title>
<path fill="none" stroke="#191970" d="M1472.9349,-168.2455C1485.0947,-159.7337 1502.9464,-147.2375 1517.0285,-137.3801"/>
<polygon fill="#191970" stroke="#191970" points="1519.0395,-140.2447 1525.2248,-131.6427 1515.0253,-134.51 1519.0395,-140.2447"/>
</g>
<!-- Node31 -->
<g id="node32" class="node">
<title>Node31</title>
<g id="a_node32"><a xlink:href="../../da/dab/GPUTPCDef_8h.html" target="_top" xlink:title="GPUTPCDef.h">
<polygon fill="none" stroke="#000000" points="1047,-168.5 1047,-187.5 1129,-187.5 1129,-168.5 1047,-168.5"/>
<text text-anchor="middle" x="1088" y="-175.5" font-family="Helvetica,sans-Serif" font-size="10.00" fill="#000000">GPUTPCDef.h</text>
</a>
</g>
</g>
<!-- Node30&#45;&gt;Node31 -->
<g id="edge44" class="edge">
<title>Node30&#45;&gt;Node31</title>
<path fill="none" stroke="#191970" d="M954.5327,-280.4286C962.9225,-266.5673 980.0187,-240.7375 1000,-224 1016.0566,-210.55 1036.6944,-199.5053 1053.9479,-191.6124"/>
<polygon fill="#191970" stroke="#191970" points="1055.4,-194.7973 1063.1345,-187.5565 1052.5727,-188.3937 1055.4,-194.7973"/>
</g>
<!-- Node31&#45;&gt;Node3 -->
<g id="edge45" class="edge">
<title>Node31&#45;&gt;Node3</title>
<path fill="none" stroke="#191970" d="M1086.4323,-168.2455C1085.2579,-160.9382 1083.6116,-150.6944 1082.1668,-141.7046"/>
<polygon fill="#191970" stroke="#191970" points="1085.5922,-140.9606 1080.5497,-131.6427 1078.6809,-142.0714 1085.5922,-140.9606"/>
</g>
<!-- Node33 -->
<g id="node34" class="node">
<title>Node33</title>
<g id="a_node34"><a xlink:href="../../da/d28/GPUO2FakeClasses_8h.html" target="_top" xlink:title="GPUO2FakeClasses.h">
<polygon fill="none" stroke="#000000" points="588,-168.5 588,-187.5 708,-187.5 708,-168.5 588,-168.5"/>
<text text-anchor="middle" x="648" y="-175.5" font-family="Helvetica,sans-Serif" font-size="10.00" fill="#000000">GPUO2FakeClasses.h</text>
</a>
</g>
</g>
<!-- Node32&#45;&gt;Node33 -->
<g id="edge47" class="edge">
<title>Node32&#45;&gt;Node33</title>
<path fill="none" stroke="#191970" d="M822.7278,-224.3733C787.0342,-214.9001 732.4121,-200.4032 693.7549,-190.1435"/>
<polygon fill="#191970" stroke="#191970" points="694.3621,-186.6835 683.7989,-187.5011 692.5664,-193.4493 694.3621,-186.6835"/>
</g>
<!-- Node35 -->
<g id="node36" class="node">
<title>Node35</title>
<g id="a_node36"><a xlink:href="../../d3/d1f/GPUdEdxInfo_8h.html" target="_top" xlink:title="GPUdEdxInfo.h">
<polygon fill="none" stroke="#000000" points="901.5,-168.5 901.5,-187.5 990.5,-187.5 990.5,-168.5 901.5,-168.5"/>
<text text-anchor="middle" x="946" y="-175.5" font-family="Helvetica,sans-Serif" font-size="10.00" fill="#000000">GPUdEdxInfo.h</text>
</a>
</g>
</g>
<!-- Node32&#45;&gt;Node35 -->
<g id="edge52" class="edge">
<title>Node32&#45;&gt;Node35</title>
<path fill="none" stroke="#191970" d="M874.1542,-224.2455C887.5027,-215.6534 907.1586,-203.0014 922.5383,-193.1018"/>
<polygon fill="#191970" stroke="#191970" points="924.5051,-195.9982 931.0194,-187.6427 920.7164,-190.1121 924.5051,-195.9982"/>
</g>
<!-- Node33&#45;&gt;Node4 -->
<g id="edge48" class="edge">
<title>Node33&#45;&gt;Node4</title>
<path fill="none" stroke="#191970" d="M645.9538,-168.4509C642.0217,-150.1013 633.3409,-109.5908 628.1506,-85.3693"/>
<polygon fill="#191970" stroke="#191970" points="631.5587,-84.5695 626.041,-75.5249 624.7141,-86.0363 631.5587,-84.5695"/>
</g>
<!-- Node33&#45;&gt;Node34 -->
<g id="edge49" class="edge">
<title>Node33&#45;&gt;Node34</title>
<path fill="none" stroke="#191970" d="M621.6984,-168.3733C596.5872,-159.1822 558.5562,-145.2624 530.7128,-135.0713"/>
<polygon fill="#191970" stroke="#191970" points="531.5522,-131.6516 520.9584,-131.5011 529.1462,-138.2251 531.5522,-131.6516"/>
</g>
<!-- Node34&#45;&gt;Node4 -->
<g id="edge50" class="edge">
<title>Node34&#45;&gt;Node4</title>
<path fill="none" stroke="#191970" d="M517.1759,-112.3733C537.9766,-103.3435 569.2917,-89.7494 592.6458,-79.6111"/>
<polygon fill="#191970" stroke="#191970" points="594.3343,-82.6938 602.1135,-75.5011 591.5468,-76.2727 594.3343,-82.6938"/>
</g>
<!-- Node34&#45;&gt;Node15 -->
<g id="edge51" class="edge">
<title>Node34&#45;&gt;Node15</title>
<path fill="none" stroke="#191970" d="M462.5097,-112.3733C429.0807,-102.4684 377.1164,-87.0715 342.3425,-76.7681"/>
<polygon fill="#191970" stroke="#191970" points="343.1638,-73.3612 332.5815,-73.876 341.1751,-80.0727 343.1638,-73.3612"/>
</g>
<!-- Node37&#45;&gt;Node3 -->
<g id="edge58" class="edge">
<title>Node37&#45;&gt;Node3</title>
<path fill="none" stroke="#191970" d="M1193.2023,-280.2595C1190.5463,-267.0718 1184.9054,-243.0025 1176,-224 1163.2362,-196.7644 1158.5549,-189.9587 1138,-168 1127.3196,-156.5902 1113.6446,-145.7435 1102.1497,-137.4514"/>
<polygon fill="#191970" stroke="#191970" points="1104.0663,-134.5206 1093.8702,-131.6413 1100.0453,-140.2505 1104.0663,-134.5206"/>
</g>
<!-- Node37&#45;&gt;Node4 -->
<g id="edge56" class="edge">
<title>Node37&#45;&gt;Node4</title>
<path fill="none" stroke="#191970" d="M1156.2097,-286.4576C1105.01,-280.8869 1019.1055,-268.1369 1000,-244 979.0359,-217.5152 1020.521,-194.8296 1000,-168 962.1981,-118.577 784.5146,-87.5083 687.5432,-73.9401"/>
<polygon fill="#191970" stroke="#191970" points="687.945,-70.4625 677.561,-72.5653 686.9899,-77.397 687.945,-70.4625"/>
</g>
<!-- Node37&#45;&gt;Node26 -->
<g id="edge57" class="edge">
<title>Node37&#45;&gt;Node26</title>
<path fill="none" stroke="#191970" d="M1233.7354,-288.4235C1297.5946,-284.9744 1420.8258,-274.4548 1450,-244 1461.6022,-231.8885 1462.947,-212.3171 1461.9329,-197.6254"/>
<polygon fill="#191970" stroke="#191970" points="1465.397,-197.1054 1460.8284,-187.5462 1458.4386,-197.868 1465.397,-197.1054"/>
</g>
<!-- Node38 -->
<g id="node39" class="node">
<title>Node38</title>
<g id="a_node39"><a xlink:href="../../dd/dc6/GPUSettings_8h.html" target="_top" xlink:title="GPUSettings.h">
<polygon fill="none" stroke="#000000" points="1355,-224.5 1355,-243.5 1441,-243.5 1441,-224.5 1355,-224.5"/>
<text text-anchor="middle" x="1398" y="-231.5" font-family="Helvetica,sans-Serif" font-size="10.00" fill="#000000">GPUSettings.h</text>
</a>
</g>
</g>
<!-- Node37&#45;&gt;Node38 -->
<g id="edge59" class="edge">
<title>Node37&#45;&gt;Node38</title>
<path fill="none" stroke="#191970" d="M1229.8969,-280.3733C1264.0911,-270.9404 1316.3415,-256.5265 1353.5042,-246.2747"/>
<polygon fill="#191970" stroke="#191970" points="1354.8493,-249.5345 1363.5584,-243.5011 1352.9877,-242.7865 1354.8493,-249.5345"/>
</g>
<!-- Node39 -->
<g id="node40" class="node">
<title>Node39</title>
<g id="a_node40"><a xlink:href="../../d6/d1b/GPUTPCGeometry_8h.html" target="_top" xlink:title="GPUTPCGeometry.h">
<polygon fill="none" stroke="#000000" points="1223.5,-224.5 1223.5,-243.5 1336.5,-243.5 1336.5,-224.5 1223.5,-224.5"/>
<text text-anchor="middle" x="1280" y="-231.5" font-family="Helvetica,sans-Serif" font-size="10.00" fill="#000000">GPUTPCGeometry.h</text>
</a>
</g>
</g>
<!-- Node37&#45;&gt;Node39 -->
<g id="edge61" class="edge">
<title>Node37&#45;&gt;Node39</title>
<path fill="none" stroke="#191970" d="M1209.8059,-280.2455C1222.7256,-271.7337 1241.6931,-259.2375 1256.6552,-249.3801"/>
<polygon fill="#191970" stroke="#191970" points="1258.9387,-252.067 1265.3638,-243.6427 1255.0876,-246.2216 1258.9387,-252.067"/>
</g>
<!-- Node40 -->
<g id="node41" class="node">
<title>Node40</title>
<g id="a_node41"><a xlink:href="../../d9/d9c/GPUTPCGMPolynomialField_8h.html" target="_top" xlink:title="GPUTPCGMPolynomialField.h">
<polygon fill="none" stroke="#000000" points="1009,-224.5 1009,-243.5 1167,-243.5 1167,-224.5 1009,-224.5"/>
<text text-anchor="middle" x="1088" y="-231.5" font-family="Helvetica,sans-Serif" font-size="10.00" fill="#000000">GPUTPCGMPolynomialField.h</text>
</a>
</g>
</g>
<!-- Node37&#45;&gt;Node40 -->
<g id="edge63" class="edge">
<title>Node37&#45;&gt;Node40</title>
<path fill="none" stroke="#191970" d="M1176.362,-280.2455C1159.5614,-271.4527 1134.6366,-258.4079 1115.5382,-248.4125"/>
<polygon fill="#191970" stroke="#191970" points="1116.9073,-245.1787 1106.4244,-243.6427 1113.6614,-251.3807 1116.9073,-245.1787"/>
</g>
<!-- Node38&#45;&gt;Node26 -->
<g id="edge60" class="edge">
<title>Node38&#45;&gt;Node26</title>
<path fill="none" stroke="#191970" d="M1408.6254,-224.2455C1417.5473,-216.0549 1430.488,-204.1749 1441.0192,-194.5069"/>
<polygon fill="#191970" stroke="#191970" points="1443.4968,-196.9837 1448.4964,-187.6427 1438.7629,-191.8271 1443.4968,-196.9837"/>
</g>
<!-- Node39&#45;&gt;Node4 -->
<g id="edge62" class="edge">
<title>Node39&#45;&gt;Node4</title>
<path fill="none" stroke="#191970" d="M1271.0946,-224.1497C1248.5715,-199.9928 1186.3874,-137.8994 1120,-112 1080.6712,-96.6568 812.7805,-77.9579 687.8735,-69.9486"/>
<polygon fill="#191970" stroke="#191970" points="687.889,-66.4425 677.6864,-69.2987 687.4433,-73.4283 687.889,-66.4425"/>
</g>
<!-- Node40&#45;&gt;Node31 -->
<g id="edge64" class="edge">
<title>Node40&#45;&gt;Node31</title>
<path fill="none" stroke="#191970" d="M1088,-224.2455C1088,-216.9382 1088,-206.6944 1088,-197.7046"/>
<polygon fill="#191970" stroke="#191970" points="1091.5001,-197.6426 1088,-187.6427 1084.5001,-197.6427 1091.5001,-197.6426"/>
</g>
</g>
</svg>
        <g id="navigator" transform="translate(0 0)" fill="#404254">
                <rect fill="#f2f5e9" fill-opacity="0.5" stroke="#606060" stroke-width=".5" x="0" y="0" width="60" height="60"/>
                <use id="zoomplus" xlink:href="#zoomPlus" x="17" y="9" onmousedown="handleZoom(evt,'in')"/>
                <use id="zoomminus" xlink:href="#zoomMin" x="42" y="9" onmousedown="handleZoom(evt,'out')"/>
                <use id="reset" xlink:href="#resetDef" x="30" y="36" onmousedown="handleReset()"/>
                <g id="arrowUp" xlink:href="#dirArrow" transform="translate(30 24)" onmousedown="handlePan(0,-1)">
                  <use xlink:href="#rim" fill="#404040">
                        <set attributeName="fill" to="#808080" begin="arrowUp.mouseover" end="arrowUp.mouseout"/>
                  </use>
                  <path fill="none" stroke="white" stroke-width="1.5" d="M0,-3.0v7 M-2.5,-0.5L0,-3.0L2.5,-0.5"/>
                </g>
                <g id="arrowRight" xlink:href="#dirArrow" transform="rotate(90) translate(36 -43)" onmousedown="handlePan(1,0)">
                  <use xlink:href="#rim" fill="#404040">
                        <set attributeName="fill" to="#808080" begin="arrowRight.mouseover" end="arrowRight.mouseout"/>
                  </use>
                  <path fill="none" stroke="white" stroke-width="1.5" d="M0,-3.0v7 M-2.5,-0.5L0,-3.0L2.5,-0.5"/>
                </g>
                <g id="arrowDown" xlink:href="#dirArrow" transform="rotate(180) translate(-30 -48)" onmousedown="handlePan(0,1)">
                  <use xlink:href="#rim" fill="#404040">
                        <set attributeName="fill" to="#808080" begin="arrowDown.mouseover" end="arrowDown.mouseout"/>
                  </use>
                  <path fill="none" stroke="white" stroke-width="1.5" d="M0,-3.0v7 M-2.5,-0.5L0,-3.0L2.5,-0.5"/>
                </g>
                <g id="arrowLeft" xlink:href="#dirArrow" transform="rotate(270) translate(-36 17)" onmousedown="handlePan(-1,0)">
                  <use xlink:href="#rim" fill="#404040">
                        <set attributeName="fill" to="#808080" begin="arrowLeft.mouseover" end="arrowLeft.mouseout"/>
                  </use>
                  <path fill="none" stroke="white" stroke-width="1.5" d="M0,-3.0v7 M-2.5,-0.5L0,-3.0L2.5,-0.5"/>
                </g>
        </g>
        <svg viewBox="0 0 15 15" width="100%" height="30px" preserveAspectRatio="xMaxYMin meet">
         <g id="arrow_out" transform="scale(0.3 0.3)">
          <a xlink:href="GPUReconstructionConvert_8cxx__incl_org.svg" target="_base">
           <rect id="button" ry="5" rx="5" y="6" x="6" height="38" width="38"
                fill="#f2f5e9" fill-opacity="0.5" stroke="#606060" stroke-width="1.0"/>
           <path id="arrow"
             d="M 11.500037,31.436501 C 11.940474,20.09759 22.043105,11.32322 32.158766,21.979434 L 37.068811,17.246167 C 37.068811,17.246167 37.088388,32 37.088388,32 L 22.160133,31.978069 C 22.160133,31.978069 26.997745,27.140456 26.997745,27.140456 C 18.528582,18.264221 13.291696,25.230495 11.500037,31.436501 z"
             style="fill:#404040;"/>
          </a>
         </g>
        </svg>
</svg>
