<?xml version="1.0" encoding="UTF-8" standalone="no"?>
<!DOCTYPE svg PUBLIC "-//W3C//DTD SVG 1.1//EN"
 "http://www.w3.org/Graphics/SVG/1.1/DTD/svg11.dtd">
<!-- Generated by graphviz version 2.40.1 (20161225.0304)
 -->
<!-- Title: o2::alice_hlt::MessageFormat::BufferDesc_t Pages: 1 -->
<svg width="167pt" height="193pt"
 viewBox="0.00 0.00 167.00 193.00" xmlns="http://www.w3.org/2000/svg" xmlns:xlink="http://www.w3.org/1999/xlink">
<g id="graph0" class="graph" transform="scale(1 1) rotate(0) translate(4 189)">
<title>o2::alice_hlt::MessageFormat::BufferDesc_t</title>
<!-- Node1 -->
<g id="node1" class="node">
<title>Node1</title>
<polygon fill="#bfbfbf" stroke="#000000" points="0,-.5 0,-68.5 159,-68.5 159,-.5 0,-.5"/>
<text text-anchor="start" x="8" y="-56.5" font-family="Helvetica,sans-Serif" font-size="10.00" fill="#000000">o2::alice_hlt::MessageFormat</text>
<text text-anchor="middle" x="79.5" y="-45.5" font-family="Helvetica,sans-Serif" font-size="10.00" fill="#000000">::BufferDesc_t</text>
<polyline fill="none" stroke="#000000" points="0,-38.5 159,-38.5 "/>
<text text-anchor="middle" x="79.5" y="-26.5" font-family="Helvetica,sans-Serif" font-size="10.00" fill="#000000"> </text>
<polyline fill="none" stroke="#000000" points="0,-19.5 159,-19.5 "/>
<text text-anchor="start" x="8" y="-7.5" font-family="Helvetica,sans-Serif" font-size="10.00" fill="#000000">+ BufferDesc_t()</text>
</g>
<!-- Node2 -->
<g id="node2" class="node">
<title>Node2</title>
<polygon fill="none" stroke="#bfbfbf" points="49,-127.5 49,-184.5 110,-184.5 110,-127.5 49,-127.5"/>
<text text-anchor="middle" x="79.5" y="-172.5" font-family="Helvetica,sans-Serif" font-size="10.00" fill="#000000">unsigned</text>
<polyline fill="none" stroke="#bfbfbf" points="49,-165.5 110,-165.5 "/>
<text text-anchor="middle" x="79.5" y="-153.5" font-family="Helvetica,sans-Serif" font-size="10.00" fill="#000000"> </text>
<polyline fill="none" stroke="#bfbfbf" points="49,-146.5 110,-146.5 "/>
<text text-anchor="middle" x="79.5" y="-134.5" font-family="Helvetica,sans-Serif" font-size="10.00" fill="#000000"> </text>
</g>
<!-- Node2&#45;&gt;Node1 -->
<g id="edge1" class="edge">
<title>Node2&#45;&gt;Node1</title>
<path fill="none" stroke="#404040" d="M79.5,-127.2062C79.5,-113.3632 79.5,-96.4255 79.5,-80.8327"/>
<polygon fill="none" stroke="#404040" points="79.5001,-80.7007 75.5,-74.7008 79.5,-68.7007 83.5,-74.7007 79.5001,-80.7007"/>
<text text-anchor="middle" x="99" y="-101" font-family="Helvetica,sans-Serif" font-size="10.00" fill="#000000"> +mP</text>
<text text-anchor="middle" x="99" y="-90" font-family="Helvetica,sans-Serif" font-size="10.00" fill="#000000">+mSize</text>
</g>
</g>
</svg>
