<?xml version="1.0" encoding="UTF-8" standalone="no"?>
<!DOCTYPE svg PUBLIC "-//W3C//DTD SVG 1.1//EN"
 "http://www.w3.org/Graphics/SVG/1.1/DTD/svg11.dtd">
<!-- Generated by graphviz version 2.40.1 (20161225.0304)
 -->
<!-- Title: /home/travis/build/AliceO2Group/AliceO2/Detectors/MUON/MCH/Simulation/test/DigitMerging.cxx Pages: 1 -->
<svg width="468pt" height="296pt"
 viewBox="0.00 0.00 467.50 296.00" xmlns="http://www.w3.org/2000/svg" xmlns:xlink="http://www.w3.org/1999/xlink">
<g id="graph0" class="graph" transform="scale(1 1) rotate(0) translate(4 292)">
<title>/home/travis/build/AliceO2Group/AliceO2/Detectors/MUON/MCH/Simulation/test/DigitMerging.cxx</title>
<!-- Node0 -->
<g id="node1" class="node">
<title>Node0</title>
<polygon fill="#bfbfbf" stroke="#000000" points="173.5,-235.5 173.5,-287.5 355.5,-287.5 355.5,-235.5 173.5,-235.5"/>
<text text-anchor="start" x="181.5" y="-275.5" font-family="Helvetica,sans-Serif" font-size="10.00" fill="#000000">/home/travis/build</text>
<text text-anchor="start" x="181.5" y="-264.5" font-family="Helvetica,sans-Serif" font-size="10.00" fill="#000000">/AliceO2Group/AliceO2</text>
<text text-anchor="start" x="181.5" y="-253.5" font-family="Helvetica,sans-Serif" font-size="10.00" fill="#000000">/Detectors/MUON/MCH/Simulation</text>
<text text-anchor="middle" x="264.5" y="-242.5" font-family="Helvetica,sans-Serif" font-size="10.00" fill="#000000">/test/DigitMerging.cxx</text>
</g>
<!-- Node1 -->
<g id="node2" class="node">
<title>Node1</title>
<g id="a_node2"><a xlink:href="../../d4/d2c/DigitMerging_8h.html" target="_top" xlink:title="DigitMerging.h">
<polygon fill="none" stroke="#000000" points="31.5,-179.5 31.5,-198.5 119.5,-198.5 119.5,-179.5 31.5,-179.5"/>
<text text-anchor="middle" x="75.5" y="-186.5" font-family="Helvetica,sans-Serif" font-size="10.00" fill="#000000">DigitMerging.h</text>
</a>
</g>
</g>
<!-- Node0&#45;&gt;Node1 -->
<g id="edge1" class="edge">
<title>Node0&#45;&gt;Node1</title>
<path fill="none" stroke="#191970" d="M196.5337,-235.4283C167.1413,-224.1534 134.0223,-211.449 109.8685,-202.1837"/>
<polygon fill="#191970" stroke="#191970" points="111.0189,-198.8763 100.4287,-198.5626 108.5117,-205.412 111.0189,-198.8763"/>
</g>
<!-- Node7 -->
<g id="node8" class="node">
<title>Node7</title>
<polygon fill="none" stroke="#bfbfbf" points="137.5,-179.5 137.5,-198.5 175.5,-198.5 175.5,-179.5 137.5,-179.5"/>
<text text-anchor="middle" x="156.5" y="-186.5" font-family="Helvetica,sans-Serif" font-size="10.00" fill="#000000">map</text>
</g>
<!-- Node0&#45;&gt;Node7 -->
<g id="edge8" class="edge">
<title>Node0&#45;&gt;Node7</title>
<path fill="none" stroke="#191970" d="M225.5095,-235.3258C209.9966,-224.912 192.6884,-213.2931 179.2865,-204.2965"/>
<polygon fill="#191970" stroke="#191970" points="180.9559,-201.2017 170.7024,-198.534 177.0543,-207.0136 180.9559,-201.2017"/>
</g>
<!-- Node8 -->
<g id="node9" class="node">
<title>Node8</title>
<polygon fill="none" stroke="#bfbfbf" points="193.5,-179.5 193.5,-198.5 257.5,-198.5 257.5,-179.5 193.5,-179.5"/>
<text text-anchor="middle" x="225.5" y="-186.5" font-family="Helvetica,sans-Serif" font-size="10.00" fill="#000000">algorithm</text>
</g>
<!-- Node0&#45;&gt;Node8 -->
<g id="edge9" class="edge">
<title>Node0&#45;&gt;Node8</title>
<path fill="none" stroke="#191970" d="M250.4201,-235.3258C245.4646,-226.1136 240.0017,-215.9584 235.4569,-207.5096"/>
<polygon fill="#191970" stroke="#191970" points="238.4484,-205.6826 230.6286,-198.534 232.2837,-208.9988 238.4484,-205.6826"/>
</g>
<!-- Node9 -->
<g id="node10" class="node">
<title>Node9</title>
<polygon fill="none" stroke="#bfbfbf" points="275.5,-179.5 275.5,-198.5 331.5,-198.5 331.5,-179.5 275.5,-179.5"/>
<text text-anchor="middle" x="303.5" y="-186.5" font-family="Helvetica,sans-Serif" font-size="10.00" fill="#000000">numeric</text>
</g>
<!-- Node0&#45;&gt;Node9 -->
<g id="edge10" class="edge">
<title>Node0&#45;&gt;Node9</title>
<path fill="none" stroke="#191970" d="M278.5799,-235.3258C283.5354,-226.1136 288.9983,-215.9584 293.5431,-207.5096"/>
<polygon fill="#191970" stroke="#191970" points="296.7163,-208.9988 298.3714,-198.534 290.5516,-205.6826 296.7163,-208.9988"/>
</g>
<!-- Node10 -->
<g id="node11" class="node">
<title>Node10</title>
<polygon fill="none" stroke="#bfbfbf" points="349.5,-179.5 349.5,-198.5 409.5,-198.5 409.5,-179.5 349.5,-179.5"/>
<text text-anchor="middle" x="379.5" y="-186.5" font-family="Helvetica,sans-Serif" font-size="10.00" fill="#000000">iostream</text>
</g>
<!-- Node0&#45;&gt;Node10 -->
<g id="edge11" class="edge">
<title>Node0&#45;&gt;Node10</title>
<path fill="none" stroke="#191970" d="M306.0176,-235.3258C322.6949,-224.8119 341.3207,-213.0696 355.6471,-204.0377"/>
<polygon fill="#191970" stroke="#191970" points="357.7844,-206.8278 364.3771,-198.534 354.0513,-200.9063 357.7844,-206.8278"/>
</g>
<!-- Node11 -->
<g id="node12" class="node">
<title>Node11</title>
<polygon fill="none" stroke="#bfbfbf" points="427.5,-179.5 427.5,-198.5 459.5,-198.5 459.5,-179.5 427.5,-179.5"/>
<text text-anchor="middle" x="443.5" y="-186.5" font-family="Helvetica,sans-Serif" font-size="10.00" fill="#000000">set</text>
</g>
<!-- Node0&#45;&gt;Node11 -->
<g id="edge12" class="edge">
<title>Node0&#45;&gt;Node11</title>
<path fill="none" stroke="#191970" d="M328.8702,-235.4283C359.6031,-222.9806 394.6379,-208.7905 417.7996,-199.4094"/>
<polygon fill="#191970" stroke="#191970" points="419.295,-202.58 427.2497,-195.5818 416.6671,-196.0919 419.295,-202.58"/>
</g>
<!-- Node2 -->
<g id="node3" class="node">
<title>Node2</title>
<polygon fill="none" stroke="#bfbfbf" points="0,-118 0,-137 47,-137 47,-118 0,-118"/>
<text text-anchor="middle" x="23.5" y="-125" font-family="Helvetica,sans-Serif" font-size="10.00" fill="#000000">vector</text>
</g>
<!-- Node1&#45;&gt;Node2 -->
<g id="edge2" class="edge">
<title>Node1&#45;&gt;Node2</title>
<path fill="none" stroke="#191970" d="M67.375,-179.3906C59.6358,-170.2376 47.8013,-156.2409 38.3728,-145.09"/>
<polygon fill="#191970" stroke="#191970" points="40.8689,-142.6213 31.7396,-137.2449 35.5235,-147.1409 40.8689,-142.6213"/>
</g>
<!-- Node3 -->
<g id="node4" class="node">
<title>Node3</title>
<g id="a_node4"><a xlink:href="../../d8/d72/Detectors_2MUON_2MCH_2Base_2include_2MCHBase_2Digit_8h.html" target="_top" xlink:title="MCHBase/Digit.h">
<polygon fill="none" stroke="#000000" points="16.5,-56.5 16.5,-75.5 114.5,-75.5 114.5,-56.5 16.5,-56.5"/>
<text text-anchor="middle" x="65.5" y="-63.5" font-family="Helvetica,sans-Serif" font-size="10.00" fill="#000000">MCHBase/Digit.h</text>
</a>
</g>
</g>
<!-- Node1&#45;&gt;Node3 -->
<g id="edge3" class="edge">
<title>Node1&#45;&gt;Node3</title>
<path fill="none" stroke="#191970" d="M74.7153,-179.3484C73.0796,-159.2295 69.2773,-112.4608 67.1024,-85.7098"/>
<polygon fill="#191970" stroke="#191970" points="70.58,-85.2902 66.281,-75.6068 63.603,-85.8575 70.58,-85.2902"/>
</g>
<!-- Node5 -->
<g id="node6" class="node">
<title>Node5</title>
<g id="a_node6"><a xlink:href="../../d7/dcd/MCCompLabel_8h.html" target="_top" xlink:title="SimulationDataFormat\l/MCCompLabel.h">
<polygon fill="none" stroke="#000000" points="123,-112.5 123,-142.5 250,-142.5 250,-112.5 123,-112.5"/>
<text text-anchor="start" x="131" y="-130.5" font-family="Helvetica,sans-Serif" font-size="10.00" fill="#000000">SimulationDataFormat</text>
<text text-anchor="middle" x="186.5" y="-119.5" font-family="Helvetica,sans-Serif" font-size="10.00" fill="#000000">/MCCompLabel.h</text>
</a>
</g>
</g>
<!-- Node1&#45;&gt;Node5 -->
<g id="edge5" class="edge">
<title>Node1&#45;&gt;Node5</title>
<path fill="none" stroke="#191970" d="M92.8438,-179.3906C108.214,-170.8747 131.1516,-158.166 150.4795,-147.4573"/>
<polygon fill="#191970" stroke="#191970" points="152.2954,-150.4525 159.3463,-142.5446 148.9029,-144.3295 152.2954,-150.4525"/>
</g>
<!-- Node4 -->
<g id="node5" class="node">
<title>Node4</title>
<polygon fill="none" stroke="#bfbfbf" points="101,-.5 101,-19.5 160,-19.5 160,-.5 101,-.5"/>
<text text-anchor="middle" x="130.5" y="-7.5" font-family="Helvetica,sans-Serif" font-size="10.00" fill="#000000">Rtypes.h</text>
</g>
<!-- Node3&#45;&gt;Node4 -->
<g id="edge4" class="edge">
<title>Node3&#45;&gt;Node4</title>
<path fill="none" stroke="#191970" d="M76.8221,-56.2455C86.4223,-47.9746 100.3892,-35.9416 111.6695,-26.2232"/>
<polygon fill="#191970" stroke="#191970" points="114.016,-28.8214 119.3076,-19.6427 109.447,-23.5182 114.016,-28.8214"/>
</g>
<!-- Node6 -->
<g id="node7" class="node">
<title>Node6</title>
<g id="a_node7"><a xlink:href="../../d2/d45/GPUCommonRtypes_8h.html" target="_top" xlink:title="GPUCommonRtypes.h">
<polygon fill="none" stroke="#000000" points="133,-56.5 133,-75.5 258,-75.5 258,-56.5 133,-56.5"/>
<text text-anchor="middle" x="195.5" y="-63.5" font-family="Helvetica,sans-Serif" font-size="10.00" fill="#000000">GPUCommonRtypes.h</text>
</a>
</g>
</g>
<!-- Node5&#45;&gt;Node6 -->
<g id="edge6" class="edge">
<title>Node5&#45;&gt;Node6</title>
<path fill="none" stroke="#191970" d="M188.7247,-112.2977C189.8959,-104.2945 191.3462,-94.3843 192.6041,-85.7889"/>
<polygon fill="#191970" stroke="#191970" points="196.074,-86.2484 194.059,-75.8469 189.1478,-85.2347 196.074,-86.2484"/>
</g>
<!-- Node6&#45;&gt;Node4 -->
<g id="edge7" class="edge">
<title>Node6&#45;&gt;Node4</title>
<path fill="none" stroke="#191970" d="M184.1779,-56.2455C174.5777,-47.9746 160.6108,-35.9416 149.3305,-26.2232"/>
<polygon fill="#191970" stroke="#191970" points="151.553,-23.5182 141.6924,-19.6427 146.984,-28.8214 151.553,-23.5182"/>
</g>
</g>
</svg>
