<?xml version="1.0" encoding="UTF-8" standalone="no"?>
<!DOCTYPE svg PUBLIC "-//W3C//DTD SVG 1.1//EN"
 "http://www.w3.org/Graphics/SVG/1.1/DTD/svg11.dtd">
<!-- Generated by graphviz version 2.40.1 (20161225.0304)
 -->
<!-- Title: /home/travis/build/AliceO2Group/AliceO2/Steer/src/HitProcessingManager.cxx Pages: 1 -->
<svg width="1424pt" height="531pt"
 viewBox="0.00 0.00 1424.43 531.00" xmlns="http://www.w3.org/2000/svg" xmlns:xlink="http://www.w3.org/1999/xlink">
<g id="graph0" class="graph" transform="scale(1 1) rotate(0) translate(4 527)">
<title>/home/travis/build/AliceO2Group/AliceO2/Steer/src/HitProcessingManager.cxx</title>
<!-- Node0 -->
<g id="node1" class="node">
<title>Node0</title>
<polygon fill="#bfbfbf" stroke="#000000" points="936.4346,-481.5 936.4346,-522.5 1130.4346,-522.5 1130.4346,-481.5 936.4346,-481.5"/>
<text text-anchor="start" x="944.4346" y="-510.5" font-family="Helvetica,sans-Serif" font-size="10.00" fill="#000000">/home/travis/build</text>
<text text-anchor="start" x="944.4346" y="-499.5" font-family="Helvetica,sans-Serif" font-size="10.00" fill="#000000">/AliceO2Group/AliceO2</text>
<text text-anchor="middle" x="1033.4346" y="-488.5" font-family="Helvetica,sans-Serif" font-size="10.00" fill="#000000">/Steer/src/HitProcessingManager.cxx</text>
</g>
<!-- Node1 -->
<g id="node2" class="node">
<title>Node1</title>
<g id="a_node2"><a xlink:href="../../dd/d40/HitProcessingManager_8h.html" target="_top" xlink:title="Steer/HitProcessingManager.h">
<polygon fill="none" stroke="#000000" points="572.4346,-425.5 572.4346,-444.5 734.4346,-444.5 734.4346,-425.5 572.4346,-425.5"/>
<text text-anchor="middle" x="653.4346" y="-432.5" font-family="Helvetica,sans-Serif" font-size="10.00" fill="#000000">Steer/HitProcessingManager.h</text>
</a>
</g>
</g>
<!-- Node0&#45;&gt;Node1 -->
<g id="edge1" class="edge">
<title>Node0&#45;&gt;Node1</title>
<path fill="none" stroke="#191970" d="M936.0686,-484.8328C867.3663,-472.7195 777.2698,-456.8341 717.4703,-446.2905"/>
<polygon fill="#191970" stroke="#191970" points="717.862,-442.8057 707.4061,-444.516 716.6464,-449.6993 717.862,-442.8057"/>
</g>
<!-- Node10 -->
<g id="node11" class="node">
<title>Node10</title>
<polygon fill="none" stroke="#bfbfbf" points="982.9346,-297 982.9346,-316 1029.9346,-316 1029.9346,-297 982.9346,-297"/>
<text text-anchor="middle" x="1006.4346" y="-304" font-family="Helvetica,sans-Serif" font-size="10.00" fill="#000000">vector</text>
</g>
<!-- Node0&#45;&gt;Node10 -->
<g id="edge64" class="edge">
<title>Node0&#45;&gt;Node10</title>
<path fill="none" stroke="#191970" d="M1012.7902,-481.4751C1004.0985,-471.3927 994.9614,-458.5174 990.4346,-445 976.7274,-404.0698 989.8808,-352.9568 999.1243,-325.7088"/>
<polygon fill="#191970" stroke="#191970" points="1002.4534,-326.7935 1002.5266,-316.1989 995.8625,-324.4354 1002.4534,-326.7935"/>
</g>
<!-- Node30 -->
<g id="node31" class="node">
<title>Node30</title>
<polygon fill="none" stroke="#bfbfbf" points="1047.9346,-297 1047.9346,-316 1122.9346,-316 1122.9346,-297 1047.9346,-297"/>
<text text-anchor="middle" x="1085.4346" y="-304" font-family="Helvetica,sans-Serif" font-size="10.00" fill="#000000">FairLogger.h</text>
</g>
<!-- Node0&#45;&gt;Node30 -->
<g id="edge63" class="edge">
<title>Node0&#45;&gt;Node30</title>
<path fill="none" stroke="#191970" d="M1026.6199,-481.1786C1022.4928,-465.552 1018.8333,-443.7197 1023.4346,-425 1032.8424,-386.7256 1057.0341,-347.1072 1072.2674,-324.7558"/>
<polygon fill="#191970" stroke="#191970" points="1075.3243,-326.4913 1078.1782,-316.288 1069.5844,-322.4845 1075.3243,-326.4913"/>
</g>
<!-- Node39 -->
<g id="node40" class="node">
<title>Node39</title>
<polygon fill="none" stroke="#bfbfbf" points="890.4346,-364 890.4346,-383 928.4346,-383 928.4346,-364 890.4346,-364"/>
<text text-anchor="middle" x="909.4346" y="-371" font-family="Helvetica,sans-Serif" font-size="10.00" fill="#000000">map</text>
</g>
<!-- Node0&#45;&gt;Node39 -->
<g id="edge65" class="edge">
<title>Node0&#45;&gt;Node39</title>
<path fill="none" stroke="#191970" d="M997.429,-481.3029C982.3935,-471.5438 965.4382,-458.9719 952.4346,-445 937.7012,-429.1696 925.5278,-407.4855 917.9394,-392.1594"/>
<polygon fill="#191970" stroke="#191970" points="921.0978,-390.6511 913.634,-383.1316 914.7795,-393.6644 921.0978,-390.6511"/>
</g>
<!-- Node41 -->
<g id="node42" class="node">
<title>Node41</title>
<polygon fill="none" stroke="#bfbfbf" points="1032.4346,-425.5 1032.4346,-444.5 1092.4346,-444.5 1092.4346,-425.5 1032.4346,-425.5"/>
<text text-anchor="middle" x="1062.4346" y="-432.5" font-family="Helvetica,sans-Serif" font-size="10.00" fill="#000000">iostream</text>
</g>
<!-- Node0&#45;&gt;Node41 -->
<g id="edge66" class="edge">
<title>Node0&#45;&gt;Node41</title>
<path fill="none" stroke="#191970" d="M1042.4514,-481.168C1046.1867,-472.5381 1050.4914,-462.5928 1054.1467,-454.1479"/>
<polygon fill="#191970" stroke="#191970" points="1057.441,-455.348 1058.2012,-444.7805 1051.0169,-452.5674 1057.441,-455.348"/>
</g>
<!-- Node42 -->
<g id="node43" class="node">
<title>Node42</title>
<polygon fill="none" stroke="#bfbfbf" points="1110.4346,-425.5 1110.4346,-444.5 1158.4346,-444.5 1158.4346,-425.5 1110.4346,-425.5"/>
<text text-anchor="middle" x="1134.4346" y="-432.5" font-family="Helvetica,sans-Serif" font-size="10.00" fill="#000000">TFile.h</text>
</g>
<!-- Node0&#45;&gt;Node42 -->
<g id="edge67" class="edge">
<title>Node0&#45;&gt;Node42</title>
<path fill="none" stroke="#191970" d="M1064.562,-481.3511C1079.6818,-471.3212 1097.5324,-459.4797 1111.4063,-450.2762"/>
<polygon fill="#191970" stroke="#191970" points="1113.4822,-453.0992 1119.8806,-444.6546 1109.6126,-447.266 1113.4822,-453.0992"/>
</g>
<!-- Node43 -->
<g id="node44" class="node">
<title>Node43</title>
<polygon fill="none" stroke="#bfbfbf" points="1176.9346,-425.5 1176.9346,-444.5 1233.9346,-444.5 1233.9346,-425.5 1176.9346,-425.5"/>
<text text-anchor="middle" x="1205.4346" y="-432.5" font-family="Helvetica,sans-Serif" font-size="10.00" fill="#000000">TClass.h</text>
</g>
<!-- Node0&#45;&gt;Node43 -->
<g id="edge68" class="edge">
<title>Node0&#45;&gt;Node43</title>
<path fill="none" stroke="#191970" d="M1086.4437,-481.3511C1114.0314,-470.6047 1146.9577,-457.7788 1171.1732,-448.346"/>
<polygon fill="#191970" stroke="#191970" points="1172.6019,-451.5457 1180.6495,-444.6546 1170.0611,-445.0231 1172.6019,-451.5457"/>
</g>
<!-- Node44 -->
<g id="node45" class="node">
<title>Node44</title>
<polygon fill="none" stroke="#bfbfbf" points="1252.4346,-425.5 1252.4346,-444.5 1330.4346,-444.5 1330.4346,-425.5 1252.4346,-425.5"/>
<text text-anchor="middle" x="1291.4346" y="-432.5" font-family="Helvetica,sans-Serif" font-size="10.00" fill="#000000">TRandom3.h</text>
</g>
<!-- Node0&#45;&gt;Node44 -->
<g id="edge69" class="edge">
<title>Node0&#45;&gt;Node44</title>
<path fill="none" stroke="#191970" d="M1112.5964,-481.4425C1155.9231,-470.191 1208.1133,-456.6377 1244.8992,-447.0848"/>
<polygon fill="#191970" stroke="#191970" points="1246.0468,-450.4029 1254.846,-444.5017 1244.2873,-443.6276 1246.0468,-450.4029"/>
</g>
<!-- Node2 -->
<g id="node3" class="node">
<title>Node2</title>
<g id="a_node3"><a xlink:href="../../d9/d80/InteractionRecord_8h.html" target="_top" xlink:title="CommonDataFormat/Interaction\lRecord.h">
<polygon fill="none" stroke="#000000" points="192.4346,-291.5 192.4346,-321.5 366.4346,-321.5 366.4346,-291.5 192.4346,-291.5"/>
<text text-anchor="start" x="200.4346" y="-309.5" font-family="Helvetica,sans-Serif" font-size="10.00" fill="#000000">CommonDataFormat/Interaction</text>
<text text-anchor="middle" x="279.4346" y="-298.5" font-family="Helvetica,sans-Serif" font-size="10.00" fill="#000000">Record.h</text>
</a>
</g>
</g>
<!-- Node1&#45;&gt;Node2 -->
<g id="edge2" class="edge">
<title>Node1&#45;&gt;Node2</title>
<path fill="none" stroke="#191970" d="M575.1592,-425.4679C509.7349,-416.7497 422.0505,-403.0986 389.4346,-389 355.821,-374.4701 322.9937,-347.7301 302.0801,-328.6305"/>
<polygon fill="#191970" stroke="#191970" points="304.3731,-325.9832 294.6712,-321.7259 299.6007,-331.1041 304.3731,-325.9832"/>
</g>
<!-- Node9 -->
<g id="node10" class="node">
<title>Node9</title>
<g id="a_node10"><a xlink:href="../../d1/def/DigitizationContext_8h.html" target="_top" xlink:title="SimulationDataFormat\l/DigitizationContext.h">
<polygon fill="none" stroke="#000000" points="681.9346,-358.5 681.9346,-388.5 808.9346,-388.5 808.9346,-358.5 681.9346,-358.5"/>
<text text-anchor="start" x="689.9346" y="-376.5" font-family="Helvetica,sans-Serif" font-size="10.00" fill="#000000">SimulationDataFormat</text>
<text text-anchor="middle" x="745.4346" y="-365.5" font-family="Helvetica,sans-Serif" font-size="10.00" fill="#000000">/DigitizationContext.h</text>
</a>
</g>
</g>
<!-- Node1&#45;&gt;Node9 -->
<g id="edge9" class="edge">
<title>Node1&#45;&gt;Node9</title>
<path fill="none" stroke="#191970" d="M667.8096,-425.3906C680.2607,-417.0673 698.7032,-404.7389 714.4879,-394.1872"/>
<polygon fill="#191970" stroke="#191970" points="716.5604,-397.0118 722.9288,-388.5446 712.6702,-391.1923 716.5604,-397.0118"/>
</g>
<!-- Node1&#45;&gt;Node10 -->
<g id="edge59" class="edge">
<title>Node1&#45;&gt;Node10</title>
<path fill="none" stroke="#191970" d="M695.2036,-425.4619C728.7449,-417.286 776.7865,-404.4053 817.4346,-389 846.9888,-377.7992 852.588,-370.9146 881.4346,-358 912.2608,-344.1991 947.927,-329.6414 973.2521,-319.5381"/>
<polygon fill="#191970" stroke="#191970" points="974.7543,-322.7075 982.7552,-315.7624 972.1695,-316.2022 974.7543,-322.7075"/>
</g>
<!-- Node11 -->
<g id="node12" class="node">
<title>Node11</title>
<polygon fill="none" stroke="#bfbfbf" points="630.9346,-297 630.9346,-316 689.9346,-316 689.9346,-297 630.9346,-297"/>
<text text-anchor="middle" x="660.4346" y="-304" font-family="Helvetica,sans-Serif" font-size="10.00" fill="#000000">TChain.h</text>
</g>
<!-- Node1&#45;&gt;Node11 -->
<g id="edge62" class="edge">
<title>Node1&#45;&gt;Node11</title>
<path fill="none" stroke="#191970" d="M653.9607,-425.3416C655.1009,-404.4114 657.8196,-354.504 659.3464,-326.4762"/>
<polygon fill="#191970" stroke="#191970" points="662.8531,-326.4461 659.9023,-316.2705 655.8635,-326.0652 662.8531,-326.4461"/>
</g>
<!-- Node15 -->
<g id="node16" class="node">
<title>Node15</title>
<polygon fill="none" stroke="#bfbfbf" points="580.4346,-230 580.4346,-249 624.4346,-249 624.4346,-230 580.4346,-230"/>
<text text-anchor="middle" x="602.4346" y="-237" font-family="Helvetica,sans-Serif" font-size="10.00" fill="#000000">string</text>
</g>
<!-- Node1&#45;&gt;Node15 -->
<g id="edge58" class="edge">
<title>Node1&#45;&gt;Node15</title>
<path fill="none" stroke="#191970" d="M650.5329,-425.3698C644.7105,-405.9178 631.3159,-360.5121 621.4346,-322 615.9736,-300.7161 610.4112,-276.1555 606.7282,-259.4039"/>
<polygon fill="#191970" stroke="#191970" points="610.0516,-258.2162 604.503,-249.1905 603.212,-259.7064 610.0516,-258.2162"/>
</g>
<!-- Node31 -->
<g id="node32" class="node">
<title>Node31</title>
<g id="a_node32"><a xlink:href="../../df/dff/InteractionSampler_8h.html" target="_top" xlink:title="Steer/InteractionSampler.h">
<polygon fill="none" stroke="#000000" points="134.4346,-364 134.4346,-383 280.4346,-383 280.4346,-364 134.4346,-364"/>
<text text-anchor="middle" x="207.4346" y="-371" font-family="Helvetica,sans-Serif" font-size="10.00" fill="#000000">Steer/InteractionSampler.h</text>
</a>
</g>
</g>
<!-- Node1&#45;&gt;Node31 -->
<g id="edge44" class="edge">
<title>Node1&#45;&gt;Node31</title>
<path fill="none" stroke="#191970" d="M579.7876,-425.4705C510.2979,-416.3967 403.2274,-402.2034 310.4346,-389 300.3949,-387.5715 289.8113,-386.025 279.4037,-384.4809"/>
<polygon fill="#191970" stroke="#191970" points="279.9096,-381.0177 269.5028,-383.005 278.8775,-387.9412 279.9096,-381.0177"/>
</g>
<!-- Node34 -->
<g id="node35" class="node">
<title>Node34</title>
<g id="a_node35"><a xlink:href="../../d7/d61/NameConf_8h.html" target="_top" xlink:title="Definition of the Names Generator class. ">
<polygon fill="none" stroke="#000000" points="1123.9346,-358.5 1123.9346,-388.5 1294.9346,-388.5 1294.9346,-358.5 1123.9346,-358.5"/>
<text text-anchor="start" x="1131.9346" y="-376.5" font-family="Helvetica,sans-Serif" font-size="10.00" fill="#000000">DetectorsCommonDataFormats</text>
<text text-anchor="middle" x="1209.4346" y="-365.5" font-family="Helvetica,sans-Serif" font-size="10.00" fill="#000000">/NameConf.h</text>
</a>
</g>
</g>
<!-- Node1&#45;&gt;Node34 -->
<g id="edge52" class="edge">
<title>Node1&#45;&gt;Node34</title>
<path fill="none" stroke="#191970" d="M734.5793,-426.0245C835.169,-414.8981 1006.3794,-395.9602 1113.4078,-384.1217"/>
<polygon fill="#191970" stroke="#191970" points="1114.0059,-387.5769 1123.5605,-382.9987 1113.2363,-380.6194 1114.0059,-387.5769"/>
</g>
<!-- Node38 -->
<g id="node39" class="node">
<title>Node38</title>
<polygon fill="none" stroke="#bfbfbf" points="398.4346,-364 398.4346,-383 490.4346,-383 490.4346,-364 398.4346,-364"/>
<text text-anchor="middle" x="444.4346" y="-371" font-family="Helvetica,sans-Serif" font-size="10.00" fill="#000000">TGeoManager.h</text>
</g>
<!-- Node1&#45;&gt;Node38 -->
<g id="edge57" class="edge">
<title>Node1&#45;&gt;Node38</title>
<path fill="none" stroke="#191970" d="M620.7783,-425.3906C584.5818,-414.7395 526.096,-397.5296 486.4971,-385.8772"/>
<polygon fill="#191970" stroke="#191970" points="487.4428,-382.5072 476.8615,-383.0419 485.4668,-389.2225 487.4428,-382.5072"/>
</g>
<!-- Node1&#45;&gt;Node39 -->
<g id="edge60" class="edge">
<title>Node1&#45;&gt;Node39</title>
<path fill="none" stroke="#191970" d="M699.1811,-425.4773C740.4523,-416.6861 802.7402,-402.921 856.4346,-389 864.3066,-386.9591 872.7811,-384.5688 880.5943,-382.2848"/>
<polygon fill="#191970" stroke="#191970" points="881.7872,-385.5818 890.3786,-379.3818 879.796,-378.8709 881.7872,-385.5818"/>
</g>
<!-- Node40 -->
<g id="node41" class="node">
<title>Node40</title>
<polygon fill="none" stroke="#bfbfbf" points="508.9346,-364 508.9346,-383 573.9346,-383 573.9346,-364 508.9346,-364"/>
<text text-anchor="middle" x="541.4346" y="-371" font-family="Helvetica,sans-Serif" font-size="10.00" fill="#000000">functional</text>
</g>
<!-- Node1&#45;&gt;Node40 -->
<g id="edge61" class="edge">
<title>Node1&#45;&gt;Node40</title>
<path fill="none" stroke="#191970" d="M635.9346,-425.3906C617.6881,-415.3713 588.8722,-399.5483 567.854,-388.0071"/>
<polygon fill="#191970" stroke="#191970" points="569.2618,-384.7872 558.8117,-383.0419 565.8925,-390.923 569.2618,-384.7872"/>
</g>
<!-- Node3 -->
<g id="node4" class="node">
<title>Node3</title>
<g id="a_node4"><a xlink:href="../../d2/d45/GPUCommonRtypes_8h.html" target="_top" xlink:title="GPUCommonRtypes.h">
<polygon fill="none" stroke="#000000" points="47.9346,-230 47.9346,-249 172.9346,-249 172.9346,-230 47.9346,-230"/>
<text text-anchor="middle" x="110.4346" y="-237" font-family="Helvetica,sans-Serif" font-size="10.00" fill="#000000">GPUCommonRtypes.h</text>
</a>
</g>
</g>
<!-- Node2&#45;&gt;Node3 -->
<g id="edge3" class="edge">
<title>Node2&#45;&gt;Node3</title>
<path fill="none" stroke="#191970" d="M241.5077,-291.4639C212.2575,-279.8677 172.1799,-263.9789 144.0669,-252.8335"/>
<polygon fill="#191970" stroke="#191970" points="145.2454,-249.5358 134.6594,-249.1039 142.6656,-256.0431 145.2454,-249.5358"/>
</g>
<!-- Node5 -->
<g id="node6" class="node">
<title>Node5</title>
<polygon fill="none" stroke="#bfbfbf" points="190.9346,-230 190.9346,-249 239.9346,-249 239.9346,-230 190.9346,-230"/>
<text text-anchor="middle" x="215.4346" y="-237" font-family="Helvetica,sans-Serif" font-size="10.00" fill="#000000">iosfwd</text>
</g>
<!-- Node2&#45;&gt;Node5 -->
<g id="edge5" class="edge">
<title>Node2&#45;&gt;Node5</title>
<path fill="none" stroke="#191970" d="M264.912,-291.2967C255.0373,-280.9591 241.9596,-267.2684 231.7295,-256.5588"/>
<polygon fill="#191970" stroke="#191970" points="234,-253.8685 224.5617,-249.055 228.9382,-258.7037 234,-253.8685"/>
</g>
<!-- Node6 -->
<g id="node7" class="node">
<title>Node6</title>
<polygon fill="none" stroke="#bfbfbf" points="850.9346,-56.5 850.9346,-75.5 897.9346,-75.5 897.9346,-56.5 850.9346,-56.5"/>
<text text-anchor="middle" x="874.4346" y="-63.5" font-family="Helvetica,sans-Serif" font-size="10.00" fill="#000000">cmath</text>
</g>
<!-- Node2&#45;&gt;Node6 -->
<g id="edge6" class="edge">
<title>Node2&#45;&gt;Node6</title>
<path fill="none" stroke="#191970" d="M278.1786,-291.2041C277.544,-273.0419 279.3082,-242.8444 295.4346,-224 368.3659,-138.7763 728.1705,-85.1452 840.721,-70.2478"/>
<polygon fill="#191970" stroke="#191970" points="841.3612,-73.694 850.8232,-68.9273 840.4539,-66.753 841.3612,-73.694"/>
</g>
<!-- Node7 -->
<g id="node8" class="node">
<title>Node7</title>
<polygon fill="none" stroke="#bfbfbf" points="746.4346,-168.5 746.4346,-187.5 796.4346,-187.5 796.4346,-168.5 746.4346,-168.5"/>
<text text-anchor="middle" x="771.4346" y="-175.5" font-family="Helvetica,sans-Serif" font-size="10.00" fill="#000000">cstdint</text>
</g>
<!-- Node2&#45;&gt;Node7 -->
<g id="edge7" class="edge">
<title>Node2&#45;&gt;Node7</title>
<path fill="none" stroke="#191970" d="M283.2353,-291.3603C288.9182,-272.1683 301.6055,-239.6962 325.4346,-224 359.4997,-201.5614 636.7918,-185.0284 736.165,-179.7735"/>
<polygon fill="#191970" stroke="#191970" points="736.4949,-183.2611 746.2987,-179.2442 736.1297,-176.2707 736.4949,-183.2611"/>
</g>
<!-- Node8 -->
<g id="node9" class="node">
<title>Node8</title>
<g id="a_node9"><a xlink:href="../../d4/dc6/LHCConstants_8h.html" target="_top" xlink:title="Header to collect LHC related constants. ">
<polygon fill="none" stroke="#000000" points="334.4346,-230 334.4346,-249 524.4346,-249 524.4346,-230 334.4346,-230"/>
<text text-anchor="middle" x="429.4346" y="-237" font-family="Helvetica,sans-Serif" font-size="10.00" fill="#000000">CommonConstants/LHCConstants.h</text>
</a>
</g>
</g>
<!-- Node2&#45;&gt;Node8 -->
<g id="edge8" class="edge">
<title>Node2&#45;&gt;Node8</title>
<path fill="none" stroke="#191970" d="M313.0975,-291.4639C338.7191,-280.0196 373.7007,-264.3945 398.5973,-253.274"/>
<polygon fill="#191970" stroke="#191970" points="400.2301,-256.378 407.9333,-249.1039 397.3752,-249.9866 400.2301,-256.378"/>
</g>
<!-- Node4 -->
<g id="node5" class="node">
<title>Node4</title>
<polygon fill="none" stroke="#bfbfbf" points="459.9346,-168.5 459.9346,-187.5 518.9346,-187.5 518.9346,-168.5 459.9346,-168.5"/>
<text text-anchor="middle" x="489.4346" y="-175.5" font-family="Helvetica,sans-Serif" font-size="10.00" fill="#000000">Rtypes.h</text>
</g>
<!-- Node3&#45;&gt;Node4 -->
<g id="edge4" class="edge">
<title>Node3&#45;&gt;Node4</title>
<path fill="none" stroke="#191970" d="M152.0139,-229.9366C161.649,-227.8558 171.8795,-225.7545 181.4346,-224 277.2485,-206.4067 390.7661,-190.7913 449.6019,-183.085"/>
<polygon fill="#191970" stroke="#191970" points="450.1284,-186.5461 459.5926,-181.7838 449.2242,-179.6047 450.1284,-186.5461"/>
</g>
<!-- Node9&#45;&gt;Node2 -->
<g id="edge13" class="edge">
<title>Node9&#45;&gt;Node2</title>
<path fill="none" stroke="#191970" d="M681.8667,-365.0802C610.1971,-355.4908 489.9134,-339.1075 376.4452,-322.1346"/>
<polygon fill="#191970" stroke="#191970" points="376.9512,-318.6714 366.5426,-320.6492 375.9127,-325.5939 376.9512,-318.6714"/>
</g>
<!-- Node9&#45;&gt;Node10 -->
<g id="edge10" class="edge">
<title>Node9&#45;&gt;Node10</title>
<path fill="none" stroke="#191970" d="M809.1225,-361.6221C854.1284,-352.5444 915.599,-338.7575 968.4346,-322 970.5866,-321.3174 972.7881,-320.5664 974.9939,-319.7742"/>
<polygon fill="#191970" stroke="#191970" points="976.4587,-322.9614 984.5512,-316.1232 973.9606,-316.4223 976.4587,-322.9614"/>
</g>
<!-- Node9&#45;&gt;Node11 -->
<g id="edge11" class="edge">
<title>Node9&#45;&gt;Node11</title>
<path fill="none" stroke="#191970" d="M726.1468,-358.2967C712.5176,-347.5537 694.2944,-333.1895 680.4957,-322.3129"/>
<polygon fill="#191970" stroke="#191970" points="682.5768,-319.4967 672.5565,-316.055 678.2435,-324.9942 682.5768,-319.4967"/>
</g>
<!-- Node12 -->
<g id="node13" class="node">
<title>Node12</title>
<polygon fill="none" stroke="#bfbfbf" points="707.9346,-297 707.9346,-316 772.9346,-316 772.9346,-297 707.9346,-297"/>
<text text-anchor="middle" x="740.4346" y="-304" font-family="Helvetica,sans-Serif" font-size="10.00" fill="#000000">TBranch.h</text>
</g>
<!-- Node9&#45;&gt;Node12 -->
<g id="edge12" class="edge">
<title>Node9&#45;&gt;Node12</title>
<path fill="none" stroke="#191970" d="M744.3,-358.2967C743.589,-348.7699 742.6656,-336.3954 741.8995,-326.1306"/>
<polygon fill="#191970" stroke="#191970" points="745.3822,-325.7667 741.1476,-316.055 738.4016,-326.2877 745.3822,-325.7667"/>
</g>
<!-- Node13 -->
<g id="node14" class="node">
<title>Node13</title>
<g id="a_node14"><a xlink:href="../../d4/d5f/BunchFilling_8h.html" target="_top" xlink:title="CommonDataFormat/BunchFilling.h">
<polygon fill="none" stroke="#000000" points="384.9346,-297 384.9346,-316 573.9346,-316 573.9346,-297 384.9346,-297"/>
<text text-anchor="middle" x="479.4346" y="-304" font-family="Helvetica,sans-Serif" font-size="10.00" fill="#000000">CommonDataFormat/BunchFilling.h</text>
</a>
</g>
</g>
<!-- Node9&#45;&gt;Node13 -->
<g id="edge14" class="edge">
<title>Node9&#45;&gt;Node13</title>
<path fill="none" stroke="#191970" d="M685.739,-358.4639C637.8493,-346.4015 571.5197,-329.6944 527.1274,-318.5128"/>
<polygon fill="#191970" stroke="#191970" points="527.724,-315.0539 517.172,-316.0053 526.0142,-321.8419 527.724,-315.0539"/>
</g>
<!-- Node16 -->
<g id="node17" class="node">
<title>Node16</title>
<g id="a_node17"><a xlink:href="../../d6/d31/DetID_8h.html" target="_top" xlink:title="DetectorsCommonDataFormats\l/DetID.h">
<polygon fill="none" stroke="#000000" points="924.9346,-224.5 924.9346,-254.5 1095.9346,-254.5 1095.9346,-224.5 924.9346,-224.5"/>
<text text-anchor="start" x="932.9346" y="-242.5" font-family="Helvetica,sans-Serif" font-size="10.00" fill="#000000">DetectorsCommonDataFormats</text>
<text text-anchor="middle" x="1010.4346" y="-231.5" font-family="Helvetica,sans-Serif" font-size="10.00" fill="#000000">/DetID.h</text>
</a>
</g>
</g>
<!-- Node9&#45;&gt;Node16 -->
<g id="edge18" class="edge">
<title>Node9&#45;&gt;Node16</title>
<path fill="none" stroke="#191970" d="M809.336,-360.0734C855.5296,-349.6288 913.3656,-334.8078 934.4346,-322 959.1433,-306.9796 980.757,-281.6288 994.5534,-262.9843"/>
<polygon fill="#191970" stroke="#191970" points="997.5132,-264.8631 1000.5014,-254.6983 991.8266,-260.781 997.5132,-264.8631"/>
</g>
<!-- Node27 -->
<g id="node28" class="node">
<title>Node27</title>
<g id="a_node28"><a xlink:href="../../de/d28/GRPObject_8h.html" target="_top" xlink:title="Header of the General Run Parameters object. ">
<polygon fill="none" stroke="#000000" points="790.9346,-291.5 790.9346,-321.5 925.9346,-321.5 925.9346,-291.5 790.9346,-291.5"/>
<text text-anchor="start" x="798.9346" y="-309.5" font-family="Helvetica,sans-Serif" font-size="10.00" fill="#000000">DataFormatsParameters</text>
<text text-anchor="middle" x="858.4346" y="-298.5" font-family="Helvetica,sans-Serif" font-size="10.00" fill="#000000">/GRPObject.h</text>
</a>
</g>
</g>
<!-- Node9&#45;&gt;Node27 -->
<g id="edge36" class="edge">
<title>Node9&#45;&gt;Node27</title>
<path fill="none" stroke="#191970" d="M770.794,-358.4639C786.5309,-349.1332 806.9551,-337.0232 824.1273,-326.8415"/>
<polygon fill="#191970" stroke="#191970" points="825.9522,-329.8285 832.7688,-321.7177 822.3821,-323.8073 825.9522,-329.8285"/>
</g>
<!-- Node9&#45;&gt;Node30 -->
<g id="edge43" class="edge">
<title>Node9&#45;&gt;Node30</title>
<path fill="none" stroke="#191970" d="M809.1489,-365.0147C868.8799,-356.422 960.4202,-341.6109 1038.4346,-322 1041.8718,-321.136 1045.4217,-320.1479 1048.9586,-319.0983"/>
<polygon fill="#191970" stroke="#191970" points="1050.2858,-322.3506 1058.7879,-316.0289 1048.1992,-315.6688 1050.2858,-322.3506"/>
</g>
<!-- Node13&#45;&gt;Node8 -->
<g id="edge15" class="edge">
<title>Node13&#45;&gt;Node8</title>
<path fill="none" stroke="#191970" d="M472.2708,-296.9005C464.548,-286.552 452.0869,-269.8542 442.5909,-257.1295"/>
<polygon fill="#191970" stroke="#191970" points="445.371,-255.0027 436.5851,-249.0817 439.7609,-259.1893 445.371,-255.0027"/>
</g>
<!-- Node14 -->
<g id="node15" class="node">
<title>Node14</title>
<polygon fill="none" stroke="#bfbfbf" points="814.4346,-168.5 814.4346,-187.5 858.4346,-187.5 858.4346,-168.5 814.4346,-168.5"/>
<text text-anchor="middle" x="836.4346" y="-175.5" font-family="Helvetica,sans-Serif" font-size="10.00" fill="#000000">bitset</text>
</g>
<!-- Node13&#45;&gt;Node14 -->
<g id="edge16" class="edge">
<title>Node13&#45;&gt;Node14</title>
<path fill="none" stroke="#191970" d="M489.6515,-296.7301C511.5459,-275.884 561.7863,-228.5638 571.4346,-224 663.674,-180.3691 700.7757,-210.2891 804.3091,-187.8941"/>
<polygon fill="#191970" stroke="#191970" points="805.2309,-191.2739 814.2035,-185.6399 803.6759,-184.4488 805.2309,-191.2739"/>
</g>
<!-- Node13&#45;&gt;Node15 -->
<g id="edge17" class="edge">
<title>Node13&#45;&gt;Node15</title>
<path fill="none" stroke="#191970" d="M497.0575,-296.9005C517.6996,-285.6564 552.1026,-266.9166 575.9586,-253.9219"/>
<polygon fill="#191970" stroke="#191970" points="577.7369,-256.9388 584.8444,-249.0817 574.3884,-250.7916 577.7369,-256.9388"/>
</g>
<!-- Node16&#45;&gt;Node4 -->
<g id="edge19" class="edge">
<title>Node16&#45;&gt;Node4</title>
<path fill="none" stroke="#191970" d="M924.6939,-229.379C810.5676,-215.9073 613.3855,-192.6314 529.2946,-182.7052"/>
<polygon fill="#191970" stroke="#191970" points="529.4822,-179.2031 519.1409,-181.5066 528.6616,-186.1548 529.4822,-179.2031"/>
</g>
<!-- Node16&#45;&gt;Node7 -->
<g id="edge23" class="edge">
<title>Node16&#45;&gt;Node7</title>
<path fill="none" stroke="#191970" d="M947.9148,-224.4803C909.6073,-215.1182 859.3556,-202.555 806.5426,-188.2334"/>
<polygon fill="#191970" stroke="#191970" points="807.2221,-184.791 796.6537,-185.5391 805.382,-191.5448 807.2221,-184.791"/>
</g>
<!-- Node16&#45;&gt;Node14 -->
<g id="edge21" class="edge">
<title>Node16&#45;&gt;Node14</title>
<path fill="none" stroke="#191970" d="M967.8694,-224.4554C937.2241,-213.6239 896.5241,-199.2385 868.5786,-189.3612"/>
<polygon fill="#191970" stroke="#191970" points="869.4969,-185.9737 858.9022,-185.9411 867.1642,-192.5736 869.4969,-185.9737"/>
</g>
<!-- Node17 -->
<g id="node18" class="node">
<title>Node17</title>
<polygon fill="none" stroke="#bfbfbf" points="807.4346,-112.5 807.4346,-131.5 849.4346,-131.5 849.4346,-112.5 807.4346,-112.5"/>
<text text-anchor="middle" x="828.4346" y="-119.5" font-family="Helvetica,sans-Serif" font-size="10.00" fill="#000000">array</text>
</g>
<!-- Node16&#45;&gt;Node17 -->
<g id="edge20" class="edge">
<title>Node16&#45;&gt;Node17</title>
<path fill="none" stroke="#191970" d="M974.2138,-224.4696C953.3903,-215.1677 927.1403,-202.2927 905.4346,-188 883.3494,-173.4574 860.6757,-153.2622 845.7053,-139.0522"/>
<polygon fill="#191970" stroke="#191970" points="847.8615,-136.2692 838.2335,-131.8473 843.0026,-141.3082 847.8615,-136.2692"/>
</g>
<!-- Node18 -->
<g id="node19" class="node">
<title>Node18</title>
<polygon fill="none" stroke="#bfbfbf" points="1030.4346,-168.5 1030.4346,-187.5 1082.4346,-187.5 1082.4346,-168.5 1030.4346,-168.5"/>
<text text-anchor="middle" x="1056.4346" y="-175.5" font-family="Helvetica,sans-Serif" font-size="10.00" fill="#000000">cassert</text>
</g>
<!-- Node16&#45;&gt;Node18 -->
<g id="edge22" class="edge">
<title>Node16&#45;&gt;Node18</title>
<path fill="none" stroke="#191970" d="M1021.8054,-224.2977C1028.1906,-215.7609 1036.1987,-205.0545 1042.9051,-196.0883"/>
<polygon fill="#191970" stroke="#191970" points="1045.8825,-197.9511 1049.0694,-187.8469 1040.277,-193.7584 1045.8825,-197.9511"/>
</g>
<!-- Node19 -->
<g id="node20" class="node">
<title>Node19</title>
<polygon fill="none" stroke="#bfbfbf" points="1100.9346,-168.5 1100.9346,-187.5 1169.9346,-187.5 1169.9346,-168.5 1100.9346,-168.5"/>
<text text-anchor="middle" x="1135.4346" y="-175.5" font-family="Helvetica,sans-Serif" font-size="10.00" fill="#000000">type_traits</text>
</g>
<!-- Node16&#45;&gt;Node19 -->
<g id="edge24" class="edge">
<title>Node16&#45;&gt;Node19</title>
<path fill="none" stroke="#191970" d="M1041.013,-224.4554C1061.1378,-214.554 1087.2985,-201.683 1106.9784,-192.0004"/>
<polygon fill="#191970" stroke="#191970" points="1108.6363,-195.0855 1116.064,-187.5303 1105.5461,-188.8045 1108.6363,-195.0855"/>
</g>
<!-- Node20 -->
<g id="node21" class="node">
<title>Node20</title>
<g id="a_node21"><a xlink:href="../../d9/d52/Common_2MathUtils_2include_2MathUtils_2Utils_8h.html" target="_top" xlink:title="MathUtils/Utils.h">
<polygon fill="none" stroke="#000000" points="914.4346,-168.5 914.4346,-187.5 1012.4346,-187.5 1012.4346,-168.5 914.4346,-168.5"/>
<text text-anchor="middle" x="963.4346" y="-175.5" font-family="Helvetica,sans-Serif" font-size="10.00" fill="#000000">MathUtils/Utils.h</text>
</a>
</g>
</g>
<!-- Node16&#45;&gt;Node20 -->
<g id="edge25" class="edge">
<title>Node16&#45;&gt;Node20</title>
<path fill="none" stroke="#191970" d="M998.8166,-224.2977C992.2245,-215.672 983.9397,-204.8312 977.0444,-195.8087"/>
<polygon fill="#191970" stroke="#191970" points="979.8129,-193.6671 970.9599,-187.8469 974.2511,-197.9176 979.8129,-193.6671"/>
</g>
<!-- Node20&#45;&gt;Node6 -->
<g id="edge27" class="edge">
<title>Node20&#45;&gt;Node6</title>
<path fill="none" stroke="#191970" d="M942.8908,-168.4456C928.0554,-160.5822 908.572,-148.1178 896.4346,-132 886.2297,-118.4485 880.6003,-99.9002 877.5975,-85.9172"/>
<polygon fill="#191970" stroke="#191970" points="880.996,-85.0495 875.7152,-75.8645 874.1155,-86.3378 880.996,-85.0495"/>
</g>
<!-- Node20&#45;&gt;Node17 -->
<g id="edge26" class="edge">
<title>Node20&#45;&gt;Node17</title>
<path fill="none" stroke="#191970" d="M940.2272,-168.3733C917.7323,-159.042 883.4869,-144.8365 858.8277,-134.6075"/>
<polygon fill="#191970" stroke="#191970" points="860.1422,-131.3636 849.5643,-130.7649 857.46,-137.8294 860.1422,-131.3636"/>
</g>
<!-- Node21 -->
<g id="node22" class="node">
<title>Node21</title>
<g id="a_node22"><a xlink:href="../../df/d21/GPUCommonDef_8h.html" target="_top" xlink:title="GPUCommonDef.h">
<polygon fill="none" stroke="#000000" points="998.9346,-56.5 998.9346,-75.5 1105.9346,-75.5 1105.9346,-56.5 998.9346,-56.5"/>
<text text-anchor="middle" x="1052.4346" y="-63.5" font-family="Helvetica,sans-Serif" font-size="10.00" fill="#000000">GPUCommonDef.h</text>
</a>
</g>
</g>
<!-- Node20&#45;&gt;Node21 -->
<g id="edge28" class="edge">
<title>Node20&#45;&gt;Node21</title>
<path fill="none" stroke="#191970" d="M983.3019,-168.4928C997.9196,-160.578 1017.2835,-148.0266 1029.4346,-132 1039.7312,-118.4193 1045.6527,-99.8738 1048.9005,-85.8993"/>
<polygon fill="#191970" stroke="#191970" points="1052.3801,-86.354 1050.9644,-75.8542 1045.5233,-84.9451 1052.3801,-86.354"/>
</g>
<!-- Node24 -->
<g id="node25" class="node">
<title>Node24</title>
<g id="a_node25"><a xlink:href="../../d6/da2/GPUCommonMath_8h.html" target="_top" xlink:title="GPUCommonMath.h">
<polygon fill="none" stroke="#000000" points="905.9346,-112.5 905.9346,-131.5 1020.9346,-131.5 1020.9346,-112.5 905.9346,-112.5"/>
<text text-anchor="middle" x="963.4346" y="-119.5" font-family="Helvetica,sans-Serif" font-size="10.00" fill="#000000">GPUCommonMath.h</text>
</a>
</g>
</g>
<!-- Node20&#45;&gt;Node24 -->
<g id="edge31" class="edge">
<title>Node20&#45;&gt;Node24</title>
<path fill="none" stroke="#191970" d="M963.4346,-168.2455C963.4346,-160.9382 963.4346,-150.6944 963.4346,-141.7046"/>
<polygon fill="#191970" stroke="#191970" points="966.9347,-141.6426 963.4346,-131.6427 959.9347,-141.6427 966.9347,-141.6426"/>
</g>
<!-- Node26 -->
<g id="node27" class="node">
<title>Node26</title>
<g id="a_node27"><a xlink:href="../../d6/d84/MathConstants_8h.html" target="_top" xlink:title="useful math constants ">
<polygon fill="none" stroke="#000000" points="1077.4346,-112.5 1077.4346,-131.5 1271.4346,-131.5 1271.4346,-112.5 1077.4346,-112.5"/>
<text text-anchor="middle" x="1174.4346" y="-119.5" font-family="Helvetica,sans-Serif" font-size="10.00" fill="#000000">CommonConstants/MathConstants.h</text>
</a>
</g>
</g>
<!-- Node20&#45;&gt;Node26 -->
<g id="edge35" class="edge">
<title>Node20&#45;&gt;Node26</title>
<path fill="none" stroke="#191970" d="M999.7068,-168.3733C1035.4004,-158.9001 1090.0225,-144.4032 1128.6796,-134.1435"/>
<polygon fill="#191970" stroke="#191970" points="1129.8682,-137.4493 1138.6357,-131.5011 1128.0725,-130.6835 1129.8682,-137.4493"/>
</g>
<!-- Node22 -->
<g id="node23" class="node">
<title>Node22</title>
<g id="a_node23"><a xlink:href="../../d5/d93/GPUCommonDefSettings_8h.html" target="_top" xlink:title="GPUCommonDefSettings.h">
<polygon fill="none" stroke="#000000" points="901.4346,-.5 901.4346,-19.5 1049.4346,-19.5 1049.4346,-.5 901.4346,-.5"/>
<text text-anchor="middle" x="975.4346" y="-7.5" font-family="Helvetica,sans-Serif" font-size="10.00" fill="#000000">GPUCommonDefSettings.h</text>
</a>
</g>
</g>
<!-- Node21&#45;&gt;Node22 -->
<g id="edge29" class="edge">
<title>Node21&#45;&gt;Node22</title>
<path fill="none" stroke="#191970" d="M1039.0222,-56.2455C1027.4289,-47.814 1010.4598,-35.4729 996.9667,-25.6598"/>
<polygon fill="#191970" stroke="#191970" points="998.8392,-22.6938 988.6932,-19.6427 994.722,-28.355 998.8392,-22.6938"/>
</g>
<!-- Node23 -->
<g id="node24" class="node">
<title>Node23</title>
<g id="a_node24"><a xlink:href="../../da/d5a/GPUCommonDefAPI_8h.html" target="_top" xlink:title="GPUCommonDefAPI.h">
<polygon fill="none" stroke="#000000" points="1067.4346,-.5 1067.4346,-19.5 1191.4346,-19.5 1191.4346,-.5 1067.4346,-.5"/>
<text text-anchor="middle" x="1129.4346" y="-7.5" font-family="Helvetica,sans-Serif" font-size="10.00" fill="#000000">GPUCommonDefAPI.h</text>
</a>
</g>
</g>
<!-- Node21&#45;&gt;Node23 -->
<g id="edge30" class="edge">
<title>Node21&#45;&gt;Node23</title>
<path fill="none" stroke="#191970" d="M1065.8469,-56.2455C1077.4403,-47.814 1094.4093,-35.4729 1107.9024,-25.6598"/>
<polygon fill="#191970" stroke="#191970" points="1110.1471,-28.355 1116.1759,-19.6427 1106.0299,-22.6938 1110.1471,-28.355"/>
</g>
<!-- Node24&#45;&gt;Node6 -->
<g id="edge33" class="edge">
<title>Node24&#45;&gt;Node6</title>
<path fill="none" stroke="#191970" d="M947.932,-112.2455C934.2766,-103.6534 914.1689,-91.0014 898.4357,-81.1018"/>
<polygon fill="#191970" stroke="#191970" points="900.0874,-78.006 889.7595,-75.6427 896.3595,-83.9307 900.0874,-78.006"/>
</g>
<!-- Node24&#45;&gt;Node21 -->
<g id="edge32" class="edge">
<title>Node24&#45;&gt;Node21</title>
<path fill="none" stroke="#191970" d="M978.9372,-112.2455C992.5925,-103.6534 1012.7003,-91.0014 1028.4335,-81.1018"/>
<polygon fill="#191970" stroke="#191970" points="1030.5097,-83.9307 1037.1096,-75.6427 1026.7817,-78.006 1030.5097,-83.9307"/>
</g>
<!-- Node25 -->
<g id="node26" class="node">
<title>Node25</title>
<polygon fill="none" stroke="#bfbfbf" points="916.4346,-56.5 916.4346,-75.5 980.4346,-75.5 980.4346,-56.5 916.4346,-56.5"/>
<text text-anchor="middle" x="948.4346" y="-63.5" font-family="Helvetica,sans-Serif" font-size="10.00" fill="#000000">algorithm</text>
</g>
<!-- Node24&#45;&gt;Node25 -->
<g id="edge34" class="edge">
<title>Node24&#45;&gt;Node25</title>
<path fill="none" stroke="#191970" d="M960.8218,-112.2455C958.8429,-104.8579 956.0602,-94.4689 953.6333,-85.4087"/>
<polygon fill="#191970" stroke="#191970" points="956.9857,-84.3966 951.0174,-75.6427 950.224,-86.2078 956.9857,-84.3966"/>
</g>
<!-- Node27&#45;&gt;Node4 -->
<g id="edge37" class="edge">
<title>Node27&#45;&gt;Node4</title>
<path fill="none" stroke="#191970" d="M792.8521,-291.4819C747.8918,-280.6125 692.6796,-265.9665 671.4346,-255 652.0668,-245.0025 652.5962,-234.3872 633.4346,-224 600.3087,-206.0429 559.0465,-193.7592 529.1932,-186.4333"/>
<polygon fill="#191970" stroke="#191970" points="529.6796,-182.9516 519.1416,-184.0476 528.0631,-189.7624 529.6796,-182.9516"/>
</g>
<!-- Node27&#45;&gt;Node7 -->
<g id="edge38" class="edge">
<title>Node27&#45;&gt;Node7</title>
<path fill="none" stroke="#191970" d="M868.4284,-291.275C878.5649,-273.7233 890.9806,-244.6451 877.4346,-224 869.1523,-211.3772 833.9663,-197.696 806.3759,-188.5645"/>
<polygon fill="#191970" stroke="#191970" points="807.2102,-185.1561 796.6185,-185.4165 805.0608,-191.8179 807.2102,-185.1561"/>
</g>
<!-- Node27&#45;&gt;Node8 -->
<g id="edge40" class="edge">
<title>Node27&#45;&gt;Node8</title>
<path fill="none" stroke="#191970" d="M790.8668,-292.6866C787.681,-292.102 784.5246,-291.5367 781.4346,-291 689.7971,-275.0848 584.1641,-260.0727 512.7123,-250.4086"/>
<polygon fill="#191970" stroke="#191970" points="512.8019,-246.8891 502.424,-249.022 511.867,-253.8264 512.8019,-246.8891"/>
</g>
<!-- Node27&#45;&gt;Node16 -->
<g id="edge42" class="edge">
<title>Node27&#45;&gt;Node16</title>
<path fill="none" stroke="#191970" d="M892.5463,-291.4639C914.4712,-281.7996 943.1599,-269.154 966.7465,-258.7572"/>
<polygon fill="#191970" stroke="#191970" points="968.4353,-261.8379 976.174,-254.6017 965.6118,-255.4325 968.4353,-261.8379"/>
</g>
<!-- Node28 -->
<g id="node29" class="node">
<title>Node28</title>
<polygon fill="none" stroke="#bfbfbf" points="824.4346,-230 824.4346,-249 868.4346,-249 868.4346,-230 824.4346,-230"/>
<text text-anchor="middle" x="846.4346" y="-237" font-family="Helvetica,sans-Serif" font-size="10.00" fill="#000000">ctime</text>
</g>
<!-- Node27&#45;&gt;Node28 -->
<g id="edge39" class="edge">
<title>Node27&#45;&gt;Node28</title>
<path fill="none" stroke="#191970" d="M855.7116,-291.2967C854.0053,-281.7699 851.789,-269.3954 849.9505,-259.1306"/>
<polygon fill="#191970" stroke="#191970" points="853.3542,-258.2813 848.1459,-249.055 846.4638,-259.5154 853.3542,-258.2813"/>
</g>
<!-- Node29 -->
<g id="node30" class="node">
<title>Node29</title>
<g id="a_node30"><a xlink:href="../../da/d58/Units_8h.html" target="_top" xlink:title="Header to collect definitions for different units. ">
<polygon fill="none" stroke="#000000" points="680.4346,-230 680.4346,-249 806.4346,-249 806.4346,-230 680.4346,-230"/>
<text text-anchor="middle" x="743.4346" y="-237" font-family="Helvetica,sans-Serif" font-size="10.00" fill="#000000">CommonTypes/Units.h</text>
</a>
</g>
</g>
<!-- Node27&#45;&gt;Node29 -->
<g id="edge41" class="edge">
<title>Node27&#45;&gt;Node29</title>
<path fill="none" stroke="#191970" d="M832.6263,-291.4639C813.5046,-280.3234 787.5829,-265.2212 768.6128,-254.1691"/>
<polygon fill="#191970" stroke="#191970" points="770.3214,-251.1138 759.9189,-249.1039 766.7975,-257.1622 770.3214,-251.1138"/>
</g>
<!-- Node31&#45;&gt;Node2 -->
<g id="edge49" class="edge">
<title>Node31&#45;&gt;Node2</title>
<path fill="none" stroke="#191970" d="M217.7504,-363.9005C227.6039,-354.7313 242.8138,-340.5776 255.6644,-328.6195"/>
<polygon fill="#191970" stroke="#191970" points="258.3554,-330.8964 263.2918,-321.5218 253.5867,-325.7719 258.3554,-330.8964"/>
</g>
<!-- Node31&#45;&gt;Node4 -->
<g id="edge45" class="edge">
<title>Node31&#45;&gt;Node4</title>
<path fill="none" stroke="#191970" d="M134.2811,-364.2341C83.5191,-356.1282 22.2812,-342.4188 6.4346,-322 -16.7175,-292.1681 31.5866,-228.8212 38.4346,-224 71.7214,-200.5648 345.7788,-184.9641 449.6924,-179.8414"/>
<polygon fill="#191970" stroke="#191970" points="449.9618,-183.3326 459.78,-179.3508 449.6217,-176.3408 449.9618,-183.3326"/>
</g>
<!-- Node31&#45;&gt;Node8 -->
<g id="edge51" class="edge">
<title>Node31&#45;&gt;Node8</title>
<path fill="none" stroke="#191970" d="M134.2409,-365.7665C66.4023,-355.7688 -18.7074,-334.2326 19.4346,-291 29.4939,-279.598 206.0906,-260.7074 324.2042,-249.2501"/>
<polygon fill="#191970" stroke="#191970" points="324.7599,-252.7128 334.3771,-248.2676 324.087,-245.7452 324.7599,-252.7128"/>
</g>
<!-- Node31&#45;&gt;Node10 -->
<g id="edge48" class="edge">
<title>Node31&#45;&gt;Node10</title>
<path fill="none" stroke="#191970" d="M280.4697,-366.961C313.7033,-364.0676 353.5443,-360.7134 389.4346,-358 631.4939,-339.6996 694.0258,-355.6338 934.4346,-322 947.0689,-320.2324 960.7917,-317.4882 972.8353,-314.7972"/>
<polygon fill="#191970" stroke="#191970" points="973.9597,-318.1298 982.9173,-312.4718 972.3864,-311.3089 973.9597,-318.1298"/>
</g>
<!-- Node31&#45;&gt;Node13 -->
<g id="edge50" class="edge">
<title>Node31&#45;&gt;Node13</title>
<path fill="none" stroke="#191970" d="M246.1167,-363.9717C294.6182,-352.0246 377.7973,-331.5357 430.6267,-318.5225"/>
<polygon fill="#191970" stroke="#191970" points="431.5729,-321.8942 440.4455,-316.1039 429.8986,-315.0973 431.5729,-321.8942"/>
</g>
<!-- Node32 -->
<g id="node33" class="node">
<title>Node32</title>
<polygon fill="none" stroke="#bfbfbf" points="118.4346,-297 118.4346,-316 174.4346,-316 174.4346,-297 118.4346,-297"/>
<text text-anchor="middle" x="146.4346" y="-304" font-family="Helvetica,sans-Serif" font-size="10.00" fill="#000000">TMath.h</text>
</g>
<!-- Node31&#45;&gt;Node32 -->
<g id="edge46" class="edge">
<title>Node31&#45;&gt;Node32</title>
<path fill="none" stroke="#191970" d="M198.6948,-363.9005C189.1823,-353.4525 173.7776,-336.5325 162.1521,-323.7635"/>
<polygon fill="#191970" stroke="#191970" points="164.4785,-321.1198 155.1582,-316.0817 159.3024,-325.8324 164.4785,-321.1198"/>
</g>
<!-- Node33 -->
<g id="node34" class="node">
<title>Node33</title>
<polygon fill="none" stroke="#bfbfbf" points="28.4346,-297 28.4346,-316 100.4346,-316 100.4346,-297 28.4346,-297"/>
<text text-anchor="middle" x="64.4346" y="-304" font-family="Helvetica,sans-Serif" font-size="10.00" fill="#000000">TRandom.h</text>
</g>
<!-- Node31&#45;&gt;Node33 -->
<g id="edge47" class="edge">
<title>Node31&#45;&gt;Node33</title>
<path fill="none" stroke="#191970" d="M186.9462,-363.9005C162.629,-352.5072 121.886,-333.4178 94.1177,-320.4075"/>
<polygon fill="#191970" stroke="#191970" points="95.4253,-317.1551 84.885,-316.0817 92.4554,-323.4938 95.4253,-317.1551"/>
</g>
<!-- Node34&#45;&gt;Node16 -->
<g id="edge53" class="edge">
<title>Node34&#45;&gt;Node16</title>
<path fill="none" stroke="#191970" d="M1218.0079,-358.3848C1226.9374,-340.4004 1237.6688,-310.3781 1222.4346,-291 1207.5426,-272.0573 1155.0856,-259.2225 1106.0826,-251.1035"/>
<polygon fill="#191970" stroke="#191970" points="1106.4448,-247.617 1096.0172,-249.4922 1105.3382,-254.529 1106.4448,-247.617"/>
</g>
<!-- Node35 -->
<g id="node36" class="node">
<title>Node35</title>
<g id="a_node36"><a xlink:href="../../d4/d8f/StringUtils_8h.html" target="_top" xlink:title="CommonUtils/StringUtils.h">
<polygon fill="none" stroke="#000000" points="1270.4346,-297 1270.4346,-316 1416.4346,-316 1416.4346,-297 1270.4346,-297"/>
<text text-anchor="middle" x="1343.4346" y="-304" font-family="Helvetica,sans-Serif" font-size="10.00" fill="#000000">CommonUtils/StringUtils.h</text>
</a>
</g>
</g>
<!-- Node34&#45;&gt;Node35 -->
<g id="edge54" class="edge">
<title>Node34&#45;&gt;Node35</title>
<path fill="none" stroke="#191970" d="M1239.5068,-358.4639C1262.0915,-347.1715 1292.8174,-331.8086 1314.9962,-320.7192"/>
<polygon fill="#191970" stroke="#191970" points="1316.8477,-323.7066 1324.2267,-316.1039 1313.7172,-317.4456 1316.8477,-323.7066"/>
</g>
<!-- Node37 -->
<g id="node38" class="node">
<title>Node37</title>
<polygon fill="none" stroke="#bfbfbf" points="1140.9346,-297 1140.9346,-316 1213.9346,-316 1213.9346,-297 1140.9346,-297"/>
<text text-anchor="middle" x="1177.4346" y="-304" font-family="Helvetica,sans-Serif" font-size="10.00" fill="#000000">string_view</text>
</g>
<!-- Node34&#45;&gt;Node37 -->
<g id="edge56" class="edge">
<title>Node34&#45;&gt;Node37</title>
<path fill="none" stroke="#191970" d="M1202.1733,-358.2967C1197.478,-348.4658 1191.3343,-335.6026 1186.3442,-325.1545"/>
<polygon fill="#191970" stroke="#191970" points="1189.4663,-323.5702 1181.9981,-316.055 1183.1497,-326.587 1189.4663,-323.5702"/>
</g>
<!-- Node36 -->
<g id="node37" class="node">
<title>Node36</title>
<polygon fill="none" stroke="#bfbfbf" points="1315.4346,-230 1315.4346,-249 1371.4346,-249 1371.4346,-230 1315.4346,-230"/>
<text text-anchor="middle" x="1343.4346" y="-237" font-family="Helvetica,sans-Serif" font-size="10.00" fill="#000000">sstream</text>
</g>
<!-- Node35&#45;&gt;Node36 -->
<g id="edge55" class="edge">
<title>Node35&#45;&gt;Node36</title>
<path fill="none" stroke="#191970" d="M1343.4346,-296.9005C1343.4346,-287.149 1343.4346,-271.7597 1343.4346,-259.3695"/>
<polygon fill="#191970" stroke="#191970" points="1346.9347,-259.0816 1343.4346,-249.0817 1339.9347,-259.0817 1346.9347,-259.0816"/>
</g>
</g>
</svg>
