<?xml version="1.0" encoding="UTF-8" standalone="no"?>
<!DOCTYPE svg PUBLIC "-//W3C//DTD SVG 1.1//EN"
 "http://www.w3.org/Graphics/SVG/1.1/DTD/svg11.dtd">
<!-- Generated by graphviz version 2.40.1 (20161225.0304)
 -->
<!-- Title: CentralityQaTask Pages: 1 -->
<svg width="784pt" height="783pt"
 viewBox="0.00 0.00 784.30 783.00" xmlns="http://www.w3.org/2000/svg" xmlns:xlink="http://www.w3.org/1999/xlink">
<g id="graph0" class="graph" transform="scale(1 1) rotate(0) translate(4 779)">
<title>CentralityQaTask</title>
<!-- Node1 -->
<g id="node1" class="node">
<title>Node1</title>
<polygon fill="#bfbfbf" stroke="#000000" points="329.3014,-.5 329.3014,-57.5 429.3014,-57.5 429.3014,-.5 329.3014,-.5"/>
<text text-anchor="middle" x="379.3014" y="-45.5" font-family="Helvetica,sans-Serif" font-size="10.00" fill="#000000">CentralityQaTask</text>
<polyline fill="none" stroke="#000000" points="329.3014,-38.5 429.3014,-38.5 "/>
<text text-anchor="middle" x="379.3014" y="-26.5" font-family="Helvetica,sans-Serif" font-size="10.00" fill="#000000"> </text>
<polyline fill="none" stroke="#000000" points="329.3014,-19.5 429.3014,-19.5 "/>
<text text-anchor="start" x="337.3014" y="-7.5" font-family="Helvetica,sans-Serif" font-size="10.00" fill="#000000">+ process()</text>
</g>
<!-- Node2 -->
<g id="node2" class="node">
<title>Node2</title>
<g id="a_node2"><a xlink:href="../../d4/d79/structo2_1_1framework_1_1OutputObj.html" target="_top" xlink:title="{o2::framework::OutputObj\l\&lt; TH1F \&gt;\n||+ spec()\l+ OutputObj()\l+ OutputObj()\l+ setObject()\l+ setObject()\l+ setObject()\l+ setHash()\l+ operator&#45;\&gt;()\l+ operator*()\l+ ref()\l}">
<polygon fill="none" stroke="#000000" points="307.8014,-105.5 307.8014,-272.5 450.8014,-272.5 450.8014,-105.5 307.8014,-105.5"/>
<text text-anchor="start" x="315.8014" y="-260.5" font-family="Helvetica,sans-Serif" font-size="10.00" fill="#000000">o2::framework::OutputObj</text>
<text text-anchor="middle" x="379.3014" y="-249.5" font-family="Helvetica,sans-Serif" font-size="10.00" fill="#000000">&lt; TH1F &gt;</text>
<polyline fill="none" stroke="#000000" points="307.8014,-242.5 450.8014,-242.5 "/>
<text text-anchor="middle" x="379.3014" y="-230.5" font-family="Helvetica,sans-Serif" font-size="10.00" fill="#000000"> </text>
<polyline fill="none" stroke="#000000" points="307.8014,-223.5 450.8014,-223.5 "/>
<text text-anchor="start" x="315.8014" y="-211.5" font-family="Helvetica,sans-Serif" font-size="10.00" fill="#000000">+ spec()</text>
<text text-anchor="start" x="315.8014" y="-200.5" font-family="Helvetica,sans-Serif" font-size="10.00" fill="#000000">+ OutputObj()</text>
<text text-anchor="start" x="315.8014" y="-189.5" font-family="Helvetica,sans-Serif" font-size="10.00" fill="#000000">+ OutputObj()</text>
<text text-anchor="start" x="315.8014" y="-178.5" font-family="Helvetica,sans-Serif" font-size="10.00" fill="#000000">+ setObject()</text>
<text text-anchor="start" x="315.8014" y="-167.5" font-family="Helvetica,sans-Serif" font-size="10.00" fill="#000000">+ setObject()</text>
<text text-anchor="start" x="315.8014" y="-156.5" font-family="Helvetica,sans-Serif" font-size="10.00" fill="#000000">+ setObject()</text>
<text text-anchor="start" x="315.8014" y="-145.5" font-family="Helvetica,sans-Serif" font-size="10.00" fill="#000000">+ setHash()</text>
<text text-anchor="start" x="315.8014" y="-134.5" font-family="Helvetica,sans-Serif" font-size="10.00" fill="#000000">+ operator&#45;&gt;()</text>
<text text-anchor="start" x="315.8014" y="-123.5" font-family="Helvetica,sans-Serif" font-size="10.00" fill="#000000">+ operator*()</text>
<text text-anchor="start" x="315.8014" y="-112.5" font-family="Helvetica,sans-Serif" font-size="10.00" fill="#000000">+ ref()</text>
</a>
</g>
</g>
<!-- Node2&#45;&gt;Node1 -->
<g id="edge1" class="edge">
<title>Node2&#45;&gt;Node1</title>
<path fill="none" stroke="#404040" d="M379.3014,-105.2512C379.3014,-92.9694 379.3014,-80.8056 379.3014,-69.9212"/>
<polygon fill="none" stroke="#404040" points="379.3015,-69.8011 375.3014,-63.8012 379.3014,-57.8011 383.3014,-63.8011 379.3015,-69.8011"/>
<text text-anchor="middle" x="409.8014" y="-79" font-family="Helvetica,sans-Serif" font-size="10.00" fill="#000000"> +hCentV0M</text>
</g>
<!-- Node3 -->
<g id="node3" class="node">
<title>Node3</title>
<polygon fill="none" stroke="#bfbfbf" points="137.8014,-552 137.8014,-609 276.8014,-609 276.8014,-552 137.8014,-552"/>
<text text-anchor="middle" x="207.3014" y="-597" font-family="Helvetica,sans-Serif" font-size="10.00" fill="#000000">OutputObjHandlingPolicy</text>
<polyline fill="none" stroke="#bfbfbf" points="137.8014,-590 276.8014,-590 "/>
<text text-anchor="middle" x="207.3014" y="-578" font-family="Helvetica,sans-Serif" font-size="10.00" fill="#000000"> </text>
<polyline fill="none" stroke="#bfbfbf" points="137.8014,-571 276.8014,-571 "/>
<text text-anchor="middle" x="207.3014" y="-559" font-family="Helvetica,sans-Serif" font-size="10.00" fill="#000000"> </text>
</g>
<!-- Node3&#45;&gt;Node2 -->
<g id="edge2" class="edge">
<title>Node3&#45;&gt;Node2</title>
<path fill="none" stroke="#404040" d="M205.3493,-551.7158C203.2,-501.6853 204.2701,-396.7007 243.3014,-320 256.6362,-293.7955 277.3202,-269.8732 298.567,-249.8503"/>
<polygon fill="none" stroke="#404040" points="298.8307,-249.6093 300.5602,-242.6086 307.6875,-241.5125 305.958,-248.5132 298.8307,-249.6093"/>
<text text-anchor="middle" x="263.8014" y="-396" font-family="Helvetica,sans-Serif" font-size="10.00" fill="#000000"> +policy</text>
</g>
<!-- Node11 -->
<g id="node11" class="node">
<title>Node11</title>
<g id="a_node11"><a xlink:href="../../d4/d79/structo2_1_1framework_1_1OutputObj.html" target="_top" xlink:title="{o2::framework::OutputObj\&lt; T \&gt;\n||+ OutputObj()\l+ OutputObj()\l+ setObject()\l+ setObject()\l+ setObject()\l+ setHash()\l+ spec()\l+ operator&#45;\&gt;()\l+ operator*()\l+ ref()\l}">
<polygon fill="none" stroke="#000000" points="293.3014,-320.5 293.3014,-476.5 465.3014,-476.5 465.3014,-320.5 293.3014,-320.5"/>
<text text-anchor="middle" x="379.3014" y="-464.5" font-family="Helvetica,sans-Serif" font-size="10.00" fill="#000000">o2::framework::OutputObj&lt; T &gt;</text>
<polyline fill="none" stroke="#000000" points="293.3014,-457.5 465.3014,-457.5 "/>
<text text-anchor="middle" x="379.3014" y="-445.5" font-family="Helvetica,sans-Serif" font-size="10.00" fill="#000000"> </text>
<polyline fill="none" stroke="#000000" points="293.3014,-438.5 465.3014,-438.5 "/>
<text text-anchor="start" x="301.3014" y="-426.5" font-family="Helvetica,sans-Serif" font-size="10.00" fill="#000000">+ OutputObj()</text>
<text text-anchor="start" x="301.3014" y="-415.5" font-family="Helvetica,sans-Serif" font-size="10.00" fill="#000000">+ OutputObj()</text>
<text text-anchor="start" x="301.3014" y="-404.5" font-family="Helvetica,sans-Serif" font-size="10.00" fill="#000000">+ setObject()</text>
<text text-anchor="start" x="301.3014" y="-393.5" font-family="Helvetica,sans-Serif" font-size="10.00" fill="#000000">+ setObject()</text>
<text text-anchor="start" x="301.3014" y="-382.5" font-family="Helvetica,sans-Serif" font-size="10.00" fill="#000000">+ setObject()</text>
<text text-anchor="start" x="301.3014" y="-371.5" font-family="Helvetica,sans-Serif" font-size="10.00" fill="#000000">+ setHash()</text>
<text text-anchor="start" x="301.3014" y="-360.5" font-family="Helvetica,sans-Serif" font-size="10.00" fill="#000000">+ spec()</text>
<text text-anchor="start" x="301.3014" y="-349.5" font-family="Helvetica,sans-Serif" font-size="10.00" fill="#000000">+ operator&#45;&gt;()</text>
<text text-anchor="start" x="301.3014" y="-338.5" font-family="Helvetica,sans-Serif" font-size="10.00" fill="#000000">+ operator*()</text>
<text text-anchor="start" x="301.3014" y="-327.5" font-family="Helvetica,sans-Serif" font-size="10.00" fill="#000000">+ ref()</text>
</a>
</g>
</g>
<!-- Node3&#45;&gt;Node11 -->
<g id="edge13" class="edge">
<title>Node3&#45;&gt;Node11</title>
<path fill="none" stroke="#404040" d="M234.5553,-551.6616C251.5969,-533.6291 274.5339,-509.3586 297.119,-485.4604"/>
<polygon fill="none" stroke="#404040" points="297.17,-485.4064 298.384,-478.2982 305.4123,-476.6849 304.1984,-483.7931 297.17,-485.4064"/>
<text text-anchor="middle" x="303.8014" y="-498" font-family="Helvetica,sans-Serif" font-size="10.00" fill="#000000"> +policy</text>
</g>
<!-- Node4 -->
<g id="node4" class="node">
<title>Node4</title>
<g id="a_node4"><a xlink:href="../../d3/d87/classuint32__t.html" target="_top" xlink:title="{uint32_t\n||}">
<polygon fill="none" stroke="#000000" points="63.3014,-552 63.3014,-609 119.3014,-609 119.3014,-552 63.3014,-552"/>
<text text-anchor="middle" x="91.3014" y="-597" font-family="Helvetica,sans-Serif" font-size="10.00" fill="#000000">uint32_t</text>
<polyline fill="none" stroke="#000000" points="63.3014,-590 119.3014,-590 "/>
<text text-anchor="middle" x="91.3014" y="-578" font-family="Helvetica,sans-Serif" font-size="10.00" fill="#000000"> </text>
<polyline fill="none" stroke="#000000" points="63.3014,-571 119.3014,-571 "/>
<text text-anchor="middle" x="91.3014" y="-559" font-family="Helvetica,sans-Serif" font-size="10.00" fill="#000000"> </text>
</a>
</g>
</g>
<!-- Node4&#45;&gt;Node2 -->
<g id="edge3" class="edge">
<title>Node4&#45;&gt;Node2</title>
<path fill="none" stroke="#404040" d="M88.2877,-551.6007C84.4612,-499.9989 83.5786,-390.7966 134.3014,-320 173.1813,-265.7331 241.6336,-231.8535 296.3175,-212.1787"/>
<polygon fill="none" stroke="#404040" points="296.4292,-212.1399 300.7801,-206.3892 307.7618,-208.1937 303.4109,-213.9443 296.4292,-212.1399"/>
<text text-anchor="middle" x="168.3014" y="-396" font-family="Helvetica,sans-Serif" font-size="10.00" fill="#000000"> +mTaskHash</text>
</g>
<!-- Node4&#45;&gt;Node11 -->
<g id="edge12" class="edge">
<title>Node4&#45;&gt;Node11</title>
<path fill="none" stroke="#404040" d="M105.2117,-551.8591C111.1803,-541.9441 118.953,-531.4594 128.3014,-524 177.306,-484.8974 204.8944,-504.3629 261.3014,-477 268.4408,-473.5366 275.6542,-469.7001 282.8095,-465.6393"/>
<polygon fill="none" stroke="#404040" points="282.8751,-465.6011 286.0374,-459.1203 293.2359,-459.5468 290.0736,-466.0275 282.8751,-465.6011"/>
<text text-anchor="middle" x="231.3014" y="-498" font-family="Helvetica,sans-Serif" font-size="10.00" fill="#000000"> +mTaskHash</text>
</g>
<!-- Node5 -->
<g id="node5" class="node">
<title>Node5</title>
<polygon fill="none" stroke="#bfbfbf" points="413.8014,-701 413.8014,-758 442.8014,-758 442.8014,-701 413.8014,-701"/>
<text text-anchor="middle" x="428.3014" y="-746" font-family="Helvetica,sans-Serif" font-size="10.00" fill="#000000">int</text>
<polyline fill="none" stroke="#bfbfbf" points="413.8014,-739 442.8014,-739 "/>
<text text-anchor="middle" x="428.3014" y="-727" font-family="Helvetica,sans-Serif" font-size="10.00" fill="#000000"> </text>
<polyline fill="none" stroke="#bfbfbf" points="413.8014,-720 442.8014,-720 "/>
<text text-anchor="middle" x="428.3014" y="-708" font-family="Helvetica,sans-Serif" font-size="10.00" fill="#000000"> </text>
</g>
<!-- Node5&#45;&gt;Node2 -->
<g id="edge4" class="edge">
<title>Node5&#45;&gt;Node2</title>
<path fill="none" stroke="#404040" d="M413.6285,-728.1504C350.3459,-722.0079 101.8231,-694.4779 54.3014,-637 -35.8742,-527.932 -3.6709,-430.8528 84.3014,-320 136.3874,-254.367 228.2658,-220.7134 295.6847,-204.0728"/>
<polygon fill="none" stroke="#404040" points="295.8745,-204.0278 300.7884,-198.7501 307.55,-201.2561 302.6361,-206.5338 295.8745,-204.0278"/>
<text text-anchor="middle" x="19.3014" y="-498" font-family="Helvetica,sans-Serif" font-size="10.00" fill="#000000"> +label</text>
</g>
<!-- Node7 -->
<g id="node7" class="node">
<title>Node7</title>
<g id="a_node7"><a xlink:href="../../da/d96/structo2_1_1framework_1_1InputSpec.html" target="_top" xlink:title="{o2::framework::InputSpec\n||+ InputSpec()\l+ InputSpec()\l+ InputSpec()\l+ InputSpec()\l+ InputSpec()\l+ operator==()\l}">
<polygon fill="none" stroke="#000000" points="538.3014,-524.5 538.3014,-636.5 680.3014,-636.5 680.3014,-524.5 538.3014,-524.5"/>
<text text-anchor="middle" x="609.3014" y="-624.5" font-family="Helvetica,sans-Serif" font-size="10.00" fill="#000000">o2::framework::InputSpec</text>
<polyline fill="none" stroke="#000000" points="538.3014,-617.5 680.3014,-617.5 "/>
<text text-anchor="middle" x="609.3014" y="-605.5" font-family="Helvetica,sans-Serif" font-size="10.00" fill="#000000"> </text>
<polyline fill="none" stroke="#000000" points="538.3014,-598.5 680.3014,-598.5 "/>
<text text-anchor="start" x="546.3014" y="-586.5" font-family="Helvetica,sans-Serif" font-size="10.00" fill="#000000">+ InputSpec()</text>
<text text-anchor="start" x="546.3014" y="-575.5" font-family="Helvetica,sans-Serif" font-size="10.00" fill="#000000">+ InputSpec()</text>
<text text-anchor="start" x="546.3014" y="-564.5" font-family="Helvetica,sans-Serif" font-size="10.00" fill="#000000">+ InputSpec()</text>
<text text-anchor="start" x="546.3014" y="-553.5" font-family="Helvetica,sans-Serif" font-size="10.00" fill="#000000">+ InputSpec()</text>
<text text-anchor="start" x="546.3014" y="-542.5" font-family="Helvetica,sans-Serif" font-size="10.00" fill="#000000">+ InputSpec()</text>
<text text-anchor="start" x="546.3014" y="-531.5" font-family="Helvetica,sans-Serif" font-size="10.00" fill="#000000">+ operator==()</text>
</a>
</g>
</g>
<!-- Node5&#45;&gt;Node7 -->
<g id="edge9" class="edge">
<title>Node5&#45;&gt;Node7</title>
<path fill="none" stroke="#404040" d="M442.8074,-717.5586C462.2071,-701.5886 498.0486,-672.0837 531.5215,-644.5287"/>
<polygon fill="none" stroke="#404040" points="531.6194,-644.4481 533.7095,-637.5465 540.8841,-636.8214 538.794,-643.723 531.6194,-644.4481"/>
<text text-anchor="middle" x="542.3014" y="-658" font-family="Helvetica,sans-Serif" font-size="10.00" fill="#000000"> +binding</text>
</g>
<!-- Node5&#45;&gt;Node11 -->
<g id="edge14" class="edge">
<title>Node5&#45;&gt;Node11</title>
<path fill="none" stroke="#404040" d="M424.6796,-700.8704C419.5882,-661.127 409.8636,-587.0105 400.3014,-524 398.5794,-512.6529 396.6914,-500.7426 394.7758,-488.9651"/>
<polygon fill="none" stroke="#404040" points="394.7177,-488.6107 389.7992,-483.3373 392.7752,-476.7689 397.6937,-482.0423 394.7177,-488.6107"/>
<text text-anchor="middle" x="434.3014" y="-578" font-family="Helvetica,sans-Serif" font-size="10.00" fill="#000000"> +label</text>
</g>
<!-- Node6 -->
<g id="node6" class="node">
<title>Node6</title>
<polygon fill="none" stroke="#bfbfbf" points="482.3014,-552 482.3014,-609 520.3014,-609 520.3014,-552 482.3014,-552"/>
<text text-anchor="middle" x="501.3014" y="-597" font-family="Helvetica,sans-Serif" font-size="10.00" fill="#000000">bool</text>
<polyline fill="none" stroke="#bfbfbf" points="482.3014,-590 520.3014,-590 "/>
<text text-anchor="middle" x="501.3014" y="-578" font-family="Helvetica,sans-Serif" font-size="10.00" fill="#000000"> </text>
<polyline fill="none" stroke="#bfbfbf" points="482.3014,-571 520.3014,-571 "/>
<text text-anchor="middle" x="501.3014" y="-559" font-family="Helvetica,sans-Serif" font-size="10.00" fill="#000000"> </text>
</g>
<!-- Node6&#45;&gt;Node2 -->
<g id="edge5" class="edge">
<title>Node6&#45;&gt;Node2</title>
<path fill="none" stroke="#404040" d="M503.2464,-551.9522C505.5481,-502.724 505.7093,-399.5005 474.3014,-320 469.3513,-307.4704 462.9225,-295.0384 455.7424,-283.107"/>
<polygon fill="none" stroke="#404040" points="455.6307,-282.9286 449.0549,-279.9691 449.2576,-272.7608 455.8334,-275.7204 455.6307,-282.9286"/>
<text text-anchor="middle" x="535.3014" y="-396" font-family="Helvetica,sans-Serif" font-size="10.00" fill="#000000"> +isdangling</text>
</g>
<!-- Node6&#45;&gt;Node11 -->
<g id="edge16" class="edge">
<title>Node6&#45;&gt;Node11</title>
<path fill="none" stroke="#404040" d="M488.6066,-551.888C483.3284,-542.2044 476.4996,-531.8631 468.3014,-524 455.9616,-512.1647 446.3067,-518.1745 434.3014,-506 428.6147,-500.2332 423.3918,-493.7588 418.6223,-486.9216"/>
<polygon fill="none" stroke="#404040" points="418.505,-486.7414 411.8791,-483.8957 411.9575,-476.685 418.5834,-479.5307 418.505,-486.7414"/>
<text text-anchor="middle" x="465.3014" y="-498" font-family="Helvetica,sans-Serif" font-size="10.00" fill="#000000"> +isdangling</text>
</g>
<!-- Node7&#45;&gt;Node2 -->
<g id="edge6" class="edge">
<title>Node7&#45;&gt;Node2</title>
<path fill="none" stroke="#404040" d="M613.3348,-524.2434C614.6437,-468.2773 609.112,-382.026 570.3014,-320 544.6097,-278.9405 500.8082,-247.5172 461.6274,-225.7524"/>
<polygon fill="none" stroke="#404040" points="461.5452,-225.7081 454.3654,-226.379 450.9846,-220.0095 458.1645,-219.3386 461.5452,-225.7081"/>
<text text-anchor="middle" x="629.3014" y="-396" font-family="Helvetica,sans-Serif" font-size="10.00" fill="#000000"> +spec</text>
</g>
<!-- Node7&#45;&gt;Node11 -->
<g id="edge17" class="edge">
<title>Node7&#45;&gt;Node11</title>
<path fill="none" stroke="#404040" d="M538.417,-524.4089C518.3864,-508.5586 496.251,-491.0427 475.0183,-474.2413"/>
<polygon fill="none" stroke="#404040" points="474.7474,-474.0269 467.5601,-473.4404 465.3371,-466.5805 472.5244,-467.1669 474.7474,-474.0269"/>
<text text-anchor="middle" x="531.3014" y="-498" font-family="Helvetica,sans-Serif" font-size="10.00" fill="#000000"> +spec</text>
</g>
<!-- Node8 -->
<g id="node8" class="node">
<title>Node8</title>
<polygon fill="none" stroke="#bfbfbf" points="676.3014,-701 676.3014,-758 764.3014,-758 764.3014,-701 676.3014,-701"/>
<text text-anchor="middle" x="720.3014" y="-746" font-family="Helvetica,sans-Serif" font-size="10.00" fill="#000000">enum Lifetime</text>
<polyline fill="none" stroke="#bfbfbf" points="676.3014,-739 764.3014,-739 "/>
<text text-anchor="middle" x="720.3014" y="-727" font-family="Helvetica,sans-Serif" font-size="10.00" fill="#000000"> </text>
<polyline fill="none" stroke="#bfbfbf" points="676.3014,-720 764.3014,-720 "/>
<text text-anchor="middle" x="720.3014" y="-708" font-family="Helvetica,sans-Serif" font-size="10.00" fill="#000000"> </text>
</g>
<!-- Node8&#45;&gt;Node7 -->
<g id="edge7" class="edge">
<title>Node8&#45;&gt;Node7</title>
<path fill="none" stroke="#404040" d="M698.8994,-700.7713C687.3653,-685.2885 672.6232,-665.4995 658.4422,-646.4639"/>
<polygon fill="none" stroke="#404040" points="658.2666,-646.2281 651.4744,-643.8062 651.0976,-636.6049 657.8899,-639.0269 658.2666,-646.2281"/>
<text text-anchor="middle" x="696.3014" y="-658" font-family="Helvetica,sans-Serif" font-size="10.00" fill="#000000"> +lifetime</text>
</g>
<!-- Node9 -->
<g id="node9" class="node">
<title>Node9</title>
<polygon fill="none" stroke="#bfbfbf" points="494.3014,-684.5 494.3014,-774.5 658.3014,-774.5 658.3014,-684.5 494.3014,-684.5"/>
<text text-anchor="start" x="502.3014" y="-762.5" font-family="Helvetica,sans-Serif" font-size="10.00" fill="#000000">variant&lt; o2::framework</text>
<text text-anchor="start" x="502.3014" y="-751.5" font-family="Helvetica,sans-Serif" font-size="10.00" fill="#000000">::ConcreteDataMatcher,</text>
<text text-anchor="start" x="502.3014" y="-740.5" font-family="Helvetica,sans-Serif" font-size="10.00" fill="#000000"> o2::framework::data_matcher</text>
<text text-anchor="middle" x="576.3014" y="-729.5" font-family="Helvetica,sans-Serif" font-size="10.00" fill="#000000">::DataDescriptorMatcher &gt;</text>
<polyline fill="none" stroke="#bfbfbf" points="494.3014,-722.5 658.3014,-722.5 "/>
<text text-anchor="middle" x="576.3014" y="-710.5" font-family="Helvetica,sans-Serif" font-size="10.00" fill="#000000"> </text>
<polyline fill="none" stroke="#bfbfbf" points="494.3014,-703.5 658.3014,-703.5 "/>
<text text-anchor="middle" x="576.3014" y="-691.5" font-family="Helvetica,sans-Serif" font-size="10.00" fill="#000000"> </text>
</g>
<!-- Node9&#45;&gt;Node7 -->
<g id="edge8" class="edge">
<title>Node9&#45;&gt;Node7</title>
<path fill="none" stroke="#404040" d="M586.292,-684.3907C588.7961,-673.0845 591.5383,-660.7027 594.2296,-648.5514"/>
<polygon fill="none" stroke="#404040" points="594.2981,-648.2414 591.6902,-641.5184 596.8931,-636.5254 599.501,-643.2484 594.2981,-648.2414"/>
<text text-anchor="middle" x="618.3014" y="-658" font-family="Helvetica,sans-Serif" font-size="10.00" fill="#000000"> +matcher</text>
</g>
<!-- Node10 -->
<g id="node10" class="node">
<title>Node10</title>
<polygon fill="none" stroke="#bfbfbf" points="660.3014,-370 660.3014,-427 776.3014,-427 776.3014,-370 660.3014,-370"/>
<text text-anchor="middle" x="718.3014" y="-415" font-family="Helvetica,sans-Serif" font-size="10.00" fill="#000000">shared_ptr&lt; TH1F &gt;</text>
<polyline fill="none" stroke="#bfbfbf" points="660.3014,-408 776.3014,-408 "/>
<text text-anchor="middle" x="718.3014" y="-396" font-family="Helvetica,sans-Serif" font-size="10.00" fill="#000000"> </text>
<polyline fill="none" stroke="#bfbfbf" points="660.3014,-389 776.3014,-389 "/>
<text text-anchor="middle" x="718.3014" y="-377" font-family="Helvetica,sans-Serif" font-size="10.00" fill="#000000"> </text>
</g>
<!-- Node10&#45;&gt;Node2 -->
<g id="edge10" class="edge">
<title>Node10&#45;&gt;Node2</title>
<path fill="none" stroke="#404040" d="M698.2703,-369.6819C680.5638,-345.9576 652.8564,-312.7967 622.3014,-291 573.7666,-256.3774 511.6837,-230.5744 462.419,-213.5827"/>
<polygon fill="none" stroke="#404040" points="462.1995,-213.5085 455.2345,-215.3766 450.8313,-209.6659 457.7962,-207.7978 462.1995,-213.5085"/>
<text text-anchor="middle" x="655.3014" y="-294" font-family="Helvetica,sans-Serif" font-size="10.00" fill="#000000"> +object</text>
</g>
<!-- Node11&#45;&gt;Node2 -->
<g id="edge11" class="edge">
<title>Node11&#45;&gt;Node2</title>
<path fill="none" stroke="#ffa500" d="M379.3014,-310.1539C379.3014,-297.7421 379.3014,-285.0152 379.3014,-272.6937"/>
<polygon fill="#ffa500" stroke="#ffa500" points="375.8014,-310.4899 379.3014,-320.4899 382.8014,-310.49 375.8014,-310.4899"/>
<text text-anchor="middle" x="404.8014" y="-294" font-family="Helvetica,sans-Serif" font-size="10.00" fill="#000000"> &lt; TH1F &gt;</text>
</g>
<!-- Node12 -->
<g id="node12" class="node">
<title>Node12</title>
<polygon fill="none" stroke="#bfbfbf" points="294.8014,-552 294.8014,-609 391.8014,-609 391.8014,-552 294.8014,-552"/>
<text text-anchor="middle" x="343.3014" y="-597" font-family="Helvetica,sans-Serif" font-size="10.00" fill="#000000">shared_ptr&lt; T &gt;</text>
<polyline fill="none" stroke="#bfbfbf" points="294.8014,-590 391.8014,-590 "/>
<text text-anchor="middle" x="343.3014" y="-578" font-family="Helvetica,sans-Serif" font-size="10.00" fill="#000000"> </text>
<polyline fill="none" stroke="#bfbfbf" points="294.8014,-571 391.8014,-571 "/>
<text text-anchor="middle" x="343.3014" y="-559" font-family="Helvetica,sans-Serif" font-size="10.00" fill="#000000"> </text>
</g>
<!-- Node12&#45;&gt;Node11 -->
<g id="edge15" class="edge">
<title>Node12&#45;&gt;Node11</title>
<path fill="none" stroke="#404040" d="M341.2526,-551.7712C340.653,-535.0699 340.903,-513.6949 344.3014,-495 344.6965,-492.8261 345.1355,-490.6363 345.6132,-488.4375"/>
<polygon fill="none" stroke="#404040" points="345.6507,-488.2838 343.1936,-481.5043 348.5067,-476.6286 350.9638,-483.4082 345.6507,-488.2838"/>
<text text-anchor="middle" x="365.3014" y="-498" font-family="Helvetica,sans-Serif" font-size="10.00" fill="#000000"> +object</text>
</g>
</g>
</svg>
