<?xml version="1.0" encoding="UTF-8" standalone="no"?>
<!DOCTYPE svg PUBLIC "-//W3C//DTD SVG 1.1//EN"
 "http://www.w3.org/Graphics/SVG/1.1/DTD/svg11.dtd">
<!-- Generated by graphviz version 2.40.1 (20161225.0304)
 -->
<!-- Title: /home/travis/build/AliceO2Group/AliceO2/Utilities/DataFlow/include/DataFlow/SubframeUtils.h Pages: 1 -->
<svg width="615pt" height="239pt"
 viewBox="0.00 0.00 614.50 239.00" xmlns="http://www.w3.org/2000/svg" xmlns:xlink="http://www.w3.org/1999/xlink">
<g id="graph0" class="graph" transform="scale(1 1) rotate(0) translate(4 235)">
<title>/home/travis/build/AliceO2Group/AliceO2/Utilities/DataFlow/include/DataFlow/SubframeUtils.h</title>
<!-- Node18 -->
<g id="node1" class="node">
<title>Node18</title>
<polygon fill="#bfbfbf" stroke="#000000" points="244,-178.5 244,-230.5 391,-230.5 391,-178.5 244,-178.5"/>
<text text-anchor="start" x="252" y="-218.5" font-family="Helvetica,sans-Serif" font-size="10.00" fill="#000000">/home/travis/build</text>
<text text-anchor="start" x="252" y="-207.5" font-family="Helvetica,sans-Serif" font-size="10.00" fill="#000000">/AliceO2Group/AliceO2</text>
<text text-anchor="start" x="252" y="-196.5" font-family="Helvetica,sans-Serif" font-size="10.00" fill="#000000">/Utilities/DataFlow/include</text>
<text text-anchor="middle" x="317.5" y="-185.5" font-family="Helvetica,sans-Serif" font-size="10.00" fill="#000000">/DataFlow/SubframeUtils.h</text>
</g>
<!-- Node19 -->
<g id="node2" class="node">
<title>Node19</title>
<g id="a_node2"><a xlink:href="../../d0/d82/SubframeBuilderDevice_8h.html" target="_top" xlink:title="Demonstrator device for a subframe builder. ">
<polygon fill="none" stroke="#000000" points="45,-89.5 45,-141.5 238,-141.5 238,-89.5 45,-89.5"/>
<text text-anchor="start" x="53" y="-129.5" font-family="Helvetica,sans-Serif" font-size="10.00" fill="#000000">/home/travis/build</text>
<text text-anchor="start" x="53" y="-118.5" font-family="Helvetica,sans-Serif" font-size="10.00" fill="#000000">/AliceO2Group/AliceO2</text>
<text text-anchor="start" x="53" y="-107.5" font-family="Helvetica,sans-Serif" font-size="10.00" fill="#000000">/Utilities/DataFlow/include</text>
<text text-anchor="middle" x="141.5" y="-96.5" font-family="Helvetica,sans-Serif" font-size="10.00" fill="#000000">/DataFlow/SubframeBuilderDevice.h</text>
</a>
</g>
</g>
<!-- Node18&#45;&gt;Node19 -->
<g id="edge1" class="edge">
<title>Node18&#45;&gt;Node19</title>
<path fill="none" stroke="#191970" d="M256.6038,-173.7059C235.8683,-163.2203 212.9077,-151.6096 192.9833,-141.5341"/>
<polygon fill="#191970" stroke="#191970" points="255.1428,-176.8891 265.6461,-178.2784 258.3017,-170.6424 255.1428,-176.8891"/>
</g>
<!-- Node21 -->
<g id="node4" class="node">
<title>Node21</title>
<g id="a_node4"><a xlink:href="../../d2/d68/SubframeBuilderDevice_8cxx.html" target="_top" xlink:title="Demonstrator device for a subframe builder. ">
<polygon fill="none" stroke="#000000" points="189,-.5 189,-52.5 344,-52.5 344,-.5 189,-.5"/>
<text text-anchor="start" x="197" y="-40.5" font-family="Helvetica,sans-Serif" font-size="10.00" fill="#000000">/home/travis/build</text>
<text text-anchor="start" x="197" y="-29.5" font-family="Helvetica,sans-Serif" font-size="10.00" fill="#000000">/AliceO2Group/AliceO2</text>
<text text-anchor="start" x="197" y="-18.5" font-family="Helvetica,sans-Serif" font-size="10.00" fill="#000000">/Utilities/DataFlow/src</text>
<text text-anchor="middle" x="266.5" y="-7.5" font-family="Helvetica,sans-Serif" font-size="10.00" fill="#000000">/SubframeBuilderDevice.cxx</text>
</a>
</g>
</g>
<!-- Node18&#45;&gt;Node21 -->
<g id="edge4" class="edge">
<title>Node18&#45;&gt;Node21</title>
<path fill="none" stroke="#191970" d="M297.0112,-169.1609C292.6678,-160.4996 288.4961,-151.0982 285.5,-142 275.7114,-112.275 270.824,-76.5161 268.4834,-52.7396"/>
<polygon fill="#191970" stroke="#191970" points="294.0111,-170.977 301.7441,-178.2194 300.2153,-167.7354 294.0111,-170.977"/>
</g>
<!-- Node22 -->
<g id="node5" class="node">
<title>Node22</title>
<g id="a_node5"><a xlink:href="../../d3/d05/test__PayloadMerger01_8cxx.html" target="_top" xlink:title="/home/travis/build\l/AliceO2Group/AliceO2\l/Utilities/DataFlow/test\l/test_PayloadMerger01.cxx">
<polygon fill="none" stroke="#000000" points="294.5,-89.5 294.5,-141.5 442.5,-141.5 442.5,-89.5 294.5,-89.5"/>
<text text-anchor="start" x="302.5" y="-129.5" font-family="Helvetica,sans-Serif" font-size="10.00" fill="#000000">/home/travis/build</text>
<text text-anchor="start" x="302.5" y="-118.5" font-family="Helvetica,sans-Serif" font-size="10.00" fill="#000000">/AliceO2Group/AliceO2</text>
<text text-anchor="start" x="302.5" y="-107.5" font-family="Helvetica,sans-Serif" font-size="10.00" fill="#000000">/Utilities/DataFlow/test</text>
<text text-anchor="middle" x="368.5" y="-96.5" font-family="Helvetica,sans-Serif" font-size="10.00" fill="#000000">/test_PayloadMerger01.cxx</text>
</a>
</g>
</g>
<!-- Node18&#45;&gt;Node22 -->
<g id="edge5" class="edge">
<title>Node18&#45;&gt;Node22</title>
<path fill="none" stroke="#191970" d="M337.5196,-169.5639C342.8702,-160.2264 348.5588,-150.2993 353.5816,-141.5341"/>
<polygon fill="#191970" stroke="#191970" points="334.461,-167.8618 332.5258,-178.2784 340.5345,-171.3422 334.461,-167.8618"/>
</g>
<!-- Node23 -->
<g id="node6" class="node">
<title>Node23</title>
<g id="a_node6"><a xlink:href="../../d8/d93/test__SubframeUtils01_8cxx.html" target="_top" xlink:title="/home/travis/build\l/AliceO2Group/AliceO2\l/Utilities/DataFlow/test\l/test_SubframeUtils01.cxx">
<polygon fill="none" stroke="#000000" points="460.5,-89.5 460.5,-141.5 606.5,-141.5 606.5,-89.5 460.5,-89.5"/>
<text text-anchor="start" x="468.5" y="-129.5" font-family="Helvetica,sans-Serif" font-size="10.00" fill="#000000">/home/travis/build</text>
<text text-anchor="start" x="468.5" y="-118.5" font-family="Helvetica,sans-Serif" font-size="10.00" fill="#000000">/AliceO2Group/AliceO2</text>
<text text-anchor="start" x="468.5" y="-107.5" font-family="Helvetica,sans-Serif" font-size="10.00" fill="#000000">/Utilities/DataFlow/test</text>
<text text-anchor="middle" x="533.5" y="-96.5" font-family="Helvetica,sans-Serif" font-size="10.00" fill="#000000">/test_SubframeUtils01.cxx</text>
</a>
</g>
</g>
<!-- Node18&#45;&gt;Node23 -->
<g id="edge6" class="edge">
<title>Node18&#45;&gt;Node23</title>
<path fill="none" stroke="#191970" d="M390.2421,-174.5276C416.1496,-163.8527 445.0975,-151.9251 470.1535,-141.6011"/>
<polygon fill="#191970" stroke="#191970" points="388.7602,-171.3526 380.8477,-178.3984 391.427,-177.8248 388.7602,-171.3526"/>
</g>
<!-- Node20 -->
<g id="node3" class="node">
<title>Node20</title>
<g id="a_node3"><a xlink:href="../../df/d19/runSubframeBuilderDevice_8cxx.html" target="_top" xlink:title="/home/travis/build\l/AliceO2Group/AliceO2\l/Utilities/DataFlow/src\l/runSubframeBuilderDevice.cxx">
<polygon fill="none" stroke="#000000" points="0,-.5 0,-52.5 171,-52.5 171,-.5 0,-.5"/>
<text text-anchor="start" x="8" y="-40.5" font-family="Helvetica,sans-Serif" font-size="10.00" fill="#000000">/home/travis/build</text>
<text text-anchor="start" x="8" y="-29.5" font-family="Helvetica,sans-Serif" font-size="10.00" fill="#000000">/AliceO2Group/AliceO2</text>
<text text-anchor="start" x="8" y="-18.5" font-family="Helvetica,sans-Serif" font-size="10.00" fill="#000000">/Utilities/DataFlow/src</text>
<text text-anchor="middle" x="85.5" y="-7.5" font-family="Helvetica,sans-Serif" font-size="10.00" fill="#000000">/runSubframeBuilderDevice.cxx</text>
</a>
</g>
</g>
<!-- Node19&#45;&gt;Node20 -->
<g id="edge2" class="edge">
<title>Node19&#45;&gt;Node20</title>
<path fill="none" stroke="#191970" d="M119.5177,-80.5639C113.6425,-71.2264 107.3962,-61.2993 101.881,-52.5341"/>
<polygon fill="#191970" stroke="#191970" points="116.713,-82.6785 125.001,-89.2784 122.6378,-78.9505 116.713,-82.6785"/>
</g>
<!-- Node19&#45;&gt;Node21 -->
<g id="edge3" class="edge">
<title>Node19&#45;&gt;Node21</title>
<path fill="none" stroke="#191970" d="M186.5407,-83.431C200.7899,-73.2856 216.3554,-62.203 229.9352,-52.5341"/>
<polygon fill="#191970" stroke="#191970" points="184.4442,-80.6272 178.328,-89.2784 188.5042,-86.3295 184.4442,-80.6272"/>
</g>
</g>
</svg>
