<?xml version="1.0" encoding="UTF-8" standalone="no"?>
<!DOCTYPE svg PUBLIC "-//W3C//DTD SVG 1.1//EN"
 "http://www.w3.org/Graphics/SVG/1.1/DTD/svg11.dtd">
<!-- Generated by graphviz version 2.40.1 (20161225.0304)
 -->
<!-- Title: /home/travis/build/AliceO2Group/AliceO2/Detectors/EMCAL/reconstruction/src/Channel.cxx Pages: 1 -->
<svg width="343pt" height="251pt"
 viewBox="0.00 0.00 342.50 251.00" xmlns="http://www.w3.org/2000/svg" xmlns:xlink="http://www.w3.org/1999/xlink">
<g id="graph0" class="graph" transform="scale(1 1) rotate(0) translate(4 247)">
<title>/home/travis/build/AliceO2Group/AliceO2/Detectors/EMCAL/reconstruction/src/Channel.cxx</title>
<!-- Node0 -->
<g id="node1" class="node">
<title>Node0</title>
<polygon fill="#bfbfbf" stroke="#000000" points="64,-190.5 64,-242.5 240,-242.5 240,-190.5 64,-190.5"/>
<text text-anchor="start" x="72" y="-230.5" font-family="Helvetica,sans-Serif" font-size="10.00" fill="#000000">/home/travis/build</text>
<text text-anchor="start" x="72" y="-219.5" font-family="Helvetica,sans-Serif" font-size="10.00" fill="#000000">/AliceO2Group/AliceO2</text>
<text text-anchor="start" x="72" y="-208.5" font-family="Helvetica,sans-Serif" font-size="10.00" fill="#000000">/Detectors/EMCAL/reconstruction</text>
<text text-anchor="middle" x="152" y="-197.5" font-family="Helvetica,sans-Serif" font-size="10.00" fill="#000000">/src/Channel.cxx</text>
</g>
<!-- Node1 -->
<g id="node2" class="node">
<title>Node1</title>
<g id="a_node2"><a xlink:href="../../de/d03/Channel_8h.html" target="_top" xlink:title="EMCALReconstruction\l/Channel.h">
<polygon fill="none" stroke="#000000" points="91,-123.5 91,-153.5 213,-153.5 213,-123.5 91,-123.5"/>
<text text-anchor="start" x="99" y="-141.5" font-family="Helvetica,sans-Serif" font-size="10.00" fill="#000000">EMCALReconstruction</text>
<text text-anchor="middle" x="152" y="-130.5" font-family="Helvetica,sans-Serif" font-size="10.00" fill="#000000">/Channel.h</text>
</a>
</g>
</g>
<!-- Node0&#45;&gt;Node1 -->
<g id="edge1" class="edge">
<title>Node0&#45;&gt;Node1</title>
<path fill="none" stroke="#191970" d="M152,-190.0928C152,-181.516 152,-172.0289 152,-163.5538"/>
<polygon fill="#191970" stroke="#191970" points="155.5001,-163.5045 152,-153.5046 148.5001,-163.5046 155.5001,-163.5045"/>
</g>
<!-- Node2 -->
<g id="node3" class="node">
<title>Node2</title>
<polygon fill="none" stroke="#bfbfbf" points="0,-.5 0,-19.5 50,-19.5 50,-.5 0,-.5"/>
<text text-anchor="middle" x="25" y="-7.5" font-family="Helvetica,sans-Serif" font-size="10.00" fill="#000000">cstdint</text>
</g>
<!-- Node1&#45;&gt;Node2 -->
<g id="edge2" class="edge">
<title>Node1&#45;&gt;Node2</title>
<path fill="none" stroke="#191970" d="M121.9251,-123.4506C105.8356,-114.3985 86.4241,-101.7737 72,-87 55.3286,-69.9245 41.8521,-45.8966 33.6736,-29.2421"/>
<polygon fill="#191970" stroke="#191970" points="36.7214,-27.4996 29.2848,-19.9533 30.3923,-30.4901 36.7214,-27.4996"/>
</g>
<!-- Node3 -->
<g id="node4" class="node">
<title>Node3</title>
<polygon fill="none" stroke="#bfbfbf" points="269.5,-62 269.5,-81 334.5,-81 334.5,-62 269.5,-62"/>
<text text-anchor="middle" x="302" y="-69" font-family="Helvetica,sans-Serif" font-size="10.00" fill="#000000">exception</text>
</g>
<!-- Node1&#45;&gt;Node3 -->
<g id="edge3" class="edge">
<title>Node1&#45;&gt;Node3</title>
<path fill="none" stroke="#191970" d="M185.6629,-123.4639C211.2845,-112.0196 246.2661,-96.3945 271.1627,-85.274"/>
<polygon fill="#191970" stroke="#191970" points="272.7955,-88.378 280.4987,-81.1039 269.9407,-81.9866 272.7955,-88.378"/>
</g>
<!-- Node4 -->
<g id="node5" class="node">
<title>Node4</title>
<polygon fill="none" stroke="#bfbfbf" points="68.5,-.5 68.5,-19.5 115.5,-19.5 115.5,-.5 68.5,-.5"/>
<text text-anchor="middle" x="92" y="-7.5" font-family="Helvetica,sans-Serif" font-size="10.00" fill="#000000">vector</text>
</g>
<!-- Node1&#45;&gt;Node4 -->
<g id="edge4" class="edge">
<title>Node1&#45;&gt;Node4</title>
<path fill="none" stroke="#191970" d="M119.5457,-123.3708C105.273,-114.8631 89.9669,-102.7522 82,-87 72.8169,-68.8433 77.9388,-45.3296 83.6895,-29.0877"/>
<polygon fill="#191970" stroke="#191970" points="87.0202,-30.1814 87.4154,-19.5939 80.504,-27.6241 87.0202,-30.1814"/>
</g>
<!-- Node5 -->
<g id="node6" class="node">
<title>Node5</title>
<polygon fill="none" stroke="#bfbfbf" points="209.5,-.5 209.5,-19.5 268.5,-19.5 268.5,-.5 209.5,-.5"/>
<text text-anchor="middle" x="239" y="-7.5" font-family="Helvetica,sans-Serif" font-size="10.00" fill="#000000">Rtypes.h</text>
</g>
<!-- Node1&#45;&gt;Node5 -->
<g id="edge5" class="edge">
<title>Node1&#45;&gt;Node5</title>
<path fill="none" stroke="#191970" d="M181.5612,-123.4053C195.86,-114.6434 212.0428,-102.3013 222,-87 233.163,-69.8458 237.0856,-46.4673 238.4174,-29.9844"/>
<polygon fill="#191970" stroke="#191970" points="241.921,-30.0154 238.9826,-19.8362 234.9318,-29.6261 241.921,-30.0154"/>
</g>
<!-- Node6 -->
<g id="node7" class="node">
<title>Node6</title>
<g id="a_node7"><a xlink:href="../../d1/d29/Bunch_8h.html" target="_top" xlink:title="EMCALReconstruction\l/Bunch.h">
<polygon fill="none" stroke="#000000" points="91,-56.5 91,-86.5 213,-86.5 213,-56.5 91,-56.5"/>
<text text-anchor="start" x="99" y="-74.5" font-family="Helvetica,sans-Serif" font-size="10.00" fill="#000000">EMCALReconstruction</text>
<text text-anchor="middle" x="152" y="-63.5" font-family="Helvetica,sans-Serif" font-size="10.00" fill="#000000">/Bunch.h</text>
</a>
</g>
</g>
<!-- Node1&#45;&gt;Node6 -->
<g id="edge6" class="edge">
<title>Node1&#45;&gt;Node6</title>
<path fill="none" stroke="#191970" d="M152,-123.2967C152,-115.5013 152,-105.7991 152,-96.9064"/>
<polygon fill="#191970" stroke="#191970" points="155.5001,-96.6431 152,-86.6432 148.5001,-96.6432 155.5001,-96.6431"/>
</g>
<!-- Node6&#45;&gt;Node2 -->
<g id="edge7" class="edge">
<title>Node6&#45;&gt;Node2</title>
<path fill="none" stroke="#191970" d="M120.9323,-56.4554C100.4855,-46.554 73.9063,-33.683 53.9115,-24.0004"/>
<polygon fill="#191970" stroke="#191970" points="55.2062,-20.7387 44.6805,-19.5303 52.1553,-27.0388 55.2062,-20.7387"/>
</g>
<!-- Node6&#45;&gt;Node4 -->
<g id="edge8" class="edge">
<title>Node6&#45;&gt;Node4</title>
<path fill="none" stroke="#191970" d="M137.1685,-56.2977C128.5796,-47.4941 117.7398,-36.3833 108.8321,-27.2529"/>
<polygon fill="#191970" stroke="#191970" points="111.0953,-24.5606 101.6068,-19.8469 106.0848,-29.4489 111.0953,-24.5606"/>
</g>
<!-- Node6&#45;&gt;Node5 -->
<g id="edge10" class="edge">
<title>Node6&#45;&gt;Node5</title>
<path fill="none" stroke="#191970" d="M173.5056,-56.2977C186.7968,-46.9022 203.8057,-34.8787 217.1588,-25.4395"/>
<polygon fill="#191970" stroke="#191970" points="219.1846,-28.2937 225.33,-19.6633 215.1439,-22.5776 219.1846,-28.2937"/>
</g>
<!-- Node7 -->
<g id="node8" class="node">
<title>Node7</title>
<polygon fill="none" stroke="#bfbfbf" points="133.5,-.5 133.5,-19.5 190.5,-19.5 190.5,-.5 133.5,-.5"/>
<text text-anchor="middle" x="162" y="-7.5" font-family="Helvetica,sans-Serif" font-size="10.00" fill="#000000">gsl/span</text>
</g>
<!-- Node6&#45;&gt;Node7 -->
<g id="edge9" class="edge">
<title>Node6&#45;&gt;Node7</title>
<path fill="none" stroke="#191970" d="M154.4719,-56.2977C155.7733,-48.2945 157.3847,-38.3843 158.7823,-29.7889"/>
<polygon fill="#191970" stroke="#191970" points="162.2485,-30.2791 160.3989,-19.8469 155.3392,-29.1555 162.2485,-30.2791"/>
</g>
</g>
</svg>
