<?xml version="1.0" encoding="UTF-8" standalone="no"?>
<!DOCTYPE svg PUBLIC "-//W3C//DTD SVG 1.1//EN"
 "http://www.w3.org/Graphics/SVG/1.1/DTD/svg11.dtd">
<!-- Generated by graphviz version 2.40.1 (20161225.0304)
 -->
<!-- Title: /home/travis/build/AliceO2Group/AliceO2/Utilities/O2Device/include/O2Device/Utilities.h Pages: 1 -->
<!--zoomable 240 -->
<svg id="main" version="1.1" xmlns="http://www.w3.org/2000/svg" xmlns:xlink="http://www.w3.org/1999/xlink" xml:space="preserve" onload="init(evt)">
<style type="text/css"><![CDATA[
.edge:hover path { stroke: red; }
.edge:hover polygon { stroke: red; fill: red; }
]]></style>
<script type="text/javascript"><![CDATA[
var edges = document.getElementsByTagName('g');
if (edges && edges.length) {
  for (var i=0;i<edges.length;i++) {
    if (edges[i].id.substr(0,4)=='edge') {
      edges[i].setAttribute('class','edge');
    }
  }
}
]]></script>
        <defs>
                <circle id="rim" cx="0" cy="0" r="7"/>
                <circle id="rim2" cx="0" cy="0" r="3.5"/>
                <g id="zoomPlus">
                        <use xlink:href="#rim" fill="#404040">
                                <set attributeName="fill" to="#808080" begin="zoomplus.mouseover" end="zoomplus.mouseout"/>
                        </use>
                        <path d="M-4,0h8M0,-4v8" fill="none" stroke="white" stroke-width="1.5" pointer-events="none"/>
                </g>
                <g id="zoomMin">
                        <use xlink:href="#rim" fill="#404040">
                                <set attributeName="fill" to="#808080" begin="zoomminus.mouseover" end="zoomminus.mouseout"/>
                        </use>
                        <path d="M-4,0h8" fill="none" stroke="white" stroke-width="1.5" pointer-events="none"/>
                </g>
                <g id="dirArrow">
                        <path fill="none" stroke="white" stroke-width="1.5" d="M0,-3.0v7 M-2.5,-0.5L0,-3.0L2.5,-0.5"/>
                </g>
               <g id="resetDef">
                       <use xlink:href="#rim2" fill="#404040">
                               <set attributeName="fill" to="#808080" begin="reset.mouseover" end="reset.mouseout"/>
                       </use>
               </g>
        </defs>

<script type="text/javascript">
var viewWidth = 2297;
var viewHeight = 240;
var sectionId = 'dynsection-0';
</script>
<script xlink:href="../../svgpan.js"/>
<svg id="graph" class="graph">
<g id="viewport">
<title>/home/travis/build/AliceO2Group/AliceO2/Utilities/O2Device/include/O2Device/Utilities.h</title>
<!-- Node0 -->
<g id="node1" class="node">
<title>Node0</title>
<polygon fill="#bfbfbf" stroke="#000000" points="1285,-179.5 1285,-231.5 1431,-231.5 1431,-179.5 1285,-179.5"/>
<text text-anchor="start" x="1293" y="-219.5" font-family="Helvetica,sans-Serif" font-size="10.00" fill="#000000">/home/travis/build</text>
<text text-anchor="start" x="1293" y="-208.5" font-family="Helvetica,sans-Serif" font-size="10.00" fill="#000000">/AliceO2Group/AliceO2</text>
<text text-anchor="start" x="1293" y="-197.5" font-family="Helvetica,sans-Serif" font-size="10.00" fill="#000000">/Utilities/O2Device/include</text>
<text text-anchor="middle" x="1358" y="-186.5" font-family="Helvetica,sans-Serif" font-size="10.00" fill="#000000">/O2Device/Utilities.h</text>
</g>
<!-- Node1 -->
<g id="node2" class="node">
<title>Node1</title>
<g id="a_node2"><a xlink:href="../../dc/d03/MemoryResources_8h.html" target="_top" xlink:title="MemoryResources/MemoryResources.h">
<polygon fill="none" stroke="#000000" points="1216.5,-67.5 1216.5,-86.5 1423.5,-86.5 1423.5,-67.5 1216.5,-67.5"/>
<text text-anchor="middle" x="1320" y="-74.5" font-family="Helvetica,sans-Serif" font-size="10.00" fill="#000000">MemoryResources/MemoryResources.h</text>
</a>
</g>
</g>
<!-- Node0&#45;&gt;Node1 -->
<g id="edge1" class="edge">
<title>Node0&#45;&gt;Node1</title>
<path fill="none" stroke="#191970" d="M1353.0983,-179.1917C1349.7677,-162.8388 1344.9005,-141.4821 1339,-123 1336.1176,-113.9714 1332.2171,-104.2348 1328.7001,-96.0545"/>
<polygon fill="#191970" stroke="#191970" points="1331.8051,-94.4221 1324.5559,-86.6955 1325.4045,-97.2563 1331.8051,-94.4221"/>
</g>
<!-- Node9 -->
<g id="node10" class="node">
<title>Node9</title>
<polygon fill="none" stroke="#bfbfbf" points="2243.5,-6 2243.5,-25 2288.5,-25 2288.5,-6 2243.5,-6"/>
<text text-anchor="middle" x="2266" y="-13" font-family="Helvetica,sans-Serif" font-size="10.00" fill="#000000">utility</text>
</g>
<!-- Node0&#45;&gt;Node9 -->
<g id="edge31" class="edge">
<title>Node0&#45;&gt;Node9</title>
<path fill="none" stroke="#191970" d="M1385.2745,-179.3066C1406.7708,-160.3225 1438.4569,-135.8217 1471,-123 1788.7914,2.2073 1906.2622,-127.2091 2234,-31 2235.7103,-30.4979 2237.4418,-29.9119 2239.1682,-29.2673"/>
<polygon fill="#191970" stroke="#191970" points="2241.0146,-32.2828 2248.8128,-25.1108 2238.2441,-25.8544 2241.0146,-32.2828"/>
</g>
<!-- Node17 -->
<g id="node18" class="node">
<title>Node17</title>
<g id="a_node18"><a xlink:href="../../dc/dcd/DataHeader_8h.html" target="_top" xlink:title="Headers/DataHeader.h">
<polygon fill="none" stroke="#000000" points="370.5,-67.5 370.5,-86.5 497.5,-86.5 497.5,-67.5 370.5,-67.5"/>
<text text-anchor="middle" x="434" y="-74.5" font-family="Helvetica,sans-Serif" font-size="10.00" fill="#000000">Headers/DataHeader.h</text>
</a>
</g>
</g>
<!-- Node0&#45;&gt;Node17 -->
<g id="edge17" class="edge">
<title>Node0&#45;&gt;Node17</title>
<path fill="none" stroke="#191970" d="M1284.7229,-195.3094C1111.9829,-171.2866 680.8291,-111.3263 507.684,-87.2472"/>
<polygon fill="#191970" stroke="#191970" points="508.0347,-83.7624 497.6479,-85.8515 507.0705,-90.6956 508.0347,-83.7624"/>
</g>
<!-- Node25 -->
<g id="node26" class="node">
<title>Node25</title>
<g id="a_node26"><a xlink:href="../../d4/d00/Headers_2include_2Headers_2Stack_8h.html" target="_top" xlink:title="Headers/Stack.h">
<polygon fill="none" stroke="#000000" points="1234,-123.5 1234,-142.5 1330,-142.5 1330,-123.5 1234,-123.5"/>
<text text-anchor="middle" x="1282" y="-130.5" font-family="Helvetica,sans-Serif" font-size="10.00" fill="#000000">Headers/Stack.h</text>
</a>
</g>
</g>
<!-- Node0&#45;&gt;Node25 -->
<g id="edge28" class="edge">
<title>Node0&#45;&gt;Node25</title>
<path fill="none" stroke="#191970" d="M1330.5623,-179.3258C1320.1706,-169.4127 1308.6341,-158.4075 1299.4138,-149.6118"/>
<polygon fill="#191970" stroke="#191970" points="1301.6459,-146.904 1291.9943,-142.534 1296.8141,-151.969 1301.6459,-146.904"/>
</g>
<!-- Node26 -->
<g id="node27" class="node">
<title>Node26</title>
<polygon fill="none" stroke="#bfbfbf" points="1480,-123.5 1480,-142.5 1528,-142.5 1528,-123.5 1480,-123.5"/>
<text text-anchor="middle" x="1504" y="-130.5" font-family="Helvetica,sans-Serif" font-size="10.00" fill="#000000">gsl/gsl</text>
</g>
<!-- Node0&#45;&gt;Node26 -->
<g id="edge32" class="edge">
<title>Node0&#45;&gt;Node26</title>
<path fill="none" stroke="#191970" d="M1410.7094,-179.3258C1432.6888,-168.4114 1457.3341,-156.1731 1475.7717,-147.0175"/>
<polygon fill="#191970" stroke="#191970" points="1477.4006,-150.1164 1484.8005,-142.534 1474.2873,-143.8469 1477.4006,-150.1164"/>
</g>
<!-- Node2 -->
<g id="node3" class="node">
<title>Node2</title>
<polygon fill="none" stroke="#bfbfbf" points="715.5,-.5 715.5,-30.5 826.5,-30.5 826.5,-.5 715.5,-.5"/>
<text text-anchor="start" x="723.5" y="-18.5" font-family="Helvetica,sans-Serif" font-size="10.00" fill="#000000">boost/container/flat</text>
<text text-anchor="middle" x="771" y="-7.5" font-family="Helvetica,sans-Serif" font-size="10.00" fill="#000000">_map.hpp</text>
</g>
<!-- Node1&#45;&gt;Node2 -->
<g id="edge2" class="edge">
<title>Node1&#45;&gt;Node2</title>
<path fill="none" stroke="#191970" d="M1216.3155,-71.4722C1120.1404,-65.3553 972.9442,-53.4814 836.9393,-31.1922"/>
<polygon fill="#191970" stroke="#191970" points="837.1892,-27.6858 826.7507,-29.4992 836.0417,-34.5911 837.1892,-27.6858"/>
</g>
<!-- Node3 -->
<g id="node4" class="node">
<title>Node3</title>
<polygon fill="none" stroke="#bfbfbf" points="844.5,-.5 844.5,-30.5 973.5,-30.5 973.5,-.5 844.5,-.5"/>
<text text-anchor="start" x="852.5" y="-18.5" font-family="Helvetica,sans-Serif" font-size="10.00" fill="#000000">boost/container/pmr</text>
<text text-anchor="middle" x="909" y="-7.5" font-family="Helvetica,sans-Serif" font-size="10.00" fill="#000000">/memory_resource.hpp</text>
</g>
<!-- Node1&#45;&gt;Node3 -->
<g id="edge3" class="edge">
<title>Node1&#45;&gt;Node3</title>
<path fill="none" stroke="#191970" d="M1237.4328,-67.4937C1171.2479,-59.4737 1075.7842,-47.0123 983.8629,-31.2603"/>
<polygon fill="#191970" stroke="#191970" points="984.2807,-27.7807 973.8305,-29.5253 983.0878,-34.6783 984.2807,-27.7807"/>
</g>
<!-- Node4 -->
<g id="node5" class="node">
<title>Node4</title>
<polygon fill="none" stroke="#bfbfbf" points="991.5,-.5 991.5,-30.5 1164.5,-30.5 1164.5,-.5 991.5,-.5"/>
<text text-anchor="start" x="999.5" y="-18.5" font-family="Helvetica,sans-Serif" font-size="10.00" fill="#000000">boost/container/pmr</text>
<text text-anchor="middle" x="1078" y="-7.5" font-family="Helvetica,sans-Serif" font-size="10.00" fill="#000000">/monotonic_buffer_resource.hpp</text>
</g>
<!-- Node1&#45;&gt;Node4 -->
<g id="edge4" class="edge">
<title>Node1&#45;&gt;Node4</title>
<path fill="none" stroke="#191970" d="M1282.453,-67.4581C1246.4127,-58.2991 1191.1136,-44.2458 1147.1099,-33.0631"/>
<polygon fill="#191970" stroke="#191970" points="1147.887,-29.6494 1137.333,-30.5784 1146.1628,-36.4337 1147.887,-29.6494"/>
</g>
<!-- Node5 -->
<g id="node6" class="node">
<title>Node5</title>
<polygon fill="none" stroke="#bfbfbf" points="1182.5,-.5 1182.5,-30.5 1331.5,-30.5 1331.5,-.5 1182.5,-.5"/>
<text text-anchor="start" x="1190.5" y="-18.5" font-family="Helvetica,sans-Serif" font-size="10.00" fill="#000000">boost/container/pmr</text>
<text text-anchor="middle" x="1257" y="-7.5" font-family="Helvetica,sans-Serif" font-size="10.00" fill="#000000">/polymorphic_allocator.hpp</text>
</g>
<!-- Node1&#45;&gt;Node5 -->
<g id="edge5" class="edge">
<title>Node1&#45;&gt;Node5</title>
<path fill="none" stroke="#191970" d="M1310.1563,-67.3906C1302.0247,-59.4527 1290.1614,-47.8718 1279.7041,-37.6635"/>
<polygon fill="#191970" stroke="#191970" points="1282.0122,-35.0255 1272.4115,-30.5446 1277.1224,-40.0345 1282.0122,-35.0255"/>
</g>
<!-- Node6 -->
<g id="node7" class="node">
<title>Node6</title>
<polygon fill="none" stroke="#bfbfbf" points="514,-6 514,-25 564,-25 564,-6 514,-6"/>
<text text-anchor="middle" x="539" y="-13" font-family="Helvetica,sans-Serif" font-size="10.00" fill="#000000">cstring</text>
</g>
<!-- Node1&#45;&gt;Node6 -->
<g id="edge6" class="edge">
<title>Node1&#45;&gt;Node6</title>
<path fill="none" stroke="#191970" d="M1216.3675,-75.2782C1040.6648,-71.5805 691.8163,-60.6586 573,-31 570.801,-30.4511 568.569,-29.7633 566.3538,-28.9848"/>
<polygon fill="#191970" stroke="#191970" points="567.4876,-25.6675 556.9059,-25.1401 564.8491,-32.1512 567.4876,-25.6675"/>
</g>
<!-- Node7 -->
<g id="node8" class="node">
<title>Node7</title>
<polygon fill="none" stroke="#bfbfbf" points="582,-6 582,-25 626,-25 626,-6 582,-6"/>
<text text-anchor="middle" x="604" y="-13" font-family="Helvetica,sans-Serif" font-size="10.00" fill="#000000">string</text>
</g>
<!-- Node1&#45;&gt;Node7 -->
<g id="edge7" class="edge">
<title>Node1&#45;&gt;Node7</title>
<path fill="none" stroke="#191970" d="M1216.3718,-75.0358C1052.5832,-71.0906 741.5371,-59.9524 635,-31 633.2834,-30.5335 631.5499,-29.9681 629.8263,-29.3327"/>
<polygon fill="#191970" stroke="#191970" points="630.8125,-25.9435 620.2488,-25.1322 628.0009,-32.3541 630.8125,-25.9435"/>
</g>
<!-- Node8 -->
<g id="node9" class="node">
<title>Node8</title>
<polygon fill="none" stroke="#bfbfbf" points="1349.5,-6 1349.5,-25 1418.5,-25 1418.5,-6 1349.5,-6"/>
<text text-anchor="middle" x="1384" y="-13" font-family="Helvetica,sans-Serif" font-size="10.00" fill="#000000">type_traits</text>
</g>
<!-- Node1&#45;&gt;Node8 -->
<g id="edge8" class="edge">
<title>Node1&#45;&gt;Node8</title>
<path fill="none" stroke="#191970" d="M1330,-67.3906C1339.7119,-58.0581 1354.6639,-43.6902 1366.3741,-32.4374"/>
<polygon fill="#191970" stroke="#191970" points="1369.0736,-34.6974 1373.859,-25.2449 1364.2234,-29.65 1369.0736,-34.6974"/>
</g>
<!-- Node1&#45;&gt;Node9 -->
<g id="edge9" class="edge">
<title>Node1&#45;&gt;Node9</title>
<path fill="none" stroke="#191970" d="M1423.5869,-67.9894C1428.4579,-67.6387 1433.2813,-67.3065 1438,-67 1614.6973,-55.5216 2062.3535,-74.4873 2234,-31 2235.9747,-30.4997 2237.972,-29.8708 2239.9533,-29.1548"/>
<polygon fill="#191970" stroke="#191970" points="2241.7362,-32.1986 2249.5476,-25.0409 2238.9775,-25.7651 2241.7362,-32.1986"/>
</g>
<!-- Node10 -->
<g id="node11" class="node">
<title>Node10</title>
<polygon fill="none" stroke="#bfbfbf" points="1436.5,-6 1436.5,-25 1483.5,-25 1483.5,-6 1436.5,-6"/>
<text text-anchor="middle" x="1460" y="-13" font-family="Helvetica,sans-Serif" font-size="10.00" fill="#000000">vector</text>
</g>
<!-- Node1&#45;&gt;Node10 -->
<g id="edge10" class="edge">
<title>Node1&#45;&gt;Node10</title>
<path fill="none" stroke="#191970" d="M1343.0559,-67.3482C1364.791,-58.1879 1398.2309,-43.9361 1427,-31 1428.169,-30.4743 1429.3596,-29.9349 1430.5609,-29.387"/>
<polygon fill="#191970" stroke="#191970" points="1432.1955,-32.4874 1439.8045,-25.1149 1429.2587,-26.1332 1432.1955,-32.4874"/>
</g>
<!-- Node11 -->
<g id="node12" class="node">
<title>Node11</title>
<polygon fill="none" stroke="#bfbfbf" points="1501.5,-6 1501.5,-25 1594.5,-25 1594.5,-6 1501.5,-6"/>
<text text-anchor="middle" x="1548" y="-13" font-family="Helvetica,sans-Serif" font-size="10.00" fill="#000000">unordered_map</text>
</g>
<!-- Node1&#45;&gt;Node11 -->
<g id="edge11" class="edge">
<title>Node1&#45;&gt;Node11</title>
<path fill="none" stroke="#191970" d="M1355.9322,-67.4876C1390.7461,-58.2482 1445.0239,-43.7826 1492,-31 1495.8327,-29.9571 1499.8112,-28.8683 1503.8,-27.7725"/>
<polygon fill="#191970" stroke="#191970" points="1504.948,-31.0866 1513.659,-25.0559 1503.0885,-24.3381 1504.948,-31.0866"/>
</g>
<!-- Node12 -->
<g id="node13" class="node">
<title>Node12</title>
<polygon fill="none" stroke="#bfbfbf" points="1612.5,-6 1612.5,-25 1713.5,-25 1713.5,-6 1612.5,-6"/>
<text text-anchor="middle" x="1663" y="-13" font-family="Helvetica,sans-Serif" font-size="10.00" fill="#000000">FairMQMessage.h</text>
</g>
<!-- Node1&#45;&gt;Node12 -->
<g id="edge12" class="edge">
<title>Node1&#45;&gt;Node12</title>
<path fill="none" stroke="#191970" d="M1389.8195,-67.4718C1447.2997,-59.1918 1530.7809,-46.1644 1603,-31 1608.0046,-29.9492 1613.2191,-28.7542 1618.3932,-27.5049"/>
<polygon fill="#191970" stroke="#191970" points="1619.3678,-30.8692 1628.2274,-25.0589 1617.6782,-24.0761 1619.3678,-30.8692"/>
</g>
<!-- Node13 -->
<g id="node14" class="node">
<title>Node13</title>
<polygon fill="none" stroke="#bfbfbf" points="1731.5,-6 1731.5,-25 1868.5,-25 1868.5,-6 1731.5,-6"/>
<text text-anchor="middle" x="1800" y="-13" font-family="Helvetica,sans-Serif" font-size="10.00" fill="#000000">FairMQTransportFactory.h</text>
</g>
<!-- Node1&#45;&gt;Node13 -->
<g id="edge13" class="edge">
<title>Node1&#45;&gt;Node13</title>
<path fill="none" stroke="#191970" d="M1423.8616,-67.5936C1505.4419,-59.6151 1621.7861,-46.9341 1723,-31 1730.3992,-29.8351 1738.1682,-28.4566 1745.8076,-27.0096"/>
<polygon fill="#191970" stroke="#191970" points="1746.5854,-30.424 1755.7338,-25.0802 1745.2497,-23.5526 1746.5854,-30.424"/>
</g>
<!-- Node14 -->
<g id="node15" class="node">
<title>Node14</title>
<polygon fill="none" stroke="#bfbfbf" points="1887,-6 1887,-25 2037,-25 2037,-6 1887,-6"/>
<text text-anchor="middle" x="1962" y="-13" font-family="Helvetica,sans-Serif" font-size="10.00" fill="#000000">fairmq/MemoryResources.h</text>
</g>
<!-- Node1&#45;&gt;Node14 -->
<g id="edge14" class="edge">
<title>Node1&#45;&gt;Node14</title>
<path fill="none" stroke="#191970" d="M1423.6027,-68.203C1428.4695,-67.7951 1433.2876,-67.3925 1438,-67 1633.5321,-50.7157 1683.4993,-56.8349 1878,-31 1886.7582,-29.8367 1895.9895,-28.3753 1904.9993,-26.8176"/>
<polygon fill="#191970" stroke="#191970" points="1905.8094,-30.2285 1915.0405,-25.0288 1904.5816,-23.337 1905.8094,-30.2285"/>
</g>
<!-- Node15 -->
<g id="node16" class="node">
<title>Node15</title>
<polygon fill="none" stroke="#bfbfbf" points="2055,-6 2055,-25 2225,-25 2225,-6 2055,-6"/>
<text text-anchor="middle" x="2140" y="-13" font-family="Helvetica,sans-Serif" font-size="10.00" fill="#000000">fairmq/MemoryResourceTools.h</text>
</g>
<!-- Node1&#45;&gt;Node15 -->
<g id="edge15" class="edge">
<title>Node1&#45;&gt;Node15</title>
<path fill="none" stroke="#191970" d="M1423.5925,-68.0712C1428.462,-67.6986 1433.2835,-67.3394 1438,-67 1707.9972,-47.5693 1776.9789,-61.0615 2046,-31 2056.3389,-29.8447 2067.2719,-28.3214 2077.8828,-26.6807"/>
<polygon fill="#191970" stroke="#191970" points="2078.6031,-30.1102 2087.9276,-25.0799 2077.5014,-23.1974 2078.6031,-30.1102"/>
</g>
<!-- Node16 -->
<g id="node17" class="node">
<title>Node16</title>
<g id="a_node17"><a xlink:href="../../d7/df8/Types_8h.html" target="_top" xlink:title="Types.h">
<polygon fill="none" stroke="#000000" points="644.5,-6 644.5,-25 697.5,-25 697.5,-6 644.5,-6"/>
<text text-anchor="middle" x="671" y="-13" font-family="Helvetica,sans-Serif" font-size="10.00" fill="#000000">Types.h</text>
</a>
</g>
</g>
<!-- Node1&#45;&gt;Node16 -->
<g id="edge16" class="edge">
<title>Node1&#45;&gt;Node16</title>
<path fill="none" stroke="#191970" d="M1216.3217,-73.5073C1067.174,-67.7537 799.7026,-54.5113 706,-31 703.6614,-30.4132 701.2827,-29.6814 698.9221,-28.8575"/>
<polygon fill="#191970" stroke="#191970" points="700.0557,-25.5416 689.4706,-25.0875 697.4622,-32.0434 700.0557,-25.5416"/>
</g>
<!-- Node17&#45;&gt;Node6 -->
<g id="edge21" class="edge">
<title>Node17&#45;&gt;Node6</title>
<path fill="none" stroke="#191970" d="M450.4063,-67.3906C467.4353,-57.4165 494.2841,-41.6908 513.9651,-30.1633"/>
<polygon fill="#191970" stroke="#191970" points="515.849,-33.1161 522.709,-25.0419 512.3112,-27.0759 515.849,-33.1161"/>
</g>
<!-- Node17&#45;&gt;Node7 -->
<g id="edge24" class="edge">
<title>Node17&#45;&gt;Node7</title>
<path fill="none" stroke="#191970" d="M467.3478,-67.4416C495.8156,-58.9333 537.6406,-45.6016 573,-31 574.1888,-30.5091 575.3952,-29.9921 576.608,-29.4568"/>
<polygon fill="#191970" stroke="#191970" points="578.2767,-32.54 585.8434,-25.124 575.3036,-26.2027 578.2767,-32.54"/>
</g>
<!-- Node17&#45;&gt;Node16 -->
<g id="edge26" class="edge">
<title>Node17&#45;&gt;Node16</title>
<path fill="none" stroke="#191970" d="M487.6175,-67.4825C528.527,-59.5623 585.9997,-47.0087 635,-31 637.1022,-30.3132 639.2508,-29.551 641.4002,-28.7435"/>
<polygon fill="#191970" stroke="#191970" points="642.7157,-31.987 650.687,-25.0079 640.1033,-25.4927 642.7157,-31.987"/>
</g>
<!-- Node18 -->
<g id="node19" class="node">
<title>Node18</title>
<polygon fill="none" stroke="#bfbfbf" points="300,-6 300,-25 350,-25 350,-6 300,-6"/>
<text text-anchor="middle" x="325" y="-13" font-family="Helvetica,sans-Serif" font-size="10.00" fill="#000000">cstdint</text>
</g>
<!-- Node17&#45;&gt;Node18 -->
<g id="edge18" class="edge">
<title>Node17&#45;&gt;Node18</title>
<path fill="none" stroke="#191970" d="M416.9688,-67.3906C399.211,-57.3713 371.167,-41.5483 350.7118,-30.0071"/>
<polygon fill="#191970" stroke="#191970" points="352.3409,-26.9077 341.9117,-25.0419 348.9011,-33.0042 352.3409,-26.9077"/>
</g>
<!-- Node19 -->
<g id="node20" class="node">
<title>Node19</title>
<polygon fill="none" stroke="#bfbfbf" points="368,-6 368,-25 426,-25 426,-6 368,-6"/>
<text text-anchor="middle" x="397" y="-13" font-family="Helvetica,sans-Serif" font-size="10.00" fill="#000000">memory</text>
</g>
<!-- Node17&#45;&gt;Node19 -->
<g id="edge19" class="edge">
<title>Node17&#45;&gt;Node19</title>
<path fill="none" stroke="#191970" d="M428.2188,-67.3906C422.874,-58.5068 414.7841,-45.0601 408.1789,-34.0811"/>
<polygon fill="#191970" stroke="#191970" points="411.0171,-32.0093 402.8628,-25.2449 405.0189,-35.618 411.0171,-32.0093"/>
</g>
<!-- Node20 -->
<g id="node21" class="node">
<title>Node20</title>
<polygon fill="none" stroke="#bfbfbf" points="444,-6 444,-25 496,-25 496,-6 444,-6"/>
<text text-anchor="middle" x="470" y="-13" font-family="Helvetica,sans-Serif" font-size="10.00" fill="#000000">cassert</text>
</g>
<!-- Node17&#45;&gt;Node20 -->
<g id="edge20" class="edge">
<title>Node17&#45;&gt;Node20</title>
<path fill="none" stroke="#191970" d="M439.625,-67.3906C444.8253,-58.5068 452.6966,-45.0601 459.1233,-34.0811"/>
<polygon fill="#191970" stroke="#191970" points="462.2644,-35.6432 464.2957,-25.2449 456.2233,-32.1069 462.2644,-35.6432"/>
</g>
<!-- Node21 -->
<g id="node22" class="node">
<title>Node21</title>
<polygon fill="none" stroke="#bfbfbf" points="0,-6 0,-25 64,-25 64,-6 0,-6"/>
<text text-anchor="middle" x="32" y="-13" font-family="Helvetica,sans-Serif" font-size="10.00" fill="#000000">algorithm</text>
</g>
<!-- Node17&#45;&gt;Node21 -->
<g id="edge22" class="edge">
<title>Node17&#45;&gt;Node21</title>
<path fill="none" stroke="#191970" d="M370.2381,-73.4093C297.4465,-68.27 175.2303,-56.4612 73,-31 70.1617,-30.2931 67.2514,-29.4491 64.3548,-28.525"/>
<polygon fill="#191970" stroke="#191970" points="65.2781,-25.1404 54.6832,-25.1578 62.9765,-31.7512 65.2781,-25.1404"/>
</g>
<!-- Node22 -->
<g id="node23" class="node">
<title>Node22</title>
<polygon fill="none" stroke="#bfbfbf" points="82.5,-6 82.5,-25 147.5,-25 147.5,-6 82.5,-6"/>
<text text-anchor="middle" x="115" y="-13" font-family="Helvetica,sans-Serif" font-size="10.00" fill="#000000">stdexcept</text>
</g>
<!-- Node17&#45;&gt;Node22 -->
<g id="edge23" class="edge">
<title>Node17&#45;&gt;Node22</title>
<path fill="none" stroke="#191970" d="M370.2958,-69.8964C313.6808,-62.7639 228.9793,-50.075 157,-31 154.1826,-30.2534 151.2894,-29.3929 148.4031,-28.4679"/>
<polygon fill="#191970" stroke="#191970" points="149.3309,-25.0859 138.7362,-25.1465 147.0562,-31.7061 149.3309,-25.0859"/>
</g>
<!-- Node23 -->
<g id="node24" class="node">
<title>Node23</title>
<polygon fill="none" stroke="#bfbfbf" points="166,-6 166,-25 216,-25 216,-6 166,-6"/>
<text text-anchor="middle" x="191" y="-13" font-family="Helvetica,sans-Serif" font-size="10.00" fill="#000000">climits</text>
</g>
<!-- Node17&#45;&gt;Node23 -->
<g id="edge25" class="edge">
<title>Node17&#45;&gt;Node23</title>
<path fill="none" stroke="#191970" d="M374.9957,-67.4521C332.6322,-59.7705 274.5142,-47.5288 225,-31 223.154,-30.3838 221.2737,-29.6991 219.3925,-28.9705"/>
<polygon fill="#191970" stroke="#191970" points="220.7087,-25.7271 210.134,-25.0749 217.9939,-32.1793 220.7087,-25.7271"/>
</g>
<!-- Node24 -->
<g id="node25" class="node">
<title>Node24</title>
<polygon fill="none" stroke="#bfbfbf" points="234.5,-6 234.5,-25 281.5,-25 281.5,-6 234.5,-6"/>
<text text-anchor="middle" x="258" y="-13" font-family="Helvetica,sans-Serif" font-size="10.00" fill="#000000">cerrno</text>
</g>
<!-- Node17&#45;&gt;Node24 -->
<g id="edge27" class="edge">
<title>Node17&#45;&gt;Node24</title>
<path fill="none" stroke="#191970" d="M400.056,-67.415C370.8087,-58.8411 327.6407,-45.4299 291,-31 289.6013,-30.4491 288.178,-29.8671 286.7469,-29.2644"/>
<polygon fill="#191970" stroke="#191970" points="287.923,-25.9572 277.363,-25.0985 285.0827,-32.355 287.923,-25.9572"/>
</g>
<!-- Node25&#45;&gt;Node1 -->
<g id="edge29" class="edge">
<title>Node25&#45;&gt;Node1</title>
<path fill="none" stroke="#191970" d="M1288.6191,-123.2455C1293.9046,-115.4564 1301.4541,-104.3308 1307.8238,-94.9439"/>
<polygon fill="#191970" stroke="#191970" points="1310.7379,-96.8827 1313.4568,-86.6427 1304.9455,-92.9522 1310.7379,-96.8827"/>
</g>
<!-- Node25&#45;&gt;Node17 -->
<g id="edge30" class="edge">
<title>Node25&#45;&gt;Node17</title>
<path fill="none" stroke="#191970" d="M1233.9782,-129.8287C1092.6876,-120.4982 677.6999,-93.0934 507.8035,-81.8738"/>
<polygon fill="#191970" stroke="#191970" points="507.9115,-78.3734 497.7026,-81.2068 507.4502,-85.3582 507.9115,-78.3734"/>
</g>
</g>
</svg>
        <g id="navigator" transform="translate(0 0)" fill="#404254">
                <rect fill="#f2f5e9" fill-opacity="0.5" stroke="#606060" stroke-width=".5" x="0" y="0" width="60" height="60"/>
                <use id="zoomplus" xlink:href="#zoomPlus" x="17" y="9" onmousedown="handleZoom(evt,'in')"/>
                <use id="zoomminus" xlink:href="#zoomMin" x="42" y="9" onmousedown="handleZoom(evt,'out')"/>
                <use id="reset" xlink:href="#resetDef" x="30" y="36" onmousedown="handleReset()"/>
                <g id="arrowUp" xlink:href="#dirArrow" transform="translate(30 24)" onmousedown="handlePan(0,-1)">
                  <use xlink:href="#rim" fill="#404040">
                        <set attributeName="fill" to="#808080" begin="arrowUp.mouseover" end="arrowUp.mouseout"/>
                  </use>
                  <path fill="none" stroke="white" stroke-width="1.5" d="M0,-3.0v7 M-2.5,-0.5L0,-3.0L2.5,-0.5"/>
                </g>
                <g id="arrowRight" xlink:href="#dirArrow" transform="rotate(90) translate(36 -43)" onmousedown="handlePan(1,0)">
                  <use xlink:href="#rim" fill="#404040">
                        <set attributeName="fill" to="#808080" begin="arrowRight.mouseover" end="arrowRight.mouseout"/>
                  </use>
                  <path fill="none" stroke="white" stroke-width="1.5" d="M0,-3.0v7 M-2.5,-0.5L0,-3.0L2.5,-0.5"/>
                </g>
                <g id="arrowDown" xlink:href="#dirArrow" transform="rotate(180) translate(-30 -48)" onmousedown="handlePan(0,1)">
                  <use xlink:href="#rim" fill="#404040">
                        <set attributeName="fill" to="#808080" begin="arrowDown.mouseover" end="arrowDown.mouseout"/>
                  </use>
                  <path fill="none" stroke="white" stroke-width="1.5" d="M0,-3.0v7 M-2.5,-0.5L0,-3.0L2.5,-0.5"/>
                </g>
                <g id="arrowLeft" xlink:href="#dirArrow" transform="rotate(270) translate(-36 17)" onmousedown="handlePan(-1,0)">
                  <use xlink:href="#rim" fill="#404040">
                        <set attributeName="fill" to="#808080" begin="arrowLeft.mouseover" end="arrowLeft.mouseout"/>
                  </use>
                  <path fill="none" stroke="white" stroke-width="1.5" d="M0,-3.0v7 M-2.5,-0.5L0,-3.0L2.5,-0.5"/>
                </g>
        </g>
        <svg viewBox="0 0 15 15" width="100%" height="30px" preserveAspectRatio="xMaxYMin meet">
         <g id="arrow_out" transform="scale(0.3 0.3)">
          <a xlink:href="Utilities_8h__incl_org.svg" target="_base">
           <rect id="button" ry="5" rx="5" y="6" x="6" height="38" width="38"
                fill="#f2f5e9" fill-opacity="0.5" stroke="#606060" stroke-width="1.0"/>
           <path id="arrow"
             d="M 11.500037,31.436501 C 11.940474,20.09759 22.043105,11.32322 32.158766,21.979434 L 37.068811,17.246167 C 37.068811,17.246167 37.088388,32 37.088388,32 L 22.160133,31.978069 C 22.160133,31.978069 26.997745,27.140456 26.997745,27.140456 C 18.528582,18.264221 13.291696,25.230495 11.500037,31.436501 z"
             style="fill:#404040;"/>
          </a>
         </g>
        </svg>
</svg>
