<?xml version="1.0" encoding="UTF-8" standalone="no"?>
<!DOCTYPE svg PUBLIC "-//W3C//DTD SVG 1.1//EN"
 "http://www.w3.org/Graphics/SVG/1.1/DTD/svg11.dtd">
<!-- Generated by graphviz version 2.40.1 (20161225.0304)
 -->
<!-- Title: o2::tpc::TrackInterpolation::CacheStruct Pages: 1 -->
<svg width="280pt" height="248pt"
 viewBox="0.00 0.00 280.00 248.00" xmlns="http://www.w3.org/2000/svg" xmlns:xlink="http://www.w3.org/1999/xlink">
<g id="graph0" class="graph" transform="scale(1 1) rotate(0) translate(4 244)">
<title>o2::tpc::TrackInterpolation::CacheStruct</title>
<!-- Node1 -->
<g id="node1" class="node">
<title>Node1</title>
<polygon fill="#bfbfbf" stroke="#000000" points="51.5,-.5 51.5,-68.5 194.5,-68.5 194.5,-.5 51.5,-.5"/>
<text text-anchor="start" x="59.5" y="-56.5" font-family="Helvetica,sans-Serif" font-size="10.00" fill="#000000">o2::tpc::TrackInterpolation</text>
<text text-anchor="middle" x="123" y="-45.5" font-family="Helvetica,sans-Serif" font-size="10.00" fill="#000000">::CacheStruct</text>
<polyline fill="none" stroke="#000000" points="51.5,-38.5 194.5,-38.5 "/>
<text text-anchor="middle" x="123" y="-26.5" font-family="Helvetica,sans-Serif" font-size="10.00" fill="#000000"> </text>
<polyline fill="none" stroke="#000000" points="51.5,-19.5 194.5,-19.5 "/>
<text text-anchor="middle" x="123" y="-7.5" font-family="Helvetica,sans-Serif" font-size="10.00" fill="#000000"> </text>
</g>
<!-- Node2 -->
<g id="node2" class="node">
<title>Node2</title>
<g id="a_node2"><a xlink:href="../../d4/dc3/classfloat.html" target="_top" xlink:title="{float\n||}">
<polygon fill="none" stroke="#000000" points="0,-182.5 0,-239.5 38,-239.5 38,-182.5 0,-182.5"/>
<text text-anchor="middle" x="19" y="-227.5" font-family="Helvetica,sans-Serif" font-size="10.00" fill="#000000">float</text>
<polyline fill="none" stroke="#000000" points="0,-220.5 38,-220.5 "/>
<text text-anchor="middle" x="19" y="-208.5" font-family="Helvetica,sans-Serif" font-size="10.00" fill="#000000"> </text>
<polyline fill="none" stroke="#000000" points="0,-201.5 38,-201.5 "/>
<text text-anchor="middle" x="19" y="-189.5" font-family="Helvetica,sans-Serif" font-size="10.00" fill="#000000"> </text>
</a>
</g>
</g>
<!-- Node2&#45;&gt;Node1 -->
<g id="edge1" class="edge">
<title>Node2&#45;&gt;Node1</title>
<path fill="none" stroke="#404040" d="M28.618,-182.2923C38.0542,-156.232 53.9322,-117.3509 74,-87 75.934,-84.075 78.0344,-81.159 80.2415,-78.2854"/>
<polygon fill="none" stroke="#404040" points="80.466,-78.0112 81.1725,-70.8348 88.0687,-68.7268 87.3621,-75.9032 80.466,-78.0112"/>
<text text-anchor="middle" x="96.5" y="-134" font-family="Helvetica,sans-Serif" font-size="10.00" fill="#000000"> +clY</text>
<text text-anchor="middle" x="96.5" y="-123" font-family="Helvetica,sans-Serif" font-size="10.00" fill="#000000">+clZ</text>
<text text-anchor="middle" x="96.5" y="-112" font-family="Helvetica,sans-Serif" font-size="10.00" fill="#000000">+clAngle</text>
</g>
<!-- Node3 -->
<g id="node3" class="node">
<title>Node3</title>
<polygon fill="none" stroke="#bfbfbf" points="56,-182.5 56,-239.5 190,-239.5 190,-182.5 56,-182.5"/>
<text text-anchor="middle" x="123" y="-227.5" font-family="Helvetica,sans-Serif" font-size="10.00" fill="#000000">array&lt; float, NIndices &gt;</text>
<polyline fill="none" stroke="#bfbfbf" points="56,-220.5 190,-220.5 "/>
<text text-anchor="middle" x="123" y="-208.5" font-family="Helvetica,sans-Serif" font-size="10.00" fill="#000000"> </text>
<polyline fill="none" stroke="#bfbfbf" points="56,-201.5 190,-201.5 "/>
<text text-anchor="middle" x="123" y="-189.5" font-family="Helvetica,sans-Serif" font-size="10.00" fill="#000000"> </text>
</g>
<!-- Node3&#45;&gt;Node1 -->
<g id="edge2" class="edge">
<title>Node3&#45;&gt;Node1</title>
<path fill="none" stroke="#404040" d="M123,-182.2494C123,-154.8266 123,-113.0563 123,-80.9167"/>
<polygon fill="none" stroke="#404040" points="123.0001,-80.683 119,-74.683 123,-68.683 127,-74.683 123.0001,-80.683"/>
<text text-anchor="middle" x="137" y="-156" font-family="Helvetica,sans-Serif" font-size="10.00" fill="#000000"> +sz2</text>
<text text-anchor="middle" x="137" y="-145" font-family="Helvetica,sans-Serif" font-size="10.00" fill="#000000">+sy2</text>
<text text-anchor="middle" x="137" y="-134" font-family="Helvetica,sans-Serif" font-size="10.00" fill="#000000">+phi</text>
<text text-anchor="middle" x="137" y="-123" font-family="Helvetica,sans-Serif" font-size="10.00" fill="#000000">+szy</text>
<text text-anchor="middle" x="137" y="-112" font-family="Helvetica,sans-Serif" font-size="10.00" fill="#000000">+tgl</text>
<text text-anchor="middle" x="137" y="-101" font-family="Helvetica,sans-Serif" font-size="10.00" fill="#000000">+y</text>
<text text-anchor="middle" x="137" y="-90" font-family="Helvetica,sans-Serif" font-size="10.00" fill="#000000">+z</text>
</g>
<!-- Node4 -->
<g id="node4" class="node">
<title>Node4</title>
<polygon fill="none" stroke="#bfbfbf" points="208.5,-182.5 208.5,-239.5 269.5,-239.5 269.5,-182.5 208.5,-182.5"/>
<text text-anchor="middle" x="239" y="-227.5" font-family="Helvetica,sans-Serif" font-size="10.00" fill="#000000">unsigned</text>
<polyline fill="none" stroke="#bfbfbf" points="208.5,-220.5 269.5,-220.5 "/>
<text text-anchor="middle" x="239" y="-208.5" font-family="Helvetica,sans-Serif" font-size="10.00" fill="#000000"> </text>
<polyline fill="none" stroke="#bfbfbf" points="208.5,-201.5 269.5,-201.5 "/>
<text text-anchor="middle" x="239" y="-189.5" font-family="Helvetica,sans-Serif" font-size="10.00" fill="#000000"> </text>
</g>
<!-- Node4&#45;&gt;Node1 -->
<g id="edge3" class="edge">
<title>Node4&#45;&gt;Node1</title>
<path fill="none" stroke="#404040" d="M220.1044,-182.2494C201.6828,-154.2199 173.4098,-111.2011 152.1137,-78.798"/>
<polygon fill="none" stroke="#404040" points="152.0566,-78.7111 145.4185,-75.894 145.4659,-68.683 152.1039,-71.5001 152.0566,-78.7111"/>
<text text-anchor="middle" x="239.5" y="-123" font-family="Helvetica,sans-Serif" font-size="10.00" fill="#000000"> +clAvailable</text>
</g>
</g>
</svg>
