<?xml version="1.0" encoding="UTF-8" standalone="no"?>
<!DOCTYPE svg PUBLIC "-//W3C//DTD SVG 1.1//EN"
 "http://www.w3.org/Graphics/SVG/1.1/DTD/svg11.dtd">
<!-- Generated by graphviz version 2.40.1 (20161225.0304)
 -->
<!-- Title: o2::AliceHLT::RawClusterData Pages: 1 -->
<svg width="249pt" height="430pt"
 viewBox="0.00 0.00 249.00 430.00" xmlns="http://www.w3.org/2000/svg" xmlns:xlink="http://www.w3.org/1999/xlink">
<g id="graph0" class="graph" transform="scale(1 1) rotate(0) translate(4 426)">
<title>o2::AliceHLT::RawClusterData</title>
<!-- Node1 -->
<g id="node1" class="node">
<title>Node1</title>
<polygon fill="#bfbfbf" stroke="#000000" points="76,-.5 76,-57.5 236,-57.5 236,-.5 76,-.5"/>
<text text-anchor="middle" x="156" y="-45.5" font-family="Helvetica,sans-Serif" font-size="10.00" fill="#000000">o2::AliceHLT::RawClusterData</text>
<polyline fill="none" stroke="#000000" points="76,-38.5 236,-38.5 "/>
<text text-anchor="middle" x="156" y="-26.5" font-family="Helvetica,sans-Serif" font-size="10.00" fill="#000000"> </text>
<polyline fill="none" stroke="#000000" points="76,-19.5 236,-19.5 "/>
<text text-anchor="middle" x="156" y="-7.5" font-family="Helvetica,sans-Serif" font-size="10.00" fill="#000000"> </text>
</g>
<!-- Node2 -->
<g id="node2" class="node">
<title>Node2</title>
<g id="a_node2"><a xlink:href="../../d7/d0a/structo2_1_1AliceHLT_1_1RawCluster.html" target="_top" xlink:title="{o2::AliceHLT::RawCluster\n||+ GetPadRow()\l+ GetPad()\l+ GetTime()\l+ GetSigmaPad2()\l+ GetSigmaTime2()\l+ GetCharge()\l+ GetQMax()\l+ GetFlagSplitPad()\l+ GetFlagSplitTime()\l+ GetFlagSplitAny()\l+ GetFlags()\l}">
<polygon fill="none" stroke="#000000" points="29.5,-116.5 29.5,-283.5 166.5,-283.5 166.5,-116.5 29.5,-116.5"/>
<text text-anchor="middle" x="98" y="-271.5" font-family="Helvetica,sans-Serif" font-size="10.00" fill="#000000">o2::AliceHLT::RawCluster</text>
<polyline fill="none" stroke="#000000" points="29.5,-264.5 166.5,-264.5 "/>
<text text-anchor="middle" x="98" y="-252.5" font-family="Helvetica,sans-Serif" font-size="10.00" fill="#000000"> </text>
<polyline fill="none" stroke="#000000" points="29.5,-245.5 166.5,-245.5 "/>
<text text-anchor="start" x="37.5" y="-233.5" font-family="Helvetica,sans-Serif" font-size="10.00" fill="#000000">+ GetPadRow()</text>
<text text-anchor="start" x="37.5" y="-222.5" font-family="Helvetica,sans-Serif" font-size="10.00" fill="#000000">+ GetPad()</text>
<text text-anchor="start" x="37.5" y="-211.5" font-family="Helvetica,sans-Serif" font-size="10.00" fill="#000000">+ GetTime()</text>
<text text-anchor="start" x="37.5" y="-200.5" font-family="Helvetica,sans-Serif" font-size="10.00" fill="#000000">+ GetSigmaPad2()</text>
<text text-anchor="start" x="37.5" y="-189.5" font-family="Helvetica,sans-Serif" font-size="10.00" fill="#000000">+ GetSigmaTime2()</text>
<text text-anchor="start" x="37.5" y="-178.5" font-family="Helvetica,sans-Serif" font-size="10.00" fill="#000000">+ GetCharge()</text>
<text text-anchor="start" x="37.5" y="-167.5" font-family="Helvetica,sans-Serif" font-size="10.00" fill="#000000">+ GetQMax()</text>
<text text-anchor="start" x="37.5" y="-156.5" font-family="Helvetica,sans-Serif" font-size="10.00" fill="#000000">+ GetFlagSplitPad()</text>
<text text-anchor="start" x="37.5" y="-145.5" font-family="Helvetica,sans-Serif" font-size="10.00" fill="#000000">+ GetFlagSplitTime()</text>
<text text-anchor="start" x="37.5" y="-134.5" font-family="Helvetica,sans-Serif" font-size="10.00" fill="#000000">+ GetFlagSplitAny()</text>
<text text-anchor="start" x="37.5" y="-123.5" font-family="Helvetica,sans-Serif" font-size="10.00" fill="#000000">+ GetFlags()</text>
</a>
</g>
</g>
<!-- Node2&#45;&gt;Node1 -->
<g id="edge1" class="edge">
<title>Node2&#45;&gt;Node1</title>
<path fill="none" stroke="#404040" d="M104.5245,-116.1728C107.3692,-102.3802 111.3759,-88.5152 117,-76 118.255,-73.2074 119.723,-70.4468 121.3401,-67.7465"/>
<polygon fill="none" stroke="#404040" points="121.431,-67.6127 121.4983,-60.4019 128.1803,-57.6906 128.113,-64.9014 121.431,-67.6127"/>
<text text-anchor="middle" x="144.5" y="-84.5" font-family="Helvetica,sans-Serif" font-size="10.00" fill="#000000"> +fClusters</text>
</g>
<!-- Node3 -->
<g id="node3" class="node">
<title>Node3</title>
<polygon fill="none" stroke="#bfbfbf" points="0,-364.5 0,-421.5 56,-421.5 56,-364.5 0,-364.5"/>
<text text-anchor="middle" x="28" y="-409.5" font-family="Helvetica,sans-Serif" font-size="10.00" fill="#000000">uint16_t</text>
<polyline fill="none" stroke="#bfbfbf" points="0,-402.5 56,-402.5 "/>
<text text-anchor="middle" x="28" y="-390.5" font-family="Helvetica,sans-Serif" font-size="10.00" fill="#000000"> </text>
<polyline fill="none" stroke="#bfbfbf" points="0,-383.5 56,-383.5 "/>
<text text-anchor="middle" x="28" y="-371.5" font-family="Helvetica,sans-Serif" font-size="10.00" fill="#000000"> </text>
</g>
<!-- Node3&#45;&gt;Node2 -->
<g id="edge2" class="edge">
<title>Node3&#45;&gt;Node2</title>
<path fill="none" stroke="#404040" d="M32.0599,-364.2053C35.0953,-346.044 39.9481,-322.2738 47,-302 47.8257,-299.626 48.695,-297.2367 49.6014,-294.8393"/>
<polygon fill="none" stroke="#404040" points="49.6433,-294.7342 48.152,-287.679 54.0909,-283.5889 55.5822,-290.6441 49.6433,-294.7342"/>
<text text-anchor="middle" x="70.5" y="-332.5" font-family="Helvetica,sans-Serif" font-size="10.00" fill="#000000"> +fQMax</text>
<text text-anchor="middle" x="70.5" y="-321.5" font-family="Helvetica,sans-Serif" font-size="10.00" fill="#000000">+fCharge</text>
<text text-anchor="middle" x="70.5" y="-310.5" font-family="Helvetica,sans-Serif" font-size="10.00" fill="#000000">+fFlags</text>
</g>
<!-- Node4 -->
<g id="node4" class="node">
<title>Node4</title>
<g id="a_node4"><a xlink:href="../../d4/dc3/classfloat.html" target="_top" xlink:title="{float\n||}">
<polygon fill="none" stroke="#000000" points="79,-364.5 79,-421.5 117,-421.5 117,-364.5 79,-364.5"/>
<text text-anchor="middle" x="98" y="-409.5" font-family="Helvetica,sans-Serif" font-size="10.00" fill="#000000">float</text>
<polyline fill="none" stroke="#000000" points="79,-402.5 117,-402.5 "/>
<text text-anchor="middle" x="98" y="-390.5" font-family="Helvetica,sans-Serif" font-size="10.00" fill="#000000"> </text>
<polyline fill="none" stroke="#000000" points="79,-383.5 117,-383.5 "/>
<text text-anchor="middle" x="98" y="-371.5" font-family="Helvetica,sans-Serif" font-size="10.00" fill="#000000"> </text>
</a>
</g>
</g>
<!-- Node4&#45;&gt;Node2 -->
<g id="edge3" class="edge">
<title>Node4&#45;&gt;Node2</title>
<path fill="none" stroke="#404040" d="M98,-364.1059C98,-345.7609 98,-320.8652 98,-296.0126"/>
<polygon fill="none" stroke="#404040" points="98.0001,-295.8446 94,-289.8446 98,-283.8446 102,-289.8445 98.0001,-295.8446"/>
<text text-anchor="middle" x="135" y="-338" font-family="Helvetica,sans-Serif" font-size="10.00" fill="#000000"> +fTime</text>
<text text-anchor="middle" x="135" y="-327" font-family="Helvetica,sans-Serif" font-size="10.00" fill="#000000">+fPad</text>
<text text-anchor="middle" x="135" y="-316" font-family="Helvetica,sans-Serif" font-size="10.00" fill="#000000">+fSigmaTime2</text>
<text text-anchor="middle" x="135" y="-305" font-family="Helvetica,sans-Serif" font-size="10.00" fill="#000000">+fSigmaPad2</text>
</g>
<!-- Node5 -->
<g id="node5" class="node">
<title>Node5</title>
<polygon fill="none" stroke="#bfbfbf" points="170,-364.5 170,-421.5 220,-421.5 220,-364.5 170,-364.5"/>
<text text-anchor="middle" x="195" y="-409.5" font-family="Helvetica,sans-Serif" font-size="10.00" fill="#000000">int16_t</text>
<polyline fill="none" stroke="#bfbfbf" points="170,-402.5 220,-402.5 "/>
<text text-anchor="middle" x="195" y="-390.5" font-family="Helvetica,sans-Serif" font-size="10.00" fill="#000000"> </text>
<polyline fill="none" stroke="#bfbfbf" points="170,-383.5 220,-383.5 "/>
<text text-anchor="middle" x="195" y="-371.5" font-family="Helvetica,sans-Serif" font-size="10.00" fill="#000000"> </text>
</g>
<!-- Node5&#45;&gt;Node2 -->
<g id="edge4" class="edge">
<title>Node5&#45;&gt;Node2</title>
<path fill="none" stroke="#404040" d="M191.0347,-364.1505C187.7874,-345.7532 182.1905,-321.746 173,-302 171.787,-299.3939 170.5022,-296.7878 169.1561,-294.1886"/>
<polygon fill="none" stroke="#404040" points="169.0916,-294.0713 162.6937,-290.7445 163.3039,-283.5592 169.7018,-286.886 169.0916,-294.0713"/>
<text text-anchor="middle" x="213.5" y="-321.5" font-family="Helvetica,sans-Serif" font-size="10.00" fill="#000000"> +fPadRow</text>
</g>
<!-- Node6 -->
<g id="node6" class="node">
<title>Node6</title>
<g id="a_node6"><a xlink:href="../../d3/d87/classuint32__t.html" target="_top" xlink:title="{uint32_t\n||}">
<polygon fill="none" stroke="#000000" points="185,-171.5 185,-228.5 241,-228.5 241,-171.5 185,-171.5"/>
<text text-anchor="middle" x="213" y="-216.5" font-family="Helvetica,sans-Serif" font-size="10.00" fill="#000000">uint32_t</text>
<polyline fill="none" stroke="#000000" points="185,-209.5 241,-209.5 "/>
<text text-anchor="middle" x="213" y="-197.5" font-family="Helvetica,sans-Serif" font-size="10.00" fill="#000000"> </text>
<polyline fill="none" stroke="#000000" points="185,-190.5 241,-190.5 "/>
<text text-anchor="middle" x="213" y="-178.5" font-family="Helvetica,sans-Serif" font-size="10.00" fill="#000000"> </text>
</a>
</g>
</g>
<!-- Node6&#45;&gt;Node1 -->
<g id="edge5" class="edge">
<title>Node6&#45;&gt;Node1</title>
<path fill="none" stroke="#404040" d="M205.3784,-171.1375C198.4573,-145.8143 187.5856,-108.1224 176,-76 175.1538,-73.6539 174.2522,-71.256 173.3175,-68.846"/>
<polygon fill="none" stroke="#404040" points="173.2812,-68.7562 167.3251,-64.6911 168.7866,-57.6297 174.7427,-61.6947 173.2812,-68.7562"/>
<text text-anchor="middle" x="206.5" y="-90" font-family="Helvetica,sans-Serif" font-size="10.00" fill="#000000"> +fCount</text>
<text text-anchor="middle" x="206.5" y="-79" font-family="Helvetica,sans-Serif" font-size="10.00" fill="#000000">+fVersion</text>
</g>
</g>
</svg>
