<?xml version="1.0" encoding="UTF-8" standalone="no"?>
<!DOCTYPE svg PUBLIC "-//W3C//DTD SVG 1.1//EN"
 "http://www.w3.org/Graphics/SVG/1.1/DTD/svg11.dtd">
<!-- Generated by graphviz version 2.40.1 (20161225.0304)
 -->
<!-- Title: o2::passive::Dipole Pages: 1 -->
<svg width="153pt" height="309pt"
 viewBox="0.00 0.00 153.00 309.00" xmlns="http://www.w3.org/2000/svg" xmlns:xlink="http://www.w3.org/1999/xlink">
<g id="graph0" class="graph" transform="scale(1 1) rotate(0) translate(4 305)">
<title>o2::passive::Dipole</title>
<!-- Node3 -->
<g id="node1" class="node">
<title>Node3</title>
<polygon fill="#bfbfbf" stroke="#000000" points="7,-.5 7,-101.5 138,-101.5 138,-.5 7,-.5"/>
<text text-anchor="middle" x="72.5" y="-89.5" font-family="Helvetica,sans-Serif" font-size="10.00" fill="#000000">o2::passive::Dipole</text>
<polyline fill="none" stroke="#000000" points="7,-82.5 138,-82.5 "/>
<text text-anchor="middle" x="72.5" y="-70.5" font-family="Helvetica,sans-Serif" font-size="10.00" fill="#000000"> </text>
<polyline fill="none" stroke="#000000" points="7,-63.5 138,-63.5 "/>
<text text-anchor="start" x="15" y="-51.5" font-family="Helvetica,sans-Serif" font-size="10.00" fill="#000000">+ Dipole()</text>
<text text-anchor="start" x="15" y="-40.5" font-family="Helvetica,sans-Serif" font-size="10.00" fill="#000000">+ Dipole()</text>
<text text-anchor="start" x="15" y="-29.5" font-family="Helvetica,sans-Serif" font-size="10.00" fill="#000000">+ ~Dipole()</text>
<text text-anchor="start" x="15" y="-18.5" font-family="Helvetica,sans-Serif" font-size="10.00" fill="#000000">+ ConstructGeometry()</text>
<text text-anchor="start" x="15" y="-7.5" font-family="Helvetica,sans-Serif" font-size="10.00" fill="#000000">+ CloneModule()</text>
</g>
<!-- Node4 -->
<g id="node2" class="node">
<title>Node4</title>
<g id="a_node2"><a xlink:href="../../d6/dfc/classo2_1_1passive_1_1PassiveBase.html" target="_top" xlink:title="a common base class for passive modules &#45; implementing generic functions ">
<polygon fill="none" stroke="#000000" points="0,-138.5 0,-206.5 145,-206.5 145,-138.5 0,-138.5"/>
<text text-anchor="middle" x="72.5" y="-194.5" font-family="Helvetica,sans-Serif" font-size="10.00" fill="#000000">o2::passive::PassiveBase</text>
<polyline fill="none" stroke="#000000" points="0,-187.5 145,-187.5 "/>
<text text-anchor="middle" x="72.5" y="-175.5" font-family="Helvetica,sans-Serif" font-size="10.00" fill="#000000"> </text>
<polyline fill="none" stroke="#000000" points="0,-168.5 145,-168.5 "/>
<text text-anchor="start" x="8" y="-156.5" font-family="Helvetica,sans-Serif" font-size="10.00" fill="#000000">+ SetSpecialPhysicsCuts()</text>
<text text-anchor="start" x="8" y="-145.5" font-family="Helvetica,sans-Serif" font-size="10.00" fill="#000000">+ ClassDefOverride()</text>
</a>
</g>
</g>
<!-- Node4&#45;&gt;Node3 -->
<g id="edge1" class="edge">
<title>Node4&#45;&gt;Node3</title>
<path fill="none" stroke="#191970" d="M72.5,-128.1349C72.5,-119.5408 72.5,-110.474 72.5,-101.6952"/>
<polygon fill="none" stroke="#191970" points="69.0001,-128.3321 72.5,-138.3321 76.0001,-128.3322 69.0001,-128.3321"/>
</g>
<!-- Node5 -->
<g id="node3" class="node">
<title>Node5</title>
<g id="a_node3"><a xlink:href="../../d4/d06/classFairModule.html" target="_top" xlink:title="{FairModule\n||}">
<polygon fill="none" stroke="#000000" points="38,-243.5 38,-300.5 107,-300.5 107,-243.5 38,-243.5"/>
<text text-anchor="middle" x="72.5" y="-288.5" font-family="Helvetica,sans-Serif" font-size="10.00" fill="#000000">FairModule</text>
<polyline fill="none" stroke="#000000" points="38,-281.5 107,-281.5 "/>
<text text-anchor="middle" x="72.5" y="-269.5" font-family="Helvetica,sans-Serif" font-size="10.00" fill="#000000"> </text>
<polyline fill="none" stroke="#000000" points="38,-262.5 107,-262.5 "/>
<text text-anchor="middle" x="72.5" y="-250.5" font-family="Helvetica,sans-Serif" font-size="10.00" fill="#000000"> </text>
</a>
</g>
</g>
<!-- Node5&#45;&gt;Node4 -->
<g id="edge2" class="edge">
<title>Node5&#45;&gt;Node4</title>
<path fill="none" stroke="#191970" d="M72.5,-233.4268C72.5,-224.6025 72.5,-215.2834 72.5,-206.6596"/>
<polygon fill="none" stroke="#191970" points="69.0001,-233.4873 72.5,-243.4873 76.0001,-233.4873 69.0001,-233.4873"/>
</g>
</g>
</svg>
