<?xml version="1.0" encoding="UTF-8" standalone="no"?>
<!DOCTYPE svg PUBLIC "-//W3C//DTD SVG 1.1//EN"
 "http://www.w3.org/Graphics/SVG/1.1/DTD/svg11.dtd">
<!-- Generated by graphviz version 2.40.1 (20161225.0304)
 -->
<!-- Title: /home/travis/build/AliceO2Group/AliceO2/Detectors/TRD/base/src/CalOnlineGainTables.cxx Pages: 1 -->
<svg width="2283pt" height="553pt"
 viewBox="0.00 0.00 2282.86 553.00" xmlns="http://www.w3.org/2000/svg" xmlns:xlink="http://www.w3.org/1999/xlink">
<g id="graph0" class="graph" transform="scale(1 1) rotate(0) translate(4 549)">
<title>/home/travis/build/AliceO2Group/AliceO2/Detectors/TRD/base/src/CalOnlineGainTables.cxx</title>
<!-- Node0 -->
<g id="node1" class="node">
<title>Node0</title>
<polygon fill="#bfbfbf" stroke="#000000" points="1994.8646,-492.5 1994.8646,-544.5 2134.8646,-544.5 2134.8646,-492.5 1994.8646,-492.5"/>
<text text-anchor="start" x="2002.8646" y="-532.5" font-family="Helvetica,sans-Serif" font-size="10.00" fill="#000000">/home/travis/build</text>
<text text-anchor="start" x="2002.8646" y="-521.5" font-family="Helvetica,sans-Serif" font-size="10.00" fill="#000000">/AliceO2Group/AliceO2</text>
<text text-anchor="start" x="2002.8646" y="-510.5" font-family="Helvetica,sans-Serif" font-size="10.00" fill="#000000">/Detectors/TRD/base/src</text>
<text text-anchor="middle" x="2064.8646" y="-499.5" font-family="Helvetica,sans-Serif" font-size="10.00" fill="#000000">/CalOnlineGainTables.cxx</text>
</g>
<!-- Node1 -->
<g id="node2" class="node">
<title>Node1</title>
<g id="a_node2"><a xlink:href="../../d5/da9/CalOnlineGainTables_8h.html" target="_top" xlink:title="TRDBase/CalOnlineGainTables.h">
<polygon fill="none" stroke="#000000" points="1978.3646,-436.5 1978.3646,-455.5 2151.3646,-455.5 2151.3646,-436.5 1978.3646,-436.5"/>
<text text-anchor="middle" x="2064.8646" y="-443.5" font-family="Helvetica,sans-Serif" font-size="10.00" fill="#000000">TRDBase/CalOnlineGainTables.h</text>
</a>
</g>
</g>
<!-- Node0&#45;&gt;Node1 -->
<g id="edge1" class="edge">
<title>Node0&#45;&gt;Node1</title>
<path fill="none" stroke="#191970" d="M2064.8646,-492.3258C2064.8646,-483.5142 2064.8646,-473.8397 2064.8646,-465.621"/>
<polygon fill="#191970" stroke="#191970" points="2068.3647,-465.534 2064.8646,-455.534 2061.3647,-465.534 2068.3647,-465.534"/>
</g>
<!-- Node3 -->
<g id="node4" class="node">
<title>Node3</title>
<g id="a_node4"><a xlink:href="../../dd/d07/TRDGeometry_8h.html" target="_top" xlink:title="TRDBase/TRDGeometry.h">
<polygon fill="none" stroke="#000000" points="1864.8646,-380.5 1864.8646,-399.5 2004.8646,-399.5 2004.8646,-380.5 1864.8646,-380.5"/>
<text text-anchor="middle" x="1934.8646" y="-387.5" font-family="Helvetica,sans-Serif" font-size="10.00" fill="#000000">TRDBase/TRDGeometry.h</text>
</a>
</g>
</g>
<!-- Node0&#45;&gt;Node3 -->
<g id="edge53" class="edge">
<title>Node0&#45;&gt;Node3</title>
<path fill="none" stroke="#191970" d="M2014.8704,-492.2031C1999.1677,-482.312 1982.6196,-470.0183 1969.8646,-456 1957.4837,-442.3927 1948.0777,-423.6023 1942.1509,-409.5499"/>
<polygon fill="#191970" stroke="#191970" points="1945.2564,-407.8876 1938.3052,-399.8919 1938.753,-410.4772 1945.2564,-407.8876"/>
</g>
<!-- Node40 -->
<g id="node41" class="node">
<title>Node40</title>
<g id="a_node41"><a xlink:href="../../d2/d36/FeeParam_8h.html" target="_top" xlink:title="TRDBase/FeeParam.h">
<polygon fill="none" stroke="#000000" points="2154.8646,-319 2154.8646,-338 2274.8646,-338 2274.8646,-319 2154.8646,-319"/>
<text text-anchor="middle" x="2214.8646" y="-326" font-family="Helvetica,sans-Serif" font-size="10.00" fill="#000000">TRDBase/FeeParam.h</text>
</a>
</g>
</g>
<!-- Node0&#45;&gt;Node40 -->
<g id="edge54" class="edge">
<title>Node0&#45;&gt;Node40</title>
<path fill="none" stroke="#191970" d="M2117.1206,-492.3099C2132.7306,-482.5661 2148.8621,-470.3324 2160.8646,-456 2188.1441,-423.4252 2203.4959,-375.0532 2210.3865,-348.2259"/>
<polygon fill="#191970" stroke="#191970" points="2213.8731,-348.7 2212.8317,-338.1565 2207.0707,-347.0481 2213.8731,-348.7"/>
</g>
<!-- Node2 -->
<g id="node3" class="node">
<title>Node2</title>
<polygon fill="none" stroke="#bfbfbf" points="1958.8646,-118 1958.8646,-137 2000.8646,-137 2000.8646,-118 1958.8646,-118"/>
<text text-anchor="middle" x="1979.8646" y="-125" font-family="Helvetica,sans-Serif" font-size="10.00" fill="#000000">array</text>
</g>
<!-- Node1&#45;&gt;Node2 -->
<g id="edge2" class="edge">
<title>Node1&#45;&gt;Node2</title>
<path fill="none" stroke="#191970" d="M2072.6085,-436.4693C2101.5612,-399.627 2198.6869,-264.3426 2136.8646,-179 2121.9326,-158.387 2052.2584,-141.6046 2010.9128,-133.2472"/>
<polygon fill="#191970" stroke="#191970" points="2011.55,-129.8056 2001.0621,-131.3068 2010.197,-136.6736 2011.55,-129.8056"/>
</g>
<!-- Node1&#45;&gt;Node3 -->
<g id="edge3" class="edge">
<title>Node1&#45;&gt;Node3</title>
<path fill="none" stroke="#191970" d="M2042.5168,-436.3733C2021.4613,-427.3032 1989.7151,-413.6279 1966.1472,-403.4755"/>
<polygon fill="#191970" stroke="#191970" points="1967.4897,-400.243 1956.9208,-399.5011 1964.7203,-406.6719 1967.4897,-400.243"/>
</g>
<!-- Node4 -->
<g id="node5" class="node">
<title>Node4</title>
<g id="a_node5"><a xlink:href="../../d8/dad/TRDGeometryBase_8h.html" target="_top" xlink:title="TRDBase/TRDGeometryBase.h">
<polygon fill="none" stroke="#000000" points="171.8646,-319 171.8646,-338 337.8646,-338 337.8646,-319 171.8646,-319"/>
<text text-anchor="middle" x="254.8646" y="-326" font-family="Helvetica,sans-Serif" font-size="10.00" fill="#000000">TRDBase/TRDGeometryBase.h</text>
</a>
</g>
</g>
<!-- Node3&#45;&gt;Node4 -->
<g id="edge4" class="edge">
<title>Node3&#45;&gt;Node4</title>
<path fill="none" stroke="#191970" d="M1864.816,-387.4357C1598.7119,-377.6944 650.3361,-342.9771 348.1085,-331.9134"/>
<polygon fill="#191970" stroke="#191970" points="348.1837,-328.4139 338.0624,-331.5456 347.9276,-335.4092 348.1837,-328.4139"/>
</g>
<!-- Node12 -->
<g id="node13" class="node">
<title>Node12</title>
<g id="a_node13"><a xlink:href="../../d4/d20/DetMatrixCache_8h.html" target="_top" xlink:title="DetectorsCommonDataFormats\l/DetMatrixCache.h">
<polygon fill="none" stroke="#000000" points="1706.3646,-313.5 1706.3646,-343.5 1877.3646,-343.5 1877.3646,-313.5 1706.3646,-313.5"/>
<text text-anchor="start" x="1714.3646" y="-331.5" font-family="Helvetica,sans-Serif" font-size="10.00" fill="#000000">DetectorsCommonDataFormats</text>
<text text-anchor="middle" x="1791.8646" y="-320.5" font-family="Helvetica,sans-Serif" font-size="10.00" fill="#000000">/DetMatrixCache.h</text>
</a>
</g>
</g>
<!-- Node3&#45;&gt;Node12 -->
<g id="edge14" class="edge">
<title>Node3&#45;&gt;Node12</title>
<path fill="none" stroke="#191970" d="M1912.5209,-380.3906C1892.182,-371.6435 1861.5576,-358.4728 1836.252,-347.5897"/>
<polygon fill="#191970" stroke="#191970" points="1837.4157,-344.2802 1826.8464,-343.5446 1834.65,-350.7107 1837.4157,-344.2802"/>
</g>
<!-- Node16 -->
<g id="node17" class="node">
<title>Node16</title>
<polygon fill="none" stroke="#bfbfbf" points="2009.3646,-252 2009.3646,-271 2056.3646,-271 2056.3646,-252 2009.3646,-252"/>
<text text-anchor="middle" x="2032.8646" y="-259" font-family="Helvetica,sans-Serif" font-size="10.00" fill="#000000">vector</text>
</g>
<!-- Node3&#45;&gt;Node16 -->
<g id="edge51" class="edge">
<title>Node3&#45;&gt;Node16</title>
<path fill="none" stroke="#191970" d="M1936.541,-380.1256C1939.5766,-364.5638 1947.179,-333.952 1962.8646,-313 1974.1389,-297.9405 1991.0366,-285.3336 2005.4053,-276.3626"/>
<polygon fill="#191970" stroke="#191970" points="2007.5996,-279.1293 2014.3979,-271.0032 2004.0159,-273.1162 2007.5996,-279.1293"/>
</g>
<!-- Node17 -->
<g id="node18" class="node">
<title>Node17</title>
<g id="a_node18"><a xlink:href="../../d6/d31/DetID_8h.html" target="_top" xlink:title="DetectorsCommonDataFormats\l/DetID.h">
<polygon fill="none" stroke="#000000" points="1820.3646,-246.5 1820.3646,-276.5 1991.3646,-276.5 1991.3646,-246.5 1820.3646,-246.5"/>
<text text-anchor="start" x="1828.3646" y="-264.5" font-family="Helvetica,sans-Serif" font-size="10.00" fill="#000000">DetectorsCommonDataFormats</text>
<text text-anchor="middle" x="1905.8646" y="-253.5" font-family="Helvetica,sans-Serif" font-size="10.00" fill="#000000">/DetID.h</text>
</a>
</g>
</g>
<!-- Node3&#45;&gt;Node17 -->
<g id="edge49" class="edge">
<title>Node3&#45;&gt;Node17</title>
<path fill="none" stroke="#191970" d="M1932.6849,-380.3416C1928.2464,-360.6745 1918.0338,-315.4221 1911.5695,-286.7784"/>
<polygon fill="#191970" stroke="#191970" points="1914.911,-285.6858 1909.2954,-276.7016 1908.0827,-287.2268 1914.911,-285.6858"/>
</g>
<!-- Node38 -->
<g id="node39" class="node">
<title>Node38</title>
<polygon fill="none" stroke="#bfbfbf" points="1971.8646,-319 1971.8646,-338 2015.8646,-338 2015.8646,-319 1971.8646,-319"/>
<text text-anchor="middle" x="1993.8646" y="-326" font-family="Helvetica,sans-Serif" font-size="10.00" fill="#000000">string</text>
</g>
<!-- Node3&#45;&gt;Node38 -->
<g id="edge50" class="edge">
<title>Node3&#45;&gt;Node38</title>
<path fill="none" stroke="#191970" d="M1944.0834,-380.3906C1952.9505,-371.1478 1966.5558,-356.966 1977.3035,-345.7628"/>
<polygon fill="#191970" stroke="#191970" points="1980.1187,-347.8841 1984.5159,-338.2449 1975.0673,-343.0381 1980.1187,-347.8841"/>
</g>
<!-- Node39 -->
<g id="node40" class="node">
<title>Node39</title>
<polygon fill="none" stroke="#bfbfbf" points="95.8646,-319 95.8646,-338 153.8646,-338 153.8646,-319 95.8646,-319"/>
<text text-anchor="middle" x="124.8646" y="-326" font-family="Helvetica,sans-Serif" font-size="10.00" fill="#000000">memory</text>
</g>
<!-- Node3&#45;&gt;Node39 -->
<g id="edge52" class="edge">
<title>Node3&#45;&gt;Node39</title>
<path fill="none" stroke="#191970" d="M1864.8333,-389.6711C1556.9183,-388.0236 331.2053,-379.2868 162.8646,-344 159.9881,-343.397 157.052,-342.586 154.1501,-341.6495"/>
<polygon fill="#191970" stroke="#191970" points="155.1458,-338.2861 144.5526,-338.1026 152.7193,-344.8521 155.1458,-338.2861"/>
</g>
<!-- Node5 -->
<g id="node6" class="node">
<title>Node5</title>
<g id="a_node6"><a xlink:href="../../df/d21/GPUCommonDef_8h.html" target="_top" xlink:title="GPUCommonDef.h">
<polygon fill="none" stroke="#000000" points="725.3646,-56.5 725.3646,-75.5 832.3646,-75.5 832.3646,-56.5 725.3646,-56.5"/>
<text text-anchor="middle" x="778.8646" y="-63.5" font-family="Helvetica,sans-Serif" font-size="10.00" fill="#000000">GPUCommonDef.h</text>
</a>
</g>
</g>
<!-- Node4&#45;&gt;Node5 -->
<g id="edge5" class="edge">
<title>Node4&#45;&gt;Node5</title>
<path fill="none" stroke="#191970" d="M200.1246,-318.9775C128.7036,-306.2934 12.0319,-284.5734 5.8646,-277 -8.32,-259.5813 7.5934,-195.573 18.8646,-179 49.9959,-133.2251 71.3003,-129.3631 123.8646,-112 232.2369,-76.2023 571.8115,-68.262 714.5997,-66.5014"/>
<polygon fill="#191970" stroke="#191970" points="714.9848,-69.9972 724.9431,-66.3805 714.9029,-62.9977 714.9848,-69.9972"/>
</g>
<!-- Node8 -->
<g id="node9" class="node">
<title>Node8</title>
<g id="a_node9"><a xlink:href="../../da/d32/TRDCommonParam_8h.html" target="_top" xlink:title="TRDBase/TRDCommonParam.h">
<polygon fill="none" stroke="#000000" points="170.8646,-252 170.8646,-271 338.8646,-271 338.8646,-252 170.8646,-252"/>
<text text-anchor="middle" x="254.8646" y="-259" font-family="Helvetica,sans-Serif" font-size="10.00" fill="#000000">TRDBase/TRDCommonParam.h</text>
</a>
</g>
</g>
<!-- Node4&#45;&gt;Node8 -->
<g id="edge8" class="edge">
<title>Node4&#45;&gt;Node8</title>
<path fill="none" stroke="#191970" d="M254.8646,-318.9005C254.8646,-309.149 254.8646,-293.7597 254.8646,-281.3695"/>
<polygon fill="#191970" stroke="#191970" points="258.3647,-281.0816 254.8646,-271.0817 251.3647,-281.0817 258.3647,-281.0816"/>
</g>
<!-- Node11 -->
<g id="node12" class="node">
<title>Node11</title>
<g id="a_node12"><a xlink:href="../../de/df3/TRDPadPlane_8h.html" target="_top" xlink:title="TRDBase/TRDPadPlane.h">
<polygon fill="none" stroke="#000000" points="15.3646,-252 15.3646,-271 152.3646,-271 152.3646,-252 15.3646,-252"/>
<text text-anchor="middle" x="83.8646" y="-259" font-family="Helvetica,sans-Serif" font-size="10.00" fill="#000000">TRDBase/TRDPadPlane.h</text>
</a>
</g>
</g>
<!-- Node4&#45;&gt;Node11 -->
<g id="edge11" class="edge">
<title>Node4&#45;&gt;Node11</title>
<path fill="none" stroke="#191970" d="M230.3645,-318.9005C200.778,-307.3082 150.8572,-287.7486 117.6342,-274.7313"/>
<polygon fill="#191970" stroke="#191970" points="118.907,-271.471 108.3193,-271.0817 116.3533,-277.9886 118.907,-271.471"/>
</g>
<!-- Node6 -->
<g id="node7" class="node">
<title>Node6</title>
<g id="a_node7"><a xlink:href="../../d5/d93/GPUCommonDefSettings_8h.html" target="_top" xlink:title="GPUCommonDefSettings.h">
<polygon fill="none" stroke="#000000" points="627.8646,-.5 627.8646,-19.5 775.8646,-19.5 775.8646,-.5 627.8646,-.5"/>
<text text-anchor="middle" x="701.8646" y="-7.5" font-family="Helvetica,sans-Serif" font-size="10.00" fill="#000000">GPUCommonDefSettings.h</text>
</a>
</g>
</g>
<!-- Node5&#45;&gt;Node6 -->
<g id="edge6" class="edge">
<title>Node5&#45;&gt;Node6</title>
<path fill="none" stroke="#191970" d="M765.4523,-56.2455C753.8589,-47.814 736.8899,-35.4729 723.3968,-25.6598"/>
<polygon fill="#191970" stroke="#191970" points="725.2693,-22.6938 715.1233,-19.6427 721.1521,-28.355 725.2693,-22.6938"/>
</g>
<!-- Node7 -->
<g id="node8" class="node">
<title>Node7</title>
<g id="a_node8"><a xlink:href="../../da/d5a/GPUCommonDefAPI_8h.html" target="_top" xlink:title="GPUCommonDefAPI.h">
<polygon fill="none" stroke="#000000" points="793.8646,-.5 793.8646,-19.5 917.8646,-19.5 917.8646,-.5 793.8646,-.5"/>
<text text-anchor="middle" x="855.8646" y="-7.5" font-family="Helvetica,sans-Serif" font-size="10.00" fill="#000000">GPUCommonDefAPI.h</text>
</a>
</g>
</g>
<!-- Node5&#45;&gt;Node7 -->
<g id="edge7" class="edge">
<title>Node5&#45;&gt;Node7</title>
<path fill="none" stroke="#191970" d="M792.277,-56.2455C803.8704,-47.814 820.8394,-35.4729 834.3325,-25.6598"/>
<polygon fill="#191970" stroke="#191970" points="836.5772,-28.355 842.606,-19.6427 832.46,-22.6938 836.5772,-28.355"/>
</g>
<!-- Node9 -->
<g id="node10" class="node">
<title>Node9</title>
<g id="a_node10"><a xlink:href="../../d2/d45/GPUCommonRtypes_8h.html" target="_top" xlink:title="GPUCommonRtypes.h">
<polygon fill="none" stroke="#000000" points="37.3646,-185 37.3646,-204 162.3646,-204 162.3646,-185 37.3646,-185"/>
<text text-anchor="middle" x="99.8646" y="-192" font-family="Helvetica,sans-Serif" font-size="10.00" fill="#000000">GPUCommonRtypes.h</text>
</a>
</g>
</g>
<!-- Node8&#45;&gt;Node9 -->
<g id="edge9" class="edge">
<title>Node8&#45;&gt;Node9</title>
<path fill="none" stroke="#191970" d="M232.6569,-251.9005C206.0689,-240.4077 161.3644,-221.0838 131.2533,-208.068"/>
<polygon fill="#191970" stroke="#191970" points="132.5991,-204.8368 122.0312,-204.0817 129.8216,-211.2622 132.5991,-204.8368"/>
</g>
<!-- Node10 -->
<g id="node11" class="node">
<title>Node10</title>
<polygon fill="none" stroke="#bfbfbf" points="452.3646,-118 452.3646,-137 511.3646,-137 511.3646,-118 452.3646,-118"/>
<text text-anchor="middle" x="481.8646" y="-125" font-family="Helvetica,sans-Serif" font-size="10.00" fill="#000000">Rtypes.h</text>
</g>
<!-- Node9&#45;&gt;Node10 -->
<g id="edge10" class="edge">
<title>Node9&#45;&gt;Node10</title>
<path fill="none" stroke="#191970" d="M141.8405,-184.9663C151.3644,-182.9063 161.4476,-180.8064 170.8646,-179 267.9629,-160.3742 382.8929,-142.39 442.1348,-133.4172"/>
<polygon fill="#191970" stroke="#191970" points="442.8217,-136.8533 452.1875,-131.9002 441.7772,-129.9316 442.8217,-136.8533"/>
</g>
<!-- Node11&#45;&gt;Node5 -->
<g id="edge13" class="edge">
<title>Node11&#45;&gt;Node5</title>
<path fill="none" stroke="#191970" d="M68.9111,-251.867C46.0109,-235.9578 6.9901,-203.515 27.8646,-179 72.3888,-126.7111 541.885,-84.6858 715.1211,-70.8528"/>
<polygon fill="#191970" stroke="#191970" points="715.4236,-74.3398 725.1155,-70.0598 714.8699,-67.3618 715.4236,-74.3398"/>
</g>
<!-- Node11&#45;&gt;Node9 -->
<g id="edge12" class="edge">
<title>Node11&#45;&gt;Node9</title>
<path fill="none" stroke="#191970" d="M86.1571,-251.9005C88.5095,-242.0495 92.236,-226.4451 95.21,-213.9912"/>
<polygon fill="#191970" stroke="#191970" points="98.6579,-214.6212 97.5765,-204.0817 91.8494,-212.9952 98.6579,-214.6212"/>
</g>
<!-- Node12&#45;&gt;Node2 -->
<g id="edge19" class="edge">
<title>Node12&#45;&gt;Node2</title>
<path fill="none" stroke="#191970" d="M1789.0353,-313.2595C1784.4674,-283.6248 1779.0149,-217.7509 1811.8646,-179 1829.5874,-158.0935 1905.197,-141.1636 1948.7015,-132.9277"/>
<polygon fill="#191970" stroke="#191970" points="1949.5595,-136.3285 1958.7575,-131.0704 1948.2881,-129.4449 1949.5595,-136.3285"/>
</g>
<!-- Node12&#45;&gt;Node9 -->
<g id="edge18" class="edge">
<title>Node12&#45;&gt;Node9</title>
<path fill="none" stroke="#191970" d="M1706.2473,-327.0018C1519.5125,-323.193 1061.746,-310.9154 679.8646,-277 452.5856,-256.815 395.6359,-249.2567 170.8646,-210 164.2678,-208.8478 157.3543,-207.5071 150.5391,-206.1056"/>
<polygon fill="#191970" stroke="#191970" points="151.1798,-202.6638 140.6726,-204.0235 149.7344,-209.513 151.1798,-202.6638"/>
</g>
<!-- Node13 -->
<g id="node14" class="node">
<title>Node13</title>
<g id="a_node14"><a xlink:href="../../df/d5b/GPUCommonLogger_8h.html" target="_top" xlink:title="GPUCommonLogger.h">
<polygon fill="none" stroke="#000000" points="1371.3646,-252 1371.3646,-271 1494.3646,-271 1494.3646,-252 1371.3646,-252"/>
<text text-anchor="middle" x="1432.8646" y="-259" font-family="Helvetica,sans-Serif" font-size="10.00" fill="#000000">GPUCommonLogger.h</text>
</a>
</g>
</g>
<!-- Node12&#45;&gt;Node13 -->
<g id="edge15" class="edge">
<title>Node12&#45;&gt;Node13</title>
<path fill="none" stroke="#191970" d="M1711.298,-313.4639C1645.4404,-301.1729 1553.7436,-284.0596 1493.8587,-272.8833"/>
<polygon fill="#191970" stroke="#191970" points="1494.2684,-269.3994 1483.796,-271.0053 1492.9841,-276.2806 1494.2684,-269.3994"/>
</g>
<!-- Node12&#45;&gt;Node16 -->
<g id="edge20" class="edge">
<title>Node12&#45;&gt;Node16</title>
<path fill="none" stroke="#191970" d="M1869.4443,-313.4453C1909.3143,-304.694 1958.3317,-292.3493 2000.8646,-277 2002.4614,-276.4238 2004.0844,-275.7925 2005.7095,-275.1246"/>
<polygon fill="#191970" stroke="#191970" points="2007.1723,-278.3045 2014.8732,-271.028 2004.3155,-271.914 2007.1723,-278.3045"/>
</g>
<!-- Node12&#45;&gt;Node17 -->
<g id="edge21" class="edge">
<title>Node12&#45;&gt;Node17</title>
<path fill="none" stroke="#191970" d="M1817.4485,-313.4639C1833.3247,-304.1332 1853.9296,-292.0232 1871.2538,-281.8415"/>
<polygon fill="#191970" stroke="#191970" points="1873.1239,-284.8021 1879.9718,-276.7177 1869.577,-278.7672 1873.1239,-284.8021"/>
</g>
<!-- Node27 -->
<g id="node28" class="node">
<title>Node27</title>
<g id="a_node28"><a xlink:href="../../dd/d76/Cartesian3D_8h.html" target="_top" xlink:title="MathUtils/Cartesian3D.h">
<polygon fill="none" stroke="#000000" points="689.3646,-252 689.3646,-271 824.3646,-271 824.3646,-252 689.3646,-252"/>
<text text-anchor="middle" x="756.8646" y="-259" font-family="Helvetica,sans-Serif" font-size="10.00" fill="#000000">MathUtils/Cartesian3D.h</text>
</a>
</g>
</g>
<!-- Node12&#45;&gt;Node27 -->
<g id="edge37" class="edge">
<title>Node12&#45;&gt;Node27</title>
<path fill="none" stroke="#191970" d="M1706.2857,-322.9601C1508.9233,-310.184 1024.3015,-278.8123 834.7033,-266.5388"/>
<polygon fill="#191970" stroke="#191970" points="834.7466,-263.0344 824.5414,-265.881 834.2944,-270.0198 834.7466,-263.0344"/>
</g>
<!-- Node14 -->
<g id="node15" class="node">
<title>Node14</title>
<polygon fill="none" stroke="#bfbfbf" points="1331.8646,-185 1331.8646,-204 1391.8646,-204 1391.8646,-185 1331.8646,-185"/>
<text text-anchor="middle" x="1361.8646" y="-192" font-family="Helvetica,sans-Serif" font-size="10.00" fill="#000000">iostream</text>
</g>
<!-- Node13&#45;&gt;Node14 -->
<g id="edge16" class="edge">
<title>Node13&#45;&gt;Node14</title>
<path fill="none" stroke="#191970" d="M1422.6921,-251.9005C1411.4093,-241.2535 1393.0046,-223.8856 1379.3905,-211.0385"/>
<polygon fill="#191970" stroke="#191970" points="1381.6935,-208.3994 1372.0183,-204.0817 1376.8892,-213.4905 1381.6935,-208.3994"/>
</g>
<!-- Node15 -->
<g id="node16" class="node">
<title>Node15</title>
<polygon fill="none" stroke="#bfbfbf" points="1409.8646,-185 1409.8646,-204 1455.8646,-204 1455.8646,-185 1409.8646,-185"/>
<text text-anchor="middle" x="1432.8646" y="-192" font-family="Helvetica,sans-Serif" font-size="10.00" fill="#000000">cstdio</text>
</g>
<!-- Node13&#45;&gt;Node15 -->
<g id="edge17" class="edge">
<title>Node13&#45;&gt;Node15</title>
<path fill="none" stroke="#191970" d="M1432.8646,-251.9005C1432.8646,-242.149 1432.8646,-226.7597 1432.8646,-214.3695"/>
<polygon fill="#191970" stroke="#191970" points="1436.3647,-214.0816 1432.8646,-204.0817 1429.3647,-214.0817 1436.3647,-214.0816"/>
</g>
<!-- Node17&#45;&gt;Node2 -->
<g id="edge23" class="edge">
<title>Node17&#45;&gt;Node2</title>
<path fill="none" stroke="#191970" d="M1927.3735,-246.4162C1938.976,-237.1852 1952.5767,-224.3981 1960.8646,-210 1972.1125,-190.4598 1976.7027,-164.7149 1978.5753,-147.2173"/>
<polygon fill="#191970" stroke="#191970" points="1982.0792,-147.3229 1979.4562,-137.0579 1975.1054,-146.7182 1982.0792,-147.3229"/>
</g>
<!-- Node17&#45;&gt;Node10 -->
<g id="edge22" class="edge">
<title>Node17&#45;&gt;Node10</title>
<path fill="none" stroke="#191970" d="M1820.2279,-255.9439C1719.5638,-248.4733 1559.2057,-233.3659 1503.8646,-210 1483.4662,-201.3874 1485.5719,-186.841 1464.8646,-179 1375.6845,-145.2312 694.7583,-131.198 521.7443,-128.1565"/>
<polygon fill="#191970" stroke="#191970" points="521.6143,-124.6538 511.5551,-127.9799 521.4929,-131.6528 521.6143,-124.6538"/>
</g>
<!-- Node18 -->
<g id="node19" class="node">
<title>Node18</title>
<polygon fill="none" stroke="#bfbfbf" points="1907.8646,-185 1907.8646,-204 1951.8646,-204 1951.8646,-185 1907.8646,-185"/>
<text text-anchor="middle" x="1929.8646" y="-192" font-family="Helvetica,sans-Serif" font-size="10.00" fill="#000000">bitset</text>
</g>
<!-- Node17&#45;&gt;Node18 -->
<g id="edge24" class="edge">
<title>Node17&#45;&gt;Node18</title>
<path fill="none" stroke="#191970" d="M1911.3106,-246.2967C1914.7958,-236.5672 1919.3449,-223.8675 1923.0664,-213.4784"/>
<polygon fill="#191970" stroke="#191970" points="1926.3646,-214.6495 1926.442,-204.055 1919.7747,-212.2889 1926.3646,-214.6495"/>
</g>
<!-- Node19 -->
<g id="node20" class="node">
<title>Node19</title>
<polygon fill="none" stroke="#bfbfbf" points="2007.8646,-185 2007.8646,-204 2059.8646,-204 2059.8646,-185 2007.8646,-185"/>
<text text-anchor="middle" x="2033.8646" y="-192" font-family="Helvetica,sans-Serif" font-size="10.00" fill="#000000">cassert</text>
</g>
<!-- Node17&#45;&gt;Node19 -->
<g id="edge25" class="edge">
<title>Node17&#45;&gt;Node19</title>
<path fill="none" stroke="#191970" d="M1934.5903,-246.4639C1956.0671,-235.2222 1985.2509,-219.9463 2006.4141,-208.8686"/>
<polygon fill="#191970" stroke="#191970" points="2008.2803,-211.8423 2015.5169,-204.1039 2005.034,-205.6406 2008.2803,-211.8423"/>
</g>
<!-- Node20 -->
<g id="node21" class="node">
<title>Node20</title>
<polygon fill="none" stroke="#bfbfbf" points="2077.8646,-185 2077.8646,-204 2127.8646,-204 2127.8646,-185 2077.8646,-185"/>
<text text-anchor="middle" x="2102.8646" y="-192" font-family="Helvetica,sans-Serif" font-size="10.00" fill="#000000">cstdint</text>
</g>
<!-- Node17&#45;&gt;Node20 -->
<g id="edge26" class="edge">
<title>Node17&#45;&gt;Node20</title>
<path fill="none" stroke="#191970" d="M1959.2822,-246.411C1991.3808,-236.9033 2032.8514,-223.8391 2068.8646,-210 2070.4466,-209.3921 2072.0598,-208.7468 2073.6814,-208.0781"/>
<polygon fill="#191970" stroke="#191970" points="2075.1125,-211.2726 2082.9009,-204.0899 2072.3332,-204.8479 2075.1125,-211.2726"/>
</g>
<!-- Node21 -->
<g id="node22" class="node">
<title>Node21</title>
<polygon fill="none" stroke="#bfbfbf" points="1820.3646,-185 1820.3646,-204 1889.3646,-204 1889.3646,-185 1820.3646,-185"/>
<text text-anchor="middle" x="1854.8646" y="-192" font-family="Helvetica,sans-Serif" font-size="10.00" fill="#000000">type_traits</text>
</g>
<!-- Node17&#45;&gt;Node21 -->
<g id="edge27" class="edge">
<title>Node17&#45;&gt;Node21</title>
<path fill="none" stroke="#191970" d="M1894.292,-246.2967C1886.5774,-236.1618 1876.4095,-222.804 1868.3318,-212.1921"/>
<polygon fill="#191970" stroke="#191970" points="1870.9797,-209.8921 1862.1378,-204.055 1865.4098,-214.1319 1870.9797,-209.8921"/>
</g>
<!-- Node22 -->
<g id="node23" class="node">
<title>Node22</title>
<g id="a_node23"><a xlink:href="../../d9/d52/Common_2MathUtils_2include_2MathUtils_2Utils_8h.html" target="_top" xlink:title="MathUtils/Utils.h">
<polygon fill="none" stroke="#000000" points="1665.8646,-185 1665.8646,-204 1763.8646,-204 1763.8646,-185 1665.8646,-185"/>
<text text-anchor="middle" x="1714.8646" y="-192" font-family="Helvetica,sans-Serif" font-size="10.00" fill="#000000">MathUtils/Utils.h</text>
</a>
</g>
</g>
<!-- Node17&#45;&gt;Node22 -->
<g id="edge28" class="edge">
<title>Node17&#45;&gt;Node22</title>
<path fill="none" stroke="#191970" d="M1863.0005,-246.4639C1829.5547,-234.7316 1783.583,-218.6054 1751.7622,-207.4431"/>
<polygon fill="#191970" stroke="#191970" points="1752.5566,-204.0128 1741.9618,-204.0053 1750.2395,-210.6182 1752.5566,-204.0128"/>
</g>
<!-- Node22&#45;&gt;Node2 -->
<g id="edge29" class="edge">
<title>Node22&#45;&gt;Node2</title>
<path fill="none" stroke="#191970" d="M1752.5513,-184.9717C1805.2691,-171.643 1900.0382,-147.6825 1948.8852,-135.3325"/>
<polygon fill="#191970" stroke="#191970" points="1950.0242,-138.6548 1958.8612,-132.8103 1948.3083,-131.8683 1950.0242,-138.6548"/>
</g>
<!-- Node22&#45;&gt;Node5 -->
<g id="edge31" class="edge">
<title>Node22&#45;&gt;Node5</title>
<path fill="none" stroke="#191970" d="M1679.9485,-184.9697C1672.3511,-182.9517 1664.3478,-180.8684 1656.8646,-179 1588.2485,-161.8681 1565.3529,-174.1595 1501.8646,-143 1482.2982,-133.397 1484.1405,-119.9969 1463.8646,-112 1407.0055,-89.5745 1001.4869,-73.5536 842.5434,-68.0713"/>
<polygon fill="#191970" stroke="#191970" points="842.5509,-64.5696 832.437,-67.7255 842.3114,-71.5655 842.5509,-64.5696"/>
</g>
<!-- Node23 -->
<g id="node24" class="node">
<title>Node23</title>
<polygon fill="none" stroke="#bfbfbf" points="1836.3646,-56.5 1836.3646,-75.5 1883.3646,-75.5 1883.3646,-56.5 1836.3646,-56.5"/>
<text text-anchor="middle" x="1859.8646" y="-63.5" font-family="Helvetica,sans-Serif" font-size="10.00" fill="#000000">cmath</text>
</g>
<!-- Node22&#45;&gt;Node23 -->
<g id="edge30" class="edge">
<title>Node22&#45;&gt;Node23</title>
<path fill="none" stroke="#191970" d="M1750.421,-184.9266C1785.075,-174.8713 1834.3277,-158.4076 1846.8646,-143 1859.7958,-127.1079 1861.99,-103.1452 1861.6176,-86.1788"/>
<polygon fill="#191970" stroke="#191970" points="1865.0876,-85.531 1861.0501,-75.7357 1858.098,-85.9109 1865.0876,-85.531"/>
</g>
<!-- Node24 -->
<g id="node25" class="node">
<title>Node24</title>
<g id="a_node25"><a xlink:href="../../d6/da2/GPUCommonMath_8h.html" target="_top" xlink:title="GPUCommonMath.h">
<polygon fill="none" stroke="#000000" points="1722.3646,-118 1722.3646,-137 1837.3646,-137 1837.3646,-118 1722.3646,-118"/>
<text text-anchor="middle" x="1779.8646" y="-125" font-family="Helvetica,sans-Serif" font-size="10.00" fill="#000000">GPUCommonMath.h</text>
</a>
</g>
</g>
<!-- Node22&#45;&gt;Node24 -->
<g id="edge32" class="edge">
<title>Node22&#45;&gt;Node24</title>
<path fill="none" stroke="#191970" d="M1724.1776,-184.9005C1734.4103,-174.353 1751.0419,-157.2096 1763.4693,-144.3998"/>
<polygon fill="#191970" stroke="#191970" points="1766.1179,-146.6962 1770.569,-137.0817 1761.0937,-141.822 1766.1179,-146.6962"/>
</g>
<!-- Node26 -->
<g id="node27" class="node">
<title>Node26</title>
<g id="a_node27"><a xlink:href="../../d6/d84/MathConstants_8h.html" target="_top" xlink:title="useful math constants ">
<polygon fill="none" stroke="#000000" points="1510.8646,-118 1510.8646,-137 1704.8646,-137 1704.8646,-118 1510.8646,-118"/>
<text text-anchor="middle" x="1607.8646" y="-125" font-family="Helvetica,sans-Serif" font-size="10.00" fill="#000000">CommonConstants/MathConstants.h</text>
</a>
</g>
</g>
<!-- Node22&#45;&gt;Node26 -->
<g id="edge36" class="edge">
<title>Node22&#45;&gt;Node26</title>
<path fill="none" stroke="#191970" d="M1699.5342,-184.9005C1681.8155,-173.8057 1652.4418,-155.4128 1631.7279,-142.4424"/>
<polygon fill="#191970" stroke="#191970" points="1633.4997,-139.4224 1623.1667,-137.0817 1629.7847,-145.3553 1633.4997,-139.4224"/>
</g>
<!-- Node24&#45;&gt;Node5 -->
<g id="edge33" class="edge">
<title>Node24&#45;&gt;Node5</title>
<path fill="none" stroke="#191970" d="M1744.4656,-117.9399C1734.6253,-115.624 1723.888,-113.4116 1713.8646,-112 1545.0425,-88.2242 1024.9448,-72.5231 842.7287,-67.6306"/>
<polygon fill="#191970" stroke="#191970" points="842.5937,-64.1258 832.5039,-67.3579 842.407,-71.1233 842.5937,-64.1258"/>
</g>
<!-- Node24&#45;&gt;Node23 -->
<g id="edge34" class="edge">
<title>Node24&#45;&gt;Node23</title>
<path fill="none" stroke="#191970" d="M1792.3646,-117.8906C1804.9282,-108.2324 1824.507,-93.1812 1839.3495,-81.771"/>
<polygon fill="#191970" stroke="#191970" points="1841.6575,-84.4115 1847.4524,-75.5419 1837.3912,-78.8618 1841.6575,-84.4115"/>
</g>
<!-- Node25 -->
<g id="node26" class="node">
<title>Node25</title>
<polygon fill="none" stroke="#bfbfbf" points="1747.8646,-56.5 1747.8646,-75.5 1811.8646,-75.5 1811.8646,-56.5 1747.8646,-56.5"/>
<text text-anchor="middle" x="1779.8646" y="-63.5" font-family="Helvetica,sans-Serif" font-size="10.00" fill="#000000">algorithm</text>
</g>
<!-- Node24&#45;&gt;Node25 -->
<g id="edge35" class="edge">
<title>Node24&#45;&gt;Node25</title>
<path fill="none" stroke="#191970" d="M1779.8646,-117.8906C1779.8646,-109.3657 1779.8646,-96.6392 1779.8646,-85.9235"/>
<polygon fill="#191970" stroke="#191970" points="1783.3647,-85.7448 1779.8646,-75.7449 1776.3647,-85.7449 1783.3647,-85.7448"/>
</g>
<!-- Node27&#45;&gt;Node10 -->
<g id="edge43" class="edge">
<title>Node27&#45;&gt;Node10</title>
<path fill="none" stroke="#191970" d="M689.313,-256.124C622.7125,-249.4247 527.1893,-235.602 500.8646,-210 484.2078,-193.8004 480.8776,-166.148 480.7668,-147.3649"/>
<polygon fill="#191970" stroke="#191970" points="484.2687,-147.3221 481.0102,-137.2409 477.2708,-147.1538 484.2687,-147.3221"/>
</g>
<!-- Node28 -->
<g id="node29" class="node">
<title>Node28</title>
<polygon fill="none" stroke="#bfbfbf" points="577.8646,-179.5 577.8646,-209.5 741.8646,-209.5 741.8646,-179.5 577.8646,-179.5"/>
<text text-anchor="start" x="585.8646" y="-197.5" font-family="Helvetica,sans-Serif" font-size="10.00" fill="#000000">Math/GenVector/Displacement</text>
<text text-anchor="middle" x="659.8646" y="-186.5" font-family="Helvetica,sans-Serif" font-size="10.00" fill="#000000">Vector3D.h</text>
</g>
<!-- Node27&#45;&gt;Node28 -->
<g id="edge38" class="edge">
<title>Node27&#45;&gt;Node28</title>
<path fill="none" stroke="#191970" d="M742.9669,-251.9005C729.1912,-242.3853 707.6441,-227.5023 689.9426,-215.2755"/>
<polygon fill="#191970" stroke="#191970" points="691.8298,-212.3253 681.6126,-209.5218 687.8515,-218.0849 691.8298,-212.3253"/>
</g>
<!-- Node29 -->
<g id="node30" class="node">
<title>Node29</title>
<polygon fill="none" stroke="#bfbfbf" points="760.3646,-185 760.3646,-204 949.3646,-204 949.3646,-185 760.3646,-185"/>
<text text-anchor="middle" x="854.8646" y="-192" font-family="Helvetica,sans-Serif" font-size="10.00" fill="#000000">Math/GenVector/PositionVector3D.h</text>
</g>
<!-- Node27&#45;&gt;Node29 -->
<g id="edge39" class="edge">
<title>Node27&#45;&gt;Node29</title>
<path fill="none" stroke="#191970" d="M770.9057,-251.9005C786.9884,-240.9052 813.5552,-222.7422 832.4963,-209.7927"/>
<polygon fill="#191970" stroke="#191970" points="834.5699,-212.6148 840.8497,-204.0817 830.6192,-206.8362 834.5699,-212.6148"/>
</g>
<!-- Node30 -->
<g id="node31" class="node">
<title>Node30</title>
<polygon fill="none" stroke="#bfbfbf" points="967.8646,-185 967.8646,-204 1127.8646,-204 1127.8646,-185 967.8646,-185"/>
<text text-anchor="middle" x="1047.8646" y="-192" font-family="Helvetica,sans-Serif" font-size="10.00" fill="#000000">Math/GenVector/Rotation3D.h</text>
</g>
<!-- Node27&#45;&gt;Node30 -->
<g id="edge40" class="edge">
<title>Node27&#45;&gt;Node30</title>
<path fill="none" stroke="#191970" d="M798.2488,-251.9717C850.354,-239.975 939.8684,-219.3651 996.3507,-206.3606"/>
<polygon fill="#191970" stroke="#191970" points="997.1924,-209.7585 1006.1521,-204.1039 995.6217,-202.9369 997.1924,-209.7585"/>
</g>
<!-- Node31 -->
<g id="node32" class="node">
<title>Node31</title>
<polygon fill="none" stroke="#bfbfbf" points="1145.8646,-185 1145.8646,-204 1313.8646,-204 1313.8646,-185 1145.8646,-185"/>
<text text-anchor="middle" x="1229.8646" y="-192" font-family="Helvetica,sans-Serif" font-size="10.00" fill="#000000">Math/GenVector/Transform3D.h</text>
</g>
<!-- Node27&#45;&gt;Node31 -->
<g id="edge41" class="edge">
<title>Node27&#45;&gt;Node31</title>
<path fill="none" stroke="#191970" d="M824.5668,-252.9566C900.6349,-243.2104 1027.7539,-226.4823 1136.8646,-210 1145.779,-208.6534 1155.1624,-207.1687 1164.4004,-205.6678"/>
<polygon fill="#191970" stroke="#191970" points="1165.0365,-209.1103 1174.3385,-204.0385 1163.9039,-202.2025 1165.0365,-209.1103"/>
</g>
<!-- Node32 -->
<g id="node33" class="node">
<title>Node32</title>
<polygon fill="none" stroke="#bfbfbf" points="180.3646,-185 180.3646,-204 353.3646,-204 353.3646,-185 180.3646,-185"/>
<text text-anchor="middle" x="266.8646" y="-192" font-family="Helvetica,sans-Serif" font-size="10.00" fill="#000000">Math/GenVector/Translation3D.h</text>
</g>
<!-- Node27&#45;&gt;Node32 -->
<g id="edge42" class="edge">
<title>Node27&#45;&gt;Node32</title>
<path fill="none" stroke="#191970" d="M689.1526,-253.2782C610.5906,-243.5931 477.2009,-226.6989 362.8646,-210 353.5038,-208.6328 343.6414,-207.1216 333.9455,-205.5948"/>
<polygon fill="#191970" stroke="#191970" points="334.3549,-202.116 323.9296,-204.0034 333.2565,-209.0293 334.3549,-202.116"/>
</g>
<!-- Node33 -->
<g id="node34" class="node">
<title>Node33</title>
<polygon fill="none" stroke="#bfbfbf" points="371.8646,-185 371.8646,-204 453.8646,-204 453.8646,-185 371.8646,-185"/>
<text text-anchor="middle" x="412.8646" y="-192" font-family="Helvetica,sans-Serif" font-size="10.00" fill="#000000">TGeoMatrix.h</text>
</g>
<!-- Node27&#45;&gt;Node33 -->
<g id="edge44" class="edge">
<title>Node27&#45;&gt;Node33</title>
<path fill="none" stroke="#191970" d="M693.0759,-251.9806C634.2735,-242.7688 544.7344,-227.6358 467.8646,-210 463.5044,-208.9996 458.9737,-207.8708 454.4679,-206.6897"/>
<polygon fill="#191970" stroke="#191970" points="455.2867,-203.2855 444.7195,-204.0504 453.4573,-210.0422 455.2867,-203.2855"/>
</g>
<!-- Node34 -->
<g id="node35" class="node">
<title>Node34</title>
<polygon fill="none" stroke="#bfbfbf" points="510.3646,-185 510.3646,-204 559.3646,-204 559.3646,-185 510.3646,-185"/>
<text text-anchor="middle" x="534.8646" y="-192" font-family="Helvetica,sans-Serif" font-size="10.00" fill="#000000">iosfwd</text>
</g>
<!-- Node27&#45;&gt;Node34 -->
<g id="edge45" class="edge">
<title>Node27&#45;&gt;Node34</title>
<path fill="none" stroke="#191970" d="M714.4478,-251.9417C675.9442,-242.7817 617.8642,-227.7507 568.8646,-210 567.2293,-209.4076 565.5635,-208.7692 563.8916,-208.101"/>
<polygon fill="#191970" stroke="#191970" points="564.9902,-204.7646 554.4188,-204.0604 562.2437,-211.2033 564.9902,-204.7646"/>
</g>
<!-- Node35 -->
<g id="node36" class="node">
<title>Node35</title>
<g id="a_node36"><a xlink:href="../../d2/dd0/Cartesian2D_8h.html" target="_top" xlink:title="MathUtils/Cartesian2D.h">
<polygon fill="none" stroke="#000000" points="1512.3646,-185 1512.3646,-204 1647.3646,-204 1647.3646,-185 1512.3646,-185"/>
<text text-anchor="middle" x="1579.8646" y="-192" font-family="Helvetica,sans-Serif" font-size="10.00" fill="#000000">MathUtils/Cartesian2D.h</text>
</a>
</g>
</g>
<!-- Node27&#45;&gt;Node35 -->
<g id="edge46" class="edge">
<title>Node27&#45;&gt;Node35</title>
<path fill="none" stroke="#191970" d="M824.8379,-257.947C951.1247,-251.0368 1230.4217,-234.303 1464.8646,-210 1477.719,-208.6675 1491.3521,-207.0295 1504.5666,-205.3229"/>
<polygon fill="#191970" stroke="#191970" points="1505.1117,-208.7814 1514.5704,-204.0083 1504.1996,-201.8411 1505.1117,-208.7814"/>
</g>
<!-- Node36 -->
<g id="node37" class="node">
<title>Node36</title>
<polygon fill="none" stroke="#bfbfbf" points="1290.8646,-112.5 1290.8646,-142.5 1454.8646,-142.5 1454.8646,-112.5 1290.8646,-112.5"/>
<text text-anchor="start" x="1298.8646" y="-130.5" font-family="Helvetica,sans-Serif" font-size="10.00" fill="#000000">Math/GenVector/Displacement</text>
<text text-anchor="middle" x="1372.8646" y="-119.5" font-family="Helvetica,sans-Serif" font-size="10.00" fill="#000000">Vector2D.h</text>
</g>
<!-- Node35&#45;&gt;Node36 -->
<g id="edge47" class="edge">
<title>Node35&#45;&gt;Node36</title>
<path fill="none" stroke="#191970" d="M1550.2066,-184.9005C1518.6709,-174.6933 1468.051,-158.3091 1428.9495,-145.6531"/>
<polygon fill="#191970" stroke="#191970" points="1429.867,-142.2713 1419.2752,-142.5218 1427.7114,-148.9312 1429.867,-142.2713"/>
</g>
<!-- Node37 -->
<g id="node38" class="node">
<title>Node37</title>
<polygon fill="none" stroke="#bfbfbf" points="1083.3646,-118 1083.3646,-137 1272.3646,-137 1272.3646,-118 1083.3646,-118"/>
<text text-anchor="middle" x="1177.8646" y="-125" font-family="Helvetica,sans-Serif" font-size="10.00" fill="#000000">Math/GenVector/PositionVector2D.h</text>
</g>
<!-- Node35&#45;&gt;Node37 -->
<g id="edge48" class="edge">
<title>Node35&#45;&gt;Node37</title>
<path fill="none" stroke="#191970" d="M1530.472,-184.9382C1519.7326,-182.9222 1508.4255,-180.8476 1497.8646,-179 1413.0248,-164.1575 1315.2422,-148.6533 1250.3222,-138.5846"/>
<polygon fill="#191970" stroke="#191970" points="1250.6099,-135.0875 1240.1921,-137.0162 1249.5389,-142.0051 1250.6099,-135.0875"/>
</g>
<!-- Node40&#45;&gt;Node2 -->
<g id="edge55" class="edge">
<title>Node40&#45;&gt;Node2</title>
<path fill="none" stroke="#191970" d="M2214.9742,-318.8494C2214.7268,-292.4347 2210.2784,-218.3102 2169.8646,-179 2147.3164,-157.0675 2058.9574,-140.0488 2011.0891,-132.2173"/>
<polygon fill="#191970" stroke="#191970" points="2011.3961,-128.722 2000.969,-130.5999 2010.2913,-135.6343 2011.3961,-128.722"/>
</g>
<!-- Node40&#45;&gt;Node16 -->
<g id="edge56" class="edge">
<title>Node40&#45;&gt;Node16</title>
<path fill="none" stroke="#191970" d="M2188.7885,-318.9005C2156.4448,-306.9938 2101.2693,-286.6819 2065.9699,-273.6871"/>
<polygon fill="#191970" stroke="#191970" points="2067.1697,-270.3992 2056.5763,-270.229 2064.7514,-276.9682 2067.1697,-270.3992"/>
</g>
</g>
</svg>
