<?xml version="1.0" encoding="UTF-8" standalone="no"?>
<!DOCTYPE svg PUBLIC "-//W3C//DTD SVG 1.1//EN"
 "http://www.w3.org/Graphics/SVG/1.1/DTD/svg11.dtd">
<!-- Generated by graphviz version 2.40.1 (20161225.0304)
 -->
<!-- Title: /home/travis/build/AliceO2Group/AliceO2/DataFormats/Detectors/EMCAL/include/DataFormatsEMCAL/TriggerRecord.h Pages: 1 -->
<!--zoomable 361 -->
<svg id="main" version="1.1" xmlns="http://www.w3.org/2000/svg" xmlns:xlink="http://www.w3.org/1999/xlink" xml:space="preserve" onload="init(evt)">
<style type="text/css"><![CDATA[
.edge:hover path { stroke: red; }
.edge:hover polygon { stroke: red; fill: red; }
]]></style>
<script type="text/javascript"><![CDATA[
var edges = document.getElementsByTagName('g');
if (edges && edges.length) {
  for (var i=0;i<edges.length;i++) {
    if (edges[i].id.substr(0,4)=='edge') {
      edges[i].setAttribute('class','edge');
    }
  }
}
]]></script>
        <defs>
                <circle id="rim" cx="0" cy="0" r="7"/>
                <circle id="rim2" cx="0" cy="0" r="3.5"/>
                <g id="zoomPlus">
                        <use xlink:href="#rim" fill="#404040">
                                <set attributeName="fill" to="#808080" begin="zoomplus.mouseover" end="zoomplus.mouseout"/>
                        </use>
                        <path d="M-4,0h8M0,-4v8" fill="none" stroke="white" stroke-width="1.5" pointer-events="none"/>
                </g>
                <g id="zoomMin">
                        <use xlink:href="#rim" fill="#404040">
                                <set attributeName="fill" to="#808080" begin="zoomminus.mouseover" end="zoomminus.mouseout"/>
                        </use>
                        <path d="M-4,0h8" fill="none" stroke="white" stroke-width="1.5" pointer-events="none"/>
                </g>
                <g id="dirArrow">
                        <path fill="none" stroke="white" stroke-width="1.5" d="M0,-3.0v7 M-2.5,-0.5L0,-3.0L2.5,-0.5"/>
                </g>
               <g id="resetDef">
                       <use xlink:href="#rim2" fill="#404040">
                               <set attributeName="fill" to="#808080" begin="reset.mouseover" end="reset.mouseout"/>
                       </use>
               </g>
        </defs>

<script type="text/javascript">
var viewWidth = 2426;
var viewHeight = 361;
var sectionId = 'dynsection-1';
</script>
<script xlink:href="../../svgpan.js"/>
<svg id="graph" class="graph">
<g id="viewport">
<title>/home/travis/build/AliceO2Group/AliceO2/DataFormats/Detectors/EMCAL/include/DataFormatsEMCAL/TriggerRecord.h</title>
<!-- Node9 -->
<g id="node1" class="node">
<title>Node9</title>
<polygon fill="#bfbfbf" stroke="#000000" points="1072.6432,-289.5 1072.6432,-352.5 1262.6432,-352.5 1262.6432,-289.5 1072.6432,-289.5"/>
<text text-anchor="start" x="1080.6432" y="-340.5" font-family="Helvetica,sans-Serif" font-size="10.00" fill="#000000">/home/travis/build</text>
<text text-anchor="start" x="1080.6432" y="-329.5" font-family="Helvetica,sans-Serif" font-size="10.00" fill="#000000">/AliceO2Group/AliceO2</text>
<text text-anchor="start" x="1080.6432" y="-318.5" font-family="Helvetica,sans-Serif" font-size="10.00" fill="#000000">/DataFormats/Detectors</text>
<text text-anchor="start" x="1080.6432" y="-307.5" font-family="Helvetica,sans-Serif" font-size="10.00" fill="#000000">/EMCAL/include/DataFormatsEMCAL</text>
<text text-anchor="middle" x="1167.6432" y="-296.5" font-family="Helvetica,sans-Serif" font-size="10.00" fill="#000000">/TriggerRecord.h</text>
</g>
<!-- Node10 -->
<g id="node2" class="node">
<title>Node10</title>
<g id="a_node2"><a xlink:href="../../da/dcc/EventHandler_8h.html" target="_top" xlink:title="/home/travis/build\l/AliceO2Group/AliceO2\l/DataFormats/Detectors\l/EMCAL/include/DataFormatsEMCAL\l/EventHandler.h">
<polygon fill="none" stroke="#000000" points="154.6432,-189.5 154.6432,-252.5 344.6432,-252.5 344.6432,-189.5 154.6432,-189.5"/>
<text text-anchor="start" x="162.6432" y="-240.5" font-family="Helvetica,sans-Serif" font-size="10.00" fill="#000000">/home/travis/build</text>
<text text-anchor="start" x="162.6432" y="-229.5" font-family="Helvetica,sans-Serif" font-size="10.00" fill="#000000">/AliceO2Group/AliceO2</text>
<text text-anchor="start" x="162.6432" y="-218.5" font-family="Helvetica,sans-Serif" font-size="10.00" fill="#000000">/DataFormats/Detectors</text>
<text text-anchor="start" x="162.6432" y="-207.5" font-family="Helvetica,sans-Serif" font-size="10.00" fill="#000000">/EMCAL/include/DataFormatsEMCAL</text>
<text text-anchor="middle" x="249.6432" y="-196.5" font-family="Helvetica,sans-Serif" font-size="10.00" fill="#000000">/EventHandler.h</text>
</a>
</g>
</g>
<!-- Node9&#45;&gt;Node10 -->
<g id="edge1" class="edge">
<title>Node9&#45;&gt;Node10</title>
<path fill="none" stroke="#191970" d="M1062.4521,-318.9118C907.2364,-314.3113 608.2662,-299.6384 358.6432,-253 354.0873,-252.1488 349.4493,-251.1842 344.7827,-250.1342"/>
<polygon fill="#191970" stroke="#191970" points="1062.3693,-322.4107 1072.466,-319.2004 1062.571,-315.4136 1062.3693,-322.4107"/>
</g>
<!-- Node12 -->
<g id="node4" class="node">
<title>Node12</title>
<g id="a_node4"><a xlink:href="../../d3/dd3/AnalysisClusterSpec_8h.html" target="_top" xlink:title="/home/travis/build\l/AliceO2Group/AliceO2\l/Detectors/EMCAL/workflow\l/include/EMCALWorkflow/AnalysisCluster\lSpec.h">
<polygon fill="none" stroke="#000000" points="199.6432,-89.5 199.6432,-152.5 413.6432,-152.5 413.6432,-89.5 199.6432,-89.5"/>
<text text-anchor="start" x="207.6432" y="-140.5" font-family="Helvetica,sans-Serif" font-size="10.00" fill="#000000">/home/travis/build</text>
<text text-anchor="start" x="207.6432" y="-129.5" font-family="Helvetica,sans-Serif" font-size="10.00" fill="#000000">/AliceO2Group/AliceO2</text>
<text text-anchor="start" x="207.6432" y="-118.5" font-family="Helvetica,sans-Serif" font-size="10.00" fill="#000000">/Detectors/EMCAL/workflow</text>
<text text-anchor="start" x="207.6432" y="-107.5" font-family="Helvetica,sans-Serif" font-size="10.00" fill="#000000">/include/EMCALWorkflow/AnalysisCluster</text>
<text text-anchor="middle" x="306.6432" y="-96.5" font-family="Helvetica,sans-Serif" font-size="10.00" fill="#000000">Spec.h</text>
</a>
</g>
</g>
<!-- Node9&#45;&gt;Node12 -->
<g id="edge13" class="edge">
<title>Node9&#45;&gt;Node12</title>
<path fill="none" stroke="#191970" d="M1062.3336,-317.0142C863.6225,-308.7313 448.2297,-287.5036 392.6432,-253 364.3424,-235.4331 371.7869,-216.9345 353.6432,-189 345.8262,-176.9648 336.9446,-163.9561 329.0229,-152.5709"/>
<polygon fill="#191970" stroke="#191970" points="1062.363,-320.5183 1072.499,-317.4345 1062.6522,-313.5243 1062.363,-320.5183"/>
</g>
<!-- Node13 -->
<g id="node5" class="node">
<title>Node13</title>
<g id="a_node5"><a xlink:href="../../d2/d75/AnalysisClusterSpec_8cxx.html" target="_top" xlink:title="/home/travis/build\l/AliceO2Group/AliceO2\l/Detectors/EMCAL/workflow\l/src/AnalysisClusterSpec.cxx">
<polygon fill="none" stroke="#000000" points="73.6432,-.5 73.6432,-52.5 229.6432,-52.5 229.6432,-.5 73.6432,-.5"/>
<text text-anchor="start" x="81.6432" y="-40.5" font-family="Helvetica,sans-Serif" font-size="10.00" fill="#000000">/home/travis/build</text>
<text text-anchor="start" x="81.6432" y="-29.5" font-family="Helvetica,sans-Serif" font-size="10.00" fill="#000000">/AliceO2Group/AliceO2</text>
<text text-anchor="start" x="81.6432" y="-18.5" font-family="Helvetica,sans-Serif" font-size="10.00" fill="#000000">/Detectors/EMCAL/workflow</text>
<text text-anchor="middle" x="151.6432" y="-7.5" font-family="Helvetica,sans-Serif" font-size="10.00" fill="#000000">/src/AnalysisClusterSpec.cxx</text>
</a>
</g>
</g>
<!-- Node9&#45;&gt;Node13 -->
<g id="edge26" class="edge">
<title>Node9&#45;&gt;Node13</title>
<path fill="none" stroke="#191970" d="M1061.9808,-317.4261C817.9925,-308.6793 229.7524,-284.5838 145.6432,-253 58.3097,-220.2055 -35.8076,-167.4687 14.6432,-89 28.1452,-67.9996 50.639,-53.9697 73.5367,-44.6322"/>
<polygon fill="#191970" stroke="#191970" points="1062.1603,-320.9346 1072.2788,-317.7934 1062.41,-313.9391 1062.1603,-320.9346"/>
</g>
<!-- Node15 -->
<g id="node7" class="node">
<title>Node15</title>
<g id="a_node7"><a xlink:href="../../d0/d2b/EMCAL_2src_2TriggerRecord_8cxx.html" target="_top" xlink:title="/home/travis/build\l/AliceO2Group/AliceO2\l/DataFormats/Detectors\l/EMCAL/src/TriggerRecord.cxx">
<polygon fill="none" stroke="#000000" points="1317.1432,-195 1317.1432,-247 1476.1432,-247 1476.1432,-195 1317.1432,-195"/>
<text text-anchor="start" x="1325.1432" y="-235" font-family="Helvetica,sans-Serif" font-size="10.00" fill="#000000">/home/travis/build</text>
<text text-anchor="start" x="1325.1432" y="-224" font-family="Helvetica,sans-Serif" font-size="10.00" fill="#000000">/AliceO2Group/AliceO2</text>
<text text-anchor="start" x="1325.1432" y="-213" font-family="Helvetica,sans-Serif" font-size="10.00" fill="#000000">/DataFormats/Detectors</text>
<text text-anchor="middle" x="1396.6432" y="-202" font-family="Helvetica,sans-Serif" font-size="10.00" fill="#000000">/EMCAL/src/TriggerRecord.cxx</text>
</a>
</g>
</g>
<!-- Node9&#45;&gt;Node15 -->
<g id="edge6" class="edge">
<title>Node9&#45;&gt;Node15</title>
<path fill="none" stroke="#191970" d="M1249.0565,-285.4483C1277.9756,-272.8199 1309.9751,-258.8463 1336.7647,-247.1478"/>
<polygon fill="#191970" stroke="#191970" points="1247.5495,-282.2872 1239.7859,-289.4966 1250.3509,-288.7022 1247.5495,-282.2872"/>
</g>
<!-- Node16 -->
<g id="node8" class="node">
<title>Node16</title>
<g id="a_node8"><a xlink:href="../../dc/d38/EMCAL_2reconstruction_2include_2EMCALReconstruction_2DigitReader_8h.html" target="_top" xlink:title="/home/travis/build\l/AliceO2Group/AliceO2\l/Detectors/EMCAL/reconstruction\l/include/EMCALReconstruction\l/DigitReader.h">
<polygon fill="none" stroke="#000000" points="1493.6432,-189.5 1493.6432,-252.5 1669.6432,-252.5 1669.6432,-189.5 1493.6432,-189.5"/>
<text text-anchor="start" x="1501.6432" y="-240.5" font-family="Helvetica,sans-Serif" font-size="10.00" fill="#000000">/home/travis/build</text>
<text text-anchor="start" x="1501.6432" y="-229.5" font-family="Helvetica,sans-Serif" font-size="10.00" fill="#000000">/AliceO2Group/AliceO2</text>
<text text-anchor="start" x="1501.6432" y="-218.5" font-family="Helvetica,sans-Serif" font-size="10.00" fill="#000000">/Detectors/EMCAL/reconstruction</text>
<text text-anchor="start" x="1501.6432" y="-207.5" font-family="Helvetica,sans-Serif" font-size="10.00" fill="#000000">/include/EMCALReconstruction</text>
<text text-anchor="middle" x="1581.6432" y="-196.5" font-family="Helvetica,sans-Serif" font-size="10.00" fill="#000000">/DigitReader.h</text>
</a>
</g>
</g>
<!-- Node9&#45;&gt;Node16 -->
<g id="edge7" class="edge">
<title>Node9&#45;&gt;Node16</title>
<path fill="none" stroke="#191970" d="M1272.7668,-301.5711C1335.065,-289.3012 1415.3286,-272.1733 1485.6432,-253 1488.2703,-252.2836 1490.9313,-251.5367 1493.6123,-250.7655"/>
<polygon fill="#191970" stroke="#191970" points="1272.0677,-298.1414 1262.9268,-303.4981 1273.4131,-305.0109 1272.0677,-298.1414"/>
</g>
<!-- Node20 -->
<g id="node12" class="node">
<title>Node20</title>
<g id="a_node12"><a xlink:href="../../df/da7/RawWriter_8h.html" target="_top" xlink:title="/home/travis/build\l/AliceO2Group/AliceO2\l/Detectors/EMCAL/simulation\l/include/EMCALSimulation/RawWriter.h">
<polygon fill="none" stroke="#000000" points="1687.1432,-195 1687.1432,-247 1892.1432,-247 1892.1432,-195 1687.1432,-195"/>
<text text-anchor="start" x="1695.1432" y="-235" font-family="Helvetica,sans-Serif" font-size="10.00" fill="#000000">/home/travis/build</text>
<text text-anchor="start" x="1695.1432" y="-224" font-family="Helvetica,sans-Serif" font-size="10.00" fill="#000000">/AliceO2Group/AliceO2</text>
<text text-anchor="start" x="1695.1432" y="-213" font-family="Helvetica,sans-Serif" font-size="10.00" fill="#000000">/Detectors/EMCAL/simulation</text>
<text text-anchor="middle" x="1789.6432" y="-202" font-family="Helvetica,sans-Serif" font-size="10.00" fill="#000000">/include/EMCALSimulation/RawWriter.h</text>
</a>
</g>
</g>
<!-- Node9&#45;&gt;Node20 -->
<g id="edge11" class="edge">
<title>Node9&#45;&gt;Node20</title>
<path fill="none" stroke="#191970" d="M1273.1857,-311.5729C1377.0576,-301.2134 1539.827,-282.0781 1678.6432,-253 1686.9858,-251.2525 1695.6176,-249.2032 1704.2128,-247.0006"/>
<polygon fill="#191970" stroke="#191970" points="1272.6153,-308.1121 1263.008,-312.5786 1273.3037,-315.0782 1272.6153,-308.1121"/>
</g>
<!-- Node22 -->
<g id="node14" class="node">
<title>Node22</title>
<g id="a_node14"><a xlink:href="../../d3/ddf/EMCAL_2workflow_2include_2EMCALWorkflow_2CellConverterSpec_8h.html" target="_top" xlink:title="/home/travis/build\l/AliceO2Group/AliceO2\l/Detectors/EMCAL/workflow\l/include/EMCALWorkflow/CellConverter\lSpec.h">
<polygon fill="none" stroke="#000000" points="401.1432,-189.5 401.1432,-252.5 606.1432,-252.5 606.1432,-189.5 401.1432,-189.5"/>
<text text-anchor="start" x="409.1432" y="-240.5" font-family="Helvetica,sans-Serif" font-size="10.00" fill="#000000">/home/travis/build</text>
<text text-anchor="start" x="409.1432" y="-229.5" font-family="Helvetica,sans-Serif" font-size="10.00" fill="#000000">/AliceO2Group/AliceO2</text>
<text text-anchor="start" x="409.1432" y="-218.5" font-family="Helvetica,sans-Serif" font-size="10.00" fill="#000000">/Detectors/EMCAL/workflow</text>
<text text-anchor="start" x="409.1432" y="-207.5" font-family="Helvetica,sans-Serif" font-size="10.00" fill="#000000">/include/EMCALWorkflow/CellConverter</text>
<text text-anchor="middle" x="503.6432" y="-196.5" font-family="Helvetica,sans-Serif" font-size="10.00" fill="#000000">Spec.h</text>
</a>
</g>
</g>
<!-- Node9&#45;&gt;Node22 -->
<g id="edge14" class="edge">
<title>Node9&#45;&gt;Node22</title>
<path fill="none" stroke="#191970" d="M1061.916,-312.9022C950.222,-303.2019 769.3413,-284.2258 615.6432,-253 612.5714,-252.3759 609.4611,-251.7101 606.328,-251.0099"/>
<polygon fill="#191970" stroke="#191970" points="1061.9085,-316.4144 1072.1715,-313.7836 1062.508,-309.4401 1061.9085,-316.4144"/>
</g>
<!-- Node24 -->
<g id="node16" class="node">
<title>Node24</title>
<g id="a_node16"><a xlink:href="../../d2/dd1/EMCAL_2workflow_2include_2EMCALWorkflow_2ClusterizerSpec_8h.html" target="_top" xlink:title="/home/travis/build\l/AliceO2Group/AliceO2\l/Detectors/EMCAL/workflow\l/include/EMCALWorkflow/Clusterizer\lSpec.h">
<polygon fill="none" stroke="#000000" points="864.1432,-189.5 864.1432,-252.5 1055.1432,-252.5 1055.1432,-189.5 864.1432,-189.5"/>
<text text-anchor="start" x="872.1432" y="-240.5" font-family="Helvetica,sans-Serif" font-size="10.00" fill="#000000">/home/travis/build</text>
<text text-anchor="start" x="872.1432" y="-229.5" font-family="Helvetica,sans-Serif" font-size="10.00" fill="#000000">/AliceO2Group/AliceO2</text>
<text text-anchor="start" x="872.1432" y="-218.5" font-family="Helvetica,sans-Serif" font-size="10.00" fill="#000000">/Detectors/EMCAL/workflow</text>
<text text-anchor="start" x="872.1432" y="-207.5" font-family="Helvetica,sans-Serif" font-size="10.00" fill="#000000">/include/EMCALWorkflow/Clusterizer</text>
<text text-anchor="middle" x="959.6432" y="-196.5" font-family="Helvetica,sans-Serif" font-size="10.00" fill="#000000">Spec.h</text>
</a>
</g>
</g>
<!-- Node9&#45;&gt;Node24 -->
<g id="edge17" class="edge">
<title>Node9&#45;&gt;Node24</title>
<path fill="none" stroke="#191970" d="M1093.0703,-285.1476C1070.8884,-274.4833 1046.7602,-262.8832 1025.198,-252.5168"/>
<polygon fill="#191970" stroke="#191970" points="1091.5871,-288.318 1102.1162,-289.4966 1094.6202,-282.0092 1091.5871,-288.318"/>
</g>
<!-- Node25 -->
<g id="node17" class="node">
<title>Node25</title>
<g id="a_node17"><a xlink:href="../../d7/d67/EMCAL_2workflow_2src_2ClusterizerSpec_8cxx.html" target="_top" xlink:title="/home/travis/build\l/AliceO2Group/AliceO2\l/Detectors/EMCAL/workflow\l/src/ClusterizerSpec.cxx">
<polygon fill="none" stroke="#000000" points="843.6432,-95 843.6432,-147 993.6432,-147 993.6432,-95 843.6432,-95"/>
<text text-anchor="start" x="851.6432" y="-135" font-family="Helvetica,sans-Serif" font-size="10.00" fill="#000000">/home/travis/build</text>
<text text-anchor="start" x="851.6432" y="-124" font-family="Helvetica,sans-Serif" font-size="10.00" fill="#000000">/AliceO2Group/AliceO2</text>
<text text-anchor="start" x="851.6432" y="-113" font-family="Helvetica,sans-Serif" font-size="10.00" fill="#000000">/Detectors/EMCAL/workflow</text>
<text text-anchor="middle" x="918.6432" y="-102" font-family="Helvetica,sans-Serif" font-size="10.00" fill="#000000">/src/ClusterizerSpec.cxx</text>
</a>
</g>
</g>
<!-- Node9&#45;&gt;Node25 -->
<g id="edge27" class="edge">
<title>Node9&#45;&gt;Node25</title>
<path fill="none" stroke="#191970" d="M1062.302,-312.0378C982.1829,-302.7803 881.4484,-285.0352 855.6432,-253 837.7995,-230.8485 845.2612,-215.4821 855.6432,-189 861.8696,-173.1178 873.741,-158.7296 885.5151,-147.3212"/>
<polygon fill="#191970" stroke="#191970" points="1062.133,-315.5408 1072.4614,-313.1795 1062.9148,-308.5846 1062.133,-315.5408"/>
</g>
<!-- Node26 -->
<g id="node18" class="node">
<title>Node26</title>
<g id="a_node18"><a xlink:href="../../d2/d55/EMCAL_2workflow_2include_2EMCALWorkflow_2PublisherSpec_8h.html" target="_top" xlink:title="/home/travis/build\l/AliceO2Group/AliceO2\l/Detectors/EMCAL/workflow\l/include/EMCALWorkflow/Publisher\lSpec.h">
<polygon fill="none" stroke="#000000" points="624.1432,-189.5 624.1432,-252.5 807.1432,-252.5 807.1432,-189.5 624.1432,-189.5"/>
<text text-anchor="start" x="632.1432" y="-240.5" font-family="Helvetica,sans-Serif" font-size="10.00" fill="#000000">/home/travis/build</text>
<text text-anchor="start" x="632.1432" y="-229.5" font-family="Helvetica,sans-Serif" font-size="10.00" fill="#000000">/AliceO2Group/AliceO2</text>
<text text-anchor="start" x="632.1432" y="-218.5" font-family="Helvetica,sans-Serif" font-size="10.00" fill="#000000">/Detectors/EMCAL/workflow</text>
<text text-anchor="start" x="632.1432" y="-207.5" font-family="Helvetica,sans-Serif" font-size="10.00" fill="#000000">/include/EMCALWorkflow/Publisher</text>
<text text-anchor="middle" x="715.6432" y="-196.5" font-family="Helvetica,sans-Serif" font-size="10.00" fill="#000000">Spec.h</text>
</a>
</g>
</g>
<!-- Node9&#45;&gt;Node26 -->
<g id="edge20" class="edge">
<title>Node9&#45;&gt;Node26</title>
<path fill="none" stroke="#191970" d="M1062.3711,-303.1108C993.5005,-290.7206 901.7688,-272.916 821.6432,-253 816.9793,-251.8408 812.2155,-250.6027 807.4157,-249.3124"/>
<polygon fill="#191970" stroke="#191970" points="1061.9021,-306.5824 1072.3623,-304.8992 1063.1355,-299.6919 1061.9021,-306.5824"/>
</g>
<!-- Node28 -->
<g id="node20" class="node">
<title>Node28</title>
<g id="a_node20"><a xlink:href="../../d5/da4/RawToCellConverterSpec_8h.html" target="_top" xlink:title="/home/travis/build\l/AliceO2Group/AliceO2\l/Detectors/EMCAL/workflow\l/include/EMCALWorkflow/RawToCell\lConverterSpec.h">
<polygon fill="none" stroke="#000000" points="1073.6432,-189.5 1073.6432,-252.5 1261.6432,-252.5 1261.6432,-189.5 1073.6432,-189.5"/>
<text text-anchor="start" x="1081.6432" y="-240.5" font-family="Helvetica,sans-Serif" font-size="10.00" fill="#000000">/home/travis/build</text>
<text text-anchor="start" x="1081.6432" y="-229.5" font-family="Helvetica,sans-Serif" font-size="10.00" fill="#000000">/AliceO2Group/AliceO2</text>
<text text-anchor="start" x="1081.6432" y="-218.5" font-family="Helvetica,sans-Serif" font-size="10.00" fill="#000000">/Detectors/EMCAL/workflow</text>
<text text-anchor="start" x="1081.6432" y="-207.5" font-family="Helvetica,sans-Serif" font-size="10.00" fill="#000000">/include/EMCALWorkflow/RawToCell</text>
<text text-anchor="middle" x="1167.6432" y="-196.5" font-family="Helvetica,sans-Serif" font-size="10.00" fill="#000000">ConverterSpec.h</text>
</a>
</g>
</g>
<!-- Node9&#45;&gt;Node28 -->
<g id="edge23" class="edge">
<title>Node9&#45;&gt;Node28</title>
<path fill="none" stroke="#191970" d="M1167.6432,-279.2111C1167.6432,-270.37 1167.6432,-261.1767 1167.6432,-252.778"/>
<polygon fill="#191970" stroke="#191970" points="1164.1433,-279.3593 1167.6432,-289.3594 1171.1433,-279.3594 1164.1433,-279.3593"/>
</g>
<!-- Node29 -->
<g id="node21" class="node">
<title>Node29</title>
<g id="a_node21"><a xlink:href="../../dd/d4a/RawToCellConverterSpec_8cxx.html" target="_top" xlink:title="/home/travis/build\l/AliceO2Group/AliceO2\l/Detectors/EMCAL/workflow\l/src/RawToCellConverterSpec.cxx">
<polygon fill="none" stroke="#000000" points="1118.1432,-95 1118.1432,-147 1297.1432,-147 1297.1432,-95 1118.1432,-95"/>
<text text-anchor="start" x="1126.1432" y="-135" font-family="Helvetica,sans-Serif" font-size="10.00" fill="#000000">/home/travis/build</text>
<text text-anchor="start" x="1126.1432" y="-124" font-family="Helvetica,sans-Serif" font-size="10.00" fill="#000000">/AliceO2Group/AliceO2</text>
<text text-anchor="start" x="1126.1432" y="-113" font-family="Helvetica,sans-Serif" font-size="10.00" fill="#000000">/Detectors/EMCAL/workflow</text>
<text text-anchor="middle" x="1207.6432" y="-102" font-family="Helvetica,sans-Serif" font-size="10.00" fill="#000000">/src/RawToCellConverterSpec.cxx</text>
</a>
</g>
</g>
<!-- Node9&#45;&gt;Node29 -->
<g id="edge29" class="edge">
<title>Node9&#45;&gt;Node29</title>
<path fill="none" stroke="#191970" d="M1244.5209,-283.253C1255.0141,-274.7702 1264.3324,-264.7284 1270.6432,-253 1284.1212,-227.9515 1281.0252,-215.4821 1270.6432,-189 1264.4167,-173.1178 1252.5454,-158.7296 1240.7713,-147.3212"/>
<polygon fill="#191970" stroke="#191970" points="1242.1857,-280.6299 1236.2979,-289.4381 1246.3935,-286.224 1242.1857,-280.6299"/>
</g>
<!-- Node30 -->
<g id="node22" class="node">
<title>Node30</title>
<g id="a_node22"><a xlink:href="../../db/dd5/EMCAL_2workflow_2src_2DigitsPrinterSpec_8cxx.html" target="_top" xlink:title="/home/travis/build\l/AliceO2Group/AliceO2\l/Detectors/EMCAL/workflow\l/src/DigitsPrinterSpec.cxx">
<polygon fill="none" stroke="#000000" points="1909.6432,-195 1909.6432,-247 2059.6432,-247 2059.6432,-195 1909.6432,-195"/>
<text text-anchor="start" x="1917.6432" y="-235" font-family="Helvetica,sans-Serif" font-size="10.00" fill="#000000">/home/travis/build</text>
<text text-anchor="start" x="1917.6432" y="-224" font-family="Helvetica,sans-Serif" font-size="10.00" fill="#000000">/AliceO2Group/AliceO2</text>
<text text-anchor="start" x="1917.6432" y="-213" font-family="Helvetica,sans-Serif" font-size="10.00" fill="#000000">/Detectors/EMCAL/workflow</text>
<text text-anchor="middle" x="1984.6432" y="-202" font-family="Helvetica,sans-Serif" font-size="10.00" fill="#000000">/src/DigitsPrinterSpec.cxx</text>
</a>
</g>
</g>
<!-- Node9&#45;&gt;Node30 -->
<g id="edge28" class="edge">
<title>Node9&#45;&gt;Node30</title>
<path fill="none" stroke="#191970" d="M1273.0678,-314.8182C1446.6589,-304.0376 1785.0498,-280.3217 1901.6432,-253 1908.4095,-251.4144 1915.3616,-249.3975 1922.2252,-247.1499"/>
<polygon fill="#191970" stroke="#191970" points="1272.6581,-311.3368 1262.8931,-315.447 1273.09,-318.3235 1272.6581,-311.3368"/>
</g>
<!-- Node31 -->
<g id="node23" class="node">
<title>Node31</title>
<g id="a_node23"><a xlink:href="../../d5/d9b/EMCALDigitizerSpec_8cxx.html" target="_top" xlink:title="/home/travis/build\l/AliceO2Group/AliceO2\l/Steer/DigitizerWorkflow\l/src/EMCALDigitizerSpec.cxx">
<polygon fill="none" stroke="#000000" points="2078.1432,-195 2078.1432,-247 2233.1432,-247 2233.1432,-195 2078.1432,-195"/>
<text text-anchor="start" x="2086.1432" y="-235" font-family="Helvetica,sans-Serif" font-size="10.00" fill="#000000">/home/travis/build</text>
<text text-anchor="start" x="2086.1432" y="-224" font-family="Helvetica,sans-Serif" font-size="10.00" fill="#000000">/AliceO2Group/AliceO2</text>
<text text-anchor="start" x="2086.1432" y="-213" font-family="Helvetica,sans-Serif" font-size="10.00" fill="#000000">/Steer/DigitizerWorkflow</text>
<text text-anchor="middle" x="2155.6432" y="-202" font-family="Helvetica,sans-Serif" font-size="10.00" fill="#000000">/src/EMCALDigitizerSpec.cxx</text>
</a>
</g>
</g>
<!-- Node9&#45;&gt;Node31 -->
<g id="edge30" class="edge">
<title>Node9&#45;&gt;Node31</title>
<path fill="none" stroke="#191970" d="M1272.949,-316.7143C1477.0691,-307.8036 1919.5903,-285.3767 2068.6432,-253 2075.8775,-251.4286 2083.321,-249.3887 2090.6649,-247.0994"/>
<polygon fill="#191970" stroke="#191970" points="1272.6565,-313.2236 1262.8177,-317.154 1272.96,-320.217 1272.6565,-313.2236"/>
</g>
<!-- Node32 -->
<g id="node24" class="node">
<title>Node32</title>
<g id="a_node24"><a xlink:href="../../d9/db2/EMCALDigitWriterSpec_8cxx.html" target="_top" xlink:title="/home/travis/build\l/AliceO2Group/AliceO2\l/Steer/DigitizerWorkflow\l/src/EMCALDigitWriterSpec.cxx">
<polygon fill="none" stroke="#000000" points="2251.6432,-195 2251.6432,-247 2417.6432,-247 2417.6432,-195 2251.6432,-195"/>
<text text-anchor="start" x="2259.6432" y="-235" font-family="Helvetica,sans-Serif" font-size="10.00" fill="#000000">/home/travis/build</text>
<text text-anchor="start" x="2259.6432" y="-224" font-family="Helvetica,sans-Serif" font-size="10.00" fill="#000000">/AliceO2Group/AliceO2</text>
<text text-anchor="start" x="2259.6432" y="-213" font-family="Helvetica,sans-Serif" font-size="10.00" fill="#000000">/Steer/DigitizerWorkflow</text>
<text text-anchor="middle" x="2334.6432" y="-202" font-family="Helvetica,sans-Serif" font-size="10.00" fill="#000000">/src/EMCALDigitWriterSpec.cxx</text>
</a>
</g>
</g>
<!-- Node9&#45;&gt;Node32 -->
<g id="edge31" class="edge">
<title>Node9&#45;&gt;Node32</title>
<path fill="none" stroke="#191970" d="M1273.0512,-317.9706C1506.1686,-310.6796 2059.3029,-289.9653 2242.6432,-253 2250.4345,-251.4291 2258.4659,-249.3564 2266.3867,-247.0191"/>
<polygon fill="#191970" stroke="#191970" points="1272.7554,-314.478 1262.8689,-318.2869 1272.9728,-321.4746 1272.7554,-314.478"/>
</g>
<!-- Node11 -->
<g id="node3" class="node">
<title>Node11</title>
<g id="a_node3"><a xlink:href="../../d7/d53/EventHandler_8cxx.html" target="_top" xlink:title="/home/travis/build\l/AliceO2Group/AliceO2\l/DataFormats/Detectors\l/EMCAL/src/EventHandler.cxx">
<polygon fill="none" stroke="#000000" points="23.6432,-95 23.6432,-147 181.6432,-147 181.6432,-95 23.6432,-95"/>
<text text-anchor="start" x="31.6432" y="-135" font-family="Helvetica,sans-Serif" font-size="10.00" fill="#000000">/home/travis/build</text>
<text text-anchor="start" x="31.6432" y="-124" font-family="Helvetica,sans-Serif" font-size="10.00" fill="#000000">/AliceO2Group/AliceO2</text>
<text text-anchor="start" x="31.6432" y="-113" font-family="Helvetica,sans-Serif" font-size="10.00" fill="#000000">/DataFormats/Detectors</text>
<text text-anchor="middle" x="102.6432" y="-102" font-family="Helvetica,sans-Serif" font-size="10.00" fill="#000000">/EMCAL/src/EventHandler.cxx</text>
</a>
</g>
</g>
<!-- Node10&#45;&gt;Node11 -->
<g id="edge2" class="edge">
<title>Node10&#45;&gt;Node11</title>
<path fill="none" stroke="#191970" d="M194.5219,-183.5025C176.6907,-171.3725 157.3175,-158.1934 140.9778,-147.078"/>
<polygon fill="#191970" stroke="#191970" points="192.8946,-186.6286 203.1315,-189.3594 196.8319,-180.8408 192.8946,-186.6286"/>
</g>
<!-- Node10&#45;&gt;Node12 -->
<g id="edge3" class="edge">
<title>Node10&#45;&gt;Node12</title>
<path fill="none" stroke="#191970" d="M272.6431,-180.6493C277.9314,-171.3716 283.4823,-161.6331 288.5297,-152.778"/>
<polygon fill="#191970" stroke="#191970" points="269.5897,-178.9384 267.6783,-189.3594 275.6711,-182.4048 269.5897,-178.9384"/>
</g>
<!-- Node12&#45;&gt;Node13 -->
<g id="edge4" class="edge">
<title>Node12&#45;&gt;Node13</title>
<path fill="none" stroke="#191970" d="M245.7634,-83.883C228.6325,-73.4387 210.3647,-62.3012 194.5251,-52.6442"/>
<polygon fill="#191970" stroke="#191970" points="244.239,-87.0527 254.5992,-89.27 247.8829,-81.076 244.239,-87.0527"/>
</g>
<!-- Node14 -->
<g id="node6" class="node">
<title>Node14</title>
<g id="a_node6"><a xlink:href="../../d2/dbf/EMCAL_2workflow_2src_2RecoWorkflow_8cxx.html" target="_top" xlink:title="/home/travis/build\l/AliceO2Group/AliceO2\l/Detectors/EMCAL/workflow\l/src/RecoWorkflow.cxx">
<polygon fill="none" stroke="#000000" points="572.6432,-.5 572.6432,-52.5 722.6432,-52.5 722.6432,-.5 572.6432,-.5"/>
<text text-anchor="start" x="580.6432" y="-40.5" font-family="Helvetica,sans-Serif" font-size="10.00" fill="#000000">/home/travis/build</text>
<text text-anchor="start" x="580.6432" y="-29.5" font-family="Helvetica,sans-Serif" font-size="10.00" fill="#000000">/AliceO2Group/AliceO2</text>
<text text-anchor="start" x="580.6432" y="-18.5" font-family="Helvetica,sans-Serif" font-size="10.00" fill="#000000">/Detectors/EMCAL/workflow</text>
<text text-anchor="middle" x="647.6432" y="-7.5" font-family="Helvetica,sans-Serif" font-size="10.00" fill="#000000">/src/RecoWorkflow.cxx</text>
</a>
</g>
</g>
<!-- Node12&#45;&gt;Node14 -->
<g id="edge5" class="edge">
<title>Node12&#45;&gt;Node14</title>
<path fill="none" stroke="#191970" d="M423.8325,-88.5238C473.1149,-74.8663 529.0044,-59.3779 572.6049,-47.2951"/>
<polygon fill="#191970" stroke="#191970" points="422.7717,-85.1858 414.0697,-91.2293 424.6412,-91.9315 422.7717,-85.1858"/>
</g>
<!-- Node17 -->
<g id="node9" class="node">
<title>Node17</title>
<g id="a_node9"><a xlink:href="../../d8/dc0/ClusterizerTask_8h.html" target="_top" xlink:title="Definition of the EMCAL clusterizer task. ">
<polygon fill="none" stroke="#000000" points="1320.6432,-89.5 1320.6432,-152.5 1496.6432,-152.5 1496.6432,-89.5 1320.6432,-89.5"/>
<text text-anchor="start" x="1328.6432" y="-140.5" font-family="Helvetica,sans-Serif" font-size="10.00" fill="#000000">/home/travis/build</text>
<text text-anchor="start" x="1328.6432" y="-129.5" font-family="Helvetica,sans-Serif" font-size="10.00" fill="#000000">/AliceO2Group/AliceO2</text>
<text text-anchor="start" x="1328.6432" y="-118.5" font-family="Helvetica,sans-Serif" font-size="10.00" fill="#000000">/Detectors/EMCAL/reconstruction</text>
<text text-anchor="start" x="1328.6432" y="-107.5" font-family="Helvetica,sans-Serif" font-size="10.00" fill="#000000">/include/EMCALReconstruction</text>
<text text-anchor="middle" x="1408.6432" y="-96.5" font-family="Helvetica,sans-Serif" font-size="10.00" fill="#000000">/ClusterizerTask.h</text>
</a>
</g>
</g>
<!-- Node16&#45;&gt;Node17 -->
<g id="edge8" class="edge">
<title>Node16&#45;&gt;Node17</title>
<path fill="none" stroke="#191970" d="M1518.1981,-184.3265C1500.1961,-173.9208 1480.757,-162.6843 1463.3221,-152.6063"/>
<polygon fill="#191970" stroke="#191970" points="1516.4956,-187.3851 1526.9049,-189.3594 1519.9988,-181.3247 1516.4956,-187.3851"/>
</g>
<!-- Node19 -->
<g id="node11" class="node">
<title>Node19</title>
<g id="a_node11"><a xlink:href="../../de/dbb/EMCAL_2reconstruction_2src_2DigitReader_8cxx.html" target="_top" xlink:title="/home/travis/build\l/AliceO2Group/AliceO2\l/Detectors/EMCAL/reconstruction\l/src/DigitReader.cxx">
<polygon fill="none" stroke="#000000" points="1514.6432,-95 1514.6432,-147 1690.6432,-147 1690.6432,-95 1514.6432,-95"/>
<text text-anchor="start" x="1522.6432" y="-135" font-family="Helvetica,sans-Serif" font-size="10.00" fill="#000000">/home/travis/build</text>
<text text-anchor="start" x="1522.6432" y="-124" font-family="Helvetica,sans-Serif" font-size="10.00" fill="#000000">/AliceO2Group/AliceO2</text>
<text text-anchor="start" x="1522.6432" y="-113" font-family="Helvetica,sans-Serif" font-size="10.00" fill="#000000">/Detectors/EMCAL/reconstruction</text>
<text text-anchor="middle" x="1602.6432" y="-102" font-family="Helvetica,sans-Serif" font-size="10.00" fill="#000000">/src/DigitReader.cxx</text>
</a>
</g>
</g>
<!-- Node16&#45;&gt;Node19 -->
<g id="edge10" class="edge">
<title>Node16&#45;&gt;Node19</title>
<path fill="none" stroke="#191970" d="M1590.3583,-179.4993C1592.6636,-168.5216 1595.0872,-156.9808 1597.1668,-147.078"/>
<polygon fill="#191970" stroke="#191970" points="1586.9177,-178.8535 1588.2877,-189.3594 1593.7682,-180.2922 1586.9177,-178.8535"/>
</g>
<!-- Node18 -->
<g id="node10" class="node">
<title>Node18</title>
<g id="a_node10"><a xlink:href="../../d6/da0/ClusterizerTask_8cxx.html" target="_top" xlink:title="Implementation of the EMCAL cluster finder task. ">
<polygon fill="none" stroke="#000000" points="1320.6432,-.5 1320.6432,-52.5 1496.6432,-52.5 1496.6432,-.5 1320.6432,-.5"/>
<text text-anchor="start" x="1328.6432" y="-40.5" font-family="Helvetica,sans-Serif" font-size="10.00" fill="#000000">/home/travis/build</text>
<text text-anchor="start" x="1328.6432" y="-29.5" font-family="Helvetica,sans-Serif" font-size="10.00" fill="#000000">/AliceO2Group/AliceO2</text>
<text text-anchor="start" x="1328.6432" y="-18.5" font-family="Helvetica,sans-Serif" font-size="10.00" fill="#000000">/Detectors/EMCAL/reconstruction</text>
<text text-anchor="middle" x="1408.6432" y="-7.5" font-family="Helvetica,sans-Serif" font-size="10.00" fill="#000000">/src/ClusterizerTask.cxx</text>
</a>
</g>
</g>
<!-- Node17&#45;&gt;Node18 -->
<g id="edge9" class="edge">
<title>Node17&#45;&gt;Node18</title>
<path fill="none" stroke="#191970" d="M1408.6432,-79.2457C1408.6432,-70.2008 1408.6432,-60.8836 1408.6432,-52.6442"/>
<polygon fill="#191970" stroke="#191970" points="1405.1433,-79.2699 1408.6432,-89.27 1412.1433,-79.27 1405.1433,-79.2699"/>
</g>
<!-- Node21 -->
<g id="node13" class="node">
<title>Node21</title>
<g id="a_node13"><a xlink:href="../../d3/deb/RawWriter_8cxx.html" target="_top" xlink:title="/home/travis/build\l/AliceO2Group/AliceO2\l/Detectors/EMCAL/simulation\l/src/RawWriter.cxx">
<polygon fill="none" stroke="#000000" points="1710.6432,-95 1710.6432,-147 1868.6432,-147 1868.6432,-95 1710.6432,-95"/>
<text text-anchor="start" x="1718.6432" y="-135" font-family="Helvetica,sans-Serif" font-size="10.00" fill="#000000">/home/travis/build</text>
<text text-anchor="start" x="1718.6432" y="-124" font-family="Helvetica,sans-Serif" font-size="10.00" fill="#000000">/AliceO2Group/AliceO2</text>
<text text-anchor="start" x="1718.6432" y="-113" font-family="Helvetica,sans-Serif" font-size="10.00" fill="#000000">/Detectors/EMCAL/simulation</text>
<text text-anchor="middle" x="1789.6432" y="-102" font-family="Helvetica,sans-Serif" font-size="10.00" fill="#000000">/src/RawWriter.cxx</text>
</a>
</g>
</g>
<!-- Node20&#45;&gt;Node21 -->
<g id="edge12" class="edge">
<title>Node20&#45;&gt;Node21</title>
<path fill="none" stroke="#191970" d="M1789.6432,-184.8962C1789.6432,-172.4433 1789.6432,-158.7413 1789.6432,-147.2299"/>
<polygon fill="#191970" stroke="#191970" points="1786.1433,-184.9872 1789.6432,-194.9872 1793.1433,-184.9873 1786.1433,-184.9872"/>
</g>
<!-- Node22&#45;&gt;Node14 -->
<g id="edge16" class="edge">
<title>Node22&#45;&gt;Node14</title>
<path fill="none" stroke="#191970" d="M560.4721,-183.097C571.388,-174.1068 582.0722,-163.9222 590.6432,-153 614.7338,-122.3007 631.1604,-79.7981 639.9757,-52.7243"/>
<polygon fill="#191970" stroke="#191970" points="558.1603,-180.4635 552.5095,-189.4256 562.5158,-185.9434 558.1603,-180.4635"/>
</g>
<!-- Node23 -->
<g id="node15" class="node">
<title>Node23</title>
<g id="a_node15"><a xlink:href="../../dc/d49/EMCAL_2workflow_2src_2CellConverterSpec_8cxx.html" target="_top" xlink:title="/home/travis/build\l/AliceO2Group/AliceO2\l/Detectors/EMCAL/workflow\l/src/CellConverterSpec.cxx">
<polygon fill="none" stroke="#000000" points="431.6432,-95 431.6432,-147 581.6432,-147 581.6432,-95 431.6432,-95"/>
<text text-anchor="start" x="439.6432" y="-135" font-family="Helvetica,sans-Serif" font-size="10.00" fill="#000000">/home/travis/build</text>
<text text-anchor="start" x="439.6432" y="-124" font-family="Helvetica,sans-Serif" font-size="10.00" fill="#000000">/AliceO2Group/AliceO2</text>
<text text-anchor="start" x="439.6432" y="-113" font-family="Helvetica,sans-Serif" font-size="10.00" fill="#000000">/Detectors/EMCAL/workflow</text>
<text text-anchor="middle" x="506.6432" y="-102" font-family="Helvetica,sans-Serif" font-size="10.00" fill="#000000">/src/CellConverterSpec.cxx</text>
</a>
</g>
</g>
<!-- Node22&#45;&gt;Node23 -->
<g id="edge15" class="edge">
<title>Node22&#45;&gt;Node23</title>
<path fill="none" stroke="#191970" d="M504.8983,-179.1631C505.2246,-168.2863 505.5668,-156.8798 505.8608,-147.078"/>
<polygon fill="#191970" stroke="#191970" points="501.3939,-179.2589 504.5924,-189.3594 508.3908,-179.4689 501.3939,-179.2589"/>
</g>
<!-- Node24&#45;&gt;Node14 -->
<g id="edge19" class="edge">
<title>Node24&#45;&gt;Node14</title>
<path fill="none" stroke="#191970" d="M990.9609,-181.0046C1009.1461,-152.629 1024.549,-115.0994 1002.6432,-89 967.6415,-47.2977 816.2191,-33.411 722.8052,-28.7935"/>
<polygon fill="#191970" stroke="#191970" points="987.9302,-179.2397 985.2661,-189.4941 993.7435,-183.1393 987.9302,-179.2397"/>
</g>
<!-- Node24&#45;&gt;Node25 -->
<g id="edge18" class="edge">
<title>Node24&#45;&gt;Node25</title>
<path fill="none" stroke="#191970" d="M942.7656,-179.8352C938.2237,-168.7573 933.4367,-157.0819 929.3351,-147.078"/>
<polygon fill="#191970" stroke="#191970" points="939.6385,-181.4346 946.6705,-189.3594 946.1153,-178.7791 939.6385,-181.4346"/>
</g>
<!-- Node26&#45;&gt;Node14 -->
<g id="edge22" class="edge">
<title>Node26&#45;&gt;Node14</title>
<path fill="none" stroke="#191970" d="M682.2132,-181.1461C676.1984,-172.325 670.5944,-162.702 666.6432,-153 653.2409,-120.0914 649.1696,-78.9045 648.0008,-52.6421"/>
<polygon fill="#191970" stroke="#191970" points="679.403,-183.2336 688.0652,-189.3342 685.0981,-179.1633 679.403,-183.2336"/>
</g>
<!-- Node27 -->
<g id="node19" class="node">
<title>Node27</title>
<g id="a_node19"><a xlink:href="../../d4/d71/EMCAL_2workflow_2src_2PublisherSpec_8cxx.html" target="_top" xlink:title="/home/travis/build\l/AliceO2Group/AliceO2\l/Detectors/EMCAL/workflow\l/src/PublisherSpec.cxx">
<polygon fill="none" stroke="#000000" points="675.6432,-95 675.6432,-147 825.6432,-147 825.6432,-95 675.6432,-95"/>
<text text-anchor="start" x="683.6432" y="-135" font-family="Helvetica,sans-Serif" font-size="10.00" fill="#000000">/home/travis/build</text>
<text text-anchor="start" x="683.6432" y="-124" font-family="Helvetica,sans-Serif" font-size="10.00" fill="#000000">/AliceO2Group/AliceO2</text>
<text text-anchor="start" x="683.6432" y="-113" font-family="Helvetica,sans-Serif" font-size="10.00" fill="#000000">/Detectors/EMCAL/workflow</text>
<text text-anchor="middle" x="750.6432" y="-102" font-family="Helvetica,sans-Serif" font-size="10.00" fill="#000000">/src/PublisherSpec.cxx</text>
</a>
</g>
</g>
<!-- Node26&#45;&gt;Node27 -->
<g id="edge21" class="edge">
<title>Node26&#45;&gt;Node27</title>
<path fill="none" stroke="#191970" d="M730.0509,-179.8352C733.9281,-168.7573 738.0145,-157.0819 741.5159,-147.078"/>
<polygon fill="#191970" stroke="#191970" points="726.7175,-178.7645 726.7174,-189.3594 733.3245,-181.077 726.7175,-178.7645"/>
</g>
<!-- Node28&#45;&gt;Node14 -->
<g id="edge25" class="edge">
<title>Node28&#45;&gt;Node14</title>
<path fill="none" stroke="#191970" d="M1135.3042,-181.4011C1108.2234,-151.074 1066.8281,-110.8453 1021.6432,-89 970.1543,-64.107 816.275,-44.2137 722.7105,-34.0004"/>
<polygon fill="#191970" stroke="#191970" points="1132.9868,-184.0667 1142.2137,-189.2739 1138.248,-179.4493 1132.9868,-184.0667"/>
</g>
<!-- Node28&#45;&gt;Node29 -->
<g id="edge24" class="edge">
<title>Node28&#45;&gt;Node29</title>
<path fill="none" stroke="#191970" d="M1184.1091,-179.8352C1188.5402,-168.7573 1193.2104,-157.0819 1197.212,-147.078"/>
<polygon fill="#191970" stroke="#191970" points="1180.7637,-178.7747 1180.2994,-189.3594 1187.2631,-181.3745 1180.7637,-178.7747"/>
</g>
</g>
</svg>
        <g id="navigator" transform="translate(0 0)" fill="#404254">
                <rect fill="#f2f5e9" fill-opacity="0.5" stroke="#606060" stroke-width=".5" x="0" y="0" width="60" height="60"/>
                <use id="zoomplus" xlink:href="#zoomPlus" x="17" y="9" onmousedown="handleZoom(evt,'in')"/>
                <use id="zoomminus" xlink:href="#zoomMin" x="42" y="9" onmousedown="handleZoom(evt,'out')"/>
                <use id="reset" xlink:href="#resetDef" x="30" y="36" onmousedown="handleReset()"/>
                <g id="arrowUp" xlink:href="#dirArrow" transform="translate(30 24)" onmousedown="handlePan(0,-1)">
                  <use xlink:href="#rim" fill="#404040">
                        <set attributeName="fill" to="#808080" begin="arrowUp.mouseover" end="arrowUp.mouseout"/>
                  </use>
                  <path fill="none" stroke="white" stroke-width="1.5" d="M0,-3.0v7 M-2.5,-0.5L0,-3.0L2.5,-0.5"/>
                </g>
                <g id="arrowRight" xlink:href="#dirArrow" transform="rotate(90) translate(36 -43)" onmousedown="handlePan(1,0)">
                  <use xlink:href="#rim" fill="#404040">
                        <set attributeName="fill" to="#808080" begin="arrowRight.mouseover" end="arrowRight.mouseout"/>
                  </use>
                  <path fill="none" stroke="white" stroke-width="1.5" d="M0,-3.0v7 M-2.5,-0.5L0,-3.0L2.5,-0.5"/>
                </g>
                <g id="arrowDown" xlink:href="#dirArrow" transform="rotate(180) translate(-30 -48)" onmousedown="handlePan(0,1)">
                  <use xlink:href="#rim" fill="#404040">
                        <set attributeName="fill" to="#808080" begin="arrowDown.mouseover" end="arrowDown.mouseout"/>
                  </use>
                  <path fill="none" stroke="white" stroke-width="1.5" d="M0,-3.0v7 M-2.5,-0.5L0,-3.0L2.5,-0.5"/>
                </g>
                <g id="arrowLeft" xlink:href="#dirArrow" transform="rotate(270) translate(-36 17)" onmousedown="handlePan(-1,0)">
                  <use xlink:href="#rim" fill="#404040">
                        <set attributeName="fill" to="#808080" begin="arrowLeft.mouseover" end="arrowLeft.mouseout"/>
                  </use>
                  <path fill="none" stroke="white" stroke-width="1.5" d="M0,-3.0v7 M-2.5,-0.5L0,-3.0L2.5,-0.5"/>
                </g>
        </g>
        <svg viewBox="0 0 15 15" width="100%" height="30px" preserveAspectRatio="xMaxYMin meet">
         <g id="arrow_out" transform="scale(0.3 0.3)">
          <a xlink:href="EMCAL_2include_2DataFormatsEMCAL_2TriggerRecord_8h__dep__incl_org.svg" target="_base">
           <rect id="button" ry="5" rx="5" y="6" x="6" height="38" width="38"
                fill="#f2f5e9" fill-opacity="0.5" stroke="#606060" stroke-width="1.0"/>
           <path id="arrow"
             d="M 11.500037,31.436501 C 11.940474,20.09759 22.043105,11.32322 32.158766,21.979434 L 37.068811,17.246167 C 37.068811,17.246167 37.088388,32 37.088388,32 L 22.160133,31.978069 C 22.160133,31.978069 26.997745,27.140456 26.997745,27.140456 C 18.528582,18.264221 13.291696,25.230495 11.500037,31.436501 z"
             style="fill:#404040;"/>
          </a>
         </g>
        </svg>
</svg>
