<?xml version="1.0" encoding="UTF-8" standalone="no"?>
<!DOCTYPE svg PUBLIC "-//W3C//DTD SVG 1.1//EN"
 "http://www.w3.org/Graphics/SVG/1.1/DTD/svg11.dtd">
<!-- Generated by graphviz version 2.40.1 (20161225.0304)
 -->
<!-- Title: /home/travis/build/AliceO2Group/AliceO2/DataFormats/simulation/include/SimulationDataFormat/LabelContainer.h Pages: 1 -->
<svg width="454pt" height="128pt"
 viewBox="0.00 0.00 453.50 128.00" xmlns="http://www.w3.org/2000/svg" xmlns:xlink="http://www.w3.org/1999/xlink">
<g id="graph0" class="graph" transform="scale(1 1) rotate(0) translate(4 124)">
<title>/home/travis/build/AliceO2Group/AliceO2/DataFormats/simulation/include/SimulationDataFormat/LabelContainer.h</title>
<!-- Node0 -->
<g id="node1" class="node">
<title>Node0</title>
<polygon fill="#bfbfbf" stroke="#000000" points="146.5,-56.5 146.5,-119.5 314.5,-119.5 314.5,-56.5 146.5,-56.5"/>
<text text-anchor="start" x="154.5" y="-107.5" font-family="Helvetica,sans-Serif" font-size="10.00" fill="#000000">/home/travis/build</text>
<text text-anchor="start" x="154.5" y="-96.5" font-family="Helvetica,sans-Serif" font-size="10.00" fill="#000000">/AliceO2Group/AliceO2</text>
<text text-anchor="start" x="154.5" y="-85.5" font-family="Helvetica,sans-Serif" font-size="10.00" fill="#000000">/DataFormats/simulation</text>
<text text-anchor="start" x="154.5" y="-74.5" font-family="Helvetica,sans-Serif" font-size="10.00" fill="#000000">/include/SimulationDataFormat</text>
<text text-anchor="middle" x="230.5" y="-63.5" font-family="Helvetica,sans-Serif" font-size="10.00" fill="#000000">/LabelContainer.h</text>
</g>
<!-- Node1 -->
<g id="node2" class="node">
<title>Node1</title>
<polygon fill="none" stroke="#bfbfbf" points="0,-.5 0,-19.5 67,-19.5 67,-.5 0,-.5"/>
<text text-anchor="middle" x="33.5" y="-7.5" font-family="Helvetica,sans-Serif" font-size="10.00" fill="#000000">TNamed.h</text>
</g>
<!-- Node0&#45;&gt;Node1 -->
<g id="edge1" class="edge">
<title>Node0&#45;&gt;Node1</title>
<path fill="none" stroke="#191970" d="M150.9404,-56.4992C121.6008,-44.8825 89.9313,-32.3433 66.8811,-23.2169"/>
<polygon fill="#191970" stroke="#191970" points="68.1484,-19.9543 57.5621,-19.5271 65.5714,-26.4627 68.1484,-19.9543"/>
</g>
<!-- Node2 -->
<g id="node3" class="node">
<title>Node2</title>
<polygon fill="none" stroke="#bfbfbf" points="85.5,-.5 85.5,-19.5 137.5,-19.5 137.5,-.5 85.5,-.5"/>
<text text-anchor="middle" x="111.5" y="-7.5" font-family="Helvetica,sans-Serif" font-size="10.00" fill="#000000">cassert</text>
</g>
<!-- Node0&#45;&gt;Node2 -->
<g id="edge2" class="edge">
<title>Node0&#45;&gt;Node2</title>
<path fill="none" stroke="#191970" d="M182.4412,-56.4992C165.9842,-45.7123 148.3136,-34.13 134.7252,-25.2232"/>
<polygon fill="#191970" stroke="#191970" points="136.3172,-22.0819 126.035,-19.5271 132.4798,-27.9364 136.3172,-22.0819"/>
</g>
<!-- Node3 -->
<g id="node4" class="node">
<title>Node3</title>
<polygon fill="none" stroke="#bfbfbf" points="156,-.5 156,-19.5 221,-19.5 221,-.5 156,-.5"/>
<text text-anchor="middle" x="188.5" y="-7.5" font-family="Helvetica,sans-Serif" font-size="10.00" fill="#000000">stdexcept</text>
</g>
<!-- Node0&#45;&gt;Node3 -->
<g id="edge3" class="edge">
<title>Node0&#45;&gt;Node3</title>
<path fill="none" stroke="#191970" d="M213.417,-56.2744C208.3241,-46.8162 202.9125,-36.7661 198.4384,-28.4571"/>
<polygon fill="#191970" stroke="#191970" points="201.5149,-26.7879 193.6921,-19.6426 195.3515,-30.1067 201.5149,-26.7879"/>
</g>
<!-- Node4 -->
<g id="node5" class="node">
<title>Node4</title>
<polygon fill="none" stroke="#bfbfbf" points="239,-.5 239,-19.5 308,-19.5 308,-.5 239,-.5"/>
<text text-anchor="middle" x="273.5" y="-7.5" font-family="Helvetica,sans-Serif" font-size="10.00" fill="#000000">type_traits</text>
</g>
<!-- Node0&#45;&gt;Node4 -->
<g id="edge4" class="edge">
<title>Node0&#45;&gt;Node4</title>
<path fill="none" stroke="#191970" d="M247.9897,-56.2744C253.2039,-46.8162 258.7443,-36.7661 263.3249,-28.4571"/>
<polygon fill="#191970" stroke="#191970" points="266.4215,-30.0897 268.1842,-19.6426 260.2913,-26.7102 266.4215,-30.0897"/>
</g>
<!-- Node5 -->
<g id="node6" class="node">
<title>Node5</title>
<polygon fill="none" stroke="#bfbfbf" points="326,-.5 326,-19.5 379,-19.5 379,-.5 326,-.5"/>
<text text-anchor="middle" x="352.5" y="-7.5" font-family="Helvetica,sans-Serif" font-size="10.00" fill="#000000">iterator</text>
</g>
<!-- Node0&#45;&gt;Node5 -->
<g id="edge5" class="edge">
<title>Node0&#45;&gt;Node5</title>
<path fill="none" stroke="#191970" d="M279.7704,-56.4992C296.8045,-45.6086 315.1068,-33.9071 329.09,-24.967"/>
<polygon fill="#191970" stroke="#191970" points="331.0587,-27.8626 337.5986,-19.5271 327.288,-21.965 331.0587,-27.8626"/>
</g>
<!-- Node6 -->
<g id="node7" class="node">
<title>Node6</title>
<polygon fill="none" stroke="#bfbfbf" points="397.5,-.5 397.5,-19.5 445.5,-19.5 445.5,-.5 397.5,-.5"/>
<text text-anchor="middle" x="421.5" y="-7.5" font-family="Helvetica,sans-Serif" font-size="10.00" fill="#000000">gsl/gsl</text>
</g>
<!-- Node0&#45;&gt;Node6 -->
<g id="edge6" class="edge">
<title>Node0&#45;&gt;Node6</title>
<path fill="none" stroke="#191970" d="M307.6365,-56.4992C335.9555,-44.9344 366.5133,-32.4553 388.8358,-23.3393"/>
<polygon fill="#191970" stroke="#191970" points="390.2362,-26.5481 398.1707,-19.5271 387.5897,-20.0676 390.2362,-26.5481"/>
</g>
</g>
</svg>
