<?xml version="1.0" encoding="UTF-8" standalone="no"?>
<!DOCTYPE svg PUBLIC "-//W3C//DTD SVG 1.1//EN"
 "http://www.w3.org/Graphics/SVG/1.1/DTD/svg11.dtd">
<!-- Generated by graphviz version 2.40.1 (20161225.0304)
 -->
<!-- Title: /home/travis/build/AliceO2Group/AliceO2/Utilities/rANS/include/librans/SymbolTable.h Pages: 1 -->
<svg width="360pt" height="173pt"
 viewBox="0.00 0.00 359.50 173.00" xmlns="http://www.w3.org/2000/svg" xmlns:xlink="http://www.w3.org/1999/xlink">
<g id="graph0" class="graph" transform="scale(1 1) rotate(0) translate(4 169)">
<title>/home/travis/build/AliceO2Group/AliceO2/Utilities/rANS/include/librans/SymbolTable.h</title>
<!-- Node0 -->
<g id="node1" class="node">
<title>Node0</title>
<polygon fill="#bfbfbf" stroke="#000000" points="35,-112.5 35,-164.5 162,-164.5 162,-112.5 35,-112.5"/>
<text text-anchor="start" x="43" y="-152.5" font-family="Helvetica,sans-Serif" font-size="10.00" fill="#000000">/home/travis/build</text>
<text text-anchor="start" x="43" y="-141.5" font-family="Helvetica,sans-Serif" font-size="10.00" fill="#000000">/AliceO2Group/AliceO2</text>
<text text-anchor="start" x="43" y="-130.5" font-family="Helvetica,sans-Serif" font-size="10.00" fill="#000000">/Utilities/rANS/include</text>
<text text-anchor="middle" x="98.5" y="-119.5" font-family="Helvetica,sans-Serif" font-size="10.00" fill="#000000">/librans/SymbolTable.h</text>
</g>
<!-- Node1 -->
<g id="node2" class="node">
<title>Node1</title>
<polygon fill="none" stroke="#bfbfbf" points="0,-.5 0,-19.5 47,-19.5 47,-.5 0,-.5"/>
<text text-anchor="middle" x="23.5" y="-7.5" font-family="Helvetica,sans-Serif" font-size="10.00" fill="#000000">vector</text>
</g>
<!-- Node0&#45;&gt;Node1 -->
<g id="edge1" class="edge">
<title>Node0&#45;&gt;Node1</title>
<path fill="none" stroke="#191970" d="M83.3226,-112.4961C68.7067,-87.4541 46.9775,-50.2247 34.1242,-28.2028"/>
<polygon fill="#191970" stroke="#191970" points="37.1167,-26.3864 29.053,-19.5142 31.0711,-29.915 37.1167,-26.3864"/>
</g>
<!-- Node2 -->
<g id="node3" class="node">
<title>Node2</title>
<g id="a_node3"><a xlink:href="../../d0/d51/SymbolStatistics_8h.html" target="_top" xlink:title="Structure to depict the distribution of symbols in the source message. ">
<polygon fill="none" stroke="#000000" points="103,-56.5 103,-75.5 210,-75.5 210,-56.5 103,-56.5"/>
<text text-anchor="middle" x="156.5" y="-63.5" font-family="Helvetica,sans-Serif" font-size="10.00" fill="#000000">SymbolStatistics.h</text>
</a>
</g>
</g>
<!-- Node0&#45;&gt;Node2 -->
<g id="edge2" class="edge">
<title>Node0&#45;&gt;Node2</title>
<path fill="none" stroke="#191970" d="M119.4393,-112.3258C127.1295,-102.7131 135.6412,-92.0735 142.5661,-83.4174"/>
<polygon fill="#191970" stroke="#191970" points="145.3589,-85.5292 148.8728,-75.534 139.8928,-81.1563 145.3589,-85.5292"/>
</g>
<!-- Node2&#45;&gt;Node1 -->
<g id="edge7" class="edge">
<title>Node2&#45;&gt;Node1</title>
<path fill="none" stroke="#191970" d="M133.6365,-56.3733C112.095,-47.3032 79.6162,-33.6279 55.5044,-23.4755"/>
<polygon fill="#191970" stroke="#191970" points="56.6397,-20.156 46.0652,-19.5011 53.9233,-26.6075 56.6397,-20.156"/>
</g>
<!-- Node3 -->
<g id="node4" class="node">
<title>Node3</title>
<polygon fill="none" stroke="#bfbfbf" points="65.5,-.5 65.5,-19.5 129.5,-19.5 129.5,-.5 65.5,-.5"/>
<text text-anchor="middle" x="97.5" y="-7.5" font-family="Helvetica,sans-Serif" font-size="10.00" fill="#000000">algorithm</text>
</g>
<!-- Node2&#45;&gt;Node3 -->
<g id="edge3" class="edge">
<title>Node2&#45;&gt;Node3</title>
<path fill="none" stroke="#191970" d="M146.223,-56.2455C137.6782,-48.1352 125.3222,-36.4075 115.1915,-26.7919"/>
<polygon fill="#191970" stroke="#191970" points="117.3218,-23.9884 107.6592,-19.6427 112.5028,-29.0655 117.3218,-23.9884"/>
</g>
<!-- Node4 -->
<g id="node5" class="node">
<title>Node4</title>
<polygon fill="none" stroke="#bfbfbf" points="147.5,-.5 147.5,-19.5 199.5,-19.5 199.5,-.5 147.5,-.5"/>
<text text-anchor="middle" x="173.5" y="-7.5" font-family="Helvetica,sans-Serif" font-size="10.00" fill="#000000">cassert</text>
</g>
<!-- Node2&#45;&gt;Node4 -->
<g id="edge4" class="edge">
<title>Node2&#45;&gt;Node4</title>
<path fill="none" stroke="#191970" d="M159.4612,-56.2455C161.7038,-48.8579 164.8577,-38.4689 167.6081,-29.4087"/>
<polygon fill="#191970" stroke="#191970" points="171.017,-30.2282 170.5728,-19.6427 164.3188,-28.1948 171.017,-30.2282"/>
</g>
<!-- Node5 -->
<g id="node6" class="node">
<title>Node5</title>
<polygon fill="none" stroke="#bfbfbf" points="217.5,-.5 217.5,-19.5 277.5,-19.5 277.5,-.5 217.5,-.5"/>
<text text-anchor="middle" x="247.5" y="-7.5" font-family="Helvetica,sans-Serif" font-size="10.00" fill="#000000">iostream</text>
</g>
<!-- Node2&#45;&gt;Node5 -->
<g id="edge5" class="edge">
<title>Node2&#45;&gt;Node5</title>
<path fill="none" stroke="#191970" d="M172.351,-56.2455C186.3132,-47.6534 206.8728,-35.0014 222.9596,-25.1018"/>
<polygon fill="#191970" stroke="#191970" points="225.1484,-27.8645 231.8307,-19.6427 221.4797,-21.9029 225.1484,-27.8645"/>
</g>
<!-- Node6 -->
<g id="node7" class="node">
<title>Node6</title>
<polygon fill="none" stroke="#bfbfbf" points="295.5,-.5 295.5,-19.5 351.5,-19.5 351.5,-.5 295.5,-.5"/>
<text text-anchor="middle" x="323.5" y="-7.5" font-family="Helvetica,sans-Serif" font-size="10.00" fill="#000000">numeric</text>
</g>
<!-- Node2&#45;&gt;Node6 -->
<g id="edge6" class="edge">
<title>Node2&#45;&gt;Node6</title>
<path fill="none" stroke="#191970" d="M185.2083,-56.3733C212.9415,-47.0735 255.1122,-32.9324 285.5931,-22.7113"/>
<polygon fill="#191970" stroke="#191970" points="287.0759,-25.9057 295.4443,-19.4079 284.8503,-19.2689 287.0759,-25.9057"/>
</g>
</g>
</svg>
