<?xml version="1.0" encoding="UTF-8" standalone="no"?>
<!DOCTYPE svg PUBLIC "-//W3C//DTD SVG 1.1//EN"
 "http://www.w3.org/Graphics/SVG/1.1/DTD/svg11.dtd">
<!-- Generated by graphviz version 2.40.1 (20161225.0304)
 -->
<!-- Title: /home/travis/build/AliceO2Group/AliceO2/CCDB/src/BasicCCDBManager.cxx Pages: 1 -->
<!--zoomable 274 -->
<svg id="main" version="1.1" xmlns="http://www.w3.org/2000/svg" xmlns:xlink="http://www.w3.org/1999/xlink" xml:space="preserve" onload="init(evt)">
<style type="text/css"><![CDATA[
.edge:hover path { stroke: red; }
.edge:hover polygon { stroke: red; fill: red; }
]]></style>
<script type="text/javascript"><![CDATA[
var edges = document.getElementsByTagName('g');
if (edges && edges.length) {
  for (var i=0;i<edges.length;i++) {
    if (edges[i].id.substr(0,4)=='edge') {
      edges[i].setAttribute('class','edge');
    }
  }
}
]]></script>
        <defs>
                <circle id="rim" cx="0" cy="0" r="7"/>
                <circle id="rim2" cx="0" cy="0" r="3.5"/>
                <g id="zoomPlus">
                        <use xlink:href="#rim" fill="#404040">
                                <set attributeName="fill" to="#808080" begin="zoomplus.mouseover" end="zoomplus.mouseout"/>
                        </use>
                        <path d="M-4,0h8M0,-4v8" fill="none" stroke="white" stroke-width="1.5" pointer-events="none"/>
                </g>
                <g id="zoomMin">
                        <use xlink:href="#rim" fill="#404040">
                                <set attributeName="fill" to="#808080" begin="zoomminus.mouseover" end="zoomminus.mouseout"/>
                        </use>
                        <path d="M-4,0h8" fill="none" stroke="white" stroke-width="1.5" pointer-events="none"/>
                </g>
                <g id="dirArrow">
                        <path fill="none" stroke="white" stroke-width="1.5" d="M0,-3.0v7 M-2.5,-0.5L0,-3.0L2.5,-0.5"/>
                </g>
               <g id="resetDef">
                       <use xlink:href="#rim2" fill="#404040">
                               <set attributeName="fill" to="#808080" begin="reset.mouseover" end="reset.mouseout"/>
                       </use>
               </g>
        </defs>

<script type="text/javascript">
var viewWidth = 716;
var viewHeight = 274;
var sectionId = 'dynsection-0';
</script>
<script xlink:href="../../svgpan.js"/>
<svg id="graph" class="graph">
<g id="viewport">
<title>/home/travis/build/AliceO2Group/AliceO2/CCDB/src/BasicCCDBManager.cxx</title>
<!-- Node0 -->
<g id="node1" class="node">
<title>Node0</title>
<polygon fill="#bfbfbf" stroke="#000000" points="502.5,-224.5 502.5,-265.5 685.5,-265.5 685.5,-224.5 502.5,-224.5"/>
<text text-anchor="start" x="510.5" y="-253.5" font-family="Helvetica,sans-Serif" font-size="10.00" fill="#000000">/home/travis/build</text>
<text text-anchor="start" x="510.5" y="-242.5" font-family="Helvetica,sans-Serif" font-size="10.00" fill="#000000">/AliceO2Group/AliceO2</text>
<text text-anchor="middle" x="594" y="-231.5" font-family="Helvetica,sans-Serif" font-size="10.00" fill="#000000">/CCDB/src/BasicCCDBManager.cxx</text>
</g>
<!-- Node1 -->
<g id="node2" class="node">
<title>Node1</title>
<g id="a_node2"><a xlink:href="../../d5/df3/BasicCCDBManager_8h.html" target="_top" xlink:title="CCDB/BasicCCDBManager.h">
<polygon fill="none" stroke="#000000" points="389,-168.5 389,-187.5 541,-187.5 541,-168.5 389,-168.5"/>
<text text-anchor="middle" x="465" y="-175.5" font-family="Helvetica,sans-Serif" font-size="10.00" fill="#000000">CCDB/BasicCCDBManager.h</text>
</a>
</g>
</g>
<!-- Node0&#45;&gt;Node1 -->
<g id="edge1" class="edge">
<title>Node0&#45;&gt;Node1</title>
<path fill="none" stroke="#191970" d="M554.2431,-224.3511C534.38,-214.0346 510.8268,-201.8015 492.9061,-192.4939"/>
<polygon fill="#191970" stroke="#191970" points="494.0764,-189.1578 483.5888,-187.6546 490.85,-195.3699 494.0764,-189.1578"/>
</g>
<!-- Node3 -->
<g id="node4" class="node">
<title>Node3</title>
<polygon fill="none" stroke="#bfbfbf" points="664,-56.5 664,-75.5 708,-75.5 708,-56.5 664,-56.5"/>
<text text-anchor="middle" x="686" y="-63.5" font-family="Helvetica,sans-Serif" font-size="10.00" fill="#000000">string</text>
</g>
<!-- Node0&#45;&gt;Node3 -->
<g id="edge17" class="edge">
<title>Node0&#45;&gt;Node3</title>
<path fill="none" stroke="#191970" d="M618.6643,-224.1621C641.1051,-203.4444 672.6926,-169.4219 686,-132 691.2788,-117.1554 690.887,-99.2171 689.3932,-85.7908"/>
<polygon fill="#191970" stroke="#191970" points="692.8384,-85.1559 687.9795,-75.7409 685.9067,-86.131 692.8384,-85.1559"/>
</g>
<!-- Node2 -->
<g id="node3" class="node">
<title>Node2</title>
<g id="a_node3"><a xlink:href="../../dd/d3e/CcdbApi_8h.html" target="_top" xlink:title="CCDB/CcdbApi.h">
<polygon fill="none" stroke="#000000" points="231,-112.5 231,-131.5 327,-131.5 327,-112.5 231,-112.5"/>
<text text-anchor="middle" x="279" y="-119.5" font-family="Helvetica,sans-Serif" font-size="10.00" fill="#000000">CCDB/CcdbApi.h</text>
</a>
</g>
</g>
<!-- Node1&#45;&gt;Node2 -->
<g id="edge2" class="edge">
<title>Node1&#45;&gt;Node2</title>
<path fill="none" stroke="#191970" d="M433.0255,-168.3733C401.8287,-158.9807 354.229,-144.6496 320.2068,-134.4064"/>
<polygon fill="#191970" stroke="#191970" points="321.1418,-131.0327 310.5573,-131.5011 319.1237,-137.7355 321.1418,-131.0327"/>
</g>
<!-- Node1&#45;&gt;Node3 -->
<g id="edge13" class="edge">
<title>Node1&#45;&gt;Node3</title>
<path fill="none" stroke="#191970" d="M541.0977,-168.7974C590.4238,-161.3431 648.7676,-149.2321 667,-132 679.5679,-120.1216 683.9938,-100.5191 685.4693,-85.7568"/>
<polygon fill="#191970" stroke="#191970" points="688.9722,-85.82 686.1085,-75.6195 681.9861,-85.3794 688.9722,-85.82"/>
</g>
<!-- Node4 -->
<g id="node5" class="node">
<title>Node4</title>
<polygon fill="none" stroke="#bfbfbf" points="462,-56.5 462,-75.5 520,-75.5 520,-56.5 462,-56.5"/>
<text text-anchor="middle" x="491" y="-63.5" font-family="Helvetica,sans-Serif" font-size="10.00" fill="#000000">memory</text>
</g>
<!-- Node1&#45;&gt;Node4 -->
<g id="edge16" class="edge">
<title>Node1&#45;&gt;Node4</title>
<path fill="none" stroke="#191970" d="M430.6731,-168.4422C398.3409,-157.6193 357.3092,-138.0464 375,-112 384.077,-98.6358 421.9483,-85.2306 451.9831,-76.3681"/>
<polygon fill="#191970" stroke="#191970" points="453.1707,-79.6685 461.8155,-73.5433 451.2378,-72.9407 453.1707,-79.6685"/>
</g>
<!-- Node5 -->
<g id="node6" class="node">
<title>Node5</title>
<polygon fill="none" stroke="#bfbfbf" points="0,-56.5 0,-75.5 38,-75.5 38,-56.5 0,-56.5"/>
<text text-anchor="middle" x="19" y="-63.5" font-family="Helvetica,sans-Serif" font-size="10.00" fill="#000000">map</text>
</g>
<!-- Node1&#45;&gt;Node5 -->
<g id="edge14" class="edge">
<title>Node1&#45;&gt;Node5</title>
<path fill="none" stroke="#191970" d="M403.1159,-168.4675C353.7279,-160.3373 282.9588,-147.5153 222,-132 143.2703,-111.9617 125.0717,-101.6875 48,-76 47.899,-75.9663 47.7977,-75.9326 47.6963,-75.8987"/>
<polygon fill="#191970" stroke="#191970" points="48.6064,-72.5117 38.0121,-72.6188 46.3609,-79.1418 48.6064,-72.5117"/>
</g>
<!-- Node12 -->
<g id="node13" class="node">
<title>Node12</title>
<g id="a_node13"><a xlink:href="../../da/d86/CCDBTimeStampUtils_8h.html" target="_top" xlink:title="CCDB/CCDBTimeStampUtils.h">
<polygon fill="none" stroke="#000000" points="383.5,-112.5 383.5,-131.5 546.5,-131.5 546.5,-112.5 383.5,-112.5"/>
<text text-anchor="middle" x="465" y="-119.5" font-family="Helvetica,sans-Serif" font-size="10.00" fill="#000000">CCDB/CCDBTimeStampUtils.h</text>
</a>
</g>
</g>
<!-- Node1&#45;&gt;Node12 -->
<g id="edge12" class="edge">
<title>Node1&#45;&gt;Node12</title>
<path fill="none" stroke="#191970" d="M465,-168.2455C465,-160.9382 465,-150.6944 465,-141.7046"/>
<polygon fill="#191970" stroke="#191970" points="468.5001,-141.6426 465,-131.6427 461.5001,-141.6427 468.5001,-141.6426"/>
</g>
<!-- Node13 -->
<g id="node14" class="node">
<title>Node13</title>
<polygon fill="none" stroke="#bfbfbf" points="564.5,-112.5 564.5,-131.5 657.5,-131.5 657.5,-112.5 564.5,-112.5"/>
<text text-anchor="middle" x="611" y="-119.5" font-family="Helvetica,sans-Serif" font-size="10.00" fill="#000000">unordered_map</text>
</g>
<!-- Node1&#45;&gt;Node13 -->
<g id="edge15" class="edge">
<title>Node1&#45;&gt;Node13</title>
<path fill="none" stroke="#191970" d="M490.0983,-168.3733C513.9555,-159.2226 550.0335,-145.3844 576.571,-135.2057"/>
<polygon fill="#191970" stroke="#191970" points="578.1459,-138.3503 586.2292,-131.5011 575.639,-131.8145 578.1459,-138.3503"/>
</g>
<!-- Node2&#45;&gt;Node3 -->
<g id="edge3" class="edge">
<title>Node2&#45;&gt;Node3</title>
<path fill="none" stroke="#191970" d="M327.2865,-115.3562C411.4062,-103.7819 582.6415,-80.2213 653.8348,-70.4257"/>
<polygon fill="#191970" stroke="#191970" points="654.5531,-73.8599 663.9826,-69.0294 653.5989,-66.9252 654.5531,-73.8599"/>
</g>
<!-- Node2&#45;&gt;Node4 -->
<g id="edge4" class="edge">
<title>Node2&#45;&gt;Node4</title>
<path fill="none" stroke="#191970" d="M315.4441,-112.3733C353.4804,-102.3259 412.9099,-86.6276 451.9056,-76.3268"/>
<polygon fill="#191970" stroke="#191970" points="453.0658,-79.6405 461.8403,-73.7026 451.2781,-72.8726 453.0658,-79.6405"/>
</g>
<!-- Node2&#45;&gt;Node5 -->
<g id="edge5" class="edge">
<title>Node2&#45;&gt;Node5</title>
<path fill="none" stroke="#191970" d="M230.7799,-114.3584C183.7408,-106.4451 110.365,-92.8787 48,-76 47.9004,-75.973 47.8006,-75.9459 47.7007,-75.9186"/>
<polygon fill="#191970" stroke="#191970" points="48.8156,-72.5995 38.2299,-73.0383 46.7788,-79.2966 48.8156,-72.5995"/>
</g>
<!-- Node6 -->
<g id="node7" class="node">
<title>Node6</title>
<polygon fill="none" stroke="#bfbfbf" points="205.5,-56.5 205.5,-75.5 270.5,-75.5 270.5,-56.5 205.5,-56.5"/>
<text text-anchor="middle" x="238" y="-63.5" font-family="Helvetica,sans-Serif" font-size="10.00" fill="#000000">curl/curl.h</text>
</g>
<!-- Node2&#45;&gt;Node6 -->
<g id="edge6" class="edge">
<title>Node2&#45;&gt;Node6</title>
<path fill="none" stroke="#191970" d="M271.8583,-112.2455C266.1556,-104.4564 258.01,-93.3308 251.1375,-83.9439"/>
<polygon fill="#191970" stroke="#191970" points="253.7913,-81.6437 245.0598,-75.6427 248.1432,-85.7789 253.7913,-81.6437"/>
</g>
<!-- Node7 -->
<g id="node8" class="node">
<title>Node7</title>
<polygon fill="none" stroke="#bfbfbf" points="288.5,-56.5 288.5,-75.5 351.5,-75.5 351.5,-56.5 288.5,-56.5"/>
<text text-anchor="middle" x="320" y="-63.5" font-family="Helvetica,sans-Serif" font-size="10.00" fill="#000000">TObject.h</text>
</g>
<!-- Node2&#45;&gt;Node7 -->
<g id="edge7" class="edge">
<title>Node2&#45;&gt;Node7</title>
<path fill="none" stroke="#191970" d="M286.1417,-112.2455C291.8444,-104.4564 299.99,-93.3308 306.8625,-83.9439"/>
<polygon fill="#191970" stroke="#191970" points="309.8568,-85.7789 312.9402,-75.6427 304.2087,-81.6437 309.8568,-85.7789"/>
</g>
<!-- Node8 -->
<g id="node9" class="node">
<title>Node8</title>
<polygon fill="none" stroke="#bfbfbf" points="370,-56.5 370,-75.5 444,-75.5 444,-56.5 370,-56.5"/>
<text text-anchor="middle" x="407" y="-63.5" font-family="Helvetica,sans-Serif" font-size="10.00" fill="#000000">TMessage.h</text>
</g>
<!-- Node2&#45;&gt;Node8 -->
<g id="edge8" class="edge">
<title>Node2&#45;&gt;Node8</title>
<path fill="none" stroke="#191970" d="M301.004,-112.3733C321.6435,-103.3435 352.7158,-89.7494 375.8889,-79.6111"/>
<polygon fill="#191970" stroke="#191970" points="377.5245,-82.7159 385.2831,-75.5011 374.7187,-76.3028 377.5245,-82.7159"/>
</g>
<!-- Node9 -->
<g id="node10" class="node">
<title>Node9</title>
<g id="a_node10"><a xlink:href="../../d4/dab/CcdbObjectInfo_8h.html" target="_top" xlink:title="CCDB/CcdbObjectInfo.h">
<polygon fill="none" stroke="#000000" points="56.5,-56.5 56.5,-75.5 187.5,-75.5 187.5,-56.5 56.5,-56.5"/>
<text text-anchor="middle" x="122" y="-63.5" font-family="Helvetica,sans-Serif" font-size="10.00" fill="#000000">CCDB/CcdbObjectInfo.h</text>
</a>
</g>
</g>
<!-- Node2&#45;&gt;Node9 -->
<g id="edge9" class="edge">
<title>Node2&#45;&gt;Node9</title>
<path fill="none" stroke="#191970" d="M252.0107,-112.3733C226.1301,-103.1419 186.8752,-89.1402 158.2711,-78.9375"/>
<polygon fill="#191970" stroke="#191970" points="159.2317,-75.5642 148.6371,-75.5011 156.88,-82.1573 159.2317,-75.5642"/>
</g>
<!-- Node10 -->
<g id="node11" class="node">
<title>Node10</title>
<polygon fill="none" stroke="#bfbfbf" points="39.5,-.5 39.5,-19.5 98.5,-19.5 98.5,-.5 39.5,-.5"/>
<text text-anchor="middle" x="69" y="-7.5" font-family="Helvetica,sans-Serif" font-size="10.00" fill="#000000">Rtypes.h</text>
</g>
<!-- Node9&#45;&gt;Node10 -->
<g id="edge10" class="edge">
<title>Node9&#45;&gt;Node10</title>
<path fill="none" stroke="#191970" d="M112.7681,-56.2455C105.1683,-48.2155 94.2123,-36.6394 85.1632,-27.0781"/>
<polygon fill="#191970" stroke="#191970" points="87.542,-24.4998 78.1261,-19.6427 82.4579,-29.3115 87.542,-24.4998"/>
</g>
<!-- Node11 -->
<g id="node12" class="node">
<title>Node11</title>
<g id="a_node12"><a xlink:href="../../dd/da4/Logger_8h.html" target="_top" xlink:title="Framework/Logger.h">
<polygon fill="none" stroke="#000000" points="116.5,-.5 116.5,-19.5 231.5,-19.5 231.5,-.5 116.5,-.5"/>
<text text-anchor="middle" x="174" y="-7.5" font-family="Helvetica,sans-Serif" font-size="10.00" fill="#000000">Framework/Logger.h</text>
</a>
</g>
</g>
<!-- Node9&#45;&gt;Node11 -->
<g id="edge11" class="edge">
<title>Node9&#45;&gt;Node11</title>
<path fill="none" stroke="#191970" d="M131.0577,-56.2455C138.5142,-48.2155 149.2634,-36.6394 158.1417,-27.0781"/>
<polygon fill="#191970" stroke="#191970" points="160.8063,-29.3522 165.0461,-19.6427 155.6768,-24.589 160.8063,-29.3522"/>
</g>
</g>
</svg>
        <g id="navigator" transform="translate(0 0)" fill="#404254">
                <rect fill="#f2f5e9" fill-opacity="0.5" stroke="#606060" stroke-width=".5" x="0" y="0" width="60" height="60"/>
                <use id="zoomplus" xlink:href="#zoomPlus" x="17" y="9" onmousedown="handleZoom(evt,'in')"/>
                <use id="zoomminus" xlink:href="#zoomMin" x="42" y="9" onmousedown="handleZoom(evt,'out')"/>
                <use id="reset" xlink:href="#resetDef" x="30" y="36" onmousedown="handleReset()"/>
                <g id="arrowUp" xlink:href="#dirArrow" transform="translate(30 24)" onmousedown="handlePan(0,-1)">
                  <use xlink:href="#rim" fill="#404040">
                        <set attributeName="fill" to="#808080" begin="arrowUp.mouseover" end="arrowUp.mouseout"/>
                  </use>
                  <path fill="none" stroke="white" stroke-width="1.5" d="M0,-3.0v7 M-2.5,-0.5L0,-3.0L2.5,-0.5"/>
                </g>
                <g id="arrowRight" xlink:href="#dirArrow" transform="rotate(90) translate(36 -43)" onmousedown="handlePan(1,0)">
                  <use xlink:href="#rim" fill="#404040">
                        <set attributeName="fill" to="#808080" begin="arrowRight.mouseover" end="arrowRight.mouseout"/>
                  </use>
                  <path fill="none" stroke="white" stroke-width="1.5" d="M0,-3.0v7 M-2.5,-0.5L0,-3.0L2.5,-0.5"/>
                </g>
                <g id="arrowDown" xlink:href="#dirArrow" transform="rotate(180) translate(-30 -48)" onmousedown="handlePan(0,1)">
                  <use xlink:href="#rim" fill="#404040">
                        <set attributeName="fill" to="#808080" begin="arrowDown.mouseover" end="arrowDown.mouseout"/>
                  </use>
                  <path fill="none" stroke="white" stroke-width="1.5" d="M0,-3.0v7 M-2.5,-0.5L0,-3.0L2.5,-0.5"/>
                </g>
                <g id="arrowLeft" xlink:href="#dirArrow" transform="rotate(270) translate(-36 17)" onmousedown="handlePan(-1,0)">
                  <use xlink:href="#rim" fill="#404040">
                        <set attributeName="fill" to="#808080" begin="arrowLeft.mouseover" end="arrowLeft.mouseout"/>
                  </use>
                  <path fill="none" stroke="white" stroke-width="1.5" d="M0,-3.0v7 M-2.5,-0.5L0,-3.0L2.5,-0.5"/>
                </g>
        </g>
        <svg viewBox="0 0 15 15" width="100%" height="30px" preserveAspectRatio="xMaxYMin meet">
         <g id="arrow_out" transform="scale(0.3 0.3)">
          <a xlink:href="BasicCCDBManager_8cxx__incl_org.svg" target="_base">
           <rect id="button" ry="5" rx="5" y="6" x="6" height="38" width="38"
                fill="#f2f5e9" fill-opacity="0.5" stroke="#606060" stroke-width="1.0"/>
           <path id="arrow"
             d="M 11.500037,31.436501 C 11.940474,20.09759 22.043105,11.32322 32.158766,21.979434 L 37.068811,17.246167 C 37.068811,17.246167 37.088388,32 37.088388,32 L 22.160133,31.978069 C 22.160133,31.978069 26.997745,27.140456 26.997745,27.140456 C 18.528582,18.264221 13.291696,25.230495 11.500037,31.436501 z"
             style="fill:#404040;"/>
          </a>
         </g>
        </svg>
</svg>
