<?xml version="1.0" encoding="UTF-8" standalone="no"?>
<!DOCTYPE svg PUBLIC "-//W3C//DTD SVG 1.1//EN"
 "http://www.w3.org/Graphics/SVG/1.1/DTD/svg11.dtd">
<!-- Generated by graphviz version 2.40.1 (20161225.0304)
 -->
<!-- Title: /home/travis/build/AliceO2Group/AliceO2/Detectors/EMCAL/calib/include/EMCALCalib/CalibDB.h Pages: 1 -->
<svg width="730pt" height="229pt"
 viewBox="0.00 0.00 730.00 229.00" xmlns="http://www.w3.org/2000/svg" xmlns:xlink="http://www.w3.org/1999/xlink">
<g id="graph0" class="graph" transform="scale(1 1) rotate(0) translate(4 225)">
<title>/home/travis/build/AliceO2Group/AliceO2/Detectors/EMCAL/calib/include/EMCALCalib/CalibDB.h</title>
<!-- Node0 -->
<g id="node1" class="node">
<title>Node0</title>
<polygon fill="#bfbfbf" stroke="#000000" points="138.5,-168.5 138.5,-220.5 305.5,-220.5 305.5,-168.5 138.5,-168.5"/>
<text text-anchor="start" x="146.5" y="-208.5" font-family="Helvetica,sans-Serif" font-size="10.00" fill="#000000">/home/travis/build</text>
<text text-anchor="start" x="146.5" y="-197.5" font-family="Helvetica,sans-Serif" font-size="10.00" fill="#000000">/AliceO2Group/AliceO2</text>
<text text-anchor="start" x="146.5" y="-186.5" font-family="Helvetica,sans-Serif" font-size="10.00" fill="#000000">/Detectors/EMCAL/calib</text>
<text text-anchor="middle" x="222" y="-175.5" font-family="Helvetica,sans-Serif" font-size="10.00" fill="#000000">/include/EMCALCalib/CalibDB.h</text>
</g>
<!-- Node1 -->
<g id="node2" class="node">
<title>Node1</title>
<polygon fill="none" stroke="#bfbfbf" points="52.5,-112.5 52.5,-131.5 117.5,-131.5 117.5,-112.5 52.5,-112.5"/>
<text text-anchor="middle" x="85" y="-119.5" font-family="Helvetica,sans-Serif" font-size="10.00" fill="#000000">exception</text>
</g>
<!-- Node0&#45;&gt;Node1 -->
<g id="edge1" class="edge">
<title>Node0&#45;&gt;Node1</title>
<path fill="none" stroke="#191970" d="M172.5399,-168.3258C152.1045,-157.5115 129.2134,-145.3976 111.9659,-136.2703"/>
<polygon fill="#191970" stroke="#191970" points="113.4918,-133.1179 103.016,-131.534 110.2175,-139.305 113.4918,-133.1179"/>
</g>
<!-- Node2 -->
<g id="node3" class="node">
<title>Node2</title>
<polygon fill="none" stroke="#bfbfbf" points="0,-56.5 0,-75.5 38,-75.5 38,-56.5 0,-56.5"/>
<text text-anchor="middle" x="19" y="-63.5" font-family="Helvetica,sans-Serif" font-size="10.00" fill="#000000">map</text>
</g>
<!-- Node0&#45;&gt;Node2 -->
<g id="edge2" class="edge">
<title>Node0&#45;&gt;Node2</title>
<path fill="none" stroke="#191970" d="M196.0115,-168.3084C177.6134,-150.7757 151.7268,-128.0566 126,-112 112.3267,-103.4663 74.1879,-87.722 47.3576,-77.0573"/>
<polygon fill="#191970" stroke="#191970" points="48.6372,-73.7996 38.0506,-73.3808 46.0653,-80.3101 48.6372,-73.7996"/>
</g>
<!-- Node3 -->
<g id="node4" class="node">
<title>Node3</title>
<polygon fill="none" stroke="#bfbfbf" points="56,-56.5 56,-75.5 100,-75.5 100,-56.5 56,-56.5"/>
<text text-anchor="middle" x="78" y="-63.5" font-family="Helvetica,sans-Serif" font-size="10.00" fill="#000000">string</text>
</g>
<!-- Node0&#45;&gt;Node3 -->
<g id="edge3" class="edge">
<title>Node0&#45;&gt;Node3</title>
<path fill="none" stroke="#191970" d="M206.4862,-168.4512C195.171,-150.9822 178.6083,-128.2806 160,-112 144.9039,-98.7923 125.4067,-87.6654 109.2119,-79.6649"/>
<polygon fill="#191970" stroke="#191970" points="110.6488,-76.4725 100.1165,-75.3234 107.6334,-82.7898 110.6488,-76.4725"/>
</g>
<!-- Node4 -->
<g id="node5" class="node">
<title>Node4</title>
<polygon fill="none" stroke="#bfbfbf" points="457.5,-.5 457.5,-19.5 516.5,-19.5 516.5,-.5 457.5,-.5"/>
<text text-anchor="middle" x="487" y="-7.5" font-family="Helvetica,sans-Serif" font-size="10.00" fill="#000000">Rtypes.h</text>
</g>
<!-- Node0&#45;&gt;Node4 -->
<g id="edge4" class="edge">
<title>Node0&#45;&gt;Node4</title>
<path fill="none" stroke="#191970" d="M305.8167,-179.357C403.851,-159.7406 557.1059,-122.4836 591,-76 611.5289,-47.8459 563.7938,-28.7937 526.376,-18.6626"/>
<polygon fill="#191970" stroke="#191970" points="527.2047,-15.2619 516.648,-16.1601 525.4607,-22.0412 527.2047,-15.2619"/>
</g>
<!-- Node5 -->
<g id="node6" class="node">
<title>Node5</title>
<polygon fill="none" stroke="#bfbfbf" points="638,-112.5 638,-131.5 722,-131.5 722,-112.5 638,-112.5"/>
<text text-anchor="middle" x="680" y="-119.5" font-family="Helvetica,sans-Serif" font-size="10.00" fill="#000000">RStringView.h</text>
</g>
<!-- Node0&#45;&gt;Node5 -->
<g id="edge5" class="edge">
<title>Node0&#45;&gt;Node5</title>
<path fill="none" stroke="#191970" d="M305.6251,-182.0584C386.9996,-169.8195 514.1029,-150.3529 624,-132 625.2603,-131.7895 626.5362,-131.5748 627.8229,-131.3568"/>
<polygon fill="#191970" stroke="#191970" points="628.5586,-134.7817 637.8203,-129.6368 627.3716,-127.8831 628.5586,-134.7817"/>
</g>
<!-- Node6 -->
<g id="node7" class="node">
<title>Node6</title>
<g id="a_node7"><a xlink:href="../../dd/d3e/CcdbApi_8h.html" target="_top" xlink:title="CCDB/CcdbApi.h">
<polygon fill="none" stroke="#000000" points="212,-112.5 212,-131.5 308,-131.5 308,-112.5 212,-112.5"/>
<text text-anchor="middle" x="260" y="-119.5" font-family="Helvetica,sans-Serif" font-size="10.00" fill="#000000">CCDB/CcdbApi.h</text>
</a>
</g>
</g>
<!-- Node0&#45;&gt;Node6 -->
<g id="edge6" class="edge">
<title>Node0&#45;&gt;Node6</title>
<path fill="none" stroke="#191970" d="M235.7189,-168.3258C240.5473,-159.1136 245.8701,-148.9584 250.2984,-140.5096"/>
<polygon fill="#191970" stroke="#191970" points="253.4605,-142.016 255.0029,-131.534 247.2605,-138.7663 253.4605,-142.016"/>
</g>
<!-- Node6&#45;&gt;Node2 -->
<g id="edge9" class="edge">
<title>Node6&#45;&gt;Node2</title>
<path fill="none" stroke="#191970" d="M211.7618,-113.443C170.5063,-105.7079 109.4353,-93.2729 48.0281,-76.0279"/>
<polygon fill="#191970" stroke="#191970" points="48.7491,-72.5941 38.1727,-73.2189 46.8303,-79.326 48.7491,-72.5941"/>
</g>
<!-- Node6&#45;&gt;Node3 -->
<g id="edge7" class="edge">
<title>Node6&#45;&gt;Node3</title>
<path fill="none" stroke="#191970" d="M228.1383,-112.4586C199.5178,-103.8514 156.106,-90.7067 109.6438,-76.1695"/>
<polygon fill="#191970" stroke="#191970" points="110.5904,-72.7984 100.0013,-73.1462 108.4961,-79.4778 110.5904,-72.7984"/>
</g>
<!-- Node7 -->
<g id="node8" class="node">
<title>Node7</title>
<polygon fill="none" stroke="#bfbfbf" points="118,-56.5 118,-75.5 176,-75.5 176,-56.5 118,-56.5"/>
<text text-anchor="middle" x="147" y="-63.5" font-family="Helvetica,sans-Serif" font-size="10.00" fill="#000000">memory</text>
</g>
<!-- Node6&#45;&gt;Node7 -->
<g id="edge8" class="edge">
<title>Node6&#45;&gt;Node7</title>
<path fill="none" stroke="#191970" d="M240.5746,-112.3733C222.5979,-103.4644 195.6559,-90.1127 175.291,-80.0203"/>
<polygon fill="#191970" stroke="#191970" points="176.6861,-76.8055 166.1719,-75.5011 173.5778,-83.0776 176.6861,-76.8055"/>
</g>
<!-- Node8 -->
<g id="node9" class="node">
<title>Node8</title>
<polygon fill="none" stroke="#bfbfbf" points="343.5,-56.5 343.5,-75.5 408.5,-75.5 408.5,-56.5 343.5,-56.5"/>
<text text-anchor="middle" x="376" y="-63.5" font-family="Helvetica,sans-Serif" font-size="10.00" fill="#000000">curl/curl.h</text>
</g>
<!-- Node6&#45;&gt;Node8 -->
<g id="edge10" class="edge">
<title>Node6&#45;&gt;Node8</title>
<path fill="none" stroke="#191970" d="M279.9411,-112.3733C298.4786,-103.4241 326.3028,-89.9917 347.2413,-79.8835"/>
<polygon fill="#191970" stroke="#191970" points="348.8352,-83.0006 356.3191,-75.5011 345.7919,-76.6967 348.8352,-83.0006"/>
</g>
<!-- Node9 -->
<g id="node10" class="node">
<title>Node9</title>
<polygon fill="none" stroke="#bfbfbf" points="426.5,-56.5 426.5,-75.5 489.5,-75.5 489.5,-56.5 426.5,-56.5"/>
<text text-anchor="middle" x="458" y="-63.5" font-family="Helvetica,sans-Serif" font-size="10.00" fill="#000000">TObject.h</text>
</g>
<!-- Node6&#45;&gt;Node9 -->
<g id="edge11" class="edge">
<title>Node6&#45;&gt;Node9</title>
<path fill="none" stroke="#191970" d="M294.0374,-112.3733C327.9958,-102.7689 380.2118,-88.0007 416.5625,-77.7197"/>
<polygon fill="#191970" stroke="#191970" points="417.6963,-81.0364 426.3663,-74.9469 415.7912,-74.3006 417.6963,-81.0364"/>
</g>
<!-- Node10 -->
<g id="node11" class="node">
<title>Node10</title>
<polygon fill="none" stroke="#bfbfbf" points="508,-56.5 508,-75.5 582,-75.5 582,-56.5 508,-56.5"/>
<text text-anchor="middle" x="545" y="-63.5" font-family="Helvetica,sans-Serif" font-size="10.00" fill="#000000">TMessage.h</text>
</g>
<!-- Node6&#45;&gt;Node10 -->
<g id="edge12" class="edge">
<title>Node6&#45;&gt;Node10</title>
<path fill="none" stroke="#191970" d="M308.3704,-112.9258C356.4953,-103.833 432.4238,-89.3122 498,-76 498.0996,-75.9798 498.1994,-75.9595 498.2993,-75.9392"/>
<polygon fill="#191970" stroke="#191970" points="498.725,-79.4251 507.813,-73.9792 497.3125,-72.5691 498.725,-79.4251"/>
</g>
<!-- Node11 -->
<g id="node12" class="node">
<title>Node11</title>
<g id="a_node12"><a xlink:href="../../d4/dab/CcdbObjectInfo_8h.html" target="_top" xlink:title="CCDB/CcdbObjectInfo.h">
<polygon fill="none" stroke="#000000" points="194.5,-56.5 194.5,-75.5 325.5,-75.5 325.5,-56.5 194.5,-56.5"/>
<text text-anchor="middle" x="260" y="-63.5" font-family="Helvetica,sans-Serif" font-size="10.00" fill="#000000">CCDB/CcdbObjectInfo.h</text>
</a>
</g>
</g>
<!-- Node6&#45;&gt;Node11 -->
<g id="edge13" class="edge">
<title>Node6&#45;&gt;Node11</title>
<path fill="none" stroke="#191970" d="M260,-112.2455C260,-104.9382 260,-94.6944 260,-85.7046"/>
<polygon fill="#191970" stroke="#191970" points="263.5001,-85.6426 260,-75.6427 256.5001,-85.6427 263.5001,-85.6426"/>
</g>
<!-- Node11&#45;&gt;Node4 -->
<g id="edge14" class="edge">
<title>Node11&#45;&gt;Node4</title>
<path fill="none" stroke="#191970" d="M298.7648,-56.4369C340.2938,-46.1918 405.8529,-30.0187 447.6181,-19.7154"/>
<polygon fill="#191970" stroke="#191970" points="448.5664,-23.0864 457.437,-17.2931 446.8897,-16.2902 448.5664,-23.0864"/>
</g>
<!-- Node12 -->
<g id="node13" class="node">
<title>Node12</title>
<g id="a_node13"><a xlink:href="../../dd/da4/Logger_8h.html" target="_top" xlink:title="Framework/Logger.h">
<polygon fill="none" stroke="#000000" points="202.5,-.5 202.5,-19.5 317.5,-19.5 317.5,-.5 202.5,-.5"/>
<text text-anchor="middle" x="260" y="-7.5" font-family="Helvetica,sans-Serif" font-size="10.00" fill="#000000">Framework/Logger.h</text>
</a>
</g>
</g>
<!-- Node11&#45;&gt;Node12 -->
<g id="edge15" class="edge">
<title>Node11&#45;&gt;Node12</title>
<path fill="none" stroke="#191970" d="M260,-56.2455C260,-48.9382 260,-38.6944 260,-29.7046"/>
<polygon fill="#191970" stroke="#191970" points="263.5001,-29.6426 260,-19.6427 256.5001,-29.6427 263.5001,-29.6426"/>
</g>
</g>
</svg>
