<?xml version="1.0" encoding="UTF-8" standalone="no"?>
<!DOCTYPE svg PUBLIC "-//W3C//DTD SVG 1.1//EN"
 "http://www.w3.org/Graphics/SVG/1.1/DTD/svg11.dtd">
<!-- Generated by graphviz version 2.40.1 (20161225.0304)
 -->
<!-- Title: o2::itsmft::RUDecodeData Pages: 1 -->
<svg width="920pt" height="303pt"
 viewBox="0.00 0.00 919.50 303.00" xmlns="http://www.w3.org/2000/svg" xmlns:xlink="http://www.w3.org/1999/xlink">
<g id="graph0" class="graph" transform="scale(1 1) rotate(0) translate(4 299)">
<title>o2::itsmft::RUDecodeData</title>
<!-- Node1 -->
<g id="node1" class="node">
<title>Node1</title>
<polygon fill="#bfbfbf" stroke="#000000" points="468,-.5 468,-112.5 612,-112.5 612,-.5 468,-.5"/>
<text text-anchor="middle" x="540" y="-100.5" font-family="Helvetica,sans-Serif" font-size="10.00" fill="#000000">o2::itsmft::RUDecodeData</text>
<polyline fill="none" stroke="#000000" points="468,-93.5 612,-93.5 "/>
<text text-anchor="middle" x="540" y="-81.5" font-family="Helvetica,sans-Serif" font-size="10.00" fill="#000000"> </text>
<polyline fill="none" stroke="#000000" points="468,-74.5 612,-74.5 "/>
<text text-anchor="start" x="476" y="-62.5" font-family="Helvetica,sans-Serif" font-size="10.00" fill="#000000">+ RUDecodeData()</text>
<text text-anchor="start" x="476" y="-51.5" font-family="Helvetica,sans-Serif" font-size="10.00" fill="#000000">+ decodeROF()</text>
<text text-anchor="start" x="476" y="-40.5" font-family="Helvetica,sans-Serif" font-size="10.00" fill="#000000">+ clear()</text>
<text text-anchor="start" x="476" y="-29.5" font-family="Helvetica,sans-Serif" font-size="10.00" fill="#000000">+ setROFInfo()</text>
<text text-anchor="start" x="476" y="-18.5" font-family="Helvetica,sans-Serif" font-size="10.00" fill="#000000">+ decodeROF()</text>
<text text-anchor="start" x="476" y="-7.5" font-family="Helvetica,sans-Serif" font-size="10.00" fill="#000000">+ ClassDefNV()</text>
</g>
<!-- Node2 -->
<g id="node2" class="node">
<title>Node2</title>
<polygon fill="none" stroke="#bfbfbf" points="0,-226.5 0,-294.5 114,-294.5 114,-226.5 0,-226.5"/>
<text text-anchor="start" x="8" y="-282.5" font-family="Helvetica,sans-Serif" font-size="10.00" fill="#000000">array&lt; std::uint8_t,</text>
<text text-anchor="middle" x="57" y="-271.5" font-family="Helvetica,sans-Serif" font-size="10.00" fill="#000000"> MaxCablesPerRU &gt;</text>
<polyline fill="none" stroke="#bfbfbf" points="0,-264.5 114,-264.5 "/>
<text text-anchor="middle" x="57" y="-252.5" font-family="Helvetica,sans-Serif" font-size="10.00" fill="#000000"> </text>
<polyline fill="none" stroke="#bfbfbf" points="0,-245.5 114,-245.5 "/>
<text text-anchor="middle" x="57" y="-233.5" font-family="Helvetica,sans-Serif" font-size="10.00" fill="#000000"> </text>
</g>
<!-- Node2&#45;&gt;Node1 -->
<g id="edge1" class="edge">
<title>Node2&#45;&gt;Node1</title>
<path fill="none" stroke="#404040" d="M76.8945,-226.4761C96.2678,-196.5049 128.5249,-154.1245 168,-131 215.8443,-102.9729 361.6679,-79.5864 455.8943,-66.8599"/>
<polygon fill="none" stroke="#404040" points="456.0803,-66.8351 461.4986,-62.0768 467.9749,-65.2483 462.5565,-70.0066 456.0803,-66.8351"/>
<text text-anchor="middle" x="201" y="-172.5" font-family="Helvetica,sans-Serif" font-size="10.00" fill="#000000"> +cableHWID</text>
<text text-anchor="middle" x="201" y="-161.5" font-family="Helvetica,sans-Serif" font-size="10.00" fill="#000000">+cableLinkID</text>
</g>
<!-- Node3 -->
<g id="node3" class="node">
<title>Node3</title>
<polygon fill="none" stroke="#bfbfbf" points="132,-226.5 132,-294.5 238,-294.5 238,-226.5 132,-226.5"/>
<text text-anchor="start" x="140" y="-282.5" font-family="Helvetica,sans-Serif" font-size="10.00" fill="#000000">vector&lt; o2::itsmft</text>
<text text-anchor="middle" x="185" y="-271.5" font-family="Helvetica,sans-Serif" font-size="10.00" fill="#000000">::ChipPixelData &gt;</text>
<polyline fill="none" stroke="#bfbfbf" points="132,-264.5 238,-264.5 "/>
<text text-anchor="middle" x="185" y="-252.5" font-family="Helvetica,sans-Serif" font-size="10.00" fill="#000000"> </text>
<polyline fill="none" stroke="#bfbfbf" points="132,-245.5 238,-245.5 "/>
<text text-anchor="middle" x="185" y="-233.5" font-family="Helvetica,sans-Serif" font-size="10.00" fill="#000000"> </text>
</g>
<!-- Node3&#45;&gt;Node1 -->
<g id="edge2" class="edge">
<title>Node3&#45;&gt;Node1</title>
<path fill="none" stroke="#404040" d="M216.8486,-226.2159C245.0658,-197.5128 288.5747,-157.158 333,-131 354.664,-118.2441 408.7867,-98.9064 456.2561,-83.1293"/>
<polygon fill="none" stroke="#404040" points="456.4452,-83.0669 460.8888,-77.3876 467.8403,-79.3051 463.3967,-84.9844 456.4452,-83.0669"/>
<text text-anchor="middle" x="363.5" y="-167" font-family="Helvetica,sans-Serif" font-size="10.00" fill="#000000"> +chipsData</text>
</g>
<!-- Node4 -->
<g id="node4" class="node">
<title>Node4</title>
<polygon fill="none" stroke="#bfbfbf" points="256,-226.5 256,-294.5 436,-294.5 436,-226.5 256,-226.5"/>
<text text-anchor="start" x="264" y="-282.5" font-family="Helvetica,sans-Serif" font-size="10.00" fill="#000000">array&lt; o2::itsmft::</text>
<text text-anchor="middle" x="346" y="-271.5" font-family="Helvetica,sans-Serif" font-size="10.00" fill="#000000">PayLoadCont, MaxCablesPerRU &gt;</text>
<polyline fill="none" stroke="#bfbfbf" points="256,-264.5 436,-264.5 "/>
<text text-anchor="middle" x="346" y="-252.5" font-family="Helvetica,sans-Serif" font-size="10.00" fill="#000000"> </text>
<polyline fill="none" stroke="#bfbfbf" points="256,-245.5 436,-245.5 "/>
<text text-anchor="middle" x="346" y="-233.5" font-family="Helvetica,sans-Serif" font-size="10.00" fill="#000000"> </text>
</g>
<!-- Node4&#45;&gt;Node1 -->
<g id="edge3" class="edge">
<title>Node4&#45;&gt;Node1</title>
<path fill="none" stroke="#404040" d="M378.4712,-226.355C405.6179,-197.809 445.1051,-156.2863 478.2419,-121.4415"/>
<polygon fill="none" stroke="#404040" points="478.2488,-121.4343 479.4849,-114.3299 486.5183,-112.7385 485.2821,-119.8429 478.2488,-121.4343"/>
<text text-anchor="middle" x="496.5" y="-167" font-family="Helvetica,sans-Serif" font-size="10.00" fill="#000000"> +cableData</text>
</g>
<!-- Node5 -->
<g id="node5" class="node">
<title>Node5</title>
<polygon fill="none" stroke="#bfbfbf" points="454,-226.5 454,-294.5 626,-294.5 626,-226.5 454,-226.5"/>
<text text-anchor="start" x="462" y="-282.5" font-family="Helvetica,sans-Serif" font-size="10.00" fill="#000000">array&lt; const o2::itsmft</text>
<text text-anchor="middle" x="540" y="-271.5" font-family="Helvetica,sans-Serif" font-size="10.00" fill="#000000">::GBTLink *, MaxCablesPerRU &gt;</text>
<polyline fill="none" stroke="#bfbfbf" points="454,-264.5 626,-264.5 "/>
<text text-anchor="middle" x="540" y="-252.5" font-family="Helvetica,sans-Serif" font-size="10.00" fill="#000000"> </text>
<polyline fill="none" stroke="#bfbfbf" points="454,-245.5 626,-245.5 "/>
<text text-anchor="middle" x="540" y="-233.5" font-family="Helvetica,sans-Serif" font-size="10.00" fill="#000000"> </text>
</g>
<!-- Node5&#45;&gt;Node1 -->
<g id="edge4" class="edge">
<title>Node5&#45;&gt;Node1</title>
<path fill="none" stroke="#404040" d="M540,-226.355C540,-198.7767 540,-159.0865 540,-125.0073"/>
<polygon fill="none" stroke="#404040" points="540.0001,-124.7385 536,-118.7385 540,-112.7385 544,-118.7385 540.0001,-124.7385"/>
<text text-anchor="middle" x="576" y="-167" font-family="Helvetica,sans-Serif" font-size="10.00" fill="#000000"> +cableLinkPtr</text>
</g>
<!-- Node6 -->
<g id="node6" class="node">
<title>Node6</title>
<polygon fill="none" stroke="#bfbfbf" points="644.5,-232 644.5,-289 673.5,-289 673.5,-232 644.5,-232"/>
<text text-anchor="middle" x="659" y="-277" font-family="Helvetica,sans-Serif" font-size="10.00" fill="#000000">int</text>
<polyline fill="none" stroke="#bfbfbf" points="644.5,-270 673.5,-270 "/>
<text text-anchor="middle" x="659" y="-258" font-family="Helvetica,sans-Serif" font-size="10.00" fill="#000000"> </text>
<polyline fill="none" stroke="#bfbfbf" points="644.5,-251 673.5,-251 "/>
<text text-anchor="middle" x="659" y="-239" font-family="Helvetica,sans-Serif" font-size="10.00" fill="#000000"> </text>
</g>
<!-- Node6&#45;&gt;Node1 -->
<g id="edge5" class="edge">
<title>Node6&#45;&gt;Node1</title>
<path fill="none" stroke="#404040" d="M653.575,-231.7957C647.4783,-204.3748 635.7552,-162.6521 616,-131 614.1657,-128.0611 612.1924,-125.153 610.1104,-122.2871"/>
<polygon fill="none" stroke="#404040" points="610.0322,-122.1868 603.189,-119.9129 602.656,-112.7215 609.4992,-114.9954 610.0322,-122.1868"/>
<text text-anchor="middle" x="693.5" y="-200" font-family="Helvetica,sans-Serif" font-size="10.00" fill="#000000"> +MaxCablesPerRU</text>
<text text-anchor="middle" x="693.5" y="-189" font-family="Helvetica,sans-Serif" font-size="10.00" fill="#000000">+nChipsFired</text>
<text text-anchor="middle" x="693.5" y="-178" font-family="Helvetica,sans-Serif" font-size="10.00" fill="#000000">+lastChipChecked</text>
<text text-anchor="middle" x="693.5" y="-167" font-family="Helvetica,sans-Serif" font-size="10.00" fill="#000000">+MaxLinksPerRU</text>
<text text-anchor="middle" x="693.5" y="-156" font-family="Helvetica,sans-Serif" font-size="10.00" fill="#000000">+ruSWID</text>
<text text-anchor="middle" x="693.5" y="-145" font-family="Helvetica,sans-Serif" font-size="10.00" fill="#000000">+nCables</text>
<text text-anchor="middle" x="693.5" y="-134" font-family="Helvetica,sans-Serif" font-size="10.00" fill="#000000">+MaxChipsPerRU</text>
</g>
<!-- Node7 -->
<g id="node7" class="node">
<title>Node7</title>
<polygon fill="none" stroke="#bfbfbf" points="691.5,-232 691.5,-289 850.5,-289 850.5,-232 691.5,-232"/>
<text text-anchor="middle" x="771" y="-277" font-family="Helvetica,sans-Serif" font-size="10.00" fill="#000000">array&lt; int, MaxLinksPerRU &gt;</text>
<polyline fill="none" stroke="#bfbfbf" points="691.5,-270 850.5,-270 "/>
<text text-anchor="middle" x="771" y="-258" font-family="Helvetica,sans-Serif" font-size="10.00" fill="#000000"> </text>
<polyline fill="none" stroke="#bfbfbf" points="691.5,-251 850.5,-251 "/>
<text text-anchor="middle" x="771" y="-239" font-family="Helvetica,sans-Serif" font-size="10.00" fill="#000000"> </text>
</g>
<!-- Node7&#45;&gt;Node1 -->
<g id="edge6" class="edge">
<title>Node7&#45;&gt;Node1</title>
<path fill="none" stroke="#404040" d="M772.8602,-231.8004C773.1483,-202.997 769.0703,-158.9939 745,-131 714.7124,-95.7753 666.3759,-77.2024 624.2444,-67.4108"/>
<polygon fill="none" stroke="#404040" points="623.9883,-67.3555 617.2781,-69.9962 612.2597,-64.8179 618.9699,-62.1771 623.9883,-67.3555"/>
<text text-anchor="middle" x="788.5" y="-167" font-family="Helvetica,sans-Serif" font-size="10.00" fill="#000000"> +links</text>
</g>
<!-- Node8 -->
<g id="node8" class="node">
<title>Node8</title>
<polygon fill="none" stroke="#bfbfbf" points="868.5,-232 868.5,-289 911.5,-289 911.5,-232 868.5,-232"/>
<text text-anchor="middle" x="890" y="-277" font-family="Helvetica,sans-Serif" font-size="10.00" fill="#000000">const</text>
<polyline fill="none" stroke="#bfbfbf" points="868.5,-270 911.5,-270 "/>
<text text-anchor="middle" x="890" y="-258" font-family="Helvetica,sans-Serif" font-size="10.00" fill="#000000"> </text>
<polyline fill="none" stroke="#bfbfbf" points="868.5,-251 911.5,-251 "/>
<text text-anchor="middle" x="890" y="-239" font-family="Helvetica,sans-Serif" font-size="10.00" fill="#000000"> </text>
</g>
<!-- Node8&#45;&gt;Node1 -->
<g id="edge7" class="edge">
<title>Node8&#45;&gt;Node1</title>
<path fill="none" stroke="#404040" d="M879.6427,-231.876C867.4738,-202.2745 844.465,-156.8392 810,-131 780.6377,-108.9864 692.0399,-87.033 624.2643,-72.7213"/>
<polygon fill="none" stroke="#404040" points="624.0463,-72.676 617.3565,-75.3677 612.2987,-70.2277 618.9886,-67.536 624.0463,-72.676"/>
<text text-anchor="middle" x="888" y="-167" font-family="Helvetica,sans-Serif" font-size="10.00" fill="#000000"> +ruInfo</text>
</g>
</g>
</svg>
