<?xml version="1.0" encoding="UTF-8" standalone="no"?>
<!DOCTYPE svg PUBLIC "-//W3C//DTD SVG 1.1//EN"
 "http://www.w3.org/Graphics/SVG/1.1/DTD/svg11.dtd">
<!-- Generated by graphviz version 2.40.1 (20161225.0304)
 -->
<!-- Title: o2::framework::GenericRootTreeReader&lt; KeyType &gt;::BranchConfigurationInterface Pages: 1 -->
<svg width="194pt" height="237pt"
 viewBox="0.00 0.00 194.00 237.00" xmlns="http://www.w3.org/2000/svg" xmlns:xlink="http://www.w3.org/1999/xlink">
<g id="graph0" class="graph" transform="scale(1 1) rotate(0) translate(4 233)">
<title>o2::framework::GenericRootTreeReader&lt; KeyType &gt;::BranchConfigurationInterface</title>
<!-- Node1 -->
<g id="node1" class="node">
<title>Node1</title>
<polygon fill="#bfbfbf" stroke="#000000" points="0,-.5 0,-123.5 186,-123.5 186,-.5 0,-.5"/>
<text text-anchor="start" x="8" y="-111.5" font-family="Helvetica,sans-Serif" font-size="10.00" fill="#000000">o2::framework::GenericRoot</text>
<text text-anchor="start" x="8" y="-100.5" font-family="Helvetica,sans-Serif" font-size="10.00" fill="#000000">TreeReader&lt; KeyType &gt;::</text>
<text text-anchor="middle" x="93" y="-89.5" font-family="Helvetica,sans-Serif" font-size="10.00" fill="#000000">BranchConfigurationInterface</text>
<polyline fill="none" stroke="#000000" points="0,-82.5 186,-82.5 "/>
<text text-anchor="middle" x="93" y="-70.5" font-family="Helvetica,sans-Serif" font-size="10.00" fill="#000000"> </text>
<polyline fill="none" stroke="#000000" points="0,-63.5 186,-63.5 "/>
<text text-anchor="start" x="8" y="-51.5" font-family="Helvetica,sans-Serif" font-size="10.00" fill="#000000">+ BranchConfigurationInterface()</text>
<text text-anchor="start" x="8" y="-40.5" font-family="Helvetica,sans-Serif" font-size="10.00" fill="#000000">+ BranchConfigurationInterface()</text>
<text text-anchor="start" x="8" y="-29.5" font-family="Helvetica,sans-Serif" font-size="10.00" fill="#000000">+ ~BranchConfigurationInterface()</text>
<text text-anchor="start" x="8" y="-18.5" font-family="Helvetica,sans-Serif" font-size="10.00" fill="#000000">+ setup()</text>
<text text-anchor="start" x="8" y="-7.5" font-family="Helvetica,sans-Serif" font-size="10.00" fill="#000000">+ exec()</text>
</g>
<!-- Node2 -->
<g id="node2" class="node">
<title>Node2</title>
<polygon fill="none" stroke="#bfbfbf" points="71.5,-171.5 71.5,-228.5 114.5,-228.5 114.5,-171.5 71.5,-171.5"/>
<text text-anchor="middle" x="93" y="-216.5" font-family="Helvetica,sans-Serif" font-size="10.00" fill="#000000">const</text>
<polyline fill="none" stroke="#bfbfbf" points="71.5,-209.5 114.5,-209.5 "/>
<text text-anchor="middle" x="93" y="-197.5" font-family="Helvetica,sans-Serif" font-size="10.00" fill="#000000"> </text>
<polyline fill="none" stroke="#bfbfbf" points="71.5,-190.5 114.5,-190.5 "/>
<text text-anchor="middle" x="93" y="-178.5" font-family="Helvetica,sans-Serif" font-size="10.00" fill="#000000"> </text>
</g>
<!-- Node2&#45;&gt;Node1 -->
<g id="edge1" class="edge">
<title>Node2&#45;&gt;Node1</title>
<path fill="none" stroke="#404040" d="M93,-171.4063C93,-160.8767 93,-148.4088 93,-135.7269"/>
<polygon fill="none" stroke="#404040" points="93.0001,-135.5587 89,-129.5587 93,-123.5587 97,-129.5586 93.0001,-135.5587"/>
<text text-anchor="middle" x="114.5" y="-145" font-family="Helvetica,sans-Serif" font-size="10.00" fill="#000000"> +STAGE</text>
</g>
</g>
</svg>
