<?xml version="1.0" encoding="UTF-8" standalone="no"?>
<!DOCTYPE svg PUBLIC "-//W3C//DTD SVG 1.1//EN"
 "http://www.w3.org/Graphics/SVG/1.1/DTD/svg11.dtd">
<!-- Generated by graphviz version 2.40.1 (20161225.0304)
 -->
<!-- Title: /home/travis/build/AliceO2Group/AliceO2/DataFormats/Detectors/ITSMFT/common/src/Digit.cxx Pages: 1 -->
<svg width="235pt" height="173pt"
 viewBox="0.00 0.00 234.50 173.00" xmlns="http://www.w3.org/2000/svg" xmlns:xlink="http://www.w3.org/1999/xlink">
<g id="graph0" class="graph" transform="scale(1 1) rotate(0) translate(4 169)">
<title>/home/travis/build/AliceO2Group/AliceO2/DataFormats/Detectors/ITSMFT/common/src/Digit.cxx</title>
<!-- Node0 -->
<g id="node1" class="node">
<title>Node0</title>
<polygon fill="#bfbfbf" stroke="#000000" points="53.5,-112.5 53.5,-164.5 217.5,-164.5 217.5,-112.5 53.5,-112.5"/>
<text text-anchor="start" x="61.5" y="-152.5" font-family="Helvetica,sans-Serif" font-size="10.00" fill="#000000">/home/travis/build</text>
<text text-anchor="start" x="61.5" y="-141.5" font-family="Helvetica,sans-Serif" font-size="10.00" fill="#000000">/AliceO2Group/AliceO2</text>
<text text-anchor="start" x="61.5" y="-130.5" font-family="Helvetica,sans-Serif" font-size="10.00" fill="#000000">/DataFormats/Detectors</text>
<text text-anchor="middle" x="135.5" y="-119.5" font-family="Helvetica,sans-Serif" font-size="10.00" fill="#000000">/ITSMFT/common/src/Digit.cxx</text>
</g>
<!-- Node1 -->
<g id="node2" class="node">
<title>Node1</title>
<g id="a_node2"><a xlink:href="../../d3/d1e/DataFormats_2Detectors_2ITSMFT_2common_2include_2DataFormatsITSMFT_2Digit_8h.html" target="_top" xlink:title="DataFormatsITSMFT/Digit.h">
<polygon fill="none" stroke="#000000" points="0,-56.5 0,-75.5 149,-75.5 149,-56.5 0,-56.5"/>
<text text-anchor="middle" x="74.5" y="-63.5" font-family="Helvetica,sans-Serif" font-size="10.00" fill="#000000">DataFormatsITSMFT/Digit.h</text>
</a>
</g>
</g>
<!-- Node0&#45;&gt;Node1 -->
<g id="edge1" class="edge">
<title>Node0&#45;&gt;Node1</title>
<path fill="none" stroke="#191970" d="M113.4776,-112.3258C105.3896,-102.7131 96.4377,-92.0735 89.1547,-83.4174"/>
<polygon fill="#191970" stroke="#191970" points="91.638,-80.9325 82.5217,-75.534 86.2817,-85.4392 91.638,-80.9325"/>
</g>
<!-- Node4 -->
<g id="node5" class="node">
<title>Node4</title>
<polygon fill="none" stroke="#bfbfbf" points="166.5,-56.5 166.5,-75.5 226.5,-75.5 226.5,-56.5 166.5,-56.5"/>
<text text-anchor="middle" x="196.5" y="-63.5" font-family="Helvetica,sans-Serif" font-size="10.00" fill="#000000">iostream</text>
</g>
<!-- Node0&#45;&gt;Node4 -->
<g id="edge4" class="edge">
<title>Node0&#45;&gt;Node4</title>
<path fill="none" stroke="#191970" d="M157.5224,-112.3258C165.6104,-102.7131 174.5623,-92.0735 181.8453,-83.4174"/>
<polygon fill="#191970" stroke="#191970" points="184.7183,-85.4392 188.4783,-75.534 179.362,-80.9325 184.7183,-85.4392"/>
</g>
<!-- Node2 -->
<g id="node3" class="node">
<title>Node2</title>
<polygon fill="none" stroke="#bfbfbf" points="9,-.5 9,-19.5 68,-19.5 68,-.5 9,-.5"/>
<text text-anchor="middle" x="38.5" y="-7.5" font-family="Helvetica,sans-Serif" font-size="10.00" fill="#000000">Rtypes.h</text>
</g>
<!-- Node1&#45;&gt;Node2 -->
<g id="edge2" class="edge">
<title>Node1&#45;&gt;Node2</title>
<path fill="none" stroke="#191970" d="M68.2293,-56.2455C63.2736,-48.5367 56.217,-37.5598 50.2224,-28.2348"/>
<polygon fill="#191970" stroke="#191970" points="53.0506,-26.1618 44.6989,-19.6427 47.1624,-29.9471 53.0506,-26.1618"/>
</g>
<!-- Node3 -->
<g id="node4" class="node">
<title>Node3</title>
<polygon fill="none" stroke="#bfbfbf" points="86.5,-.5 86.5,-19.5 136.5,-19.5 136.5,-.5 86.5,-.5"/>
<text text-anchor="middle" x="111.5" y="-7.5" font-family="Helvetica,sans-Serif" font-size="10.00" fill="#000000">climits</text>
</g>
<!-- Node1&#45;&gt;Node3 -->
<g id="edge3" class="edge">
<title>Node1&#45;&gt;Node3</title>
<path fill="none" stroke="#191970" d="M80.9449,-56.2455C86.0382,-48.5367 93.2908,-37.5598 99.452,-28.2348"/>
<polygon fill="#191970" stroke="#191970" points="102.5365,-29.9155 105.1289,-19.6427 96.6962,-26.0566 102.5365,-29.9155"/>
</g>
</g>
</svg>
