<?xml version="1.0" encoding="UTF-8" standalone="no"?>
<!DOCTYPE svg PUBLIC "-//W3C//DTD SVG 1.1//EN"
 "http://www.w3.org/Graphics/SVG/1.1/DTD/svg11.dtd">
<!-- Generated by graphviz version 2.40.1 (20161225.0304)
 -->
<!-- Title: /home/travis/build/AliceO2Group/AliceO2/DataFormats/Headers/include/Headers/NameHeader.h Pages: 1 -->
<svg width="976pt" height="150pt"
 viewBox="0.00 0.00 975.50 150.00" xmlns="http://www.w3.org/2000/svg" xmlns:xlink="http://www.w3.org/1999/xlink">
<g id="graph0" class="graph" transform="scale(1 1) rotate(0) translate(4 146)">
<title>/home/travis/build/AliceO2Group/AliceO2/DataFormats/Headers/include/Headers/NameHeader.h</title>
<!-- Node12 -->
<g id="node1" class="node">
<title>Node12</title>
<polygon fill="#bfbfbf" stroke="#000000" points="426.5,-89.5 426.5,-141.5 590.5,-141.5 590.5,-89.5 426.5,-89.5"/>
<text text-anchor="start" x="434.5" y="-129.5" font-family="Helvetica,sans-Serif" font-size="10.00" fill="#000000">/home/travis/build</text>
<text text-anchor="start" x="434.5" y="-118.5" font-family="Helvetica,sans-Serif" font-size="10.00" fill="#000000">/AliceO2Group/AliceO2</text>
<text text-anchor="start" x="434.5" y="-107.5" font-family="Helvetica,sans-Serif" font-size="10.00" fill="#000000">/DataFormats/Headers/include</text>
<text text-anchor="middle" x="508.5" y="-96.5" font-family="Helvetica,sans-Serif" font-size="10.00" fill="#000000">/Headers/NameHeader.h</text>
</g>
<!-- Node13 -->
<g id="node2" class="node">
<title>Node13</title>
<g id="a_node2"><a xlink:href="../../d7/d68/headerstack_8cxx.html" target="_top" xlink:title="Unit test for O2 header stack utilities. ">
<polygon fill="none" stroke="#000000" points="0,-6 0,-47 173,-47 173,-6 0,-6"/>
<text text-anchor="start" x="8" y="-35" font-family="Helvetica,sans-Serif" font-size="10.00" fill="#000000">/home/travis/build</text>
<text text-anchor="start" x="8" y="-24" font-family="Helvetica,sans-Serif" font-size="10.00" fill="#000000">/AliceO2Group/AliceO2</text>
<text text-anchor="middle" x="86.5" y="-13" font-family="Helvetica,sans-Serif" font-size="10.00" fill="#000000">/Algorithm/test/headerstack.cxx</text>
</a>
</g>
</g>
<!-- Node12&#45;&gt;Node13 -->
<g id="edge1" class="edge">
<title>Node12&#45;&gt;Node13</title>
<path fill="none" stroke="#191970" d="M416.5346,-100.0311C350.7675,-88.4562 260.3126,-71.4903 181.5,-53 173.7484,-51.1814 165.6785,-49.1491 157.6616,-47.0408"/>
<polygon fill="#191970" stroke="#191970" points="416.0089,-103.4922 426.4629,-101.7705 417.217,-96.5972 416.0089,-103.4922"/>
</g>
<!-- Node14 -->
<g id="node3" class="node">
<title>Node14</title>
<g id="a_node3"><a xlink:href="../../d1/da0/NameHeader_8cxx.html" target="_top" xlink:title="/home/travis/build\l/AliceO2Group/AliceO2\l/DataFormats/Headers/src\l/NameHeader.cxx">
<polygon fill="none" stroke="#000000" points="191,-.5 191,-52.5 334,-52.5 334,-.5 191,-.5"/>
<text text-anchor="start" x="199" y="-40.5" font-family="Helvetica,sans-Serif" font-size="10.00" fill="#000000">/home/travis/build</text>
<text text-anchor="start" x="199" y="-29.5" font-family="Helvetica,sans-Serif" font-size="10.00" fill="#000000">/AliceO2Group/AliceO2</text>
<text text-anchor="start" x="199" y="-18.5" font-family="Helvetica,sans-Serif" font-size="10.00" fill="#000000">/DataFormats/Headers/src</text>
<text text-anchor="middle" x="262.5" y="-7.5" font-family="Helvetica,sans-Serif" font-size="10.00" fill="#000000">/NameHeader.cxx</text>
</a>
</g>
</g>
<!-- Node12&#45;&gt;Node14 -->
<g id="edge2" class="edge">
<title>Node12&#45;&gt;Node14</title>
<path fill="none" stroke="#191970" d="M426.7749,-85.9328C396.8393,-75.1024 363.2141,-62.9372 334.2197,-52.4474"/>
<polygon fill="#191970" stroke="#191970" points="425.7598,-89.2875 436.3541,-89.3984 428.1413,-82.705 425.7598,-89.2875"/>
</g>
<!-- Node15 -->
<g id="node4" class="node">
<title>Node15</title>
<g id="a_node4"><a xlink:href="../../da/d5c/testDataHeader_8cxx.html" target="_top" xlink:title="/home/travis/build\l/AliceO2Group/AliceO2\l/DataFormats/Headers/test\l/testDataHeader.cxx">
<polygon fill="none" stroke="#000000" points="352.5,-.5 352.5,-52.5 500.5,-52.5 500.5,-.5 352.5,-.5"/>
<text text-anchor="start" x="360.5" y="-40.5" font-family="Helvetica,sans-Serif" font-size="10.00" fill="#000000">/home/travis/build</text>
<text text-anchor="start" x="360.5" y="-29.5" font-family="Helvetica,sans-Serif" font-size="10.00" fill="#000000">/AliceO2Group/AliceO2</text>
<text text-anchor="start" x="360.5" y="-18.5" font-family="Helvetica,sans-Serif" font-size="10.00" fill="#000000">/DataFormats/Headers/test</text>
<text text-anchor="middle" x="426.5" y="-7.5" font-family="Helvetica,sans-Serif" font-size="10.00" fill="#000000">/testDataHeader.cxx</text>
</a>
</g>
</g>
<!-- Node12&#45;&gt;Node15 -->
<g id="edge3" class="edge">
<title>Node12&#45;&gt;Node15</title>
<path fill="none" stroke="#191970" d="M477.3731,-81.7159C468.4648,-72.0472 458.8953,-61.6608 450.4865,-52.5341"/>
<polygon fill="#191970" stroke="#191970" points="474.9908,-84.2956 484.3408,-89.2784 480.1389,-79.5525 474.9908,-84.2956"/>
</g>
<!-- Node16 -->
<g id="node5" class="node">
<title>Node16</title>
<g id="a_node5"><a xlink:href="../../d3/dcf/test__CompletionPolicy_8cxx.html" target="_top" xlink:title="/home/travis/build\l/AliceO2Group/AliceO2\l/Framework/Core/test/test\l_CompletionPolicy.cxx">
<polygon fill="none" stroke="#000000" points="519,-.5 519,-52.5 662,-52.5 662,-.5 519,-.5"/>
<text text-anchor="start" x="527" y="-40.5" font-family="Helvetica,sans-Serif" font-size="10.00" fill="#000000">/home/travis/build</text>
<text text-anchor="start" x="527" y="-29.5" font-family="Helvetica,sans-Serif" font-size="10.00" fill="#000000">/AliceO2Group/AliceO2</text>
<text text-anchor="start" x="527" y="-18.5" font-family="Helvetica,sans-Serif" font-size="10.00" fill="#000000">/Framework/Core/test/test</text>
<text text-anchor="middle" x="590.5" y="-7.5" font-family="Helvetica,sans-Serif" font-size="10.00" fill="#000000">_CompletionPolicy.cxx</text>
</a>
</g>
</g>
<!-- Node12&#45;&gt;Node16 -->
<g id="edge4" class="edge">
<title>Node12&#45;&gt;Node16</title>
<path fill="none" stroke="#191970" d="M539.6269,-81.7159C548.5352,-72.0472 558.1047,-61.6608 566.5135,-52.5341"/>
<polygon fill="#191970" stroke="#191970" points="536.8611,-79.5525 532.6592,-89.2784 542.0092,-84.2956 536.8611,-79.5525"/>
</g>
<!-- Node17 -->
<g id="node6" class="node">
<title>Node17</title>
<g id="a_node6"><a xlink:href="../../d6/d0d/test__RootTreeReader_8cxx.html" target="_top" xlink:title="/home/travis/build\l/AliceO2Group/AliceO2\l/Framework/Utils/test\l/test_RootTreeReader.cxx">
<polygon fill="none" stroke="#000000" points="680,-.5 680,-52.5 819,-52.5 819,-.5 680,-.5"/>
<text text-anchor="start" x="688" y="-40.5" font-family="Helvetica,sans-Serif" font-size="10.00" fill="#000000">/home/travis/build</text>
<text text-anchor="start" x="688" y="-29.5" font-family="Helvetica,sans-Serif" font-size="10.00" fill="#000000">/AliceO2Group/AliceO2</text>
<text text-anchor="start" x="688" y="-18.5" font-family="Helvetica,sans-Serif" font-size="10.00" fill="#000000">/Framework/Utils/test</text>
<text text-anchor="middle" x="749.5" y="-7.5" font-family="Helvetica,sans-Serif" font-size="10.00" fill="#000000">/test_RootTreeReader.cxx</text>
</a>
</g>
</g>
<!-- Node12&#45;&gt;Node17 -->
<g id="edge5" class="edge">
<title>Node12&#45;&gt;Node17</title>
<path fill="none" stroke="#191970" d="M588.606,-85.9173C618.0658,-75.0379 651.1682,-62.8134 679.6538,-52.2938"/>
<polygon fill="#191970" stroke="#191970" points="587.3478,-82.6508 579.1796,-89.3984 589.7728,-89.2174 587.3478,-82.6508"/>
</g>
<!-- Node18 -->
<g id="node7" class="node">
<title>Node18</title>
<g id="a_node7"><a xlink:href="../../d5/d39/test__O2Device_8cxx.html" target="_top" xlink:title="/home/travis/build\l/AliceO2Group/AliceO2\l/Utilities/O2Device/test\l/test_O2Device.cxx">
<polygon fill="none" stroke="#000000" points="837.5,-.5 837.5,-52.5 967.5,-52.5 967.5,-.5 837.5,-.5"/>
<text text-anchor="start" x="845.5" y="-40.5" font-family="Helvetica,sans-Serif" font-size="10.00" fill="#000000">/home/travis/build</text>
<text text-anchor="start" x="845.5" y="-29.5" font-family="Helvetica,sans-Serif" font-size="10.00" fill="#000000">/AliceO2Group/AliceO2</text>
<text text-anchor="start" x="845.5" y="-18.5" font-family="Helvetica,sans-Serif" font-size="10.00" fill="#000000">/Utilities/O2Device/test</text>
<text text-anchor="middle" x="902.5" y="-7.5" font-family="Helvetica,sans-Serif" font-size="10.00" fill="#000000">/test_O2Device.cxx</text>
</a>
</g>
</g>
<!-- Node12&#45;&gt;Node18 -->
<g id="edge6" class="edge">
<title>Node12&#45;&gt;Node18</title>
<path fill="none" stroke="#191970" d="M600.6324,-101.3011C665.0375,-90.4547 752.7318,-73.8375 828.5,-53 831.3947,-52.2039 834.3383,-51.3489 837.3012,-50.4511"/>
<polygon fill="#191970" stroke="#191970" points="599.7885,-97.8935 590.5011,-102.9921 600.9409,-104.798 599.7885,-97.8935"/>
</g>
</g>
</svg>
