<?xml version="1.0" encoding="UTF-8" standalone="no"?>
<!DOCTYPE svg PUBLIC "-//W3C//DTD SVG 1.1//EN"
 "http://www.w3.org/Graphics/SVG/1.1/DTD/svg11.dtd">
<!-- Generated by graphviz version 2.40.1 (20161225.0304)
 -->
<!-- Title: /home/travis/build/AliceO2Group/AliceO2/Detectors/MUON/MCH/Raw/Decoder/src/testBareElinkDecoder.cxx Pages: 1 -->
<svg width="1418pt" height="352pt"
 viewBox="0.00 0.00 1418.18 352.00" xmlns="http://www.w3.org/2000/svg" xmlns:xlink="http://www.w3.org/1999/xlink">
<g id="graph0" class="graph" transform="scale(1 1) rotate(0) translate(4 348)">
<title>/home/travis/build/AliceO2Group/AliceO2/Detectors/MUON/MCH/Raw/Decoder/src/testBareElinkDecoder.cxx</title>
<!-- Node0 -->
<g id="node1" class="node">
<title>Node0</title>
<polygon fill="#bfbfbf" stroke="#000000" points="1046.178,-291.5 1046.178,-343.5 1252.178,-343.5 1252.178,-291.5 1046.178,-291.5"/>
<text text-anchor="start" x="1054.178" y="-331.5" font-family="Helvetica,sans-Serif" font-size="10.00" fill="#000000">/home/travis/build</text>
<text text-anchor="start" x="1054.178" y="-320.5" font-family="Helvetica,sans-Serif" font-size="10.00" fill="#000000">/AliceO2Group/AliceO2</text>
<text text-anchor="start" x="1054.178" y="-309.5" font-family="Helvetica,sans-Serif" font-size="10.00" fill="#000000">/Detectors/MUON/MCH/Raw</text>
<text text-anchor="middle" x="1149.178" y="-298.5" font-family="Helvetica,sans-Serif" font-size="10.00" fill="#000000">/Decoder/src/testBareElinkDecoder.cxx</text>
</g>
<!-- Node1 -->
<g id="node2" class="node">
<title>Node1</title>
<g id="a_node2"><a xlink:href="../../d7/ddc/BareElinkDecoder_8h.html" target="_top" xlink:title="BareElinkDecoder.h">
<polygon fill="none" stroke="#000000" points="418.178,-235.5 418.178,-254.5 530.178,-254.5 530.178,-235.5 418.178,-235.5"/>
<text text-anchor="middle" x="474.178" y="-242.5" font-family="Helvetica,sans-Serif" font-size="10.00" fill="#000000">BareElinkDecoder.h</text>
</a>
</g>
</g>
<!-- Node0&#45;&gt;Node1 -->
<g id="edge1" class="edge">
<title>Node0&#45;&gt;Node1</title>
<path fill="none" stroke="#191970" d="M1045.9252,-306.4099C905.4343,-291.3201 658.0842,-264.7529 540.2227,-252.0937"/>
<polygon fill="#191970" stroke="#191970" points="540.5697,-248.6109 530.253,-251.0229 539.822,-255.5709 540.5697,-248.6109"/>
</g>
<!-- Node8 -->
<g id="node9" class="node">
<title>Node8</title>
<polygon fill="none" stroke="#bfbfbf" points="937.178,-56.5 937.178,-75.5 997.178,-75.5 997.178,-56.5 937.178,-56.5"/>
<text text-anchor="middle" x="967.178" y="-63.5" font-family="Helvetica,sans-Serif" font-size="10.00" fill="#000000">iostream</text>
</g>
<!-- Node0&#45;&gt;Node8 -->
<g id="edge32" class="edge">
<title>Node0&#45;&gt;Node8</title>
<path fill="none" stroke="#191970" d="M1137.3998,-291.1934C1118.2338,-248.3895 1082.3915,-168.3578 1082.178,-168 1066.0963,-141.0543 1062.3034,-133.211 1039.178,-112 1025.8168,-99.745 1008.8013,-88.7062 994.6667,-80.5159"/>
<polygon fill="#191970" stroke="#191970" points="996.293,-77.415 985.8617,-75.5609 992.86,-83.5154 996.293,-77.415"/>
</g>
<!-- Node17 -->
<g id="node18" class="node">
<title>Node17</title>
<polygon fill="none" stroke="#bfbfbf" points="1002.678,-174 1002.678,-193 1073.678,-193 1073.678,-174 1002.678,-174"/>
<text text-anchor="middle" x="1038.178" y="-181" font-family="Helvetica,sans-Serif" font-size="10.00" fill="#000000">fmt/printf.h</text>
</g>
<!-- Node0&#45;&gt;Node17 -->
<g id="edge30" class="edge">
<title>Node0&#45;&gt;Node17</title>
<path fill="none" stroke="#191970" d="M1121.7568,-291.3262C1110.8812,-280.4626 1098.5268,-267.4942 1088.178,-255 1073.911,-237.7754 1059.468,-216.634 1049.7984,-201.8244"/>
<polygon fill="#191970" stroke="#191970" points="1052.5423,-199.6211 1044.1831,-193.1115 1046.6584,-203.4131 1052.5423,-199.6211"/>
</g>
<!-- Node20 -->
<g id="node21" class="node">
<title>Node20</title>
<polygon fill="none" stroke="#bfbfbf" points="1130.178,-235.5 1130.178,-254.5 1262.178,-254.5 1262.178,-235.5 1130.178,-235.5"/>
<text text-anchor="middle" x="1196.178" y="-242.5" font-family="Helvetica,sans-Serif" font-size="10.00" fill="#000000">boost/test/unit_test.hpp</text>
</g>
<!-- Node0&#45;&gt;Node20 -->
<g id="edge29" class="edge">
<title>Node0&#45;&gt;Node20</title>
<path fill="none" stroke="#191970" d="M1166.146,-291.3258C1172.2479,-281.9134 1178.988,-271.5164 1184.5343,-262.961"/>
<polygon fill="#191970" stroke="#191970" points="1187.4944,-264.829 1189.9973,-254.534 1181.6207,-261.0211 1187.4944,-264.829"/>
</g>
<!-- Node21 -->
<g id="node22" class="node">
<title>Node21</title>
<polygon fill="none" stroke="#bfbfbf" points="1280.678,-235.5 1280.678,-254.5 1335.678,-254.5 1335.678,-235.5 1280.678,-235.5"/>
<text text-anchor="middle" x="1308.178" y="-242.5" font-family="Helvetica,sans-Serif" font-size="10.00" fill="#000000">fstream</text>
</g>
<!-- Node0&#45;&gt;Node21 -->
<g id="edge31" class="edge">
<title>Node0&#45;&gt;Node21</title>
<path fill="none" stroke="#191970" d="M1206.5806,-291.3258C1230.7368,-280.3112 1257.8496,-267.9485 1277.9871,-258.7663"/>
<polygon fill="#191970" stroke="#191970" points="1279.6222,-261.8674 1287.2689,-254.534 1276.718,-255.4983 1279.6222,-261.8674"/>
</g>
<!-- Node22 -->
<g id="node23" class="node">
<title>Node22</title>
<polygon fill="none" stroke="#bfbfbf" points="1354.178,-235.5 1354.178,-254.5 1410.178,-254.5 1410.178,-235.5 1354.178,-235.5"/>
<text text-anchor="middle" x="1382.178" y="-242.5" font-family="Helvetica,sans-Serif" font-size="10.00" fill="#000000">sstream</text>
</g>
<!-- Node0&#45;&gt;Node22 -->
<g id="edge33" class="edge">
<title>Node0&#45;&gt;Node22</title>
<path fill="none" stroke="#191970" d="M1232.9671,-291.4283C1271.0623,-279.5746 1314.2355,-266.1409 1344.3047,-256.7846"/>
<polygon fill="#191970" stroke="#191970" points="1345.465,-260.0892 1353.9735,-253.7761 1343.3851,-253.4053 1345.465,-260.0892"/>
</g>
<!-- Node2 -->
<g id="node3" class="node">
<title>Node2</title>
<g id="a_node3"><a xlink:href="../../dc/d46/Assertions_8h.html" target="_top" xlink:title="Assertions.h">
<polygon fill="none" stroke="#000000" points="494.678,-112.5 494.678,-131.5 571.678,-131.5 571.678,-112.5 494.678,-112.5"/>
<text text-anchor="middle" x="533.178" y="-119.5" font-family="Helvetica,sans-Serif" font-size="10.00" fill="#000000">Assertions.h</text>
</a>
</g>
</g>
<!-- Node1&#45;&gt;Node2 -->
<g id="edge2" class="edge">
<title>Node1&#45;&gt;Node2</title>
<path fill="none" stroke="#191970" d="M478.8076,-235.3484C488.5874,-214.9601 511.4951,-167.2033 524.234,-140.6459"/>
<polygon fill="#191970" stroke="#191970" points="527.4006,-142.1369 528.5698,-131.6068 521.0891,-139.1094 527.4006,-142.1369"/>
</g>
<!-- Node3 -->
<g id="node4" class="node">
<title>Node3</title>
<polygon fill="none" stroke="#bfbfbf" points="493.678,-56.5 493.678,-75.5 572.678,-75.5 572.678,-56.5 493.678,-56.5"/>
<text text-anchor="middle" x="533.178" y="-63.5" font-family="Helvetica,sans-Serif" font-size="10.00" fill="#000000">fmt/format.h</text>
</g>
<!-- Node1&#45;&gt;Node3 -->
<g id="edge22" class="edge">
<title>Node1&#45;&gt;Node3</title>
<path fill="none" stroke="#191970" d="M472.7529,-235.3831C469.8372,-212.6334 465.0489,-154.2518 485.178,-112 490.7836,-100.2334 500.7833,-89.8971 510.21,-82.0187"/>
<polygon fill="#191970" stroke="#191970" points="512.5001,-84.671 518.2216,-75.7538 508.1881,-79.1567 512.5001,-84.671"/>
</g>
<!-- Node4 -->
<g id="node5" class="node">
<title>Node4</title>
<g id="a_node5"><a xlink:href="../../d0/d64/DataFormats_8h.html" target="_top" xlink:title="MCHRawCommon/DataFormats.h">
<polygon fill="none" stroke="#000000" points="592.678,-56.5 592.678,-75.5 771.678,-75.5 771.678,-56.5 592.678,-56.5"/>
<text text-anchor="middle" x="682.178" y="-63.5" font-family="Helvetica,sans-Serif" font-size="10.00" fill="#000000">MCHRawCommon/DataFormats.h</text>
</a>
</g>
</g>
<!-- Node1&#45;&gt;Node4 -->
<g id="edge4" class="edge">
<title>Node1&#45;&gt;Node4</title>
<path fill="none" stroke="#191970" d="M517.7794,-235.4915C595.2998,-217.6057 751.9234,-176.7086 783.178,-132 800.4912,-107.2341 766.2194,-89.4219 733.0027,-78.5907"/>
<polygon fill="#191970" stroke="#191970" points="733.8347,-75.1848 723.2475,-75.5873 731.7749,-81.8749 733.8347,-75.1848"/>
</g>
<!-- Node6 -->
<g id="node7" class="node">
<title>Node6</title>
<g id="a_node7"><a xlink:href="../../d5/d49/SampaHeader_8h.html" target="_top" xlink:title="MCHRawCommon/SampaHeader.h">
<polygon fill="none" stroke="#000000" points="829.678,-112.5 829.678,-131.5 1014.678,-131.5 1014.678,-112.5 829.678,-112.5"/>
<text text-anchor="middle" x="922.178" y="-119.5" font-family="Helvetica,sans-Serif" font-size="10.00" fill="#000000">MCHRawCommon/SampaHeader.h</text>
</a>
</g>
</g>
<!-- Node1&#45;&gt;Node6 -->
<g id="edge6" class="edge">
<title>Node1&#45;&gt;Node6</title>
<path fill="none" stroke="#191970" d="M530.3574,-240.8005C613.6453,-234.0093 765.4993,-219.2986 816.178,-199 851.2816,-184.9398 885.4959,-156.6675 905.1715,-138.5719"/>
<polygon fill="#191970" stroke="#191970" points="907.7906,-140.9132 912.6739,-131.5108 902.9931,-135.8158 907.7906,-140.9132"/>
</g>
<!-- Node1&#45;&gt;Node8 -->
<g id="edge25" class="edge">
<title>Node1&#45;&gt;Node8</title>
<path fill="none" stroke="#191970" d="M530.2945,-242.8895C658.9347,-236.669 968.2721,-213.3703 1023.178,-132 1035.8446,-113.228 1014.1926,-93.686 994.2372,-80.7855"/>
<polygon fill="#191970" stroke="#191970" points="995.9656,-77.7401 985.6063,-75.5188 992.3193,-83.7154 995.9656,-77.7401"/>
</g>
<!-- Node9 -->
<g id="node10" class="node">
<title>Node9</title>
<g id="a_node10"><a xlink:href="../../dd/d58/SampaChannelHandler_8h.html" target="_top" xlink:title="MCHRawDecoder/SampaChannel\lHandler.h">
<polygon fill="none" stroke="#000000" points="15.678,-168.5 15.678,-198.5 192.678,-198.5 192.678,-168.5 15.678,-168.5"/>
<text text-anchor="start" x="23.678" y="-186.5" font-family="Helvetica,sans-Serif" font-size="10.00" fill="#000000">MCHRawDecoder/SampaChannel</text>
<text text-anchor="middle" x="104.178" y="-175.5" font-family="Helvetica,sans-Serif" font-size="10.00" fill="#000000">Handler.h</text>
</a>
</g>
</g>
<!-- Node1&#45;&gt;Node9 -->
<g id="edge9" class="edge">
<title>Node1&#45;&gt;Node9</title>
<path fill="none" stroke="#191970" d="M417.9829,-235.6595C361.0446,-226.1954 271.7906,-211.3599 203.004,-199.9265"/>
<polygon fill="#191970" stroke="#191970" points="203.4485,-196.4524 193.0099,-198.2653 202.3007,-203.3577 203.4485,-196.4524"/>
</g>
<!-- Node10 -->
<g id="node11" class="node">
<title>Node10</title>
<polygon fill="none" stroke="#bfbfbf" points="13.678,-112.5 13.678,-131.5 78.678,-131.5 78.678,-112.5 13.678,-112.5"/>
<text text-anchor="middle" x="46.178" y="-119.5" font-family="Helvetica,sans-Serif" font-size="10.00" fill="#000000">functional</text>
</g>
<!-- Node1&#45;&gt;Node10 -->
<g id="edge24" class="edge">
<title>Node1&#45;&gt;Node10</title>
<path fill="none" stroke="#191970" d="M418.0716,-243.6234C299.7776,-240.1406 33.3889,-229.0166 6.178,-199 -10.0537,-181.0947 9.7677,-155.3912 26.8295,-138.6954"/>
<polygon fill="#191970" stroke="#191970" points="29.3936,-141.0905 34.335,-131.7185 24.6277,-135.9634 29.3936,-141.0905"/>
</g>
<!-- Node12 -->
<g id="node13" class="node">
<title>Node12</title>
<polygon fill="none" stroke="#bfbfbf" points="416.678,-56.5 416.678,-75.5 463.678,-75.5 463.678,-56.5 416.678,-56.5"/>
<text text-anchor="middle" x="440.178" y="-63.5" font-family="Helvetica,sans-Serif" font-size="10.00" fill="#000000">vector</text>
</g>
<!-- Node1&#45;&gt;Node12 -->
<g id="edge27" class="edge">
<title>Node1&#45;&gt;Node12</title>
<path fill="none" stroke="#191970" d="M470.7528,-235.241C467.6202,-226.005 463.0497,-211.702 460.178,-199 451.2072,-159.3216 445.1836,-112.0515 442.2506,-85.8993"/>
<polygon fill="#191970" stroke="#191970" points="445.7099,-85.3338 441.152,-75.7695 438.7507,-86.0886 445.7099,-85.3338"/>
</g>
<!-- Node16 -->
<g id="node17" class="node">
<title>Node16</title>
<polygon fill="none" stroke="#bfbfbf" points="210.178,-174 210.178,-193 254.178,-193 254.178,-174 210.178,-174"/>
<text text-anchor="middle" x="232.178" y="-181" font-family="Helvetica,sans-Serif" font-size="10.00" fill="#000000">bitset</text>
</g>
<!-- Node1&#45;&gt;Node16 -->
<g id="edge21" class="edge">
<title>Node1&#45;&gt;Node16</title>
<path fill="none" stroke="#191970" d="M418.0401,-236.68C374.9087,-229.3563 314.2684,-217.0237 263.178,-199 261.7593,-198.4995 260.3222,-197.949 258.8836,-197.363"/>
<polygon fill="#191970" stroke="#191970" points="260.1042,-194.0735 249.5511,-193.1342 257.2151,-200.4495 260.1042,-194.0735"/>
</g>
<!-- Node1&#45;&gt;Node17 -->
<g id="edge23" class="edge">
<title>Node1&#45;&gt;Node17</title>
<path fill="none" stroke="#191970" d="M530.2488,-243.8488C625.3122,-241.0386 823.8125,-231.452 988.178,-199 992.5593,-198.135 997.101,-197.0309 1001.58,-195.8114"/>
<polygon fill="#191970" stroke="#191970" points="1002.5788,-199.166 1011.1985,-193.0055 1000.6184,-192.4461 1002.5788,-199.166"/>
</g>
<!-- Node18 -->
<g id="node19" class="node">
<title>Node18</title>
<polygon fill="none" stroke="#bfbfbf" points="272.678,-174 272.678,-193 337.678,-193 337.678,-174 272.678,-174"/>
<text text-anchor="middle" x="305.178" y="-181" font-family="Helvetica,sans-Serif" font-size="10.00" fill="#000000">stdexcept</text>
</g>
<!-- Node1&#45;&gt;Node18 -->
<g id="edge26" class="edge">
<title>Node1&#45;&gt;Node18</title>
<path fill="none" stroke="#191970" d="M447.4025,-235.3548C421.6886,-226.0795 381.7563,-211.6426 347.178,-199 344.9607,-198.1893 342.6782,-197.3528 340.3774,-196.508"/>
<polygon fill="#191970" stroke="#191970" points="341.5279,-193.2019 330.9344,-193.0333 339.1106,-199.7713 341.5279,-193.2019"/>
</g>
<!-- Node19 -->
<g id="node20" class="node">
<title>Node19</title>
<polygon fill="none" stroke="#bfbfbf" points="356.178,-174 356.178,-193 408.178,-193 408.178,-174 356.178,-174"/>
<text text-anchor="middle" x="382.178" y="-181" font-family="Helvetica,sans-Serif" font-size="10.00" fill="#000000">cassert</text>
</g>
<!-- Node1&#45;&gt;Node19 -->
<g id="edge28" class="edge">
<title>Node1&#45;&gt;Node19</title>
<path fill="none" stroke="#191970" d="M459.803,-235.3906C445.0848,-225.5519 421.9947,-210.1167 404.819,-198.6351"/>
<polygon fill="#191970" stroke="#191970" points="406.7107,-195.6896 396.452,-193.0419 402.8205,-201.5091 406.7107,-195.6896"/>
</g>
<!-- Node2&#45;&gt;Node3 -->
<g id="edge3" class="edge">
<title>Node2&#45;&gt;Node3</title>
<path fill="none" stroke="#191970" d="M533.178,-112.2455C533.178,-104.9382 533.178,-94.6944 533.178,-85.7046"/>
<polygon fill="#191970" stroke="#191970" points="536.6781,-85.6426 533.178,-75.6427 529.6781,-85.6427 536.6781,-85.6426"/>
</g>
<!-- Node5 -->
<g id="node6" class="node">
<title>Node5</title>
<polygon fill="none" stroke="#bfbfbf" points="470.178,-.5 470.178,-19.5 520.178,-19.5 520.178,-.5 470.178,-.5"/>
<text text-anchor="middle" x="495.178" y="-7.5" font-family="Helvetica,sans-Serif" font-size="10.00" fill="#000000">cstdint</text>
</g>
<!-- Node4&#45;&gt;Node5 -->
<g id="edge5" class="edge">
<title>Node4&#45;&gt;Node5</title>
<path fill="none" stroke="#191970" d="M650.0315,-56.3733C616.5761,-46.3545 564.3574,-30.7168 529.9562,-20.4149"/>
<polygon fill="#191970" stroke="#191970" points="530.9086,-17.0466 520.3248,-17.5306 528.9004,-23.7523 530.9086,-17.0466"/>
</g>
<!-- Node7 -->
<g id="node8" class="node">
<title>Node7</title>
<polygon fill="none" stroke="#bfbfbf" points="852.678,-56.5 852.678,-75.5 901.678,-75.5 901.678,-56.5 852.678,-56.5"/>
<text text-anchor="middle" x="877.178" y="-63.5" font-family="Helvetica,sans-Serif" font-size="10.00" fill="#000000">cstdlib</text>
</g>
<!-- Node6&#45;&gt;Node7 -->
<g id="edge7" class="edge">
<title>Node6&#45;&gt;Node7</title>
<path fill="none" stroke="#191970" d="M914.3396,-112.2455C908.0159,-104.3761 898.9556,-93.101 891.3644,-83.6542"/>
<polygon fill="#191970" stroke="#191970" points="893.9188,-81.2454 884.9265,-75.6427 888.4622,-85.6302 893.9188,-81.2454"/>
</g>
<!-- Node6&#45;&gt;Node8 -->
<g id="edge8" class="edge">
<title>Node6&#45;&gt;Node8</title>
<path fill="none" stroke="#191970" d="M930.0164,-112.2455C936.34,-104.3761 945.4004,-93.101 952.9916,-83.6542"/>
<polygon fill="#191970" stroke="#191970" points="955.8937,-85.6302 959.4294,-75.6427 950.4371,-81.2454 955.8937,-85.6302"/>
</g>
<!-- Node9&#45;&gt;Node10 -->
<g id="edge10" class="edge">
<title>Node9&#45;&gt;Node10</title>
<path fill="none" stroke="#191970" d="M89.8409,-168.2977C81.5383,-159.4941 71.0597,-148.3833 62.449,-139.2529"/>
<polygon fill="#191970" stroke="#191970" points="64.8718,-136.7206 55.4645,-131.8469 59.7793,-141.5234 64.8718,-136.7206"/>
</g>
<!-- Node11 -->
<g id="node12" class="node">
<title>Node11</title>
<g id="a_node12"><a xlink:href="../../d0/d5b/SampaCluster_8h.html" target="_top" xlink:title="MCHRawCommon/SampaCluster.h">
<polygon fill="none" stroke="#000000" points="590.178,-112.5 590.178,-131.5 774.178,-131.5 774.178,-112.5 590.178,-112.5"/>
<text text-anchor="middle" x="682.178" y="-119.5" font-family="Helvetica,sans-Serif" font-size="10.00" fill="#000000">MCHRawCommon/SampaCluster.h</text>
</a>
</g>
</g>
<!-- Node9&#45;&gt;Node11 -->
<g id="edge11" class="edge">
<title>Node9&#45;&gt;Node11</title>
<path fill="none" stroke="#191970" d="M192.6916,-169.1176C195.5521,-168.7291 198.3866,-168.3552 201.178,-168 369.0269,-146.6397 411.7579,-148.2547 580.178,-132 580.2804,-131.9901 580.3828,-131.9802 580.4853,-131.9703"/>
<polygon fill="#191970" stroke="#191970" points="580.5428,-135.4812 590.1592,-131.0344 579.8686,-128.5137 580.5428,-135.4812"/>
</g>
<!-- Node13 -->
<g id="node14" class="node">
<title>Node13</title>
<g id="a_node14"><a xlink:href="../../d4/d09/DsElecId_8h.html" target="_top" xlink:title="MCHRawElecMap/DsElecId.h">
<polygon fill="none" stroke="#000000" points="174.678,-112.5 174.678,-131.5 329.678,-131.5 329.678,-112.5 174.678,-112.5"/>
<text text-anchor="middle" x="252.178" y="-119.5" font-family="Helvetica,sans-Serif" font-size="10.00" fill="#000000">MCHRawElecMap/DsElecId.h</text>
</a>
</g>
</g>
<!-- Node9&#45;&gt;Node13 -->
<g id="edge17" class="edge">
<title>Node9&#45;&gt;Node13</title>
<path fill="none" stroke="#191970" d="M140.3828,-168.4554C164.6438,-158.374 196.3135,-145.2139 219.7491,-135.4755"/>
<polygon fill="#191970" stroke="#191970" points="221.3518,-138.5997 229.2432,-131.5303 218.6657,-132.1356 221.3518,-138.5997"/>
</g>
<!-- Node11&#45;&gt;Node3 -->
<g id="edge15" class="edge">
<title>Node11&#45;&gt;Node3</title>
<path fill="none" stroke="#191970" d="M656.5639,-112.3733C632.1093,-103.1822 595.0725,-89.2624 567.9571,-79.0713"/>
<polygon fill="#191970" stroke="#191970" points="569.0498,-75.7431 558.4577,-75.5011 566.5871,-82.2956 569.0498,-75.7431"/>
</g>
<!-- Node11&#45;&gt;Node4 -->
<g id="edge16" class="edge">
<title>Node11&#45;&gt;Node4</title>
<path fill="none" stroke="#191970" d="M682.178,-112.2455C682.178,-104.9382 682.178,-94.6944 682.178,-85.7046"/>
<polygon fill="#191970" stroke="#191970" points="685.6781,-85.6426 682.178,-75.6427 678.6781,-85.6427 685.6781,-85.6426"/>
</g>
<!-- Node11&#45;&gt;Node7 -->
<g id="edge12" class="edge">
<title>Node11&#45;&gt;Node7</title>
<path fill="none" stroke="#191970" d="M715.6997,-112.3733C751.0819,-102.2122 806.5899,-86.2715 842.4292,-75.9791"/>
<polygon fill="#191970" stroke="#191970" points="843.7839,-79.2316 852.4293,-73.1073 841.8517,-72.5036 843.7839,-79.2316"/>
</g>
<!-- Node11&#45;&gt;Node8 -->
<g id="edge14" class="edge">
<title>Node11&#45;&gt;Node8</title>
<path fill="none" stroke="#191970" d="M730.8474,-112.4369C786.1773,-101.5651 875.4816,-84.0175 927.0087,-73.8929"/>
<polygon fill="#191970" stroke="#191970" points="927.9595,-77.2731 937.097,-71.9106 926.6098,-70.4044 927.9595,-77.2731"/>
</g>
<!-- Node11&#45;&gt;Node12 -->
<g id="edge13" class="edge">
<title>Node11&#45;&gt;Node12</title>
<path fill="none" stroke="#191970" d="M640.8516,-112.4369C593.6103,-101.505 517.2011,-83.8235 473.5647,-73.7258"/>
<polygon fill="#191970" stroke="#191970" points="474.2653,-70.2956 463.7336,-71.4509 472.6871,-77.1153 474.2653,-70.2956"/>
</g>
<!-- Node13&#45;&gt;Node5 -->
<g id="edge18" class="edge">
<title>Node13&#45;&gt;Node5</title>
<path fill="none" stroke="#191970" d="M256.361,-112.2211C263.1343,-97.6086 277.9224,-70.2703 299.178,-56 325.1994,-38.53 410.9532,-22.9618 459.9778,-15.2045"/>
<polygon fill="#191970" stroke="#191970" points="460.7942,-18.6197 470.138,-13.6254 459.7191,-11.7028 460.7942,-18.6197"/>
</g>
<!-- Node14 -->
<g id="node15" class="node">
<title>Node14</title>
<polygon fill="none" stroke="#bfbfbf" points="308.678,-56.5 308.678,-75.5 357.678,-75.5 357.678,-56.5 308.678,-56.5"/>
<text text-anchor="middle" x="333.178" y="-63.5" font-family="Helvetica,sans-Serif" font-size="10.00" fill="#000000">iosfwd</text>
</g>
<!-- Node13&#45;&gt;Node14 -->
<g id="edge19" class="edge">
<title>Node13&#45;&gt;Node14</title>
<path fill="none" stroke="#191970" d="M266.2871,-112.2455C278.5988,-103.7337 296.6737,-91.2375 310.9318,-81.3801"/>
<polygon fill="#191970" stroke="#191970" points="312.9953,-84.2085 319.2305,-75.6427 309.0145,-78.4506 312.9953,-84.2085"/>
</g>
<!-- Node15 -->
<g id="node16" class="node">
<title>Node15</title>
<polygon fill="none" stroke="#bfbfbf" points="196.178,-56.5 196.178,-75.5 252.178,-75.5 252.178,-56.5 196.178,-56.5"/>
<text text-anchor="middle" x="224.178" y="-63.5" font-family="Helvetica,sans-Serif" font-size="10.00" fill="#000000">optional</text>
</g>
<!-- Node13&#45;&gt;Node15 -->
<g id="edge20" class="edge">
<title>Node13&#45;&gt;Node15</title>
<path fill="none" stroke="#191970" d="M247.3007,-112.2455C243.5266,-104.6973 238.1858,-94.0158 233.5878,-84.8197"/>
<polygon fill="#191970" stroke="#191970" points="236.602,-83.0217 228.9993,-75.6427 230.341,-86.1522 236.602,-83.0217"/>
</g>
</g>
</svg>
