<?xml version="1.0" encoding="UTF-8" standalone="no"?>
<!DOCTYPE svg PUBLIC "-//W3C//DTD SVG 1.1//EN"
 "http://www.w3.org/Graphics/SVG/1.1/DTD/svg11.dtd">
<!-- Generated by graphviz version 2.40.1 (20161225.0304)
 -->
<!-- Title: o2::framework::OutputRoute Pages: 1 -->
<svg width="499pt" height="513pt"
 viewBox="0.00 0.00 498.50 513.00" xmlns="http://www.w3.org/2000/svg" xmlns:xlink="http://www.w3.org/1999/xlink">
<g id="graph0" class="graph" transform="scale(1 1) rotate(0) translate(4 509)">
<title>o2::framework::OutputRoute</title>
<!-- Node1 -->
<g id="node1" class="node">
<title>Node1</title>
<polygon fill="#bfbfbf" stroke="#000000" points="167,-.5 167,-57.5 322,-57.5 322,-.5 167,-.5"/>
<text text-anchor="middle" x="244.5" y="-45.5" font-family="Helvetica,sans-Serif" font-size="10.00" fill="#000000">o2::framework::OutputRoute</text>
<polyline fill="none" stroke="#000000" points="167,-38.5 322,-38.5 "/>
<text text-anchor="middle" x="244.5" y="-26.5" font-family="Helvetica,sans-Serif" font-size="10.00" fill="#000000"> </text>
<polyline fill="none" stroke="#000000" points="167,-19.5 322,-19.5 "/>
<text text-anchor="middle" x="244.5" y="-7.5" font-family="Helvetica,sans-Serif" font-size="10.00" fill="#000000"> </text>
</g>
<!-- Node2 -->
<g id="node2" class="node">
<title>Node2</title>
<g id="a_node2"><a xlink:href="../../d8/dc3/structo2_1_1framework_1_1OutputSpec.html" target="_top" xlink:title="{o2::framework::OutputSpec\n||+ OutputSpec()\l+ OutputSpec()\l+ OutputSpec()\l+ OutputSpec()\l+ OutputSpec()\l+ OutputSpec()\l+ OutputSpec()\l+ OutputSpec()\l+ operator==()\l}">
<polygon fill="none" stroke="#000000" points="169.5,-116.5 169.5,-261.5 319.5,-261.5 319.5,-116.5 169.5,-116.5"/>
<text text-anchor="middle" x="244.5" y="-249.5" font-family="Helvetica,sans-Serif" font-size="10.00" fill="#000000">o2::framework::OutputSpec</text>
<polyline fill="none" stroke="#000000" points="169.5,-242.5 319.5,-242.5 "/>
<text text-anchor="middle" x="244.5" y="-230.5" font-family="Helvetica,sans-Serif" font-size="10.00" fill="#000000"> </text>
<polyline fill="none" stroke="#000000" points="169.5,-223.5 319.5,-223.5 "/>
<text text-anchor="start" x="177.5" y="-211.5" font-family="Helvetica,sans-Serif" font-size="10.00" fill="#000000">+ OutputSpec()</text>
<text text-anchor="start" x="177.5" y="-200.5" font-family="Helvetica,sans-Serif" font-size="10.00" fill="#000000">+ OutputSpec()</text>
<text text-anchor="start" x="177.5" y="-189.5" font-family="Helvetica,sans-Serif" font-size="10.00" fill="#000000">+ OutputSpec()</text>
<text text-anchor="start" x="177.5" y="-178.5" font-family="Helvetica,sans-Serif" font-size="10.00" fill="#000000">+ OutputSpec()</text>
<text text-anchor="start" x="177.5" y="-167.5" font-family="Helvetica,sans-Serif" font-size="10.00" fill="#000000">+ OutputSpec()</text>
<text text-anchor="start" x="177.5" y="-156.5" font-family="Helvetica,sans-Serif" font-size="10.00" fill="#000000">+ OutputSpec()</text>
<text text-anchor="start" x="177.5" y="-145.5" font-family="Helvetica,sans-Serif" font-size="10.00" fill="#000000">+ OutputSpec()</text>
<text text-anchor="start" x="177.5" y="-134.5" font-family="Helvetica,sans-Serif" font-size="10.00" fill="#000000">+ OutputSpec()</text>
<text text-anchor="start" x="177.5" y="-123.5" font-family="Helvetica,sans-Serif" font-size="10.00" fill="#000000">+ operator==()</text>
</a>
</g>
</g>
<!-- Node2&#45;&gt;Node1 -->
<g id="edge1" class="edge">
<title>Node2&#45;&gt;Node1</title>
<path fill="none" stroke="#404040" d="M244.5,-116.4902C244.5,-100.5375 244.5,-84.1839 244.5,-69.997"/>
<polygon fill="none" stroke="#404040" points="244.5001,-69.651 240.5,-63.651 244.5,-57.651 248.5,-63.6509 244.5001,-69.651"/>
<text text-anchor="middle" x="270.5" y="-84.5" font-family="Helvetica,sans-Serif" font-size="10.00" fill="#000000"> +matcher</text>
</g>
<!-- Node3 -->
<g id="node3" class="node">
<title>Node3</title>
<polygon fill="none" stroke="#bfbfbf" points="402.5,-326 402.5,-383 490.5,-383 490.5,-326 402.5,-326"/>
<text text-anchor="middle" x="446.5" y="-371" font-family="Helvetica,sans-Serif" font-size="10.00" fill="#000000">enum Lifetime</text>
<polyline fill="none" stroke="#bfbfbf" points="402.5,-364 490.5,-364 "/>
<text text-anchor="middle" x="446.5" y="-352" font-family="Helvetica,sans-Serif" font-size="10.00" fill="#000000"> </text>
<polyline fill="none" stroke="#bfbfbf" points="402.5,-345 490.5,-345 "/>
<text text-anchor="middle" x="446.5" y="-333" font-family="Helvetica,sans-Serif" font-size="10.00" fill="#000000"> </text>
</g>
<!-- Node3&#45;&gt;Node2 -->
<g id="edge2" class="edge">
<title>Node3&#45;&gt;Node2</title>
<path fill="none" stroke="#404040" d="M414.0613,-325.9109C407.3485,-320.2054 400.261,-314.3314 393.5,-309 368.1309,-288.995 358.2953,-284.8474 329.4032,-262.5326"/>
<polygon fill="none" stroke="#404040" points="329.2271,-262.3944 322.0375,-261.8373 319.7866,-254.9864 326.9762,-255.5436 329.2271,-262.3944"/>
<text text-anchor="middle" x="393.5" y="-283" font-family="Helvetica,sans-Serif" font-size="10.00" fill="#000000"> +lifetime</text>
</g>
<!-- Node4 -->
<g id="node4" class="node">
<title>Node4</title>
<g id="a_node4"><a xlink:href="../../de/d1b/structo2_1_1framework_1_1OutputLabel.html" target="_top" xlink:title="{o2::framework::OutputLabel\n||}">
<polygon fill="none" stroke="#000000" points="27,-326 27,-383 180,-383 180,-326 27,-326"/>
<text text-anchor="middle" x="103.5" y="-371" font-family="Helvetica,sans-Serif" font-size="10.00" fill="#000000">o2::framework::OutputLabel</text>
<polyline fill="none" stroke="#000000" points="27,-364 180,-364 "/>
<text text-anchor="middle" x="103.5" y="-352" font-family="Helvetica,sans-Serif" font-size="10.00" fill="#000000"> </text>
<polyline fill="none" stroke="#000000" points="27,-345 180,-345 "/>
<text text-anchor="middle" x="103.5" y="-333" font-family="Helvetica,sans-Serif" font-size="10.00" fill="#000000"> </text>
</a>
</g>
</g>
<!-- Node4&#45;&gt;Node2 -->
<g id="edge3" class="edge">
<title>Node4&#45;&gt;Node2</title>
<path fill="none" stroke="#404040" d="M128.0603,-325.6721C141.1382,-310.3218 157.9517,-290.5868 174.7116,-270.9148"/>
<polygon fill="none" stroke="#404040" points="174.8731,-270.7251 175.7194,-263.5639 182.6553,-261.5907 181.809,-268.752 174.8731,-270.7251"/>
<text text-anchor="middle" x="190.5" y="-283" font-family="Helvetica,sans-Serif" font-size="10.00" fill="#000000"> +binding</text>
</g>
<!-- Node5 -->
<g id="node5" class="node">
<title>Node5</title>
<polygon fill="none" stroke="#bfbfbf" points="0,-447.5 0,-504.5 29,-504.5 29,-447.5 0,-447.5"/>
<text text-anchor="middle" x="14.5" y="-492.5" font-family="Helvetica,sans-Serif" font-size="10.00" fill="#000000">int</text>
<polyline fill="none" stroke="#bfbfbf" points="0,-485.5 29,-485.5 "/>
<text text-anchor="middle" x="14.5" y="-473.5" font-family="Helvetica,sans-Serif" font-size="10.00" fill="#000000"> </text>
<polyline fill="none" stroke="#bfbfbf" points="0,-466.5 29,-466.5 "/>
<text text-anchor="middle" x="14.5" y="-454.5" font-family="Helvetica,sans-Serif" font-size="10.00" fill="#000000"> </text>
</g>
<!-- Node5&#45;&gt;Node1 -->
<g id="edge7" class="edge">
<title>Node5&#45;&gt;Node1</title>
<path fill="none" stroke="#404040" d="M9.8369,-447.3226C5.4679,-413.3147 1.7211,-355.3965 17.5,-309 52.3564,-206.5077 143.7614,-114.675 199.3727,-65.8974"/>
<polygon fill="none" stroke="#404040" points="199.5735,-65.7236 201.4925,-58.7725 208.647,-57.8704 206.7279,-64.8215 199.5735,-65.7236"/>
<text text-anchor="middle" x="53.5" y="-283" font-family="Helvetica,sans-Serif" font-size="10.00" fill="#000000"> +channel</text>
</g>
<!-- Node5&#45;&gt;Node4 -->
<g id="edge4" class="edge">
<title>Node5&#45;&gt;Node4</title>
<path fill="none" stroke="#404040" d="M29.1965,-455.9367C41.6707,-438.9074 59.9274,-413.9839 75.222,-393.1042"/>
<polygon fill="none" stroke="#404040" points="75.3628,-392.9119 75.6815,-385.7079 82.454,-383.2313 82.1353,-390.4353 75.3628,-392.9119"/>
<text text-anchor="middle" x="76" y="-421" font-family="Helvetica,sans-Serif" font-size="10.00" fill="#000000"> +value</text>
</g>
<!-- Node6 -->
<g id="node6" class="node">
<title>Node6</title>
<polygon fill="none" stroke="#bfbfbf" points="198.5,-309.5 198.5,-399.5 384.5,-399.5 384.5,-309.5 198.5,-309.5"/>
<text text-anchor="start" x="206.5" y="-387.5" font-family="Helvetica,sans-Serif" font-size="10.00" fill="#000000">variant&lt; o2::framework</text>
<text text-anchor="start" x="206.5" y="-376.5" font-family="Helvetica,sans-Serif" font-size="10.00" fill="#000000">::ConcreteDataMatcher,</text>
<text text-anchor="start" x="206.5" y="-365.5" font-family="Helvetica,sans-Serif" font-size="10.00" fill="#000000"> o2::framework::ConcreteDataType</text>
<text text-anchor="middle" x="291.5" y="-354.5" font-family="Helvetica,sans-Serif" font-size="10.00" fill="#000000">Matcher &gt;</text>
<polyline fill="none" stroke="#bfbfbf" points="198.5,-347.5 384.5,-347.5 "/>
<text text-anchor="middle" x="291.5" y="-335.5" font-family="Helvetica,sans-Serif" font-size="10.00" fill="#000000"> </text>
<polyline fill="none" stroke="#bfbfbf" points="198.5,-328.5 384.5,-328.5 "/>
<text text-anchor="middle" x="291.5" y="-316.5" font-family="Helvetica,sans-Serif" font-size="10.00" fill="#000000"> </text>
</g>
<!-- Node6&#45;&gt;Node2 -->
<g id="edge5" class="edge">
<title>Node6&#45;&gt;Node2</title>
<path fill="none" stroke="#404040" d="M278.657,-309.2764C275.4851,-298.1072 271.9846,-285.7808 268.47,-273.405"/>
<polygon fill="none" stroke="#404040" points="268.3846,-273.1042 262.8976,-268.4251 265.1063,-261.5606 270.5933,-266.2396 268.3846,-273.1042"/>
<text text-anchor="middle" x="297.5" y="-283" font-family="Helvetica,sans-Serif" font-size="10.00" fill="#000000"> +matcher</text>
</g>
<!-- Node7 -->
<g id="node7" class="node">
<title>Node7</title>
<polygon fill="none" stroke="#bfbfbf" points="337,-160.5 337,-217.5 382,-217.5 382,-160.5 337,-160.5"/>
<text text-anchor="middle" x="359.5" y="-205.5" font-family="Helvetica,sans-Serif" font-size="10.00" fill="#000000">size_t</text>
<polyline fill="none" stroke="#bfbfbf" points="337,-198.5 382,-198.5 "/>
<text text-anchor="middle" x="359.5" y="-186.5" font-family="Helvetica,sans-Serif" font-size="10.00" fill="#000000"> </text>
<polyline fill="none" stroke="#bfbfbf" points="337,-179.5 382,-179.5 "/>
<text text-anchor="middle" x="359.5" y="-167.5" font-family="Helvetica,sans-Serif" font-size="10.00" fill="#000000"> </text>
</g>
<!-- Node7&#45;&gt;Node1 -->
<g id="edge6" class="edge">
<title>Node7&#45;&gt;Node1</title>
<path fill="none" stroke="#404040" d="M349.4504,-160.4855C339.7625,-135.9905 323.2233,-100.8044 300.5,-76 297.3116,-72.5196 293.8678,-69.0586 290.3102,-65.6848"/>
<polygon fill="none" stroke="#404040" points="290.1976,-65.5825 283.0665,-64.5112 281.3127,-57.5165 288.4438,-58.5879 290.1976,-65.5825"/>
<text text-anchor="middle" x="360.5" y="-90" font-family="Helvetica,sans-Serif" font-size="10.00" fill="#000000"> +maxTimeslices</text>
<text text-anchor="middle" x="360.5" y="-79" font-family="Helvetica,sans-Serif" font-size="10.00" fill="#000000">+timeslice</text>
</g>
</g>
</svg>
