<?xml version="1.0" encoding="UTF-8" standalone="no"?>
<!DOCTYPE svg PUBLIC "-//W3C//DTD SVG 1.1//EN"
 "http://www.w3.org/Graphics/SVG/1.1/DTD/svg11.dtd">
<!-- Generated by graphviz version 2.40.1 (20161225.0304)
 -->
<!-- Title: /home/travis/build/AliceO2Group/AliceO2/Framework/Core/include/Framework/DataSamplingConditionFactory.h Pages: 1 -->
<svg width="1402pt" height="161pt"
 viewBox="0.00 0.00 1402.00 161.00" xmlns="http://www.w3.org/2000/svg" xmlns:xlink="http://www.w3.org/1999/xlink">
<g id="graph0" class="graph" transform="scale(1 1) rotate(0) translate(4 157)">
<title>/home/travis/build/AliceO2Group/AliceO2/Framework/Core/include/Framework/DataSamplingConditionFactory.h</title>
<!-- Node6 -->
<g id="node1" class="node">
<title>Node6</title>
<polygon fill="#bfbfbf" stroke="#000000" points="616,-89.5 616,-152.5 808,-152.5 808,-89.5 616,-89.5"/>
<text text-anchor="start" x="624" y="-140.5" font-family="Helvetica,sans-Serif" font-size="10.00" fill="#000000">/home/travis/build</text>
<text text-anchor="start" x="624" y="-129.5" font-family="Helvetica,sans-Serif" font-size="10.00" fill="#000000">/AliceO2Group/AliceO2</text>
<text text-anchor="start" x="624" y="-118.5" font-family="Helvetica,sans-Serif" font-size="10.00" fill="#000000">/Framework/Core/include</text>
<text text-anchor="start" x="624" y="-107.5" font-family="Helvetica,sans-Serif" font-size="10.00" fill="#000000">/Framework/DataSamplingCondition</text>
<text text-anchor="middle" x="712" y="-96.5" font-family="Helvetica,sans-Serif" font-size="10.00" fill="#000000">Factory.h</text>
</g>
<!-- Node7 -->
<g id="node2" class="node">
<title>Node7</title>
<g id="a_node2"><a xlink:href="../../d0/d38/DataSamplingConditionCustom_8cxx.html" target="_top" xlink:title="Implementation of DataSamplingConditionCustom. ">
<polygon fill="none" stroke="#000000" points="0,-.5 0,-52.5 188,-52.5 188,-.5 0,-.5"/>
<text text-anchor="start" x="8" y="-40.5" font-family="Helvetica,sans-Serif" font-size="10.00" fill="#000000">/home/travis/build</text>
<text text-anchor="start" x="8" y="-29.5" font-family="Helvetica,sans-Serif" font-size="10.00" fill="#000000">/AliceO2Group/AliceO2</text>
<text text-anchor="start" x="8" y="-18.5" font-family="Helvetica,sans-Serif" font-size="10.00" fill="#000000">/Framework/Core/src/DataSampling</text>
<text text-anchor="middle" x="94" y="-7.5" font-family="Helvetica,sans-Serif" font-size="10.00" fill="#000000">ConditionCustom.cxx</text>
</a>
</g>
</g>
<!-- Node6&#45;&gt;Node7 -->
<g id="edge1" class="edge">
<title>Node6&#45;&gt;Node7</title>
<path fill="none" stroke="#191970" d="M605.3276,-110.7088C500.753,-99.7296 337.0918,-80.1676 197,-53 194.0997,-52.4376 191.1597,-51.8419 188.1961,-51.2194"/>
<polygon fill="#191970" stroke="#191970" points="605.2658,-114.2213 615.5749,-111.7771 605.9917,-107.259 605.2658,-114.2213"/>
</g>
<!-- Node8 -->
<g id="node3" class="node">
<title>Node8</title>
<g id="a_node3"><a xlink:href="../../de/d2b/DataSamplingConditionFactory_8cxx.html" target="_top" xlink:title="Implementation of DataSamplingConditionFactory. ">
<polygon fill="none" stroke="#000000" points="206,-.5 206,-52.5 394,-52.5 394,-.5 206,-.5"/>
<text text-anchor="start" x="214" y="-40.5" font-family="Helvetica,sans-Serif" font-size="10.00" fill="#000000">/home/travis/build</text>
<text text-anchor="start" x="214" y="-29.5" font-family="Helvetica,sans-Serif" font-size="10.00" fill="#000000">/AliceO2Group/AliceO2</text>
<text text-anchor="start" x="214" y="-18.5" font-family="Helvetica,sans-Serif" font-size="10.00" fill="#000000">/Framework/Core/src/DataSampling</text>
<text text-anchor="middle" x="300" y="-7.5" font-family="Helvetica,sans-Serif" font-size="10.00" fill="#000000">ConditionFactory.cxx</text>
</a>
</g>
</g>
<!-- Node6&#45;&gt;Node8 -->
<g id="edge2" class="edge">
<title>Node6&#45;&gt;Node8</title>
<path fill="none" stroke="#191970" d="M605.941,-98.6253C546.2117,-85.7828 470.3141,-69.0608 403,-53 400.1264,-52.3144 397.2096,-51.6109 394.2663,-50.8946"/>
<polygon fill="#191970" stroke="#191970" points="605.25,-102.0567 615.7618,-100.7333 606.7191,-95.2125 605.25,-102.0567"/>
</g>
<!-- Node9 -->
<g id="node4" class="node">
<title>Node9</title>
<g id="a_node4"><a xlink:href="../../d0/dd6/DataSamplingConditionNConsecutive_8cxx.html" target="_top" xlink:title="Implementation of DataSamplingConditionNConsecutive. ">
<polygon fill="none" stroke="#000000" points="412,-.5 412,-52.5 600,-52.5 600,-.5 412,-.5"/>
<text text-anchor="start" x="420" y="-40.5" font-family="Helvetica,sans-Serif" font-size="10.00" fill="#000000">/home/travis/build</text>
<text text-anchor="start" x="420" y="-29.5" font-family="Helvetica,sans-Serif" font-size="10.00" fill="#000000">/AliceO2Group/AliceO2</text>
<text text-anchor="start" x="420" y="-18.5" font-family="Helvetica,sans-Serif" font-size="10.00" fill="#000000">/Framework/Core/src/DataSampling</text>
<text text-anchor="middle" x="506" y="-7.5" font-family="Helvetica,sans-Serif" font-size="10.00" fill="#000000">ConditionNConsecutive.cxx</text>
</a>
</g>
</g>
<!-- Node6&#45;&gt;Node9 -->
<g id="edge3" class="edge">
<title>Node6&#45;&gt;Node9</title>
<path fill="none" stroke="#191970" d="M633.8258,-85.1385C610.2132,-74.3065 584.7496,-62.6254 562.8117,-52.5617"/>
<polygon fill="#191970" stroke="#191970" points="632.5699,-88.4131 643.1186,-89.4015 635.4887,-82.0506 632.5699,-88.4131"/>
</g>
<!-- Node10 -->
<g id="node5" class="node">
<title>Node10</title>
<g id="a_node5"><a xlink:href="../../d0/dab/DataSamplingConditionPayloadSize_8cxx.html" target="_top" xlink:title="Implementation of DataSamplingConditionPayloadSize. ">
<polygon fill="none" stroke="#000000" points="618,-.5 618,-52.5 806,-52.5 806,-.5 618,-.5"/>
<text text-anchor="start" x="626" y="-40.5" font-family="Helvetica,sans-Serif" font-size="10.00" fill="#000000">/home/travis/build</text>
<text text-anchor="start" x="626" y="-29.5" font-family="Helvetica,sans-Serif" font-size="10.00" fill="#000000">/AliceO2Group/AliceO2</text>
<text text-anchor="start" x="626" y="-18.5" font-family="Helvetica,sans-Serif" font-size="10.00" fill="#000000">/Framework/Core/src/DataSampling</text>
<text text-anchor="middle" x="712" y="-7.5" font-family="Helvetica,sans-Serif" font-size="10.00" fill="#000000">ConditionPayloadSize.cxx</text>
</a>
</g>
</g>
<!-- Node6&#45;&gt;Node10 -->
<g id="edge4" class="edge">
<title>Node6&#45;&gt;Node10</title>
<path fill="none" stroke="#191970" d="M712,-79.2457C712,-70.2008 712,-60.8836 712,-52.6442"/>
<polygon fill="#191970" stroke="#191970" points="708.5001,-79.2699 712,-89.27 715.5001,-79.27 708.5001,-79.2699"/>
</g>
<!-- Node11 -->
<g id="node6" class="node">
<title>Node11</title>
<g id="a_node6"><a xlink:href="../../d4/dba/DataSamplingConditionRandom_8cxx.html" target="_top" xlink:title="Implementation of random DataSamplingCondition. ">
<polygon fill="none" stroke="#000000" points="824,-.5 824,-52.5 1012,-52.5 1012,-.5 824,-.5"/>
<text text-anchor="start" x="832" y="-40.5" font-family="Helvetica,sans-Serif" font-size="10.00" fill="#000000">/home/travis/build</text>
<text text-anchor="start" x="832" y="-29.5" font-family="Helvetica,sans-Serif" font-size="10.00" fill="#000000">/AliceO2Group/AliceO2</text>
<text text-anchor="start" x="832" y="-18.5" font-family="Helvetica,sans-Serif" font-size="10.00" fill="#000000">/Framework/Core/src/DataSampling</text>
<text text-anchor="middle" x="918" y="-7.5" font-family="Helvetica,sans-Serif" font-size="10.00" fill="#000000">ConditionRandom.cxx</text>
</a>
</g>
</g>
<!-- Node6&#45;&gt;Node11 -->
<g id="edge5" class="edge">
<title>Node6&#45;&gt;Node11</title>
<path fill="none" stroke="#191970" d="M790.1742,-85.1385C813.7868,-74.3065 839.2504,-62.6254 861.1883,-52.5617"/>
<polygon fill="#191970" stroke="#191970" points="788.5113,-82.0506 780.8814,-89.4015 791.4301,-88.4131 788.5113,-82.0506"/>
</g>
<!-- Node12 -->
<g id="node7" class="node">
<title>Node12</title>
<g id="a_node7"><a xlink:href="../../de/d3b/DataSamplingPolicy_8cxx.html" target="_top" xlink:title="Implementation of O2 Data Sampling Policy. ">
<polygon fill="none" stroke="#000000" points="1030,-.5 1030,-52.5 1218,-52.5 1218,-.5 1030,-.5"/>
<text text-anchor="start" x="1038" y="-40.5" font-family="Helvetica,sans-Serif" font-size="10.00" fill="#000000">/home/travis/build</text>
<text text-anchor="start" x="1038" y="-29.5" font-family="Helvetica,sans-Serif" font-size="10.00" fill="#000000">/AliceO2Group/AliceO2</text>
<text text-anchor="start" x="1038" y="-18.5" font-family="Helvetica,sans-Serif" font-size="10.00" fill="#000000">/Framework/Core/src/DataSampling</text>
<text text-anchor="middle" x="1124" y="-7.5" font-family="Helvetica,sans-Serif" font-size="10.00" fill="#000000">Policy.cxx</text>
</a>
</g>
</g>
<!-- Node6&#45;&gt;Node12 -->
<g id="edge6" class="edge">
<title>Node6&#45;&gt;Node12</title>
<path fill="none" stroke="#191970" d="M818.059,-98.6253C877.7883,-85.7828 953.6859,-69.0608 1021,-53 1023.8736,-52.3144 1026.7904,-51.6109 1029.7337,-50.8946"/>
<polygon fill="#191970" stroke="#191970" points="817.2809,-95.2125 808.2382,-100.7333 818.75,-102.0567 817.2809,-95.2125"/>
</g>
<!-- Node13 -->
<g id="node8" class="node">
<title>Node13</title>
<g id="a_node8"><a xlink:href="../../dd/d70/test__DataSamplingCondition_8cxx.html" target="_top" xlink:title="/home/travis/build\l/AliceO2Group/AliceO2\l/Framework/Core/test/test\l_DataSamplingCondition.cxx">
<polygon fill="none" stroke="#000000" points="1236,-.5 1236,-52.5 1394,-52.5 1394,-.5 1236,-.5"/>
<text text-anchor="start" x="1244" y="-40.5" font-family="Helvetica,sans-Serif" font-size="10.00" fill="#000000">/home/travis/build</text>
<text text-anchor="start" x="1244" y="-29.5" font-family="Helvetica,sans-Serif" font-size="10.00" fill="#000000">/AliceO2Group/AliceO2</text>
<text text-anchor="start" x="1244" y="-18.5" font-family="Helvetica,sans-Serif" font-size="10.00" fill="#000000">/Framework/Core/test/test</text>
<text text-anchor="middle" x="1315" y="-7.5" font-family="Helvetica,sans-Serif" font-size="10.00" fill="#000000">_DataSamplingCondition.cxx</text>
</a>
</g>
</g>
<!-- Node6&#45;&gt;Node13 -->
<g id="edge7" class="edge">
<title>Node6&#45;&gt;Node13</title>
<path fill="none" stroke="#191970" d="M818.4467,-111.9991C923.1902,-101.9593 1087.2764,-83.0571 1227,-53 1229.8078,-52.396 1232.6557,-51.7459 1235.5244,-51.0592"/>
<polygon fill="#191970" stroke="#191970" points="817.8082,-108.5439 808.1834,-112.9727 818.4693,-115.5126 817.8082,-108.5439"/>
</g>
</g>
</svg>
