<?xml version="1.0" encoding="UTF-8" standalone="no"?>
<!DOCTYPE svg PUBLIC "-//W3C//DTD SVG 1.1//EN"
 "http://www.w3.org/Graphics/SVG/1.1/DTD/svg11.dtd">
<!-- Generated by graphviz version 2.40.1 (20161225.0304)
 -->
<!-- Title: /home/travis/build/AliceO2Group/AliceO2/Detectors/MUON/MCH/Mapping/cli/cli.cxx Pages: 1 -->
<svg width="972pt" height="251pt"
 viewBox="0.00 0.00 971.50 251.00" xmlns="http://www.w3.org/2000/svg" xmlns:xlink="http://www.w3.org/1999/xlink">
<g id="graph0" class="graph" transform="scale(1 1) rotate(0) translate(4 247)">
<title>/home/travis/build/AliceO2Group/AliceO2/Detectors/MUON/MCH/Mapping/cli/cli.cxx</title>
<!-- Node0 -->
<g id="node1" class="node">
<title>Node0</title>
<polygon fill="#bfbfbf" stroke="#000000" points="637.5,-190.5 637.5,-242.5 807.5,-242.5 807.5,-190.5 637.5,-190.5"/>
<text text-anchor="start" x="645.5" y="-230.5" font-family="Helvetica,sans-Serif" font-size="10.00" fill="#000000">/home/travis/build</text>
<text text-anchor="start" x="645.5" y="-219.5" font-family="Helvetica,sans-Serif" font-size="10.00" fill="#000000">/AliceO2Group/AliceO2</text>
<text text-anchor="start" x="645.5" y="-208.5" font-family="Helvetica,sans-Serif" font-size="10.00" fill="#000000">/Detectors/MUON/MCH/Mapping</text>
<text text-anchor="middle" x="722.5" y="-197.5" font-family="Helvetica,sans-Serif" font-size="10.00" fill="#000000">/cli/cli.cxx</text>
</g>
<!-- Node1 -->
<g id="node2" class="node">
<title>Node1</title>
<g id="a_node2"><a xlink:href="../../d6/d1f/MUON_2MCH_2Mapping_2Interface_2include_2MCHMappingInterface_2Segmentation_8h.html" target="_top" xlink:title="MCHMappingInterface\l/Segmentation.h">
<polygon fill="none" stroke="#000000" points="533.5,-123.5 533.5,-153.5 657.5,-153.5 657.5,-123.5 533.5,-123.5"/>
<text text-anchor="start" x="541.5" y="-141.5" font-family="Helvetica,sans-Serif" font-size="10.00" fill="#000000">MCHMappingInterface</text>
<text text-anchor="middle" x="595.5" y="-130.5" font-family="Helvetica,sans-Serif" font-size="10.00" fill="#000000">/Segmentation.h</text>
</a>
</g>
</g>
<!-- Node0&#45;&gt;Node1 -->
<g id="edge1" class="edge">
<title>Node0&#45;&gt;Node1</title>
<path fill="none" stroke="#191970" d="M679.8575,-190.3101C663.2319,-180.0991 644.4603,-168.5701 628.8529,-158.9844"/>
<polygon fill="#191970" stroke="#191970" points="630.4221,-155.8408 620.0692,-153.5897 626.7587,-161.8057 630.4221,-155.8408"/>
</g>
<!-- Node6 -->
<g id="node7" class="node">
<title>Node6</title>
<polygon fill="none" stroke="#bfbfbf" points="660.5,-.5 660.5,-19.5 720.5,-19.5 720.5,-.5 660.5,-.5"/>
<text text-anchor="middle" x="690.5" y="-7.5" font-family="Helvetica,sans-Serif" font-size="10.00" fill="#000000">iostream</text>
</g>
<!-- Node0&#45;&gt;Node6 -->
<g id="edge12" class="edge">
<title>Node0&#45;&gt;Node6</title>
<path fill="none" stroke="#191970" d="M715.5318,-190.4928C712.7282,-179.3227 709.6556,-166.0839 707.5,-154 699.6513,-110.0016 694.5127,-57.7719 692.1,-29.8894"/>
<polygon fill="#191970" stroke="#191970" points="695.5805,-29.5094 691.2581,-19.8364 688.605,-30.0936 695.5805,-29.5094"/>
</g>
<!-- Node12 -->
<g id="node13" class="node">
<title>Node12</title>
<polygon fill="none" stroke="#bfbfbf" points="717,-129 717,-148 796,-148 796,-129 717,-129"/>
<text text-anchor="middle" x="756.5" y="-136" font-family="Helvetica,sans-Serif" font-size="10.00" fill="#000000">fmt/format.h</text>
</g>
<!-- Node0&#45;&gt;Node12 -->
<g id="edge13" class="edge">
<title>Node0&#45;&gt;Node12</title>
<path fill="none" stroke="#191970" d="M734.0108,-190.0928C738.7007,-179.3338 744.0148,-167.1424 748.2994,-157.3131"/>
<polygon fill="#191970" stroke="#191970" points="751.5349,-158.6494 752.3224,-148.0839 745.1181,-155.8523 751.5349,-158.6494"/>
</g>
<!-- Node13 -->
<g id="node14" class="node">
<title>Node13</title>
<polygon fill="none" stroke="#bfbfbf" points="813.5,-129 813.5,-148 963.5,-148 963.5,-129 813.5,-129"/>
<text text-anchor="middle" x="888.5" y="-136" font-family="Helvetica,sans-Serif" font-size="10.00" fill="#000000">boost/program_options.hpp</text>
</g>
<!-- Node0&#45;&gt;Node13 -->
<g id="edge14" class="edge">
<title>Node0&#45;&gt;Node13</title>
<path fill="none" stroke="#191970" d="M778.2374,-190.3101C805.1489,-177.665 836.3621,-162.9985 858.6952,-152.5046"/>
<polygon fill="#191970" stroke="#191970" points="860.4217,-155.5606 867.9839,-148.1401 857.4447,-149.2252 860.4217,-155.5606"/>
</g>
<!-- Node2 -->
<g id="node3" class="node">
<title>Node2</title>
<g id="a_node3"><a xlink:href="../../df/db6/CathodeSegmentation_8h.html" target="_top" xlink:title="MCHMappingInterface\l/CathodeSegmentation.h">
<polygon fill="none" stroke="#000000" points="388,-56.5 388,-86.5 525,-86.5 525,-56.5 388,-56.5"/>
<text text-anchor="start" x="396" y="-74.5" font-family="Helvetica,sans-Serif" font-size="10.00" fill="#000000">MCHMappingInterface</text>
<text text-anchor="middle" x="456.5" y="-63.5" font-family="Helvetica,sans-Serif" font-size="10.00" fill="#000000">/CathodeSegmentation.h</text>
</a>
</g>
</g>
<!-- Node1&#45;&gt;Node2 -->
<g id="edge2" class="edge">
<title>Node1&#45;&gt;Node2</title>
<path fill="none" stroke="#191970" d="M564.3057,-123.4639C544.5039,-113.9191 518.6688,-101.4663 497.2539,-91.144"/>
<polygon fill="#191970" stroke="#191970" points="498.599,-87.907 488.0711,-86.7177 495.5595,-94.2127 498.599,-87.907"/>
</g>
<!-- Node11 -->
<g id="node12" class="node">
<title>Node11</title>
<g id="a_node12"><a xlink:href="../../d0/d5f/Segmentation_8inl.html" target="_top" xlink:title="Segmentation.inl">
<polygon fill="none" stroke="#000000" points="545.5,-62 545.5,-81 645.5,-81 645.5,-62 545.5,-62"/>
<text text-anchor="middle" x="595.5" y="-69" font-family="Helvetica,sans-Serif" font-size="10.00" fill="#000000">Segmentation.inl</text>
</a>
</g>
</g>
<!-- Node1&#45;&gt;Node11 -->
<g id="edge11" class="edge">
<title>Node1&#45;&gt;Node11</title>
<path fill="none" stroke="#191970" d="M595.5,-123.2967C595.5,-113.7699 595.5,-101.3954 595.5,-91.1306"/>
<polygon fill="#191970" stroke="#191970" points="599.0001,-91.0549 595.5,-81.055 592.0001,-91.055 599.0001,-91.0549"/>
</g>
<!-- Node3 -->
<g id="node4" class="node">
<title>Node3</title>
<g id="a_node4"><a xlink:href="../../d0/dc7/CathodeSegmentationCInterface_8h.html" target="_top" xlink:title="CathodeSegmentationCInterface.h">
<polygon fill="none" stroke="#000000" points="0,-.5 0,-19.5 185,-19.5 185,-.5 0,-.5"/>
<text text-anchor="middle" x="92.5" y="-7.5" font-family="Helvetica,sans-Serif" font-size="10.00" fill="#000000">CathodeSegmentationCInterface.h</text>
</a>
</g>
</g>
<!-- Node2&#45;&gt;Node3 -->
<g id="edge3" class="edge">
<title>Node2&#45;&gt;Node3</title>
<path fill="none" stroke="#191970" d="M387.6065,-59.86C321.9686,-48.7701 223.8128,-32.1861 158.9853,-21.2331"/>
<polygon fill="#191970" stroke="#191970" points="159.3205,-17.7402 148.8771,-19.5253 158.1542,-24.6424 159.3205,-17.7402"/>
</g>
<!-- Node4 -->
<g id="node5" class="node">
<title>Node4</title>
<polygon fill="none" stroke="#bfbfbf" points="203,-.5 203,-19.5 268,-19.5 268,-.5 203,-.5"/>
<text text-anchor="middle" x="235.5" y="-7.5" font-family="Helvetica,sans-Serif" font-size="10.00" fill="#000000">stdexcept</text>
</g>
<!-- Node2&#45;&gt;Node4 -->
<g id="edge4" class="edge">
<title>Node2&#45;&gt;Node4</title>
<path fill="none" stroke="#191970" d="M402.4373,-56.4554C364.1727,-45.8071 313.5658,-31.7242 278.1415,-21.8663"/>
<polygon fill="#191970" stroke="#191970" points="278.6937,-18.387 268.1214,-19.0779 276.817,-25.1308 278.6937,-18.387"/>
</g>
<!-- Node5 -->
<g id="node6" class="node">
<title>Node5</title>
<polygon fill="none" stroke="#bfbfbf" points="286.5,-.5 286.5,-19.5 344.5,-19.5 344.5,-.5 286.5,-.5"/>
<text text-anchor="middle" x="315.5" y="-7.5" font-family="Helvetica,sans-Serif" font-size="10.00" fill="#000000">memory</text>
</g>
<!-- Node2&#45;&gt;Node5 -->
<g id="edge5" class="edge">
<title>Node2&#45;&gt;Node5</title>
<path fill="none" stroke="#191970" d="M422.0075,-56.4554C398.9972,-46.419 368.9914,-33.3314 346.6945,-23.6061"/>
<polygon fill="#191970" stroke="#191970" points="347.9154,-20.3202 337.35,-19.5303 345.1167,-26.7364 347.9154,-20.3202"/>
</g>
<!-- Node2&#45;&gt;Node6 -->
<g id="edge6" class="edge">
<title>Node2&#45;&gt;Node6</title>
<path fill="none" stroke="#191970" d="M513.7428,-56.4554C556.04,-45.3389 612.5801,-30.479 650.2027,-20.591"/>
<polygon fill="#191970" stroke="#191970" points="651.5031,-23.8681 660.285,-17.9411 649.7237,-17.098 651.5031,-23.8681"/>
</g>
<!-- Node7 -->
<g id="node8" class="node">
<title>Node7</title>
<polygon fill="none" stroke="#bfbfbf" points="363,-.5 363,-19.5 410,-19.5 410,-.5 363,-.5"/>
<text text-anchor="middle" x="386.5" y="-7.5" font-family="Helvetica,sans-Serif" font-size="10.00" fill="#000000">vector</text>
</g>
<!-- Node2&#45;&gt;Node7 -->
<g id="edge7" class="edge">
<title>Node2&#45;&gt;Node7</title>
<path fill="none" stroke="#191970" d="M439.1966,-56.2977C428.9738,-47.3163 416.0177,-35.9334 405.5104,-26.702"/>
<polygon fill="#191970" stroke="#191970" points="407.5305,-23.8178 397.7079,-19.8469 402.9103,-29.0766 407.5305,-23.8178"/>
</g>
<!-- Node8 -->
<g id="node9" class="node">
<title>Node8</title>
<polygon fill="none" stroke="#bfbfbf" points="428.5,-.5 428.5,-19.5 484.5,-19.5 484.5,-.5 428.5,-.5"/>
<text text-anchor="middle" x="456.5" y="-7.5" font-family="Helvetica,sans-Serif" font-size="10.00" fill="#000000">sstream</text>
</g>
<!-- Node2&#45;&gt;Node8 -->
<g id="edge8" class="edge">
<title>Node2&#45;&gt;Node8</title>
<path fill="none" stroke="#191970" d="M456.5,-56.2977C456.5,-48.3834 456.5,-38.6043 456.5,-30.0759"/>
<polygon fill="#191970" stroke="#191970" points="460.0001,-29.8469 456.5,-19.8469 453.0001,-29.847 460.0001,-29.8469"/>
</g>
<!-- Node9 -->
<g id="node10" class="node">
<title>Node9</title>
<polygon fill="none" stroke="#bfbfbf" points="503,-.5 503,-19.5 568,-19.5 568,-.5 503,-.5"/>
<text text-anchor="middle" x="535.5" y="-7.5" font-family="Helvetica,sans-Serif" font-size="10.00" fill="#000000">functional</text>
</g>
<!-- Node2&#45;&gt;Node9 -->
<g id="edge9" class="edge">
<title>Node2&#45;&gt;Node9</title>
<path fill="none" stroke="#191970" d="M476.0281,-56.2977C487.7937,-47.1384 502.7675,-35.4816 514.7465,-26.1562"/>
<polygon fill="#191970" stroke="#191970" points="517.1103,-28.7516 522.8511,-19.8469 512.8102,-23.228 517.1103,-28.7516"/>
</g>
<!-- Node10 -->
<g id="node11" class="node">
<title>Node10</title>
<polygon fill="none" stroke="#bfbfbf" points="586.5,-.5 586.5,-19.5 642.5,-19.5 642.5,-.5 586.5,-.5"/>
<text text-anchor="middle" x="614.5" y="-7.5" font-family="Helvetica,sans-Serif" font-size="10.00" fill="#000000">iomanip</text>
</g>
<!-- Node2&#45;&gt;Node10 -->
<g id="edge10" class="edge">
<title>Node2&#45;&gt;Node10</title>
<path fill="none" stroke="#191970" d="M495.1511,-56.4554C521.2826,-46.284 555.4653,-32.9787 580.5481,-23.2155"/>
<polygon fill="#191970" stroke="#191970" points="581.9662,-26.4193 590.0156,-19.5303 579.4271,-19.8961 581.9662,-26.4193"/>
</g>
</g>
</svg>
