<?xml version="1.0" encoding="UTF-8" standalone="no"?>
<!DOCTYPE svg PUBLIC "-//W3C//DTD SVG 1.1//EN"
 "http://www.w3.org/Graphics/SVG/1.1/DTD/svg11.dtd">
<!-- Generated by graphviz version 2.40.1 (20161225.0304)
 -->
<!-- Title: /home/travis/build/AliceO2Group/AliceO2/Detectors/EMCAL/calib/src/TempCalibrationParams.cxx Pages: 1 -->
<svg width="410pt" height="184pt"
 viewBox="0.00 0.00 409.50 184.00" xmlns="http://www.w3.org/2000/svg" xmlns:xlink="http://www.w3.org/1999/xlink">
<g id="graph0" class="graph" transform="scale(1 1) rotate(0) translate(4 180)">
<title>/home/travis/build/AliceO2Group/AliceO2/Detectors/EMCAL/calib/src/TempCalibrationParams.cxx</title>
<!-- Node0 -->
<g id="node1" class="node">
<title>Node0</title>
<polygon fill="#bfbfbf" stroke="#000000" points="175,-123.5 175,-175.5 348,-175.5 348,-123.5 175,-123.5"/>
<text text-anchor="start" x="183" y="-163.5" font-family="Helvetica,sans-Serif" font-size="10.00" fill="#000000">/home/travis/build</text>
<text text-anchor="start" x="183" y="-152.5" font-family="Helvetica,sans-Serif" font-size="10.00" fill="#000000">/AliceO2Group/AliceO2</text>
<text text-anchor="start" x="183" y="-141.5" font-family="Helvetica,sans-Serif" font-size="10.00" fill="#000000">/Detectors/EMCAL/calib</text>
<text text-anchor="middle" x="261.5" y="-130.5" font-family="Helvetica,sans-Serif" font-size="10.00" fill="#000000">/src/TempCalibrationParams.cxx</text>
</g>
<!-- Node1 -->
<g id="node2" class="node">
<title>Node1</title>
<g id="a_node2"><a xlink:href="../../dc/dc3/TempCalibrationParams_8h.html" target="_top" xlink:title="EMCALCalib/TempCalibration\lParams.h">
<polygon fill="none" stroke="#000000" points="10,-56.5 10,-86.5 167,-86.5 167,-56.5 10,-56.5"/>
<text text-anchor="start" x="18" y="-74.5" font-family="Helvetica,sans-Serif" font-size="10.00" fill="#000000">EMCALCalib/TempCalibration</text>
<text text-anchor="middle" x="88.5" y="-63.5" font-family="Helvetica,sans-Serif" font-size="10.00" fill="#000000">Params.h</text>
</a>
</g>
</g>
<!-- Node0&#45;&gt;Node1 -->
<g id="edge1" class="edge">
<title>Node0&#45;&gt;Node1</title>
<path fill="none" stroke="#191970" d="M203.4122,-123.3101C179.8122,-112.6697 153.038,-100.5981 131.2744,-90.7856"/>
<polygon fill="#191970" stroke="#191970" points="132.5231,-87.5093 121.9683,-86.5897 129.6459,-93.8907 132.5231,-87.5093"/>
</g>
<!-- Node5 -->
<g id="node6" class="node">
<title>Node5</title>
<polygon fill="none" stroke="#bfbfbf" points="185,-62 185,-81 260,-81 260,-62 185,-62"/>
<text text-anchor="middle" x="222.5" y="-69" font-family="Helvetica,sans-Serif" font-size="10.00" fill="#000000">FairLogger.h</text>
</g>
<!-- Node0&#45;&gt;Node5 -->
<g id="edge5" class="edge">
<title>Node0&#45;&gt;Node5</title>
<path fill="none" stroke="#191970" d="M248.2964,-123.0928C242.9169,-112.3338 236.8212,-100.1424 231.9065,-90.3131"/>
<polygon fill="#191970" stroke="#191970" points="234.8946,-88.4629 227.2919,-81.0839 228.6336,-91.5934 234.8946,-88.4629"/>
</g>
<!-- Node6 -->
<g id="node7" class="node">
<title>Node6</title>
<polygon fill="none" stroke="#bfbfbf" points="278,-62 278,-81 323,-81 323,-62 278,-62"/>
<text text-anchor="middle" x="300.5" y="-69" font-family="Helvetica,sans-Serif" font-size="10.00" fill="#000000">TH1.h</text>
</g>
<!-- Node0&#45;&gt;Node6 -->
<g id="edge6" class="edge">
<title>Node0&#45;&gt;Node6</title>
<path fill="none" stroke="#191970" d="M274.7036,-123.0928C280.0831,-112.3338 286.1788,-100.1424 291.0935,-90.3131"/>
<polygon fill="#191970" stroke="#191970" points="294.3664,-91.5934 295.7081,-81.0839 288.1054,-88.4629 294.3664,-91.5934"/>
</g>
<!-- Node7 -->
<g id="node8" class="node">
<title>Node7</title>
<polygon fill="none" stroke="#bfbfbf" points="341.5,-62 341.5,-81 401.5,-81 401.5,-62 341.5,-62"/>
<text text-anchor="middle" x="371.5" y="-69" font-family="Helvetica,sans-Serif" font-size="10.00" fill="#000000">iostream</text>
</g>
<!-- Node0&#45;&gt;Node7 -->
<g id="edge7" class="edge">
<title>Node0&#45;&gt;Node7</title>
<path fill="none" stroke="#191970" d="M298.4344,-123.3101C315.3877,-111.2887 334.9172,-97.4405 349.518,-87.0873"/>
<polygon fill="#191970" stroke="#191970" points="351.7721,-89.7795 357.905,-81.1401 347.7231,-84.0694 351.7721,-89.7795"/>
</g>
<!-- Node2 -->
<g id="node3" class="node">
<title>Node2</title>
<polygon fill="none" stroke="#bfbfbf" points="0,-.5 0,-19.5 49,-19.5 49,-.5 0,-.5"/>
<text text-anchor="middle" x="24.5" y="-7.5" font-family="Helvetica,sans-Serif" font-size="10.00" fill="#000000">iosfwd</text>
</g>
<!-- Node1&#45;&gt;Node2 -->
<g id="edge2" class="edge">
<title>Node1&#45;&gt;Node2</title>
<path fill="none" stroke="#191970" d="M72.6798,-56.2977C63.4258,-47.4052 51.7219,-36.1586 42.167,-26.9769"/>
<polygon fill="#191970" stroke="#191970" points="44.3828,-24.2521 34.7472,-19.8469 39.5326,-29.2995 44.3828,-24.2521"/>
</g>
<!-- Node3 -->
<g id="node4" class="node">
<title>Node3</title>
<polygon fill="none" stroke="#bfbfbf" points="67.5,-.5 67.5,-19.5 109.5,-19.5 109.5,-.5 67.5,-.5"/>
<text text-anchor="middle" x="88.5" y="-7.5" font-family="Helvetica,sans-Serif" font-size="10.00" fill="#000000">array</text>
</g>
<!-- Node1&#45;&gt;Node3 -->
<g id="edge3" class="edge">
<title>Node1&#45;&gt;Node3</title>
<path fill="none" stroke="#191970" d="M88.5,-56.2977C88.5,-48.3834 88.5,-38.6043 88.5,-30.0759"/>
<polygon fill="#191970" stroke="#191970" points="92.0001,-29.8469 88.5,-19.8469 85.0001,-29.847 92.0001,-29.8469"/>
</g>
<!-- Node4 -->
<g id="node5" class="node">
<title>Node4</title>
<polygon fill="none" stroke="#bfbfbf" points="128,-.5 128,-19.5 187,-19.5 187,-.5 128,-.5"/>
<text text-anchor="middle" x="157.5" y="-7.5" font-family="Helvetica,sans-Serif" font-size="10.00" fill="#000000">Rtypes.h</text>
</g>
<!-- Node1&#45;&gt;Node4 -->
<g id="edge4" class="edge">
<title>Node1&#45;&gt;Node4</title>
<path fill="none" stroke="#191970" d="M105.5562,-56.2977C115.6329,-47.3163 128.404,-35.9334 138.7611,-26.702"/>
<polygon fill="#191970" stroke="#191970" points="141.3159,-29.1135 146.4522,-19.8469 136.6583,-23.8879 141.3159,-29.1135"/>
</g>
</g>
</svg>
