<?xml version="1.0" encoding="UTF-8" standalone="no"?>
<!DOCTYPE svg PUBLIC "-//W3C//DTD SVG 1.1//EN"
 "http://www.w3.org/Graphics/SVG/1.1/DTD/svg11.dtd">
<!-- Generated by graphviz version 2.40.1 (20161225.0304)
 -->
<!-- Title: /home/travis/build/AliceO2Group/AliceO2/GPU/GPUTracking/Base/hip/test/testGPUsortHIP.hip.cxx Pages: 1 -->
<svg width="581pt" height="229pt"
 viewBox="0.00 0.00 581.00 229.00" xmlns="http://www.w3.org/2000/svg" xmlns:xlink="http://www.w3.org/1999/xlink">
<g id="graph0" class="graph" transform="scale(1 1) rotate(0) translate(4 225)">
<title>/home/travis/build/AliceO2Group/AliceO2/GPU/GPUTracking/Base/hip/test/testGPUsortHIP.hip.cxx</title>
<!-- Node0 -->
<g id="node1" class="node">
<title>Node0</title>
<polygon fill="#bfbfbf" stroke="#000000" points="111.5,-168.5 111.5,-220.5 282.5,-220.5 282.5,-168.5 111.5,-168.5"/>
<text text-anchor="start" x="119.5" y="-208.5" font-family="Helvetica,sans-Serif" font-size="10.00" fill="#000000">/home/travis/build</text>
<text text-anchor="start" x="119.5" y="-197.5" font-family="Helvetica,sans-Serif" font-size="10.00" fill="#000000">/AliceO2Group/AliceO2</text>
<text text-anchor="start" x="119.5" y="-186.5" font-family="Helvetica,sans-Serif" font-size="10.00" fill="#000000">/GPU/GPUTracking/Base</text>
<text text-anchor="middle" x="197" y="-175.5" font-family="Helvetica,sans-Serif" font-size="10.00" fill="#000000">/hip/test/testGPUsortHIP.hip.cxx</text>
</g>
<!-- Node1 -->
<g id="node2" class="node">
<title>Node1</title>
<polygon fill="none" stroke="#bfbfbf" points="0,-112.5 0,-131.5 60,-131.5 60,-112.5 0,-112.5"/>
<text text-anchor="middle" x="30" y="-119.5" font-family="Helvetica,sans-Serif" font-size="10.00" fill="#000000">iostream</text>
</g>
<!-- Node0&#45;&gt;Node1 -->
<g id="edge1" class="edge">
<title>Node0&#45;&gt;Node1</title>
<path fill="none" stroke="#191970" d="M136.7092,-168.3258C111.107,-157.2111 82.3426,-144.7236 61.1349,-135.5167"/>
<polygon fill="#191970" stroke="#191970" points="62.5278,-132.3058 51.9611,-131.534 59.7402,-138.7268 62.5278,-132.3058"/>
</g>
<!-- Node2 -->
<g id="node3" class="node">
<title>Node2</title>
<polygon fill="none" stroke="#bfbfbf" points="78,-112.5 78,-131.5 128,-131.5 128,-112.5 78,-112.5"/>
<text text-anchor="middle" x="103" y="-119.5" font-family="Helvetica,sans-Serif" font-size="10.00" fill="#000000">cstring</text>
</g>
<!-- Node0&#45;&gt;Node2 -->
<g id="edge2" class="edge">
<title>Node0&#45;&gt;Node2</title>
<path fill="none" stroke="#191970" d="M163.0638,-168.3258C149.8215,-158.1123 135.0761,-146.7396 123.5094,-137.8184"/>
<polygon fill="#191970" stroke="#191970" points="125.4173,-134.8699 115.3613,-131.534 121.1422,-140.4128 125.4173,-134.8699"/>
</g>
<!-- Node3 -->
<g id="node4" class="node">
<title>Node3</title>
<polygon fill="none" stroke="#bfbfbf" points="146,-112.5 146,-131.5 248,-131.5 248,-112.5 146,-112.5"/>
<text text-anchor="middle" x="197" y="-119.5" font-family="Helvetica,sans-Serif" font-size="10.00" fill="#000000">hip/hip_runtime.h</text>
</g>
<!-- Node0&#45;&gt;Node3 -->
<g id="edge3" class="edge">
<title>Node0&#45;&gt;Node3</title>
<path fill="none" stroke="#191970" d="M197,-168.3258C197,-159.5142 197,-149.8397 197,-141.621"/>
<polygon fill="#191970" stroke="#191970" points="200.5001,-141.534 197,-131.534 193.5001,-141.534 200.5001,-141.534"/>
</g>
<!-- Node4 -->
<g id="node5" class="node">
<title>Node4</title>
<polygon fill="none" stroke="#bfbfbf" points="266,-112.5 266,-131.5 398,-131.5 398,-112.5 266,-112.5"/>
<text text-anchor="middle" x="332" y="-119.5" font-family="Helvetica,sans-Serif" font-size="10.00" fill="#000000">boost/test/unit_test.hpp</text>
</g>
<!-- Node0&#45;&gt;Node4 -->
<g id="edge4" class="edge">
<title>Node0&#45;&gt;Node4</title>
<path fill="none" stroke="#191970" d="M245.7381,-168.3258C265.8751,-157.5115 288.4321,-145.3976 305.4278,-136.2703"/>
<polygon fill="#191970" stroke="#191970" points="307.093,-139.3488 314.247,-131.534 303.7811,-133.1818 307.093,-139.3488"/>
</g>
<!-- Node5 -->
<g id="node6" class="node">
<title>Node5</title>
<g id="a_node6"><a xlink:href="../../dd/d0b/GPUCommonAlgorithm_8h.html" target="_top" xlink:title="GPUCommonAlgorithm.h">
<polygon fill="none" stroke="#000000" points="416.5,-112.5 416.5,-131.5 555.5,-131.5 555.5,-112.5 416.5,-112.5"/>
<text text-anchor="middle" x="486" y="-119.5" font-family="Helvetica,sans-Serif" font-size="10.00" fill="#000000">GPUCommonAlgorithm.h</text>
</a>
</g>
</g>
<!-- Node0&#45;&gt;Node5 -->
<g id="edge5" class="edge">
<title>Node0&#45;&gt;Node5</title>
<path fill="none" stroke="#191970" d="M282.5365,-173.0419C333.3863,-160.2854 395.9946,-144.5792 438.2241,-133.9853"/>
<polygon fill="#191970" stroke="#191970" points="439.1233,-137.3683 447.9711,-131.5401 437.42,-130.5786 439.1233,-137.3683"/>
</g>
<!-- Node6 -->
<g id="node7" class="node">
<title>Node6</title>
<g id="a_node7"><a xlink:href="../../df/d21/GPUCommonDef_8h.html" target="_top" xlink:title="GPUCommonDef.h">
<polygon fill="none" stroke="#000000" points="380.5,-56.5 380.5,-75.5 487.5,-75.5 487.5,-56.5 380.5,-56.5"/>
<text text-anchor="middle" x="434" y="-63.5" font-family="Helvetica,sans-Serif" font-size="10.00" fill="#000000">GPUCommonDef.h</text>
</a>
</g>
</g>
<!-- Node5&#45;&gt;Node6 -->
<g id="edge6" class="edge">
<title>Node5&#45;&gt;Node6</title>
<path fill="none" stroke="#191970" d="M476.9423,-112.2455C469.4858,-104.2155 458.7366,-92.6394 449.8583,-83.0781"/>
<polygon fill="#191970" stroke="#191970" points="452.3232,-80.589 442.9539,-75.6427 447.1937,-85.3522 452.3232,-80.589"/>
</g>
<!-- Node9 -->
<g id="node10" class="node">
<title>Node9</title>
<polygon fill="none" stroke="#bfbfbf" points="506,-56.5 506,-75.5 570,-75.5 570,-56.5 506,-56.5"/>
<text text-anchor="middle" x="538" y="-63.5" font-family="Helvetica,sans-Serif" font-size="10.00" fill="#000000">algorithm</text>
</g>
<!-- Node5&#45;&gt;Node9 -->
<g id="edge9" class="edge">
<title>Node5&#45;&gt;Node9</title>
<path fill="none" stroke="#191970" d="M495.0577,-112.2455C502.5142,-104.2155 513.2634,-92.6394 522.1417,-83.0781"/>
<polygon fill="#191970" stroke="#191970" points="524.8063,-85.3522 529.0461,-75.6427 519.6768,-80.589 524.8063,-85.3522"/>
</g>
<!-- Node7 -->
<g id="node8" class="node">
<title>Node7</title>
<g id="a_node8"><a xlink:href="../../d5/d93/GPUCommonDefSettings_8h.html" target="_top" xlink:title="GPUCommonDefSettings.h">
<polygon fill="none" stroke="#000000" points="283,-.5 283,-19.5 431,-19.5 431,-.5 283,-.5"/>
<text text-anchor="middle" x="357" y="-7.5" font-family="Helvetica,sans-Serif" font-size="10.00" fill="#000000">GPUCommonDefSettings.h</text>
</a>
</g>
</g>
<!-- Node6&#45;&gt;Node7 -->
<g id="edge7" class="edge">
<title>Node6&#45;&gt;Node7</title>
<path fill="none" stroke="#191970" d="M420.5876,-56.2455C408.9943,-47.814 392.0252,-35.4729 378.5322,-25.6598"/>
<polygon fill="#191970" stroke="#191970" points="380.4047,-22.6938 370.2587,-19.6427 376.2874,-28.355 380.4047,-22.6938"/>
</g>
<!-- Node8 -->
<g id="node9" class="node">
<title>Node8</title>
<g id="a_node9"><a xlink:href="../../da/d5a/GPUCommonDefAPI_8h.html" target="_top" xlink:title="GPUCommonDefAPI.h">
<polygon fill="none" stroke="#000000" points="449,-.5 449,-19.5 573,-19.5 573,-.5 449,-.5"/>
<text text-anchor="middle" x="511" y="-7.5" font-family="Helvetica,sans-Serif" font-size="10.00" fill="#000000">GPUCommonDefAPI.h</text>
</a>
</g>
</g>
<!-- Node6&#45;&gt;Node8 -->
<g id="edge8" class="edge">
<title>Node6&#45;&gt;Node8</title>
<path fill="none" stroke="#191970" d="M447.4124,-56.2455C459.0057,-47.814 475.9748,-35.4729 489.4678,-25.6598"/>
<polygon fill="#191970" stroke="#191970" points="491.7126,-28.355 497.7413,-19.6427 487.5953,-22.6938 491.7126,-28.355"/>
</g>
</g>
</svg>
