<?xml version="1.0" encoding="UTF-8" standalone="no"?>
<!DOCTYPE svg PUBLIC "-//W3C//DTD SVG 1.1//EN"
 "http://www.w3.org/Graphics/SVG/1.1/DTD/svg11.dtd">
<!-- Generated by graphviz version 2.40.1 (20161225.0304)
 -->
<!-- Title: o2::soa::Index&lt; START, END &gt; Pages: 1 -->
<svg width="572pt" height="485pt"
 viewBox="0.00 0.00 571.50 485.00" xmlns="http://www.w3.org/2000/svg" xmlns:xlink="http://www.w3.org/1999/xlink">
<g id="graph0" class="graph" transform="scale(1 1) rotate(0) translate(4 481)">
<title>o2::soa::Index&lt; START, END &gt;</title>
<!-- Node3 -->
<g id="node1" class="node">
<title>Node3</title>
<polygon fill="#bfbfbf" stroke="#000000" points="251.5,-.5 251.5,-222.5 380.5,-222.5 380.5,-.5 251.5,-.5"/>
<text text-anchor="start" x="259.5" y="-210.5" font-family="Helvetica,sans-Serif" font-size="10.00" fill="#000000">o2::soa::Index&lt; START,</text>
<text text-anchor="middle" x="316" y="-199.5" font-family="Helvetica,sans-Serif" font-size="10.00" fill="#000000"> END &gt;</text>
<polyline fill="none" stroke="#000000" points="251.5,-192.5 380.5,-192.5 "/>
<text text-anchor="middle" x="316" y="-180.5" font-family="Helvetica,sans-Serif" font-size="10.00" fill="#000000"> </text>
<polyline fill="none" stroke="#000000" points="251.5,-173.5 380.5,-173.5 "/>
<text text-anchor="start" x="259.5" y="-161.5" font-family="Helvetica,sans-Serif" font-size="10.00" fill="#000000">+ Index()</text>
<text text-anchor="start" x="259.5" y="-150.5" font-family="Helvetica,sans-Serif" font-size="10.00" fill="#000000">+ Index()</text>
<text text-anchor="start" x="259.5" y="-139.5" font-family="Helvetica,sans-Serif" font-size="10.00" fill="#000000">+ Index()</text>
<text text-anchor="start" x="259.5" y="-128.5" font-family="Helvetica,sans-Serif" font-size="10.00" fill="#000000">+ operator=()</text>
<text text-anchor="start" x="259.5" y="-117.5" font-family="Helvetica,sans-Serif" font-size="10.00" fill="#000000">+ operator=()</text>
<text text-anchor="start" x="259.5" y="-106.5" font-family="Helvetica,sans-Serif" font-size="10.00" fill="#000000">+ Index()</text>
<text text-anchor="start" x="259.5" y="-95.5" font-family="Helvetica,sans-Serif" font-size="10.00" fill="#000000">+ rangeStart()</text>
<text text-anchor="start" x="259.5" y="-84.5" font-family="Helvetica,sans-Serif" font-size="10.00" fill="#000000">+ rangeEnd()</text>
<text text-anchor="start" x="259.5" y="-73.5" font-family="Helvetica,sans-Serif" font-size="10.00" fill="#000000">+ index()</text>
<text text-anchor="start" x="259.5" y="-62.5" font-family="Helvetica,sans-Serif" font-size="10.00" fill="#000000">+ filteredIndex()</text>
<text text-anchor="start" x="259.5" y="-51.5" font-family="Helvetica,sans-Serif" font-size="10.00" fill="#000000">+ globalIndex()</text>
<text text-anchor="start" x="259.5" y="-40.5" font-family="Helvetica,sans-Serif" font-size="10.00" fill="#000000">+ index()</text>
<text text-anchor="start" x="259.5" y="-29.5" font-family="Helvetica,sans-Serif" font-size="10.00" fill="#000000">+ offsets()</text>
<text text-anchor="start" x="259.5" y="-18.5" font-family="Helvetica,sans-Serif" font-size="10.00" fill="#000000">+ setIndices()</text>
<text text-anchor="start" x="259.5" y="-7.5" font-family="Helvetica,sans-Serif" font-size="10.00" fill="#000000">+ setOffsets()</text>
</g>
<!-- Node4 -->
<g id="node2" class="node">
<title>Node4</title>
<g id="a_node2"><a xlink:href="../../da/daf/structo2_1_1soa_1_1IndexColumn.html" target="_top" xlink:title="{o2::soa::IndexColumn\l\&lt; Index\&lt; START, END \&gt; \&gt;\n||+ columnLabel()\l}">
<polygon fill="none" stroke="#000000" points="0,-292.5 0,-360.5 146,-360.5 146,-292.5 0,-292.5"/>
<text text-anchor="start" x="8" y="-348.5" font-family="Helvetica,sans-Serif" font-size="10.00" fill="#000000">o2::soa::IndexColumn</text>
<text text-anchor="middle" x="73" y="-337.5" font-family="Helvetica,sans-Serif" font-size="10.00" fill="#000000">&lt; Index&lt; START, END &gt; &gt;</text>
<polyline fill="none" stroke="#000000" points="0,-330.5 146,-330.5 "/>
<text text-anchor="middle" x="73" y="-318.5" font-family="Helvetica,sans-Serif" font-size="10.00" fill="#000000"> </text>
<polyline fill="none" stroke="#000000" points="0,-311.5 146,-311.5 "/>
<text text-anchor="start" x="8" y="-299.5" font-family="Helvetica,sans-Serif" font-size="10.00" fill="#000000">+ columnLabel()</text>
</a>
</g>
</g>
<!-- Node4&#45;&gt;Node3 -->
<g id="edge1" class="edge">
<title>Node4&#45;&gt;Node3</title>
<path fill="none" stroke="#191970" d="M119.2263,-285.6002C156.574,-252.5559 209.58,-205.6576 251.1698,-168.8601"/>
<polygon fill="none" stroke="#191970" points="116.6742,-283.1849 111.5041,-292.4326 121.3127,-288.4275 116.6742,-283.1849"/>
</g>
<!-- Node5 -->
<g id="node3" class="node">
<title>Node5</title>
<g id="a_node3"><a xlink:href="../../da/daf/structo2_1_1soa_1_1IndexColumn.html" target="_top" xlink:title="{o2::soa::IndexColumn\l\&lt; INHERIT \&gt;\n||+ columnLabel()\l}">
<polygon fill="none" stroke="#000000" points="12,-408.5 12,-476.5 134,-476.5 134,-408.5 12,-408.5"/>
<text text-anchor="start" x="20" y="-464.5" font-family="Helvetica,sans-Serif" font-size="10.00" fill="#000000">o2::soa::IndexColumn</text>
<text text-anchor="middle" x="73" y="-453.5" font-family="Helvetica,sans-Serif" font-size="10.00" fill="#000000">&lt; INHERIT &gt;</text>
<polyline fill="none" stroke="#000000" points="12,-446.5 134,-446.5 "/>
<text text-anchor="middle" x="73" y="-434.5" font-family="Helvetica,sans-Serif" font-size="10.00" fill="#000000"> </text>
<polyline fill="none" stroke="#000000" points="12,-427.5 134,-427.5 "/>
<text text-anchor="start" x="20" y="-415.5" font-family="Helvetica,sans-Serif" font-size="10.00" fill="#000000">+ columnLabel()</text>
</a>
</g>
</g>
<!-- Node5&#45;&gt;Node4 -->
<g id="edge2" class="edge">
<title>Node5&#45;&gt;Node4</title>
<path fill="none" stroke="#ffa500" d="M73,-398.1851C73,-385.8048 73,-372.5422 73,-360.833"/>
<polygon fill="#ffa500" stroke="#ffa500" points="69.5001,-398.3235 73,-408.3236 76.5001,-398.3236 69.5001,-398.3235"/>
<text text-anchor="middle" x="139.5" y="-382" font-family="Helvetica,sans-Serif" font-size="10.00" fill="#000000"> &lt; Index&lt; START, END &gt; &gt;</text>
</g>
<!-- Node6 -->
<g id="node4" class="node">
<title>Node6</title>
<polygon fill="none" stroke="#bfbfbf" points="164,-292.5 164,-360.5 280,-360.5 280,-292.5 164,-292.5"/>
<text text-anchor="start" x="172" y="-348.5" font-family="Helvetica,sans-Serif" font-size="10.00" fill="#000000">tuple&lt; int64_t const</text>
<text text-anchor="middle" x="222" y="-337.5" font-family="Helvetica,sans-Serif" font-size="10.00" fill="#000000"> *, int64_t const * &gt;</text>
<polyline fill="none" stroke="#bfbfbf" points="164,-330.5 280,-330.5 "/>
<text text-anchor="middle" x="222" y="-318.5" font-family="Helvetica,sans-Serif" font-size="10.00" fill="#000000"> </text>
<polyline fill="none" stroke="#bfbfbf" points="164,-311.5 280,-311.5 "/>
<text text-anchor="middle" x="222" y="-299.5" font-family="Helvetica,sans-Serif" font-size="10.00" fill="#000000"> </text>
</g>
<!-- Node6&#45;&gt;Node3 -->
<g id="edge3" class="edge">
<title>Node6&#45;&gt;Node3</title>
<path fill="none" stroke="#404040" d="M230.8098,-292.2821C235.2925,-276.4368 241.2271,-257.5067 248,-241 248.9602,-238.6599 249.9486,-236.3058 250.9616,-233.9424"/>
<polygon fill="none" stroke="#404040" points="251.0206,-233.8086 249.7852,-226.7041 255.868,-222.8312 257.1034,-229.9357 251.0206,-233.8086"/>
<text text-anchor="middle" x="280" y="-255" font-family="Helvetica,sans-Serif" font-size="10.00" fill="#000000"> +rowIndices</text>
</g>
<!-- Node7 -->
<g id="node5" class="node">
<title>Node7</title>
<polygon fill="none" stroke="#bfbfbf" points="298,-298 298,-355 342,-355 342,-298 298,-298"/>
<text text-anchor="middle" x="320" y="-343" font-family="Helvetica,sans-Serif" font-size="10.00" fill="#000000">static</text>
<polyline fill="none" stroke="#bfbfbf" points="298,-336 342,-336 "/>
<text text-anchor="middle" x="320" y="-324" font-family="Helvetica,sans-Serif" font-size="10.00" fill="#000000"> </text>
<polyline fill="none" stroke="#bfbfbf" points="298,-317 342,-317 "/>
<text text-anchor="middle" x="320" y="-305" font-family="Helvetica,sans-Serif" font-size="10.00" fill="#000000"> </text>
</g>
<!-- Node7&#45;&gt;Node3 -->
<g id="edge4" class="edge">
<title>Node7&#45;&gt;Node3</title>
<path fill="none" stroke="#404040" d="M318.1009,-297.902C317.6585,-290.1496 317.2453,-281.7562 317,-274 316.5971,-261.2623 316.3053,-247.9603 316.0979,-234.6897"/>
<polygon fill="none" stroke="#404040" points="316.0957,-234.5272 312.0134,-228.5829 315.9303,-222.5284 320.0127,-228.4727 316.0957,-234.5272"/>
<text text-anchor="middle" x="339.5" y="-266" font-family="Helvetica,sans-Serif" font-size="10.00" fill="#000000"> +start</text>
<text text-anchor="middle" x="339.5" y="-255" font-family="Helvetica,sans-Serif" font-size="10.00" fill="#000000">+mLabel</text>
<text text-anchor="middle" x="339.5" y="-244" font-family="Helvetica,sans-Serif" font-size="10.00" fill="#000000">+end</text>
</g>
<!-- Node8 -->
<g id="node6" class="node">
<title>Node8</title>
<polygon fill="none" stroke="#bfbfbf" points="363.5,-298 363.5,-355 404.5,-355 404.5,-298 363.5,-298"/>
<text text-anchor="middle" x="384" y="-343" font-family="Helvetica,sans-Serif" font-size="10.00" fill="#000000">tuple</text>
<polyline fill="none" stroke="#bfbfbf" points="363.5,-336 404.5,-336 "/>
<text text-anchor="middle" x="384" y="-324" font-family="Helvetica,sans-Serif" font-size="10.00" fill="#000000"> </text>
<polyline fill="none" stroke="#bfbfbf" points="363.5,-317 404.5,-317 "/>
<text text-anchor="middle" x="384" y="-305" font-family="Helvetica,sans-Serif" font-size="10.00" fill="#000000"> </text>
</g>
<!-- Node8&#45;&gt;Node3 -->
<g id="edge5" class="edge">
<title>Node8&#45;&gt;Node3</title>
<path fill="none" stroke="#404040" d="M377.3002,-297.8218C373.2336,-281.1374 367.7336,-259.7624 362,-241 361.3071,-238.7325 360.5986,-236.446 359.8769,-234.1452"/>
<polygon fill="none" stroke="#404040" points="359.8228,-233.9757 354.1855,-229.4789 356.1682,-222.5457 361.8055,-227.0425 359.8228,-233.9757"/>
<text text-anchor="middle" x="412.5" y="-255" font-family="Helvetica,sans-Serif" font-size="10.00" fill="#000000"> +boundIterators</text>
</g>
<!-- Node9 -->
<g id="node7" class="node">
<title>Node9</title>
<polygon fill="none" stroke="#bfbfbf" points="422.5,-298 422.5,-355 563.5,-355 563.5,-298 422.5,-298"/>
<text text-anchor="middle" x="493" y="-343" font-family="Helvetica,sans-Serif" font-size="10.00" fill="#000000">tuple&lt; uint64_t const * &gt;</text>
<polyline fill="none" stroke="#bfbfbf" points="422.5,-336 563.5,-336 "/>
<text text-anchor="middle" x="493" y="-324" font-family="Helvetica,sans-Serif" font-size="10.00" fill="#000000"> </text>
<polyline fill="none" stroke="#bfbfbf" points="422.5,-317 563.5,-317 "/>
<text text-anchor="middle" x="493" y="-305" font-family="Helvetica,sans-Serif" font-size="10.00" fill="#000000"> </text>
</g>
<!-- Node9&#45;&gt;Node3 -->
<g id="edge6" class="edge">
<title>Node9&#45;&gt;Node3</title>
<path fill="none" stroke="#404040" d="M484.8566,-297.9678C479.0547,-280.5433 470.1283,-258.3538 458,-241 439.1878,-214.0824 413.8506,-188.7203 389.7866,-167.6965"/>
<polygon fill="none" stroke="#404040" points="389.7528,-167.6676 382.5942,-166.7991 380.6425,-159.8571 387.8011,-160.7256 389.7528,-167.6676"/>
<text text-anchor="middle" x="506" y="-255" font-family="Helvetica,sans-Serif" font-size="10.00" fill="#000000"> +rowOffsets</text>
</g>
</g>
</svg>
