<?xml version="1.0" encoding="UTF-8" standalone="no"?>
<!DOCTYPE svg PUBLIC "-//W3C//DTD SVG 1.1//EN"
 "http://www.w3.org/Graphics/SVG/1.1/DTD/svg11.dtd">
<!-- Generated by graphviz version 2.40.1 (20161225.0304)
 -->
<!-- Title: o2::mid::SimClustering Pages: 1 -->
<!--zoomable 215 -->
<svg id="main" version="1.1" xmlns="http://www.w3.org/2000/svg" xmlns:xlink="http://www.w3.org/1999/xlink" xml:space="preserve" onload="init(evt)">
<style type="text/css"><![CDATA[
.edge:hover path { stroke: red; }
.edge:hover polygon { stroke: red; fill: red; }
]]></style>
<script type="text/javascript"><![CDATA[
var edges = document.getElementsByTagName('g');
if (edges && edges.length) {
  for (var i=0;i<edges.length;i++) {
    if (edges[i].id.substr(0,4)=='edge') {
      edges[i].setAttribute('class','edge');
    }
  }
}
]]></script>
        <defs>
                <circle id="rim" cx="0" cy="0" r="7"/>
                <circle id="rim2" cx="0" cy="0" r="3.5"/>
                <g id="zoomPlus">
                        <use xlink:href="#rim" fill="#404040">
                                <set attributeName="fill" to="#808080" begin="zoomplus.mouseover" end="zoomplus.mouseout"/>
                        </use>
                        <path d="M-4,0h8M0,-4v8" fill="none" stroke="white" stroke-width="1.5" pointer-events="none"/>
                </g>
                <g id="zoomMin">
                        <use xlink:href="#rim" fill="#404040">
                                <set attributeName="fill" to="#808080" begin="zoomminus.mouseover" end="zoomminus.mouseout"/>
                        </use>
                        <path d="M-4,0h8" fill="none" stroke="white" stroke-width="1.5" pointer-events="none"/>
                </g>
                <g id="dirArrow">
                        <path fill="none" stroke="white" stroke-width="1.5" d="M0,-3.0v7 M-2.5,-0.5L0,-3.0L2.5,-0.5"/>
                </g>
               <g id="resetDef">
                       <use xlink:href="#rim2" fill="#404040">
                               <set attributeName="fill" to="#808080" begin="reset.mouseover" end="reset.mouseout"/>
                       </use>
               </g>
        </defs>

<script type="text/javascript">
var viewWidth = 862;
var viewHeight = 215;
var sectionId = 'dynsection-0';
</script>
<script xlink:href="../../svgpan.js"/>
<svg id="graph" class="graph">
<g id="viewport">
<title>o2::mid::SimClustering</title>
<!-- Node1 -->
<g id="node1" class="node">
<title>Node1</title>
<polygon fill="#bfbfbf" stroke="#000000" points="390,-.5 390,-57.5 518,-57.5 518,-.5 390,-.5"/>
<text text-anchor="middle" x="454" y="-45.5" font-family="Helvetica,sans-Serif" font-size="10.00" fill="#000000">o2::mid::SimClustering</text>
<polyline fill="none" stroke="#000000" points="390,-38.5 518,-38.5 "/>
<text text-anchor="middle" x="454" y="-26.5" font-family="Helvetica,sans-Serif" font-size="10.00" fill="#000000"> </text>
<polyline fill="none" stroke="#000000" points="390,-19.5 518,-19.5 "/>
<text text-anchor="start" x="398" y="-7.5" font-family="Helvetica,sans-Serif" font-size="10.00" fill="#000000">+ SimClustering()</text>
</g>
<!-- Node2 -->
<g id="node2" class="node">
<title>Node2</title>
<g id="a_node2"><a xlink:href="../../d4/d78/classo2_1_1mid_1_1ClusterLabeler.html" target="_top" xlink:title="{o2::mid::ClusterLabeler\n||+ process()\l+ getContainer()\l}">
<polygon fill="none" stroke="#000000" points="0,-122 0,-190 130,-190 130,-122 0,-122"/>
<text text-anchor="middle" x="65" y="-178" font-family="Helvetica,sans-Serif" font-size="10.00" fill="#000000">o2::mid::ClusterLabeler</text>
<polyline fill="none" stroke="#000000" points="0,-171 130,-171 "/>
<text text-anchor="middle" x="65" y="-159" font-family="Helvetica,sans-Serif" font-size="10.00" fill="#000000"> </text>
<polyline fill="none" stroke="#000000" points="0,-152 130,-152 "/>
<text text-anchor="start" x="8" y="-140" font-family="Helvetica,sans-Serif" font-size="10.00" fill="#000000">+ process()</text>
<text text-anchor="start" x="8" y="-129" font-family="Helvetica,sans-Serif" font-size="10.00" fill="#000000">+ getContainer()</text>
</a>
</g>
</g>
<!-- Node2&#45;&gt;Node1 -->
<g id="edge1" class="edge">
<title>Node2&#45;&gt;Node1</title>
<path fill="none" stroke="#404040" d="M111.9655,-121.795C120.774,-115.9112 130.035,-110.067 139,-105 213.6911,-62.7843 311.1832,-43.8949 377.802,-35.5216"/>
<polygon fill="none" stroke="#404040" points="377.9545,-35.5034 383.4365,-30.8187 389.8694,-34.0773 384.3873,-38.762 377.9545,-35.5034"/>
<text text-anchor="middle" x="235.5" y="-79" font-family="Helvetica,sans-Serif" font-size="10.00" fill="#000000"> +clusterLabeler</text>
</g>
<!-- Node3 -->
<g id="node3" class="node">
<title>Node3</title>
<g id="a_node3"><a xlink:href="../../d6/d6a/classo2_1_1mid_1_1PreClusterHelper.html" target="_top" xlink:title="{o2::mid::PreClusterHelper\n||+ getArea()\l+ getArea()\l}">
<polygon fill="none" stroke="#000000" points="148,-122 148,-190 290,-190 290,-122 148,-122"/>
<text text-anchor="middle" x="219" y="-178" font-family="Helvetica,sans-Serif" font-size="10.00" fill="#000000">o2::mid::PreClusterHelper</text>
<polyline fill="none" stroke="#000000" points="148,-171 290,-171 "/>
<text text-anchor="middle" x="219" y="-159" font-family="Helvetica,sans-Serif" font-size="10.00" fill="#000000"> </text>
<polyline fill="none" stroke="#000000" points="148,-152 290,-152 "/>
<text text-anchor="start" x="156" y="-140" font-family="Helvetica,sans-Serif" font-size="10.00" fill="#000000">+ getArea()</text>
<text text-anchor="start" x="156" y="-129" font-family="Helvetica,sans-Serif" font-size="10.00" fill="#000000">+ getArea()</text>
</a>
</g>
</g>
<!-- Node3&#45;&gt;Node1 -->
<g id="edge2" class="edge">
<title>Node3&#45;&gt;Node1</title>
<path fill="none" stroke="#404040" d="M248.4775,-121.8492C263.6886,-106.0162 283.3604,-88.0757 304,-76 326.5702,-62.7947 353.2593,-52.8902 377.8218,-45.6655"/>
<polygon fill="none" stroke="#404040" points="378.1294,-45.5791 382.823,-40.1046 389.6816,-42.3315 384.9881,-47.806 378.1294,-45.5791"/>
<text text-anchor="middle" x="351" y="-79" font-family="Helvetica,sans-Serif" font-size="10.00" fill="#000000"> +preClusterHelper</text>
</g>
<!-- Node4 -->
<g id="node4" class="node">
<title>Node4</title>
<g id="a_node4"><a xlink:href="../../d6/d54/classo2_1_1mid_1_1PreClusterLabeler.html" target="_top" xlink:title="{o2::mid::PreClusterLabeler\n||+ process()\l+ getContainer()\l}">
<polygon fill="none" stroke="#000000" points="308,-122 308,-190 454,-190 454,-122 308,-122"/>
<text text-anchor="middle" x="381" y="-178" font-family="Helvetica,sans-Serif" font-size="10.00" fill="#000000">o2::mid::PreClusterLabeler</text>
<polyline fill="none" stroke="#000000" points="308,-171 454,-171 "/>
<text text-anchor="middle" x="381" y="-159" font-family="Helvetica,sans-Serif" font-size="10.00" fill="#000000"> </text>
<polyline fill="none" stroke="#000000" points="308,-152 454,-152 "/>
<text text-anchor="start" x="316" y="-140" font-family="Helvetica,sans-Serif" font-size="10.00" fill="#000000">+ process()</text>
<text text-anchor="start" x="316" y="-129" font-family="Helvetica,sans-Serif" font-size="10.00" fill="#000000">+ getContainer()</text>
</a>
</g>
</g>
<!-- Node4&#45;&gt;Node1 -->
<g id="edge3" class="edge">
<title>Node4&#45;&gt;Node1</title>
<path fill="none" stroke="#404040" d="M388.8716,-121.8241C393.177,-107.0578 399.4177,-89.9958 408,-76 409.908,-72.8884 412.0569,-69.821 414.3566,-66.8353"/>
<polygon fill="none" stroke="#404040" points="414.381,-66.8063 415.1822,-59.6399 422.1056,-57.6231 421.3043,-64.7896 414.381,-66.8063"/>
<text text-anchor="middle" x="457" y="-79" font-family="Helvetica,sans-Serif" font-size="10.00" fill="#000000"> +preClusterLabeler</text>
</g>
<!-- Node5 -->
<g id="node5" class="node">
<title>Node5</title>
<g id="a_node5"><a xlink:href="../../d5/dae/classo2_1_1mid_1_1Clusterizer.html" target="_top" xlink:title="Clusterizing algorithm for MID. ">
<polygon fill="none" stroke="#000000" points="472,-105.5 472,-206.5 584,-206.5 584,-105.5 472,-105.5"/>
<text text-anchor="middle" x="528" y="-194.5" font-family="Helvetica,sans-Serif" font-size="10.00" fill="#000000">o2::mid::Clusterizer</text>
<polyline fill="none" stroke="#000000" points="472,-187.5 584,-187.5 "/>
<text text-anchor="middle" x="528" y="-175.5" font-family="Helvetica,sans-Serif" font-size="10.00" fill="#000000"> </text>
<polyline fill="none" stroke="#000000" points="472,-168.5 584,-168.5 "/>
<text text-anchor="start" x="480" y="-156.5" font-family="Helvetica,sans-Serif" font-size="10.00" fill="#000000">+ init()</text>
<text text-anchor="start" x="480" y="-145.5" font-family="Helvetica,sans-Serif" font-size="10.00" fill="#000000">+ process()</text>
<text text-anchor="start" x="480" y="-134.5" font-family="Helvetica,sans-Serif" font-size="10.00" fill="#000000">+ process()</text>
<text text-anchor="start" x="480" y="-123.5" font-family="Helvetica,sans-Serif" font-size="10.00" fill="#000000">+ getClusters()</text>
<text text-anchor="start" x="480" y="-112.5" font-family="Helvetica,sans-Serif" font-size="10.00" fill="#000000">+ getROFRecords()</text>
</a>
</g>
</g>
<!-- Node5&#45;&gt;Node1 -->
<g id="edge4" class="edge">
<title>Node5&#45;&gt;Node1</title>
<path fill="none" stroke="#404040" d="M518.6721,-105.11C515.5596,-95.0216 511.4396,-84.8303 506,-76 504.0524,-72.8383 501.8302,-69.7626 499.4266,-66.7972"/>
<polygon fill="none" stroke="#404040" points="499.2855,-66.6408 492.2961,-64.8661 491.2461,-57.7318 498.2355,-59.5066 499.2855,-66.6408"/>
<text text-anchor="middle" x="542.5" y="-79" font-family="Helvetica,sans-Serif" font-size="10.00" fill="#000000"> +clusterizer</text>
</g>
<!-- Node6 -->
<g id="node6" class="node">
<title>Node6</title>
<polygon fill="none" stroke="#bfbfbf" points="602.5,-122 602.5,-190 707.5,-190 707.5,-122 602.5,-122"/>
<text text-anchor="start" x="610.5" y="-178" font-family="Helvetica,sans-Serif" font-size="10.00" fill="#000000">vector&lt; std::array</text>
<text text-anchor="middle" x="655" y="-167" font-family="Helvetica,sans-Serif" font-size="10.00" fill="#000000">&lt; size_t, 2 &gt; &gt;</text>
<polyline fill="none" stroke="#bfbfbf" points="602.5,-160 707.5,-160 "/>
<text text-anchor="middle" x="655" y="-148" font-family="Helvetica,sans-Serif" font-size="10.00" fill="#000000"> </text>
<polyline fill="none" stroke="#bfbfbf" points="602.5,-141 707.5,-141 "/>
<text text-anchor="middle" x="655" y="-129" font-family="Helvetica,sans-Serif" font-size="10.00" fill="#000000"> </text>
</g>
<!-- Node6&#45;&gt;Node1 -->
<g id="edge5" class="edge">
<title>Node6&#45;&gt;Node1</title>
<path fill="none" stroke="#404040" d="M628.1977,-121.8451C614.5248,-106.2023 596.8236,-88.4244 578,-76 563.2471,-66.2624 546.1892,-58.138 529.5361,-51.5351"/>
<polygon fill="none" stroke="#404040" points="529.3271,-51.456 522.2993,-53.0716 518.105,-47.2058 525.1328,-45.5902 529.3271,-51.456"/>
<text text-anchor="middle" x="624" y="-79" font-family="Helvetica,sans-Serif" font-size="10.00" fill="#000000"> +correlation</text>
</g>
<!-- Node7 -->
<g id="node7" class="node">
<title>Node7</title>
<g id="a_node7"><a xlink:href="../../d6/dde/classo2_1_1mid_1_1PreClusterizer.html" target="_top" xlink:title="Pre&#45;clustering algorithm for MID. ">
<polygon fill="none" stroke="#000000" points="726,-105.5 726,-206.5 854,-206.5 854,-105.5 726,-105.5"/>
<text text-anchor="middle" x="790" y="-194.5" font-family="Helvetica,sans-Serif" font-size="10.00" fill="#000000">o2::mid::PreClusterizer</text>
<polyline fill="none" stroke="#000000" points="726,-187.5 854,-187.5 "/>
<text text-anchor="middle" x="790" y="-175.5" font-family="Helvetica,sans-Serif" font-size="10.00" fill="#000000"> </text>
<polyline fill="none" stroke="#000000" points="726,-168.5 854,-168.5 "/>
<text text-anchor="start" x="734" y="-156.5" font-family="Helvetica,sans-Serif" font-size="10.00" fill="#000000">+ init()</text>
<text text-anchor="start" x="734" y="-145.5" font-family="Helvetica,sans-Serif" font-size="10.00" fill="#000000">+ process()</text>
<text text-anchor="start" x="734" y="-134.5" font-family="Helvetica,sans-Serif" font-size="10.00" fill="#000000">+ process()</text>
<text text-anchor="start" x="734" y="-123.5" font-family="Helvetica,sans-Serif" font-size="10.00" fill="#000000">+ getPreClusters()</text>
<text text-anchor="start" x="734" y="-112.5" font-family="Helvetica,sans-Serif" font-size="10.00" fill="#000000">+ getROFRecords()</text>
</a>
</g>
</g>
<!-- Node7&#45;&gt;Node1 -->
<g id="edge6" class="edge">
<title>Node7&#45;&gt;Node1</title>
<path fill="none" stroke="#404040" d="M725.836,-110.45C722.8715,-108.5747 719.9169,-106.7493 717,-105 692.6241,-90.381 686.7249,-85.679 660,-76 618.1155,-60.8306 569.6135,-49.4768 530.1972,-41.7321"/>
<polygon fill="none" stroke="#404040" points="530.0586,-41.7056 523.4123,-44.5032 518.2736,-39.4442 524.9199,-36.6466 530.0586,-41.7056"/>
<text text-anchor="middle" x="725" y="-79" font-family="Helvetica,sans-Serif" font-size="10.00" fill="#000000"> +preClusterizer</text>
</g>
</g>
</svg>
        <g id="navigator" transform="translate(0 0)" fill="#404254">
                <rect fill="#f2f5e9" fill-opacity="0.5" stroke="#606060" stroke-width=".5" x="0" y="0" width="60" height="60"/>
                <use id="zoomplus" xlink:href="#zoomPlus" x="17" y="9" onmousedown="handleZoom(evt,'in')"/>
                <use id="zoomminus" xlink:href="#zoomMin" x="42" y="9" onmousedown="handleZoom(evt,'out')"/>
                <use id="reset" xlink:href="#resetDef" x="30" y="36" onmousedown="handleReset()"/>
                <g id="arrowUp" xlink:href="#dirArrow" transform="translate(30 24)" onmousedown="handlePan(0,-1)">
                  <use xlink:href="#rim" fill="#404040">
                        <set attributeName="fill" to="#808080" begin="arrowUp.mouseover" end="arrowUp.mouseout"/>
                  </use>
                  <path fill="none" stroke="white" stroke-width="1.5" d="M0,-3.0v7 M-2.5,-0.5L0,-3.0L2.5,-0.5"/>
                </g>
                <g id="arrowRight" xlink:href="#dirArrow" transform="rotate(90) translate(36 -43)" onmousedown="handlePan(1,0)">
                  <use xlink:href="#rim" fill="#404040">
                        <set attributeName="fill" to="#808080" begin="arrowRight.mouseover" end="arrowRight.mouseout"/>
                  </use>
                  <path fill="none" stroke="white" stroke-width="1.5" d="M0,-3.0v7 M-2.5,-0.5L0,-3.0L2.5,-0.5"/>
                </g>
                <g id="arrowDown" xlink:href="#dirArrow" transform="rotate(180) translate(-30 -48)" onmousedown="handlePan(0,1)">
                  <use xlink:href="#rim" fill="#404040">
                        <set attributeName="fill" to="#808080" begin="arrowDown.mouseover" end="arrowDown.mouseout"/>
                  </use>
                  <path fill="none" stroke="white" stroke-width="1.5" d="M0,-3.0v7 M-2.5,-0.5L0,-3.0L2.5,-0.5"/>
                </g>
                <g id="arrowLeft" xlink:href="#dirArrow" transform="rotate(270) translate(-36 17)" onmousedown="handlePan(-1,0)">
                  <use xlink:href="#rim" fill="#404040">
                        <set attributeName="fill" to="#808080" begin="arrowLeft.mouseover" end="arrowLeft.mouseout"/>
                  </use>
                  <path fill="none" stroke="white" stroke-width="1.5" d="M0,-3.0v7 M-2.5,-0.5L0,-3.0L2.5,-0.5"/>
                </g>
        </g>
        <svg viewBox="0 0 15 15" width="100%" height="30px" preserveAspectRatio="xMaxYMin meet">
         <g id="arrow_out" transform="scale(0.3 0.3)">
          <a xlink:href="structo2_1_1mid_1_1SimClustering__coll__graph_org.svg" target="_base">
           <rect id="button" ry="5" rx="5" y="6" x="6" height="38" width="38"
                fill="#f2f5e9" fill-opacity="0.5" stroke="#606060" stroke-width="1.0"/>
           <path id="arrow"
             d="M 11.500037,31.436501 C 11.940474,20.09759 22.043105,11.32322 32.158766,21.979434 L 37.068811,17.246167 C 37.068811,17.246167 37.088388,32 37.088388,32 L 22.160133,31.978069 C 22.160133,31.978069 26.997745,27.140456 26.997745,27.140456 C 18.528582,18.264221 13.291696,25.230495 11.500037,31.436501 z"
             style="fill:#404040;"/>
          </a>
         </g>
        </svg>
</svg>
