<?xml version="1.0" encoding="UTF-8" standalone="no"?>
<!DOCTYPE svg PUBLIC "-//W3C//DTD SVG 1.1//EN"
 "http://www.w3.org/Graphics/SVG/1.1/DTD/svg11.dtd">
<!-- Generated by graphviz version 2.40.1 (20161225.0304)
 -->
<!-- Title: /home/travis/build/AliceO2Group/AliceO2/GPU/GPUTracking/DataCompression/GPUTPCClusterStatistics.h Pages: 1 -->
<!--zoomable 509 -->
<svg id="main" version="1.1" xmlns="http://www.w3.org/2000/svg" xmlns:xlink="http://www.w3.org/1999/xlink" xml:space="preserve" onload="init(evt)">
<style type="text/css"><![CDATA[
.edge:hover path { stroke: red; }
.edge:hover polygon { stroke: red; fill: red; }
]]></style>
<script type="text/javascript"><![CDATA[
var edges = document.getElementsByTagName('g');
if (edges && edges.length) {
  for (var i=0;i<edges.length;i++) {
    if (edges[i].id.substr(0,4)=='edge') {
      edges[i].setAttribute('class','edge');
    }
  }
}
]]></script>
        <defs>
                <circle id="rim" cx="0" cy="0" r="7"/>
                <circle id="rim2" cx="0" cy="0" r="3.5"/>
                <g id="zoomPlus">
                        <use xlink:href="#rim" fill="#404040">
                                <set attributeName="fill" to="#808080" begin="zoomplus.mouseover" end="zoomplus.mouseout"/>
                        </use>
                        <path d="M-4,0h8M0,-4v8" fill="none" stroke="white" stroke-width="1.5" pointer-events="none"/>
                </g>
                <g id="zoomMin">
                        <use xlink:href="#rim" fill="#404040">
                                <set attributeName="fill" to="#808080" begin="zoomminus.mouseover" end="zoomminus.mouseout"/>
                        </use>
                        <path d="M-4,0h8" fill="none" stroke="white" stroke-width="1.5" pointer-events="none"/>
                </g>
                <g id="dirArrow">
                        <path fill="none" stroke="white" stroke-width="1.5" d="M0,-3.0v7 M-2.5,-0.5L0,-3.0L2.5,-0.5"/>
                </g>
               <g id="resetDef">
                       <use xlink:href="#rim2" fill="#404040">
                               <set attributeName="fill" to="#808080" begin="reset.mouseover" end="reset.mouseout"/>
                       </use>
               </g>
        </defs>

<script type="text/javascript">
var viewWidth = 950;
var viewHeight = 509;
var sectionId = 'dynsection-0';
</script>
<script xlink:href="../../svgpan.js"/>
<svg id="graph" class="graph">
<g id="viewport">
<title>/home/travis/build/AliceO2Group/AliceO2/GPU/GPUTracking/DataCompression/GPUTPCClusterStatistics.h</title>
<!-- Node0 -->
<g id="node1" class="node">
<title>Node0</title>
<polygon fill="#bfbfbf" stroke="#000000" points="368,-448.5 368,-500.5 563,-500.5 563,-448.5 368,-448.5"/>
<text text-anchor="start" x="376" y="-488.5" font-family="Helvetica,sans-Serif" font-size="10.00" fill="#000000">/home/travis/build</text>
<text text-anchor="start" x="376" y="-477.5" font-family="Helvetica,sans-Serif" font-size="10.00" fill="#000000">/AliceO2Group/AliceO2</text>
<text text-anchor="start" x="376" y="-466.5" font-family="Helvetica,sans-Serif" font-size="10.00" fill="#000000">/GPU/GPUTracking/DataCompression</text>
<text text-anchor="middle" x="465.5" y="-455.5" font-family="Helvetica,sans-Serif" font-size="10.00" fill="#000000">/GPUTPCClusterStatistics.h</text>
</g>
<!-- Node1 -->
<g id="node2" class="node">
<title>Node1</title>
<g id="a_node2"><a xlink:href="../../d5/d92/GPUTPCCompression_8h.html" target="_top" xlink:title="GPUTPCCompression.h">
<polygon fill="none" stroke="#000000" points="348,-336.5 348,-355.5 477,-355.5 477,-336.5 348,-336.5"/>
<text text-anchor="middle" x="412.5" y="-343.5" font-family="Helvetica,sans-Serif" font-size="10.00" fill="#000000">GPUTPCCompression.h</text>
</a>
</g>
</g>
<!-- Node0&#45;&gt;Node1 -->
<g id="edge1" class="edge">
<title>Node0&#45;&gt;Node1</title>
<path fill="none" stroke="#191970" d="M415.0507,-448.4983C401.6863,-438.9508 388.9257,-426.7808 381.5,-412 373.3111,-395.7001 384.1621,-376.8395 395.2135,-363.465"/>
<polygon fill="#191970" stroke="#191970" points="397.9023,-365.7087 401.9521,-355.9184 392.6809,-361.0463 397.9023,-365.7087"/>
</g>
<!-- Node22 -->
<g id="node23" class="node">
<title>Node22</title>
<g id="a_node23"><a xlink:href="../../d7/d7d/TPCClusterDecompressor_8h.html" target="_top" xlink:title="TPCClusterDecompressor.h">
<polygon fill="none" stroke="#000000" points="391,-392.5 391,-411.5 540,-411.5 540,-392.5 391,-392.5"/>
<text text-anchor="middle" x="465.5" y="-399.5" font-family="Helvetica,sans-Serif" font-size="10.00" fill="#000000">TPCClusterDecompressor.h</text>
</a>
</g>
</g>
<!-- Node0&#45;&gt;Node22 -->
<g id="edge32" class="edge">
<title>Node0&#45;&gt;Node22</title>
<path fill="none" stroke="#191970" d="M465.5,-448.3258C465.5,-439.5142 465.5,-429.8397 465.5,-421.621"/>
<polygon fill="#191970" stroke="#191970" points="469.0001,-421.534 465.5,-411.534 462.0001,-421.534 469.0001,-421.534"/>
</g>
<!-- Node23 -->
<g id="node24" class="node">
<title>Node23</title>
<polygon fill="none" stroke="#bfbfbf" points="519,-336.5 519,-355.5 566,-355.5 566,-336.5 519,-336.5"/>
<text text-anchor="middle" x="542.5" y="-343.5" font-family="Helvetica,sans-Serif" font-size="10.00" fill="#000000">vector</text>
</g>
<!-- Node0&#45;&gt;Node23 -->
<g id="edge35" class="edge">
<title>Node0&#45;&gt;Node23</title>
<path fill="none" stroke="#191970" d="M515.3619,-448.3838C528.5676,-438.8323 541.1732,-426.6889 548.5,-412 555.713,-397.5391 553.2052,-379.0793 549.4719,-365.3614"/>
<polygon fill="#191970" stroke="#191970" points="552.7217,-364.0288 546.3775,-355.5435 546.0455,-366.1331 552.7217,-364.0288"/>
</g>
<!-- Node2 -->
<g id="node3" class="node">
<title>Node2</title>
<g id="a_node3"><a xlink:href="../../d2/d6d/GPUDef_8h.html" target="_top" xlink:title="GPUDef.h">
<polygon fill="none" stroke="#000000" points="388,-112.5 388,-131.5 451,-131.5 451,-112.5 388,-112.5"/>
<text text-anchor="middle" x="419.5" y="-119.5" font-family="Helvetica,sans-Serif" font-size="10.00" fill="#000000">GPUDef.h</text>
</a>
</g>
</g>
<!-- Node1&#45;&gt;Node2 -->
<g id="edge2" class="edge">
<title>Node1&#45;&gt;Node2</title>
<path fill="none" stroke="#191970" d="M405.8616,-336.3508C387.9001,-308.9619 341.4656,-228.7905 368.5,-168 373.9508,-155.7432 384.4599,-145.3755 394.5289,-137.6036"/>
<polygon fill="#191970" stroke="#191970" points="396.6744,-140.3721 402.7627,-131.7012 392.596,-134.6828 396.6744,-140.3721"/>
</g>
<!-- Node12 -->
<g id="node13" class="node">
<title>Node12</title>
<g id="a_node13"><a xlink:href="../../d6/d57/GPUProcessor_8h.html" target="_top" xlink:title="GPUProcessor.h">
<polygon fill="none" stroke="#000000" points="484,-168.5 484,-187.5 577,-187.5 577,-168.5 484,-168.5"/>
<text text-anchor="middle" x="530.5" y="-175.5" font-family="Helvetica,sans-Serif" font-size="10.00" fill="#000000">GPUProcessor.h</text>
</a>
</g>
</g>
<!-- Node1&#45;&gt;Node12 -->
<g id="edge12" class="edge">
<title>Node1&#45;&gt;Node12</title>
<path fill="none" stroke="#191970" d="M409.7007,-336.3532C403.8907,-314.1887 393.0008,-258.861 417.5,-224 425.9431,-211.9859 458.3881,-199.492 486.359,-190.5623"/>
<polygon fill="#191970" stroke="#191970" points="487.5092,-193.87 496.0193,-187.559 485.431,-187.1856 487.5092,-193.87"/>
</g>
<!-- Node15 -->
<g id="node16" class="node">
<title>Node15</title>
<g id="a_node16"><a xlink:href="../../d6/da2/GPUCommonMath_8h.html" target="_top" xlink:title="GPUCommonMath.h">
<polygon fill="none" stroke="#000000" points="624,-168.5 624,-187.5 739,-187.5 739,-168.5 624,-168.5"/>
<text text-anchor="middle" x="681.5" y="-175.5" font-family="Helvetica,sans-Serif" font-size="10.00" fill="#000000">GPUCommonMath.h</text>
</a>
</g>
</g>
<!-- Node1&#45;&gt;Node15 -->
<g id="edge17" class="edge">
<title>Node1&#45;&gt;Node15</title>
<path fill="none" stroke="#191970" d="M414.198,-336.3688C418.9826,-310.3261 433.3493,-239.4322 450.5,-224 462.6727,-213.047 550.0506,-197.7913 613.7554,-187.9056"/>
<polygon fill="#191970" stroke="#191970" points="614.4095,-191.3463 623.7612,-186.3666 613.3453,-184.4276 614.4095,-191.3463"/>
</g>
<!-- Node17 -->
<g id="node18" class="node">
<title>Node17</title>
<g id="a_node18"><a xlink:href="../../df/d13/GPUParam_8h.html" target="_top" xlink:title="GPUParam.h">
<polygon fill="none" stroke="#000000" points="640,-280.5 640,-299.5 717,-299.5 717,-280.5 640,-280.5"/>
<text text-anchor="middle" x="678.5" y="-287.5" font-family="Helvetica,sans-Serif" font-size="10.00" fill="#000000">GPUParam.h</text>
</a>
</g>
</g>
<!-- Node1&#45;&gt;Node17 -->
<g id="edge21" class="edge">
<title>Node1&#45;&gt;Node17</title>
<path fill="none" stroke="#191970" d="M457.9248,-336.4369C505.7179,-326.3752 580.6707,-310.5956 629.6981,-300.2741"/>
<polygon fill="#191970" stroke="#191970" points="630.683,-303.6436 639.7474,-298.1584 629.2408,-296.7937 630.683,-303.6436"/>
</g>
<!-- Node3 -->
<g id="node4" class="node">
<title>Node3</title>
<g id="a_node4"><a xlink:href="../../df/d21/GPUCommonDef_8h.html" target="_top" xlink:title="GPUCommonDef.h">
<polygon fill="none" stroke="#000000" points="683,-56.5 683,-75.5 790,-75.5 790,-56.5 683,-56.5"/>
<text text-anchor="middle" x="736.5" y="-63.5" font-family="Helvetica,sans-Serif" font-size="10.00" fill="#000000">GPUCommonDef.h</text>
</a>
</g>
</g>
<!-- Node2&#45;&gt;Node3 -->
<g id="edge3" class="edge">
<title>Node2&#45;&gt;Node3</title>
<path fill="none" stroke="#191970" d="M451.3237,-113.7989C454.0828,-113.1624 456.8367,-112.5531 459.5,-112 532.1802,-96.9056 616.4017,-83.493 672.7201,-75.1019"/>
<polygon fill="#191970" stroke="#191970" points="673.5227,-78.5213 682.9022,-73.5942 672.4973,-71.5968 673.5227,-78.5213"/>
</g>
<!-- Node6 -->
<g id="node7" class="node">
<title>Node6</title>
<g id="a_node7"><a xlink:href="../../d2/d37/GPUDefConstantsAndSettings_8h.html" target="_top" xlink:title="GPUDefConstantsAndSettings.h">
<polygon fill="none" stroke="#000000" points="0,-56.5 0,-75.5 171,-75.5 171,-56.5 0,-56.5"/>
<text text-anchor="middle" x="85.5" y="-63.5" font-family="Helvetica,sans-Serif" font-size="10.00" fill="#000000">GPUDefConstantsAndSettings.h</text>
</a>
</g>
</g>
<!-- Node2&#45;&gt;Node6 -->
<g id="edge6" class="edge">
<title>Node2&#45;&gt;Node6</title>
<path fill="none" stroke="#191970" d="M387.777,-116.6812C334.0767,-107.6775 224.1479,-89.2464 152.7033,-77.2676"/>
<polygon fill="#191970" stroke="#191970" points="152.8939,-73.7508 142.4528,-75.549 151.7363,-80.6544 152.8939,-73.7508"/>
</g>
<!-- Node7 -->
<g id="node8" class="node">
<title>Node7</title>
<g id="a_node8"><a xlink:href="../../dc/de9/GPUDefGPUParameters_8h.html" target="_top" xlink:title="GPUDefGPUParameters.h">
<polygon fill="none" stroke="#000000" points="189.5,-56.5 189.5,-75.5 329.5,-75.5 329.5,-56.5 189.5,-56.5"/>
<text text-anchor="middle" x="259.5" y="-63.5" font-family="Helvetica,sans-Serif" font-size="10.00" fill="#000000">GPUDefGPUParameters.h</text>
</a>
</g>
</g>
<!-- Node2&#45;&gt;Node7 -->
<g id="edge7" class="edge">
<title>Node2&#45;&gt;Node7</title>
<path fill="none" stroke="#191970" d="M391.995,-112.3733C365.6198,-103.1419 325.6149,-89.1402 296.4642,-78.9375"/>
<polygon fill="#191970" stroke="#191970" points="297.2409,-75.5012 286.6461,-75.5011 294.9284,-82.1082 297.2409,-75.5012"/>
</g>
<!-- Node9 -->
<g id="node10" class="node">
<title>Node9</title>
<g id="a_node10"><a xlink:href="../../d3/d4c/GPUDefOpenCL12Templates_8h.html" target="_top" xlink:title="GPUDefOpenCL12Templates.h">
<polygon fill="none" stroke="#000000" points="347.5,-56.5 347.5,-75.5 511.5,-75.5 511.5,-56.5 347.5,-56.5"/>
<text text-anchor="middle" x="429.5" y="-63.5" font-family="Helvetica,sans-Serif" font-size="10.00" fill="#000000">GPUDefOpenCL12Templates.h</text>
</a>
</g>
</g>
<!-- Node2&#45;&gt;Node9 -->
<g id="edge9" class="edge">
<title>Node2&#45;&gt;Node9</title>
<path fill="none" stroke="#191970" d="M421.2419,-112.2455C422.5467,-104.9382 424.376,-94.6944 425.9813,-85.7046"/>
<polygon fill="#191970" stroke="#191970" points="429.4656,-86.1022 427.7781,-75.6427 422.5746,-84.8717 429.4656,-86.1022"/>
</g>
<!-- Node10 -->
<g id="node11" class="node">
<title>Node10</title>
<g id="a_node11"><a xlink:href="../../d2/d45/GPUCommonRtypes_8h.html" target="_top" xlink:title="GPUCommonRtypes.h">
<polygon fill="none" stroke="#000000" points="530,-56.5 530,-75.5 655,-75.5 655,-56.5 530,-56.5"/>
<text text-anchor="middle" x="592.5" y="-63.5" font-family="Helvetica,sans-Serif" font-size="10.00" fill="#000000">GPUCommonRtypes.h</text>
</a>
</g>
</g>
<!-- Node2&#45;&gt;Node10 -->
<g id="edge10" class="edge">
<title>Node2&#45;&gt;Node10</title>
<path fill="none" stroke="#191970" d="M449.2398,-112.3733C478.007,-103.0613 521.77,-88.8953 553.3556,-78.671"/>
<polygon fill="#191970" stroke="#191970" points="554.7122,-81.9107 563.1483,-75.5011 552.5564,-75.251 554.7122,-81.9107"/>
</g>
<!-- Node4 -->
<g id="node5" class="node">
<title>Node4</title>
<g id="a_node5"><a xlink:href="../../d5/d93/GPUCommonDefSettings_8h.html" target="_top" xlink:title="GPUCommonDefSettings.h">
<polygon fill="none" stroke="#000000" points="651.5,-.5 651.5,-19.5 799.5,-19.5 799.5,-.5 651.5,-.5"/>
<text text-anchor="middle" x="725.5" y="-7.5" font-family="Helvetica,sans-Serif" font-size="10.00" fill="#000000">GPUCommonDefSettings.h</text>
</a>
</g>
</g>
<!-- Node3&#45;&gt;Node4 -->
<g id="edge4" class="edge">
<title>Node3&#45;&gt;Node4</title>
<path fill="none" stroke="#191970" d="M734.5839,-56.2455C733.1486,-48.9382 731.1364,-38.6944 729.3705,-29.7046"/>
<polygon fill="#191970" stroke="#191970" points="732.756,-28.7805 727.3941,-19.6427 725.8873,-30.1298 732.756,-28.7805"/>
</g>
<!-- Node5 -->
<g id="node6" class="node">
<title>Node5</title>
<g id="a_node6"><a xlink:href="../../da/d5a/GPUCommonDefAPI_8h.html" target="_top" xlink:title="GPUCommonDefAPI.h">
<polygon fill="none" stroke="#000000" points="817.5,-.5 817.5,-19.5 941.5,-19.5 941.5,-.5 817.5,-.5"/>
<text text-anchor="middle" x="879.5" y="-7.5" font-family="Helvetica,sans-Serif" font-size="10.00" fill="#000000">GPUCommonDefAPI.h</text>
</a>
</g>
</g>
<!-- Node3&#45;&gt;Node5 -->
<g id="edge5" class="edge">
<title>Node3&#45;&gt;Node5</title>
<path fill="none" stroke="#191970" d="M761.0826,-56.3733C784.4496,-47.2226 819.7862,-33.3844 845.7784,-23.2057"/>
<polygon fill="#191970" stroke="#191970" points="847.203,-26.4066 855.2382,-19.5011 844.6505,-19.8886 847.203,-26.4066"/>
</g>
<!-- Node8 -->
<g id="node9" class="node">
<title>Node8</title>
<g id="a_node9"><a xlink:href="../../d6/dff/GPUDefMacros_8h.html" target="_top" xlink:title="GPUDefMacros.h">
<polygon fill="none" stroke="#000000" points="210.5,-.5 210.5,-19.5 308.5,-19.5 308.5,-.5 210.5,-.5"/>
<text text-anchor="middle" x="259.5" y="-7.5" font-family="Helvetica,sans-Serif" font-size="10.00" fill="#000000">GPUDefMacros.h</text>
</a>
</g>
</g>
<!-- Node7&#45;&gt;Node8 -->
<g id="edge8" class="edge">
<title>Node7&#45;&gt;Node8</title>
<path fill="none" stroke="#191970" d="M259.5,-56.2455C259.5,-48.9382 259.5,-38.6944 259.5,-29.7046"/>
<polygon fill="#191970" stroke="#191970" points="263.0001,-29.6426 259.5,-19.6427 256.0001,-29.6427 263.0001,-29.6426"/>
</g>
<!-- Node11 -->
<g id="node12" class="node">
<title>Node11</title>
<polygon fill="none" stroke="#bfbfbf" points="563,-.5 563,-19.5 622,-19.5 622,-.5 563,-.5"/>
<text text-anchor="middle" x="592.5" y="-7.5" font-family="Helvetica,sans-Serif" font-size="10.00" fill="#000000">Rtypes.h</text>
</g>
<!-- Node10&#45;&gt;Node11 -->
<g id="edge11" class="edge">
<title>Node10&#45;&gt;Node11</title>
<path fill="none" stroke="#191970" d="M592.5,-56.2455C592.5,-48.9382 592.5,-38.6944 592.5,-29.7046"/>
<polygon fill="#191970" stroke="#191970" points="596.0001,-29.6426 592.5,-19.6427 589.0001,-29.6427 596.0001,-29.6426"/>
</g>
<!-- Node12&#45;&gt;Node2 -->
<g id="edge14" class="edge">
<title>Node12&#45;&gt;Node2</title>
<path fill="none" stroke="#191970" d="M511.4184,-168.3733C493.7598,-159.4644 467.2947,-146.1127 447.2902,-136.0203"/>
<polygon fill="#191970" stroke="#191970" points="448.8372,-132.8806 438.3326,-131.5011 445.6842,-139.1303 448.8372,-132.8806"/>
</g>
<!-- Node12&#45;&gt;Node3 -->
<g id="edge13" class="edge">
<title>Node12&#45;&gt;Node3</title>
<path fill="none" stroke="#191970" d="M533.5692,-168.3328C538.6648,-153.8662 550.2596,-126.7159 569.5,-112 586.3816,-99.0882 635.5313,-86.4113 676.1703,-77.6461"/>
<polygon fill="#191970" stroke="#191970" points="676.9678,-81.055 686.0262,-75.5599 675.5181,-74.2067 676.9678,-81.055"/>
</g>
<!-- Node13 -->
<g id="node14" class="node">
<title>Node13</title>
<polygon fill="none" stroke="#bfbfbf" points="469,-112.5 469,-131.5 522,-131.5 522,-112.5 469,-112.5"/>
<text text-anchor="middle" x="495.5" y="-119.5" font-family="Helvetica,sans-Serif" font-size="10.00" fill="#000000">cstddef</text>
</g>
<!-- Node12&#45;&gt;Node13 -->
<g id="edge15" class="edge">
<title>Node12&#45;&gt;Node13</title>
<path fill="none" stroke="#191970" d="M524.4035,-168.2455C519.5855,-160.5367 512.7249,-149.5598 506.8968,-140.2348"/>
<polygon fill="#191970" stroke="#191970" points="509.7947,-138.2677 501.5267,-131.6427 503.8587,-141.9777 509.7947,-138.2677"/>
</g>
<!-- Node14 -->
<g id="node15" class="node">
<title>Node14</title>
<polygon fill="none" stroke="#bfbfbf" points="578.5,-112.5 578.5,-131.5 642.5,-131.5 642.5,-112.5 578.5,-112.5"/>
<text text-anchor="middle" x="610.5" y="-119.5" font-family="Helvetica,sans-Serif" font-size="10.00" fill="#000000">algorithm</text>
</g>
<!-- Node12&#45;&gt;Node14 -->
<g id="edge16" class="edge">
<title>Node12&#45;&gt;Node14</title>
<path fill="none" stroke="#191970" d="M544.4349,-168.2455C556.5947,-159.7337 574.4464,-147.2375 588.5285,-137.3801"/>
<polygon fill="#191970" stroke="#191970" points="590.5395,-140.2447 596.7248,-131.6427 586.5253,-134.51 590.5395,-140.2447"/>
</g>
<!-- Node15&#45;&gt;Node3 -->
<g id="edge18" class="edge">
<title>Node15&#45;&gt;Node3</title>
<path fill="none" stroke="#191970" d="M691.0257,-168.1898C699.1123,-159.3706 710.4892,-145.7278 717.5,-132 724.9568,-117.3988 729.8847,-99.4424 732.849,-85.9473"/>
<polygon fill="#191970" stroke="#191970" points="736.3428,-86.3269 734.8896,-75.8322 729.4811,-84.9425 736.3428,-86.3269"/>
</g>
<!-- Node15&#45;&gt;Node14 -->
<g id="edge20" class="edge">
<title>Node15&#45;&gt;Node14</title>
<path fill="none" stroke="#191970" d="M669.1327,-168.2455C658.5446,-159.8943 643.0936,-147.7076 630.7107,-137.9408"/>
<polygon fill="#191970" stroke="#191970" points="632.7447,-135.0875 622.7255,-131.6427 628.4097,-140.5837 632.7447,-135.0875"/>
</g>
<!-- Node16 -->
<g id="node17" class="node">
<title>Node16</title>
<polygon fill="none" stroke="#bfbfbf" points="661,-112.5 661,-131.5 708,-131.5 708,-112.5 661,-112.5"/>
<text text-anchor="middle" x="684.5" y="-119.5" font-family="Helvetica,sans-Serif" font-size="10.00" fill="#000000">cmath</text>
</g>
<!-- Node15&#45;&gt;Node16 -->
<g id="edge19" class="edge">
<title>Node15&#45;&gt;Node16</title>
<path fill="none" stroke="#191970" d="M682.0226,-168.2455C682.414,-160.9382 682.9628,-150.6944 683.4444,-141.7046"/>
<polygon fill="#191970" stroke="#191970" points="686.9434,-141.8156 683.9834,-131.6427 679.9534,-141.4411 686.9434,-141.8156"/>
</g>
<!-- Node17&#45;&gt;Node2 -->
<g id="edge24" class="edge">
<title>Node17&#45;&gt;Node2</title>
<path fill="none" stroke="#191970" d="M639.845,-287.3284C593.2124,-282.9679 513.2635,-271.807 450.5,-244 412.1392,-227.0045 393.4226,-225.4477 374.5,-188 365.2857,-169.7651 381.579,-150.6605 397.0736,-137.726"/>
<polygon fill="#191970" stroke="#191970" points="399.2384,-140.4762 404.9641,-131.5618 394.929,-134.9599 399.2384,-140.4762"/>
</g>
<!-- Node17&#45;&gt;Node3 -->
<g id="edge22" class="edge">
<title>Node17&#45;&gt;Node3</title>
<path fill="none" stroke="#191970" d="M702.3409,-280.3496C717.5178,-272.8464 736.041,-260.8577 745.5,-244 774.1915,-192.8664 755.4768,-119.9049 743.8162,-85.4458"/>
<polygon fill="#191970" stroke="#191970" points="746.9946,-83.9373 740.3472,-75.6872 740.3989,-86.2819 746.9946,-83.9373"/>
</g>
<!-- Node17&#45;&gt;Node15 -->
<g id="edge23" class="edge">
<title>Node17&#45;&gt;Node15</title>
<path fill="none" stroke="#191970" d="M695.5567,-280.377C707.8089,-272.4014 723.3708,-259.8248 730.5,-244 739.0357,-225.0529 722.0068,-206.3062 705.7347,-193.6623"/>
<polygon fill="#191970" stroke="#191970" points="707.5829,-190.679 697.4339,-187.6379 703.4713,-196.3442 707.5829,-190.679"/>
</g>
<!-- Node18 -->
<g id="node19" class="node">
<title>Node18</title>
<g id="a_node19"><a xlink:href="../../dd/dc6/GPUSettings_8h.html" target="_top" xlink:title="GPUSettings.h">
<polygon fill="none" stroke="#000000" points="635.5,-224.5 635.5,-243.5 721.5,-243.5 721.5,-224.5 635.5,-224.5"/>
<text text-anchor="middle" x="678.5" y="-231.5" font-family="Helvetica,sans-Serif" font-size="10.00" fill="#000000">GPUSettings.h</text>
</a>
</g>
</g>
<!-- Node17&#45;&gt;Node18 -->
<g id="edge25" class="edge">
<title>Node17&#45;&gt;Node18</title>
<path fill="none" stroke="#191970" d="M678.5,-280.2455C678.5,-272.9382 678.5,-262.6944 678.5,-253.7046"/>
<polygon fill="#191970" stroke="#191970" points="682.0001,-253.6426 678.5,-243.6427 675.0001,-253.6427 682.0001,-253.6426"/>
</g>
<!-- Node19 -->
<g id="node20" class="node">
<title>Node19</title>
<g id="a_node20"><a xlink:href="../../d6/d1b/GPUTPCGeometry_8h.html" target="_top" xlink:title="GPUTPCGeometry.h">
<polygon fill="none" stroke="#000000" points="816,-224.5 816,-243.5 929,-243.5 929,-224.5 816,-224.5"/>
<text text-anchor="middle" x="872.5" y="-231.5" font-family="Helvetica,sans-Serif" font-size="10.00" fill="#000000">GPUTPCGeometry.h</text>
</a>
</g>
</g>
<!-- Node17&#45;&gt;Node19 -->
<g id="edge27" class="edge">
<title>Node17&#45;&gt;Node19</title>
<path fill="none" stroke="#191970" d="M711.8498,-280.3733C744.528,-270.9404 794.4618,-256.5265 829.977,-246.2747"/>
<polygon fill="#191970" stroke="#191970" points="830.9484,-249.6373 839.5854,-243.5011 829.007,-242.9119 830.9484,-249.6373"/>
</g>
<!-- Node20 -->
<g id="node21" class="node">
<title>Node20</title>
<g id="a_node21"><a xlink:href="../../d9/d9c/GPUTPCGMPolynomialField_8h.html" target="_top" xlink:title="GPUTPCGMPolynomialField.h">
<polygon fill="none" stroke="#000000" points="459.5,-224.5 459.5,-243.5 617.5,-243.5 617.5,-224.5 459.5,-224.5"/>
<text text-anchor="middle" x="538.5" y="-231.5" font-family="Helvetica,sans-Serif" font-size="10.00" fill="#000000">GPUTPCGMPolynomialField.h</text>
</a>
</g>
</g>
<!-- Node17&#45;&gt;Node20 -->
<g id="edge29" class="edge">
<title>Node17&#45;&gt;Node20</title>
<path fill="none" stroke="#191970" d="M654.4331,-280.3733C631.6572,-271.2629 597.2656,-257.5062 571.851,-247.3404"/>
<polygon fill="#191970" stroke="#191970" points="572.8375,-243.9654 562.2528,-243.5011 570.2377,-250.4648 572.8375,-243.9654"/>
</g>
<!-- Node18&#45;&gt;Node15 -->
<g id="edge26" class="edge">
<title>Node18&#45;&gt;Node15</title>
<path fill="none" stroke="#191970" d="M679.0226,-224.2455C679.414,-216.9382 679.9628,-206.6944 680.4444,-197.7046"/>
<polygon fill="#191970" stroke="#191970" points="683.9434,-197.8156 680.9834,-187.6427 676.9534,-197.4411 683.9434,-197.8156"/>
</g>
<!-- Node19&#45;&gt;Node3 -->
<g id="edge28" class="edge">
<title>Node19&#45;&gt;Node3</title>
<path fill="none" stroke="#191970" d="M868.5434,-224.2315C859.3094,-202.2835 834.5844,-148.1614 801.5,-112 790.3862,-99.8526 775.5456,-89.052 762.8509,-80.9741"/>
<polygon fill="#191970" stroke="#191970" points="764.4256,-77.8342 754.0705,-75.593 760.7678,-83.8026 764.4256,-77.8342"/>
</g>
<!-- Node21 -->
<g id="node22" class="node">
<title>Node21</title>
<g id="a_node22"><a xlink:href="../../da/dab/GPUTPCDef_8h.html" target="_top" xlink:title="GPUTPCDef.h">
<polygon fill="none" stroke="#000000" points="383.5,-168.5 383.5,-187.5 465.5,-187.5 465.5,-168.5 383.5,-168.5"/>
<text text-anchor="middle" x="424.5" y="-175.5" font-family="Helvetica,sans-Serif" font-size="10.00" fill="#000000">GPUTPCDef.h</text>
</a>
</g>
</g>
<!-- Node20&#45;&gt;Node21 -->
<g id="edge30" class="edge">
<title>Node20&#45;&gt;Node21</title>
<path fill="none" stroke="#191970" d="M518.9027,-224.3733C500.7669,-215.4644 473.5865,-202.1127 453.0413,-192.0203"/>
<polygon fill="#191970" stroke="#191970" points="454.3603,-188.7688 443.8416,-187.5011 451.2739,-195.0517 454.3603,-188.7688"/>
</g>
<!-- Node21&#45;&gt;Node2 -->
<g id="edge31" class="edge">
<title>Node21&#45;&gt;Node2</title>
<path fill="none" stroke="#191970" d="M423.6291,-168.2455C422.9766,-160.9382 422.062,-150.6944 421.2593,-141.7046"/>
<polygon fill="#191970" stroke="#191970" points="424.7365,-141.2918 420.361,-131.6427 417.7642,-141.9143 424.7365,-141.2918"/>
</g>
<!-- Node22&#45;&gt;Node1 -->
<g id="edge33" class="edge">
<title>Node22&#45;&gt;Node1</title>
<path fill="none" stroke="#191970" d="M456.2681,-392.2455C448.6683,-384.2155 437.7123,-372.6394 428.6632,-363.0781"/>
<polygon fill="#191970" stroke="#191970" points="431.042,-360.4998 421.6261,-355.6427 425.9579,-365.3115 431.042,-360.4998"/>
</g>
<!-- Node22&#45;&gt;Node23 -->
<g id="edge34" class="edge">
<title>Node22&#45;&gt;Node23</title>
<path fill="none" stroke="#191970" d="M478.9124,-392.2455C490.5057,-383.814 507.4748,-371.4729 520.9678,-361.6598"/>
<polygon fill="#191970" stroke="#191970" points="523.2126,-364.355 529.2413,-355.6427 519.0953,-358.6938 523.2126,-364.355"/>
</g>
</g>
</svg>
        <g id="navigator" transform="translate(0 0)" fill="#404254">
                <rect fill="#f2f5e9" fill-opacity="0.5" stroke="#606060" stroke-width=".5" x="0" y="0" width="60" height="60"/>
                <use id="zoomplus" xlink:href="#zoomPlus" x="17" y="9" onmousedown="handleZoom(evt,'in')"/>
                <use id="zoomminus" xlink:href="#zoomMin" x="42" y="9" onmousedown="handleZoom(evt,'out')"/>
                <use id="reset" xlink:href="#resetDef" x="30" y="36" onmousedown="handleReset()"/>
                <g id="arrowUp" xlink:href="#dirArrow" transform="translate(30 24)" onmousedown="handlePan(0,-1)">
                  <use xlink:href="#rim" fill="#404040">
                        <set attributeName="fill" to="#808080" begin="arrowUp.mouseover" end="arrowUp.mouseout"/>
                  </use>
                  <path fill="none" stroke="white" stroke-width="1.5" d="M0,-3.0v7 M-2.5,-0.5L0,-3.0L2.5,-0.5"/>
                </g>
                <g id="arrowRight" xlink:href="#dirArrow" transform="rotate(90) translate(36 -43)" onmousedown="handlePan(1,0)">
                  <use xlink:href="#rim" fill="#404040">
                        <set attributeName="fill" to="#808080" begin="arrowRight.mouseover" end="arrowRight.mouseout"/>
                  </use>
                  <path fill="none" stroke="white" stroke-width="1.5" d="M0,-3.0v7 M-2.5,-0.5L0,-3.0L2.5,-0.5"/>
                </g>
                <g id="arrowDown" xlink:href="#dirArrow" transform="rotate(180) translate(-30 -48)" onmousedown="handlePan(0,1)">
                  <use xlink:href="#rim" fill="#404040">
                        <set attributeName="fill" to="#808080" begin="arrowDown.mouseover" end="arrowDown.mouseout"/>
                  </use>
                  <path fill="none" stroke="white" stroke-width="1.5" d="M0,-3.0v7 M-2.5,-0.5L0,-3.0L2.5,-0.5"/>
                </g>
                <g id="arrowLeft" xlink:href="#dirArrow" transform="rotate(270) translate(-36 17)" onmousedown="handlePan(-1,0)">
                  <use xlink:href="#rim" fill="#404040">
                        <set attributeName="fill" to="#808080" begin="arrowLeft.mouseover" end="arrowLeft.mouseout"/>
                  </use>
                  <path fill="none" stroke="white" stroke-width="1.5" d="M0,-3.0v7 M-2.5,-0.5L0,-3.0L2.5,-0.5"/>
                </g>
        </g>
        <svg viewBox="0 0 15 15" width="100%" height="30px" preserveAspectRatio="xMaxYMin meet">
         <g id="arrow_out" transform="scale(0.3 0.3)">
          <a xlink:href="GPUTPCClusterStatistics_8h__incl_org.svg" target="_base">
           <rect id="button" ry="5" rx="5" y="6" x="6" height="38" width="38"
                fill="#f2f5e9" fill-opacity="0.5" stroke="#606060" stroke-width="1.0"/>
           <path id="arrow"
             d="M 11.500037,31.436501 C 11.940474,20.09759 22.043105,11.32322 32.158766,21.979434 L 37.068811,17.246167 C 37.068811,17.246167 37.088388,32 37.088388,32 L 22.160133,31.978069 C 22.160133,31.978069 26.997745,27.140456 26.997745,27.140456 C 18.528582,18.264221 13.291696,25.230495 11.500037,31.436501 z"
             style="fill:#404040;"/>
          </a>
         </g>
        </svg>
</svg>
