<?xml version="1.0" encoding="UTF-8" standalone="no"?>
<!DOCTYPE svg PUBLIC "-//W3C//DTD SVG 1.1//EN"
 "http://www.w3.org/Graphics/SVG/1.1/DTD/svg11.dtd">
<!-- Generated by graphviz version 2.40.1 (20161225.0304)
 -->
<!-- Title: o2::framework::data_matcher::ValueHolder&lt; T &gt; Pages: 1 -->
<svg width="169pt" height="226pt"
 viewBox="0.00 0.00 169.00 226.00" xmlns="http://www.w3.org/2000/svg" xmlns:xlink="http://www.w3.org/1999/xlink">
<g id="graph0" class="graph" transform="scale(1 1) rotate(0) translate(4 222)">
<title>o2::framework::data_matcher::ValueHolder&lt; T &gt;</title>
<!-- Node8 -->
<g id="node1" class="node">
<title>Node8</title>
<polygon fill="#bfbfbf" stroke="#000000" points="2.5,-.5 2.5,-101.5 158.5,-101.5 158.5,-.5 2.5,-.5"/>
<text text-anchor="start" x="10.5" y="-89.5" font-family="Helvetica,sans-Serif" font-size="10.00" fill="#000000">o2::framework::data</text>
<text text-anchor="middle" x="80.5" y="-78.5" font-family="Helvetica,sans-Serif" font-size="10.00" fill="#000000">_matcher::ValueHolder&lt; T &gt;</text>
<polyline fill="none" stroke="#000000" points="2.5,-71.5 158.5,-71.5 "/>
<text text-anchor="middle" x="80.5" y="-59.5" font-family="Helvetica,sans-Serif" font-size="10.00" fill="#000000"> </text>
<polyline fill="none" stroke="#000000" points="2.5,-52.5 158.5,-52.5 "/>
<text text-anchor="start" x="10.5" y="-40.5" font-family="Helvetica,sans-Serif" font-size="10.00" fill="#000000">+ ValueHolder()</text>
<text text-anchor="start" x="10.5" y="-29.5" font-family="Helvetica,sans-Serif" font-size="10.00" fill="#000000">+ ValueHolder()</text>
<text text-anchor="start" x="10.5" y="-18.5" font-family="Helvetica,sans-Serif" font-size="10.00" fill="#000000">+ operator==()</text>
<text text-anchor="start" x="10.5" y="-7.5" font-family="Helvetica,sans-Serif" font-size="10.00" fill="#000000">+ visit()</text>
</g>
<!-- Node9 -->
<g id="node2" class="node">
<title>Node9</title>
<polygon fill="none" stroke="#bfbfbf" points="0,-149.5 0,-217.5 161,-217.5 161,-149.5 0,-149.5"/>
<text text-anchor="start" x="8" y="-205.5" font-family="Helvetica,sans-Serif" font-size="10.00" fill="#000000">variant&lt; T, o2::framework</text>
<text text-anchor="middle" x="80.5" y="-194.5" font-family="Helvetica,sans-Serif" font-size="10.00" fill="#000000">::data_matcher::ContextRef &gt;</text>
<polyline fill="none" stroke="#bfbfbf" points="0,-187.5 161,-187.5 "/>
<text text-anchor="middle" x="80.5" y="-175.5" font-family="Helvetica,sans-Serif" font-size="10.00" fill="#000000"> </text>
<polyline fill="none" stroke="#bfbfbf" points="0,-168.5 161,-168.5 "/>
<text text-anchor="middle" x="80.5" y="-156.5" font-family="Helvetica,sans-Serif" font-size="10.00" fill="#000000"> </text>
</g>
<!-- Node9&#45;&gt;Node8 -->
<g id="edge1" class="edge">
<title>Node9&#45;&gt;Node8</title>
<path fill="none" stroke="#404040" d="M80.5,-149.378C80.5,-138.4514 80.5,-125.9865 80.5,-113.6859"/>
<polygon fill="none" stroke="#404040" points="80.5001,-113.5031 76.5,-107.5031 80.5,-101.5031 84.5,-107.503 80.5001,-113.5031"/>
<text text-anchor="middle" x="105" y="-123" font-family="Helvetica,sans-Serif" font-size="10.00" fill="#000000"> #mValue</text>
</g>
</g>
</svg>
