<?xml version="1.0" encoding="UTF-8" standalone="no"?>
<!DOCTYPE svg PUBLIC "-//W3C//DTD SVG 1.1//EN"
 "http://www.w3.org/Graphics/SVG/1.1/DTD/svg11.dtd">
<!-- Generated by graphviz version 2.40.1 (20161225.0304)
 -->
<!-- Title: /home/travis/build/AliceO2Group/AliceO2/Framework/Core/include/Framework/RootTableBuilderHelpers.h Pages: 1 -->
<svg width="2781pt" height="341pt"
 viewBox="0.00 0.00 2781.00 341.00" xmlns="http://www.w3.org/2000/svg" xmlns:xlink="http://www.w3.org/1999/xlink">
<g id="graph0" class="graph" transform="scale(1 1) rotate(0) translate(4 337)">
<title>/home/travis/build/AliceO2Group/AliceO2/Framework/Core/include/Framework/RootTableBuilderHelpers.h</title>
<!-- Node0 -->
<g id="node1" class="node">
<title>Node0</title>
<polygon fill="#bfbfbf" stroke="#000000" points="2088.5,-280.5 2088.5,-332.5 2293.5,-332.5 2293.5,-280.5 2088.5,-280.5"/>
<text text-anchor="start" x="2096.5" y="-320.5" font-family="Helvetica,sans-Serif" font-size="10.00" fill="#000000">/home/travis/build</text>
<text text-anchor="start" x="2096.5" y="-309.5" font-family="Helvetica,sans-Serif" font-size="10.00" fill="#000000">/AliceO2Group/AliceO2</text>
<text text-anchor="start" x="2096.5" y="-298.5" font-family="Helvetica,sans-Serif" font-size="10.00" fill="#000000">/Framework/Core/include</text>
<text text-anchor="middle" x="2191" y="-287.5" font-family="Helvetica,sans-Serif" font-size="10.00" fill="#000000">/Framework/RootTableBuilderHelpers.h</text>
</g>
<!-- Node1 -->
<g id="node2" class="node">
<title>Node1</title>
<g id="a_node2"><a xlink:href="../../d5/d98/TableBuilder_8h.html" target="_top" xlink:title="Framework/TableBuilder.h">
<polygon fill="none" stroke="#000000" points="1551,-224.5 1551,-243.5 1693,-243.5 1693,-224.5 1551,-224.5"/>
<text text-anchor="middle" x="1622" y="-231.5" font-family="Helvetica,sans-Serif" font-size="10.00" fill="#000000">Framework/TableBuilder.h</text>
</a>
</g>
</g>
<!-- Node0&#45;&gt;Node1 -->
<g id="edge1" class="edge">
<title>Node0&#45;&gt;Node1</title>
<path fill="none" stroke="#191970" d="M2088.2879,-293.4128C1977.9589,-279.355 1804.8682,-257.3004 1703.5108,-244.3858"/>
<polygon fill="#191970" stroke="#191970" points="1703.6894,-240.8804 1693.3272,-243.0883 1702.8046,-247.8242 1703.6894,-240.8804"/>
</g>
<!-- Node19 -->
<g id="node20" class="node">
<title>Node19</title>
<polygon fill="none" stroke="#bfbfbf" points="1777.5,-56.5 1777.5,-75.5 1858.5,-75.5 1858.5,-56.5 1777.5,-56.5"/>
<text text-anchor="middle" x="1818" y="-63.5" font-family="Helvetica,sans-Serif" font-size="10.00" fill="#000000">arrow/table.h</text>
</g>
<!-- Node0&#45;&gt;Node19 -->
<g id="edge59" class="edge">
<title>Node0&#45;&gt;Node19</title>
<path fill="none" stroke="#191970" d="M2088.3118,-294.0374C1968.7517,-277.1701 1782.2085,-242.7314 1740,-188 1729.1793,-173.9688 1734.1186,-136.4331 1750,-112 1758.7727,-98.5035 1773.0394,-87.9626 1786.2453,-80.3962"/>
<polygon fill="#191970" stroke="#191970" points="1787.9751,-83.4402 1795.1379,-75.6334 1784.6701,-77.2696 1787.9751,-83.4402"/>
</g>
<!-- Node24 -->
<g id="node25" class="node">
<title>Node24</title>
<polygon fill="none" stroke="#bfbfbf" points="0,-56.5 0,-75.5 44,-75.5 44,-56.5 0,-56.5"/>
<text text-anchor="middle" x="22" y="-63.5" font-family="Helvetica,sans-Serif" font-size="10.00" fill="#000000">string</text>
</g>
<!-- Node0&#45;&gt;Node24 -->
<g id="edge65" class="edge">
<title>Node0&#45;&gt;Node24</title>
<path fill="none" stroke="#191970" d="M2088.4468,-304.809C1774.7355,-299.2951 830.856,-280.0798 526,-244 335.4283,-221.4458 275.7981,-226.8929 109,-132 83.7415,-117.6302 57.5401,-96.8069 40.5804,-82.4099"/>
<polygon fill="#191970" stroke="#191970" points="42.4668,-79.415 32.6079,-75.5352 37.8955,-84.7163 42.4668,-79.415"/>
</g>
<!-- Node25 -->
<g id="node26" class="node">
<title>Node25</title>
<polygon fill="none" stroke="#bfbfbf" points="62,-56.5 62,-75.5 120,-75.5 120,-56.5 62,-56.5"/>
<text text-anchor="middle" x="91" y="-63.5" font-family="Helvetica,sans-Serif" font-size="10.00" fill="#000000">memory</text>
</g>
<!-- Node0&#45;&gt;Node25 -->
<g id="edge66" class="edge">
<title>Node0&#45;&gt;Node25</title>
<path fill="none" stroke="#191970" d="M2088.3627,-304.8613C1747.7389,-298.6654 657.0941,-272.5515 317,-188 234.4779,-167.484 149.4841,-109.8288 111.4988,-81.7549"/>
<polygon fill="#191970" stroke="#191970" points="113.3964,-78.8033 103.295,-75.6078 109.1989,-84.4052 113.3964,-78.8033"/>
</g>
<!-- Node33 -->
<g id="node34" class="node">
<title>Node33</title>
<polygon fill="none" stroke="#bfbfbf" points="1925.5,-112.5 1925.5,-131.5 1966.5,-131.5 1966.5,-112.5 1925.5,-112.5"/>
<text text-anchor="middle" x="1946" y="-119.5" font-family="Helvetica,sans-Serif" font-size="10.00" fill="#000000">tuple</text>
</g>
<!-- Node0&#45;&gt;Node33 -->
<g id="edge67" class="edge">
<title>Node0&#45;&gt;Node33</title>
<path fill="none" stroke="#191970" d="M2221.1804,-280.3902C2240.0465,-264.1119 2264.8786,-242.7641 2287,-224 2306.0076,-207.8772 2319.4539,-210.5835 2330,-188 2333.7611,-179.946 2335.8998,-174.6487 2330,-168 2306.6313,-141.6648 2063.7693,-127.6039 1976.7819,-123.383"/>
<polygon fill="#191970" stroke="#191970" points="1976.893,-119.8844 1966.7382,-122.906 1976.5609,-126.8765 1976.893,-119.8844"/>
</g>
<!-- Node36 -->
<g id="node37" class="node">
<title>Node36</title>
<polygon fill="none" stroke="#bfbfbf" points="1953,-168.5 1953,-187.5 2021,-187.5 2021,-168.5 1953,-168.5"/>
<text text-anchor="middle" x="1987" y="-175.5" font-family="Helvetica,sans-Serif" font-size="10.00" fill="#000000">arrow/stl.h</text>
</g>
<!-- Node0&#45;&gt;Node36 -->
<g id="edge57" class="edge">
<title>Node0&#45;&gt;Node36</title>
<path fill="none" stroke="#191970" d="M2149.7176,-280.4961C2108.0012,-254.2189 2044.9808,-214.5222 2010.9058,-193.0583"/>
<polygon fill="#191970" stroke="#191970" points="2012.4309,-189.8825 2002.1042,-187.5142 2008.7001,-195.8054 2012.4309,-189.8825"/>
</g>
<!-- Node37 -->
<g id="node38" class="node">
<title>Node37</title>
<polygon fill="none" stroke="#bfbfbf" points="2039.5,-168.5 2039.5,-187.5 2148.5,-187.5 2148.5,-168.5 2039.5,-168.5"/>
<text text-anchor="middle" x="2094" y="-175.5" font-family="Helvetica,sans-Serif" font-size="10.00" fill="#000000">arrow/type_traits.h</text>
</g>
<!-- Node0&#45;&gt;Node37 -->
<g id="edge58" class="edge">
<title>Node0&#45;&gt;Node37</title>
<path fill="none" stroke="#191970" d="M2171.3706,-280.4961C2152.2978,-255.2295 2123.8594,-217.5559 2107.2962,-195.614"/>
<polygon fill="#191970" stroke="#191970" points="2110.0002,-193.3868 2101.1819,-187.5142 2104.4133,-197.6042 2110.0002,-193.3868"/>
</g>
<!-- Node38 -->
<g id="node39" class="node">
<title>Node38</title>
<polygon fill="none" stroke="#bfbfbf" points="2166.5,-168.5 2166.5,-187.5 2255.5,-187.5 2255.5,-168.5 2166.5,-168.5"/>
<text text-anchor="middle" x="2211" y="-175.5" font-family="Helvetica,sans-Serif" font-size="10.00" fill="#000000">arrow/builder.h</text>
</g>
<!-- Node0&#45;&gt;Node38 -->
<g id="edge60" class="edge">
<title>Node0&#45;&gt;Node38</title>
<path fill="none" stroke="#191970" d="M2195.0473,-280.4961C2198.875,-255.9033 2204.5321,-219.5564 2207.9802,-197.4024"/>
<polygon fill="#191970" stroke="#191970" points="2211.4396,-197.9335 2209.5192,-187.5142 2204.5228,-196.8569 2211.4396,-197.9335"/>
</g>
<!-- Node39 -->
<g id="node40" class="node">
<title>Node39</title>
<polygon fill="none" stroke="#bfbfbf" points="2273.5,-168.5 2273.5,-187.5 2320.5,-187.5 2320.5,-168.5 2273.5,-168.5"/>
<text text-anchor="middle" x="2297" y="-175.5" font-family="Helvetica,sans-Serif" font-size="10.00" fill="#000000">vector</text>
</g>
<!-- Node0&#45;&gt;Node39 -->
<g id="edge64" class="edge">
<title>Node0&#45;&gt;Node39</title>
<path fill="none" stroke="#191970" d="M2209.5048,-280.2471C2221.447,-263.7249 2237.5792,-242.1667 2253,-224 2261.5418,-213.9372 2271.6908,-203.2511 2280.0879,-194.7138"/>
<polygon fill="#191970" stroke="#191970" points="2282.6372,-197.1139 2287.2107,-187.557 2277.6757,-192.1759 2282.6372,-197.1139"/>
</g>
<!-- Node40 -->
<g id="node41" class="node">
<title>Node40</title>
<g id="a_node41"><a xlink:href="../../dd/da4/Logger_8h.html" target="_top" xlink:title="Framework/Logger.h">
<polygon fill="none" stroke="#000000" points="2295.5,-224.5 2295.5,-243.5 2410.5,-243.5 2410.5,-224.5 2295.5,-224.5"/>
<text text-anchor="middle" x="2353" y="-231.5" font-family="Helvetica,sans-Serif" font-size="10.00" fill="#000000">Framework/Logger.h</text>
</a>
</g>
</g>
<!-- Node0&#45;&gt;Node40 -->
<g id="edge56" class="edge">
<title>Node0&#45;&gt;Node40</title>
<path fill="none" stroke="#191970" d="M2249.4857,-280.3258C2274.2095,-269.2612 2301.9732,-256.8361 2322.5188,-247.6413"/>
<polygon fill="#191970" stroke="#191970" points="2323.9985,-250.8136 2331.6964,-243.534 2321.1391,-244.4243 2323.9985,-250.8136"/>
</g>
<!-- Node41 -->
<g id="node42" class="node">
<title>Node41</title>
<polygon fill="none" stroke="#bfbfbf" points="2428.5,-224.5 2428.5,-243.5 2513.5,-243.5 2513.5,-224.5 2428.5,-224.5"/>
<text text-anchor="middle" x="2471" y="-231.5" font-family="Helvetica,sans-Serif" font-size="10.00" fill="#000000">TTreeReader.h</text>
</g>
<!-- Node0&#45;&gt;Node41 -->
<g id="edge61" class="edge">
<title>Node0&#45;&gt;Node41</title>
<path fill="none" stroke="#191970" d="M2291.6908,-280.4283C2336.9768,-268.7024 2388.2343,-255.4304 2424.3128,-246.0887"/>
<polygon fill="#191970" stroke="#191970" points="2425.2653,-249.4575 2434.0687,-243.5626 2423.5106,-242.681 2425.2653,-249.4575"/>
</g>
<!-- Node42 -->
<g id="node43" class="node">
<title>Node42</title>
<polygon fill="none" stroke="#bfbfbf" points="2531.5,-224.5 2531.5,-243.5 2644.5,-243.5 2644.5,-224.5 2531.5,-224.5"/>
<text text-anchor="middle" x="2588" y="-231.5" font-family="Helvetica,sans-Serif" font-size="10.00" fill="#000000">TTreeReaderValue.h</text>
</g>
<!-- Node0&#45;&gt;Node42 -->
<g id="edge62" class="edge">
<title>Node0&#45;&gt;Node42</title>
<path fill="none" stroke="#191970" d="M2293.7537,-287.7352C2367.2037,-274.3217 2463.6528,-256.7083 2525.7408,-245.3698"/>
<polygon fill="#191970" stroke="#191970" points="2526.5722,-248.7759 2535.7808,-243.5363 2525.3146,-241.8898 2526.5722,-248.7759"/>
</g>
<!-- Node43 -->
<g id="node44" class="node">
<title>Node43</title>
<polygon fill="none" stroke="#bfbfbf" points="2663,-224.5 2663,-243.5 2773,-243.5 2773,-224.5 2663,-224.5"/>
<text text-anchor="middle" x="2718" y="-231.5" font-family="Helvetica,sans-Serif" font-size="10.00" fill="#000000">TTreeReaderArray.h</text>
</g>
<!-- Node0&#45;&gt;Node43 -->
<g id="edge63" class="edge">
<title>Node0&#45;&gt;Node43</title>
<path fill="none" stroke="#191970" d="M2293.6091,-293.2717C2385.1048,-281.3319 2522.9766,-262.9871 2652.7295,-244.1634"/>
<polygon fill="#191970" stroke="#191970" points="2653.4608,-247.5939 2662.853,-242.6913 2652.4534,-240.6668 2653.4608,-247.5939"/>
</g>
<!-- Node2 -->
<g id="node3" class="node">
<title>Node2</title>
<g id="a_node3"><a xlink:href="../../de/d33/ASoA_8h.html" target="_top" xlink:title="Framework/ASoA.h">
<polygon fill="none" stroke="#000000" points="1018,-168.5 1018,-187.5 1126,-187.5 1126,-168.5 1018,-168.5"/>
<text text-anchor="middle" x="1072" y="-175.5" font-family="Helvetica,sans-Serif" font-size="10.00" fill="#000000">Framework/ASoA.h</text>
</a>
</g>
</g>
<!-- Node1&#45;&gt;Node2 -->
<g id="edge2" class="edge">
<title>Node1&#45;&gt;Node2</title>
<path fill="none" stroke="#191970" d="M1550.9422,-226.765C1443.1651,-215.7914 1239.9759,-195.103 1136.3325,-184.5502"/>
<polygon fill="#191970" stroke="#191970" points="1136.6201,-181.0615 1126.317,-183.5305 1135.911,-188.0255 1136.6201,-181.0615"/>
</g>
<!-- Node8 -->
<g id="node9" class="node">
<title>Node8</title>
<g id="a_node9"><a xlink:href="../../de/d9b/FunctionalHelpers_8h.html" target="_top" xlink:title="Framework/FunctionalHelpers.h">
<polygon fill="none" stroke="#000000" points="372,-112.5 372,-131.5 542,-131.5 542,-112.5 372,-112.5"/>
<text text-anchor="middle" x="457" y="-119.5" font-family="Helvetica,sans-Serif" font-size="10.00" fill="#000000">Framework/FunctionalHelpers.h</text>
</a>
</g>
</g>
<!-- Node1&#45;&gt;Node8 -->
<g id="edge43" class="edge">
<title>Node1&#45;&gt;Node8</title>
<path fill="none" stroke="#191970" d="M1550.6545,-229.6707C1436.2444,-222.4978 1204.7134,-207.0342 1009,-188 841.4907,-171.7088 646.0695,-146.9893 538.4799,-132.882"/>
<polygon fill="#191970" stroke="#191970" points="538.7169,-129.3831 528.3461,-131.5505 537.8049,-136.3234 538.7169,-129.3831"/>
</g>
<!-- Node9 -->
<g id="node10" class="node">
<title>Node9</title>
<polygon fill="none" stroke="#bfbfbf" points="138.5,-56.5 138.5,-75.5 203.5,-75.5 203.5,-56.5 138.5,-56.5"/>
<text text-anchor="middle" x="171" y="-63.5" font-family="Helvetica,sans-Serif" font-size="10.00" fill="#000000">functional</text>
</g>
<!-- Node1&#45;&gt;Node9 -->
<g id="edge51" class="edge">
<title>Node1&#45;&gt;Node9</title>
<path fill="none" stroke="#191970" d="M1550.7183,-233.0572C1308.0258,-229.6029 522.8294,-216.3354 413,-188 390.2889,-182.1407 256.138,-111.3927 197.9278,-80.3949"/>
<polygon fill="#191970" stroke="#191970" points="199.4153,-77.2217 188.9444,-75.6056 196.1221,-83.3987 199.4153,-77.2217"/>
</g>
<!-- Node1&#45;&gt;Node19 -->
<g id="edge49" class="edge">
<title>Node1&#45;&gt;Node19</title>
<path fill="none" stroke="#191970" d="M1630.2719,-224.3817C1637.9993,-215.2451 1649.7056,-201.0093 1659,-188 1682.2241,-155.4932 1676.4486,-137.7422 1707,-112 1725.1093,-96.7413 1748.985,-85.9698 1769.9518,-78.7064"/>
<polygon fill="#191970" stroke="#191970" points="1771.253,-81.963 1779.6601,-75.5155 1769.0672,-75.313 1771.253,-81.963"/>
</g>
<!-- Node1&#45;&gt;Node24 -->
<g id="edge53" class="edge">
<title>Node1&#45;&gt;Node24</title>
<path fill="none" stroke="#191970" d="M1550.9443,-232.9722C1296.2162,-229.0844 437.5354,-214.1562 317,-188 212.4368,-165.3097 97.8117,-107.4592 47.7673,-80.3836"/>
<polygon fill="#191970" stroke="#191970" points="49.3701,-77.2711 38.9161,-75.5498 46.015,-83.4147 49.3701,-77.2711"/>
</g>
<!-- Node1&#45;&gt;Node25 -->
<g id="edge54" class="edge">
<title>Node1&#45;&gt;Node25</title>
<path fill="none" stroke="#191970" d="M1550.9753,-232.9783C1302.3971,-229.1849 480.3431,-214.732 365,-188 358.5957,-186.5157 191.702,-111.415 121.5774,-79.7973"/>
<polygon fill="#191970" stroke="#191970" points="122.9063,-76.5572 112.3516,-75.6367 120.0286,-82.9383 122.9063,-76.5572"/>
</g>
<!-- Node32 -->
<g id="node33" class="node">
<title>Node32</title>
<g id="a_node33"><a xlink:href="../../db/d4f/StructToTuple_8h.html" target="_top" xlink:title="Framework/StructToTuple.h">
<polygon fill="none" stroke="#000000" points="1749.5,-168.5 1749.5,-187.5 1896.5,-187.5 1896.5,-168.5 1749.5,-168.5"/>
<text text-anchor="middle" x="1823" y="-175.5" font-family="Helvetica,sans-Serif" font-size="10.00" fill="#000000">Framework/StructToTuple.h</text>
</a>
</g>
</g>
<!-- Node1&#45;&gt;Node32 -->
<g id="edge39" class="edge">
<title>Node1&#45;&gt;Node32</title>
<path fill="none" stroke="#191970" d="M1656.5531,-224.3733C1690.4104,-214.9404 1742.146,-200.5265 1778.9426,-190.2747"/>
<polygon fill="#191970" stroke="#191970" points="1780.204,-193.5566 1788.8978,-187.5011 1778.3253,-186.8135 1780.204,-193.5566"/>
</g>
<!-- Node1&#45;&gt;Node33 -->
<g id="edge55" class="edge">
<title>Node1&#45;&gt;Node33</title>
<path fill="none" stroke="#191970" d="M1693.2135,-229.1363C1765.4205,-223.0378 1871.1942,-210.5386 1905,-188 1921.5968,-176.9348 1932.7,-156.6311 1939.1184,-141.4539"/>
<polygon fill="#191970" stroke="#191970" points="1942.4551,-142.5307 1942.8235,-131.9423 1935.9325,-139.9899 1942.4551,-142.5307"/>
</g>
<!-- Node34 -->
<g id="node35" class="node">
<title>Node34</title>
<g id="a_node35"><a xlink:href="../../d7/dbe/VariantHelpers_8h.html" target="_top" xlink:title="Framework/VariantHelpers.h">
<polygon fill="none" stroke="#000000" points="422.5,-168.5 422.5,-187.5 577.5,-187.5 577.5,-168.5 422.5,-168.5"/>
<text text-anchor="middle" x="500" y="-175.5" font-family="Helvetica,sans-Serif" font-size="10.00" fill="#000000">Framework/VariantHelpers.h</text>
</a>
</g>
</g>
<!-- Node1&#45;&gt;Node34 -->
<g id="edge44" class="edge">
<title>Node1&#45;&gt;Node34</title>
<path fill="none" stroke="#191970" d="M1550.9627,-230.4545C1354.2928,-220.6385 803.019,-193.1239 587.717,-182.378"/>
<polygon fill="#191970" stroke="#191970" points="587.8833,-178.8821 577.7212,-181.8791 587.5343,-185.8734 587.8833,-178.8821"/>
</g>
<!-- Node35 -->
<g id="node36" class="node">
<title>Node35</title>
<polygon fill="none" stroke="#bfbfbf" points="1594,-168.5 1594,-187.5 1650,-187.5 1650,-168.5 1594,-168.5"/>
<text text-anchor="middle" x="1622" y="-175.5" font-family="Helvetica,sans-Serif" font-size="10.00" fill="#000000">sstream</text>
</g>
<!-- Node1&#45;&gt;Node35 -->
<g id="edge46" class="edge">
<title>Node1&#45;&gt;Node35</title>
<path fill="none" stroke="#191970" d="M1622,-224.2455C1622,-216.9382 1622,-206.6944 1622,-197.7046"/>
<polygon fill="#191970" stroke="#191970" points="1625.5001,-197.6426 1622,-187.6427 1618.5001,-197.6427 1625.5001,-197.6426"/>
</g>
<!-- Node1&#45;&gt;Node36 -->
<g id="edge47" class="edge">
<title>Node1&#45;&gt;Node36</title>
<path fill="none" stroke="#191970" d="M1693.0189,-224.9614C1757.3957,-216.4674 1854.8001,-202.8656 1939,-188 1940.2731,-187.7752 1941.5641,-187.5419 1942.8664,-187.3019"/>
<polygon fill="#191970" stroke="#191970" points="1943.8024,-190.6861 1952.9613,-185.3601 1942.4802,-183.8121 1943.8024,-190.6861"/>
</g>
<!-- Node1&#45;&gt;Node37 -->
<g id="edge48" class="edge">
<title>Node1&#45;&gt;Node37</title>
<path fill="none" stroke="#191970" d="M1693.2382,-226.8999C1772.6046,-218.7793 1904.9878,-204.6088 2029.1422,-188.0676"/>
<polygon fill="#191970" stroke="#191970" points="2029.7631,-191.5158 2039.2096,-186.7186 2028.8334,-184.5778 2029.7631,-191.5158"/>
</g>
<!-- Node1&#45;&gt;Node38 -->
<g id="edge50" class="edge">
<title>Node1&#45;&gt;Node38</title>
<path fill="none" stroke="#191970" d="M1693.2053,-230.0892C1794,-224.0618 1984.2148,-210.8813 2156.2663,-187.976"/>
<polygon fill="#191970" stroke="#191970" points="2156.8208,-191.433 2166.2649,-186.631 2155.8875,-184.4955 2156.8208,-191.433"/>
</g>
<!-- Node1&#45;&gt;Node39 -->
<g id="edge52" class="edge">
<title>Node1&#45;&gt;Node39</title>
<path fill="none" stroke="#191970" d="M1693.0976,-230.9914C1832.827,-224.7468 2139.7121,-209.3083 2263.4002,-187.8699"/>
<polygon fill="#191970" stroke="#191970" points="2264.1801,-191.2855 2273.3896,-186.0477 2262.9238,-184.3991 2264.1801,-191.2855"/>
</g>
<!-- Node3 -->
<g id="node4" class="node">
<title>Node3</title>
<g id="a_node4"><a xlink:href="../../dd/dce/Pack_8h.html" target="_top" xlink:title="Framework/Pack.h">
<polygon fill="none" stroke="#000000" points="404.5,-56.5 404.5,-75.5 509.5,-75.5 509.5,-56.5 404.5,-56.5"/>
<text text-anchor="middle" x="457" y="-63.5" font-family="Helvetica,sans-Serif" font-size="10.00" fill="#000000">Framework/Pack.h</text>
</a>
</g>
</g>
<!-- Node2&#45;&gt;Node3 -->
<g id="edge3" class="edge">
<title>Node2&#45;&gt;Node3</title>
<path fill="none" stroke="#191970" d="M1017.7086,-174.1762C917.0999,-166.7794 705.4381,-149.677 634,-132 610.7666,-126.251 606.3659,-120.521 584,-112 553.8205,-100.5021 519.3575,-88.0625 493.9539,-79.0219"/>
<polygon fill="#191970" stroke="#191970" points="494.9422,-75.6588 484.3475,-75.6115 492.6003,-82.2555 494.9422,-75.6588"/>
</g>
<!-- Node7 -->
<g id="node8" class="node">
<title>Node7</title>
<g id="a_node8"><a xlink:href="../../d1/d00/CheckTypes_8h.html" target="_top" xlink:title="Framework/CheckTypes.h">
<polygon fill="none" stroke="#000000" points="528,-56.5 528,-75.5 668,-75.5 668,-56.5 528,-56.5"/>
<text text-anchor="middle" x="598" y="-63.5" font-family="Helvetica,sans-Serif" font-size="10.00" fill="#000000">Framework/CheckTypes.h</text>
</a>
</g>
</g>
<!-- Node2&#45;&gt;Node7 -->
<g id="edge7" class="edge">
<title>Node2&#45;&gt;Node7</title>
<path fill="none" stroke="#191970" d="M1017.7079,-176.2354C921.6554,-172.3984 726.1293,-161.1687 665,-132 642.334,-121.1846 622.7181,-99.5399 610.6694,-83.9833"/>
<polygon fill="#191970" stroke="#191970" points="613.2563,-81.5963 604.4839,-75.6552 607.6367,-85.7701 613.2563,-81.5963"/>
</g>
<!-- Node2&#45;&gt;Node8 -->
<g id="edge8" class="edge">
<title>Node2&#45;&gt;Node8</title>
<path fill="none" stroke="#191970" d="M1017.7491,-173.3749C923.7051,-165.31 724.3255,-148.0036 556,-132 554.7183,-131.8781 553.4272,-131.7549 552.1286,-131.6305"/>
<polygon fill="#191970" stroke="#191970" points="552.3396,-128.1346 542.0492,-130.656 551.666,-135.1021 552.3396,-128.1346"/>
</g>
<!-- Node10 -->
<g id="node11" class="node">
<title>Node10</title>
<g id="a_node11"><a xlink:href="../../d9/de8/CompilerBuiltins_8h.html" target="_top" xlink:title="Framework/CompilerBuiltins.h">
<polygon fill="none" stroke="#000000" points="222,-56.5 222,-75.5 386,-75.5 386,-56.5 222,-56.5"/>
<text text-anchor="middle" x="304" y="-63.5" font-family="Helvetica,sans-Serif" font-size="10.00" fill="#000000">Framework/CompilerBuiltins.h</text>
</a>
</g>
</g>
<!-- Node2&#45;&gt;Node10 -->
<g id="edge11" class="edge">
<title>Node2&#45;&gt;Node10</title>
<path fill="none" stroke="#191970" d="M1017.9607,-174.2776C899.5251,-165.9217 624.3966,-145.3612 584,-132 567.7175,-126.6145 567.0233,-118.1136 551,-112 520.3577,-100.3086 440.4858,-86.48 379.7941,-77.0593"/>
<polygon fill="#191970" stroke="#191970" points="380.2643,-73.5905 369.8481,-75.528 379.1991,-80.509 380.2643,-73.5905"/>
</g>
<!-- Node11 -->
<g id="node12" class="node">
<title>Node11</title>
<g id="a_node12"><a xlink:href="../../db/d31/Traits_8h.html" target="_top" xlink:title="Framework/Traits.h">
<polygon fill="none" stroke="#000000" points="1759.5,-112.5 1759.5,-131.5 1868.5,-131.5 1868.5,-112.5 1759.5,-112.5"/>
<text text-anchor="middle" x="1814" y="-119.5" font-family="Helvetica,sans-Serif" font-size="10.00" fill="#000000">Framework/Traits.h</text>
</a>
</g>
</g>
<!-- Node2&#45;&gt;Node11 -->
<g id="edge12" class="edge">
<title>Node2&#45;&gt;Node11</title>
<path fill="none" stroke="#191970" d="M1126.2604,-173.9049C1260.0252,-163.8094 1605.1616,-137.7614 1749.2758,-126.8848"/>
<polygon fill="#191970" stroke="#191970" points="1749.5908,-130.3711 1759.299,-126.1284 1749.0639,-123.391 1749.5908,-130.3711"/>
</g>
<!-- Node13 -->
<g id="node14" class="node">
<title>Node13</title>
<g id="a_node14"><a xlink:href="../../d0/d91/Expressions_8h.html" target="_top" xlink:title="Framework/Expressions.h">
<polygon fill="none" stroke="#000000" points="674.5,-112.5 674.5,-131.5 815.5,-131.5 815.5,-112.5 674.5,-112.5"/>
<text text-anchor="middle" x="745" y="-119.5" font-family="Helvetica,sans-Serif" font-size="10.00" fill="#000000">Framework/Expressions.h</text>
</a>
</g>
</g>
<!-- Node2&#45;&gt;Node13 -->
<g id="edge14" class="edge">
<title>Node2&#45;&gt;Node13</title>
<path fill="none" stroke="#191970" d="M1017.6355,-168.6899C960.693,-158.9382 871.2478,-143.6204 810.4636,-133.2109"/>
<polygon fill="#191970" stroke="#191970" points="811.0363,-129.7581 800.589,-131.5198 809.8547,-136.6577 811.0363,-129.7581"/>
</g>
<!-- Node2&#45;&gt;Node19 -->
<g id="edge32" class="edge">
<title>Node2&#45;&gt;Node19</title>
<path fill="none" stroke="#191970" d="M1126.4254,-175.8455C1246.6884,-170.7001 1531.7721,-156.2832 1625,-132 1645.7874,-126.5855 1648.9191,-119.6282 1669,-112 1703.3342,-98.9574 1743.1227,-86.82 1772.9424,-78.2912"/>
<polygon fill="#191970" stroke="#191970" points="1773.9833,-81.6341 1782.6507,-75.541 1772.0753,-74.8991 1773.9833,-81.6341"/>
</g>
<!-- Node20 -->
<g id="node21" class="node">
<title>Node20</title>
<polygon fill="none" stroke="#bfbfbf" points="1612.5,-56.5 1612.5,-75.5 1759.5,-75.5 1759.5,-56.5 1612.5,-56.5"/>
<text text-anchor="middle" x="1686" y="-63.5" font-family="Helvetica,sans-Serif" font-size="10.00" fill="#000000">gandiva/selection_vector.h</text>
</g>
<!-- Node2&#45;&gt;Node20 -->
<g id="edge37" class="edge">
<title>Node2&#45;&gt;Node20</title>
<path fill="none" stroke="#191970" d="M1071.6162,-168.0659C1071.6441,-153.2507 1074.1305,-125.6514 1091,-112 1133.4704,-77.6314 1512.3656,-81.041 1602.1648,-75.8183"/>
<polygon fill="#191970" stroke="#191970" points="1602.5373,-79.3005 1612.2543,-75.0779 1602.0249,-72.3193 1602.5373,-79.3005"/>
</g>
<!-- Node26 -->
<g id="node27" class="node">
<title>Node26</title>
<g id="a_node27"><a xlink:href="../../d4/de7/ArrowTypes_8h.html" target="_top" xlink:title="Framework/ArrowTypes.h">
<polygon fill="none" stroke="#000000" points="904.5,-112.5 904.5,-131.5 1043.5,-131.5 1043.5,-112.5 904.5,-112.5"/>
<text text-anchor="middle" x="974" y="-119.5" font-family="Helvetica,sans-Serif" font-size="10.00" fill="#000000">Framework/ArrowTypes.h</text>
</a>
</g>
</g>
<!-- Node2&#45;&gt;Node26 -->
<g id="edge30" class="edge">
<title>Node2&#45;&gt;Node26</title>
<path fill="none" stroke="#191970" d="M1054.9297,-168.2455C1039.753,-159.5731 1017.3379,-146.7645 999.9437,-136.825"/>
<polygon fill="#191970" stroke="#191970" points="1001.2936,-133.5653 990.8747,-131.6427 997.8206,-139.643 1001.2936,-133.5653"/>
</g>
<!-- Node27 -->
<g id="node28" class="node">
<title>Node27</title>
<polygon fill="none" stroke="#bfbfbf" points="1100,-112.5 1100,-131.5 1180,-131.5 1180,-112.5 1100,-112.5"/>
<text text-anchor="middle" x="1140" y="-119.5" font-family="Helvetica,sans-Serif" font-size="10.00" fill="#000000">arrow/array.h</text>
</g>
<!-- Node2&#45;&gt;Node27 -->
<g id="edge33" class="edge">
<title>Node2&#45;&gt;Node27</title>
<path fill="none" stroke="#191970" d="M1083.8447,-168.2455C1093.888,-159.9746 1108.4995,-147.9416 1120.3004,-138.2232"/>
<polygon fill="#191970" stroke="#191970" points="1122.7967,-140.7015 1128.291,-131.6427 1118.3467,-135.298 1122.7967,-140.7015"/>
</g>
<!-- Node28 -->
<g id="node29" class="node">
<title>Node28</title>
<polygon fill="none" stroke="#bfbfbf" points="1198,-112.5 1198,-131.5 1308,-131.5 1308,-112.5 1198,-112.5"/>
<text text-anchor="middle" x="1253" y="-119.5" font-family="Helvetica,sans-Serif" font-size="10.00" fill="#000000">arrow/util/variant.h</text>
</g>
<!-- Node2&#45;&gt;Node28 -->
<g id="edge34" class="edge">
<title>Node2&#45;&gt;Node28</title>
<path fill="none" stroke="#191970" d="M1103.115,-168.3733C1133.3429,-159.021 1179.396,-144.7725 1212.4739,-134.5385"/>
<polygon fill="#191970" stroke="#191970" points="1213.7723,-137.8005 1222.291,-131.5011 1211.7033,-131.1133 1213.7723,-137.8005"/>
</g>
<!-- Node29 -->
<g id="node30" class="node">
<title>Node29</title>
<polygon fill="none" stroke="#bfbfbf" points="1326.5,-112.5 1326.5,-131.5 1465.5,-131.5 1465.5,-112.5 1326.5,-112.5"/>
<text text-anchor="middle" x="1396" y="-119.5" font-family="Helvetica,sans-Serif" font-size="10.00" fill="#000000">arrow/compute/context.h</text>
</g>
<!-- Node2&#45;&gt;Node29 -->
<g id="edge35" class="edge">
<title>Node2&#45;&gt;Node29</title>
<path fill="none" stroke="#191970" d="M1126.2303,-168.6269C1182.5126,-158.899 1270.5566,-143.6816 1330.643,-133.2963"/>
<polygon fill="#191970" stroke="#191970" points="1331.5212,-136.6965 1340.779,-131.5444 1330.3289,-129.7987 1331.5212,-136.6965"/>
</g>
<!-- Node30 -->
<g id="node31" class="node">
<title>Node30</title>
<polygon fill="none" stroke="#bfbfbf" points="1483.5,-112.5 1483.5,-131.5 1616.5,-131.5 1616.5,-112.5 1483.5,-112.5"/>
<text text-anchor="middle" x="1550" y="-119.5" font-family="Helvetica,sans-Serif" font-size="10.00" fill="#000000">arrow/compute/kernel.h</text>
</g>
<!-- Node2&#45;&gt;Node30 -->
<g id="edge36" class="edge">
<title>Node2&#45;&gt;Node30</title>
<path fill="none" stroke="#191970" d="M1126.0029,-172.1137C1201.2432,-163.8476 1342.1598,-148.131 1473.0703,-132.0974"/>
<polygon fill="#191970" stroke="#191970" points="1473.7812,-135.5365 1483.28,-130.8438 1472.928,-128.5887 1473.7812,-135.5365"/>
</g>
<!-- Node31 -->
<g id="node32" class="node">
<title>Node31</title>
<polygon fill="none" stroke="#bfbfbf" points="834,-112.5 834,-131.5 886,-131.5 886,-112.5 834,-112.5"/>
<text text-anchor="middle" x="860" y="-119.5" font-family="Helvetica,sans-Serif" font-size="10.00" fill="#000000">cassert</text>
</g>
<!-- Node2&#45;&gt;Node31 -->
<g id="edge38" class="edge">
<title>Node2&#45;&gt;Node31</title>
<path fill="none" stroke="#191970" d="M1034.2943,-168.4804C1000.5151,-159.8899 949.3712,-146.7311 896.2854,-132.3098"/>
<polygon fill="#191970" stroke="#191970" points="896.9227,-128.8559 886.3543,-129.6032 895.082,-135.6096 896.9227,-128.8559"/>
</g>
<!-- Node4 -->
<g id="node5" class="node">
<title>Node4</title>
<polygon fill="none" stroke="#bfbfbf" points="363.5,-.5 363.5,-19.5 416.5,-19.5 416.5,-.5 363.5,-.5"/>
<text text-anchor="middle" x="390" y="-7.5" font-family="Helvetica,sans-Serif" font-size="10.00" fill="#000000">cstddef</text>
</g>
<!-- Node3&#45;&gt;Node4 -->
<g id="edge4" class="edge">
<title>Node3&#45;&gt;Node4</title>
<path fill="none" stroke="#191970" d="M445.3295,-56.2455C435.4339,-47.9746 421.0373,-35.9416 409.4099,-26.2232"/>
<polygon fill="#191970" stroke="#191970" points="411.4542,-23.3703 401.5368,-19.6427 406.965,-28.7413 411.4542,-23.3703"/>
</g>
<!-- Node5 -->
<g id="node6" class="node">
<title>Node5</title>
<polygon fill="none" stroke="#bfbfbf" points="434.5,-.5 434.5,-19.5 479.5,-19.5 479.5,-.5 434.5,-.5"/>
<text text-anchor="middle" x="457" y="-7.5" font-family="Helvetica,sans-Serif" font-size="10.00" fill="#000000">utility</text>
</g>
<!-- Node3&#45;&gt;Node5 -->
<g id="edge5" class="edge">
<title>Node3&#45;&gt;Node5</title>
<path fill="none" stroke="#191970" d="M457,-56.2455C457,-48.9382 457,-38.6944 457,-29.7046"/>
<polygon fill="#191970" stroke="#191970" points="460.5001,-29.6426 457,-19.6427 453.5001,-29.6427 460.5001,-29.6426"/>
</g>
<!-- Node6 -->
<g id="node7" class="node">
<title>Node6</title>
<polygon fill="none" stroke="#bfbfbf" points="498,-.5 498,-19.5 544,-19.5 544,-.5 498,-.5"/>
<text text-anchor="middle" x="521" y="-7.5" font-family="Helvetica,sans-Serif" font-size="10.00" fill="#000000">cstdio</text>
</g>
<!-- Node3&#45;&gt;Node6 -->
<g id="edge6" class="edge">
<title>Node3&#45;&gt;Node6</title>
<path fill="none" stroke="#191970" d="M468.1479,-56.2455C477.5087,-48.0549 491.0858,-36.1749 502.1349,-26.5069"/>
<polygon fill="#191970" stroke="#191970" points="504.7588,-28.8618 509.9798,-19.6427 500.1492,-23.5937 504.7588,-28.8618"/>
</g>
<!-- Node8&#45;&gt;Node3 -->
<g id="edge9" class="edge">
<title>Node8&#45;&gt;Node3</title>
<path fill="none" stroke="#191970" d="M457,-112.2455C457,-104.9382 457,-94.6944 457,-85.7046"/>
<polygon fill="#191970" stroke="#191970" points="460.5001,-85.6426 457,-75.6427 453.5001,-85.6427 460.5001,-85.6426"/>
</g>
<!-- Node8&#45;&gt;Node9 -->
<g id="edge10" class="edge">
<title>Node8&#45;&gt;Node9</title>
<path fill="none" stroke="#191970" d="M402.0989,-112.4173C354.7745,-103.983 284.3878,-91.0253 213.5248,-76.0335"/>
<polygon fill="#191970" stroke="#191970" points="214.0345,-72.5636 203.5249,-73.9048 212.577,-79.4102 214.0345,-72.5636"/>
</g>
<!-- Node12 -->
<g id="node13" class="node">
<title>Node12</title>
<polygon fill="none" stroke="#bfbfbf" points="1876.5,-56.5 1876.5,-75.5 1945.5,-75.5 1945.5,-56.5 1876.5,-56.5"/>
<text text-anchor="middle" x="1911" y="-63.5" font-family="Helvetica,sans-Serif" font-size="10.00" fill="#000000">type_traits</text>
</g>
<!-- Node11&#45;&gt;Node12 -->
<g id="edge13" class="edge">
<title>Node11&#45;&gt;Node12</title>
<path fill="none" stroke="#191970" d="M1830.8961,-112.2455C1845.918,-103.5731 1868.1043,-90.7645 1885.321,-80.825"/>
<polygon fill="#191970" stroke="#191970" points="1887.3871,-83.6737 1894.2975,-75.6427 1883.8872,-77.6114 1887.3871,-83.6737"/>
</g>
<!-- Node13&#45;&gt;Node3 -->
<g id="edge17" class="edge">
<title>Node13&#45;&gt;Node3</title>
<path fill="none" stroke="#191970" d="M695.8183,-112.4369C646.0116,-102.7522 568.9615,-87.7703 515.9212,-77.4569"/>
<polygon fill="#191970" stroke="#191970" points="516.4631,-73.9968 505.9789,-75.5237 515.127,-80.8681 516.4631,-73.9968"/>
</g>
<!-- Node13&#45;&gt;Node7 -->
<g id="edge18" class="edge">
<title>Node13&#45;&gt;Node7</title>
<path fill="none" stroke="#191970" d="M719.7298,-112.3733C695.6034,-103.1822 659.0638,-89.2624 632.3123,-79.0713"/>
<polygon fill="#191970" stroke="#191970" points="633.5313,-75.7904 622.9404,-75.5011 631.0393,-82.3318 633.5313,-75.7904"/>
</g>
<!-- Node13&#45;&gt;Node10 -->
<g id="edge16" class="edge">
<title>Node13&#45;&gt;Node10</title>
<path fill="none" stroke="#191970" d="M674.1457,-113.0026C596.5477,-103.1489 472.1332,-87.3502 389.2536,-76.8259"/>
<polygon fill="#191970" stroke="#191970" points="389.4676,-73.325 379.1063,-75.5373 388.5857,-80.2692 389.4676,-73.325"/>
</g>
<!-- Node14 -->
<g id="node15" class="node">
<title>Node14</title>
<g id="a_node15"><a xlink:href="../../dd/dc2/BasicOps_8h.html" target="_top" xlink:title="Framework/BasicOps.h">
<polygon fill="none" stroke="#000000" points="1087,-56.5 1087,-75.5 1215,-75.5 1215,-56.5 1087,-56.5"/>
<text text-anchor="middle" x="1151" y="-63.5" font-family="Helvetica,sans-Serif" font-size="10.00" fill="#000000">Framework/BasicOps.h</text>
</a>
</g>
</g>
<!-- Node13&#45;&gt;Node14 -->
<g id="edge15" class="edge">
<title>Node13&#45;&gt;Node14</title>
<path fill="none" stroke="#191970" d="M814.3326,-112.4369C887.3363,-102.3674 1001.8585,-86.5712 1076.6864,-76.2502"/>
<polygon fill="#191970" stroke="#191970" points="1077.5451,-79.6649 1086.973,-74.8313 1076.5885,-72.7306 1077.5451,-79.6649"/>
</g>
<!-- Node15 -->
<g id="node16" class="node">
<title>Node15</title>
<polygon fill="none" stroke="#bfbfbf" points="1493.5,-56.5 1493.5,-75.5 1594.5,-75.5 1594.5,-56.5 1493.5,-56.5"/>
<text text-anchor="middle" x="1544" y="-63.5" font-family="Helvetica,sans-Serif" font-size="10.00" fill="#000000">arrow/type_fwd.h</text>
</g>
<!-- Node13&#45;&gt;Node15 -->
<g id="edge19" class="edge">
<title>Node13&#45;&gt;Node15</title>
<path fill="none" stroke="#191970" d="M815.6415,-112.8985C818.8023,-112.5768 821.933,-112.2751 825,-112 1113.8715,-86.0871 1190.7243,-107.6641 1483.2636,-75.9534"/>
<polygon fill="#191970" stroke="#191970" points="1483.7564,-79.4204 1493.3157,-74.8521 1482.994,-72.462 1483.7564,-79.4204"/>
</g>
<!-- Node16 -->
<g id="node17" class="node">
<title>Node16</title>
<polygon fill="none" stroke="#bfbfbf" points="1233,-56.5 1233,-75.5 1379,-75.5 1379,-56.5 1233,-56.5"/>
<text text-anchor="middle" x="1306" y="-63.5" font-family="Helvetica,sans-Serif" font-size="10.00" fill="#000000">gandiva/gandiva_aliases.h</text>
</g>
<!-- Node13&#45;&gt;Node16 -->
<g id="edge20" class="edge">
<title>Node13&#45;&gt;Node16</title>
<path fill="none" stroke="#191970" d="M815.6549,-113.0345C818.8121,-112.676 821.9383,-112.3294 825,-112 998.7474,-93.3081 1045.2275,-94.7189 1222.4992,-76.1311"/>
<polygon fill="#191970" stroke="#191970" points="1223.118,-79.5853 1232.6954,-75.0551 1222.3833,-72.624 1223.118,-79.5853"/>
</g>
<!-- Node17 -->
<g id="node18" class="node">
<title>Node17</title>
<polygon fill="none" stroke="#bfbfbf" points="1397,-56.5 1397,-75.5 1475,-75.5 1475,-56.5 1397,-56.5"/>
<text text-anchor="middle" x="1436" y="-63.5" font-family="Helvetica,sans-Serif" font-size="10.00" fill="#000000">arrow/type.h</text>
</g>
<!-- Node13&#45;&gt;Node17 -->
<g id="edge21" class="edge">
<title>Node13&#45;&gt;Node17</title>
<path fill="none" stroke="#191970" d="M815.6448,-112.9341C818.8047,-112.6028 821.9343,-112.2894 825,-112 1071.3329,-88.75 1137.7918,-109.1017 1386.7104,-75.997"/>
<polygon fill="#191970" stroke="#191970" points="1387.3415,-79.4437 1396.7854,-74.6413 1386.408,-72.5062 1387.3415,-79.4437"/>
</g>
<!-- Node18 -->
<g id="node19" class="node">
<title>Node18</title>
<polygon fill="none" stroke="#bfbfbf" points="686.5,-56.5 686.5,-75.5 781.5,-75.5 781.5,-56.5 686.5,-56.5"/>
<text text-anchor="middle" x="734" y="-63.5" font-family="Helvetica,sans-Serif" font-size="10.00" fill="#000000">gandiva/arrow.h</text>
</g>
<!-- Node13&#45;&gt;Node18 -->
<g id="edge22" class="edge">
<title>Node13&#45;&gt;Node18</title>
<path fill="none" stroke="#191970" d="M743.0839,-112.2455C741.6486,-104.9382 739.6364,-94.6944 737.8705,-85.7046"/>
<polygon fill="#191970" stroke="#191970" points="741.256,-84.7805 735.8941,-75.6427 734.3873,-86.1298 741.256,-84.7805"/>
</g>
<!-- Node13&#45;&gt;Node19 -->
<g id="edge23" class="edge">
<title>Node13&#45;&gt;Node19</title>
<path fill="none" stroke="#191970" d="M815.6361,-112.8353C818.7983,-112.5308 821.9308,-112.2499 825,-112 1239.6646,-78.2316 1349.7215,-124.526 1767.1941,-75.8806"/>
<polygon fill="#191970" stroke="#191970" points="1767.905,-79.3211 1777.4275,-74.6764 1767.0869,-72.3691 1767.905,-79.3211"/>
</g>
<!-- Node13&#45;&gt;Node20 -->
<g id="edge24" class="edge">
<title>Node13&#45;&gt;Node20</title>
<path fill="none" stroke="#191970" d="M815.6387,-112.8664C818.8002,-112.5534 821.9319,-112.2623 825,-112 1166.6054,-82.7911 1256.3439,-104.3037 1602.2164,-76"/>
<polygon fill="#191970" stroke="#191970" points="1602.5847,-79.4816 1612.2625,-75.1698 1602.0082,-72.5053 1602.5847,-79.4816"/>
</g>
<!-- Node21 -->
<g id="node22" class="node">
<title>Node21</title>
<polygon fill="none" stroke="#bfbfbf" points="800,-56.5 800,-75.5 892,-75.5 892,-56.5 800,-56.5"/>
<text text-anchor="middle" x="846" y="-63.5" font-family="Helvetica,sans-Serif" font-size="10.00" fill="#000000">gandiva/node.h</text>
</g>
<!-- Node13&#45;&gt;Node21 -->
<g id="edge25" class="edge">
<title>Node13&#45;&gt;Node21</title>
<path fill="none" stroke="#191970" d="M762.5929,-112.2455C778.379,-103.4928 801.7639,-90.527 819.7587,-80.5496"/>
<polygon fill="#191970" stroke="#191970" points="821.5603,-83.5528 828.6087,-75.6427 818.1659,-77.4308 821.5603,-83.5528"/>
</g>
<!-- Node22 -->
<g id="node23" class="node">
<title>Node22</title>
<polygon fill="none" stroke="#bfbfbf" points="910.5,-56.5 910.5,-75.5 999.5,-75.5 999.5,-56.5 910.5,-56.5"/>
<text text-anchor="middle" x="955" y="-63.5" font-family="Helvetica,sans-Serif" font-size="10.00" fill="#000000">gandiva/filter.h</text>
</g>
<!-- Node13&#45;&gt;Node22 -->
<g id="edge26" class="edge">
<title>Node13&#45;&gt;Node22</title>
<path fill="none" stroke="#191970" d="M781.1003,-112.3733C816.6248,-102.9001 870.988,-88.4032 909.4619,-78.1435"/>
<polygon fill="#191970" stroke="#191970" points="910.6103,-81.4596 919.3708,-75.5011 908.8066,-74.696 910.6103,-81.4596"/>
</g>
<!-- Node23 -->
<g id="node24" class="node">
<title>Node23</title>
<polygon fill="none" stroke="#bfbfbf" points="1017.5,-56.5 1017.5,-75.5 1068.5,-75.5 1068.5,-56.5 1017.5,-56.5"/>
<text text-anchor="middle" x="1043" y="-63.5" font-family="Helvetica,sans-Serif" font-size="10.00" fill="#000000">variant</text>
</g>
<!-- Node13&#45;&gt;Node23 -->
<g id="edge27" class="edge">
<title>Node13&#45;&gt;Node23</title>
<path fill="none" stroke="#191970" d="M810.7731,-112.4615C861.9104,-104.5951 934.777,-92.4056 1007.6523,-75.8826"/>
<polygon fill="#191970" stroke="#191970" points="1008.5023,-79.2786 1017.4662,-73.6308 1006.9368,-72.4559 1008.5023,-79.2786"/>
</g>
<!-- Node13&#45;&gt;Node24 -->
<g id="edge28" class="edge">
<title>Node13&#45;&gt;Node24</title>
<path fill="none" stroke="#191970" d="M674.2002,-118.2823C516.7618,-109.8791 144.9864,-89.2383 54.2428,-75.5878"/>
<polygon fill="#191970" stroke="#191970" points="54.6258,-72.1028 44.1805,-73.8762 53.4519,-79.0037 54.6258,-72.1028"/>
</g>
<!-- Node13&#45;&gt;Node25 -->
<g id="edge29" class="edge">
<title>Node13&#45;&gt;Node25</title>
<path fill="none" stroke="#191970" d="M674.3079,-118.351C539.4877,-111.1308 249.1796,-94.2619 130.2933,-75.898"/>
<polygon fill="#191970" stroke="#191970" points="130.7737,-72.4303 120.3432,-74.2887 129.656,-79.3405 130.7737,-72.4303"/>
</g>
<!-- Node26&#45;&gt;Node15 -->
<g id="edge31" class="edge">
<title>Node26&#45;&gt;Node15</title>
<path fill="none" stroke="#191970" d="M1043.6516,-113.5224C1048.5054,-112.9888 1053.3245,-112.4757 1058,-112 1243.8017,-93.0952 1293.7713,-99.4106 1483.2897,-75.9941"/>
<polygon fill="#191970" stroke="#191970" points="1483.8132,-79.456 1493.3032,-74.7454 1482.9469,-72.5098 1483.8132,-79.456"/>
</g>
<!-- Node32&#45;&gt;Node11 -->
<g id="edge40" class="edge">
<title>Node32&#45;&gt;Node11</title>
<path fill="none" stroke="#191970" d="M1821.4323,-168.2455C1820.2579,-160.9382 1818.6116,-150.6944 1817.1668,-141.7046"/>
<polygon fill="#191970" stroke="#191970" points="1820.5922,-140.9606 1815.5497,-131.6427 1813.6809,-142.0714 1820.5922,-140.9606"/>
</g>
<!-- Node32&#45;&gt;Node12 -->
<g id="edge42" class="edge">
<title>Node32&#45;&gt;Node12</title>
<path fill="none" stroke="#191970" d="M1837.2039,-168.3161C1848.9552,-159.7794 1865.5218,-146.4743 1877,-132 1888.36,-117.6748 1897.5694,-98.962 1903.5239,-85.1217"/>
<polygon fill="#191970" stroke="#191970" points="1906.8564,-86.2206 1907.4245,-75.641 1900.3829,-83.5571 1906.8564,-86.2206"/>
</g>
<!-- Node32&#45;&gt;Node33 -->
<g id="edge41" class="edge">
<title>Node32&#45;&gt;Node33</title>
<path fill="none" stroke="#191970" d="M1844.1445,-168.3733C1863.8892,-159.3838 1893.5698,-145.8706 1915.8055,-135.7471"/>
<polygon fill="#191970" stroke="#191970" points="1917.4806,-138.8302 1925.1315,-131.5011 1914.58,-132.4594 1917.4806,-138.8302"/>
</g>
<!-- Node34&#45;&gt;Node10 -->
<g id="edge45" class="edge">
<title>Node34&#45;&gt;Node10</title>
<path fill="none" stroke="#191970" d="M452.2566,-168.4181C424.6019,-161.3498 390.0258,-149.8085 363,-132 343.87,-119.3944 327.0142,-99.0917 316.2702,-84.3294"/>
<polygon fill="#191970" stroke="#191970" points="319.0142,-82.1467 310.4046,-75.9722 313.2846,-86.1681 319.0142,-82.1467"/>
</g>
</g>
</svg>
