<?xml version="1.0" encoding="UTF-8" standalone="no"?>
<!DOCTYPE svg PUBLIC "-//W3C//DTD SVG 1.1//EN"
 "http://www.w3.org/Graphics/SVG/1.1/DTD/svg11.dtd">
<!-- Generated by graphviz version 2.40.1 (20161225.0304)
 -->
<!-- Title: /home/travis/build/AliceO2Group/AliceO2/Detectors/MUON/MCH/Mapping/test/src/BenchSegmentation.cxx Pages: 1 -->
<svg width="729pt" height="251pt"
 viewBox="0.00 0.00 728.50 251.00" xmlns="http://www.w3.org/2000/svg" xmlns:xlink="http://www.w3.org/1999/xlink">
<g id="graph0" class="graph" transform="scale(1 1) rotate(0) translate(4 247)">
<title>/home/travis/build/AliceO2Group/AliceO2/Detectors/MUON/MCH/Mapping/test/src/BenchSegmentation.cxx</title>
<!-- Node0 -->
<g id="node1" class="node">
<title>Node0</title>
<polygon fill="#bfbfbf" stroke="#000000" points="203,-190.5 203,-242.5 380,-242.5 380,-190.5 203,-190.5"/>
<text text-anchor="start" x="211" y="-230.5" font-family="Helvetica,sans-Serif" font-size="10.00" fill="#000000">/home/travis/build</text>
<text text-anchor="start" x="211" y="-219.5" font-family="Helvetica,sans-Serif" font-size="10.00" fill="#000000">/AliceO2Group/AliceO2</text>
<text text-anchor="start" x="211" y="-208.5" font-family="Helvetica,sans-Serif" font-size="10.00" fill="#000000">/Detectors/MUON/MCH/Mapping</text>
<text text-anchor="middle" x="291.5" y="-197.5" font-family="Helvetica,sans-Serif" font-size="10.00" fill="#000000">/test/src/BenchSegmentation.cxx</text>
</g>
<!-- Node1 -->
<g id="node2" class="node">
<title>Node1</title>
<polygon fill="none" stroke="#bfbfbf" points="125.5,-129 125.5,-148 189.5,-148 189.5,-129 125.5,-129"/>
<text text-anchor="middle" x="157.5" y="-136" font-family="Helvetica,sans-Serif" font-size="10.00" fill="#000000">algorithm</text>
</g>
<!-- Node0&#45;&gt;Node1 -->
<g id="edge1" class="edge">
<title>Node0&#45;&gt;Node1</title>
<path fill="none" stroke="#191970" d="M246.5072,-190.3101C225.2705,-177.9485 200.7154,-163.6552 182.7826,-153.2167"/>
<polygon fill="#191970" stroke="#191970" points="184.4645,-150.146 174.0612,-148.1401 180.9429,-156.1957 184.4645,-150.146"/>
</g>
<!-- Node2 -->
<g id="node3" class="node">
<title>Node2</title>
<polygon fill="none" stroke="#bfbfbf" points="207.5,-129 207.5,-148 261.5,-148 261.5,-129 207.5,-129"/>
<text text-anchor="middle" x="234.5" y="-136" font-family="Helvetica,sans-Serif" font-size="10.00" fill="#000000">random</text>
</g>
<!-- Node0&#45;&gt;Node2 -->
<g id="edge2" class="edge">
<title>Node0&#45;&gt;Node2</title>
<path fill="none" stroke="#191970" d="M272.2024,-190.0928C264.0918,-178.994 254.8673,-166.371 247.5728,-156.389"/>
<polygon fill="#191970" stroke="#191970" points="250.2297,-154.0927 241.5036,-148.0839 244.5779,-158.2229 250.2297,-154.0927"/>
</g>
<!-- Node3 -->
<g id="node4" class="node">
<title>Node3</title>
<polygon fill="none" stroke="#bfbfbf" points="279.5,-129 279.5,-148 417.5,-148 417.5,-129 279.5,-129"/>
<text text-anchor="middle" x="348.5" y="-136" font-family="Helvetica,sans-Serif" font-size="10.00" fill="#000000">benchmark/benchmark.h</text>
</g>
<!-- Node0&#45;&gt;Node3 -->
<g id="edge3" class="edge">
<title>Node0&#45;&gt;Node3</title>
<path fill="none" stroke="#191970" d="M310.7976,-190.0928C318.9082,-178.994 328.1327,-166.371 335.4272,-156.389"/>
<polygon fill="#191970" stroke="#191970" points="338.4221,-158.2229 341.4964,-148.0839 332.7703,-154.0927 338.4221,-158.2229"/>
</g>
<!-- Node4 -->
<g id="node5" class="node">
<title>Node4</title>
<g id="a_node5"><a xlink:href="../../d6/d1f/MUON_2MCH_2Mapping_2Interface_2include_2MCHMappingInterface_2Segmentation_8h.html" target="_top" xlink:title="MCHMappingInterface\l/Segmentation.h">
<polygon fill="none" stroke="#000000" points="435.5,-123.5 435.5,-153.5 559.5,-153.5 559.5,-123.5 435.5,-123.5"/>
<text text-anchor="start" x="443.5" y="-141.5" font-family="Helvetica,sans-Serif" font-size="10.00" fill="#000000">MCHMappingInterface</text>
<text text-anchor="middle" x="497.5" y="-130.5" font-family="Helvetica,sans-Serif" font-size="10.00" fill="#000000">/Segmentation.h</text>
</a>
</g>
</g>
<!-- Node0&#45;&gt;Node4 -->
<g id="edge4" class="edge">
<title>Node0&#45;&gt;Node4</title>
<path fill="none" stroke="#191970" d="M360.3814,-190.4187C389.2369,-179.4928 422.1198,-167.042 448.4496,-157.0725"/>
<polygon fill="#191970" stroke="#191970" points="449.7214,-160.3335 457.834,-153.5192 447.2426,-153.7871 449.7214,-160.3335"/>
</g>
<!-- Node5 -->
<g id="node6" class="node">
<title>Node5</title>
<g id="a_node6"><a xlink:href="../../df/db6/CathodeSegmentation_8h.html" target="_top" xlink:title="MCHMappingInterface\l/CathodeSegmentation.h">
<polygon fill="none" stroke="#000000" points="360,-56.5 360,-86.5 497,-86.5 497,-56.5 360,-56.5"/>
<text text-anchor="start" x="368" y="-74.5" font-family="Helvetica,sans-Serif" font-size="10.00" fill="#000000">MCHMappingInterface</text>
<text text-anchor="middle" x="428.5" y="-63.5" font-family="Helvetica,sans-Serif" font-size="10.00" fill="#000000">/CathodeSegmentation.h</text>
</a>
</g>
</g>
<!-- Node4&#45;&gt;Node5 -->
<g id="edge5" class="edge">
<title>Node4&#45;&gt;Node5</title>
<path fill="none" stroke="#191970" d="M481.8428,-123.2967C472.8443,-114.559 461.3787,-103.4257 451.3852,-93.7218"/>
<polygon fill="#191970" stroke="#191970" points="453.7077,-91.0985 444.0952,-86.6432 448.8313,-96.1205 453.7077,-91.0985"/>
</g>
<!-- Node14 -->
<g id="node15" class="node">
<title>Node14</title>
<g id="a_node15"><a xlink:href="../../d0/d5f/Segmentation_8inl.html" target="_top" xlink:title="Segmentation.inl">
<polygon fill="none" stroke="#000000" points="515.5,-62 515.5,-81 615.5,-81 615.5,-62 515.5,-62"/>
<text text-anchor="middle" x="565.5" y="-69" font-family="Helvetica,sans-Serif" font-size="10.00" fill="#000000">Segmentation.inl</text>
</a>
</g>
</g>
<!-- Node4&#45;&gt;Node14 -->
<g id="edge14" class="edge">
<title>Node4&#45;&gt;Node14</title>
<path fill="none" stroke="#191970" d="M512.9303,-123.2967C523.525,-112.8578 537.5899,-98.9997 548.5054,-88.2446"/>
<polygon fill="#191970" stroke="#191970" points="551.1356,-90.5666 555.8024,-81.055 546.2227,-85.5804 551.1356,-90.5666"/>
</g>
<!-- Node6 -->
<g id="node7" class="node">
<title>Node6</title>
<g id="a_node7"><a xlink:href="../../d0/dc7/CathodeSegmentationCInterface_8h.html" target="_top" xlink:title="CathodeSegmentationCInterface.h">
<polygon fill="none" stroke="#000000" points="0,-.5 0,-19.5 185,-19.5 185,-.5 0,-.5"/>
<text text-anchor="middle" x="92.5" y="-7.5" font-family="Helvetica,sans-Serif" font-size="10.00" fill="#000000">CathodeSegmentationCInterface.h</text>
</a>
</g>
</g>
<!-- Node5&#45;&gt;Node6 -->
<g id="edge6" class="edge">
<title>Node5&#45;&gt;Node6</title>
<path fill="none" stroke="#191970" d="M359.6946,-58.9062C299.4722,-47.8833 212.7555,-32.011 154.6093,-21.3682"/>
<polygon fill="#191970" stroke="#191970" points="154.9235,-17.8677 144.4567,-19.5099 153.6631,-24.7533 154.9235,-17.8677"/>
</g>
<!-- Node7 -->
<g id="node8" class="node">
<title>Node7</title>
<polygon fill="none" stroke="#bfbfbf" points="203,-.5 203,-19.5 268,-19.5 268,-.5 203,-.5"/>
<text text-anchor="middle" x="235.5" y="-7.5" font-family="Helvetica,sans-Serif" font-size="10.00" fill="#000000">stdexcept</text>
</g>
<!-- Node5&#45;&gt;Node7 -->
<g id="edge7" class="edge">
<title>Node5&#45;&gt;Node7</title>
<path fill="none" stroke="#191970" d="M381.2869,-56.4554C348.6606,-46.059 305.7596,-32.3884 274.9559,-22.5727"/>
<polygon fill="#191970" stroke="#191970" points="275.9988,-19.2317 265.4081,-19.5303 273.8735,-25.9013 275.9988,-19.2317"/>
</g>
<!-- Node8 -->
<g id="node9" class="node">
<title>Node8</title>
<polygon fill="none" stroke="#bfbfbf" points="286.5,-.5 286.5,-19.5 344.5,-19.5 344.5,-.5 286.5,-.5"/>
<text text-anchor="middle" x="315.5" y="-7.5" font-family="Helvetica,sans-Serif" font-size="10.00" fill="#000000">memory</text>
</g>
<!-- Node5&#45;&gt;Node8 -->
<g id="edge8" class="edge">
<title>Node5&#45;&gt;Node8</title>
<path fill="none" stroke="#191970" d="M400.8571,-56.4554C382.9951,-46.734 359.8732,-34.15 342.2005,-24.5317"/>
<polygon fill="#191970" stroke="#191970" points="343.4675,-21.2365 333.011,-19.5303 340.1213,-27.3849 343.4675,-21.2365"/>
</g>
<!-- Node9 -->
<g id="node10" class="node">
<title>Node9</title>
<polygon fill="none" stroke="#bfbfbf" points="362.5,-.5 362.5,-19.5 422.5,-19.5 422.5,-.5 362.5,-.5"/>
<text text-anchor="middle" x="392.5" y="-7.5" font-family="Helvetica,sans-Serif" font-size="10.00" fill="#000000">iostream</text>
</g>
<!-- Node5&#45;&gt;Node9 -->
<g id="edge9" class="edge">
<title>Node5&#45;&gt;Node9</title>
<path fill="none" stroke="#191970" d="M419.6011,-56.2977C414.7081,-47.9388 408.5974,-37.4997 403.4176,-28.6509"/>
<polygon fill="#191970" stroke="#191970" points="406.3365,-26.7089 398.2641,-19.8469 400.2953,-30.2452 406.3365,-26.7089"/>
</g>
<!-- Node10 -->
<g id="node11" class="node">
<title>Node10</title>
<polygon fill="none" stroke="#bfbfbf" points="441,-.5 441,-19.5 488,-19.5 488,-.5 441,-.5"/>
<text text-anchor="middle" x="464.5" y="-7.5" font-family="Helvetica,sans-Serif" font-size="10.00" fill="#000000">vector</text>
</g>
<!-- Node5&#45;&gt;Node10 -->
<g id="edge10" class="edge">
<title>Node5&#45;&gt;Node10</title>
<path fill="none" stroke="#191970" d="M437.3989,-56.2977C442.2919,-47.9388 448.4026,-37.4997 453.5824,-28.6509"/>
<polygon fill="#191970" stroke="#191970" points="456.7047,-30.2452 458.7359,-19.8469 450.6635,-26.7089 456.7047,-30.2452"/>
</g>
<!-- Node11 -->
<g id="node12" class="node">
<title>Node11</title>
<polygon fill="none" stroke="#bfbfbf" points="506.5,-.5 506.5,-19.5 562.5,-19.5 562.5,-.5 506.5,-.5"/>
<text text-anchor="middle" x="534.5" y="-7.5" font-family="Helvetica,sans-Serif" font-size="10.00" fill="#000000">sstream</text>
</g>
<!-- Node5&#45;&gt;Node11 -->
<g id="edge11" class="edge">
<title>Node5&#45;&gt;Node11</title>
<path fill="none" stroke="#191970" d="M454.4305,-56.4554C471.0309,-46.8241 492.4744,-34.3828 508.9917,-24.7996"/>
<polygon fill="#191970" stroke="#191970" points="511.1806,-27.5761 518.0738,-19.5303 507.6677,-21.5214 511.1806,-27.5761"/>
</g>
<!-- Node12 -->
<g id="node13" class="node">
<title>Node12</title>
<polygon fill="none" stroke="#bfbfbf" points="581,-.5 581,-19.5 646,-19.5 646,-.5 581,-.5"/>
<text text-anchor="middle" x="613.5" y="-7.5" font-family="Helvetica,sans-Serif" font-size="10.00" fill="#000000">functional</text>
</g>
<!-- Node5&#45;&gt;Node12 -->
<g id="edge12" class="edge">
<title>Node5&#45;&gt;Node12</title>
<path fill="none" stroke="#191970" d="M473.7561,-56.4554C504.8946,-46.104 545.7969,-32.5067 575.2955,-22.7004"/>
<polygon fill="#191970" stroke="#191970" points="576.4463,-26.0063 584.8316,-19.5303 574.238,-19.3637 576.4463,-26.0063"/>
</g>
<!-- Node13 -->
<g id="node14" class="node">
<title>Node13</title>
<polygon fill="none" stroke="#bfbfbf" points="664.5,-.5 664.5,-19.5 720.5,-19.5 720.5,-.5 664.5,-.5"/>
<text text-anchor="middle" x="692.5" y="-7.5" font-family="Helvetica,sans-Serif" font-size="10.00" fill="#000000">iomanip</text>
</g>
<!-- Node5&#45;&gt;Node13 -->
<g id="edge13" class="edge">
<title>Node5&#45;&gt;Node13</title>
<path fill="none" stroke="#191970" d="M497.2141,-56.6767C539.9445,-47.2803 596.2441,-34.5792 654.5031,-20.1827"/>
<polygon fill="#191970" stroke="#191970" points="655.3873,-23.5695 664.2492,-17.7629 653.7004,-16.7758 655.3873,-23.5695"/>
</g>
</g>
</svg>
