<?xml version="1.0" encoding="UTF-8" standalone="no"?>
<!DOCTYPE svg PUBLIC "-//W3C//DTD SVG 1.1//EN"
 "http://www.w3.org/Graphics/SVG/1.1/DTD/svg11.dtd">
<!-- Generated by graphviz version 2.40.1 (20161225.0304)
 -->
<!-- Title: /home/travis/build/AliceO2Group/AliceO2/Detectors/HMPID/base/include/HMPIDBase/Digit.h Pages: 1 -->
<svg width="1798pt" height="374pt"
 viewBox="0.00 0.00 1797.50 374.00" xmlns="http://www.w3.org/2000/svg" xmlns:xlink="http://www.w3.org/1999/xlink">
<g id="graph0" class="graph" transform="scale(1 1) rotate(0) translate(4 370)">
<title>/home/travis/build/AliceO2Group/AliceO2/Detectors/HMPID/base/include/HMPIDBase/Digit.h</title>
<!-- Node0 -->
<g id="node1" class="node">
<title>Node0</title>
<polygon fill="#bfbfbf" stroke="#000000" points="1269,-313.5 1269,-365.5 1418,-365.5 1418,-313.5 1269,-313.5"/>
<text text-anchor="start" x="1277" y="-353.5" font-family="Helvetica,sans-Serif" font-size="10.00" fill="#000000">/home/travis/build</text>
<text text-anchor="start" x="1277" y="-342.5" font-family="Helvetica,sans-Serif" font-size="10.00" fill="#000000">/AliceO2Group/AliceO2</text>
<text text-anchor="start" x="1277" y="-331.5" font-family="Helvetica,sans-Serif" font-size="10.00" fill="#000000">/Detectors/HMPID/base</text>
<text text-anchor="middle" x="1343.5" y="-320.5" font-family="Helvetica,sans-Serif" font-size="10.00" fill="#000000">/include/HMPIDBase/Digit.h</text>
</g>
<!-- Node1 -->
<g id="node2" class="node">
<title>Node1</title>
<g id="a_node2"><a xlink:href="../../df/d5d/common_2include_2CommonDataFormat_2TimeStamp_8h.html" target="_top" xlink:title="CommonDataFormat/TimeStamp.h">
<polygon fill="none" stroke="#000000" points="444,-257.5 444,-276.5 631,-276.5 631,-257.5 444,-257.5"/>
<text text-anchor="middle" x="537.5" y="-264.5" font-family="Helvetica,sans-Serif" font-size="10.00" fill="#000000">CommonDataFormat/TimeStamp.h</text>
</a>
</g>
</g>
<!-- Node0&#45;&gt;Node1 -->
<g id="edge1" class="edge">
<title>Node0&#45;&gt;Node1</title>
<path fill="none" stroke="#191970" d="M1268.7581,-332.7769C1124.2663,-319.7798 806.3517,-291.1833 641.3919,-276.3451"/>
<polygon fill="#191970" stroke="#191970" points="641.508,-272.8415 631.2347,-275.4315 640.8809,-279.8134 641.508,-272.8415"/>
</g>
<!-- Node7 -->
<g id="node8" class="node">
<title>Node7</title>
<g id="a_node8"><a xlink:href="../../d5/deb/Detectors_2HMPID_2base_2include_2HMPIDBase_2Hit_8h.html" target="_top" xlink:title="HMPIDBase/Hit.h">
<polygon fill="none" stroke="#000000" points="1240,-257.5 1240,-276.5 1339,-276.5 1339,-257.5 1240,-257.5"/>
<text text-anchor="middle" x="1289.5" y="-264.5" font-family="Helvetica,sans-Serif" font-size="10.00" fill="#000000">HMPIDBase/Hit.h</text>
</a>
</g>
</g>
<!-- Node0&#45;&gt;Node7 -->
<g id="edge7" class="edge">
<title>Node0&#45;&gt;Node7</title>
<path fill="none" stroke="#191970" d="M1324.0048,-313.3258C1316.9195,-303.8132 1309.0853,-293.2951 1302.6749,-284.6886"/>
<polygon fill="#191970" stroke="#191970" points="1305.3816,-282.4632 1296.6012,-276.534 1299.7677,-286.6446 1305.3816,-282.4632"/>
</g>
<!-- Node27 -->
<g id="node28" class="node">
<title>Node27</title>
<g id="a_node28"><a xlink:href="../../de/d16/Param_8h.html" target="_top" xlink:title="HMPIDBase/Param.h">
<polygon fill="none" stroke="#000000" points="1442.5,-257.5 1442.5,-276.5 1558.5,-276.5 1558.5,-257.5 1442.5,-257.5"/>
<text text-anchor="middle" x="1500.5" y="-264.5" font-family="Helvetica,sans-Serif" font-size="10.00" fill="#000000">HMPIDBase/Param.h</text>
</a>
</g>
</g>
<!-- Node0&#45;&gt;Node27 -->
<g id="edge28" class="edge">
<title>Node0&#45;&gt;Node27</title>
<path fill="none" stroke="#191970" d="M1400.1806,-313.3258C1424.0329,-302.3112 1450.8047,-289.9485 1470.6889,-280.7663"/>
<polygon fill="#191970" stroke="#191970" points="1472.2426,-283.904 1479.854,-276.534 1469.3078,-277.5489 1472.2426,-283.904"/>
</g>
<!-- Node29 -->
<g id="node30" class="node">
<title>Node29</title>
<polygon fill="none" stroke="#bfbfbf" points="1387.5,-196 1387.5,-215 1443.5,-215 1443.5,-196 1387.5,-196"/>
<text text-anchor="middle" x="1415.5" y="-203" font-family="Helvetica,sans-Serif" font-size="10.00" fill="#000000">TMath.h</text>
</g>
<!-- Node0&#45;&gt;Node29 -->
<g id="edge34" class="edge">
<title>Node0&#45;&gt;Node29</title>
<path fill="none" stroke="#191970" d="M1357.5532,-313.3453C1371.6619,-287.0875 1393.043,-247.2949 1405.5062,-224.0995"/>
<polygon fill="#191970" stroke="#191970" points="1408.6043,-225.7282 1410.2544,-215.2626 1402.4381,-222.415 1408.6043,-225.7282"/>
</g>
<!-- Node2 -->
<g id="node3" class="node">
<title>Node2</title>
<g id="a_node3"><a xlink:href="../../d2/d45/GPUCommonRtypes_8h.html" target="_top" xlink:title="GPUCommonRtypes.h">
<polygon fill="none" stroke="#000000" points="122,-134.5 122,-153.5 247,-153.5 247,-134.5 122,-134.5"/>
<text text-anchor="middle" x="184.5" y="-141.5" font-family="Helvetica,sans-Serif" font-size="10.00" fill="#000000">GPUCommonRtypes.h</text>
</a>
</g>
</g>
<!-- Node1&#45;&gt;Node2 -->
<g id="edge2" class="edge">
<title>Node1&#45;&gt;Node2</title>
<path fill="none" stroke="#191970" d="M510.0944,-257.4507C447.2809,-235.5639 292.8579,-181.7565 221.6141,-156.9321"/>
<polygon fill="#191970" stroke="#191970" points="222.7263,-153.6133 212.1315,-153.628 220.423,-160.2235 222.7263,-153.6133"/>
</g>
<!-- Node4 -->
<g id="node5" class="node">
<title>Node4</title>
<g id="a_node5"><a xlink:href="../../df/d21/GPUCommonDef_8h.html" target="_top" xlink:title="GPUCommonDef.h">
<polygon fill="none" stroke="#000000" points="484,-196 484,-215 591,-215 591,-196 484,-196"/>
<text text-anchor="middle" x="537.5" y="-203" font-family="Helvetica,sans-Serif" font-size="10.00" fill="#000000">GPUCommonDef.h</text>
</a>
</g>
</g>
<!-- Node1&#45;&gt;Node4 -->
<g id="edge4" class="edge">
<title>Node1&#45;&gt;Node4</title>
<path fill="none" stroke="#191970" d="M537.5,-257.3906C537.5,-248.8657 537.5,-236.1392 537.5,-225.4235"/>
<polygon fill="#191970" stroke="#191970" points="541.0001,-225.2448 537.5,-215.2449 534.0001,-225.2449 541.0001,-225.2448"/>
</g>
<!-- Node3 -->
<g id="node4" class="node">
<title>Node3</title>
<polygon fill="none" stroke="#bfbfbf" points="0,-73 0,-92 59,-92 59,-73 0,-73"/>
<text text-anchor="middle" x="29.5" y="-80" font-family="Helvetica,sans-Serif" font-size="10.00" fill="#000000">Rtypes.h</text>
</g>
<!-- Node2&#45;&gt;Node3 -->
<g id="edge3" class="edge">
<title>Node2&#45;&gt;Node3</title>
<path fill="none" stroke="#191970" d="M160.5041,-134.4906C137.0448,-125.1923 100.3146,-110.6302 68.5,-98 66.6716,-97.2741 64.7951,-96.529 62.9009,-95.7766"/>
<polygon fill="#191970" stroke="#191970" points="64.0097,-92.4511 53.424,-92.0116 61.4251,-98.9565 64.0097,-92.4511"/>
</g>
<!-- Node5 -->
<g id="node6" class="node">
<title>Node5</title>
<g id="a_node6"><a xlink:href="../../d5/d93/GPUCommonDefSettings_8h.html" target="_top" xlink:title="GPUCommonDefSettings.h">
<polygon fill="none" stroke="#000000" points="386.5,-134.5 386.5,-153.5 534.5,-153.5 534.5,-134.5 386.5,-134.5"/>
<text text-anchor="middle" x="460.5" y="-141.5" font-family="Helvetica,sans-Serif" font-size="10.00" fill="#000000">GPUCommonDefSettings.h</text>
</a>
</g>
</g>
<!-- Node4&#45;&gt;Node5 -->
<g id="edge5" class="edge">
<title>Node4&#45;&gt;Node5</title>
<path fill="none" stroke="#191970" d="M525.4688,-195.8906C513.4893,-186.3227 494.8834,-171.4621 480.6475,-160.0919"/>
<polygon fill="#191970" stroke="#191970" points="482.4447,-157.0479 472.4468,-153.5419 478.0761,-162.5175 482.4447,-157.0479"/>
</g>
<!-- Node6 -->
<g id="node7" class="node">
<title>Node6</title>
<g id="a_node7"><a xlink:href="../../da/d5a/GPUCommonDefAPI_8h.html" target="_top" xlink:title="GPUCommonDefAPI.h">
<polygon fill="none" stroke="#000000" points="552.5,-134.5 552.5,-153.5 676.5,-153.5 676.5,-134.5 552.5,-134.5"/>
<text text-anchor="middle" x="614.5" y="-141.5" font-family="Helvetica,sans-Serif" font-size="10.00" fill="#000000">GPUCommonDefAPI.h</text>
</a>
</g>
</g>
<!-- Node4&#45;&gt;Node6 -->
<g id="edge6" class="edge">
<title>Node4&#45;&gt;Node6</title>
<path fill="none" stroke="#191970" d="M549.5313,-195.8906C561.5107,-186.3227 580.1166,-171.4621 594.3525,-160.0919"/>
<polygon fill="#191970" stroke="#191970" points="596.9239,-162.5175 602.5532,-153.5419 592.5553,-157.0479 596.9239,-162.5175"/>
</g>
<!-- Node8 -->
<g id="node9" class="node">
<title>Node8</title>
<g id="a_node9"><a xlink:href="../../d4/d25/BaseHits_8h.html" target="_top" xlink:title="SimulationDataFormat\l/BaseHits.h">
<polygon fill="none" stroke="#000000" points="830,-190.5 830,-220.5 957,-220.5 957,-190.5 830,-190.5"/>
<text text-anchor="start" x="838" y="-208.5" font-family="Helvetica,sans-Serif" font-size="10.00" fill="#000000">SimulationDataFormat</text>
<text text-anchor="middle" x="893.5" y="-197.5" font-family="Helvetica,sans-Serif" font-size="10.00" fill="#000000">/BaseHits.h</text>
</a>
</g>
</g>
<!-- Node7&#45;&gt;Node8 -->
<g id="edge8" class="edge">
<title>Node7&#45;&gt;Node8</title>
<path fill="none" stroke="#191970" d="M1239.7473,-259.2733C1171.0201,-248.5997 1046.5348,-229.2668 967.05,-216.9225"/>
<polygon fill="#191970" stroke="#191970" points="967.5249,-213.4544 957.1062,-215.3782 966.4506,-220.3715 967.5249,-213.4544"/>
</g>
<!-- Node20 -->
<g id="node21" class="node">
<title>Node20</title>
<g id="a_node21"><a xlink:href="../../d0/d91/ShmAllocator_8h.html" target="_top" xlink:title="CommonUtils/ShmAllocator.h">
<polygon fill="none" stroke="#000000" points="1209.5,-196 1209.5,-215 1369.5,-215 1369.5,-196 1209.5,-196"/>
<text text-anchor="middle" x="1289.5" y="-203" font-family="Helvetica,sans-Serif" font-size="10.00" fill="#000000">CommonUtils/ShmAllocator.h</text>
</a>
</g>
</g>
<!-- Node7&#45;&gt;Node20 -->
<g id="edge21" class="edge">
<title>Node7&#45;&gt;Node20</title>
<path fill="none" stroke="#191970" d="M1289.5,-257.3906C1289.5,-248.8657 1289.5,-236.1392 1289.5,-225.4235"/>
<polygon fill="#191970" stroke="#191970" points="1293.0001,-225.2448 1289.5,-215.2449 1286.0001,-225.2449 1293.0001,-225.2448"/>
</g>
<!-- Node9 -->
<g id="node10" class="node">
<title>Node9</title>
<g id="a_node10"><a xlink:href="../../dd/d76/Cartesian3D_8h.html" target="_top" xlink:title="MathUtils/Cartesian3D.h">
<polygon fill="none" stroke="#000000" points="756,-134.5 756,-153.5 891,-153.5 891,-134.5 756,-134.5"/>
<text text-anchor="middle" x="823.5" y="-141.5" font-family="Helvetica,sans-Serif" font-size="10.00" fill="#000000">MathUtils/Cartesian3D.h</text>
</a>
</g>
</g>
<!-- Node8&#45;&gt;Node9 -->
<g id="edge9" class="edge">
<title>Node8&#45;&gt;Node9</title>
<path fill="none" stroke="#191970" d="M876.1966,-190.2977C865.9738,-181.3163 853.0177,-169.9334 842.5104,-160.702"/>
<polygon fill="#191970" stroke="#191970" points="844.5305,-157.8178 834.7079,-153.8469 839.9103,-163.0766 844.5305,-157.8178"/>
</g>
<!-- Node9&#45;&gt;Node3 -->
<g id="edge15" class="edge">
<title>Node9&#45;&gt;Node3</title>
<path fill="none" stroke="#191970" d="M755.7791,-138.9021C733.4082,-137.2689 708.3913,-135.4971 685.5,-134 411.397,-116.0731 336.6702,-157.486 68.5,-98 65.6325,-97.3639 62.7011,-96.5438 59.7969,-95.6134"/>
<polygon fill="#191970" stroke="#191970" points="60.7548,-92.2382 50.1605,-92.1324 58.3765,-98.8218 60.7548,-92.2382"/>
</g>
<!-- Node10 -->
<g id="node11" class="node">
<title>Node10</title>
<polygon fill="none" stroke="#bfbfbf" points="77.5,-67.5 77.5,-97.5 241.5,-97.5 241.5,-67.5 77.5,-67.5"/>
<text text-anchor="start" x="85.5" y="-85.5" font-family="Helvetica,sans-Serif" font-size="10.00" fill="#000000">Math/GenVector/Displacement</text>
<text text-anchor="middle" x="159.5" y="-74.5" font-family="Helvetica,sans-Serif" font-size="10.00" fill="#000000">Vector3D.h</text>
</g>
<!-- Node9&#45;&gt;Node10 -->
<g id="edge10" class="edge">
<title>Node9&#45;&gt;Node10</title>
<path fill="none" stroke="#191970" d="M755.8721,-138.9101C621.959,-128.7844 329.8911,-106.4513 252.0374,-98.0353"/>
<polygon fill="#191970" stroke="#191970" points="252.1269,-94.5224 241.7915,-96.8527 251.3242,-101.4763 252.1269,-94.5224"/>
</g>
<!-- Node11 -->
<g id="node12" class="node">
<title>Node11</title>
<polygon fill="none" stroke="#bfbfbf" points="260,-73 260,-92 449,-92 449,-73 260,-73"/>
<text text-anchor="middle" x="354.5" y="-80" font-family="Helvetica,sans-Serif" font-size="10.00" fill="#000000">Math/GenVector/PositionVector3D.h</text>
</g>
<!-- Node9&#45;&gt;Node11 -->
<g id="edge11" class="edge">
<title>Node9&#45;&gt;Node11</title>
<path fill="none" stroke="#191970" d="M755.8321,-135.9357C682.5125,-127.0895 562.1109,-112.2481 458.5,-98 448.2899,-96.596 437.525,-95.0573 426.9466,-93.5118"/>
<polygon fill="#191970" stroke="#191970" points="427.2888,-90.0245 416.8859,-92.032 426.2701,-96.95 427.2888,-90.0245"/>
</g>
<!-- Node12 -->
<g id="node13" class="node">
<title>Node12</title>
<polygon fill="none" stroke="#bfbfbf" points="467.5,-73 467.5,-92 627.5,-92 627.5,-73 467.5,-73"/>
<text text-anchor="middle" x="547.5" y="-80" font-family="Helvetica,sans-Serif" font-size="10.00" fill="#000000">Math/GenVector/Rotation3D.h</text>
</g>
<!-- Node9&#45;&gt;Node12 -->
<g id="edge12" class="edge">
<title>Node9&#45;&gt;Node12</title>
<path fill="none" stroke="#191970" d="M780.6778,-134.4581C732.03,-123.6181 652.615,-105.9224 600.2042,-94.2439"/>
<polygon fill="#191970" stroke="#191970" points="600.9445,-90.8231 590.4226,-92.0643 599.422,-97.6555 600.9445,-90.8231"/>
</g>
<!-- Node13 -->
<g id="node14" class="node">
<title>Node13</title>
<polygon fill="none" stroke="#bfbfbf" points="645.5,-73 645.5,-92 813.5,-92 813.5,-73 645.5,-73"/>
<text text-anchor="middle" x="729.5" y="-80" font-family="Helvetica,sans-Serif" font-size="10.00" fill="#000000">Math/GenVector/Transform3D.h</text>
</g>
<!-- Node9&#45;&gt;Node13 -->
<g id="edge13" class="edge">
<title>Node9&#45;&gt;Node13</title>
<path fill="none" stroke="#191970" d="M808.8125,-134.3906C793.7744,-124.5519 770.1824,-109.1167 752.6333,-97.6351"/>
<polygon fill="#191970" stroke="#191970" points="754.3687,-94.588 744.0844,-92.0419 750.5363,-100.4457 754.3687,-94.588"/>
</g>
<!-- Node14 -->
<g id="node15" class="node">
<title>Node14</title>
<polygon fill="none" stroke="#bfbfbf" points="832,-73 832,-92 1005,-92 1005,-73 832,-73"/>
<text text-anchor="middle" x="918.5" y="-80" font-family="Helvetica,sans-Serif" font-size="10.00" fill="#000000">Math/GenVector/Translation3D.h</text>
</g>
<!-- Node9&#45;&gt;Node14 -->
<g id="edge14" class="edge">
<title>Node9&#45;&gt;Node14</title>
<path fill="none" stroke="#191970" d="M838.3438,-134.3906C853.5418,-124.5519 877.3848,-109.1167 895.1206,-97.6351"/>
<polygon fill="#191970" stroke="#191970" points="897.268,-100.4144 903.7605,-92.0419 893.4639,-94.5382 897.268,-100.4144"/>
</g>
<!-- Node15 -->
<g id="node16" class="node">
<title>Node15</title>
<polygon fill="none" stroke="#bfbfbf" points="1023.5,-73 1023.5,-92 1105.5,-92 1105.5,-73 1023.5,-73"/>
<text text-anchor="middle" x="1064.5" y="-80" font-family="Helvetica,sans-Serif" font-size="10.00" fill="#000000">TGeoMatrix.h</text>
</g>
<!-- Node9&#45;&gt;Node15 -->
<g id="edge16" class="edge">
<title>Node9&#45;&gt;Node15</title>
<path fill="none" stroke="#191970" d="M865.938,-134.462C904.5617,-125.6067 963.076,-111.7542 1013.5,-98 1017.0572,-97.0297 1020.7425,-95.986 1024.4299,-94.9152"/>
<polygon fill="#191970" stroke="#191970" points="1025.5141,-98.2444 1034.109,-92.0493 1023.5267,-91.5325 1025.5141,-98.2444"/>
</g>
<!-- Node16 -->
<g id="node17" class="node">
<title>Node16</title>
<polygon fill="none" stroke="#bfbfbf" points="1124,-73 1124,-92 1173,-92 1173,-73 1124,-73"/>
<text text-anchor="middle" x="1148.5" y="-80" font-family="Helvetica,sans-Serif" font-size="10.00" fill="#000000">iosfwd</text>
</g>
<!-- Node9&#45;&gt;Node16 -->
<g id="edge17" class="edge">
<title>Node9&#45;&gt;Node16</title>
<path fill="none" stroke="#191970" d="M891.1085,-138.543C950.8385,-132.4953 1039.8066,-120.4731 1114.5,-98 1116.4102,-97.4253 1118.3521,-96.765 1120.2905,-96.0479"/>
<polygon fill="#191970" stroke="#191970" points="1121.8841,-99.1766 1129.7903,-92.1238 1119.2115,-92.7068 1121.8841,-99.1766"/>
</g>
<!-- Node17 -->
<g id="node18" class="node">
<title>Node17</title>
<g id="a_node18"><a xlink:href="../../d2/dd0/Cartesian2D_8h.html" target="_top" xlink:title="MathUtils/Cartesian2D.h">
<polygon fill="none" stroke="#000000" points="1191,-73 1191,-92 1326,-92 1326,-73 1191,-73"/>
<text text-anchor="middle" x="1258.5" y="-80" font-family="Helvetica,sans-Serif" font-size="10.00" fill="#000000">MathUtils/Cartesian2D.h</text>
</a>
</g>
</g>
<!-- Node9&#45;&gt;Node17 -->
<g id="edge18" class="edge">
<title>Node9&#45;&gt;Node17</title>
<path fill="none" stroke="#191970" d="M891.0093,-136.7697C963.1368,-128.708 1080.7156,-114.5974 1181.5,-98 1188.7152,-96.8118 1196.2863,-95.4412 1203.7476,-94.0169"/>
<polygon fill="#191970" stroke="#191970" points="1204.6658,-97.4038 1213.8103,-92.0533 1203.3251,-90.5334 1204.6658,-97.4038"/>
</g>
<!-- Node18 -->
<g id="node19" class="node">
<title>Node18</title>
<polygon fill="none" stroke="#bfbfbf" points="1078.5,-.5 1078.5,-30.5 1242.5,-30.5 1242.5,-.5 1078.5,-.5"/>
<text text-anchor="start" x="1086.5" y="-18.5" font-family="Helvetica,sans-Serif" font-size="10.00" fill="#000000">Math/GenVector/Displacement</text>
<text text-anchor="middle" x="1160.5" y="-7.5" font-family="Helvetica,sans-Serif" font-size="10.00" fill="#000000">Vector2D.h</text>
</g>
<!-- Node17&#45;&gt;Node18 -->
<g id="edge19" class="edge">
<title>Node17&#45;&gt;Node18</title>
<path fill="none" stroke="#191970" d="M1244.459,-72.9005C1230.5412,-63.3853 1208.772,-48.5023 1190.888,-36.2755"/>
<polygon fill="#191970" stroke="#191970" points="1192.7026,-33.2763 1182.4721,-30.5218 1188.7519,-39.0549 1192.7026,-33.2763"/>
</g>
<!-- Node19 -->
<g id="node20" class="node">
<title>Node19</title>
<polygon fill="none" stroke="#bfbfbf" points="1261,-6 1261,-25 1450,-25 1450,-6 1261,-6"/>
<text text-anchor="middle" x="1355.5" y="-13" font-family="Helvetica,sans-Serif" font-size="10.00" fill="#000000">Math/GenVector/PositionVector2D.h</text>
</g>
<!-- Node17&#45;&gt;Node19 -->
<g id="edge20" class="edge">
<title>Node17&#45;&gt;Node19</title>
<path fill="none" stroke="#191970" d="M1272.3977,-72.9005C1288.3164,-61.9052 1314.6121,-43.7422 1333.3599,-30.7927"/>
<polygon fill="#191970" stroke="#191970" points="1335.3892,-33.6448 1341.628,-25.0817 1331.4108,-27.8852 1335.3892,-33.6448"/>
</g>
<!-- Node21 -->
<g id="node22" class="node">
<title>Node21</title>
<g id="a_node22"><a xlink:href="../../de/d61/ShmManager_8h.html" target="_top" xlink:title="CommonUtils/ShmManager.h">
<polygon fill="none" stroke="#000000" points="1311.5,-134.5 1311.5,-153.5 1469.5,-153.5 1469.5,-134.5 1311.5,-134.5"/>
<text text-anchor="middle" x="1390.5" y="-141.5" font-family="Helvetica,sans-Serif" font-size="10.00" fill="#000000">CommonUtils/ShmManager.h</text>
</a>
</g>
</g>
<!-- Node20&#45;&gt;Node21 -->
<g id="edge22" class="edge">
<title>Node20&#45;&gt;Node21</title>
<path fill="none" stroke="#191970" d="M1305.2813,-195.8906C1321.5875,-185.9616 1347.254,-170.333 1366.1614,-158.8201"/>
<polygon fill="#191970" stroke="#191970" points="1368.1087,-161.7322 1374.8296,-153.5419 1364.4681,-155.7533 1368.1087,-161.7322"/>
</g>
<!-- Node26 -->
<g id="node27" class="node">
<title>Node26</title>
<polygon fill="none" stroke="#bfbfbf" points="1487.5,-134.5 1487.5,-153.5 1539.5,-153.5 1539.5,-134.5 1487.5,-134.5"/>
<text text-anchor="middle" x="1513.5" y="-141.5" font-family="Helvetica,sans-Serif" font-size="10.00" fill="#000000">cassert</text>
</g>
<!-- Node20&#45;&gt;Node26 -->
<g id="edge27" class="edge">
<title>Node20&#45;&gt;Node26</title>
<path fill="none" stroke="#191970" d="M1325.0665,-195.9482C1361.0785,-186.2458 1418.6314,-170.6557 1477.3267,-154.3065"/>
<polygon fill="#191970" stroke="#191970" points="1478.4448,-157.6283 1487.1365,-151.5699 1476.5638,-150.8858 1478.4448,-157.6283"/>
</g>
<!-- Node22 -->
<g id="node23" class="node">
<title>Node22</title>
<polygon fill="none" stroke="#bfbfbf" points="1344.5,-73 1344.5,-92 1376.5,-92 1376.5,-73 1344.5,-73"/>
<text text-anchor="middle" x="1360.5" y="-80" font-family="Helvetica,sans-Serif" font-size="10.00" fill="#000000">list</text>
</g>
<!-- Node21&#45;&gt;Node22 -->
<g id="edge23" class="edge">
<title>Node21&#45;&gt;Node22</title>
<path fill="none" stroke="#191970" d="M1385.8125,-134.3906C1381.5227,-125.5965 1375.0518,-112.3312 1369.7266,-101.4145"/>
<polygon fill="#191970" stroke="#191970" points="1372.7836,-99.6981 1365.2536,-92.2449 1366.4922,-102.7671 1372.7836,-99.6981"/>
</g>
<!-- Node23 -->
<g id="node24" class="node">
<title>Node23</title>
<polygon fill="none" stroke="#bfbfbf" points="1395,-73 1395,-92 1448,-92 1448,-73 1395,-73"/>
<text text-anchor="middle" x="1421.5" y="-80" font-family="Helvetica,sans-Serif" font-size="10.00" fill="#000000">cstddef</text>
</g>
<!-- Node21&#45;&gt;Node23 -->
<g id="edge24" class="edge">
<title>Node21&#45;&gt;Node23</title>
<path fill="none" stroke="#191970" d="M1395.3438,-134.3906C1399.7766,-125.5965 1406.4631,-112.3312 1411.9659,-101.4145"/>
<polygon fill="#191970" stroke="#191970" points="1415.2122,-102.75 1416.588,-92.2449 1408.9614,-99.5992 1415.2122,-102.75"/>
</g>
<!-- Node24 -->
<g id="node25" class="node">
<title>Node24</title>
<polygon fill="none" stroke="#bfbfbf" points="1466,-67.5 1466,-97.5 1631,-97.5 1631,-67.5 1466,-67.5"/>
<text text-anchor="start" x="1474" y="-85.5" font-family="Helvetica,sans-Serif" font-size="10.00" fill="#000000">boost/interprocess</text>
<text text-anchor="middle" x="1548.5" y="-74.5" font-family="Helvetica,sans-Serif" font-size="10.00" fill="#000000">/managed_external_buffer.hpp</text>
</g>
<!-- Node21&#45;&gt;Node24 -->
<g id="edge25" class="edge">
<title>Node21&#45;&gt;Node24</title>
<path fill="none" stroke="#191970" d="M1415.1875,-134.3906C1437.8578,-125.5664 1472.0937,-112.2404 1500.1942,-101.3026"/>
<polygon fill="#191970" stroke="#191970" points="1501.7995,-104.4336 1509.8489,-97.5446 1499.2603,-97.9103 1501.7995,-104.4336"/>
</g>
<!-- Node25 -->
<g id="node26" class="node">
<title>Node25</title>
<polygon fill="none" stroke="#bfbfbf" points="1649.5,-67.5 1649.5,-97.5 1783.5,-97.5 1783.5,-67.5 1649.5,-67.5"/>
<text text-anchor="start" x="1657.5" y="-85.5" font-family="Helvetica,sans-Serif" font-size="10.00" fill="#000000">boost/interprocess</text>
<text text-anchor="middle" x="1716.5" y="-74.5" font-family="Helvetica,sans-Serif" font-size="10.00" fill="#000000">/allocators/allocator.hpp</text>
</g>
<!-- Node21&#45;&gt;Node25 -->
<g id="edge26" class="edge">
<title>Node21&#45;&gt;Node25</title>
<path fill="none" stroke="#191970" d="M1444.2004,-134.4271C1492.6874,-125.7138 1566.2577,-112.3206 1639.5142,-98.1723"/>
<polygon fill="#191970" stroke="#191970" points="1640.225,-101.5997 1649.3772,-96.2624 1638.8942,-94.7274 1640.225,-101.5997"/>
</g>
<!-- Node28 -->
<g id="node29" class="node">
<title>Node28</title>
<polygon fill="none" stroke="#bfbfbf" points="1461.5,-196 1461.5,-215 1507.5,-215 1507.5,-196 1461.5,-196"/>
<text text-anchor="middle" x="1484.5" y="-203" font-family="Helvetica,sans-Serif" font-size="10.00" fill="#000000">cstdio</text>
</g>
<!-- Node27&#45;&gt;Node28 -->
<g id="edge29" class="edge">
<title>Node27&#45;&gt;Node28</title>
<path fill="none" stroke="#191970" d="M1498,-257.3906C1495.7588,-248.776 1492.4014,-235.8708 1489.5955,-225.0858"/>
<polygon fill="#191970" stroke="#191970" points="1492.9404,-224.0414 1487.0352,-215.2449 1486.1659,-225.804 1492.9404,-224.0414"/>
</g>
<!-- Node27&#45;&gt;Node29 -->
<g id="edge30" class="edge">
<title>Node27&#45;&gt;Node29</title>
<path fill="none" stroke="#191970" d="M1487.2188,-257.3906C1473.7452,-247.6421 1452.678,-232.3994 1436.8565,-220.9521"/>
<polygon fill="#191970" stroke="#191970" points="1438.8414,-218.0682 1428.688,-215.0419 1434.7381,-223.7394 1438.8414,-218.0682"/>
</g>
<!-- Node30 -->
<g id="node31" class="node">
<title>Node30</title>
<polygon fill="none" stroke="#bfbfbf" points="1526,-196 1526,-215 1593,-215 1593,-196 1526,-196"/>
<text text-anchor="middle" x="1559.5" y="-203" font-family="Helvetica,sans-Serif" font-size="10.00" fill="#000000">TNamed.h</text>
</g>
<!-- Node27&#45;&gt;Node30 -->
<g id="edge31" class="edge">
<title>Node27&#45;&gt;Node30</title>
<path fill="none" stroke="#191970" d="M1509.7188,-257.3906C1518.5858,-248.1478 1532.1912,-233.966 1542.9389,-222.7628"/>
<polygon fill="#191970" stroke="#191970" points="1545.7541,-224.8841 1550.1513,-215.2449 1540.7027,-220.0381 1545.7541,-224.8841"/>
</g>
<!-- Node31 -->
<g id="node32" class="node">
<title>Node31</title>
<polygon fill="none" stroke="#bfbfbf" points="1611.5,-196 1611.5,-215 1703.5,-215 1703.5,-196 1611.5,-196"/>
<text text-anchor="middle" x="1657.5" y="-203" font-family="Helvetica,sans-Serif" font-size="10.00" fill="#000000">TGeoManager.h</text>
</g>
<!-- Node27&#45;&gt;Node31 -->
<g id="edge32" class="edge">
<title>Node27&#45;&gt;Node31</title>
<path fill="none" stroke="#191970" d="M1525.0313,-257.3906C1551.5307,-247.0103 1593.9331,-230.4004 1623.607,-218.7766"/>
<polygon fill="#191970" stroke="#191970" points="1625.1065,-221.9482 1633.141,-215.0419 1622.5533,-215.4304 1625.1065,-221.9482"/>
</g>
<!-- Node32 -->
<g id="node33" class="node">
<title>Node32</title>
<polygon fill="none" stroke="#bfbfbf" points="1721.5,-196 1721.5,-215 1789.5,-215 1789.5,-196 1721.5,-196"/>
<text text-anchor="middle" x="1755.5" y="-203" font-family="Helvetica,sans-Serif" font-size="10.00" fill="#000000">TVector3.h</text>
</g>
<!-- Node27&#45;&gt;Node32 -->
<g id="edge33" class="edge">
<title>Node27&#45;&gt;Node32</title>
<path fill="none" stroke="#191970" d="M1553.6929,-257.483C1596.8644,-249.2758 1659.1092,-236.3423 1712.5,-221 1715.2886,-220.1987 1718.1577,-219.3101 1721.0275,-218.3755"/>
<polygon fill="#191970" stroke="#191970" points="1722.3399,-221.6258 1730.6713,-215.0807 1720.0767,-215.0018 1722.3399,-221.6258"/>
</g>
</g>
</svg>
