<?xml version="1.0" encoding="UTF-8" standalone="no"?>
<!DOCTYPE svg PUBLIC "-//W3C//DTD SVG 1.1//EN"
 "http://www.w3.org/Graphics/SVG/1.1/DTD/svg11.dtd">
<!-- Generated by graphviz version 2.40.1 (20161225.0304)
 -->
<!-- Title: /home/travis/build/AliceO2Group/AliceO2/Detectors/PHOS/reconstruction/include/PHOSReconstruction/Clusterer.h Pages: 1 -->
<!--zoomable 441 -->
<svg id="main" version="1.1" xmlns="http://www.w3.org/2000/svg" xmlns:xlink="http://www.w3.org/1999/xlink" xml:space="preserve" onload="init(evt)">
<style type="text/css"><![CDATA[
.edge:hover path { stroke: red; }
.edge:hover polygon { stroke: red; fill: red; }
]]></style>
<script type="text/javascript"><![CDATA[
var edges = document.getElementsByTagName('g');
if (edges && edges.length) {
  for (var i=0;i<edges.length;i++) {
    if (edges[i].id.substr(0,4)=='edge') {
      edges[i].setAttribute('class','edge');
    }
  }
}
]]></script>
        <defs>
                <circle id="rim" cx="0" cy="0" r="7"/>
                <circle id="rim2" cx="0" cy="0" r="3.5"/>
                <g id="zoomPlus">
                        <use xlink:href="#rim" fill="#404040">
                                <set attributeName="fill" to="#808080" begin="zoomplus.mouseover" end="zoomplus.mouseout"/>
                        </use>
                        <path d="M-4,0h8M0,-4v8" fill="none" stroke="white" stroke-width="1.5" pointer-events="none"/>
                </g>
                <g id="zoomMin">
                        <use xlink:href="#rim" fill="#404040">
                                <set attributeName="fill" to="#808080" begin="zoomminus.mouseover" end="zoomminus.mouseout"/>
                        </use>
                        <path d="M-4,0h8" fill="none" stroke="white" stroke-width="1.5" pointer-events="none"/>
                </g>
                <g id="dirArrow">
                        <path fill="none" stroke="white" stroke-width="1.5" d="M0,-3.0v7 M-2.5,-0.5L0,-3.0L2.5,-0.5"/>
                </g>
               <g id="resetDef">
                       <use xlink:href="#rim2" fill="#404040">
                               <set attributeName="fill" to="#808080" begin="reset.mouseover" end="reset.mouseout"/>
                       </use>
               </g>
        </defs>

<script type="text/javascript">
var viewWidth = 1759;
var viewHeight = 441;
var sectionId = 'dynsection-0';
</script>
<script xlink:href="../../svgpan.js"/>
<svg id="graph" class="graph">
<g id="viewport">
<title>/home/travis/build/AliceO2Group/AliceO2/Detectors/PHOS/reconstruction/include/PHOSReconstruction/Clusterer.h</title>
<!-- Node0 -->
<g id="node1" class="node">
<title>Node0</title>
<polygon fill="#bfbfbf" stroke="#000000" points="595,-369.5 595,-432.5 765,-432.5 765,-369.5 595,-369.5"/>
<text text-anchor="start" x="603" y="-420.5" font-family="Helvetica,sans-Serif" font-size="10.00" fill="#000000">/home/travis/build</text>
<text text-anchor="start" x="603" y="-409.5" font-family="Helvetica,sans-Serif" font-size="10.00" fill="#000000">/AliceO2Group/AliceO2</text>
<text text-anchor="start" x="603" y="-398.5" font-family="Helvetica,sans-Serif" font-size="10.00" fill="#000000">/Detectors/PHOS/reconstruction</text>
<text text-anchor="start" x="603" y="-387.5" font-family="Helvetica,sans-Serif" font-size="10.00" fill="#000000">/include/PHOSReconstruction</text>
<text text-anchor="middle" x="680" y="-376.5" font-family="Helvetica,sans-Serif" font-size="10.00" fill="#000000">/Clusterer.h</text>
</g>
<!-- Node1 -->
<g id="node2" class="node">
<title>Node1</title>
<g id="a_node2"><a xlink:href="../../d3/d98/DataFormats_2Detectors_2PHOS_2include_2DataFormatsPHOS_2Digit_8h.html" target="_top" xlink:title="DataFormatsPHOS/Digit.h">
<polygon fill="none" stroke="#000000" points="72,-174 72,-193 214,-193 214,-174 72,-174"/>
<text text-anchor="middle" x="143" y="-181" font-family="Helvetica,sans-Serif" font-size="10.00" fill="#000000">DataFormatsPHOS/Digit.h</text>
</a>
</g>
</g>
<!-- Node0&#45;&gt;Node1 -->
<g id="edge1" class="edge">
<title>Node0&#45;&gt;Node1</title>
<path fill="none" stroke="#191970" d="M594.9488,-397.8884C433.3089,-389.7952 92.839,-361.5199 37,-266 30.0467,-254.1055 29.69,-246.6787 37,-235 48.7608,-216.2107 69.5523,-204.101 89.6244,-196.3825"/>
<polygon fill="#191970" stroke="#191970" points="90.811,-199.6754 99.068,-193.0367 88.4732,-193.0772 90.811,-199.6754"/>
</g>
<!-- Node9 -->
<g id="node10" class="node">
<title>Node9</title>
<g id="a_node10"><a xlink:href="../../d7/dba/DataFormats_2Detectors_2PHOS_2include_2DataFormatsPHOS_2Cell_8h.html" target="_top" xlink:title="DataFormatsPHOS/Cell.h">
<polygon fill="none" stroke="#000000" points="1082.5,-241 1082.5,-260 1219.5,-260 1219.5,-241 1082.5,-241"/>
<text text-anchor="middle" x="1151" y="-248" font-family="Helvetica,sans-Serif" font-size="10.00" fill="#000000">DataFormatsPHOS/Cell.h</text>
</a>
</g>
</g>
<!-- Node0&#45;&gt;Node9 -->
<g id="edge9" class="edge">
<title>Node0&#45;&gt;Node9</title>
<path fill="none" stroke="#191970" d="M765.0218,-373.8327C867.4716,-341.0967 1035.2989,-287.4703 1111.3398,-263.1727"/>
<polygon fill="#191970" stroke="#191970" points="1112.5526,-266.4596 1121.0128,-260.0819 1110.4219,-259.7918 1112.5526,-266.4596"/>
</g>
<!-- Node11 -->
<g id="node12" class="node">
<title>Node11</title>
<g id="a_node12"><a xlink:href="../../d8/d50/DataFormats_2Detectors_2PHOS_2include_2DataFormatsPHOS_2Cluster_8h.html" target="_top" xlink:title="DataFormatsPHOS/Cluster.h">
<polygon fill="none" stroke="#000000" points="46,-241 46,-260 198,-260 198,-241 46,-241"/>
<text text-anchor="middle" x="122" y="-248" font-family="Helvetica,sans-Serif" font-size="10.00" fill="#000000">DataFormatsPHOS/Cluster.h</text>
</a>
</g>
</g>
<!-- Node0&#45;&gt;Node11 -->
<g id="edge12" class="edge">
<title>Node0&#45;&gt;Node11</title>
<path fill="none" stroke="#191970" d="M594.883,-395.9646C475.2036,-387.7186 264.2795,-368.5777 197,-333 168.7658,-318.0696 145.7707,-288.1132 132.9902,-268.7027"/>
<polygon fill="#191970" stroke="#191970" points="135.8683,-266.7056 127.5586,-260.1331 129.9559,-270.4531 135.8683,-266.7056"/>
</g>
<!-- Node12 -->
<g id="node13" class="node">
<title>Node12</title>
<g id="a_node13"><a xlink:href="../../d3/d32/PHOS_2reconstruction_2include_2PHOSReconstruction_2FullCluster_8h.html" target="_top" xlink:title="PHOSReconstruction\l/FullCluster.h">
<polygon fill="none" stroke="#000000" points="206,-302.5 206,-332.5 322,-332.5 322,-302.5 206,-302.5"/>
<text text-anchor="start" x="214" y="-320.5" font-family="Helvetica,sans-Serif" font-size="10.00" fill="#000000">PHOSReconstruction</text>
<text text-anchor="middle" x="264" y="-309.5" font-family="Helvetica,sans-Serif" font-size="10.00" fill="#000000">/FullCluster.h</text>
</a>
</g>
</g>
<!-- Node0&#45;&gt;Node12 -->
<g id="edge14" class="edge">
<title>Node0&#45;&gt;Node12</title>
<path fill="none" stroke="#191970" d="M594.8124,-383.901C517.1683,-368.3162 403.9529,-345.5915 332.1534,-331.1798"/>
<polygon fill="#191970" stroke="#191970" points="332.7983,-327.7395 322.305,-329.2031 331.4207,-334.6026 332.7983,-327.7395"/>
</g>
<!-- Node15 -->
<g id="node16" class="node">
<title>Node15</title>
<g id="a_node16"><a xlink:href="../../d2/d37/PHOS_2calib_2include_2PHOSCalib_2CalibParams_8h.html" target="_top" xlink:title="PHOSCalib/CalibParams.h">
<polygon fill="none" stroke="#000000" points="1491.5,-308 1491.5,-327 1632.5,-327 1632.5,-308 1491.5,-308"/>
<text text-anchor="middle" x="1562" y="-315" font-family="Helvetica,sans-Serif" font-size="10.00" fill="#000000">PHOSCalib/CalibParams.h</text>
</a>
</g>
</g>
<!-- Node0&#45;&gt;Node15 -->
<g id="edge20" class="edge">
<title>Node0&#45;&gt;Node15</title>
<path fill="none" stroke="#191970" d="M765.3713,-392.9178C935.4942,-376.8121 1314.6883,-340.9133 1481.0861,-325.1602"/>
<polygon fill="#191970" stroke="#191970" points="1481.6285,-328.6246 1491.2541,-324.1976 1480.9687,-321.6558 1481.6285,-328.6246"/>
</g>
<!-- Node18 -->
<g id="node19" class="node">
<title>Node18</title>
<g id="a_node19"><a xlink:href="../../da/d65/PHOS_2calib_2include_2PHOSCalib_2BadChannelMap_8h.html" target="_top" xlink:title="PHOSCalib/BadChannelMap.h">
<polygon fill="none" stroke="#000000" points="1237.5,-241 1237.5,-260 1396.5,-260 1396.5,-241 1237.5,-241"/>
<text text-anchor="middle" x="1317" y="-248" font-family="Helvetica,sans-Serif" font-size="10.00" fill="#000000">PHOSCalib/BadChannelMap.h</text>
</a>
</g>
</g>
<!-- Node0&#45;&gt;Node18 -->
<g id="edge23" class="edge">
<title>Node0&#45;&gt;Node18</title>
<path fill="none" stroke="#191970" d="M765.2477,-380.8591C899.901,-349.0454 1157.6817,-288.1411 1266.5217,-262.4262"/>
<polygon fill="#191970" stroke="#191970" points="1267.6533,-265.7553 1276.5805,-260.0497 1266.0437,-258.9428 1267.6533,-265.7553"/>
</g>
<!-- Node26 -->
<g id="node27" class="node">
<title>Node26</title>
<g id="a_node27"><a xlink:href="../../de/d0d/DataFormats_2Detectors_2PHOS_2include_2DataFormatsPHOS_2MCLabel_8h.html" target="_top" xlink:title="DataFormatsPHOS/MCLabel.h">
<polygon fill="none" stroke="#000000" points="405,-308 405,-327 565,-327 565,-308 405,-308"/>
<text text-anchor="middle" x="485" y="-315" font-family="Helvetica,sans-Serif" font-size="10.00" fill="#000000">DataFormatsPHOS/MCLabel.h</text>
</a>
</g>
</g>
<!-- Node0&#45;&gt;Node26 -->
<g id="edge35" class="edge">
<title>Node0&#45;&gt;Node26</title>
<path fill="none" stroke="#191970" d="M606.2789,-369.4322C575.3765,-356.1997 541.0802,-341.5138 516.8662,-331.1453"/>
<polygon fill="#191970" stroke="#191970" points="518.0375,-327.8395 507.4671,-327.1205 515.2821,-334.2744 518.0375,-327.8395"/>
</g>
<!-- Node27 -->
<g id="node28" class="node">
<title>Node27</title>
<g id="a_node28"><a xlink:href="../../db/d14/MCTruthContainer_8h.html" target="_top" xlink:title="Definition of a container to keep Monte Carlo truth external to simulation objects. ">
<polygon fill="none" stroke="#000000" points="866.5,-168.5 866.5,-198.5 993.5,-198.5 993.5,-168.5 866.5,-168.5"/>
<text text-anchor="start" x="874.5" y="-186.5" font-family="Helvetica,sans-Serif" font-size="10.00" fill="#000000">SimulationDataFormat</text>
<text text-anchor="middle" x="930" y="-175.5" font-family="Helvetica,sans-Serif" font-size="10.00" fill="#000000">/MCTruthContainer.h</text>
</a>
</g>
</g>
<!-- Node0&#45;&gt;Node27 -->
<g id="edge37" class="edge">
<title>Node0&#45;&gt;Node27</title>
<path fill="none" stroke="#191970" d="M716.3521,-369.3736C767.7301,-324.6748 860.2737,-244.1619 904.7664,-205.4532"/>
<polygon fill="#191970" stroke="#191970" points="907.2471,-207.9342 912.4943,-198.73 902.6525,-202.6531 907.2471,-207.9342"/>
</g>
<!-- Node33 -->
<g id="node34" class="node">
<title>Node33</title>
<g id="a_node34"><a xlink:href="../../d2/df1/PHOS_2include_2DataFormatsPHOS_2TriggerRecord_8h.html" target="_top" xlink:title="DataFormatsPHOS/TriggerRecord.h">
<polygon fill="none" stroke="#000000" points="587.5,-241 587.5,-260 772.5,-260 772.5,-241 587.5,-241"/>
<text text-anchor="middle" x="680" y="-248" font-family="Helvetica,sans-Serif" font-size="10.00" fill="#000000">DataFormatsPHOS/TriggerRecord.h</text>
</a>
</g>
</g>
<!-- Node0&#45;&gt;Node33 -->
<g id="edge47" class="edge">
<title>Node0&#45;&gt;Node33</title>
<path fill="none" stroke="#191970" d="M680,-369.4503C680,-339.5517 680,-295.5677 680,-270.3071"/>
<polygon fill="#191970" stroke="#191970" points="683.5001,-270.1362 680,-260.1362 676.5001,-270.1362 683.5001,-270.1362"/>
</g>
<!-- Node2 -->
<g id="node3" class="node">
<title>Node2</title>
<polygon fill="none" stroke="#bfbfbf" points="304.5,-112.5 304.5,-131.5 351.5,-131.5 351.5,-112.5 304.5,-112.5"/>
<text text-anchor="middle" x="328" y="-119.5" font-family="Helvetica,sans-Serif" font-size="10.00" fill="#000000">cmath</text>
</g>
<!-- Node1&#45;&gt;Node2 -->
<g id="edge2" class="edge">
<title>Node1&#45;&gt;Node2</title>
<path fill="none" stroke="#191970" d="M171.9063,-173.8906C205.1113,-162.8522 259.5071,-144.7693 294.5234,-133.1287"/>
<polygon fill="#191970" stroke="#191970" points="295.9023,-136.3587 304.2875,-129.8828 293.694,-129.7162 295.9023,-136.3587"/>
</g>
<!-- Node3 -->
<g id="node4" class="node">
<title>Node3</title>
<g id="a_node4"><a xlink:href="../../df/d5d/common_2include_2CommonDataFormat_2TimeStamp_8h.html" target="_top" xlink:title="CommonDataFormat/TimeStamp.h">
<polygon fill="none" stroke="#000000" points="57.5,-112.5 57.5,-131.5 244.5,-131.5 244.5,-112.5 57.5,-112.5"/>
<text text-anchor="middle" x="151" y="-119.5" font-family="Helvetica,sans-Serif" font-size="10.00" fill="#000000">CommonDataFormat/TimeStamp.h</text>
</a>
</g>
</g>
<!-- Node1&#45;&gt;Node3 -->
<g id="edge3" class="edge">
<title>Node1&#45;&gt;Node3</title>
<path fill="none" stroke="#191970" d="M144.25,-173.8906C145.3589,-165.3657 147.0144,-152.6392 148.4083,-141.9235"/>
<polygon fill="#191970" stroke="#191970" points="151.9131,-142.1128 149.7324,-131.7449 144.9716,-141.2098 151.9131,-142.1128"/>
</g>
<!-- Node4 -->
<g id="node5" class="node">
<title>Node4</title>
<g id="a_node5"><a xlink:href="../../d2/d45/GPUCommonRtypes_8h.html" target="_top" xlink:title="GPUCommonRtypes.h">
<polygon fill="none" stroke="#000000" points="446.5,-56.5 446.5,-75.5 571.5,-75.5 571.5,-56.5 446.5,-56.5"/>
<text text-anchor="middle" x="509" y="-63.5" font-family="Helvetica,sans-Serif" font-size="10.00" fill="#000000">GPUCommonRtypes.h</text>
</a>
</g>
</g>
<!-- Node3&#45;&gt;Node4 -->
<g id="edge4" class="edge">
<title>Node3&#45;&gt;Node4</title>
<path fill="none" stroke="#191970" d="M212.1356,-112.4369C274.8204,-102.6314 372.2204,-87.3957 438.211,-77.0731"/>
<polygon fill="#191970" stroke="#191970" points="438.7776,-80.5272 448.1165,-75.5237 437.6957,-73.6113 438.7776,-80.5272"/>
</g>
<!-- Node6 -->
<g id="node7" class="node">
<title>Node6</title>
<g id="a_node7"><a xlink:href="../../df/d21/GPUCommonDef_8h.html" target="_top" xlink:title="GPUCommonDef.h">
<polygon fill="none" stroke="#000000" points="97.5,-56.5 97.5,-75.5 204.5,-75.5 204.5,-56.5 97.5,-56.5"/>
<text text-anchor="middle" x="151" y="-63.5" font-family="Helvetica,sans-Serif" font-size="10.00" fill="#000000">GPUCommonDef.h</text>
</a>
</g>
</g>
<!-- Node3&#45;&gt;Node6 -->
<g id="edge6" class="edge">
<title>Node3&#45;&gt;Node6</title>
<path fill="none" stroke="#191970" d="M151,-112.2455C151,-104.9382 151,-94.6944 151,-85.7046"/>
<polygon fill="#191970" stroke="#191970" points="154.5001,-85.6426 151,-75.6427 147.5001,-85.6427 154.5001,-85.6426"/>
</g>
<!-- Node5 -->
<g id="node6" class="node">
<title>Node5</title>
<polygon fill="none" stroke="#bfbfbf" points="918.5,-.5 918.5,-19.5 977.5,-19.5 977.5,-.5 918.5,-.5"/>
<text text-anchor="middle" x="948" y="-7.5" font-family="Helvetica,sans-Serif" font-size="10.00" fill="#000000">Rtypes.h</text>
</g>
<!-- Node4&#45;&gt;Node5 -->
<g id="edge5" class="edge">
<title>Node4&#45;&gt;Node5</title>
<path fill="none" stroke="#191970" d="M571.898,-57.9766C663.7172,-46.2639 831.8212,-24.8201 908.2687,-15.0682"/>
<polygon fill="#191970" stroke="#191970" points="908.9532,-18.5094 918.4299,-13.772 908.0674,-11.5656 908.9532,-18.5094"/>
</g>
<!-- Node7 -->
<g id="node8" class="node">
<title>Node7</title>
<g id="a_node8"><a xlink:href="../../d5/d93/GPUCommonDefSettings_8h.html" target="_top" xlink:title="GPUCommonDefSettings.h">
<polygon fill="none" stroke="#000000" points="0,-.5 0,-19.5 148,-19.5 148,-.5 0,-.5"/>
<text text-anchor="middle" x="74" y="-7.5" font-family="Helvetica,sans-Serif" font-size="10.00" fill="#000000">GPUCommonDefSettings.h</text>
</a>
</g>
</g>
<!-- Node6&#45;&gt;Node7 -->
<g id="edge7" class="edge">
<title>Node6&#45;&gt;Node7</title>
<path fill="none" stroke="#191970" d="M137.5876,-56.2455C125.9943,-47.814 109.0252,-35.4729 95.5322,-25.6598"/>
<polygon fill="#191970" stroke="#191970" points="97.4047,-22.6938 87.2587,-19.6427 93.2874,-28.355 97.4047,-22.6938"/>
</g>
<!-- Node8 -->
<g id="node9" class="node">
<title>Node8</title>
<g id="a_node9"><a xlink:href="../../da/d5a/GPUCommonDefAPI_8h.html" target="_top" xlink:title="GPUCommonDefAPI.h">
<polygon fill="none" stroke="#000000" points="166,-.5 166,-19.5 290,-19.5 290,-.5 166,-.5"/>
<text text-anchor="middle" x="228" y="-7.5" font-family="Helvetica,sans-Serif" font-size="10.00" fill="#000000">GPUCommonDefAPI.h</text>
</a>
</g>
</g>
<!-- Node6&#45;&gt;Node8 -->
<g id="edge8" class="edge">
<title>Node6&#45;&gt;Node8</title>
<path fill="none" stroke="#191970" d="M164.4124,-56.2455C176.0057,-47.814 192.9748,-35.4729 206.4678,-25.6598"/>
<polygon fill="#191970" stroke="#191970" points="208.7126,-28.355 214.7413,-19.6427 204.5953,-22.6938 208.7126,-28.355"/>
</g>
<!-- Node9&#45;&gt;Node5 -->
<g id="edge11" class="edge">
<title>Node9&#45;&gt;Node5</title>
<path fill="none" stroke="#191970" d="M1153.8139,-240.8147C1160.1804,-216.8075 1173.1917,-153.4983 1147,-112 1111.5763,-55.8745 1034.7196,-29.2227 987.565,-17.709"/>
<polygon fill="#191970" stroke="#191970" points="988.2257,-14.2693 977.6928,-15.4134 986.6402,-21.0874 988.2257,-14.2693"/>
</g>
<!-- Node10 -->
<g id="node11" class="node">
<title>Node10</title>
<polygon fill="none" stroke="#bfbfbf" points="1211,-174 1211,-193 1255,-193 1255,-174 1211,-174"/>
<text text-anchor="middle" x="1233" y="-181" font-family="Helvetica,sans-Serif" font-size="10.00" fill="#000000">bitset</text>
</g>
<!-- Node9&#45;&gt;Node10 -->
<g id="edge10" class="edge">
<title>Node9&#45;&gt;Node10</title>
<path fill="none" stroke="#191970" d="M1162.7486,-240.9005C1175.9011,-230.1539 1197.4336,-212.5603 1213.1983,-199.6794"/>
<polygon fill="#191970" stroke="#191970" points="1215.7439,-202.1193 1221.2732,-193.0817 1211.3148,-196.6986 1215.7439,-202.1193"/>
</g>
<!-- Node11&#45;&gt;Node1 -->
<g id="edge13" class="edge">
<title>Node11&#45;&gt;Node1</title>
<path fill="none" stroke="#191970" d="M125.0088,-240.9005C128.0964,-231.0495 132.9874,-215.4451 136.8908,-202.9912"/>
<polygon fill="#191970" stroke="#191970" points="140.3457,-203.6707 139.9968,-193.0817 133.6661,-201.5771 140.3457,-203.6707"/>
</g>
<!-- Node12&#45;&gt;Node1 -->
<g id="edge16" class="edge">
<title>Node12&#45;&gt;Node1</title>
<path fill="none" stroke="#191970" d="M255.2995,-302.2403C245.0194,-284.9142 226.7939,-256.2942 207,-235 194.5349,-221.5901 178.4776,-208.6789 165.5653,-199.1383"/>
<polygon fill="#191970" stroke="#191970" points="167.3678,-196.1229 157.2113,-193.1071 163.2704,-201.7983 167.3678,-196.1229"/>
</g>
<!-- Node12&#45;&gt;Node11 -->
<g id="edge17" class="edge">
<title>Node12&#45;&gt;Node11</title>
<path fill="none" stroke="#191970" d="M232.1324,-302.4639C207.9847,-291.0702 175.0543,-275.5327 151.5061,-264.4219"/>
<polygon fill="#191970" stroke="#191970" points="152.892,-261.2058 142.3546,-260.1039 149.9049,-267.5365 152.892,-261.2058"/>
</g>
<!-- Node13 -->
<g id="node14" class="node">
<title>Node13</title>
<polygon fill="none" stroke="#bfbfbf" points="408,-112.5 408,-131.5 456,-131.5 456,-112.5 408,-112.5"/>
<text text-anchor="middle" x="432" y="-119.5" font-family="Helvetica,sans-Serif" font-size="10.00" fill="#000000">gsl/gsl</text>
</g>
<!-- Node12&#45;&gt;Node13 -->
<g id="edge15" class="edge">
<title>Node12&#45;&gt;Node13</title>
<path fill="none" stroke="#191970" d="M263.0546,-302.1845C262.082,-272.4182 264.2786,-206.3244 299,-168 312.4746,-153.1271 363.427,-138.3993 398.2067,-129.7554"/>
<polygon fill="#191970" stroke="#191970" points="399.0917,-133.1423 407.9819,-127.3791 397.4382,-126.3403 399.0917,-133.1423"/>
</g>
<!-- Node14 -->
<g id="node15" class="node">
<title>Node14</title>
<g id="a_node15"><a xlink:href="../../d7/dcd/MCCompLabel_8h.html" target="_top" xlink:title="SimulationDataFormat\l/MCCompLabel.h">
<polygon fill="none" stroke="#000000" points="292.5,-235.5 292.5,-265.5 419.5,-265.5 419.5,-235.5 292.5,-235.5"/>
<text text-anchor="start" x="300.5" y="-253.5" font-family="Helvetica,sans-Serif" font-size="10.00" fill="#000000">SimulationDataFormat</text>
<text text-anchor="middle" x="356" y="-242.5" font-family="Helvetica,sans-Serif" font-size="10.00" fill="#000000">/MCCompLabel.h</text>
</a>
</g>
</g>
<!-- Node12&#45;&gt;Node14 -->
<g id="edge18" class="edge">
<title>Node12&#45;&gt;Node14</title>
<path fill="none" stroke="#191970" d="M284.8762,-302.2967C297.3448,-293.2163 313.3658,-281.5488 327.0447,-271.587"/>
<polygon fill="#191970" stroke="#191970" points="329.1833,-274.3594 335.2064,-265.6432 325.0624,-268.7009 329.1833,-274.3594"/>
</g>
<!-- Node14&#45;&gt;Node4 -->
<g id="edge19" class="edge">
<title>Node14&#45;&gt;Node4</title>
<path fill="none" stroke="#191970" d="M331.8762,-235.4331C319.7581,-226.4554 306.1611,-213.9067 299,-199 282.2389,-164.1096 270.6751,-142.1093 295,-112 312.6764,-90.1202 381.4693,-78.1631 436.35,-71.9692"/>
<polygon fill="#191970" stroke="#191970" points="436.8551,-75.435 446.42,-70.8786 436.1013,-68.4757 436.8551,-75.435"/>
</g>
<!-- Node16 -->
<g id="node17" class="node">
<title>Node16</title>
<polygon fill="none" stroke="#bfbfbf" points="1541,-241 1541,-260 1583,-260 1583,-241 1541,-241"/>
<text text-anchor="middle" x="1562" y="-248" font-family="Helvetica,sans-Serif" font-size="10.00" fill="#000000">array</text>
</g>
<!-- Node15&#45;&gt;Node16 -->
<g id="edge21" class="edge">
<title>Node15&#45;&gt;Node16</title>
<path fill="none" stroke="#191970" d="M1562,-307.9005C1562,-298.149 1562,-282.7597 1562,-270.3695"/>
<polygon fill="#191970" stroke="#191970" points="1565.5001,-270.0816 1562,-260.0817 1558.5001,-270.0817 1565.5001,-270.0816"/>
</g>
<!-- Node17 -->
<g id="node18" class="node">
<title>Node17</title>
<polygon fill="none" stroke="#bfbfbf" points="1687.5,-112.5 1687.5,-131.5 1750.5,-131.5 1750.5,-112.5 1687.5,-112.5"/>
<text text-anchor="middle" x="1719" y="-119.5" font-family="Helvetica,sans-Serif" font-size="10.00" fill="#000000">TObject.h</text>
</g>
<!-- Node15&#45;&gt;Node17 -->
<g id="edge22" class="edge">
<title>Node15&#45;&gt;Node17</title>
<path fill="none" stroke="#191970" d="M1572.5884,-307.7009C1593.3169,-288.2094 1640.0956,-242.6795 1673,-199 1687.1991,-180.1511 1700.7073,-156.6346 1709.3667,-140.5822"/>
<polygon fill="#191970" stroke="#191970" points="1712.5047,-142.1352 1714.0945,-131.6604 1706.3195,-138.8575 1712.5047,-142.1352"/>
</g>
<!-- Node18&#45;&gt;Node5 -->
<g id="edge26" class="edge">
<title>Node18&#45;&gt;Node5</title>
<path fill="none" stroke="#191970" d="M1396.6883,-243.9608C1514.4073,-231.3479 1713.3681,-196.9752 1640,-112 1596.9277,-62.1135 1129.2596,-23.4841 988.1061,-12.8949"/>
<polygon fill="#191970" stroke="#191970" points="987.9842,-9.3762 977.7521,-12.1246 987.4649,-16.3569 987.9842,-9.3762"/>
</g>
<!-- Node18&#45;&gt;Node10 -->
<g id="edge25" class="edge">
<title>Node18&#45;&gt;Node10</title>
<path fill="none" stroke="#191970" d="M1304.9648,-240.9005C1291.3668,-230.0544 1269.0246,-212.2339 1252.8376,-199.3229"/>
<polygon fill="#191970" stroke="#191970" points="1255.0131,-196.5811 1245.0128,-193.0817 1250.6481,-202.0535 1255.0131,-196.5811"/>
</g>
<!-- Node19 -->
<g id="node20" class="node">
<title>Node19</title>
<polygon fill="none" stroke="#bfbfbf" points="1194.5,-112.5 1194.5,-131.5 1243.5,-131.5 1243.5,-112.5 1194.5,-112.5"/>
<text text-anchor="middle" x="1219" y="-119.5" font-family="Helvetica,sans-Serif" font-size="10.00" fill="#000000">iosfwd</text>
</g>
<!-- Node18&#45;&gt;Node19 -->
<g id="edge24" class="edge">
<title>Node18&#45;&gt;Node19</title>
<path fill="none" stroke="#191970" d="M1311.7046,-240.9233C1302.7685,-225.0949 1283.7306,-192.7656 1264,-168 1255.792,-157.6974 1245.5991,-147.1272 1236.9908,-138.7213"/>
<polygon fill="#191970" stroke="#191970" points="1239.2776,-136.0653 1229.633,-131.6798 1234.4378,-141.1226 1239.2776,-136.0653"/>
</g>
<!-- Node20 -->
<g id="node21" class="node">
<title>Node20</title>
<g id="a_node21"><a xlink:href="../../d7/d44/TObjectWrapper_8h.html" target="_top" xlink:title="CCDB/TObjectWrapper.h">
<polygon fill="none" stroke="#000000" points="1318,-174 1318,-193 1452,-193 1452,-174 1318,-174"/>
<text text-anchor="middle" x="1385" y="-181" font-family="Helvetica,sans-Serif" font-size="10.00" fill="#000000">CCDB/TObjectWrapper.h</text>
</a>
</g>
</g>
<!-- Node18&#45;&gt;Node20 -->
<g id="edge27" class="edge">
<title>Node18&#45;&gt;Node20</title>
<path fill="none" stroke="#191970" d="M1326.7427,-240.9005C1337.4477,-230.353 1354.847,-213.2096 1367.8479,-200.3998"/>
<polygon fill="#191970" stroke="#191970" points="1370.6085,-202.5933 1375.2753,-193.0817 1365.6956,-197.607 1370.6085,-202.5933"/>
</g>
<!-- Node20&#45;&gt;Node17 -->
<g id="edge29" class="edge">
<title>Node20&#45;&gt;Node17</title>
<path fill="none" stroke="#191970" d="M1436.821,-173.9581C1502.9875,-161.7747 1616.1868,-140.9312 1677.1615,-129.7038"/>
<polygon fill="#191970" stroke="#191970" points="1677.9995,-133.1084 1687.2003,-127.8553 1676.7318,-126.2241 1677.9995,-133.1084"/>
</g>
<!-- Node20&#45;&gt;Node19 -->
<g id="edge31" class="edge">
<title>Node20&#45;&gt;Node19</title>
<path fill="none" stroke="#191970" d="M1359.0625,-173.8906C1330.5931,-163.3432 1284.7634,-146.3641 1253.3316,-134.7192"/>
<polygon fill="#191970" stroke="#191970" points="1254.2657,-131.3329 1243.6726,-131.1408 1251.8338,-137.8969 1254.2657,-131.3329"/>
</g>
<!-- Node21 -->
<g id="node22" class="node">
<title>Node21</title>
<polygon fill="none" stroke="#bfbfbf" points="1498.5,-112.5 1498.5,-131.5 1555.5,-131.5 1555.5,-112.5 1498.5,-112.5"/>
<text text-anchor="middle" x="1527" y="-119.5" font-family="Helvetica,sans-Serif" font-size="10.00" fill="#000000">TClass.h</text>
</g>
<!-- Node20&#45;&gt;Node21 -->
<g id="edge28" class="edge">
<title>Node20&#45;&gt;Node21</title>
<path fill="none" stroke="#191970" d="M1407.1875,-173.8906C1430.9467,-163.6005 1468.8405,-147.1888 1495.6425,-135.5809"/>
<polygon fill="#191970" stroke="#191970" points="1497.183,-138.7279 1504.9683,-131.5419 1494.4009,-132.3045 1497.183,-138.7279"/>
</g>
<!-- Node22 -->
<g id="node23" class="node">
<title>Node22</title>
<polygon fill="none" stroke="#bfbfbf" points="1422,-112.5 1422,-131.5 1480,-131.5 1480,-112.5 1422,-112.5"/>
<text text-anchor="middle" x="1451" y="-119.5" font-family="Helvetica,sans-Serif" font-size="10.00" fill="#000000">cxxabi.h</text>
</g>
<!-- Node20&#45;&gt;Node22 -->
<g id="edge30" class="edge">
<title>Node20&#45;&gt;Node22</title>
<path fill="none" stroke="#191970" d="M1395.3125,-173.8906C1405.4242,-164.4683 1421.0442,-149.9134 1433.1707,-138.6137"/>
<polygon fill="#191970" stroke="#191970" points="1435.612,-141.1228 1440.5421,-131.7449 1430.8399,-136.0015 1435.612,-141.1228"/>
</g>
<!-- Node23 -->
<g id="node24" class="node">
<title>Node23</title>
<polygon fill="none" stroke="#bfbfbf" points="1262,-112.5 1262,-131.5 1320,-131.5 1320,-112.5 1262,-112.5"/>
<text text-anchor="middle" x="1291" y="-119.5" font-family="Helvetica,sans-Serif" font-size="10.00" fill="#000000">memory</text>
</g>
<!-- Node20&#45;&gt;Node23 -->
<g id="edge32" class="edge">
<title>Node20&#45;&gt;Node23</title>
<path fill="none" stroke="#191970" d="M1370.3125,-173.8906C1355.2744,-164.0519 1331.6824,-148.6167 1314.1333,-137.1351"/>
<polygon fill="#191970" stroke="#191970" points="1315.8687,-134.088 1305.5844,-131.5419 1312.0363,-139.9457 1315.8687,-134.088"/>
</g>
<!-- Node24 -->
<g id="node25" class="node">
<title>Node24</title>
<polygon fill="none" stroke="#bfbfbf" points="1338.5,-112.5 1338.5,-131.5 1403.5,-131.5 1403.5,-112.5 1338.5,-112.5"/>
<text text-anchor="middle" x="1371" y="-119.5" font-family="Helvetica,sans-Serif" font-size="10.00" fill="#000000">stdexcept</text>
</g>
<!-- Node20&#45;&gt;Node24 -->
<g id="edge33" class="edge">
<title>Node20&#45;&gt;Node24</title>
<path fill="none" stroke="#191970" d="M1382.8125,-173.8906C1380.8514,-165.276 1377.9137,-152.3708 1375.4585,-141.5858"/>
<polygon fill="#191970" stroke="#191970" points="1378.8507,-140.7185 1373.2183,-131.7449 1372.0254,-142.2723 1378.8507,-140.7185"/>
</g>
<!-- Node25 -->
<g id="node26" class="node">
<title>Node25</title>
<polygon fill="none" stroke="#bfbfbf" points="1573.5,-112.5 1573.5,-131.5 1630.5,-131.5 1630.5,-112.5 1573.5,-112.5"/>
<text text-anchor="middle" x="1602" y="-119.5" font-family="Helvetica,sans-Serif" font-size="10.00" fill="#000000">typeinfo</text>
</g>
<!-- Node20&#45;&gt;Node25 -->
<g id="edge34" class="edge">
<title>Node20&#45;&gt;Node25</title>
<path fill="none" stroke="#191970" d="M1418.9063,-173.8906C1458.1096,-162.78 1522.4953,-144.5324 1563.5357,-132.9012"/>
<polygon fill="#191970" stroke="#191970" points="1564.5174,-136.2609 1573.1841,-130.1667 1562.6086,-129.5261 1564.5174,-136.2609"/>
</g>
<!-- Node26&#45;&gt;Node14 -->
<g id="edge36" class="edge">
<title>Node26&#45;&gt;Node14</title>
<path fill="none" stroke="#191970" d="M466.5174,-307.9005C447.6975,-298.1258 417.9711,-282.6865 394.0862,-270.2812"/>
<polygon fill="#191970" stroke="#191970" points="395.4102,-267.025 384.9225,-265.5218 392.1837,-273.2371 395.4102,-267.025"/>
</g>
<!-- Node27&#45;&gt;Node4 -->
<g id="edge38" class="edge">
<title>Node27&#45;&gt;Node4</title>
<path fill="none" stroke="#191970" d="M908.4724,-168.3597C881.33,-149.5433 835.9296,-119.0432 817,-112 775.1131,-96.415 658.8707,-81.7747 581.7815,-73.3589"/>
<polygon fill="#191970" stroke="#191970" points="581.9633,-69.8583 571.6451,-72.2635 581.2111,-76.8177 581.9633,-69.8583"/>
</g>
<!-- Node27&#45;&gt;Node13 -->
<g id="edge42" class="edge">
<title>Node27&#45;&gt;Node13</title>
<path fill="none" stroke="#191970" d="M866.1379,-177.8934C761.276,-168.4508 556.0583,-148.9196 465.9162,-131.8039"/>
<polygon fill="#191970" stroke="#191970" points="466.5097,-128.3535 456.0192,-129.8365 465.1449,-135.2192 466.5097,-128.3535"/>
</g>
<!-- Node27&#45;&gt;Node23 -->
<g id="edge45" class="edge">
<title>Node27&#45;&gt;Node23</title>
<path fill="none" stroke="#191970" d="M993.7755,-175.235C1056.941,-166.6194 1156.5826,-151.8759 1251.5474,-132.1546"/>
<polygon fill="#191970" stroke="#191970" points="1252.5426,-135.522 1261.6102,-130.0421 1251.1044,-128.6713 1252.5426,-135.522"/>
</g>
<!-- Node27&#45;&gt;Node24 -->
<g id="edge41" class="edge">
<title>Node27&#45;&gt;Node24</title>
<path fill="none" stroke="#191970" d="M993.5502,-177.3858C1070.4686,-169.519 1204.0671,-154.3639 1328.0076,-132.0218"/>
<polygon fill="#191970" stroke="#191970" points="1328.844,-135.4271 1338.0545,-130.1908 1327.5889,-128.5405 1328.844,-135.4271"/>
</g>
<!-- Node28 -->
<g id="node29" class="node">
<title>Node28</title>
<polygon fill="none" stroke="#bfbfbf" points="758,-112.5 758,-131.5 808,-131.5 808,-112.5 758,-112.5"/>
<text text-anchor="middle" x="783" y="-119.5" font-family="Helvetica,sans-Serif" font-size="10.00" fill="#000000">cstdint</text>
</g>
<!-- Node27&#45;&gt;Node28 -->
<g id="edge39" class="edge">
<title>Node27&#45;&gt;Node28</title>
<path fill="none" stroke="#191970" d="M894.0398,-168.4554C869.9427,-158.374 838.487,-145.2139 815.2097,-135.4755"/>
<polygon fill="#191970" stroke="#191970" points="816.3558,-132.1611 805.7798,-131.5303 813.6541,-138.6187 816.3558,-132.1611"/>
</g>
<!-- Node29 -->
<g id="node30" class="node">
<title>Node29</title>
<polygon fill="none" stroke="#bfbfbf" points="864,-112.5 864,-131.5 916,-131.5 916,-112.5 864,-112.5"/>
<text text-anchor="middle" x="890" y="-119.5" font-family="Helvetica,sans-Serif" font-size="10.00" fill="#000000">cassert</text>
</g>
<!-- Node27&#45;&gt;Node29 -->
<g id="edge40" class="edge">
<title>Node27&#45;&gt;Node29</title>
<path fill="none" stroke="#191970" d="M920.1124,-168.2977C914.6178,-159.8498 907.7414,-149.2773 901.9473,-140.369"/>
<polygon fill="#191970" stroke="#191970" points="904.7908,-138.3215 896.4045,-131.8469 898.9228,-142.1381 904.7908,-138.3215"/>
</g>
<!-- Node30 -->
<g id="node31" class="node">
<title>Node30</title>
<polygon fill="none" stroke="#bfbfbf" points="934.5,-112.5 934.5,-131.5 1003.5,-131.5 1003.5,-112.5 934.5,-112.5"/>
<text text-anchor="middle" x="969" y="-119.5" font-family="Helvetica,sans-Serif" font-size="10.00" fill="#000000">type_traits</text>
</g>
<!-- Node27&#45;&gt;Node30 -->
<g id="edge43" class="edge">
<title>Node27&#45;&gt;Node30</title>
<path fill="none" stroke="#191970" d="M939.6405,-168.2977C944.9977,-159.8498 951.7022,-149.2773 957.3513,-140.369"/>
<polygon fill="#191970" stroke="#191970" points="960.3559,-142.1664 962.7556,-131.8469 954.4444,-138.4176 960.3559,-142.1664"/>
</g>
<!-- Node31 -->
<g id="node32" class="node">
<title>Node31</title>
<polygon fill="none" stroke="#bfbfbf" points="1022,-112.5 1022,-131.5 1072,-131.5 1072,-112.5 1022,-112.5"/>
<text text-anchor="middle" x="1047" y="-119.5" font-family="Helvetica,sans-Serif" font-size="10.00" fill="#000000">cstring</text>
</g>
<!-- Node27&#45;&gt;Node31 -->
<g id="edge44" class="edge">
<title>Node27&#45;&gt;Node31</title>
<path fill="none" stroke="#191970" d="M958.6214,-168.4554C977.287,-158.644 1001.4999,-145.9167 1019.8612,-136.2653"/>
<polygon fill="#191970" stroke="#191970" points="1021.646,-139.2812 1028.8692,-131.5303 1018.389,-133.0851 1021.646,-139.2812"/>
</g>
<!-- Node32 -->
<g id="node33" class="node">
<title>Node32</title>
<polygon fill="none" stroke="#bfbfbf" points="1090.5,-112.5 1090.5,-131.5 1137.5,-131.5 1137.5,-112.5 1090.5,-112.5"/>
<text text-anchor="middle" x="1114" y="-119.5" font-family="Helvetica,sans-Serif" font-size="10.00" fill="#000000">vector</text>
</g>
<!-- Node27&#45;&gt;Node32 -->
<g id="edge46" class="edge">
<title>Node27&#45;&gt;Node32</title>
<path fill="none" stroke="#191970" d="M975.0115,-168.4554C1007.6552,-157.5446 1051.0879,-143.0277 1080.6557,-133.145"/>
<polygon fill="#191970" stroke="#191970" points="1082.1208,-136.3457 1090.4955,-129.8561 1079.9017,-129.7067 1082.1208,-136.3457"/>
</g>
<!-- Node33&#45;&gt;Node5 -->
<g id="edge49" class="edge">
<title>Node33&#45;&gt;Node5</title>
<path fill="none" stroke="#191970" d="M688.7763,-240.8843C697.4305,-230.9914 710.5532,-214.8323 719,-199 738.2527,-162.9137 722.1968,-142.8947 749,-112 791.6924,-62.7906 863.9219,-34.2672 908.6209,-20.4549"/>
<polygon fill="#191970" stroke="#191970" points="909.6876,-23.7892 918.2656,-17.5709 907.682,-17.0826 909.6876,-23.7892"/>
</g>
<!-- Node33&#45;&gt;Node19 -->
<g id="edge48" class="edge">
<title>Node33&#45;&gt;Node19</title>
<path fill="none" stroke="#191970" d="M767.5997,-240.9681C833.0826,-232.776 924.4653,-219.0762 1003,-199 1069.9533,-181.8844 1145.4196,-152.5775 1187.0712,-135.4815"/>
<polygon fill="#191970" stroke="#191970" points="1188.5112,-138.6735 1196.4149,-131.6178 1185.8363,-132.2047 1188.5112,-138.6735"/>
</g>
<!-- Node34 -->
<g id="node35" class="node">
<title>Node34</title>
<g id="a_node35"><a xlink:href="../../d9/d80/InteractionRecord_8h.html" target="_top" xlink:title="CommonDataFormat/Interaction\lRecord.h">
<polygon fill="none" stroke="#000000" points="536,-168.5 536,-198.5 710,-198.5 710,-168.5 536,-168.5"/>
<text text-anchor="start" x="544" y="-186.5" font-family="Helvetica,sans-Serif" font-size="10.00" fill="#000000">CommonDataFormat/Interaction</text>
<text text-anchor="middle" x="623" y="-175.5" font-family="Helvetica,sans-Serif" font-size="10.00" fill="#000000">Record.h</text>
</a>
</g>
</g>
<!-- Node33&#45;&gt;Node34 -->
<g id="edge50" class="edge">
<title>Node33&#45;&gt;Node34</title>
<path fill="none" stroke="#191970" d="M671.8333,-240.9005C664.1798,-231.9043 652.4443,-218.1099 642.3959,-206.2986"/>
<polygon fill="#191970" stroke="#191970" points="644.9253,-203.8704 635.7797,-198.5218 639.5937,-208.4063 644.9253,-203.8704"/>
</g>
<!-- Node36 -->
<g id="node37" class="node">
<title>Node36</title>
<g id="a_node37"><a xlink:href="../../de/d64/RangeReference_8h.html" target="_top" xlink:title="Class to refer to the 1st entry and N elements of some group in the continuous container. ">
<polygon fill="none" stroke="#000000" points="308,-174 308,-193 518,-193 518,-174 308,-174"/>
<text text-anchor="middle" x="413" y="-181" font-family="Helvetica,sans-Serif" font-size="10.00" fill="#000000">CommonDataFormat/RangeReference.h</text>
</a>
</g>
</g>
<!-- Node33&#45;&gt;Node36 -->
<g id="edge56" class="edge">
<title>Node33&#45;&gt;Node36</title>
<path fill="none" stroke="#191970" d="M642.029,-240.9717C594.518,-229.0495 513.1083,-208.6208 461.2345,-195.6038"/>
<polygon fill="#191970" stroke="#191970" points="461.8235,-192.1431 451.2723,-193.1039 460.1197,-198.9326 461.8235,-192.1431"/>
</g>
<!-- Node34&#45;&gt;Node2 -->
<g id="edge53" class="edge">
<title>Node34&#45;&gt;Node2</title>
<path fill="none" stroke="#191970" d="M550.8349,-168.4554C490.5423,-155.8859 407.2936,-138.5307 361.5206,-128.9882"/>
<polygon fill="#191970" stroke="#191970" points="362.0388,-125.521 351.5349,-126.9064 360.6101,-132.3737 362.0388,-125.521"/>
</g>
<!-- Node34&#45;&gt;Node4 -->
<g id="edge51" class="edge">
<title>Node34&#45;&gt;Node4</title>
<path fill="none" stroke="#191970" d="M645.7283,-168.4728C665.0236,-153.8376 687.4583,-131.0717 673,-112 661.4796,-96.8037 619.9406,-85.2436 581.5543,-77.513"/>
<polygon fill="#191970" stroke="#191970" points="581.8467,-74.0044 571.3627,-75.5324 580.5113,-80.8759 581.8467,-74.0044"/>
</g>
<!-- Node34&#45;&gt;Node19 -->
<g id="edge52" class="edge">
<title>Node34&#45;&gt;Node19</title>
<path fill="none" stroke="#191970" d="M710.2688,-175.9996C814.3668,-166.804 993.5902,-150.1848 1147,-132 1159.2131,-130.5523 1172.5615,-128.7577 1184.4111,-127.09"/>
<polygon fill="#191970" stroke="#191970" points="1184.9668,-130.5463 1194.3723,-125.6691 1183.9782,-123.6164 1184.9668,-130.5463"/>
</g>
<!-- Node34&#45;&gt;Node28 -->
<g id="edge54" class="edge">
<title>Node34&#45;&gt;Node28</title>
<path fill="none" stroke="#191970" d="M662.1404,-168.4554C688.6026,-158.284 723.2181,-144.9787 748.6183,-135.2155"/>
<polygon fill="#191970" stroke="#191970" points="750.1272,-138.3852 758.2057,-131.5303 747.6157,-131.8512 750.1272,-138.3852"/>
</g>
<!-- Node35 -->
<g id="node36" class="node">
<title>Node35</title>
<g id="a_node36"><a xlink:href="../../d4/dc6/LHCConstants_8h.html" target="_top" xlink:title="Header to collect LHC related constants. ">
<polygon fill="none" stroke="#000000" points="474,-112.5 474,-131.5 664,-131.5 664,-112.5 474,-112.5"/>
<text text-anchor="middle" x="569" y="-119.5" font-family="Helvetica,sans-Serif" font-size="10.00" fill="#000000">CommonConstants/LHCConstants.h</text>
</a>
</g>
</g>
<!-- Node34&#45;&gt;Node35 -->
<g id="edge55" class="edge">
<title>Node34&#45;&gt;Node35</title>
<path fill="none" stroke="#191970" d="M609.6517,-168.2977C601.9998,-159.5831 592.3627,-148.6075 584.3924,-139.5302"/>
<polygon fill="#191970" stroke="#191970" points="586.8742,-137.052 577.6461,-131.8469 581.6141,-141.6707 586.8742,-137.052"/>
</g>
<!-- Node36&#45;&gt;Node4 -->
<g id="edge57" class="edge">
<title>Node36&#45;&gt;Node4</title>
<path fill="none" stroke="#191970" d="M406.969,-173.8345C398.7007,-159.2169 386.2426,-131.1629 399,-112 409.5498,-96.1532 426.7164,-85.7555 444.384,-78.9369"/>
<polygon fill="#191970" stroke="#191970" points="445.9249,-82.1062 454.212,-75.5052 443.6172,-75.4975 445.9249,-82.1062"/>
</g>
</g>
</svg>
        <g id="navigator" transform="translate(0 0)" fill="#404254">
                <rect fill="#f2f5e9" fill-opacity="0.5" stroke="#606060" stroke-width=".5" x="0" y="0" width="60" height="60"/>
                <use id="zoomplus" xlink:href="#zoomPlus" x="17" y="9" onmousedown="handleZoom(evt,'in')"/>
                <use id="zoomminus" xlink:href="#zoomMin" x="42" y="9" onmousedown="handleZoom(evt,'out')"/>
                <use id="reset" xlink:href="#resetDef" x="30" y="36" onmousedown="handleReset()"/>
                <g id="arrowUp" xlink:href="#dirArrow" transform="translate(30 24)" onmousedown="handlePan(0,-1)">
                  <use xlink:href="#rim" fill="#404040">
                        <set attributeName="fill" to="#808080" begin="arrowUp.mouseover" end="arrowUp.mouseout"/>
                  </use>
                  <path fill="none" stroke="white" stroke-width="1.5" d="M0,-3.0v7 M-2.5,-0.5L0,-3.0L2.5,-0.5"/>
                </g>
                <g id="arrowRight" xlink:href="#dirArrow" transform="rotate(90) translate(36 -43)" onmousedown="handlePan(1,0)">
                  <use xlink:href="#rim" fill="#404040">
                        <set attributeName="fill" to="#808080" begin="arrowRight.mouseover" end="arrowRight.mouseout"/>
                  </use>
                  <path fill="none" stroke="white" stroke-width="1.5" d="M0,-3.0v7 M-2.5,-0.5L0,-3.0L2.5,-0.5"/>
                </g>
                <g id="arrowDown" xlink:href="#dirArrow" transform="rotate(180) translate(-30 -48)" onmousedown="handlePan(0,1)">
                  <use xlink:href="#rim" fill="#404040">
                        <set attributeName="fill" to="#808080" begin="arrowDown.mouseover" end="arrowDown.mouseout"/>
                  </use>
                  <path fill="none" stroke="white" stroke-width="1.5" d="M0,-3.0v7 M-2.5,-0.5L0,-3.0L2.5,-0.5"/>
                </g>
                <g id="arrowLeft" xlink:href="#dirArrow" transform="rotate(270) translate(-36 17)" onmousedown="handlePan(-1,0)">
                  <use xlink:href="#rim" fill="#404040">
                        <set attributeName="fill" to="#808080" begin="arrowLeft.mouseover" end="arrowLeft.mouseout"/>
                  </use>
                  <path fill="none" stroke="white" stroke-width="1.5" d="M0,-3.0v7 M-2.5,-0.5L0,-3.0L2.5,-0.5"/>
                </g>
        </g>
        <svg viewBox="0 0 15 15" width="100%" height="30px" preserveAspectRatio="xMaxYMin meet">
         <g id="arrow_out" transform="scale(0.3 0.3)">
          <a xlink:href="PHOS_2reconstruction_2include_2PHOSReconstruction_2Clusterer_8h__incl_org.svg" target="_base">
           <rect id="button" ry="5" rx="5" y="6" x="6" height="38" width="38"
                fill="#f2f5e9" fill-opacity="0.5" stroke="#606060" stroke-width="1.0"/>
           <path id="arrow"
             d="M 11.500037,31.436501 C 11.940474,20.09759 22.043105,11.32322 32.158766,21.979434 L 37.068811,17.246167 C 37.068811,17.246167 37.088388,32 37.088388,32 L 22.160133,31.978069 C 22.160133,31.978069 26.997745,27.140456 26.997745,27.140456 C 18.528582,18.264221 13.291696,25.230495 11.500037,31.436501 z"
             style="fill:#404040;"/>
          </a>
         </g>
        </svg>
</svg>
