<?xml version="1.0" encoding="UTF-8" standalone="no"?>
<!DOCTYPE svg PUBLIC "-//W3C//DTD SVG 1.1//EN"
 "http://www.w3.org/Graphics/SVG/1.1/DTD/svg11.dtd">
<!-- Generated by graphviz version 2.40.1 (20161225.0304)
 -->
<!-- Title: Union_t Pages: 1 -->
<!--zoomable 171 -->
<svg id="main" version="1.1" xmlns="http://www.w3.org/2000/svg" xmlns:xlink="http://www.w3.org/1999/xlink" xml:space="preserve" onload="init(evt)">
<style type="text/css"><![CDATA[
.edge:hover path { stroke: red; }
.edge:hover polygon { stroke: red; fill: red; }
]]></style>
<script type="text/javascript"><![CDATA[
var edges = document.getElementsByTagName('g');
if (edges && edges.length) {
  for (var i=0;i<edges.length;i++) {
    if (edges[i].id.substr(0,4)=='edge') {
      edges[i].setAttribute('class','edge');
    }
  }
}
]]></script>
        <defs>
                <circle id="rim" cx="0" cy="0" r="7"/>
                <circle id="rim2" cx="0" cy="0" r="3.5"/>
                <g id="zoomPlus">
                        <use xlink:href="#rim" fill="#404040">
                                <set attributeName="fill" to="#808080" begin="zoomplus.mouseover" end="zoomplus.mouseout"/>
                        </use>
                        <path d="M-4,0h8M0,-4v8" fill="none" stroke="white" stroke-width="1.5" pointer-events="none"/>
                </g>
                <g id="zoomMin">
                        <use xlink:href="#rim" fill="#404040">
                                <set attributeName="fill" to="#808080" begin="zoomminus.mouseover" end="zoomminus.mouseout"/>
                        </use>
                        <path d="M-4,0h8" fill="none" stroke="white" stroke-width="1.5" pointer-events="none"/>
                </g>
                <g id="dirArrow">
                        <path fill="none" stroke="white" stroke-width="1.5" d="M0,-3.0v7 M-2.5,-0.5L0,-3.0L2.5,-0.5"/>
                </g>
               <g id="resetDef">
                       <use xlink:href="#rim2" fill="#404040">
                               <set attributeName="fill" to="#808080" begin="reset.mouseover" end="reset.mouseout"/>
                       </use>
               </g>
        </defs>

<script type="text/javascript">
var viewWidth = 1646;
var viewHeight = 171;
var sectionId = 'dynsection-0';
</script>
<script xlink:href="../../svgpan.js"/>
<svg id="graph" class="graph">
<g id="viewport">
<title>Union_t</title>
<!-- Node1 -->
<g id="node1" class="node">
<title>Node1</title>
<polygon fill="#bfbfbf" stroke="#000000" points="763.5,-.5 763.5,-57.5 817.5,-57.5 817.5,-.5 763.5,-.5"/>
<text text-anchor="middle" x="790.5" y="-45.5" font-family="Helvetica,sans-Serif" font-size="10.00" fill="#000000">Union_t</text>
<polyline fill="none" stroke="#000000" points="763.5,-38.5 817.5,-38.5 "/>
<text text-anchor="middle" x="790.5" y="-26.5" font-family="Helvetica,sans-Serif" font-size="10.00" fill="#000000"> </text>
<polyline fill="none" stroke="#000000" points="763.5,-19.5 817.5,-19.5 "/>
<text text-anchor="middle" x="790.5" y="-7.5" font-family="Helvetica,sans-Serif" font-size="10.00" fill="#000000"> </text>
</g>
<!-- Node2 -->
<g id="node2" class="node">
<title>Node2</title>
<polygon fill="none" stroke="#bfbfbf" points="0,-105.5 0,-162.5 89,-162.5 89,-105.5 0,-105.5"/>
<text text-anchor="middle" x="44.5" y="-150.5" font-family="Helvetica,sans-Serif" font-size="10.00" fill="#000000">DRMHeadW4_t</text>
<polyline fill="none" stroke="#bfbfbf" points="0,-143.5 89,-143.5 "/>
<text text-anchor="middle" x="44.5" y="-131.5" font-family="Helvetica,sans-Serif" font-size="10.00" fill="#000000"> </text>
<polyline fill="none" stroke="#bfbfbf" points="0,-124.5 89,-124.5 "/>
<text text-anchor="middle" x="44.5" y="-112.5" font-family="Helvetica,sans-Serif" font-size="10.00" fill="#000000"> </text>
</g>
<!-- Node2&#45;&gt;Node1 -->
<g id="edge1" class="edge">
<title>Node2&#45;&gt;Node1</title>
<path fill="none" stroke="#404040" d="M83.9544,-105.2669C101.3536,-94.1241 122.5748,-82.5013 143.5,-76 257.9064,-40.455 629.0022,-31.5291 751.1319,-29.5276"/>
<polygon fill="none" stroke="#404040" points="751.4674,-29.5225 757.4044,-25.4294 763.466,-29.3355 757.529,-33.4285 751.4674,-29.5225"/>
<text text-anchor="middle" x="180" y="-79" font-family="Helvetica,sans-Serif" font-size="10.00" fill="#000000"> +drmHeadW4</text>
</g>
<!-- Node3 -->
<g id="node3" class="node">
<title>Node3</title>
<polygon fill="none" stroke="#bfbfbf" points="107,-105.5 107,-162.5 196,-162.5 196,-105.5 107,-105.5"/>
<text text-anchor="middle" x="151.5" y="-150.5" font-family="Helvetica,sans-Serif" font-size="10.00" fill="#000000">DRMHeadW3_t</text>
<polyline fill="none" stroke="#bfbfbf" points="107,-143.5 196,-143.5 "/>
<text text-anchor="middle" x="151.5" y="-131.5" font-family="Helvetica,sans-Serif" font-size="10.00" fill="#000000"> </text>
<polyline fill="none" stroke="#bfbfbf" points="107,-124.5 196,-124.5 "/>
<text text-anchor="middle" x="151.5" y="-112.5" font-family="Helvetica,sans-Serif" font-size="10.00" fill="#000000"> </text>
</g>
<!-- Node3&#45;&gt;Node1 -->
<g id="edge2" class="edge">
<title>Node3&#45;&gt;Node1</title>
<path fill="none" stroke="#404040" d="M189.2466,-105.3916C205.9237,-94.2699 226.3038,-82.6291 246.5,-76 340.407,-45.1766 642.2659,-33.3836 750.9987,-30.0695"/>
<polygon fill="none" stroke="#404040" points="751.2797,-30.0613 757.1589,-25.8858 763.2745,-29.7067 757.3953,-33.8823 751.2797,-30.0613"/>
<text text-anchor="middle" x="283" y="-79" font-family="Helvetica,sans-Serif" font-size="10.00" fill="#000000"> +drmHeadW3</text>
</g>
<!-- Node4 -->
<g id="node4" class="node">
<title>Node4</title>
<polygon fill="none" stroke="#bfbfbf" points="214.5,-105.5 214.5,-162.5 318.5,-162.5 318.5,-105.5 214.5,-105.5"/>
<text text-anchor="middle" x="266.5" y="-150.5" font-family="Helvetica,sans-Serif" font-size="10.00" fill="#000000">TRMChainTrailer_t</text>
<polyline fill="none" stroke="#bfbfbf" points="214.5,-143.5 318.5,-143.5 "/>
<text text-anchor="middle" x="266.5" y="-131.5" font-family="Helvetica,sans-Serif" font-size="10.00" fill="#000000"> </text>
<polyline fill="none" stroke="#bfbfbf" points="214.5,-124.5 318.5,-124.5 "/>
<text text-anchor="middle" x="266.5" y="-112.5" font-family="Helvetica,sans-Serif" font-size="10.00" fill="#000000"> </text>
</g>
<!-- Node4&#45;&gt;Node1 -->
<g id="edge3" class="edge">
<title>Node4&#45;&gt;Node1</title>
<path fill="none" stroke="#404040" d="M297.6215,-105.2118C311.3148,-94.2022 328.204,-82.6938 345.5,-76 419.182,-47.484 656.6996,-34.6115 751.1928,-30.5256"/>
<polygon fill="none" stroke="#404040" points="751.2972,-30.5213 757.1239,-26.2728 763.2866,-30.0172 757.46,-34.2657 751.2972,-30.5213"/>
<text text-anchor="middle" x="389" y="-79" font-family="Helvetica,sans-Serif" font-size="10.00" fill="#000000"> +trmChainTrailer</text>
</g>
<!-- Node5 -->
<g id="node5" class="node">
<title>Node5</title>
<polygon fill="none" stroke="#bfbfbf" points="337,-105.5 337,-162.5 426,-162.5 426,-105.5 337,-105.5"/>
<text text-anchor="middle" x="381.5" y="-150.5" font-family="Helvetica,sans-Serif" font-size="10.00" fill="#000000">DRMHeadW5_t</text>
<polyline fill="none" stroke="#bfbfbf" points="337,-143.5 426,-143.5 "/>
<text text-anchor="middle" x="381.5" y="-131.5" font-family="Helvetica,sans-Serif" font-size="10.00" fill="#000000"> </text>
<polyline fill="none" stroke="#bfbfbf" points="337,-124.5 426,-124.5 "/>
<text text-anchor="middle" x="381.5" y="-112.5" font-family="Helvetica,sans-Serif" font-size="10.00" fill="#000000"> </text>
</g>
<!-- Node5&#45;&gt;Node1 -->
<g id="edge4" class="edge">
<title>Node5&#45;&gt;Node1</title>
<path fill="none" stroke="#404040" d="M411.3881,-105.4941C424.5532,-94.53 440.8088,-82.9792 457.5,-76 509.8843,-54.0963 674.8882,-38.3457 751.1464,-32.042"/>
<polygon fill="none" stroke="#404040" points="751.4906,-32.0141 757.1474,-27.5419 763.4513,-31.0434 757.7945,-35.5157 751.4906,-32.0141"/>
<text text-anchor="middle" x="494" y="-79" font-family="Helvetica,sans-Serif" font-size="10.00" fill="#000000"> +drmHeadW5</text>
</g>
<!-- Node6 -->
<g id="node6" class="node">
<title>Node6</title>
<polygon fill="none" stroke="#bfbfbf" points="444.5,-105.5 444.5,-162.5 554.5,-162.5 554.5,-105.5 444.5,-105.5"/>
<text text-anchor="middle" x="499.5" y="-150.5" font-family="Helvetica,sans-Serif" font-size="10.00" fill="#000000">TRMChainHeader_t</text>
<polyline fill="none" stroke="#bfbfbf" points="444.5,-143.5 554.5,-143.5 "/>
<text text-anchor="middle" x="499.5" y="-131.5" font-family="Helvetica,sans-Serif" font-size="10.00" fill="#000000"> </text>
<polyline fill="none" stroke="#bfbfbf" points="444.5,-124.5 554.5,-124.5 "/>
<text text-anchor="middle" x="499.5" y="-112.5" font-family="Helvetica,sans-Serif" font-size="10.00" fill="#000000"> </text>
</g>
<!-- Node6&#45;&gt;Node1 -->
<g id="edge5" class="edge">
<title>Node6&#45;&gt;Node1</title>
<path fill="none" stroke="#404040" d="M517.3833,-105.4818C525.5812,-94.6524 536.2208,-83.204 548.5,-76 582.2896,-56.1763 691.5063,-40.6699 750.994,-33.4436"/>
<polygon fill="none" stroke="#404040" points="751.32,-33.405 756.8058,-28.7246 763.2361,-31.9882 757.7503,-36.6686 751.32,-33.405"/>
<text text-anchor="middle" x="594.5" y="-79" font-family="Helvetica,sans-Serif" font-size="10.00" fill="#000000"> +trmChainHeader</text>
</g>
<!-- Node7 -->
<g id="node7" class="node">
<title>Node7</title>
<polygon fill="none" stroke="#bfbfbf" points="572.5,-105.5 572.5,-162.5 640.5,-162.5 640.5,-105.5 572.5,-105.5"/>
<text text-anchor="middle" x="606.5" y="-150.5" font-family="Helvetica,sans-Serif" font-size="10.00" fill="#000000">TOFOrbit_t</text>
<polyline fill="none" stroke="#bfbfbf" points="572.5,-143.5 640.5,-143.5 "/>
<text text-anchor="middle" x="606.5" y="-131.5" font-family="Helvetica,sans-Serif" font-size="10.00" fill="#000000"> </text>
<polyline fill="none" stroke="#bfbfbf" points="572.5,-124.5 640.5,-124.5 "/>
<text text-anchor="middle" x="606.5" y="-112.5" font-family="Helvetica,sans-Serif" font-size="10.00" fill="#000000"> </text>
</g>
<!-- Node7&#45;&gt;Node1 -->
<g id="edge6" class="edge">
<title>Node7&#45;&gt;Node1</title>
<path fill="none" stroke="#404040" d="M627.3745,-105.2274C636.0487,-94.8781 646.8206,-83.8365 658.5,-76 686.8782,-56.9591 723.8615,-44.6624 751.4596,-37.442"/>
<polygon fill="none" stroke="#404040" points="751.7679,-37.3656 756.6281,-32.0384 763.4148,-34.4757 758.5546,-39.8029 751.7679,-37.3656"/>
<text text-anchor="middle" x="683" y="-79" font-family="Helvetica,sans-Serif" font-size="10.00" fill="#000000"> +tofOrbit</text>
</g>
<!-- Node8 -->
<g id="node8" class="node">
<title>Node8</title>
<polygon fill="none" stroke="#bfbfbf" points="658.5,-105.5 658.5,-162.5 742.5,-162.5 742.5,-105.5 658.5,-105.5"/>
<text text-anchor="middle" x="700.5" y="-150.5" font-family="Helvetica,sans-Serif" font-size="10.00" fill="#000000">TRMDataHit_t</text>
<polyline fill="none" stroke="#bfbfbf" points="658.5,-143.5 742.5,-143.5 "/>
<text text-anchor="middle" x="700.5" y="-131.5" font-family="Helvetica,sans-Serif" font-size="10.00" fill="#000000"> </text>
<polyline fill="none" stroke="#bfbfbf" points="658.5,-124.5 742.5,-124.5 "/>
<text text-anchor="middle" x="700.5" y="-112.5" font-family="Helvetica,sans-Serif" font-size="10.00" fill="#000000"> </text>
</g>
<!-- Node8&#45;&gt;Node1 -->
<g id="edge7" class="edge">
<title>Node8&#45;&gt;Node1</title>
<path fill="none" stroke="#404040" d="M704.6708,-105.2955C707.1698,-95.3068 711.1544,-84.4883 717.5,-76 726.5745,-63.8613 739.7818,-54.0076 752.4757,-46.5164"/>
<polygon fill="none" stroke="#404040" points="752.8571,-46.3076 756.1982,-39.9172 763.382,-40.5434 760.041,-46.9338 752.8571,-46.3076"/>
<text text-anchor="middle" x="751" y="-79" font-family="Helvetica,sans-Serif" font-size="10.00" fill="#000000"> +trmDataHit</text>
</g>
<!-- Node9 -->
<g id="node9" class="node">
<title>Node9</title>
<g id="a_node9"><a xlink:href="../../d3/d87/classuint32__t.html" target="_top" xlink:title="{uint32_t\n||}">
<polygon fill="none" stroke="#000000" points="760.5,-105.5 760.5,-162.5 816.5,-162.5 816.5,-105.5 760.5,-105.5"/>
<text text-anchor="middle" x="788.5" y="-150.5" font-family="Helvetica,sans-Serif" font-size="10.00" fill="#000000">uint32_t</text>
<polyline fill="none" stroke="#000000" points="760.5,-143.5 816.5,-143.5 "/>
<text text-anchor="middle" x="788.5" y="-131.5" font-family="Helvetica,sans-Serif" font-size="10.00" fill="#000000"> </text>
<polyline fill="none" stroke="#000000" points="760.5,-124.5 816.5,-124.5 "/>
<text text-anchor="middle" x="788.5" y="-112.5" font-family="Helvetica,sans-Serif" font-size="10.00" fill="#000000"> </text>
</a>
</g>
</g>
<!-- Node9&#45;&gt;Node1 -->
<g id="edge8" class="edge">
<title>Node9&#45;&gt;Node1</title>
<path fill="none" stroke="#404040" d="M789.0465,-105.3083C789.2538,-94.4281 789.494,-81.817 789.7187,-70.0192"/>
<polygon fill="none" stroke="#404040" points="789.7255,-69.6548 785.8406,-63.5797 789.9542,-57.657 793.8391,-63.7321 789.7255,-69.6548"/>
<text text-anchor="middle" x="806.5" y="-79" font-family="Helvetica,sans-Serif" font-size="10.00" fill="#000000"> +data</text>
</g>
<!-- Node10 -->
<g id="node10" class="node">
<title>Node10</title>
<polygon fill="none" stroke="#bfbfbf" points="835,-105.5 835,-162.5 938,-162.5 938,-105.5 835,-105.5"/>
<text text-anchor="middle" x="886.5" y="-150.5" font-family="Helvetica,sans-Serif" font-size="10.00" fill="#000000">TOFDataHeader_t</text>
<polyline fill="none" stroke="#bfbfbf" points="835,-143.5 938,-143.5 "/>
<text text-anchor="middle" x="886.5" y="-131.5" font-family="Helvetica,sans-Serif" font-size="10.00" fill="#000000"> </text>
<polyline fill="none" stroke="#bfbfbf" points="835,-124.5 938,-124.5 "/>
<text text-anchor="middle" x="886.5" y="-112.5" font-family="Helvetica,sans-Serif" font-size="10.00" fill="#000000"> </text>
</g>
<!-- Node10&#45;&gt;Node1 -->
<g id="edge9" class="edge">
<title>Node10&#45;&gt;Node1</title>
<path fill="none" stroke="#404040" d="M860.2676,-105.3083C849.3675,-93.3863 836.5674,-79.3862 824.9275,-66.6551"/>
<polygon fill="none" stroke="#404040" points="824.798,-66.5134 817.7972,-64.7843 816.7007,-57.657 823.7015,-59.3861 824.798,-66.5134"/>
<text text-anchor="middle" x="882.5" y="-79" font-family="Helvetica,sans-Serif" font-size="10.00" fill="#000000"> +tofDataHeader</text>
</g>
<!-- Node11 -->
<g id="node11" class="node">
<title>Node11</title>
<polygon fill="none" stroke="#bfbfbf" points="956,-105.5 956,-162.5 1061,-162.5 1061,-105.5 956,-105.5"/>
<text text-anchor="middle" x="1008.5" y="-150.5" font-family="Helvetica,sans-Serif" font-size="10.00" fill="#000000">TRMDataHeader_t</text>
<polyline fill="none" stroke="#bfbfbf" points="956,-143.5 1061,-143.5 "/>
<text text-anchor="middle" x="1008.5" y="-131.5" font-family="Helvetica,sans-Serif" font-size="10.00" fill="#000000"> </text>
<polyline fill="none" stroke="#bfbfbf" points="956,-124.5 1061,-124.5 "/>
<text text-anchor="middle" x="1008.5" y="-112.5" font-family="Helvetica,sans-Serif" font-size="10.00" fill="#000000"> </text>
</g>
<!-- Node11&#45;&gt;Node1 -->
<g id="edge10" class="edge">
<title>Node11&#45;&gt;Node1</title>
<path fill="none" stroke="#404040" d="M973.7444,-105.3182C960.206,-95.1007 944.191,-84.1247 928.5,-76 896.6854,-59.5265 857.8614,-46.9008 829.5067,-38.9044"/>
<polygon fill="none" stroke="#404040" points="829.237,-38.8306 822.3935,-41.1038 817.6631,-35.661 824.5066,-33.3878 829.237,-38.8306"/>
<text text-anchor="middle" x="990.5" y="-79" font-family="Helvetica,sans-Serif" font-size="10.00" fill="#000000"> +trmDataHeader</text>
</g>
<!-- Node12 -->
<g id="node12" class="node">
<title>Node12</title>
<polygon fill="none" stroke="#bfbfbf" points="1079,-105.5 1079,-162.5 1180,-162.5 1180,-105.5 1079,-105.5"/>
<text text-anchor="middle" x="1129.5" y="-150.5" font-family="Helvetica,sans-Serif" font-size="10.00" fill="#000000">DRMDataTrailer_t</text>
<polyline fill="none" stroke="#bfbfbf" points="1079,-143.5 1180,-143.5 "/>
<text text-anchor="middle" x="1129.5" y="-131.5" font-family="Helvetica,sans-Serif" font-size="10.00" fill="#000000"> </text>
<polyline fill="none" stroke="#bfbfbf" points="1079,-124.5 1180,-124.5 "/>
<text text-anchor="middle" x="1129.5" y="-112.5" font-family="Helvetica,sans-Serif" font-size="10.00" fill="#000000"> </text>
</g>
<!-- Node12&#45;&gt;Node1 -->
<g id="edge11" class="edge">
<title>Node12&#45;&gt;Node1</title>
<path fill="none" stroke="#404040" d="M1091.8423,-105.4341C1076.0906,-94.7308 1057.1357,-83.3865 1038.5,-76 968.232,-48.1483 880.0692,-36.4915 830.025,-31.85"/>
<polygon fill="none" stroke="#404040" points="829.8144,-31.8318 823.4901,-35.2965 817.8596,-30.7913 824.1838,-27.3266 829.8144,-31.8318"/>
<text text-anchor="middle" x="1102" y="-79" font-family="Helvetica,sans-Serif" font-size="10.00" fill="#000000"> +drmDataTrailer</text>
</g>
<!-- Node13 -->
<g id="node13" class="node">
<title>Node13</title>
<polygon fill="none" stroke="#bfbfbf" points="1198,-105.5 1198,-162.5 1287,-162.5 1287,-105.5 1198,-105.5"/>
<text text-anchor="middle" x="1242.5" y="-150.5" font-family="Helvetica,sans-Serif" font-size="10.00" fill="#000000">DRMHeadW2_t</text>
<polyline fill="none" stroke="#bfbfbf" points="1198,-143.5 1287,-143.5 "/>
<text text-anchor="middle" x="1242.5" y="-131.5" font-family="Helvetica,sans-Serif" font-size="10.00" fill="#000000"> </text>
<polyline fill="none" stroke="#bfbfbf" points="1198,-124.5 1287,-124.5 "/>
<text text-anchor="middle" x="1242.5" y="-112.5" font-family="Helvetica,sans-Serif" font-size="10.00" fill="#000000"> </text>
</g>
<!-- Node13&#45;&gt;Node1 -->
<g id="edge12" class="edge">
<title>Node13&#45;&gt;Node1</title>
<path fill="none" stroke="#404040" d="M1204.1392,-105.2166C1187.7917,-94.3466 1168.0128,-82.9395 1148.5,-76 1090.3347,-55.3141 909.7526,-38.6372 829.5565,-32.0455"/>
<polygon fill="none" stroke="#404040" points="829.5424,-32.0444 823.2389,-35.5467 817.5816,-31.0751 823.8851,-27.5728 829.5424,-32.0444"/>
<text text-anchor="middle" x="1209" y="-79" font-family="Helvetica,sans-Serif" font-size="10.00" fill="#000000"> +drmHeadW2</text>
</g>
<!-- Node14 -->
<g id="node14" class="node">
<title>Node14</title>
<polygon fill="none" stroke="#bfbfbf" points="1305,-105.5 1305,-162.5 1412,-162.5 1412,-105.5 1305,-105.5"/>
<text text-anchor="middle" x="1358.5" y="-150.5" font-family="Helvetica,sans-Serif" font-size="10.00" fill="#000000">DRMDataHeader_t</text>
<polyline fill="none" stroke="#bfbfbf" points="1305,-143.5 1412,-143.5 "/>
<text text-anchor="middle" x="1358.5" y="-131.5" font-family="Helvetica,sans-Serif" font-size="10.00" fill="#000000"> </text>
<polyline fill="none" stroke="#bfbfbf" points="1305,-124.5 1412,-124.5 "/>
<text text-anchor="middle" x="1358.5" y="-112.5" font-family="Helvetica,sans-Serif" font-size="10.00" fill="#000000"> </text>
</g>
<!-- Node14&#45;&gt;Node1 -->
<g id="edge13" class="edge">
<title>Node14&#45;&gt;Node1</title>
<path fill="none" stroke="#404040" d="M1314.3278,-105.4729C1295.1425,-94.4356 1271.9548,-82.8361 1249.5,-76 1171.3024,-52.1937 926.0674,-36.474 829.8229,-31.0775"/>
<polygon fill="none" stroke="#404040" points="829.7707,-31.0747 823.5593,-34.7379 817.7889,-30.4132 824.0003,-26.75 829.7707,-31.0747"/>
<text text-anchor="middle" x="1322.5" y="-79" font-family="Helvetica,sans-Serif" font-size="10.00" fill="#000000"> +drmDataHeader</text>
</g>
<!-- Node15 -->
<g id="node15" class="node">
<title>Node15</title>
<polygon fill="none" stroke="#bfbfbf" points="1430.5,-105.5 1430.5,-162.5 1530.5,-162.5 1530.5,-105.5 1430.5,-105.5"/>
<text text-anchor="middle" x="1480.5" y="-150.5" font-family="Helvetica,sans-Serif" font-size="10.00" fill="#000000">TRMDataTrailer_t</text>
<polyline fill="none" stroke="#bfbfbf" points="1430.5,-143.5 1530.5,-143.5 "/>
<text text-anchor="middle" x="1480.5" y="-131.5" font-family="Helvetica,sans-Serif" font-size="10.00" fill="#000000"> </text>
<polyline fill="none" stroke="#bfbfbf" points="1430.5,-124.5 1530.5,-124.5 "/>
<text text-anchor="middle" x="1480.5" y="-112.5" font-family="Helvetica,sans-Serif" font-size="10.00" fill="#000000"> </text>
</g>
<!-- Node15&#45;&gt;Node1 -->
<g id="edge14" class="edge">
<title>Node15&#45;&gt;Node1</title>
<path fill="none" stroke="#404040" d="M1436.6606,-105.389C1417.4363,-94.2669 1394.1292,-82.6264 1371.5,-76 1269.4514,-46.1176 943.4224,-33.6239 829.9133,-30.1072"/>
<polygon fill="none" stroke="#404040" points="829.756,-30.1025 823.638,-33.9195 817.7615,-29.7401 823.8796,-25.9231 829.756,-30.1025"/>
<text text-anchor="middle" x="1440.5" y="-79" font-family="Helvetica,sans-Serif" font-size="10.00" fill="#000000"> +trmDataTrailer</text>
</g>
<!-- Node16 -->
<g id="node16" class="node">
<title>Node16</title>
<polygon fill="none" stroke="#bfbfbf" points="1549,-105.5 1549,-162.5 1638,-162.5 1638,-105.5 1549,-105.5"/>
<text text-anchor="middle" x="1593.5" y="-150.5" font-family="Helvetica,sans-Serif" font-size="10.00" fill="#000000">DRMHeadW1_t</text>
<polyline fill="none" stroke="#bfbfbf" points="1549,-143.5 1638,-143.5 "/>
<text text-anchor="middle" x="1593.5" y="-131.5" font-family="Helvetica,sans-Serif" font-size="10.00" fill="#000000"> </text>
<polyline fill="none" stroke="#bfbfbf" points="1549,-124.5 1638,-124.5 "/>
<text text-anchor="middle" x="1593.5" y="-112.5" font-family="Helvetica,sans-Serif" font-size="10.00" fill="#000000"> </text>
</g>
<!-- Node16&#45;&gt;Node1 -->
<g id="edge15" class="edge">
<title>Node16&#45;&gt;Node1</title>
<path fill="none" stroke="#404040" d="M1550.3968,-105.3921C1531.3122,-94.1986 1508.1004,-82.5032 1485.5,-76 1360.9201,-40.1523 957.5799,-31.3837 829.7457,-29.4803"/>
<polygon fill="none" stroke="#404040" points="829.5711,-29.4779 823.5149,-33.3924 817.5723,-29.3076 823.6284,-25.3932 829.5711,-29.4779"/>
<text text-anchor="middle" x="1550" y="-79" font-family="Helvetica,sans-Serif" font-size="10.00" fill="#000000"> +drmHeadW1</text>
</g>
</g>
</svg>
        <g id="navigator" transform="translate(0 0)" fill="#404254">
                <rect fill="#f2f5e9" fill-opacity="0.5" stroke="#606060" stroke-width=".5" x="0" y="0" width="60" height="60"/>
                <use id="zoomplus" xlink:href="#zoomPlus" x="17" y="9" onmousedown="handleZoom(evt,'in')"/>
                <use id="zoomminus" xlink:href="#zoomMin" x="42" y="9" onmousedown="handleZoom(evt,'out')"/>
                <use id="reset" xlink:href="#resetDef" x="30" y="36" onmousedown="handleReset()"/>
                <g id="arrowUp" xlink:href="#dirArrow" transform="translate(30 24)" onmousedown="handlePan(0,-1)">
                  <use xlink:href="#rim" fill="#404040">
                        <set attributeName="fill" to="#808080" begin="arrowUp.mouseover" end="arrowUp.mouseout"/>
                  </use>
                  <path fill="none" stroke="white" stroke-width="1.5" d="M0,-3.0v7 M-2.5,-0.5L0,-3.0L2.5,-0.5"/>
                </g>
                <g id="arrowRight" xlink:href="#dirArrow" transform="rotate(90) translate(36 -43)" onmousedown="handlePan(1,0)">
                  <use xlink:href="#rim" fill="#404040">
                        <set attributeName="fill" to="#808080" begin="arrowRight.mouseover" end="arrowRight.mouseout"/>
                  </use>
                  <path fill="none" stroke="white" stroke-width="1.5" d="M0,-3.0v7 M-2.5,-0.5L0,-3.0L2.5,-0.5"/>
                </g>
                <g id="arrowDown" xlink:href="#dirArrow" transform="rotate(180) translate(-30 -48)" onmousedown="handlePan(0,1)">
                  <use xlink:href="#rim" fill="#404040">
                        <set attributeName="fill" to="#808080" begin="arrowDown.mouseover" end="arrowDown.mouseout"/>
                  </use>
                  <path fill="none" stroke="white" stroke-width="1.5" d="M0,-3.0v7 M-2.5,-0.5L0,-3.0L2.5,-0.5"/>
                </g>
                <g id="arrowLeft" xlink:href="#dirArrow" transform="rotate(270) translate(-36 17)" onmousedown="handlePan(-1,0)">
                  <use xlink:href="#rim" fill="#404040">
                        <set attributeName="fill" to="#808080" begin="arrowLeft.mouseover" end="arrowLeft.mouseout"/>
                  </use>
                  <path fill="none" stroke="white" stroke-width="1.5" d="M0,-3.0v7 M-2.5,-0.5L0,-3.0L2.5,-0.5"/>
                </g>
        </g>
        <svg viewBox="0 0 15 15" width="100%" height="30px" preserveAspectRatio="xMaxYMin meet">
         <g id="arrow_out" transform="scale(0.3 0.3)">
          <a xlink:href="unionUnion__t__coll__graph_org.svg" target="_base">
           <rect id="button" ry="5" rx="5" y="6" x="6" height="38" width="38"
                fill="#f2f5e9" fill-opacity="0.5" stroke="#606060" stroke-width="1.0"/>
           <path id="arrow"
             d="M 11.500037,31.436501 C 11.940474,20.09759 22.043105,11.32322 32.158766,21.979434 L 37.068811,17.246167 C 37.068811,17.246167 37.088388,32 37.088388,32 L 22.160133,31.978069 C 22.160133,31.978069 26.997745,27.140456 26.997745,27.140456 C 18.528582,18.264221 13.291696,25.230495 11.500037,31.436501 z"
             style="fill:#404040;"/>
          </a>
         </g>
        </svg>
</svg>
