<?xml version="1.0" encoding="UTF-8" standalone="no"?>
<!DOCTYPE svg PUBLIC "-//W3C//DTD SVG 1.1//EN"
 "http://www.w3.org/Graphics/SVG/1.1/DTD/svg11.dtd">
<!-- Generated by graphviz version 2.40.1 (20161225.0304)
 -->
<!-- Title: /home/travis/build/AliceO2Group/AliceO2/Utilities/DataFlow/src/EPNReceiverDevice.cxx Pages: 1 -->
<svg width="1192pt" height="285pt"
 viewBox="0.00 0.00 1191.50 285.00" xmlns="http://www.w3.org/2000/svg" xmlns:xlink="http://www.w3.org/1999/xlink">
<g id="graph0" class="graph" transform="scale(1 1) rotate(0) translate(4 281)">
<title>/home/travis/build/AliceO2Group/AliceO2/Utilities/DataFlow/src/EPNReceiverDevice.cxx</title>
<!-- Node0 -->
<g id="node1" class="node">
<title>Node0</title>
<polygon fill="#bfbfbf" stroke="#000000" points="470,-224.5 470,-276.5 605,-276.5 605,-224.5 470,-224.5"/>
<text text-anchor="start" x="478" y="-264.5" font-family="Helvetica,sans-Serif" font-size="10.00" fill="#000000">/home/travis/build</text>
<text text-anchor="start" x="478" y="-253.5" font-family="Helvetica,sans-Serif" font-size="10.00" fill="#000000">/AliceO2Group/AliceO2</text>
<text text-anchor="start" x="478" y="-242.5" font-family="Helvetica,sans-Serif" font-size="10.00" fill="#000000">/Utilities/DataFlow/src</text>
<text text-anchor="middle" x="537.5" y="-231.5" font-family="Helvetica,sans-Serif" font-size="10.00" fill="#000000">/EPNReceiverDevice.cxx</text>
</g>
<!-- Node1 -->
<g id="node2" class="node">
<title>Node1</title>
<polygon fill="none" stroke="#bfbfbf" points="0,-168.5 0,-187.5 53,-187.5 53,-168.5 0,-168.5"/>
<text text-anchor="middle" x="26.5" y="-175.5" font-family="Helvetica,sans-Serif" font-size="10.00" fill="#000000">cstddef</text>
</g>
<!-- Node0&#45;&gt;Node1 -->
<g id="edge1" class="edge">
<title>Node0&#45;&gt;Node1</title>
<path fill="none" stroke="#191970" d="M469.9712,-244.8015C379.2233,-236.4412 212.887,-218.65 63,-188.0857"/>
<polygon fill="#191970" stroke="#191970" points="63.653,-184.6468 53.152,-186.054 62.2385,-191.5024 63.653,-184.6468"/>
</g>
<!-- Node2 -->
<g id="node3" class="node">
<title>Node2</title>
<polygon fill="none" stroke="#bfbfbf" points="71,-168.5 71,-187.5 126,-187.5 126,-168.5 71,-168.5"/>
<text text-anchor="middle" x="98.5" y="-175.5" font-family="Helvetica,sans-Serif" font-size="10.00" fill="#000000">fstream</text>
</g>
<!-- Node0&#45;&gt;Node2 -->
<g id="edge2" class="edge">
<title>Node0&#45;&gt;Node2</title>
<path fill="none" stroke="#191970" d="M469.7837,-241.4709C390.5344,-230.5274 255.4975,-210.7067 140.5,-188 139.2177,-187.7468 137.9153,-187.4817 136.6013,-187.2075"/>
<polygon fill="#191970" stroke="#191970" points="136.9665,-183.7042 126.448,-184.9735 135.4623,-190.5407 136.9665,-183.7042"/>
</g>
<!-- Node3 -->
<g id="node4" class="node">
<title>Node3</title>
<polygon fill="none" stroke="#bfbfbf" points="185.5,-.5 185.5,-19.5 235.5,-19.5 235.5,-.5 185.5,-.5"/>
<text text-anchor="middle" x="210.5" y="-7.5" font-family="Helvetica,sans-Serif" font-size="10.00" fill="#000000">cstring</text>
</g>
<!-- Node0&#45;&gt;Node3 -->
<g id="edge3" class="edge">
<title>Node0&#45;&gt;Node3</title>
<path fill="none" stroke="#191970" d="M469.7447,-232.1886C405.7593,-213.0753 308.6679,-179.2635 233.5,-132 202.6201,-112.5836 188.0378,-109.4547 173.5,-76 165.885,-58.4762 178.8678,-39.5592 191.5004,-26.4893"/>
<polygon fill="#191970" stroke="#191970" points="193.9599,-28.9799 198.7394,-19.5243 189.1066,-23.9356 193.9599,-28.9799"/>
</g>
<!-- Node4 -->
<g id="node5" class="node">
<title>Node4</title>
<polygon fill="none" stroke="#bfbfbf" points="662.5,-168.5 662.5,-187.5 718.5,-187.5 718.5,-168.5 662.5,-168.5"/>
<text text-anchor="middle" x="690.5" y="-175.5" font-family="Helvetica,sans-Serif" font-size="10.00" fill="#000000">iomanip</text>
</g>
<!-- Node0&#45;&gt;Node4 -->
<g id="edge4" class="edge">
<title>Node0&#45;&gt;Node4</title>
<path fill="none" stroke="#191970" d="M592.7365,-224.3258C615.8754,-213.3613 641.8337,-201.0608 661.1837,-191.8917"/>
<polygon fill="#191970" stroke="#191970" points="662.8419,-194.9791 670.38,-187.534 659.8444,-188.6533 662.8419,-194.9791"/>
</g>
<!-- Node5 -->
<g id="node6" class="node">
<title>Node5</title>
<polygon fill="none" stroke="#bfbfbf" points="737,-168.5 737,-187.5 828,-187.5 828,-168.5 737,-168.5"/>
<text text-anchor="middle" x="782.5" y="-175.5" font-family="Helvetica,sans-Serif" font-size="10.00" fill="#000000">FairMQLogger.h</text>
</g>
<!-- Node0&#45;&gt;Node5 -->
<g id="edge5" class="edge">
<title>Node0&#45;&gt;Node5</title>
<path fill="none" stroke="#191970" d="M605.0959,-230.4971C648.3374,-217.7012 703.0872,-201.4997 740.2462,-190.5037"/>
<polygon fill="#191970" stroke="#191970" points="741.6405,-193.7412 750.2363,-187.5474 739.6542,-187.0289 741.6405,-193.7412"/>
</g>
<!-- Node6 -->
<g id="node7" class="node">
<title>Node6</title>
<polygon fill="none" stroke="#bfbfbf" points="846,-168.5 846,-187.5 1003,-187.5 1003,-168.5 846,-168.5"/>
<text text-anchor="middle" x="924.5" y="-175.5" font-family="Helvetica,sans-Serif" font-size="10.00" fill="#000000">options/FairMQProgOptions.h</text>
</g>
<!-- Node0&#45;&gt;Node6 -->
<g id="edge6" class="edge">
<title>Node0&#45;&gt;Node6</title>
<path fill="none" stroke="#191970" d="M605.3531,-237.7885C678.3918,-224.1055 793.5087,-202.5397 863.6939,-189.3913"/>
<polygon fill="#191970" stroke="#191970" points="864.5282,-192.796 873.7127,-187.5144 863.2392,-185.9157 864.5282,-192.796"/>
</g>
<!-- Node7 -->
<g id="node8" class="node">
<title>Node7</title>
<g id="a_node8"><a xlink:href="../../d2/d37/EPNReceiverDevice_8h.html" target="_top" xlink:title="DataFlow/EPNReceiverDevice.h">
<polygon fill="none" stroke="#000000" points="242.5,-112.5 242.5,-131.5 412.5,-131.5 412.5,-112.5 242.5,-112.5"/>
<text text-anchor="middle" x="327.5" y="-119.5" font-family="Helvetica,sans-Serif" font-size="10.00" fill="#000000">DataFlow/EPNReceiverDevice.h</text>
</a>
</g>
</g>
<!-- Node0&#45;&gt;Node7 -->
<g id="edge7" class="edge">
<title>Node0&#45;&gt;Node7</title>
<path fill="none" stroke="#191970" d="M489.236,-224.3595C469.5815,-213.4473 446.7631,-200.4348 426.5,-188 399.4762,-171.4163 369.2682,-150.9924 349.4093,-137.2951"/>
<polygon fill="#191970" stroke="#191970" points="351.2753,-134.33 341.0618,-131.513 347.2894,-140.0844 351.2753,-134.33"/>
</g>
<!-- Node13 -->
<g id="node14" class="node">
<title>Node13</title>
<g id="a_node14"><a xlink:href="../../dc/dcd/DataHeader_8h.html" target="_top" xlink:title="Headers/DataHeader.h">
<polygon fill="none" stroke="#000000" points="615,-56.5 615,-75.5 742,-75.5 742,-56.5 615,-56.5"/>
<text text-anchor="middle" x="678.5" y="-63.5" font-family="Helvetica,sans-Serif" font-size="10.00" fill="#000000">Headers/DataHeader.h</text>
</a>
</g>
</g>
<!-- Node0&#45;&gt;Node13 -->
<g id="edge13" class="edge">
<title>Node0&#45;&gt;Node13</title>
<path fill="none" stroke="#191970" d="M491.3981,-224.4457C478.689,-214.7742 466.4851,-202.5479 459.5,-188 452.7082,-173.8547 442.972,-133.2224 460.5,-112 469.8722,-100.6524 545.1517,-86.5389 604.6606,-76.959"/>
<polygon fill="#191970" stroke="#191970" points="605.4887,-80.3713 614.8144,-75.3433 604.3886,-73.4583 605.4887,-80.3713"/>
</g>
<!-- Node22 -->
<g id="node23" class="node">
<title>Node22</title>
<g id="a_node23"><a xlink:href="../../d2/d1b/SubframeMetadata_8h.html" target="_top" xlink:title="Headers/SubframeMetadata.h">
<polygon fill="none" stroke="#000000" points="1021.5,-168.5 1021.5,-187.5 1183.5,-187.5 1183.5,-168.5 1021.5,-168.5"/>
<text text-anchor="middle" x="1102.5" y="-175.5" font-family="Helvetica,sans-Serif" font-size="10.00" fill="#000000">Headers/SubframeMetadata.h</text>
</a>
</g>
</g>
<!-- Node0&#45;&gt;Node22 -->
<g id="edge24" class="edge">
<title>Node0&#45;&gt;Node22</title>
<path fill="none" stroke="#191970" d="M605.091,-241.8268C708.4439,-228.5647 905.5843,-203.2679 1018.1559,-188.8229"/>
<polygon fill="#191970" stroke="#191970" points="1018.6393,-192.2897 1028.1125,-187.5453 1017.7483,-185.3466 1018.6393,-192.2897"/>
</g>
<!-- Node24 -->
<g id="node25" class="node">
<title>Node24</title>
<g id="a_node25"><a xlink:href="../../da/d51/Compatibility_8h.html" target="_top" xlink:title="O2Device/Compatibility.h">
<polygon fill="none" stroke="#000000" points="794.5,-112.5 794.5,-131.5 934.5,-131.5 934.5,-112.5 794.5,-112.5"/>
<text text-anchor="middle" x="864.5" y="-119.5" font-family="Helvetica,sans-Serif" font-size="10.00" fill="#000000">O2Device/Compatibility.h</text>
</a>
</g>
</g>
<!-- Node0&#45;&gt;Node24 -->
<g id="edge26" class="edge">
<title>Node0&#45;&gt;Node24</title>
<path fill="none" stroke="#191970" d="M566.9298,-224.4351C589.2264,-206.0256 621.4069,-182.1947 653.5,-168 679.1358,-156.6614 746.8126,-142.8744 798.6711,-133.3677"/>
<polygon fill="#191970" stroke="#191970" points="799.6012,-136.7562 808.8147,-131.5255 798.3502,-129.8688 799.6012,-136.7562"/>
</g>
<!-- Node26 -->
<g id="node27" class="node">
<title>Node26</title>
<g id="a_node27"><a xlink:href="../../de/dfa/TimeFrame_8h.html" target="_top" xlink:title="TimeFrame/TimeFrame.h">
<polygon fill="none" stroke="#000000" points="468.5,-168.5 468.5,-187.5 606.5,-187.5 606.5,-168.5 468.5,-168.5"/>
<text text-anchor="middle" x="537.5" y="-175.5" font-family="Helvetica,sans-Serif" font-size="10.00" fill="#000000">TimeFrame/TimeFrame.h</text>
</a>
</g>
</g>
<!-- Node0&#45;&gt;Node26 -->
<g id="edge28" class="edge">
<title>Node0&#45;&gt;Node26</title>
<path fill="none" stroke="#191970" d="M537.5,-224.3258C537.5,-215.5142 537.5,-205.8397 537.5,-197.621"/>
<polygon fill="#191970" stroke="#191970" points="541.0001,-197.534 537.5,-187.534 534.0001,-197.534 541.0001,-197.534"/>
</g>
<!-- Node8 -->
<g id="node9" class="node">
<title>Node8</title>
<polygon fill="none" stroke="#bfbfbf" points="309.5,-.5 309.5,-19.5 353.5,-19.5 353.5,-.5 309.5,-.5"/>
<text text-anchor="middle" x="331.5" y="-7.5" font-family="Helvetica,sans-Serif" font-size="10.00" fill="#000000">string</text>
</g>
<!-- Node7&#45;&gt;Node8 -->
<g id="edge8" class="edge">
<title>Node7&#45;&gt;Node8</title>
<path fill="none" stroke="#191970" d="M348.2852,-112.3756C362.187,-104.6917 379.3691,-92.4793 387.5,-76 397.2581,-56.2228 377.4242,-37.4307 358.7199,-24.9939"/>
<polygon fill="#191970" stroke="#191970" points="360.3783,-21.9034 350.0403,-19.5845 356.6758,-27.8441 360.3783,-21.9034"/>
</g>
<!-- Node9 -->
<g id="node10" class="node">
<title>Node9</title>
<polygon fill="none" stroke="#bfbfbf" points="435,-56.5 435,-75.5 528,-75.5 528,-56.5 435,-56.5"/>
<text text-anchor="middle" x="481.5" y="-63.5" font-family="Helvetica,sans-Serif" font-size="10.00" fill="#000000">unordered_map</text>
</g>
<!-- Node7&#45;&gt;Node9 -->
<g id="edge9" class="edge">
<title>Node7&#45;&gt;Node9</title>
<path fill="none" stroke="#191970" d="M353.9735,-112.3733C379.3597,-103.1419 417.8645,-89.1402 445.922,-78.9375"/>
<polygon fill="#191970" stroke="#191970" points="447.1701,-82.2079 455.3719,-75.5011 444.7778,-75.6293 447.1701,-82.2079"/>
</g>
<!-- Node10 -->
<g id="node11" class="node">
<title>Node10</title>
<polygon fill="none" stroke="#bfbfbf" points="182.5,-56.5 182.5,-75.5 268.5,-75.5 268.5,-56.5 182.5,-56.5"/>
<text text-anchor="middle" x="225.5" y="-63.5" font-family="Helvetica,sans-Serif" font-size="10.00" fill="#000000">unordered_set</text>
</g>
<!-- Node7&#45;&gt;Node10 -->
<g id="edge10" class="edge">
<title>Node7&#45;&gt;Node10</title>
<path fill="none" stroke="#191970" d="M309.733,-112.2455C293.7905,-103.4928 270.1741,-90.527 252.0011,-80.5496"/>
<polygon fill="#191970" stroke="#191970" points="253.5137,-77.3873 243.0634,-75.6427 250.1448,-83.5233 253.5137,-77.3873"/>
</g>
<!-- Node11 -->
<g id="node12" class="node">
<title>Node11</title>
<polygon fill="none" stroke="#bfbfbf" points="546.5,-56.5 546.5,-75.5 596.5,-75.5 596.5,-56.5 546.5,-56.5"/>
<text text-anchor="middle" x="571.5" y="-63.5" font-family="Helvetica,sans-Serif" font-size="10.00" fill="#000000">chrono</text>
</g>
<!-- Node7&#45;&gt;Node11 -->
<g id="edge11" class="edge">
<title>Node7&#45;&gt;Node11</title>
<path fill="none" stroke="#191970" d="M375.6848,-112.4509C416.2275,-104.1896 475.9222,-91.4988 536.5654,-76.1168"/>
<polygon fill="#191970" stroke="#191970" points="537.4833,-79.4948 546.3036,-73.6253 535.7481,-72.7133 537.4833,-79.4948"/>
</g>
<!-- Node12 -->
<g id="node13" class="node">
<title>Node12</title>
<polygon fill="none" stroke="#bfbfbf" points="286.5,-56.5 286.5,-75.5 378.5,-75.5 378.5,-56.5 286.5,-56.5"/>
<text text-anchor="middle" x="332.5" y="-63.5" font-family="Helvetica,sans-Serif" font-size="10.00" fill="#000000">FairMQDevice.h</text>
</g>
<!-- Node7&#45;&gt;Node12 -->
<g id="edge12" class="edge">
<title>Node7&#45;&gt;Node12</title>
<path fill="none" stroke="#191970" d="M328.3709,-112.2455C329.0234,-104.9382 329.938,-94.6944 330.7407,-85.7046"/>
<polygon fill="#191970" stroke="#191970" points="334.2358,-85.9143 331.639,-75.6427 327.2635,-85.2918 334.2358,-85.9143"/>
</g>
<!-- Node13&#45;&gt;Node3 -->
<g id="edge17" class="edge">
<title>Node13&#45;&gt;Node3</title>
<path fill="none" stroke="#191970" d="M614.8088,-57.198C611.662,-56.7874 608.5457,-56.3859 605.5,-56 536.0403,-47.1989 328.6963,-23.4688 245.5566,-13.9904"/>
<polygon fill="#191970" stroke="#191970" points="245.9231,-10.5096 235.5911,-12.8547 245.1304,-17.4645 245.9231,-10.5096"/>
</g>
<!-- Node13&#45;&gt;Node8 -->
<g id="edge20" class="edge">
<title>Node13&#45;&gt;Node8</title>
<path fill="none" stroke="#191970" d="M614.6971,-56.991C534.7808,-45.6703 404.1695,-27.0357 363.6684,-19.6683"/>
<polygon fill="#191970" stroke="#191970" points="364.2206,-16.2092 353.7258,-17.662 362.8359,-23.0709 364.2206,-16.2092"/>
</g>
<!-- Node14 -->
<g id="node15" class="node">
<title>Node14</title>
<polygon fill="none" stroke="#bfbfbf" points="835.5,-.5 835.5,-19.5 885.5,-19.5 885.5,-.5 835.5,-.5"/>
<text text-anchor="middle" x="860.5" y="-7.5" font-family="Helvetica,sans-Serif" font-size="10.00" fill="#000000">cstdint</text>
</g>
<!-- Node13&#45;&gt;Node14 -->
<g id="edge14" class="edge">
<title>Node13&#45;&gt;Node14</title>
<path fill="none" stroke="#191970" d="M709.7869,-56.3733C742.0239,-46.4542 792.1608,-31.0275 825.6472,-20.7239"/>
<polygon fill="#191970" stroke="#191970" points="826.9382,-23.9887 835.4667,-17.7026 824.8796,-17.2983 826.9382,-23.9887"/>
</g>
<!-- Node15 -->
<g id="node16" class="node">
<title>Node15</title>
<polygon fill="none" stroke="#bfbfbf" points="903.5,-.5 903.5,-19.5 961.5,-19.5 961.5,-.5 903.5,-.5"/>
<text text-anchor="middle" x="932.5" y="-7.5" font-family="Helvetica,sans-Serif" font-size="10.00" fill="#000000">memory</text>
</g>
<!-- Node13&#45;&gt;Node15 -->
<g id="edge15" class="edge">
<title>Node13&#45;&gt;Node15</title>
<path fill="none" stroke="#191970" d="M726.6893,-56.4202C768.3328,-47.9879 830.363,-35.0623 893.3716,-20.1893"/>
<polygon fill="#191970" stroke="#191970" points="894.5691,-23.5023 903.4895,-17.786 892.9513,-16.6918 894.5691,-23.5023"/>
</g>
<!-- Node16 -->
<g id="node17" class="node">
<title>Node16</title>
<polygon fill="none" stroke="#bfbfbf" points="979.5,-.5 979.5,-19.5 1031.5,-19.5 1031.5,-.5 979.5,-.5"/>
<text text-anchor="middle" x="1005.5" y="-7.5" font-family="Helvetica,sans-Serif" font-size="10.00" fill="#000000">cassert</text>
</g>
<!-- Node13&#45;&gt;Node16 -->
<g id="edge16" class="edge">
<title>Node13&#45;&gt;Node16</title>
<path fill="none" stroke="#191970" d="M742.1439,-58.2519C799.3157,-50.7752 885.6888,-38.2062 969.2983,-20.0636"/>
<polygon fill="#191970" stroke="#191970" points="970.2,-23.449 979.2146,-17.8823 968.6961,-16.6124 970.2,-23.449"/>
</g>
<!-- Node17 -->
<g id="node18" class="node">
<title>Node17</title>
<polygon fill="none" stroke="#bfbfbf" points="371.5,-.5 371.5,-19.5 435.5,-19.5 435.5,-.5 371.5,-.5"/>
<text text-anchor="middle" x="403.5" y="-7.5" font-family="Helvetica,sans-Serif" font-size="10.00" fill="#000000">algorithm</text>
</g>
<!-- Node13&#45;&gt;Node17 -->
<g id="edge18" class="edge">
<title>Node13&#45;&gt;Node17</title>
<path fill="none" stroke="#191970" d="M627.0171,-56.4304C579.7251,-47.4989 507.7461,-33.5494 445.5,-20 445.3993,-19.9781 445.2985,-19.9561 445.1975,-19.9341"/>
<polygon fill="#191970" stroke="#191970" points="446.0984,-16.5493 435.5743,-17.7721 444.5639,-23.3791 446.0984,-16.5493"/>
</g>
<!-- Node18 -->
<g id="node19" class="node">
<title>Node18</title>
<polygon fill="none" stroke="#bfbfbf" points="454,-.5 454,-19.5 519,-19.5 519,-.5 454,-.5"/>
<text text-anchor="middle" x="486.5" y="-7.5" font-family="Helvetica,sans-Serif" font-size="10.00" fill="#000000">stdexcept</text>
</g>
<!-- Node13&#45;&gt;Node18 -->
<g id="edge19" class="edge">
<title>Node13&#45;&gt;Node18</title>
<path fill="none" stroke="#191970" d="M645.494,-56.3733C613.2909,-46.9807 564.1558,-32.6496 529.0361,-22.4064"/>
<polygon fill="#191970" stroke="#191970" points="529.6553,-18.9412 519.0753,-19.5011 527.6953,-25.6612 529.6553,-18.9412"/>
</g>
<!-- Node19 -->
<g id="node20" class="node">
<title>Node19</title>
<polygon fill="none" stroke="#bfbfbf" points="537.5,-.5 537.5,-19.5 587.5,-19.5 587.5,-.5 537.5,-.5"/>
<text text-anchor="middle" x="562.5" y="-7.5" font-family="Helvetica,sans-Serif" font-size="10.00" fill="#000000">climits</text>
</g>
<!-- Node13&#45;&gt;Node19 -->
<g id="edge21" class="edge">
<title>Node13&#45;&gt;Node19</title>
<path fill="none" stroke="#191970" d="M658.5589,-56.3733C640.0214,-47.4241 612.1972,-33.9917 591.2587,-23.8835"/>
<polygon fill="#191970" stroke="#191970" points="592.7081,-20.6967 582.1809,-19.5011 589.6648,-27.0006 592.7081,-20.6967"/>
</g>
<!-- Node20 -->
<g id="node21" class="node">
<title>Node20</title>
<g id="a_node21"><a xlink:href="../../d7/df8/Types_8h.html" target="_top" xlink:title="MemoryResources/Types.h">
<polygon fill="none" stroke="#000000" points="605.5,-.5 605.5,-19.5 751.5,-19.5 751.5,-.5 605.5,-.5"/>
<text text-anchor="middle" x="678.5" y="-7.5" font-family="Helvetica,sans-Serif" font-size="10.00" fill="#000000">MemoryResources/Types.h</text>
</a>
</g>
</g>
<!-- Node13&#45;&gt;Node20 -->
<g id="edge22" class="edge">
<title>Node13&#45;&gt;Node20</title>
<path fill="none" stroke="#191970" d="M678.5,-56.2455C678.5,-48.9382 678.5,-38.6944 678.5,-29.7046"/>
<polygon fill="#191970" stroke="#191970" points="682.0001,-29.6426 678.5,-19.6427 675.0001,-29.6427 682.0001,-29.6426"/>
</g>
<!-- Node21 -->
<g id="node22" class="node">
<title>Node21</title>
<polygon fill="none" stroke="#bfbfbf" points="770,-.5 770,-19.5 817,-19.5 817,-.5 770,-.5"/>
<text text-anchor="middle" x="793.5" y="-7.5" font-family="Helvetica,sans-Serif" font-size="10.00" fill="#000000">cerrno</text>
</g>
<!-- Node13&#45;&gt;Node21 -->
<g id="edge23" class="edge">
<title>Node13&#45;&gt;Node21</title>
<path fill="none" stroke="#191970" d="M698.2692,-56.3733C716.6469,-47.4241 744.2312,-33.9917 764.9893,-23.8835"/>
<polygon fill="#191970" stroke="#191970" points="766.5304,-27.026 773.9888,-19.5011 763.4657,-20.7325 766.5304,-27.026"/>
</g>
<!-- Node23 -->
<g id="node24" class="node">
<title>Node23</title>
<polygon fill="none" stroke="#bfbfbf" points="1079,-112.5 1079,-131.5 1126,-131.5 1126,-112.5 1079,-112.5"/>
<text text-anchor="middle" x="1102.5" y="-119.5" font-family="Helvetica,sans-Serif" font-size="10.00" fill="#000000">vector</text>
</g>
<!-- Node22&#45;&gt;Node23 -->
<g id="edge25" class="edge">
<title>Node22&#45;&gt;Node23</title>
<path fill="none" stroke="#191970" d="M1102.5,-168.2455C1102.5,-160.9382 1102.5,-150.6944 1102.5,-141.7046"/>
<polygon fill="#191970" stroke="#191970" points="1106.0001,-141.6426 1102.5,-131.6427 1099.0001,-141.6427 1106.0001,-141.6426"/>
</g>
<!-- Node25 -->
<g id="node26" class="node">
<title>Node25</title>
<polygon fill="none" stroke="#bfbfbf" points="826,-56.5 826,-75.5 895,-75.5 895,-56.5 826,-56.5"/>
<text text-anchor="middle" x="860.5" y="-63.5" font-family="Helvetica,sans-Serif" font-size="10.00" fill="#000000">type_traits</text>
</g>
<!-- Node24&#45;&gt;Node25 -->
<g id="edge27" class="edge">
<title>Node24&#45;&gt;Node25</title>
<path fill="none" stroke="#191970" d="M863.8033,-112.2455C863.2813,-104.9382 862.5496,-94.6944 861.9075,-85.7046"/>
<polygon fill="#191970" stroke="#191970" points="865.3924,-85.3679 861.1888,-75.6427 858.4102,-85.8667 865.3924,-85.3679"/>
</g>
<!-- Node27 -->
<g id="node28" class="node">
<title>Node27</title>
<polygon fill="none" stroke="#bfbfbf" points="550,-112.5 550,-131.5 633,-131.5 633,-112.5 550,-112.5"/>
<text text-anchor="middle" x="591.5" y="-119.5" font-family="Helvetica,sans-Serif" font-size="10.00" fill="#000000">FairMQParts.h</text>
</g>
<!-- Node26&#45;&gt;Node27 -->
<g id="edge29" class="edge">
<title>Node26&#45;&gt;Node27</title>
<path fill="none" stroke="#191970" d="M546.9061,-168.2455C554.6493,-160.2155 565.812,-148.6394 575.0318,-139.0781"/>
<polygon fill="#191970" stroke="#191970" points="577.7798,-141.2706 582.2017,-131.6427 572.7409,-136.4117 577.7798,-141.2706"/>
</g>
<!-- Node28 -->
<g id="node29" class="node">
<title>Node28</title>
<polygon fill="none" stroke="#bfbfbf" points="469,-112.5 469,-131.5 532,-131.5 532,-112.5 469,-112.5"/>
<text text-anchor="middle" x="500.5" y="-119.5" font-family="Helvetica,sans-Serif" font-size="10.00" fill="#000000">TObject.h</text>
</g>
<!-- Node26&#45;&gt;Node28 -->
<g id="edge30" class="edge">
<title>Node26&#45;&gt;Node28</title>
<path fill="none" stroke="#191970" d="M531.0551,-168.2455C525.9618,-160.5367 518.7092,-149.5598 512.548,-140.2348"/>
<polygon fill="#191970" stroke="#191970" points="515.3038,-138.0566 506.8711,-131.6427 509.4635,-141.9155 515.3038,-138.0566"/>
</g>
<!-- Node29 -->
<g id="node30" class="node">
<title>Node29</title>
<g id="a_node30"><a xlink:href="../../d6/d90/Headers_2include_2Headers_2TimeStamp_8h.html" target="_top" xlink:title="Headers/TimeStamp.h">
<polygon fill="none" stroke="#000000" points="651,-112.5 651,-131.5 776,-131.5 776,-112.5 651,-112.5"/>
<text text-anchor="middle" x="713.5" y="-119.5" font-family="Helvetica,sans-Serif" font-size="10.00" fill="#000000">Headers/TimeStamp.h</text>
</a>
</g>
</g>
<!-- Node26&#45;&gt;Node29 -->
<g id="edge31" class="edge">
<title>Node26&#45;&gt;Node29</title>
<path fill="none" stroke="#191970" d="M567.7555,-168.3733C597.1483,-159.021 641.9292,-144.7725 674.0934,-134.5385"/>
<polygon fill="#191970" stroke="#191970" points="675.1713,-137.8685 683.6393,-131.5011 673.0488,-131.198 675.1713,-137.8685"/>
</g>
<!-- Node29&#45;&gt;Node11 -->
<g id="edge33" class="edge">
<title>Node29&#45;&gt;Node11</title>
<path fill="none" stroke="#191970" d="M689.0893,-112.3733C665.8858,-103.2226 630.7962,-89.3844 604.9858,-79.2057"/>
<polygon fill="#191970" stroke="#191970" points="606.1789,-75.9139 595.5921,-75.5011 603.6108,-82.4258 606.1789,-75.9139"/>
</g>
<!-- Node29&#45;&gt;Node13 -->
<g id="edge32" class="edge">
<title>Node29&#45;&gt;Node13</title>
<path fill="none" stroke="#191970" d="M707.4035,-112.2455C702.5855,-104.5367 695.7249,-93.5598 689.8968,-84.2348"/>
<polygon fill="#191970" stroke="#191970" points="692.7947,-82.2677 684.5267,-75.6427 686.8587,-85.9777 692.7947,-82.2677"/>
</g>
<!-- Node29&#45;&gt;Node16 -->
<g id="edge34" class="edge">
<title>Node29&#45;&gt;Node16</title>
<path fill="none" stroke="#191970" d="M725.5535,-112.4277C744.1958,-98.0851 781.6266,-71.0947 817.5,-56 878.9966,-30.1237 900.9216,-36.8916 969.2107,-20.1875"/>
<polygon fill="#191970" stroke="#191970" points="970.3275,-23.5153 979.1632,-17.6688 968.6101,-16.7292 970.3275,-23.5153"/>
</g>
<!-- Node29&#45;&gt;Node25 -->
<g id="edge35" class="edge">
<title>Node29&#45;&gt;Node25</title>
<path fill="none" stroke="#191970" d="M738.7702,-112.3733C762.8966,-103.1822 799.4362,-89.2624 826.1877,-79.0713"/>
<polygon fill="#191970" stroke="#191970" points="827.4607,-82.3318 835.5596,-75.5011 824.9687,-75.7904 827.4607,-82.3318"/>
</g>
</g>
</svg>
