<?xml version="1.0" encoding="UTF-8" standalone="no"?>
<!DOCTYPE svg PUBLIC "-//W3C//DTD SVG 1.1//EN"
 "http://www.w3.org/Graphics/SVG/1.1/DTD/svg11.dtd">
<!-- Generated by graphviz version 2.40.1 (20161225.0304)
 -->
<!-- Title: /home/travis/build/AliceO2Group/AliceO2/Common/MathUtils/include/MathUtils/Utils.h Pages: 1 -->
<svg width="472pt" height="229pt"
 viewBox="0.00 0.00 472.00 229.00" xmlns="http://www.w3.org/2000/svg" xmlns:xlink="http://www.w3.org/1999/xlink">
<g id="graph0" class="graph" transform="scale(1 1) rotate(0) translate(4 225)">
<title>/home/travis/build/AliceO2Group/AliceO2/Common/MathUtils/include/MathUtils/Utils.h</title>
<!-- Node0 -->
<g id="node1" class="node">
<title>Node0</title>
<polygon fill="#bfbfbf" stroke="#000000" points="80,-168.5 80,-220.5 232,-220.5 232,-168.5 80,-168.5"/>
<text text-anchor="start" x="88" y="-208.5" font-family="Helvetica,sans-Serif" font-size="10.00" fill="#000000">/home/travis/build</text>
<text text-anchor="start" x="88" y="-197.5" font-family="Helvetica,sans-Serif" font-size="10.00" fill="#000000">/AliceO2Group/AliceO2</text>
<text text-anchor="start" x="88" y="-186.5" font-family="Helvetica,sans-Serif" font-size="10.00" fill="#000000">/Common/MathUtils/include</text>
<text text-anchor="middle" x="156" y="-175.5" font-family="Helvetica,sans-Serif" font-size="10.00" fill="#000000">/MathUtils/Utils.h</text>
</g>
<!-- Node1 -->
<g id="node2" class="node">
<title>Node1</title>
<polygon fill="none" stroke="#bfbfbf" points="0,-112.5 0,-131.5 42,-131.5 42,-112.5 0,-112.5"/>
<text text-anchor="middle" x="21" y="-119.5" font-family="Helvetica,sans-Serif" font-size="10.00" fill="#000000">array</text>
</g>
<!-- Node0&#45;&gt;Node1 -->
<g id="edge1" class="edge">
<title>Node0&#45;&gt;Node1</title>
<path fill="none" stroke="#191970" d="M107.2619,-168.3258C87.1249,-157.5115 64.5679,-145.3976 47.5722,-136.2703"/>
<polygon fill="#191970" stroke="#191970" points="49.2189,-133.1818 38.753,-131.534 45.907,-139.3488 49.2189,-133.1818"/>
</g>
<!-- Node2 -->
<g id="node3" class="node">
<title>Node2</title>
<polygon fill="none" stroke="#bfbfbf" points="46.5,-56.5 46.5,-75.5 93.5,-75.5 93.5,-56.5 46.5,-56.5"/>
<text text-anchor="middle" x="70" y="-63.5" font-family="Helvetica,sans-Serif" font-size="10.00" fill="#000000">cmath</text>
</g>
<!-- Node0&#45;&gt;Node2 -->
<g id="edge2" class="edge">
<title>Node0&#45;&gt;Node2</title>
<path fill="none" stroke="#191970" d="M120.9489,-168.2651C109.3603,-158.0624 97.3174,-145.5595 89,-132 80.2434,-117.7245 75.3761,-99.2466 72.7663,-85.4747"/>
<polygon fill="#191970" stroke="#191970" points="76.2188,-84.8995 71.126,-75.6089 69.3135,-86.0476 76.2188,-84.8995"/>
</g>
<!-- Node3 -->
<g id="node4" class="node">
<title>Node3</title>
<g id="a_node4"><a xlink:href="../../df/d21/GPUCommonDef_8h.html" target="_top" xlink:title="GPUCommonDef.h">
<polygon fill="none" stroke="#000000" points="194.5,-56.5 194.5,-75.5 301.5,-75.5 301.5,-56.5 194.5,-56.5"/>
<text text-anchor="middle" x="248" y="-63.5" font-family="Helvetica,sans-Serif" font-size="10.00" fill="#000000">GPUCommonDef.h</text>
</a>
</g>
</g>
<!-- Node0&#45;&gt;Node3 -->
<g id="edge3" class="edge">
<title>Node0&#45;&gt;Node3</title>
<path fill="none" stroke="#191970" d="M189.1369,-168.3414C200.6844,-157.9713 212.9919,-145.3396 222,-132 231.6803,-117.6651 238.5648,-99.193 242.8074,-85.4383"/>
<polygon fill="#191970" stroke="#191970" points="246.24,-86.1661 245.6465,-75.588 239.5138,-84.2275 246.24,-86.1661"/>
</g>
<!-- Node6 -->
<g id="node7" class="node">
<title>Node6</title>
<g id="a_node7"><a xlink:href="../../d6/da2/GPUCommonMath_8h.html" target="_top" xlink:title="GPUCommonMath.h">
<polygon fill="none" stroke="#000000" points="98.5,-112.5 98.5,-131.5 213.5,-131.5 213.5,-112.5 98.5,-112.5"/>
<text text-anchor="middle" x="156" y="-119.5" font-family="Helvetica,sans-Serif" font-size="10.00" fill="#000000">GPUCommonMath.h</text>
</a>
</g>
</g>
<!-- Node0&#45;&gt;Node6 -->
<g id="edge6" class="edge">
<title>Node0&#45;&gt;Node6</title>
<path fill="none" stroke="#191970" d="M156,-168.3258C156,-159.5142 156,-149.8397 156,-141.621"/>
<polygon fill="#191970" stroke="#191970" points="159.5001,-141.534 156,-131.534 152.5001,-141.534 159.5001,-141.534"/>
</g>
<!-- Node8 -->
<g id="node9" class="node">
<title>Node8</title>
<g id="a_node9"><a xlink:href="../../d6/d84/MathConstants_8h.html" target="_top" xlink:title="useful math constants ">
<polygon fill="none" stroke="#000000" points="270,-112.5 270,-131.5 464,-131.5 464,-112.5 270,-112.5"/>
<text text-anchor="middle" x="367" y="-119.5" font-family="Helvetica,sans-Serif" font-size="10.00" fill="#000000">CommonConstants/MathConstants.h</text>
</a>
</g>
</g>
<!-- Node0&#45;&gt;Node8 -->
<g id="edge10" class="edge">
<title>Node0&#45;&gt;Node8</title>
<path fill="none" stroke="#191970" d="M231.8777,-168.4283C265.1289,-157.0031 302.6522,-144.11 329.7042,-134.8149"/>
<polygon fill="#191970" stroke="#191970" points="330.8497,-138.1222 339.1696,-131.5626 328.5749,-131.5021 330.8497,-138.1222"/>
</g>
<!-- Node4 -->
<g id="node5" class="node">
<title>Node4</title>
<g id="a_node5"><a xlink:href="../../d5/d93/GPUCommonDefSettings_8h.html" target="_top" xlink:title="GPUCommonDefSettings.h">
<polygon fill="none" stroke="#000000" points="97,-.5 97,-19.5 245,-19.5 245,-.5 97,-.5"/>
<text text-anchor="middle" x="171" y="-7.5" font-family="Helvetica,sans-Serif" font-size="10.00" fill="#000000">GPUCommonDefSettings.h</text>
</a>
</g>
</g>
<!-- Node3&#45;&gt;Node4 -->
<g id="edge4" class="edge">
<title>Node3&#45;&gt;Node4</title>
<path fill="none" stroke="#191970" d="M234.5876,-56.2455C222.9943,-47.814 206.0252,-35.4729 192.5322,-25.6598"/>
<polygon fill="#191970" stroke="#191970" points="194.4047,-22.6938 184.2587,-19.6427 190.2874,-28.355 194.4047,-22.6938"/>
</g>
<!-- Node5 -->
<g id="node6" class="node">
<title>Node5</title>
<g id="a_node6"><a xlink:href="../../da/d5a/GPUCommonDefAPI_8h.html" target="_top" xlink:title="GPUCommonDefAPI.h">
<polygon fill="none" stroke="#000000" points="263,-.5 263,-19.5 387,-19.5 387,-.5 263,-.5"/>
<text text-anchor="middle" x="325" y="-7.5" font-family="Helvetica,sans-Serif" font-size="10.00" fill="#000000">GPUCommonDefAPI.h</text>
</a>
</g>
</g>
<!-- Node3&#45;&gt;Node5 -->
<g id="edge5" class="edge">
<title>Node3&#45;&gt;Node5</title>
<path fill="none" stroke="#191970" d="M261.4124,-56.2455C273.0057,-47.814 289.9748,-35.4729 303.4678,-25.6598"/>
<polygon fill="#191970" stroke="#191970" points="305.7126,-28.355 311.7413,-19.6427 301.5953,-22.6938 305.7126,-28.355"/>
</g>
<!-- Node6&#45;&gt;Node2 -->
<g id="edge8" class="edge">
<title>Node6&#45;&gt;Node2</title>
<path fill="none" stroke="#191970" d="M141.0199,-112.2455C127.8249,-103.6534 108.3949,-91.0014 93.1921,-81.1018"/>
<polygon fill="#191970" stroke="#191970" points="95.0983,-78.1665 84.8084,-75.6427 91.2785,-84.0325 95.0983,-78.1665"/>
</g>
<!-- Node6&#45;&gt;Node3 -->
<g id="edge7" class="edge">
<title>Node6&#45;&gt;Node3</title>
<path fill="none" stroke="#191970" d="M172.0252,-112.2455C186.1408,-103.6534 206.9263,-91.0014 223.1899,-81.1018"/>
<polygon fill="#191970" stroke="#191970" points="225.4363,-83.8319 232.1585,-75.6427 221.7966,-77.8525 225.4363,-83.8319"/>
</g>
<!-- Node7 -->
<g id="node8" class="node">
<title>Node7</title>
<polygon fill="none" stroke="#bfbfbf" points="112,-56.5 112,-75.5 176,-75.5 176,-56.5 112,-56.5"/>
<text text-anchor="middle" x="144" y="-63.5" font-family="Helvetica,sans-Serif" font-size="10.00" fill="#000000">algorithm</text>
</g>
<!-- Node6&#45;&gt;Node7 -->
<g id="edge9" class="edge">
<title>Node6&#45;&gt;Node7</title>
<path fill="none" stroke="#191970" d="M153.9098,-112.2455C152.3439,-104.9382 150.1488,-94.6944 148.2224,-85.7046"/>
<polygon fill="#191970" stroke="#191970" points="151.584,-84.6873 146.0663,-75.6427 144.7393,-86.1541 151.584,-84.6873"/>
</g>
</g>
</svg>
