<?xml version="1.0" encoding="UTF-8" standalone="no"?>
<!DOCTYPE svg PUBLIC "-//W3C//DTD SVG 1.1//EN"
 "http://www.w3.org/Graphics/SVG/1.1/DTD/svg11.dtd">
<!-- Generated by graphviz version 2.40.1 (20161225.0304)
 -->
<!-- Title: /home/travis/build/AliceO2Group/AliceO2/Framework/Core/src/FrameworkGUIDataRelayerUsage.cxx Pages: 1 -->
<!--zoomable 296 -->
<svg id="main" version="1.1" xmlns="http://www.w3.org/2000/svg" xmlns:xlink="http://www.w3.org/1999/xlink" xml:space="preserve" onload="init(evt)">
<style type="text/css"><![CDATA[
.edge:hover path { stroke: red; }
.edge:hover polygon { stroke: red; fill: red; }
]]></style>
<script type="text/javascript"><![CDATA[
var edges = document.getElementsByTagName('g');
if (edges && edges.length) {
  for (var i=0;i<edges.length;i++) {
    if (edges[i].id.substr(0,4)=='edge') {
      edges[i].setAttribute('class','edge');
    }
  }
}
]]></script>
        <defs>
                <circle id="rim" cx="0" cy="0" r="7"/>
                <circle id="rim2" cx="0" cy="0" r="3.5"/>
                <g id="zoomPlus">
                        <use xlink:href="#rim" fill="#404040">
                                <set attributeName="fill" to="#808080" begin="zoomplus.mouseover" end="zoomplus.mouseout"/>
                        </use>
                        <path d="M-4,0h8M0,-4v8" fill="none" stroke="white" stroke-width="1.5" pointer-events="none"/>
                </g>
                <g id="zoomMin">
                        <use xlink:href="#rim" fill="#404040">
                                <set attributeName="fill" to="#808080" begin="zoomminus.mouseover" end="zoomminus.mouseout"/>
                        </use>
                        <path d="M-4,0h8" fill="none" stroke="white" stroke-width="1.5" pointer-events="none"/>
                </g>
                <g id="dirArrow">
                        <path fill="none" stroke="white" stroke-width="1.5" d="M0,-3.0v7 M-2.5,-0.5L0,-3.0L2.5,-0.5"/>
                </g>
               <g id="resetDef">
                       <use xlink:href="#rim2" fill="#404040">
                               <set attributeName="fill" to="#808080" begin="reset.mouseover" end="reset.mouseout"/>
                       </use>
               </g>
        </defs>

<script type="text/javascript">
var viewWidth = 1693;
var viewHeight = 296;
var sectionId = 'dynsection-0';
</script>
<script xlink:href="../../svgpan.js"/>
<svg id="graph" class="graph">
<g id="viewport">
<title>/home/travis/build/AliceO2Group/AliceO2/Framework/Core/src/FrameworkGUIDataRelayerUsage.cxx</title>
<!-- Node0 -->
<g id="node1" class="node">
<title>Node0</title>
<polygon fill="#bfbfbf" stroke="#000000" points="494.5,-235.5 494.5,-287.5 667.5,-287.5 667.5,-235.5 494.5,-235.5"/>
<text text-anchor="start" x="502.5" y="-275.5" font-family="Helvetica,sans-Serif" font-size="10.00" fill="#000000">/home/travis/build</text>
<text text-anchor="start" x="502.5" y="-264.5" font-family="Helvetica,sans-Serif" font-size="10.00" fill="#000000">/AliceO2Group/AliceO2</text>
<text text-anchor="start" x="502.5" y="-253.5" font-family="Helvetica,sans-Serif" font-size="10.00" fill="#000000">/Framework/Core/src/Framework</text>
<text text-anchor="middle" x="581" y="-242.5" font-family="Helvetica,sans-Serif" font-size="10.00" fill="#000000">GUIDataRelayerUsage.cxx</text>
</g>
<!-- Node1 -->
<g id="node2" class="node">
<title>Node1</title>
<polygon fill="none" stroke="#bfbfbf" points="0,-179.5 0,-198.5 106,-198.5 106,-179.5 0,-179.5"/>
<text text-anchor="middle" x="53" y="-186.5" font-family="Helvetica,sans-Serif" font-size="10.00" fill="#000000">DebugGUI/imgui.h</text>
</g>
<!-- Node0&#45;&gt;Node1 -->
<g id="edge1" class="edge">
<title>Node0&#45;&gt;Node1</title>
<path fill="none" stroke="#191970" d="M494.287,-250.0965C401.591,-237.8237 250.3351,-217.5607 120,-199 118.7229,-198.8181 117.4322,-198.6335 116.1314,-198.4466"/>
<polygon fill="#191970" stroke="#191970" points="116.4195,-194.9519 106.0207,-196.9805 115.4149,-201.8794 116.4195,-194.9519"/>
</g>
<!-- Node2 -->
<g id="node3" class="node">
<title>Node2</title>
<polygon fill="none" stroke="#bfbfbf" points="217.5,-56.5 217.5,-75.5 282.5,-75.5 282.5,-56.5 217.5,-56.5"/>
<text text-anchor="middle" x="250" y="-63.5" font-family="Helvetica,sans-Serif" font-size="10.00" fill="#000000">functional</text>
</g>
<!-- Node0&#45;&gt;Node2 -->
<g id="edge2" class="edge">
<title>Node0&#45;&gt;Node2</title>
<path fill="none" stroke="#191970" d="M494.0478,-249.9392C381.0428,-232.9262 193.2438,-197.1808 152,-143 143.6548,-132.0371 144.6119,-123.6294 152,-112 164.2123,-92.777 186.8196,-81.4457 207.2454,-74.8422"/>
<polygon fill="#191970" stroke="#191970" points="208.4329,-78.1413 217.0422,-71.9664 206.4612,-71.4248 208.4329,-78.1413"/>
</g>
<!-- Node3 -->
<g id="node4" class="node">
<title>Node3</title>
<g id="a_node4"><a xlink:href="../../dc/df0/DeviceMetricsInfo_8h.html" target="_top" xlink:title="Framework/DeviceMetricsInfo.h">
<polygon fill="none" stroke="#000000" points="394,-118 394,-137 564,-137 564,-118 394,-118"/>
<text text-anchor="middle" x="479" y="-125" font-family="Helvetica,sans-Serif" font-size="10.00" fill="#000000">Framework/DeviceMetricsInfo.h</text>
</a>
</g>
</g>
<!-- Node0&#45;&gt;Node3 -->
<g id="edge3" class="edge">
<title>Node0&#45;&gt;Node3</title>
<path fill="none" stroke="#191970" d="M561.0912,-235.3453C540.9254,-208.853 510.2723,-168.5833 492.688,-145.4822"/>
<polygon fill="#191970" stroke="#191970" points="495.2731,-143.0998 486.4313,-137.2626 489.7032,-147.3396 495.2731,-143.0998"/>
</g>
<!-- Node9 -->
<g id="node10" class="node">
<title>Node9</title>
<g id="a_node10"><a xlink:href="../../d7/d58/DeviceInfo_8h.html" target="_top" xlink:title="Framework/DeviceInfo.h">
<polygon fill="none" stroke="#000000" points="562.5,-179.5 562.5,-198.5 697.5,-198.5 697.5,-179.5 562.5,-179.5"/>
<text text-anchor="middle" x="630" y="-186.5" font-family="Helvetica,sans-Serif" font-size="10.00" fill="#000000">Framework/DeviceInfo.h</text>
</a>
</g>
</g>
<!-- Node0&#45;&gt;Node9 -->
<g id="edge10" class="edge">
<title>Node0&#45;&gt;Node9</title>
<path fill="none" stroke="#191970" d="M598.6901,-235.3258C605.0517,-225.9134 612.0786,-215.5164 617.8608,-206.961"/>
<polygon fill="#191970" stroke="#191970" points="620.8565,-208.7791 623.5563,-198.534 615.0568,-204.8593 620.8565,-208.7791"/>
</g>
<!-- Node26 -->
<g id="node27" class="node">
<title>Node26</title>
<polygon fill="none" stroke="#bfbfbf" points="716,-179.5 716,-198.5 776,-198.5 776,-179.5 716,-179.5"/>
<text text-anchor="middle" x="746" y="-186.5" font-family="Helvetica,sans-Serif" font-size="10.00" fill="#000000">iostream</text>
</g>
<!-- Node0&#45;&gt;Node26 -->
<g id="edge42" class="edge">
<title>Node0&#45;&gt;Node26</title>
<path fill="none" stroke="#191970" d="M640.5688,-235.3258C665.7504,-224.2612 694.0283,-211.8361 714.9544,-202.6413"/>
<polygon fill="#191970" stroke="#191970" points="716.5547,-205.7611 724.3019,-198.534 713.7387,-199.3525 716.5547,-205.7611"/>
</g>
<!-- Node27 -->
<g id="node28" class="node">
<title>Node27</title>
<polygon fill="none" stroke="#bfbfbf" points="794.5,-179.5 794.5,-198.5 841.5,-198.5 841.5,-179.5 794.5,-179.5"/>
<text text-anchor="middle" x="818" y="-186.5" font-family="Helvetica,sans-Serif" font-size="10.00" fill="#000000">cmath</text>
</g>
<!-- Node0&#45;&gt;Node27 -->
<g id="edge43" class="edge">
<title>Node0&#45;&gt;Node27</title>
<path fill="none" stroke="#191970" d="M666.2276,-235.4283C707.2421,-222.8816 754.0434,-208.5648 784.7004,-199.1866"/>
<polygon fill="#191970" stroke="#191970" points="785.9079,-202.4774 794.4466,-196.2052 783.8601,-195.7836 785.9079,-202.4774"/>
</g>
<!-- Node3&#45;&gt;Node2 -->
<g id="edge6" class="edge">
<title>Node3&#45;&gt;Node2</title>
<path fill="none" stroke="#191970" d="M443.2188,-117.8906C402.3727,-106.9211 335.6224,-88.9947 292.2528,-77.3474"/>
<polygon fill="#191970" stroke="#191970" points="293.1325,-73.9597 282.5669,-74.7461 291.3169,-80.7201 293.1325,-73.9597"/>
</g>
<!-- Node4 -->
<g id="node5" class="node">
<title>Node4</title>
<polygon fill="none" stroke="#bfbfbf" points="592,-56.5 592,-75.5 634,-75.5 634,-56.5 592,-56.5"/>
<text text-anchor="middle" x="613" y="-63.5" font-family="Helvetica,sans-Serif" font-size="10.00" fill="#000000">array</text>
</g>
<!-- Node3&#45;&gt;Node4 -->
<g id="edge4" class="edge">
<title>Node3&#45;&gt;Node4</title>
<path fill="none" stroke="#191970" d="M499.9375,-117.8906C522.2598,-107.6457 557.8037,-91.3326 583.0757,-79.7339"/>
<polygon fill="#191970" stroke="#191970" points="584.581,-82.8942 592.2095,-75.5419 581.6611,-76.5322 584.581,-82.8942"/>
</g>
<!-- Node5 -->
<g id="node6" class="node">
<title>Node5</title>
<polygon fill="none" stroke="#bfbfbf" points="339.5,-56.5 339.5,-75.5 392.5,-75.5 392.5,-56.5 339.5,-56.5"/>
<text text-anchor="middle" x="366" y="-63.5" font-family="Helvetica,sans-Serif" font-size="10.00" fill="#000000">cstddef</text>
</g>
<!-- Node3&#45;&gt;Node5 -->
<g id="edge5" class="edge">
<title>Node3&#45;&gt;Node5</title>
<path fill="none" stroke="#191970" d="M461.3438,-117.8906C442.8514,-107.8262 413.599,-91.9057 392.3692,-80.3514"/>
<polygon fill="#191970" stroke="#191970" points="393.9888,-77.2481 383.5323,-75.5419 390.6425,-83.3965 393.9888,-77.2481"/>
</g>
<!-- Node6 -->
<g id="node7" class="node">
<title>Node6</title>
<polygon fill="none" stroke="#bfbfbf" points="684,-.5 684,-19.5 728,-19.5 728,-.5 684,-.5"/>
<text text-anchor="middle" x="706" y="-7.5" font-family="Helvetica,sans-Serif" font-size="10.00" fill="#000000">string</text>
</g>
<!-- Node3&#45;&gt;Node6 -->
<g id="edge7" class="edge">
<title>Node3&#45;&gt;Node6</title>
<path fill="none" stroke="#191970" d="M479.8421,-117.5252C481.7081,-101.9707 487.6112,-72.06 506,-56 530.8027,-34.3384 624.0654,-19.9753 673.9894,-13.6648"/>
<polygon fill="#191970" stroke="#191970" points="674.4465,-17.1351 683.9446,-12.4407 673.5921,-10.1874 674.4465,-17.1351"/>
</g>
<!-- Node7 -->
<g id="node8" class="node">
<title>Node7</title>
<polygon fill="none" stroke="#bfbfbf" points="734.5,-56.5 734.5,-75.5 807.5,-75.5 807.5,-56.5 734.5,-56.5"/>
<text text-anchor="middle" x="771" y="-63.5" font-family="Helvetica,sans-Serif" font-size="10.00" fill="#000000">string_view</text>
</g>
<!-- Node3&#45;&gt;Node7 -->
<g id="edge8" class="edge">
<title>Node3&#45;&gt;Node7</title>
<path fill="none" stroke="#191970" d="M524.3046,-117.9581C578.7449,-106.4921 669.6041,-87.3556 724.5495,-75.7832"/>
<polygon fill="#191970" stroke="#191970" points="725.3102,-79.1999 734.3742,-73.714 723.8675,-72.3502 725.3102,-79.1999"/>
</g>
<!-- Node8 -->
<g id="node9" class="node">
<title>Node8</title>
<polygon fill="none" stroke="#bfbfbf" points="514.5,-56.5 514.5,-75.5 561.5,-75.5 561.5,-56.5 514.5,-56.5"/>
<text text-anchor="middle" x="538" y="-63.5" font-family="Helvetica,sans-Serif" font-size="10.00" fill="#000000">vector</text>
</g>
<!-- Node3&#45;&gt;Node8 -->
<g id="edge9" class="edge">
<title>Node3&#45;&gt;Node8</title>
<path fill="none" stroke="#191970" d="M488.2188,-117.8906C497.0858,-108.6478 510.6912,-94.466 521.4389,-83.2628"/>
<polygon fill="#191970" stroke="#191970" points="524.2541,-85.3841 528.6513,-75.7449 519.2027,-80.5381 524.2541,-85.3841"/>
</g>
<!-- Node9&#45;&gt;Node4 -->
<g id="edge40" class="edge">
<title>Node9&#45;&gt;Node4</title>
<path fill="none" stroke="#191970" d="M628.666,-179.3484C625.8854,-159.2295 619.4214,-112.4608 615.7241,-85.7098"/>
<polygon fill="#191970" stroke="#191970" points="619.164,-85.0334 614.3278,-75.6068 612.2299,-85.9918 619.164,-85.0334"/>
</g>
<!-- Node9&#45;&gt;Node5 -->
<g id="edge36" class="edge">
<title>Node9&#45;&gt;Node5</title>
<path fill="none" stroke="#191970" d="M562.4992,-184.4252C499.016,-178.7304 410.0828,-166.7083 385,-143 369.5682,-128.4138 365.8339,-103.4578 365.3039,-85.9192"/>
<polygon fill="#191970" stroke="#191970" points="368.8044,-85.6567 365.3276,-75.6486 361.8044,-85.6405 368.8044,-85.6567"/>
</g>
<!-- Node9&#45;&gt;Node6 -->
<g id="edge37" class="edge">
<title>Node9&#45;&gt;Node6</title>
<path fill="none" stroke="#191970" d="M634.0861,-179.3762C646.1481,-150.9669 681.7637,-67.0828 697.896,-29.0871"/>
<polygon fill="#191970" stroke="#191970" points="701.2072,-30.244 701.8937,-19.6714 694.7639,-27.5082 701.2072,-30.244"/>
</g>
<!-- Node9&#45;&gt;Node8 -->
<g id="edge38" class="edge">
<title>Node9&#45;&gt;Node8</title>
<path fill="none" stroke="#191970" d="M623.02,-179.4868C612.3144,-164.915 591.1704,-136.2106 573,-112 566.0258,-102.7074 558.2008,-92.4111 551.7212,-83.9198"/>
<polygon fill="#191970" stroke="#191970" points="554.401,-81.6621 545.5479,-75.8421 548.8392,-85.9127 554.401,-81.6621"/>
</g>
<!-- Node10 -->
<g id="node11" class="node">
<title>Node10</title>
<g id="a_node11"><a xlink:href="../../d8/d4a/LogParsingHelpers_8h.html" target="_top" xlink:title="Framework/LogParsingHelpers.h">
<polygon fill="none" stroke="#000000" points="696.5,-118 696.5,-137 869.5,-137 869.5,-118 696.5,-118"/>
<text text-anchor="middle" x="783" y="-125" font-family="Helvetica,sans-Serif" font-size="10.00" fill="#000000">Framework/LogParsingHelpers.h</text>
</a>
</g>
</g>
<!-- Node9&#45;&gt;Node10 -->
<g id="edge11" class="edge">
<title>Node9&#45;&gt;Node10</title>
<path fill="none" stroke="#191970" d="M653.9063,-179.3906C679.7305,-169.0103 721.0527,-152.4004 749.9705,-140.7766"/>
<polygon fill="#191970" stroke="#191970" points="751.2885,-144.019 759.2616,-137.0419 748.6778,-137.5241 751.2885,-144.019"/>
</g>
<!-- Node11 -->
<g id="node12" class="node">
<title>Node11</title>
<g id="a_node12"><a xlink:href="../../d0/d2c/Metric2DViewIndex_8h.html" target="_top" xlink:title="Framework/Metric2DViewIndex.h">
<polygon fill="none" stroke="#000000" points="161.5,-118 161.5,-137 338.5,-137 338.5,-118 161.5,-118"/>
<text text-anchor="middle" x="250" y="-125" font-family="Helvetica,sans-Serif" font-size="10.00" fill="#000000">Framework/Metric2DViewIndex.h</text>
</a>
</g>
</g>
<!-- Node9&#45;&gt;Node11 -->
<g id="edge14" class="edge">
<title>Node9&#45;&gt;Node11</title>
<path fill="none" stroke="#191970" d="M571.0419,-179.4581C502.8495,-168.4217 390.7476,-150.2789 318.6785,-138.6151"/>
<polygon fill="#191970" stroke="#191970" points="319.2145,-135.1564 308.7837,-137.0137 318.0961,-142.0664 319.2145,-135.1564"/>
</g>
<!-- Node12 -->
<g id="node13" class="node">
<title>Node12</title>
<g id="a_node13"><a xlink:href="../../de/d56/Variant_8h.html" target="_top" xlink:title="Framework/Variant.h">
<polygon fill="none" stroke="#000000" points="1093.5,-118 1093.5,-137 1210.5,-137 1210.5,-118 1093.5,-118"/>
<text text-anchor="middle" x="1152" y="-125" font-family="Helvetica,sans-Serif" font-size="10.00" fill="#000000">Framework/Variant.h</text>
</a>
</g>
</g>
<!-- Node9&#45;&gt;Node12 -->
<g id="edge19" class="edge">
<title>Node9&#45;&gt;Node12</title>
<path fill="none" stroke="#191970" d="M697.5902,-180.0892C700.77,-179.7118 703.919,-179.3467 707,-179 874.7019,-160.13 918.4263,-170.0778 1085,-143 1091.3415,-141.9691 1097.9775,-140.6868 1104.5039,-139.3042"/>
<polygon fill="#191970" stroke="#191970" points="1105.6021,-142.646 1114.6114,-137.0708 1104.0917,-135.8109 1105.6021,-142.646"/>
</g>
<!-- Node20 -->
<g id="node21" class="node">
<title>Node20</title>
<g id="a_node21"><a xlink:href="../../d9/de0/DeviceState_8h.html" target="_top" xlink:title="Framework/DeviceState.h">
<polygon fill="none" stroke="#000000" points="1460,-118 1460,-137 1602,-137 1602,-118 1460,-118"/>
<text text-anchor="middle" x="1531" y="-125" font-family="Helvetica,sans-Serif" font-size="10.00" fill="#000000">Framework/DeviceState.h</text>
</a>
</g>
</g>
<!-- Node9&#45;&gt;Node20 -->
<g id="edge29" class="edge">
<title>Node9&#45;&gt;Node20</title>
<path fill="none" stroke="#191970" d="M697.5772,-179.9645C700.7605,-179.6205 703.9137,-179.2965 707,-179 849.4975,-165.3093 1271.2838,-141.6295 1449.7674,-131.884"/>
<polygon fill="#191970" stroke="#191970" points="1450.0885,-135.3718 1459.8831,-131.3323 1449.7073,-128.3821 1450.0885,-135.3718"/>
</g>
<!-- Node24 -->
<g id="node25" class="node">
<title>Node24</title>
<polygon fill="none" stroke="#bfbfbf" points="888,-118 888,-137 944,-137 944,-118 888,-118"/>
<text text-anchor="middle" x="916" y="-125" font-family="Helvetica,sans-Serif" font-size="10.00" fill="#000000">unistd.h</text>
</g>
<!-- Node9&#45;&gt;Node24 -->
<g id="edge39" class="edge">
<title>Node9&#45;&gt;Node24</title>
<path fill="none" stroke="#191970" d="M689.6934,-179.4834C751.6985,-169.3284 844.4017,-153.3131 879,-143 881.1691,-142.3534 883.3839,-141.6212 885.5976,-140.8355"/>
<polygon fill="#191970" stroke="#191970" points="887.0833,-144.0138 895.1527,-137.1482 884.5631,-137.4832 887.0833,-144.0138"/>
</g>
<!-- Node25 -->
<g id="node26" class="node">
<title>Node25</title>
<polygon fill="none" stroke="#bfbfbf" points="962.5,-112.5 962.5,-142.5 1075.5,-142.5 1075.5,-112.5 962.5,-112.5"/>
<text text-anchor="start" x="970.5" y="-130.5" font-family="Helvetica,sans-Serif" font-size="10.00" fill="#000000">boost/property_tree</text>
<text text-anchor="middle" x="1019" y="-119.5" font-family="Helvetica,sans-Serif" font-size="10.00" fill="#000000">/ptree.hpp</text>
</g>
<!-- Node9&#45;&gt;Node25 -->
<g id="edge41" class="edge">
<title>Node9&#45;&gt;Node25</title>
<path fill="none" stroke="#191970" d="M697.7903,-180.0702C773.2853,-170.0049 891.6391,-153.8371 952.2641,-143.0059"/>
<polygon fill="#191970" stroke="#191970" points="952.9843,-146.4323 962.1867,-141.1819 951.7187,-139.5476 952.9843,-146.4323"/>
</g>
<!-- Node10&#45;&gt;Node6 -->
<g id="edge12" class="edge">
<title>Node10&#45;&gt;Node6</title>
<path fill="none" stroke="#191970" d="M768.5534,-117.9288C755.6311,-108.6547 737.0705,-93.4577 726,-76 716.9943,-61.7984 711.8502,-43.3133 709.0413,-29.5198"/>
<polygon fill="#191970" stroke="#191970" points="712.4781,-28.8558 707.26,-19.635 705.5891,-30.0972 712.4781,-28.8558"/>
</g>
<!-- Node10&#45;&gt;Node7 -->
<g id="edge13" class="edge">
<title>Node10&#45;&gt;Node7</title>
<path fill="none" stroke="#191970" d="M781.125,-117.8906C779.4441,-109.276 776.926,-96.3708 774.8216,-85.5858"/>
<polygon fill="#191970" stroke="#191970" points="778.2518,-84.8895 772.9014,-75.7449 771.3814,-86.2301 778.2518,-84.8895"/>
</g>
<!-- Node11&#45;&gt;Node2 -->
<g id="edge15" class="edge">
<title>Node11&#45;&gt;Node2</title>
<path fill="none" stroke="#191970" d="M250,-117.8906C250,-109.3657 250,-96.6392 250,-85.9235"/>
<polygon fill="#191970" stroke="#191970" points="253.5001,-85.7448 250,-75.7449 246.5001,-85.7449 253.5001,-85.7448"/>
</g>
<!-- Node11&#45;&gt;Node5 -->
<g id="edge16" class="edge">
<title>Node11&#45;&gt;Node5</title>
<path fill="none" stroke="#191970" d="M268.125,-117.8906C287.1083,-107.8262 317.1373,-91.9057 338.9307,-80.3514"/>
<polygon fill="#191970" stroke="#191970" points="340.8066,-83.3184 348.0023,-75.5419 337.5277,-77.1338 340.8066,-83.3184"/>
</g>
<!-- Node11&#45;&gt;Node6 -->
<g id="edge17" class="edge">
<title>Node11&#45;&gt;Node6</title>
<path fill="none" stroke="#191970" d="M257.3878,-117.8512C270.2104,-101.903 298.273,-70.3799 330,-56 391.1415,-28.2883 593.8782,-15.5213 673.4973,-11.4864"/>
<polygon fill="#191970" stroke="#191970" points="674.0717,-14.9624 683.8872,-10.9743 673.727,-7.9709 674.0717,-14.9624"/>
</g>
<!-- Node11&#45;&gt;Node8 -->
<g id="edge18" class="edge">
<title>Node11&#45;&gt;Node8</title>
<path fill="none" stroke="#191970" d="M294.684,-117.9581C352.6265,-105.585 452.3974,-84.2797 504.3476,-73.1862"/>
<polygon fill="#191970" stroke="#191970" points="505.3258,-76.5563 514.3744,-71.045 503.864,-69.7106 505.3258,-76.5563"/>
</g>
<!-- Node12&#45;&gt;Node6 -->
<g id="edge28" class="edge">
<title>Node12&#45;&gt;Node6</title>
<path fill="none" stroke="#191970" d="M1144.1225,-117.8698C1130.4814,-101.9489 1100.7611,-70.4651 1068,-56 1009.1892,-30.0331 816.1051,-16.3271 738.6121,-11.7619"/>
<polygon fill="#191970" stroke="#191970" points="738.6553,-8.2587 728.4706,-11.1781 738.2529,-15.2471 738.6553,-8.2587"/>
</g>
<!-- Node12&#45;&gt;Node7 -->
<g id="edge27" class="edge">
<title>Node12&#45;&gt;Node7</title>
<path fill="none" stroke="#191970" d="M1113.5103,-117.9447C1104.2113,-115.8167 1094.2788,-113.6926 1085,-112 969.8875,-91.0011 937.0867,-96.4664 817.5146,-75.9603"/>
<polygon fill="#191970" stroke="#191970" points="818.0579,-72.5023 807.6059,-74.2361 816.8578,-79.3987 818.0579,-72.5023"/>
</g>
<!-- Node13 -->
<g id="node14" class="node">
<title>Node13</title>
<polygon fill="none" stroke="#bfbfbf" points="1115.5,-56.5 1115.5,-75.5 1184.5,-75.5 1184.5,-56.5 1115.5,-56.5"/>
<text text-anchor="middle" x="1150" y="-63.5" font-family="Helvetica,sans-Serif" font-size="10.00" fill="#000000">type_traits</text>
</g>
<!-- Node12&#45;&gt;Node13 -->
<g id="edge20" class="edge">
<title>Node12&#45;&gt;Node13</title>
<path fill="none" stroke="#191970" d="M1151.6875,-117.8906C1151.4103,-109.3657 1150.9964,-96.6392 1150.6479,-85.9235"/>
<polygon fill="#191970" stroke="#191970" points="1154.1402,-85.6258 1150.3169,-75.7449 1147.1439,-85.8534 1154.1402,-85.6258"/>
</g>
<!-- Node14 -->
<g id="node15" class="node">
<title>Node14</title>
<polygon fill="none" stroke="#bfbfbf" points="1203,-56.5 1203,-75.5 1253,-75.5 1253,-56.5 1203,-56.5"/>
<text text-anchor="middle" x="1228" y="-63.5" font-family="Helvetica,sans-Serif" font-size="10.00" fill="#000000">cstring</text>
</g>
<!-- Node12&#45;&gt;Node14 -->
<g id="edge21" class="edge">
<title>Node12&#45;&gt;Node14</title>
<path fill="none" stroke="#191970" d="M1163.875,-117.8906C1175.6297,-108.3786 1193.8486,-93.6357 1207.8672,-82.2917"/>
<polygon fill="#191970" stroke="#191970" points="1210.3856,-84.7562 1215.9576,-75.7449 1205.9822,-79.3146 1210.3856,-84.7562"/>
</g>
<!-- Node15 -->
<g id="node16" class="node">
<title>Node15</title>
<polygon fill="none" stroke="#bfbfbf" points="1271,-56.5 1271,-75.5 1321,-75.5 1321,-56.5 1271,-56.5"/>
<text text-anchor="middle" x="1296" y="-63.5" font-family="Helvetica,sans-Serif" font-size="10.00" fill="#000000">cstdint</text>
</g>
<!-- Node12&#45;&gt;Node15 -->
<g id="edge22" class="edge">
<title>Node12&#45;&gt;Node15</title>
<path fill="none" stroke="#191970" d="M1174.5,-117.8906C1198.5938,-107.6005 1237.0213,-91.1888 1264.2008,-79.5809"/>
<polygon fill="#191970" stroke="#191970" points="1265.8363,-82.6883 1273.658,-75.5419 1263.0869,-76.2508 1265.8363,-82.6883"/>
</g>
<!-- Node16 -->
<g id="node17" class="node">
<title>Node16</title>
<polygon fill="none" stroke="#bfbfbf" points="1339.5,-56.5 1339.5,-75.5 1388.5,-75.5 1388.5,-56.5 1339.5,-56.5"/>
<text text-anchor="middle" x="1364" y="-63.5" font-family="Helvetica,sans-Serif" font-size="10.00" fill="#000000">cstdlib</text>
</g>
<!-- Node12&#45;&gt;Node16 -->
<g id="edge23" class="edge">
<title>Node12&#45;&gt;Node16</title>
<path fill="none" stroke="#191970" d="M1185.1469,-117.9571C1218.9485,-108.2153 1273.165,-92.561 1329.6646,-76.0889"/>
<polygon fill="#191970" stroke="#191970" points="1330.87,-79.3833 1339.4898,-73.2229 1328.9097,-72.6633 1330.87,-79.3833"/>
</g>
<!-- Node17 -->
<g id="node18" class="node">
<title>Node17</title>
<polygon fill="none" stroke="#bfbfbf" points="825.5,-56.5 825.5,-75.5 890.5,-75.5 890.5,-56.5 825.5,-56.5"/>
<text text-anchor="middle" x="858" y="-63.5" font-family="Helvetica,sans-Serif" font-size="10.00" fill="#000000">stdexcept</text>
</g>
<!-- Node12&#45;&gt;Node17 -->
<g id="edge24" class="edge">
<title>Node12&#45;&gt;Node17</title>
<path fill="none" stroke="#191970" d="M1111.6612,-117.9262C1102.8852,-115.911 1093.6413,-113.8397 1085,-112 1006.112,-95.2047 983.5291,-93.7908 900.4149,-76.0158"/>
<polygon fill="#191970" stroke="#191970" points="901.0418,-72.5706 890.5289,-73.8859 899.5675,-79.4136 901.0418,-72.5706"/>
</g>
<!-- Node18 -->
<g id="node19" class="node">
<title>Node18</title>
<polygon fill="none" stroke="#bfbfbf" points="908.5,-56.5 908.5,-75.5 957.5,-75.5 957.5,-56.5 908.5,-56.5"/>
<text text-anchor="middle" x="933" y="-63.5" font-family="Helvetica,sans-Serif" font-size="10.00" fill="#000000">iosfwd</text>
</g>
<!-- Node12&#45;&gt;Node18 -->
<g id="edge25" class="edge">
<title>Node12&#45;&gt;Node18</title>
<path fill="none" stroke="#191970" d="M1117.1787,-117.969C1081.923,-108.283 1025.5833,-92.7067 967.2578,-76.0446"/>
<polygon fill="#191970" stroke="#191970" points="968.0787,-72.6391 957.5017,-73.2526 966.1527,-79.3689 968.0787,-72.6391"/>
</g>
<!-- Node19 -->
<g id="node20" class="node">
<title>Node19</title>
<polygon fill="none" stroke="#bfbfbf" points="975.5,-56.5 975.5,-75.5 1058.5,-75.5 1058.5,-56.5 975.5,-56.5"/>
<text text-anchor="middle" x="1017" y="-63.5" font-family="Helvetica,sans-Serif" font-size="10.00" fill="#000000">initializer_list</text>
</g>
<!-- Node12&#45;&gt;Node19 -->
<g id="edge26" class="edge">
<title>Node12&#45;&gt;Node19</title>
<path fill="none" stroke="#191970" d="M1130.9063,-117.8906C1108.4173,-107.6457 1072.6082,-91.3326 1047.1476,-79.7339"/>
<polygon fill="#191970" stroke="#191970" points="1048.4968,-76.5025 1037.9456,-75.5419 1045.5948,-82.8727 1048.4968,-76.5025"/>
</g>
<!-- Node20&#45;&gt;Node6 -->
<g id="edge33" class="edge">
<title>Node20&#45;&gt;Node6</title>
<path fill="none" stroke="#191970" d="M1593.8377,-117.9783C1646.1338,-107.5676 1707.4849,-87.9632 1677,-56 1643.9091,-21.3043 904.2363,-11.9576 738.6763,-10.297"/>
<polygon fill="#191970" stroke="#191970" points="738.2227,-6.7925 728.1889,-10.1945 738.1542,-13.7921 738.2227,-6.7925"/>
</g>
<!-- Node20&#45;&gt;Node8 -->
<g id="edge32" class="edge">
<title>Node20&#45;&gt;Node8</title>
<path fill="none" stroke="#191970" d="M1459.6937,-123.9478C1246.5394,-113.2869 626.2218,-81.9354 583,-76 579.2933,-75.491 575.4398,-74.8344 571.6166,-74.1011"/>
<polygon fill="#191970" stroke="#191970" points="572.1931,-70.6461 561.689,-72.0295 570.7632,-77.4985 572.1931,-70.6461"/>
</g>
<!-- Node21 -->
<g id="node22" class="node">
<title>Node21</title>
<g id="a_node22"><a xlink:href="../../dd/de5/ChannelInfo_8h.html" target="_top" xlink:title="Framework/ChannelInfo.h">
<polygon fill="none" stroke="#000000" points="1406.5,-56.5 1406.5,-75.5 1547.5,-75.5 1547.5,-56.5 1406.5,-56.5"/>
<text text-anchor="middle" x="1477" y="-63.5" font-family="Helvetica,sans-Serif" font-size="10.00" fill="#000000">Framework/ChannelInfo.h</text>
</a>
</g>
</g>
<!-- Node20&#45;&gt;Node21 -->
<g id="edge30" class="edge">
<title>Node20&#45;&gt;Node21</title>
<path fill="none" stroke="#191970" d="M1522.5625,-117.8906C1514.4469,-108.6478 1501.9945,-94.466 1492.1576,-83.2628"/>
<polygon fill="#191970" stroke="#191970" points="1494.7846,-80.95 1485.5565,-75.7449 1489.5245,-85.5686 1494.7846,-80.95"/>
</g>
<!-- Node22 -->
<g id="node23" class="node">
<title>Node22</title>
<polygon fill="none" stroke="#bfbfbf" points="1566,-56.5 1566,-75.5 1604,-75.5 1604,-56.5 1566,-56.5"/>
<text text-anchor="middle" x="1585" y="-63.5" font-family="Helvetica,sans-Serif" font-size="10.00" fill="#000000">map</text>
</g>
<!-- Node20&#45;&gt;Node22 -->
<g id="edge34" class="edge">
<title>Node20&#45;&gt;Node22</title>
<path fill="none" stroke="#191970" d="M1539.4375,-117.8906C1547.5531,-108.6478 1560.0055,-94.466 1569.8424,-83.2628"/>
<polygon fill="#191970" stroke="#191970" points="1572.4755,-85.5686 1576.4435,-75.7449 1567.2154,-80.95 1572.4755,-85.5686"/>
</g>
<!-- Node23 -->
<g id="node24" class="node">
<title>Node23</title>
<polygon fill="none" stroke="#bfbfbf" points="1622.5,-56.5 1622.5,-75.5 1667.5,-75.5 1667.5,-56.5 1622.5,-56.5"/>
<text text-anchor="middle" x="1645" y="-63.5" font-family="Helvetica,sans-Serif" font-size="10.00" fill="#000000">utility</text>
</g>
<!-- Node20&#45;&gt;Node23 -->
<g id="edge35" class="edge">
<title>Node20&#45;&gt;Node23</title>
<path fill="none" stroke="#191970" d="M1548.8125,-117.8906C1567.4685,-107.8262 1596.9797,-91.9057 1618.3974,-80.3514"/>
<polygon fill="#191970" stroke="#191970" points="1620.1734,-83.3702 1627.3126,-75.5419 1616.8498,-77.2095 1620.1734,-83.3702"/>
</g>
<!-- Node21&#45;&gt;Node6 -->
<g id="edge31" class="edge">
<title>Node21&#45;&gt;Node6</title>
<path fill="none" stroke="#191970" d="M1406.388,-56.8503C1403.5565,-56.5504 1400.7522,-56.2654 1398,-56 1144.439,-31.5461 837.3453,-16.0934 738.3854,-11.4661"/>
<polygon fill="#191970" stroke="#191970" points="738.2988,-7.9584 728.1474,-10.9914 737.9745,-14.9509 738.2988,-7.9584"/>
</g>
</g>
</svg>
        <g id="navigator" transform="translate(0 0)" fill="#404254">
                <rect fill="#f2f5e9" fill-opacity="0.5" stroke="#606060" stroke-width=".5" x="0" y="0" width="60" height="60"/>
                <use id="zoomplus" xlink:href="#zoomPlus" x="17" y="9" onmousedown="handleZoom(evt,'in')"/>
                <use id="zoomminus" xlink:href="#zoomMin" x="42" y="9" onmousedown="handleZoom(evt,'out')"/>
                <use id="reset" xlink:href="#resetDef" x="30" y="36" onmousedown="handleReset()"/>
                <g id="arrowUp" xlink:href="#dirArrow" transform="translate(30 24)" onmousedown="handlePan(0,-1)">
                  <use xlink:href="#rim" fill="#404040">
                        <set attributeName="fill" to="#808080" begin="arrowUp.mouseover" end="arrowUp.mouseout"/>
                  </use>
                  <path fill="none" stroke="white" stroke-width="1.5" d="M0,-3.0v7 M-2.5,-0.5L0,-3.0L2.5,-0.5"/>
                </g>
                <g id="arrowRight" xlink:href="#dirArrow" transform="rotate(90) translate(36 -43)" onmousedown="handlePan(1,0)">
                  <use xlink:href="#rim" fill="#404040">
                        <set attributeName="fill" to="#808080" begin="arrowRight.mouseover" end="arrowRight.mouseout"/>
                  </use>
                  <path fill="none" stroke="white" stroke-width="1.5" d="M0,-3.0v7 M-2.5,-0.5L0,-3.0L2.5,-0.5"/>
                </g>
                <g id="arrowDown" xlink:href="#dirArrow" transform="rotate(180) translate(-30 -48)" onmousedown="handlePan(0,1)">
                  <use xlink:href="#rim" fill="#404040">
                        <set attributeName="fill" to="#808080" begin="arrowDown.mouseover" end="arrowDown.mouseout"/>
                  </use>
                  <path fill="none" stroke="white" stroke-width="1.5" d="M0,-3.0v7 M-2.5,-0.5L0,-3.0L2.5,-0.5"/>
                </g>
                <g id="arrowLeft" xlink:href="#dirArrow" transform="rotate(270) translate(-36 17)" onmousedown="handlePan(-1,0)">
                  <use xlink:href="#rim" fill="#404040">
                        <set attributeName="fill" to="#808080" begin="arrowLeft.mouseover" end="arrowLeft.mouseout"/>
                  </use>
                  <path fill="none" stroke="white" stroke-width="1.5" d="M0,-3.0v7 M-2.5,-0.5L0,-3.0L2.5,-0.5"/>
                </g>
        </g>
        <svg viewBox="0 0 15 15" width="100%" height="30px" preserveAspectRatio="xMaxYMin meet">
         <g id="arrow_out" transform="scale(0.3 0.3)">
          <a xlink:href="FrameworkGUIDataRelayerUsage_8cxx__incl_org.svg" target="_base">
           <rect id="button" ry="5" rx="5" y="6" x="6" height="38" width="38"
                fill="#f2f5e9" fill-opacity="0.5" stroke="#606060" stroke-width="1.0"/>
           <path id="arrow"
             d="M 11.500037,31.436501 C 11.940474,20.09759 22.043105,11.32322 32.158766,21.979434 L 37.068811,17.246167 C 37.068811,17.246167 37.088388,32 37.088388,32 L 22.160133,31.978069 C 22.160133,31.978069 26.997745,27.140456 26.997745,27.140456 C 18.528582,18.264221 13.291696,25.230495 11.500037,31.436501 z"
             style="fill:#404040;"/>
          </a>
         </g>
        </svg>
</svg>
