<?xml version="1.0" encoding="UTF-8" standalone="no"?>
<!DOCTYPE svg PUBLIC "-//W3C//DTD SVG 1.1//EN"
 "http://www.w3.org/Graphics/SVG/1.1/DTD/svg11.dtd">
<!-- Generated by graphviz version 2.40.1 (20161225.0304)
 -->
<!-- Title: o2::trd::LocalGainFactor Pages: 1 -->
<svg width="394pt" height="613pt"
 viewBox="0.00 0.00 393.50 613.00" xmlns="http://www.w3.org/2000/svg" xmlns:xlink="http://www.w3.org/1999/xlink">
<g id="graph0" class="graph" transform="scale(1 1) rotate(0) translate(4 609)">
<title>o2::trd::LocalGainFactor</title>
<!-- Node3 -->
<g id="node1" class="node">
<title>Node3</title>
<polygon fill="#bfbfbf" stroke="#000000" points="90,-.5 90,-57.5 221,-57.5 221,-.5 90,-.5"/>
<text text-anchor="middle" x="155.5" y="-45.5" font-family="Helvetica,sans-Serif" font-size="10.00" fill="#000000">o2::trd::LocalGainFactor</text>
<polyline fill="none" stroke="#000000" points="90,-38.5 221,-38.5 "/>
<text text-anchor="middle" x="155.5" y="-26.5" font-family="Helvetica,sans-Serif" font-size="10.00" fill="#000000"> </text>
<polyline fill="none" stroke="#000000" points="90,-19.5 221,-19.5 "/>
<text text-anchor="start" x="98" y="-7.5" font-family="Helvetica,sans-Serif" font-size="10.00" fill="#000000">+ ~LocalGainFactor()</text>
</g>
<!-- Node4 -->
<g id="node2" class="node">
<title>Node4</title>
<g id="a_node2"><a xlink:href="../../da/dcc/classo2_1_1trd_1_1PadCalibrations.html" target="_top" xlink:title="{o2::trd::PadCalibrations\l\&lt; float \&gt;\n||+ PadCalibrations()\l+ ~PadCalibrations()\l+ getNChannels()\l+ getChamberPads()\l+ getValue()\l+ getPadValue()\l+ setPadValue()\l+ setPadValue()\l+ reset()\l+ init()\l+ dumpAllNonZeroValues()\l}">
<polygon fill="none" stroke="#000000" points="80.5,-95.5 80.5,-273.5 230.5,-273.5 230.5,-95.5 80.5,-95.5"/>
<text text-anchor="start" x="88.5" y="-261.5" font-family="Helvetica,sans-Serif" font-size="10.00" fill="#000000">o2::trd::PadCalibrations</text>
<text text-anchor="middle" x="155.5" y="-250.5" font-family="Helvetica,sans-Serif" font-size="10.00" fill="#000000">&lt; float &gt;</text>
<polyline fill="none" stroke="#000000" points="80.5,-243.5 230.5,-243.5 "/>
<text text-anchor="middle" x="155.5" y="-231.5" font-family="Helvetica,sans-Serif" font-size="10.00" fill="#000000"> </text>
<polyline fill="none" stroke="#000000" points="80.5,-224.5 230.5,-224.5 "/>
<text text-anchor="start" x="88.5" y="-212.5" font-family="Helvetica,sans-Serif" font-size="10.00" fill="#000000">+ PadCalibrations()</text>
<text text-anchor="start" x="88.5" y="-201.5" font-family="Helvetica,sans-Serif" font-size="10.00" fill="#000000">+ ~PadCalibrations()</text>
<text text-anchor="start" x="88.5" y="-190.5" font-family="Helvetica,sans-Serif" font-size="10.00" fill="#000000">+ getNChannels()</text>
<text text-anchor="start" x="88.5" y="-179.5" font-family="Helvetica,sans-Serif" font-size="10.00" fill="#000000">+ getChamberPads()</text>
<text text-anchor="start" x="88.5" y="-168.5" font-family="Helvetica,sans-Serif" font-size="10.00" fill="#000000">+ getValue()</text>
<text text-anchor="start" x="88.5" y="-157.5" font-family="Helvetica,sans-Serif" font-size="10.00" fill="#000000">+ getPadValue()</text>
<text text-anchor="start" x="88.5" y="-146.5" font-family="Helvetica,sans-Serif" font-size="10.00" fill="#000000">+ setPadValue()</text>
<text text-anchor="start" x="88.5" y="-135.5" font-family="Helvetica,sans-Serif" font-size="10.00" fill="#000000">+ setPadValue()</text>
<text text-anchor="start" x="88.5" y="-124.5" font-family="Helvetica,sans-Serif" font-size="10.00" fill="#000000">+ reset()</text>
<text text-anchor="start" x="88.5" y="-113.5" font-family="Helvetica,sans-Serif" font-size="10.00" fill="#000000">+ init()</text>
<text text-anchor="start" x="88.5" y="-102.5" font-family="Helvetica,sans-Serif" font-size="10.00" fill="#000000">+ dumpAllNonZeroValues()</text>
</a>
</g>
</g>
<!-- Node4&#45;&gt;Node3 -->
<g id="edge1" class="edge">
<title>Node4&#45;&gt;Node3</title>
<path fill="none" stroke="#191970" d="M155.5,-85.3332C155.5,-75.4109 155.5,-65.9934 155.5,-57.7987"/>
<polygon fill="none" stroke="#191970" points="152.0001,-85.397 155.5,-95.397 159.0001,-85.3971 152.0001,-85.397"/>
</g>
<!-- Node5 -->
<g id="node3" class="node">
<title>Node5</title>
<g id="a_node3"><a xlink:href="../../d3/d0f/classstd_1_1array_3_01o2_1_1trd_1_1PadParameters_3_01float_01_4_00_01TRDSimParam_1_1kNdet_01_4.html" target="_top" xlink:title="{array\&lt; o2::trd::PadParameters\l\&lt; float \&gt;, TRDSimParam::kNdet \&gt;\n||}">
<polygon fill="none" stroke="#000000" points="0,-371 0,-439 183,-439 183,-371 0,-371"/>
<text text-anchor="start" x="8" y="-427" font-family="Helvetica,sans-Serif" font-size="10.00" fill="#000000">array&lt; o2::trd::PadParameters</text>
<text text-anchor="middle" x="91.5" y="-416" font-family="Helvetica,sans-Serif" font-size="10.00" fill="#000000">&lt; float &gt;, TRDSimParam::kNdet &gt;</text>
<polyline fill="none" stroke="#000000" points="0,-409 183,-409 "/>
<text text-anchor="middle" x="91.5" y="-397" font-family="Helvetica,sans-Serif" font-size="10.00" fill="#000000"> </text>
<polyline fill="none" stroke="#000000" points="0,-390 183,-390 "/>
<text text-anchor="middle" x="91.5" y="-378" font-family="Helvetica,sans-Serif" font-size="10.00" fill="#000000"> </text>
</a>
</g>
</g>
<!-- Node5&#45;&gt;Node4 -->
<g id="edge2" class="edge">
<title>Node5&#45;&gt;Node4</title>
<path fill="none" stroke="#404040" d="M100.5937,-370.805C106.6349,-348.3542 114.8367,-318.372 122.5,-292 123.1537,-289.7503 123.8187,-287.4754 124.4923,-285.1824"/>
<polygon fill="none" stroke="#404040" points="124.5144,-285.1076 122.3829,-278.2188 127.922,-273.6016 130.0536,-280.4905 124.5144,-285.1076"/>
<text text-anchor="middle" x="175" y="-295" font-family="Helvetica,sans-Serif" font-size="10.00" fill="#000000"> #mreadOutChamber</text>
</g>
<!-- Node6 -->
<g id="node4" class="node">
<title>Node6</title>
<g id="a_node4"><a xlink:href="../../da/dcc/classo2_1_1trd_1_1PadCalibrations.html" target="_top" xlink:title="{o2::trd::PadCalibrations\&lt; T \&gt;\n||+ PadCalibrations()\l+ ~PadCalibrations()\l+ getNChannels()\l+ getChamberPads()\l+ getValue()\l+ getPadValue()\l+ setPadValue()\l+ setPadValue()\l+ reset()\l+ init()\l+ dumpAllNonZeroValues()\l}">
<polygon fill="none" stroke="#000000" points="201.5,-321.5 201.5,-488.5 359.5,-488.5 359.5,-321.5 201.5,-321.5"/>
<text text-anchor="middle" x="280.5" y="-476.5" font-family="Helvetica,sans-Serif" font-size="10.00" fill="#000000">o2::trd::PadCalibrations&lt; T &gt;</text>
<polyline fill="none" stroke="#000000" points="201.5,-469.5 359.5,-469.5 "/>
<text text-anchor="middle" x="280.5" y="-457.5" font-family="Helvetica,sans-Serif" font-size="10.00" fill="#000000"> </text>
<polyline fill="none" stroke="#000000" points="201.5,-450.5 359.5,-450.5 "/>
<text text-anchor="start" x="209.5" y="-438.5" font-family="Helvetica,sans-Serif" font-size="10.00" fill="#000000">+ PadCalibrations()</text>
<text text-anchor="start" x="209.5" y="-427.5" font-family="Helvetica,sans-Serif" font-size="10.00" fill="#000000">+ ~PadCalibrations()</text>
<text text-anchor="start" x="209.5" y="-416.5" font-family="Helvetica,sans-Serif" font-size="10.00" fill="#000000">+ getNChannels()</text>
<text text-anchor="start" x="209.5" y="-405.5" font-family="Helvetica,sans-Serif" font-size="10.00" fill="#000000">+ getChamberPads()</text>
<text text-anchor="start" x="209.5" y="-394.5" font-family="Helvetica,sans-Serif" font-size="10.00" fill="#000000">+ getValue()</text>
<text text-anchor="start" x="209.5" y="-383.5" font-family="Helvetica,sans-Serif" font-size="10.00" fill="#000000">+ getPadValue()</text>
<text text-anchor="start" x="209.5" y="-372.5" font-family="Helvetica,sans-Serif" font-size="10.00" fill="#000000">+ setPadValue()</text>
<text text-anchor="start" x="209.5" y="-361.5" font-family="Helvetica,sans-Serif" font-size="10.00" fill="#000000">+ setPadValue()</text>
<text text-anchor="start" x="209.5" y="-350.5" font-family="Helvetica,sans-Serif" font-size="10.00" fill="#000000">+ reset()</text>
<text text-anchor="start" x="209.5" y="-339.5" font-family="Helvetica,sans-Serif" font-size="10.00" fill="#000000">+ init()</text>
<text text-anchor="start" x="209.5" y="-328.5" font-family="Helvetica,sans-Serif" font-size="10.00" fill="#000000">+ dumpAllNonZeroValues()</text>
</a>
</g>
</g>
<!-- Node6&#45;&gt;Node4 -->
<g id="edge3" class="edge">
<title>Node6&#45;&gt;Node4</title>
<path fill="none" stroke="#ffa500" d="M238.2431,-311.9395C234.7278,-305.13 231.1279,-298.42 227.5,-292 224.0742,-285.9376 220.4223,-279.7671 216.6493,-273.6036"/>
<polygon fill="#ffa500" stroke="#ffa500" points="235.3315,-313.9362 242.9789,-321.2689 241.5734,-310.7677 235.3315,-313.9362"/>
<text text-anchor="middle" x="255.5" y="-295" font-family="Helvetica,sans-Serif" font-size="10.00" fill="#000000"> &lt; float &gt;</text>
</g>
<!-- Node7 -->
<g id="node5" class="node">
<title>Node7</title>
<polygon fill="none" stroke="#bfbfbf" points="197,-536.5 197,-604.5 364,-604.5 364,-536.5 197,-536.5"/>
<text text-anchor="start" x="205" y="-592.5" font-family="Helvetica,sans-Serif" font-size="10.00" fill="#000000">array&lt; o2::trd::PadParameters</text>
<text text-anchor="middle" x="280.5" y="-581.5" font-family="Helvetica,sans-Serif" font-size="10.00" fill="#000000">&lt; T &gt;, TRDSimParam::kNdet &gt;</text>
<polyline fill="none" stroke="#bfbfbf" points="197,-574.5 364,-574.5 "/>
<text text-anchor="middle" x="280.5" y="-562.5" font-family="Helvetica,sans-Serif" font-size="10.00" fill="#000000"> </text>
<polyline fill="none" stroke="#bfbfbf" points="197,-555.5 364,-555.5 "/>
<text text-anchor="middle" x="280.5" y="-543.5" font-family="Helvetica,sans-Serif" font-size="10.00" fill="#000000"> </text>
</g>
<!-- Node7&#45;&gt;Node6 -->
<g id="edge4" class="edge">
<title>Node7&#45;&gt;Node6</title>
<path fill="none" stroke="#404040" d="M280.5,-536.2083C280.5,-525.6611 280.5,-513.4923 280.5,-500.9068"/>
<polygon fill="none" stroke="#404040" points="280.5001,-500.7519 276.5,-494.7519 280.5,-488.7519 284.5,-494.7519 280.5001,-500.7519"/>
<text text-anchor="middle" x="333" y="-510" font-family="Helvetica,sans-Serif" font-size="10.00" fill="#000000"> #mreadOutChamber</text>
</g>
</g>
</svg>
