<?xml version="1.0" encoding="UTF-8" standalone="no"?>
<!DOCTYPE svg PUBLIC "-//W3C//DTD SVG 1.1//EN"
 "http://www.w3.org/Graphics/SVG/1.1/DTD/svg11.dtd">
<!-- Generated by graphviz version 2.40.1 (20161225.0304)
 -->
<!-- Title: /home/travis/build/AliceO2Group/AliceO2/GPU/GPUTracking/Base/GPUKernelDebugOutput.h Pages: 1 -->
<svg width="945pt" height="285pt"
 viewBox="0.00 0.00 944.50 285.00" xmlns="http://www.w3.org/2000/svg" xmlns:xlink="http://www.w3.org/1999/xlink">
<g id="graph0" class="graph" transform="scale(1 1) rotate(0) translate(4 281)">
<title>/home/travis/build/AliceO2Group/AliceO2/GPU/GPUTracking/Base/GPUKernelDebugOutput.h</title>
<!-- Node0 -->
<g id="node1" class="node">
<title>Node0</title>
<polygon fill="#bfbfbf" stroke="#000000" points="437,-224.5 437,-276.5 582,-276.5 582,-224.5 437,-224.5"/>
<text text-anchor="start" x="445" y="-264.5" font-family="Helvetica,sans-Serif" font-size="10.00" fill="#000000">/home/travis/build</text>
<text text-anchor="start" x="445" y="-253.5" font-family="Helvetica,sans-Serif" font-size="10.00" fill="#000000">/AliceO2Group/AliceO2</text>
<text text-anchor="start" x="445" y="-242.5" font-family="Helvetica,sans-Serif" font-size="10.00" fill="#000000">/GPU/GPUTracking/Base</text>
<text text-anchor="middle" x="509.5" y="-231.5" font-family="Helvetica,sans-Serif" font-size="10.00" fill="#000000">/GPUKernelDebugOutput.h</text>
</g>
<!-- Node1 -->
<g id="node2" class="node">
<title>Node1</title>
<g id="a_node2"><a xlink:href="../../d2/d6d/GPUDef_8h.html" target="_top" xlink:title="GPUDef.h">
<polygon fill="none" stroke="#000000" points="440,-112.5 440,-131.5 503,-131.5 503,-112.5 440,-112.5"/>
<text text-anchor="middle" x="471.5" y="-119.5" font-family="Helvetica,sans-Serif" font-size="10.00" fill="#000000">GPUDef.h</text>
</a>
</g>
</g>
<!-- Node0&#45;&gt;Node1 -->
<g id="edge1" class="edge">
<title>Node0&#45;&gt;Node1</title>
<path fill="none" stroke="#191970" d="M501.8101,-224.4961C494.5376,-199.9033 483.789,-163.5564 477.2377,-141.4024"/>
<polygon fill="#191970" stroke="#191970" points="480.5057,-140.1111 474.3135,-131.5142 473.7931,-142.0962 480.5057,-140.1111"/>
</g>
<!-- Node11 -->
<g id="node12" class="node">
<title>Node11</title>
<g id="a_node12"><a xlink:href="../../d6/d57/GPUProcessor_8h.html" target="_top" xlink:title="GPUProcessor.h">
<polygon fill="none" stroke="#000000" points="501,-168.5 501,-187.5 594,-187.5 594,-168.5 501,-168.5"/>
<text text-anchor="middle" x="547.5" y="-175.5" font-family="Helvetica,sans-Serif" font-size="10.00" fill="#000000">GPUProcessor.h</text>
</a>
</g>
</g>
<!-- Node0&#45;&gt;Node11 -->
<g id="edge11" class="edge">
<title>Node0&#45;&gt;Node11</title>
<path fill="none" stroke="#191970" d="M523.2189,-224.3258C528.0473,-215.1136 533.3701,-204.9584 537.7984,-196.5096"/>
<polygon fill="#191970" stroke="#191970" points="540.9605,-198.016 542.5029,-187.534 534.7605,-194.7663 540.9605,-198.016"/>
</g>
<!-- Node2 -->
<g id="node3" class="node">
<title>Node2</title>
<g id="a_node3"><a xlink:href="../../df/d21/GPUCommonDef_8h.html" target="_top" xlink:title="GPUCommonDef.h">
<polygon fill="none" stroke="#000000" points="673,-56.5 673,-75.5 780,-75.5 780,-56.5 673,-56.5"/>
<text text-anchor="middle" x="726.5" y="-63.5" font-family="Helvetica,sans-Serif" font-size="10.00" fill="#000000">GPUCommonDef.h</text>
</a>
</g>
</g>
<!-- Node1&#45;&gt;Node2 -->
<g id="edge2" class="edge">
<title>Node1&#45;&gt;Node2</title>
<path fill="none" stroke="#191970" d="M503.2637,-114.1615C506.3819,-113.4194 509.5007,-112.688 512.5,-112 565.9931,-99.7296 627.2384,-86.6638 670.4643,-77.6052"/>
<polygon fill="#191970" stroke="#191970" points="671.428,-80.9794 680.4997,-75.5063 669.9949,-74.1277 671.428,-80.9794"/>
</g>
<!-- Node5 -->
<g id="node6" class="node">
<title>Node5</title>
<g id="a_node6"><a xlink:href="../../d2/d37/GPUDefConstantsAndSettings_8h.html" target="_top" xlink:title="GPUDefConstantsAndSettings.h">
<polygon fill="none" stroke="#000000" points="0,-56.5 0,-75.5 171,-75.5 171,-56.5 0,-56.5"/>
<text text-anchor="middle" x="85.5" y="-63.5" font-family="Helvetica,sans-Serif" font-size="10.00" fill="#000000">GPUDefConstantsAndSettings.h</text>
</a>
</g>
</g>
<!-- Node1&#45;&gt;Node5 -->
<g id="edge5" class="edge">
<title>Node1&#45;&gt;Node5</title>
<path fill="none" stroke="#191970" d="M439.912,-117.4173C379.5275,-108.6568 246.1903,-89.3126 161.378,-77.0082"/>
<polygon fill="#191970" stroke="#191970" points="161.6827,-73.5158 151.2838,-75.5438 160.6776,-80.4433 161.6827,-73.5158"/>
</g>
<!-- Node6 -->
<g id="node7" class="node">
<title>Node6</title>
<g id="a_node7"><a xlink:href="../../dc/de9/GPUDefGPUParameters_8h.html" target="_top" xlink:title="GPUDefGPUParameters.h">
<polygon fill="none" stroke="#000000" points="189.5,-56.5 189.5,-75.5 329.5,-75.5 329.5,-56.5 189.5,-56.5"/>
<text text-anchor="middle" x="259.5" y="-63.5" font-family="Helvetica,sans-Serif" font-size="10.00" fill="#000000">GPUDefGPUParameters.h</text>
</a>
</g>
</g>
<!-- Node1&#45;&gt;Node6 -->
<g id="edge6" class="edge">
<title>Node1&#45;&gt;Node6</title>
<path fill="none" stroke="#191970" d="M439.7615,-113.6162C404.1953,-104.2214 346.2138,-88.9055 305.64,-78.1879"/>
<polygon fill="#191970" stroke="#191970" points="306.2862,-74.7386 295.7239,-75.5686 304.4984,-81.5065 306.2862,-74.7386"/>
</g>
<!-- Node8 -->
<g id="node9" class="node">
<title>Node8</title>
<g id="a_node9"><a xlink:href="../../d3/d4c/GPUDefOpenCL12Templates_8h.html" target="_top" xlink:title="GPUDefOpenCL12Templates.h">
<polygon fill="none" stroke="#000000" points="347.5,-56.5 347.5,-75.5 511.5,-75.5 511.5,-56.5 347.5,-56.5"/>
<text text-anchor="middle" x="429.5" y="-63.5" font-family="Helvetica,sans-Serif" font-size="10.00" fill="#000000">GPUDefOpenCL12Templates.h</text>
</a>
</g>
</g>
<!-- Node1&#45;&gt;Node8 -->
<g id="edge8" class="edge">
<title>Node1&#45;&gt;Node8</title>
<path fill="none" stroke="#191970" d="M464.1842,-112.2455C458.2821,-104.3761 449.8258,-93.101 442.7406,-83.6542"/>
<polygon fill="#191970" stroke="#191970" points="445.5321,-81.5427 436.732,-75.6427 439.932,-85.7427 445.5321,-81.5427"/>
</g>
<!-- Node9 -->
<g id="node10" class="node">
<title>Node9</title>
<g id="a_node10"><a xlink:href="../../d2/d45/GPUCommonRtypes_8h.html" target="_top" xlink:title="GPUCommonRtypes.h">
<polygon fill="none" stroke="#000000" points="530,-56.5 530,-75.5 655,-75.5 655,-56.5 530,-56.5"/>
<text text-anchor="middle" x="592.5" y="-63.5" font-family="Helvetica,sans-Serif" font-size="10.00" fill="#000000">GPUCommonRtypes.h</text>
</a>
</g>
</g>
<!-- Node1&#45;&gt;Node9 -->
<g id="edge9" class="edge">
<title>Node1&#45;&gt;Node9</title>
<path fill="none" stroke="#191970" d="M492.3006,-112.3733C511.7243,-103.3838 540.9224,-89.8706 562.7964,-79.7471"/>
<polygon fill="#191970" stroke="#191970" points="564.3656,-82.8776 571.9708,-75.5011 561.4255,-76.5249 564.3656,-82.8776"/>
</g>
<!-- Node3 -->
<g id="node4" class="node">
<title>Node3</title>
<g id="a_node4"><a xlink:href="../../d5/d93/GPUCommonDefSettings_8h.html" target="_top" xlink:title="GPUCommonDefSettings.h">
<polygon fill="none" stroke="#000000" points="646.5,-.5 646.5,-19.5 794.5,-19.5 794.5,-.5 646.5,-.5"/>
<text text-anchor="middle" x="720.5" y="-7.5" font-family="Helvetica,sans-Serif" font-size="10.00" fill="#000000">GPUCommonDefSettings.h</text>
</a>
</g>
</g>
<!-- Node2&#45;&gt;Node3 -->
<g id="edge3" class="edge">
<title>Node2&#45;&gt;Node3</title>
<path fill="none" stroke="#191970" d="M725.4549,-56.2455C724.672,-48.9382 723.5744,-38.6944 722.6112,-29.7046"/>
<polygon fill="#191970" stroke="#191970" points="726.0786,-29.2129 721.5331,-19.6427 719.1185,-29.9587 726.0786,-29.2129"/>
</g>
<!-- Node4 -->
<g id="node5" class="node">
<title>Node4</title>
<g id="a_node5"><a xlink:href="../../da/d5a/GPUCommonDefAPI_8h.html" target="_top" xlink:title="GPUCommonDefAPI.h">
<polygon fill="none" stroke="#000000" points="812.5,-.5 812.5,-19.5 936.5,-19.5 936.5,-.5 812.5,-.5"/>
<text text-anchor="middle" x="874.5" y="-7.5" font-family="Helvetica,sans-Serif" font-size="10.00" fill="#000000">GPUCommonDefAPI.h</text>
</a>
</g>
</g>
<!-- Node2&#45;&gt;Node4 -->
<g id="edge4" class="edge">
<title>Node2&#45;&gt;Node4</title>
<path fill="none" stroke="#191970" d="M751.9421,-56.3733C776.2326,-47.1822 813.0208,-33.2624 839.9543,-23.0713"/>
<polygon fill="#191970" stroke="#191970" points="841.2757,-26.3136 849.3899,-19.5011 838.7984,-19.7666 841.2757,-26.3136"/>
</g>
<!-- Node7 -->
<g id="node8" class="node">
<title>Node7</title>
<g id="a_node8"><a xlink:href="../../d6/dff/GPUDefMacros_8h.html" target="_top" xlink:title="GPUDefMacros.h">
<polygon fill="none" stroke="#000000" points="210.5,-.5 210.5,-19.5 308.5,-19.5 308.5,-.5 210.5,-.5"/>
<text text-anchor="middle" x="259.5" y="-7.5" font-family="Helvetica,sans-Serif" font-size="10.00" fill="#000000">GPUDefMacros.h</text>
</a>
</g>
</g>
<!-- Node6&#45;&gt;Node7 -->
<g id="edge7" class="edge">
<title>Node6&#45;&gt;Node7</title>
<path fill="none" stroke="#191970" d="M259.5,-56.2455C259.5,-48.9382 259.5,-38.6944 259.5,-29.7046"/>
<polygon fill="#191970" stroke="#191970" points="263.0001,-29.6426 259.5,-19.6427 256.0001,-29.6427 263.0001,-29.6426"/>
</g>
<!-- Node10 -->
<g id="node11" class="node">
<title>Node10</title>
<polygon fill="none" stroke="#bfbfbf" points="563,-.5 563,-19.5 622,-19.5 622,-.5 563,-.5"/>
<text text-anchor="middle" x="592.5" y="-7.5" font-family="Helvetica,sans-Serif" font-size="10.00" fill="#000000">Rtypes.h</text>
</g>
<!-- Node9&#45;&gt;Node10 -->
<g id="edge10" class="edge">
<title>Node9&#45;&gt;Node10</title>
<path fill="none" stroke="#191970" d="M592.5,-56.2455C592.5,-48.9382 592.5,-38.6944 592.5,-29.7046"/>
<polygon fill="#191970" stroke="#191970" points="596.0001,-29.6426 592.5,-19.6427 589.0001,-29.6427 596.0001,-29.6426"/>
</g>
<!-- Node11&#45;&gt;Node1 -->
<g id="edge13" class="edge">
<title>Node11&#45;&gt;Node1</title>
<path fill="none" stroke="#191970" d="M534.2618,-168.2455C522.819,-159.814 506.0704,-147.4729 492.7525,-137.6598"/>
<polygon fill="#191970" stroke="#191970" points="494.7133,-134.757 484.5865,-131.6427 490.5609,-140.3924 494.7133,-134.757"/>
</g>
<!-- Node11&#45;&gt;Node2 -->
<g id="edge12" class="edge">
<title>Node11&#45;&gt;Node2</title>
<path fill="none" stroke="#191970" d="M584.1518,-168.419C608.5641,-160.9459 640.6082,-148.9647 665.5,-132 684.7188,-118.9016 702.2381,-98.68 713.521,-84.0715"/>
<polygon fill="#191970" stroke="#191970" points="716.5104,-85.9183 719.6997,-75.8148 710.9059,-81.7242 716.5104,-85.9183"/>
</g>
<!-- Node12 -->
<g id="node13" class="node">
<title>Node12</title>
<polygon fill="none" stroke="#bfbfbf" points="521,-112.5 521,-131.5 574,-131.5 574,-112.5 521,-112.5"/>
<text text-anchor="middle" x="547.5" y="-119.5" font-family="Helvetica,sans-Serif" font-size="10.00" fill="#000000">cstddef</text>
</g>
<!-- Node11&#45;&gt;Node12 -->
<g id="edge14" class="edge">
<title>Node11&#45;&gt;Node12</title>
<path fill="none" stroke="#191970" d="M547.5,-168.2455C547.5,-160.9382 547.5,-150.6944 547.5,-141.7046"/>
<polygon fill="#191970" stroke="#191970" points="551.0001,-141.6426 547.5,-131.6427 544.0001,-141.6427 551.0001,-141.6426"/>
</g>
<!-- Node13 -->
<g id="node14" class="node">
<title>Node13</title>
<polygon fill="none" stroke="#bfbfbf" points="592.5,-112.5 592.5,-131.5 656.5,-131.5 656.5,-112.5 592.5,-112.5"/>
<text text-anchor="middle" x="624.5" y="-119.5" font-family="Helvetica,sans-Serif" font-size="10.00" fill="#000000">algorithm</text>
</g>
<!-- Node11&#45;&gt;Node13 -->
<g id="edge15" class="edge">
<title>Node11&#45;&gt;Node13</title>
<path fill="none" stroke="#191970" d="M560.9124,-168.2455C572.5057,-159.814 589.4748,-147.4729 602.9678,-137.6598"/>
<polygon fill="#191970" stroke="#191970" points="605.2126,-140.355 611.2413,-131.6427 601.0953,-134.6938 605.2126,-140.355"/>
</g>
</g>
</svg>
