<?xml version="1.0" encoding="UTF-8" standalone="no"?>
<!DOCTYPE svg PUBLIC "-//W3C//DTD SVG 1.1//EN"
 "http://www.w3.org/Graphics/SVG/1.1/DTD/svg11.dtd">
<!-- Generated by graphviz version 2.40.1 (20161225.0304)
 -->
<!-- Title: o2::tof::DataReader Pages: 1 -->
<svg width="292pt" height="248pt"
 viewBox="0.00 0.00 292.00 248.00" xmlns="http://www.w3.org/2000/svg" xmlns:xlink="http://www.w3.org/1999/xlink">
<g id="graph0" class="graph" transform="scale(1 1) rotate(0) translate(4 244)">
<title>o2::tof::DataReader</title>
<!-- Node0 -->
<g id="node1" class="node">
<title>Node0</title>
<polygon fill="#bfbfbf" stroke="#000000" points="82,-127.5 82,-239.5 202,-239.5 202,-127.5 82,-127.5"/>
<text text-anchor="middle" x="142" y="-227.5" font-family="Helvetica,sans-Serif" font-size="10.00" fill="#000000">o2::tof::DataReader</text>
<polyline fill="none" stroke="#000000" points="82,-220.5 202,-220.5 "/>
<text text-anchor="middle" x="142" y="-208.5" font-family="Helvetica,sans-Serif" font-size="10.00" fill="#000000"> </text>
<polyline fill="none" stroke="#000000" points="82,-201.5 202,-201.5 "/>
<text text-anchor="start" x="90" y="-189.5" font-family="Helvetica,sans-Serif" font-size="10.00" fill="#000000">+ DataReader()</text>
<text text-anchor="start" x="90" y="-178.5" font-family="Helvetica,sans-Serif" font-size="10.00" fill="#000000">+ DataReader()</text>
<text text-anchor="start" x="90" y="-167.5" font-family="Helvetica,sans-Serif" font-size="10.00" fill="#000000">+ ~DataReader()</text>
<text text-anchor="start" x="90" y="-156.5" font-family="Helvetica,sans-Serif" font-size="10.00" fill="#000000">+ operator=()</text>
<text text-anchor="start" x="90" y="-145.5" font-family="Helvetica,sans-Serif" font-size="10.00" fill="#000000">+ init()</text>
<text text-anchor="start" x="90" y="-134.5" font-family="Helvetica,sans-Serif" font-size="10.00" fill="#000000">+ getNextStripData()</text>
</g>
<!-- Node1 -->
<g id="node2" class="node">
<title>Node1</title>
<g id="a_node2"><a xlink:href="../../de/df7/classo2_1_1tof_1_1DigitDataReader.html" target="_top" xlink:title="DigitDataReader class for TOF. Feeds the MC digits to the Cluster Finder. ">
<polygon fill="none" stroke="#000000" points="0,-.5 0,-90.5 134,-90.5 134,-.5 0,-.5"/>
<text text-anchor="middle" x="67" y="-78.5" font-family="Helvetica,sans-Serif" font-size="10.00" fill="#000000">o2::tof::DigitDataReader</text>
<polyline fill="none" stroke="#000000" points="0,-71.5 134,-71.5 "/>
<text text-anchor="middle" x="67" y="-59.5" font-family="Helvetica,sans-Serif" font-size="10.00" fill="#000000"> </text>
<polyline fill="none" stroke="#000000" points="0,-52.5 134,-52.5 "/>
<text text-anchor="start" x="8" y="-40.5" font-family="Helvetica,sans-Serif" font-size="10.00" fill="#000000">+ DigitDataReader()</text>
<text text-anchor="start" x="8" y="-29.5" font-family="Helvetica,sans-Serif" font-size="10.00" fill="#000000">+ setDigitArray()</text>
<text text-anchor="start" x="8" y="-18.5" font-family="Helvetica,sans-Serif" font-size="10.00" fill="#000000">+ init()</text>
<text text-anchor="start" x="8" y="-7.5" font-family="Helvetica,sans-Serif" font-size="10.00" fill="#000000">+ getNextStripData()</text>
</a>
</g>
</g>
<!-- Node0&#45;&gt;Node1 -->
<g id="edge1" class="edge">
<title>Node0&#45;&gt;Node1</title>
<path fill="none" stroke="#191970" d="M106.6212,-118.4029C101.5082,-108.9951 96.3425,-99.4902 91.5059,-90.5909"/>
<polygon fill="none" stroke="#191970" points="103.6443,-120.2552 111.4946,-127.3701 109.7946,-116.9125 103.6443,-120.2552"/>
</g>
<!-- Node2 -->
<g id="node3" class="node">
<title>Node2</title>
<g id="a_node3"><a xlink:href="../../d1/d64/classo2_1_1tof_1_1RawDataReader.html" target="_top" xlink:title="RawDataReader class for TOF. Feeds raw data to the Cluster Finder. ">
<polygon fill="none" stroke="#000000" points="152,-17 152,-74 284,-74 284,-17 152,-17"/>
<text text-anchor="middle" x="218" y="-62" font-family="Helvetica,sans-Serif" font-size="10.00" fill="#000000">o2::tof::RawDataReader</text>
<polyline fill="none" stroke="#000000" points="152,-55 284,-55 "/>
<text text-anchor="middle" x="218" y="-43" font-family="Helvetica,sans-Serif" font-size="10.00" fill="#000000"> </text>
<polyline fill="none" stroke="#000000" points="152,-36 284,-36 "/>
<text text-anchor="start" x="160" y="-24" font-family="Helvetica,sans-Serif" font-size="10.00" fill="#000000">+ getNextStripData()</text>
</a>
</g>
</g>
<!-- Node0&#45;&gt;Node2 -->
<g id="edge2" class="edge">
<title>Node0&#45;&gt;Node2</title>
<path fill="none" stroke="#191970" d="M177.8896,-118.332C186.3933,-102.8912 195.0382,-87.1937 202.1142,-74.3453"/>
<polygon fill="none" stroke="#191970" points="174.6704,-116.9222 172.9121,-127.3701 180.802,-120.2991 174.6704,-116.9222"/>
</g>
</g>
</svg>
