<?xml version="1.0" encoding="UTF-8" standalone="no"?>
<!DOCTYPE svg PUBLIC "-//W3C//DTD SVG 1.1//EN"
 "http://www.w3.org/Graphics/SVG/1.1/DTD/svg11.dtd">
<!-- Generated by graphviz version 2.40.1 (20161225.0304)
 -->
<!-- Title: AliTPCDcalibRes::dts_t Pages: 1 -->
<svg width="154pt" height="193pt"
 viewBox="0.00 0.00 154.00 193.00" xmlns="http://www.w3.org/2000/svg" xmlns:xlink="http://www.w3.org/1999/xlink">
<g id="graph0" class="graph" transform="scale(1 1) rotate(0) translate(4 189)">
<title>AliTPCDcalibRes::dts_t</title>
<!-- Node1 -->
<g id="node1" class="node">
<title>Node1</title>
<polygon fill="#bfbfbf" stroke="#000000" points="6,-.5 6,-57.5 132,-57.5 132,-.5 6,-.5"/>
<text text-anchor="middle" x="69" y="-45.5" font-family="Helvetica,sans-Serif" font-size="10.00" fill="#000000">AliTPCDcalibRes::dts_t</text>
<polyline fill="none" stroke="#000000" points="6,-38.5 132,-38.5 "/>
<text text-anchor="middle" x="69" y="-26.5" font-family="Helvetica,sans-Serif" font-size="10.00" fill="#000000"> </text>
<polyline fill="none" stroke="#000000" points="6,-19.5 132,-19.5 "/>
<text text-anchor="start" x="14" y="-7.5" font-family="Helvetica,sans-Serif" font-size="10.00" fill="#000000">+ dts_t()</text>
</g>
<!-- Node2 -->
<g id="node2" class="node">
<title>Node2</title>
<polygon fill="none" stroke="#bfbfbf" points="0,-127.5 0,-184.5 56,-184.5 56,-127.5 0,-127.5"/>
<text text-anchor="middle" x="28" y="-172.5" font-family="Helvetica,sans-Serif" font-size="10.00" fill="#000000">UChar_t</text>
<polyline fill="none" stroke="#bfbfbf" points="0,-165.5 56,-165.5 "/>
<text text-anchor="middle" x="28" y="-153.5" font-family="Helvetica,sans-Serif" font-size="10.00" fill="#000000"> </text>
<polyline fill="none" stroke="#bfbfbf" points="0,-146.5 56,-146.5 "/>
<text text-anchor="middle" x="28" y="-134.5" font-family="Helvetica,sans-Serif" font-size="10.00" fill="#000000"> </text>
</g>
<!-- Node2&#45;&gt;Node1 -->
<g id="edge1" class="edge">
<title>Node2&#45;&gt;Node1</title>
<path fill="none" stroke="#404040" d="M36.1699,-127.3698C40.643,-112.0638 46.4021,-92.9343 52,-76 52.7353,-73.7756 53.5046,-71.4976 54.2926,-69.202"/>
<polygon fill="none" stroke="#404040" points="54.34,-69.0667 52.5544,-62.0802 58.3167,-57.7448 60.1024,-64.7313 54.34,-69.0667"/>
<text text-anchor="middle" x="70" y="-90" font-family="Helvetica,sans-Serif" font-size="10.00" fill="#000000"> +bvox</text>
</g>
<!-- Node3 -->
<g id="node3" class="node">
<title>Node3</title>
<polygon fill="none" stroke="#bfbfbf" points="74,-127.5 74,-184.5 146,-184.5 146,-127.5 74,-127.5"/>
<text text-anchor="middle" x="110" y="-172.5" font-family="Helvetica,sans-Serif" font-size="10.00" fill="#000000">Double32_t</text>
<polyline fill="none" stroke="#bfbfbf" points="74,-165.5 146,-165.5 "/>
<text text-anchor="middle" x="110" y="-153.5" font-family="Helvetica,sans-Serif" font-size="10.00" fill="#000000"> </text>
<polyline fill="none" stroke="#bfbfbf" points="74,-146.5 146,-146.5 "/>
<text text-anchor="middle" x="110" y="-134.5" font-family="Helvetica,sans-Serif" font-size="10.00" fill="#000000"> </text>
</g>
<!-- Node3&#45;&gt;Node1 -->
<g id="edge2" class="edge">
<title>Node3&#45;&gt;Node1</title>
<path fill="none" stroke="#404040" d="M102.954,-127.2471C98.9792,-111.9064 93.6786,-92.7828 88,-76 87.2066,-73.6552 86.3582,-71.2584 85.4765,-68.8492"/>
<polygon fill="none" stroke="#404040" points="85.4745,-68.8437 79.5955,-64.6679 81.1889,-57.6351 87.0679,-61.8109 85.4745,-68.8437"/>
<text text-anchor="middle" x="115.5" y="-101" font-family="Helvetica,sans-Serif" font-size="10.00" fill="#000000"> +tgSlp</text>
<text text-anchor="middle" x="115.5" y="-90" font-family="Helvetica,sans-Serif" font-size="10.00" fill="#000000">+dy</text>
<text text-anchor="middle" x="115.5" y="-79" font-family="Helvetica,sans-Serif" font-size="10.00" fill="#000000">+dz</text>
</g>
</g>
</svg>
