<?xml version="1.0" encoding="UTF-8" standalone="no"?>
<!DOCTYPE svg PUBLIC "-//W3C//DTD SVG 1.1//EN"
 "http://www.w3.org/Graphics/SVG/1.1/DTD/svg11.dtd">
<!-- Generated by graphviz version 2.40.1 (20161225.0304)
 -->
<!-- Title: /home/travis/build/AliceO2Group/AliceO2/Framework/Core/include/Framework/ParamRetriever.h Pages: 1 -->
<svg width="870pt" height="240pt"
 viewBox="0.00 0.00 870.00 240.00" xmlns="http://www.w3.org/2000/svg" xmlns:xlink="http://www.w3.org/1999/xlink">
<g id="graph0" class="graph" transform="scale(1 1) rotate(0) translate(4 236)">
<title>/home/travis/build/AliceO2Group/AliceO2/Framework/Core/include/Framework/ParamRetriever.h</title>
<!-- Node0 -->
<g id="node1" class="node">
<title>Node0</title>
<polygon fill="#bfbfbf" stroke="#000000" points="617.5,-179.5 617.5,-231.5 777.5,-231.5 777.5,-179.5 617.5,-179.5"/>
<text text-anchor="start" x="625.5" y="-219.5" font-family="Helvetica,sans-Serif" font-size="10.00" fill="#000000">/home/travis/build</text>
<text text-anchor="start" x="625.5" y="-208.5" font-family="Helvetica,sans-Serif" font-size="10.00" fill="#000000">/AliceO2Group/AliceO2</text>
<text text-anchor="start" x="625.5" y="-197.5" font-family="Helvetica,sans-Serif" font-size="10.00" fill="#000000">/Framework/Core/include</text>
<text text-anchor="middle" x="697.5" y="-186.5" font-family="Helvetica,sans-Serif" font-size="10.00" fill="#000000">/Framework/ParamRetriever.h</text>
</g>
<!-- Node1 -->
<g id="node2" class="node">
<title>Node1</title>
<g id="a_node2"><a xlink:href="../../d0/d1c/ConfigParamSpec_8h.html" target="_top" xlink:title="Framework/ConfigParamSpec.h">
<polygon fill="none" stroke="#000000" points="461,-118 461,-137 628,-137 628,-118 461,-118"/>
<text text-anchor="middle" x="544.5" y="-125" font-family="Helvetica,sans-Serif" font-size="10.00" fill="#000000">Framework/ConfigParamSpec.h</text>
</a>
</g>
</g>
<!-- Node0&#45;&gt;Node1 -->
<g id="edge1" class="edge">
<title>Node0&#45;&gt;Node1</title>
<path fill="none" stroke="#191970" d="M646.1276,-179.3101C621.546,-166.7784 593.0705,-152.2615 572.5265,-141.788"/>
<polygon fill="#191970" stroke="#191970" points="573.9082,-138.5639 563.4095,-137.1401 570.7289,-144.8002 573.9082,-138.5639"/>
</g>
<!-- Node11 -->
<g id="node12" class="node">
<title>Node11</title>
<polygon fill="none" stroke="#bfbfbf" points="633.5,-.5 633.5,-19.5 677.5,-19.5 677.5,-.5 633.5,-.5"/>
<text text-anchor="middle" x="655.5" y="-7.5" font-family="Helvetica,sans-Serif" font-size="10.00" fill="#000000">string</text>
</g>
<!-- Node0&#45;&gt;Node11 -->
<g id="edge14" class="edge">
<title>Node0&#45;&gt;Node11</title>
<path fill="none" stroke="#191970" d="M687.0634,-179.3791C682.9652,-168.3044 678.5274,-155.1676 675.5,-143 665.678,-103.5237 659.9618,-56.1807 657.312,-29.9612"/>
<polygon fill="#191970" stroke="#191970" points="660.7763,-29.4212 656.3337,-19.8028 653.8085,-30.0923 660.7763,-29.4212"/>
</g>
<!-- Node12 -->
<g id="node13" class="node">
<title>Node12</title>
<polygon fill="none" stroke="#bfbfbf" points="684,-112.5 684,-142.5 797,-142.5 797,-112.5 684,-112.5"/>
<text text-anchor="start" x="692" y="-130.5" font-family="Helvetica,sans-Serif" font-size="10.00" fill="#000000">boost/property_tree</text>
<text text-anchor="middle" x="740.5" y="-119.5" font-family="Helvetica,sans-Serif" font-size="10.00" fill="#000000">/ptree_fwd.hpp</text>
</g>
<!-- Node0&#45;&gt;Node12 -->
<g id="edge13" class="edge">
<title>Node0&#45;&gt;Node12</title>
<path fill="none" stroke="#191970" d="M712.0578,-179.0928C716.9962,-170.1348 722.482,-160.1838 727.3078,-151.43"/>
<polygon fill="#191970" stroke="#191970" points="730.4655,-152.9517 732.2283,-142.5046 724.3353,-149.5722 730.4655,-152.9517"/>
</g>
<!-- Node13 -->
<g id="node14" class="node">
<title>Node13</title>
<polygon fill="none" stroke="#bfbfbf" points="815,-118 815,-137 862,-137 862,-118 815,-118"/>
<text text-anchor="middle" x="838.5" y="-125" font-family="Helvetica,sans-Serif" font-size="10.00" fill="#000000">vector</text>
</g>
<!-- Node0&#45;&gt;Node13 -->
<g id="edge15" class="edge">
<title>Node0&#45;&gt;Node13</title>
<path fill="none" stroke="#191970" d="M744.8432,-179.3101C767.2918,-166.8918 793.2642,-152.524 812.1559,-142.0733"/>
<polygon fill="#191970" stroke="#191970" points="814.0175,-145.0434 821.0736,-137.1401 810.6291,-138.9182 814.0175,-145.0434"/>
</g>
<!-- Node2 -->
<g id="node3" class="node">
<title>Node2</title>
<g id="a_node3"><a xlink:href="../../de/d56/Variant_8h.html" target="_top" xlink:title="Framework/Variant.h">
<polygon fill="none" stroke="#000000" points="303,-56.5 303,-75.5 420,-75.5 420,-56.5 303,-56.5"/>
<text text-anchor="middle" x="361.5" y="-63.5" font-family="Helvetica,sans-Serif" font-size="10.00" fill="#000000">Framework/Variant.h</text>
</a>
</g>
</g>
<!-- Node1&#45;&gt;Node2 -->
<g id="edge2" class="edge">
<title>Node1&#45;&gt;Node2</title>
<path fill="none" stroke="#191970" d="M515.9063,-117.8906C484.6155,-107.3749 434.3014,-90.466 399.66,-78.8243"/>
<polygon fill="#191970" stroke="#191970" points="400.487,-75.4099 389.893,-75.5419 398.257,-82.0452 400.487,-75.4099"/>
</g>
<!-- Node1&#45;&gt;Node11 -->
<g id="edge12" class="edge">
<title>Node1&#45;&gt;Node11</title>
<path fill="none" stroke="#191970" d="M553.5836,-117.8845C572.3655,-98.0028 615.6906,-52.1406 639.3546,-27.0908"/>
<polygon fill="#191970" stroke="#191970" points="641.968,-29.4212 646.2909,-19.7484 636.8795,-24.6142 641.968,-29.4212"/>
</g>
<!-- Node3 -->
<g id="node4" class="node">
<title>Node3</title>
<polygon fill="none" stroke="#bfbfbf" points="0,-.5 0,-19.5 69,-19.5 69,-.5 0,-.5"/>
<text text-anchor="middle" x="34.5" y="-7.5" font-family="Helvetica,sans-Serif" font-size="10.00" fill="#000000">type_traits</text>
</g>
<!-- Node2&#45;&gt;Node3 -->
<g id="edge3" class="edge">
<title>Node2&#45;&gt;Node3</title>
<path fill="none" stroke="#191970" d="M302.774,-57.5462C247.5898,-49.355 162.4838,-36.0897 78.9563,-19.9903"/>
<polygon fill="#191970" stroke="#191970" points="79.5281,-16.536 69.0441,-18.0648 78.1932,-23.4076 79.5281,-16.536"/>
</g>
<!-- Node4 -->
<g id="node5" class="node">
<title>Node4</title>
<polygon fill="none" stroke="#bfbfbf" points="87.5,-.5 87.5,-19.5 137.5,-19.5 137.5,-.5 87.5,-.5"/>
<text text-anchor="middle" x="112.5" y="-7.5" font-family="Helvetica,sans-Serif" font-size="10.00" fill="#000000">cstring</text>
</g>
<!-- Node2&#45;&gt;Node4 -->
<g id="edge4" class="edge">
<title>Node2&#45;&gt;Node4</title>
<path fill="none" stroke="#191970" d="M311.725,-56.4559C270.2111,-48.2465 209.3107,-35.628 147.601,-20.1479"/>
<polygon fill="#191970" stroke="#191970" points="148.2461,-16.7008 137.6928,-17.6391 146.5278,-23.4867 148.2461,-16.7008"/>
</g>
<!-- Node5 -->
<g id="node6" class="node">
<title>Node5</title>
<polygon fill="none" stroke="#bfbfbf" points="155.5,-.5 155.5,-19.5 205.5,-19.5 205.5,-.5 155.5,-.5"/>
<text text-anchor="middle" x="180.5" y="-7.5" font-family="Helvetica,sans-Serif" font-size="10.00" fill="#000000">cstdint</text>
</g>
<!-- Node2&#45;&gt;Node5 -->
<g id="edge5" class="edge">
<title>Node2&#45;&gt;Node5</title>
<path fill="none" stroke="#191970" d="M330.385,-56.3733C298.4168,-46.4825 248.7485,-31.1156 215.4472,-20.8124"/>
<polygon fill="#191970" stroke="#191970" points="216.2632,-17.4012 205.6755,-17.7891 214.1942,-24.0885 216.2632,-17.4012"/>
</g>
<!-- Node6 -->
<g id="node7" class="node">
<title>Node6</title>
<polygon fill="none" stroke="#bfbfbf" points="224,-.5 224,-19.5 273,-19.5 273,-.5 224,-.5"/>
<text text-anchor="middle" x="248.5" y="-7.5" font-family="Helvetica,sans-Serif" font-size="10.00" fill="#000000">cstdlib</text>
</g>
<!-- Node2&#45;&gt;Node6 -->
<g id="edge6" class="edge">
<title>Node2&#45;&gt;Node6</title>
<path fill="none" stroke="#191970" d="M342.0746,-56.3733C324.0979,-47.4644 297.1559,-34.1127 276.791,-24.0203"/>
<polygon fill="#191970" stroke="#191970" points="278.1861,-20.8055 267.6719,-19.5011 275.0778,-27.0776 278.1861,-20.8055"/>
</g>
<!-- Node7 -->
<g id="node8" class="node">
<title>Node7</title>
<polygon fill="none" stroke="#bfbfbf" points="291,-.5 291,-19.5 356,-19.5 356,-.5 291,-.5"/>
<text text-anchor="middle" x="323.5" y="-7.5" font-family="Helvetica,sans-Serif" font-size="10.00" fill="#000000">stdexcept</text>
</g>
<!-- Node2&#45;&gt;Node7 -->
<g id="edge7" class="edge">
<title>Node2&#45;&gt;Node7</title>
<path fill="none" stroke="#191970" d="M354.8809,-56.2455C349.5954,-48.4564 342.0459,-37.3308 335.6762,-27.9439"/>
<polygon fill="#191970" stroke="#191970" points="338.5545,-25.9522 330.0432,-19.6427 332.7621,-29.8827 338.5545,-25.9522"/>
</g>
<!-- Node8 -->
<g id="node9" class="node">
<title>Node8</title>
<polygon fill="none" stroke="#bfbfbf" points="374,-.5 374,-19.5 423,-19.5 423,-.5 374,-.5"/>
<text text-anchor="middle" x="398.5" y="-7.5" font-family="Helvetica,sans-Serif" font-size="10.00" fill="#000000">iosfwd</text>
</g>
<!-- Node2&#45;&gt;Node8 -->
<g id="edge8" class="edge">
<title>Node2&#45;&gt;Node8</title>
<path fill="none" stroke="#191970" d="M367.9449,-56.2455C373.0382,-48.5367 380.2908,-37.5598 386.452,-28.2348"/>
<polygon fill="#191970" stroke="#191970" points="389.5365,-29.9155 392.1289,-19.6427 383.6962,-26.0566 389.5365,-29.9155"/>
</g>
<!-- Node9 -->
<g id="node10" class="node">
<title>Node9</title>
<polygon fill="none" stroke="#bfbfbf" points="441,-.5 441,-19.5 524,-19.5 524,-.5 441,-.5"/>
<text text-anchor="middle" x="482.5" y="-7.5" font-family="Helvetica,sans-Serif" font-size="10.00" fill="#000000">initializer_list</text>
</g>
<!-- Node2&#45;&gt;Node9 -->
<g id="edge9" class="edge">
<title>Node2&#45;&gt;Node9</title>
<path fill="none" stroke="#191970" d="M382.3006,-56.3733C401.7243,-47.3838 430.9224,-33.8706 452.7964,-23.7471"/>
<polygon fill="#191970" stroke="#191970" points="454.3656,-26.8776 461.9708,-19.5011 451.4255,-20.5249 454.3656,-26.8776"/>
</g>
<!-- Node10 -->
<g id="node11" class="node">
<title>Node10</title>
<polygon fill="none" stroke="#bfbfbf" points="542,-.5 542,-19.5 615,-19.5 615,-.5 542,-.5"/>
<text text-anchor="middle" x="578.5" y="-7.5" font-family="Helvetica,sans-Serif" font-size="10.00" fill="#000000">string_view</text>
</g>
<!-- Node2&#45;&gt;Node10 -->
<g id="edge10" class="edge">
<title>Node2&#45;&gt;Node10</title>
<path fill="none" stroke="#191970" d="M398.8036,-56.3733C435.6685,-46.8598 492.166,-32.2797 531.9506,-22.0127"/>
<polygon fill="#191970" stroke="#191970" points="532.875,-25.3889 541.6831,-19.5011 531.1258,-18.611 532.875,-25.3889"/>
</g>
<!-- Node2&#45;&gt;Node11 -->
<g id="edge11" class="edge">
<title>Node2&#45;&gt;Node11</title>
<path fill="none" stroke="#191970" d="M420.2223,-58.1161C471.5409,-50.6875 548.163,-38.2984 623.1653,-20.0742"/>
<polygon fill="#191970" stroke="#191970" points="624.3853,-23.3782 633.2555,-17.5841 622.7081,-16.5821 624.3853,-23.3782"/>
</g>
</g>
</svg>
