<?xml version="1.0" encoding="UTF-8" standalone="no"?>
<!DOCTYPE svg PUBLIC "-//W3C//DTD SVG 1.1//EN"
 "http://www.w3.org/Graphics/SVG/1.1/DTD/svg11.dtd">
<!-- Generated by graphviz version 2.40.1 (20161225.0304)
 -->
<!-- Title: /home/travis/build/AliceO2Group/AliceO2/GPU/GPUTracking/Base/GPUHostDataTypes.h Pages: 1 -->
<svg width="1506pt" height="239pt"
 viewBox="0.00 0.00 1506.00 239.00" xmlns="http://www.w3.org/2000/svg" xmlns:xlink="http://www.w3.org/1999/xlink">
<g id="graph0" class="graph" transform="scale(1 1) rotate(0) translate(4 235)">
<title>/home/travis/build/AliceO2Group/AliceO2/GPU/GPUTracking/Base/GPUHostDataTypes.h</title>
<!-- Node19 -->
<g id="node1" class="node">
<title>Node19</title>
<polygon fill="#bfbfbf" stroke="#000000" points="610.5,-178.5 610.5,-230.5 742.5,-230.5 742.5,-178.5 610.5,-178.5"/>
<text text-anchor="start" x="618.5" y="-218.5" font-family="Helvetica,sans-Serif" font-size="10.00" fill="#000000">/home/travis/build</text>
<text text-anchor="start" x="618.5" y="-207.5" font-family="Helvetica,sans-Serif" font-size="10.00" fill="#000000">/AliceO2Group/AliceO2</text>
<text text-anchor="start" x="618.5" y="-196.5" font-family="Helvetica,sans-Serif" font-size="10.00" fill="#000000">/GPU/GPUTracking/Base</text>
<text text-anchor="middle" x="676.5" y="-185.5" font-family="Helvetica,sans-Serif" font-size="10.00" fill="#000000">/GPUHostDataTypes.h</text>
</g>
<!-- Node20 -->
<g id="node2" class="node">
<title>Node20</title>
<g id="a_node2"><a xlink:href="../../d4/d2e/GPUCATracking_8cxx.html" target="_top" xlink:title="/home/travis/build\l/AliceO2Group/AliceO2\l/Detectors/TPC/reconstruction\l/src/GPUCATracking.cxx">
<polygon fill="none" stroke="#000000" points="0,-.5 0,-52.5 161,-52.5 161,-.5 0,-.5"/>
<text text-anchor="start" x="8" y="-40.5" font-family="Helvetica,sans-Serif" font-size="10.00" fill="#000000">/home/travis/build</text>
<text text-anchor="start" x="8" y="-29.5" font-family="Helvetica,sans-Serif" font-size="10.00" fill="#000000">/AliceO2Group/AliceO2</text>
<text text-anchor="start" x="8" y="-18.5" font-family="Helvetica,sans-Serif" font-size="10.00" fill="#000000">/Detectors/TPC/reconstruction</text>
<text text-anchor="middle" x="80.5" y="-7.5" font-family="Helvetica,sans-Serif" font-size="10.00" fill="#000000">/src/GPUCATracking.cxx</text>
</a>
</g>
</g>
<!-- Node19&#45;&gt;Node20 -->
<g id="edge1" class="edge">
<title>Node19&#45;&gt;Node20</title>
<path fill="none" stroke="#191970" d="M600.0629,-197.1078C496.5661,-186.4185 317.7469,-165.3505 256.5,-142 200.6649,-120.7127 144.3597,-79.504 110.9601,-52.5034"/>
<polygon fill="#191970" stroke="#191970" points="599.8397,-200.6032 610.1444,-198.1408 600.5533,-193.6396 599.8397,-200.6032"/>
</g>
<!-- Node21 -->
<g id="node3" class="node">
<title>Node21</title>
<g id="a_node3"><a xlink:href="../../df/d6c/convertDigitsToRawZS_8cxx.html" target="_top" xlink:title="/home/travis/build\l/AliceO2Group/AliceO2\l/Detectors/TPC/simulation\l/run/convertDigitsToRawZS.cxx">
<polygon fill="none" stroke="#000000" points="493.5,-89.5 493.5,-141.5 661.5,-141.5 661.5,-89.5 493.5,-89.5"/>
<text text-anchor="start" x="501.5" y="-129.5" font-family="Helvetica,sans-Serif" font-size="10.00" fill="#000000">/home/travis/build</text>
<text text-anchor="start" x="501.5" y="-118.5" font-family="Helvetica,sans-Serif" font-size="10.00" fill="#000000">/AliceO2Group/AliceO2</text>
<text text-anchor="start" x="501.5" y="-107.5" font-family="Helvetica,sans-Serif" font-size="10.00" fill="#000000">/Detectors/TPC/simulation</text>
<text text-anchor="middle" x="577.5" y="-96.5" font-family="Helvetica,sans-Serif" font-size="10.00" fill="#000000">/run/convertDigitsToRawZS.cxx</text>
</a>
</g>
</g>
<!-- Node19&#45;&gt;Node21 -->
<g id="edge2" class="edge">
<title>Node19&#45;&gt;Node21</title>
<path fill="none" stroke="#191970" d="M639.8762,-171.5755C628.8524,-161.6653 616.913,-150.9319 606.4593,-141.5341"/>
<polygon fill="#191970" stroke="#191970" points="637.5556,-174.1958 647.3322,-178.2784 642.2354,-168.9901 637.5556,-174.1958"/>
</g>
<!-- Node22 -->
<g id="node4" class="node">
<title>Node22</title>
<g id="a_node4"><a xlink:href="../../d2/dbc/ZSSpec_8cxx.html" target="_top" xlink:title="/home/travis/build\l/AliceO2Group/AliceO2\l/Detectors/TPC/workflow\l/src/ZSSpec.cxx">
<polygon fill="none" stroke="#000000" points="179.5,-.5 179.5,-52.5 315.5,-52.5 315.5,-.5 179.5,-.5"/>
<text text-anchor="start" x="187.5" y="-40.5" font-family="Helvetica,sans-Serif" font-size="10.00" fill="#000000">/home/travis/build</text>
<text text-anchor="start" x="187.5" y="-29.5" font-family="Helvetica,sans-Serif" font-size="10.00" fill="#000000">/AliceO2Group/AliceO2</text>
<text text-anchor="start" x="187.5" y="-18.5" font-family="Helvetica,sans-Serif" font-size="10.00" fill="#000000">/Detectors/TPC/workflow</text>
<text text-anchor="middle" x="247.5" y="-7.5" font-family="Helvetica,sans-Serif" font-size="10.00" fill="#000000">/src/ZSSpec.cxx</text>
</a>
</g>
</g>
<!-- Node19&#45;&gt;Node22 -->
<g id="edge3" class="edge">
<title>Node19&#45;&gt;Node22</title>
<path fill="none" stroke="#191970" d="M600.2738,-200.732C502.6473,-194.4613 340.5483,-178.7265 294.5,-142 267.0817,-120.1321 255.5434,-79.6886 250.7668,-52.9363"/>
<polygon fill="#191970" stroke="#191970" points="600.1899,-204.2335 610.3884,-201.3627 600.6256,-197.2471 600.1899,-204.2335"/>
</g>
<!-- Node23 -->
<g id="node5" class="node">
<title>Node23</title>
<g id="a_node5"><a xlink:href="../../d8/de7/GPUO2InterfaceConfiguration_8h.html" target="_top" xlink:title="/home/travis/build\l/AliceO2Group/AliceO2\l/GPU/GPUTracking/Interface\l/GPUO2InterfaceConfiguration.h">
<polygon fill="none" stroke="#000000" points="303.5,-89.5 303.5,-141.5 475.5,-141.5 475.5,-89.5 303.5,-89.5"/>
<text text-anchor="start" x="311.5" y="-129.5" font-family="Helvetica,sans-Serif" font-size="10.00" fill="#000000">/home/travis/build</text>
<text text-anchor="start" x="311.5" y="-118.5" font-family="Helvetica,sans-Serif" font-size="10.00" fill="#000000">/AliceO2Group/AliceO2</text>
<text text-anchor="start" x="311.5" y="-107.5" font-family="Helvetica,sans-Serif" font-size="10.00" fill="#000000">/GPU/GPUTracking/Interface</text>
<text text-anchor="middle" x="389.5" y="-96.5" font-family="Helvetica,sans-Serif" font-size="10.00" fill="#000000">/GPUO2InterfaceConfiguration.h</text>
</a>
</g>
</g>
<!-- Node19&#45;&gt;Node23 -->
<g id="edge4" class="edge">
<title>Node19&#45;&gt;Node23</title>
<path fill="none" stroke="#191970" d="M600.5446,-180.9459C561.4143,-168.8114 513.6028,-153.9848 473.3879,-141.514"/>
<polygon fill="#191970" stroke="#191970" points="599.7081,-184.3508 610.296,-183.9699 601.7814,-177.6649 599.7081,-184.3508"/>
</g>
<!-- Node28 -->
<g id="node10" class="node">
<title>Node28</title>
<g id="a_node10"><a xlink:href="../../de/d30/GPUTPCCFClusterizer_8cxx.html" target="_top" xlink:title="/home/travis/build\l/AliceO2Group/AliceO2\l/GPU/GPUTracking/TPCClusterFinder\l/GPUTPCCFClusterizer.cxx">
<polygon fill="none" stroke="#000000" points="680,-89.5 680,-141.5 871,-141.5 871,-89.5 680,-89.5"/>
<text text-anchor="start" x="688" y="-129.5" font-family="Helvetica,sans-Serif" font-size="10.00" fill="#000000">/home/travis/build</text>
<text text-anchor="start" x="688" y="-118.5" font-family="Helvetica,sans-Serif" font-size="10.00" fill="#000000">/AliceO2Group/AliceO2</text>
<text text-anchor="start" x="688" y="-107.5" font-family="Helvetica,sans-Serif" font-size="10.00" fill="#000000">/GPU/GPUTracking/TPCClusterFinder</text>
<text text-anchor="middle" x="775.5" y="-96.5" font-family="Helvetica,sans-Serif" font-size="10.00" fill="#000000">/GPUTPCCFClusterizer.cxx</text>
</a>
</g>
</g>
<!-- Node19&#45;&gt;Node28 -->
<g id="edge11" class="edge">
<title>Node19&#45;&gt;Node28</title>
<path fill="none" stroke="#191970" d="M713.1238,-171.5755C724.1476,-161.6653 736.087,-150.9319 746.5407,-141.5341"/>
<polygon fill="#191970" stroke="#191970" points="710.7646,-168.9901 705.6678,-178.2784 715.4444,-174.1958 710.7646,-168.9901"/>
</g>
<!-- Node29 -->
<g id="node11" class="node">
<title>Node29</title>
<g id="a_node11"><a xlink:href="../../d6/d5e/GPUTPCCFMCLabelFlattener_8cxx.html" target="_top" xlink:title="/home/travis/build\l/AliceO2Group/AliceO2\l/GPU/GPUTracking/TPCClusterFinder\l/GPUTPCCFMCLabelFlattener.cxx">
<polygon fill="none" stroke="#000000" points="889,-89.5 889,-141.5 1080,-141.5 1080,-89.5 889,-89.5"/>
<text text-anchor="start" x="897" y="-129.5" font-family="Helvetica,sans-Serif" font-size="10.00" fill="#000000">/home/travis/build</text>
<text text-anchor="start" x="897" y="-118.5" font-family="Helvetica,sans-Serif" font-size="10.00" fill="#000000">/AliceO2Group/AliceO2</text>
<text text-anchor="start" x="897" y="-107.5" font-family="Helvetica,sans-Serif" font-size="10.00" fill="#000000">/GPU/GPUTracking/TPCClusterFinder</text>
<text text-anchor="middle" x="984.5" y="-96.5" font-family="Helvetica,sans-Serif" font-size="10.00" fill="#000000">/GPUTPCCFMCLabelFlattener.cxx</text>
</a>
</g>
</g>
<!-- Node19&#45;&gt;Node29 -->
<g id="edge12" class="edge">
<title>Node19&#45;&gt;Node29</title>
<path fill="none" stroke="#191970" d="M752.3922,-182.5701C795.3055,-170.1698 849.2242,-154.5894 894.2901,-141.5672"/>
<polygon fill="#191970" stroke="#191970" points="751.2091,-179.2687 742.5737,-185.4073 753.1523,-185.9936 751.2091,-179.2687"/>
</g>
<!-- Node30 -->
<g id="node12" class="node">
<title>Node30</title>
<g id="a_node12"><a xlink:href="../../df/da0/GPUTPCClusterFinder_8cxx.html" target="_top" xlink:title="/home/travis/build\l/AliceO2Group/AliceO2\l/GPU/GPUTracking/TPCClusterFinder\l/GPUTPCClusterFinder.cxx">
<polygon fill="none" stroke="#000000" points="1098,-89.5 1098,-141.5 1289,-141.5 1289,-89.5 1098,-89.5"/>
<text text-anchor="start" x="1106" y="-129.5" font-family="Helvetica,sans-Serif" font-size="10.00" fill="#000000">/home/travis/build</text>
<text text-anchor="start" x="1106" y="-118.5" font-family="Helvetica,sans-Serif" font-size="10.00" fill="#000000">/AliceO2Group/AliceO2</text>
<text text-anchor="start" x="1106" y="-107.5" font-family="Helvetica,sans-Serif" font-size="10.00" fill="#000000">/GPU/GPUTracking/TPCClusterFinder</text>
<text text-anchor="middle" x="1193.5" y="-96.5" font-family="Helvetica,sans-Serif" font-size="10.00" fill="#000000">/GPUTPCClusterFinder.cxx</text>
</a>
</g>
</g>
<!-- Node19&#45;&gt;Node30 -->
<g id="edge13" class="edge">
<title>Node19&#45;&gt;Node30</title>
<path fill="none" stroke="#191970" d="M752.7845,-195.2633C835.97,-184.6549 972.8289,-165.6316 1089.5,-142 1092.2392,-141.4452 1095.0145,-140.8644 1097.8123,-140.2626"/>
<polygon fill="#191970" stroke="#191970" points="752.1417,-191.8167 742.6612,-196.5465 753.022,-198.7611 752.1417,-191.8167"/>
</g>
<!-- Node31 -->
<g id="node13" class="node">
<title>Node31</title>
<g id="a_node13"><a xlink:href="../../d0/dbd/MCLabelAccumulator_8cxx.html" target="_top" xlink:title="/home/travis/build\l/AliceO2Group/AliceO2\l/GPU/GPUTracking/TPCClusterFinder\l/MCLabelAccumulator.cxx">
<polygon fill="none" stroke="#000000" points="1307,-89.5 1307,-141.5 1498,-141.5 1498,-89.5 1307,-89.5"/>
<text text-anchor="start" x="1315" y="-129.5" font-family="Helvetica,sans-Serif" font-size="10.00" fill="#000000">/home/travis/build</text>
<text text-anchor="start" x="1315" y="-118.5" font-family="Helvetica,sans-Serif" font-size="10.00" fill="#000000">/AliceO2Group/AliceO2</text>
<text text-anchor="start" x="1315" y="-107.5" font-family="Helvetica,sans-Serif" font-size="10.00" fill="#000000">/GPU/GPUTracking/TPCClusterFinder</text>
<text text-anchor="middle" x="1402.5" y="-96.5" font-family="Helvetica,sans-Serif" font-size="10.00" fill="#000000">/MCLabelAccumulator.cxx</text>
</a>
</g>
</g>
<!-- Node19&#45;&gt;Node31 -->
<g id="edge14" class="edge">
<title>Node19&#45;&gt;Node31</title>
<path fill="none" stroke="#191970" d="M752.7716,-200.5141C870.5627,-193.5328 1103.5237,-176.4378 1298.5,-142 1301.2523,-141.5139 1304.0391,-140.9937 1306.8469,-140.4453"/>
<polygon fill="#191970" stroke="#191970" points="752.5482,-197.0211 742.7695,-201.099 752.9568,-204.0092 752.5482,-197.0211"/>
</g>
<!-- Node23&#45;&gt;Node20 -->
<g id="edge5" class="edge">
<title>Node23&#45;&gt;Node20</title>
<path fill="none" stroke="#191970" d="M293.2863,-88.2294C255.0481,-77.3423 210.6762,-64.6475 170.5,-53 167.5276,-52.1383 164.5007,-51.2585 161.4437,-50.3681"/>
<polygon fill="#191970" stroke="#191970" points="292.8069,-91.7319 303.3831,-91.1028 294.723,-84.9992 292.8069,-91.7319"/>
</g>
<!-- Node23&#45;&gt;Node22 -->
<g id="edge8" class="edge">
<title>Node23&#45;&gt;Node22</title>
<path fill="none" stroke="#191970" d="M338.7872,-83.7152C322.4774,-73.4929 304.6085,-62.2933 289.0376,-52.5341"/>
<polygon fill="#191970" stroke="#191970" points="337.3313,-86.9333 347.6633,-89.2784 341.0488,-81.002 337.3313,-86.9333"/>
</g>
<!-- Node24 -->
<g id="node6" class="node">
<title>Node24</title>
<g id="a_node6"><a xlink:href="../../d1/df6/testGPUCATracking_8cxx.html" target="_top" xlink:title="This task tests the TPC CA Tracking library. ">
<polygon fill="none" stroke="#000000" points="654,-.5 654,-52.5 815,-52.5 815,-.5 654,-.5"/>
<text text-anchor="start" x="662" y="-40.5" font-family="Helvetica,sans-Serif" font-size="10.00" fill="#000000">/home/travis/build</text>
<text text-anchor="start" x="662" y="-29.5" font-family="Helvetica,sans-Serif" font-size="10.00" fill="#000000">/AliceO2Group/AliceO2</text>
<text text-anchor="start" x="662" y="-18.5" font-family="Helvetica,sans-Serif" font-size="10.00" fill="#000000">/Detectors/TPC/reconstruction</text>
<text text-anchor="middle" x="734.5" y="-7.5" font-family="Helvetica,sans-Serif" font-size="10.00" fill="#000000">/test/testGPUCATracking.cxx</text>
</a>
</g>
</g>
<!-- Node23&#45;&gt;Node24 -->
<g id="edge6" class="edge">
<title>Node23&#45;&gt;Node24</title>
<path fill="none" stroke="#191970" d="M485.5857,-88.7828C556.8907,-71.1768 576.9783,-70.5171 644.5,-53 647.4956,-52.2229 650.5423,-51.4151 653.616,-50.5855"/>
<polygon fill="#191970" stroke="#191970" points="484.5173,-85.442 475.6627,-91.2598 486.2126,-92.2336 484.5173,-85.442"/>
</g>
<!-- Node25 -->
<g id="node7" class="node">
<title>Node25</title>
<g id="a_node7"><a xlink:href="../../da/d78/CATrackerSpec_8cxx.html" target="_top" xlink:title="Processor spec for running TPC CA tracking. ">
<polygon fill="none" stroke="#000000" points="833.5,-.5 833.5,-52.5 969.5,-52.5 969.5,-.5 833.5,-.5"/>
<text text-anchor="start" x="841.5" y="-40.5" font-family="Helvetica,sans-Serif" font-size="10.00" fill="#000000">/home/travis/build</text>
<text text-anchor="start" x="841.5" y="-29.5" font-family="Helvetica,sans-Serif" font-size="10.00" fill="#000000">/AliceO2Group/AliceO2</text>
<text text-anchor="start" x="841.5" y="-18.5" font-family="Helvetica,sans-Serif" font-size="10.00" fill="#000000">/Detectors/TPC/workflow</text>
<text text-anchor="middle" x="901.5" y="-7.5" font-family="Helvetica,sans-Serif" font-size="10.00" fill="#000000">/src/CATrackerSpec.cxx</text>
</a>
</g>
</g>
<!-- Node23&#45;&gt;Node25 -->
<g id="edge7" class="edge">
<title>Node23&#45;&gt;Node25</title>
<path fill="none" stroke="#191970" d="M485.6029,-88.9398C635.6275,-61.5533 679.3434,-85.2274 824.5,-53 827.3983,-52.3565 830.3393,-51.6403 833.2964,-50.8676"/>
<polygon fill="#191970" stroke="#191970" points="484.7504,-85.5385 475.5651,-90.8186 486.0383,-92.419 484.7504,-85.5385"/>
</g>
<!-- Node26 -->
<g id="node8" class="node">
<title>Node26</title>
<g id="a_node8"><a xlink:href="../../d8/db5/testGPUTracking_8cxx.html" target="_top" xlink:title="/home/travis/build\l/AliceO2Group/AliceO2\l/GPU/GPUTracking/ctest\l/testGPUTracking.cxx">
<polygon fill="none" stroke="#000000" points="333.5,-.5 333.5,-52.5 465.5,-52.5 465.5,-.5 333.5,-.5"/>
<text text-anchor="start" x="341.5" y="-40.5" font-family="Helvetica,sans-Serif" font-size="10.00" fill="#000000">/home/travis/build</text>
<text text-anchor="start" x="341.5" y="-29.5" font-family="Helvetica,sans-Serif" font-size="10.00" fill="#000000">/AliceO2Group/AliceO2</text>
<text text-anchor="start" x="341.5" y="-18.5" font-family="Helvetica,sans-Serif" font-size="10.00" fill="#000000">/GPU/GPUTracking/ctest</text>
<text text-anchor="middle" x="399.5" y="-7.5" font-family="Helvetica,sans-Serif" font-size="10.00" fill="#000000">/testGPUTracking.cxx</text>
</a>
</g>
</g>
<!-- Node23&#45;&gt;Node26 -->
<g id="edge9" class="edge">
<title>Node23&#45;&gt;Node26</title>
<path fill="none" stroke="#191970" d="M393.5881,-79.1155C394.5892,-70.2061 395.6407,-60.8475 396.5748,-52.5341"/>
<polygon fill="#191970" stroke="#191970" points="390.0848,-78.9501 392.4462,-89.2784 397.041,-79.7318 390.0848,-78.9501"/>
</g>
<!-- Node27 -->
<g id="node9" class="node">
<title>Node27</title>
<g id="a_node9"><a xlink:href="../../d0/d48/GPUO2Interface_8cxx.html" target="_top" xlink:title="/home/travis/build\l/AliceO2Group/AliceO2\l/GPU/GPUTracking/Interface\l/GPUO2Interface.cxx">
<polygon fill="none" stroke="#000000" points="483.5,-.5 483.5,-52.5 635.5,-52.5 635.5,-.5 483.5,-.5"/>
<text text-anchor="start" x="491.5" y="-40.5" font-family="Helvetica,sans-Serif" font-size="10.00" fill="#000000">/home/travis/build</text>
<text text-anchor="start" x="491.5" y="-29.5" font-family="Helvetica,sans-Serif" font-size="10.00" fill="#000000">/AliceO2Group/AliceO2</text>
<text text-anchor="start" x="491.5" y="-18.5" font-family="Helvetica,sans-Serif" font-size="10.00" fill="#000000">/GPU/GPUTracking/Interface</text>
<text text-anchor="middle" x="559.5" y="-7.5" font-family="Helvetica,sans-Serif" font-size="10.00" fill="#000000">/GPUO2Interface.cxx</text>
</a>
</g>
</g>
<!-- Node23&#45;&gt;Node27 -->
<g id="edge10" class="edge">
<title>Node23&#45;&gt;Node27</title>
<path fill="none" stroke="#191970" d="M448.5897,-84.5648C468.5477,-74.1162 490.6129,-62.5644 509.7718,-52.5341"/>
<polygon fill="#191970" stroke="#191970" points="446.8221,-81.5395 439.5861,-89.2784 450.0688,-87.741 446.8221,-81.5395"/>
</g>
</g>
</svg>
