<?xml version="1.0" encoding="UTF-8" standalone="no"?>
<!DOCTYPE svg PUBLIC "-//W3C//DTD SVG 1.1//EN"
 "http://www.w3.org/Graphics/SVG/1.1/DTD/svg11.dtd">
<!-- Generated by graphviz version 2.40.1 (20161225.0304)
 -->
<!-- Title: o2::tpc::Constants Pages: 1 -->
<svg width="173pt" height="193pt"
 viewBox="0.00 0.00 173.00 193.00" xmlns="http://www.w3.org/2000/svg" xmlns:xlink="http://www.w3.org/1999/xlink">
<g id="graph0" class="graph" transform="scale(1 1) rotate(0) translate(4 189)">
<title>o2::tpc::Constants</title>
<!-- Node1 -->
<g id="node1" class="node">
<title>Node1</title>
<polygon fill="#bfbfbf" stroke="#000000" points="0,-.5 0,-57.5 104,-57.5 104,-.5 0,-.5"/>
<text text-anchor="middle" x="52" y="-45.5" font-family="Helvetica,sans-Serif" font-size="10.00" fill="#000000">o2::tpc::Constants</text>
<polyline fill="none" stroke="#000000" points="0,-38.5 104,-38.5 "/>
<text text-anchor="middle" x="52" y="-26.5" font-family="Helvetica,sans-Serif" font-size="10.00" fill="#000000"> </text>
<polyline fill="none" stroke="#000000" points="0,-19.5 104,-19.5 "/>
<text text-anchor="middle" x="52" y="-7.5" font-family="Helvetica,sans-Serif" font-size="10.00" fill="#000000"> </text>
</g>
<!-- Node2 -->
<g id="node2" class="node">
<title>Node2</title>
<polygon fill="none" stroke="#bfbfbf" points="30,-127.5 30,-184.5 74,-184.5 74,-127.5 30,-127.5"/>
<text text-anchor="middle" x="52" y="-172.5" font-family="Helvetica,sans-Serif" font-size="10.00" fill="#000000">static</text>
<polyline fill="none" stroke="#bfbfbf" points="30,-165.5 74,-165.5 "/>
<text text-anchor="middle" x="52" y="-153.5" font-family="Helvetica,sans-Serif" font-size="10.00" fill="#000000"> </text>
<polyline fill="none" stroke="#bfbfbf" points="30,-146.5 74,-146.5 "/>
<text text-anchor="middle" x="52" y="-134.5" font-family="Helvetica,sans-Serif" font-size="10.00" fill="#000000"> </text>
</g>
<!-- Node2&#45;&gt;Node1 -->
<g id="edge1" class="edge">
<title>Node2&#45;&gt;Node1</title>
<path fill="none" stroke="#404040" d="M52,-127.4987C52,-110.5423 52,-88.7438 52,-69.9661"/>
<polygon fill="none" stroke="#404040" points="52.0001,-69.8456 48,-63.8456 52,-57.8456 56,-63.8455 52.0001,-69.8456"/>
<text text-anchor="middle" x="108.5" y="-101" font-family="Helvetica,sans-Serif" font-size="10.00" fill="#000000"> +MAXSECTOR</text>
<text text-anchor="middle" x="108.5" y="-90" font-family="Helvetica,sans-Serif" font-size="10.00" fill="#000000">+LHCBCPERTIMEBIN</text>
<text text-anchor="middle" x="108.5" y="-79" font-family="Helvetica,sans-Serif" font-size="10.00" fill="#000000">+MAXGLOBALPADROW</text>
</g>
</g>
</svg>
