<?xml version="1.0" encoding="UTF-8" standalone="no"?>
<!DOCTYPE svg PUBLIC "-//W3C//DTD SVG 1.1//EN"
 "http://www.w3.org/Graphics/SVG/1.1/DTD/svg11.dtd">
<!-- Generated by graphviz version 2.40.1 (20161225.0304)
 -->
<!-- Title: o2::its::CookedTracker::Layer Pages: 1 -->
<svg width="519pt" height="358pt"
 viewBox="0.00 0.00 519.00 358.00" xmlns="http://www.w3.org/2000/svg" xmlns:xlink="http://www.w3.org/1999/xlink">
<g id="graph0" class="graph" transform="scale(1 1) rotate(0) translate(4 354)">
<title>o2::its::CookedTracker::Layer</title>
<!-- Node1 -->
<g id="node1" class="node">
<title>Node1</title>
<polygon fill="#bfbfbf" stroke="#000000" points="175,-.5 175,-222.5 316,-222.5 316,-.5 175,-.5"/>
<text text-anchor="start" x="183" y="-210.5" font-family="Helvetica,sans-Serif" font-size="10.00" fill="#000000">o2::its::CookedTracker</text>
<text text-anchor="middle" x="245.5" y="-199.5" font-family="Helvetica,sans-Serif" font-size="10.00" fill="#000000">::Layer</text>
<polyline fill="none" stroke="#000000" points="175,-192.5 316,-192.5 "/>
<text text-anchor="middle" x="245.5" y="-180.5" font-family="Helvetica,sans-Serif" font-size="10.00" fill="#000000"> </text>
<polyline fill="none" stroke="#000000" points="175,-173.5 316,-173.5 "/>
<text text-anchor="start" x="183" y="-161.5" font-family="Helvetica,sans-Serif" font-size="10.00" fill="#000000">+ Layer()</text>
<text text-anchor="start" x="183" y="-150.5" font-family="Helvetica,sans-Serif" font-size="10.00" fill="#000000">+ Layer()</text>
<text text-anchor="start" x="183" y="-139.5" font-family="Helvetica,sans-Serif" font-size="10.00" fill="#000000">+ operator=()</text>
<text text-anchor="start" x="183" y="-128.5" font-family="Helvetica,sans-Serif" font-size="10.00" fill="#000000">+ init()</text>
<text text-anchor="start" x="183" y="-117.5" font-family="Helvetica,sans-Serif" font-size="10.00" fill="#000000">+ insertCluster()</text>
<text text-anchor="start" x="183" y="-106.5" font-family="Helvetica,sans-Serif" font-size="10.00" fill="#000000">+ setR()</text>
<text text-anchor="start" x="183" y="-95.5" font-family="Helvetica,sans-Serif" font-size="10.00" fill="#000000">+ unloadClusters()</text>
<text text-anchor="start" x="183" y="-84.5" font-family="Helvetica,sans-Serif" font-size="10.00" fill="#000000">+ selectClusters()</text>
<text text-anchor="start" x="183" y="-73.5" font-family="Helvetica,sans-Serif" font-size="10.00" fill="#000000">+ findClusterIndex()</text>
<text text-anchor="start" x="183" y="-62.5" font-family="Helvetica,sans-Serif" font-size="10.00" fill="#000000">+ getR()</text>
<text text-anchor="start" x="183" y="-51.5" font-family="Helvetica,sans-Serif" font-size="10.00" fill="#000000">+ getCluster()</text>
<text text-anchor="start" x="183" y="-40.5" font-family="Helvetica,sans-Serif" font-size="10.00" fill="#000000">+ getAlphaRef()</text>
<text text-anchor="start" x="183" y="-29.5" font-family="Helvetica,sans-Serif" font-size="10.00" fill="#000000">+ getClusterPhi()</text>
<text text-anchor="start" x="183" y="-18.5" font-family="Helvetica,sans-Serif" font-size="10.00" fill="#000000">+ getNumberOfClusters()</text>
<text text-anchor="start" x="183" y="-7.5" font-family="Helvetica,sans-Serif" font-size="10.00" fill="#000000">+ setGeometry()</text>
</g>
<!-- Node2 -->
<g id="node2" class="node">
<title>Node2</title>
<polygon fill="none" stroke="#bfbfbf" points="0,-281.5 0,-349.5 107,-349.5 107,-281.5 0,-281.5"/>
<text text-anchor="start" x="8" y="-337.5" font-family="Helvetica,sans-Serif" font-size="10.00" fill="#000000">vector&lt; std::pair&lt;</text>
<text text-anchor="middle" x="53.5" y="-326.5" font-family="Helvetica,sans-Serif" font-size="10.00" fill="#000000"> int, float &gt; &gt;</text>
<polyline fill="none" stroke="#bfbfbf" points="0,-319.5 107,-319.5 "/>
<text text-anchor="middle" x="53.5" y="-307.5" font-family="Helvetica,sans-Serif" font-size="10.00" fill="#000000"> </text>
<polyline fill="none" stroke="#bfbfbf" points="0,-300.5 107,-300.5 "/>
<text text-anchor="middle" x="53.5" y="-288.5" font-family="Helvetica,sans-Serif" font-size="10.00" fill="#000000"> </text>
</g>
<!-- Node2&#45;&gt;Node1 -->
<g id="edge1" class="edge">
<title>Node2&#45;&gt;Node1</title>
<path fill="none" stroke="#404040" d="M79.5693,-281.4287C89.8215,-268.4898 101.899,-253.7953 113.5,-241 129.9927,-222.8093 148.4131,-203.9288 166.137,-186.3944"/>
<polygon fill="none" stroke="#404040" points="166.2147,-186.3179 167.6878,-179.2589 174.7704,-177.9036 173.2973,-184.9627 166.2147,-186.3179"/>
<text text-anchor="middle" x="142.5" y="-249.5" font-family="Helvetica,sans-Serif" font-size="10.00" fill="#000000"> #mSectors</text>
</g>
<!-- Node3 -->
<g id="node3" class="node">
<title>Node3</title>
<g id="a_node3"><a xlink:href="../../d9/d7d/classFloat__t.html" target="_top" xlink:title="{Float_t\n||}">
<polygon fill="none" stroke="#000000" points="125.5,-287 125.5,-344 175.5,-344 175.5,-287 125.5,-287"/>
<text text-anchor="middle" x="150.5" y="-332" font-family="Helvetica,sans-Serif" font-size="10.00" fill="#000000">Float_t</text>
<polyline fill="none" stroke="#000000" points="125.5,-325 175.5,-325 "/>
<text text-anchor="middle" x="150.5" y="-313" font-family="Helvetica,sans-Serif" font-size="10.00" fill="#000000"> </text>
<polyline fill="none" stroke="#000000" points="125.5,-306 175.5,-306 "/>
<text text-anchor="middle" x="150.5" y="-294" font-family="Helvetica,sans-Serif" font-size="10.00" fill="#000000"> </text>
</a>
</g>
</g>
<!-- Node3&#45;&gt;Node1 -->
<g id="edge2" class="edge">
<title>Node3&#45;&gt;Node1</title>
<path fill="none" stroke="#404040" d="M163.9097,-286.7045C170.685,-272.1555 179.416,-253.4067 188.6372,-233.6053"/>
<polygon fill="none" stroke="#404040" points="188.7353,-233.3945 187.6422,-226.2667 193.8013,-222.5162 194.8944,-229.644 188.7353,-233.3945"/>
<text text-anchor="middle" x="197.5" y="-249.5" font-family="Helvetica,sans-Serif" font-size="10.00" fill="#000000"> #mR</text>
</g>
<!-- Node4 -->
<g id="node4" class="node">
<title>Node4</title>
<polygon fill="none" stroke="#bfbfbf" points="194,-287 194,-344 297,-344 297,-287 194,-287"/>
<text text-anchor="middle" x="245.5" y="-332" font-family="Helvetica,sans-Serif" font-size="10.00" fill="#000000">vector&lt; Float_t &gt;</text>
<polyline fill="none" stroke="#bfbfbf" points="194,-325 297,-325 "/>
<text text-anchor="middle" x="245.5" y="-313" font-family="Helvetica,sans-Serif" font-size="10.00" fill="#000000"> </text>
<polyline fill="none" stroke="#bfbfbf" points="194,-306 297,-306 "/>
<text text-anchor="middle" x="245.5" y="-294" font-family="Helvetica,sans-Serif" font-size="10.00" fill="#000000"> </text>
</g>
<!-- Node4&#45;&gt;Node1 -->
<g id="edge3" class="edge">
<title>Node4&#45;&gt;Node1</title>
<path fill="none" stroke="#404040" d="M245.5,-286.7045C245.5,-272.4249 245.5,-254.0997 245.5,-234.7043"/>
<polygon fill="none" stroke="#404040" points="245.5001,-234.5162 241.5,-228.5163 245.5,-222.5162 249.5,-228.5162 245.5001,-234.5162"/>
<text text-anchor="middle" x="276.5" y="-255" font-family="Helvetica,sans-Serif" font-size="10.00" fill="#000000"> #mPhi</text>
<text text-anchor="middle" x="276.5" y="-244" font-family="Helvetica,sans-Serif" font-size="10.00" fill="#000000">#mAlphaRef</text>
</g>
<!-- Node5 -->
<g id="node5" class="node">
<title>Node5</title>
<polygon fill="none" stroke="#bfbfbf" points="315,-287 315,-344 358,-344 358,-287 315,-287"/>
<text text-anchor="middle" x="336.5" y="-332" font-family="Helvetica,sans-Serif" font-size="10.00" fill="#000000">const</text>
<polyline fill="none" stroke="#bfbfbf" points="315,-325 358,-325 "/>
<text text-anchor="middle" x="336.5" y="-313" font-family="Helvetica,sans-Serif" font-size="10.00" fill="#000000"> </text>
<polyline fill="none" stroke="#bfbfbf" points="315,-306 358,-306 "/>
<text text-anchor="middle" x="336.5" y="-294" font-family="Helvetica,sans-Serif" font-size="10.00" fill="#000000"> </text>
</g>
<!-- Node5&#45;&gt;Node1 -->
<g id="edge4" class="edge">
<title>Node5&#45;&gt;Node1</title>
<path fill="none" stroke="#404040" d="M327.9716,-286.8333C323.5313,-272.8312 317.7327,-255.8431 311.5,-241 310.4681,-238.5425 309.4089,-236.0674 308.3266,-233.5802"/>
<polygon fill="none" stroke="#404040" points="308.3257,-233.578 302.2311,-229.7236 303.4448,-222.6154 309.5395,-226.4697 308.3257,-233.578"/>
<text text-anchor="middle" x="344" y="-249.5" font-family="Helvetica,sans-Serif" font-size="10.00" fill="#000000"> #mGeom</text>
</g>
<!-- Node6 -->
<g id="node6" class="node">
<title>Node6</title>
<polygon fill="none" stroke="#bfbfbf" points="376,-281.5 376,-349.5 511,-349.5 511,-281.5 376,-281.5"/>
<text text-anchor="start" x="384" y="-337.5" font-family="Helvetica,sans-Serif" font-size="10.00" fill="#000000">vector&lt; const o2::itsmft</text>
<text text-anchor="middle" x="443.5" y="-326.5" font-family="Helvetica,sans-Serif" font-size="10.00" fill="#000000">::Cluster * &gt;</text>
<polyline fill="none" stroke="#bfbfbf" points="376,-319.5 511,-319.5 "/>
<text text-anchor="middle" x="443.5" y="-307.5" font-family="Helvetica,sans-Serif" font-size="10.00" fill="#000000"> </text>
<polyline fill="none" stroke="#bfbfbf" points="376,-300.5 511,-300.5 "/>
<text text-anchor="middle" x="443.5" y="-288.5" font-family="Helvetica,sans-Serif" font-size="10.00" fill="#000000"> </text>
</g>
<!-- Node6&#45;&gt;Node1 -->
<g id="edge5" class="edge">
<title>Node6&#45;&gt;Node1</title>
<path fill="none" stroke="#404040" d="M411.6201,-281.2075C399.726,-268.5096 386.0618,-254.0348 373.5,-241 357.9529,-224.8674 341.2033,-207.7416 325.1088,-191.409"/>
<polygon fill="none" stroke="#404040" points="324.6753,-190.9698 317.6138,-189.5087 316.2465,-182.4283 323.3081,-183.8895 324.6753,-190.9698"/>
<text text-anchor="middle" x="423" y="-249.5" font-family="Helvetica,sans-Serif" font-size="10.00" fill="#000000"> #mClusters</text>
</g>
</g>
</svg>
