<?xml version="1.0" encoding="UTF-8" standalone="no"?>
<!DOCTYPE svg PUBLIC "-//W3C//DTD SVG 1.1//EN"
 "http://www.w3.org/Graphics/SVG/1.1/DTD/svg11.dtd">
<!-- Generated by graphviz version 2.40.1 (20161225.0304)
 -->
<!-- Title: /home/travis/build/AliceO2Group/AliceO2/Detectors/PHOS/simulation/include/PHOSSimulation/Digitizer.h Pages: 1 -->
<svg width="456pt" height="239pt"
 viewBox="0.00 0.00 456.00 239.00" xmlns="http://www.w3.org/2000/svg" xmlns:xlink="http://www.w3.org/1999/xlink">
<g id="graph0" class="graph" transform="scale(1 1) rotate(0) translate(4 235)">
<title>/home/travis/build/AliceO2Group/AliceO2/Detectors/PHOS/simulation/include/PHOSSimulation/Digitizer.h</title>
<!-- Node46 -->
<g id="node1" class="node">
<title>Node46</title>
<polygon fill="#bfbfbf" stroke="#000000" points="85,-178.5 85,-230.5 275,-230.5 275,-178.5 85,-178.5"/>
<text text-anchor="start" x="93" y="-218.5" font-family="Helvetica,sans-Serif" font-size="10.00" fill="#000000">/home/travis/build</text>
<text text-anchor="start" x="93" y="-207.5" font-family="Helvetica,sans-Serif" font-size="10.00" fill="#000000">/AliceO2Group/AliceO2</text>
<text text-anchor="start" x="93" y="-196.5" font-family="Helvetica,sans-Serif" font-size="10.00" fill="#000000">/Detectors/PHOS/simulation</text>
<text text-anchor="middle" x="180" y="-185.5" font-family="Helvetica,sans-Serif" font-size="10.00" fill="#000000">/include/PHOSSimulation/Digitizer.h</text>
</g>
<!-- Node47 -->
<g id="node2" class="node">
<title>Node47</title>
<g id="a_node2"><a xlink:href="../../d0/d6d/PHOS_2simulation_2src_2Digitizer_8cxx.html" target="_top" xlink:title="/home/travis/build\l/AliceO2Group/AliceO2\l/Detectors/PHOS/simulation\l/src/Digitizer.cxx">
<polygon fill="none" stroke="#000000" points="0,-89.5 0,-141.5 152,-141.5 152,-89.5 0,-89.5"/>
<text text-anchor="start" x="8" y="-129.5" font-family="Helvetica,sans-Serif" font-size="10.00" fill="#000000">/home/travis/build</text>
<text text-anchor="start" x="8" y="-118.5" font-family="Helvetica,sans-Serif" font-size="10.00" fill="#000000">/AliceO2Group/AliceO2</text>
<text text-anchor="start" x="8" y="-107.5" font-family="Helvetica,sans-Serif" font-size="10.00" fill="#000000">/Detectors/PHOS/simulation</text>
<text text-anchor="middle" x="76" y="-96.5" font-family="Helvetica,sans-Serif" font-size="10.00" fill="#000000">/src/Digitizer.cxx</text>
</a>
</g>
</g>
<!-- Node46&#45;&gt;Node47 -->
<g id="edge1" class="edge">
<title>Node46&#45;&gt;Node47</title>
<path fill="none" stroke="#191970" d="M141.5265,-171.5755C129.9459,-161.6653 117.4035,-150.9319 106.4219,-141.5341"/>
<polygon fill="#191970" stroke="#191970" points="139.4857,-174.4357 149.3591,-178.2784 144.037,-169.1173 139.4857,-174.4357"/>
</g>
<!-- Node48 -->
<g id="node3" class="node">
<title>Node48</title>
<g id="a_node3"><a xlink:href="../../dd/d48/PHOSDigitizerSpec_8h.html" target="_top" xlink:title="/home/travis/build\l/AliceO2Group/AliceO2\l/Steer/DigitizerWorkflow\l/src/PHOSDigitizerSpec.h">
<polygon fill="none" stroke="#000000" points="208.5,-89.5 208.5,-141.5 345.5,-141.5 345.5,-89.5 208.5,-89.5"/>
<text text-anchor="start" x="216.5" y="-129.5" font-family="Helvetica,sans-Serif" font-size="10.00" fill="#000000">/home/travis/build</text>
<text text-anchor="start" x="216.5" y="-118.5" font-family="Helvetica,sans-Serif" font-size="10.00" fill="#000000">/AliceO2Group/AliceO2</text>
<text text-anchor="start" x="216.5" y="-107.5" font-family="Helvetica,sans-Serif" font-size="10.00" fill="#000000">/Steer/DigitizerWorkflow</text>
<text text-anchor="middle" x="277" y="-96.5" font-family="Helvetica,sans-Serif" font-size="10.00" fill="#000000">/src/PHOSDigitizerSpec.h</text>
</a>
</g>
</g>
<!-- Node46&#45;&gt;Node48 -->
<g id="edge2" class="edge">
<title>Node46&#45;&gt;Node48</title>
<path fill="none" stroke="#191970" d="M216.1958,-171.2894C226.9099,-161.459 238.4817,-150.8415 248.6257,-141.5341"/>
<polygon fill="#191970" stroke="#191970" points="213.5807,-168.9388 208.5786,-178.2784 218.3132,-174.0967 213.5807,-168.9388"/>
</g>
<!-- Node49 -->
<g id="node4" class="node">
<title>Node49</title>
<g id="a_node4"><a xlink:href="../../db/d77/PHOSDigitizerSpec_8cxx.html" target="_top" xlink:title="/home/travis/build\l/AliceO2Group/AliceO2\l/Steer/DigitizerWorkflow\l/src/PHOSDigitizerSpec.cxx">
<polygon fill="none" stroke="#000000" points="105.5,-.5 105.5,-52.5 254.5,-52.5 254.5,-.5 105.5,-.5"/>
<text text-anchor="start" x="113.5" y="-40.5" font-family="Helvetica,sans-Serif" font-size="10.00" fill="#000000">/home/travis/build</text>
<text text-anchor="start" x="113.5" y="-29.5" font-family="Helvetica,sans-Serif" font-size="10.00" fill="#000000">/AliceO2Group/AliceO2</text>
<text text-anchor="start" x="113.5" y="-18.5" font-family="Helvetica,sans-Serif" font-size="10.00" fill="#000000">/Steer/DigitizerWorkflow</text>
<text text-anchor="middle" x="180" y="-7.5" font-family="Helvetica,sans-Serif" font-size="10.00" fill="#000000">/src/PHOSDigitizerSpec.cxx</text>
</a>
</g>
</g>
<!-- Node46&#45;&gt;Node49 -->
<g id="edge5" class="edge">
<title>Node46&#45;&gt;Node49</title>
<path fill="none" stroke="#191970" d="M180,-168.1378C180,-133.7809 180,-83.0886 180,-52.5823"/>
<polygon fill="#191970" stroke="#191970" points="176.5001,-168.2355 180,-178.2355 183.5001,-168.2355 176.5001,-168.2355"/>
</g>
<!-- Node48&#45;&gt;Node49 -->
<g id="edge3" class="edge">
<title>Node48&#45;&gt;Node49</title>
<path fill="none" stroke="#191970" d="M240.8042,-82.2894C230.0901,-72.459 218.5183,-61.8415 208.3743,-52.5341"/>
<polygon fill="#191970" stroke="#191970" points="238.6868,-85.0967 248.4214,-89.2784 243.4193,-79.9388 238.6868,-85.0967"/>
</g>
<!-- Node50 -->
<g id="node5" class="node">
<title>Node50</title>
<g id="a_node5"><a xlink:href="../../d2/dd7/SimpleDigitizerWorkflow_8cxx.html" target="_top" xlink:title="/home/travis/build\l/AliceO2Group/AliceO2\l/Steer/DigitizerWorkflow\l/src/SimpleDigitizerWorkflow.cxx">
<polygon fill="none" stroke="#000000" points="272,-.5 272,-52.5 448,-52.5 448,-.5 272,-.5"/>
<text text-anchor="start" x="280" y="-40.5" font-family="Helvetica,sans-Serif" font-size="10.00" fill="#000000">/home/travis/build</text>
<text text-anchor="start" x="280" y="-29.5" font-family="Helvetica,sans-Serif" font-size="10.00" fill="#000000">/AliceO2Group/AliceO2</text>
<text text-anchor="start" x="280" y="-18.5" font-family="Helvetica,sans-Serif" font-size="10.00" fill="#000000">/Steer/DigitizerWorkflow</text>
<text text-anchor="middle" x="360" y="-7.5" font-family="Helvetica,sans-Serif" font-size="10.00" fill="#000000">/src/SimpleDigitizerWorkflow.cxx</text>
</a>
</g>
</g>
<!-- Node48&#45;&gt;Node50 -->
<g id="edge4" class="edge">
<title>Node48&#45;&gt;Node50</title>
<path fill="none" stroke="#191970" d="M308.5065,-81.7159C317.5234,-72.0472 327.2096,-61.6608 335.721,-52.5341"/>
<polygon fill="#191970" stroke="#191970" points="305.7144,-79.578 301.4538,-89.2784 310.8338,-84.3522 305.7144,-79.578"/>
</g>
</g>
</svg>
