<?xml version="1.0" encoding="UTF-8" standalone="no"?>
<!DOCTYPE svg PUBLIC "-//W3C//DTD SVG 1.1//EN"
 "http://www.w3.org/Graphics/SVG/1.1/DTD/svg11.dtd">
<!-- Generated by graphviz version 2.40.1 (20161225.0304)
 -->
<!-- Title: o2::framework::DataProcessingStats::InputLatency Pages: 1 -->
<svg width="178pt" height="193pt"
 viewBox="0.00 0.00 178.00 193.00" xmlns="http://www.w3.org/2000/svg" xmlns:xlink="http://www.w3.org/1999/xlink">
<g id="graph0" class="graph" transform="scale(1 1) rotate(0) translate(4 189)">
<title>o2::framework::DataProcessingStats::InputLatency</title>
<!-- Node1 -->
<g id="node1" class="node">
<title>Node1</title>
<polygon fill="#bfbfbf" stroke="#000000" points="0,-.5 0,-68.5 170,-68.5 170,-.5 0,-.5"/>
<text text-anchor="start" x="8" y="-56.5" font-family="Helvetica,sans-Serif" font-size="10.00" fill="#000000">o2::framework::DataProcessing</text>
<text text-anchor="middle" x="85" y="-45.5" font-family="Helvetica,sans-Serif" font-size="10.00" fill="#000000">Stats::InputLatency</text>
<polyline fill="none" stroke="#000000" points="0,-38.5 170,-38.5 "/>
<text text-anchor="middle" x="85" y="-26.5" font-family="Helvetica,sans-Serif" font-size="10.00" fill="#000000"> </text>
<polyline fill="none" stroke="#000000" points="0,-19.5 170,-19.5 "/>
<text text-anchor="middle" x="85" y="-7.5" font-family="Helvetica,sans-Serif" font-size="10.00" fill="#000000"> </text>
</g>
<!-- Node2 -->
<g id="node2" class="node">
<title>Node2</title>
<polygon fill="none" stroke="#bfbfbf" points="70.5,-127.5 70.5,-184.5 99.5,-184.5 99.5,-127.5 70.5,-127.5"/>
<text text-anchor="middle" x="85" y="-172.5" font-family="Helvetica,sans-Serif" font-size="10.00" fill="#000000">int</text>
<polyline fill="none" stroke="#bfbfbf" points="70.5,-165.5 99.5,-165.5 "/>
<text text-anchor="middle" x="85" y="-153.5" font-family="Helvetica,sans-Serif" font-size="10.00" fill="#000000"> </text>
<polyline fill="none" stroke="#bfbfbf" points="70.5,-146.5 99.5,-146.5 "/>
<text text-anchor="middle" x="85" y="-134.5" font-family="Helvetica,sans-Serif" font-size="10.00" fill="#000000"> </text>
</g>
<!-- Node2&#45;&gt;Node1 -->
<g id="edge1" class="edge">
<title>Node2&#45;&gt;Node1</title>
<path fill="none" stroke="#404040" d="M85,-127.2062C85,-113.3632 85,-96.4255 85,-80.8327"/>
<polygon fill="none" stroke="#404040" points="85.0001,-80.7007 81,-74.7008 85,-68.7007 89,-74.7007 85.0001,-80.7007"/>
<text text-anchor="middle" x="121" y="-101" font-family="Helvetica,sans-Serif" font-size="10.00" fill="#000000"> +maxLatency</text>
<text text-anchor="middle" x="121" y="-90" font-family="Helvetica,sans-Serif" font-size="10.00" fill="#000000">+minLatency</text>
</g>
</g>
</svg>
