<?xml version="1.0" encoding="UTF-8" standalone="no"?>
<!DOCTYPE svg PUBLIC "-//W3C//DTD SVG 1.1//EN"
 "http://www.w3.org/Graphics/SVG/1.1/DTD/svg11.dtd">
<!-- Generated by graphviz version 2.40.1 (20161225.0304)
 -->
<!-- Title: /home/travis/build/AliceO2Group/AliceO2/Utilities/Mergers/include/Mergers/MergerAlgorithm.h Pages: 1 -->
<svg width="906pt" height="150pt"
 viewBox="0.00 0.00 906.00 150.00" xmlns="http://www.w3.org/2000/svg" xmlns:xlink="http://www.w3.org/1999/xlink">
<g id="graph0" class="graph" transform="scale(1 1) rotate(0) translate(4 146)">
<title>/home/travis/build/AliceO2Group/AliceO2/Utilities/Mergers/include/Mergers/MergerAlgorithm.h</title>
<!-- Node3 -->
<g id="node1" class="node">
<title>Node3</title>
<polygon fill="#bfbfbf" stroke="#000000" points="361.5,-89.5 361.5,-141.5 513.5,-141.5 513.5,-89.5 361.5,-89.5"/>
<text text-anchor="start" x="369.5" y="-129.5" font-family="Helvetica,sans-Serif" font-size="10.00" fill="#000000">/home/travis/build</text>
<text text-anchor="start" x="369.5" y="-118.5" font-family="Helvetica,sans-Serif" font-size="10.00" fill="#000000">/AliceO2Group/AliceO2</text>
<text text-anchor="start" x="369.5" y="-107.5" font-family="Helvetica,sans-Serif" font-size="10.00" fill="#000000">/Utilities/Mergers/include</text>
<text text-anchor="middle" x="437.5" y="-96.5" font-family="Helvetica,sans-Serif" font-size="10.00" fill="#000000">/Mergers/MergerAlgorithm.h</text>
</g>
<!-- Node4 -->
<g id="node2" class="node">
<title>Node4</title>
<g id="a_node2"><a xlink:href="../../db/d51/FullHistoryMerger_8cxx.html" target="_top" xlink:title="Implementation of O2 Mergers, v0.1. ">
<polygon fill="none" stroke="#000000" points="0,-.5 0,-52.5 127,-52.5 127,-.5 0,-.5"/>
<text text-anchor="start" x="8" y="-40.5" font-family="Helvetica,sans-Serif" font-size="10.00" fill="#000000">/home/travis/build</text>
<text text-anchor="start" x="8" y="-29.5" font-family="Helvetica,sans-Serif" font-size="10.00" fill="#000000">/AliceO2Group/AliceO2</text>
<text text-anchor="start" x="8" y="-18.5" font-family="Helvetica,sans-Serif" font-size="10.00" fill="#000000">/Utilities/Mergers/src</text>
<text text-anchor="middle" x="63.5" y="-7.5" font-family="Helvetica,sans-Serif" font-size="10.00" fill="#000000">/FullHistoryMerger.cxx</text>
</a>
</g>
</g>
<!-- Node3&#45;&gt;Node4 -->
<g id="edge1" class="edge">
<title>Node3&#45;&gt;Node4</title>
<path fill="none" stroke="#191970" d="M351.393,-101.1979C290.5209,-90.2353 207.3075,-73.5219 135.5,-53 132.8105,-52.2314 130.0778,-51.4105 127.327,-50.5512"/>
<polygon fill="#191970" stroke="#191970" points="350.8862,-104.6627 361.3457,-102.975 352.1167,-97.7717 350.8862,-104.6627"/>
</g>
<!-- Node5 -->
<g id="node3" class="node">
<title>Node5</title>
<g id="a_node3"><a xlink:href="../../d0/d24/IntegratingMerger_8cxx.html" target="_top" xlink:title="Implementation of O2 Mergers, v0.1. ">
<polygon fill="none" stroke="#000000" points="145,-.5 145,-52.5 272,-52.5 272,-.5 145,-.5"/>
<text text-anchor="start" x="153" y="-40.5" font-family="Helvetica,sans-Serif" font-size="10.00" fill="#000000">/home/travis/build</text>
<text text-anchor="start" x="153" y="-29.5" font-family="Helvetica,sans-Serif" font-size="10.00" fill="#000000">/AliceO2Group/AliceO2</text>
<text text-anchor="start" x="153" y="-18.5" font-family="Helvetica,sans-Serif" font-size="10.00" fill="#000000">/Utilities/Mergers/src</text>
<text text-anchor="middle" x="208.5" y="-7.5" font-family="Helvetica,sans-Serif" font-size="10.00" fill="#000000">/IntegratingMerger.cxx</text>
</a>
</g>
</g>
<!-- Node3&#45;&gt;Node5 -->
<g id="edge2" class="edge">
<title>Node3&#45;&gt;Node5</title>
<path fill="none" stroke="#191970" d="M360.7283,-85.663C331.946,-74.4768 299.5828,-61.899 272.1211,-51.2261"/>
<polygon fill="#191970" stroke="#191970" points="359.751,-89.0381 370.3398,-89.3984 362.2868,-82.5136 359.751,-89.0381"/>
</g>
<!-- Node6 -->
<g id="node4" class="node">
<title>Node6</title>
<g id="a_node4"><a xlink:href="../../d3/d65/MergerAlgorithm_8cxx.html" target="_top" xlink:title="/home/travis/build\l/AliceO2Group/AliceO2\l/Utilities/Mergers/src\l/MergerAlgorithm.cxx">
<polygon fill="none" stroke="#000000" points="290,-.5 290,-52.5 417,-52.5 417,-.5 290,-.5"/>
<text text-anchor="start" x="298" y="-40.5" font-family="Helvetica,sans-Serif" font-size="10.00" fill="#000000">/home/travis/build</text>
<text text-anchor="start" x="298" y="-29.5" font-family="Helvetica,sans-Serif" font-size="10.00" fill="#000000">/AliceO2Group/AliceO2</text>
<text text-anchor="start" x="298" y="-18.5" font-family="Helvetica,sans-Serif" font-size="10.00" fill="#000000">/Utilities/Mergers/src</text>
<text text-anchor="middle" x="353.5" y="-7.5" font-family="Helvetica,sans-Serif" font-size="10.00" fill="#000000">/MergerAlgorithm.cxx</text>
</a>
</g>
</g>
<!-- Node3&#45;&gt;Node6 -->
<g id="edge3" class="edge">
<title>Node3&#45;&gt;Node6</title>
<path fill="none" stroke="#191970" d="M405.8847,-82.0029C396.6826,-72.2529 386.7707,-61.7511 378.0716,-52.5341"/>
<polygon fill="#191970" stroke="#191970" points="403.3423,-84.4084 412.7516,-89.2784 408.433,-79.6037 403.3423,-84.4084"/>
</g>
<!-- Node7 -->
<g id="node5" class="node">
<title>Node7</title>
<g id="a_node5"><a xlink:href="../../d4/dda/MergerInfrastructureBuilder_8cxx.html" target="_top" xlink:title="Definition of Mergers&#39; Infrastructure Builder. ">
<polygon fill="none" stroke="#000000" points="435,-.5 435,-52.5 608,-52.5 608,-.5 435,-.5"/>
<text text-anchor="start" x="443" y="-40.5" font-family="Helvetica,sans-Serif" font-size="10.00" fill="#000000">/home/travis/build</text>
<text text-anchor="start" x="443" y="-29.5" font-family="Helvetica,sans-Serif" font-size="10.00" fill="#000000">/AliceO2Group/AliceO2</text>
<text text-anchor="start" x="443" y="-18.5" font-family="Helvetica,sans-Serif" font-size="10.00" fill="#000000">/Utilities/Mergers/src</text>
<text text-anchor="middle" x="521.5" y="-7.5" font-family="Helvetica,sans-Serif" font-size="10.00" fill="#000000">/MergerInfrastructureBuilder.cxx</text>
</a>
</g>
</g>
<!-- Node3&#45;&gt;Node7 -->
<g id="edge4" class="edge">
<title>Node3&#45;&gt;Node7</title>
<path fill="none" stroke="#191970" d="M469.1153,-82.0029C478.3174,-72.2529 488.2293,-61.7511 496.9284,-52.5341"/>
<polygon fill="#191970" stroke="#191970" points="466.567,-79.6037 462.2484,-89.2784 471.6577,-84.4084 466.567,-79.6037"/>
</g>
<!-- Node8 -->
<g id="node6" class="node">
<title>Node8</title>
<g id="a_node6"><a xlink:href="../../db/d8c/ObjectStore_8cxx.html" target="_top" xlink:title="Implementation of ObjectStore for Mergers, v0.1. ">
<polygon fill="none" stroke="#000000" points="626,-.5 626,-52.5 753,-52.5 753,-.5 626,-.5"/>
<text text-anchor="start" x="634" y="-40.5" font-family="Helvetica,sans-Serif" font-size="10.00" fill="#000000">/home/travis/build</text>
<text text-anchor="start" x="634" y="-29.5" font-family="Helvetica,sans-Serif" font-size="10.00" fill="#000000">/AliceO2Group/AliceO2</text>
<text text-anchor="start" x="634" y="-18.5" font-family="Helvetica,sans-Serif" font-size="10.00" fill="#000000">/Utilities/Mergers/src</text>
<text text-anchor="middle" x="689.5" y="-7.5" font-family="Helvetica,sans-Serif" font-size="10.00" fill="#000000">/ObjectStore.cxx</text>
</a>
</g>
</g>
<!-- Node3&#45;&gt;Node8 -->
<g id="edge5" class="edge">
<title>Node3&#45;&gt;Node8</title>
<path fill="none" stroke="#191970" d="M523.3542,-86.0514C553.1986,-75.7186 586.8638,-63.9556 617.5,-53 620.2592,-52.0133 623.076,-51.0005 625.9199,-49.9733"/>
<polygon fill="#191970" stroke="#191970" points="522.1142,-82.7767 513.8074,-89.3531 524.4021,-89.3923 522.1142,-82.7767"/>
</g>
<!-- Node9 -->
<g id="node7" class="node">
<title>Node9</title>
<g id="a_node7"><a xlink:href="../../d2/d0e/test__Algorithm_8cxx.html" target="_top" xlink:title="A unit test of mergers. ">
<polygon fill="none" stroke="#000000" points="771,-.5 771,-52.5 898,-52.5 898,-.5 771,-.5"/>
<text text-anchor="start" x="779" y="-40.5" font-family="Helvetica,sans-Serif" font-size="10.00" fill="#000000">/home/travis/build</text>
<text text-anchor="start" x="779" y="-29.5" font-family="Helvetica,sans-Serif" font-size="10.00" fill="#000000">/AliceO2Group/AliceO2</text>
<text text-anchor="start" x="779" y="-18.5" font-family="Helvetica,sans-Serif" font-size="10.00" fill="#000000">/Utilities/Mergers/test</text>
<text text-anchor="middle" x="834.5" y="-7.5" font-family="Helvetica,sans-Serif" font-size="10.00" fill="#000000">/test_Algorithm.cxx</text>
</a>
</g>
</g>
<!-- Node3&#45;&gt;Node9 -->
<g id="edge6" class="edge">
<title>Node3&#45;&gt;Node9</title>
<path fill="none" stroke="#191970" d="M523.4504,-102.8874C589.4811,-92.2588 682.5998,-75.2273 762.5,-53 765.1948,-52.2503 767.932,-51.4453 770.6865,-50.5991"/>
<polygon fill="#191970" stroke="#191970" points="522.8253,-99.4428 513.501,-104.4735 523.9273,-106.3555 522.8253,-99.4428"/>
</g>
</g>
</svg>
