<?xml version="1.0" encoding="UTF-8" standalone="no"?>
<!DOCTYPE svg PUBLIC "-//W3C//DTD SVG 1.1//EN"
 "http://www.w3.org/Graphics/SVG/1.1/DTD/svg11.dtd">
<!-- Generated by graphviz version 2.40.1 (20161225.0304)
 -->
<!-- Title: /home/travis/build/AliceO2Group/AliceO2/Framework/Core/src/LocalRootFileService.cxx Pages: 1 -->
<svg width="1094pt" height="285pt"
 viewBox="0.00 0.00 1094.00 285.00" xmlns="http://www.w3.org/2000/svg" xmlns:xlink="http://www.w3.org/1999/xlink">
<g id="graph0" class="graph" transform="scale(1 1) rotate(0) translate(4 281)">
<title>/home/travis/build/AliceO2Group/AliceO2/Framework/Core/src/LocalRootFileService.cxx</title>
<!-- Node0 -->
<g id="node1" class="node">
<title>Node0</title>
<polygon fill="#bfbfbf" stroke="#000000" points="769.5,-224.5 769.5,-276.5 936.5,-276.5 936.5,-224.5 769.5,-224.5"/>
<text text-anchor="start" x="777.5" y="-264.5" font-family="Helvetica,sans-Serif" font-size="10.00" fill="#000000">/home/travis/build</text>
<text text-anchor="start" x="777.5" y="-253.5" font-family="Helvetica,sans-Serif" font-size="10.00" fill="#000000">/AliceO2Group/AliceO2</text>
<text text-anchor="start" x="777.5" y="-242.5" font-family="Helvetica,sans-Serif" font-size="10.00" fill="#000000">/Framework/Core/src/LocalRoot</text>
<text text-anchor="middle" x="853" y="-231.5" font-family="Helvetica,sans-Serif" font-size="10.00" fill="#000000">FileService.cxx</text>
</g>
<!-- Node1 -->
<g id="node2" class="node">
<title>Node1</title>
<g id="a_node2"><a xlink:href="../../d2/d18/LocalRootFileService_8h.html" target="_top" xlink:title="Framework/LocalRootFileService.h">
<polygon fill="none" stroke="#000000" points="434,-168.5 434,-187.5 616,-187.5 616,-168.5 434,-168.5"/>
<text text-anchor="middle" x="525" y="-175.5" font-family="Helvetica,sans-Serif" font-size="10.00" fill="#000000">Framework/LocalRootFileService.h</text>
</a>
</g>
</g>
<!-- Node0&#45;&gt;Node1 -->
<g id="edge1" class="edge">
<title>Node0&#45;&gt;Node1</title>
<path fill="none" stroke="#191970" d="M769.3831,-232.0176C709.2398,-218.7237 629.9347,-201.1944 578.223,-189.7642"/>
<polygon fill="#191970" stroke="#191970" points="578.7822,-186.3034 568.2624,-187.5626 577.2713,-193.1384 578.7822,-186.3034"/>
</g>
<!-- Node12 -->
<g id="node13" class="node">
<title>Node12</title>
<polygon fill="none" stroke="#bfbfbf" points="633,-.5 633,-19.5 677,-19.5 677,-.5 633,-.5"/>
<text text-anchor="middle" x="655" y="-7.5" font-family="Helvetica,sans-Serif" font-size="10.00" fill="#000000">string</text>
</g>
<!-- Node0&#45;&gt;Node12 -->
<g id="edge26" class="edge">
<title>Node0&#45;&gt;Node12</title>
<path fill="none" stroke="#191970" d="M769.1713,-236.42C739.4869,-227.3463 708.4257,-212.4475 688,-188 649.633,-142.0786 650.0819,-66.0058 652.8318,-30.0311"/>
<polygon fill="#191970" stroke="#191970" points="656.3376,-30.1253 653.7591,-19.849 649.3664,-29.4903 656.3376,-30.1253"/>
</g>
<!-- Node17 -->
<g id="node18" class="node">
<title>Node17</title>
<g id="a_node18"><a xlink:href="../../dd/da4/Logger_8h.html" target="_top" xlink:title="Framework/Logger.h">
<polygon fill="none" stroke="#000000" points="696.5,-168.5 696.5,-187.5 811.5,-187.5 811.5,-168.5 696.5,-168.5"/>
<text text-anchor="middle" x="754" y="-175.5" font-family="Helvetica,sans-Serif" font-size="10.00" fill="#000000">Framework/Logger.h</text>
</a>
</g>
</g>
<!-- Node0&#45;&gt;Node17 -->
<g id="edge23" class="edge">
<title>Node0&#45;&gt;Node17</title>
<path fill="none" stroke="#191970" d="M817.2587,-224.3258C803.1752,-214.0122 787.4776,-202.5165 775.243,-193.5567"/>
<polygon fill="#191970" stroke="#191970" points="777.1547,-190.6186 767.0188,-187.534 773.0189,-196.2662 777.1547,-190.6186"/>
</g>
<!-- Node18 -->
<g id="node19" class="node">
<title>Node18</title>
<polygon fill="none" stroke="#bfbfbf" points="830,-168.5 830,-187.5 876,-187.5 876,-168.5 830,-168.5"/>
<text text-anchor="middle" x="853" y="-175.5" font-family="Helvetica,sans-Serif" font-size="10.00" fill="#000000">cstdio</text>
</g>
<!-- Node0&#45;&gt;Node18 -->
<g id="edge24" class="edge">
<title>Node0&#45;&gt;Node18</title>
<path fill="none" stroke="#191970" d="M853,-224.3258C853,-215.5142 853,-205.8397 853,-197.621"/>
<polygon fill="#191970" stroke="#191970" points="856.5001,-197.534 853,-187.534 849.5001,-197.534 856.5001,-197.534"/>
</g>
<!-- Node19 -->
<g id="node20" class="node">
<title>Node19</title>
<polygon fill="none" stroke="#bfbfbf" points="894.5,-168.5 894.5,-187.5 947.5,-187.5 947.5,-168.5 894.5,-168.5"/>
<text text-anchor="middle" x="921" y="-175.5" font-family="Helvetica,sans-Serif" font-size="10.00" fill="#000000">cstdarg</text>
</g>
<!-- Node0&#45;&gt;Node19 -->
<g id="edge25" class="edge">
<title>Node0&#45;&gt;Node19</title>
<path fill="none" stroke="#191970" d="M877.5496,-224.3258C886.7535,-214.5128 896.9611,-203.6298 905.1686,-194.879"/>
<polygon fill="#191970" stroke="#191970" points="907.7695,-197.2222 912.0578,-187.534 902.6638,-192.4334 907.7695,-197.2222"/>
</g>
<!-- Node20 -->
<g id="node21" class="node">
<title>Node20</title>
<polygon fill="none" stroke="#bfbfbf" points="966,-168.5 966,-187.5 1016,-187.5 1016,-168.5 966,-168.5"/>
<text text-anchor="middle" x="991" y="-175.5" font-family="Helvetica,sans-Serif" font-size="10.00" fill="#000000">climits</text>
</g>
<!-- Node0&#45;&gt;Node20 -->
<g id="edge27" class="edge">
<title>Node0&#45;&gt;Node20</title>
<path fill="none" stroke="#191970" d="M902.8212,-224.3258C923.4057,-213.5115 946.4639,-201.3976 963.8373,-192.2703"/>
<polygon fill="#191970" stroke="#191970" points="965.6277,-195.2833 972.8525,-187.534 962.372,-189.0865 965.6277,-195.2833"/>
</g>
<!-- Node21 -->
<g id="node22" class="node">
<title>Node21</title>
<polygon fill="none" stroke="#bfbfbf" points="1034,-168.5 1034,-187.5 1086,-187.5 1086,-168.5 1034,-168.5"/>
<text text-anchor="middle" x="1060" y="-175.5" font-family="Helvetica,sans-Serif" font-size="10.00" fill="#000000">cassert</text>
</g>
<!-- Node0&#45;&gt;Node21 -->
<g id="edge28" class="edge">
<title>Node0&#45;&gt;Node21</title>
<path fill="none" stroke="#191970" d="M927.4393,-224.4283C960.3282,-212.9092 997.4773,-199.898 1024.0633,-190.5865"/>
<polygon fill="#191970" stroke="#191970" points="1025.4236,-193.8186 1033.7045,-187.2098 1023.1097,-187.2121 1025.4236,-193.8186"/>
</g>
<!-- Node2 -->
<g id="node3" class="node">
<title>Node2</title>
<g id="a_node3"><a xlink:href="../../d9/d9b/RootFileService_8h.html" target="_top" xlink:title="Framework/RootFileService.h">
<polygon fill="none" stroke="#000000" points="339.5,-112.5 339.5,-131.5 496.5,-131.5 496.5,-112.5 339.5,-112.5"/>
<text text-anchor="middle" x="418" y="-119.5" font-family="Helvetica,sans-Serif" font-size="10.00" fill="#000000">Framework/RootFileService.h</text>
</a>
</g>
</g>
<!-- Node1&#45;&gt;Node2 -->
<g id="edge2" class="edge">
<title>Node1&#45;&gt;Node2</title>
<path fill="none" stroke="#191970" d="M506.362,-168.2455C489.5614,-159.4527 464.6366,-146.4079 445.5382,-136.4125"/>
<polygon fill="#191970" stroke="#191970" points="446.9073,-133.1787 436.4244,-131.6427 443.6614,-139.3807 446.9073,-133.1787"/>
</g>
<!-- Node1&#45;&gt;Node12 -->
<g id="edge20" class="edge">
<title>Node1&#45;&gt;Node12</title>
<path fill="none" stroke="#191970" d="M533.6636,-168.1985C541.8204,-158.9324 554.3426,-144.6092 565,-132 585.7918,-107.4005 591.8207,-101.8764 611,-76 622.6135,-60.3312 634.8437,-41.7994 643.4539,-28.3679"/>
<polygon fill="#191970" stroke="#191970" points="646.6143,-29.9203 649.0231,-19.603 640.7061,-26.1663 646.6143,-29.9203"/>
</g>
<!-- Node13 -->
<g id="node14" class="node">
<title>Node13</title>
<polygon fill="none" stroke="#bfbfbf" points="182,-56.5 182,-75.5 230,-75.5 230,-56.5 182,-56.5"/>
<text text-anchor="middle" x="206" y="-63.5" font-family="Helvetica,sans-Serif" font-size="10.00" fill="#000000">TFile.h</text>
</g>
<!-- Node1&#45;&gt;Node13 -->
<g id="edge18" class="edge">
<title>Node1&#45;&gt;Node13</title>
<path fill="none" stroke="#191970" d="M441.8993,-168.4831C399.4582,-161.7047 347.6963,-150.4207 304,-132 274.1679,-119.4239 243.8707,-97.2684 225.0208,-82.1254"/>
<polygon fill="#191970" stroke="#191970" points="227.1608,-79.354 217.2084,-75.7208 222.7229,-84.7674 227.1608,-79.354"/>
</g>
<!-- Node14 -->
<g id="node15" class="node">
<title>Node14</title>
<polygon fill="none" stroke="#bfbfbf" points="248,-56.5 248,-75.5 306,-75.5 306,-56.5 248,-56.5"/>
<text text-anchor="middle" x="277" y="-63.5" font-family="Helvetica,sans-Serif" font-size="10.00" fill="#000000">memory</text>
</g>
<!-- Node1&#45;&gt;Node14 -->
<g id="edge22" class="edge">
<title>Node1&#45;&gt;Node14</title>
<path fill="none" stroke="#191970" d="M466.1501,-168.4636C417.3347,-159.7687 352.4297,-146.1542 330,-132 311.4455,-120.2913 296.5067,-99.792 287.277,-84.7376"/>
<polygon fill="#191970" stroke="#191970" points="290.1147,-82.6556 282.0555,-75.7781 284.0668,-86.1803 290.1147,-82.6556"/>
</g>
<!-- Node15 -->
<g id="node16" class="node">
<title>Node15</title>
<polygon fill="none" stroke="#bfbfbf" points="498,-56.5 498,-75.5 536,-75.5 536,-56.5 498,-56.5"/>
<text text-anchor="middle" x="517" y="-63.5" font-family="Helvetica,sans-Serif" font-size="10.00" fill="#000000">map</text>
</g>
<!-- Node1&#45;&gt;Node15 -->
<g id="edge19" class="edge">
<title>Node1&#45;&gt;Node15</title>
<path fill="none" stroke="#191970" d="M524.3179,-168.4509C523.0131,-150.184 520.1397,-109.9553 518.407,-85.6976"/>
<polygon fill="#191970" stroke="#191970" points="521.884,-85.2501 517.6803,-75.5249 514.9018,-85.7489 521.884,-85.2501"/>
</g>
<!-- Node16 -->
<g id="node17" class="node">
<title>Node16</title>
<polygon fill="none" stroke="#bfbfbf" points="554.5,-56.5 554.5,-75.5 601.5,-75.5 601.5,-56.5 554.5,-56.5"/>
<text text-anchor="middle" x="578" y="-63.5" font-family="Helvetica,sans-Serif" font-size="10.00" fill="#000000">vector</text>
</g>
<!-- Node1&#45;&gt;Node16 -->
<g id="edge21" class="edge">
<title>Node1&#45;&gt;Node16</title>
<path fill="none" stroke="#191970" d="M529.5188,-168.4509C538.2803,-149.936 557.7185,-108.8591 569.1421,-84.7187"/>
<polygon fill="#191970" stroke="#191970" points="572.3789,-86.061 573.4927,-75.5249 566.0516,-83.0668 572.3789,-86.061"/>
</g>
<!-- Node3 -->
<g id="node4" class="node">
<title>Node3</title>
<g id="a_node4"><a xlink:href="../../de/d56/Variant_8h.html" target="_top" xlink:title="Framework/Variant.h">
<polygon fill="none" stroke="#000000" points="324.5,-56.5 324.5,-75.5 441.5,-75.5 441.5,-56.5 324.5,-56.5"/>
<text text-anchor="middle" x="383" y="-63.5" font-family="Helvetica,sans-Serif" font-size="10.00" fill="#000000">Framework/Variant.h</text>
</a>
</g>
</g>
<!-- Node2&#45;&gt;Node3 -->
<g id="edge3" class="edge">
<title>Node2&#45;&gt;Node3</title>
<path fill="none" stroke="#191970" d="M411.9035,-112.2455C407.0855,-104.5367 400.2249,-93.5598 394.3968,-84.2348"/>
<polygon fill="#191970" stroke="#191970" points="397.2947,-82.2677 389.0267,-75.6427 391.3587,-85.9777 397.2947,-82.2677"/>
</g>
<!-- Node2&#45;&gt;Node12 -->
<g id="edge16" class="edge">
<title>Node2&#45;&gt;Node12</title>
<path fill="none" stroke="#191970" d="M425.6474,-112.357C437.6148,-97.922 462.1901,-70.8125 489,-56 540.6987,-27.4365 562.2935,-36.5073 623.0205,-20.0866"/>
<polygon fill="#191970" stroke="#191970" points="624.0236,-23.4402 632.6914,-17.3477 622.1161,-16.7051 624.0236,-23.4402"/>
</g>
<!-- Node2&#45;&gt;Node13 -->
<g id="edge13" class="edge">
<title>Node2&#45;&gt;Node13</title>
<path fill="none" stroke="#191970" d="M378.7628,-112.4285C344.4698,-103.9488 293.1208,-90.9776 239.7482,-76.1314"/>
<polygon fill="#191970" stroke="#191970" points="240.689,-72.7603 230.1158,-73.4375 238.8036,-79.5016 240.689,-72.7603"/>
</g>
<!-- Node2&#45;&gt;Node14 -->
<g id="edge14" class="edge">
<title>Node2&#45;&gt;Node14</title>
<path fill="none" stroke="#191970" d="M393.7612,-112.3733C370.7211,-103.2226 335.8786,-89.3844 310.2499,-79.2057"/>
<polygon fill="#191970" stroke="#191970" points="311.5082,-75.9395 300.9225,-75.5011 308.9244,-82.4452 311.5082,-75.9395"/>
</g>
<!-- Node2&#45;&gt;Node15 -->
<g id="edge15" class="edge">
<title>Node2&#45;&gt;Node15</title>
<path fill="none" stroke="#191970" d="M435.2445,-112.2455C450.5761,-103.5731 473.2199,-90.7645 490.7916,-80.825"/>
<polygon fill="#191970" stroke="#191970" points="492.9724,-83.6126 499.9531,-75.6427 489.5259,-77.5198 492.9724,-83.6126"/>
</g>
<!-- Node2&#45;&gt;Node16 -->
<g id="edge17" class="edge">
<title>Node2&#45;&gt;Node16</title>
<path fill="none" stroke="#191970" d="M445.505,-112.3733C472.9991,-102.7503 515.304,-87.9436 544.6854,-77.6601"/>
<polygon fill="#191970" stroke="#191970" points="546.2112,-80.8343 554.4935,-74.2273 543.8987,-74.2273 546.2112,-80.8343"/>
</g>
<!-- Node4 -->
<g id="node5" class="node">
<title>Node4</title>
<polygon fill="none" stroke="#bfbfbf" points="545.5,-.5 545.5,-19.5 614.5,-19.5 614.5,-.5 545.5,-.5"/>
<text text-anchor="middle" x="580" y="-7.5" font-family="Helvetica,sans-Serif" font-size="10.00" fill="#000000">type_traits</text>
</g>
<!-- Node3&#45;&gt;Node4 -->
<g id="edge4" class="edge">
<title>Node3&#45;&gt;Node4</title>
<path fill="none" stroke="#191970" d="M416.8655,-56.3733C450.049,-46.9404 500.755,-32.5265 536.8194,-22.2747"/>
<polygon fill="#191970" stroke="#191970" points="537.9145,-25.6021 546.5764,-19.5011 536.0005,-18.8689 537.9145,-25.6021"/>
</g>
<!-- Node5 -->
<g id="node6" class="node">
<title>Node5</title>
<polygon fill="none" stroke="#bfbfbf" points="0,-.5 0,-19.5 50,-19.5 50,-.5 0,-.5"/>
<text text-anchor="middle" x="25" y="-7.5" font-family="Helvetica,sans-Serif" font-size="10.00" fill="#000000">cstring</text>
</g>
<!-- Node3&#45;&gt;Node5 -->
<g id="edge5" class="edge">
<title>Node3&#45;&gt;Node5</title>
<path fill="none" stroke="#191970" d="M324.3981,-57.3581C321.2194,-56.8969 318.0709,-56.4417 315,-56 204.494,-40.1048 173.0683,-44.0294 60.2236,-20.0137"/>
<polygon fill="#191970" stroke="#191970" points="60.6583,-16.527 50.1453,-17.8414 59.1834,-23.3699 60.6583,-16.527"/>
</g>
<!-- Node6 -->
<g id="node7" class="node">
<title>Node6</title>
<polygon fill="none" stroke="#bfbfbf" points="68,-.5 68,-19.5 118,-19.5 118,-.5 68,-.5"/>
<text text-anchor="middle" x="93" y="-7.5" font-family="Helvetica,sans-Serif" font-size="10.00" fill="#000000">cstdint</text>
</g>
<!-- Node3&#45;&gt;Node6 -->
<g id="edge6" class="edge">
<title>Node3&#45;&gt;Node6</title>
<path fill="none" stroke="#191970" d="M324.4216,-57.3245C274.5321,-49.5163 200.7985,-36.9885 127.9715,-20.042"/>
<polygon fill="#191970" stroke="#191970" points="128.7061,-16.6193 118.1699,-17.7328 127.1008,-23.4328 128.7061,-16.6193"/>
</g>
<!-- Node7 -->
<g id="node8" class="node">
<title>Node7</title>
<polygon fill="none" stroke="#bfbfbf" points="136.5,-.5 136.5,-19.5 185.5,-19.5 185.5,-.5 136.5,-.5"/>
<text text-anchor="middle" x="161" y="-7.5" font-family="Helvetica,sans-Serif" font-size="10.00" fill="#000000">cstdlib</text>
</g>
<!-- Node3&#45;&gt;Node7 -->
<g id="edge7" class="edge">
<title>Node3&#45;&gt;Node7</title>
<path fill="none" stroke="#191970" d="M340.7911,-56.4341C304.5505,-48.0627 250.7006,-35.2503 195.733,-20.3831"/>
<polygon fill="#191970" stroke="#191970" points="196.3919,-16.9351 185.8235,-17.6834 194.5519,-23.6889 196.3919,-16.9351"/>
</g>
<!-- Node8 -->
<g id="node9" class="node">
<title>Node8</title>
<polygon fill="none" stroke="#bfbfbf" points="203.5,-.5 203.5,-19.5 268.5,-19.5 268.5,-.5 203.5,-.5"/>
<text text-anchor="middle" x="236" y="-7.5" font-family="Helvetica,sans-Serif" font-size="10.00" fill="#000000">stdexcept</text>
</g>
<!-- Node3&#45;&gt;Node8 -->
<g id="edge8" class="edge">
<title>Node3&#45;&gt;Node8</title>
<path fill="none" stroke="#191970" d="M357.7298,-56.3733C333.6034,-47.1822 297.0638,-33.2624 270.3123,-23.0713"/>
<polygon fill="#191970" stroke="#191970" points="271.5313,-19.7904 260.9404,-19.5011 269.0393,-26.3318 271.5313,-19.7904"/>
</g>
<!-- Node9 -->
<g id="node10" class="node">
<title>Node9</title>
<polygon fill="none" stroke="#bfbfbf" points="286.5,-.5 286.5,-19.5 335.5,-19.5 335.5,-.5 286.5,-.5"/>
<text text-anchor="middle" x="311" y="-7.5" font-family="Helvetica,sans-Serif" font-size="10.00" fill="#000000">iosfwd</text>
</g>
<!-- Node3&#45;&gt;Node9 -->
<g id="edge9" class="edge">
<title>Node3&#45;&gt;Node9</title>
<path fill="none" stroke="#191970" d="M370.4586,-56.2455C359.7213,-47.8943 344.0527,-35.7076 331.4953,-25.9408"/>
<polygon fill="#191970" stroke="#191970" points="333.4401,-23.0194 323.3977,-19.6427 329.1425,-28.5449 333.4401,-23.0194"/>
</g>
<!-- Node10 -->
<g id="node11" class="node">
<title>Node10</title>
<polygon fill="none" stroke="#bfbfbf" points="353.5,-.5 353.5,-19.5 436.5,-19.5 436.5,-.5 353.5,-.5"/>
<text text-anchor="middle" x="395" y="-7.5" font-family="Helvetica,sans-Serif" font-size="10.00" fill="#000000">initializer_list</text>
</g>
<!-- Node3&#45;&gt;Node10 -->
<g id="edge10" class="edge">
<title>Node3&#45;&gt;Node10</title>
<path fill="none" stroke="#191970" d="M385.0902,-56.2455C386.6561,-48.9382 388.8512,-38.6944 390.7776,-29.7046"/>
<polygon fill="#191970" stroke="#191970" points="394.2607,-30.1541 392.9337,-19.6427 387.416,-28.6873 394.2607,-30.1541"/>
</g>
<!-- Node11 -->
<g id="node12" class="node">
<title>Node11</title>
<polygon fill="none" stroke="#bfbfbf" points="454.5,-.5 454.5,-19.5 527.5,-19.5 527.5,-.5 454.5,-.5"/>
<text text-anchor="middle" x="491" y="-7.5" font-family="Helvetica,sans-Serif" font-size="10.00" fill="#000000">string_view</text>
</g>
<!-- Node3&#45;&gt;Node11 -->
<g id="edge11" class="edge">
<title>Node3&#45;&gt;Node11</title>
<path fill="none" stroke="#191970" d="M401.8122,-56.2455C418.8473,-47.4125 444.1575,-34.2887 463.4681,-24.2758"/>
<polygon fill="#191970" stroke="#191970" points="465.137,-27.353 472.4034,-19.6427 461.9147,-21.1388 465.137,-27.353"/>
</g>
<!-- Node3&#45;&gt;Node12 -->
<g id="edge12" class="edge">
<title>Node3&#45;&gt;Node12</title>
<path fill="none" stroke="#191970" d="M441.8856,-56.8491C488.6572,-49.1063 555.8519,-36.9303 622.862,-20.0646"/>
<polygon fill="#191970" stroke="#191970" points="623.9211,-23.4065 632.7449,-17.5421 622.1899,-16.624 623.9211,-23.4065"/>
</g>
</g>
</svg>
