<?xml version="1.0" encoding="UTF-8" standalone="no"?>
<!DOCTYPE svg PUBLIC "-//W3C//DTD SVG 1.1//EN"
 "http://www.w3.org/Graphics/SVG/1.1/DTD/svg11.dtd">
<!-- Generated by graphviz version 2.40.1 (20161225.0304)
 -->
<!-- Title: /home/travis/build/AliceO2Group/AliceO2/Detectors/TPC/base/include/TPCBase/ZeroSuppress.h Pages: 1 -->
<svg width="2371pt" height="587pt"
 viewBox="0.00 0.00 2371.00 587.00" xmlns="http://www.w3.org/2000/svg" xmlns:xlink="http://www.w3.org/1999/xlink">
<g id="graph0" class="graph" transform="scale(1 1) rotate(0) translate(4 583)">
<title>/home/travis/build/AliceO2Group/AliceO2/Detectors/TPC/base/include/TPCBase/ZeroSuppress.h</title>
<!-- Node0 -->
<g id="node1" class="node">
<title>Node0</title>
<polygon fill="#bfbfbf" stroke="#000000" points="1363.5,-526.5 1363.5,-578.5 1516.5,-578.5 1516.5,-526.5 1363.5,-526.5"/>
<text text-anchor="start" x="1371.5" y="-566.5" font-family="Helvetica,sans-Serif" font-size="10.00" fill="#000000">/home/travis/build</text>
<text text-anchor="start" x="1371.5" y="-555.5" font-family="Helvetica,sans-Serif" font-size="10.00" fill="#000000">/AliceO2Group/AliceO2</text>
<text text-anchor="start" x="1371.5" y="-544.5" font-family="Helvetica,sans-Serif" font-size="10.00" fill="#000000">/Detectors/TPC/base/include</text>
<text text-anchor="middle" x="1440" y="-533.5" font-family="Helvetica,sans-Serif" font-size="10.00" fill="#000000">/TPCBase/ZeroSuppress.h</text>
</g>
<!-- Node1 -->
<g id="node2" class="node">
<title>Node1</title>
<polygon fill="none" stroke="#bfbfbf" points="458.5,-134.5 458.5,-153.5 505.5,-153.5 505.5,-134.5 458.5,-134.5"/>
<text text-anchor="middle" x="482" y="-141.5" font-family="Helvetica,sans-Serif" font-size="10.00" fill="#000000">cmath</text>
</g>
<!-- Node0&#45;&gt;Node1 -->
<g id="edge1" class="edge">
<title>Node0&#45;&gt;Node1</title>
<path fill="none" stroke="#191970" d="M1363.272,-549.5439C1154.9643,-541.2097 589.0987,-516.4059 509,-490 457.364,-472.9773 406,-478.3696 406,-424 406,-424 406,-424 406,-256 406,-216.2361 439.2071,-180.1042 461.7208,-160.177"/>
<polygon fill="#191970" stroke="#191970" points="464.1079,-162.7412 469.4501,-153.5918 459.5683,-157.4128 464.1079,-162.7412"/>
</g>
<!-- Node2 -->
<g id="node3" class="node">
<title>Node2</title>
<polygon fill="none" stroke="#bfbfbf" points="1266.5,-358.5 1266.5,-377.5 1313.5,-377.5 1313.5,-358.5 1266.5,-358.5"/>
<text text-anchor="middle" x="1290" y="-365.5" font-family="Helvetica,sans-Serif" font-size="10.00" fill="#000000">vector</text>
</g>
<!-- Node0&#45;&gt;Node2 -->
<g id="edge2" class="edge">
<title>Node0&#45;&gt;Node2</title>
<path fill="none" stroke="#191970" d="M1443.8965,-526.3928C1446.9123,-495.9539 1446.9413,-445.7716 1421,-414 1408.4968,-398.6867 1358.2334,-384.1117 1323.7326,-375.6158"/>
<polygon fill="#191970" stroke="#191970" points="1324.1316,-372.1122 1313.5907,-373.1803 1322.497,-378.9187 1324.1316,-372.1122"/>
</g>
<!-- Node3 -->
<g id="node4" class="node">
<title>Node3</title>
<polygon fill="none" stroke="#bfbfbf" points="1370,-414.5 1370,-433.5 1412,-433.5 1412,-414.5 1370,-414.5"/>
<text text-anchor="middle" x="1391" y="-421.5" font-family="Helvetica,sans-Serif" font-size="10.00" fill="#000000">array</text>
</g>
<!-- Node0&#45;&gt;Node3 -->
<g id="edge3" class="edge">
<title>Node0&#45;&gt;Node3</title>
<path fill="none" stroke="#191970" d="M1430.0841,-526.4961C1420.6635,-501.791 1406.7197,-465.2242 1398.2832,-443.0998"/>
<polygon fill="#191970" stroke="#191970" points="1401.4613,-441.6108 1394.628,-433.5142 1394.9207,-444.105 1401.4613,-441.6108"/>
</g>
<!-- Node4 -->
<g id="node5" class="node">
<title>Node4</title>
<polygon fill="none" stroke="#bfbfbf" points="2056,-470.5 2056,-489.5 2116,-489.5 2116,-470.5 2056,-470.5"/>
<text text-anchor="middle" x="2086" y="-477.5" font-family="Helvetica,sans-Serif" font-size="10.00" fill="#000000">iostream</text>
</g>
<!-- Node0&#45;&gt;Node4 -->
<g id="edge4" class="edge">
<title>Node0&#45;&gt;Node4</title>
<path fill="none" stroke="#191970" d="M1516.6873,-548.2639C1630.4205,-541.1719 1850.5171,-524.3432 2045.9854,-489.955"/>
<polygon fill="#191970" stroke="#191970" points="2046.6306,-493.3953 2055.8633,-488.1984 2045.4049,-486.5034 2046.6306,-493.3953"/>
</g>
<!-- Node5 -->
<g id="node6" class="node">
<title>Node5</title>
<g id="a_node6"><a xlink:href="../../d3/d7d/DataFormats_2Detectors_2TPC_2include_2DataFormatsTPC_2Digit_8h.html" target="_top" xlink:title="DataFormatsTPC/Digit.h">
<polygon fill="none" stroke="#000000" points="1468,-470.5 1468,-489.5 1602,-489.5 1602,-470.5 1468,-470.5"/>
<text text-anchor="middle" x="1535" y="-477.5" font-family="Helvetica,sans-Serif" font-size="10.00" fill="#000000">DataFormatsTPC/Digit.h</text>
</a>
</g>
</g>
<!-- Node0&#45;&gt;Node5 -->
<g id="edge5" class="edge">
<title>Node0&#45;&gt;Node5</title>
<path fill="none" stroke="#191970" d="M1474.2972,-526.3258C1487.6804,-516.1123 1502.5826,-504.7396 1514.2724,-495.8184"/>
<polygon fill="#191970" stroke="#191970" points="1516.681,-498.3831 1522.5072,-489.534 1512.4343,-492.8184 1516.681,-498.3831"/>
</g>
<!-- Node13 -->
<g id="node14" class="node">
<title>Node13</title>
<g id="a_node14"><a xlink:href="../../d5/d1d/TPC_2base_2include_2TPCBase_2Mapper_8h.html" target="_top" xlink:title="TPCBase/Mapper.h">
<polygon fill="none" stroke="#000000" points="978.5,-470.5 978.5,-489.5 1085.5,-489.5 1085.5,-470.5 978.5,-470.5"/>
<text text-anchor="middle" x="1032" y="-477.5" font-family="Helvetica,sans-Serif" font-size="10.00" fill="#000000">TPCBase/Mapper.h</text>
</a>
</g>
</g>
<!-- Node0&#45;&gt;Node13 -->
<g id="edge15" class="edge">
<title>Node0&#45;&gt;Node13</title>
<path fill="none" stroke="#191970" d="M1363.2583,-538.8633C1285.8749,-525.1126 1167.8152,-504.1338 1095.519,-491.2871"/>
<polygon fill="#191970" stroke="#191970" points="1096.0886,-487.8335 1085.6305,-489.5299 1094.8639,-494.7256 1096.0886,-487.8335"/>
</g>
<!-- Node16 -->
<g id="node17" class="node">
<title>Node16</title>
<g id="a_node17"><a xlink:href="../../d1/d73/Defs_8h.html" target="_top" xlink:title="Common definitions for 2D coordinates. ">
<polygon fill="none" stroke="#000000" points="664.5,-190.5 664.5,-209.5 797.5,-209.5 797.5,-190.5 664.5,-190.5"/>
<text text-anchor="middle" x="731" y="-197.5" font-family="Helvetica,sans-Serif" font-size="10.00" fill="#000000">DataFormatsTPC/Defs.h</text>
</a>
</g>
</g>
<!-- Node0&#45;&gt;Node16 -->
<g id="edge65" class="edge">
<title>Node0&#45;&gt;Node16</title>
<path fill="none" stroke="#191970" d="M1363.4994,-550.6533C1130.2736,-544.0178 444,-516.6234 444,-424 444,-424 444,-424 444,-312 444,-262.038 489.5656,-266.7825 535,-246 572.479,-228.8565 617.0144,-217.7465 654.1545,-210.7491"/>
<polygon fill="#191970" stroke="#191970" points="655.2089,-214.1149 664.4218,-208.8829 653.957,-207.2277 655.2089,-214.1149"/>
</g>
<!-- Node35 -->
<g id="node36" class="node">
<title>Node35</title>
<g id="a_node36"><a xlink:href="../../df/d26/CRU_8h.html" target="_top" xlink:title="TPCBase/CRU.h">
<polygon fill="none" stroke="#000000" points="548,-358.5 548,-377.5 640,-377.5 640,-358.5 548,-358.5"/>
<text text-anchor="middle" x="594" y="-365.5" font-family="Helvetica,sans-Serif" font-size="10.00" fill="#000000">TPCBase/CRU.h</text>
</a>
</g>
</g>
<!-- Node0&#45;&gt;Node35 -->
<g id="edge64" class="edge">
<title>Node0&#45;&gt;Node35</title>
<path fill="none" stroke="#191970" d="M1363.3814,-546.7961C1167.2552,-531.4826 658.6843,-487.0174 605,-434 593.0129,-422.1618 591.0773,-402.5539 591.6517,-387.7794"/>
<polygon fill="#191970" stroke="#191970" points="595.1548,-387.8773 592.4552,-377.6322 588.1767,-387.3246 595.1548,-387.8773"/>
</g>
<!-- Node39 -->
<g id="node40" class="node">
<title>Node39</title>
<g id="a_node40"><a xlink:href="../../d9/d7c/DataFormats_2Detectors_2TPC_2include_2DataFormatsTPC_2Helpers_8h.html" target="_top" xlink:title="DataFormatsTPC/Helpers.h">
<polygon fill="none" stroke="#000000" points="1890,-470.5 1890,-489.5 2038,-489.5 2038,-470.5 1890,-470.5"/>
<text text-anchor="middle" x="1964" y="-477.5" font-family="Helvetica,sans-Serif" font-size="10.00" fill="#000000">DataFormatsTPC/Helpers.h</text>
</a>
</g>
</g>
<!-- Node0&#45;&gt;Node39 -->
<g id="edge66" class="edge">
<title>Node0&#45;&gt;Node39</title>
<path fill="none" stroke="#191970" d="M1516.7553,-541.8802C1615.2822,-528.2482 1785.3671,-504.7154 1884.9775,-490.9335"/>
<polygon fill="#191970" stroke="#191970" points="1885.5593,-494.3864 1894.9852,-489.5488 1884.5999,-487.4524 1885.5593,-494.3864"/>
</g>
<!-- Node44 -->
<g id="node45" class="node">
<title>Node44</title>
<g id="a_node45"><a xlink:href="../../dd/d04/ZeroSuppression_8h.html" target="_top" xlink:title="Definitions of TPC Zero Suppression Data Headers. ">
<polygon fill="none" stroke="#000000" points="1817,-414.5 1817,-433.5 2009,-433.5 2009,-414.5 1817,-414.5"/>
<text text-anchor="middle" x="1913" y="-421.5" font-family="Helvetica,sans-Serif" font-size="10.00" fill="#000000">DataFormatsTPC/ZeroSuppression.h</text>
</a>
</g>
</g>
<!-- Node0&#45;&gt;Node44 -->
<g id="edge71" class="edge">
<title>Node0&#45;&gt;Node44</title>
<path fill="none" stroke="#191970" d="M1516.5213,-531.7114C1616.1902,-504.6344 1787.2218,-458.1702 1868.1056,-436.1965"/>
<polygon fill="#191970" stroke="#191970" points="1869.2438,-439.5142 1877.9764,-433.5149 1867.4085,-432.759 1869.2438,-439.5142"/>
</g>
<!-- Node46 -->
<g id="node47" class="node">
<title>Node46</title>
<polygon fill="none" stroke="#bfbfbf" points="2134.5,-470.5 2134.5,-489.5 2191.5,-489.5 2191.5,-470.5 2134.5,-470.5"/>
<text text-anchor="middle" x="2163" y="-477.5" font-family="Helvetica,sans-Serif" font-size="10.00" fill="#000000">gsl/span</text>
</g>
<!-- Node0&#45;&gt;Node46 -->
<g id="edge75" class="edge">
<title>Node0&#45;&gt;Node46</title>
<path fill="none" stroke="#191970" d="M1516.5715,-549.6695C1641.8975,-544.1238 1898.5823,-528.9413 2124.4275,-489.8108"/>
<polygon fill="#191970" stroke="#191970" points="2125.233,-493.2231 2134.4789,-488.0497 2124.0249,-486.3281 2125.233,-493.2231"/>
</g>
<!-- Node6 -->
<g id="node7" class="node">
<title>Node6</title>
<g id="a_node7"><a xlink:href="../../d2/d45/GPUCommonRtypes_8h.html" target="_top" xlink:title="GPUCommonRtypes.h">
<polygon fill="none" stroke="#000000" points="1415.5,-358.5 1415.5,-377.5 1540.5,-377.5 1540.5,-358.5 1415.5,-358.5"/>
<text text-anchor="middle" x="1478" y="-365.5" font-family="Helvetica,sans-Serif" font-size="10.00" fill="#000000">GPUCommonRtypes.h</text>
</a>
</g>
</g>
<!-- Node5&#45;&gt;Node6 -->
<g id="edge6" class="edge">
<title>Node5&#45;&gt;Node6</title>
<path fill="none" stroke="#191970" d="M1524.9181,-470.2882C1516.3649,-461.5321 1504.3457,-447.9266 1497,-434 1489.3511,-419.4985 1484.4375,-401.5347 1481.5276,-388.0113"/>
<polygon fill="#191970" stroke="#191970" points="1484.8977,-387.0089 1479.5384,-377.8696 1478.0286,-388.3563 1484.8977,-387.0089"/>
</g>
<!-- Node8 -->
<g id="node9" class="node">
<title>Node8</title>
<g id="a_node9"><a xlink:href="../../df/d21/GPUCommonDef_8h.html" target="_top" xlink:title="GPUCommonDef.h">
<polygon fill="none" stroke="#000000" points="1735.5,-358.5 1735.5,-377.5 1842.5,-377.5 1842.5,-358.5 1735.5,-358.5"/>
<text text-anchor="middle" x="1789" y="-365.5" font-family="Helvetica,sans-Serif" font-size="10.00" fill="#000000">GPUCommonDef.h</text>
</a>
</g>
</g>
<!-- Node5&#45;&gt;Node8 -->
<g id="edge8" class="edge">
<title>Node5&#45;&gt;Node8</title>
<path fill="none" stroke="#191970" d="M1602.1689,-474.6056C1662.7417,-468.3954 1745.9038,-456.086 1770,-434 1782.7482,-422.3153 1787.1501,-402.687 1788.571,-387.866"/>
<polygon fill="#191970" stroke="#191970" points="1792.0767,-387.8674 1789.1653,-377.6804 1785.0886,-387.4596 1792.0767,-387.8674"/>
</g>
<!-- Node11 -->
<g id="node12" class="node">
<title>Node11</title>
<g id="a_node12"><a xlink:href="../../df/d5d/common_2include_2CommonDataFormat_2TimeStamp_8h.html" target="_top" xlink:title="CommonDataFormat/TimeStamp.h">
<polygon fill="none" stroke="#000000" points="1574.5,-414.5 1574.5,-433.5 1761.5,-433.5 1761.5,-414.5 1574.5,-414.5"/>
<text text-anchor="middle" x="1668" y="-421.5" font-family="Helvetica,sans-Serif" font-size="10.00" fill="#000000">CommonDataFormat/TimeStamp.h</text>
</a>
</g>
</g>
<!-- Node5&#45;&gt;Node11 -->
<g id="edge11" class="edge">
<title>Node5&#45;&gt;Node11</title>
<path fill="none" stroke="#191970" d="M1557.8635,-470.3733C1579.405,-461.3032 1611.8838,-447.6279 1635.9956,-437.4755"/>
<polygon fill="#191970" stroke="#191970" points="1637.5767,-440.6075 1645.4348,-433.5011 1634.8603,-434.156 1637.5767,-440.6075"/>
</g>
<!-- Node12 -->
<g id="node13" class="node">
<title>Node12</title>
<polygon fill="none" stroke="#bfbfbf" points="1506,-414.5 1506,-433.5 1556,-433.5 1556,-414.5 1506,-414.5"/>
<text text-anchor="middle" x="1531" y="-421.5" font-family="Helvetica,sans-Serif" font-size="10.00" fill="#000000">climits</text>
</g>
<!-- Node5&#45;&gt;Node12 -->
<g id="edge14" class="edge">
<title>Node5&#45;&gt;Node12</title>
<path fill="none" stroke="#191970" d="M1534.3033,-470.2455C1533.7813,-462.9382 1533.0496,-452.6944 1532.4075,-443.7046"/>
<polygon fill="#191970" stroke="#191970" points="1535.8924,-443.3679 1531.6888,-433.6427 1528.9102,-443.8667 1535.8924,-443.3679"/>
</g>
<!-- Node7 -->
<g id="node8" class="node">
<title>Node7</title>
<polygon fill="none" stroke="#bfbfbf" points="1341.5,-73 1341.5,-92 1400.5,-92 1400.5,-73 1341.5,-73"/>
<text text-anchor="middle" x="1371" y="-80" font-family="Helvetica,sans-Serif" font-size="10.00" fill="#000000">Rtypes.h</text>
</g>
<!-- Node6&#45;&gt;Node7 -->
<g id="edge7" class="edge">
<title>Node6&#45;&gt;Node7</title>
<path fill="none" stroke="#191970" d="M1472.6881,-358.4462C1462.6741,-339.5117 1442,-295.623 1442,-256 1442,-256 1442,-256 1442,-200 1442,-159.2434 1410.3211,-120.5087 1389.2843,-99.2796"/>
<polygon fill="#191970" stroke="#191970" points="1391.7004,-96.7471 1382.0938,-92.279 1386.8173,-101.7626 1391.7004,-96.7471"/>
</g>
<!-- Node9 -->
<g id="node10" class="node">
<title>Node9</title>
<g id="a_node10"><a xlink:href="../../d5/d93/GPUCommonDefSettings_8h.html" target="_top" xlink:title="GPUCommonDefSettings.h">
<polygon fill="none" stroke="#000000" points="1792,-302.5 1792,-321.5 1940,-321.5 1940,-302.5 1792,-302.5"/>
<text text-anchor="middle" x="1866" y="-309.5" font-family="Helvetica,sans-Serif" font-size="10.00" fill="#000000">GPUCommonDefSettings.h</text>
</a>
</g>
</g>
<!-- Node8&#45;&gt;Node9 -->
<g id="edge9" class="edge">
<title>Node8&#45;&gt;Node9</title>
<path fill="none" stroke="#191970" d="M1802.4124,-358.2455C1814.0057,-349.814 1830.9748,-337.4729 1844.4678,-327.6598"/>
<polygon fill="#191970" stroke="#191970" points="1846.7126,-330.355 1852.7413,-321.6427 1842.5953,-324.6938 1846.7126,-330.355"/>
</g>
<!-- Node10 -->
<g id="node11" class="node">
<title>Node10</title>
<g id="a_node11"><a xlink:href="../../da/d5a/GPUCommonDefAPI_8h.html" target="_top" xlink:title="GPUCommonDefAPI.h">
<polygon fill="none" stroke="#000000" points="1650,-302.5 1650,-321.5 1774,-321.5 1774,-302.5 1650,-302.5"/>
<text text-anchor="middle" x="1712" y="-309.5" font-family="Helvetica,sans-Serif" font-size="10.00" fill="#000000">GPUCommonDefAPI.h</text>
</a>
</g>
</g>
<!-- Node8&#45;&gt;Node10 -->
<g id="edge10" class="edge">
<title>Node8&#45;&gt;Node10</title>
<path fill="none" stroke="#191970" d="M1775.5876,-358.2455C1763.9943,-349.814 1747.0252,-337.4729 1733.5322,-327.6598"/>
<polygon fill="#191970" stroke="#191970" points="1735.4047,-324.6938 1725.2587,-321.6427 1731.2874,-330.355 1735.4047,-324.6938"/>
</g>
<!-- Node11&#45;&gt;Node6 -->
<g id="edge12" class="edge">
<title>Node11&#45;&gt;Node6</title>
<path fill="none" stroke="#191970" d="M1635.3378,-414.3733C1603.4702,-404.9807 1554.8469,-390.6496 1520.093,-380.4064"/>
<polygon fill="#191970" stroke="#191970" points="1520.8175,-376.9711 1510.236,-377.5011 1518.8385,-383.6855 1520.8175,-376.9711"/>
</g>
<!-- Node11&#45;&gt;Node8 -->
<g id="edge13" class="edge">
<title>Node11&#45;&gt;Node8</title>
<path fill="none" stroke="#191970" d="M1688.8006,-414.3733C1708.2243,-405.3838 1737.4224,-391.8706 1759.2964,-381.7471"/>
<polygon fill="#191970" stroke="#191970" points="1760.8656,-384.8776 1768.4708,-377.5011 1757.9255,-378.5249 1760.8656,-384.8776"/>
</g>
<!-- Node13&#45;&gt;Node1 -->
<g id="edge20" class="edge">
<title>Node13&#45;&gt;Node1</title>
<path fill="none" stroke="#191970" d="M978.3347,-477.018C860.0324,-470.1441 584.2497,-452.3625 546,-434 509.1648,-416.3166 482,-408.8599 482,-368 482,-368 482,-368 482,-256 482,-223.7116 482,-186.1872 482,-163.8048"/>
<polygon fill="#191970" stroke="#191970" points="485.5001,-163.5883 482,-153.5884 478.5001,-163.5884 485.5001,-163.5883"/>
</g>
<!-- Node13&#45;&gt;Node2 -->
<g id="edge17" class="edge">
<title>Node13&#45;&gt;Node2</title>
<path fill="none" stroke="#191970" d="M1085.5284,-477.7297C1151.7755,-473.7064 1259.0414,-462.8161 1285,-434 1296.032,-421.7537 1296.2712,-402.5106 1294.3486,-387.9561"/>
<polygon fill="#191970" stroke="#191970" points="1297.7667,-387.1832 1292.6001,-377.9335 1290.8709,-388.3863 1297.7667,-387.1832"/>
</g>
<!-- Node13&#45;&gt;Node3 -->
<g id="edge18" class="edge">
<title>Node13&#45;&gt;Node3</title>
<path fill="none" stroke="#191970" d="M1085.7141,-474.6586C1150.3095,-467.7107 1261.809,-454.0432 1356,-434 1357.2517,-433.7337 1358.5243,-433.4469 1359.8068,-433.1446"/>
<polygon fill="#191970" stroke="#191970" points="1360.8382,-436.4931 1369.6456,-430.6042 1359.0882,-429.7154 1360.8382,-436.4931"/>
</g>
<!-- Node14 -->
<g id="node15" class="node">
<title>Node14</title>
<polygon fill="none" stroke="#bfbfbf" points="754,-414.5 754,-433.5 792,-433.5 792,-414.5 754,-414.5"/>
<text text-anchor="middle" x="773" y="-421.5" font-family="Helvetica,sans-Serif" font-size="10.00" fill="#000000">map</text>
</g>
<!-- Node13&#45;&gt;Node14 -->
<g id="edge16" class="edge">
<title>Node13&#45;&gt;Node14</title>
<path fill="none" stroke="#191970" d="M978.2646,-471.5952C933.3211,-464.0481 867.4378,-451.7841 801.8355,-433.9348"/>
<polygon fill="#191970" stroke="#191970" points="802.7321,-430.5514 792.161,-431.2606 800.8671,-437.2984 802.7321,-430.5514"/>
</g>
<!-- Node15 -->
<g id="node16" class="node">
<title>Node15</title>
<polygon fill="none" stroke="#bfbfbf" points="810,-414.5 810,-433.5 854,-433.5 854,-414.5 810,-414.5"/>
<text text-anchor="middle" x="832" y="-421.5" font-family="Helvetica,sans-Serif" font-size="10.00" fill="#000000">string</text>
</g>
<!-- Node13&#45;&gt;Node15 -->
<g id="edge19" class="edge">
<title>Node13&#45;&gt;Node15</title>
<path fill="none" stroke="#191970" d="M994.9367,-470.4397C962.6818,-462.0023 914.4607,-449.1082 864.0774,-434.2338"/>
<polygon fill="#191970" stroke="#191970" points="864.8953,-430.8257 854.3126,-431.3339 862.9024,-437.536 864.8953,-430.8257"/>
</g>
<!-- Node13&#45;&gt;Node16 -->
<g id="edge21" class="edge">
<title>Node13&#45;&gt;Node16</title>
<path fill="none" stroke="#191970" d="M978.5,-477.8731C879.4525,-473.3401 671.5446,-460.8702 605,-434 560.6502,-416.0919 520,-415.8289 520,-368 520,-368 520,-368 520,-312 520,-249.1429 593.9582,-221.4564 654.3019,-209.3278"/>
<polygon fill="#191970" stroke="#191970" points="655.0655,-212.7454 664.2383,-207.4434 653.7612,-205.868 655.0655,-212.7454"/>
</g>
<!-- Node28 -->
<g id="node29" class="node">
<title>Node28</title>
<g id="a_node29"><a xlink:href="../../de/d41/PadPos_8h.html" target="_top" xlink:title="TPCBase/PadPos.h">
<polygon fill="none" stroke="#000000" points="921,-302.5 921,-321.5 1027,-321.5 1027,-302.5 921,-302.5"/>
<text text-anchor="middle" x="974" y="-309.5" font-family="Helvetica,sans-Serif" font-size="10.00" fill="#000000">TPCBase/PadPos.h</text>
</a>
</g>
</g>
<!-- Node13&#45;&gt;Node28 -->
<g id="edge36" class="edge">
<title>Node13&#45;&gt;Node28</title>
<path fill="none" stroke="#191970" d="M1033.0474,-470.07C1034.1799,-457.0754 1035.4028,-433.645 1032,-414 1027.4894,-387.9592 1025.0569,-380.978 1012,-358 1006.1659,-347.733 997.9923,-337.4881 990.7197,-329.2816"/>
<polygon fill="#191970" stroke="#191970" points="993.2124,-326.8215 983.8675,-321.8292 988.0595,-331.5594 993.2124,-326.8215"/>
</g>
<!-- Node29 -->
<g id="node30" class="node">
<title>Node29</title>
<g id="a_node30"><a xlink:href="../../dd/d0b/PadSecPos_8h.html" target="_top" xlink:title="TPCBase/PadSecPos.h">
<polygon fill="none" stroke="#000000" points="880.5,-358.5 880.5,-377.5 1003.5,-377.5 1003.5,-358.5 880.5,-358.5"/>
<text text-anchor="middle" x="942" y="-365.5" font-family="Helvetica,sans-Serif" font-size="10.00" fill="#000000">TPCBase/PadSecPos.h</text>
</a>
</g>
</g>
<!-- Node13&#45;&gt;Node29 -->
<g id="edge37" class="edge">
<title>Node13&#45;&gt;Node29</title>
<path fill="none" stroke="#191970" d="M1031.1146,-470.1067C1029.4439,-456.3108 1024.7584,-431.0708 1012,-414 1002.0266,-400.6556 986.961,-390.0425 973.3582,-382.3886"/>
<polygon fill="#191970" stroke="#191970" points="974.7301,-379.1545 964.2551,-377.5652 971.4527,-385.3399 974.7301,-379.1545"/>
</g>
<!-- Node30 -->
<g id="node31" class="node">
<title>Node30</title>
<g id="a_node31"><a xlink:href="../../d3/dd6/Sector_8h.html" target="_top" xlink:title="TPCBase/Sector.h">
<polygon fill="none" stroke="#000000" points="842.5,-246.5 842.5,-265.5 943.5,-265.5 943.5,-246.5 842.5,-246.5"/>
<text text-anchor="middle" x="893" y="-253.5" font-family="Helvetica,sans-Serif" font-size="10.00" fill="#000000">TPCBase/Sector.h</text>
</a>
</g>
</g>
<!-- Node13&#45;&gt;Node30 -->
<g id="edge63" class="edge">
<title>Node13&#45;&gt;Node30</title>
<path fill="none" stroke="#191970" d="M1036.123,-470.1394C1047.6779,-440.7694 1076.9466,-352.7661 1036,-302 1024.9354,-288.282 985.6938,-276.2269 951.1122,-267.9027"/>
<polygon fill="#191970" stroke="#191970" points="951.5732,-264.4162 941.0391,-265.5486 949.9802,-271.2325 951.5732,-264.4162"/>
</g>
<!-- Node32 -->
<g id="node33" class="node">
<title>Node32</title>
<g id="a_node33"><a xlink:href="../../da/d61/PadROCPos_8h.html" target="_top" xlink:title="TPCBase/PadROCPos.h">
<polygon fill="none" stroke="#000000" points="658.5,-358.5 658.5,-377.5 785.5,-377.5 785.5,-358.5 658.5,-358.5"/>
<text text-anchor="middle" x="722" y="-365.5" font-family="Helvetica,sans-Serif" font-size="10.00" fill="#000000">TPCBase/PadROCPos.h</text>
</a>
</g>
</g>
<!-- Node13&#45;&gt;Node32 -->
<g id="edge42" class="edge">
<title>Node13&#45;&gt;Node32</title>
<path fill="none" stroke="#191970" d="M978.3522,-478.0021C871.1914,-473.4581 638.8427,-460.6175 615,-434 593.3437,-409.8234 632.9547,-391.4638 669.9601,-380.3212"/>
<polygon fill="#191970" stroke="#191970" points="671.1246,-383.6285 679.7728,-377.508 669.1954,-376.8995 671.1246,-383.6285"/>
</g>
<!-- Node34 -->
<g id="node35" class="node">
<title>Node34</title>
<g id="a_node35"><a xlink:href="../../d3/d54/DigitPos_8h.html" target="_top" xlink:title="TPCBase/DigitPos.h">
<polygon fill="none" stroke="#000000" points="624,-414.5 624,-433.5 736,-433.5 736,-414.5 624,-414.5"/>
<text text-anchor="middle" x="680" y="-421.5" font-family="Helvetica,sans-Serif" font-size="10.00" fill="#000000">TPCBase/DigitPos.h</text>
</a>
</g>
</g>
<!-- Node13&#45;&gt;Node34 -->
<g id="edge48" class="edge">
<title>Node13&#45;&gt;Node34</title>
<path fill="none" stroke="#191970" d="M978.1556,-471.4338C915.8725,-461.5252 813.3162,-445.2094 746.2116,-434.5337"/>
<polygon fill="#191970" stroke="#191970" points="746.5935,-431.0505 736.1677,-432.9358 745.4936,-437.9635 746.5935,-431.0505"/>
</g>
<!-- Node36 -->
<g id="node37" class="node">
<title>Node36</title>
<g id="a_node37"><a xlink:href="../../d1/d1f/FECInfo_8h.html" target="_top" xlink:title="TPCBase/FECInfo.h">
<polygon fill="none" stroke="#000000" points="1279,-246.5 1279,-265.5 1387,-265.5 1387,-246.5 1279,-246.5"/>
<text text-anchor="middle" x="1333" y="-253.5" font-family="Helvetica,sans-Serif" font-size="10.00" fill="#000000">TPCBase/FECInfo.h</text>
</a>
</g>
</g>
<!-- Node13&#45;&gt;Node36 -->
<g id="edge56" class="edge">
<title>Node13&#45;&gt;Node36</title>
<path fill="none" stroke="#191970" d="M1085.7517,-477.4137C1155.5245,-472.9853 1272.1393,-461.5889 1304,-434 1349.6896,-394.4364 1342.9649,-313.3335 1336.8924,-275.8291"/>
<polygon fill="#191970" stroke="#191970" points="1340.285,-274.9162 1335.0875,-265.6838 1333.3932,-276.1423 1340.285,-274.9162"/>
</g>
<!-- Node37 -->
<g id="node38" class="node">
<title>Node37</title>
<g id="a_node38"><a xlink:href="../../da/d9d/PadRegionInfo_8h.html" target="_top" xlink:title="TPCBase/PadRegionInfo.h">
<polygon fill="none" stroke="#000000" points="1136,-414.5 1136,-433.5 1276,-433.5 1276,-414.5 1136,-414.5"/>
<text text-anchor="middle" x="1206" y="-421.5" font-family="Helvetica,sans-Serif" font-size="10.00" fill="#000000">TPCBase/PadRegionInfo.h</text>
</a>
</g>
</g>
<!-- Node13&#45;&gt;Node37 -->
<g id="edge58" class="edge">
<title>Node13&#45;&gt;Node37</title>
<path fill="none" stroke="#191970" d="M1061.9117,-470.3733C1090.8452,-461.0613 1134.8611,-446.8953 1166.6293,-436.671"/>
<polygon fill="#191970" stroke="#191970" points="1168.0318,-439.8965 1176.4787,-433.5011 1165.8872,-433.2331 1168.0318,-439.8965"/>
</g>
<!-- Node38 -->
<g id="node39" class="node">
<title>Node38</title>
<g id="a_node39"><a xlink:href="../../d6/d42/PartitionInfo_8h.html" target="_top" xlink:title="TPCBase/PartitionInfo.h">
<polygon fill="none" stroke="#000000" points="872.5,-414.5 872.5,-433.5 1003.5,-433.5 1003.5,-414.5 872.5,-414.5"/>
<text text-anchor="middle" x="938" y="-421.5" font-family="Helvetica,sans-Serif" font-size="10.00" fill="#000000">TPCBase/PartitionInfo.h</text>
</a>
</g>
</g>
<!-- Node13&#45;&gt;Node38 -->
<g id="edge62" class="edge">
<title>Node13&#45;&gt;Node38</title>
<path fill="none" stroke="#191970" d="M1015.6264,-470.2455C1001.0692,-461.5731 979.569,-448.7645 962.8848,-438.825"/>
<polygon fill="#191970" stroke="#191970" points="964.5683,-435.7539 954.1859,-433.6427 960.9856,-441.7676 964.5683,-435.7539"/>
</g>
<!-- Node16&#45;&gt;Node1 -->
<g id="edge22" class="edge">
<title>Node16&#45;&gt;Node1</title>
<path fill="none" stroke="#191970" d="M688.4783,-190.4369C639.5102,-179.424 560.084,-161.5611 515.3597,-151.5026"/>
<polygon fill="#191970" stroke="#191970" points="516.0951,-148.0806 505.5708,-149.3011 514.5591,-154.91 516.0951,-148.0806"/>
</g>
<!-- Node17 -->
<g id="node18" class="node">
<title>Node17</title>
<g id="a_node18"><a xlink:href="../../d2/dd0/Cartesian2D_8h.html" target="_top" xlink:title="MathUtils/Cartesian2D.h">
<polygon fill="none" stroke="#000000" points="1045.5,-73 1045.5,-92 1180.5,-92 1180.5,-73 1045.5,-73"/>
<text text-anchor="middle" x="1113" y="-80" font-family="Helvetica,sans-Serif" font-size="10.00" fill="#000000">MathUtils/Cartesian2D.h</text>
</a>
</g>
</g>
<!-- Node16&#45;&gt;Node17 -->
<g id="edge23" class="edge">
<title>Node16&#45;&gt;Node17</title>
<path fill="none" stroke="#191970" d="M761.9371,-190.484C830.5269,-169.3864 995.3556,-118.6864 1072.2346,-95.0391"/>
<polygon fill="#191970" stroke="#191970" points="1073.5121,-98.3081 1082.0412,-92.0227 1071.4541,-91.6174 1073.5121,-98.3081"/>
</g>
<!-- Node20 -->
<g id="node21" class="node">
<title>Node20</title>
<g id="a_node21"><a xlink:href="../../dd/d76/Cartesian3D_8h.html" target="_top" xlink:title="MathUtils/Cartesian3D.h">
<polygon fill="none" stroke="#000000" points="681.5,-134.5 681.5,-153.5 816.5,-153.5 816.5,-134.5 681.5,-134.5"/>
<text text-anchor="middle" x="749" y="-141.5" font-family="Helvetica,sans-Serif" font-size="10.00" fill="#000000">MathUtils/Cartesian3D.h</text>
</a>
</g>
</g>
<!-- Node16&#45;&gt;Node20 -->
<g id="edge26" class="edge">
<title>Node16&#45;&gt;Node20</title>
<path fill="none" stroke="#191970" d="M734.1354,-190.2455C736.51,-182.8579 739.8493,-172.4689 742.7615,-163.4087"/>
<polygon fill="#191970" stroke="#191970" points="746.1725,-164.234 745.9006,-153.6427 739.5083,-162.0919 746.1725,-164.234"/>
</g>
<!-- Node18 -->
<g id="node19" class="node">
<title>Node18</title>
<polygon fill="none" stroke="#bfbfbf" points="933,-.5 933,-30.5 1097,-30.5 1097,-.5 933,-.5"/>
<text text-anchor="start" x="941" y="-18.5" font-family="Helvetica,sans-Serif" font-size="10.00" fill="#000000">Math/GenVector/Displacement</text>
<text text-anchor="middle" x="1015" y="-7.5" font-family="Helvetica,sans-Serif" font-size="10.00" fill="#000000">Vector2D.h</text>
</g>
<!-- Node17&#45;&gt;Node18 -->
<g id="edge24" class="edge">
<title>Node17&#45;&gt;Node18</title>
<path fill="none" stroke="#191970" d="M1098.959,-72.9005C1085.0412,-63.3853 1063.272,-48.5023 1045.388,-36.2755"/>
<polygon fill="#191970" stroke="#191970" points="1047.2026,-33.2763 1036.9721,-30.5218 1043.2519,-39.0549 1047.2026,-33.2763"/>
</g>
<!-- Node19 -->
<g id="node20" class="node">
<title>Node19</title>
<polygon fill="none" stroke="#bfbfbf" points="1115.5,-6 1115.5,-25 1304.5,-25 1304.5,-6 1115.5,-6"/>
<text text-anchor="middle" x="1210" y="-13" font-family="Helvetica,sans-Serif" font-size="10.00" fill="#000000">Math/GenVector/PositionVector2D.h</text>
</g>
<!-- Node17&#45;&gt;Node19 -->
<g id="edge25" class="edge">
<title>Node17&#45;&gt;Node19</title>
<path fill="none" stroke="#191970" d="M1126.8977,-72.9005C1142.8164,-61.9052 1169.1121,-43.7422 1187.8599,-30.7927"/>
<polygon fill="#191970" stroke="#191970" points="1189.8892,-33.6448 1196.128,-25.0817 1185.9108,-27.8852 1189.8892,-33.6448"/>
</g>
<!-- Node20&#45;&gt;Node7 -->
<g id="edge32" class="edge">
<title>Node20&#45;&gt;Node7</title>
<path fill="none" stroke="#191970" d="M816.7182,-140.8163C947.7059,-134.2944 1231.2968,-118.3042 1327,-98 1330.6197,-97.2321 1334.3488,-96.2445 1338.033,-95.1403"/>
<polygon fill="#191970" stroke="#191970" points="1339.1605,-98.454 1347.5743,-92.0152 1336.9816,-91.8017 1339.1605,-98.454"/>
</g>
<!-- Node20&#45;&gt;Node17 -->
<g id="edge35" class="edge">
<title>Node20&#45;&gt;Node17</title>
<path fill="none" stroke="#191970" d="M812.9577,-134.4933C871.2015,-125.6591 959.5267,-111.8199 1036,-98 1042.7618,-96.778 1049.8451,-95.4366 1056.8612,-94.07"/>
<polygon fill="#191970" stroke="#191970" points="1057.9138,-97.4299 1067.0474,-92.0609 1056.5591,-90.5622 1057.9138,-97.4299"/>
</g>
<!-- Node21 -->
<g id="node22" class="node">
<title>Node21</title>
<polygon fill="none" stroke="#bfbfbf" points="100,-67.5 100,-97.5 264,-97.5 264,-67.5 100,-67.5"/>
<text text-anchor="start" x="108" y="-85.5" font-family="Helvetica,sans-Serif" font-size="10.00" fill="#000000">Math/GenVector/Displacement</text>
<text text-anchor="middle" x="182" y="-74.5" font-family="Helvetica,sans-Serif" font-size="10.00" fill="#000000">Vector3D.h</text>
</g>
<!-- Node20&#45;&gt;Node21 -->
<g id="edge27" class="edge">
<title>Node20&#45;&gt;Node21</title>
<path fill="none" stroke="#191970" d="M681.4272,-139.0183C590.9806,-132.005 425.3557,-117.9559 274.2316,-98.1082"/>
<polygon fill="#191970" stroke="#191970" points="274.6723,-94.6361 264.2993,-96.7925 273.753,-101.5755 274.6723,-94.6361"/>
</g>
<!-- Node22 -->
<g id="node23" class="node">
<title>Node22</title>
<polygon fill="none" stroke="#bfbfbf" points="282.5,-73 282.5,-92 471.5,-92 471.5,-73 282.5,-73"/>
<text text-anchor="middle" x="377" y="-80" font-family="Helvetica,sans-Serif" font-size="10.00" fill="#000000">Math/GenVector/PositionVector3D.h</text>
</g>
<!-- Node20&#45;&gt;Node22 -->
<g id="edge28" class="edge">
<title>Node20&#45;&gt;Node22</title>
<path fill="none" stroke="#191970" d="M691.2832,-134.4581C624.6629,-123.4443 515.2331,-105.3531 444.666,-93.6867"/>
<polygon fill="#191970" stroke="#191970" points="444.9832,-90.1917 434.5462,-92.0137 443.8413,-97.098 444.9832,-90.1917"/>
</g>
<!-- Node23 -->
<g id="node24" class="node">
<title>Node23</title>
<polygon fill="none" stroke="#bfbfbf" points="490,-73 490,-92 650,-92 650,-73 490,-73"/>
<text text-anchor="middle" x="570" y="-80" font-family="Helvetica,sans-Serif" font-size="10.00" fill="#000000">Math/GenVector/Rotation3D.h</text>
</g>
<!-- Node20&#45;&gt;Node23 -->
<g id="edge29" class="edge">
<title>Node20&#45;&gt;Node23</title>
<path fill="none" stroke="#191970" d="M721.0313,-134.3906C690.4245,-123.8749 641.2101,-106.966 607.3259,-95.3243"/>
<polygon fill="#191970" stroke="#191970" points="608.367,-91.9812 597.7724,-92.0419 606.0924,-98.6014 608.367,-91.9812"/>
</g>
<!-- Node24 -->
<g id="node25" class="node">
<title>Node24</title>
<polygon fill="none" stroke="#bfbfbf" points="668,-73 668,-92 836,-92 836,-73 668,-73"/>
<text text-anchor="middle" x="752" y="-80" font-family="Helvetica,sans-Serif" font-size="10.00" fill="#000000">Math/GenVector/Transform3D.h</text>
</g>
<!-- Node20&#45;&gt;Node24 -->
<g id="edge30" class="edge">
<title>Node20&#45;&gt;Node24</title>
<path fill="none" stroke="#191970" d="M749.4688,-134.3906C749.8846,-125.8657 750.5054,-113.1392 751.0281,-102.4235"/>
<polygon fill="#191970" stroke="#191970" points="754.5332,-102.4035 751.5246,-92.2449 747.5415,-102.0624 754.5332,-102.4035"/>
</g>
<!-- Node25 -->
<g id="node26" class="node">
<title>Node25</title>
<polygon fill="none" stroke="#bfbfbf" points="854.5,-73 854.5,-92 1027.5,-92 1027.5,-73 854.5,-73"/>
<text text-anchor="middle" x="941" y="-80" font-family="Helvetica,sans-Serif" font-size="10.00" fill="#000000">Math/GenVector/Translation3D.h</text>
</g>
<!-- Node20&#45;&gt;Node25 -->
<g id="edge31" class="edge">
<title>Node20&#45;&gt;Node25</title>
<path fill="none" stroke="#191970" d="M779,-134.3906C811.9705,-123.8298 865.0717,-106.8208 901.4303,-95.1747"/>
<polygon fill="#191970" stroke="#191970" points="902.755,-98.4256 911.2107,-92.0419 900.6196,-91.7592 902.755,-98.4256"/>
</g>
<!-- Node26 -->
<g id="node27" class="node">
<title>Node26</title>
<polygon fill="none" stroke="#bfbfbf" points="0,-73 0,-92 82,-92 82,-73 0,-73"/>
<text text-anchor="middle" x="41" y="-80" font-family="Helvetica,sans-Serif" font-size="10.00" fill="#000000">TGeoMatrix.h</text>
</g>
<!-- Node20&#45;&gt;Node26 -->
<g id="edge33" class="edge">
<title>Node20&#45;&gt;Node26</title>
<path fill="none" stroke="#191970" d="M681.2325,-141.248C536.7931,-135.0583 202.7125,-118.929 91,-98 86.5588,-97.168 81.9567,-96.0744 77.4238,-94.8524"/>
<polygon fill="#191970" stroke="#191970" points="78.2798,-91.4564 67.7002,-92.0236 76.3243,-98.1778 78.2798,-91.4564"/>
</g>
<!-- Node27 -->
<g id="node28" class="node">
<title>Node27</title>
<polygon fill="none" stroke="#bfbfbf" points="1269.5,-73 1269.5,-92 1318.5,-92 1318.5,-73 1269.5,-73"/>
<text text-anchor="middle" x="1294" y="-80" font-family="Helvetica,sans-Serif" font-size="10.00" fill="#000000">iosfwd</text>
</g>
<!-- Node20&#45;&gt;Node27 -->
<g id="edge34" class="edge">
<title>Node20&#45;&gt;Node27</title>
<path fill="none" stroke="#191970" d="M816.5659,-137.8333C903.0237,-129.7365 1057.3602,-114.5899 1189,-98 1212.5082,-95.0374 1238.8915,-91.1404 1259.3306,-87.9951"/>
<polygon fill="#191970" stroke="#191970" points="1260.0854,-91.42 1269.4304,-86.4278 1259.0119,-84.5028 1260.0854,-91.42"/>
</g>
<!-- Node29&#45;&gt;Node28 -->
<g id="edge41" class="edge">
<title>Node29&#45;&gt;Node28</title>
<path fill="none" stroke="#191970" d="M947.574,-358.2455C951.9331,-350.617 958.1211,-339.7881 963.4133,-330.5267"/>
<polygon fill="#191970" stroke="#191970" points="966.5673,-332.0616 968.4899,-321.6427 960.4896,-328.5886 966.5673,-332.0616"/>
</g>
<!-- Node29&#45;&gt;Node30 -->
<g id="edge38" class="edge">
<title>Node29&#45;&gt;Node30</title>
<path fill="none" stroke="#191970" d="M934.4169,-358.2703C927.7244,-349.2861 918.1089,-335.3518 912,-322 905.1788,-307.0913 900.2038,-289.1577 897.0596,-275.7496"/>
<polygon fill="#191970" stroke="#191970" points="900.4189,-274.7293 894.8488,-265.7169 893.5829,-276.2358 900.4189,-274.7293"/>
</g>
<!-- Node30&#45;&gt;Node16 -->
<g id="edge40" class="edge">
<title>Node30&#45;&gt;Node16</title>
<path fill="none" stroke="#191970" d="M865.1512,-246.3733C838.3297,-237.1016 797.5873,-223.0178 768.0402,-212.804"/>
<polygon fill="#191970" stroke="#191970" points="769.0802,-209.4603 758.4854,-209.5011 766.7931,-216.0762 769.0802,-209.4603"/>
</g>
<!-- Node31 -->
<g id="node32" class="node">
<title>Node31</title>
<g id="a_node32"><a xlink:href="../../d0/dda/DataFormats_2Detectors_2TPC_2include_2DataFormatsTPC_2Constants_8h.html" target="_top" xlink:title="DataFormatsTPC/Constants.h">
<polygon fill="none" stroke="#000000" points="815.5,-190.5 815.5,-209.5 974.5,-209.5 974.5,-190.5 815.5,-190.5"/>
<text text-anchor="middle" x="895" y="-197.5" font-family="Helvetica,sans-Serif" font-size="10.00" fill="#000000">DataFormatsTPC/Constants.h</text>
</a>
</g>
</g>
<!-- Node30&#45;&gt;Node31 -->
<g id="edge39" class="edge">
<title>Node30&#45;&gt;Node31</title>
<path fill="none" stroke="#191970" d="M893.3484,-246.2455C893.6093,-238.9382 893.9752,-228.6944 894.2963,-219.7046"/>
<polygon fill="#191970" stroke="#191970" points="897.7964,-219.7613 894.6556,-209.6427 890.8008,-219.5113 897.7964,-219.7613"/>
</g>
<!-- Node32&#45;&gt;Node16 -->
<g id="edge43" class="edge">
<title>Node32&#45;&gt;Node16</title>
<path fill="none" stroke="#191970" d="M732.559,-358.2076C741.0009,-349.6048 752.1906,-336.2634 757,-322 768.9878,-286.4473 752.8419,-243.1396 741.1513,-218.8566"/>
<polygon fill="#191970" stroke="#191970" points="744.1502,-217.0314 736.5088,-209.6924 737.9057,-220.1948 744.1502,-217.0314"/>
</g>
<!-- Node32&#45;&gt;Node28 -->
<g id="edge47" class="edge">
<title>Node32&#45;&gt;Node28</title>
<path fill="none" stroke="#191970" d="M765.034,-358.4369C808.2525,-348.8328 874.9141,-334.0191 921.2818,-323.7152"/>
<polygon fill="#191970" stroke="#191970" points="922.1409,-327.1097 931.1435,-321.5237 920.6223,-320.2764 922.1409,-327.1097"/>
</g>
<!-- Node33 -->
<g id="node34" class="node">
<title>Node33</title>
<g id="a_node34"><a xlink:href="../../dc/d14/ROC_8h.html" target="_top" xlink:title="TPCBase/ROC.h">
<polygon fill="none" stroke="#000000" points="656,-302.5 656,-321.5 748,-321.5 748,-302.5 656,-302.5"/>
<text text-anchor="middle" x="702" y="-309.5" font-family="Helvetica,sans-Serif" font-size="10.00" fill="#000000">TPCBase/ROC.h</text>
</a>
</g>
</g>
<!-- Node32&#45;&gt;Node33 -->
<g id="edge44" class="edge">
<title>Node32&#45;&gt;Node33</title>
<path fill="none" stroke="#191970" d="M718.5163,-358.2455C715.8492,-350.7776 712.0867,-340.2427 708.8263,-331.1137"/>
<polygon fill="#191970" stroke="#191970" points="712.1033,-329.8829 705.4438,-321.6427 705.5111,-332.2373 712.1033,-329.8829"/>
</g>
<!-- Node33&#45;&gt;Node16 -->
<g id="edge45" class="edge">
<title>Node33&#45;&gt;Node16</title>
<path fill="none" stroke="#191970" d="M704.4725,-302.4509C709.2238,-284.1013 719.7131,-243.5908 725.9847,-219.3693"/>
<polygon fill="#191970" stroke="#191970" points="729.4153,-220.083 728.5337,-209.5249 722.6388,-218.3283 729.4153,-220.083"/>
</g>
<!-- Node33&#45;&gt;Node30 -->
<g id="edge46" class="edge">
<title>Node33&#45;&gt;Node30</title>
<path fill="none" stroke="#191970" d="M734.8341,-302.3733C766.8695,-292.9807 815.7487,-278.6496 850.6855,-268.4064"/>
<polygon fill="#191970" stroke="#191970" points="851.9831,-271.6733 860.5944,-265.5011 850.0136,-264.9561 851.9831,-271.6733"/>
</g>
<!-- Node34&#45;&gt;Node16 -->
<g id="edge49" class="edge">
<title>Node34&#45;&gt;Node16</title>
<path fill="none" stroke="#191970" d="M736.1302,-415.1688C757.9732,-408.6895 780.8678,-397.4599 794,-378 811.6407,-351.8592 837.1678,-382.5424 770,-246 764.7315,-235.2898 756.4214,-224.9965 748.8234,-216.8725"/>
<polygon fill="#191970" stroke="#191970" points="751.1114,-214.2077 741.6018,-209.5367 746.123,-219.1184 751.1114,-214.2077"/>
</g>
<!-- Node34&#45;&gt;Node28 -->
<g id="edge54" class="edge">
<title>Node34&#45;&gt;Node28</title>
<path fill="none" stroke="#191970" d="M715.4409,-414.4312C745.7111,-405.9164 790.2214,-392.5812 828,-378 847.6634,-370.4106 851.8213,-366.7422 871,-358 895.1527,-346.9906 922.6018,-334.7449 943.0869,-325.6579"/>
<polygon fill="#191970" stroke="#191970" points="944.53,-328.8467 952.2548,-321.5956 941.6942,-322.4468 944.53,-328.8467"/>
</g>
<!-- Node34&#45;&gt;Node29 -->
<g id="edge55" class="edge">
<title>Node34&#45;&gt;Node29</title>
<path fill="none" stroke="#191970" d="M724.7417,-414.4369C769.7694,-404.8127 839.2728,-389.957 887.4927,-379.6504"/>
<polygon fill="#191970" stroke="#191970" points="888.3953,-383.0366 897.4428,-377.5237 886.9321,-376.1912 888.3953,-383.0366"/>
</g>
<!-- Node34&#45;&gt;Node35 -->
<g id="edge50" class="edge">
<title>Node34&#45;&gt;Node35</title>
<path fill="none" stroke="#191970" d="M665.0199,-414.2455C651.8249,-405.6534 632.3949,-393.0014 617.1921,-383.1018"/>
<polygon fill="#191970" stroke="#191970" points="619.0983,-380.1665 608.8084,-377.6427 615.2785,-386.0325 619.0983,-380.1665"/>
</g>
<!-- Node35&#45;&gt;Node16 -->
<g id="edge51" class="edge">
<title>Node35&#45;&gt;Node16</title>
<path fill="none" stroke="#191970" d="M596.4979,-358.3979C600.301,-344.9478 608.4535,-320.1161 621,-302 645.6959,-266.3413 684.8159,-233.9087 709.1396,-215.597"/>
<polygon fill="#191970" stroke="#191970" points="711.415,-218.2675 717.3774,-209.5097 707.2549,-212.6378 711.415,-218.2675"/>
</g>
<!-- Node35&#45;&gt;Node30 -->
<g id="edge52" class="edge">
<title>Node35&#45;&gt;Node30</title>
<path fill="none" stroke="#191970" d="M598.9733,-358.0882C606.9461,-343.3021 624.0534,-315.7403 647,-302 677.5439,-283.7104 769.7899,-269.9867 832.225,-262.478"/>
<polygon fill="#191970" stroke="#191970" points="832.8385,-265.93 842.3593,-261.282 832.018,-258.9782 832.8385,-265.93"/>
</g>
<!-- Node35&#45;&gt;Node33 -->
<g id="edge53" class="edge">
<title>Node35&#45;&gt;Node33</title>
<path fill="none" stroke="#191970" d="M612.8122,-358.2455C629.8473,-349.4125 655.1575,-336.2887 674.4681,-326.2758"/>
<polygon fill="#191970" stroke="#191970" points="676.137,-329.353 683.4034,-321.6427 672.9147,-323.1388 676.137,-329.353"/>
</g>
<!-- Node36&#45;&gt;Node27 -->
<g id="edge57" class="edge">
<title>Node36&#45;&gt;Node27</title>
<path fill="none" stroke="#191970" d="M1330.8476,-246.4248C1324.6828,-218.999 1306.8648,-139.732 1298.4724,-102.3964"/>
<polygon fill="#191970" stroke="#191970" points="1301.8018,-101.2485 1296.1938,-92.2595 1294.9722,-102.7837 1301.8018,-101.2485"/>
</g>
<!-- Node37&#45;&gt;Node2 -->
<g id="edge59" class="edge">
<title>Node37&#45;&gt;Node2</title>
<path fill="none" stroke="#191970" d="M1220.6317,-414.2455C1233.3994,-405.7337 1252.1438,-393.2375 1266.9299,-383.3801"/>
<polygon fill="#191970" stroke="#191970" points="1269.1569,-386.1019 1275.536,-377.6427 1265.274,-380.2775 1269.1569,-386.1019"/>
</g>
<!-- Node37&#45;&gt;Node16 -->
<g id="edge60" class="edge">
<title>Node37&#45;&gt;Node16</title>
<path fill="none" stroke="#191970" d="M1195.624,-414.3894C1171.9853,-392.7646 1111.8458,-339.261 1056,-302 1012.3307,-272.8633 1001.322,-263.9803 952,-246 905.3727,-229.002 850.7972,-217.5647 807.5466,-210.346"/>
<polygon fill="#191970" stroke="#191970" points="808.0875,-206.888 797.6549,-208.7353 806.9624,-213.797 808.0875,-206.888"/>
</g>
<!-- Node37&#45;&gt;Node28 -->
<g id="edge61" class="edge">
<title>Node37&#45;&gt;Node28</title>
<path fill="none" stroke="#191970" d="M1186.2198,-414.4509C1145.2136,-394.6548 1050.7802,-349.0663 1002.9249,-325.9638"/>
<polygon fill="#191970" stroke="#191970" points="1004.2573,-322.7205 993.7301,-321.5249 1001.214,-329.0244 1004.2573,-322.7205"/>
</g>
<!-- Node40 -->
<g id="node41" class="node">
<title>Node40</title>
<polygon fill="none" stroke="#bfbfbf" points="2027,-414.5 2027,-433.5 2085,-433.5 2085,-414.5 2027,-414.5"/>
<text text-anchor="middle" x="2056" y="-421.5" font-family="Helvetica,sans-Serif" font-size="10.00" fill="#000000">memory</text>
</g>
<!-- Node39&#45;&gt;Node40 -->
<g id="edge67" class="edge">
<title>Node39&#45;&gt;Node40</title>
<path fill="none" stroke="#191970" d="M1980.0252,-470.2455C1994.1408,-461.6534 2014.9263,-449.0014 2031.1899,-439.1018"/>
<polygon fill="#191970" stroke="#191970" points="2033.4363,-441.8319 2040.1585,-433.6427 2029.7966,-435.8525 2033.4363,-441.8319"/>
</g>
<!-- Node41 -->
<g id="node42" class="node">
<title>Node41</title>
<polygon fill="none" stroke="#bfbfbf" points="2103,-414.5 2103,-433.5 2153,-433.5 2153,-414.5 2103,-414.5"/>
<text text-anchor="middle" x="2128" y="-421.5" font-family="Helvetica,sans-Serif" font-size="10.00" fill="#000000">cstring</text>
</g>
<!-- Node39&#45;&gt;Node41 -->
<g id="edge68" class="edge">
<title>Node39&#45;&gt;Node41</title>
<path fill="none" stroke="#191970" d="M1992.1926,-470.3733C2020.1681,-460.8207 2063.1033,-446.1598 2093.1898,-435.8864"/>
<polygon fill="#191970" stroke="#191970" points="2094.5278,-439.128 2102.8603,-432.5843 2092.2658,-432.5036 2094.5278,-439.128"/>
</g>
<!-- Node42 -->
<g id="node43" class="node">
<title>Node42</title>
<g id="a_node43"><a xlink:href="../../d3/dc4/ClusterHardware_8h.html" target="_top" xlink:title="Class of a TPC cluster as produced by the hardware cluster finder (needs a postprocessing step to con...">
<polygon fill="none" stroke="#000000" points="2171,-414.5 2171,-433.5 2363,-433.5 2363,-414.5 2171,-414.5"/>
<text text-anchor="middle" x="2267" y="-421.5" font-family="Helvetica,sans-Serif" font-size="10.00" fill="#000000">DataFormatsTPC/ClusterHardware.h</text>
</a>
</g>
</g>
<!-- Node39&#45;&gt;Node42 -->
<g id="edge69" class="edge">
<title>Node39&#45;&gt;Node42</title>
<path fill="none" stroke="#191970" d="M2015.7433,-470.4369C2068.253,-460.7321 2149.5444,-445.708 2205.3577,-435.3926"/>
<polygon fill="#191970" stroke="#191970" points="2206.2728,-438.7829 2215.4701,-433.5237 2205.0006,-431.8994 2206.2728,-438.7829"/>
</g>
<!-- Node43 -->
<g id="node44" class="node">
<title>Node43</title>
<polygon fill="none" stroke="#bfbfbf" points="2100,-358.5 2100,-377.5 2150,-377.5 2150,-358.5 2100,-358.5"/>
<text text-anchor="middle" x="2125" y="-365.5" font-family="Helvetica,sans-Serif" font-size="10.00" fill="#000000">cstdint</text>
</g>
<!-- Node42&#45;&gt;Node43 -->
<g id="edge70" class="edge">
<title>Node42&#45;&gt;Node43</title>
<path fill="none" stroke="#191970" d="M2242.5893,-414.3733C2219.3858,-405.2226 2184.2962,-391.3844 2158.4858,-381.2057"/>
<polygon fill="#191970" stroke="#191970" points="2159.6789,-377.9139 2149.0921,-377.5011 2157.1108,-384.4258 2159.6789,-377.9139"/>
</g>
<!-- Node44&#45;&gt;Node8 -->
<g id="edge74" class="edge">
<title>Node44&#45;&gt;Node8</title>
<path fill="none" stroke="#191970" d="M1891.6836,-414.3733C1871.7784,-405.3838 1841.8564,-391.8706 1819.44,-381.7471"/>
<polygon fill="#191970" stroke="#191970" points="1820.5925,-378.4272 1810.0382,-377.5011 1817.7113,-384.8068 1820.5925,-378.4272"/>
</g>
<!-- Node44&#45;&gt;Node43 -->
<g id="edge72" class="edge">
<title>Node44&#45;&gt;Node43</title>
<path fill="none" stroke="#191970" d="M1949.4441,-414.3733C1988.8932,-403.9527 2051.3542,-387.4536 2090.1641,-377.2019"/>
<polygon fill="#191970" stroke="#191970" points="2091.194,-380.55 2099.9685,-374.6121 2089.4062,-373.7821 2091.194,-380.55"/>
</g>
<!-- Node45 -->
<g id="node46" class="node">
<title>Node45</title>
<polygon fill="none" stroke="#bfbfbf" points="1886.5,-358.5 1886.5,-377.5 1939.5,-377.5 1939.5,-358.5 1886.5,-358.5"/>
<text text-anchor="middle" x="1913" y="-365.5" font-family="Helvetica,sans-Serif" font-size="10.00" fill="#000000">cstddef</text>
</g>
<!-- Node44&#45;&gt;Node45 -->
<g id="edge73" class="edge">
<title>Node44&#45;&gt;Node45</title>
<path fill="none" stroke="#191970" d="M1913,-414.2455C1913,-406.9382 1913,-396.6944 1913,-387.7046"/>
<polygon fill="#191970" stroke="#191970" points="1916.5001,-387.6426 1913,-377.6427 1909.5001,-387.6427 1916.5001,-387.6426"/>
</g>
</g>
</svg>
