<?xml version="1.0" encoding="UTF-8" standalone="no"?>
<!DOCTYPE svg PUBLIC "-//W3C//DTD SVG 1.1//EN"
 "http://www.w3.org/Graphics/SVG/1.1/DTD/svg11.dtd">
<!-- Generated by graphviz version 2.40.1 (20161225.0304)
 -->
<!-- Title: /home/travis/build/AliceO2Group/AliceO2/Detectors/MUON/MCH/Raw/Encoder/Payload/UserLogicElinkEncoderMerger.h Pages: 1 -->
<svg width="1102pt" height="352pt"
 viewBox="0.00 0.00 1102.00 352.00" xmlns="http://www.w3.org/2000/svg" xmlns:xlink="http://www.w3.org/1999/xlink">
<g id="graph0" class="graph" transform="scale(1 1) rotate(0) translate(4 348)">
<title>/home/travis/build/AliceO2Group/AliceO2/Detectors/MUON/MCH/Raw/Encoder/Payload/UserLogicElinkEncoderMerger.h</title>
<!-- Node0 -->
<g id="node1" class="node">
<title>Node0</title>
<polygon fill="#bfbfbf" stroke="#000000" points="518,-280.5 518,-343.5 693,-343.5 693,-280.5 518,-280.5"/>
<text text-anchor="start" x="526" y="-331.5" font-family="Helvetica,sans-Serif" font-size="10.00" fill="#000000">/home/travis/build</text>
<text text-anchor="start" x="526" y="-320.5" font-family="Helvetica,sans-Serif" font-size="10.00" fill="#000000">/AliceO2Group/AliceO2</text>
<text text-anchor="start" x="526" y="-309.5" font-family="Helvetica,sans-Serif" font-size="10.00" fill="#000000">/Detectors/MUON/MCH/Raw</text>
<text text-anchor="start" x="526" y="-298.5" font-family="Helvetica,sans-Serif" font-size="10.00" fill="#000000">/Encoder/Payload/UserLogicElink</text>
<text text-anchor="middle" x="605.5" y="-287.5" font-family="Helvetica,sans-Serif" font-size="10.00" fill="#000000">EncoderMerger.h</text>
</g>
<!-- Node1 -->
<g id="node2" class="node">
<title>Node1</title>
<g id="a_node2"><a xlink:href="../../d8/d97/UserLogicElinkEncoder_8h.html" target="_top" xlink:title="UserLogicElinkEncoder.h">
<polygon fill="none" stroke="#000000" points="537.5,-224.5 537.5,-243.5 673.5,-243.5 673.5,-224.5 537.5,-224.5"/>
<text text-anchor="middle" x="605.5" y="-231.5" font-family="Helvetica,sans-Serif" font-size="10.00" fill="#000000">UserLogicElinkEncoder.h</text>
</a>
</g>
</g>
<!-- Node0&#45;&gt;Node1 -->
<g id="edge1" class="edge">
<title>Node0&#45;&gt;Node1</title>
<path fill="none" stroke="#191970" d="M605.5,-280.2744C605.5,-271.3302 605.5,-261.8568 605.5,-253.8269"/>
<polygon fill="#191970" stroke="#191970" points="609.0001,-253.6425 605.5,-243.6426 602.0001,-253.6426 609.0001,-253.6425"/>
</g>
<!-- Node3 -->
<g id="node4" class="node">
<title>Node3</title>
<polygon fill="none" stroke="#bfbfbf" points="1015,-56.5 1015,-75.5 1094,-75.5 1094,-56.5 1015,-56.5"/>
<text text-anchor="middle" x="1054.5" y="-63.5" font-family="Helvetica,sans-Serif" font-size="10.00" fill="#000000">fmt/format.h</text>
</g>
<!-- Node0&#45;&gt;Node3 -->
<g id="edge38" class="edge">
<title>Node0&#45;&gt;Node3</title>
<path fill="none" stroke="#191970" d="M693.2466,-301.5133C815.768,-284.8611 1028.3207,-247.9755 1074.5,-188 1097.838,-157.6897 1078.9853,-110.4493 1065.3771,-84.5445"/>
<polygon fill="#191970" stroke="#191970" points="1068.4142,-82.804 1060.5174,-75.7407 1062.2859,-86.1869 1068.4142,-82.804"/>
</g>
<!-- Node12 -->
<g id="node13" class="node">
<title>Node12</title>
<g id="a_node13"><a xlink:href="../../d0/d64/DataFormats_8h.html" target="_top" xlink:title="MCHRawCommon/DataFormats.h">
<polygon fill="none" stroke="#000000" points="0,-56.5 0,-75.5 179,-75.5 179,-56.5 0,-56.5"/>
<text text-anchor="middle" x="89.5" y="-63.5" font-family="Helvetica,sans-Serif" font-size="10.00" fill="#000000">MCHRawCommon/DataFormats.h</text>
</a>
</g>
</g>
<!-- Node0&#45;&gt;Node12 -->
<g id="edge37" class="edge">
<title>Node0&#45;&gt;Node12</title>
<path fill="none" stroke="#191970" d="M517.6201,-290.7563C436.2931,-269.612 312.9972,-233.7469 211.5,-188 167.5132,-168.1742 150.3649,-168.2289 118.5,-132 106.6438,-118.52 98.9695,-99.4258 94.5129,-85.2406"/>
<polygon fill="#191970" stroke="#191970" points="97.8458,-84.1659 91.7162,-75.5242 91.1189,-86.1022 97.8458,-84.1659"/>
</g>
<!-- Node2 -->
<g id="node3" class="node">
<title>Node2</title>
<g id="a_node3"><a xlink:href="../../dc/d46/Assertions_8h.html" target="_top" xlink:title="Assertions.h">
<polygon fill="none" stroke="#000000" points="988,-168.5 988,-187.5 1065,-187.5 1065,-168.5 988,-168.5"/>
<text text-anchor="middle" x="1026.5" y="-175.5" font-family="Helvetica,sans-Serif" font-size="10.00" fill="#000000">Assertions.h</text>
</a>
</g>
</g>
<!-- Node1&#45;&gt;Node2 -->
<g id="edge2" class="edge">
<title>Node1&#45;&gt;Node2</title>
<path fill="none" stroke="#191970" d="M673.5027,-226.7803C747.4924,-218.6267 869.1796,-204.3454 973.5,-188 974.9454,-187.7735 976.4119,-187.5374 977.8914,-187.2938"/>
<polygon fill="#191970" stroke="#191970" points="978.4986,-190.7408 987.7608,-185.5968 977.3123,-183.842 978.4986,-190.7408"/>
</g>
<!-- Node4 -->
<g id="node5" class="node">
<title>Node4</title>
<g id="a_node5"><a xlink:href="../../df/d0f/ElinkEncoder_8h.html" target="_top" xlink:title="ElinkEncoder.h">
<polygon fill="none" stroke="#000000" points="151.5,-112.5 151.5,-131.5 239.5,-131.5 239.5,-112.5 151.5,-112.5"/>
<text text-anchor="middle" x="195.5" y="-119.5" font-family="Helvetica,sans-Serif" font-size="10.00" fill="#000000">ElinkEncoder.h</text>
</a>
</g>
</g>
<!-- Node1&#45;&gt;Node4 -->
<g id="edge4" class="edge">
<title>Node1&#45;&gt;Node4</title>
<path fill="none" stroke="#191970" d="M537.4211,-224.5371C488.4842,-216.8961 421.2283,-204.668 363.5,-188 313.7655,-173.64 258.2627,-150.3306 225.1452,-135.6011"/>
<polygon fill="#191970" stroke="#191970" points="226.5758,-132.4069 216.0193,-131.5068 223.7104,-138.7935 226.5758,-132.4069"/>
</g>
<!-- Node5 -->
<g id="node6" class="node">
<title>Node5</title>
<polygon fill="none" stroke="#bfbfbf" points="380,-56.5 380,-75.5 427,-75.5 427,-56.5 380,-56.5"/>
<text text-anchor="middle" x="403.5" y="-63.5" font-family="Helvetica,sans-Serif" font-size="10.00" fill="#000000">vector</text>
</g>
<!-- Node1&#45;&gt;Node5 -->
<g id="edge36" class="edge">
<title>Node1&#45;&gt;Node5</title>
<path fill="none" stroke="#191970" d="M579.9759,-224.4381C543.4674,-209.6318 476.1571,-177.9868 434.5,-132 422.3094,-118.5423 414.0475,-99.4454 409.1389,-85.2535"/>
<polygon fill="#191970" stroke="#191970" points="412.4096,-83.99 406.0294,-75.5316 405.7423,-86.1226 412.4096,-83.99"/>
</g>
<!-- Node8 -->
<g id="node9" class="node">
<title>Node8</title>
<g id="a_node9"><a xlink:href="../../d4/ddc/EncoderImplHelper_8h.html" target="_top" xlink:title="EncoderImplHelper.h">
<polygon fill="none" stroke="#000000" points="546.5,-168.5 546.5,-187.5 664.5,-187.5 664.5,-168.5 546.5,-168.5"/>
<text text-anchor="middle" x="605.5" y="-175.5" font-family="Helvetica,sans-Serif" font-size="10.00" fill="#000000">EncoderImplHelper.h</text>
</a>
</g>
</g>
<!-- Node1&#45;&gt;Node8 -->
<g id="edge8" class="edge">
<title>Node1&#45;&gt;Node8</title>
<path fill="none" stroke="#191970" d="M605.5,-224.2455C605.5,-216.9382 605.5,-206.6944 605.5,-197.7046"/>
<polygon fill="#191970" stroke="#191970" points="609.0001,-197.6426 605.5,-187.6427 602.0001,-197.6427 609.0001,-197.6426"/>
</g>
<!-- Node9 -->
<g id="node10" class="node">
<title>Node9</title>
<g id="a_node10"><a xlink:href="../../d0/d5b/SampaCluster_8h.html" target="_top" xlink:title="MCHRawCommon/SampaCluster.h">
<polygon fill="none" stroke="#000000" points="469.5,-112.5 469.5,-131.5 653.5,-131.5 653.5,-112.5 469.5,-112.5"/>
<text text-anchor="middle" x="561.5" y="-119.5" font-family="Helvetica,sans-Serif" font-size="10.00" fill="#000000">MCHRawCommon/SampaCluster.h</text>
</a>
</g>
</g>
<!-- Node1&#45;&gt;Node9 -->
<g id="edge23" class="edge">
<title>Node1&#45;&gt;Node9</title>
<path fill="none" stroke="#191970" d="M580.6745,-224.4395C565.2121,-217.0336 546.5888,-205.1213 537.5,-188 529.2465,-172.4521 537.9357,-153.4494 547.0825,-139.8338"/>
<polygon fill="#191970" stroke="#191970" points="549.912,-141.8939 552.9859,-131.7548 544.2601,-137.764 549.912,-141.8939"/>
</g>
<!-- Node10 -->
<g id="node11" class="node">
<title>Node10</title>
<polygon fill="none" stroke="#bfbfbf" points="777,-56.5 777,-75.5 826,-75.5 826,-56.5 777,-56.5"/>
<text text-anchor="middle" x="801.5" y="-63.5" font-family="Helvetica,sans-Serif" font-size="10.00" fill="#000000">cstdlib</text>
</g>
<!-- Node1&#45;&gt;Node10 -->
<g id="edge34" class="edge">
<title>Node1&#45;&gt;Node10</title>
<path fill="none" stroke="#191970" d="M657.5168,-224.4803C735.9157,-208.8634 877.9484,-175.1775 903.5,-132 921.5174,-101.5538 872.138,-82.6714 835.9436,-73.2698"/>
<polygon fill="#191970" stroke="#191970" points="836.6975,-69.851 826.1516,-70.8677 835.0297,-76.6494 836.6975,-69.851"/>
</g>
<!-- Node1&#45;&gt;Node12 -->
<g id="edge22" class="edge">
<title>Node1&#45;&gt;Node12</title>
<path fill="none" stroke="#191970" d="M537.3302,-227.2349C475.6574,-220.2622 382.6471,-207.616 303.5,-188 229.9643,-169.7748 204.4022,-175.6781 142.5,-132 124.7703,-119.49 109.8611,-99.4543 100.4169,-84.7362"/>
<polygon fill="#191970" stroke="#191970" points="103.2437,-82.6511 95.0253,-75.9647 97.2802,-86.3168 103.2437,-82.6511"/>
</g>
<!-- Node13 -->
<g id="node14" class="node">
<title>Node13</title>
<g id="a_node14"><a xlink:href="../../d5/d49/SampaHeader_8h.html" target="_top" xlink:title="MCHRawCommon/SampaHeader.h">
<polygon fill="none" stroke="#000000" points="709,-112.5 709,-131.5 894,-131.5 894,-112.5 709,-112.5"/>
<text text-anchor="middle" x="801.5" y="-119.5" font-family="Helvetica,sans-Serif" font-size="10.00" fill="#000000">MCHRawCommon/SampaHeader.h</text>
</a>
</g>
</g>
<!-- Node1&#45;&gt;Node13 -->
<g id="edge24" class="edge">
<title>Node1&#45;&gt;Node13</title>
<path fill="none" stroke="#191970" d="M620.174,-224.4583C640.5973,-211.2917 678.8763,-187.0232 712.5,-168 732.2981,-156.7989 755.0953,-145.0371 772.6604,-136.2108"/>
<polygon fill="#191970" stroke="#191970" points="774.4462,-139.2312 781.8283,-131.6315 771.3182,-132.9689 774.4462,-139.2312"/>
</g>
<!-- Node14 -->
<g id="node15" class="node">
<title>Node14</title>
<g id="a_node15"><a xlink:href="../../d7/d42/MoveBuffer_8h.html" target="_top" xlink:title="MoveBuffer.h">
<polygon fill="none" stroke="#000000" points="295.5,-112.5 295.5,-131.5 375.5,-131.5 375.5,-112.5 295.5,-112.5"/>
<text text-anchor="middle" x="335.5" y="-119.5" font-family="Helvetica,sans-Serif" font-size="10.00" fill="#000000">MoveBuffer.h</text>
</a>
</g>
</g>
<!-- Node1&#45;&gt;Node14 -->
<g id="edge25" class="edge">
<title>Node1&#45;&gt;Node14</title>
<path fill="none" stroke="#191970" d="M537.4297,-224.5278C483.7579,-216.1438 414.0123,-202.9427 389.5,-188 370.6271,-176.4951 355.4011,-155.9619 345.9873,-140.8439"/>
<polygon fill="#191970" stroke="#191970" points="348.7648,-138.6647 340.6605,-131.8404 342.7403,-142.2291 348.7648,-138.6647"/>
</g>
<!-- Node15 -->
<g id="node16" class="node">
<title>Node15</title>
<g id="a_node16"><a xlink:href="../../dd/d02/NofBits_8h.html" target="_top" xlink:title="NofBits.h">
<polygon fill="none" stroke="#000000" points="949.5,-112.5 949.5,-131.5 1011.5,-131.5 1011.5,-112.5 949.5,-112.5"/>
<text text-anchor="middle" x="980.5" y="-119.5" font-family="Helvetica,sans-Serif" font-size="10.00" fill="#000000">NofBits.h</text>
</a>
</g>
</g>
<!-- Node1&#45;&gt;Node15 -->
<g id="edge29" class="edge">
<title>Node1&#45;&gt;Node15</title>
<path fill="none" stroke="#191970" d="M673.666,-230.9498C757.2276,-226.1164 892.9856,-214.3851 935.5,-188 953.1162,-177.0671 965.5039,-156.395 972.7621,-141.0873"/>
<polygon fill="#191970" stroke="#191970" points="976.1426,-142.0949 976.9687,-131.5323 969.736,-139.2744 976.1426,-142.0949"/>
</g>
<!-- Node18 -->
<g id="node19" class="node">
<title>Node18</title>
<polygon fill="none" stroke="#bfbfbf" points="721,-168.5 721,-187.5 792,-187.5 792,-168.5 721,-168.5"/>
<text text-anchor="middle" x="756.5" y="-175.5" font-family="Helvetica,sans-Serif" font-size="10.00" fill="#000000">fmt/printf.h</text>
</g>
<!-- Node1&#45;&gt;Node18 -->
<g id="edge35" class="edge">
<title>Node1&#45;&gt;Node18</title>
<path fill="none" stroke="#191970" d="M631.4578,-224.3733C656.2407,-215.1822 693.7746,-201.2624 721.254,-191.0713"/>
<polygon fill="#191970" stroke="#191970" points="722.7219,-194.26 730.8809,-187.5011 720.2879,-187.6968 722.7219,-194.26"/>
</g>
<!-- Node2&#45;&gt;Node3 -->
<g id="edge3" class="edge">
<title>Node2&#45;&gt;Node3</title>
<path fill="none" stroke="#191970" d="M1028.8873,-168.4509C1033.4747,-150.1013 1043.6023,-109.5908 1049.6577,-85.3693"/>
<polygon fill="#191970" stroke="#191970" points="1053.0888,-86.0752 1052.1188,-75.5249 1046.2978,-84.3774 1053.0888,-86.0752"/>
</g>
<!-- Node4&#45;&gt;Node5 -->
<g id="edge5" class="edge">
<title>Node4&#45;&gt;Node5</title>
<path fill="none" stroke="#191970" d="M231.2565,-112.3733C270.1151,-101.9113 331.7312,-85.3224 369.7742,-75.08"/>
<polygon fill="#191970" stroke="#191970" points="371.0945,-78.3493 379.8407,-72.3698 369.2746,-71.59 371.0945,-78.3493"/>
</g>
<!-- Node6 -->
<g id="node7" class="node">
<title>Node6</title>
<polygon fill="none" stroke="#bfbfbf" points="123.5,-.5 123.5,-19.5 173.5,-19.5 173.5,-.5 123.5,-.5"/>
<text text-anchor="middle" x="148.5" y="-7.5" font-family="Helvetica,sans-Serif" font-size="10.00" fill="#000000">cstdint</text>
</g>
<!-- Node4&#45;&gt;Node6 -->
<g id="edge6" class="edge">
<title>Node4&#45;&gt;Node6</title>
<path fill="none" stroke="#191970" d="M196.0273,-112.146C196.3646,-98.8297 195.6333,-74.615 187.5,-56 182.784,-45.2065 174.6813,-35.016 167.0792,-26.9829"/>
<polygon fill="#191970" stroke="#191970" points="169.345,-24.2999 159.788,-19.7266 164.4071,-29.2615 169.345,-24.2999"/>
</g>
<!-- Node7 -->
<g id="node8" class="node">
<title>Node7</title>
<polygon fill="none" stroke="#bfbfbf" points="239,-56.5 239,-75.5 296,-75.5 296,-56.5 239,-56.5"/>
<text text-anchor="middle" x="267.5" y="-63.5" font-family="Helvetica,sans-Serif" font-size="10.00" fill="#000000">gsl/span</text>
</g>
<!-- Node4&#45;&gt;Node7 -->
<g id="edge7" class="edge">
<title>Node4&#45;&gt;Node7</title>
<path fill="none" stroke="#191970" d="M208.0414,-112.2455C218.7787,-103.8943 234.4473,-91.7076 247.0047,-81.9408"/>
<polygon fill="#191970" stroke="#191970" points="249.3575,-84.5449 255.1023,-75.6427 245.0599,-79.0194 249.3575,-84.5449"/>
</g>
<!-- Node8&#45;&gt;Node5 -->
<g id="edge21" class="edge">
<title>Node8&#45;&gt;Node5</title>
<path fill="none" stroke="#191970" d="M552.104,-168.4649C523.2793,-161.5625 488.0626,-150.1694 460.5,-132 441.4482,-119.441 425.0723,-98.7931 414.8252,-83.9341"/>
<polygon fill="#191970" stroke="#191970" points="417.7117,-81.9539 409.2679,-75.5545 411.878,-85.8228 417.7117,-81.9539"/>
</g>
<!-- Node8&#45;&gt;Node7 -->
<g id="edge20" class="edge">
<title>Node8&#45;&gt;Node7</title>
<path fill="none" stroke="#191970" d="M546.4717,-172.9497C459.6714,-165.0093 305.746,-148.7732 286.5,-132 273.4632,-120.6382 269.0997,-100.9669 267.7664,-86.048"/>
<polygon fill="#191970" stroke="#191970" points="271.2477,-85.5912 267.244,-75.782 264.2568,-85.947 271.2477,-85.5912"/>
</g>
<!-- Node8&#45;&gt;Node9 -->
<g id="edge9" class="edge">
<title>Node8&#45;&gt;Node9</title>
<path fill="none" stroke="#191970" d="M597.8358,-168.2455C591.6527,-160.3761 582.7937,-149.101 575.3711,-139.6542"/>
<polygon fill="#191970" stroke="#191970" points="578.0068,-137.3435 569.0764,-131.6427 572.5025,-141.6683 578.0068,-137.3435"/>
</g>
<!-- Node8&#45;&gt;Node10 -->
<g id="edge19" class="edge">
<title>Node8&#45;&gt;Node10</title>
<path fill="none" stroke="#191970" d="M617.9304,-168.2757C635.6379,-154.6806 669.4297,-129.6776 700.5,-112 722.2317,-99.6357 747.8833,-87.9868 767.897,-79.505"/>
<polygon fill="#191970" stroke="#191970" points="769.3497,-82.6913 777.2272,-75.6063 766.6509,-76.2325 769.3497,-82.6913"/>
</g>
<!-- Node8&#45;&gt;Node13 -->
<g id="edge16" class="edge">
<title>Node8&#45;&gt;Node13</title>
<path fill="none" stroke="#191970" d="M639.1936,-168.3733C672.2087,-158.9404 722.6573,-144.5265 758.5386,-134.2747"/>
<polygon fill="#191970" stroke="#191970" points="759.5924,-137.6137 768.2461,-131.5011 757.6693,-130.8831 759.5924,-137.6137"/>
</g>
<!-- Node9&#45;&gt;Node3 -->
<g id="edge13" class="edge">
<title>Node9&#45;&gt;Node3</title>
<path fill="none" stroke="#191970" d="M653.8992,-115.2241C741.8589,-108.1375 878.1077,-95.5097 1004.8587,-76.1372"/>
<polygon fill="#191970" stroke="#191970" points="1005.3967,-79.5957 1014.7448,-74.6094 1004.3275,-72.6778 1005.3967,-79.5957"/>
</g>
<!-- Node9&#45;&gt;Node5 -->
<g id="edge11" class="edge">
<title>Node9&#45;&gt;Node5</title>
<path fill="none" stroke="#191970" d="M534.3388,-112.3733C507.3462,-102.8062 465.8975,-88.1156 436.9055,-77.8399"/>
<polygon fill="#191970" stroke="#191970" points="437.809,-74.4469 427.2143,-74.4051 435.4705,-81.0447 437.809,-74.4469"/>
</g>
<!-- Node9&#45;&gt;Node10 -->
<g id="edge10" class="edge">
<title>Node9&#45;&gt;Node10</title>
<path fill="none" stroke="#191970" d="M602.4848,-112.4369C648.8399,-101.6207 723.5129,-84.197 767.0045,-74.0489"/>
<polygon fill="#191970" stroke="#191970" points="767.8896,-77.4365 776.8327,-71.7557 766.2989,-70.6196 767.8896,-77.4365"/>
</g>
<!-- Node11 -->
<g id="node12" class="node">
<title>Node11</title>
<polygon fill="none" stroke="#bfbfbf" points="531.5,-56.5 531.5,-75.5 591.5,-75.5 591.5,-56.5 531.5,-56.5"/>
<text text-anchor="middle" x="561.5" y="-63.5" font-family="Helvetica,sans-Serif" font-size="10.00" fill="#000000">iostream</text>
</g>
<!-- Node9&#45;&gt;Node11 -->
<g id="edge12" class="edge">
<title>Node9&#45;&gt;Node11</title>
<path fill="none" stroke="#191970" d="M561.5,-112.2455C561.5,-104.9382 561.5,-94.6944 561.5,-85.7046"/>
<polygon fill="#191970" stroke="#191970" points="565.0001,-85.6426 561.5,-75.6427 558.0001,-85.6427 565.0001,-85.6426"/>
</g>
<!-- Node9&#45;&gt;Node12 -->
<g id="edge14" class="edge">
<title>Node9&#45;&gt;Node12</title>
<path fill="none" stroke="#191970" d="M481.1643,-112.4686C397.6298,-102.5578 267.1276,-87.0745 180.005,-76.7379"/>
<polygon fill="#191970" stroke="#191970" points="180.2088,-73.2376 169.866,-75.535 179.384,-80.1888 180.2088,-73.2376"/>
</g>
<!-- Node12&#45;&gt;Node6 -->
<g id="edge15" class="edge">
<title>Node12&#45;&gt;Node6</title>
<path fill="none" stroke="#191970" d="M99.777,-56.2455C108.3218,-48.1352 120.6778,-36.4075 130.8085,-26.7919"/>
<polygon fill="#191970" stroke="#191970" points="133.4972,-29.0655 138.3408,-19.6427 128.6782,-23.9884 133.4972,-29.0655"/>
</g>
<!-- Node13&#45;&gt;Node10 -->
<g id="edge17" class="edge">
<title>Node13&#45;&gt;Node10</title>
<path fill="none" stroke="#191970" d="M801.5,-112.2455C801.5,-104.9382 801.5,-94.6944 801.5,-85.7046"/>
<polygon fill="#191970" stroke="#191970" points="805.0001,-85.6426 801.5,-75.6427 798.0001,-85.6427 805.0001,-85.6426"/>
</g>
<!-- Node13&#45;&gt;Node11 -->
<g id="edge18" class="edge">
<title>Node13&#45;&gt;Node11</title>
<path fill="none" stroke="#191970" d="M760.5152,-112.4369C716.0496,-102.0616 645.5276,-85.6064 601.4652,-75.3252"/>
<polygon fill="#191970" stroke="#191970" points="602.2087,-71.9048 591.675,-73.0408 600.618,-78.7216 602.2087,-71.9048"/>
</g>
<!-- Node14&#45;&gt;Node5 -->
<g id="edge26" class="edge">
<title>Node14&#45;&gt;Node5</title>
<path fill="none" stroke="#191970" d="M347.3447,-112.2455C357.388,-103.9746 371.9995,-91.9416 383.8004,-82.2232"/>
<polygon fill="#191970" stroke="#191970" points="386.2967,-84.7015 391.791,-75.6427 381.8467,-79.298 386.2967,-84.7015"/>
</g>
<!-- Node14&#45;&gt;Node7 -->
<g id="edge28" class="edge">
<title>Node14&#45;&gt;Node7</title>
<path fill="none" stroke="#191970" d="M323.6553,-112.2455C313.612,-103.9746 299.0005,-91.9416 287.1996,-82.2232"/>
<polygon fill="#191970" stroke="#191970" points="289.1533,-79.298 279.209,-75.6427 284.7033,-84.7015 289.1533,-79.298"/>
</g>
<!-- Node14&#45;&gt;Node11 -->
<g id="edge27" class="edge">
<title>Node14&#45;&gt;Node11</title>
<path fill="none" stroke="#191970" d="M374.094,-112.4369C415.2071,-102.2496 479.9757,-86.2007 521.5866,-75.89"/>
<polygon fill="#191970" stroke="#191970" points="522.5162,-79.2656 531.3808,-73.4632 520.8325,-72.4711 522.5162,-79.2656"/>
</g>
<!-- Node15&#45;&gt;Node3 -->
<g id="edge33" class="edge">
<title>Node15&#45;&gt;Node3</title>
<path fill="none" stroke="#191970" d="M993.3898,-112.2455C1004.4254,-103.8943 1020.5292,-91.7076 1033.4353,-81.9408"/>
<polygon fill="#191970" stroke="#191970" points="1035.8959,-84.4681 1041.7579,-75.6427 1031.6717,-78.8862 1035.8959,-84.4681"/>
</g>
<!-- Node15&#45;&gt;Node10 -->
<g id="edge30" class="edge">
<title>Node15&#45;&gt;Node10</title>
<path fill="none" stroke="#191970" d="M949.7288,-112.3733C918.0232,-102.4542 868.7127,-87.0275 835.7783,-76.7239"/>
<polygon fill="#191970" stroke="#191970" points="836.7096,-73.3481 826.1207,-73.7026 834.6195,-80.0288 836.7096,-73.3481"/>
</g>
<!-- Node16 -->
<g id="node17" class="node">
<title>Node16</title>
<polygon fill="none" stroke="#bfbfbf" points="859,-56.5 859,-75.5 932,-75.5 932,-56.5 859,-56.5"/>
<text text-anchor="middle" x="895.5" y="-63.5" font-family="Helvetica,sans-Serif" font-size="10.00" fill="#000000">string_view</text>
</g>
<!-- Node15&#45;&gt;Node16 -->
<g id="edge31" class="edge">
<title>Node15&#45;&gt;Node16</title>
<path fill="none" stroke="#191970" d="M965.6941,-112.2455C952.7744,-103.7337 933.8069,-91.2375 918.8448,-81.3801"/>
<polygon fill="#191970" stroke="#191970" points="920.4124,-78.2216 910.1362,-75.6427 916.5613,-84.067 920.4124,-78.2216"/>
</g>
<!-- Node17 -->
<g id="node18" class="node">
<title>Node17</title>
<polygon fill="none" stroke="#bfbfbf" points="950,-56.5 950,-75.5 997,-75.5 997,-56.5 950,-56.5"/>
<text text-anchor="middle" x="973.5" y="-63.5" font-family="Helvetica,sans-Serif" font-size="10.00" fill="#000000">cmath</text>
</g>
<!-- Node15&#45;&gt;Node17 -->
<g id="edge32" class="edge">
<title>Node15&#45;&gt;Node17</title>
<path fill="none" stroke="#191970" d="M979.2807,-112.2455C978.3673,-104.9382 977.0868,-94.6944 975.9631,-85.7046"/>
<polygon fill="#191970" stroke="#191970" points="979.4187,-85.1313 974.7053,-75.6427 972.4728,-85.9996 979.4187,-85.1313"/>
</g>
</g>
</svg>
