<?xml version="1.0" encoding="UTF-8" standalone="no"?>
<!DOCTYPE svg PUBLIC "-//W3C//DTD SVG 1.1//EN"
 "http://www.w3.org/Graphics/SVG/1.1/DTD/svg11.dtd">
<!-- Generated by graphviz version 2.40.1 (20161225.0304)
 -->
<!-- Title: /home/travis/build/AliceO2Group/AliceO2/Detectors/MUON/MCH/Contour/include/MCHContour/Contour.h Pages: 1 -->
<!--zoomable 285 -->
<svg id="main" version="1.1" xmlns="http://www.w3.org/2000/svg" xmlns:xlink="http://www.w3.org/1999/xlink" xml:space="preserve" onload="init(evt)">
<style type="text/css"><![CDATA[
.edge:hover path { stroke: red; }
.edge:hover polygon { stroke: red; fill: red; }
]]></style>
<script type="text/javascript"><![CDATA[
var edges = document.getElementsByTagName('g');
if (edges && edges.length) {
  for (var i=0;i<edges.length;i++) {
    if (edges[i].id.substr(0,4)=='edge') {
      edges[i].setAttribute('class','edge');
    }
  }
}
]]></script>
        <defs>
                <circle id="rim" cx="0" cy="0" r="7"/>
                <circle id="rim2" cx="0" cy="0" r="3.5"/>
                <g id="zoomPlus">
                        <use xlink:href="#rim" fill="#404040">
                                <set attributeName="fill" to="#808080" begin="zoomplus.mouseover" end="zoomplus.mouseout"/>
                        </use>
                        <path d="M-4,0h8M0,-4v8" fill="none" stroke="white" stroke-width="1.5" pointer-events="none"/>
                </g>
                <g id="zoomMin">
                        <use xlink:href="#rim" fill="#404040">
                                <set attributeName="fill" to="#808080" begin="zoomminus.mouseover" end="zoomminus.mouseout"/>
                        </use>
                        <path d="M-4,0h8" fill="none" stroke="white" stroke-width="1.5" pointer-events="none"/>
                </g>
                <g id="dirArrow">
                        <path fill="none" stroke="white" stroke-width="1.5" d="M0,-3.0v7 M-2.5,-0.5L0,-3.0L2.5,-0.5"/>
                </g>
               <g id="resetDef">
                       <use xlink:href="#rim2" fill="#404040">
                               <set attributeName="fill" to="#808080" begin="reset.mouseover" end="reset.mouseout"/>
                       </use>
               </g>
        </defs>

<script type="text/javascript">
var viewWidth = 601;
var viewHeight = 285;
var sectionId = 'dynsection-0';
</script>
<script xlink:href="../../svgpan.js"/>
<svg id="graph" class="graph">
<g id="viewport">
<title>/home/travis/build/AliceO2Group/AliceO2/Detectors/MUON/MCH/Contour/include/MCHContour/Contour.h</title>
<!-- Node0 -->
<g id="node1" class="node">
<title>Node0</title>
<polygon fill="#bfbfbf" stroke="#000000" points="403,-224.5 403,-276.5 571,-276.5 571,-224.5 403,-224.5"/>
<text text-anchor="start" x="411" y="-264.5" font-family="Helvetica,sans-Serif" font-size="10.00" fill="#000000">/home/travis/build</text>
<text text-anchor="start" x="411" y="-253.5" font-family="Helvetica,sans-Serif" font-size="10.00" fill="#000000">/AliceO2Group/AliceO2</text>
<text text-anchor="start" x="411" y="-242.5" font-family="Helvetica,sans-Serif" font-size="10.00" fill="#000000">/Detectors/MUON/MCH/Contour</text>
<text text-anchor="middle" x="487" y="-231.5" font-family="Helvetica,sans-Serif" font-size="10.00" fill="#000000">/include/MCHContour/Contour.h</text>
</g>
<!-- Node1 -->
<g id="node2" class="node">
<title>Node1</title>
<g id="a_node2"><a xlink:href="../../dc/ddd/Polygon_8h.html" target="_top" xlink:title="Polygon.h">
<polygon fill="none" stroke="#000000" points="283.5,-168.5 283.5,-187.5 348.5,-187.5 348.5,-168.5 283.5,-168.5"/>
<text text-anchor="middle" x="316" y="-175.5" font-family="Helvetica,sans-Serif" font-size="10.00" fill="#000000">Polygon.h</text>
</a>
</g>
</g>
<!-- Node0&#45;&gt;Node1 -->
<g id="edge1" class="edge">
<title>Node0&#45;&gt;Node1</title>
<path fill="none" stroke="#191970" d="M425.2651,-224.3258C399.0497,-213.2111 369.5963,-200.7236 347.8807,-191.5167"/>
<polygon fill="#191970" stroke="#191970" points="349.06,-188.2151 338.4871,-187.534 346.3276,-194.6598 349.06,-188.2151"/>
</g>
<!-- Node4 -->
<g id="node5" class="node">
<title>Node4</title>
<polygon fill="none" stroke="#bfbfbf" points="444.5,-112.5 444.5,-131.5 491.5,-131.5 491.5,-112.5 444.5,-112.5"/>
<text text-anchor="middle" x="468" y="-119.5" font-family="Helvetica,sans-Serif" font-size="10.00" fill="#000000">vector</text>
</g>
<!-- Node0&#45;&gt;Node4 -->
<g id="edge19" class="edge">
<title>Node0&#45;&gt;Node4</title>
<path fill="none" stroke="#191970" d="M483.1551,-224.4961C479.5354,-200.0156 474.1936,-163.8881 470.9138,-141.7068"/>
<polygon fill="#191970" stroke="#191970" points="474.3319,-140.8946 469.4068,-131.5142 467.4072,-141.9186 474.3319,-140.8946"/>
</g>
<!-- Node5 -->
<g id="node6" class="node">
<title>Node5</title>
<polygon fill="none" stroke="#bfbfbf" points="509.5,-112.5 509.5,-131.5 592.5,-131.5 592.5,-112.5 509.5,-112.5"/>
<text text-anchor="middle" x="551" y="-119.5" font-family="Helvetica,sans-Serif" font-size="10.00" fill="#000000">initializer_list</text>
</g>
<!-- Node0&#45;&gt;Node5 -->
<g id="edge21" class="edge">
<title>Node0&#45;&gt;Node5</title>
<path fill="none" stroke="#191970" d="M498.4346,-224.2251C505.7098,-207.8847 515.5165,-186.5296 525,-168 529.6862,-158.8437 535.2551,-148.8838 540.0344,-140.5807"/>
<polygon fill="#191970" stroke="#191970" points="543.1738,-142.1447 545.1822,-131.742 537.1249,-138.6218 543.1738,-142.1447"/>
</g>
<!-- Node17 -->
<g id="node18" class="node">
<title>Node17</title>
<polygon fill="none" stroke="#bfbfbf" points="534,-168.5 534,-187.5 586,-187.5 586,-168.5 534,-168.5"/>
<text text-anchor="middle" x="560" y="-175.5" font-family="Helvetica,sans-Serif" font-size="10.00" fill="#000000">cassert</text>
</g>
<!-- Node0&#45;&gt;Node17 -->
<g id="edge20" class="edge">
<title>Node0&#45;&gt;Node17</title>
<path fill="none" stroke="#191970" d="M513.3547,-224.3258C523.3362,-214.4127 534.4172,-203.4075 543.2736,-194.6118"/>
<polygon fill="#191970" stroke="#191970" points="545.7713,-197.0641 550.4002,-187.534 540.8385,-192.0974 545.7713,-197.0641"/>
</g>
<!-- Node2 -->
<g id="node3" class="node">
<title>Node2</title>
<polygon fill="none" stroke="#bfbfbf" points="0,-56.5 0,-75.5 60,-75.5 60,-56.5 0,-56.5"/>
<text text-anchor="middle" x="30" y="-63.5" font-family="Helvetica,sans-Serif" font-size="10.00" fill="#000000">iostream</text>
</g>
<!-- Node1&#45;&gt;Node2 -->
<g id="edge2" class="edge">
<title>Node1&#45;&gt;Node2</title>
<path fill="none" stroke="#191970" d="M283.3787,-175.2716C224.4577,-169.8074 103.2184,-155.9468 69,-132 52.8752,-120.7155 42.3661,-100.4459 36.3652,-85.3366"/>
<polygon fill="#191970" stroke="#191970" points="39.6296,-84.072 32.9174,-75.8746 33.0526,-86.4686 39.6296,-84.072"/>
</g>
<!-- Node3 -->
<g id="node4" class="node">
<title>Node3</title>
<polygon fill="none" stroke="#bfbfbf" points="224.5,-112.5 224.5,-131.5 269.5,-131.5 269.5,-112.5 224.5,-112.5"/>
<text text-anchor="middle" x="247" y="-119.5" font-family="Helvetica,sans-Serif" font-size="10.00" fill="#000000">utility</text>
</g>
<!-- Node1&#45;&gt;Node3 -->
<g id="edge3" class="edge">
<title>Node1&#45;&gt;Node3</title>
<path fill="none" stroke="#191970" d="M303.9811,-168.2455C293.7902,-159.9746 278.9638,-147.9416 266.9893,-138.2232"/>
<polygon fill="#191970" stroke="#191970" points="268.8514,-135.2268 258.8812,-131.6427 264.4402,-140.662 268.8514,-135.2268"/>
</g>
<!-- Node1&#45;&gt;Node4 -->
<g id="edge4" class="edge">
<title>Node1&#45;&gt;Node4</title>
<path fill="none" stroke="#191970" d="M342.1297,-168.3733C367.6815,-158.9594 406.6986,-144.5847 434.5142,-134.3369"/>
<polygon fill="#191970" stroke="#191970" points="436.0361,-137.5062 444.2095,-130.7649 433.6161,-130.9378 436.0361,-137.5062"/>
</g>
<!-- Node1&#45;&gt;Node5 -->
<g id="edge5" class="edge">
<title>Node1&#45;&gt;Node5</title>
<path fill="none" stroke="#191970" d="M348.6757,-170.2134C388.1541,-160.8058 454.9873,-144.8796 500.9696,-133.9221"/>
<polygon fill="#191970" stroke="#191970" points="501.8194,-137.3177 510.7356,-131.5949 500.1967,-130.5084 501.8194,-137.3177"/>
</g>
<!-- Node6 -->
<g id="node7" class="node">
<title>Node6</title>
<polygon fill="none" stroke="#bfbfbf" points="288,-112.5 288,-131.5 344,-131.5 344,-112.5 288,-112.5"/>
<text text-anchor="middle" x="316" y="-119.5" font-family="Helvetica,sans-Serif" font-size="10.00" fill="#000000">sstream</text>
</g>
<!-- Node1&#45;&gt;Node6 -->
<g id="edge6" class="edge">
<title>Node1&#45;&gt;Node6</title>
<path fill="none" stroke="#191970" d="M316,-168.2455C316,-160.9382 316,-150.6944 316,-141.7046"/>
<polygon fill="#191970" stroke="#191970" points="319.5001,-141.6426 316,-131.6427 312.5001,-141.6427 319.5001,-141.6426"/>
</g>
<!-- Node7 -->
<g id="node8" class="node">
<title>Node7</title>
<polygon fill="none" stroke="#bfbfbf" points="362,-112.5 362,-131.5 426,-131.5 426,-112.5 362,-112.5"/>
<text text-anchor="middle" x="394" y="-119.5" font-family="Helvetica,sans-Serif" font-size="10.00" fill="#000000">algorithm</text>
</g>
<!-- Node1&#45;&gt;Node7 -->
<g id="edge7" class="edge">
<title>Node1&#45;&gt;Node7</title>
<path fill="none" stroke="#191970" d="M329.5866,-168.2455C341.3305,-159.814 358.5199,-147.4729 372.1882,-137.6598"/>
<polygon fill="#191970" stroke="#191970" points="374.4871,-140.3179 380.5691,-131.6427 370.4046,-134.6316 374.4871,-140.3179"/>
</g>
<!-- Node8 -->
<g id="node9" class="node">
<title>Node8</title>
<g id="a_node9"><a xlink:href="../../d0/ddc/BBox_8h.html" target="_top" xlink:title="BBox.h">
<polygon fill="none" stroke="#000000" points="155.5,-112.5 155.5,-131.5 206.5,-131.5 206.5,-112.5 155.5,-112.5"/>
<text text-anchor="middle" x="181" y="-119.5" font-family="Helvetica,sans-Serif" font-size="10.00" fill="#000000">BBox.h</text>
</a>
</g>
</g>
<!-- Node1&#45;&gt;Node8 -->
<g id="edge8" class="edge">
<title>Node1&#45;&gt;Node8</title>
<path fill="none" stroke="#191970" d="M292.7927,-168.3733C270.8301,-159.2629 237.6668,-145.5062 213.1599,-135.3404"/>
<polygon fill="#191970" stroke="#191970" points="214.4824,-132.0999 203.9045,-131.5011 211.8003,-138.5657 214.4824,-132.0999"/>
</g>
<!-- Node15 -->
<g id="node16" class="node">
<title>Node15</title>
<g id="a_node16"><a xlink:href="../../dd/dbc/Detectors_2MUON_2MCH_2Contour_2include_2MCHContour_2Vertex_8h.html" target="_top" xlink:title="Vertex.h">
<polygon fill="none" stroke="#000000" points="78.5,-112.5 78.5,-131.5 135.5,-131.5 135.5,-112.5 78.5,-112.5"/>
<text text-anchor="middle" x="107" y="-119.5" font-family="Helvetica,sans-Serif" font-size="10.00" fill="#000000">Vertex.h</text>
</a>
</g>
</g>
<!-- Node1&#45;&gt;Node15 -->
<g id="edge15" class="edge">
<title>Node1&#45;&gt;Node15</title>
<path fill="none" stroke="#191970" d="M283.3438,-169.25C246.0622,-159.2607 185.135,-142.9357 145.5533,-132.3301"/>
<polygon fill="#191970" stroke="#191970" points="146.2968,-128.9059 135.7316,-129.6984 144.4851,-135.6674 146.2968,-128.9059"/>
</g>
<!-- Node9 -->
<g id="node10" class="node">
<title>Node9</title>
<g id="a_node10"><a xlink:href="../../d2/dc4/Helper_8h.html" target="_top" xlink:title="Helper.h">
<polygon fill="none" stroke="#000000" points="152.5,-56.5 152.5,-75.5 209.5,-75.5 209.5,-56.5 152.5,-56.5"/>
<text text-anchor="middle" x="181" y="-63.5" font-family="Helvetica,sans-Serif" font-size="10.00" fill="#000000">Helper.h</text>
</a>
</g>
</g>
<!-- Node8&#45;&gt;Node9 -->
<g id="edge9" class="edge">
<title>Node8&#45;&gt;Node9</title>
<path fill="none" stroke="#191970" d="M181,-112.2455C181,-104.9382 181,-94.6944 181,-85.7046"/>
<polygon fill="#191970" stroke="#191970" points="184.5001,-85.6426 181,-75.6427 177.5001,-85.6427 184.5001,-85.6426"/>
</g>
<!-- Node13 -->
<g id="node14" class="node">
<title>Node13</title>
<polygon fill="none" stroke="#bfbfbf" points="227.5,-56.5 227.5,-75.5 292.5,-75.5 292.5,-56.5 227.5,-56.5"/>
<text text-anchor="middle" x="260" y="-63.5" font-family="Helvetica,sans-Serif" font-size="10.00" fill="#000000">stdexcept</text>
</g>
<!-- Node8&#45;&gt;Node13 -->
<g id="edge13" class="edge">
<title>Node8&#45;&gt;Node13</title>
<path fill="none" stroke="#191970" d="M194.7607,-112.2455C206.6552,-103.814 224.065,-91.4729 237.9085,-81.6598"/>
<polygon fill="#191970" stroke="#191970" points="240.2628,-84.2811 246.3969,-75.6427 236.2146,-78.5704 240.2628,-84.2811"/>
</g>
<!-- Node14 -->
<g id="node15" class="node">
<title>Node14</title>
<polygon fill="none" stroke="#bfbfbf" points="310.5,-56.5 310.5,-75.5 367.5,-75.5 367.5,-56.5 310.5,-56.5"/>
<text text-anchor="middle" x="339" y="-63.5" font-family="Helvetica,sans-Serif" font-size="10.00" fill="#000000">ostream</text>
</g>
<!-- Node8&#45;&gt;Node14 -->
<g id="edge14" class="edge">
<title>Node8&#45;&gt;Node14</title>
<path fill="none" stroke="#191970" d="M206.7371,-112.878C232.7413,-103.6613 273.1577,-89.3365 302.4716,-78.9468"/>
<polygon fill="#191970" stroke="#191970" points="303.6941,-82.2269 311.9504,-75.5872 301.3556,-75.629 303.6941,-82.2269"/>
</g>
<!-- Node10 -->
<g id="node11" class="node">
<title>Node10</title>
<polygon fill="none" stroke="#bfbfbf" points="93.5,-.5 93.5,-19.5 140.5,-19.5 140.5,-.5 93.5,-.5"/>
<text text-anchor="middle" x="117" y="-7.5" font-family="Helvetica,sans-Serif" font-size="10.00" fill="#000000">cmath</text>
</g>
<!-- Node9&#45;&gt;Node10 -->
<g id="edge10" class="edge">
<title>Node9&#45;&gt;Node10</title>
<path fill="none" stroke="#191970" d="M169.8521,-56.2455C160.4913,-48.0549 146.9142,-36.1749 135.8651,-26.5069"/>
<polygon fill="#191970" stroke="#191970" points="137.8508,-23.5937 128.0202,-19.6427 133.2412,-28.8618 137.8508,-23.5937"/>
</g>
<!-- Node11 -->
<g id="node12" class="node">
<title>Node11</title>
<polygon fill="none" stroke="#bfbfbf" points="159,-.5 159,-19.5 203,-19.5 203,-.5 159,-.5"/>
<text text-anchor="middle" x="181" y="-7.5" font-family="Helvetica,sans-Serif" font-size="10.00" fill="#000000">limits</text>
</g>
<!-- Node9&#45;&gt;Node11 -->
<g id="edge11" class="edge">
<title>Node9&#45;&gt;Node11</title>
<path fill="none" stroke="#191970" d="M181,-56.2455C181,-48.9382 181,-38.6944 181,-29.7046"/>
<polygon fill="#191970" stroke="#191970" points="184.5001,-29.6426 181,-19.6427 177.5001,-29.6427 184.5001,-29.6426"/>
</g>
<!-- Node12 -->
<g id="node13" class="node">
<title>Node12</title>
<polygon fill="none" stroke="#bfbfbf" points="221,-.5 221,-19.5 271,-19.5 271,-.5 221,-.5"/>
<text text-anchor="middle" x="246" y="-7.5" font-family="Helvetica,sans-Serif" font-size="10.00" fill="#000000">cstdint</text>
</g>
<!-- Node9&#45;&gt;Node12 -->
<g id="edge12" class="edge">
<title>Node9&#45;&gt;Node12</title>
<path fill="none" stroke="#191970" d="M192.3221,-56.2455C201.9223,-47.9746 215.8892,-35.9416 227.1695,-26.2232"/>
<polygon fill="#191970" stroke="#191970" points="229.516,-28.8214 234.8076,-19.6427 224.947,-23.5182 229.516,-28.8214"/>
</g>
<!-- Node15&#45;&gt;Node2 -->
<g id="edge16" class="edge">
<title>Node15&#45;&gt;Node2</title>
<path fill="none" stroke="#191970" d="M93.5876,-112.2455C81.9943,-103.814 65.0252,-91.4729 51.5322,-81.6598"/>
<polygon fill="#191970" stroke="#191970" points="53.4047,-78.6938 43.2587,-75.6427 49.2874,-84.355 53.4047,-78.6938"/>
</g>
<!-- Node15&#45;&gt;Node9 -->
<g id="edge18" class="edge">
<title>Node15&#45;&gt;Node9</title>
<path fill="none" stroke="#191970" d="M119.8898,-112.2455C130.9254,-103.8943 147.0292,-91.7076 159.9353,-81.9408"/>
<polygon fill="#191970" stroke="#191970" points="162.3959,-84.4681 168.2579,-75.6427 158.1717,-78.8862 162.3959,-84.4681"/>
</g>
<!-- Node16 -->
<g id="node17" class="node">
<title>Node16</title>
<polygon fill="none" stroke="#bfbfbf" points="78,-56.5 78,-75.5 134,-75.5 134,-56.5 78,-56.5"/>
<text text-anchor="middle" x="106" y="-63.5" font-family="Helvetica,sans-Serif" font-size="10.00" fill="#000000">iomanip</text>
</g>
<!-- Node15&#45;&gt;Node16 -->
<g id="edge17" class="edge">
<title>Node15&#45;&gt;Node16</title>
<path fill="none" stroke="#191970" d="M106.8258,-112.2455C106.6953,-104.9382 106.5124,-94.6944 106.3519,-85.7046"/>
<polygon fill="#191970" stroke="#191970" points="109.8503,-85.5786 106.1722,-75.6427 102.8514,-85.7036 109.8503,-85.5786"/>
</g>
</g>
</svg>
        <g id="navigator" transform="translate(0 0)" fill="#404254">
                <rect fill="#f2f5e9" fill-opacity="0.5" stroke="#606060" stroke-width=".5" x="0" y="0" width="60" height="60"/>
                <use id="zoomplus" xlink:href="#zoomPlus" x="17" y="9" onmousedown="handleZoom(evt,'in')"/>
                <use id="zoomminus" xlink:href="#zoomMin" x="42" y="9" onmousedown="handleZoom(evt,'out')"/>
                <use id="reset" xlink:href="#resetDef" x="30" y="36" onmousedown="handleReset()"/>
                <g id="arrowUp" xlink:href="#dirArrow" transform="translate(30 24)" onmousedown="handlePan(0,-1)">
                  <use xlink:href="#rim" fill="#404040">
                        <set attributeName="fill" to="#808080" begin="arrowUp.mouseover" end="arrowUp.mouseout"/>
                  </use>
                  <path fill="none" stroke="white" stroke-width="1.5" d="M0,-3.0v7 M-2.5,-0.5L0,-3.0L2.5,-0.5"/>
                </g>
                <g id="arrowRight" xlink:href="#dirArrow" transform="rotate(90) translate(36 -43)" onmousedown="handlePan(1,0)">
                  <use xlink:href="#rim" fill="#404040">
                        <set attributeName="fill" to="#808080" begin="arrowRight.mouseover" end="arrowRight.mouseout"/>
                  </use>
                  <path fill="none" stroke="white" stroke-width="1.5" d="M0,-3.0v7 M-2.5,-0.5L0,-3.0L2.5,-0.5"/>
                </g>
                <g id="arrowDown" xlink:href="#dirArrow" transform="rotate(180) translate(-30 -48)" onmousedown="handlePan(0,1)">
                  <use xlink:href="#rim" fill="#404040">
                        <set attributeName="fill" to="#808080" begin="arrowDown.mouseover" end="arrowDown.mouseout"/>
                  </use>
                  <path fill="none" stroke="white" stroke-width="1.5" d="M0,-3.0v7 M-2.5,-0.5L0,-3.0L2.5,-0.5"/>
                </g>
                <g id="arrowLeft" xlink:href="#dirArrow" transform="rotate(270) translate(-36 17)" onmousedown="handlePan(-1,0)">
                  <use xlink:href="#rim" fill="#404040">
                        <set attributeName="fill" to="#808080" begin="arrowLeft.mouseover" end="arrowLeft.mouseout"/>
                  </use>
                  <path fill="none" stroke="white" stroke-width="1.5" d="M0,-3.0v7 M-2.5,-0.5L0,-3.0L2.5,-0.5"/>
                </g>
        </g>
        <svg viewBox="0 0 15 15" width="100%" height="30px" preserveAspectRatio="xMaxYMin meet">
         <g id="arrow_out" transform="scale(0.3 0.3)">
          <a xlink:href="Contour_8h__incl_org.svg" target="_base">
           <rect id="button" ry="5" rx="5" y="6" x="6" height="38" width="38"
                fill="#f2f5e9" fill-opacity="0.5" stroke="#606060" stroke-width="1.0"/>
           <path id="arrow"
             d="M 11.500037,31.436501 C 11.940474,20.09759 22.043105,11.32322 32.158766,21.979434 L 37.068811,17.246167 C 37.068811,17.246167 37.088388,32 37.088388,32 L 22.160133,31.978069 C 22.160133,31.978069 26.997745,27.140456 26.997745,27.140456 C 18.528582,18.264221 13.291696,25.230495 11.500037,31.436501 z"
             style="fill:#404040;"/>
          </a>
         </g>
        </svg>
</svg>
