<?xml version="1.0" encoding="UTF-8" standalone="no"?>
<!DOCTYPE svg PUBLIC "-//W3C//DTD SVG 1.1//EN"
 "http://www.w3.org/Graphics/SVG/1.1/DTD/svg11.dtd">
<!-- Generated by graphviz version 2.40.1 (20161225.0304)
 -->
<!-- Title: o2::soa::Table&lt; C &gt;::RowViewBase&lt; IP, Parent, T &gt; Pages: 1 -->
<!--zoomable 811 -->
<svg id="main" version="1.1" xmlns="http://www.w3.org/2000/svg" xmlns:xlink="http://www.w3.org/1999/xlink" xml:space="preserve" onload="init(evt)">
<style type="text/css"><![CDATA[
.edge:hover path { stroke: red; }
.edge:hover polygon { stroke: red; fill: red; }
]]></style>
<script type="text/javascript"><![CDATA[
var edges = document.getElementsByTagName('g');
if (edges && edges.length) {
  for (var i=0;i<edges.length;i++) {
    if (edges[i].id.substr(0,4)=='edge') {
      edges[i].setAttribute('class','edge');
    }
  }
}
]]></script>
        <defs>
                <circle id="rim" cx="0" cy="0" r="7"/>
                <circle id="rim2" cx="0" cy="0" r="3.5"/>
                <g id="zoomPlus">
                        <use xlink:href="#rim" fill="#404040">
                                <set attributeName="fill" to="#808080" begin="zoomplus.mouseover" end="zoomplus.mouseout"/>
                        </use>
                        <path d="M-4,0h8M0,-4v8" fill="none" stroke="white" stroke-width="1.5" pointer-events="none"/>
                </g>
                <g id="zoomMin">
                        <use xlink:href="#rim" fill="#404040">
                                <set attributeName="fill" to="#808080" begin="zoomminus.mouseover" end="zoomminus.mouseout"/>
                        </use>
                        <path d="M-4,0h8" fill="none" stroke="white" stroke-width="1.5" pointer-events="none"/>
                </g>
                <g id="dirArrow">
                        <path fill="none" stroke="white" stroke-width="1.5" d="M0,-3.0v7 M-2.5,-0.5L0,-3.0L2.5,-0.5"/>
                </g>
               <g id="resetDef">
                       <use xlink:href="#rim2" fill="#404040">
                               <set attributeName="fill" to="#808080" begin="reset.mouseover" end="reset.mouseout"/>
                       </use>
               </g>
        </defs>

<script type="text/javascript">
var viewWidth = 305;
var viewHeight = 811;
var sectionId = 'dynsection-1';
</script>
<script xlink:href="../../svgpan.js"/>
<svg id="graph" class="graph">
<g id="viewport">
<title>o2::soa::Table&lt; C &gt;::RowViewBase&lt; IP, Parent, T &gt;</title>
<!-- Node6 -->
<g id="node1" class="node">
<title>Node6</title>
<polygon fill="#bfbfbf" stroke="#000000" points="72.1396,-.5 72.1396,-189.5 243.1396,-189.5 243.1396,-.5 72.1396,-.5"/>
<text text-anchor="start" x="80.1396" y="-177.5" font-family="Helvetica,sans-Serif" font-size="10.00" fill="#000000">o2::soa::Table&lt; C &gt;</text>
<text text-anchor="middle" x="157.6396" y="-166.5" font-family="Helvetica,sans-Serif" font-size="10.00" fill="#000000">::RowViewBase&lt; IP, Parent, T &gt;</text>
<polyline fill="none" stroke="#000000" points="72.1396,-159.5 243.1396,-159.5 "/>
<text text-anchor="middle" x="157.6396" y="-147.5" font-family="Helvetica,sans-Serif" font-size="10.00" fill="#000000"> </text>
<polyline fill="none" stroke="#000000" points="72.1396,-140.5 243.1396,-140.5 "/>
<text text-anchor="start" x="80.1396" y="-128.5" font-family="Helvetica,sans-Serif" font-size="10.00" fill="#000000">+ RowViewBase()</text>
<text text-anchor="start" x="80.1396" y="-117.5" font-family="Helvetica,sans-Serif" font-size="10.00" fill="#000000">+ RowViewBase()</text>
<text text-anchor="start" x="80.1396" y="-106.5" font-family="Helvetica,sans-Serif" font-size="10.00" fill="#000000">+ RowViewBase()</text>
<text text-anchor="start" x="80.1396" y="-95.5" font-family="Helvetica,sans-Serif" font-size="10.00" fill="#000000">+ RowViewBase()</text>
<text text-anchor="start" x="80.1396" y="-84.5" font-family="Helvetica,sans-Serif" font-size="10.00" fill="#000000">+ RowViewBase()</text>
<text text-anchor="start" x="80.1396" y="-73.5" font-family="Helvetica,sans-Serif" font-size="10.00" fill="#000000">+ RowViewBase()</text>
<text text-anchor="start" x="80.1396" y="-62.5" font-family="Helvetica,sans-Serif" font-size="10.00" fill="#000000">+ operator=()</text>
<text text-anchor="start" x="80.1396" y="-51.5" font-family="Helvetica,sans-Serif" font-size="10.00" fill="#000000">+ operator=()</text>
<text text-anchor="start" x="80.1396" y="-40.5" font-family="Helvetica,sans-Serif" font-size="10.00" fill="#000000">+ operator=()</text>
<text text-anchor="start" x="80.1396" y="-29.5" font-family="Helvetica,sans-Serif" font-size="10.00" fill="#000000">+ operator+()</text>
<text text-anchor="start" x="80.1396" y="-18.5" font-family="Helvetica,sans-Serif" font-size="10.00" fill="#000000">+ operator&#45;()</text>
<text text-anchor="start" x="80.1396" y="-7.5" font-family="Helvetica,sans-Serif" font-size="10.00" fill="#000000">+ operator*()</text>
</g>
<!-- Node7 -->
<g id="node2" class="node">
<title>Node7</title>
<g id="a_node2"><a xlink:href="../../d7/d57/structo2_1_1soa_1_1RowViewCore.html" target="_top" xlink:title="{o2::soa::RowViewCore\l\&lt; IP, C... \&gt;\n||+ RowViewCore()\l+ RowViewCore()\l+ RowViewCore()\l+ RowViewCore()\l+ operator=()\l+ operator=()\l+ operator[]()\l+ operator++()\l+ operator++()\l+ operator+()\l+ operator&#45;()\l+ operator*()\l+ doSetCurrentIndex()\l+ bindExternalIndices()\l}">
<polygon fill="none" stroke="#000000" points="92.1396,-227.5 92.1396,-438.5 223.1396,-438.5 223.1396,-227.5 92.1396,-227.5"/>
<text text-anchor="start" x="100.1396" y="-426.5" font-family="Helvetica,sans-Serif" font-size="10.00" fill="#000000">o2::soa::RowViewCore</text>
<text text-anchor="middle" x="157.6396" y="-415.5" font-family="Helvetica,sans-Serif" font-size="10.00" fill="#000000">&lt; IP, C... &gt;</text>
<polyline fill="none" stroke="#000000" points="92.1396,-408.5 223.1396,-408.5 "/>
<text text-anchor="middle" x="157.6396" y="-396.5" font-family="Helvetica,sans-Serif" font-size="10.00" fill="#000000"> </text>
<polyline fill="none" stroke="#000000" points="92.1396,-389.5 223.1396,-389.5 "/>
<text text-anchor="start" x="100.1396" y="-377.5" font-family="Helvetica,sans-Serif" font-size="10.00" fill="#000000">+ RowViewCore()</text>
<text text-anchor="start" x="100.1396" y="-366.5" font-family="Helvetica,sans-Serif" font-size="10.00" fill="#000000">+ RowViewCore()</text>
<text text-anchor="start" x="100.1396" y="-355.5" font-family="Helvetica,sans-Serif" font-size="10.00" fill="#000000">+ RowViewCore()</text>
<text text-anchor="start" x="100.1396" y="-344.5" font-family="Helvetica,sans-Serif" font-size="10.00" fill="#000000">+ RowViewCore()</text>
<text text-anchor="start" x="100.1396" y="-333.5" font-family="Helvetica,sans-Serif" font-size="10.00" fill="#000000">+ operator=()</text>
<text text-anchor="start" x="100.1396" y="-322.5" font-family="Helvetica,sans-Serif" font-size="10.00" fill="#000000">+ operator=()</text>
<text text-anchor="start" x="100.1396" y="-311.5" font-family="Helvetica,sans-Serif" font-size="10.00" fill="#000000">+ operator[]()</text>
<text text-anchor="start" x="100.1396" y="-300.5" font-family="Helvetica,sans-Serif" font-size="10.00" fill="#000000">+ operator++()</text>
<text text-anchor="start" x="100.1396" y="-289.5" font-family="Helvetica,sans-Serif" font-size="10.00" fill="#000000">+ operator++()</text>
<text text-anchor="start" x="100.1396" y="-278.5" font-family="Helvetica,sans-Serif" font-size="10.00" fill="#000000">+ operator+()</text>
<text text-anchor="start" x="100.1396" y="-267.5" font-family="Helvetica,sans-Serif" font-size="10.00" fill="#000000">+ operator&#45;()</text>
<text text-anchor="start" x="100.1396" y="-256.5" font-family="Helvetica,sans-Serif" font-size="10.00" fill="#000000">+ operator*()</text>
<text text-anchor="start" x="100.1396" y="-245.5" font-family="Helvetica,sans-Serif" font-size="10.00" fill="#000000">+ doSetCurrentIndex()</text>
<text text-anchor="start" x="100.1396" y="-234.5" font-family="Helvetica,sans-Serif" font-size="10.00" fill="#000000">+ bindExternalIndices()</text>
</a>
</g>
</g>
<!-- Node7&#45;&gt;Node6 -->
<g id="edge1" class="edge">
<title>Node7&#45;&gt;Node6</title>
<path fill="none" stroke="#191970" d="M157.6396,-217.2004C157.6396,-207.944 157.6396,-198.6618 157.6396,-189.5781"/>
<polygon fill="none" stroke="#191970" points="154.1397,-217.2237 157.6396,-227.2237 161.1397,-217.2238 154.1397,-217.2237"/>
</g>
<!-- Node8 -->
<g id="node3" class="node">
<title>Node8</title>
<polygon fill="none" stroke="#bfbfbf" points="22.1396,-745.5 22.1396,-802.5 51.1396,-802.5 51.1396,-745.5 22.1396,-745.5"/>
<text text-anchor="middle" x="36.6396" y="-790.5" font-family="Helvetica,sans-Serif" font-size="10.00" fill="#000000">IP</text>
<polyline fill="none" stroke="#bfbfbf" points="22.1396,-783.5 51.1396,-783.5 "/>
<text text-anchor="middle" x="36.6396" y="-771.5" font-family="Helvetica,sans-Serif" font-size="10.00" fill="#000000"> </text>
<polyline fill="none" stroke="#bfbfbf" points="22.1396,-764.5 51.1396,-764.5 "/>
<text text-anchor="middle" x="36.6396" y="-752.5" font-family="Helvetica,sans-Serif" font-size="10.00" fill="#000000"> </text>
</g>
<!-- Node8&#45;&gt;Node7 -->
<g id="edge2" class="edge">
<title>Node8&#45;&gt;Node7</title>
<path fill="none" stroke="#191970" d="M23.9024,-735.7593C7.2113,-679.0654 -16.2968,-570.3412 16.6396,-486 32.0788,-446.4644 63.0493,-410.9892 92.0413,-384.176"/>
<polygon fill="none" stroke="#191970" points="20.5717,-736.8368 26.8215,-745.392 27.2709,-734.8067 20.5717,-736.8368"/>
</g>
<!-- Node11 -->
<g id="node6" class="node">
<title>Node11</title>
<g id="a_node6"><a xlink:href="../../d7/d57/structo2_1_1soa_1_1RowViewCore.html" target="_top" xlink:title="{o2::soa::RowViewCore\l\&lt; IP, C \&gt;\n||+ RowViewCore()\l+ RowViewCore()\l+ RowViewCore()\l+ RowViewCore()\l+ operator=()\l+ operator=()\l+ operator[]()\l+ operator++()\l+ operator++()\l+ operator+()\l+ operator&#45;()\l+ operator*()\l+ doSetCurrentIndex()\l+ bindExternalIndices()\l}">
<polygon fill="none" stroke="#000000" points="26.1396,-486.5 26.1396,-697.5 157.1396,-697.5 157.1396,-486.5 26.1396,-486.5"/>
<text text-anchor="start" x="34.1396" y="-685.5" font-family="Helvetica,sans-Serif" font-size="10.00" fill="#000000">o2::soa::RowViewCore</text>
<text text-anchor="middle" x="91.6396" y="-674.5" font-family="Helvetica,sans-Serif" font-size="10.00" fill="#000000">&lt; IP, C &gt;</text>
<polyline fill="none" stroke="#000000" points="26.1396,-667.5 157.1396,-667.5 "/>
<text text-anchor="middle" x="91.6396" y="-655.5" font-family="Helvetica,sans-Serif" font-size="10.00" fill="#000000"> </text>
<polyline fill="none" stroke="#000000" points="26.1396,-648.5 157.1396,-648.5 "/>
<text text-anchor="start" x="34.1396" y="-636.5" font-family="Helvetica,sans-Serif" font-size="10.00" fill="#000000">+ RowViewCore()</text>
<text text-anchor="start" x="34.1396" y="-625.5" font-family="Helvetica,sans-Serif" font-size="10.00" fill="#000000">+ RowViewCore()</text>
<text text-anchor="start" x="34.1396" y="-614.5" font-family="Helvetica,sans-Serif" font-size="10.00" fill="#000000">+ RowViewCore()</text>
<text text-anchor="start" x="34.1396" y="-603.5" font-family="Helvetica,sans-Serif" font-size="10.00" fill="#000000">+ RowViewCore()</text>
<text text-anchor="start" x="34.1396" y="-592.5" font-family="Helvetica,sans-Serif" font-size="10.00" fill="#000000">+ operator=()</text>
<text text-anchor="start" x="34.1396" y="-581.5" font-family="Helvetica,sans-Serif" font-size="10.00" fill="#000000">+ operator=()</text>
<text text-anchor="start" x="34.1396" y="-570.5" font-family="Helvetica,sans-Serif" font-size="10.00" fill="#000000">+ operator[]()</text>
<text text-anchor="start" x="34.1396" y="-559.5" font-family="Helvetica,sans-Serif" font-size="10.00" fill="#000000">+ operator++()</text>
<text text-anchor="start" x="34.1396" y="-548.5" font-family="Helvetica,sans-Serif" font-size="10.00" fill="#000000">+ operator++()</text>
<text text-anchor="start" x="34.1396" y="-537.5" font-family="Helvetica,sans-Serif" font-size="10.00" fill="#000000">+ operator+()</text>
<text text-anchor="start" x="34.1396" y="-526.5" font-family="Helvetica,sans-Serif" font-size="10.00" fill="#000000">+ operator&#45;()</text>
<text text-anchor="start" x="34.1396" y="-515.5" font-family="Helvetica,sans-Serif" font-size="10.00" fill="#000000">+ operator*()</text>
<text text-anchor="start" x="34.1396" y="-504.5" font-family="Helvetica,sans-Serif" font-size="10.00" fill="#000000">+ doSetCurrentIndex()</text>
<text text-anchor="start" x="34.1396" y="-493.5" font-family="Helvetica,sans-Serif" font-size="10.00" fill="#000000">+ bindExternalIndices()</text>
</a>
</g>
</g>
<!-- Node8&#45;&gt;Node11 -->
<g id="edge6" class="edge">
<title>Node8&#45;&gt;Node11</title>
<path fill="none" stroke="#191970" d="M48.3465,-735.2608C51.7667,-723.9431 55.6799,-710.9939 59.7239,-697.6118"/>
<polygon fill="none" stroke="#191970" points="44.897,-734.5766 45.3545,-745.1616 51.5977,-736.6016 44.897,-734.5766"/>
</g>
<!-- Node9 -->
<g id="node4" class="node">
<title>Node9</title>
<polygon fill="none" stroke="#bfbfbf" points="254.1396,-745.5 254.1396,-802.5 283.1396,-802.5 283.1396,-745.5 254.1396,-745.5"/>
<text text-anchor="middle" x="268.6396" y="-790.5" font-family="Helvetica,sans-Serif" font-size="10.00" fill="#000000">C</text>
<polyline fill="none" stroke="#bfbfbf" points="254.1396,-783.5 283.1396,-783.5 "/>
<text text-anchor="middle" x="268.6396" y="-771.5" font-family="Helvetica,sans-Serif" font-size="10.00" fill="#000000"> </text>
<polyline fill="none" stroke="#bfbfbf" points="254.1396,-764.5 283.1396,-764.5 "/>
<text text-anchor="middle" x="268.6396" y="-752.5" font-family="Helvetica,sans-Serif" font-size="10.00" fill="#000000"> </text>
</g>
<!-- Node9&#45;&gt;Node7 -->
<g id="edge3" class="edge">
<title>Node9&#45;&gt;Node7</title>
<path fill="none" stroke="#191970" d="M279.1376,-735.207C292.5091,-678.6012 310.5257,-570.8742 280.6396,-486 268.8105,-452.4063 246.1433,-420.7444 223.4574,-395.0348"/>
<polygon fill="none" stroke="#191970" points="275.6782,-734.6199 276.7075,-745.1646 282.4786,-736.2796 275.6782,-734.6199"/>
</g>
<!-- Node9&#45;&gt;Node11 -->
<g id="edge7" class="edge">
<title>Node9&#45;&gt;Node11</title>
<path fill="none" stroke="#191970" d="M245.432,-758.4208C224.8661,-744.0313 194.6214,-721.4013 171.6396,-698 166.7932,-693.0651 161.984,-687.8312 157.2699,-682.436"/>
<polygon fill="none" stroke="#191970" points="243.6526,-761.4454 253.8713,-764.2434 247.6279,-755.6836 243.6526,-761.4454"/>
</g>
<!-- Node10 -->
<g id="node5" class="node">
<title>Node10</title>
<polygon fill="none" stroke="#bfbfbf" points="90.6396,-745.5 90.6396,-802.5 128.6396,-802.5 128.6396,-745.5 90.6396,-745.5"/>
<text text-anchor="middle" x="109.6396" y="-790.5" font-family="Helvetica,sans-Serif" font-size="10.00" fill="#000000">bool</text>
<polyline fill="none" stroke="#bfbfbf" points="90.6396,-783.5 128.6396,-783.5 "/>
<text text-anchor="middle" x="109.6396" y="-771.5" font-family="Helvetica,sans-Serif" font-size="10.00" fill="#000000"> </text>
<polyline fill="none" stroke="#bfbfbf" points="90.6396,-764.5 128.6396,-764.5 "/>
<text text-anchor="middle" x="109.6396" y="-752.5" font-family="Helvetica,sans-Serif" font-size="10.00" fill="#000000"> </text>
</g>
<!-- Node10&#45;&gt;Node7 -->
<g id="edge4" class="edge">
<title>Node10&#45;&gt;Node7</title>
<path fill="none" stroke="#404040" d="M128.7457,-767.1747C145.5565,-760.0283 168.9666,-747.0218 179.6396,-727 236.0885,-621.1061 190.1616,-576.5378 179.6396,-457 179.4584,-454.9411 179.2605,-452.8652 179.0476,-450.7764"/>
<polygon fill="none" stroke="#404040" points="179.0301,-450.6224 174.377,-445.1135 177.6725,-438.6995 182.3256,-444.2084 179.0301,-450.6224"/>
<text text-anchor="middle" x="244.1396" y="-589.5" font-family="Helvetica,sans-Serif" font-size="10.00" fill="#000000"> +has_index_v</text>
</g>
<!-- Node10&#45;&gt;Node11 -->
<g id="edge8" class="edge">
<title>Node10&#45;&gt;Node11</title>
<path fill="none" stroke="#404040" d="M106.7874,-745.1616C105.778,-734.9551 104.5709,-722.7501 103.2848,-709.7454"/>
<polygon fill="none" stroke="#404040" points="103.2659,-709.5536 98.6947,-703.9764 102.0847,-697.6118 106.6559,-703.189 103.2659,-709.5536"/>
<text text-anchor="middle" x="142.1396" y="-719" font-family="Helvetica,sans-Serif" font-size="10.00" fill="#000000"> +has_index_v</text>
</g>
<!-- Node11&#45;&gt;Node7 -->
<g id="edge5" class="edge">
<title>Node11&#45;&gt;Node7</title>
<path fill="none" stroke="#ffa500" d="M117.7183,-476.6857C119.3509,-470.0174 120.9981,-463.4177 122.6396,-457 124.1639,-451.0404 125.7647,-444.9303 127.4078,-438.7708"/>
<polygon fill="#ffa500" stroke="#ffa500" points="114.2958,-475.9478 115.3391,-486.4912 121.0984,-477.5985 114.2958,-475.9478"/>
<text text-anchor="middle" x="151.1396" y="-460" font-family="Helvetica,sans-Serif" font-size="10.00" fill="#000000"> &lt; IP, C... &gt;</text>
</g>
</g>
</svg>
        <g id="navigator" transform="translate(0 0)" fill="#404254">
                <rect fill="#f2f5e9" fill-opacity="0.5" stroke="#606060" stroke-width=".5" x="0" y="0" width="60" height="60"/>
                <use id="zoomplus" xlink:href="#zoomPlus" x="17" y="9" onmousedown="handleZoom(evt,'in')"/>
                <use id="zoomminus" xlink:href="#zoomMin" x="42" y="9" onmousedown="handleZoom(evt,'out')"/>
                <use id="reset" xlink:href="#resetDef" x="30" y="36" onmousedown="handleReset()"/>
                <g id="arrowUp" xlink:href="#dirArrow" transform="translate(30 24)" onmousedown="handlePan(0,-1)">
                  <use xlink:href="#rim" fill="#404040">
                        <set attributeName="fill" to="#808080" begin="arrowUp.mouseover" end="arrowUp.mouseout"/>
                  </use>
                  <path fill="none" stroke="white" stroke-width="1.5" d="M0,-3.0v7 M-2.5,-0.5L0,-3.0L2.5,-0.5"/>
                </g>
                <g id="arrowRight" xlink:href="#dirArrow" transform="rotate(90) translate(36 -43)" onmousedown="handlePan(1,0)">
                  <use xlink:href="#rim" fill="#404040">
                        <set attributeName="fill" to="#808080" begin="arrowRight.mouseover" end="arrowRight.mouseout"/>
                  </use>
                  <path fill="none" stroke="white" stroke-width="1.5" d="M0,-3.0v7 M-2.5,-0.5L0,-3.0L2.5,-0.5"/>
                </g>
                <g id="arrowDown" xlink:href="#dirArrow" transform="rotate(180) translate(-30 -48)" onmousedown="handlePan(0,1)">
                  <use xlink:href="#rim" fill="#404040">
                        <set attributeName="fill" to="#808080" begin="arrowDown.mouseover" end="arrowDown.mouseout"/>
                  </use>
                  <path fill="none" stroke="white" stroke-width="1.5" d="M0,-3.0v7 M-2.5,-0.5L0,-3.0L2.5,-0.5"/>
                </g>
                <g id="arrowLeft" xlink:href="#dirArrow" transform="rotate(270) translate(-36 17)" onmousedown="handlePan(-1,0)">
                  <use xlink:href="#rim" fill="#404040">
                        <set attributeName="fill" to="#808080" begin="arrowLeft.mouseover" end="arrowLeft.mouseout"/>
                  </use>
                  <path fill="none" stroke="white" stroke-width="1.5" d="M0,-3.0v7 M-2.5,-0.5L0,-3.0L2.5,-0.5"/>
                </g>
        </g>
        <svg viewBox="0 0 15 15" width="100%" height="30px" preserveAspectRatio="xMaxYMin meet">
         <g id="arrow_out" transform="scale(0.3 0.3)">
          <a xlink:href="structo2_1_1soa_1_1Table_1_1RowViewBase__coll__graph_org.svg" target="_base">
           <rect id="button" ry="5" rx="5" y="6" x="6" height="38" width="38"
                fill="#f2f5e9" fill-opacity="0.5" stroke="#606060" stroke-width="1.0"/>
           <path id="arrow"
             d="M 11.500037,31.436501 C 11.940474,20.09759 22.043105,11.32322 32.158766,21.979434 L 37.068811,17.246167 C 37.068811,17.246167 37.088388,32 37.088388,32 L 22.160133,31.978069 C 22.160133,31.978069 26.997745,27.140456 26.997745,27.140456 C 18.528582,18.264221 13.291696,25.230495 11.500037,31.436501 z"
             style="fill:#404040;"/>
          </a>
         </g>
        </svg>
</svg>
