<?xml version="1.0" encoding="UTF-8" standalone="no"?>
<!DOCTYPE svg PUBLIC "-//W3C//DTD SVG 1.1//EN"
 "http://www.w3.org/Graphics/SVG/1.1/DTD/svg11.dtd">
<!-- Generated by graphviz version 2.40.1 (20161225.0304)
 -->
<!-- Title: o2::data::PrimaryChunk Pages: 1 -->
<!--zoomable 623 -->
<svg id="main" version="1.1" xmlns="http://www.w3.org/2000/svg" xmlns:xlink="http://www.w3.org/1999/xlink" xml:space="preserve" onload="init(evt)">
<style type="text/css"><![CDATA[
.edge:hover path { stroke: red; }
.edge:hover polygon { stroke: red; fill: red; }
]]></style>
<script type="text/javascript"><![CDATA[
var edges = document.getElementsByTagName('g');
if (edges && edges.length) {
  for (var i=0;i<edges.length;i++) {
    if (edges[i].id.substr(0,4)=='edge') {
      edges[i].setAttribute('class','edge');
    }
  }
}
]]></script>
        <defs>
                <circle id="rim" cx="0" cy="0" r="7"/>
                <circle id="rim2" cx="0" cy="0" r="3.5"/>
                <g id="zoomPlus">
                        <use xlink:href="#rim" fill="#404040">
                                <set attributeName="fill" to="#808080" begin="zoomplus.mouseover" end="zoomplus.mouseout"/>
                        </use>
                        <path d="M-4,0h8M0,-4v8" fill="none" stroke="white" stroke-width="1.5" pointer-events="none"/>
                </g>
                <g id="zoomMin">
                        <use xlink:href="#rim" fill="#404040">
                                <set attributeName="fill" to="#808080" begin="zoomminus.mouseover" end="zoomminus.mouseout"/>
                        </use>
                        <path d="M-4,0h8" fill="none" stroke="white" stroke-width="1.5" pointer-events="none"/>
                </g>
                <g id="dirArrow">
                        <path fill="none" stroke="white" stroke-width="1.5" d="M0,-3.0v7 M-2.5,-0.5L0,-3.0L2.5,-0.5"/>
                </g>
               <g id="resetDef">
                       <use xlink:href="#rim2" fill="#404040">
                               <set attributeName="fill" to="#808080" begin="reset.mouseover" end="reset.mouseout"/>
                       </use>
               </g>
        </defs>

<script type="text/javascript">
var viewWidth = 661;
var viewHeight = 623;
var sectionId = 'dynsection-0';
</script>
<script xlink:href="../../svgpan.js"/>
<svg id="graph" class="graph">
<g id="viewport">
<title>o2::data::PrimaryChunk</title>
<!-- Node1 -->
<g id="node1" class="node">
<title>Node1</title>
<polygon fill="#bfbfbf" stroke="#000000" points="246.5,-.5 246.5,-57.5 377.5,-57.5 377.5,-.5 246.5,-.5"/>
<text text-anchor="middle" x="312" y="-45.5" font-family="Helvetica,sans-Serif" font-size="10.00" fill="#000000">o2::data::PrimaryChunk</text>
<polyline fill="none" stroke="#000000" points="246.5,-38.5 377.5,-38.5 "/>
<text text-anchor="middle" x="312" y="-26.5" font-family="Helvetica,sans-Serif" font-size="10.00" fill="#000000"> </text>
<polyline fill="none" stroke="#000000" points="246.5,-19.5 377.5,-19.5 "/>
<text text-anchor="start" x="254.5" y="-7.5" font-family="Helvetica,sans-Serif" font-size="10.00" fill="#000000">+ ClassDefNV()</text>
</g>
<!-- Node2 -->
<g id="node2" class="node">
<title>Node2</title>
<polygon fill="none" stroke="#bfbfbf" points="213,-105.5 213,-162.5 325,-162.5 325,-105.5 213,-105.5"/>
<text text-anchor="middle" x="269" y="-150.5" font-family="Helvetica,sans-Serif" font-size="10.00" fill="#000000">vector&lt; TParticle &gt;</text>
<polyline fill="none" stroke="#bfbfbf" points="213,-143.5 325,-143.5 "/>
<text text-anchor="middle" x="269" y="-131.5" font-family="Helvetica,sans-Serif" font-size="10.00" fill="#000000"> </text>
<polyline fill="none" stroke="#bfbfbf" points="213,-124.5 325,-124.5 "/>
<text text-anchor="middle" x="269" y="-112.5" font-family="Helvetica,sans-Serif" font-size="10.00" fill="#000000"> </text>
</g>
<!-- Node2&#45;&gt;Node1 -->
<g id="edge1" class="edge">
<title>Node2&#45;&gt;Node1</title>
<path fill="none" stroke="#404040" d="M280.7499,-105.3083C285.3479,-94.0808 290.7006,-81.0103 295.6632,-68.8922"/>
<polygon fill="none" stroke="#404040" points="295.7165,-68.7619 294.2888,-61.6935 300.2643,-57.657 301.692,-64.7254 295.7165,-68.7619"/>
<text text-anchor="middle" x="322.5" y="-79" font-family="Helvetica,sans-Serif" font-size="10.00" fill="#000000"> +mParticles</text>
</g>
<!-- Node3 -->
<g id="node3" class="node">
<title>Node3</title>
<g id="a_node3"><a xlink:href="../../d5/dbc/structo2_1_1data_1_1SubEventInfo.html" target="_top" xlink:title="{o2::data::SubEventInfo\n||+ ClassDefNV()\l}">
<polygon fill="none" stroke="#000000" points="343.5,-105.5 343.5,-162.5 470.5,-162.5 470.5,-105.5 343.5,-105.5"/>
<text text-anchor="middle" x="407" y="-150.5" font-family="Helvetica,sans-Serif" font-size="10.00" fill="#000000">o2::data::SubEventInfo</text>
<polyline fill="none" stroke="#000000" points="343.5,-143.5 470.5,-143.5 "/>
<text text-anchor="middle" x="407" y="-131.5" font-family="Helvetica,sans-Serif" font-size="10.00" fill="#000000"> </text>
<polyline fill="none" stroke="#000000" points="343.5,-124.5 470.5,-124.5 "/>
<text text-anchor="start" x="351.5" y="-112.5" font-family="Helvetica,sans-Serif" font-size="10.00" fill="#000000">+ ClassDefNV()</text>
</a>
</g>
</g>
<!-- Node3&#45;&gt;Node1 -->
<g id="edge2" class="edge">
<title>Node3&#45;&gt;Node1</title>
<path fill="none" stroke="#404040" d="M383.4821,-105.3221C375.5341,-95.8581 366.5147,-85.3615 358,-76 355.1479,-72.8643 352.1557,-69.6496 349.1238,-66.4448"/>
<polygon fill="none" stroke="#404040" points="348.8642,-66.1741 341.8242,-64.6121 340.5583,-57.513 347.5983,-59.0749 348.8642,-66.1741"/>
<text text-anchor="middle" x="410" y="-79" font-family="Helvetica,sans-Serif" font-size="10.00" fill="#000000"> +mSubEventInfo</text>
</g>
<!-- Node4 -->
<g id="node4" class="node">
<title>Node4</title>
<g id="a_node4"><a xlink:href="../../d4/db1/classo2_1_1dataformats_1_1MCEventHeader.html" target="_top" xlink:title="{o2::dataformats::MCEvent\lHeader\n||+ MCEventHeader()\l+ MCEventHeader()\l+ operator=()\l+ ~MCEventHeader()\l+ setEmbeddingFileName()\l+ setEmbeddingEventIndex()\l+ getEmbeddedIndex()\l+ Reset()\l+ getMCEventStats()\l# ClassDefOverride()\l}">
<polygon fill="none" stroke="#000000" points="137,-243.5 137,-410.5 297,-410.5 297,-243.5 137,-243.5"/>
<text text-anchor="start" x="145" y="-398.5" font-family="Helvetica,sans-Serif" font-size="10.00" fill="#000000">o2::dataformats::MCEvent</text>
<text text-anchor="middle" x="217" y="-387.5" font-family="Helvetica,sans-Serif" font-size="10.00" fill="#000000">Header</text>
<polyline fill="none" stroke="#000000" points="137,-380.5 297,-380.5 "/>
<text text-anchor="middle" x="217" y="-368.5" font-family="Helvetica,sans-Serif" font-size="10.00" fill="#000000"> </text>
<polyline fill="none" stroke="#000000" points="137,-361.5 297,-361.5 "/>
<text text-anchor="start" x="145" y="-349.5" font-family="Helvetica,sans-Serif" font-size="10.00" fill="#000000">+ MCEventHeader()</text>
<text text-anchor="start" x="145" y="-338.5" font-family="Helvetica,sans-Serif" font-size="10.00" fill="#000000">+ MCEventHeader()</text>
<text text-anchor="start" x="145" y="-327.5" font-family="Helvetica,sans-Serif" font-size="10.00" fill="#000000">+ operator=()</text>
<text text-anchor="start" x="145" y="-316.5" font-family="Helvetica,sans-Serif" font-size="10.00" fill="#000000">+ ~MCEventHeader()</text>
<text text-anchor="start" x="145" y="-305.5" font-family="Helvetica,sans-Serif" font-size="10.00" fill="#000000">+ setEmbeddingFileName()</text>
<text text-anchor="start" x="145" y="-294.5" font-family="Helvetica,sans-Serif" font-size="10.00" fill="#000000">+ setEmbeddingEventIndex()</text>
<text text-anchor="start" x="145" y="-283.5" font-family="Helvetica,sans-Serif" font-size="10.00" fill="#000000">+ getEmbeddedIndex()</text>
<text text-anchor="start" x="145" y="-272.5" font-family="Helvetica,sans-Serif" font-size="10.00" fill="#000000">+ Reset()</text>
<text text-anchor="start" x="145" y="-261.5" font-family="Helvetica,sans-Serif" font-size="10.00" fill="#000000">+ getMCEventStats()</text>
<text text-anchor="start" x="145" y="-250.5" font-family="Helvetica,sans-Serif" font-size="10.00" fill="#000000"># ClassDefOverride()</text>
</a>
</g>
</g>
<!-- Node4&#45;&gt;Node3 -->
<g id="edge3" class="edge">
<title>Node4&#45;&gt;Node3</title>
<path fill="none" stroke="#404040" d="M216.4373,-243.2698C220.3459,-220.453 228.6581,-197.5074 245,-181 270.9522,-154.785 291.4996,-171.0597 331.3587,-163.0715"/>
<polygon fill="none" stroke="#404040" points="331.4939,-163.0376 336.3411,-157.6986 343.1337,-160.1195 338.2865,-165.4585 331.4939,-163.0376"/>
<text text-anchor="middle" x="295" y="-200.5" font-family="Helvetica,sans-Serif" font-size="10.00" fill="#000000"> +mMCEventHeader</text>
</g>
<!-- Node5 -->
<g id="node5" class="node">
<title>Node5</title>
<g id="a_node5"><a xlink:href="../../dd/d8f/classFairMCEventHeader.html" target="_top" xlink:title="{FairMCEventHeader\n||}">
<polygon fill="none" stroke="#000000" points="0,-508 0,-565 112,-565 112,-508 0,-508"/>
<text text-anchor="middle" x="56" y="-553" font-family="Helvetica,sans-Serif" font-size="10.00" fill="#000000">FairMCEventHeader</text>
<polyline fill="none" stroke="#000000" points="0,-546 112,-546 "/>
<text text-anchor="middle" x="56" y="-534" font-family="Helvetica,sans-Serif" font-size="10.00" fill="#000000"> </text>
<polyline fill="none" stroke="#000000" points="0,-527 112,-527 "/>
<text text-anchor="middle" x="56" y="-515" font-family="Helvetica,sans-Serif" font-size="10.00" fill="#000000"> </text>
</a>
</g>
</g>
<!-- Node5&#45;&gt;Node4 -->
<g id="edge4" class="edge">
<title>Node5&#45;&gt;Node4</title>
<path fill="none" stroke="#191970" d="M84.1857,-499.8236C103.086,-475.2297 128.7732,-441.8045 152.5215,-410.9021"/>
<polygon fill="none" stroke="#191970" points="81.3671,-497.7474 78.0488,-507.8092 86.9174,-502.0128 81.3671,-497.7474"/>
</g>
<!-- Node6 -->
<g id="node6" class="node">
<title>Node6</title>
<polygon fill="none" stroke="#bfbfbf" points="130.5,-508 130.5,-565 159.5,-565 159.5,-508 130.5,-508"/>
<text text-anchor="middle" x="145" y="-553" font-family="Helvetica,sans-Serif" font-size="10.00" fill="#000000">int</text>
<polyline fill="none" stroke="#bfbfbf" points="130.5,-546 159.5,-546 "/>
<text text-anchor="middle" x="145" y="-534" font-family="Helvetica,sans-Serif" font-size="10.00" fill="#000000"> </text>
<polyline fill="none" stroke="#bfbfbf" points="130.5,-527 159.5,-527 "/>
<text text-anchor="middle" x="145" y="-515" font-family="Helvetica,sans-Serif" font-size="10.00" fill="#000000"> </text>
</g>
<!-- Node6&#45;&gt;Node4 -->
<g id="edge5" class="edge">
<title>Node6&#45;&gt;Node4</title>
<path fill="none" stroke="#404040" d="M140.7636,-507.9373C138.5491,-485.8469 137.7779,-454.7836 146,-429 146.7682,-426.5911 147.6148,-424.189 148.5311,-421.7981"/>
<polygon fill="none" stroke="#404040" points="148.5588,-421.7335 147.2513,-414.6419 153.2945,-410.7075 154.602,-417.7991 148.5588,-421.7335"/>
<text text-anchor="middle" x="207" y="-432" font-family="Helvetica,sans-Serif" font-size="10.00" fill="#000000"> #mEmbeddingFileName</text>
</g>
<!-- Node7 -->
<g id="node7" class="node">
<title>Node7</title>
<polygon fill="none" stroke="#bfbfbf" points="271,-508 271,-565 309,-565 309,-508 271,-508"/>
<text text-anchor="middle" x="290" y="-553" font-family="Helvetica,sans-Serif" font-size="10.00" fill="#000000">Int_t</text>
<polyline fill="none" stroke="#bfbfbf" points="271,-546 309,-546 "/>
<text text-anchor="middle" x="290" y="-534" font-family="Helvetica,sans-Serif" font-size="10.00" fill="#000000"> </text>
<polyline fill="none" stroke="#bfbfbf" points="271,-527 309,-527 "/>
<text text-anchor="middle" x="290" y="-515" font-family="Helvetica,sans-Serif" font-size="10.00" fill="#000000"> </text>
</g>
<!-- Node7&#45;&gt;Node4 -->
<g id="edge6" class="edge">
<title>Node7&#45;&gt;Node4</title>
<path fill="none" stroke="#404040" d="M286.1971,-507.6636C282.8015,-485.7 276.9606,-454.9273 268,-429 267.179,-426.6244 266.314,-424.2336 265.4113,-421.8348"/>
<polygon fill="none" stroke="#404040" points="265.3699,-421.7304 259.4362,-417.6326 260.9367,-410.5793 266.8703,-414.6771 265.3699,-421.7304"/>
<text text-anchor="middle" x="336.5" y="-432" font-family="Helvetica,sans-Serif" font-size="10.00" fill="#000000"> #mEmbeddingEventIndex</text>
</g>
<!-- Node8 -->
<g id="node8" class="node">
<title>Node8</title>
<g id="a_node8"><a xlink:href="../../d9/ddb/classo2_1_1dataformats_1_1MCEventStats.html" target="_top" xlink:title="{o2::dataformats::MCEvent\lStats\n||+ setNHits()\l+ getNHits()\l+ setNTransportedTracks()\l+ getNTransportedTracks()\l+ setNKeptTracks()\l+ getNKeptTracks()\l+ setNSteps()\l+ getNSteps()\l+ add()\l}">
<polygon fill="none" stroke="#000000" points="371,-458.5 371,-614.5 517,-614.5 517,-458.5 371,-458.5"/>
<text text-anchor="start" x="379" y="-602.5" font-family="Helvetica,sans-Serif" font-size="10.00" fill="#000000">o2::dataformats::MCEvent</text>
<text text-anchor="middle" x="444" y="-591.5" font-family="Helvetica,sans-Serif" font-size="10.00" fill="#000000">Stats</text>
<polyline fill="none" stroke="#000000" points="371,-584.5 517,-584.5 "/>
<text text-anchor="middle" x="444" y="-572.5" font-family="Helvetica,sans-Serif" font-size="10.00" fill="#000000"> </text>
<polyline fill="none" stroke="#000000" points="371,-565.5 517,-565.5 "/>
<text text-anchor="start" x="379" y="-553.5" font-family="Helvetica,sans-Serif" font-size="10.00" fill="#000000">+ setNHits()</text>
<text text-anchor="start" x="379" y="-542.5" font-family="Helvetica,sans-Serif" font-size="10.00" fill="#000000">+ getNHits()</text>
<text text-anchor="start" x="379" y="-531.5" font-family="Helvetica,sans-Serif" font-size="10.00" fill="#000000">+ setNTransportedTracks()</text>
<text text-anchor="start" x="379" y="-520.5" font-family="Helvetica,sans-Serif" font-size="10.00" fill="#000000">+ getNTransportedTracks()</text>
<text text-anchor="start" x="379" y="-509.5" font-family="Helvetica,sans-Serif" font-size="10.00" fill="#000000">+ setNKeptTracks()</text>
<text text-anchor="start" x="379" y="-498.5" font-family="Helvetica,sans-Serif" font-size="10.00" fill="#000000">+ getNKeptTracks()</text>
<text text-anchor="start" x="379" y="-487.5" font-family="Helvetica,sans-Serif" font-size="10.00" fill="#000000">+ setNSteps()</text>
<text text-anchor="start" x="379" y="-476.5" font-family="Helvetica,sans-Serif" font-size="10.00" fill="#000000">+ getNSteps()</text>
<text text-anchor="start" x="379" y="-465.5" font-family="Helvetica,sans-Serif" font-size="10.00" fill="#000000">+ add()</text>
</a>
</g>
</g>
<!-- Node8&#45;&gt;Node4 -->
<g id="edge7" class="edge">
<title>Node8&#45;&gt;Node4</title>
<path fill="none" stroke="#404040" d="M427.5878,-458.286C422.2871,-447.1855 415.2753,-436.885 406,-429 374.2816,-402.036 350.3223,-426.778 308.3506,-411.0988"/>
<polygon fill="none" stroke="#404040" points="308.245,-411.052 301.1384,-412.2751 297.276,-406.1855 304.3826,-404.9624 308.245,-411.052"/>
<text text-anchor="middle" x="453" y="-432" font-family="Helvetica,sans-Serif" font-size="10.00" fill="#000000"> #mEventStats</text>
</g>
<!-- Node9 -->
<g id="node9" class="node">
<title>Node9</title>
<polygon fill="none" stroke="#bfbfbf" points="315,-298.5 315,-355.5 371,-355.5 371,-298.5 315,-298.5"/>
<text text-anchor="middle" x="343" y="-343.5" font-family="Helvetica,sans-Serif" font-size="10.00" fill="#000000">uint16_t</text>
<polyline fill="none" stroke="#bfbfbf" points="315,-336.5 371,-336.5 "/>
<text text-anchor="middle" x="343" y="-324.5" font-family="Helvetica,sans-Serif" font-size="10.00" fill="#000000"> </text>
<polyline fill="none" stroke="#bfbfbf" points="315,-317.5 371,-317.5 "/>
<text text-anchor="middle" x="343" y="-305.5" font-family="Helvetica,sans-Serif" font-size="10.00" fill="#000000"> </text>
</g>
<!-- Node9&#45;&gt;Node3 -->
<g id="edge8" class="edge">
<title>Node9&#45;&gt;Node3</title>
<path fill="none" stroke="#404040" d="M341.9045,-298.3835C341.8492,-267.8475 345.0208,-218.7687 363,-181 364.3932,-178.0733 366.0354,-175.2065 367.8523,-172.4236"/>
<polygon fill="none" stroke="#404040" points="367.8884,-172.3753 368.2698,-165.1742 375.0636,-162.7566 374.6822,-169.9577 367.8884,-172.3753"/>
<text text-anchor="middle" x="383" y="-206" font-family="Helvetica,sans-Serif" font-size="10.00" fill="#000000"> +part</text>
<text text-anchor="middle" x="383" y="-195" font-family="Helvetica,sans-Serif" font-size="10.00" fill="#000000">+nparts</text>
</g>
<!-- Node10 -->
<g id="node10" class="node">
<title>Node10</title>
<g id="a_node10"><a xlink:href="../../d4/dc3/classfloat.html" target="_top" xlink:title="{float\n||}">
<polygon fill="none" stroke="#000000" points="389,-298.5 389,-355.5 427,-355.5 427,-298.5 389,-298.5"/>
<text text-anchor="middle" x="408" y="-343.5" font-family="Helvetica,sans-Serif" font-size="10.00" fill="#000000">float</text>
<polyline fill="none" stroke="#000000" points="389,-336.5 427,-336.5 "/>
<text text-anchor="middle" x="408" y="-324.5" font-family="Helvetica,sans-Serif" font-size="10.00" fill="#000000"> </text>
<polyline fill="none" stroke="#000000" points="389,-317.5 427,-317.5 "/>
<text text-anchor="middle" x="408" y="-305.5" font-family="Helvetica,sans-Serif" font-size="10.00" fill="#000000"> </text>
</a>
</g>
</g>
<!-- Node10&#45;&gt;Node3 -->
<g id="edge9" class="edge">
<title>Node10&#45;&gt;Node3</title>
<path fill="none" stroke="#404040" d="M407.8503,-298.1059C407.6812,-265.4649 407.4046,-212.0851 407.213,-175.1096"/>
<polygon fill="none" stroke="#404040" points="407.2114,-174.7758 403.1803,-168.7966 407.1491,-162.7759 411.1802,-168.7551 407.2114,-174.7758"/>
<text text-anchor="middle" x="438" y="-200.5" font-family="Helvetica,sans-Serif" font-size="10.00" fill="#000000"> +eventtime</text>
</g>
<!-- Node11 -->
<g id="node11" class="node">
<title>Node11</title>
<polygon fill="none" stroke="#bfbfbf" points="467,-298.5 467,-355.5 517,-355.5 517,-298.5 467,-298.5"/>
<text text-anchor="middle" x="492" y="-343.5" font-family="Helvetica,sans-Serif" font-size="10.00" fill="#000000">int32_t</text>
<polyline fill="none" stroke="#bfbfbf" points="467,-336.5 517,-336.5 "/>
<text text-anchor="middle" x="492" y="-324.5" font-family="Helvetica,sans-Serif" font-size="10.00" fill="#000000"> </text>
<polyline fill="none" stroke="#bfbfbf" points="467,-317.5 517,-317.5 "/>
<text text-anchor="middle" x="492" y="-305.5" font-family="Helvetica,sans-Serif" font-size="10.00" fill="#000000"> </text>
</g>
<!-- Node11&#45;&gt;Node3 -->
<g id="edge10" class="edge">
<title>Node11&#45;&gt;Node3</title>
<path fill="none" stroke="#404040" d="M493.8821,-298.2418C494.5737,-267.1427 491.6687,-217.1734 470,-181 467.9664,-177.6052 465.5851,-174.3764 462.961,-171.3195"/>
<polygon fill="none" stroke="#404040" points="462.8743,-171.2313 455.8161,-169.7542 454.4649,-162.6708 461.5231,-164.1479 462.8743,-171.2313"/>
<text text-anchor="middle" x="533" y="-217" font-family="Helvetica,sans-Serif" font-size="10.00" fill="#000000"> +runID</text>
<text text-anchor="middle" x="533" y="-206" font-family="Helvetica,sans-Serif" font-size="10.00" fill="#000000">+maxEvents</text>
<text text-anchor="middle" x="533" y="-195" font-family="Helvetica,sans-Serif" font-size="10.00" fill="#000000">+npersistenttracks</text>
<text text-anchor="middle" x="533" y="-184" font-family="Helvetica,sans-Serif" font-size="10.00" fill="#000000">+nprimarytracks</text>
</g>
<!-- Node12 -->
<g id="node12" class="node">
<title>Node12</title>
<g id="a_node12"><a xlink:href="../../d3/d87/classuint32__t.html" target="_top" xlink:title="{uint32_t\n||}">
<polygon fill="none" stroke="#000000" points="581,-298.5 581,-355.5 637,-355.5 637,-298.5 581,-298.5"/>
<text text-anchor="middle" x="609" y="-343.5" font-family="Helvetica,sans-Serif" font-size="10.00" fill="#000000">uint32_t</text>
<polyline fill="none" stroke="#000000" points="581,-336.5 637,-336.5 "/>
<text text-anchor="middle" x="609" y="-324.5" font-family="Helvetica,sans-Serif" font-size="10.00" fill="#000000"> </text>
<polyline fill="none" stroke="#000000" points="581,-317.5 637,-317.5 "/>
<text text-anchor="middle" x="609" y="-305.5" font-family="Helvetica,sans-Serif" font-size="10.00" fill="#000000"> </text>
</a>
</g>
</g>
<!-- Node12&#45;&gt;Node3 -->
<g id="edge11" class="edge">
<title>Node12&#45;&gt;Node3</title>
<path fill="none" stroke="#404040" d="M612.5002,-298.4103C614.8036,-265.8027 613.1447,-212.8919 584,-181 569.9635,-165.6404 524.0111,-153.7007 482.4479,-145.6991"/>
<polygon fill="none" stroke="#404040" points="482.3858,-145.6876 475.7562,-148.5246 470.5876,-143.4961 477.2172,-140.6591 482.3858,-145.6876"/>
<text text-anchor="middle" x="629.5" y="-211.5" font-family="Helvetica,sans-Serif" font-size="10.00" fill="#000000"> +index</text>
<text text-anchor="middle" x="629.5" y="-200.5" font-family="Helvetica,sans-Serif" font-size="10.00" fill="#000000">+eventID</text>
<text text-anchor="middle" x="629.5" y="-189.5" font-family="Helvetica,sans-Serif" font-size="10.00" fill="#000000">+seed</text>
</g>
</g>
</svg>
        <g id="navigator" transform="translate(0 0)" fill="#404254">
                <rect fill="#f2f5e9" fill-opacity="0.5" stroke="#606060" stroke-width=".5" x="0" y="0" width="60" height="60"/>
                <use id="zoomplus" xlink:href="#zoomPlus" x="17" y="9" onmousedown="handleZoom(evt,'in')"/>
                <use id="zoomminus" xlink:href="#zoomMin" x="42" y="9" onmousedown="handleZoom(evt,'out')"/>
                <use id="reset" xlink:href="#resetDef" x="30" y="36" onmousedown="handleReset()"/>
                <g id="arrowUp" xlink:href="#dirArrow" transform="translate(30 24)" onmousedown="handlePan(0,-1)">
                  <use xlink:href="#rim" fill="#404040">
                        <set attributeName="fill" to="#808080" begin="arrowUp.mouseover" end="arrowUp.mouseout"/>
                  </use>
                  <path fill="none" stroke="white" stroke-width="1.5" d="M0,-3.0v7 M-2.5,-0.5L0,-3.0L2.5,-0.5"/>
                </g>
                <g id="arrowRight" xlink:href="#dirArrow" transform="rotate(90) translate(36 -43)" onmousedown="handlePan(1,0)">
                  <use xlink:href="#rim" fill="#404040">
                        <set attributeName="fill" to="#808080" begin="arrowRight.mouseover" end="arrowRight.mouseout"/>
                  </use>
                  <path fill="none" stroke="white" stroke-width="1.5" d="M0,-3.0v7 M-2.5,-0.5L0,-3.0L2.5,-0.5"/>
                </g>
                <g id="arrowDown" xlink:href="#dirArrow" transform="rotate(180) translate(-30 -48)" onmousedown="handlePan(0,1)">
                  <use xlink:href="#rim" fill="#404040">
                        <set attributeName="fill" to="#808080" begin="arrowDown.mouseover" end="arrowDown.mouseout"/>
                  </use>
                  <path fill="none" stroke="white" stroke-width="1.5" d="M0,-3.0v7 M-2.5,-0.5L0,-3.0L2.5,-0.5"/>
                </g>
                <g id="arrowLeft" xlink:href="#dirArrow" transform="rotate(270) translate(-36 17)" onmousedown="handlePan(-1,0)">
                  <use xlink:href="#rim" fill="#404040">
                        <set attributeName="fill" to="#808080" begin="arrowLeft.mouseover" end="arrowLeft.mouseout"/>
                  </use>
                  <path fill="none" stroke="white" stroke-width="1.5" d="M0,-3.0v7 M-2.5,-0.5L0,-3.0L2.5,-0.5"/>
                </g>
        </g>
        <svg viewBox="0 0 15 15" width="100%" height="30px" preserveAspectRatio="xMaxYMin meet">
         <g id="arrow_out" transform="scale(0.3 0.3)">
          <a xlink:href="structo2_1_1data_1_1PrimaryChunk__coll__graph_org.svg" target="_base">
           <rect id="button" ry="5" rx="5" y="6" x="6" height="38" width="38"
                fill="#f2f5e9" fill-opacity="0.5" stroke="#606060" stroke-width="1.0"/>
           <path id="arrow"
             d="M 11.500037,31.436501 C 11.940474,20.09759 22.043105,11.32322 32.158766,21.979434 L 37.068811,17.246167 C 37.068811,17.246167 37.088388,32 37.088388,32 L 22.160133,31.978069 C 22.160133,31.978069 26.997745,27.140456 26.997745,27.140456 C 18.528582,18.264221 13.291696,25.230495 11.500037,31.436501 z"
             style="fill:#404040;"/>
          </a>
         </g>
        </svg>
</svg>
