<?xml version="1.0" encoding="UTF-8" standalone="no"?>
<!DOCTYPE svg PUBLIC "-//W3C//DTD SVG 1.1//EN"
 "http://www.w3.org/Graphics/SVG/1.1/DTD/svg11.dtd">
<!-- Generated by graphviz version 2.40.1 (20161225.0304)
 -->
<!-- Title: o2::framework::HashByColumnKernel Pages: 1 -->
<svg width="177pt" height="193pt"
 viewBox="0.00 0.00 177.00 193.00" xmlns="http://www.w3.org/2000/svg" xmlns:xlink="http://www.w3.org/1999/xlink">
<g id="graph0" class="graph" transform="scale(1 1) rotate(0) translate(4 189)">
<title>o2::framework::HashByColumnKernel</title>
<!-- Node2 -->
<g id="node1" class="node">
<title>Node2</title>
<polygon fill="#bfbfbf" stroke="#000000" points="0,-.5 0,-90.5 169,-90.5 169,-.5 0,-.5"/>
<text text-anchor="start" x="8" y="-78.5" font-family="Helvetica,sans-Serif" font-size="10.00" fill="#000000">o2::framework::HashByColumn</text>
<text text-anchor="middle" x="84.5" y="-67.5" font-family="Helvetica,sans-Serif" font-size="10.00" fill="#000000">Kernel</text>
<polyline fill="none" stroke="#000000" points="0,-60.5 169,-60.5 "/>
<text text-anchor="middle" x="84.5" y="-48.5" font-family="Helvetica,sans-Serif" font-size="10.00" fill="#000000"> </text>
<polyline fill="none" stroke="#000000" points="0,-41.5 169,-41.5 "/>
<text text-anchor="start" x="8" y="-29.5" font-family="Helvetica,sans-Serif" font-size="10.00" fill="#000000">+ HashByColumnKernel()</text>
<text text-anchor="start" x="8" y="-18.5" font-family="Helvetica,sans-Serif" font-size="10.00" fill="#000000">+ Call()</text>
<text text-anchor="start" x="8" y="-7.5" font-family="Helvetica,sans-Serif" font-size="10.00" fill="#000000">+ out_type()</text>
</g>
<!-- Node3 -->
<g id="node2" class="node">
<title>Node3</title>
<g id="a_node2"><a xlink:href="../../d7/db5/classarrow_1_1compute_1_1UnaryKernel.html" target="_top" xlink:title="{UnaryKernel\n||}">
<polygon fill="none" stroke="#000000" points="46,-127.5 46,-184.5 123,-184.5 123,-127.5 46,-127.5"/>
<text text-anchor="middle" x="84.5" y="-172.5" font-family="Helvetica,sans-Serif" font-size="10.00" fill="#000000">UnaryKernel</text>
<polyline fill="none" stroke="#000000" points="46,-165.5 123,-165.5 "/>
<text text-anchor="middle" x="84.5" y="-153.5" font-family="Helvetica,sans-Serif" font-size="10.00" fill="#000000"> </text>
<polyline fill="none" stroke="#000000" points="46,-146.5 123,-146.5 "/>
<text text-anchor="middle" x="84.5" y="-134.5" font-family="Helvetica,sans-Serif" font-size="10.00" fill="#000000"> </text>
</a>
</g>
</g>
<!-- Node3&#45;&gt;Node2 -->
<g id="edge1" class="edge">
<title>Node3&#45;&gt;Node2</title>
<path fill="none" stroke="#191970" d="M84.5,-117.1977C84.5,-108.667 84.5,-99.5607 84.5,-90.7995"/>
<polygon fill="none" stroke="#191970" points="81.0001,-117.2559 84.5,-127.2559 88.0001,-117.2559 81.0001,-117.2559"/>
</g>
</g>
</svg>
