<?xml version="1.0" encoding="UTF-8" standalone="no"?>
<!DOCTYPE svg PUBLIC "-//W3C//DTD SVG 1.1//EN"
 "http://www.w3.org/Graphics/SVG/1.1/DTD/svg11.dtd">
<!-- Generated by graphviz version 2.40.1 (20161225.0304)
 -->
<!-- Title: /home/travis/build/AliceO2Group/AliceO2/Framework/Core/test/benchmark_DataDescriptorMatcher.cxx Pages: 1 -->
<!--zoomable 318 -->
<svg id="main" version="1.1" xmlns="http://www.w3.org/2000/svg" xmlns:xlink="http://www.w3.org/1999/xlink" xml:space="preserve" onload="init(evt)">
<style type="text/css"><![CDATA[
.edge:hover path { stroke: red; }
.edge:hover polygon { stroke: red; fill: red; }
]]></style>
<script type="text/javascript"><![CDATA[
var edges = document.getElementsByTagName('g');
if (edges && edges.length) {
  for (var i=0;i<edges.length;i++) {
    if (edges[i].id.substr(0,4)=='edge') {
      edges[i].setAttribute('class','edge');
    }
  }
}
]]></script>
        <defs>
                <circle id="rim" cx="0" cy="0" r="7"/>
                <circle id="rim2" cx="0" cy="0" r="3.5"/>
                <g id="zoomPlus">
                        <use xlink:href="#rim" fill="#404040">
                                <set attributeName="fill" to="#808080" begin="zoomplus.mouseover" end="zoomplus.mouseout"/>
                        </use>
                        <path d="M-4,0h8M0,-4v8" fill="none" stroke="white" stroke-width="1.5" pointer-events="none"/>
                </g>
                <g id="zoomMin">
                        <use xlink:href="#rim" fill="#404040">
                                <set attributeName="fill" to="#808080" begin="zoomminus.mouseover" end="zoomminus.mouseout"/>
                        </use>
                        <path d="M-4,0h8" fill="none" stroke="white" stroke-width="1.5" pointer-events="none"/>
                </g>
                <g id="dirArrow">
                        <path fill="none" stroke="white" stroke-width="1.5" d="M0,-3.0v7 M-2.5,-0.5L0,-3.0L2.5,-0.5"/>
                </g>
               <g id="resetDef">
                       <use xlink:href="#rim2" fill="#404040">
                               <set attributeName="fill" to="#808080" begin="reset.mouseover" end="reset.mouseout"/>
                       </use>
               </g>
        </defs>

<script type="text/javascript">
var viewWidth = 2646;
var viewHeight = 318;
var sectionId = 'dynsection-0';
</script>
<script xlink:href="../../svgpan.js"/>
<svg id="graph" class="graph">
<g id="viewport">
<title>/home/travis/build/AliceO2Group/AliceO2/Framework/Core/test/benchmark_DataDescriptorMatcher.cxx</title>
<!-- Node0 -->
<g id="node1" class="node">
<title>Node0</title>
<polygon fill="#bfbfbf" stroke="#000000" points="76.5,-257.5 76.5,-309.5 255.5,-309.5 255.5,-257.5 76.5,-257.5"/>
<text text-anchor="start" x="84.5" y="-297.5" font-family="Helvetica,sans-Serif" font-size="10.00" fill="#000000">/home/travis/build</text>
<text text-anchor="start" x="84.5" y="-286.5" font-family="Helvetica,sans-Serif" font-size="10.00" fill="#000000">/AliceO2Group/AliceO2</text>
<text text-anchor="start" x="84.5" y="-275.5" font-family="Helvetica,sans-Serif" font-size="10.00" fill="#000000">/Framework/Core/test/benchmark</text>
<text text-anchor="middle" x="166" y="-264.5" font-family="Helvetica,sans-Serif" font-size="10.00" fill="#000000">_DataDescriptorMatcher.cxx</text>
</g>
<!-- Node1 -->
<g id="node2" class="node">
<title>Node1</title>
<polygon fill="none" stroke="#bfbfbf" points="0,-196 0,-215 138,-215 138,-196 0,-196"/>
<text text-anchor="middle" x="69" y="-203" font-family="Helvetica,sans-Serif" font-size="10.00" fill="#000000">benchmark/benchmark.h</text>
</g>
<!-- Node0&#45;&gt;Node1 -->
<g id="edge1" class="edge">
<title>Node0&#45;&gt;Node1</title>
<path fill="none" stroke="#191970" d="M133.4306,-257.3101C118.7629,-245.5155 101.9084,-231.9625 89.1176,-221.677"/>
<polygon fill="#191970" stroke="#191970" points="90.9747,-218.6791 80.9883,-215.1401 86.5881,-224.1342 90.9747,-218.6791"/>
</g>
<!-- Node2 -->
<g id="node3" class="node">
<title>Node2</title>
<g id="a_node3"><a xlink:href="../../dc/dcd/DataHeader_8h.html" target="_top" xlink:title="Headers/DataHeader.h">
<polygon fill="none" stroke="#000000" points="509.5,-67.5 509.5,-86.5 636.5,-86.5 636.5,-67.5 509.5,-67.5"/>
<text text-anchor="middle" x="573" y="-74.5" font-family="Helvetica,sans-Serif" font-size="10.00" fill="#000000">Headers/DataHeader.h</text>
</a>
</g>
</g>
<!-- Node0&#45;&gt;Node2 -->
<g id="edge2" class="edge">
<title>Node0&#45;&gt;Node2</title>
<path fill="none" stroke="#191970" d="M171.9129,-257.4847C181.6689,-220.9984 204.8302,-155.4635 251,-123 289.857,-95.6784 416.7024,-84.4006 499.1104,-79.879"/>
<polygon fill="#191970" stroke="#191970" points="499.3786,-83.3698 509.1803,-79.3478 499.0098,-76.3795 499.3786,-83.3698"/>
</g>
<!-- Node13 -->
<g id="node14" class="node">
<title>Node13</title>
<g id="a_node14"><a xlink:href="../../d3/da3/DataDescriptorMatcher_8h.html" target="_top" xlink:title="Framework/DataDescriptor\lMatcher.h">
<polygon fill="none" stroke="#000000" points="521.5,-190.5 521.5,-220.5 668.5,-220.5 668.5,-190.5 521.5,-190.5"/>
<text text-anchor="start" x="529.5" y="-208.5" font-family="Helvetica,sans-Serif" font-size="10.00" fill="#000000">Framework/DataDescriptor</text>
<text text-anchor="middle" x="595" y="-197.5" font-family="Helvetica,sans-Serif" font-size="10.00" fill="#000000">Matcher.h</text>
</a>
</g>
</g>
<!-- Node0&#45;&gt;Node13 -->
<g id="edge13" class="edge">
<title>Node0&#45;&gt;Node13</title>
<path fill="none" stroke="#191970" d="M255.6712,-267.1961C330.9763,-253.5043 437.7635,-234.0885 511.33,-220.7127"/>
<polygon fill="#191970" stroke="#191970" points="512.2707,-224.0992 521.4833,-218.8667 511.0185,-217.2121 512.2707,-224.0992"/>
</g>
<!-- Node3 -->
<g id="node4" class="node">
<title>Node3</title>
<polygon fill="none" stroke="#bfbfbf" points="256,-6 256,-25 306,-25 306,-6 256,-6"/>
<text text-anchor="middle" x="281" y="-13" font-family="Helvetica,sans-Serif" font-size="10.00" fill="#000000">cstdint</text>
</g>
<!-- Node2&#45;&gt;Node3 -->
<g id="edge3" class="edge">
<title>Node2&#45;&gt;Node3</title>
<path fill="none" stroke="#191970" d="M509.3818,-70.1799C456.504,-63.4431 379.7223,-51.1691 315,-31 313.0955,-30.4065 311.158,-29.732 309.2228,-29.0044"/>
<polygon fill="#191970" stroke="#191970" points="310.3082,-25.6651 299.7309,-25.0545 307.6187,-32.1279 310.3082,-25.6651"/>
</g>
<!-- Node4 -->
<g id="node5" class="node">
<title>Node4</title>
<polygon fill="none" stroke="#bfbfbf" points="694,-6 694,-25 752,-25 752,-6 694,-6"/>
<text text-anchor="middle" x="723" y="-13" font-family="Helvetica,sans-Serif" font-size="10.00" fill="#000000">memory</text>
</g>
<!-- Node2&#45;&gt;Node4 -->
<g id="edge4" class="edge">
<title>Node2&#45;&gt;Node4</title>
<path fill="none" stroke="#191970" d="M596.4375,-67.3906C621.6453,-57.0554 661.9153,-40.5447 690.2477,-28.9284"/>
<polygon fill="#191970" stroke="#191970" points="691.8023,-32.0739 699.7271,-25.0419 689.1468,-25.5971 691.8023,-32.0739"/>
</g>
<!-- Node5 -->
<g id="node6" class="node">
<title>Node5</title>
<polygon fill="none" stroke="#bfbfbf" points="624,-6 624,-25 676,-25 676,-6 624,-6"/>
<text text-anchor="middle" x="650" y="-13" font-family="Helvetica,sans-Serif" font-size="10.00" fill="#000000">cassert</text>
</g>
<!-- Node2&#45;&gt;Node5 -->
<g id="edge5" class="edge">
<title>Node2&#45;&gt;Node5</title>
<path fill="none" stroke="#191970" d="M585.0313,-67.3906C597.0107,-57.8227 615.6166,-42.9621 629.8525,-31.5919"/>
<polygon fill="#191970" stroke="#191970" points="632.4239,-34.0175 638.0532,-25.0419 628.0553,-28.5479 632.4239,-34.0175"/>
</g>
<!-- Node6 -->
<g id="node7" class="node">
<title>Node6</title>
<polygon fill="none" stroke="#bfbfbf" points="832,-6 832,-25 882,-25 882,-6 832,-6"/>
<text text-anchor="middle" x="857" y="-13" font-family="Helvetica,sans-Serif" font-size="10.00" fill="#000000">cstring</text>
</g>
<!-- Node2&#45;&gt;Node6 -->
<g id="edge6" class="edge">
<title>Node2&#45;&gt;Node6</title>
<path fill="none" stroke="#191970" d="M636.7167,-69.6735C687.8718,-62.7488 761.118,-50.4717 823,-31 824.9028,-30.4013 826.8391,-29.7227 828.7733,-28.9922"/>
<polygon fill="#191970" stroke="#191970" points="830.3804,-32.1142 838.263,-25.035 827.6862,-25.6534 830.3804,-32.1142"/>
</g>
<!-- Node7 -->
<g id="node8" class="node">
<title>Node7</title>
<polygon fill="none" stroke="#bfbfbf" points="458,-6 458,-25 522,-25 522,-6 458,-6"/>
<text text-anchor="middle" x="490" y="-13" font-family="Helvetica,sans-Serif" font-size="10.00" fill="#000000">algorithm</text>
</g>
<!-- Node2&#45;&gt;Node7 -->
<g id="edge7" class="edge">
<title>Node2&#45;&gt;Node7</title>
<path fill="none" stroke="#191970" d="M560.0313,-67.3906C546.9966,-57.7324 526.6836,-42.6812 511.2845,-31.271"/>
<polygon fill="#191970" stroke="#191970" points="512.9961,-28.1832 502.8777,-25.0419 508.8287,-33.8075 512.9961,-28.1832"/>
</g>
<!-- Node8 -->
<g id="node9" class="node">
<title>Node8</title>
<polygon fill="none" stroke="#bfbfbf" points="540.5,-6 540.5,-25 605.5,-25 605.5,-6 540.5,-6"/>
<text text-anchor="middle" x="573" y="-13" font-family="Helvetica,sans-Serif" font-size="10.00" fill="#000000">stdexcept</text>
</g>
<!-- Node2&#45;&gt;Node8 -->
<g id="edge8" class="edge">
<title>Node2&#45;&gt;Node8</title>
<path fill="none" stroke="#191970" d="M573,-67.3906C573,-58.8657 573,-46.1392 573,-35.4235"/>
<polygon fill="#191970" stroke="#191970" points="576.5001,-35.2448 573,-25.2449 569.5001,-35.2449 576.5001,-35.2448"/>
</g>
<!-- Node9 -->
<g id="node10" class="node">
<title>Node9</title>
<polygon fill="none" stroke="#bfbfbf" points="770,-6 770,-25 814,-25 814,-6 770,-6"/>
<text text-anchor="middle" x="792" y="-13" font-family="Helvetica,sans-Serif" font-size="10.00" fill="#000000">string</text>
</g>
<!-- Node2&#45;&gt;Node9 -->
<g id="edge9" class="edge">
<title>Node2&#45;&gt;Node9</title>
<path fill="none" stroke="#191970" d="M625.3972,-67.458C663.6364,-59.7099 716.3657,-47.3842 761,-31 762.4122,-30.4816 763.8442,-29.9167 765.2786,-29.3192"/>
<polygon fill="#191970" stroke="#191970" points="766.9621,-32.3979 774.5976,-25.0529 764.0482,-26.0332 766.9621,-32.3979"/>
</g>
<!-- Node10 -->
<g id="node11" class="node">
<title>Node10</title>
<polygon fill="none" stroke="#bfbfbf" points="324,-6 324,-25 374,-25 374,-6 324,-6"/>
<text text-anchor="middle" x="349" y="-13" font-family="Helvetica,sans-Serif" font-size="10.00" fill="#000000">climits</text>
</g>
<!-- Node2&#45;&gt;Node10 -->
<g id="edge10" class="edge">
<title>Node2&#45;&gt;Node10</title>
<path fill="none" stroke="#191970" d="M522.2448,-67.4537C483.5364,-59.5184 429.1934,-46.9585 383,-31 381.1605,-30.3645 379.2852,-29.6651 377.4078,-28.9255"/>
<polygon fill="#191970" stroke="#191970" points="378.7315,-25.6851 368.1587,-25.0021 375.9979,-32.1293 378.7315,-25.6851"/>
</g>
<!-- Node11 -->
<g id="node12" class="node">
<title>Node11</title>
<g id="a_node12"><a xlink:href="../../d7/df8/Types_8h.html" target="_top" xlink:title="MemoryResources/Types.h">
<polygon fill="none" stroke="#000000" points="900,-6 900,-25 1046,-25 1046,-6 900,-6"/>
<text text-anchor="middle" x="973" y="-13" font-family="Helvetica,sans-Serif" font-size="10.00" fill="#000000">MemoryResources/Types.h</text>
</a>
</g>
</g>
<!-- Node2&#45;&gt;Node11 -->
<g id="edge11" class="edge">
<title>Node2&#45;&gt;Node11</title>
<path fill="none" stroke="#191970" d="M636.7781,-68.5982C701.0729,-59.9348 803.1005,-45.6581 891,-31 898.6367,-29.7265 906.6581,-28.3093 914.571,-26.8639"/>
<polygon fill="#191970" stroke="#191970" points="915.3026,-30.288 924.4987,-25.0266 914.0287,-23.4049 915.3026,-30.288"/>
</g>
<!-- Node12 -->
<g id="node13" class="node">
<title>Node12</title>
<polygon fill="none" stroke="#bfbfbf" points="392.5,-6 392.5,-25 439.5,-25 439.5,-6 392.5,-6"/>
<text text-anchor="middle" x="416" y="-13" font-family="Helvetica,sans-Serif" font-size="10.00" fill="#000000">cerrno</text>
</g>
<!-- Node2&#45;&gt;Node12 -->
<g id="edge12" class="edge">
<title>Node2&#45;&gt;Node12</title>
<path fill="none" stroke="#191970" d="M545.1606,-67.4256C519.8573,-58.5459 481.608,-44.6778 449,-31 447.6502,-30.4338 446.275,-29.8434 444.89,-29.2379"/>
<polygon fill="#191970" stroke="#191970" points="446.3265,-26.0463 435.7725,-25.1161 443.4429,-32.4248 446.3265,-26.0463"/>
</g>
<!-- Node13&#45;&gt;Node2 -->
<g id="edge23" class="edge">
<title>Node13&#45;&gt;Node2</title>
<path fill="none" stroke="#191970" d="M521.2646,-199.1846C428.0816,-190.4443 277.7343,-173.5123 261,-154 252.0306,-143.5416 251.9961,-133.4287 261,-123 276.3806,-105.1855 411.8475,-90.55 499.1507,-82.8595"/>
<polygon fill="#191970" stroke="#191970" points="499.6243,-86.3316 509.2837,-81.9789 499.0182,-79.3579 499.6243,-86.3316"/>
</g>
<!-- Node13&#45;&gt;Node3 -->
<g id="edge43" class="edge">
<title>Node13&#45;&gt;Node3</title>
<path fill="none" stroke="#191970" d="M521.111,-199.5257C425.3203,-191.0192 268.391,-174.1884 251,-154 221.4257,-119.6685 249.9343,-63.0476 268.2581,-33.98"/>
<polygon fill="#191970" stroke="#191970" points="271.4257,-35.5321 273.9832,-25.2505 265.5722,-31.6931 271.4257,-35.5321"/>
</g>
<!-- Node13&#45;&gt;Node9 -->
<g id="edge45" class="edge">
<title>Node13&#45;&gt;Node9</title>
<path fill="none" stroke="#191970" d="M668.6003,-201.2358C778.4561,-194.11 974.76,-178.1423 996,-154 1034.7687,-109.9339 947.0758,-74.0243 935,-67 889.8041,-40.7102 871.4128,-50.749 823,-31 821.8091,-30.5142 820.601,-30.0015 819.3867,-29.4697"/>
<polygon fill="#191970" stroke="#191970" points="820.6869,-26.214 810.1456,-25.151 817.7233,-32.5557 820.6869,-26.214"/>
</g>
<!-- Node14 -->
<g id="node15" class="node">
<title>Node14</title>
<g id="a_node15"><a xlink:href="../../d0/d1b/ConcreteDataMatcher_8h.html" target="_top" xlink:title="Framework/ConcreteDataMatcher.h">
<polygon fill="none" stroke="#000000" points="270,-129 270,-148 458,-148 458,-129 270,-129"/>
<text text-anchor="middle" x="364" y="-136" font-family="Helvetica,sans-Serif" font-size="10.00" fill="#000000">Framework/ConcreteDataMatcher.h</text>
</a>
</g>
</g>
<!-- Node13&#45;&gt;Node14 -->
<g id="edge14" class="edge">
<title>Node13&#45;&gt;Node14</title>
<path fill="none" stroke="#191970" d="M543.1591,-190.4639C502.0085,-178.5284 445.1795,-162.0456 406.6411,-150.8678"/>
<polygon fill="#191970" stroke="#191970" points="407.3511,-147.4295 396.772,-148.0053 405.4011,-154.1524 407.3511,-147.4295"/>
</g>
<!-- Node15 -->
<g id="node16" class="node">
<title>Node15</title>
<g id="a_node16"><a xlink:href="../../d6/dc9/DataProcessingHeader_8h.html" target="_top" xlink:title="Framework/DataProcessing\lHeader.h">
<polygon fill="none" stroke="#000000" points="837.5,-123.5 837.5,-153.5 986.5,-153.5 986.5,-123.5 837.5,-123.5"/>
<text text-anchor="start" x="845.5" y="-141.5" font-family="Helvetica,sans-Serif" font-size="10.00" fill="#000000">Framework/DataProcessing</text>
<text text-anchor="middle" x="912" y="-130.5" font-family="Helvetica,sans-Serif" font-size="10.00" fill="#000000">Header.h</text>
</a>
</g>
</g>
<!-- Node13&#45;&gt;Node15 -->
<g id="edge16" class="edge">
<title>Node13&#45;&gt;Node15</title>
<path fill="none" stroke="#191970" d="M666.141,-190.4639C714.9998,-180.1373 779.9646,-166.4065 830.8437,-155.6529"/>
<polygon fill="#191970" stroke="#191970" points="831.7627,-159.0361 840.8228,-153.5438 830.3151,-152.1874 831.7627,-159.0361"/>
</g>
<!-- Node18 -->
<g id="node19" class="node">
<title>Node18</title>
<g id="a_node19"><a xlink:href="../../d4/d00/Headers_2include_2Headers_2Stack_8h.html" target="_top" xlink:title="Headers/Stack.h">
<polygon fill="none" stroke="#000000" points="1042,-129 1042,-148 1138,-148 1138,-129 1042,-129"/>
<text text-anchor="middle" x="1090" y="-136" font-family="Helvetica,sans-Serif" font-size="10.00" fill="#000000">Headers/Stack.h</text>
</a>
</g>
</g>
<!-- Node13&#45;&gt;Node18 -->
<g id="edge24" class="edge">
<title>Node13&#45;&gt;Node18</title>
<path fill="none" stroke="#191970" d="M668.5903,-199.6073C755.0854,-192.0222 902.7253,-177.0137 1028,-154 1033.5245,-152.9851 1039.2886,-151.7655 1044.9815,-150.4618"/>
<polygon fill="#191970" stroke="#191970" points="1046.1706,-153.7763 1055.0848,-148.0503 1044.5454,-146.9676 1046.1706,-153.7763"/>
</g>
<!-- Node26 -->
<g id="node27" class="node">
<title>Node26</title>
<polygon fill="none" stroke="#bfbfbf" points="2590.5,-6 2590.5,-25 2637.5,-25 2637.5,-6 2590.5,-6"/>
<text text-anchor="middle" x="2614" y="-13" font-family="Helvetica,sans-Serif" font-size="10.00" fill="#000000">vector</text>
</g>
<!-- Node13&#45;&gt;Node26 -->
<g id="edge47" class="edge">
<title>Node13&#45;&gt;Node26</title>
<path fill="none" stroke="#191970" d="M668.5647,-202.6056C982.4383,-189.7103 2210.4292,-133.5684 2582,-31 2583.919,-30.4703 2585.8624,-29.828 2587.7935,-29.11"/>
<polygon fill="#191970" stroke="#191970" points="2589.3839,-32.2357 2597.1776,-25.0588 2586.6093,-25.809 2589.3839,-32.2357"/>
</g>
<!-- Node32 -->
<g id="node33" class="node">
<title>Node32</title>
<polygon fill="none" stroke="#bfbfbf" points="476,-129 476,-148 518,-148 518,-129 476,-129"/>
<text text-anchor="middle" x="497" y="-136" font-family="Helvetica,sans-Serif" font-size="10.00" fill="#000000">array</text>
</g>
<!-- Node13&#45;&gt;Node32 -->
<g id="edge42" class="edge">
<title>Node13&#45;&gt;Node32</title>
<path fill="none" stroke="#191970" d="M572.7623,-190.2967C556.7522,-179.351 535.2437,-164.6462 519.2344,-153.701"/>
<polygon fill="#191970" stroke="#191970" points="521.2064,-150.8095 510.9759,-148.055 517.2557,-156.5881 521.2064,-150.8095"/>
</g>
<!-- Node33 -->
<g id="node34" class="node">
<title>Node33</title>
<polygon fill="none" stroke="#bfbfbf" points="536.5,-129 536.5,-148 585.5,-148 585.5,-129 536.5,-129"/>
<text text-anchor="middle" x="561" y="-136" font-family="Helvetica,sans-Serif" font-size="10.00" fill="#000000">iosfwd</text>
</g>
<!-- Node13&#45;&gt;Node33 -->
<g id="edge44" class="edge">
<title>Node13&#45;&gt;Node33</title>
<path fill="none" stroke="#191970" d="M587.2849,-190.2967C582.2961,-180.4658 575.7685,-167.6026 570.4664,-157.1545"/>
<polygon fill="#191970" stroke="#191970" points="573.4953,-155.3886 565.8488,-148.055 567.253,-158.5563 573.4953,-155.3886"/>
</g>
<!-- Node34 -->
<g id="node35" class="node">
<title>Node34</title>
<polygon fill="none" stroke="#bfbfbf" points="603.5,-129 603.5,-148 654.5,-148 654.5,-129 603.5,-129"/>
<text text-anchor="middle" x="629" y="-136" font-family="Helvetica,sans-Serif" font-size="10.00" fill="#000000">variant</text>
</g>
<!-- Node13&#45;&gt;Node34 -->
<g id="edge46" class="edge">
<title>Node13&#45;&gt;Node34</title>
<path fill="none" stroke="#191970" d="M602.7151,-190.2967C607.7039,-180.4658 614.2315,-167.6026 619.5336,-157.1545"/>
<polygon fill="#191970" stroke="#191970" points="622.747,-158.5563 624.1512,-148.055 616.5047,-155.3886 622.747,-158.5563"/>
</g>
<!-- Node35 -->
<g id="node36" class="node">
<title>Node35</title>
<polygon fill="none" stroke="#bfbfbf" points="673,-129 673,-148 819,-148 819,-129 673,-129"/>
<text text-anchor="middle" x="746" y="-136" font-family="Helvetica,sans-Serif" font-size="10.00" fill="#000000">DataDescriptorMatcher.inc</text>
</g>
<!-- Node13&#45;&gt;Node35 -->
<g id="edge48" class="edge">
<title>Node13&#45;&gt;Node35</title>
<path fill="none" stroke="#191970" d="M628.8873,-190.4639C654.6797,-179.0196 689.8945,-163.3945 714.9571,-152.274"/>
<polygon fill="#191970" stroke="#191970" points="716.6343,-155.359 724.3553,-148.1039 713.7952,-148.9605 716.6343,-155.359"/>
</g>
<!-- Node14&#45;&gt;Node2 -->
<g id="edge15" class="edge">
<title>Node14&#45;&gt;Node2</title>
<path fill="none" stroke="#191970" d="M396.6563,-128.8906C432.8528,-118.2395 491.3386,-101.0296 530.9375,-89.3772"/>
<polygon fill="#191970" stroke="#191970" points="531.9678,-92.7225 540.5731,-86.5419 529.9917,-86.0072 531.9678,-92.7225"/>
</g>
<!-- Node15&#45;&gt;Node2 -->
<g id="edge17" class="edge">
<title>Node15&#45;&gt;Node2</title>
<path fill="none" stroke="#191970" d="M837.3478,-124.7089C834.1899,-124.1306 831.0636,-123.559 828,-123 762.6551,-111.0773 687.8569,-97.6051 636.2492,-88.3372"/>
<polygon fill="#191970" stroke="#191970" points="636.7077,-84.8636 626.2466,-86.5413 635.4707,-91.7534 636.7077,-84.8636"/>
</g>
<!-- Node15&#45;&gt;Node3 -->
<g id="edge18" class="edge">
<title>Node15&#45;&gt;Node3</title>
<path fill="none" stroke="#191970" d="M837.3921,-124.4403C834.222,-123.9355 831.0811,-123.4527 828,-123 682.9048,-101.6799 643.6823,-116.3692 500,-87 415.8336,-69.7961 395.3745,-61.3298 315,-31 313.4144,-30.4016 311.7982,-29.764 310.1744,-29.1013"/>
<polygon fill="#191970" stroke="#191970" points="311.5171,-25.8688 300.948,-25.1312 308.7503,-32.2988 311.5171,-25.8688"/>
</g>
<!-- Node15&#45;&gt;Node4 -->
<g id="edge20" class="edge">
<title>Node15&#45;&gt;Node4</title>
<path fill="none" stroke="#191970" d="M918.8093,-123.3353C924.7598,-107.5255 930.6518,-82.8811 918,-67 873.3933,-11.0073 829.2556,-52.5896 761,-31 758.8474,-30.3191 756.6455,-29.5693 754.4395,-28.7781"/>
<polygon fill="#191970" stroke="#191970" points="755.4721,-25.426 744.8814,-25.1292 752.9755,-31.9657 755.4721,-25.426"/>
</g>
<!-- Node15&#45;&gt;Node5 -->
<g id="edge21" class="edge">
<title>Node15&#45;&gt;Node5</title>
<path fill="none" stroke="#191970" d="M895.5823,-123.2276C877.4112,-107.0905 846.6264,-81.9522 816,-67 761.7405,-40.5098 741.8728,-51.2809 685,-31 683.1691,-30.3471 681.2997,-29.641 679.4244,-28.9025"/>
<polygon fill="#191970" stroke="#191970" points="680.7278,-25.6539 670.151,-25.0348 678.0332,-32.1145 680.7278,-25.6539"/>
</g>
<!-- Node16 -->
<g id="node17" class="node">
<title>Node16</title>
<polygon fill="none" stroke="#bfbfbf" points="863,-67.5 863,-86.5 909,-86.5 909,-67.5 863,-67.5"/>
<text text-anchor="middle" x="886" y="-74.5" font-family="Helvetica,sans-Serif" font-size="10.00" fill="#000000">cstdio</text>
</g>
<!-- Node15&#45;&gt;Node16 -->
<g id="edge19" class="edge">
<title>Node15&#45;&gt;Node16</title>
<path fill="none" stroke="#191970" d="M905.573,-123.2977C902.1143,-115.1166 897.8133,-104.943 894.1246,-96.2179"/>
<polygon fill="#191970" stroke="#191970" points="897.2807,-94.6947 890.1629,-86.8469 890.8332,-97.4205 897.2807,-94.6947"/>
</g>
<!-- Node17 -->
<g id="node18" class="node">
<title>Node17</title>
<polygon fill="none" stroke="#bfbfbf" points="757,-67.5 757,-86.5 807,-86.5 807,-67.5 757,-67.5"/>
<text text-anchor="middle" x="782" y="-74.5" font-family="Helvetica,sans-Serif" font-size="10.00" fill="#000000">chrono</text>
</g>
<!-- Node15&#45;&gt;Node17 -->
<g id="edge22" class="edge">
<title>Node15&#45;&gt;Node17</title>
<path fill="none" stroke="#191970" d="M880.1984,-123.4554C859.1735,-113.509 831.8141,-100.5659 811.3157,-90.8686"/>
<polygon fill="#191970" stroke="#191970" points="812.6816,-87.6429 802.1454,-86.5303 809.6881,-93.9706 812.6816,-87.6429"/>
</g>
<!-- Node18&#45;&gt;Node2 -->
<g id="edge41" class="edge">
<title>Node18&#45;&gt;Node2</title>
<path fill="none" stroke="#191970" d="M1041.7736,-130.0241C1027.1008,-127.5866 1010.9125,-125.0388 996,-123 873.8005,-106.2935 731.0691,-91.8122 646.5667,-83.7599"/>
<polygon fill="#191970" stroke="#191970" points="646.8414,-80.2703 636.5555,-82.8101 646.1801,-87.2391 646.8414,-80.2703"/>
</g>
<!-- Node19 -->
<g id="node20" class="node">
<title>Node19</title>
<g id="a_node20"><a xlink:href="../../dc/d03/MemoryResources_8h.html" target="_top" xlink:title="MemoryResources/MemoryResources.h">
<polygon fill="none" stroke="#000000" points="1403.5,-67.5 1403.5,-86.5 1610.5,-86.5 1610.5,-67.5 1403.5,-67.5"/>
<text text-anchor="middle" x="1507" y="-74.5" font-family="Helvetica,sans-Serif" font-size="10.00" fill="#000000">MemoryResources/MemoryResources.h</text>
</a>
</g>
</g>
<!-- Node18&#45;&gt;Node19 -->
<g id="edge25" class="edge">
<title>Node18&#45;&gt;Node19</title>
<path fill="none" stroke="#191970" d="M1138.2426,-131.3851C1210.4507,-120.7357 1347.2335,-100.5627 1432.3854,-88.0043"/>
<polygon fill="#191970" stroke="#191970" points="1433.1237,-91.4334 1442.506,-86.5117 1432.1023,-84.5083 1433.1237,-91.4334"/>
</g>
<!-- Node19&#45;&gt;Node6 -->
<g id="edge30" class="edge">
<title>Node19&#45;&gt;Node6</title>
<path fill="none" stroke="#191970" d="M1403.2611,-73.6676C1253.6465,-68.109 984.9448,-55.1017 891,-31 888.8046,-30.4368 886.5752,-29.7386 884.3619,-28.9528"/>
<polygon fill="#191970" stroke="#191970" points="885.4987,-25.6364 874.9177,-25.0934 882.8507,-32.1162 885.4987,-25.6364"/>
</g>
<!-- Node19&#45;&gt;Node9 -->
<g id="edge31" class="edge">
<title>Node19&#45;&gt;Node9</title>
<path fill="none" stroke="#191970" d="M1403.1917,-75.0193C1239.5541,-71.0552 929.3091,-59.896 823,-31 821.2834,-30.5334 819.5499,-29.9679 817.8263,-29.3325"/>
<polygon fill="#191970" stroke="#191970" points="818.8126,-25.9433 808.2489,-25.1319 816.0009,-32.3538 818.8126,-25.9433"/>
</g>
<!-- Node19&#45;&gt;Node11 -->
<g id="edge40" class="edge">
<title>Node19&#45;&gt;Node11</title>
<path fill="none" stroke="#191970" d="M1403.2561,-68.8802C1311.6516,-61.1247 1174.6028,-48.0928 1056,-31 1047.6574,-29.7977 1038.8751,-28.3535 1030.2716,-26.8368"/>
<polygon fill="#191970" stroke="#191970" points="1030.754,-23.3673 1020.2909,-25.0331 1029.5091,-30.2557 1030.754,-23.3673"/>
</g>
<!-- Node20 -->
<g id="node21" class="node">
<title>Node20</title>
<polygon fill="none" stroke="#bfbfbf" points="1869.5,-.5 1869.5,-30.5 1980.5,-30.5 1980.5,-.5 1869.5,-.5"/>
<text text-anchor="start" x="1877.5" y="-18.5" font-family="Helvetica,sans-Serif" font-size="10.00" fill="#000000">boost/container/flat</text>
<text text-anchor="middle" x="1925" y="-7.5" font-family="Helvetica,sans-Serif" font-size="10.00" fill="#000000">_map.hpp</text>
</g>
<!-- Node19&#45;&gt;Node20 -->
<g id="edge26" class="edge">
<title>Node19&#45;&gt;Node20</title>
<path fill="none" stroke="#191970" d="M1600.69,-67.4901C1669.6308,-59.863 1765.7834,-47.9166 1859.4754,-30.9766"/>
<polygon fill="#191970" stroke="#191970" points="1860.2048,-34.4014 1869.4119,-29.1594 1858.9454,-27.5156 1860.2048,-34.4014"/>
</g>
<!-- Node21 -->
<g id="node22" class="node">
<title>Node21</title>
<polygon fill="none" stroke="#bfbfbf" points="1998.5,-.5 1998.5,-30.5 2127.5,-30.5 2127.5,-.5 1998.5,-.5"/>
<text text-anchor="start" x="2006.5" y="-18.5" font-family="Helvetica,sans-Serif" font-size="10.00" fill="#000000">boost/container/pmr</text>
<text text-anchor="middle" x="2063" y="-7.5" font-family="Helvetica,sans-Serif" font-size="10.00" fill="#000000">/memory_resource.hpp</text>
</g>
<!-- Node19&#45;&gt;Node21 -->
<g id="edge27" class="edge">
<title>Node19&#45;&gt;Node21</title>
<path fill="none" stroke="#191970" d="M1610.5927,-70.5728C1706.2904,-63.8438 1852.5521,-51.5582 1988.0412,-31.2053"/>
<polygon fill="#191970" stroke="#191970" points="1988.8315,-34.6255 1998.1919,-29.6622 1987.7794,-27.705 1988.8315,-34.6255"/>
</g>
<!-- Node22 -->
<g id="node23" class="node">
<title>Node22</title>
<polygon fill="none" stroke="#bfbfbf" points="2145.5,-.5 2145.5,-30.5 2318.5,-30.5 2318.5,-.5 2145.5,-.5"/>
<text text-anchor="start" x="2153.5" y="-18.5" font-family="Helvetica,sans-Serif" font-size="10.00" fill="#000000">boost/container/pmr</text>
<text text-anchor="middle" x="2232" y="-7.5" font-family="Helvetica,sans-Serif" font-size="10.00" fill="#000000">/monotonic_buffer_resource.hpp</text>
</g>
<!-- Node19&#45;&gt;Node22 -->
<g id="edge28" class="edge">
<title>Node19&#45;&gt;Node22</title>
<path fill="none" stroke="#191970" d="M1610.6681,-72.2594C1733.5437,-65.9995 1944.6737,-53.2311 2135.121,-31.1614"/>
<polygon fill="#191970" stroke="#191970" points="2135.7979,-34.6061 2145.3234,-29.9677 2134.9844,-27.6536 2135.7979,-34.6061"/>
</g>
<!-- Node23 -->
<g id="node24" class="node">
<title>Node23</title>
<polygon fill="none" stroke="#bfbfbf" points="2336.5,-.5 2336.5,-30.5 2485.5,-30.5 2485.5,-.5 2336.5,-.5"/>
<text text-anchor="start" x="2344.5" y="-18.5" font-family="Helvetica,sans-Serif" font-size="10.00" fill="#000000">boost/container/pmr</text>
<text text-anchor="middle" x="2411" y="-7.5" font-family="Helvetica,sans-Serif" font-size="10.00" fill="#000000">/polymorphic_allocator.hpp</text>
</g>
<!-- Node19&#45;&gt;Node23 -->
<g id="edge29" class="edge">
<title>Node19&#45;&gt;Node23</title>
<path fill="none" stroke="#191970" d="M1610.7351,-75.46C1764.8778,-72.2198 2063.5917,-62.2865 2326.2975,-31.1103"/>
<polygon fill="#191970" stroke="#191970" points="2326.9012,-34.5631 2336.4133,-29.8971 2326.0676,-27.6129 2326.9012,-34.5631"/>
</g>
<!-- Node24 -->
<g id="node25" class="node">
<title>Node24</title>
<polygon fill="none" stroke="#bfbfbf" points="2503.5,-6 2503.5,-25 2572.5,-25 2572.5,-6 2503.5,-6"/>
<text text-anchor="middle" x="2538" y="-13" font-family="Helvetica,sans-Serif" font-size="10.00" fill="#000000">type_traits</text>
</g>
<!-- Node19&#45;&gt;Node24 -->
<g id="edge32" class="edge">
<title>Node19&#45;&gt;Node24</title>
<path fill="none" stroke="#191970" d="M1610.9013,-76.0859C1829.0528,-73.5255 2328.3718,-64.1265 2495,-31 2498.6386,-30.2766 2502.3823,-29.3005 2506.0713,-28.1882"/>
<polygon fill="#191970" stroke="#191970" points="2507.2233,-31.4936 2515.599,-25.0053 2505.0053,-24.8542 2507.2233,-31.4936"/>
</g>
<!-- Node25 -->
<g id="node26" class="node">
<title>Node25</title>
<polygon fill="none" stroke="#bfbfbf" points="1064.5,-6 1064.5,-25 1109.5,-25 1109.5,-6 1064.5,-6"/>
<text text-anchor="middle" x="1087" y="-13" font-family="Helvetica,sans-Serif" font-size="10.00" fill="#000000">utility</text>
</g>
<!-- Node19&#45;&gt;Node25 -->
<g id="edge33" class="edge">
<title>Node19&#45;&gt;Node25</title>
<path fill="none" stroke="#191970" d="M1403.4801,-68.6319C1307.0357,-60.1281 1170.596,-46.0905 1119,-31 1117.2892,-30.4996 1115.5573,-29.915 1113.8307,-29.2714"/>
<polygon fill="#191970" stroke="#191970" points="1114.7541,-25.8583 1104.1852,-25.1175 1111.9853,-32.2875 1114.7541,-25.8583"/>
</g>
<!-- Node19&#45;&gt;Node26 -->
<g id="edge34" class="edge">
<title>Node19&#45;&gt;Node26</title>
<path fill="none" stroke="#191970" d="M1610.6091,-74.9594C1861.8352,-69.6701 2489.6201,-54.2853 2582,-31 2583.9753,-30.5021 2585.9731,-29.875 2587.9547,-29.1603"/>
<polygon fill="#191970" stroke="#191970" points="2589.7363,-32.2048 2597.5497,-25.0492 2586.9794,-25.7705 2589.7363,-32.2048"/>
</g>
<!-- Node27 -->
<g id="node28" class="node">
<title>Node27</title>
<polygon fill="none" stroke="#bfbfbf" points="1127.5,-6 1127.5,-25 1220.5,-25 1220.5,-6 1127.5,-6"/>
<text text-anchor="middle" x="1174" y="-13" font-family="Helvetica,sans-Serif" font-size="10.00" fill="#000000">unordered_map</text>
</g>
<!-- Node19&#45;&gt;Node27 -->
<g id="edge35" class="edge">
<title>Node19&#45;&gt;Node27</title>
<path fill="none" stroke="#191970" d="M1437.169,-67.4859C1380.9231,-59.3235 1299.9757,-46.4493 1230,-31 1225.3795,-29.9799 1220.5721,-28.8132 1215.8015,-27.588"/>
<polygon fill="#191970" stroke="#191970" points="1216.6959,-24.2042 1206.1325,-25.0188 1214.8983,-30.9695 1216.6959,-24.2042"/>
</g>
<!-- Node28 -->
<g id="node29" class="node">
<title>Node28</title>
<polygon fill="none" stroke="#bfbfbf" points="1238.5,-6 1238.5,-25 1339.5,-25 1339.5,-6 1238.5,-6"/>
<text text-anchor="middle" x="1289" y="-13" font-family="Helvetica,sans-Serif" font-size="10.00" fill="#000000">FairMQMessage.h</text>
</g>
<!-- Node19&#45;&gt;Node28 -->
<g id="edge36" class="edge">
<title>Node19&#45;&gt;Node28</title>
<path fill="none" stroke="#191970" d="M1472.9375,-67.3906C1435.1023,-56.7169 1373.9194,-39.4566 1332.6115,-27.8033"/>
<polygon fill="#191970" stroke="#191970" points="1333.398,-24.3886 1322.8233,-25.0419 1331.4973,-31.1256 1333.398,-24.3886"/>
</g>
<!-- Node29 -->
<g id="node30" class="node">
<title>Node29</title>
<polygon fill="none" stroke="#bfbfbf" points="1357.5,-6 1357.5,-25 1494.5,-25 1494.5,-6 1357.5,-6"/>
<text text-anchor="middle" x="1426" y="-13" font-family="Helvetica,sans-Serif" font-size="10.00" fill="#000000">FairMQTransportFactory.h</text>
</g>
<!-- Node19&#45;&gt;Node29 -->
<g id="edge37" class="edge">
<title>Node19&#45;&gt;Node29</title>
<path fill="none" stroke="#191970" d="M1494.3438,-67.3906C1481.6232,-57.7324 1461.7996,-42.6812 1446.7716,-31.271"/>
<polygon fill="#191970" stroke="#191970" points="1448.6484,-28.3015 1438.5674,-25.0419 1444.4154,-33.8766 1448.6484,-28.3015"/>
</g>
<!-- Node30 -->
<g id="node31" class="node">
<title>Node30</title>
<polygon fill="none" stroke="#bfbfbf" points="1513,-6 1513,-25 1663,-25 1663,-6 1513,-6"/>
<text text-anchor="middle" x="1588" y="-13" font-family="Helvetica,sans-Serif" font-size="10.00" fill="#000000">fairmq/MemoryResources.h</text>
</g>
<!-- Node19&#45;&gt;Node30 -->
<g id="edge38" class="edge">
<title>Node19&#45;&gt;Node30</title>
<path fill="none" stroke="#191970" d="M1519.6563,-67.3906C1532.3768,-57.7324 1552.2004,-42.6812 1567.2284,-31.271"/>
<polygon fill="#191970" stroke="#191970" points="1569.5846,-33.8766 1575.4326,-25.0419 1565.3516,-28.3015 1569.5846,-33.8766"/>
</g>
<!-- Node31 -->
<g id="node32" class="node">
<title>Node31</title>
<polygon fill="none" stroke="#bfbfbf" points="1681,-6 1681,-25 1851,-25 1851,-6 1681,-6"/>
<text text-anchor="middle" x="1766" y="-13" font-family="Helvetica,sans-Serif" font-size="10.00" fill="#000000">fairmq/MemoryResourceTools.h</text>
</g>
<!-- Node19&#45;&gt;Node31 -->
<g id="edge39" class="edge">
<title>Node19&#45;&gt;Node31</title>
<path fill="none" stroke="#191970" d="M1547.1846,-67.4581C1592.6461,-56.6632 1666.7402,-39.0694 1715.9273,-27.3899"/>
<polygon fill="#191970" stroke="#191970" points="1716.8003,-30.78 1725.7212,-25.0643 1715.1831,-23.9693 1716.8003,-30.78"/>
</g>
</g>
</svg>
        <g id="navigator" transform="translate(0 0)" fill="#404254">
                <rect fill="#f2f5e9" fill-opacity="0.5" stroke="#606060" stroke-width=".5" x="0" y="0" width="60" height="60"/>
                <use id="zoomplus" xlink:href="#zoomPlus" x="17" y="9" onmousedown="handleZoom(evt,'in')"/>
                <use id="zoomminus" xlink:href="#zoomMin" x="42" y="9" onmousedown="handleZoom(evt,'out')"/>
                <use id="reset" xlink:href="#resetDef" x="30" y="36" onmousedown="handleReset()"/>
                <g id="arrowUp" xlink:href="#dirArrow" transform="translate(30 24)" onmousedown="handlePan(0,-1)">
                  <use xlink:href="#rim" fill="#404040">
                        <set attributeName="fill" to="#808080" begin="arrowUp.mouseover" end="arrowUp.mouseout"/>
                  </use>
                  <path fill="none" stroke="white" stroke-width="1.5" d="M0,-3.0v7 M-2.5,-0.5L0,-3.0L2.5,-0.5"/>
                </g>
                <g id="arrowRight" xlink:href="#dirArrow" transform="rotate(90) translate(36 -43)" onmousedown="handlePan(1,0)">
                  <use xlink:href="#rim" fill="#404040">
                        <set attributeName="fill" to="#808080" begin="arrowRight.mouseover" end="arrowRight.mouseout"/>
                  </use>
                  <path fill="none" stroke="white" stroke-width="1.5" d="M0,-3.0v7 M-2.5,-0.5L0,-3.0L2.5,-0.5"/>
                </g>
                <g id="arrowDown" xlink:href="#dirArrow" transform="rotate(180) translate(-30 -48)" onmousedown="handlePan(0,1)">
                  <use xlink:href="#rim" fill="#404040">
                        <set attributeName="fill" to="#808080" begin="arrowDown.mouseover" end="arrowDown.mouseout"/>
                  </use>
                  <path fill="none" stroke="white" stroke-width="1.5" d="M0,-3.0v7 M-2.5,-0.5L0,-3.0L2.5,-0.5"/>
                </g>
                <g id="arrowLeft" xlink:href="#dirArrow" transform="rotate(270) translate(-36 17)" onmousedown="handlePan(-1,0)">
                  <use xlink:href="#rim" fill="#404040">
                        <set attributeName="fill" to="#808080" begin="arrowLeft.mouseover" end="arrowLeft.mouseout"/>
                  </use>
                  <path fill="none" stroke="white" stroke-width="1.5" d="M0,-3.0v7 M-2.5,-0.5L0,-3.0L2.5,-0.5"/>
                </g>
        </g>
        <svg viewBox="0 0 15 15" width="100%" height="30px" preserveAspectRatio="xMaxYMin meet">
         <g id="arrow_out" transform="scale(0.3 0.3)">
          <a xlink:href="benchmark__DataDescriptorMatcher_8cxx__incl_org.svg" target="_base">
           <rect id="button" ry="5" rx="5" y="6" x="6" height="38" width="38"
                fill="#f2f5e9" fill-opacity="0.5" stroke="#606060" stroke-width="1.0"/>
           <path id="arrow"
             d="M 11.500037,31.436501 C 11.940474,20.09759 22.043105,11.32322 32.158766,21.979434 L 37.068811,17.246167 C 37.068811,17.246167 37.088388,32 37.088388,32 L 22.160133,31.978069 C 22.160133,31.978069 26.997745,27.140456 26.997745,27.140456 C 18.528582,18.264221 13.291696,25.230495 11.500037,31.436501 z"
             style="fill:#404040;"/>
          </a>
         </g>
        </svg>
</svg>
