<?xml version="1.0" encoding="UTF-8" standalone="no"?>
<!DOCTYPE svg PUBLIC "-//W3C//DTD SVG 1.1//EN"
 "http://www.w3.org/Graphics/SVG/1.1/DTD/svg11.dtd">
<!-- Generated by graphviz version 2.40.1 (20161225.0304)
 -->
<!-- Title: /home/travis/build/AliceO2Group/AliceO2/Detectors/MUON/MID/Raw/include/MIDRaw/CrateMasks.h Pages: 1 -->
<svg width="175pt" height="173pt"
 viewBox="0.00 0.00 175.00 173.00" xmlns="http://www.w3.org/2000/svg" xmlns:xlink="http://www.w3.org/1999/xlink">
<g id="graph0" class="graph" transform="scale(1 1) rotate(0) translate(4 169)">
<title>/home/travis/build/AliceO2Group/AliceO2/Detectors/MUON/MID/Raw/include/MIDRaw/CrateMasks.h</title>
<!-- Node0 -->
<g id="node1" class="node">
<title>Node0</title>
<polygon fill="#bfbfbf" stroke="#000000" points="0,-112.5 0,-164.5 167,-164.5 167,-112.5 0,-112.5"/>
<text text-anchor="start" x="8" y="-152.5" font-family="Helvetica,sans-Serif" font-size="10.00" fill="#000000">/home/travis/build</text>
<text text-anchor="start" x="8" y="-141.5" font-family="Helvetica,sans-Serif" font-size="10.00" fill="#000000">/AliceO2Group/AliceO2</text>
<text text-anchor="start" x="8" y="-130.5" font-family="Helvetica,sans-Serif" font-size="10.00" fill="#000000">/Detectors/MUON/MID/Raw</text>
<text text-anchor="middle" x="83.5" y="-119.5" font-family="Helvetica,sans-Serif" font-size="10.00" fill="#000000">/include/MIDRaw/CrateMasks.h</text>
</g>
<!-- Node1 -->
<g id="node2" class="node">
<title>Node1</title>
<polygon fill="none" stroke="#bfbfbf" points="21.5,-.5 21.5,-19.5 71.5,-19.5 71.5,-.5 21.5,-.5"/>
<text text-anchor="middle" x="46.5" y="-7.5" font-family="Helvetica,sans-Serif" font-size="10.00" fill="#000000">cstdint</text>
</g>
<!-- Node0&#45;&gt;Node1 -->
<g id="edge1" class="edge">
<title>Node0&#45;&gt;Node1</title>
<path fill="none" stroke="#191970" d="M47.7631,-112.3923C36.8988,-102.3635 26.3057,-89.9377 20.5,-76 13.8051,-59.9278 22.4341,-41.4788 31.5035,-28.1798"/>
<polygon fill="#191970" stroke="#191970" points="34.5109,-30.001 37.6699,-19.8881 28.8939,-25.8238 34.5109,-30.001"/>
</g>
<!-- Node2 -->
<g id="node3" class="node">
<title>Node2</title>
<polygon fill="none" stroke="#bfbfbf" points="98.5,-.5 98.5,-19.5 140.5,-19.5 140.5,-.5 98.5,-.5"/>
<text text-anchor="middle" x="119.5" y="-7.5" font-family="Helvetica,sans-Serif" font-size="10.00" fill="#000000">array</text>
</g>
<!-- Node0&#45;&gt;Node2 -->
<g id="edge2" class="edge">
<title>Node0&#45;&gt;Node2</title>
<path fill="none" stroke="#191970" d="M118.6804,-112.2916C129.3731,-102.2547 139.7959,-89.8496 145.5,-76 152.1305,-59.9011 143.5083,-41.4549 134.4578,-28.1638"/>
<polygon fill="#191970" stroke="#191970" points="137.0772,-25.8204 128.3057,-19.878 131.4569,-29.9934 137.0772,-25.8204"/>
</g>
<!-- Node3 -->
<g id="node4" class="node">
<title>Node3</title>
<g id="a_node4"><a xlink:href="../../d2/da5/CrateParameters_8h.html" target="_top" xlink:title="MID RO crate parameters. ">
<polygon fill="none" stroke="#000000" points="30,-56.5 30,-75.5 137,-75.5 137,-56.5 30,-56.5"/>
<text text-anchor="middle" x="83.5" y="-63.5" font-family="Helvetica,sans-Serif" font-size="10.00" fill="#000000">CrateParameters.h</text>
</a>
</g>
</g>
<!-- Node0&#45;&gt;Node3 -->
<g id="edge3" class="edge">
<title>Node0&#45;&gt;Node3</title>
<path fill="none" stroke="#191970" d="M83.5,-112.3258C83.5,-103.5142 83.5,-93.8397 83.5,-85.621"/>
<polygon fill="#191970" stroke="#191970" points="87.0001,-85.534 83.5,-75.534 80.0001,-85.534 87.0001,-85.534"/>
</g>
<!-- Node3&#45;&gt;Node1 -->
<g id="edge4" class="edge">
<title>Node3&#45;&gt;Node1</title>
<path fill="none" stroke="#191970" d="M77.0551,-56.2455C71.9618,-48.5367 64.7092,-37.5598 58.548,-28.2348"/>
<polygon fill="#191970" stroke="#191970" points="61.3038,-26.0566 52.8711,-19.6427 55.4635,-29.9155 61.3038,-26.0566"/>
</g>
<!-- Node3&#45;&gt;Node2 -->
<g id="edge5" class="edge">
<title>Node3&#45;&gt;Node2</title>
<path fill="none" stroke="#191970" d="M89.7707,-56.2455C94.7264,-48.5367 101.783,-37.5598 107.7776,-28.2348"/>
<polygon fill="#191970" stroke="#191970" points="110.8376,-29.9471 113.3011,-19.6427 104.9494,-26.1618 110.8376,-29.9471"/>
</g>
</g>
</svg>
