<?xml version="1.0" encoding="UTF-8" standalone="no"?>
<!DOCTYPE svg PUBLIC "-//W3C//DTD SVG 1.1//EN"
 "http://www.w3.org/Graphics/SVG/1.1/DTD/svg11.dtd">
<!-- Generated by graphviz version 2.40.1 (20161225.0304)
 -->
<!-- Title: o2::devices::EPNReceiverDevice Pages: 1 -->
<!--zoomable 303 -->
<svg id="main" version="1.1" xmlns="http://www.w3.org/2000/svg" xmlns:xlink="http://www.w3.org/1999/xlink" xml:space="preserve" onload="init(evt)">
<style type="text/css"><![CDATA[
.edge:hover path { stroke: red; }
.edge:hover polygon { stroke: red; fill: red; }
]]></style>
<script type="text/javascript"><![CDATA[
var edges = document.getElementsByTagName('g');
if (edges && edges.length) {
  for (var i=0;i<edges.length;i++) {
    if (edges[i].id.substr(0,4)=='edge') {
      edges[i].setAttribute('class','edge');
    }
  }
}
]]></script>
        <defs>
                <circle id="rim" cx="0" cy="0" r="7"/>
                <circle id="rim2" cx="0" cy="0" r="3.5"/>
                <g id="zoomPlus">
                        <use xlink:href="#rim" fill="#404040">
                                <set attributeName="fill" to="#808080" begin="zoomplus.mouseover" end="zoomplus.mouseout"/>
                        </use>
                        <path d="M-4,0h8M0,-4v8" fill="none" stroke="white" stroke-width="1.5" pointer-events="none"/>
                </g>
                <g id="zoomMin">
                        <use xlink:href="#rim" fill="#404040">
                                <set attributeName="fill" to="#808080" begin="zoomminus.mouseover" end="zoomminus.mouseout"/>
                        </use>
                        <path d="M-4,0h8" fill="none" stroke="white" stroke-width="1.5" pointer-events="none"/>
                </g>
                <g id="dirArrow">
                        <path fill="none" stroke="white" stroke-width="1.5" d="M0,-3.0v7 M-2.5,-0.5L0,-3.0L2.5,-0.5"/>
                </g>
               <g id="resetDef">
                       <use xlink:href="#rim2" fill="#404040">
                               <set attributeName="fill" to="#808080" begin="reset.mouseover" end="reset.mouseout"/>
                       </use>
               </g>
        </defs>

<script type="text/javascript">
var viewWidth = 528;
var viewHeight = 303;
var sectionId = 'dynsection-1';
</script>
<script xlink:href="../../svgpan.js"/>
<svg id="graph" class="graph">
<g id="viewport">
<title>o2::devices::EPNReceiverDevice</title>
<!-- Node2 -->
<g id="node1" class="node">
<title>Node2</title>
<polygon fill="#bfbfbf" stroke="#000000" points="144.5,-.5 144.5,-123.5 330.5,-123.5 330.5,-.5 144.5,-.5"/>
<text text-anchor="start" x="152.5" y="-111.5" font-family="Helvetica,sans-Serif" font-size="10.00" fill="#000000">o2::devices::EPNReceiver</text>
<text text-anchor="middle" x="237.5" y="-100.5" font-family="Helvetica,sans-Serif" font-size="10.00" fill="#000000">Device</text>
<polyline fill="none" stroke="#000000" points="144.5,-93.5 330.5,-93.5 "/>
<text text-anchor="middle" x="237.5" y="-81.5" font-family="Helvetica,sans-Serif" font-size="10.00" fill="#000000"> </text>
<polyline fill="none" stroke="#000000" points="144.5,-74.5 330.5,-74.5 "/>
<text text-anchor="start" x="152.5" y="-62.5" font-family="Helvetica,sans-Serif" font-size="10.00" fill="#000000">+ EPNReceiverDevice()</text>
<text text-anchor="start" x="152.5" y="-51.5" font-family="Helvetica,sans-Serif" font-size="10.00" fill="#000000">+ ~EPNReceiverDevice()</text>
<text text-anchor="start" x="152.5" y="-40.5" font-family="Helvetica,sans-Serif" font-size="10.00" fill="#000000">+ InitTask()</text>
<text text-anchor="start" x="152.5" y="-29.5" font-family="Helvetica,sans-Serif" font-size="10.00" fill="#000000">+ PrintBuffer()</text>
<text text-anchor="start" x="152.5" y="-18.5" font-family="Helvetica,sans-Serif" font-size="10.00" fill="#000000">+ DiscardIncompleteTimeframes()</text>
<text text-anchor="start" x="152.5" y="-7.5" font-family="Helvetica,sans-Serif" font-size="10.00" fill="#000000"># Run()</text>
</g>
<!-- Node3 -->
<g id="node2" class="node">
<title>Node3</title>
<g id="a_node2"><a xlink:href="../../db/dfe/classFairMQDevice.html" target="_top" xlink:title="{FairMQDevice\n||}">
<polygon fill="none" stroke="#000000" points="0,-232 0,-289 83,-289 83,-232 0,-232"/>
<text text-anchor="middle" x="41.5" y="-277" font-family="Helvetica,sans-Serif" font-size="10.00" fill="#000000">FairMQDevice</text>
<polyline fill="none" stroke="#000000" points="0,-270 83,-270 "/>
<text text-anchor="middle" x="41.5" y="-258" font-family="Helvetica,sans-Serif" font-size="10.00" fill="#000000"> </text>
<polyline fill="none" stroke="#000000" points="0,-251 83,-251 "/>
<text text-anchor="middle" x="41.5" y="-239" font-family="Helvetica,sans-Serif" font-size="10.00" fill="#000000"> </text>
</a>
</g>
</g>
<!-- Node3&#45;&gt;Node2 -->
<g id="edge1" class="edge">
<title>Node3&#45;&gt;Node2</title>
<path fill="none" stroke="#191970" d="M77.1437,-224.4017C104.8547,-196.3372 143.9435,-156.7499 176.5902,-123.6867"/>
<polygon fill="none" stroke="#191970" points="74.5357,-222.0615 70.0001,-231.6364 79.5167,-226.9798 74.5357,-222.0615"/>
</g>
<!-- Node4 -->
<g id="node3" class="node">
<title>Node4</title>
<polygon fill="none" stroke="#bfbfbf" points="101,-226.5 101,-294.5 246,-294.5 246,-226.5 101,-226.5"/>
<text text-anchor="start" x="109" y="-282.5" font-family="Helvetica,sans-Serif" font-size="10.00" fill="#000000">unordered_map&lt; uint16</text>
<text text-anchor="middle" x="173.5" y="-271.5" font-family="Helvetica,sans-Serif" font-size="10.00" fill="#000000">_t, o2::devices::TFBuffer &gt;</text>
<polyline fill="none" stroke="#bfbfbf" points="101,-264.5 246,-264.5 "/>
<text text-anchor="middle" x="173.5" y="-252.5" font-family="Helvetica,sans-Serif" font-size="10.00" fill="#000000"> </text>
<polyline fill="none" stroke="#bfbfbf" points="101,-245.5 246,-245.5 "/>
<text text-anchor="middle" x="173.5" y="-233.5" font-family="Helvetica,sans-Serif" font-size="10.00" fill="#000000"> </text>
</g>
<!-- Node4&#45;&gt;Node2 -->
<g id="edge2" class="edge">
<title>Node4&#45;&gt;Node2</title>
<path fill="none" stroke="#404040" d="M168.0508,-226.297C165.5512,-202.0681 164.9555,-169.1758 174.5,-142 175.3467,-139.5893 176.2986,-137.1957 177.3411,-134.8252"/>
<polygon fill="none" stroke="#404040" points="177.434,-134.6404 176.5568,-127.4829 182.8264,-123.9203 183.7036,-131.0778 177.434,-134.6404"/>
<text text-anchor="middle" x="227" y="-172.5" font-family="Helvetica,sans-Serif" font-size="10.00" fill="#000000"> #mTimeframeBuffer</text>
</g>
<!-- Node5 -->
<g id="node4" class="node">
<title>Node5</title>
<polygon fill="none" stroke="#bfbfbf" points="287,-232 287,-289 316,-289 316,-232 287,-232"/>
<text text-anchor="middle" x="301.5" y="-277" font-family="Helvetica,sans-Serif" font-size="10.00" fill="#000000">int</text>
<polyline fill="none" stroke="#bfbfbf" points="287,-270 316,-270 "/>
<text text-anchor="middle" x="301.5" y="-258" font-family="Helvetica,sans-Serif" font-size="10.00" fill="#000000"> </text>
<polyline fill="none" stroke="#bfbfbf" points="287,-251 316,-251 "/>
<text text-anchor="middle" x="301.5" y="-239" font-family="Helvetica,sans-Serif" font-size="10.00" fill="#000000"> </text>
</g>
<!-- Node5&#45;&gt;Node2 -->
<g id="edge3" class="edge">
<title>Node5&#45;&gt;Node2</title>
<path fill="none" stroke="#404040" d="M298.5927,-231.629C295.5618,-207.2437 289.7747,-171.6573 279.5,-142 278.6776,-139.6261 277.7937,-137.2362 276.8592,-134.8414"/>
<polygon fill="none" stroke="#404040" points="276.8027,-134.7067 270.7922,-130.7225 272.1581,-123.642 278.1687,-127.6261 276.8027,-134.7067"/>
<text text-anchor="middle" x="350" y="-200" font-family="Helvetica,sans-Serif" font-size="10.00" fill="#000000"> #mAckChannelName</text>
<text text-anchor="middle" x="350" y="-189" font-family="Helvetica,sans-Serif" font-size="10.00" fill="#000000">#mBufferTimeoutInMs</text>
<text text-anchor="middle" x="350" y="-178" font-family="Helvetica,sans-Serif" font-size="10.00" fill="#000000">#mOutChannelName</text>
<text text-anchor="middle" x="350" y="-167" font-family="Helvetica,sans-Serif" font-size="10.00" fill="#000000">#mInChannelName</text>
<text text-anchor="middle" x="350" y="-156" font-family="Helvetica,sans-Serif" font-size="10.00" fill="#000000">#mNumFLPs</text>
<text text-anchor="middle" x="350" y="-145" font-family="Helvetica,sans-Serif" font-size="10.00" fill="#000000">#mTestMode</text>
</g>
<!-- Node6 -->
<g id="node5" class="node">
<title>Node6</title>
<polygon fill="none" stroke="#bfbfbf" points="361,-232 361,-289 510,-289 510,-232 361,-232"/>
<text text-anchor="middle" x="435.5" y="-277" font-family="Helvetica,sans-Serif" font-size="10.00" fill="#000000">unordered_set&lt; uint16_t &gt;</text>
<polyline fill="none" stroke="#bfbfbf" points="361,-270 510,-270 "/>
<text text-anchor="middle" x="435.5" y="-258" font-family="Helvetica,sans-Serif" font-size="10.00" fill="#000000"> </text>
<polyline fill="none" stroke="#bfbfbf" points="361,-251 510,-251 "/>
<text text-anchor="middle" x="435.5" y="-239" font-family="Helvetica,sans-Serif" font-size="10.00" fill="#000000"> </text>
</g>
<!-- Node6&#45;&gt;Node2 -->
<g id="edge4" class="edge">
<title>Node6&#45;&gt;Node2</title>
<path fill="none" stroke="#404040" d="M436.0962,-231.8659C435.1768,-205.7866 429.9848,-167.555 409.5,-142 392.0056,-120.1757 367.1877,-104.027 341.8311,-92.1902"/>
<polygon fill="none" stroke="#404040" points="341.5384,-92.061 334.4339,-93.2968 330.5607,-87.2141 337.6652,-85.9783 341.5384,-92.061"/>
<text text-anchor="middle" x="476.5" y="-172.5" font-family="Helvetica,sans-Serif" font-size="10.00" fill="#000000"> #mDiscardedSet</text>
</g>
</g>
</svg>
        <g id="navigator" transform="translate(0 0)" fill="#404254">
                <rect fill="#f2f5e9" fill-opacity="0.5" stroke="#606060" stroke-width=".5" x="0" y="0" width="60" height="60"/>
                <use id="zoomplus" xlink:href="#zoomPlus" x="17" y="9" onmousedown="handleZoom(evt,'in')"/>
                <use id="zoomminus" xlink:href="#zoomMin" x="42" y="9" onmousedown="handleZoom(evt,'out')"/>
                <use id="reset" xlink:href="#resetDef" x="30" y="36" onmousedown="handleReset()"/>
                <g id="arrowUp" xlink:href="#dirArrow" transform="translate(30 24)" onmousedown="handlePan(0,-1)">
                  <use xlink:href="#rim" fill="#404040">
                        <set attributeName="fill" to="#808080" begin="arrowUp.mouseover" end="arrowUp.mouseout"/>
                  </use>
                  <path fill="none" stroke="white" stroke-width="1.5" d="M0,-3.0v7 M-2.5,-0.5L0,-3.0L2.5,-0.5"/>
                </g>
                <g id="arrowRight" xlink:href="#dirArrow" transform="rotate(90) translate(36 -43)" onmousedown="handlePan(1,0)">
                  <use xlink:href="#rim" fill="#404040">
                        <set attributeName="fill" to="#808080" begin="arrowRight.mouseover" end="arrowRight.mouseout"/>
                  </use>
                  <path fill="none" stroke="white" stroke-width="1.5" d="M0,-3.0v7 M-2.5,-0.5L0,-3.0L2.5,-0.5"/>
                </g>
                <g id="arrowDown" xlink:href="#dirArrow" transform="rotate(180) translate(-30 -48)" onmousedown="handlePan(0,1)">
                  <use xlink:href="#rim" fill="#404040">
                        <set attributeName="fill" to="#808080" begin="arrowDown.mouseover" end="arrowDown.mouseout"/>
                  </use>
                  <path fill="none" stroke="white" stroke-width="1.5" d="M0,-3.0v7 M-2.5,-0.5L0,-3.0L2.5,-0.5"/>
                </g>
                <g id="arrowLeft" xlink:href="#dirArrow" transform="rotate(270) translate(-36 17)" onmousedown="handlePan(-1,0)">
                  <use xlink:href="#rim" fill="#404040">
                        <set attributeName="fill" to="#808080" begin="arrowLeft.mouseover" end="arrowLeft.mouseout"/>
                  </use>
                  <path fill="none" stroke="white" stroke-width="1.5" d="M0,-3.0v7 M-2.5,-0.5L0,-3.0L2.5,-0.5"/>
                </g>
        </g>
        <svg viewBox="0 0 15 15" width="100%" height="30px" preserveAspectRatio="xMaxYMin meet">
         <g id="arrow_out" transform="scale(0.3 0.3)">
          <a xlink:href="classo2_1_1devices_1_1EPNReceiverDevice__coll__graph_org.svg" target="_base">
           <rect id="button" ry="5" rx="5" y="6" x="6" height="38" width="38"
                fill="#f2f5e9" fill-opacity="0.5" stroke="#606060" stroke-width="1.0"/>
           <path id="arrow"
             d="M 11.500037,31.436501 C 11.940474,20.09759 22.043105,11.32322 32.158766,21.979434 L 37.068811,17.246167 C 37.068811,17.246167 37.088388,32 37.088388,32 L 22.160133,31.978069 C 22.160133,31.978069 26.997745,27.140456 26.997745,27.140456 C 18.528582,18.264221 13.291696,25.230495 11.500037,31.436501 z"
             style="fill:#404040;"/>
          </a>
         </g>
        </svg>
</svg>
