<?xml version="1.0" encoding="UTF-8" standalone="no"?>
<!DOCTYPE svg PUBLIC "-//W3C//DTD SVG 1.1//EN"
 "http://www.w3.org/Graphics/SVG/1.1/DTD/svg11.dtd">
<!-- Generated by graphviz version 2.40.1 (20161225.0304)
 -->
<!-- Title: GPUCA_NAMESPACE::gpu::GPUTPCGMMergerMergeSlicesPrepare Pages: 1 -->
<svg width="245pt" height="569pt"
 viewBox="0.00 0.00 245.00 569.00" xmlns="http://www.w3.org/2000/svg" xmlns:xlink="http://www.w3.org/1999/xlink">
<g id="graph0" class="graph" transform="scale(1 1) rotate(0) translate(4 565)">
<title>GPUCA_NAMESPACE::gpu::GPUTPCGMMergerMergeSlicesPrepare</title>
<!-- Node3 -->
<g id="node1" class="node">
<title>Node3</title>
<polygon fill="#bfbfbf" stroke="#000000" points="0,-.5 0,-90.5 170,-90.5 170,-.5 0,-.5"/>
<text text-anchor="start" x="8" y="-78.5" font-family="Helvetica,sans-Serif" font-size="10.00" fill="#000000">GPUCA_NAMESPACE::gpu</text>
<text text-anchor="start" x="8" y="-67.5" font-family="Helvetica,sans-Serif" font-size="10.00" fill="#000000">::GPUTPCGMMergerMergeSlices</text>
<text text-anchor="middle" x="85" y="-56.5" font-family="Helvetica,sans-Serif" font-size="10.00" fill="#000000">Prepare</text>
<polyline fill="none" stroke="#000000" points="0,-49.5 170,-49.5 "/>
<text text-anchor="middle" x="85" y="-37.5" font-family="Helvetica,sans-Serif" font-size="10.00" fill="#000000"> </text>
<polyline fill="none" stroke="#000000" points="0,-30.5 170,-30.5 "/>
<text text-anchor="start" x="8" y="-18.5" font-family="Helvetica,sans-Serif" font-size="10.00" fill="#000000">+ GPUd()</text>
<text text-anchor="start" x="8" y="-7.5" font-family="Helvetica,sans-Serif" font-size="10.00" fill="#000000">+ GPUsharedref()</text>
</g>
<!-- Node4 -->
<g id="node2" class="node">
<title>Node4</title>
<g id="a_node2"><a xlink:href="../../da/dd0/classGPUCA__NAMESPACE_1_1gpu_1_1GPUTPCGMMergerGeneral.html" target="_top" xlink:title="{GPUCA_NAMESPACE::gpu\l::GPUTPCGMMergerGeneral\n||+ GPUhdi()\l+ GPUhdi()\l}">
<polygon fill="none" stroke="#000000" points="87,-128.5 87,-207.5 237,-207.5 237,-128.5 87,-128.5"/>
<text text-anchor="start" x="95" y="-195.5" font-family="Helvetica,sans-Serif" font-size="10.00" fill="#000000">GPUCA_NAMESPACE::gpu</text>
<text text-anchor="middle" x="162" y="-184.5" font-family="Helvetica,sans-Serif" font-size="10.00" fill="#000000">::GPUTPCGMMergerGeneral</text>
<polyline fill="none" stroke="#000000" points="87,-177.5 237,-177.5 "/>
<text text-anchor="middle" x="162" y="-165.5" font-family="Helvetica,sans-Serif" font-size="10.00" fill="#000000"> </text>
<polyline fill="none" stroke="#000000" points="87,-158.5 237,-158.5 "/>
<text text-anchor="start" x="95" y="-146.5" font-family="Helvetica,sans-Serif" font-size="10.00" fill="#000000">+ GPUhdi()</text>
<text text-anchor="start" x="95" y="-135.5" font-family="Helvetica,sans-Serif" font-size="10.00" fill="#000000">+ GPUhdi()</text>
</a>
</g>
</g>
<!-- Node4&#45;&gt;Node3 -->
<g id="edge1" class="edge">
<title>Node4&#45;&gt;Node3</title>
<path fill="none" stroke="#191970" d="M131.5766,-119.5991C125.5672,-110.0388 119.2829,-100.041 113.3456,-90.5953"/>
<polygon fill="none" stroke="#191970" points="128.7153,-121.624 137.0003,-128.2278 134.6418,-117.8988 128.7153,-121.624"/>
</g>
<!-- Node5 -->
<g id="node3" class="node">
<title>Node5</title>
<g id="a_node3"><a xlink:href="../../d3/d60/classGPUCA__NAMESPACE_1_1gpu_1_1GPUKernelTemplate.html" target="_top" xlink:title="{GPUCA_NAMESPACE::gpu\l::GPUKernelTemplate\n||+ GPUconstantref()\l+ GPUhdi()\l+ GPUhdi()\l+ GPUd()\l+ GPUsharedref()\l}">
<polygon fill="none" stroke="#000000" points="90,-321.5 90,-433.5 230,-433.5 230,-321.5 90,-321.5"/>
<text text-anchor="start" x="98" y="-421.5" font-family="Helvetica,sans-Serif" font-size="10.00" fill="#000000">GPUCA_NAMESPACE::gpu</text>
<text text-anchor="middle" x="160" y="-410.5" font-family="Helvetica,sans-Serif" font-size="10.00" fill="#000000">::GPUKernelTemplate</text>
<polyline fill="none" stroke="#000000" points="90,-403.5 230,-403.5 "/>
<text text-anchor="middle" x="160" y="-391.5" font-family="Helvetica,sans-Serif" font-size="10.00" fill="#000000"> </text>
<polyline fill="none" stroke="#000000" points="90,-384.5 230,-384.5 "/>
<text text-anchor="start" x="98" y="-372.5" font-family="Helvetica,sans-Serif" font-size="10.00" fill="#000000">+ GPUconstantref()</text>
<text text-anchor="start" x="98" y="-361.5" font-family="Helvetica,sans-Serif" font-size="10.00" fill="#000000">+ GPUhdi()</text>
<text text-anchor="start" x="98" y="-350.5" font-family="Helvetica,sans-Serif" font-size="10.00" fill="#000000">+ GPUhdi()</text>
<text text-anchor="start" x="98" y="-339.5" font-family="Helvetica,sans-Serif" font-size="10.00" fill="#000000">+ GPUd()</text>
<text text-anchor="start" x="98" y="-328.5" font-family="Helvetica,sans-Serif" font-size="10.00" fill="#000000">+ GPUsharedref()</text>
</a>
</g>
</g>
<!-- Node5&#45;&gt;Node4 -->
<g id="edge2" class="edge">
<title>Node5&#45;&gt;Node4</title>
<path fill="none" stroke="#191970" d="M160.6346,-311.0291C160.959,-277.0407 161.343,-236.8181 161.621,-207.6979"/>
<polygon fill="none" stroke="#191970" points="157.1317,-311.3249 160.536,-321.3578 164.1314,-311.3917 157.1317,-311.3249"/>
</g>
<!-- Node6 -->
<g id="node4" class="node">
<title>Node6</title>
<polygon fill="none" stroke="#bfbfbf" points="53.5,-503.5 53.5,-560.5 82.5,-560.5 82.5,-503.5 53.5,-503.5"/>
<text text-anchor="middle" x="68" y="-548.5" font-family="Helvetica,sans-Serif" font-size="10.00" fill="#000000">int</text>
<polyline fill="none" stroke="#bfbfbf" points="53.5,-541.5 82.5,-541.5 "/>
<text text-anchor="middle" x="68" y="-529.5" font-family="Helvetica,sans-Serif" font-size="10.00" fill="#000000"> </text>
<polyline fill="none" stroke="#bfbfbf" points="53.5,-522.5 82.5,-522.5 "/>
<text text-anchor="middle" x="68" y="-510.5" font-family="Helvetica,sans-Serif" font-size="10.00" fill="#000000"> </text>
</g>
<!-- Node6&#45;&gt;Node3 -->
<g id="edge4" class="edge">
<title>Node6&#45;&gt;Node3</title>
<path fill="none" stroke="#404040" d="M63.9785,-503.2618C56.9636,-448.9899 44.0522,-327.7297 53,-226 56.6543,-184.4535 64.9529,-138.1428 72.1833,-102.833"/>
<polygon fill="none" stroke="#404040" points="72.2369,-102.5753 69.5461,-95.8851 74.6868,-90.8281 77.3776,-97.5183 72.2369,-102.5753"/>
<text text-anchor="middle" x="104.5" y="-295" font-family="Helvetica,sans-Serif" font-size="10.00" fill="#000000"> +iThread</text>
<text text-anchor="middle" x="104.5" y="-284" font-family="Helvetica,sans-Serif" font-size="10.00" fill="#000000">+iBlock</text>
<text text-anchor="middle" x="104.5" y="-273" font-family="Helvetica,sans-Serif" font-size="10.00" fill="#000000">+useOrigTrackParam</text>
<text text-anchor="middle" x="104.5" y="-262" font-family="Helvetica,sans-Serif" font-size="10.00" fill="#000000">+merger</text>
<text text-anchor="middle" x="104.5" y="-251" font-family="Helvetica,sans-Serif" font-size="10.00" fill="#000000">+border0</text>
<text text-anchor="middle" x="104.5" y="-240" font-family="Helvetica,sans-Serif" font-size="10.00" fill="#000000">+nThreads</text>
<text text-anchor="middle" x="104.5" y="-229" font-family="Helvetica,sans-Serif" font-size="10.00" fill="#000000">+border1</text>
</g>
<!-- Node6&#45;&gt;Node5 -->
<g id="edge3" class="edge">
<title>Node6&#45;&gt;Node5</title>
<path fill="none" stroke="#404040" d="M82.5777,-507.519C92.7691,-490.4041 106.9022,-466.6697 120.307,-444.1584"/>
<polygon fill="none" stroke="#404040" points="120.4628,-443.8966 120.0958,-436.6948 126.6024,-433.5861 126.9695,-440.7879 120.4628,-443.8966"/>
<text text-anchor="middle" x="141" y="-477" font-family="Helvetica,sans-Serif" font-size="10.00" fill="#000000"> +iThread</text>
<text text-anchor="middle" x="141" y="-466" font-family="Helvetica,sans-Serif" font-size="10.00" fill="#000000">+iBlock</text>
<text text-anchor="middle" x="141" y="-455" font-family="Helvetica,sans-Serif" font-size="10.00" fill="#000000">+nThreads</text>
</g>
</g>
</svg>
