<?xml version="1.0" encoding="UTF-8" standalone="no"?>
<!DOCTYPE svg PUBLIC "-//W3C//DTD SVG 1.1//EN"
 "http://www.w3.org/Graphics/SVG/1.1/DTD/svg11.dtd">
<!-- Generated by graphviz version 2.40.1 (20161225.0304)
 -->
<!-- Title: /home/travis/build/AliceO2Group/AliceO2/Detectors/Base/src/MatLayerCylSet.cxx Pages: 1 -->
<svg width="2813pt" height="430pt"
 viewBox="0.00 0.00 2813.00 430.00" xmlns="http://www.w3.org/2000/svg" xmlns:xlink="http://www.w3.org/1999/xlink">
<g id="graph0" class="graph" transform="scale(1 1) rotate(0) translate(4 426)">
<title>/home/travis/build/AliceO2Group/AliceO2/Detectors/Base/src/MatLayerCylSet.cxx</title>
<!-- Node0 -->
<g id="node1" class="node">
<title>Node0</title>
<polygon fill="#bfbfbf" stroke="#000000" points="948,-369.5 948,-421.5 1107,-421.5 1107,-369.5 948,-369.5"/>
<text text-anchor="start" x="956" y="-409.5" font-family="Helvetica,sans-Serif" font-size="10.00" fill="#000000">/home/travis/build</text>
<text text-anchor="start" x="956" y="-398.5" font-family="Helvetica,sans-Serif" font-size="10.00" fill="#000000">/AliceO2Group/AliceO2</text>
<text text-anchor="start" x="956" y="-387.5" font-family="Helvetica,sans-Serif" font-size="10.00" fill="#000000">/Detectors/Base/src/MatLayer</text>
<text text-anchor="middle" x="1027.5" y="-376.5" font-family="Helvetica,sans-Serif" font-size="10.00" fill="#000000">CylSet.cxx</text>
</g>
<!-- Node1 -->
<g id="node2" class="node">
<title>Node1</title>
<g id="a_node2"><a xlink:href="../../d9/da9/MatLayerCylSet_8h.html" target="_top" xlink:title="Declarations for the wrapper for the set of cylindrical material layers. ">
<polygon fill="none" stroke="#000000" points="603.5,-302.5 603.5,-332.5 755.5,-332.5 755.5,-302.5 603.5,-302.5"/>
<text text-anchor="start" x="611.5" y="-320.5" font-family="Helvetica,sans-Serif" font-size="10.00" fill="#000000">DetectorsBase/MatLayerCyl</text>
<text text-anchor="middle" x="679.5" y="-309.5" font-family="Helvetica,sans-Serif" font-size="10.00" fill="#000000">Set.h</text>
</a>
</g>
</g>
<!-- Node0&#45;&gt;Node1 -->
<g id="edge1" class="edge">
<title>Node0&#45;&gt;Node1</title>
<path fill="none" stroke="#191970" d="M947.6618,-377.6052C890.3035,-364.7491 813.41,-347.5143 756.6704,-334.7968"/>
<polygon fill="#191970" stroke="#191970" points="757.2002,-331.3288 746.6768,-332.5569 755.6692,-338.1593 757.2002,-331.3288"/>
</g>
<!-- Node14 -->
<g id="node15" class="node">
<title>Node14</title>
<g id="a_node15"><a xlink:href="../../df/d5b/GPUCommonLogger_8h.html" target="_top" xlink:title="GPUCommonLogger.h">
<polygon fill="none" stroke="#000000" points="0,-62 0,-81 123,-81 123,-62 0,-62"/>
<text text-anchor="middle" x="61.5" y="-69" font-family="Helvetica,sans-Serif" font-size="10.00" fill="#000000">GPUCommonLogger.h</text>
</a>
</g>
</g>
<!-- Node0&#45;&gt;Node14 -->
<g id="edge54" class="edge">
<title>Node0&#45;&gt;Node14</title>
<path fill="none" stroke="#191970" d="M947.629,-391.5987C725.8162,-379.7072 118.5,-339.5222 118.5,-256 118.5,-256 118.5,-256 118.5,-200 118.5,-157.3679 91.9601,-113.0853 75.0997,-89.2547"/>
<polygon fill="#191970" stroke="#191970" points="77.9151,-87.1752 69.1873,-81.1689 72.2645,-91.307 77.9151,-87.1752"/>
</g>
<!-- Node23 -->
<g id="node24" class="node">
<title>Node23</title>
<g id="a_node24"><a xlink:href="../../d6/d84/MathConstants_8h.html" target="_top" xlink:title="useful math constants ">
<polygon fill="none" stroke="#000000" points="989.5,-129 989.5,-148 1183.5,-148 1183.5,-129 989.5,-129"/>
<text text-anchor="middle" x="1086.5" y="-136" font-family="Helvetica,sans-Serif" font-size="10.00" fill="#000000">CommonConstants/MathConstants.h</text>
</a>
</g>
</g>
<!-- Node0&#45;&gt;Node23 -->
<g id="edge53" class="edge">
<title>Node0&#45;&gt;Node23</title>
<path fill="none" stroke="#191970" d="M1032.5478,-369.2444C1036.227,-350.4718 1041.4345,-324.6302 1046.5,-302 1058.2111,-249.6804 1073.681,-188.3758 1081.5069,-157.8373"/>
<polygon fill="#191970" stroke="#191970" points="1084.9224,-158.6085 1084.0232,-148.0519 1078.143,-156.8652 1084.9224,-158.6085"/>
</g>
<!-- Node35 -->
<g id="node36" class="node">
<title>Node35</title>
<polygon fill="none" stroke="#bfbfbf" points="1055.5,-308 1055.5,-327 1103.5,-327 1103.5,-308 1055.5,-308"/>
<text text-anchor="middle" x="1079.5" y="-315" font-family="Helvetica,sans-Serif" font-size="10.00" fill="#000000">TFile.h</text>
</g>
<!-- Node0&#45;&gt;Node35 -->
<g id="edge55" class="edge">
<title>Node0&#45;&gt;Node35</title>
<path fill="none" stroke="#191970" d="M1045.1048,-369.0928C1052.4285,-358.1073 1060.7477,-345.6285 1067.3697,-335.6954"/>
<polygon fill="#191970" stroke="#191970" points="1070.4759,-337.3459 1073.1108,-327.0839 1064.6515,-333.4629 1070.4759,-337.3459"/>
</g>
<!-- Node36 -->
<g id="node37" class="node">
<title>Node36</title>
<g id="a_node37"><a xlink:href="../../d1/d22/TreeStreamRedirector_8h.html" target="_top" xlink:title="CommonUtils/TreeStreamRedirector.h">
<polygon fill="none" stroke="#000000" points="2449.5,-308 2449.5,-327 2649.5,-327 2649.5,-308 2449.5,-308"/>
<text text-anchor="middle" x="2549.5" y="-315" font-family="Helvetica,sans-Serif" font-size="10.00" fill="#000000">CommonUtils/TreeStreamRedirector.h</text>
</a>
</g>
</g>
<!-- Node0&#45;&gt;Node36 -->
<g id="edge56" class="edge">
<title>Node0&#45;&gt;Node36</title>
<path fill="none" stroke="#191970" d="M1107.1864,-391.4162C1360.4629,-378.4362 2147.4833,-338.1027 2439.2262,-323.1514"/>
<polygon fill="#191970" stroke="#191970" points="2439.5861,-326.6376 2449.3938,-322.6303 2439.2277,-319.6468 2439.5861,-326.6376"/>
</g>
<!-- Node2 -->
<g id="node3" class="node">
<title>Node2</title>
<g id="a_node3"><a xlink:href="../../df/d21/GPUCommonDef_8h.html" target="_top" xlink:title="GPUCommonDef.h">
<polygon fill="none" stroke="#000000" points="428,-62 428,-81 535,-81 535,-62 428,-62"/>
<text text-anchor="middle" x="481.5" y="-69" font-family="Helvetica,sans-Serif" font-size="10.00" fill="#000000">GPUCommonDef.h</text>
</a>
</g>
</g>
<!-- Node1&#45;&gt;Node2 -->
<g id="edge2" class="edge">
<title>Node1&#45;&gt;Node2</title>
<path fill="none" stroke="#191970" d="M635.354,-302.4177C589.4042,-285.1901 517.0802,-253.637 465.5,-210 432.8664,-182.3919 407.1474,-162.0646 424.5,-123 431.0786,-108.1902 444.2534,-95.837 456.2807,-86.9447"/>
<polygon fill="#191970" stroke="#191970" points="458.4972,-89.6671 464.7249,-81.0958 454.5114,-83.9127 458.4972,-89.6671"/>
</g>
<!-- Node5 -->
<g id="node6" class="node">
<title>Node5</title>
<g id="a_node6"><a xlink:href="../../da/df3/MatLayerCyl_8h.html" target="_top" xlink:title="Declarations for single cylindrical material layer class. ">
<polygon fill="none" stroke="#000000" points="535,-190.5 535,-209.5 696,-209.5 696,-190.5 535,-190.5"/>
<text text-anchor="middle" x="615.5" y="-197.5" font-family="Helvetica,sans-Serif" font-size="10.00" fill="#000000">DetectorsBase/MatLayerCyl.h</text>
</a>
</g>
</g>
<!-- Node1&#45;&gt;Node5 -->
<g id="edge5" class="edge">
<title>Node1&#45;&gt;Node5</title>
<path fill="none" stroke="#191970" d="M671.1331,-302.1389C659.3927,-280.5843 638.0631,-241.4245 625.5005,-218.3604"/>
<polygon fill="#191970" stroke="#191970" points="628.5638,-216.6671 620.7069,-209.5595 622.4166,-220.0155 628.5638,-216.6671"/>
</g>
<!-- Node8 -->
<g id="node9" class="node">
<title>Node8</title>
<g id="a_node9"><a xlink:href="../../db/dff/FlatObject_8h.html" target="_top" xlink:title="Definition of FlatObject class. ">
<polygon fill="none" stroke="#000000" points="204,-129 204,-148 279,-148 279,-129 204,-129"/>
<text text-anchor="middle" x="241.5" y="-136" font-family="Helvetica,sans-Serif" font-size="10.00" fill="#000000">FlatObject.h</text>
</a>
</g>
</g>
<!-- Node1&#45;&gt;Node8 -->
<g id="edge51" class="edge">
<title>Node1&#45;&gt;Node8</title>
<path fill="none" stroke="#191970" d="M603.1236,-311.4229C497.6194,-302.4094 317.503,-284.5556 293.5,-266 259.2716,-239.5397 247.4503,-186.7712 243.4613,-158.115"/>
<polygon fill="#191970" stroke="#191970" points="246.9252,-157.6047 242.2527,-148.0958 239.9756,-158.4431 246.9252,-157.6047"/>
</g>
<!-- Node20 -->
<g id="node21" class="node">
<title>Node20</title>
<g id="a_node21"><a xlink:href="../../d4/d1b/Ray_8h.html" target="_top" xlink:title="DetectorsBase/Ray.h">
<polygon fill="none" stroke="#000000" points="671,-246.5 671,-265.5 788,-265.5 788,-246.5 671,-246.5"/>
<text text-anchor="middle" x="729.5" y="-253.5" font-family="Helvetica,sans-Serif" font-size="10.00" fill="#000000">DetectorsBase/Ray.h</text>
</a>
</g>
</g>
<!-- Node1&#45;&gt;Node20 -->
<g id="edge28" class="edge">
<title>Node1&#45;&gt;Node20</title>
<path fill="none" stroke="#191970" d="M691.8596,-302.2977C698.8724,-293.672 707.686,-282.8312 715.0214,-273.8087"/>
<polygon fill="#191970" stroke="#191970" points="717.9018,-275.8141 721.4944,-265.8469 712.4703,-271.3982 717.9018,-275.8141"/>
</g>
<!-- Node24 -->
<g id="node25" class="node">
<title>Node24</title>
<g id="a_node25"><a xlink:href="../../dd/d76/Cartesian3D_8h.html" target="_top" xlink:title="MathUtils/Cartesian3D.h">
<polygon fill="none" stroke="#000000" points="1604,-190.5 1604,-209.5 1739,-209.5 1739,-190.5 1604,-190.5"/>
<text text-anchor="middle" x="1671.5" y="-197.5" font-family="Helvetica,sans-Serif" font-size="10.00" fill="#000000">MathUtils/Cartesian3D.h</text>
</a>
</g>
</g>
<!-- Node1&#45;&gt;Node24 -->
<g id="edge52" class="edge">
<title>Node1&#45;&gt;Node24</title>
<path fill="none" stroke="#191970" d="M755.6934,-308.4751C939.9048,-286.6557 1407.8897,-231.224 1593.7194,-209.2129"/>
<polygon fill="#191970" stroke="#191970" points="1594.1676,-212.6844 1603.6864,-208.0324 1593.3441,-205.733 1594.1676,-212.6844"/>
</g>
<!-- Node3 -->
<g id="node4" class="node">
<title>Node3</title>
<g id="a_node4"><a xlink:href="../../d5/d93/GPUCommonDefSettings_8h.html" target="_top" xlink:title="GPUCommonDefSettings.h">
<polygon fill="none" stroke="#000000" points="484.5,-.5 484.5,-19.5 632.5,-19.5 632.5,-.5 484.5,-.5"/>
<text text-anchor="middle" x="558.5" y="-7.5" font-family="Helvetica,sans-Serif" font-size="10.00" fill="#000000">GPUCommonDefSettings.h</text>
</a>
</g>
</g>
<!-- Node2&#45;&gt;Node3 -->
<g id="edge3" class="edge">
<title>Node2&#45;&gt;Node3</title>
<path fill="none" stroke="#191970" d="M493.5313,-61.8906C505.5107,-52.3227 524.1166,-37.4621 538.3525,-26.0919"/>
<polygon fill="#191970" stroke="#191970" points="540.9239,-28.5175 546.5532,-19.5419 536.5553,-23.0479 540.9239,-28.5175"/>
</g>
<!-- Node4 -->
<g id="node5" class="node">
<title>Node4</title>
<g id="a_node5"><a xlink:href="../../da/d5a/GPUCommonDefAPI_8h.html" target="_top" xlink:title="GPUCommonDefAPI.h">
<polygon fill="none" stroke="#000000" points="342.5,-.5 342.5,-19.5 466.5,-19.5 466.5,-.5 342.5,-.5"/>
<text text-anchor="middle" x="404.5" y="-7.5" font-family="Helvetica,sans-Serif" font-size="10.00" fill="#000000">GPUCommonDefAPI.h</text>
</a>
</g>
</g>
<!-- Node2&#45;&gt;Node4 -->
<g id="edge4" class="edge">
<title>Node2&#45;&gt;Node4</title>
<path fill="none" stroke="#191970" d="M469.4688,-61.8906C457.4893,-52.3227 438.8834,-37.4621 424.6475,-26.0919"/>
<polygon fill="#191970" stroke="#191970" points="426.4447,-23.0479 416.4468,-19.5419 422.0761,-28.5175 426.4447,-23.0479"/>
</g>
<!-- Node5&#45;&gt;Node2 -->
<g id="edge8" class="edge">
<title>Node5&#45;&gt;Node2</title>
<path fill="none" stroke="#191970" d="M545.7313,-190.4682C502.835,-183.0165 453.6403,-171.0406 440.5,-154 424.6618,-133.4606 445.3409,-105.8385 462.6286,-88.3485"/>
<polygon fill="#191970" stroke="#191970" points="465.4012,-90.5385 470.1896,-81.0874 460.5526,-85.4896 465.4012,-90.5385"/>
</g>
<!-- Node6 -->
<g id="node7" class="node">
<title>Node6</title>
<polygon fill="none" stroke="#bfbfbf" points="829,-62 829,-81 876,-81 876,-62 829,-62"/>
<text text-anchor="middle" x="852.5" y="-69" font-family="Helvetica,sans-Serif" font-size="10.00" fill="#000000">cmath</text>
</g>
<!-- Node5&#45;&gt;Node6 -->
<g id="edge6" class="edge">
<title>Node5&#45;&gt;Node6</title>
<path fill="none" stroke="#191970" d="M631.4203,-190.4518C656.3522,-175.5903 706.2367,-146.2208 749.5,-123 774.1357,-109.7772 802.5938,-95.6319 823.3458,-85.5182"/>
<polygon fill="#191970" stroke="#191970" points="825.1119,-88.5516 832.5797,-81.0361 822.0551,-82.2543 825.1119,-88.5516"/>
</g>
<!-- Node7 -->
<g id="node8" class="node">
<title>Node7</title>
<polygon fill="none" stroke="#bfbfbf" points="359.5,-62 359.5,-81 409.5,-81 409.5,-62 359.5,-62"/>
<text text-anchor="middle" x="384.5" y="-69" font-family="Helvetica,sans-Serif" font-size="10.00" fill="#000000">cstring</text>
</g>
<!-- Node5&#45;&gt;Node7 -->
<g id="edge7" class="edge">
<title>Node5&#45;&gt;Node7</title>
<path fill="none" stroke="#191970" d="M556.6432,-190.4639C510.5668,-182.0646 451.1097,-168.8754 431.5,-154 410.4333,-138.0193 397.3138,-109.6737 390.4535,-90.7334"/>
<polygon fill="#191970" stroke="#191970" points="393.7092,-89.4343 387.2,-81.0749 387.0755,-91.669 393.7092,-89.4343"/>
</g>
<!-- Node5&#45;&gt;Node8 -->
<g id="edge9" class="edge">
<title>Node5&#45;&gt;Node8</title>
<path fill="none" stroke="#191970" d="M557.4729,-190.4581C483.7036,-178.3276 357.7249,-157.6118 289.2409,-146.3504"/>
<polygon fill="#191970" stroke="#191970" points="289.5989,-142.8624 279.1635,-144.6933 288.463,-149.7696 289.5989,-142.8624"/>
</g>
<!-- Node12 -->
<g id="node13" class="node">
<title>Node12</title>
<g id="a_node13"><a xlink:href="../../d2/d45/GPUCommonRtypes_8h.html" target="_top" xlink:title="GPUCommonRtypes.h">
<polygon fill="none" stroke="#000000" points="553,-62 553,-81 678,-81 678,-62 553,-62"/>
<text text-anchor="middle" x="615.5" y="-69" font-family="Helvetica,sans-Serif" font-size="10.00" fill="#000000">GPUCommonRtypes.h</text>
</a>
</g>
</g>
<!-- Node5&#45;&gt;Node12 -->
<g id="edge20" class="edge">
<title>Node5&#45;&gt;Node12</title>
<path fill="none" stroke="#191970" d="M615.5,-190.3416C615.5,-169.4114 615.5,-119.504 615.5,-91.4762"/>
<polygon fill="#191970" stroke="#191970" points="619.0001,-91.2704 615.5,-81.2705 612.0001,-91.2705 619.0001,-91.2704"/>
</g>
<!-- Node17 -->
<g id="node18" class="node">
<title>Node17</title>
<g id="a_node18"><a xlink:href="../../d6/da2/GPUCommonMath_8h.html" target="_top" xlink:title="GPUCommonMath.h">
<polygon fill="none" stroke="#000000" points="758,-129 758,-148 873,-148 873,-129 758,-129"/>
<text text-anchor="middle" x="815.5" y="-136" font-family="Helvetica,sans-Serif" font-size="10.00" fill="#000000">GPUCommonMath.h</text>
</a>
</g>
</g>
<!-- Node5&#45;&gt;Node17 -->
<g id="edge21" class="edge">
<title>Node5&#45;&gt;Node17</title>
<path fill="none" stroke="#191970" d="M646.75,-190.3906C681.2411,-179.7846 736.8812,-162.6753 774.7662,-151.0257"/>
<polygon fill="#191970" stroke="#191970" points="775.9399,-154.3266 784.4694,-148.0419 773.8824,-147.6357 775.9399,-154.3266"/>
</g>
<!-- Node19 -->
<g id="node20" class="node">
<title>Node19</title>
<g id="a_node20"><a xlink:href="../../db/dba/MatCell_8h.html" target="_top" xlink:title="Declarations for material properties of the cell (voxel) ">
<polygon fill="none" stroke="#000000" points="450,-129 450,-148 587,-148 587,-129 450,-129"/>
<text text-anchor="middle" x="518.5" y="-136" font-family="Helvetica,sans-Serif" font-size="10.00" fill="#000000">DetectorsBase/MatCell.h</text>
</a>
</g>
</g>
<!-- Node5&#45;&gt;Node19 -->
<g id="edge25" class="edge">
<title>Node5&#45;&gt;Node19</title>
<path fill="none" stroke="#191970" d="M600.3438,-190.3906C584.8257,-180.5519 560.4807,-165.1167 542.3716,-153.6351"/>
<polygon fill="#191970" stroke="#191970" points="543.8696,-150.4407 533.5498,-148.0419 540.1213,-156.3526 543.8696,-150.4407"/>
</g>
<!-- Node8&#45;&gt;Node2 -->
<g id="edge14" class="edge">
<title>Node8&#45;&gt;Node2</title>
<path fill="none" stroke="#191970" d="M273.0906,-128.9608C279.8189,-126.9636 286.8882,-124.8908 293.5,-123 342.0356,-109.1204 397.8406,-93.93 435.9638,-83.6689"/>
<polygon fill="#191970" stroke="#191970" points="436.9939,-87.0164 445.7427,-81.0406 435.1769,-80.2563 436.9939,-87.0164"/>
</g>
<!-- Node8&#45;&gt;Node7 -->
<g id="edge12" class="edge">
<title>Node8&#45;&gt;Node7</title>
<path fill="none" stroke="#191970" d="M261.9884,-128.9005C286.3056,-117.5072 327.0486,-98.4178 354.8169,-85.4075"/>
<polygon fill="#191970" stroke="#191970" points="356.4792,-88.4938 364.0496,-81.0817 353.5093,-82.1551 356.4792,-88.4938"/>
</g>
<!-- Node9 -->
<g id="node10" class="node">
<title>Node9</title>
<polygon fill="none" stroke="#bfbfbf" points="212,-62 212,-81 265,-81 265,-62 212,-62"/>
<text text-anchor="middle" x="238.5" y="-69" font-family="Helvetica,sans-Serif" font-size="10.00" fill="#000000">cstddef</text>
</g>
<!-- Node8&#45;&gt;Node9 -->
<g id="edge10" class="edge">
<title>Node8&#45;&gt;Node9</title>
<path fill="none" stroke="#191970" d="M241.0702,-128.9005C240.6335,-119.149 239.9445,-103.7597 239.3897,-91.3695"/>
<polygon fill="#191970" stroke="#191970" points="242.8729,-90.9151 238.929,-81.0817 235.8799,-91.2282 242.8729,-90.9151"/>
</g>
<!-- Node10 -->
<g id="node11" class="node">
<title>Node10</title>
<polygon fill="none" stroke="#bfbfbf" points="283.5,-62 283.5,-81 341.5,-81 341.5,-62 283.5,-62"/>
<text text-anchor="middle" x="312.5" y="-69" font-family="Helvetica,sans-Serif" font-size="10.00" fill="#000000">memory</text>
</g>
<!-- Node8&#45;&gt;Node10 -->
<g id="edge11" class="edge">
<title>Node8&#45;&gt;Node10</title>
<path fill="none" stroke="#191970" d="M251.6726,-128.9005C262.9553,-118.2535 281.3601,-100.8856 294.9742,-88.0385"/>
<polygon fill="#191970" stroke="#191970" points="297.4754,-90.4905 302.3463,-81.0817 292.6712,-85.3994 297.4754,-90.4905"/>
</g>
<!-- Node11 -->
<g id="node12" class="node">
<title>Node11</title>
<polygon fill="none" stroke="#bfbfbf" points="141.5,-62 141.5,-81 193.5,-81 193.5,-62 141.5,-62"/>
<text text-anchor="middle" x="167.5" y="-69" font-family="Helvetica,sans-Serif" font-size="10.00" fill="#000000">cassert</text>
</g>
<!-- Node8&#45;&gt;Node11 -->
<g id="edge13" class="edge">
<title>Node8&#45;&gt;Node11</title>
<path fill="none" stroke="#191970" d="M230.8976,-128.9005C219.1381,-118.2535 199.9557,-100.8856 185.7664,-88.0385"/>
<polygon fill="#191970" stroke="#191970" points="187.8449,-85.1989 178.0827,-81.0817 183.1466,-90.388 187.8449,-85.1989"/>
</g>
<!-- Node8&#45;&gt;Node12 -->
<g id="edge15" class="edge">
<title>Node8&#45;&gt;Node12</title>
<path fill="none" stroke="#191970" d="M279.2598,-132.5974C336.5267,-123.5244 448.7107,-105.2764 543.5,-87 549.6795,-85.8085 556.1442,-84.5023 562.5562,-83.1694"/>
<polygon fill="#191970" stroke="#191970" points="563.4765,-86.5524 572.5399,-81.0656 562.0331,-79.7028 563.4765,-86.5524"/>
</g>
<!-- Node8&#45;&gt;Node14 -->
<g id="edge17" class="edge">
<title>Node8&#45;&gt;Node14</title>
<path fill="none" stroke="#191970" d="M215.7104,-128.9005C184.5667,-117.3082 132.0185,-97.7486 97.0469,-84.7313"/>
<polygon fill="#191970" stroke="#191970" points="97.8346,-81.29 87.2418,-81.0817 95.3926,-87.8503 97.8346,-81.29"/>
</g>
<!-- Node13 -->
<g id="node14" class="node">
<title>Node13</title>
<polygon fill="none" stroke="#bfbfbf" points="1182,-.5 1182,-19.5 1241,-19.5 1241,-.5 1182,-.5"/>
<text text-anchor="middle" x="1211.5" y="-7.5" font-family="Helvetica,sans-Serif" font-size="10.00" fill="#000000">Rtypes.h</text>
</g>
<!-- Node12&#45;&gt;Node13 -->
<g id="edge16" class="edge">
<title>Node12&#45;&gt;Node13</title>
<path fill="none" stroke="#191970" d="M678.1491,-63.1789C697.1945,-60.7468 718.1915,-58.163 737.5,-56 898.1096,-38.008 1089.806,-20.6726 1171.4739,-13.481"/>
<polygon fill="#191970" stroke="#191970" points="1172.1405,-16.936 1181.7959,-12.5746 1171.528,-9.9629 1172.1405,-16.936"/>
</g>
<!-- Node15 -->
<g id="node16" class="node">
<title>Node15</title>
<polygon fill="none" stroke="#bfbfbf" points="67.5,-.5 67.5,-19.5 127.5,-19.5 127.5,-.5 67.5,-.5"/>
<text text-anchor="middle" x="97.5" y="-7.5" font-family="Helvetica,sans-Serif" font-size="10.00" fill="#000000">iostream</text>
</g>
<!-- Node14&#45;&gt;Node15 -->
<g id="edge18" class="edge">
<title>Node14&#45;&gt;Node15</title>
<path fill="none" stroke="#191970" d="M67.125,-61.8906C72.3253,-53.0068 80.1966,-39.5601 86.6233,-28.5811"/>
<polygon fill="#191970" stroke="#191970" points="89.7644,-30.1432 91.7957,-19.7449 83.7233,-26.6069 89.7644,-30.1432"/>
</g>
<!-- Node16 -->
<g id="node17" class="node">
<title>Node16</title>
<polygon fill="none" stroke="#bfbfbf" points="3.5,-.5 3.5,-19.5 49.5,-19.5 49.5,-.5 3.5,-.5"/>
<text text-anchor="middle" x="26.5" y="-7.5" font-family="Helvetica,sans-Serif" font-size="10.00" fill="#000000">cstdio</text>
</g>
<!-- Node14&#45;&gt;Node16 -->
<g id="edge19" class="edge">
<title>Node14&#45;&gt;Node16</title>
<path fill="none" stroke="#191970" d="M56.0313,-61.8906C50.9754,-53.0068 43.3228,-39.5601 37.0746,-28.5811"/>
<polygon fill="#191970" stroke="#191970" points="40.034,-26.7048 32.0459,-19.7449 33.9502,-30.1672 40.034,-26.7048"/>
</g>
<!-- Node17&#45;&gt;Node2 -->
<g id="edge22" class="edge">
<title>Node17&#45;&gt;Node2</title>
<path fill="none" stroke="#191970" d="M760.0888,-128.9774C704.9897,-119.2809 618.1407,-103.3819 543.5,-87 538.481,-85.8985 533.2489,-84.6882 528.0449,-83.4446"/>
<polygon fill="#191970" stroke="#191970" points="528.6799,-79.997 518.1357,-81.0318 527.0238,-86.7983 528.6799,-79.997"/>
</g>
<!-- Node17&#45;&gt;Node6 -->
<g id="edge23" class="edge">
<title>Node17&#45;&gt;Node6</title>
<path fill="none" stroke="#191970" d="M820.8012,-128.9005C826.4062,-118.751 835.3839,-102.4941 842.3565,-89.8679"/>
<polygon fill="#191970" stroke="#191970" points="845.4382,-91.5275 847.2086,-81.0817 839.3105,-88.1435 845.4382,-91.5275"/>
</g>
<!-- Node18 -->
<g id="node19" class="node">
<title>Node18</title>
<polygon fill="none" stroke="#bfbfbf" points="746.5,-62 746.5,-81 810.5,-81 810.5,-62 746.5,-62"/>
<text text-anchor="middle" x="778.5" y="-69" font-family="Helvetica,sans-Serif" font-size="10.00" fill="#000000">algorithm</text>
</g>
<!-- Node17&#45;&gt;Node18 -->
<g id="edge24" class="edge">
<title>Node17&#45;&gt;Node18</title>
<path fill="none" stroke="#191970" d="M810.1988,-128.9005C804.5938,-118.751 795.6161,-102.4941 788.6435,-89.8679"/>
<polygon fill="#191970" stroke="#191970" points="791.6895,-88.1435 783.7914,-81.0817 785.5618,-91.5275 791.6895,-88.1435"/>
</g>
<!-- Node19&#45;&gt;Node2 -->
<g id="edge26" class="edge">
<title>Node19&#45;&gt;Node2</title>
<path fill="none" stroke="#191970" d="M513.1988,-128.9005C507.5938,-118.751 498.6161,-102.4941 491.6435,-89.8679"/>
<polygon fill="#191970" stroke="#191970" points="494.6895,-88.1435 486.7914,-81.0817 488.5618,-91.5275 494.6895,-88.1435"/>
</g>
<!-- Node19&#45;&gt;Node12 -->
<g id="edge27" class="edge">
<title>Node19&#45;&gt;Node12</title>
<path fill="none" stroke="#191970" d="M532.3977,-128.9005C548.3164,-117.9052 574.6121,-99.7422 593.3599,-86.7927"/>
<polygon fill="#191970" stroke="#191970" points="595.3892,-89.6448 601.628,-81.0817 591.4108,-83.8852 595.3892,-89.6448"/>
</g>
<!-- Node20&#45;&gt;Node2 -->
<g id="edge30" class="edge">
<title>Node20&#45;&gt;Node2</title>
<path fill="none" stroke="#191970" d="M670.8823,-247.8243C629.2959,-240.8231 572.7112,-228.8312 525.5,-210 480.331,-191.9834 455.5261,-196.2799 431.5,-154 418.1779,-130.5564 441.3887,-103.9698 460.45,-87.466"/>
<polygon fill="#191970" stroke="#191970" points="462.7498,-90.1062 468.2465,-81.0488 458.3012,-84.7015 462.7498,-90.1062"/>
</g>
<!-- Node20&#45;&gt;Node5 -->
<g id="edge32" class="edge">
<title>Node20&#45;&gt;Node5</title>
<path fill="none" stroke="#191970" d="M709.9027,-246.3733C691.7669,-237.4644 664.5865,-224.1127 644.0413,-214.0203"/>
<polygon fill="#191970" stroke="#191970" points="645.3603,-210.7688 634.8416,-209.5011 642.2739,-217.0517 645.3603,-210.7688"/>
</g>
<!-- Node20&#45;&gt;Node12 -->
<g id="edge29" class="edge">
<title>Node20&#45;&gt;Node12</title>
<path fill="none" stroke="#191970" d="M726.748,-246.2273C722.8152,-233.0032 714.898,-208.8926 704.5,-190 683.159,-151.2247 650.3119,-111.0534 631.0584,-88.8708"/>
<polygon fill="#191970" stroke="#191970" points="633.6273,-86.4919 624.3973,-81.2903 628.369,-91.1126 633.6273,-86.4919"/>
</g>
<!-- Node20&#45;&gt;Node17 -->
<g id="edge31" class="edge">
<title>Node20&#45;&gt;Node17</title>
<path fill="none" stroke="#191970" d="M736.5377,-246.3845C750.9005,-226.761 783.788,-181.8274 802.269,-156.5772"/>
<polygon fill="#191970" stroke="#191970" points="805.2831,-158.3851 808.365,-148.2484 799.6345,-154.2507 805.2831,-158.3851"/>
</g>
<!-- Node21 -->
<g id="node22" class="node">
<title>Node21</title>
<g id="a_node22"><a xlink:href="../../d9/d52/Common_2MathUtils_2include_2MathUtils_2Utils_8h.html" target="_top" xlink:title="MathUtils/Utils.h">
<polygon fill="none" stroke="#000000" points="841.5,-190.5 841.5,-209.5 939.5,-209.5 939.5,-190.5 841.5,-190.5"/>
<text text-anchor="middle" x="890.5" y="-197.5" font-family="Helvetica,sans-Serif" font-size="10.00" fill="#000000">MathUtils/Utils.h</text>
</a>
</g>
</g>
<!-- Node20&#45;&gt;Node21 -->
<g id="edge33" class="edge">
<title>Node20&#45;&gt;Node21</title>
<path fill="none" stroke="#191970" d="M757.1769,-246.3733C783.8328,-237.1016 824.3238,-223.0178 853.6884,-212.804"/>
<polygon fill="#191970" stroke="#191970" points="854.8891,-216.0921 863.1843,-209.5011 852.5895,-209.4807 854.8891,-216.0921"/>
</g>
<!-- Node20&#45;&gt;Node24 -->
<g id="edge39" class="edge">
<title>Node20&#45;&gt;Node24</title>
<path fill="none" stroke="#191970" d="M788.0119,-252.2914C818.3022,-250.3847 855.8851,-248.0391 889.5,-246 1147.2513,-230.3644 1452.8428,-212.6174 1593.5178,-204.4924"/>
<polygon fill="#191970" stroke="#191970" points="1593.9843,-207.9713 1603.7658,-203.9006 1593.5807,-200.983 1593.9843,-207.9713"/>
</g>
<!-- Node21&#45;&gt;Node2 -->
<g id="edge36" class="edge">
<title>Node21&#45;&gt;Node2</title>
<path fill="none" stroke="#191970" d="M860.0927,-190.4466C787.3172,-167.5819 603.1171,-109.7098 521.4922,-84.0648"/>
<polygon fill="#191970" stroke="#191970" points="522.4189,-80.6873 511.8296,-81.029 520.3207,-87.3655 522.4189,-80.6873"/>
</g>
<!-- Node21&#45;&gt;Node6 -->
<g id="edge35" class="edge">
<title>Node21&#45;&gt;Node6</title>
<path fill="none" stroke="#191970" d="M907.5567,-190.377C919.8089,-182.4014 935.3708,-169.8248 942.5,-154 948.1592,-141.4381 949.4119,-134.9186 942.5,-123 930.315,-101.9886 905.9746,-88.8197 885.6763,-81.063"/>
<polygon fill="#191970" stroke="#191970" points="886.702,-77.7134 876.1073,-77.6793 884.3683,-84.313 886.702,-77.7134"/>
</g>
<!-- Node21&#45;&gt;Node17 -->
<g id="edge37" class="edge">
<title>Node21&#45;&gt;Node17</title>
<path fill="none" stroke="#191970" d="M878.7813,-190.3906C867.1812,-180.8786 849.2021,-166.1357 835.3679,-154.7917"/>
<polygon fill="#191970" stroke="#191970" points="837.336,-151.8792 827.384,-148.2449 832.8974,-157.2921 837.336,-151.8792"/>
</g>
<!-- Node22 -->
<g id="node23" class="node">
<title>Node22</title>
<polygon fill="none" stroke="#bfbfbf" points="891.5,-129 891.5,-148 933.5,-148 933.5,-129 891.5,-129"/>
<text text-anchor="middle" x="912.5" y="-136" font-family="Helvetica,sans-Serif" font-size="10.00" fill="#000000">array</text>
</g>
<!-- Node21&#45;&gt;Node22 -->
<g id="edge34" class="edge">
<title>Node21&#45;&gt;Node22</title>
<path fill="none" stroke="#191970" d="M893.9375,-190.3906C897.0513,-181.6862 901.732,-168.6015 905.614,-157.7494"/>
<polygon fill="#191970" stroke="#191970" points="908.9412,-158.8394 909.014,-148.2449 902.3503,-156.4817 908.9412,-158.8394"/>
</g>
<!-- Node21&#45;&gt;Node23 -->
<g id="edge38" class="edge">
<title>Node21&#45;&gt;Node23</title>
<path fill="none" stroke="#191970" d="M921.125,-190.3906C954.7824,-179.8298 1008.9899,-162.8208 1046.1059,-151.1747"/>
<polygon fill="#191970" stroke="#191970" points="1047.5966,-154.3753 1056.0901,-148.0419 1045.5009,-147.6963 1047.5966,-154.3753"/>
</g>
<!-- Node24&#45;&gt;Node13 -->
<g id="edge45" class="edge">
<title>Node24&#45;&gt;Node13</title>
<path fill="none" stroke="#191970" d="M1603.9031,-197.4888C1486.9334,-192.4873 1256.7049,-179.5003 1230.5,-154 1197.1822,-121.5781 1201.9985,-61.1722 1207.3033,-29.9026"/>
<polygon fill="#191970" stroke="#191970" points="1210.7935,-30.2821 1209.2102,-19.8062 1203.9151,-28.983 1210.7935,-30.2821"/>
</g>
<!-- Node25 -->
<g id="node26" class="node">
<title>Node25</title>
<polygon fill="none" stroke="#bfbfbf" points="2116.5,-123.5 2116.5,-153.5 2280.5,-153.5 2280.5,-123.5 2116.5,-123.5"/>
<text text-anchor="start" x="2124.5" y="-141.5" font-family="Helvetica,sans-Serif" font-size="10.00" fill="#000000">Math/GenVector/Displacement</text>
<text text-anchor="middle" x="2198.5" y="-130.5" font-family="Helvetica,sans-Serif" font-size="10.00" fill="#000000">Vector3D.h</text>
</g>
<!-- Node24&#45;&gt;Node25 -->
<g id="edge40" class="edge">
<title>Node24&#45;&gt;Node25</title>
<path fill="none" stroke="#191970" d="M1739.2566,-194.1971C1823.0332,-186.7208 1970.2135,-172.6049 2106.023,-154.1533"/>
<polygon fill="#191970" stroke="#191970" points="2106.7638,-157.5846 2116.1963,-152.76 2105.8139,-150.6494 2106.7638,-157.5846"/>
</g>
<!-- Node26 -->
<g id="node27" class="node">
<title>Node26</title>
<polygon fill="none" stroke="#bfbfbf" points="2299,-129 2299,-148 2488,-148 2488,-129 2299,-129"/>
<text text-anchor="middle" x="2393.5" y="-136" font-family="Helvetica,sans-Serif" font-size="10.00" fill="#000000">Math/GenVector/PositionVector3D.h</text>
</g>
<!-- Node24&#45;&gt;Node26 -->
<g id="edge41" class="edge">
<title>Node24&#45;&gt;Node26</title>
<path fill="none" stroke="#191970" d="M1739.3222,-196.5898C1853.2297,-190.4955 2090.0851,-176.2513 2289.5,-154 2300.8659,-152.7318 2312.8973,-151.156 2324.5877,-149.4991"/>
<polygon fill="#191970" stroke="#191970" points="2325.3528,-152.9249 2334.748,-148.028 2324.3496,-145.9972 2325.3528,-152.9249"/>
</g>
<!-- Node27 -->
<g id="node28" class="node">
<title>Node27</title>
<polygon fill="none" stroke="#bfbfbf" points="1239.5,-129 1239.5,-148 1399.5,-148 1399.5,-129 1239.5,-129"/>
<text text-anchor="middle" x="1319.5" y="-136" font-family="Helvetica,sans-Serif" font-size="10.00" fill="#000000">Math/GenVector/Rotation3D.h</text>
</g>
<!-- Node24&#45;&gt;Node27 -->
<g id="edge42" class="edge">
<title>Node24&#45;&gt;Node27</title>
<path fill="none" stroke="#191970" d="M1616.8862,-190.4581C1553.9769,-179.4668 1450.7255,-161.4272 1383.939,-149.7585"/>
<polygon fill="#191970" stroke="#191970" points="1384.4055,-146.2871 1373.9523,-148.0137 1383.2007,-153.1826 1384.4055,-146.2871"/>
</g>
<!-- Node28 -->
<g id="node29" class="node">
<title>Node28</title>
<polygon fill="none" stroke="#bfbfbf" points="1417.5,-129 1417.5,-148 1585.5,-148 1585.5,-129 1417.5,-129"/>
<text text-anchor="middle" x="1501.5" y="-136" font-family="Helvetica,sans-Serif" font-size="10.00" fill="#000000">Math/GenVector/Transform3D.h</text>
</g>
<!-- Node24&#45;&gt;Node28 -->
<g id="edge43" class="edge">
<title>Node24&#45;&gt;Node28</title>
<path fill="none" stroke="#191970" d="M1644.9375,-190.3906C1615.9944,-179.92 1569.5306,-163.1111 1537.3644,-151.4745"/>
<polygon fill="#191970" stroke="#191970" points="1538.4702,-148.1526 1527.876,-148.0419 1536.0889,-154.7351 1538.4702,-148.1526"/>
</g>
<!-- Node29 -->
<g id="node30" class="node">
<title>Node29</title>
<polygon fill="none" stroke="#bfbfbf" points="1757,-129 1757,-148 1930,-148 1930,-129 1757,-129"/>
<text text-anchor="middle" x="1843.5" y="-136" font-family="Helvetica,sans-Serif" font-size="10.00" fill="#000000">Math/GenVector/Translation3D.h</text>
</g>
<!-- Node24&#45;&gt;Node29 -->
<g id="edge44" class="edge">
<title>Node24&#45;&gt;Node29</title>
<path fill="none" stroke="#191970" d="M1698.375,-190.3906C1727.6586,-179.92 1774.669,-163.1111 1807.2137,-151.4745"/>
<polygon fill="#191970" stroke="#191970" points="1808.5759,-154.7045 1816.8137,-148.0419 1806.2191,-148.1131 1808.5759,-154.7045"/>
</g>
<!-- Node30 -->
<g id="node31" class="node">
<title>Node30</title>
<polygon fill="none" stroke="#bfbfbf" points="1948.5,-129 1948.5,-148 2030.5,-148 2030.5,-129 1948.5,-129"/>
<text text-anchor="middle" x="1989.5" y="-136" font-family="Helvetica,sans-Serif" font-size="10.00" fill="#000000">TGeoMatrix.h</text>
</g>
<!-- Node24&#45;&gt;Node30 -->
<g id="edge46" class="edge">
<title>Node24&#45;&gt;Node30</title>
<path fill="none" stroke="#191970" d="M1739.1808,-190.8824C1793.6664,-182.9443 1872.0162,-170.1783 1939.5,-154 1943.3665,-153.0731 1947.3717,-152.0103 1951.3554,-150.8851"/>
<polygon fill="#191970" stroke="#191970" points="1952.5222,-154.19 1961.1219,-148.0016 1950.5401,-147.4765 1952.5222,-154.19"/>
</g>
<!-- Node31 -->
<g id="node32" class="node">
<title>Node31</title>
<polygon fill="none" stroke="#bfbfbf" points="2049,-129 2049,-148 2098,-148 2098,-129 2049,-129"/>
<text text-anchor="middle" x="2073.5" y="-136" font-family="Helvetica,sans-Serif" font-size="10.00" fill="#000000">iosfwd</text>
</g>
<!-- Node24&#45;&gt;Node31 -->
<g id="edge47" class="edge">
<title>Node24&#45;&gt;Node31</title>
<path fill="none" stroke="#191970" d="M1739.1938,-197.671C1813.9568,-193.6947 1937.285,-182.9552 2039.5,-154 2041.4661,-153.443 2043.4632,-152.7885 2045.4537,-152.0687"/>
<polygon fill="#191970" stroke="#191970" points="2047.2574,-155.1119 2055.1799,-148.0773 2044.5998,-148.636 2047.2574,-155.1119"/>
</g>
<!-- Node32 -->
<g id="node33" class="node">
<title>Node32</title>
<g id="a_node33"><a xlink:href="../../d2/dd0/Cartesian2D_8h.html" target="_top" xlink:title="MathUtils/Cartesian2D.h">
<polygon fill="none" stroke="#000000" points="1604,-129 1604,-148 1739,-148 1739,-129 1604,-129"/>
<text text-anchor="middle" x="1671.5" y="-136" font-family="Helvetica,sans-Serif" font-size="10.00" fill="#000000">MathUtils/Cartesian2D.h</text>
</a>
</g>
</g>
<!-- Node24&#45;&gt;Node32 -->
<g id="edge48" class="edge">
<title>Node24&#45;&gt;Node32</title>
<path fill="none" stroke="#191970" d="M1671.5,-190.3906C1671.5,-181.8657 1671.5,-169.1392 1671.5,-158.4235"/>
<polygon fill="#191970" stroke="#191970" points="1675.0001,-158.2448 1671.5,-148.2449 1668.0001,-158.2449 1675.0001,-158.2448"/>
</g>
<!-- Node33 -->
<g id="node34" class="node">
<title>Node33</title>
<polygon fill="none" stroke="#bfbfbf" points="1687.5,-56.5 1687.5,-86.5 1851.5,-86.5 1851.5,-56.5 1687.5,-56.5"/>
<text text-anchor="start" x="1695.5" y="-74.5" font-family="Helvetica,sans-Serif" font-size="10.00" fill="#000000">Math/GenVector/Displacement</text>
<text text-anchor="middle" x="1769.5" y="-63.5" font-family="Helvetica,sans-Serif" font-size="10.00" fill="#000000">Vector2D.h</text>
</g>
<!-- Node32&#45;&gt;Node33 -->
<g id="edge49" class="edge">
<title>Node32&#45;&gt;Node33</title>
<path fill="none" stroke="#191970" d="M1685.541,-128.9005C1699.4588,-119.3853 1721.228,-104.5023 1739.112,-92.2755"/>
<polygon fill="#191970" stroke="#191970" points="1741.2481,-95.0549 1747.5279,-86.5218 1737.2974,-89.2763 1741.2481,-95.0549"/>
</g>
<!-- Node34 -->
<g id="node35" class="node">
<title>Node34</title>
<polygon fill="none" stroke="#bfbfbf" points="1480,-62 1480,-81 1669,-81 1669,-62 1480,-62"/>
<text text-anchor="middle" x="1574.5" y="-69" font-family="Helvetica,sans-Serif" font-size="10.00" fill="#000000">Math/GenVector/PositionVector2D.h</text>
</g>
<!-- Node32&#45;&gt;Node34 -->
<g id="edge50" class="edge">
<title>Node32&#45;&gt;Node34</title>
<path fill="none" stroke="#191970" d="M1657.6023,-128.9005C1641.6836,-117.9052 1615.3879,-99.7422 1596.6401,-86.7927"/>
<polygon fill="#191970" stroke="#191970" points="1598.5892,-83.8852 1588.372,-81.0817 1594.6108,-89.6448 1598.5892,-83.8852"/>
</g>
<!-- Node36&#45;&gt;Node13 -->
<g id="edge57" class="edge">
<title>Node36&#45;&gt;Node13</title>
<path fill="none" stroke="#191970" d="M2544.7719,-307.7029C2535.6471,-287.8658 2516.5,-241.3177 2516.5,-200 2516.5,-200 2516.5,-200 2516.5,-138.5 2516.5,8.4261 2006.8604,-68.8803 1860.5,-56 1630.108,-35.7247 1353.0872,-18.4558 1251.4114,-12.3545"/>
<polygon fill="#191970" stroke="#191970" points="1251.4764,-8.8523 1241.2853,-11.7491 1251.0586,-15.8398 1251.4764,-8.8523"/>
</g>
<!-- Node37 -->
<g id="node38" class="node">
<title>Node37</title>
<polygon fill="none" stroke="#bfbfbf" points="2545,-246.5 2545,-265.5 2620,-265.5 2620,-246.5 2545,-246.5"/>
<text text-anchor="middle" x="2582.5" y="-253.5" font-family="Helvetica,sans-Serif" font-size="10.00" fill="#000000">TDirectory.h</text>
</g>
<!-- Node36&#45;&gt;Node37 -->
<g id="edge58" class="edge">
<title>Node36&#45;&gt;Node37</title>
<path fill="none" stroke="#191970" d="M2554.6563,-307.8906C2559.4232,-299.0068 2566.6385,-285.5601 2572.5297,-274.5811"/>
<polygon fill="#191970" stroke="#191970" points="2575.6269,-276.2114 2577.2711,-265.7449 2569.4588,-272.9016 2575.6269,-276.2114"/>
</g>
<!-- Node38 -->
<g id="node39" class="node">
<title>Node38</title>
<g id="a_node39"><a xlink:href="../../d2/dec/TreeStream_8h.html" target="_top" xlink:title="CommonUtils/TreeStream.h">
<polygon fill="none" stroke="#000000" points="2638,-246.5 2638,-265.5 2789,-265.5 2789,-246.5 2638,-246.5"/>
<text text-anchor="middle" x="2713.5" y="-253.5" font-family="Helvetica,sans-Serif" font-size="10.00" fill="#000000">CommonUtils/TreeStream.h</text>
</a>
</g>
</g>
<!-- Node36&#45;&gt;Node38 -->
<g id="edge59" class="edge">
<title>Node36&#45;&gt;Node38</title>
<path fill="none" stroke="#191970" d="M2575.125,-307.8906C2602.9263,-297.4652 2647.4844,-280.7559 2678.4994,-269.1252"/>
<polygon fill="#191970" stroke="#191970" points="2679.9206,-272.3303 2688.0549,-265.5419 2677.4627,-265.776 2679.9206,-272.3303"/>
</g>
<!-- Node39 -->
<g id="node40" class="node">
<title>Node39</title>
<polygon fill="none" stroke="#bfbfbf" points="2609.5,-190.5 2609.5,-209.5 2669.5,-209.5 2669.5,-190.5 2609.5,-190.5"/>
<text text-anchor="middle" x="2639.5" y="-197.5" font-family="Helvetica,sans-Serif" font-size="10.00" fill="#000000">TString.h</text>
</g>
<!-- Node38&#45;&gt;Node39 -->
<g id="edge60" class="edge">
<title>Node38&#45;&gt;Node39</title>
<path fill="none" stroke="#191970" d="M2700.6102,-246.2455C2689.5746,-237.8943 2673.4708,-225.7076 2660.5647,-215.9408"/>
<polygon fill="#191970" stroke="#191970" points="2662.3283,-212.8862 2652.2421,-209.6427 2658.1041,-218.4681 2662.3283,-212.8862"/>
</g>
<!-- Node40 -->
<g id="node41" class="node">
<title>Node40</title>
<polygon fill="none" stroke="#bfbfbf" points="2687.5,-190.5 2687.5,-209.5 2739.5,-209.5 2739.5,-190.5 2687.5,-190.5"/>
<text text-anchor="middle" x="2713.5" y="-197.5" font-family="Helvetica,sans-Serif" font-size="10.00" fill="#000000">TTree.h</text>
</g>
<!-- Node38&#45;&gt;Node40 -->
<g id="edge61" class="edge">
<title>Node38&#45;&gt;Node40</title>
<path fill="none" stroke="#191970" d="M2713.5,-246.2455C2713.5,-238.9382 2713.5,-228.6944 2713.5,-219.7046"/>
<polygon fill="#191970" stroke="#191970" points="2717.0001,-219.6426 2713.5,-209.6427 2710.0001,-219.6427 2717.0001,-219.6426"/>
</g>
<!-- Node41 -->
<g id="node42" class="node">
<title>Node41</title>
<polygon fill="none" stroke="#bfbfbf" points="2758,-190.5 2758,-209.5 2805,-209.5 2805,-190.5 2758,-190.5"/>
<text text-anchor="middle" x="2781.5" y="-197.5" font-family="Helvetica,sans-Serif" font-size="10.00" fill="#000000">vector</text>
</g>
<!-- Node38&#45;&gt;Node41 -->
<g id="edge62" class="edge">
<title>Node38&#45;&gt;Node41</title>
<path fill="none" stroke="#191970" d="M2725.3447,-246.2455C2735.388,-237.9746 2749.9995,-225.9416 2761.8004,-216.2232"/>
<polygon fill="#191970" stroke="#191970" points="2764.2967,-218.7015 2769.791,-209.6427 2759.8467,-213.298 2764.2967,-218.7015"/>
</g>
</g>
</svg>
